; NON-PLATED HOLES START AT T1
; THROUGH (PLATED) HOLES START AT T100
M48
INCH
T1C0.125984
T100C0.100000
T101C0.039370
T102C0.038000
%
T1
X005626Y016477
X025626Y009977
X005626Y000977
T100
X025126Y006877
X025126Y004477
X027026Y005677
T101
X003126Y009977
X003126Y014477
X003126Y010977
X003126Y006477
X003126Y002977
X003126Y000977
X008126Y004477
X006126Y004477
X007126Y004477
X008126Y010477
X006126Y010477
X003126Y015477
X003126Y011977
X003126Y007477
X007126Y010477
X013126Y004477
X011126Y004477
X008126Y007477
X006126Y007477
X012126Y004477
X007126Y007477
X013126Y010477
X011126Y010477
X003126Y005477
X008126Y013477
X006126Y013477
X003126Y001977
X012126Y010477
X007126Y013477
X013126Y007477
X011126Y007477
X012126Y007477
X003126Y016477
X013126Y013477
X011126Y013477
X012126Y013477
T102
X016126Y011977
X022126Y001977
X016126Y004977
X016126Y001977
X022126Y009977
X022126Y013977
X022126Y006977
X016126Y009977
X022126Y010977
X016126Y013977
X022126Y003977
X016126Y006977
X016126Y010977
X016126Y003977
X022126Y015977
X022126Y008977
X022126Y012977
X016126Y015977
X022126Y005977
X016126Y008977
X016126Y012977
X022126Y002977
X016126Y005977
X016126Y002977
X022126Y014977
X022126Y007977
X022126Y011977
X016126Y014977
X022126Y004977
X016126Y007977
T00
M30
