G04 #@! TF.FileFunction,Copper,L2,Bot,Signal*
%FSLAX46Y46*%
G04 Gerber Fmt 4.6, Leading zero omitted, Abs format (unit mm)*
G04 Created by KiCad (PCBNEW 4.0.2+e4-6225~38~ubuntu15.04.1-stable) date di 02 aug 2016 05:28:45 CEST*
%MOMM*%
G01*
G04 APERTURE LIST*
%ADD10C,0.100000*%
%ADD11C,3.200000*%
%ADD12R,1.750000X1.750000*%
%ADD13C,1.750000*%
%ADD14C,0.254000*%
G04 APERTURE END LIST*
D10*
D11*
X184150000Y-130810000D03*
X184150000Y-111125000D03*
X142240000Y-130810000D03*
X142240000Y-111125000D03*
D12*
X146875500Y-118427500D03*
D13*
X146875500Y-120927500D03*
X146875500Y-123427500D03*
D12*
X179260500Y-123380500D03*
D13*
X179260500Y-120880500D03*
X179260500Y-118380500D03*
D12*
X152654000Y-112014000D03*
D13*
X155154000Y-112014000D03*
X157654000Y-112014000D03*
X160154000Y-112014000D03*
D12*
X165989000Y-112014000D03*
D13*
X168489000Y-112014000D03*
X170989000Y-112014000D03*
X173489000Y-112014000D03*
D12*
X152654000Y-120777000D03*
D13*
X155154000Y-120777000D03*
X157654000Y-120777000D03*
X160154000Y-120777000D03*
D12*
X165989000Y-120777000D03*
D13*
X168489000Y-120777000D03*
X170989000Y-120777000D03*
X173489000Y-120777000D03*
D12*
X152654000Y-129159000D03*
D13*
X155154000Y-129159000D03*
X157654000Y-129159000D03*
X160154000Y-129159000D03*
D12*
X165989000Y-129159000D03*
D13*
X168489000Y-129159000D03*
X170989000Y-129159000D03*
X173489000Y-129159000D03*
D14*
G36*
X180992246Y-109011068D02*
X180423649Y-110380402D01*
X180422355Y-111863094D01*
X180988561Y-113233418D01*
X182036068Y-114282754D01*
X183405402Y-114851351D01*
X184888094Y-114852645D01*
X186258418Y-114286439D01*
X187198000Y-113348494D01*
X187198000Y-128587945D01*
X186263932Y-127652246D01*
X184894598Y-127083649D01*
X183411906Y-127082355D01*
X182041582Y-127648561D01*
X180992246Y-128696068D01*
X180423649Y-130065402D01*
X180422355Y-131548094D01*
X180988561Y-132918418D01*
X181926506Y-133858000D01*
X144462055Y-133858000D01*
X145397754Y-132923932D01*
X145966351Y-131554598D01*
X145967645Y-130071906D01*
X145401439Y-128701582D01*
X144984585Y-128284000D01*
X151131560Y-128284000D01*
X151131560Y-130034000D01*
X151175838Y-130269317D01*
X151314910Y-130485441D01*
X151527110Y-130630431D01*
X151779000Y-130681440D01*
X153529000Y-130681440D01*
X153764317Y-130637162D01*
X153980441Y-130498090D01*
X154117994Y-130296774D01*
X154156914Y-130335694D01*
X154271546Y-130221062D01*
X154354884Y-130474953D01*
X154919306Y-130680590D01*
X155519458Y-130654579D01*
X155953116Y-130474953D01*
X156036455Y-130221060D01*
X155154000Y-129338605D01*
X155139858Y-129352748D01*
X154960253Y-129173143D01*
X154974395Y-129159000D01*
X155333605Y-129159000D01*
X156216060Y-130041455D01*
X156364648Y-129992682D01*
X156373138Y-130013229D01*
X156797537Y-130438370D01*
X157352325Y-130668738D01*
X157953040Y-130669262D01*
X158508229Y-130439862D01*
X158904318Y-130044464D01*
X159297537Y-130438370D01*
X159852325Y-130668738D01*
X160453040Y-130669262D01*
X161008229Y-130439862D01*
X161433370Y-130015463D01*
X161663738Y-129460675D01*
X161664262Y-128859960D01*
X161434862Y-128304771D01*
X161414128Y-128284000D01*
X164466560Y-128284000D01*
X164466560Y-130034000D01*
X164510838Y-130269317D01*
X164649910Y-130485441D01*
X164862110Y-130630431D01*
X165114000Y-130681440D01*
X166864000Y-130681440D01*
X167099317Y-130637162D01*
X167315441Y-130498090D01*
X167452994Y-130296774D01*
X167491914Y-130335694D01*
X167606546Y-130221062D01*
X167689884Y-130474953D01*
X168254306Y-130680590D01*
X168854458Y-130654579D01*
X169288116Y-130474953D01*
X169371455Y-130221060D01*
X168489000Y-129338605D01*
X168474858Y-129352748D01*
X168295253Y-129173143D01*
X168309395Y-129159000D01*
X168668605Y-129159000D01*
X169551060Y-130041455D01*
X169699648Y-129992682D01*
X169708138Y-130013229D01*
X170132537Y-130438370D01*
X170687325Y-130668738D01*
X171288040Y-130669262D01*
X171843229Y-130439862D01*
X172239318Y-130044464D01*
X172632537Y-130438370D01*
X173187325Y-130668738D01*
X173788040Y-130669262D01*
X174343229Y-130439862D01*
X174768370Y-130015463D01*
X174998738Y-129460675D01*
X174999262Y-128859960D01*
X174769862Y-128304771D01*
X174345463Y-127879630D01*
X173790675Y-127649262D01*
X173189960Y-127648738D01*
X172634771Y-127878138D01*
X172238682Y-128273536D01*
X171845463Y-127879630D01*
X171290675Y-127649262D01*
X170689960Y-127648738D01*
X170134771Y-127878138D01*
X169709630Y-128302537D01*
X169700108Y-128325469D01*
X169551060Y-128276545D01*
X168668605Y-129159000D01*
X168309395Y-129159000D01*
X168295253Y-129144858D01*
X168474858Y-128965253D01*
X168489000Y-128979395D01*
X169371455Y-128096940D01*
X169288116Y-127843047D01*
X168723694Y-127637410D01*
X168123542Y-127663421D01*
X167689884Y-127843047D01*
X167606546Y-128096938D01*
X167491914Y-127982306D01*
X167450864Y-128023356D01*
X167328090Y-127832559D01*
X167115890Y-127687569D01*
X166864000Y-127636560D01*
X165114000Y-127636560D01*
X164878683Y-127680838D01*
X164662559Y-127819910D01*
X164517569Y-128032110D01*
X164466560Y-128284000D01*
X161414128Y-128284000D01*
X161010463Y-127879630D01*
X160455675Y-127649262D01*
X159854960Y-127648738D01*
X159299771Y-127878138D01*
X158903682Y-128273536D01*
X158510463Y-127879630D01*
X157955675Y-127649262D01*
X157354960Y-127648738D01*
X156799771Y-127878138D01*
X156374630Y-128302537D01*
X156365108Y-128325469D01*
X156216060Y-128276545D01*
X155333605Y-129159000D01*
X154974395Y-129159000D01*
X154960253Y-129144858D01*
X155139858Y-128965253D01*
X155154000Y-128979395D01*
X156036455Y-128096940D01*
X155953116Y-127843047D01*
X155388694Y-127637410D01*
X154788542Y-127663421D01*
X154354884Y-127843047D01*
X154271546Y-128096938D01*
X154156914Y-127982306D01*
X154115864Y-128023356D01*
X153993090Y-127832559D01*
X153780890Y-127687569D01*
X153529000Y-127636560D01*
X151779000Y-127636560D01*
X151543683Y-127680838D01*
X151327559Y-127819910D01*
X151182569Y-128032110D01*
X151131560Y-128284000D01*
X144984585Y-128284000D01*
X144353932Y-127652246D01*
X142984598Y-127083649D01*
X141501906Y-127082355D01*
X140131582Y-127648561D01*
X139192000Y-128586506D01*
X139192000Y-123726540D01*
X145365238Y-123726540D01*
X145594638Y-124281729D01*
X146019037Y-124706870D01*
X146573825Y-124937238D01*
X147174540Y-124937762D01*
X147729729Y-124708362D01*
X148154870Y-124283963D01*
X148385238Y-123729175D01*
X148385762Y-123128460D01*
X148156362Y-122573271D01*
X148088710Y-122505500D01*
X177738060Y-122505500D01*
X177738060Y-124255500D01*
X177782338Y-124490817D01*
X177921410Y-124706941D01*
X178133610Y-124851931D01*
X178385500Y-124902940D01*
X180135500Y-124902940D01*
X180370817Y-124858662D01*
X180586941Y-124719590D01*
X180731931Y-124507390D01*
X180782940Y-124255500D01*
X180782940Y-122505500D01*
X180738662Y-122270183D01*
X180599590Y-122054059D01*
X180398274Y-121916506D01*
X180437194Y-121877586D01*
X180322562Y-121762954D01*
X180576453Y-121679616D01*
X180782090Y-121115194D01*
X180756079Y-120515042D01*
X180576453Y-120081384D01*
X180322560Y-119998045D01*
X179440105Y-120880500D01*
X179454248Y-120894643D01*
X179274643Y-121074248D01*
X179260500Y-121060105D01*
X179246358Y-121074248D01*
X179066753Y-120894643D01*
X179080895Y-120880500D01*
X178198440Y-119998045D01*
X177944547Y-120081384D01*
X177738910Y-120645806D01*
X177764921Y-121245958D01*
X177944547Y-121679616D01*
X178198438Y-121762954D01*
X178083806Y-121877586D01*
X178124856Y-121918636D01*
X177934059Y-122041410D01*
X177789069Y-122253610D01*
X177738060Y-122505500D01*
X148088710Y-122505500D01*
X147731963Y-122148130D01*
X147709031Y-122138608D01*
X147757955Y-121989560D01*
X146875500Y-121107105D01*
X145993045Y-121989560D01*
X146041818Y-122138148D01*
X146021271Y-122146638D01*
X145596130Y-122571037D01*
X145365762Y-123125825D01*
X145365238Y-123726540D01*
X139192000Y-123726540D01*
X139192000Y-117552500D01*
X145353060Y-117552500D01*
X145353060Y-119302500D01*
X145397338Y-119537817D01*
X145536410Y-119753941D01*
X145737726Y-119891494D01*
X145698806Y-119930414D01*
X145813438Y-120045046D01*
X145559547Y-120128384D01*
X145353910Y-120692806D01*
X145379921Y-121292958D01*
X145559547Y-121726616D01*
X145813440Y-121809955D01*
X146695895Y-120927500D01*
X146681753Y-120913358D01*
X146861358Y-120733753D01*
X146875500Y-120747895D01*
X146889643Y-120733753D01*
X147069248Y-120913358D01*
X147055105Y-120927500D01*
X147937560Y-121809955D01*
X148191453Y-121726616D01*
X148397090Y-121162194D01*
X148371079Y-120562042D01*
X148191453Y-120128384D01*
X147937562Y-120045046D01*
X148052194Y-119930414D01*
X148023780Y-119902000D01*
X151131560Y-119902000D01*
X151131560Y-121652000D01*
X151175838Y-121887317D01*
X151314910Y-122103441D01*
X151527110Y-122248431D01*
X151779000Y-122299440D01*
X153529000Y-122299440D01*
X153764317Y-122255162D01*
X153980441Y-122116090D01*
X154117994Y-121914774D01*
X154156914Y-121953694D01*
X154271546Y-121839062D01*
X154354884Y-122092953D01*
X154919306Y-122298590D01*
X155519458Y-122272579D01*
X155953116Y-122092953D01*
X156036455Y-121839060D01*
X155154000Y-120956605D01*
X155139858Y-120970748D01*
X154960253Y-120791143D01*
X154974395Y-120777000D01*
X155333605Y-120777000D01*
X156216060Y-121659455D01*
X156364648Y-121610682D01*
X156373138Y-121631229D01*
X156797537Y-122056370D01*
X157352325Y-122286738D01*
X157953040Y-122287262D01*
X158508229Y-122057862D01*
X158904318Y-121662464D01*
X159297537Y-122056370D01*
X159852325Y-122286738D01*
X160453040Y-122287262D01*
X161008229Y-122057862D01*
X161433370Y-121633463D01*
X161663738Y-121078675D01*
X161664262Y-120477960D01*
X161434862Y-119922771D01*
X161414128Y-119902000D01*
X164466560Y-119902000D01*
X164466560Y-121652000D01*
X164510838Y-121887317D01*
X164649910Y-122103441D01*
X164862110Y-122248431D01*
X165114000Y-122299440D01*
X166864000Y-122299440D01*
X167099317Y-122255162D01*
X167315441Y-122116090D01*
X167452994Y-121914774D01*
X167491914Y-121953694D01*
X167606546Y-121839062D01*
X167689884Y-122092953D01*
X168254306Y-122298590D01*
X168854458Y-122272579D01*
X169288116Y-122092953D01*
X169371455Y-121839060D01*
X168489000Y-120956605D01*
X168474858Y-120970748D01*
X168295253Y-120791143D01*
X168309395Y-120777000D01*
X168668605Y-120777000D01*
X169551060Y-121659455D01*
X169699648Y-121610682D01*
X169708138Y-121631229D01*
X170132537Y-122056370D01*
X170687325Y-122286738D01*
X171288040Y-122287262D01*
X171843229Y-122057862D01*
X172239318Y-121662464D01*
X172632537Y-122056370D01*
X173187325Y-122286738D01*
X173788040Y-122287262D01*
X174343229Y-122057862D01*
X174768370Y-121633463D01*
X174998738Y-121078675D01*
X174999262Y-120477960D01*
X174769862Y-119922771D01*
X174345463Y-119497630D01*
X173790675Y-119267262D01*
X173189960Y-119266738D01*
X172634771Y-119496138D01*
X172238682Y-119891536D01*
X171845463Y-119497630D01*
X171290675Y-119267262D01*
X170689960Y-119266738D01*
X170134771Y-119496138D01*
X169709630Y-119920537D01*
X169700108Y-119943469D01*
X169551060Y-119894545D01*
X168668605Y-120777000D01*
X168309395Y-120777000D01*
X168295253Y-120762858D01*
X168474858Y-120583253D01*
X168489000Y-120597395D01*
X169371455Y-119714940D01*
X169288116Y-119461047D01*
X168723694Y-119255410D01*
X168123542Y-119281421D01*
X167689884Y-119461047D01*
X167606546Y-119714938D01*
X167491914Y-119600306D01*
X167450864Y-119641356D01*
X167328090Y-119450559D01*
X167115890Y-119305569D01*
X166864000Y-119254560D01*
X165114000Y-119254560D01*
X164878683Y-119298838D01*
X164662559Y-119437910D01*
X164517569Y-119650110D01*
X164466560Y-119902000D01*
X161414128Y-119902000D01*
X161010463Y-119497630D01*
X160455675Y-119267262D01*
X159854960Y-119266738D01*
X159299771Y-119496138D01*
X158903682Y-119891536D01*
X158510463Y-119497630D01*
X157955675Y-119267262D01*
X157354960Y-119266738D01*
X156799771Y-119496138D01*
X156374630Y-119920537D01*
X156365108Y-119943469D01*
X156216060Y-119894545D01*
X155333605Y-120777000D01*
X154974395Y-120777000D01*
X154960253Y-120762858D01*
X155139858Y-120583253D01*
X155154000Y-120597395D01*
X156036455Y-119714940D01*
X155953116Y-119461047D01*
X155388694Y-119255410D01*
X154788542Y-119281421D01*
X154354884Y-119461047D01*
X154271546Y-119714938D01*
X154156914Y-119600306D01*
X154115864Y-119641356D01*
X153993090Y-119450559D01*
X153780890Y-119305569D01*
X153529000Y-119254560D01*
X151779000Y-119254560D01*
X151543683Y-119298838D01*
X151327559Y-119437910D01*
X151182569Y-119650110D01*
X151131560Y-119902000D01*
X148023780Y-119902000D01*
X148011144Y-119889364D01*
X148201941Y-119766590D01*
X148346931Y-119554390D01*
X148397940Y-119302500D01*
X148397940Y-118679540D01*
X177750238Y-118679540D01*
X177979638Y-119234729D01*
X178404037Y-119659870D01*
X178426969Y-119669392D01*
X178378045Y-119818440D01*
X179260500Y-120700895D01*
X180142955Y-119818440D01*
X180094182Y-119669852D01*
X180114729Y-119661362D01*
X180539870Y-119236963D01*
X180770238Y-118682175D01*
X180770762Y-118081460D01*
X180541362Y-117526271D01*
X180116963Y-117101130D01*
X179562175Y-116870762D01*
X178961460Y-116870238D01*
X178406271Y-117099638D01*
X177981130Y-117524037D01*
X177750762Y-118078825D01*
X177750238Y-118679540D01*
X148397940Y-118679540D01*
X148397940Y-117552500D01*
X148353662Y-117317183D01*
X148214590Y-117101059D01*
X148002390Y-116956069D01*
X147750500Y-116905060D01*
X146000500Y-116905060D01*
X145765183Y-116949338D01*
X145549059Y-117088410D01*
X145404069Y-117300610D01*
X145353060Y-117552500D01*
X139192000Y-117552500D01*
X139192000Y-113347055D01*
X140126068Y-114282754D01*
X141495402Y-114851351D01*
X142978094Y-114852645D01*
X144348418Y-114286439D01*
X145397754Y-113238932D01*
X145966351Y-111869598D01*
X145966988Y-111139000D01*
X151131560Y-111139000D01*
X151131560Y-112889000D01*
X151175838Y-113124317D01*
X151314910Y-113340441D01*
X151527110Y-113485431D01*
X151779000Y-113536440D01*
X153529000Y-113536440D01*
X153764317Y-113492162D01*
X153980441Y-113353090D01*
X154117994Y-113151774D01*
X154156914Y-113190694D01*
X154271546Y-113076062D01*
X154354884Y-113329953D01*
X154919306Y-113535590D01*
X155519458Y-113509579D01*
X155953116Y-113329953D01*
X156036455Y-113076060D01*
X155154000Y-112193605D01*
X155139858Y-112207748D01*
X154960253Y-112028143D01*
X154974395Y-112014000D01*
X155333605Y-112014000D01*
X156216060Y-112896455D01*
X156364648Y-112847682D01*
X156373138Y-112868229D01*
X156797537Y-113293370D01*
X157352325Y-113523738D01*
X157953040Y-113524262D01*
X158508229Y-113294862D01*
X158904318Y-112899464D01*
X159297537Y-113293370D01*
X159852325Y-113523738D01*
X160453040Y-113524262D01*
X161008229Y-113294862D01*
X161433370Y-112870463D01*
X161663738Y-112315675D01*
X161664262Y-111714960D01*
X161434862Y-111159771D01*
X161414128Y-111139000D01*
X164466560Y-111139000D01*
X164466560Y-112889000D01*
X164510838Y-113124317D01*
X164649910Y-113340441D01*
X164862110Y-113485431D01*
X165114000Y-113536440D01*
X166864000Y-113536440D01*
X167099317Y-113492162D01*
X167315441Y-113353090D01*
X167452994Y-113151774D01*
X167491914Y-113190694D01*
X167606546Y-113076062D01*
X167689884Y-113329953D01*
X168254306Y-113535590D01*
X168854458Y-113509579D01*
X169288116Y-113329953D01*
X169371455Y-113076060D01*
X168489000Y-112193605D01*
X168474858Y-112207748D01*
X168295253Y-112028143D01*
X168309395Y-112014000D01*
X168668605Y-112014000D01*
X169551060Y-112896455D01*
X169699648Y-112847682D01*
X169708138Y-112868229D01*
X170132537Y-113293370D01*
X170687325Y-113523738D01*
X171288040Y-113524262D01*
X171843229Y-113294862D01*
X172239318Y-112899464D01*
X172632537Y-113293370D01*
X173187325Y-113523738D01*
X173788040Y-113524262D01*
X174343229Y-113294862D01*
X174768370Y-112870463D01*
X174998738Y-112315675D01*
X174999262Y-111714960D01*
X174769862Y-111159771D01*
X174345463Y-110734630D01*
X173790675Y-110504262D01*
X173189960Y-110503738D01*
X172634771Y-110733138D01*
X172238682Y-111128536D01*
X171845463Y-110734630D01*
X171290675Y-110504262D01*
X170689960Y-110503738D01*
X170134771Y-110733138D01*
X169709630Y-111157537D01*
X169700108Y-111180469D01*
X169551060Y-111131545D01*
X168668605Y-112014000D01*
X168309395Y-112014000D01*
X168295253Y-111999858D01*
X168474858Y-111820253D01*
X168489000Y-111834395D01*
X169371455Y-110951940D01*
X169288116Y-110698047D01*
X168723694Y-110492410D01*
X168123542Y-110518421D01*
X167689884Y-110698047D01*
X167606546Y-110951938D01*
X167491914Y-110837306D01*
X167450864Y-110878356D01*
X167328090Y-110687559D01*
X167115890Y-110542569D01*
X166864000Y-110491560D01*
X165114000Y-110491560D01*
X164878683Y-110535838D01*
X164662559Y-110674910D01*
X164517569Y-110887110D01*
X164466560Y-111139000D01*
X161414128Y-111139000D01*
X161010463Y-110734630D01*
X160455675Y-110504262D01*
X159854960Y-110503738D01*
X159299771Y-110733138D01*
X158903682Y-111128536D01*
X158510463Y-110734630D01*
X157955675Y-110504262D01*
X157354960Y-110503738D01*
X156799771Y-110733138D01*
X156374630Y-111157537D01*
X156365108Y-111180469D01*
X156216060Y-111131545D01*
X155333605Y-112014000D01*
X154974395Y-112014000D01*
X154960253Y-111999858D01*
X155139858Y-111820253D01*
X155154000Y-111834395D01*
X156036455Y-110951940D01*
X155953116Y-110698047D01*
X155388694Y-110492410D01*
X154788542Y-110518421D01*
X154354884Y-110698047D01*
X154271546Y-110951938D01*
X154156914Y-110837306D01*
X154115864Y-110878356D01*
X153993090Y-110687559D01*
X153780890Y-110542569D01*
X153529000Y-110491560D01*
X151779000Y-110491560D01*
X151543683Y-110535838D01*
X151327559Y-110674910D01*
X151182569Y-110887110D01*
X151131560Y-111139000D01*
X145966988Y-111139000D01*
X145967645Y-110386906D01*
X145401439Y-109016582D01*
X144463494Y-108077000D01*
X181927945Y-108077000D01*
X180992246Y-109011068D01*
X180992246Y-109011068D01*
G37*
X180992246Y-109011068D02*
X180423649Y-110380402D01*
X180422355Y-111863094D01*
X180988561Y-113233418D01*
X182036068Y-114282754D01*
X183405402Y-114851351D01*
X184888094Y-114852645D01*
X186258418Y-114286439D01*
X187198000Y-113348494D01*
X187198000Y-128587945D01*
X186263932Y-127652246D01*
X184894598Y-127083649D01*
X183411906Y-127082355D01*
X182041582Y-127648561D01*
X180992246Y-128696068D01*
X180423649Y-130065402D01*
X180422355Y-131548094D01*
X180988561Y-132918418D01*
X181926506Y-133858000D01*
X144462055Y-133858000D01*
X145397754Y-132923932D01*
X145966351Y-131554598D01*
X145967645Y-130071906D01*
X145401439Y-128701582D01*
X144984585Y-128284000D01*
X151131560Y-128284000D01*
X151131560Y-130034000D01*
X151175838Y-130269317D01*
X151314910Y-130485441D01*
X151527110Y-130630431D01*
X151779000Y-130681440D01*
X153529000Y-130681440D01*
X153764317Y-130637162D01*
X153980441Y-130498090D01*
X154117994Y-130296774D01*
X154156914Y-130335694D01*
X154271546Y-130221062D01*
X154354884Y-130474953D01*
X154919306Y-130680590D01*
X155519458Y-130654579D01*
X155953116Y-130474953D01*
X156036455Y-130221060D01*
X155154000Y-129338605D01*
X155139858Y-129352748D01*
X154960253Y-129173143D01*
X154974395Y-129159000D01*
X155333605Y-129159000D01*
X156216060Y-130041455D01*
X156364648Y-129992682D01*
X156373138Y-130013229D01*
X156797537Y-130438370D01*
X157352325Y-130668738D01*
X157953040Y-130669262D01*
X158508229Y-130439862D01*
X158904318Y-130044464D01*
X159297537Y-130438370D01*
X159852325Y-130668738D01*
X160453040Y-130669262D01*
X161008229Y-130439862D01*
X161433370Y-130015463D01*
X161663738Y-129460675D01*
X161664262Y-128859960D01*
X161434862Y-128304771D01*
X161414128Y-128284000D01*
X164466560Y-128284000D01*
X164466560Y-130034000D01*
X164510838Y-130269317D01*
X164649910Y-130485441D01*
X164862110Y-130630431D01*
X165114000Y-130681440D01*
X166864000Y-130681440D01*
X167099317Y-130637162D01*
X167315441Y-130498090D01*
X167452994Y-130296774D01*
X167491914Y-130335694D01*
X167606546Y-130221062D01*
X167689884Y-130474953D01*
X168254306Y-130680590D01*
X168854458Y-130654579D01*
X169288116Y-130474953D01*
X169371455Y-130221060D01*
X168489000Y-129338605D01*
X168474858Y-129352748D01*
X168295253Y-129173143D01*
X168309395Y-129159000D01*
X168668605Y-129159000D01*
X169551060Y-130041455D01*
X169699648Y-129992682D01*
X169708138Y-130013229D01*
X170132537Y-130438370D01*
X170687325Y-130668738D01*
X171288040Y-130669262D01*
X171843229Y-130439862D01*
X172239318Y-130044464D01*
X172632537Y-130438370D01*
X173187325Y-130668738D01*
X173788040Y-130669262D01*
X174343229Y-130439862D01*
X174768370Y-130015463D01*
X174998738Y-129460675D01*
X174999262Y-128859960D01*
X174769862Y-128304771D01*
X174345463Y-127879630D01*
X173790675Y-127649262D01*
X173189960Y-127648738D01*
X172634771Y-127878138D01*
X172238682Y-128273536D01*
X171845463Y-127879630D01*
X171290675Y-127649262D01*
X170689960Y-127648738D01*
X170134771Y-127878138D01*
X169709630Y-128302537D01*
X169700108Y-128325469D01*
X169551060Y-128276545D01*
X168668605Y-129159000D01*
X168309395Y-129159000D01*
X168295253Y-129144858D01*
X168474858Y-128965253D01*
X168489000Y-128979395D01*
X169371455Y-128096940D01*
X169288116Y-127843047D01*
X168723694Y-127637410D01*
X168123542Y-127663421D01*
X167689884Y-127843047D01*
X167606546Y-128096938D01*
X167491914Y-127982306D01*
X167450864Y-128023356D01*
X167328090Y-127832559D01*
X167115890Y-127687569D01*
X166864000Y-127636560D01*
X165114000Y-127636560D01*
X164878683Y-127680838D01*
X164662559Y-127819910D01*
X164517569Y-128032110D01*
X164466560Y-128284000D01*
X161414128Y-128284000D01*
X161010463Y-127879630D01*
X160455675Y-127649262D01*
X159854960Y-127648738D01*
X159299771Y-127878138D01*
X158903682Y-128273536D01*
X158510463Y-127879630D01*
X157955675Y-127649262D01*
X157354960Y-127648738D01*
X156799771Y-127878138D01*
X156374630Y-128302537D01*
X156365108Y-128325469D01*
X156216060Y-128276545D01*
X155333605Y-129159000D01*
X154974395Y-129159000D01*
X154960253Y-129144858D01*
X155139858Y-128965253D01*
X155154000Y-128979395D01*
X156036455Y-128096940D01*
X155953116Y-127843047D01*
X155388694Y-127637410D01*
X154788542Y-127663421D01*
X154354884Y-127843047D01*
X154271546Y-128096938D01*
X154156914Y-127982306D01*
X154115864Y-128023356D01*
X153993090Y-127832559D01*
X153780890Y-127687569D01*
X153529000Y-127636560D01*
X151779000Y-127636560D01*
X151543683Y-127680838D01*
X151327559Y-127819910D01*
X151182569Y-128032110D01*
X151131560Y-128284000D01*
X144984585Y-128284000D01*
X144353932Y-127652246D01*
X142984598Y-127083649D01*
X141501906Y-127082355D01*
X140131582Y-127648561D01*
X139192000Y-128586506D01*
X139192000Y-123726540D01*
X145365238Y-123726540D01*
X145594638Y-124281729D01*
X146019037Y-124706870D01*
X146573825Y-124937238D01*
X147174540Y-124937762D01*
X147729729Y-124708362D01*
X148154870Y-124283963D01*
X148385238Y-123729175D01*
X148385762Y-123128460D01*
X148156362Y-122573271D01*
X148088710Y-122505500D01*
X177738060Y-122505500D01*
X177738060Y-124255500D01*
X177782338Y-124490817D01*
X177921410Y-124706941D01*
X178133610Y-124851931D01*
X178385500Y-124902940D01*
X180135500Y-124902940D01*
X180370817Y-124858662D01*
X180586941Y-124719590D01*
X180731931Y-124507390D01*
X180782940Y-124255500D01*
X180782940Y-122505500D01*
X180738662Y-122270183D01*
X180599590Y-122054059D01*
X180398274Y-121916506D01*
X180437194Y-121877586D01*
X180322562Y-121762954D01*
X180576453Y-121679616D01*
X180782090Y-121115194D01*
X180756079Y-120515042D01*
X180576453Y-120081384D01*
X180322560Y-119998045D01*
X179440105Y-120880500D01*
X179454248Y-120894643D01*
X179274643Y-121074248D01*
X179260500Y-121060105D01*
X179246358Y-121074248D01*
X179066753Y-120894643D01*
X179080895Y-120880500D01*
X178198440Y-119998045D01*
X177944547Y-120081384D01*
X177738910Y-120645806D01*
X177764921Y-121245958D01*
X177944547Y-121679616D01*
X178198438Y-121762954D01*
X178083806Y-121877586D01*
X178124856Y-121918636D01*
X177934059Y-122041410D01*
X177789069Y-122253610D01*
X177738060Y-122505500D01*
X148088710Y-122505500D01*
X147731963Y-122148130D01*
X147709031Y-122138608D01*
X147757955Y-121989560D01*
X146875500Y-121107105D01*
X145993045Y-121989560D01*
X146041818Y-122138148D01*
X146021271Y-122146638D01*
X145596130Y-122571037D01*
X145365762Y-123125825D01*
X145365238Y-123726540D01*
X139192000Y-123726540D01*
X139192000Y-117552500D01*
X145353060Y-117552500D01*
X145353060Y-119302500D01*
X145397338Y-119537817D01*
X145536410Y-119753941D01*
X145737726Y-119891494D01*
X145698806Y-119930414D01*
X145813438Y-120045046D01*
X145559547Y-120128384D01*
X145353910Y-120692806D01*
X145379921Y-121292958D01*
X145559547Y-121726616D01*
X145813440Y-121809955D01*
X146695895Y-120927500D01*
X146681753Y-120913358D01*
X146861358Y-120733753D01*
X146875500Y-120747895D01*
X146889643Y-120733753D01*
X147069248Y-120913358D01*
X147055105Y-120927500D01*
X147937560Y-121809955D01*
X148191453Y-121726616D01*
X148397090Y-121162194D01*
X148371079Y-120562042D01*
X148191453Y-120128384D01*
X147937562Y-120045046D01*
X148052194Y-119930414D01*
X148023780Y-119902000D01*
X151131560Y-119902000D01*
X151131560Y-121652000D01*
X151175838Y-121887317D01*
X151314910Y-122103441D01*
X151527110Y-122248431D01*
X151779000Y-122299440D01*
X153529000Y-122299440D01*
X153764317Y-122255162D01*
X153980441Y-122116090D01*
X154117994Y-121914774D01*
X154156914Y-121953694D01*
X154271546Y-121839062D01*
X154354884Y-122092953D01*
X154919306Y-122298590D01*
X155519458Y-122272579D01*
X155953116Y-122092953D01*
X156036455Y-121839060D01*
X155154000Y-120956605D01*
X155139858Y-120970748D01*
X154960253Y-120791143D01*
X154974395Y-120777000D01*
X155333605Y-120777000D01*
X156216060Y-121659455D01*
X156364648Y-121610682D01*
X156373138Y-121631229D01*
X156797537Y-122056370D01*
X157352325Y-122286738D01*
X157953040Y-122287262D01*
X158508229Y-122057862D01*
X158904318Y-121662464D01*
X159297537Y-122056370D01*
X159852325Y-122286738D01*
X160453040Y-122287262D01*
X161008229Y-122057862D01*
X161433370Y-121633463D01*
X161663738Y-121078675D01*
X161664262Y-120477960D01*
X161434862Y-119922771D01*
X161414128Y-119902000D01*
X164466560Y-119902000D01*
X164466560Y-121652000D01*
X164510838Y-121887317D01*
X164649910Y-122103441D01*
X164862110Y-122248431D01*
X165114000Y-122299440D01*
X166864000Y-122299440D01*
X167099317Y-122255162D01*
X167315441Y-122116090D01*
X167452994Y-121914774D01*
X167491914Y-121953694D01*
X167606546Y-121839062D01*
X167689884Y-122092953D01*
X168254306Y-122298590D01*
X168854458Y-122272579D01*
X169288116Y-122092953D01*
X169371455Y-121839060D01*
X168489000Y-120956605D01*
X168474858Y-120970748D01*
X168295253Y-120791143D01*
X168309395Y-120777000D01*
X168668605Y-120777000D01*
X169551060Y-121659455D01*
X169699648Y-121610682D01*
X169708138Y-121631229D01*
X170132537Y-122056370D01*
X170687325Y-122286738D01*
X171288040Y-122287262D01*
X171843229Y-122057862D01*
X172239318Y-121662464D01*
X172632537Y-122056370D01*
X173187325Y-122286738D01*
X173788040Y-122287262D01*
X174343229Y-122057862D01*
X174768370Y-121633463D01*
X174998738Y-121078675D01*
X174999262Y-120477960D01*
X174769862Y-119922771D01*
X174345463Y-119497630D01*
X173790675Y-119267262D01*
X173189960Y-119266738D01*
X172634771Y-119496138D01*
X172238682Y-119891536D01*
X171845463Y-119497630D01*
X171290675Y-119267262D01*
X170689960Y-119266738D01*
X170134771Y-119496138D01*
X169709630Y-119920537D01*
X169700108Y-119943469D01*
X169551060Y-119894545D01*
X168668605Y-120777000D01*
X168309395Y-120777000D01*
X168295253Y-120762858D01*
X168474858Y-120583253D01*
X168489000Y-120597395D01*
X169371455Y-119714940D01*
X169288116Y-119461047D01*
X168723694Y-119255410D01*
X168123542Y-119281421D01*
X167689884Y-119461047D01*
X167606546Y-119714938D01*
X167491914Y-119600306D01*
X167450864Y-119641356D01*
X167328090Y-119450559D01*
X167115890Y-119305569D01*
X166864000Y-119254560D01*
X165114000Y-119254560D01*
X164878683Y-119298838D01*
X164662559Y-119437910D01*
X164517569Y-119650110D01*
X164466560Y-119902000D01*
X161414128Y-119902000D01*
X161010463Y-119497630D01*
X160455675Y-119267262D01*
X159854960Y-119266738D01*
X159299771Y-119496138D01*
X158903682Y-119891536D01*
X158510463Y-119497630D01*
X157955675Y-119267262D01*
X157354960Y-119266738D01*
X156799771Y-119496138D01*
X156374630Y-119920537D01*
X156365108Y-119943469D01*
X156216060Y-119894545D01*
X155333605Y-120777000D01*
X154974395Y-120777000D01*
X154960253Y-120762858D01*
X155139858Y-120583253D01*
X155154000Y-120597395D01*
X156036455Y-119714940D01*
X155953116Y-119461047D01*
X155388694Y-119255410D01*
X154788542Y-119281421D01*
X154354884Y-119461047D01*
X154271546Y-119714938D01*
X154156914Y-119600306D01*
X154115864Y-119641356D01*
X153993090Y-119450559D01*
X153780890Y-119305569D01*
X153529000Y-119254560D01*
X151779000Y-119254560D01*
X151543683Y-119298838D01*
X151327559Y-119437910D01*
X151182569Y-119650110D01*
X151131560Y-119902000D01*
X148023780Y-119902000D01*
X148011144Y-119889364D01*
X148201941Y-119766590D01*
X148346931Y-119554390D01*
X148397940Y-119302500D01*
X148397940Y-118679540D01*
X177750238Y-118679540D01*
X177979638Y-119234729D01*
X178404037Y-119659870D01*
X178426969Y-119669392D01*
X178378045Y-119818440D01*
X179260500Y-120700895D01*
X180142955Y-119818440D01*
X180094182Y-119669852D01*
X180114729Y-119661362D01*
X180539870Y-119236963D01*
X180770238Y-118682175D01*
X180770762Y-118081460D01*
X180541362Y-117526271D01*
X180116963Y-117101130D01*
X179562175Y-116870762D01*
X178961460Y-116870238D01*
X178406271Y-117099638D01*
X177981130Y-117524037D01*
X177750762Y-118078825D01*
X177750238Y-118679540D01*
X148397940Y-118679540D01*
X148397940Y-117552500D01*
X148353662Y-117317183D01*
X148214590Y-117101059D01*
X148002390Y-116956069D01*
X147750500Y-116905060D01*
X146000500Y-116905060D01*
X145765183Y-116949338D01*
X145549059Y-117088410D01*
X145404069Y-117300610D01*
X145353060Y-117552500D01*
X139192000Y-117552500D01*
X139192000Y-113347055D01*
X140126068Y-114282754D01*
X141495402Y-114851351D01*
X142978094Y-114852645D01*
X144348418Y-114286439D01*
X145397754Y-113238932D01*
X145966351Y-111869598D01*
X145966988Y-111139000D01*
X151131560Y-111139000D01*
X151131560Y-112889000D01*
X151175838Y-113124317D01*
X151314910Y-113340441D01*
X151527110Y-113485431D01*
X151779000Y-113536440D01*
X153529000Y-113536440D01*
X153764317Y-113492162D01*
X153980441Y-113353090D01*
X154117994Y-113151774D01*
X154156914Y-113190694D01*
X154271546Y-113076062D01*
X154354884Y-113329953D01*
X154919306Y-113535590D01*
X155519458Y-113509579D01*
X155953116Y-113329953D01*
X156036455Y-113076060D01*
X155154000Y-112193605D01*
X155139858Y-112207748D01*
X154960253Y-112028143D01*
X154974395Y-112014000D01*
X155333605Y-112014000D01*
X156216060Y-112896455D01*
X156364648Y-112847682D01*
X156373138Y-112868229D01*
X156797537Y-113293370D01*
X157352325Y-113523738D01*
X157953040Y-113524262D01*
X158508229Y-113294862D01*
X158904318Y-112899464D01*
X159297537Y-113293370D01*
X159852325Y-113523738D01*
X160453040Y-113524262D01*
X161008229Y-113294862D01*
X161433370Y-112870463D01*
X161663738Y-112315675D01*
X161664262Y-111714960D01*
X161434862Y-111159771D01*
X161414128Y-111139000D01*
X164466560Y-111139000D01*
X164466560Y-112889000D01*
X164510838Y-113124317D01*
X164649910Y-113340441D01*
X164862110Y-113485431D01*
X165114000Y-113536440D01*
X166864000Y-113536440D01*
X167099317Y-113492162D01*
X167315441Y-113353090D01*
X167452994Y-113151774D01*
X167491914Y-113190694D01*
X167606546Y-113076062D01*
X167689884Y-113329953D01*
X168254306Y-113535590D01*
X168854458Y-113509579D01*
X169288116Y-113329953D01*
X169371455Y-113076060D01*
X168489000Y-112193605D01*
X168474858Y-112207748D01*
X168295253Y-112028143D01*
X168309395Y-112014000D01*
X168668605Y-112014000D01*
X169551060Y-112896455D01*
X169699648Y-112847682D01*
X169708138Y-112868229D01*
X170132537Y-113293370D01*
X170687325Y-113523738D01*
X171288040Y-113524262D01*
X171843229Y-113294862D01*
X172239318Y-112899464D01*
X172632537Y-113293370D01*
X173187325Y-113523738D01*
X173788040Y-113524262D01*
X174343229Y-113294862D01*
X174768370Y-112870463D01*
X174998738Y-112315675D01*
X174999262Y-111714960D01*
X174769862Y-111159771D01*
X174345463Y-110734630D01*
X173790675Y-110504262D01*
X173189960Y-110503738D01*
X172634771Y-110733138D01*
X172238682Y-111128536D01*
X171845463Y-110734630D01*
X171290675Y-110504262D01*
X170689960Y-110503738D01*
X170134771Y-110733138D01*
X169709630Y-111157537D01*
X169700108Y-111180469D01*
X169551060Y-111131545D01*
X168668605Y-112014000D01*
X168309395Y-112014000D01*
X168295253Y-111999858D01*
X168474858Y-111820253D01*
X168489000Y-111834395D01*
X169371455Y-110951940D01*
X169288116Y-110698047D01*
X168723694Y-110492410D01*
X168123542Y-110518421D01*
X167689884Y-110698047D01*
X167606546Y-110951938D01*
X167491914Y-110837306D01*
X167450864Y-110878356D01*
X167328090Y-110687559D01*
X167115890Y-110542569D01*
X166864000Y-110491560D01*
X165114000Y-110491560D01*
X164878683Y-110535838D01*
X164662559Y-110674910D01*
X164517569Y-110887110D01*
X164466560Y-111139000D01*
X161414128Y-111139000D01*
X161010463Y-110734630D01*
X160455675Y-110504262D01*
X159854960Y-110503738D01*
X159299771Y-110733138D01*
X158903682Y-111128536D01*
X158510463Y-110734630D01*
X157955675Y-110504262D01*
X157354960Y-110503738D01*
X156799771Y-110733138D01*
X156374630Y-111157537D01*
X156365108Y-111180469D01*
X156216060Y-111131545D01*
X155333605Y-112014000D01*
X154974395Y-112014000D01*
X154960253Y-111999858D01*
X155139858Y-111820253D01*
X155154000Y-111834395D01*
X156036455Y-110951940D01*
X155953116Y-110698047D01*
X155388694Y-110492410D01*
X154788542Y-110518421D01*
X154354884Y-110698047D01*
X154271546Y-110951938D01*
X154156914Y-110837306D01*
X154115864Y-110878356D01*
X153993090Y-110687559D01*
X153780890Y-110542569D01*
X153529000Y-110491560D01*
X151779000Y-110491560D01*
X151543683Y-110535838D01*
X151327559Y-110674910D01*
X151182569Y-110887110D01*
X151131560Y-111139000D01*
X145966988Y-111139000D01*
X145967645Y-110386906D01*
X145401439Y-109016582D01*
X144463494Y-108077000D01*
X181927945Y-108077000D01*
X180992246Y-109011068D01*
M02*
