M48
;DRILL file {KiCad 4.0.2+e4-6225~38~ubuntu15.04.1-stable} date di 02 aug 2016 05:28:47 CEST
;FORMAT={-:-/ absolute / inch / decimal}
FMAT,2
INCH,TZ
T1C0.035
T2C0.126
%
G90
G05
M72
T1
X5.7825Y-4.6625
X5.7825Y-4.7609
X5.7825Y-4.8594
X6.01Y-4.41
X6.01Y-4.755
X6.01Y-5.085
X6.1084Y-4.41
X6.1084Y-4.755
X6.1084Y-5.085
X6.2069Y-4.41
X6.2069Y-4.755
X6.2069Y-5.085
X6.3053Y-4.41
X6.3053Y-4.755
X6.3053Y-5.085
X6.535Y-4.41
X6.535Y-4.755
X6.535Y-5.085
X6.6334Y-4.41
X6.6334Y-4.755
X6.6334Y-5.085
X6.7319Y-4.41
X6.7319Y-4.755
X6.7319Y-5.085
X6.8303Y-4.41
X6.8303Y-4.755
X6.8303Y-5.085
X7.0575Y-4.6606
X7.0575Y-4.7591
X7.0575Y-4.8575
T2
X5.6Y-4.375
X5.6Y-5.15
X7.25Y-4.375
X7.25Y-5.15
T0
M30
