G04 #@! TF.FileFunction,Legend,Top*
%FSLAX46Y46*%
G04 Gerber Fmt 4.6, Leading zero omitted, Abs format (unit mm)*
G04 Created by KiCad (PCBNEW 4.0.2+e4-6225~38~ubuntu15.04.1-stable) date di 02 aug 2016 05:28:45 CEST*
%MOMM*%
G01*
G04 APERTURE LIST*
%ADD10C,0.100000*%
%ADD11C,0.150000*%
G04 APERTURE END LIST*
D10*
X177536071Y-121842357D02*
X177536071Y-121270928D01*
X177821786Y-121556642D02*
X177250357Y-121556642D01*
X177071786Y-120556643D02*
X177071786Y-120913786D01*
X177428929Y-120949500D01*
X177393214Y-120913786D01*
X177357500Y-120842357D01*
X177357500Y-120663786D01*
X177393214Y-120592357D01*
X177428929Y-120556643D01*
X177500357Y-120520928D01*
X177678929Y-120520928D01*
X177750357Y-120556643D01*
X177786071Y-120592357D01*
X177821786Y-120663786D01*
X177821786Y-120842357D01*
X177786071Y-120913786D01*
X177750357Y-120949500D01*
X177071786Y-120306642D02*
X177821786Y-120056642D01*
X177071786Y-119806642D01*
X177821786Y-118985214D02*
X177071786Y-118985214D01*
X177071786Y-118806642D01*
X177107500Y-118699499D01*
X177178929Y-118628071D01*
X177250357Y-118592356D01*
X177393214Y-118556642D01*
X177500357Y-118556642D01*
X177643214Y-118592356D01*
X177714643Y-118628071D01*
X177786071Y-118699499D01*
X177821786Y-118806642D01*
X177821786Y-118985214D01*
X177071786Y-118092356D02*
X177071786Y-117949499D01*
X177107500Y-117878071D01*
X177178929Y-117806642D01*
X177321786Y-117770928D01*
X177571786Y-117770928D01*
X177714643Y-117806642D01*
X177786071Y-117878071D01*
X177821786Y-117949499D01*
X177821786Y-118092356D01*
X177786071Y-118163785D01*
X177714643Y-118235214D01*
X177571786Y-118270928D01*
X177321786Y-118270928D01*
X177178929Y-118235214D01*
X177107500Y-118163785D01*
X177071786Y-118092356D01*
X148599929Y-119840643D02*
X148599929Y-120412072D01*
X148314214Y-120126358D02*
X148885643Y-120126358D01*
X149064214Y-121126357D02*
X149064214Y-120769214D01*
X148707071Y-120733500D01*
X148742786Y-120769214D01*
X148778500Y-120840643D01*
X148778500Y-121019214D01*
X148742786Y-121090643D01*
X148707071Y-121126357D01*
X148635643Y-121162072D01*
X148457071Y-121162072D01*
X148385643Y-121126357D01*
X148349929Y-121090643D01*
X148314214Y-121019214D01*
X148314214Y-120840643D01*
X148349929Y-120769214D01*
X148385643Y-120733500D01*
X149064214Y-121376358D02*
X148314214Y-121626358D01*
X149064214Y-121876358D01*
X148314214Y-122697786D02*
X149064214Y-122697786D01*
X149064214Y-122876358D01*
X149028500Y-122983501D01*
X148957071Y-123054929D01*
X148885643Y-123090644D01*
X148742786Y-123126358D01*
X148635643Y-123126358D01*
X148492786Y-123090644D01*
X148421357Y-123054929D01*
X148349929Y-122983501D01*
X148314214Y-122876358D01*
X148314214Y-122697786D01*
X148314214Y-123447786D02*
X149064214Y-123447786D01*
X148814214Y-123804929D02*
X148314214Y-123804929D01*
X148742786Y-123804929D02*
X148778500Y-123840644D01*
X148814214Y-123912072D01*
X148814214Y-124019215D01*
X148778500Y-124090644D01*
X148707071Y-124126358D01*
X148314214Y-124126358D01*
X158518429Y-133911571D02*
X159089858Y-133911571D01*
X158804144Y-134197286D02*
X158804144Y-133625857D01*
X159804143Y-133447286D02*
X159447000Y-133447286D01*
X159411286Y-133804429D01*
X159447000Y-133768714D01*
X159518429Y-133733000D01*
X159697000Y-133733000D01*
X159768429Y-133768714D01*
X159804143Y-133804429D01*
X159839858Y-133875857D01*
X159839858Y-134054429D01*
X159804143Y-134125857D01*
X159768429Y-134161571D01*
X159697000Y-134197286D01*
X159518429Y-134197286D01*
X159447000Y-134161571D01*
X159411286Y-134125857D01*
X161125573Y-133483000D02*
X161054144Y-133447286D01*
X160947001Y-133447286D01*
X160839858Y-133483000D01*
X160768430Y-133554429D01*
X160732715Y-133625857D01*
X160697001Y-133768714D01*
X160697001Y-133875857D01*
X160732715Y-134018714D01*
X160768430Y-134090143D01*
X160839858Y-134161571D01*
X160947001Y-134197286D01*
X161018430Y-134197286D01*
X161125573Y-134161571D01*
X161161287Y-134125857D01*
X161161287Y-133875857D01*
X161018430Y-133875857D01*
X161482715Y-134197286D02*
X161482715Y-133447286D01*
X161911287Y-134197286D01*
X161911287Y-133447286D01*
X162268429Y-134197286D02*
X162268429Y-133447286D01*
X162447001Y-133447286D01*
X162554144Y-133483000D01*
X162625572Y-133554429D01*
X162661287Y-133625857D01*
X162697001Y-133768714D01*
X162697001Y-133875857D01*
X162661287Y-134018714D01*
X162625572Y-134090143D01*
X162554144Y-134161571D01*
X162447001Y-134197286D01*
X162268429Y-134197286D01*
X163589858Y-134197286D02*
X163589858Y-133447286D01*
X163768430Y-133447286D01*
X163875573Y-133483000D01*
X163947001Y-133554429D01*
X163982716Y-133625857D01*
X164018430Y-133768714D01*
X164018430Y-133875857D01*
X163982716Y-134018714D01*
X163947001Y-134090143D01*
X163875573Y-134161571D01*
X163768430Y-134197286D01*
X163589858Y-134197286D01*
X164339858Y-134197286D02*
X164339858Y-133447286D01*
X164697001Y-133697286D02*
X164697001Y-134197286D01*
X164697001Y-133768714D02*
X164732716Y-133733000D01*
X164804144Y-133697286D01*
X164911287Y-133697286D01*
X164982716Y-133733000D01*
X165018430Y-133804429D01*
X165018430Y-134197286D01*
X165947001Y-134197286D02*
X165947001Y-133447286D01*
X166125573Y-133447286D01*
X166232716Y-133483000D01*
X166304144Y-133554429D01*
X166339859Y-133625857D01*
X166375573Y-133768714D01*
X166375573Y-133875857D01*
X166339859Y-134018714D01*
X166304144Y-134090143D01*
X166232716Y-134161571D01*
X166125573Y-134197286D01*
X165947001Y-134197286D01*
X166804144Y-134197286D02*
X166732716Y-134161571D01*
X166697001Y-134125857D01*
X166661287Y-134054429D01*
X166661287Y-133840143D01*
X166697001Y-133768714D01*
X166732716Y-133733000D01*
X166804144Y-133697286D01*
X166911287Y-133697286D01*
X166982716Y-133733000D01*
X167018430Y-133768714D01*
X167054144Y-133840143D01*
X167054144Y-134054429D01*
X167018430Y-134125857D01*
X166982716Y-134161571D01*
X166911287Y-134197286D01*
X166804144Y-134197286D01*
X167697001Y-133697286D02*
X167697001Y-134197286D01*
X167375572Y-133697286D02*
X167375572Y-134090143D01*
X167411287Y-134161571D01*
X167482715Y-134197286D01*
X167589858Y-134197286D01*
X167661287Y-134161571D01*
X167697001Y-134125857D01*
X167947001Y-133697286D02*
X168232715Y-133697286D01*
X168054143Y-133447286D02*
X168054143Y-134090143D01*
X168089858Y-134161571D01*
X168161286Y-134197286D01*
X168232715Y-134197286D01*
D11*
X186436000Y-130810000D02*
G75*
G03X186436000Y-130810000I-2286000J0D01*
G01*
X186436000Y-111125000D02*
G75*
G03X186436000Y-111125000I-2286000J0D01*
G01*
X144526000Y-130810000D02*
G75*
G03X144526000Y-130810000I-2286000J0D01*
G01*
X144526000Y-111125000D02*
G75*
G03X144526000Y-111125000I-2286000J0D01*
G01*
X137525500Y-120927500D02*
X137525500Y-115827500D01*
X137525500Y-115827500D02*
X149325500Y-115827500D01*
X149325500Y-115827500D02*
X149325500Y-117027500D01*
X149325500Y-117027500D02*
X144825500Y-117027500D01*
X144825500Y-117027500D02*
X144825500Y-120927500D01*
X137525500Y-120927500D02*
X137525500Y-126027500D01*
X137525500Y-126027500D02*
X149325500Y-126027500D01*
X149325500Y-126027500D02*
X149325500Y-124827500D01*
X149325500Y-124827500D02*
X144825500Y-124827500D01*
X144825500Y-124827500D02*
X144825500Y-120927500D01*
X144175500Y-118177500D02*
X138175500Y-118177500D01*
X138175500Y-118177500D02*
X138175500Y-118677500D01*
X138175500Y-118677500D02*
X144175500Y-118677500D01*
X144175500Y-118677500D02*
X144175500Y-118177500D01*
X144175500Y-120677500D02*
X138175500Y-120677500D01*
X138175500Y-120677500D02*
X138175500Y-121177500D01*
X138175500Y-121177500D02*
X144175500Y-121177500D01*
X144175500Y-121177500D02*
X144175500Y-120677500D01*
X144175500Y-123177500D02*
X138175500Y-123177500D01*
X138175500Y-123177500D02*
X138175500Y-123677500D01*
X138175500Y-123677500D02*
X144175500Y-123677500D01*
X144175500Y-123677500D02*
X144175500Y-123177500D01*
X148375500Y-118427500D02*
X148975500Y-118127500D01*
X148975500Y-118127500D02*
X148975500Y-118727500D01*
X148975500Y-118727500D02*
X148375500Y-118427500D01*
X188610500Y-120880500D02*
X188610500Y-125980500D01*
X188610500Y-125980500D02*
X176810500Y-125980500D01*
X176810500Y-125980500D02*
X176810500Y-124780500D01*
X176810500Y-124780500D02*
X181310500Y-124780500D01*
X181310500Y-124780500D02*
X181310500Y-120880500D01*
X188610500Y-120880500D02*
X188610500Y-115780500D01*
X188610500Y-115780500D02*
X176810500Y-115780500D01*
X176810500Y-115780500D02*
X176810500Y-116980500D01*
X176810500Y-116980500D02*
X181310500Y-116980500D01*
X181310500Y-116980500D02*
X181310500Y-120880500D01*
X181960500Y-123630500D02*
X187960500Y-123630500D01*
X187960500Y-123630500D02*
X187960500Y-123130500D01*
X187960500Y-123130500D02*
X181960500Y-123130500D01*
X181960500Y-123130500D02*
X181960500Y-123630500D01*
X181960500Y-121130500D02*
X187960500Y-121130500D01*
X187960500Y-121130500D02*
X187960500Y-120630500D01*
X187960500Y-120630500D02*
X181960500Y-120630500D01*
X181960500Y-120630500D02*
X181960500Y-121130500D01*
X181960500Y-118630500D02*
X187960500Y-118630500D01*
X187960500Y-118630500D02*
X187960500Y-118130500D01*
X187960500Y-118130500D02*
X181960500Y-118130500D01*
X181960500Y-118130500D02*
X181960500Y-118630500D01*
X177760500Y-123380500D02*
X177160500Y-123680500D01*
X177160500Y-123680500D02*
X177160500Y-123080500D01*
X177160500Y-123080500D02*
X177760500Y-123380500D01*
X150104000Y-109564000D02*
X150104000Y-115514000D01*
X150104000Y-115514000D02*
X162704000Y-115514000D01*
X162704000Y-115514000D02*
X162704000Y-109564000D01*
X162704000Y-109564000D02*
X150104000Y-109564000D01*
X153404000Y-109564000D02*
X153404000Y-110314000D01*
X153404000Y-110314000D02*
X159404000Y-110314000D01*
X159404000Y-110314000D02*
X159404000Y-109564000D01*
X159404000Y-109564000D02*
X153404000Y-109564000D01*
X150104000Y-109564000D02*
X150104000Y-110314000D01*
X150104000Y-110314000D02*
X151904000Y-110314000D01*
X151904000Y-110314000D02*
X151904000Y-109564000D01*
X151904000Y-109564000D02*
X150104000Y-109564000D01*
X160904000Y-109564000D02*
X160904000Y-110314000D01*
X160904000Y-110314000D02*
X162704000Y-110314000D01*
X162704000Y-110314000D02*
X162704000Y-109564000D01*
X162704000Y-109564000D02*
X160904000Y-109564000D01*
X150104000Y-111814000D02*
X150854000Y-111814000D01*
X150854000Y-111814000D02*
X150854000Y-114764000D01*
X150854000Y-114764000D02*
X156404000Y-114764000D01*
X162704000Y-111814000D02*
X161954000Y-111814000D01*
X161954000Y-111814000D02*
X161954000Y-114764000D01*
X161954000Y-114764000D02*
X156404000Y-114764000D01*
X152654000Y-109264000D02*
X152354000Y-108664000D01*
X152354000Y-108664000D02*
X152954000Y-108664000D01*
X152954000Y-108664000D02*
X152654000Y-109264000D01*
X163439000Y-109564000D02*
X163439000Y-115514000D01*
X163439000Y-115514000D02*
X176039000Y-115514000D01*
X176039000Y-115514000D02*
X176039000Y-109564000D01*
X176039000Y-109564000D02*
X163439000Y-109564000D01*
X166739000Y-109564000D02*
X166739000Y-110314000D01*
X166739000Y-110314000D02*
X172739000Y-110314000D01*
X172739000Y-110314000D02*
X172739000Y-109564000D01*
X172739000Y-109564000D02*
X166739000Y-109564000D01*
X163439000Y-109564000D02*
X163439000Y-110314000D01*
X163439000Y-110314000D02*
X165239000Y-110314000D01*
X165239000Y-110314000D02*
X165239000Y-109564000D01*
X165239000Y-109564000D02*
X163439000Y-109564000D01*
X174239000Y-109564000D02*
X174239000Y-110314000D01*
X174239000Y-110314000D02*
X176039000Y-110314000D01*
X176039000Y-110314000D02*
X176039000Y-109564000D01*
X176039000Y-109564000D02*
X174239000Y-109564000D01*
X163439000Y-111814000D02*
X164189000Y-111814000D01*
X164189000Y-111814000D02*
X164189000Y-114764000D01*
X164189000Y-114764000D02*
X169739000Y-114764000D01*
X176039000Y-111814000D02*
X175289000Y-111814000D01*
X175289000Y-111814000D02*
X175289000Y-114764000D01*
X175289000Y-114764000D02*
X169739000Y-114764000D01*
X165989000Y-109264000D02*
X165689000Y-108664000D01*
X165689000Y-108664000D02*
X166289000Y-108664000D01*
X166289000Y-108664000D02*
X165989000Y-109264000D01*
X150104000Y-118327000D02*
X150104000Y-124277000D01*
X150104000Y-124277000D02*
X162704000Y-124277000D01*
X162704000Y-124277000D02*
X162704000Y-118327000D01*
X162704000Y-118327000D02*
X150104000Y-118327000D01*
X153404000Y-118327000D02*
X153404000Y-119077000D01*
X153404000Y-119077000D02*
X159404000Y-119077000D01*
X159404000Y-119077000D02*
X159404000Y-118327000D01*
X159404000Y-118327000D02*
X153404000Y-118327000D01*
X150104000Y-118327000D02*
X150104000Y-119077000D01*
X150104000Y-119077000D02*
X151904000Y-119077000D01*
X151904000Y-119077000D02*
X151904000Y-118327000D01*
X151904000Y-118327000D02*
X150104000Y-118327000D01*
X160904000Y-118327000D02*
X160904000Y-119077000D01*
X160904000Y-119077000D02*
X162704000Y-119077000D01*
X162704000Y-119077000D02*
X162704000Y-118327000D01*
X162704000Y-118327000D02*
X160904000Y-118327000D01*
X150104000Y-120577000D02*
X150854000Y-120577000D01*
X150854000Y-120577000D02*
X150854000Y-123527000D01*
X150854000Y-123527000D02*
X156404000Y-123527000D01*
X162704000Y-120577000D02*
X161954000Y-120577000D01*
X161954000Y-120577000D02*
X161954000Y-123527000D01*
X161954000Y-123527000D02*
X156404000Y-123527000D01*
X152654000Y-118027000D02*
X152354000Y-117427000D01*
X152354000Y-117427000D02*
X152954000Y-117427000D01*
X152954000Y-117427000D02*
X152654000Y-118027000D01*
X163439000Y-118327000D02*
X163439000Y-124277000D01*
X163439000Y-124277000D02*
X176039000Y-124277000D01*
X176039000Y-124277000D02*
X176039000Y-118327000D01*
X176039000Y-118327000D02*
X163439000Y-118327000D01*
X166739000Y-118327000D02*
X166739000Y-119077000D01*
X166739000Y-119077000D02*
X172739000Y-119077000D01*
X172739000Y-119077000D02*
X172739000Y-118327000D01*
X172739000Y-118327000D02*
X166739000Y-118327000D01*
X163439000Y-118327000D02*
X163439000Y-119077000D01*
X163439000Y-119077000D02*
X165239000Y-119077000D01*
X165239000Y-119077000D02*
X165239000Y-118327000D01*
X165239000Y-118327000D02*
X163439000Y-118327000D01*
X174239000Y-118327000D02*
X174239000Y-119077000D01*
X174239000Y-119077000D02*
X176039000Y-119077000D01*
X176039000Y-119077000D02*
X176039000Y-118327000D01*
X176039000Y-118327000D02*
X174239000Y-118327000D01*
X163439000Y-120577000D02*
X164189000Y-120577000D01*
X164189000Y-120577000D02*
X164189000Y-123527000D01*
X164189000Y-123527000D02*
X169739000Y-123527000D01*
X176039000Y-120577000D02*
X175289000Y-120577000D01*
X175289000Y-120577000D02*
X175289000Y-123527000D01*
X175289000Y-123527000D02*
X169739000Y-123527000D01*
X165989000Y-118027000D02*
X165689000Y-117427000D01*
X165689000Y-117427000D02*
X166289000Y-117427000D01*
X166289000Y-117427000D02*
X165989000Y-118027000D01*
X150104000Y-126709000D02*
X150104000Y-132659000D01*
X150104000Y-132659000D02*
X162704000Y-132659000D01*
X162704000Y-132659000D02*
X162704000Y-126709000D01*
X162704000Y-126709000D02*
X150104000Y-126709000D01*
X153404000Y-126709000D02*
X153404000Y-127459000D01*
X153404000Y-127459000D02*
X159404000Y-127459000D01*
X159404000Y-127459000D02*
X159404000Y-126709000D01*
X159404000Y-126709000D02*
X153404000Y-126709000D01*
X150104000Y-126709000D02*
X150104000Y-127459000D01*
X150104000Y-127459000D02*
X151904000Y-127459000D01*
X151904000Y-127459000D02*
X151904000Y-126709000D01*
X151904000Y-126709000D02*
X150104000Y-126709000D01*
X160904000Y-126709000D02*
X160904000Y-127459000D01*
X160904000Y-127459000D02*
X162704000Y-127459000D01*
X162704000Y-127459000D02*
X162704000Y-126709000D01*
X162704000Y-126709000D02*
X160904000Y-126709000D01*
X150104000Y-128959000D02*
X150854000Y-128959000D01*
X150854000Y-128959000D02*
X150854000Y-131909000D01*
X150854000Y-131909000D02*
X156404000Y-131909000D01*
X162704000Y-128959000D02*
X161954000Y-128959000D01*
X161954000Y-128959000D02*
X161954000Y-131909000D01*
X161954000Y-131909000D02*
X156404000Y-131909000D01*
X152654000Y-126409000D02*
X152354000Y-125809000D01*
X152354000Y-125809000D02*
X152954000Y-125809000D01*
X152954000Y-125809000D02*
X152654000Y-126409000D01*
X163439000Y-126709000D02*
X163439000Y-132659000D01*
X163439000Y-132659000D02*
X176039000Y-132659000D01*
X176039000Y-132659000D02*
X176039000Y-126709000D01*
X176039000Y-126709000D02*
X163439000Y-126709000D01*
X166739000Y-126709000D02*
X166739000Y-127459000D01*
X166739000Y-127459000D02*
X172739000Y-127459000D01*
X172739000Y-127459000D02*
X172739000Y-126709000D01*
X172739000Y-126709000D02*
X166739000Y-126709000D01*
X163439000Y-126709000D02*
X163439000Y-127459000D01*
X163439000Y-127459000D02*
X165239000Y-127459000D01*
X165239000Y-127459000D02*
X165239000Y-126709000D01*
X165239000Y-126709000D02*
X163439000Y-126709000D01*
X174239000Y-126709000D02*
X174239000Y-127459000D01*
X174239000Y-127459000D02*
X176039000Y-127459000D01*
X176039000Y-127459000D02*
X176039000Y-126709000D01*
X176039000Y-126709000D02*
X174239000Y-126709000D01*
X163439000Y-128959000D02*
X164189000Y-128959000D01*
X164189000Y-128959000D02*
X164189000Y-131909000D01*
X164189000Y-131909000D02*
X169739000Y-131909000D01*
X176039000Y-128959000D02*
X175289000Y-128959000D01*
X175289000Y-128959000D02*
X175289000Y-131909000D01*
X175289000Y-131909000D02*
X169739000Y-131909000D01*
X165989000Y-126409000D02*
X165689000Y-125809000D01*
X165689000Y-125809000D02*
X166289000Y-125809000D01*
X166289000Y-125809000D02*
X165989000Y-126409000D01*
X145851715Y-114990571D02*
X145994572Y-115038190D01*
X146042191Y-115085810D01*
X146089810Y-115181048D01*
X146089810Y-115323905D01*
X146042191Y-115419143D01*
X145994572Y-115466762D01*
X145899334Y-115514381D01*
X145518381Y-115514381D01*
X145518381Y-114514381D01*
X145851715Y-114514381D01*
X145946953Y-114562000D01*
X145994572Y-114609619D01*
X146042191Y-114704857D01*
X146042191Y-114800095D01*
X145994572Y-114895333D01*
X145946953Y-114942952D01*
X145851715Y-114990571D01*
X145518381Y-114990571D01*
X146946953Y-115514381D02*
X146946953Y-114990571D01*
X146899334Y-114895333D01*
X146804096Y-114847714D01*
X146613619Y-114847714D01*
X146518381Y-114895333D01*
X146946953Y-115466762D02*
X146851715Y-115514381D01*
X146613619Y-115514381D01*
X146518381Y-115466762D01*
X146470762Y-115371524D01*
X146470762Y-115276286D01*
X146518381Y-115181048D01*
X146613619Y-115133429D01*
X146851715Y-115133429D01*
X146946953Y-115085810D01*
X147375524Y-115466762D02*
X147470762Y-115514381D01*
X147661238Y-115514381D01*
X147756477Y-115466762D01*
X147804096Y-115371524D01*
X147804096Y-115323905D01*
X147756477Y-115228667D01*
X147661238Y-115181048D01*
X147518381Y-115181048D01*
X147423143Y-115133429D01*
X147375524Y-115038190D01*
X147375524Y-114990571D01*
X147423143Y-114895333D01*
X147518381Y-114847714D01*
X147661238Y-114847714D01*
X147756477Y-114895333D01*
X148613620Y-115466762D02*
X148518382Y-115514381D01*
X148327905Y-115514381D01*
X148232667Y-115466762D01*
X148185048Y-115371524D01*
X148185048Y-114990571D01*
X148232667Y-114895333D01*
X148327905Y-114847714D01*
X148518382Y-114847714D01*
X148613620Y-114895333D01*
X148661239Y-114990571D01*
X148661239Y-115085810D01*
X148185048Y-115181048D01*
X177093738Y-127388881D02*
X177093738Y-126388881D01*
X177665167Y-127388881D01*
X177665167Y-126388881D01*
X178522310Y-127341262D02*
X178427072Y-127388881D01*
X178236595Y-127388881D01*
X178141357Y-127341262D01*
X178093738Y-127246024D01*
X178093738Y-126865071D01*
X178141357Y-126769833D01*
X178236595Y-126722214D01*
X178427072Y-126722214D01*
X178522310Y-126769833D01*
X178569929Y-126865071D01*
X178569929Y-126960310D01*
X178093738Y-127055548D01*
X178903262Y-127388881D02*
X179427072Y-126722214D01*
X178903262Y-126722214D02*
X179427072Y-127388881D01*
X179665167Y-126722214D02*
X180046119Y-126722214D01*
X179808024Y-126388881D02*
X179808024Y-127246024D01*
X179855643Y-127341262D01*
X179950881Y-127388881D01*
X180046119Y-127388881D01*
X154618285Y-108966381D02*
X154618285Y-107966381D01*
X154999238Y-107966381D01*
X155094476Y-108014000D01*
X155142095Y-108061619D01*
X155189714Y-108156857D01*
X155189714Y-108299714D01*
X155142095Y-108394952D01*
X155094476Y-108442571D01*
X154999238Y-108490190D01*
X154618285Y-108490190D01*
X155761142Y-108966381D02*
X155665904Y-108918762D01*
X155618285Y-108871143D01*
X155570666Y-108775905D01*
X155570666Y-108490190D01*
X155618285Y-108394952D01*
X155665904Y-108347333D01*
X155761142Y-108299714D01*
X155904000Y-108299714D01*
X155999238Y-108347333D01*
X156046857Y-108394952D01*
X156094476Y-108490190D01*
X156094476Y-108775905D01*
X156046857Y-108871143D01*
X155999238Y-108918762D01*
X155904000Y-108966381D01*
X155761142Y-108966381D01*
X156523047Y-108966381D02*
X156523047Y-108299714D01*
X156523047Y-108490190D02*
X156570666Y-108394952D01*
X156618285Y-108347333D01*
X156713523Y-108299714D01*
X156808762Y-108299714D01*
X156999238Y-108299714D02*
X157380190Y-108299714D01*
X157142095Y-107966381D02*
X157142095Y-108823524D01*
X157189714Y-108918762D01*
X157284952Y-108966381D01*
X157380190Y-108966381D01*
X157904000Y-107966381D02*
X157999239Y-107966381D01*
X158094477Y-108014000D01*
X158142096Y-108061619D01*
X158189715Y-108156857D01*
X158237334Y-108347333D01*
X158237334Y-108585429D01*
X158189715Y-108775905D01*
X158142096Y-108871143D01*
X158094477Y-108918762D01*
X157999239Y-108966381D01*
X157904000Y-108966381D01*
X157808762Y-108918762D01*
X157761143Y-108871143D01*
X157713524Y-108775905D01*
X157665905Y-108585429D01*
X157665905Y-108347333D01*
X157713524Y-108156857D01*
X157761143Y-108061619D01*
X157808762Y-108014000D01*
X157904000Y-107966381D01*
X167953285Y-108966381D02*
X167953285Y-107966381D01*
X168334238Y-107966381D01*
X168429476Y-108014000D01*
X168477095Y-108061619D01*
X168524714Y-108156857D01*
X168524714Y-108299714D01*
X168477095Y-108394952D01*
X168429476Y-108442571D01*
X168334238Y-108490190D01*
X167953285Y-108490190D01*
X169096142Y-108966381D02*
X169000904Y-108918762D01*
X168953285Y-108871143D01*
X168905666Y-108775905D01*
X168905666Y-108490190D01*
X168953285Y-108394952D01*
X169000904Y-108347333D01*
X169096142Y-108299714D01*
X169239000Y-108299714D01*
X169334238Y-108347333D01*
X169381857Y-108394952D01*
X169429476Y-108490190D01*
X169429476Y-108775905D01*
X169381857Y-108871143D01*
X169334238Y-108918762D01*
X169239000Y-108966381D01*
X169096142Y-108966381D01*
X169858047Y-108966381D02*
X169858047Y-108299714D01*
X169858047Y-108490190D02*
X169905666Y-108394952D01*
X169953285Y-108347333D01*
X170048523Y-108299714D01*
X170143762Y-108299714D01*
X170334238Y-108299714D02*
X170715190Y-108299714D01*
X170477095Y-107966381D02*
X170477095Y-108823524D01*
X170524714Y-108918762D01*
X170619952Y-108966381D01*
X170715190Y-108966381D01*
X171572334Y-108966381D02*
X171000905Y-108966381D01*
X171286619Y-108966381D02*
X171286619Y-107966381D01*
X171191381Y-108109238D01*
X171096143Y-108204476D01*
X171000905Y-108252095D01*
X154618285Y-117729381D02*
X154618285Y-116729381D01*
X154999238Y-116729381D01*
X155094476Y-116777000D01*
X155142095Y-116824619D01*
X155189714Y-116919857D01*
X155189714Y-117062714D01*
X155142095Y-117157952D01*
X155094476Y-117205571D01*
X154999238Y-117253190D01*
X154618285Y-117253190D01*
X155761142Y-117729381D02*
X155665904Y-117681762D01*
X155618285Y-117634143D01*
X155570666Y-117538905D01*
X155570666Y-117253190D01*
X155618285Y-117157952D01*
X155665904Y-117110333D01*
X155761142Y-117062714D01*
X155904000Y-117062714D01*
X155999238Y-117110333D01*
X156046857Y-117157952D01*
X156094476Y-117253190D01*
X156094476Y-117538905D01*
X156046857Y-117634143D01*
X155999238Y-117681762D01*
X155904000Y-117729381D01*
X155761142Y-117729381D01*
X156523047Y-117729381D02*
X156523047Y-117062714D01*
X156523047Y-117253190D02*
X156570666Y-117157952D01*
X156618285Y-117110333D01*
X156713523Y-117062714D01*
X156808762Y-117062714D01*
X156999238Y-117062714D02*
X157380190Y-117062714D01*
X157142095Y-116729381D02*
X157142095Y-117586524D01*
X157189714Y-117681762D01*
X157284952Y-117729381D01*
X157380190Y-117729381D01*
X157665905Y-116824619D02*
X157713524Y-116777000D01*
X157808762Y-116729381D01*
X158046858Y-116729381D01*
X158142096Y-116777000D01*
X158189715Y-116824619D01*
X158237334Y-116919857D01*
X158237334Y-117015095D01*
X158189715Y-117157952D01*
X157618286Y-117729381D01*
X158237334Y-117729381D01*
X167953285Y-117729381D02*
X167953285Y-116729381D01*
X168334238Y-116729381D01*
X168429476Y-116777000D01*
X168477095Y-116824619D01*
X168524714Y-116919857D01*
X168524714Y-117062714D01*
X168477095Y-117157952D01*
X168429476Y-117205571D01*
X168334238Y-117253190D01*
X167953285Y-117253190D01*
X169096142Y-117729381D02*
X169000904Y-117681762D01*
X168953285Y-117634143D01*
X168905666Y-117538905D01*
X168905666Y-117253190D01*
X168953285Y-117157952D01*
X169000904Y-117110333D01*
X169096142Y-117062714D01*
X169239000Y-117062714D01*
X169334238Y-117110333D01*
X169381857Y-117157952D01*
X169429476Y-117253190D01*
X169429476Y-117538905D01*
X169381857Y-117634143D01*
X169334238Y-117681762D01*
X169239000Y-117729381D01*
X169096142Y-117729381D01*
X169858047Y-117729381D02*
X169858047Y-117062714D01*
X169858047Y-117253190D02*
X169905666Y-117157952D01*
X169953285Y-117110333D01*
X170048523Y-117062714D01*
X170143762Y-117062714D01*
X170334238Y-117062714D02*
X170715190Y-117062714D01*
X170477095Y-116729381D02*
X170477095Y-117586524D01*
X170524714Y-117681762D01*
X170619952Y-117729381D01*
X170715190Y-117729381D01*
X170953286Y-116729381D02*
X171572334Y-116729381D01*
X171239000Y-117110333D01*
X171381858Y-117110333D01*
X171477096Y-117157952D01*
X171524715Y-117205571D01*
X171572334Y-117300810D01*
X171572334Y-117538905D01*
X171524715Y-117634143D01*
X171477096Y-117681762D01*
X171381858Y-117729381D01*
X171096143Y-117729381D01*
X171000905Y-117681762D01*
X170953286Y-117634143D01*
X154618285Y-126111381D02*
X154618285Y-125111381D01*
X154999238Y-125111381D01*
X155094476Y-125159000D01*
X155142095Y-125206619D01*
X155189714Y-125301857D01*
X155189714Y-125444714D01*
X155142095Y-125539952D01*
X155094476Y-125587571D01*
X154999238Y-125635190D01*
X154618285Y-125635190D01*
X155761142Y-126111381D02*
X155665904Y-126063762D01*
X155618285Y-126016143D01*
X155570666Y-125920905D01*
X155570666Y-125635190D01*
X155618285Y-125539952D01*
X155665904Y-125492333D01*
X155761142Y-125444714D01*
X155904000Y-125444714D01*
X155999238Y-125492333D01*
X156046857Y-125539952D01*
X156094476Y-125635190D01*
X156094476Y-125920905D01*
X156046857Y-126016143D01*
X155999238Y-126063762D01*
X155904000Y-126111381D01*
X155761142Y-126111381D01*
X156523047Y-126111381D02*
X156523047Y-125444714D01*
X156523047Y-125635190D02*
X156570666Y-125539952D01*
X156618285Y-125492333D01*
X156713523Y-125444714D01*
X156808762Y-125444714D01*
X156999238Y-125444714D02*
X157380190Y-125444714D01*
X157142095Y-125111381D02*
X157142095Y-125968524D01*
X157189714Y-126063762D01*
X157284952Y-126111381D01*
X157380190Y-126111381D01*
X158142096Y-125444714D02*
X158142096Y-126111381D01*
X157904000Y-125063762D02*
X157665905Y-125778048D01*
X158284953Y-125778048D01*
X167953285Y-126111381D02*
X167953285Y-125111381D01*
X168334238Y-125111381D01*
X168429476Y-125159000D01*
X168477095Y-125206619D01*
X168524714Y-125301857D01*
X168524714Y-125444714D01*
X168477095Y-125539952D01*
X168429476Y-125587571D01*
X168334238Y-125635190D01*
X167953285Y-125635190D01*
X169096142Y-126111381D02*
X169000904Y-126063762D01*
X168953285Y-126016143D01*
X168905666Y-125920905D01*
X168905666Y-125635190D01*
X168953285Y-125539952D01*
X169000904Y-125492333D01*
X169096142Y-125444714D01*
X169239000Y-125444714D01*
X169334238Y-125492333D01*
X169381857Y-125539952D01*
X169429476Y-125635190D01*
X169429476Y-125920905D01*
X169381857Y-126016143D01*
X169334238Y-126063762D01*
X169239000Y-126111381D01*
X169096142Y-126111381D01*
X169858047Y-126111381D02*
X169858047Y-125444714D01*
X169858047Y-125635190D02*
X169905666Y-125539952D01*
X169953285Y-125492333D01*
X170048523Y-125444714D01*
X170143762Y-125444714D01*
X170334238Y-125444714D02*
X170715190Y-125444714D01*
X170477095Y-125111381D02*
X170477095Y-125968524D01*
X170524714Y-126063762D01*
X170619952Y-126111381D01*
X170715190Y-126111381D01*
X171524715Y-125111381D02*
X171048524Y-125111381D01*
X171000905Y-125587571D01*
X171048524Y-125539952D01*
X171143762Y-125492333D01*
X171381858Y-125492333D01*
X171477096Y-125539952D01*
X171524715Y-125587571D01*
X171572334Y-125682810D01*
X171572334Y-125920905D01*
X171524715Y-126016143D01*
X171477096Y-126063762D01*
X171381858Y-126111381D01*
X171143762Y-126111381D01*
X171048524Y-126063762D01*
X171000905Y-126016143D01*
M02*
