G04 #@! TF.FileFunction,Legend,Top*
%FSLAX46Y46*%
G04 Gerber Fmt 4.6, Leading zero omitted, Abs format (unit mm)*
G04 Created by KiCad (PCBNEW 4.0.3+e1-6302~38~ubuntu15.04.1-stable) date Sun Sep 11 23:38:22 2016*
%MOMM*%
%LPD*%
G01*
G04 APERTURE LIST*
%ADD10C,0.100000*%
%ADD11C,0.300000*%
%ADD12C,0.150000*%
%ADD13C,0.200000*%
G04 APERTURE END LIST*
D10*
D11*
X144419715Y-87292571D02*
X144419715Y-85792571D01*
X144419715Y-87221143D02*
X144276858Y-87292571D01*
X143991144Y-87292571D01*
X143848286Y-87221143D01*
X143776858Y-87149714D01*
X143705429Y-87006857D01*
X143705429Y-86578286D01*
X143776858Y-86435429D01*
X143848286Y-86364000D01*
X143991144Y-86292571D01*
X144276858Y-86292571D01*
X144419715Y-86364000D01*
X145134001Y-87292571D02*
X145134001Y-86292571D01*
X145134001Y-86578286D02*
X145205429Y-86435429D01*
X145276858Y-86364000D01*
X145419715Y-86292571D01*
X145562572Y-86292571D01*
X146705429Y-87292571D02*
X146705429Y-86506857D01*
X146634000Y-86364000D01*
X146491143Y-86292571D01*
X146205429Y-86292571D01*
X146062572Y-86364000D01*
X146705429Y-87221143D02*
X146562572Y-87292571D01*
X146205429Y-87292571D01*
X146062572Y-87221143D01*
X145991143Y-87078286D01*
X145991143Y-86935429D01*
X146062572Y-86792571D01*
X146205429Y-86721143D01*
X146562572Y-86721143D01*
X146705429Y-86649714D01*
X147276858Y-86292571D02*
X147562572Y-87292571D01*
X147848286Y-86578286D01*
X148134001Y-87292571D01*
X148419715Y-86292571D01*
X149562572Y-87221143D02*
X149419715Y-87292571D01*
X149134001Y-87292571D01*
X148991144Y-87221143D01*
X148919715Y-87078286D01*
X148919715Y-86506857D01*
X148991144Y-86364000D01*
X149134001Y-86292571D01*
X149419715Y-86292571D01*
X149562572Y-86364000D01*
X149634001Y-86506857D01*
X149634001Y-86649714D01*
X148919715Y-86792571D01*
X150276858Y-87292571D02*
X150276858Y-86292571D01*
X150276858Y-86578286D02*
X150348286Y-86435429D01*
X150419715Y-86364000D01*
X150562572Y-86292571D01*
X150705429Y-86292571D01*
X152276857Y-87221143D02*
X152419714Y-87292571D01*
X152705429Y-87292571D01*
X152848286Y-87221143D01*
X152919714Y-87078286D01*
X152919714Y-87006857D01*
X152848286Y-86864000D01*
X152705429Y-86792571D01*
X152491143Y-86792571D01*
X152348286Y-86721143D01*
X152276857Y-86578286D01*
X152276857Y-86506857D01*
X152348286Y-86364000D01*
X152491143Y-86292571D01*
X152705429Y-86292571D01*
X152848286Y-86364000D01*
X154134000Y-87221143D02*
X153991143Y-87292571D01*
X153705429Y-87292571D01*
X153562572Y-87221143D01*
X153491143Y-87078286D01*
X153491143Y-86506857D01*
X153562572Y-86364000D01*
X153705429Y-86292571D01*
X153991143Y-86292571D01*
X154134000Y-86364000D01*
X154205429Y-86506857D01*
X154205429Y-86649714D01*
X153491143Y-86792571D01*
X154848286Y-86292571D02*
X154848286Y-87292571D01*
X154848286Y-86435429D02*
X154919714Y-86364000D01*
X155062572Y-86292571D01*
X155276857Y-86292571D01*
X155419714Y-86364000D01*
X155491143Y-86506857D01*
X155491143Y-87292571D01*
X156134000Y-87221143D02*
X156276857Y-87292571D01*
X156562572Y-87292571D01*
X156705429Y-87221143D01*
X156776857Y-87078286D01*
X156776857Y-87006857D01*
X156705429Y-86864000D01*
X156562572Y-86792571D01*
X156348286Y-86792571D01*
X156205429Y-86721143D01*
X156134000Y-86578286D01*
X156134000Y-86506857D01*
X156205429Y-86364000D01*
X156348286Y-86292571D01*
X156562572Y-86292571D01*
X156705429Y-86364000D01*
X157634001Y-87292571D02*
X157491143Y-87221143D01*
X157419715Y-87149714D01*
X157348286Y-87006857D01*
X157348286Y-86578286D01*
X157419715Y-86435429D01*
X157491143Y-86364000D01*
X157634001Y-86292571D01*
X157848286Y-86292571D01*
X157991143Y-86364000D01*
X158062572Y-86435429D01*
X158134001Y-86578286D01*
X158134001Y-87006857D01*
X158062572Y-87149714D01*
X157991143Y-87221143D01*
X157848286Y-87292571D01*
X157634001Y-87292571D01*
X158776858Y-87292571D02*
X158776858Y-86292571D01*
X158776858Y-86578286D02*
X158848286Y-86435429D01*
X158919715Y-86364000D01*
X159062572Y-86292571D01*
X159205429Y-86292571D01*
D10*
X160480952Y-110307381D02*
X160147618Y-109831190D01*
X159909523Y-110307381D02*
X159909523Y-109307381D01*
X160290476Y-109307381D01*
X160385714Y-109355000D01*
X160433333Y-109402619D01*
X160480952Y-109497857D01*
X160480952Y-109640714D01*
X160433333Y-109735952D01*
X160385714Y-109783571D01*
X160290476Y-109831190D01*
X159909523Y-109831190D01*
X160909523Y-109783571D02*
X161242857Y-109783571D01*
X161385714Y-110307381D02*
X160909523Y-110307381D01*
X160909523Y-109307381D01*
X161385714Y-109307381D01*
X161671428Y-109307381D02*
X162004761Y-110307381D01*
X162338095Y-109307381D01*
X163623809Y-109307381D02*
X163719048Y-109307381D01*
X163814286Y-109355000D01*
X163861905Y-109402619D01*
X163909524Y-109497857D01*
X163957143Y-109688333D01*
X163957143Y-109926429D01*
X163909524Y-110116905D01*
X163861905Y-110212143D01*
X163814286Y-110259762D01*
X163719048Y-110307381D01*
X163623809Y-110307381D01*
X163528571Y-110259762D01*
X163480952Y-110212143D01*
X163433333Y-110116905D01*
X163385714Y-109926429D01*
X163385714Y-109688333D01*
X163433333Y-109497857D01*
X163480952Y-109402619D01*
X163528571Y-109355000D01*
X163623809Y-109307381D01*
X164338095Y-109402619D02*
X164385714Y-109355000D01*
X164480952Y-109307381D01*
X164719048Y-109307381D01*
X164814286Y-109355000D01*
X164861905Y-109402619D01*
X164909524Y-109497857D01*
X164909524Y-109593095D01*
X164861905Y-109735952D01*
X164290476Y-110307381D01*
X164909524Y-110307381D01*
X138366429Y-109783571D02*
X138033095Y-109783571D01*
X138033095Y-110307381D02*
X138033095Y-109307381D01*
X138509286Y-109307381D01*
X138842619Y-110021667D02*
X139318810Y-110021667D01*
X138747381Y-110307381D02*
X139080714Y-109307381D01*
X139414048Y-110307381D01*
X140033096Y-109307381D02*
X140033096Y-110021667D01*
X139985476Y-110164524D01*
X139890238Y-110259762D01*
X139747381Y-110307381D01*
X139652143Y-110307381D01*
X141080715Y-110307381D02*
X140747381Y-109831190D01*
X140509286Y-110307381D02*
X140509286Y-109307381D01*
X140890239Y-109307381D01*
X140985477Y-109355000D01*
X141033096Y-109402619D01*
X141080715Y-109497857D01*
X141080715Y-109640714D01*
X141033096Y-109735952D01*
X140985477Y-109783571D01*
X140890239Y-109831190D01*
X140509286Y-109831190D01*
X141461667Y-110021667D02*
X141937858Y-110021667D01*
X141366429Y-110307381D02*
X141699762Y-109307381D01*
X142033096Y-110307381D01*
X142366429Y-110307381D02*
X142366429Y-109307381D01*
X142937858Y-110307381D01*
X142937858Y-109307381D01*
X144128334Y-109402619D02*
X144175953Y-109355000D01*
X144271191Y-109307381D01*
X144509287Y-109307381D01*
X144604525Y-109355000D01*
X144652144Y-109402619D01*
X144699763Y-109497857D01*
X144699763Y-109593095D01*
X144652144Y-109735952D01*
X144080715Y-110307381D01*
X144699763Y-110307381D01*
X145318810Y-109307381D02*
X145414049Y-109307381D01*
X145509287Y-109355000D01*
X145556906Y-109402619D01*
X145604525Y-109497857D01*
X145652144Y-109688333D01*
X145652144Y-109926429D01*
X145604525Y-110116905D01*
X145556906Y-110212143D01*
X145509287Y-110259762D01*
X145414049Y-110307381D01*
X145318810Y-110307381D01*
X145223572Y-110259762D01*
X145175953Y-110212143D01*
X145128334Y-110116905D01*
X145080715Y-109926429D01*
X145080715Y-109688333D01*
X145128334Y-109497857D01*
X145175953Y-109402619D01*
X145223572Y-109355000D01*
X145318810Y-109307381D01*
X146604525Y-110307381D02*
X146033096Y-110307381D01*
X146318810Y-110307381D02*
X146318810Y-109307381D01*
X146223572Y-109450238D01*
X146128334Y-109545476D01*
X146033096Y-109593095D01*
X147461668Y-109307381D02*
X147271191Y-109307381D01*
X147175953Y-109355000D01*
X147128334Y-109402619D01*
X147033096Y-109545476D01*
X146985477Y-109735952D01*
X146985477Y-110116905D01*
X147033096Y-110212143D01*
X147080715Y-110259762D01*
X147175953Y-110307381D01*
X147366430Y-110307381D01*
X147461668Y-110259762D01*
X147509287Y-110212143D01*
X147556906Y-110116905D01*
X147556906Y-109878810D01*
X147509287Y-109783571D01*
X147461668Y-109735952D01*
X147366430Y-109688333D01*
X147175953Y-109688333D01*
X147080715Y-109735952D01*
X147033096Y-109783571D01*
X146985477Y-109878810D01*
X161246000Y-100961809D02*
X161205524Y-101042761D01*
X161205524Y-101164190D01*
X161246000Y-101285618D01*
X161326952Y-101366571D01*
X161407905Y-101407047D01*
X161569810Y-101447523D01*
X161691238Y-101447523D01*
X161853143Y-101407047D01*
X161934095Y-101366571D01*
X162015048Y-101285618D01*
X162055524Y-101164190D01*
X162055524Y-101083238D01*
X162015048Y-100961809D01*
X161974571Y-100921333D01*
X161691238Y-100921333D01*
X161691238Y-101083238D01*
X162055524Y-100557047D02*
X161205524Y-100557047D01*
X162055524Y-100071333D01*
X161205524Y-100071333D01*
X162055524Y-99666571D02*
X161205524Y-99666571D01*
X161205524Y-99464190D01*
X161246000Y-99342762D01*
X161326952Y-99261809D01*
X161407905Y-99221333D01*
X161569810Y-99180857D01*
X161691238Y-99180857D01*
X161853143Y-99221333D01*
X161934095Y-99261809D01*
X162015048Y-99342762D01*
X162055524Y-99464190D01*
X162055524Y-99666571D01*
X161731714Y-98168952D02*
X161731714Y-97521333D01*
X162055524Y-97845143D02*
X161407905Y-97845143D01*
X161205524Y-96711809D02*
X161205524Y-97116571D01*
X161610286Y-97157047D01*
X161569810Y-97116571D01*
X161529333Y-97035619D01*
X161529333Y-96833238D01*
X161569810Y-96752285D01*
X161610286Y-96711809D01*
X161691238Y-96671333D01*
X161893619Y-96671333D01*
X161974571Y-96711809D01*
X162015048Y-96752285D01*
X162055524Y-96833238D01*
X162055524Y-97035619D01*
X162015048Y-97116571D01*
X161974571Y-97157047D01*
X161205524Y-95497523D02*
X161205524Y-95335619D01*
X161246000Y-95254666D01*
X161326952Y-95173714D01*
X161488857Y-95133238D01*
X161772190Y-95133238D01*
X161934095Y-95173714D01*
X162015048Y-95254666D01*
X162055524Y-95335619D01*
X162055524Y-95497523D01*
X162015048Y-95578476D01*
X161934095Y-95659428D01*
X161772190Y-95699904D01*
X161488857Y-95699904D01*
X161326952Y-95659428D01*
X161246000Y-95578476D01*
X161205524Y-95497523D01*
X161488857Y-94404666D02*
X162055524Y-94404666D01*
X161488857Y-94768952D02*
X161934095Y-94768952D01*
X162015048Y-94728476D01*
X162055524Y-94647523D01*
X162055524Y-94526095D01*
X162015048Y-94445143D01*
X161974571Y-94404666D01*
X161488857Y-94121333D02*
X161488857Y-93797523D01*
X161205524Y-93999904D02*
X161934095Y-93999904D01*
X162015048Y-93959428D01*
X162055524Y-93878475D01*
X162055524Y-93797523D01*
D12*
X135128000Y-87376000D02*
G75*
G03X135128000Y-87376000I-2286000J0D01*
G01*
X172212000Y-87376000D02*
G75*
G03X172212000Y-87376000I-2286000J0D01*
G01*
X135128000Y-108204000D02*
G75*
G03X135128000Y-108204000I-2286000J0D01*
G01*
X172212000Y-108204000D02*
G75*
G03X172212000Y-108204000I-2286000J0D01*
G01*
X152384000Y-93785000D02*
X150384000Y-93785000D01*
X150384000Y-91635000D02*
X152384000Y-91635000D01*
X150384000Y-96715000D02*
X152384000Y-96715000D01*
X152384000Y-98865000D02*
X150384000Y-98865000D01*
X150384000Y-101795000D02*
X152384000Y-101795000D01*
X152384000Y-103945000D02*
X150384000Y-103945000D01*
D13*
X144800000Y-100690000D02*
X141000000Y-100690000D01*
X138300000Y-100690000D02*
X136300000Y-100690000D01*
X136300000Y-94890000D02*
X138300000Y-94890000D01*
X141000000Y-94890000D02*
X143400000Y-94890000D01*
X144800000Y-96090000D02*
X144800000Y-100690000D01*
X136300000Y-100690000D02*
X134600000Y-98990000D01*
X134600000Y-98990000D02*
X134600000Y-96590000D01*
X134600000Y-96590000D02*
X136300000Y-94890000D01*
D12*
X174577000Y-97830000D02*
X174577000Y-102930000D01*
X174577000Y-102930000D02*
X162777000Y-102930000D01*
X162777000Y-102930000D02*
X162777000Y-101730000D01*
X162777000Y-101730000D02*
X167277000Y-101730000D01*
X167277000Y-101730000D02*
X167277000Y-97830000D01*
X174577000Y-97830000D02*
X174577000Y-92730000D01*
X174577000Y-92730000D02*
X162777000Y-92730000D01*
X162777000Y-92730000D02*
X162777000Y-93930000D01*
X162777000Y-93930000D02*
X167277000Y-93930000D01*
X167277000Y-93930000D02*
X167277000Y-97830000D01*
X167927000Y-100580000D02*
X173927000Y-100580000D01*
X173927000Y-100580000D02*
X173927000Y-100080000D01*
X173927000Y-100080000D02*
X167927000Y-100080000D01*
X167927000Y-100080000D02*
X167927000Y-100580000D01*
X167927000Y-98080000D02*
X173927000Y-98080000D01*
X173927000Y-98080000D02*
X173927000Y-97580000D01*
X173927000Y-97580000D02*
X167927000Y-97580000D01*
X167927000Y-97580000D02*
X167927000Y-98080000D01*
X167927000Y-95580000D02*
X173927000Y-95580000D01*
X173927000Y-95580000D02*
X173927000Y-95080000D01*
X173927000Y-95080000D02*
X167927000Y-95080000D01*
X167927000Y-95080000D02*
X167927000Y-95580000D01*
X163727000Y-100330000D02*
X163127000Y-100630000D01*
X163127000Y-100630000D02*
X163127000Y-100030000D01*
X163127000Y-100030000D02*
X163727000Y-100330000D01*
D10*
X150797095Y-94872524D02*
X150311381Y-94872524D01*
X150554238Y-94872524D02*
X150554238Y-94022524D01*
X150473286Y-94143952D01*
X150392333Y-94224905D01*
X150311381Y-94265381D01*
X151323286Y-94022524D02*
X151404238Y-94022524D01*
X151485190Y-94063000D01*
X151525667Y-94103476D01*
X151566143Y-94184429D01*
X151606619Y-94346333D01*
X151606619Y-94548714D01*
X151566143Y-94710619D01*
X151525667Y-94791571D01*
X151485190Y-94832048D01*
X151404238Y-94872524D01*
X151323286Y-94872524D01*
X151242333Y-94832048D01*
X151201857Y-94791571D01*
X151161381Y-94710619D01*
X151120905Y-94548714D01*
X151120905Y-94346333D01*
X151161381Y-94184429D01*
X151201857Y-94103476D01*
X151242333Y-94063000D01*
X151323286Y-94022524D01*
X151970905Y-94872524D02*
X151970905Y-94022524D01*
X152456619Y-94872524D02*
X152092334Y-94386810D01*
X152456619Y-94022524D02*
X151970905Y-94508238D01*
X151201857Y-100079524D02*
X150716143Y-100079524D01*
X150959000Y-100079524D02*
X150959000Y-99229524D01*
X150878048Y-99350952D01*
X150797095Y-99431905D01*
X150716143Y-99472381D01*
X151566143Y-100079524D02*
X151566143Y-99229524D01*
X152051857Y-100079524D02*
X151687572Y-99593810D01*
X152051857Y-99229524D02*
X151566143Y-99715238D01*
X150817333Y-105032524D02*
X150331619Y-105032524D01*
X150574476Y-105032524D02*
X150574476Y-104182524D01*
X150493524Y-104303952D01*
X150412571Y-104384905D01*
X150331619Y-104425381D01*
X151343524Y-104182524D02*
X151424476Y-104182524D01*
X151505428Y-104223000D01*
X151545905Y-104263476D01*
X151586381Y-104344429D01*
X151626857Y-104506333D01*
X151626857Y-104708714D01*
X151586381Y-104870619D01*
X151545905Y-104951571D01*
X151505428Y-104992048D01*
X151424476Y-105032524D01*
X151343524Y-105032524D01*
X151262571Y-104992048D01*
X151222095Y-104951571D01*
X151181619Y-104870619D01*
X151141143Y-104708714D01*
X151141143Y-104506333D01*
X151181619Y-104344429D01*
X151222095Y-104263476D01*
X151262571Y-104223000D01*
X151343524Y-104182524D01*
X152153048Y-104182524D02*
X152234000Y-104182524D01*
X152314952Y-104223000D01*
X152355429Y-104263476D01*
X152395905Y-104344429D01*
X152436381Y-104506333D01*
X152436381Y-104708714D01*
X152395905Y-104870619D01*
X152355429Y-104951571D01*
X152314952Y-104992048D01*
X152234000Y-105032524D01*
X152153048Y-105032524D01*
X152072095Y-104992048D01*
X152031619Y-104951571D01*
X151991143Y-104870619D01*
X151950667Y-104708714D01*
X151950667Y-104506333D01*
X151991143Y-104344429D01*
X152031619Y-104263476D01*
X152072095Y-104223000D01*
X152153048Y-104182524D01*
X136320238Y-93387524D02*
X136805953Y-93387524D01*
X136563096Y-94237524D02*
X136563096Y-93387524D01*
X137575000Y-94156571D02*
X137534524Y-94197048D01*
X137413095Y-94237524D01*
X137332143Y-94237524D01*
X137210715Y-94197048D01*
X137129762Y-94116095D01*
X137089286Y-94035143D01*
X137048810Y-93873238D01*
X137048810Y-93751810D01*
X137089286Y-93589905D01*
X137129762Y-93508952D01*
X137210715Y-93428000D01*
X137332143Y-93387524D01*
X137413095Y-93387524D01*
X137534524Y-93428000D01*
X137575000Y-93468476D01*
X138425000Y-94237524D02*
X138141667Y-93832762D01*
X137939286Y-94237524D02*
X137939286Y-93387524D01*
X138263095Y-93387524D01*
X138344048Y-93428000D01*
X138384524Y-93468476D01*
X138425000Y-93549429D01*
X138425000Y-93670857D01*
X138384524Y-93751810D01*
X138344048Y-93792286D01*
X138263095Y-93832762D01*
X137939286Y-93832762D01*
X138667857Y-93387524D02*
X139153572Y-93387524D01*
X138910715Y-94237524D02*
X138910715Y-93387524D01*
X139841667Y-93387524D02*
X139436905Y-93387524D01*
X139396429Y-93792286D01*
X139436905Y-93751810D01*
X139517857Y-93711333D01*
X139720238Y-93711333D01*
X139801191Y-93751810D01*
X139841667Y-93792286D01*
X139882143Y-93873238D01*
X139882143Y-94075619D01*
X139841667Y-94156571D01*
X139801191Y-94197048D01*
X139720238Y-94237524D01*
X139517857Y-94237524D01*
X139436905Y-94197048D01*
X139396429Y-94156571D01*
X140408334Y-93387524D02*
X140489286Y-93387524D01*
X140570238Y-93428000D01*
X140610715Y-93468476D01*
X140651191Y-93549429D01*
X140691667Y-93711333D01*
X140691667Y-93913714D01*
X140651191Y-94075619D01*
X140610715Y-94156571D01*
X140570238Y-94197048D01*
X140489286Y-94237524D01*
X140408334Y-94237524D01*
X140327381Y-94197048D01*
X140286905Y-94156571D01*
X140246429Y-94075619D01*
X140205953Y-93913714D01*
X140205953Y-93711333D01*
X140246429Y-93549429D01*
X140286905Y-93468476D01*
X140327381Y-93428000D01*
X140408334Y-93387524D01*
X141217858Y-93387524D02*
X141298810Y-93387524D01*
X141379762Y-93428000D01*
X141420239Y-93468476D01*
X141460715Y-93549429D01*
X141501191Y-93711333D01*
X141501191Y-93913714D01*
X141460715Y-94075619D01*
X141420239Y-94156571D01*
X141379762Y-94197048D01*
X141298810Y-94237524D01*
X141217858Y-94237524D01*
X141136905Y-94197048D01*
X141096429Y-94156571D01*
X141055953Y-94075619D01*
X141015477Y-93913714D01*
X141015477Y-93711333D01*
X141055953Y-93549429D01*
X141096429Y-93468476D01*
X141136905Y-93428000D01*
X141217858Y-93387524D01*
X142027382Y-93387524D02*
X142108334Y-93387524D01*
X142189286Y-93428000D01*
X142229763Y-93468476D01*
X142270239Y-93549429D01*
X142310715Y-93711333D01*
X142310715Y-93913714D01*
X142270239Y-94075619D01*
X142229763Y-94156571D01*
X142189286Y-94197048D01*
X142108334Y-94237524D01*
X142027382Y-94237524D01*
X141946429Y-94197048D01*
X141905953Y-94156571D01*
X141865477Y-94075619D01*
X141825001Y-93913714D01*
X141825001Y-93711333D01*
X141865477Y-93549429D01*
X141905953Y-93468476D01*
X141946429Y-93428000D01*
X142027382Y-93387524D01*
X143079763Y-94237524D02*
X142675001Y-94237524D01*
X142675001Y-93387524D01*
M02*
