G04 #@! TF.FileFunction,Legend,Bot*
%FSLAX46Y46*%
G04 Gerber Fmt 4.6, Leading zero omitted, Abs format (unit mm)*
G04 Created by KiCad (PCBNEW 4.0.3+e1-6302~38~ubuntu15.04.1-stable) date Sun Sep 11 23:38:22 2016*
%MOMM*%
%LPD*%
G01*
G04 APERTURE LIST*
%ADD10C,0.100000*%
%ADD11C,0.010000*%
G04 APERTURE END LIST*
D10*
D11*
G36*
X154615114Y-100374505D02*
X154540461Y-100411727D01*
X154474569Y-100480261D01*
X154456423Y-100505648D01*
X154436655Y-100538866D01*
X154423828Y-100574945D01*
X154416490Y-100623098D01*
X154413187Y-100692536D01*
X154412462Y-100784206D01*
X154415737Y-100909830D01*
X154427123Y-101004154D01*
X154448959Y-101074523D01*
X154483581Y-101128286D01*
X154533330Y-101172788D01*
X154536986Y-101175423D01*
X154586015Y-101202377D01*
X154645055Y-101215712D01*
X154720141Y-101219000D01*
X154842205Y-101219000D01*
X154842256Y-101337497D01*
X154843392Y-101403492D01*
X154850314Y-101442202D01*
X154868402Y-101465419D01*
X154903038Y-101484933D01*
X154911355Y-101488920D01*
X154950280Y-101507603D01*
X154980417Y-101519403D01*
X155002826Y-101520422D01*
X155018567Y-101506761D01*
X155028698Y-101474522D01*
X155034277Y-101419804D01*
X155036365Y-101338711D01*
X155036019Y-101227344D01*
X155034300Y-101081802D01*
X155033763Y-101038269D01*
X155031828Y-100888205D01*
X155030096Y-100790042D01*
X154842308Y-100790042D01*
X154841252Y-100873364D01*
X154836562Y-100927880D01*
X154825949Y-100963837D01*
X154807128Y-100991482D01*
X154794350Y-101004965D01*
X154742110Y-101044417D01*
X154695858Y-101047628D01*
X154648133Y-101015049D01*
X154646923Y-101013846D01*
X154627506Y-100988668D01*
X154615693Y-100954447D01*
X154609735Y-100901748D01*
X154607880Y-100821131D01*
X154607846Y-100803271D01*
X154612330Y-100692175D01*
X154626926Y-100615161D01*
X154653350Y-100568147D01*
X154693317Y-100547050D01*
X154716416Y-100544923D01*
X154771238Y-100554900D01*
X154808842Y-100587752D01*
X154831477Y-100647857D01*
X154841394Y-100739598D01*
X154842308Y-100790042D01*
X155030096Y-100790042D01*
X155029778Y-100772060D01*
X155027127Y-100684679D01*
X155023394Y-100620905D01*
X155018093Y-100575582D01*
X155010742Y-100543555D01*
X155000857Y-100519668D01*
X154987954Y-100498764D01*
X154982421Y-100490898D01*
X154909031Y-100416595D01*
X154816240Y-100374467D01*
X154708904Y-100362722D01*
X154615114Y-100374505D01*
X154615114Y-100374505D01*
G37*
X154615114Y-100374505D02*
X154540461Y-100411727D01*
X154474569Y-100480261D01*
X154456423Y-100505648D01*
X154436655Y-100538866D01*
X154423828Y-100574945D01*
X154416490Y-100623098D01*
X154413187Y-100692536D01*
X154412462Y-100784206D01*
X154415737Y-100909830D01*
X154427123Y-101004154D01*
X154448959Y-101074523D01*
X154483581Y-101128286D01*
X154533330Y-101172788D01*
X154536986Y-101175423D01*
X154586015Y-101202377D01*
X154645055Y-101215712D01*
X154720141Y-101219000D01*
X154842205Y-101219000D01*
X154842256Y-101337497D01*
X154843392Y-101403492D01*
X154850314Y-101442202D01*
X154868402Y-101465419D01*
X154903038Y-101484933D01*
X154911355Y-101488920D01*
X154950280Y-101507603D01*
X154980417Y-101519403D01*
X155002826Y-101520422D01*
X155018567Y-101506761D01*
X155028698Y-101474522D01*
X155034277Y-101419804D01*
X155036365Y-101338711D01*
X155036019Y-101227344D01*
X155034300Y-101081802D01*
X155033763Y-101038269D01*
X155031828Y-100888205D01*
X155030096Y-100790042D01*
X154842308Y-100790042D01*
X154841252Y-100873364D01*
X154836562Y-100927880D01*
X154825949Y-100963837D01*
X154807128Y-100991482D01*
X154794350Y-101004965D01*
X154742110Y-101044417D01*
X154695858Y-101047628D01*
X154648133Y-101015049D01*
X154646923Y-101013846D01*
X154627506Y-100988668D01*
X154615693Y-100954447D01*
X154609735Y-100901748D01*
X154607880Y-100821131D01*
X154607846Y-100803271D01*
X154612330Y-100692175D01*
X154626926Y-100615161D01*
X154653350Y-100568147D01*
X154693317Y-100547050D01*
X154716416Y-100544923D01*
X154771238Y-100554900D01*
X154808842Y-100587752D01*
X154831477Y-100647857D01*
X154841394Y-100739598D01*
X154842308Y-100790042D01*
X155030096Y-100790042D01*
X155029778Y-100772060D01*
X155027127Y-100684679D01*
X155023394Y-100620905D01*
X155018093Y-100575582D01*
X155010742Y-100543555D01*
X155000857Y-100519668D01*
X154987954Y-100498764D01*
X154982421Y-100490898D01*
X154909031Y-100416595D01*
X154816240Y-100374467D01*
X154708904Y-100362722D01*
X154615114Y-100374505D01*
G36*
X153112336Y-100385089D02*
X153049633Y-100421358D01*
X153006039Y-100457358D01*
X152974155Y-100495075D01*
X152952190Y-100541199D01*
X152938351Y-100602421D01*
X152930847Y-100685431D01*
X152927883Y-100796919D01*
X152927539Y-100877062D01*
X152927539Y-101172065D01*
X153093615Y-101246515D01*
X153103385Y-100923402D01*
X153107421Y-100802729D01*
X153111656Y-100715141D01*
X153116903Y-100654650D01*
X153123975Y-100615268D01*
X153133689Y-100591007D01*
X153146856Y-100575880D01*
X153151081Y-100572606D01*
X153215091Y-100547034D01*
X153279792Y-100557153D01*
X153318308Y-100584000D01*
X153333975Y-100603024D01*
X153344820Y-100627988D01*
X153351712Y-100665834D01*
X153355521Y-100723502D01*
X153357117Y-100807935D01*
X153357385Y-100895928D01*
X153357437Y-101006323D01*
X153359328Y-101084463D01*
X153365655Y-101137165D01*
X153379017Y-101171242D01*
X153402015Y-101193511D01*
X153437246Y-101210787D01*
X153484303Y-101228738D01*
X153535697Y-101248278D01*
X153529579Y-100901485D01*
X153527116Y-100776468D01*
X153524233Y-100684082D01*
X153520102Y-100617881D01*
X153513893Y-100571420D01*
X153504774Y-100538256D01*
X153491917Y-100511944D01*
X153476416Y-100488729D01*
X153401629Y-100414569D01*
X153310372Y-100371684D01*
X153211117Y-100361412D01*
X153112336Y-100385089D01*
X153112336Y-100385089D01*
G37*
X153112336Y-100385089D02*
X153049633Y-100421358D01*
X153006039Y-100457358D01*
X152974155Y-100495075D01*
X152952190Y-100541199D01*
X152938351Y-100602421D01*
X152930847Y-100685431D01*
X152927883Y-100796919D01*
X152927539Y-100877062D01*
X152927539Y-101172065D01*
X153093615Y-101246515D01*
X153103385Y-100923402D01*
X153107421Y-100802729D01*
X153111656Y-100715141D01*
X153116903Y-100654650D01*
X153123975Y-100615268D01*
X153133689Y-100591007D01*
X153146856Y-100575880D01*
X153151081Y-100572606D01*
X153215091Y-100547034D01*
X153279792Y-100557153D01*
X153318308Y-100584000D01*
X153333975Y-100603024D01*
X153344820Y-100627988D01*
X153351712Y-100665834D01*
X153355521Y-100723502D01*
X153357117Y-100807935D01*
X153357385Y-100895928D01*
X153357437Y-101006323D01*
X153359328Y-101084463D01*
X153365655Y-101137165D01*
X153379017Y-101171242D01*
X153402015Y-101193511D01*
X153437246Y-101210787D01*
X153484303Y-101228738D01*
X153535697Y-101248278D01*
X153529579Y-100901485D01*
X153527116Y-100776468D01*
X153524233Y-100684082D01*
X153520102Y-100617881D01*
X153513893Y-100571420D01*
X153504774Y-100538256D01*
X153491917Y-100511944D01*
X153476416Y-100488729D01*
X153401629Y-100414569D01*
X153310372Y-100371684D01*
X153211117Y-100361412D01*
X153112336Y-100385089D01*
G36*
X155367114Y-100377256D02*
X155275536Y-100425409D01*
X155207951Y-100502905D01*
X155183943Y-100552727D01*
X155165262Y-100627533D01*
X155155699Y-100722052D01*
X155154792Y-100825210D01*
X155162079Y-100925935D01*
X155177097Y-101013153D01*
X155199385Y-101075791D01*
X155206235Y-101086579D01*
X155287368Y-101167105D01*
X155383734Y-101215336D01*
X155488299Y-101229450D01*
X155594032Y-101207629D01*
X155623457Y-101194547D01*
X155680759Y-101154231D01*
X155731050Y-101100775D01*
X155735803Y-101093995D01*
X155755122Y-101061321D01*
X155767892Y-101026394D01*
X155775436Y-100980414D01*
X155779076Y-100914584D01*
X155780135Y-100820105D01*
X155780154Y-100798923D01*
X155780106Y-100792182D01*
X155584769Y-100792182D01*
X155583632Y-100881349D01*
X155579159Y-100940520D01*
X155569754Y-100978741D01*
X155553824Y-101005053D01*
X155545692Y-101013846D01*
X155498942Y-101047261D01*
X155453553Y-101045737D01*
X155407660Y-101016752D01*
X155380288Y-100985809D01*
X155364077Y-100940643D01*
X155354974Y-100869420D01*
X155354349Y-100861114D01*
X155352796Y-100732037D01*
X155369035Y-100636172D01*
X155402848Y-100574107D01*
X155454016Y-100546432D01*
X155472280Y-100544923D01*
X155520240Y-100552513D01*
X155553047Y-100578808D01*
X155573105Y-100629095D01*
X155582822Y-100708664D01*
X155584769Y-100792182D01*
X155780106Y-100792182D01*
X155779426Y-100698249D01*
X155776371Y-100627906D01*
X155769678Y-100579163D01*
X155758040Y-100543288D01*
X155740147Y-100511548D01*
X155736192Y-100505648D01*
X155669733Y-100426104D01*
X155597315Y-100379929D01*
X155509151Y-100361599D01*
X155479213Y-100360703D01*
X155367114Y-100377256D01*
X155367114Y-100377256D01*
G37*
X155367114Y-100377256D02*
X155275536Y-100425409D01*
X155207951Y-100502905D01*
X155183943Y-100552727D01*
X155165262Y-100627533D01*
X155155699Y-100722052D01*
X155154792Y-100825210D01*
X155162079Y-100925935D01*
X155177097Y-101013153D01*
X155199385Y-101075791D01*
X155206235Y-101086579D01*
X155287368Y-101167105D01*
X155383734Y-101215336D01*
X155488299Y-101229450D01*
X155594032Y-101207629D01*
X155623457Y-101194547D01*
X155680759Y-101154231D01*
X155731050Y-101100775D01*
X155735803Y-101093995D01*
X155755122Y-101061321D01*
X155767892Y-101026394D01*
X155775436Y-100980414D01*
X155779076Y-100914584D01*
X155780135Y-100820105D01*
X155780154Y-100798923D01*
X155780106Y-100792182D01*
X155584769Y-100792182D01*
X155583632Y-100881349D01*
X155579159Y-100940520D01*
X155569754Y-100978741D01*
X155553824Y-101005053D01*
X155545692Y-101013846D01*
X155498942Y-101047261D01*
X155453553Y-101045737D01*
X155407660Y-101016752D01*
X155380288Y-100985809D01*
X155364077Y-100940643D01*
X155354974Y-100869420D01*
X155354349Y-100861114D01*
X155352796Y-100732037D01*
X155369035Y-100636172D01*
X155402848Y-100574107D01*
X155454016Y-100546432D01*
X155472280Y-100544923D01*
X155520240Y-100552513D01*
X155553047Y-100578808D01*
X155573105Y-100629095D01*
X155582822Y-100708664D01*
X155584769Y-100792182D01*
X155780106Y-100792182D01*
X155779426Y-100698249D01*
X155776371Y-100627906D01*
X155769678Y-100579163D01*
X155758040Y-100543288D01*
X155740147Y-100511548D01*
X155736192Y-100505648D01*
X155669733Y-100426104D01*
X155597315Y-100379929D01*
X155509151Y-100361599D01*
X155479213Y-100360703D01*
X155367114Y-100377256D01*
G36*
X153849746Y-100389745D02*
X153772714Y-100441567D01*
X153713184Y-100516412D01*
X153677622Y-100611654D01*
X153670429Y-100681756D01*
X153671246Y-100711009D01*
X153678086Y-100733407D01*
X153696888Y-100753474D01*
X153733592Y-100775733D01*
X153794138Y-100804709D01*
X153884466Y-100844927D01*
X153884923Y-100845129D01*
X153968067Y-100883210D01*
X154036247Y-100917025D01*
X154082495Y-100942933D01*
X154099842Y-100957295D01*
X154099846Y-100957411D01*
X154084557Y-100988685D01*
X154048804Y-101023157D01*
X154007758Y-101047990D01*
X153986963Y-101052923D01*
X153930230Y-101035862D01*
X153881373Y-100993133D01*
X153857535Y-100946155D01*
X153834603Y-100911522D01*
X153789682Y-100872081D01*
X153736877Y-100838009D01*
X153690290Y-100819480D01*
X153680548Y-100818462D01*
X153669582Y-100835215D01*
X153668921Y-100878039D01*
X153676980Y-100935781D01*
X153692173Y-100997289D01*
X153712914Y-101051409D01*
X153713962Y-101053510D01*
X153776379Y-101140660D01*
X153857274Y-101199939D01*
X153949144Y-101229034D01*
X154044487Y-101225634D01*
X154135802Y-101187428D01*
X154139862Y-101184741D01*
X154211694Y-101119642D01*
X154258927Y-101034705D01*
X154285066Y-100923021D01*
X154288574Y-100891643D01*
X154294787Y-100743536D01*
X154287339Y-100674468D01*
X154099846Y-100674468D01*
X154097410Y-100717552D01*
X154084086Y-100730126D01*
X154050868Y-100720719D01*
X153998506Y-100698483D01*
X153939976Y-100670610D01*
X153938521Y-100669872D01*
X153888911Y-100643777D01*
X153869000Y-100626363D01*
X153873910Y-100608107D01*
X153894584Y-100584120D01*
X153947181Y-100549406D01*
X154003823Y-100546856D01*
X154054631Y-100572119D01*
X154089724Y-100620847D01*
X154099846Y-100674468D01*
X154287339Y-100674468D01*
X154282008Y-100625036D01*
X154249222Y-100531055D01*
X154203579Y-100465215D01*
X154121198Y-100398681D01*
X154030454Y-100365676D01*
X153937815Y-100363573D01*
X153849746Y-100389745D01*
X153849746Y-100389745D01*
G37*
X153849746Y-100389745D02*
X153772714Y-100441567D01*
X153713184Y-100516412D01*
X153677622Y-100611654D01*
X153670429Y-100681756D01*
X153671246Y-100711009D01*
X153678086Y-100733407D01*
X153696888Y-100753474D01*
X153733592Y-100775733D01*
X153794138Y-100804709D01*
X153884466Y-100844927D01*
X153884923Y-100845129D01*
X153968067Y-100883210D01*
X154036247Y-100917025D01*
X154082495Y-100942933D01*
X154099842Y-100957295D01*
X154099846Y-100957411D01*
X154084557Y-100988685D01*
X154048804Y-101023157D01*
X154007758Y-101047990D01*
X153986963Y-101052923D01*
X153930230Y-101035862D01*
X153881373Y-100993133D01*
X153857535Y-100946155D01*
X153834603Y-100911522D01*
X153789682Y-100872081D01*
X153736877Y-100838009D01*
X153690290Y-100819480D01*
X153680548Y-100818462D01*
X153669582Y-100835215D01*
X153668921Y-100878039D01*
X153676980Y-100935781D01*
X153692173Y-100997289D01*
X153712914Y-101051409D01*
X153713962Y-101053510D01*
X153776379Y-101140660D01*
X153857274Y-101199939D01*
X153949144Y-101229034D01*
X154044487Y-101225634D01*
X154135802Y-101187428D01*
X154139862Y-101184741D01*
X154211694Y-101119642D01*
X154258927Y-101034705D01*
X154285066Y-100923021D01*
X154288574Y-100891643D01*
X154294787Y-100743536D01*
X154287339Y-100674468D01*
X154099846Y-100674468D01*
X154097410Y-100717552D01*
X154084086Y-100730126D01*
X154050868Y-100720719D01*
X153998506Y-100698483D01*
X153939976Y-100670610D01*
X153938521Y-100669872D01*
X153888911Y-100643777D01*
X153869000Y-100626363D01*
X153873910Y-100608107D01*
X153894584Y-100584120D01*
X153947181Y-100549406D01*
X154003823Y-100546856D01*
X154054631Y-100572119D01*
X154089724Y-100620847D01*
X154099846Y-100674468D01*
X154287339Y-100674468D01*
X154282008Y-100625036D01*
X154249222Y-100531055D01*
X154203579Y-100465215D01*
X154121198Y-100398681D01*
X154030454Y-100365676D01*
X153937815Y-100363573D01*
X153849746Y-100389745D01*
G36*
X152224154Y-100282120D02*
X152218428Y-100361980D01*
X152211851Y-100409039D01*
X152202738Y-100429566D01*
X152189402Y-100429829D01*
X152185077Y-100427378D01*
X152127556Y-100409636D01*
X152052732Y-100410672D01*
X151976661Y-100428910D01*
X151929082Y-100452505D01*
X151880298Y-100490198D01*
X151844636Y-100532855D01*
X151820155Y-100587057D01*
X151804913Y-100659384D01*
X151796970Y-100756419D01*
X151794384Y-100884742D01*
X151794338Y-100909358D01*
X151794308Y-101185870D01*
X151855839Y-101207320D01*
X151899541Y-101221912D01*
X151923518Y-101228706D01*
X151924223Y-101228769D01*
X151926585Y-101210345D01*
X151928594Y-101159526D01*
X151930099Y-101082993D01*
X151930947Y-100987430D01*
X151931077Y-100929329D01*
X151931349Y-100814771D01*
X151932748Y-100732667D01*
X151936151Y-100676393D01*
X151942433Y-100639326D01*
X151952471Y-100614844D01*
X151967139Y-100596325D01*
X151976298Y-100587406D01*
X152039211Y-100551466D01*
X152107864Y-100548775D01*
X152170152Y-100579170D01*
X152181671Y-100590144D01*
X152198567Y-100610779D01*
X152210286Y-100635256D01*
X152217767Y-100670647D01*
X152221946Y-100724026D01*
X152223763Y-100802466D01*
X152224154Y-100910617D01*
X152224154Y-101185870D01*
X152285685Y-101207320D01*
X152329387Y-101221912D01*
X152353364Y-101228706D01*
X152354070Y-101228769D01*
X152355874Y-101210069D01*
X152357500Y-101157322D01*
X152358883Y-101075557D01*
X152359958Y-100969805D01*
X152360660Y-100845094D01*
X152360923Y-100706455D01*
X152360923Y-100171806D01*
X152233923Y-100118236D01*
X152224154Y-100282120D01*
X152224154Y-100282120D01*
G37*
X152224154Y-100282120D02*
X152218428Y-100361980D01*
X152211851Y-100409039D01*
X152202738Y-100429566D01*
X152189402Y-100429829D01*
X152185077Y-100427378D01*
X152127556Y-100409636D01*
X152052732Y-100410672D01*
X151976661Y-100428910D01*
X151929082Y-100452505D01*
X151880298Y-100490198D01*
X151844636Y-100532855D01*
X151820155Y-100587057D01*
X151804913Y-100659384D01*
X151796970Y-100756419D01*
X151794384Y-100884742D01*
X151794338Y-100909358D01*
X151794308Y-101185870D01*
X151855839Y-101207320D01*
X151899541Y-101221912D01*
X151923518Y-101228706D01*
X151924223Y-101228769D01*
X151926585Y-101210345D01*
X151928594Y-101159526D01*
X151930099Y-101082993D01*
X151930947Y-100987430D01*
X151931077Y-100929329D01*
X151931349Y-100814771D01*
X151932748Y-100732667D01*
X151936151Y-100676393D01*
X151942433Y-100639326D01*
X151952471Y-100614844D01*
X151967139Y-100596325D01*
X151976298Y-100587406D01*
X152039211Y-100551466D01*
X152107864Y-100548775D01*
X152170152Y-100579170D01*
X152181671Y-100590144D01*
X152198567Y-100610779D01*
X152210286Y-100635256D01*
X152217767Y-100670647D01*
X152221946Y-100724026D01*
X152223763Y-100802466D01*
X152224154Y-100910617D01*
X152224154Y-101185870D01*
X152285685Y-101207320D01*
X152329387Y-101221912D01*
X152353364Y-101228706D01*
X152354070Y-101228769D01*
X152355874Y-101210069D01*
X152357500Y-101157322D01*
X152358883Y-101075557D01*
X152359958Y-100969805D01*
X152360660Y-100845094D01*
X152360923Y-100706455D01*
X152360923Y-100171806D01*
X152233923Y-100118236D01*
X152224154Y-100282120D01*
G36*
X151330499Y-100416303D02*
X151253940Y-100444733D01*
X151253064Y-100445279D01*
X151205715Y-100480127D01*
X151170759Y-100520852D01*
X151146175Y-100573925D01*
X151129938Y-100645814D01*
X151120025Y-100742992D01*
X151114414Y-100871928D01*
X151113923Y-100890298D01*
X151106859Y-101167287D01*
X151166305Y-101198028D01*
X151209319Y-101218802D01*
X151235290Y-101228646D01*
X151236491Y-101228769D01*
X151240986Y-101210606D01*
X151244556Y-101161612D01*
X151246752Y-101090031D01*
X151247231Y-101032068D01*
X151247242Y-100938170D01*
X151251534Y-100879203D01*
X151266497Y-100851079D01*
X151298518Y-100849706D01*
X151353986Y-100870998D01*
X151437731Y-100910136D01*
X151499311Y-100942643D01*
X151530983Y-100970845D01*
X151540294Y-101001582D01*
X151540308Y-101003104D01*
X151524943Y-101056054D01*
X151479453Y-101084660D01*
X151409834Y-101088803D01*
X151359687Y-101088084D01*
X151333246Y-101102527D01*
X151316757Y-101137218D01*
X151307267Y-101181416D01*
X151320943Y-101206493D01*
X151326093Y-101210082D01*
X151374575Y-101224496D01*
X151442469Y-101226537D01*
X151512388Y-101216983D01*
X151561932Y-101199522D01*
X151630430Y-101141364D01*
X151669366Y-101060408D01*
X151677077Y-100997160D01*
X151671193Y-100940111D01*
X151649899Y-100893542D01*
X151607735Y-100852181D01*
X151539241Y-100810755D01*
X151438956Y-100763993D01*
X151432846Y-100761350D01*
X151342510Y-100719617D01*
X151286765Y-100685391D01*
X151262871Y-100654635D01*
X151268087Y-100623311D01*
X151299672Y-100587383D01*
X151309117Y-100579116D01*
X151372383Y-100547058D01*
X151437936Y-100548407D01*
X151495028Y-100579838D01*
X151532907Y-100638024D01*
X151536426Y-100649446D01*
X151570700Y-100704837D01*
X151614191Y-100731518D01*
X151677077Y-100757960D01*
X151677077Y-100689548D01*
X151657948Y-100590110D01*
X151601169Y-100498902D01*
X151571622Y-100468389D01*
X151504458Y-100429228D01*
X151419044Y-100411500D01*
X151330499Y-100416303D01*
X151330499Y-100416303D01*
G37*
X151330499Y-100416303D02*
X151253940Y-100444733D01*
X151253064Y-100445279D01*
X151205715Y-100480127D01*
X151170759Y-100520852D01*
X151146175Y-100573925D01*
X151129938Y-100645814D01*
X151120025Y-100742992D01*
X151114414Y-100871928D01*
X151113923Y-100890298D01*
X151106859Y-101167287D01*
X151166305Y-101198028D01*
X151209319Y-101218802D01*
X151235290Y-101228646D01*
X151236491Y-101228769D01*
X151240986Y-101210606D01*
X151244556Y-101161612D01*
X151246752Y-101090031D01*
X151247231Y-101032068D01*
X151247242Y-100938170D01*
X151251534Y-100879203D01*
X151266497Y-100851079D01*
X151298518Y-100849706D01*
X151353986Y-100870998D01*
X151437731Y-100910136D01*
X151499311Y-100942643D01*
X151530983Y-100970845D01*
X151540294Y-101001582D01*
X151540308Y-101003104D01*
X151524943Y-101056054D01*
X151479453Y-101084660D01*
X151409834Y-101088803D01*
X151359687Y-101088084D01*
X151333246Y-101102527D01*
X151316757Y-101137218D01*
X151307267Y-101181416D01*
X151320943Y-101206493D01*
X151326093Y-101210082D01*
X151374575Y-101224496D01*
X151442469Y-101226537D01*
X151512388Y-101216983D01*
X151561932Y-101199522D01*
X151630430Y-101141364D01*
X151669366Y-101060408D01*
X151677077Y-100997160D01*
X151671193Y-100940111D01*
X151649899Y-100893542D01*
X151607735Y-100852181D01*
X151539241Y-100810755D01*
X151438956Y-100763993D01*
X151432846Y-100761350D01*
X151342510Y-100719617D01*
X151286765Y-100685391D01*
X151262871Y-100654635D01*
X151268087Y-100623311D01*
X151299672Y-100587383D01*
X151309117Y-100579116D01*
X151372383Y-100547058D01*
X151437936Y-100548407D01*
X151495028Y-100579838D01*
X151532907Y-100638024D01*
X151536426Y-100649446D01*
X151570700Y-100704837D01*
X151614191Y-100731518D01*
X151677077Y-100757960D01*
X151677077Y-100689548D01*
X151657948Y-100590110D01*
X151601169Y-100498902D01*
X151571622Y-100468389D01*
X151504458Y-100429228D01*
X151419044Y-100411500D01*
X151330499Y-100416303D01*
G36*
X150670638Y-100414670D02*
X150581883Y-100447421D01*
X150509978Y-100505350D01*
X150481856Y-100546128D01*
X150451198Y-100620954D01*
X150451835Y-100675058D01*
X150484013Y-100711446D01*
X150495919Y-100717633D01*
X150547325Y-100736925D01*
X150573578Y-100731982D01*
X150582470Y-100699587D01*
X150582923Y-100681692D01*
X150599203Y-100615859D01*
X150641635Y-100569807D01*
X150700612Y-100547564D01*
X150766525Y-100553161D01*
X150820105Y-100582229D01*
X150838202Y-100598810D01*
X150851029Y-100618925D01*
X150859694Y-100649332D01*
X150865304Y-100696788D01*
X150868965Y-100768050D01*
X150871785Y-100869875D01*
X150872516Y-100902115D01*
X150875180Y-101012410D01*
X150878208Y-101090036D01*
X150882750Y-101141396D01*
X150889954Y-101172890D01*
X150900967Y-101190920D01*
X150916940Y-101201888D01*
X150927166Y-101206733D01*
X150970594Y-101223301D01*
X150996158Y-101228769D01*
X151004605Y-101210507D01*
X151009761Y-101155296D01*
X151011654Y-101062499D01*
X151010311Y-100931478D01*
X151009893Y-100911269D01*
X151006942Y-100791733D01*
X151003452Y-100704449D01*
X150998486Y-100642591D01*
X150991107Y-100599336D01*
X150980376Y-100567860D01*
X150965355Y-100541339D01*
X150957498Y-100529975D01*
X150912447Y-100479692D01*
X150862060Y-100440581D01*
X150855892Y-100437167D01*
X150765542Y-100410212D01*
X150670638Y-100414670D01*
X150670638Y-100414670D01*
G37*
X150670638Y-100414670D02*
X150581883Y-100447421D01*
X150509978Y-100505350D01*
X150481856Y-100546128D01*
X150451198Y-100620954D01*
X150451835Y-100675058D01*
X150484013Y-100711446D01*
X150495919Y-100717633D01*
X150547325Y-100736925D01*
X150573578Y-100731982D01*
X150582470Y-100699587D01*
X150582923Y-100681692D01*
X150599203Y-100615859D01*
X150641635Y-100569807D01*
X150700612Y-100547564D01*
X150766525Y-100553161D01*
X150820105Y-100582229D01*
X150838202Y-100598810D01*
X150851029Y-100618925D01*
X150859694Y-100649332D01*
X150865304Y-100696788D01*
X150868965Y-100768050D01*
X150871785Y-100869875D01*
X150872516Y-100902115D01*
X150875180Y-101012410D01*
X150878208Y-101090036D01*
X150882750Y-101141396D01*
X150889954Y-101172890D01*
X150900967Y-101190920D01*
X150916940Y-101201888D01*
X150927166Y-101206733D01*
X150970594Y-101223301D01*
X150996158Y-101228769D01*
X151004605Y-101210507D01*
X151009761Y-101155296D01*
X151011654Y-101062499D01*
X151010311Y-100931478D01*
X151009893Y-100911269D01*
X151006942Y-100791733D01*
X151003452Y-100704449D01*
X150998486Y-100642591D01*
X150991107Y-100599336D01*
X150980376Y-100567860D01*
X150965355Y-100541339D01*
X150957498Y-100529975D01*
X150912447Y-100479692D01*
X150862060Y-100440581D01*
X150855892Y-100437167D01*
X150765542Y-100410212D01*
X150670638Y-100414670D01*
G36*
X149781919Y-100570289D02*
X149782167Y-100716320D01*
X149783128Y-100828655D01*
X149785206Y-100912678D01*
X149788807Y-100973769D01*
X149794335Y-101017309D01*
X149802196Y-101048679D01*
X149812793Y-101073262D01*
X149820818Y-101087294D01*
X149887272Y-101163388D01*
X149971530Y-101211084D01*
X150064751Y-101228199D01*
X150158100Y-101212546D01*
X150213688Y-101184418D01*
X150272043Y-101135760D01*
X150311814Y-101076333D01*
X150335810Y-100998507D01*
X150346839Y-100894652D01*
X150348401Y-100818462D01*
X150348191Y-100812986D01*
X150211692Y-100812986D01*
X150210859Y-100900355D01*
X150207039Y-100958192D01*
X150198254Y-100996029D01*
X150182526Y-101023398D01*
X150163734Y-101044042D01*
X150100625Y-101083890D01*
X150032863Y-101087295D01*
X149968821Y-101054025D01*
X149963836Y-101049517D01*
X149942561Y-101026067D01*
X149929221Y-100998166D01*
X149921999Y-100956641D01*
X149919077Y-100892316D01*
X149918615Y-100821200D01*
X149919617Y-100731858D01*
X149923762Y-100672258D01*
X149932764Y-100633089D01*
X149948333Y-100605040D01*
X149961098Y-100590144D01*
X150020400Y-100552575D01*
X150088699Y-100548057D01*
X150153890Y-100576753D01*
X150166472Y-100587406D01*
X150187889Y-100611063D01*
X150201256Y-100639251D01*
X150208434Y-100681245D01*
X150211281Y-100746319D01*
X150211692Y-100812986D01*
X150348191Y-100812986D01*
X150343678Y-100695765D01*
X150327638Y-100603577D01*
X150297472Y-100534269D01*
X150250371Y-100480211D01*
X150213688Y-100452505D01*
X150147010Y-100422572D01*
X150069728Y-100408678D01*
X149997890Y-100412397D01*
X149957692Y-100427400D01*
X149941918Y-100431670D01*
X149931450Y-100415750D01*
X149924144Y-100373089D01*
X149918615Y-100308106D01*
X149912563Y-100235732D01*
X149904156Y-100192187D01*
X149888859Y-100167287D01*
X149862136Y-100150845D01*
X149845346Y-100143564D01*
X149781846Y-100116963D01*
X149781919Y-100570289D01*
X149781919Y-100570289D01*
G37*
X149781919Y-100570289D02*
X149782167Y-100716320D01*
X149783128Y-100828655D01*
X149785206Y-100912678D01*
X149788807Y-100973769D01*
X149794335Y-101017309D01*
X149802196Y-101048679D01*
X149812793Y-101073262D01*
X149820818Y-101087294D01*
X149887272Y-101163388D01*
X149971530Y-101211084D01*
X150064751Y-101228199D01*
X150158100Y-101212546D01*
X150213688Y-101184418D01*
X150272043Y-101135760D01*
X150311814Y-101076333D01*
X150335810Y-100998507D01*
X150346839Y-100894652D01*
X150348401Y-100818462D01*
X150348191Y-100812986D01*
X150211692Y-100812986D01*
X150210859Y-100900355D01*
X150207039Y-100958192D01*
X150198254Y-100996029D01*
X150182526Y-101023398D01*
X150163734Y-101044042D01*
X150100625Y-101083890D01*
X150032863Y-101087295D01*
X149968821Y-101054025D01*
X149963836Y-101049517D01*
X149942561Y-101026067D01*
X149929221Y-100998166D01*
X149921999Y-100956641D01*
X149919077Y-100892316D01*
X149918615Y-100821200D01*
X149919617Y-100731858D01*
X149923762Y-100672258D01*
X149932764Y-100633089D01*
X149948333Y-100605040D01*
X149961098Y-100590144D01*
X150020400Y-100552575D01*
X150088699Y-100548057D01*
X150153890Y-100576753D01*
X150166472Y-100587406D01*
X150187889Y-100611063D01*
X150201256Y-100639251D01*
X150208434Y-100681245D01*
X150211281Y-100746319D01*
X150211692Y-100812986D01*
X150348191Y-100812986D01*
X150343678Y-100695765D01*
X150327638Y-100603577D01*
X150297472Y-100534269D01*
X150250371Y-100480211D01*
X150213688Y-100452505D01*
X150147010Y-100422572D01*
X150069728Y-100408678D01*
X149997890Y-100412397D01*
X149957692Y-100427400D01*
X149941918Y-100431670D01*
X149931450Y-100415750D01*
X149924144Y-100373089D01*
X149918615Y-100308106D01*
X149912563Y-100235732D01*
X149904156Y-100192187D01*
X149888859Y-100167287D01*
X149862136Y-100150845D01*
X149845346Y-100143564D01*
X149781846Y-100116963D01*
X149781919Y-100570289D01*
G36*
X148988071Y-100426662D02*
X148985089Y-100478068D01*
X148982753Y-100556192D01*
X148981251Y-100654857D01*
X148980769Y-100758343D01*
X148980769Y-101108533D01*
X149042599Y-101170363D01*
X149085207Y-101208462D01*
X149122610Y-101223895D01*
X149173730Y-101222918D01*
X149194022Y-101220433D01*
X149257446Y-101213200D01*
X149309905Y-101209055D01*
X149322692Y-101208672D01*
X149365801Y-101211176D01*
X149427456Y-101217462D01*
X149451362Y-101220433D01*
X149510078Y-101225028D01*
X149549536Y-101215046D01*
X149588662Y-101184228D01*
X149602785Y-101170363D01*
X149664615Y-101108533D01*
X149664615Y-100453503D01*
X149614850Y-100430829D01*
X149571998Y-100414034D01*
X149546927Y-100408154D01*
X149540499Y-100426736D01*
X149534491Y-100478655D01*
X149529303Y-100558172D01*
X149525336Y-100659546D01*
X149523423Y-100745192D01*
X149518077Y-101082231D01*
X149471440Y-101088825D01*
X149429024Y-101084214D01*
X149408240Y-101069287D01*
X149402430Y-101041377D01*
X149397470Y-100981925D01*
X149393754Y-100898466D01*
X149391676Y-100798532D01*
X149391376Y-100747104D01*
X149391077Y-100451054D01*
X149329546Y-100429604D01*
X149285996Y-100415020D01*
X149262306Y-100408219D01*
X149261623Y-100408154D01*
X149259246Y-100426642D01*
X149256634Y-100477906D01*
X149254005Y-100555649D01*
X149251579Y-100653574D01*
X149249885Y-100745192D01*
X149244539Y-101082231D01*
X149127308Y-101082231D01*
X149121928Y-100774746D01*
X149116549Y-100467261D01*
X149059399Y-100437707D01*
X149017203Y-100417413D01*
X148992230Y-100408204D01*
X148991509Y-100408154D01*
X148988071Y-100426662D01*
X148988071Y-100426662D01*
G37*
X148988071Y-100426662D02*
X148985089Y-100478068D01*
X148982753Y-100556192D01*
X148981251Y-100654857D01*
X148980769Y-100758343D01*
X148980769Y-101108533D01*
X149042599Y-101170363D01*
X149085207Y-101208462D01*
X149122610Y-101223895D01*
X149173730Y-101222918D01*
X149194022Y-101220433D01*
X149257446Y-101213200D01*
X149309905Y-101209055D01*
X149322692Y-101208672D01*
X149365801Y-101211176D01*
X149427456Y-101217462D01*
X149451362Y-101220433D01*
X149510078Y-101225028D01*
X149549536Y-101215046D01*
X149588662Y-101184228D01*
X149602785Y-101170363D01*
X149664615Y-101108533D01*
X149664615Y-100453503D01*
X149614850Y-100430829D01*
X149571998Y-100414034D01*
X149546927Y-100408154D01*
X149540499Y-100426736D01*
X149534491Y-100478655D01*
X149529303Y-100558172D01*
X149525336Y-100659546D01*
X149523423Y-100745192D01*
X149518077Y-101082231D01*
X149471440Y-101088825D01*
X149429024Y-101084214D01*
X149408240Y-101069287D01*
X149402430Y-101041377D01*
X149397470Y-100981925D01*
X149393754Y-100898466D01*
X149391676Y-100798532D01*
X149391376Y-100747104D01*
X149391077Y-100451054D01*
X149329546Y-100429604D01*
X149285996Y-100415020D01*
X149262306Y-100408219D01*
X149261623Y-100408154D01*
X149259246Y-100426642D01*
X149256634Y-100477906D01*
X149254005Y-100555649D01*
X149251579Y-100653574D01*
X149249885Y-100745192D01*
X149244539Y-101082231D01*
X149127308Y-101082231D01*
X149121928Y-100774746D01*
X149116549Y-100467261D01*
X149059399Y-100437707D01*
X149017203Y-100417413D01*
X148992230Y-100408204D01*
X148991509Y-100408154D01*
X148988071Y-100426662D01*
G36*
X148496667Y-100423528D02*
X148440410Y-100449117D01*
X148396253Y-100480124D01*
X148363899Y-100514795D01*
X148341562Y-100559520D01*
X148327454Y-100620692D01*
X148319789Y-100704701D01*
X148316780Y-100817940D01*
X148316462Y-100892509D01*
X148316462Y-101183420D01*
X148366227Y-101206095D01*
X148405424Y-101222667D01*
X148424843Y-101228769D01*
X148428558Y-101210610D01*
X148431505Y-101161648D01*
X148433309Y-101090153D01*
X148433692Y-101033385D01*
X148435339Y-100951371D01*
X148439778Y-100886309D01*
X148446260Y-100846467D01*
X148451410Y-100838000D01*
X148486023Y-100846646D01*
X148540360Y-100868823D01*
X148603278Y-100898886D01*
X148663632Y-100931192D01*
X148710279Y-100960098D01*
X148732074Y-100979961D01*
X148732161Y-100980175D01*
X148730286Y-101016935D01*
X148713475Y-101052026D01*
X148683961Y-101080528D01*
X148640884Y-101090061D01*
X148604068Y-101088950D01*
X148551926Y-101088133D01*
X148524556Y-101100349D01*
X148508118Y-101132624D01*
X148506045Y-101138710D01*
X148498919Y-101184739D01*
X148517976Y-101212687D01*
X148567647Y-101226007D01*
X148621303Y-101228470D01*
X148717858Y-101210210D01*
X148767841Y-101184131D01*
X148829571Y-101122868D01*
X148862310Y-101047670D01*
X148865247Y-100968211D01*
X148837576Y-100894167D01*
X148795953Y-100847769D01*
X148754396Y-100821793D01*
X148689078Y-100788907D01*
X148612962Y-100755557D01*
X148600274Y-100750461D01*
X148516667Y-100713565D01*
X148468470Y-100681046D01*
X148452970Y-100648718D01*
X148467450Y-100612394D01*
X148492308Y-100584000D01*
X148551061Y-100549039D01*
X148615707Y-100546417D01*
X148674992Y-100573358D01*
X148717661Y-100627088D01*
X148723261Y-100640950D01*
X148755867Y-100691936D01*
X148803470Y-100729787D01*
X148863539Y-100760850D01*
X148863539Y-100672768D01*
X148860003Y-100618951D01*
X148844844Y-100576534D01*
X148811232Y-100531279D01*
X148778965Y-100496420D01*
X148728791Y-100447062D01*
X148689807Y-100420547D01*
X148647936Y-100409911D01*
X148600540Y-100408154D01*
X148496667Y-100423528D01*
X148496667Y-100423528D01*
G37*
X148496667Y-100423528D02*
X148440410Y-100449117D01*
X148396253Y-100480124D01*
X148363899Y-100514795D01*
X148341562Y-100559520D01*
X148327454Y-100620692D01*
X148319789Y-100704701D01*
X148316780Y-100817940D01*
X148316462Y-100892509D01*
X148316462Y-101183420D01*
X148366227Y-101206095D01*
X148405424Y-101222667D01*
X148424843Y-101228769D01*
X148428558Y-101210610D01*
X148431505Y-101161648D01*
X148433309Y-101090153D01*
X148433692Y-101033385D01*
X148435339Y-100951371D01*
X148439778Y-100886309D01*
X148446260Y-100846467D01*
X148451410Y-100838000D01*
X148486023Y-100846646D01*
X148540360Y-100868823D01*
X148603278Y-100898886D01*
X148663632Y-100931192D01*
X148710279Y-100960098D01*
X148732074Y-100979961D01*
X148732161Y-100980175D01*
X148730286Y-101016935D01*
X148713475Y-101052026D01*
X148683961Y-101080528D01*
X148640884Y-101090061D01*
X148604068Y-101088950D01*
X148551926Y-101088133D01*
X148524556Y-101100349D01*
X148508118Y-101132624D01*
X148506045Y-101138710D01*
X148498919Y-101184739D01*
X148517976Y-101212687D01*
X148567647Y-101226007D01*
X148621303Y-101228470D01*
X148717858Y-101210210D01*
X148767841Y-101184131D01*
X148829571Y-101122868D01*
X148862310Y-101047670D01*
X148865247Y-100968211D01*
X148837576Y-100894167D01*
X148795953Y-100847769D01*
X148754396Y-100821793D01*
X148689078Y-100788907D01*
X148612962Y-100755557D01*
X148600274Y-100750461D01*
X148516667Y-100713565D01*
X148468470Y-100681046D01*
X148452970Y-100648718D01*
X148467450Y-100612394D01*
X148492308Y-100584000D01*
X148551061Y-100549039D01*
X148615707Y-100546417D01*
X148674992Y-100573358D01*
X148717661Y-100627088D01*
X148723261Y-100640950D01*
X148755867Y-100691936D01*
X148803470Y-100729787D01*
X148863539Y-100760850D01*
X148863539Y-100672768D01*
X148860003Y-100618951D01*
X148844844Y-100576534D01*
X148811232Y-100531279D01*
X148778965Y-100496420D01*
X148728791Y-100447062D01*
X148689807Y-100420547D01*
X148647936Y-100409911D01*
X148600540Y-100408154D01*
X148496667Y-100423528D01*
G36*
X147813193Y-100426782D02*
X147789839Y-100436988D01*
X147734098Y-100481134D01*
X147686431Y-100544967D01*
X147656952Y-100613087D01*
X147652154Y-100646670D01*
X147668240Y-100693556D01*
X147703525Y-100718365D01*
X147741356Y-100733387D01*
X147758679Y-100736155D01*
X147767114Y-100716066D01*
X147783770Y-100672351D01*
X147791077Y-100652598D01*
X147832052Y-100584271D01*
X147891378Y-100550191D01*
X147967448Y-100551239D01*
X147973082Y-100552581D01*
X148013695Y-100571836D01*
X148043552Y-100609375D01*
X148063945Y-100669809D01*
X148076164Y-100757751D01*
X148081500Y-100877813D01*
X148082000Y-100941698D01*
X148082248Y-101042403D01*
X148083874Y-101111054D01*
X148088199Y-101154673D01*
X148096546Y-101180282D01*
X148110235Y-101194903D01*
X148130589Y-101205558D01*
X148131766Y-101206095D01*
X148170962Y-101222667D01*
X148190381Y-101228769D01*
X148193365Y-101210319D01*
X148195919Y-101159323D01*
X148197860Y-101082308D01*
X148199003Y-100985805D01*
X148199231Y-100915184D01*
X148198068Y-100778525D01*
X148193521Y-100674851D01*
X148184001Y-100598108D01*
X148167919Y-100542246D01*
X148143687Y-100501212D01*
X148109714Y-100468954D01*
X148076167Y-100446440D01*
X147995501Y-100416476D01*
X147901619Y-100409718D01*
X147813193Y-100426782D01*
X147813193Y-100426782D01*
G37*
X147813193Y-100426782D02*
X147789839Y-100436988D01*
X147734098Y-100481134D01*
X147686431Y-100544967D01*
X147656952Y-100613087D01*
X147652154Y-100646670D01*
X147668240Y-100693556D01*
X147703525Y-100718365D01*
X147741356Y-100733387D01*
X147758679Y-100736155D01*
X147767114Y-100716066D01*
X147783770Y-100672351D01*
X147791077Y-100652598D01*
X147832052Y-100584271D01*
X147891378Y-100550191D01*
X147967448Y-100551239D01*
X147973082Y-100552581D01*
X148013695Y-100571836D01*
X148043552Y-100609375D01*
X148063945Y-100669809D01*
X148076164Y-100757751D01*
X148081500Y-100877813D01*
X148082000Y-100941698D01*
X148082248Y-101042403D01*
X148083874Y-101111054D01*
X148088199Y-101154673D01*
X148096546Y-101180282D01*
X148110235Y-101194903D01*
X148130589Y-101205558D01*
X148131766Y-101206095D01*
X148170962Y-101222667D01*
X148190381Y-101228769D01*
X148193365Y-101210319D01*
X148195919Y-101159323D01*
X148197860Y-101082308D01*
X148199003Y-100985805D01*
X148199231Y-100915184D01*
X148198068Y-100778525D01*
X148193521Y-100674851D01*
X148184001Y-100598108D01*
X148167919Y-100542246D01*
X148143687Y-100501212D01*
X148109714Y-100468954D01*
X148076167Y-100446440D01*
X147995501Y-100416476D01*
X147901619Y-100409718D01*
X147813193Y-100426782D01*
G36*
X147138776Y-100437838D02*
X147061472Y-100488361D01*
X147024186Y-100533590D01*
X146994647Y-100615663D01*
X146992301Y-100680607D01*
X146997615Y-100767445D01*
X147197885Y-100855103D01*
X147295261Y-100899887D01*
X147358887Y-100935913D01*
X147391971Y-100967117D01*
X147397720Y-100997436D01*
X147379342Y-101030805D01*
X147359077Y-101052923D01*
X147300111Y-101088393D01*
X147235976Y-101090879D01*
X147177074Y-101063235D01*
X147133803Y-101008320D01*
X147126064Y-100988928D01*
X147088994Y-100928364D01*
X147046346Y-100902552D01*
X146987846Y-100880471D01*
X146987846Y-100964184D01*
X146993018Y-101021150D01*
X147013277Y-101069189D01*
X147055738Y-101124346D01*
X147062049Y-101131514D01*
X147109280Y-101180585D01*
X147149879Y-101206920D01*
X147200672Y-101219035D01*
X147242780Y-101223003D01*
X147318098Y-101223991D01*
X147371714Y-101211466D01*
X147405162Y-101192869D01*
X147457732Y-101151975D01*
X147494121Y-101107748D01*
X147517150Y-101052126D01*
X147529641Y-100977047D01*
X147534413Y-100874449D01*
X147534794Y-100822376D01*
X147533499Y-100759948D01*
X147415529Y-100759948D01*
X147414161Y-100793438D01*
X147410751Y-100798923D01*
X147388247Y-100791472D01*
X147339818Y-100771753D01*
X147275092Y-100743718D01*
X147261557Y-100737692D01*
X147179756Y-100696096D01*
X147134688Y-100659538D01*
X147124783Y-100625296D01*
X147148474Y-100590648D01*
X147168040Y-100575339D01*
X147238640Y-100544721D01*
X147304720Y-100549780D01*
X147360041Y-100587151D01*
X147398364Y-100653473D01*
X147410651Y-100706116D01*
X147415529Y-100759948D01*
X147533499Y-100759948D01*
X147532270Y-100700720D01*
X147522968Y-100610710D01*
X147504540Y-100545167D01*
X147474640Y-100496912D01*
X147430920Y-100458767D01*
X147411859Y-100446440D01*
X147325274Y-100414336D01*
X147230478Y-100412316D01*
X147138776Y-100437838D01*
X147138776Y-100437838D01*
G37*
X147138776Y-100437838D02*
X147061472Y-100488361D01*
X147024186Y-100533590D01*
X146994647Y-100615663D01*
X146992301Y-100680607D01*
X146997615Y-100767445D01*
X147197885Y-100855103D01*
X147295261Y-100899887D01*
X147358887Y-100935913D01*
X147391971Y-100967117D01*
X147397720Y-100997436D01*
X147379342Y-101030805D01*
X147359077Y-101052923D01*
X147300111Y-101088393D01*
X147235976Y-101090879D01*
X147177074Y-101063235D01*
X147133803Y-101008320D01*
X147126064Y-100988928D01*
X147088994Y-100928364D01*
X147046346Y-100902552D01*
X146987846Y-100880471D01*
X146987846Y-100964184D01*
X146993018Y-101021150D01*
X147013277Y-101069189D01*
X147055738Y-101124346D01*
X147062049Y-101131514D01*
X147109280Y-101180585D01*
X147149879Y-101206920D01*
X147200672Y-101219035D01*
X147242780Y-101223003D01*
X147318098Y-101223991D01*
X147371714Y-101211466D01*
X147405162Y-101192869D01*
X147457732Y-101151975D01*
X147494121Y-101107748D01*
X147517150Y-101052126D01*
X147529641Y-100977047D01*
X147534413Y-100874449D01*
X147534794Y-100822376D01*
X147533499Y-100759948D01*
X147415529Y-100759948D01*
X147414161Y-100793438D01*
X147410751Y-100798923D01*
X147388247Y-100791472D01*
X147339818Y-100771753D01*
X147275092Y-100743718D01*
X147261557Y-100737692D01*
X147179756Y-100696096D01*
X147134688Y-100659538D01*
X147124783Y-100625296D01*
X147148474Y-100590648D01*
X147168040Y-100575339D01*
X147238640Y-100544721D01*
X147304720Y-100549780D01*
X147360041Y-100587151D01*
X147398364Y-100653473D01*
X147410651Y-100706116D01*
X147415529Y-100759948D01*
X147533499Y-100759948D01*
X147532270Y-100700720D01*
X147522968Y-100610710D01*
X147504540Y-100545167D01*
X147474640Y-100496912D01*
X147430920Y-100458767D01*
X147411859Y-100446440D01*
X147325274Y-100414336D01*
X147230478Y-100412316D01*
X147138776Y-100437838D01*
G36*
X151244122Y-94077776D02*
X151138388Y-94078355D01*
X151061868Y-94079922D01*
X151009628Y-94082972D01*
X150976737Y-94087996D01*
X150958263Y-94095489D01*
X150949273Y-94105944D01*
X150944837Y-94119853D01*
X150944406Y-94121654D01*
X150937667Y-94154145D01*
X150925192Y-94218252D01*
X150908281Y-94307151D01*
X150888229Y-94414019D01*
X150866336Y-94532033D01*
X150865571Y-94536178D01*
X150843641Y-94651831D01*
X150823123Y-94754014D01*
X150805341Y-94836598D01*
X150791619Y-94893456D01*
X150783282Y-94918458D01*
X150782884Y-94918901D01*
X150758323Y-94931110D01*
X150707685Y-94951456D01*
X150641905Y-94975545D01*
X150641539Y-94975674D01*
X150558683Y-95006818D01*
X150461000Y-95046491D01*
X150368923Y-95086381D01*
X150364566Y-95088353D01*
X150214593Y-95156420D01*
X149882502Y-94929639D01*
X149780626Y-94860504D01*
X149688343Y-94798697D01*
X149610997Y-94747733D01*
X149553936Y-94711127D01*
X149522505Y-94692394D01*
X149519521Y-94691004D01*
X149496679Y-94697190D01*
X149454018Y-94727035D01*
X149389872Y-94781947D01*
X149302579Y-94863334D01*
X149213465Y-94949922D01*
X149127559Y-95035247D01*
X149050673Y-95113108D01*
X148987436Y-95178697D01*
X148942477Y-95227205D01*
X148920424Y-95253825D01*
X148919604Y-95255195D01*
X148917166Y-95273463D01*
X148926350Y-95303295D01*
X148949426Y-95348721D01*
X148988663Y-95413770D01*
X149046330Y-95502470D01*
X149123205Y-95616657D01*
X149191430Y-95717162D01*
X149252418Y-95807303D01*
X149302644Y-95881849D01*
X149338584Y-95935565D01*
X149356713Y-95963218D01*
X149357854Y-95965095D01*
X149355641Y-95991590D01*
X149338862Y-96043086D01*
X149310858Y-96109851D01*
X149300878Y-96131172D01*
X149257328Y-96226159D01*
X149210866Y-96333937D01*
X149173123Y-96427192D01*
X149145927Y-96496406D01*
X149124325Y-96549006D01*
X149111842Y-96576497D01*
X149110291Y-96578616D01*
X149087332Y-96582124D01*
X149033214Y-96591738D01*
X148955132Y-96606089D01*
X148860281Y-96623807D01*
X148755857Y-96643525D01*
X148649056Y-96663874D01*
X148547074Y-96683486D01*
X148457106Y-96700991D01*
X148386347Y-96715022D01*
X148341994Y-96724209D01*
X148331115Y-96726807D01*
X148319878Y-96733218D01*
X148311395Y-96747697D01*
X148305286Y-96775133D01*
X148301168Y-96820411D01*
X148298659Y-96888420D01*
X148297379Y-96984047D01*
X148296946Y-97112180D01*
X148296923Y-97164701D01*
X148296923Y-97591845D01*
X148399500Y-97612091D01*
X148456569Y-97623070D01*
X148541731Y-97639095D01*
X148644628Y-97658233D01*
X148754904Y-97678551D01*
X148785385Y-97684132D01*
X148887145Y-97703917D01*
X148975795Y-97723373D01*
X149043892Y-97740697D01*
X149083996Y-97754088D01*
X149090677Y-97758079D01*
X149107081Y-97786342D01*
X149130601Y-97841109D01*
X149156684Y-97911588D01*
X149161858Y-97926769D01*
X149196044Y-98020896D01*
X149238477Y-98127101D01*
X149280003Y-98222473D01*
X149280208Y-98222916D01*
X149349360Y-98372525D01*
X148894488Y-99041617D01*
X149186500Y-99334116D01*
X149274820Y-99421170D01*
X149355375Y-99497909D01*
X149423640Y-99560237D01*
X149475092Y-99604056D01*
X149505206Y-99625270D01*
X149509526Y-99626616D01*
X149534889Y-99616016D01*
X149586642Y-99586547D01*
X149659132Y-99541705D01*
X149746706Y-99484984D01*
X149841388Y-99421462D01*
X149937484Y-99356668D01*
X150023163Y-99300287D01*
X150092984Y-99255788D01*
X150141506Y-99226639D01*
X150163218Y-99216308D01*
X150189707Y-99225050D01*
X150239938Y-99248087D01*
X150303549Y-99280631D01*
X150310292Y-99284249D01*
X150395954Y-99327210D01*
X150454694Y-99348279D01*
X150491228Y-99348503D01*
X150510269Y-99328928D01*
X150510380Y-99328654D01*
X150519898Y-99305472D01*
X150542597Y-99250441D01*
X150576718Y-99167822D01*
X150620500Y-99061872D01*
X150672184Y-98936852D01*
X150730008Y-98797020D01*
X150786009Y-98661637D01*
X150847553Y-98512234D01*
X150904061Y-98373832D01*
X150953839Y-98250673D01*
X150995194Y-98147002D01*
X151026432Y-98067059D01*
X151045859Y-98015088D01*
X151051846Y-97995692D01*
X151036832Y-97973443D01*
X150997561Y-97937982D01*
X150945193Y-97898887D01*
X150796059Y-97775245D01*
X150679489Y-97633522D01*
X150596882Y-97476704D01*
X150549634Y-97307775D01*
X150539143Y-97129722D01*
X150546769Y-97047539D01*
X150588318Y-96877031D01*
X150659877Y-96726459D01*
X150757005Y-96597309D01*
X150875266Y-96491064D01*
X151010220Y-96409210D01*
X151157429Y-96353232D01*
X151312456Y-96324615D01*
X151470861Y-96324844D01*
X151628206Y-96355405D01*
X151780054Y-96417782D01*
X151921965Y-96513460D01*
X151981197Y-96567572D01*
X152094797Y-96706520D01*
X152173894Y-96858361D01*
X152219014Y-97018667D01*
X152230684Y-97183012D01*
X152209431Y-97346971D01*
X152155780Y-97506118D01*
X152070260Y-97656025D01*
X151953395Y-97792267D01*
X151822807Y-97898887D01*
X151768412Y-97939642D01*
X151729986Y-97974718D01*
X151716154Y-97995726D01*
X151723397Y-98018635D01*
X151743995Y-98073365D01*
X151776254Y-98155672D01*
X151818479Y-98261315D01*
X151868977Y-98386050D01*
X151926052Y-98525636D01*
X151982146Y-98661670D01*
X152044033Y-98811201D01*
X152101356Y-98949767D01*
X152152356Y-99073107D01*
X152195273Y-99176964D01*
X152228347Y-99257080D01*
X152249819Y-99309195D01*
X152257775Y-99328654D01*
X152276571Y-99348423D01*
X152312926Y-99348365D01*
X152371521Y-99327441D01*
X152457032Y-99284613D01*
X152457708Y-99284249D01*
X152522093Y-99251012D01*
X152574139Y-99226802D01*
X152603488Y-99216404D01*
X152604783Y-99216308D01*
X152626876Y-99226855D01*
X152675652Y-99256184D01*
X152745669Y-99300827D01*
X152831486Y-99357314D01*
X152926612Y-99421462D01*
X153023460Y-99486411D01*
X153110747Y-99542896D01*
X153182819Y-99587421D01*
X153234023Y-99616490D01*
X153258474Y-99626616D01*
X153280990Y-99613307D01*
X153326258Y-99576112D01*
X153389756Y-99519128D01*
X153466961Y-99446449D01*
X153553349Y-99362171D01*
X153581601Y-99334016D01*
X153873713Y-99041416D01*
X153651369Y-98715104D01*
X153583798Y-98614897D01*
X153524493Y-98524963D01*
X153476783Y-98450510D01*
X153443993Y-98396751D01*
X153429452Y-98368894D01*
X153429026Y-98366912D01*
X153436692Y-98340655D01*
X153457311Y-98287837D01*
X153487315Y-98217310D01*
X153508375Y-98170093D01*
X153547752Y-98079694D01*
X153584835Y-97988366D01*
X153613585Y-97911200D01*
X153621395Y-97887692D01*
X153643583Y-97824916D01*
X153665273Y-97776411D01*
X153677187Y-97758079D01*
X153703477Y-97746859D01*
X153760858Y-97730954D01*
X153841882Y-97712167D01*
X153939105Y-97692299D01*
X153982615Y-97684132D01*
X154093104Y-97663829D01*
X154199084Y-97644170D01*
X154290199Y-97627088D01*
X154356092Y-97614518D01*
X154368500Y-97612091D01*
X154471077Y-97591845D01*
X154471077Y-97164701D01*
X154470847Y-97024246D01*
X154469901Y-96917979D01*
X154467859Y-96841013D01*
X154464338Y-96788460D01*
X154458957Y-96755433D01*
X154451334Y-96737045D01*
X154441088Y-96728408D01*
X154436885Y-96726807D01*
X154411530Y-96721127D01*
X154355516Y-96709795D01*
X154276036Y-96694179D01*
X154180288Y-96675647D01*
X154075467Y-96655569D01*
X153968768Y-96635312D01*
X153867387Y-96616246D01*
X153778521Y-96599739D01*
X153709363Y-96587159D01*
X153667111Y-96579875D01*
X153657710Y-96578616D01*
X153649193Y-96561763D01*
X153630340Y-96516870D01*
X153604676Y-96452430D01*
X153594877Y-96427192D01*
X153555352Y-96329686D01*
X153508808Y-96221959D01*
X153467123Y-96131172D01*
X153436450Y-96061753D01*
X153416044Y-96004710D01*
X153409232Y-95969777D01*
X153410318Y-95965095D01*
X153424715Y-95942991D01*
X153457588Y-95893831D01*
X153505410Y-95822848D01*
X153564652Y-95735278D01*
X153631785Y-95636357D01*
X153645059Y-95616830D01*
X153722954Y-95501140D01*
X153780213Y-95413044D01*
X153819119Y-95348486D01*
X153841956Y-95303411D01*
X153851006Y-95273763D01*
X153848552Y-95255485D01*
X153848489Y-95255369D01*
X153829173Y-95231361D01*
X153786449Y-95184947D01*
X153724949Y-95120937D01*
X153649302Y-95044145D01*
X153564139Y-94959382D01*
X153554535Y-94949922D01*
X153447210Y-94845989D01*
X153364385Y-94769675D01*
X153304395Y-94719571D01*
X153265577Y-94694270D01*
X153248480Y-94691004D01*
X153223527Y-94705250D01*
X153171745Y-94738156D01*
X153098480Y-94786208D01*
X153009080Y-94845890D01*
X152908889Y-94913688D01*
X152885499Y-94929639D01*
X152553407Y-95156420D01*
X152403435Y-95088353D01*
X152312230Y-95048685D01*
X152214331Y-95008791D01*
X152130169Y-94976983D01*
X152126462Y-94975674D01*
X152060631Y-94951576D01*
X152009884Y-94931200D01*
X151985158Y-94918936D01*
X151985116Y-94918901D01*
X151977271Y-94896734D01*
X151963934Y-94842217D01*
X151946430Y-94761480D01*
X151926083Y-94660650D01*
X151904218Y-94545856D01*
X151902429Y-94536178D01*
X151880496Y-94417904D01*
X151860360Y-94310542D01*
X151843320Y-94220917D01*
X151830672Y-94155851D01*
X151823716Y-94122168D01*
X151823594Y-94121654D01*
X151819361Y-94107325D01*
X151811129Y-94096507D01*
X151793967Y-94088706D01*
X151762942Y-94083429D01*
X151713122Y-94080182D01*
X151639576Y-94078472D01*
X151537371Y-94077807D01*
X151401575Y-94077693D01*
X151384000Y-94077692D01*
X151244122Y-94077776D01*
X151244122Y-94077776D01*
G37*
X151244122Y-94077776D02*
X151138388Y-94078355D01*
X151061868Y-94079922D01*
X151009628Y-94082972D01*
X150976737Y-94087996D01*
X150958263Y-94095489D01*
X150949273Y-94105944D01*
X150944837Y-94119853D01*
X150944406Y-94121654D01*
X150937667Y-94154145D01*
X150925192Y-94218252D01*
X150908281Y-94307151D01*
X150888229Y-94414019D01*
X150866336Y-94532033D01*
X150865571Y-94536178D01*
X150843641Y-94651831D01*
X150823123Y-94754014D01*
X150805341Y-94836598D01*
X150791619Y-94893456D01*
X150783282Y-94918458D01*
X150782884Y-94918901D01*
X150758323Y-94931110D01*
X150707685Y-94951456D01*
X150641905Y-94975545D01*
X150641539Y-94975674D01*
X150558683Y-95006818D01*
X150461000Y-95046491D01*
X150368923Y-95086381D01*
X150364566Y-95088353D01*
X150214593Y-95156420D01*
X149882502Y-94929639D01*
X149780626Y-94860504D01*
X149688343Y-94798697D01*
X149610997Y-94747733D01*
X149553936Y-94711127D01*
X149522505Y-94692394D01*
X149519521Y-94691004D01*
X149496679Y-94697190D01*
X149454018Y-94727035D01*
X149389872Y-94781947D01*
X149302579Y-94863334D01*
X149213465Y-94949922D01*
X149127559Y-95035247D01*
X149050673Y-95113108D01*
X148987436Y-95178697D01*
X148942477Y-95227205D01*
X148920424Y-95253825D01*
X148919604Y-95255195D01*
X148917166Y-95273463D01*
X148926350Y-95303295D01*
X148949426Y-95348721D01*
X148988663Y-95413770D01*
X149046330Y-95502470D01*
X149123205Y-95616657D01*
X149191430Y-95717162D01*
X149252418Y-95807303D01*
X149302644Y-95881849D01*
X149338584Y-95935565D01*
X149356713Y-95963218D01*
X149357854Y-95965095D01*
X149355641Y-95991590D01*
X149338862Y-96043086D01*
X149310858Y-96109851D01*
X149300878Y-96131172D01*
X149257328Y-96226159D01*
X149210866Y-96333937D01*
X149173123Y-96427192D01*
X149145927Y-96496406D01*
X149124325Y-96549006D01*
X149111842Y-96576497D01*
X149110291Y-96578616D01*
X149087332Y-96582124D01*
X149033214Y-96591738D01*
X148955132Y-96606089D01*
X148860281Y-96623807D01*
X148755857Y-96643525D01*
X148649056Y-96663874D01*
X148547074Y-96683486D01*
X148457106Y-96700991D01*
X148386347Y-96715022D01*
X148341994Y-96724209D01*
X148331115Y-96726807D01*
X148319878Y-96733218D01*
X148311395Y-96747697D01*
X148305286Y-96775133D01*
X148301168Y-96820411D01*
X148298659Y-96888420D01*
X148297379Y-96984047D01*
X148296946Y-97112180D01*
X148296923Y-97164701D01*
X148296923Y-97591845D01*
X148399500Y-97612091D01*
X148456569Y-97623070D01*
X148541731Y-97639095D01*
X148644628Y-97658233D01*
X148754904Y-97678551D01*
X148785385Y-97684132D01*
X148887145Y-97703917D01*
X148975795Y-97723373D01*
X149043892Y-97740697D01*
X149083996Y-97754088D01*
X149090677Y-97758079D01*
X149107081Y-97786342D01*
X149130601Y-97841109D01*
X149156684Y-97911588D01*
X149161858Y-97926769D01*
X149196044Y-98020896D01*
X149238477Y-98127101D01*
X149280003Y-98222473D01*
X149280208Y-98222916D01*
X149349360Y-98372525D01*
X148894488Y-99041617D01*
X149186500Y-99334116D01*
X149274820Y-99421170D01*
X149355375Y-99497909D01*
X149423640Y-99560237D01*
X149475092Y-99604056D01*
X149505206Y-99625270D01*
X149509526Y-99626616D01*
X149534889Y-99616016D01*
X149586642Y-99586547D01*
X149659132Y-99541705D01*
X149746706Y-99484984D01*
X149841388Y-99421462D01*
X149937484Y-99356668D01*
X150023163Y-99300287D01*
X150092984Y-99255788D01*
X150141506Y-99226639D01*
X150163218Y-99216308D01*
X150189707Y-99225050D01*
X150239938Y-99248087D01*
X150303549Y-99280631D01*
X150310292Y-99284249D01*
X150395954Y-99327210D01*
X150454694Y-99348279D01*
X150491228Y-99348503D01*
X150510269Y-99328928D01*
X150510380Y-99328654D01*
X150519898Y-99305472D01*
X150542597Y-99250441D01*
X150576718Y-99167822D01*
X150620500Y-99061872D01*
X150672184Y-98936852D01*
X150730008Y-98797020D01*
X150786009Y-98661637D01*
X150847553Y-98512234D01*
X150904061Y-98373832D01*
X150953839Y-98250673D01*
X150995194Y-98147002D01*
X151026432Y-98067059D01*
X151045859Y-98015088D01*
X151051846Y-97995692D01*
X151036832Y-97973443D01*
X150997561Y-97937982D01*
X150945193Y-97898887D01*
X150796059Y-97775245D01*
X150679489Y-97633522D01*
X150596882Y-97476704D01*
X150549634Y-97307775D01*
X150539143Y-97129722D01*
X150546769Y-97047539D01*
X150588318Y-96877031D01*
X150659877Y-96726459D01*
X150757005Y-96597309D01*
X150875266Y-96491064D01*
X151010220Y-96409210D01*
X151157429Y-96353232D01*
X151312456Y-96324615D01*
X151470861Y-96324844D01*
X151628206Y-96355405D01*
X151780054Y-96417782D01*
X151921965Y-96513460D01*
X151981197Y-96567572D01*
X152094797Y-96706520D01*
X152173894Y-96858361D01*
X152219014Y-97018667D01*
X152230684Y-97183012D01*
X152209431Y-97346971D01*
X152155780Y-97506118D01*
X152070260Y-97656025D01*
X151953395Y-97792267D01*
X151822807Y-97898887D01*
X151768412Y-97939642D01*
X151729986Y-97974718D01*
X151716154Y-97995726D01*
X151723397Y-98018635D01*
X151743995Y-98073365D01*
X151776254Y-98155672D01*
X151818479Y-98261315D01*
X151868977Y-98386050D01*
X151926052Y-98525636D01*
X151982146Y-98661670D01*
X152044033Y-98811201D01*
X152101356Y-98949767D01*
X152152356Y-99073107D01*
X152195273Y-99176964D01*
X152228347Y-99257080D01*
X152249819Y-99309195D01*
X152257775Y-99328654D01*
X152276571Y-99348423D01*
X152312926Y-99348365D01*
X152371521Y-99327441D01*
X152457032Y-99284613D01*
X152457708Y-99284249D01*
X152522093Y-99251012D01*
X152574139Y-99226802D01*
X152603488Y-99216404D01*
X152604783Y-99216308D01*
X152626876Y-99226855D01*
X152675652Y-99256184D01*
X152745669Y-99300827D01*
X152831486Y-99357314D01*
X152926612Y-99421462D01*
X153023460Y-99486411D01*
X153110747Y-99542896D01*
X153182819Y-99587421D01*
X153234023Y-99616490D01*
X153258474Y-99626616D01*
X153280990Y-99613307D01*
X153326258Y-99576112D01*
X153389756Y-99519128D01*
X153466961Y-99446449D01*
X153553349Y-99362171D01*
X153581601Y-99334016D01*
X153873713Y-99041416D01*
X153651369Y-98715104D01*
X153583798Y-98614897D01*
X153524493Y-98524963D01*
X153476783Y-98450510D01*
X153443993Y-98396751D01*
X153429452Y-98368894D01*
X153429026Y-98366912D01*
X153436692Y-98340655D01*
X153457311Y-98287837D01*
X153487315Y-98217310D01*
X153508375Y-98170093D01*
X153547752Y-98079694D01*
X153584835Y-97988366D01*
X153613585Y-97911200D01*
X153621395Y-97887692D01*
X153643583Y-97824916D01*
X153665273Y-97776411D01*
X153677187Y-97758079D01*
X153703477Y-97746859D01*
X153760858Y-97730954D01*
X153841882Y-97712167D01*
X153939105Y-97692299D01*
X153982615Y-97684132D01*
X154093104Y-97663829D01*
X154199084Y-97644170D01*
X154290199Y-97627088D01*
X154356092Y-97614518D01*
X154368500Y-97612091D01*
X154471077Y-97591845D01*
X154471077Y-97164701D01*
X154470847Y-97024246D01*
X154469901Y-96917979D01*
X154467859Y-96841013D01*
X154464338Y-96788460D01*
X154458957Y-96755433D01*
X154451334Y-96737045D01*
X154441088Y-96728408D01*
X154436885Y-96726807D01*
X154411530Y-96721127D01*
X154355516Y-96709795D01*
X154276036Y-96694179D01*
X154180288Y-96675647D01*
X154075467Y-96655569D01*
X153968768Y-96635312D01*
X153867387Y-96616246D01*
X153778521Y-96599739D01*
X153709363Y-96587159D01*
X153667111Y-96579875D01*
X153657710Y-96578616D01*
X153649193Y-96561763D01*
X153630340Y-96516870D01*
X153604676Y-96452430D01*
X153594877Y-96427192D01*
X153555352Y-96329686D01*
X153508808Y-96221959D01*
X153467123Y-96131172D01*
X153436450Y-96061753D01*
X153416044Y-96004710D01*
X153409232Y-95969777D01*
X153410318Y-95965095D01*
X153424715Y-95942991D01*
X153457588Y-95893831D01*
X153505410Y-95822848D01*
X153564652Y-95735278D01*
X153631785Y-95636357D01*
X153645059Y-95616830D01*
X153722954Y-95501140D01*
X153780213Y-95413044D01*
X153819119Y-95348486D01*
X153841956Y-95303411D01*
X153851006Y-95273763D01*
X153848552Y-95255485D01*
X153848489Y-95255369D01*
X153829173Y-95231361D01*
X153786449Y-95184947D01*
X153724949Y-95120937D01*
X153649302Y-95044145D01*
X153564139Y-94959382D01*
X153554535Y-94949922D01*
X153447210Y-94845989D01*
X153364385Y-94769675D01*
X153304395Y-94719571D01*
X153265577Y-94694270D01*
X153248480Y-94691004D01*
X153223527Y-94705250D01*
X153171745Y-94738156D01*
X153098480Y-94786208D01*
X153009080Y-94845890D01*
X152908889Y-94913688D01*
X152885499Y-94929639D01*
X152553407Y-95156420D01*
X152403435Y-95088353D01*
X152312230Y-95048685D01*
X152214331Y-95008791D01*
X152130169Y-94976983D01*
X152126462Y-94975674D01*
X152060631Y-94951576D01*
X152009884Y-94931200D01*
X151985158Y-94918936D01*
X151985116Y-94918901D01*
X151977271Y-94896734D01*
X151963934Y-94842217D01*
X151946430Y-94761480D01*
X151926083Y-94660650D01*
X151904218Y-94545856D01*
X151902429Y-94536178D01*
X151880496Y-94417904D01*
X151860360Y-94310542D01*
X151843320Y-94220917D01*
X151830672Y-94155851D01*
X151823716Y-94122168D01*
X151823594Y-94121654D01*
X151819361Y-94107325D01*
X151811129Y-94096507D01*
X151793967Y-94088706D01*
X151762942Y-94083429D01*
X151713122Y-94080182D01*
X151639576Y-94078472D01*
X151537371Y-94077807D01*
X151401575Y-94077693D01*
X151384000Y-94077692D01*
X151244122Y-94077776D01*
M02*
