G04 #@! TF.FileFunction,Legend,Top*
%FSLAX46Y46*%
G04 Gerber Fmt 4.6, Leading zero omitted, Abs format (unit mm)*
G04 Created by KiCad (PCBNEW 4.0.2+e4-6225~38~ubuntu15.04.1-stable) date vr 15 jul 2016 23:36:52 CEST*
%MOMM*%
G01*
G04 APERTURE LIST*
%ADD10C,0.100000*%
%ADD11C,0.150000*%
%ADD12C,0.200000*%
G04 APERTURE END LIST*
D10*
D11*
X124340000Y-90170000D02*
X124340000Y-92710000D01*
X124340000Y-92710000D02*
X134500000Y-92710000D01*
X134500000Y-92710000D02*
X134500000Y-90170000D01*
X134500000Y-90170000D02*
X124340000Y-90170000D01*
X135650000Y-91440000D02*
X134500000Y-91440000D01*
X123190000Y-91440000D02*
X124340000Y-91440000D01*
X179550000Y-91340000D02*
X173550000Y-91340000D01*
X173550000Y-91340000D02*
X173550000Y-99160000D01*
X173550000Y-99160000D02*
X179550000Y-99160000D01*
X179550000Y-99160000D02*
X179550000Y-91340000D01*
X173550000Y-92710000D02*
X174550000Y-92710000D01*
X174550000Y-92710000D02*
X174550000Y-97790000D01*
X174550000Y-97790000D02*
X173550000Y-97790000D01*
X174550000Y-92710000D02*
X174980000Y-92960000D01*
X174980000Y-92960000D02*
X174980000Y-97540000D01*
X174980000Y-97540000D02*
X174550000Y-97790000D01*
X173550000Y-92960000D02*
X174550000Y-92960000D01*
X173550000Y-97540000D02*
X174550000Y-97540000D01*
X179550000Y-91910000D02*
X178930000Y-91910000D01*
X178930000Y-91910000D02*
X178930000Y-93510000D01*
X178930000Y-93510000D02*
X179550000Y-93510000D01*
X179550000Y-94450000D02*
X178930000Y-94450000D01*
X178930000Y-94450000D02*
X178930000Y-96050000D01*
X178930000Y-96050000D02*
X179550000Y-96050000D01*
X179550000Y-96990000D02*
X178930000Y-96990000D01*
X178930000Y-96990000D02*
X178930000Y-98590000D01*
X178930000Y-98590000D02*
X179550000Y-98590000D01*
X124340000Y-93980000D02*
X124340000Y-96520000D01*
X124340000Y-96520000D02*
X134500000Y-96520000D01*
X134500000Y-96520000D02*
X134500000Y-93980000D01*
X134500000Y-93980000D02*
X124340000Y-93980000D01*
X135650000Y-95250000D02*
X134500000Y-95250000D01*
X123190000Y-95250000D02*
X124340000Y-95250000D01*
X134486000Y-100076000D02*
X134486000Y-97536000D01*
X134486000Y-97536000D02*
X124326000Y-97536000D01*
X124326000Y-97536000D02*
X124326000Y-100076000D01*
X124326000Y-100076000D02*
X134486000Y-100076000D01*
X123176000Y-98806000D02*
X124326000Y-98806000D01*
X135636000Y-98806000D02*
X134486000Y-98806000D01*
D12*
X146665000Y-92350000D02*
X150465000Y-92350000D01*
X153165000Y-92350000D02*
X155165000Y-92350000D01*
X155165000Y-98150000D02*
X153165000Y-98150000D01*
X150465000Y-98150000D02*
X148065000Y-98150000D01*
X146665000Y-96950000D02*
X146665000Y-92350000D01*
X155165000Y-92350000D02*
X156865000Y-94050000D01*
X156865000Y-94050000D02*
X156865000Y-96450000D01*
X156865000Y-96450000D02*
X155165000Y-98150000D01*
D11*
X144526000Y-95250000D02*
G75*
G03X144526000Y-95250000I-2286000J0D01*
G01*
X163576000Y-95250000D02*
G75*
G03X163576000Y-95250000I-2286000J0D01*
G01*
X125563334Y-91892381D02*
X125230000Y-91416190D01*
X124991905Y-91892381D02*
X124991905Y-90892381D01*
X125372858Y-90892381D01*
X125468096Y-90940000D01*
X125515715Y-90987619D01*
X125563334Y-91082857D01*
X125563334Y-91225714D01*
X125515715Y-91320952D01*
X125468096Y-91368571D01*
X125372858Y-91416190D01*
X124991905Y-91416190D01*
X126515715Y-91892381D02*
X125944286Y-91892381D01*
X126230000Y-91892381D02*
X126230000Y-90892381D01*
X126134762Y-91035238D01*
X126039524Y-91130476D01*
X125944286Y-91178095D01*
X131897524Y-91892381D02*
X131326095Y-91892381D01*
X131611809Y-91892381D02*
X131611809Y-90892381D01*
X131516571Y-91035238D01*
X131421333Y-91130476D01*
X131326095Y-91178095D01*
X132516571Y-90892381D02*
X132611810Y-90892381D01*
X132707048Y-90940000D01*
X132754667Y-90987619D01*
X132802286Y-91082857D01*
X132849905Y-91273333D01*
X132849905Y-91511429D01*
X132802286Y-91701905D01*
X132754667Y-91797143D01*
X132707048Y-91844762D01*
X132611810Y-91892381D01*
X132516571Y-91892381D01*
X132421333Y-91844762D01*
X132373714Y-91797143D01*
X132326095Y-91701905D01*
X132278476Y-91511429D01*
X132278476Y-91273333D01*
X132326095Y-91082857D01*
X132373714Y-90987619D01*
X132421333Y-90940000D01*
X132516571Y-90892381D01*
X133278476Y-91892381D02*
X133278476Y-90892381D01*
X133849905Y-91892381D02*
X133421333Y-91320952D01*
X133849905Y-90892381D02*
X133278476Y-91463810D01*
X181427381Y-96559524D02*
X180427381Y-96559524D01*
X180427381Y-96178571D01*
X180475000Y-96083333D01*
X180522619Y-96035714D01*
X180617857Y-95988095D01*
X180760714Y-95988095D01*
X180855952Y-96035714D01*
X180903571Y-96083333D01*
X180951190Y-96178571D01*
X180951190Y-96559524D01*
X181427381Y-95416667D02*
X181379762Y-95511905D01*
X181332143Y-95559524D01*
X181236905Y-95607143D01*
X180951190Y-95607143D01*
X180855952Y-95559524D01*
X180808333Y-95511905D01*
X180760714Y-95416667D01*
X180760714Y-95273809D01*
X180808333Y-95178571D01*
X180855952Y-95130952D01*
X180951190Y-95083333D01*
X181236905Y-95083333D01*
X181332143Y-95130952D01*
X181379762Y-95178571D01*
X181427381Y-95273809D01*
X181427381Y-95416667D01*
X181427381Y-94654762D02*
X180760714Y-94654762D01*
X180951190Y-94654762D02*
X180855952Y-94607143D01*
X180808333Y-94559524D01*
X180760714Y-94464286D01*
X180760714Y-94369047D01*
X180760714Y-94178571D02*
X180760714Y-93797619D01*
X180427381Y-94035714D02*
X181284524Y-94035714D01*
X181379762Y-93988095D01*
X181427381Y-93892857D01*
X181427381Y-93797619D01*
X172172381Y-99464286D02*
X172172381Y-99273809D01*
X172220000Y-99178571D01*
X172315238Y-99083333D01*
X172505714Y-99035714D01*
X172839048Y-99035714D01*
X173029524Y-99083333D01*
X173124762Y-99178571D01*
X173172381Y-99273809D01*
X173172381Y-99464286D01*
X173124762Y-99559524D01*
X173029524Y-99654762D01*
X172839048Y-99702381D01*
X172505714Y-99702381D01*
X172315238Y-99654762D01*
X172220000Y-99559524D01*
X172172381Y-99464286D01*
X172505714Y-98178571D02*
X173172381Y-98178571D01*
X172505714Y-98607143D02*
X173029524Y-98607143D01*
X173124762Y-98559524D01*
X173172381Y-98464286D01*
X173172381Y-98321428D01*
X173124762Y-98226190D01*
X173077143Y-98178571D01*
X172505714Y-97845238D02*
X172505714Y-97464286D01*
X172172381Y-97702381D02*
X173029524Y-97702381D01*
X173124762Y-97654762D01*
X173172381Y-97559524D01*
X173172381Y-97464286D01*
X172220000Y-95845237D02*
X172172381Y-95940475D01*
X172172381Y-96083332D01*
X172220000Y-96226190D01*
X172315238Y-96321428D01*
X172410476Y-96369047D01*
X172600952Y-96416666D01*
X172743810Y-96416666D01*
X172934286Y-96369047D01*
X173029524Y-96321428D01*
X173124762Y-96226190D01*
X173172381Y-96083332D01*
X173172381Y-95988094D01*
X173124762Y-95845237D01*
X173077143Y-95797618D01*
X172743810Y-95797618D01*
X172743810Y-95988094D01*
X173172381Y-95369047D02*
X172172381Y-95369047D01*
X173172381Y-94797618D01*
X172172381Y-94797618D01*
X173172381Y-94321428D02*
X172172381Y-94321428D01*
X172172381Y-94083333D01*
X172220000Y-93940475D01*
X172315238Y-93845237D01*
X172410476Y-93797618D01*
X172600952Y-93749999D01*
X172743810Y-93749999D01*
X172934286Y-93797618D01*
X173029524Y-93845237D01*
X173124762Y-93940475D01*
X173172381Y-94083333D01*
X173172381Y-94321428D01*
X172791429Y-92559523D02*
X172791429Y-91797618D01*
X173172381Y-92178570D02*
X172410476Y-92178570D01*
X172172381Y-90845237D02*
X172172381Y-91321428D01*
X172648571Y-91369047D01*
X172600952Y-91321428D01*
X172553333Y-91226190D01*
X172553333Y-90988094D01*
X172600952Y-90892856D01*
X172648571Y-90845237D01*
X172743810Y-90797618D01*
X172981905Y-90797618D01*
X173077143Y-90845237D01*
X173124762Y-90892856D01*
X173172381Y-90988094D01*
X173172381Y-91226190D01*
X173124762Y-91321428D01*
X173077143Y-91369047D01*
X125563334Y-95702381D02*
X125230000Y-95226190D01*
X124991905Y-95702381D02*
X124991905Y-94702381D01*
X125372858Y-94702381D01*
X125468096Y-94750000D01*
X125515715Y-94797619D01*
X125563334Y-94892857D01*
X125563334Y-95035714D01*
X125515715Y-95130952D01*
X125468096Y-95178571D01*
X125372858Y-95226190D01*
X124991905Y-95226190D01*
X125944286Y-94797619D02*
X125991905Y-94750000D01*
X126087143Y-94702381D01*
X126325239Y-94702381D01*
X126420477Y-94750000D01*
X126468096Y-94797619D01*
X126515715Y-94892857D01*
X126515715Y-94988095D01*
X126468096Y-95130952D01*
X125896667Y-95702381D01*
X126515715Y-95702381D01*
X132881715Y-95702381D02*
X132310286Y-95702381D01*
X132596000Y-95702381D02*
X132596000Y-94702381D01*
X132500762Y-94845238D01*
X132405524Y-94940476D01*
X132310286Y-94988095D01*
X133310286Y-95702381D02*
X133310286Y-94702381D01*
X133881715Y-95702381D02*
X133453143Y-95130952D01*
X133881715Y-94702381D02*
X133310286Y-95273810D01*
X125563334Y-99258381D02*
X125230000Y-98782190D01*
X124991905Y-99258381D02*
X124991905Y-98258381D01*
X125372858Y-98258381D01*
X125468096Y-98306000D01*
X125515715Y-98353619D01*
X125563334Y-98448857D01*
X125563334Y-98591714D01*
X125515715Y-98686952D01*
X125468096Y-98734571D01*
X125372858Y-98782190D01*
X124991905Y-98782190D01*
X125896667Y-98258381D02*
X126515715Y-98258381D01*
X126182381Y-98639333D01*
X126325239Y-98639333D01*
X126420477Y-98686952D01*
X126468096Y-98734571D01*
X126515715Y-98829810D01*
X126515715Y-99067905D01*
X126468096Y-99163143D01*
X126420477Y-99210762D01*
X126325239Y-99258381D01*
X126039524Y-99258381D01*
X125944286Y-99210762D01*
X125896667Y-99163143D01*
X131921334Y-99258381D02*
X131349905Y-99258381D01*
X131635619Y-99258381D02*
X131635619Y-98258381D01*
X131540381Y-98401238D01*
X131445143Y-98496476D01*
X131349905Y-98544095D01*
X132540381Y-98258381D02*
X132635620Y-98258381D01*
X132730858Y-98306000D01*
X132778477Y-98353619D01*
X132826096Y-98448857D01*
X132873715Y-98639333D01*
X132873715Y-98877429D01*
X132826096Y-99067905D01*
X132778477Y-99163143D01*
X132730858Y-99210762D01*
X132635620Y-99258381D01*
X132540381Y-99258381D01*
X132445143Y-99210762D01*
X132397524Y-99163143D01*
X132349905Y-99067905D01*
X132302286Y-98877429D01*
X132302286Y-98639333D01*
X132349905Y-98448857D01*
X132397524Y-98353619D01*
X132445143Y-98306000D01*
X132540381Y-98258381D01*
X133492762Y-98258381D02*
X133588001Y-98258381D01*
X133683239Y-98306000D01*
X133730858Y-98353619D01*
X133778477Y-98448857D01*
X133826096Y-98639333D01*
X133826096Y-98877429D01*
X133778477Y-99067905D01*
X133730858Y-99163143D01*
X133683239Y-99210762D01*
X133588001Y-99258381D01*
X133492762Y-99258381D01*
X133397524Y-99210762D01*
X133349905Y-99163143D01*
X133302286Y-99067905D01*
X133254667Y-98877429D01*
X133254667Y-98639333D01*
X133302286Y-98448857D01*
X133349905Y-98353619D01*
X133397524Y-98306000D01*
X133492762Y-98258381D01*
X149431666Y-99464762D02*
X149574523Y-99512381D01*
X149812619Y-99512381D01*
X149907857Y-99464762D01*
X149955476Y-99417143D01*
X150003095Y-99321905D01*
X150003095Y-99226667D01*
X149955476Y-99131429D01*
X149907857Y-99083810D01*
X149812619Y-99036190D01*
X149622142Y-98988571D01*
X149526904Y-98940952D01*
X149479285Y-98893333D01*
X149431666Y-98798095D01*
X149431666Y-98702857D01*
X149479285Y-98607619D01*
X149526904Y-98560000D01*
X149622142Y-98512381D01*
X149860238Y-98512381D01*
X150003095Y-98560000D01*
X150812619Y-99464762D02*
X150717381Y-99512381D01*
X150526904Y-99512381D01*
X150431666Y-99464762D01*
X150384047Y-99369524D01*
X150384047Y-98988571D01*
X150431666Y-98893333D01*
X150526904Y-98845714D01*
X150717381Y-98845714D01*
X150812619Y-98893333D01*
X150860238Y-98988571D01*
X150860238Y-99083810D01*
X150384047Y-99179048D01*
X151288809Y-98845714D02*
X151288809Y-99512381D01*
X151288809Y-98940952D02*
X151336428Y-98893333D01*
X151431666Y-98845714D01*
X151574524Y-98845714D01*
X151669762Y-98893333D01*
X151717381Y-98988571D01*
X151717381Y-99512381D01*
X152145952Y-99464762D02*
X152241190Y-99512381D01*
X152431666Y-99512381D01*
X152526905Y-99464762D01*
X152574524Y-99369524D01*
X152574524Y-99321905D01*
X152526905Y-99226667D01*
X152431666Y-99179048D01*
X152288809Y-99179048D01*
X152193571Y-99131429D01*
X152145952Y-99036190D01*
X152145952Y-98988571D01*
X152193571Y-98893333D01*
X152288809Y-98845714D01*
X152431666Y-98845714D01*
X152526905Y-98893333D01*
X153145952Y-99512381D02*
X153050714Y-99464762D01*
X153003095Y-99417143D01*
X152955476Y-99321905D01*
X152955476Y-99036190D01*
X153003095Y-98940952D01*
X153050714Y-98893333D01*
X153145952Y-98845714D01*
X153288810Y-98845714D01*
X153384048Y-98893333D01*
X153431667Y-98940952D01*
X153479286Y-99036190D01*
X153479286Y-99321905D01*
X153431667Y-99417143D01*
X153384048Y-99464762D01*
X153288810Y-99512381D01*
X153145952Y-99512381D01*
X153907857Y-99512381D02*
X153907857Y-98845714D01*
X153907857Y-99036190D02*
X153955476Y-98940952D01*
X154003095Y-98893333D01*
X154098333Y-98845714D01*
X154193572Y-98845714D01*
X147788809Y-90892381D02*
X148360238Y-90892381D01*
X148074523Y-91892381D02*
X148074523Y-90892381D01*
X149265000Y-91797143D02*
X149217381Y-91844762D01*
X149074524Y-91892381D01*
X148979286Y-91892381D01*
X148836428Y-91844762D01*
X148741190Y-91749524D01*
X148693571Y-91654286D01*
X148645952Y-91463810D01*
X148645952Y-91320952D01*
X148693571Y-91130476D01*
X148741190Y-91035238D01*
X148836428Y-90940000D01*
X148979286Y-90892381D01*
X149074524Y-90892381D01*
X149217381Y-90940000D01*
X149265000Y-90987619D01*
X150265000Y-91892381D02*
X149931666Y-91416190D01*
X149693571Y-91892381D02*
X149693571Y-90892381D01*
X150074524Y-90892381D01*
X150169762Y-90940000D01*
X150217381Y-90987619D01*
X150265000Y-91082857D01*
X150265000Y-91225714D01*
X150217381Y-91320952D01*
X150169762Y-91368571D01*
X150074524Y-91416190D01*
X149693571Y-91416190D01*
X150550714Y-90892381D02*
X151122143Y-90892381D01*
X150836428Y-91892381D02*
X150836428Y-90892381D01*
X151931667Y-90892381D02*
X151455476Y-90892381D01*
X151407857Y-91368571D01*
X151455476Y-91320952D01*
X151550714Y-91273333D01*
X151788810Y-91273333D01*
X151884048Y-91320952D01*
X151931667Y-91368571D01*
X151979286Y-91463810D01*
X151979286Y-91701905D01*
X151931667Y-91797143D01*
X151884048Y-91844762D01*
X151788810Y-91892381D01*
X151550714Y-91892381D01*
X151455476Y-91844762D01*
X151407857Y-91797143D01*
X152598333Y-90892381D02*
X152693572Y-90892381D01*
X152788810Y-90940000D01*
X152836429Y-90987619D01*
X152884048Y-91082857D01*
X152931667Y-91273333D01*
X152931667Y-91511429D01*
X152884048Y-91701905D01*
X152836429Y-91797143D01*
X152788810Y-91844762D01*
X152693572Y-91892381D01*
X152598333Y-91892381D01*
X152503095Y-91844762D01*
X152455476Y-91797143D01*
X152407857Y-91701905D01*
X152360238Y-91511429D01*
X152360238Y-91273333D01*
X152407857Y-91082857D01*
X152455476Y-90987619D01*
X152503095Y-90940000D01*
X152598333Y-90892381D01*
X153550714Y-90892381D02*
X153645953Y-90892381D01*
X153741191Y-90940000D01*
X153788810Y-90987619D01*
X153836429Y-91082857D01*
X153884048Y-91273333D01*
X153884048Y-91511429D01*
X153836429Y-91701905D01*
X153788810Y-91797143D01*
X153741191Y-91844762D01*
X153645953Y-91892381D01*
X153550714Y-91892381D01*
X153455476Y-91844762D01*
X153407857Y-91797143D01*
X153360238Y-91701905D01*
X153312619Y-91511429D01*
X153312619Y-91273333D01*
X153360238Y-91082857D01*
X153407857Y-90987619D01*
X153455476Y-90940000D01*
X153550714Y-90892381D01*
X154503095Y-90892381D02*
X154598334Y-90892381D01*
X154693572Y-90940000D01*
X154741191Y-90987619D01*
X154788810Y-91082857D01*
X154836429Y-91273333D01*
X154836429Y-91511429D01*
X154788810Y-91701905D01*
X154741191Y-91797143D01*
X154693572Y-91844762D01*
X154598334Y-91892381D01*
X154503095Y-91892381D01*
X154407857Y-91844762D01*
X154360238Y-91797143D01*
X154312619Y-91701905D01*
X154265000Y-91511429D01*
X154265000Y-91273333D01*
X154312619Y-91082857D01*
X154360238Y-90987619D01*
X154407857Y-90940000D01*
X154503095Y-90892381D01*
X155741191Y-91892381D02*
X155265000Y-91892381D01*
X155265000Y-90892381D01*
M02*
