G04 MADE WITH FRITZING*
G04 WWW.FRITZING.ORG*
G04 DOUBLE SIDED*
G04 HOLES PLATED*
G04 CONTOUR ON CENTER OF CONTOUR VECTOR*
%ASAXBY*%
%FSLAX23Y23*%
%MOIN*%
%OFA0B0*%
%SFA1.0B1.0*%
%ADD10C,0.075000*%
%ADD11C,0.080000*%
%ADD12R,0.080000X0.080000*%
%ADD13C,0.024000*%
%LNCOPPER0*%
G90*
G70*
G54D10*
X107Y691D03*
X1298Y409D03*
G54D11*
X2020Y597D03*
X1920Y597D03*
X1820Y597D03*
X1720Y597D03*
X1470Y247D03*
X1370Y247D03*
X1270Y247D03*
X1170Y247D03*
X1470Y597D03*
X1370Y597D03*
X1270Y597D03*
X1170Y597D03*
X920Y247D03*
X820Y247D03*
X720Y247D03*
X620Y247D03*
X920Y597D03*
X820Y597D03*
X720Y597D03*
X620Y597D03*
X320Y297D03*
X320Y397D03*
X320Y497D03*
X1870Y297D03*
X1870Y197D03*
X1870Y97D03*
G54D12*
X2020Y597D03*
X1470Y247D03*
X1470Y597D03*
X920Y247D03*
X920Y597D03*
X320Y297D03*
X1870Y297D03*
G54D13*
X620Y497D02*
X698Y575D01*
D02*
X351Y497D02*
X620Y497D01*
D02*
X720Y497D02*
X1169Y497D01*
D02*
X1169Y497D02*
X1248Y576D01*
D02*
X620Y279D02*
X620Y398D01*
D02*
X620Y398D02*
X720Y497D01*
D02*
X1270Y497D02*
X1720Y497D01*
D02*
X1720Y497D02*
X1798Y575D01*
D02*
X1169Y398D02*
X1270Y497D01*
D02*
X1170Y279D02*
X1169Y398D01*
D02*
X1970Y398D02*
X1920Y448D01*
D02*
X1901Y198D02*
X1970Y198D01*
D02*
X1970Y198D02*
X1970Y398D01*
D02*
X1920Y448D02*
X1920Y566D01*
D02*
X1520Y297D02*
X1839Y297D01*
D02*
X1492Y269D02*
X1520Y297D01*
D02*
X620Y147D02*
X720Y147D01*
D02*
X720Y147D02*
X798Y225D01*
D02*
X371Y398D02*
X620Y147D01*
D02*
X351Y398D02*
X371Y398D01*
D02*
X720Y147D02*
X1270Y147D01*
D02*
X1270Y147D02*
X1348Y225D01*
D02*
X1670Y147D02*
X1270Y147D01*
D02*
X1839Y198D02*
X1720Y198D01*
D02*
X1720Y198D02*
X1670Y147D01*
G36*
X40Y747D02*
X40Y625D01*
X254Y625D01*
X254Y627D01*
X248Y627D01*
X248Y629D01*
X242Y629D01*
X242Y631D01*
X238Y631D01*
X238Y633D01*
X234Y633D01*
X234Y635D01*
X232Y635D01*
X232Y637D01*
X228Y637D01*
X228Y639D01*
X226Y639D01*
X226Y641D01*
X224Y641D01*
X224Y643D01*
X220Y643D01*
X220Y645D01*
X218Y645D01*
X218Y647D01*
X216Y647D01*
X216Y651D01*
X214Y651D01*
X214Y653D01*
X212Y653D01*
X212Y655D01*
X210Y655D01*
X210Y659D01*
X208Y659D01*
X208Y661D01*
X206Y661D01*
X206Y665D01*
X204Y665D01*
X204Y669D01*
X202Y669D01*
X202Y675D01*
X200Y675D01*
X200Y681D01*
X198Y681D01*
X198Y695D01*
X196Y695D01*
X196Y699D01*
X198Y699D01*
X198Y713D01*
X200Y713D01*
X200Y721D01*
X202Y721D01*
X202Y725D01*
X204Y725D01*
X204Y747D01*
X40Y747D01*
G37*
D02*
G36*
X336Y747D02*
X336Y725D01*
X338Y725D01*
X338Y719D01*
X340Y719D01*
X340Y713D01*
X342Y713D01*
X342Y681D01*
X340Y681D01*
X340Y675D01*
X338Y675D01*
X338Y669D01*
X336Y669D01*
X336Y665D01*
X334Y665D01*
X334Y661D01*
X332Y661D01*
X332Y659D01*
X330Y659D01*
X330Y655D01*
X328Y655D01*
X328Y653D01*
X326Y653D01*
X326Y651D01*
X324Y651D01*
X324Y649D01*
X322Y649D01*
X322Y647D01*
X2070Y647D01*
X2070Y547D01*
X2124Y547D01*
X2124Y747D01*
X336Y747D01*
G37*
D02*
G36*
X320Y647D02*
X320Y645D01*
X318Y645D01*
X318Y643D01*
X316Y643D01*
X316Y641D01*
X314Y641D01*
X314Y639D01*
X312Y639D01*
X312Y637D01*
X308Y637D01*
X308Y635D01*
X306Y635D01*
X306Y633D01*
X302Y633D01*
X302Y631D01*
X298Y631D01*
X298Y629D01*
X292Y629D01*
X292Y627D01*
X286Y627D01*
X286Y625D01*
X580Y625D01*
X580Y627D01*
X582Y627D01*
X582Y629D01*
X584Y629D01*
X584Y631D01*
X586Y631D01*
X586Y633D01*
X588Y633D01*
X588Y635D01*
X590Y635D01*
X590Y637D01*
X594Y637D01*
X594Y639D01*
X596Y639D01*
X596Y641D01*
X600Y641D01*
X600Y643D01*
X604Y643D01*
X604Y645D01*
X610Y645D01*
X610Y647D01*
X320Y647D01*
G37*
D02*
G36*
X628Y647D02*
X628Y645D01*
X636Y645D01*
X636Y643D01*
X640Y643D01*
X640Y641D01*
X642Y641D01*
X642Y639D01*
X646Y639D01*
X646Y637D01*
X648Y637D01*
X648Y635D01*
X652Y635D01*
X652Y633D01*
X654Y633D01*
X654Y631D01*
X656Y631D01*
X656Y629D01*
X658Y629D01*
X658Y625D01*
X660Y625D01*
X660Y623D01*
X680Y623D01*
X680Y627D01*
X682Y627D01*
X682Y629D01*
X684Y629D01*
X684Y631D01*
X686Y631D01*
X686Y633D01*
X688Y633D01*
X688Y635D01*
X690Y635D01*
X690Y637D01*
X694Y637D01*
X694Y639D01*
X696Y639D01*
X696Y641D01*
X700Y641D01*
X700Y643D01*
X704Y643D01*
X704Y645D01*
X710Y645D01*
X710Y647D01*
X628Y647D01*
G37*
D02*
G36*
X728Y647D02*
X728Y645D01*
X736Y645D01*
X736Y643D01*
X740Y643D01*
X740Y641D01*
X742Y641D01*
X742Y639D01*
X746Y639D01*
X746Y637D01*
X748Y637D01*
X748Y635D01*
X752Y635D01*
X752Y633D01*
X754Y633D01*
X754Y631D01*
X756Y631D01*
X756Y629D01*
X758Y629D01*
X758Y625D01*
X760Y625D01*
X760Y623D01*
X780Y623D01*
X780Y627D01*
X782Y627D01*
X782Y629D01*
X784Y629D01*
X784Y631D01*
X786Y631D01*
X786Y633D01*
X788Y633D01*
X788Y635D01*
X790Y635D01*
X790Y637D01*
X794Y637D01*
X794Y639D01*
X796Y639D01*
X796Y641D01*
X800Y641D01*
X800Y643D01*
X804Y643D01*
X804Y645D01*
X810Y645D01*
X810Y647D01*
X728Y647D01*
G37*
D02*
G36*
X828Y647D02*
X828Y645D01*
X836Y645D01*
X836Y643D01*
X840Y643D01*
X840Y641D01*
X842Y641D01*
X842Y639D01*
X846Y639D01*
X846Y637D01*
X848Y637D01*
X848Y635D01*
X870Y635D01*
X870Y647D01*
X828Y647D01*
G37*
D02*
G36*
X970Y647D02*
X970Y547D01*
X1162Y547D01*
X1162Y549D01*
X1156Y549D01*
X1156Y551D01*
X1150Y551D01*
X1150Y553D01*
X1148Y553D01*
X1148Y555D01*
X1144Y555D01*
X1144Y557D01*
X1142Y557D01*
X1142Y559D01*
X1138Y559D01*
X1138Y561D01*
X1136Y561D01*
X1136Y563D01*
X1134Y563D01*
X1134Y565D01*
X1132Y565D01*
X1132Y569D01*
X1130Y569D01*
X1130Y571D01*
X1128Y571D01*
X1128Y575D01*
X1126Y575D01*
X1126Y577D01*
X1124Y577D01*
X1124Y581D01*
X1122Y581D01*
X1122Y589D01*
X1120Y589D01*
X1120Y607D01*
X1122Y607D01*
X1122Y613D01*
X1124Y613D01*
X1124Y617D01*
X1126Y617D01*
X1126Y621D01*
X1128Y621D01*
X1128Y623D01*
X1130Y623D01*
X1130Y627D01*
X1132Y627D01*
X1132Y629D01*
X1134Y629D01*
X1134Y631D01*
X1136Y631D01*
X1136Y633D01*
X1138Y633D01*
X1138Y635D01*
X1140Y635D01*
X1140Y637D01*
X1144Y637D01*
X1144Y639D01*
X1146Y639D01*
X1146Y641D01*
X1150Y641D01*
X1150Y643D01*
X1154Y643D01*
X1154Y645D01*
X1160Y645D01*
X1160Y647D01*
X970Y647D01*
G37*
D02*
G36*
X1178Y647D02*
X1178Y645D01*
X1186Y645D01*
X1186Y643D01*
X1190Y643D01*
X1190Y641D01*
X1192Y641D01*
X1192Y639D01*
X1196Y639D01*
X1196Y637D01*
X1198Y637D01*
X1198Y635D01*
X1202Y635D01*
X1202Y633D01*
X1204Y633D01*
X1204Y631D01*
X1206Y631D01*
X1206Y629D01*
X1208Y629D01*
X1208Y625D01*
X1210Y625D01*
X1210Y623D01*
X1230Y623D01*
X1230Y627D01*
X1232Y627D01*
X1232Y629D01*
X1234Y629D01*
X1234Y631D01*
X1236Y631D01*
X1236Y633D01*
X1238Y633D01*
X1238Y635D01*
X1240Y635D01*
X1240Y637D01*
X1244Y637D01*
X1244Y639D01*
X1246Y639D01*
X1246Y641D01*
X1250Y641D01*
X1250Y643D01*
X1254Y643D01*
X1254Y645D01*
X1260Y645D01*
X1260Y647D01*
X1178Y647D01*
G37*
D02*
G36*
X1278Y647D02*
X1278Y645D01*
X1286Y645D01*
X1286Y643D01*
X1290Y643D01*
X1290Y641D01*
X1292Y641D01*
X1292Y639D01*
X1296Y639D01*
X1296Y637D01*
X1298Y637D01*
X1298Y635D01*
X1302Y635D01*
X1302Y633D01*
X1304Y633D01*
X1304Y631D01*
X1306Y631D01*
X1306Y629D01*
X1308Y629D01*
X1308Y625D01*
X1310Y625D01*
X1310Y623D01*
X1330Y623D01*
X1330Y627D01*
X1332Y627D01*
X1332Y629D01*
X1334Y629D01*
X1334Y631D01*
X1336Y631D01*
X1336Y633D01*
X1338Y633D01*
X1338Y635D01*
X1340Y635D01*
X1340Y637D01*
X1344Y637D01*
X1344Y639D01*
X1346Y639D01*
X1346Y641D01*
X1350Y641D01*
X1350Y643D01*
X1354Y643D01*
X1354Y645D01*
X1360Y645D01*
X1360Y647D01*
X1278Y647D01*
G37*
D02*
G36*
X1378Y647D02*
X1378Y645D01*
X1386Y645D01*
X1386Y643D01*
X1390Y643D01*
X1390Y641D01*
X1392Y641D01*
X1392Y639D01*
X1396Y639D01*
X1396Y637D01*
X1398Y637D01*
X1398Y635D01*
X1420Y635D01*
X1420Y647D01*
X1378Y647D01*
G37*
D02*
G36*
X1520Y647D02*
X1520Y547D01*
X1712Y547D01*
X1712Y549D01*
X1706Y549D01*
X1706Y551D01*
X1700Y551D01*
X1700Y553D01*
X1698Y553D01*
X1698Y555D01*
X1694Y555D01*
X1694Y557D01*
X1692Y557D01*
X1692Y559D01*
X1688Y559D01*
X1688Y561D01*
X1686Y561D01*
X1686Y563D01*
X1684Y563D01*
X1684Y565D01*
X1682Y565D01*
X1682Y569D01*
X1680Y569D01*
X1680Y571D01*
X1678Y571D01*
X1678Y575D01*
X1676Y575D01*
X1676Y577D01*
X1674Y577D01*
X1674Y581D01*
X1672Y581D01*
X1672Y589D01*
X1670Y589D01*
X1670Y607D01*
X1672Y607D01*
X1672Y613D01*
X1674Y613D01*
X1674Y617D01*
X1676Y617D01*
X1676Y621D01*
X1678Y621D01*
X1678Y623D01*
X1680Y623D01*
X1680Y627D01*
X1682Y627D01*
X1682Y629D01*
X1684Y629D01*
X1684Y631D01*
X1686Y631D01*
X1686Y633D01*
X1688Y633D01*
X1688Y635D01*
X1690Y635D01*
X1690Y637D01*
X1694Y637D01*
X1694Y639D01*
X1696Y639D01*
X1696Y641D01*
X1700Y641D01*
X1700Y643D01*
X1704Y643D01*
X1704Y645D01*
X1710Y645D01*
X1710Y647D01*
X1520Y647D01*
G37*
D02*
G36*
X1728Y647D02*
X1728Y645D01*
X1736Y645D01*
X1736Y643D01*
X1740Y643D01*
X1740Y641D01*
X1742Y641D01*
X1742Y639D01*
X1746Y639D01*
X1746Y637D01*
X1748Y637D01*
X1748Y635D01*
X1752Y635D01*
X1752Y633D01*
X1754Y633D01*
X1754Y631D01*
X1756Y631D01*
X1756Y629D01*
X1758Y629D01*
X1758Y625D01*
X1760Y625D01*
X1760Y623D01*
X1780Y623D01*
X1780Y627D01*
X1782Y627D01*
X1782Y629D01*
X1784Y629D01*
X1784Y631D01*
X1786Y631D01*
X1786Y633D01*
X1788Y633D01*
X1788Y635D01*
X1790Y635D01*
X1790Y637D01*
X1794Y637D01*
X1794Y639D01*
X1796Y639D01*
X1796Y641D01*
X1800Y641D01*
X1800Y643D01*
X1804Y643D01*
X1804Y645D01*
X1810Y645D01*
X1810Y647D01*
X1728Y647D01*
G37*
D02*
G36*
X1828Y647D02*
X1828Y645D01*
X1836Y645D01*
X1836Y643D01*
X1840Y643D01*
X1840Y641D01*
X1842Y641D01*
X1842Y639D01*
X1846Y639D01*
X1846Y637D01*
X1848Y637D01*
X1848Y635D01*
X1852Y635D01*
X1852Y633D01*
X1854Y633D01*
X1854Y631D01*
X1856Y631D01*
X1856Y629D01*
X1858Y629D01*
X1858Y625D01*
X1860Y625D01*
X1860Y623D01*
X1880Y623D01*
X1880Y627D01*
X1882Y627D01*
X1882Y629D01*
X1884Y629D01*
X1884Y631D01*
X1886Y631D01*
X1886Y633D01*
X1888Y633D01*
X1888Y635D01*
X1890Y635D01*
X1890Y637D01*
X1894Y637D01*
X1894Y639D01*
X1896Y639D01*
X1896Y641D01*
X1900Y641D01*
X1900Y643D01*
X1904Y643D01*
X1904Y645D01*
X1910Y645D01*
X1910Y647D01*
X1828Y647D01*
G37*
D02*
G36*
X1928Y647D02*
X1928Y645D01*
X1936Y645D01*
X1936Y643D01*
X1940Y643D01*
X1940Y641D01*
X1942Y641D01*
X1942Y639D01*
X1946Y639D01*
X1946Y637D01*
X1948Y637D01*
X1948Y635D01*
X1970Y635D01*
X1970Y647D01*
X1928Y647D01*
G37*
D02*
G36*
X40Y625D02*
X40Y623D01*
X580Y623D01*
X580Y625D01*
X40Y625D01*
G37*
D02*
G36*
X40Y625D02*
X40Y623D01*
X580Y623D01*
X580Y625D01*
X40Y625D01*
G37*
D02*
G36*
X40Y623D02*
X40Y547D01*
X328Y547D01*
X328Y545D01*
X336Y545D01*
X336Y543D01*
X340Y543D01*
X340Y541D01*
X342Y541D01*
X342Y539D01*
X346Y539D01*
X346Y537D01*
X348Y537D01*
X348Y535D01*
X352Y535D01*
X352Y533D01*
X354Y533D01*
X354Y531D01*
X356Y531D01*
X356Y529D01*
X358Y529D01*
X358Y525D01*
X360Y525D01*
X360Y523D01*
X362Y523D01*
X362Y519D01*
X612Y519D01*
X612Y521D01*
X614Y521D01*
X614Y523D01*
X616Y523D01*
X616Y525D01*
X618Y525D01*
X618Y527D01*
X620Y527D01*
X620Y547D01*
X612Y547D01*
X612Y549D01*
X606Y549D01*
X606Y551D01*
X600Y551D01*
X600Y553D01*
X598Y553D01*
X598Y555D01*
X594Y555D01*
X594Y557D01*
X592Y557D01*
X592Y559D01*
X588Y559D01*
X588Y561D01*
X586Y561D01*
X586Y563D01*
X584Y563D01*
X584Y565D01*
X582Y565D01*
X582Y569D01*
X580Y569D01*
X580Y571D01*
X578Y571D01*
X578Y575D01*
X576Y575D01*
X576Y577D01*
X574Y577D01*
X574Y581D01*
X572Y581D01*
X572Y589D01*
X570Y589D01*
X570Y607D01*
X572Y607D01*
X572Y613D01*
X574Y613D01*
X574Y617D01*
X576Y617D01*
X576Y621D01*
X578Y621D01*
X578Y623D01*
X40Y623D01*
G37*
D02*
G36*
X760Y571D02*
X760Y569D01*
X758Y569D01*
X758Y567D01*
X756Y567D01*
X756Y563D01*
X754Y563D01*
X754Y561D01*
X750Y561D01*
X750Y559D01*
X748Y559D01*
X748Y557D01*
X746Y557D01*
X746Y555D01*
X742Y555D01*
X742Y553D01*
X740Y553D01*
X740Y551D01*
X734Y551D01*
X734Y549D01*
X728Y549D01*
X728Y547D01*
X812Y547D01*
X812Y549D01*
X806Y549D01*
X806Y551D01*
X800Y551D01*
X800Y553D01*
X798Y553D01*
X798Y555D01*
X794Y555D01*
X794Y557D01*
X792Y557D01*
X792Y559D01*
X788Y559D01*
X788Y561D01*
X786Y561D01*
X786Y563D01*
X784Y563D01*
X784Y565D01*
X782Y565D01*
X782Y569D01*
X780Y569D01*
X780Y571D01*
X760Y571D01*
G37*
D02*
G36*
X1310Y571D02*
X1310Y569D01*
X1308Y569D01*
X1308Y567D01*
X1306Y567D01*
X1306Y563D01*
X1304Y563D01*
X1304Y561D01*
X1300Y561D01*
X1300Y559D01*
X1298Y559D01*
X1298Y557D01*
X1296Y557D01*
X1296Y555D01*
X1292Y555D01*
X1292Y553D01*
X1290Y553D01*
X1290Y551D01*
X1284Y551D01*
X1284Y549D01*
X1278Y549D01*
X1278Y547D01*
X1362Y547D01*
X1362Y549D01*
X1356Y549D01*
X1356Y551D01*
X1350Y551D01*
X1350Y553D01*
X1348Y553D01*
X1348Y555D01*
X1344Y555D01*
X1344Y557D01*
X1342Y557D01*
X1342Y559D01*
X1338Y559D01*
X1338Y561D01*
X1336Y561D01*
X1336Y563D01*
X1334Y563D01*
X1334Y565D01*
X1332Y565D01*
X1332Y569D01*
X1330Y569D01*
X1330Y571D01*
X1310Y571D01*
G37*
D02*
G36*
X1860Y571D02*
X1860Y569D01*
X1858Y569D01*
X1858Y567D01*
X1856Y567D01*
X1856Y563D01*
X1854Y563D01*
X1854Y561D01*
X1850Y561D01*
X1850Y559D01*
X1848Y559D01*
X1848Y557D01*
X1846Y557D01*
X1846Y555D01*
X1842Y555D01*
X1842Y553D01*
X1840Y553D01*
X1840Y551D01*
X1834Y551D01*
X1834Y549D01*
X1828Y549D01*
X1828Y547D01*
X1912Y547D01*
X1912Y549D01*
X1906Y549D01*
X1906Y551D01*
X1900Y551D01*
X1900Y553D01*
X1898Y553D01*
X1898Y555D01*
X1894Y555D01*
X1894Y557D01*
X1892Y557D01*
X1892Y559D01*
X1888Y559D01*
X1888Y561D01*
X1886Y561D01*
X1886Y563D01*
X1884Y563D01*
X1884Y565D01*
X1882Y565D01*
X1882Y569D01*
X1880Y569D01*
X1880Y571D01*
X1860Y571D01*
G37*
D02*
G36*
X850Y561D02*
X850Y559D01*
X848Y559D01*
X848Y557D01*
X846Y557D01*
X846Y555D01*
X842Y555D01*
X842Y553D01*
X840Y553D01*
X840Y551D01*
X834Y551D01*
X834Y549D01*
X828Y549D01*
X828Y547D01*
X870Y547D01*
X870Y561D01*
X850Y561D01*
G37*
D02*
G36*
X1400Y561D02*
X1400Y559D01*
X1398Y559D01*
X1398Y557D01*
X1396Y557D01*
X1396Y555D01*
X1392Y555D01*
X1392Y553D01*
X1390Y553D01*
X1390Y551D01*
X1384Y551D01*
X1384Y549D01*
X1378Y549D01*
X1378Y547D01*
X1420Y547D01*
X1420Y561D01*
X1400Y561D01*
G37*
D02*
G36*
X1950Y561D02*
X1950Y559D01*
X1948Y559D01*
X1948Y557D01*
X1946Y557D01*
X1946Y555D01*
X1942Y555D01*
X1942Y553D01*
X1940Y553D01*
X1940Y551D01*
X1934Y551D01*
X1934Y549D01*
X1928Y549D01*
X1928Y547D01*
X1970Y547D01*
X1970Y561D01*
X1950Y561D01*
G37*
D02*
G36*
X40Y547D02*
X40Y247D01*
X270Y247D01*
X270Y347D01*
X282Y347D01*
X282Y369D01*
X280Y369D01*
X280Y371D01*
X278Y371D01*
X278Y375D01*
X276Y375D01*
X276Y377D01*
X274Y377D01*
X274Y381D01*
X272Y381D01*
X272Y389D01*
X270Y389D01*
X270Y407D01*
X272Y407D01*
X272Y413D01*
X274Y413D01*
X274Y417D01*
X276Y417D01*
X276Y421D01*
X278Y421D01*
X278Y423D01*
X280Y423D01*
X280Y427D01*
X282Y427D01*
X282Y429D01*
X284Y429D01*
X284Y431D01*
X286Y431D01*
X286Y433D01*
X288Y433D01*
X288Y435D01*
X290Y435D01*
X290Y437D01*
X294Y437D01*
X294Y457D01*
X292Y457D01*
X292Y459D01*
X288Y459D01*
X288Y461D01*
X286Y461D01*
X286Y463D01*
X284Y463D01*
X284Y465D01*
X282Y465D01*
X282Y469D01*
X280Y469D01*
X280Y471D01*
X278Y471D01*
X278Y475D01*
X276Y475D01*
X276Y477D01*
X274Y477D01*
X274Y481D01*
X272Y481D01*
X272Y489D01*
X270Y489D01*
X270Y507D01*
X272Y507D01*
X272Y513D01*
X274Y513D01*
X274Y517D01*
X276Y517D01*
X276Y521D01*
X278Y521D01*
X278Y523D01*
X280Y523D01*
X280Y527D01*
X282Y527D01*
X282Y529D01*
X284Y529D01*
X284Y531D01*
X286Y531D01*
X286Y533D01*
X288Y533D01*
X288Y535D01*
X290Y535D01*
X290Y537D01*
X294Y537D01*
X294Y539D01*
X296Y539D01*
X296Y541D01*
X300Y541D01*
X300Y543D01*
X304Y543D01*
X304Y545D01*
X310Y545D01*
X310Y547D01*
X40Y547D01*
G37*
D02*
G36*
X700Y547D02*
X700Y545D01*
X1170Y545D01*
X1170Y547D01*
X700Y547D01*
G37*
D02*
G36*
X700Y547D02*
X700Y545D01*
X1170Y545D01*
X1170Y547D01*
X700Y547D01*
G37*
D02*
G36*
X700Y547D02*
X700Y545D01*
X1170Y545D01*
X1170Y547D01*
X700Y547D01*
G37*
D02*
G36*
X1250Y547D02*
X1250Y545D01*
X1720Y545D01*
X1720Y547D01*
X1250Y547D01*
G37*
D02*
G36*
X1250Y547D02*
X1250Y545D01*
X1720Y545D01*
X1720Y547D01*
X1250Y547D01*
G37*
D02*
G36*
X1250Y547D02*
X1250Y545D01*
X1720Y545D01*
X1720Y547D01*
X1250Y547D01*
G37*
D02*
G36*
X1800Y547D02*
X1800Y545D01*
X2124Y545D01*
X2124Y547D01*
X1800Y547D01*
G37*
D02*
G36*
X1800Y547D02*
X1800Y545D01*
X2124Y545D01*
X2124Y547D01*
X1800Y547D01*
G37*
D02*
G36*
X1800Y547D02*
X1800Y545D01*
X2124Y545D01*
X2124Y547D01*
X1800Y547D01*
G37*
D02*
G36*
X698Y545D02*
X698Y543D01*
X696Y543D01*
X696Y541D01*
X694Y541D01*
X694Y539D01*
X692Y539D01*
X692Y537D01*
X690Y537D01*
X690Y535D01*
X688Y535D01*
X688Y533D01*
X686Y533D01*
X686Y531D01*
X684Y531D01*
X684Y529D01*
X682Y529D01*
X682Y527D01*
X680Y527D01*
X680Y525D01*
X678Y525D01*
X678Y523D01*
X676Y523D01*
X676Y521D01*
X674Y521D01*
X674Y519D01*
X672Y519D01*
X672Y517D01*
X670Y517D01*
X670Y515D01*
X668Y515D01*
X668Y513D01*
X666Y513D01*
X666Y511D01*
X664Y511D01*
X664Y509D01*
X662Y509D01*
X662Y507D01*
X660Y507D01*
X660Y505D01*
X658Y505D01*
X658Y503D01*
X656Y503D01*
X656Y501D01*
X654Y501D01*
X654Y499D01*
X652Y499D01*
X652Y497D01*
X650Y497D01*
X650Y495D01*
X648Y495D01*
X648Y493D01*
X646Y493D01*
X646Y491D01*
X644Y491D01*
X644Y489D01*
X642Y489D01*
X642Y487D01*
X640Y487D01*
X640Y485D01*
X638Y485D01*
X638Y483D01*
X636Y483D01*
X636Y481D01*
X634Y481D01*
X634Y479D01*
X632Y479D01*
X632Y477D01*
X626Y477D01*
X626Y475D01*
X362Y475D01*
X362Y471D01*
X360Y471D01*
X360Y469D01*
X358Y469D01*
X358Y467D01*
X356Y467D01*
X356Y463D01*
X354Y463D01*
X354Y461D01*
X350Y461D01*
X350Y459D01*
X348Y459D01*
X348Y457D01*
X346Y457D01*
X346Y437D01*
X348Y437D01*
X348Y435D01*
X352Y435D01*
X352Y433D01*
X354Y433D01*
X354Y431D01*
X356Y431D01*
X356Y429D01*
X358Y429D01*
X358Y425D01*
X360Y425D01*
X360Y423D01*
X362Y423D01*
X362Y419D01*
X364Y419D01*
X364Y417D01*
X366Y417D01*
X366Y411D01*
X368Y411D01*
X368Y405D01*
X370Y405D01*
X370Y389D01*
X368Y389D01*
X368Y383D01*
X366Y383D01*
X366Y377D01*
X364Y377D01*
X364Y375D01*
X362Y375D01*
X362Y371D01*
X360Y371D01*
X360Y369D01*
X358Y369D01*
X358Y367D01*
X356Y367D01*
X356Y347D01*
X370Y347D01*
X370Y247D01*
X570Y247D01*
X570Y257D01*
X572Y257D01*
X572Y263D01*
X574Y263D01*
X574Y267D01*
X576Y267D01*
X576Y271D01*
X578Y271D01*
X578Y273D01*
X580Y273D01*
X580Y277D01*
X582Y277D01*
X582Y279D01*
X584Y279D01*
X584Y281D01*
X586Y281D01*
X586Y283D01*
X588Y283D01*
X588Y285D01*
X590Y285D01*
X590Y287D01*
X594Y287D01*
X594Y289D01*
X596Y289D01*
X596Y291D01*
X598Y291D01*
X598Y403D01*
X600Y403D01*
X600Y409D01*
X602Y409D01*
X602Y411D01*
X604Y411D01*
X604Y413D01*
X606Y413D01*
X606Y415D01*
X608Y415D01*
X608Y417D01*
X610Y417D01*
X610Y419D01*
X612Y419D01*
X612Y421D01*
X614Y421D01*
X614Y423D01*
X616Y423D01*
X616Y425D01*
X618Y425D01*
X618Y427D01*
X620Y427D01*
X620Y429D01*
X622Y429D01*
X622Y431D01*
X624Y431D01*
X624Y433D01*
X626Y433D01*
X626Y435D01*
X628Y435D01*
X628Y437D01*
X630Y437D01*
X630Y439D01*
X632Y439D01*
X632Y441D01*
X634Y441D01*
X634Y443D01*
X636Y443D01*
X636Y445D01*
X638Y445D01*
X638Y447D01*
X640Y447D01*
X640Y449D01*
X642Y449D01*
X642Y451D01*
X644Y451D01*
X644Y453D01*
X646Y453D01*
X646Y455D01*
X648Y455D01*
X648Y457D01*
X650Y457D01*
X650Y459D01*
X652Y459D01*
X652Y461D01*
X654Y461D01*
X654Y463D01*
X656Y463D01*
X656Y465D01*
X658Y465D01*
X658Y467D01*
X660Y467D01*
X660Y469D01*
X662Y469D01*
X662Y471D01*
X664Y471D01*
X664Y473D01*
X666Y473D01*
X666Y475D01*
X668Y475D01*
X668Y477D01*
X670Y477D01*
X670Y479D01*
X672Y479D01*
X672Y481D01*
X674Y481D01*
X674Y483D01*
X676Y483D01*
X676Y485D01*
X678Y485D01*
X678Y487D01*
X680Y487D01*
X680Y489D01*
X682Y489D01*
X682Y491D01*
X684Y491D01*
X684Y493D01*
X686Y493D01*
X686Y495D01*
X688Y495D01*
X688Y497D01*
X690Y497D01*
X690Y499D01*
X692Y499D01*
X692Y501D01*
X694Y501D01*
X694Y503D01*
X696Y503D01*
X696Y505D01*
X698Y505D01*
X698Y507D01*
X700Y507D01*
X700Y509D01*
X702Y509D01*
X702Y511D01*
X704Y511D01*
X704Y513D01*
X706Y513D01*
X706Y515D01*
X708Y515D01*
X708Y517D01*
X714Y517D01*
X714Y519D01*
X1162Y519D01*
X1162Y521D01*
X1164Y521D01*
X1164Y523D01*
X1166Y523D01*
X1166Y525D01*
X1168Y525D01*
X1168Y527D01*
X1170Y527D01*
X1170Y545D01*
X698Y545D01*
G37*
D02*
G36*
X1248Y545D02*
X1248Y543D01*
X1246Y543D01*
X1246Y541D01*
X1244Y541D01*
X1244Y539D01*
X1242Y539D01*
X1242Y537D01*
X1240Y537D01*
X1240Y535D01*
X1238Y535D01*
X1238Y533D01*
X1236Y533D01*
X1236Y531D01*
X1234Y531D01*
X1234Y529D01*
X1232Y529D01*
X1232Y527D01*
X1230Y527D01*
X1230Y525D01*
X1228Y525D01*
X1228Y523D01*
X1226Y523D01*
X1226Y521D01*
X1224Y521D01*
X1224Y519D01*
X1222Y519D01*
X1222Y517D01*
X1220Y517D01*
X1220Y515D01*
X1218Y515D01*
X1218Y513D01*
X1216Y513D01*
X1216Y511D01*
X1214Y511D01*
X1214Y509D01*
X1212Y509D01*
X1212Y507D01*
X1210Y507D01*
X1210Y505D01*
X1208Y505D01*
X1208Y503D01*
X1206Y503D01*
X1206Y501D01*
X1204Y501D01*
X1204Y499D01*
X1202Y499D01*
X1202Y497D01*
X1200Y497D01*
X1200Y495D01*
X1198Y495D01*
X1198Y493D01*
X1196Y493D01*
X1196Y491D01*
X1194Y491D01*
X1194Y489D01*
X1192Y489D01*
X1192Y487D01*
X1190Y487D01*
X1190Y485D01*
X1188Y485D01*
X1188Y483D01*
X1186Y483D01*
X1186Y481D01*
X1184Y481D01*
X1184Y479D01*
X1180Y479D01*
X1180Y477D01*
X1176Y477D01*
X1176Y475D01*
X728Y475D01*
X728Y473D01*
X726Y473D01*
X726Y471D01*
X724Y471D01*
X724Y469D01*
X722Y469D01*
X722Y467D01*
X720Y467D01*
X720Y465D01*
X718Y465D01*
X718Y463D01*
X716Y463D01*
X716Y461D01*
X714Y461D01*
X714Y459D01*
X712Y459D01*
X712Y457D01*
X710Y457D01*
X710Y455D01*
X708Y455D01*
X708Y453D01*
X706Y453D01*
X706Y451D01*
X704Y451D01*
X704Y449D01*
X702Y449D01*
X702Y447D01*
X700Y447D01*
X700Y445D01*
X698Y445D01*
X698Y443D01*
X696Y443D01*
X696Y441D01*
X694Y441D01*
X694Y439D01*
X692Y439D01*
X692Y437D01*
X690Y437D01*
X690Y435D01*
X688Y435D01*
X688Y433D01*
X686Y433D01*
X686Y431D01*
X684Y431D01*
X684Y429D01*
X682Y429D01*
X682Y427D01*
X680Y427D01*
X680Y425D01*
X678Y425D01*
X678Y423D01*
X676Y423D01*
X676Y421D01*
X674Y421D01*
X674Y419D01*
X672Y419D01*
X672Y417D01*
X670Y417D01*
X670Y415D01*
X668Y415D01*
X668Y413D01*
X666Y413D01*
X666Y411D01*
X664Y411D01*
X664Y409D01*
X662Y409D01*
X662Y407D01*
X660Y407D01*
X660Y405D01*
X658Y405D01*
X658Y403D01*
X656Y403D01*
X656Y401D01*
X654Y401D01*
X654Y399D01*
X652Y399D01*
X652Y397D01*
X650Y397D01*
X650Y395D01*
X648Y395D01*
X648Y393D01*
X646Y393D01*
X646Y391D01*
X644Y391D01*
X644Y389D01*
X642Y389D01*
X642Y297D01*
X970Y297D01*
X970Y197D01*
X1162Y197D01*
X1162Y199D01*
X1156Y199D01*
X1156Y201D01*
X1150Y201D01*
X1150Y203D01*
X1148Y203D01*
X1148Y205D01*
X1144Y205D01*
X1144Y207D01*
X1142Y207D01*
X1142Y209D01*
X1138Y209D01*
X1138Y211D01*
X1136Y211D01*
X1136Y213D01*
X1134Y213D01*
X1134Y215D01*
X1132Y215D01*
X1132Y219D01*
X1130Y219D01*
X1130Y221D01*
X1128Y221D01*
X1128Y225D01*
X1126Y225D01*
X1126Y227D01*
X1124Y227D01*
X1124Y231D01*
X1122Y231D01*
X1122Y239D01*
X1120Y239D01*
X1120Y257D01*
X1122Y257D01*
X1122Y263D01*
X1124Y263D01*
X1124Y267D01*
X1126Y267D01*
X1126Y271D01*
X1128Y271D01*
X1128Y273D01*
X1130Y273D01*
X1130Y277D01*
X1132Y277D01*
X1132Y279D01*
X1134Y279D01*
X1134Y281D01*
X1136Y281D01*
X1136Y283D01*
X1138Y283D01*
X1138Y285D01*
X1140Y285D01*
X1140Y287D01*
X1144Y287D01*
X1144Y289D01*
X1146Y289D01*
X1146Y291D01*
X1148Y291D01*
X1148Y405D01*
X1150Y405D01*
X1150Y409D01*
X1152Y409D01*
X1152Y413D01*
X1154Y413D01*
X1154Y415D01*
X1156Y415D01*
X1156Y417D01*
X1158Y417D01*
X1158Y419D01*
X1160Y419D01*
X1160Y421D01*
X1162Y421D01*
X1162Y423D01*
X1164Y423D01*
X1164Y425D01*
X1166Y425D01*
X1166Y427D01*
X1168Y427D01*
X1168Y429D01*
X1170Y429D01*
X1170Y431D01*
X1172Y431D01*
X1172Y433D01*
X1174Y433D01*
X1174Y435D01*
X1176Y435D01*
X1176Y437D01*
X1178Y437D01*
X1178Y439D01*
X1180Y439D01*
X1180Y441D01*
X1184Y441D01*
X1184Y443D01*
X1186Y443D01*
X1186Y445D01*
X1188Y445D01*
X1188Y447D01*
X1190Y447D01*
X1190Y449D01*
X1192Y449D01*
X1192Y451D01*
X1194Y451D01*
X1194Y453D01*
X1196Y453D01*
X1196Y455D01*
X1198Y455D01*
X1198Y457D01*
X1200Y457D01*
X1200Y459D01*
X1202Y459D01*
X1202Y461D01*
X1204Y461D01*
X1204Y463D01*
X1206Y463D01*
X1206Y465D01*
X1208Y465D01*
X1208Y467D01*
X1210Y467D01*
X1210Y469D01*
X1212Y469D01*
X1212Y471D01*
X1214Y471D01*
X1214Y473D01*
X1216Y473D01*
X1216Y475D01*
X1218Y475D01*
X1218Y477D01*
X1220Y477D01*
X1220Y479D01*
X1222Y479D01*
X1222Y481D01*
X1224Y481D01*
X1224Y483D01*
X1226Y483D01*
X1226Y485D01*
X1228Y485D01*
X1228Y487D01*
X1230Y487D01*
X1230Y489D01*
X1232Y489D01*
X1232Y491D01*
X1234Y491D01*
X1234Y493D01*
X1236Y493D01*
X1236Y495D01*
X1238Y495D01*
X1238Y497D01*
X1240Y497D01*
X1240Y499D01*
X1242Y499D01*
X1242Y501D01*
X1244Y501D01*
X1244Y503D01*
X1246Y503D01*
X1246Y505D01*
X1248Y505D01*
X1248Y507D01*
X1250Y507D01*
X1250Y509D01*
X1252Y509D01*
X1252Y511D01*
X1254Y511D01*
X1254Y513D01*
X1256Y513D01*
X1256Y515D01*
X1260Y515D01*
X1260Y517D01*
X1264Y517D01*
X1264Y519D01*
X1712Y519D01*
X1712Y521D01*
X1714Y521D01*
X1714Y523D01*
X1716Y523D01*
X1716Y525D01*
X1718Y525D01*
X1718Y527D01*
X1720Y527D01*
X1720Y545D01*
X1248Y545D01*
G37*
D02*
G36*
X1798Y545D02*
X1798Y543D01*
X1796Y543D01*
X1796Y541D01*
X1794Y541D01*
X1794Y539D01*
X1792Y539D01*
X1792Y537D01*
X1790Y537D01*
X1790Y535D01*
X1788Y535D01*
X1788Y533D01*
X1786Y533D01*
X1786Y531D01*
X1784Y531D01*
X1784Y529D01*
X1782Y529D01*
X1782Y527D01*
X1780Y527D01*
X1780Y525D01*
X1778Y525D01*
X1778Y523D01*
X1776Y523D01*
X1776Y521D01*
X1774Y521D01*
X1774Y519D01*
X1772Y519D01*
X1772Y517D01*
X1770Y517D01*
X1770Y515D01*
X1768Y515D01*
X1768Y513D01*
X1766Y513D01*
X1766Y511D01*
X1764Y511D01*
X1764Y509D01*
X1762Y509D01*
X1762Y507D01*
X1760Y507D01*
X1760Y505D01*
X1758Y505D01*
X1758Y503D01*
X1756Y503D01*
X1756Y501D01*
X1754Y501D01*
X1754Y499D01*
X1752Y499D01*
X1752Y497D01*
X1750Y497D01*
X1750Y495D01*
X1748Y495D01*
X1748Y493D01*
X1746Y493D01*
X1746Y491D01*
X1744Y491D01*
X1744Y489D01*
X1742Y489D01*
X1742Y487D01*
X1740Y487D01*
X1740Y485D01*
X1738Y485D01*
X1738Y483D01*
X1736Y483D01*
X1736Y481D01*
X1734Y481D01*
X1734Y479D01*
X1730Y479D01*
X1730Y477D01*
X1726Y477D01*
X1726Y475D01*
X1662Y475D01*
X1662Y455D01*
X1664Y455D01*
X1664Y453D01*
X1666Y453D01*
X1666Y451D01*
X1670Y451D01*
X1670Y449D01*
X1672Y449D01*
X1672Y447D01*
X1674Y447D01*
X1674Y443D01*
X1676Y443D01*
X1676Y441D01*
X1678Y441D01*
X1678Y439D01*
X1680Y439D01*
X1680Y435D01*
X1682Y435D01*
X1682Y433D01*
X1684Y433D01*
X1684Y429D01*
X1686Y429D01*
X1686Y425D01*
X1688Y425D01*
X1688Y419D01*
X1690Y419D01*
X1690Y413D01*
X1692Y413D01*
X1692Y381D01*
X1690Y381D01*
X1690Y375D01*
X1688Y375D01*
X1688Y369D01*
X1686Y369D01*
X1686Y365D01*
X1684Y365D01*
X1684Y361D01*
X1682Y361D01*
X1682Y359D01*
X1680Y359D01*
X1680Y355D01*
X1678Y355D01*
X1678Y353D01*
X1676Y353D01*
X1676Y351D01*
X1674Y351D01*
X1674Y349D01*
X1672Y349D01*
X1672Y347D01*
X1920Y347D01*
X1920Y247D01*
X1908Y247D01*
X1908Y225D01*
X1910Y225D01*
X1910Y223D01*
X1912Y223D01*
X1912Y219D01*
X1914Y219D01*
X1914Y217D01*
X1916Y217D01*
X1916Y211D01*
X1918Y211D01*
X1918Y205D01*
X1920Y205D01*
X1920Y189D01*
X1918Y189D01*
X1918Y183D01*
X1916Y183D01*
X1916Y177D01*
X1914Y177D01*
X1914Y175D01*
X1912Y175D01*
X1912Y171D01*
X1910Y171D01*
X1910Y169D01*
X1908Y169D01*
X1908Y167D01*
X1906Y167D01*
X1906Y163D01*
X1904Y163D01*
X1904Y161D01*
X1900Y161D01*
X1900Y159D01*
X1898Y159D01*
X1898Y157D01*
X1896Y157D01*
X1896Y137D01*
X1898Y137D01*
X1898Y135D01*
X1902Y135D01*
X1902Y133D01*
X1904Y133D01*
X1904Y131D01*
X1906Y131D01*
X1906Y129D01*
X1908Y129D01*
X1908Y125D01*
X1910Y125D01*
X1910Y123D01*
X1912Y123D01*
X1912Y119D01*
X1914Y119D01*
X1914Y117D01*
X1916Y117D01*
X1916Y111D01*
X1918Y111D01*
X1918Y105D01*
X1920Y105D01*
X1920Y89D01*
X1918Y89D01*
X1918Y83D01*
X1916Y83D01*
X1916Y77D01*
X1914Y77D01*
X1914Y75D01*
X1912Y75D01*
X1912Y71D01*
X1910Y71D01*
X1910Y69D01*
X1908Y69D01*
X1908Y67D01*
X1906Y67D01*
X1906Y63D01*
X1904Y63D01*
X1904Y61D01*
X1900Y61D01*
X1900Y41D01*
X2124Y41D01*
X2124Y545D01*
X1798Y545D01*
G37*
D02*
G36*
X1670Y347D02*
X1670Y345D01*
X1668Y345D01*
X1668Y343D01*
X1666Y343D01*
X1666Y341D01*
X1664Y341D01*
X1664Y339D01*
X1662Y339D01*
X1662Y319D01*
X1820Y319D01*
X1820Y347D01*
X1670Y347D01*
G37*
D02*
G36*
X642Y297D02*
X642Y289D01*
X646Y289D01*
X646Y287D01*
X648Y287D01*
X648Y285D01*
X652Y285D01*
X652Y283D01*
X654Y283D01*
X654Y281D01*
X656Y281D01*
X656Y279D01*
X658Y279D01*
X658Y275D01*
X660Y275D01*
X660Y273D01*
X680Y273D01*
X680Y277D01*
X682Y277D01*
X682Y279D01*
X684Y279D01*
X684Y281D01*
X686Y281D01*
X686Y283D01*
X688Y283D01*
X688Y285D01*
X690Y285D01*
X690Y287D01*
X694Y287D01*
X694Y289D01*
X696Y289D01*
X696Y291D01*
X700Y291D01*
X700Y293D01*
X704Y293D01*
X704Y295D01*
X710Y295D01*
X710Y297D01*
X642Y297D01*
G37*
D02*
G36*
X728Y297D02*
X728Y295D01*
X736Y295D01*
X736Y293D01*
X740Y293D01*
X740Y291D01*
X742Y291D01*
X742Y289D01*
X746Y289D01*
X746Y287D01*
X748Y287D01*
X748Y285D01*
X752Y285D01*
X752Y283D01*
X754Y283D01*
X754Y281D01*
X756Y281D01*
X756Y279D01*
X758Y279D01*
X758Y275D01*
X760Y275D01*
X760Y273D01*
X780Y273D01*
X780Y277D01*
X782Y277D01*
X782Y279D01*
X784Y279D01*
X784Y281D01*
X786Y281D01*
X786Y283D01*
X788Y283D01*
X788Y285D01*
X790Y285D01*
X790Y287D01*
X794Y287D01*
X794Y289D01*
X796Y289D01*
X796Y291D01*
X800Y291D01*
X800Y293D01*
X804Y293D01*
X804Y295D01*
X810Y295D01*
X810Y297D01*
X728Y297D01*
G37*
D02*
G36*
X828Y297D02*
X828Y295D01*
X836Y295D01*
X836Y293D01*
X840Y293D01*
X840Y291D01*
X842Y291D01*
X842Y289D01*
X846Y289D01*
X846Y287D01*
X848Y287D01*
X848Y285D01*
X870Y285D01*
X870Y297D01*
X828Y297D01*
G37*
D02*
G36*
X1528Y275D02*
X1528Y273D01*
X1526Y273D01*
X1526Y271D01*
X1524Y271D01*
X1524Y269D01*
X1522Y269D01*
X1522Y267D01*
X1520Y267D01*
X1520Y197D01*
X1820Y197D01*
X1820Y207D01*
X1822Y207D01*
X1822Y213D01*
X1824Y213D01*
X1824Y217D01*
X1826Y217D01*
X1826Y221D01*
X1828Y221D01*
X1828Y223D01*
X1830Y223D01*
X1830Y227D01*
X1832Y227D01*
X1832Y247D01*
X1820Y247D01*
X1820Y275D01*
X1528Y275D01*
G37*
D02*
G36*
X40Y247D02*
X40Y245D01*
X570Y245D01*
X570Y247D01*
X40Y247D01*
G37*
D02*
G36*
X40Y247D02*
X40Y245D01*
X570Y245D01*
X570Y247D01*
X40Y247D01*
G37*
D02*
G36*
X40Y245D02*
X40Y197D01*
X612Y197D01*
X612Y199D01*
X606Y199D01*
X606Y201D01*
X600Y201D01*
X600Y203D01*
X598Y203D01*
X598Y205D01*
X594Y205D01*
X594Y207D01*
X592Y207D01*
X592Y209D01*
X588Y209D01*
X588Y211D01*
X586Y211D01*
X586Y213D01*
X584Y213D01*
X584Y215D01*
X582Y215D01*
X582Y219D01*
X580Y219D01*
X580Y221D01*
X578Y221D01*
X578Y225D01*
X576Y225D01*
X576Y227D01*
X574Y227D01*
X574Y231D01*
X572Y231D01*
X572Y239D01*
X570Y239D01*
X570Y245D01*
X40Y245D01*
G37*
D02*
G36*
X660Y221D02*
X660Y219D01*
X658Y219D01*
X658Y217D01*
X656Y217D01*
X656Y213D01*
X654Y213D01*
X654Y211D01*
X650Y211D01*
X650Y209D01*
X648Y209D01*
X648Y207D01*
X646Y207D01*
X646Y205D01*
X642Y205D01*
X642Y203D01*
X640Y203D01*
X640Y201D01*
X634Y201D01*
X634Y199D01*
X628Y199D01*
X628Y197D01*
X712Y197D01*
X712Y199D01*
X706Y199D01*
X706Y201D01*
X700Y201D01*
X700Y203D01*
X698Y203D01*
X698Y205D01*
X694Y205D01*
X694Y207D01*
X692Y207D01*
X692Y209D01*
X688Y209D01*
X688Y211D01*
X686Y211D01*
X686Y213D01*
X684Y213D01*
X684Y215D01*
X682Y215D01*
X682Y219D01*
X680Y219D01*
X680Y221D01*
X660Y221D01*
G37*
D02*
G36*
X760Y221D02*
X760Y219D01*
X758Y219D01*
X758Y217D01*
X756Y217D01*
X756Y213D01*
X754Y213D01*
X754Y211D01*
X750Y211D01*
X750Y209D01*
X748Y209D01*
X748Y207D01*
X746Y207D01*
X746Y205D01*
X742Y205D01*
X742Y203D01*
X740Y203D01*
X740Y201D01*
X734Y201D01*
X734Y199D01*
X728Y199D01*
X728Y197D01*
X812Y197D01*
X812Y199D01*
X806Y199D01*
X806Y201D01*
X800Y201D01*
X800Y203D01*
X798Y203D01*
X798Y205D01*
X794Y205D01*
X794Y207D01*
X792Y207D01*
X792Y209D01*
X788Y209D01*
X788Y211D01*
X786Y211D01*
X786Y213D01*
X784Y213D01*
X784Y215D01*
X782Y215D01*
X782Y219D01*
X780Y219D01*
X780Y221D01*
X760Y221D01*
G37*
D02*
G36*
X1210Y221D02*
X1210Y219D01*
X1208Y219D01*
X1208Y217D01*
X1206Y217D01*
X1206Y213D01*
X1204Y213D01*
X1204Y211D01*
X1200Y211D01*
X1200Y209D01*
X1198Y209D01*
X1198Y207D01*
X1196Y207D01*
X1196Y205D01*
X1192Y205D01*
X1192Y203D01*
X1190Y203D01*
X1190Y201D01*
X1184Y201D01*
X1184Y199D01*
X1178Y199D01*
X1178Y197D01*
X1262Y197D01*
X1262Y199D01*
X1256Y199D01*
X1256Y201D01*
X1250Y201D01*
X1250Y203D01*
X1248Y203D01*
X1248Y205D01*
X1244Y205D01*
X1244Y207D01*
X1242Y207D01*
X1242Y209D01*
X1238Y209D01*
X1238Y211D01*
X1236Y211D01*
X1236Y213D01*
X1234Y213D01*
X1234Y215D01*
X1232Y215D01*
X1232Y219D01*
X1230Y219D01*
X1230Y221D01*
X1210Y221D01*
G37*
D02*
G36*
X1310Y221D02*
X1310Y219D01*
X1308Y219D01*
X1308Y217D01*
X1306Y217D01*
X1306Y213D01*
X1304Y213D01*
X1304Y211D01*
X1300Y211D01*
X1300Y209D01*
X1298Y209D01*
X1298Y207D01*
X1296Y207D01*
X1296Y205D01*
X1292Y205D01*
X1292Y203D01*
X1290Y203D01*
X1290Y201D01*
X1284Y201D01*
X1284Y199D01*
X1278Y199D01*
X1278Y197D01*
X1362Y197D01*
X1362Y199D01*
X1356Y199D01*
X1356Y201D01*
X1350Y201D01*
X1350Y203D01*
X1348Y203D01*
X1348Y205D01*
X1344Y205D01*
X1344Y207D01*
X1342Y207D01*
X1342Y209D01*
X1338Y209D01*
X1338Y211D01*
X1336Y211D01*
X1336Y213D01*
X1334Y213D01*
X1334Y215D01*
X1332Y215D01*
X1332Y219D01*
X1330Y219D01*
X1330Y221D01*
X1310Y221D01*
G37*
D02*
G36*
X850Y211D02*
X850Y209D01*
X848Y209D01*
X848Y207D01*
X846Y207D01*
X846Y205D01*
X842Y205D01*
X842Y203D01*
X840Y203D01*
X840Y201D01*
X834Y201D01*
X834Y199D01*
X828Y199D01*
X828Y197D01*
X870Y197D01*
X870Y211D01*
X850Y211D01*
G37*
D02*
G36*
X1400Y211D02*
X1400Y209D01*
X1398Y209D01*
X1398Y207D01*
X1396Y207D01*
X1396Y205D01*
X1392Y205D01*
X1392Y203D01*
X1390Y203D01*
X1390Y201D01*
X1384Y201D01*
X1384Y199D01*
X1378Y199D01*
X1378Y197D01*
X1420Y197D01*
X1420Y211D01*
X1400Y211D01*
G37*
D02*
G36*
X40Y197D02*
X40Y195D01*
X1820Y195D01*
X1820Y197D01*
X40Y197D01*
G37*
D02*
G36*
X40Y197D02*
X40Y195D01*
X1820Y195D01*
X1820Y197D01*
X40Y197D01*
G37*
D02*
G36*
X40Y197D02*
X40Y195D01*
X1820Y195D01*
X1820Y197D01*
X40Y197D01*
G37*
D02*
G36*
X40Y197D02*
X40Y195D01*
X1820Y195D01*
X1820Y197D01*
X40Y197D01*
G37*
D02*
G36*
X40Y197D02*
X40Y195D01*
X1820Y195D01*
X1820Y197D01*
X40Y197D01*
G37*
D02*
G36*
X40Y197D02*
X40Y195D01*
X1820Y195D01*
X1820Y197D01*
X40Y197D01*
G37*
D02*
G36*
X40Y197D02*
X40Y195D01*
X1820Y195D01*
X1820Y197D01*
X40Y197D01*
G37*
D02*
G36*
X40Y197D02*
X40Y195D01*
X1820Y195D01*
X1820Y197D01*
X40Y197D01*
G37*
D02*
G36*
X40Y197D02*
X40Y195D01*
X1820Y195D01*
X1820Y197D01*
X40Y197D01*
G37*
D02*
G36*
X40Y195D02*
X40Y171D01*
X272Y171D01*
X272Y169D01*
X286Y169D01*
X286Y167D01*
X292Y167D01*
X292Y165D01*
X298Y165D01*
X298Y163D01*
X302Y163D01*
X302Y161D01*
X306Y161D01*
X306Y159D01*
X308Y159D01*
X308Y157D01*
X312Y157D01*
X312Y155D01*
X314Y155D01*
X314Y153D01*
X316Y153D01*
X316Y151D01*
X320Y151D01*
X320Y149D01*
X322Y149D01*
X322Y147D01*
X324Y147D01*
X324Y143D01*
X326Y143D01*
X326Y141D01*
X328Y141D01*
X328Y139D01*
X330Y139D01*
X330Y135D01*
X332Y135D01*
X332Y133D01*
X334Y133D01*
X334Y129D01*
X336Y129D01*
X336Y125D01*
X338Y125D01*
X338Y119D01*
X340Y119D01*
X340Y113D01*
X342Y113D01*
X342Y81D01*
X340Y81D01*
X340Y75D01*
X338Y75D01*
X338Y69D01*
X336Y69D01*
X336Y65D01*
X334Y65D01*
X334Y61D01*
X332Y61D01*
X332Y41D01*
X1838Y41D01*
X1838Y61D01*
X1836Y61D01*
X1836Y63D01*
X1834Y63D01*
X1834Y65D01*
X1832Y65D01*
X1832Y69D01*
X1830Y69D01*
X1830Y71D01*
X1828Y71D01*
X1828Y75D01*
X1826Y75D01*
X1826Y77D01*
X1824Y77D01*
X1824Y81D01*
X1822Y81D01*
X1822Y89D01*
X1820Y89D01*
X1820Y107D01*
X1822Y107D01*
X1822Y113D01*
X1824Y113D01*
X1824Y117D01*
X1826Y117D01*
X1826Y121D01*
X1828Y121D01*
X1828Y123D01*
X1830Y123D01*
X1830Y127D01*
X1832Y127D01*
X1832Y129D01*
X1834Y129D01*
X1834Y131D01*
X1836Y131D01*
X1836Y133D01*
X1838Y133D01*
X1838Y135D01*
X1840Y135D01*
X1840Y137D01*
X1844Y137D01*
X1844Y157D01*
X1842Y157D01*
X1842Y159D01*
X1838Y159D01*
X1838Y161D01*
X1836Y161D01*
X1836Y163D01*
X1834Y163D01*
X1834Y165D01*
X1832Y165D01*
X1832Y169D01*
X1830Y169D01*
X1830Y171D01*
X1828Y171D01*
X1828Y175D01*
X1826Y175D01*
X1826Y177D01*
X1824Y177D01*
X1824Y181D01*
X1822Y181D01*
X1822Y189D01*
X1820Y189D01*
X1820Y195D01*
X40Y195D01*
G37*
D02*
G36*
X40Y171D02*
X40Y41D01*
X208Y41D01*
X208Y61D01*
X206Y61D01*
X206Y65D01*
X204Y65D01*
X204Y69D01*
X202Y69D01*
X202Y75D01*
X200Y75D01*
X200Y81D01*
X198Y81D01*
X198Y95D01*
X196Y95D01*
X196Y99D01*
X198Y99D01*
X198Y113D01*
X200Y113D01*
X200Y121D01*
X202Y121D01*
X202Y125D01*
X204Y125D01*
X204Y129D01*
X206Y129D01*
X206Y133D01*
X208Y133D01*
X208Y137D01*
X210Y137D01*
X210Y139D01*
X212Y139D01*
X212Y141D01*
X214Y141D01*
X214Y145D01*
X216Y145D01*
X216Y147D01*
X218Y147D01*
X218Y149D01*
X220Y149D01*
X220Y151D01*
X222Y151D01*
X222Y153D01*
X226Y153D01*
X226Y155D01*
X228Y155D01*
X228Y157D01*
X230Y157D01*
X230Y159D01*
X234Y159D01*
X234Y161D01*
X238Y161D01*
X238Y163D01*
X242Y163D01*
X242Y165D01*
X246Y165D01*
X246Y167D01*
X254Y167D01*
X254Y169D01*
X268Y169D01*
X268Y171D01*
X40Y171D01*
G37*
D02*
G36*
X1278Y475D02*
X1278Y473D01*
X1276Y473D01*
X1276Y471D01*
X1274Y471D01*
X1274Y469D01*
X1272Y469D01*
X1272Y467D01*
X1270Y467D01*
X1270Y465D01*
X1268Y465D01*
X1268Y463D01*
X1266Y463D01*
X1266Y461D01*
X1264Y461D01*
X1264Y459D01*
X1262Y459D01*
X1262Y457D01*
X1260Y457D01*
X1260Y455D01*
X1258Y455D01*
X1258Y453D01*
X1256Y453D01*
X1256Y451D01*
X1254Y451D01*
X1254Y449D01*
X1252Y449D01*
X1252Y447D01*
X1250Y447D01*
X1250Y445D01*
X1248Y445D01*
X1248Y443D01*
X1246Y443D01*
X1246Y441D01*
X1244Y441D01*
X1244Y439D01*
X1242Y439D01*
X1242Y437D01*
X1240Y437D01*
X1240Y435D01*
X1238Y435D01*
X1238Y433D01*
X1236Y433D01*
X1236Y431D01*
X1234Y431D01*
X1234Y429D01*
X1232Y429D01*
X1232Y427D01*
X1230Y427D01*
X1230Y425D01*
X1228Y425D01*
X1228Y423D01*
X1226Y423D01*
X1226Y421D01*
X1224Y421D01*
X1224Y419D01*
X1222Y419D01*
X1222Y417D01*
X1220Y417D01*
X1220Y415D01*
X1218Y415D01*
X1218Y413D01*
X1216Y413D01*
X1216Y411D01*
X1214Y411D01*
X1214Y409D01*
X1212Y409D01*
X1212Y407D01*
X1210Y407D01*
X1210Y405D01*
X1208Y405D01*
X1208Y403D01*
X1206Y403D01*
X1206Y401D01*
X1204Y401D01*
X1204Y399D01*
X1202Y399D01*
X1202Y397D01*
X1200Y397D01*
X1200Y395D01*
X1198Y395D01*
X1198Y393D01*
X1194Y393D01*
X1194Y391D01*
X1192Y391D01*
X1192Y297D01*
X1378Y297D01*
X1378Y295D01*
X1386Y295D01*
X1386Y293D01*
X1390Y293D01*
X1390Y291D01*
X1392Y291D01*
X1392Y289D01*
X1396Y289D01*
X1396Y287D01*
X1398Y287D01*
X1398Y285D01*
X1420Y285D01*
X1420Y297D01*
X1490Y297D01*
X1490Y299D01*
X1492Y299D01*
X1492Y301D01*
X1494Y301D01*
X1494Y303D01*
X1496Y303D01*
X1496Y305D01*
X1498Y305D01*
X1498Y307D01*
X1500Y307D01*
X1500Y309D01*
X1502Y309D01*
X1502Y311D01*
X1504Y311D01*
X1504Y313D01*
X1506Y313D01*
X1506Y315D01*
X1510Y315D01*
X1510Y317D01*
X1514Y317D01*
X1514Y319D01*
X1578Y319D01*
X1578Y339D01*
X1576Y339D01*
X1576Y341D01*
X1574Y341D01*
X1574Y343D01*
X1570Y343D01*
X1570Y345D01*
X1568Y345D01*
X1568Y347D01*
X1566Y347D01*
X1566Y351D01*
X1564Y351D01*
X1564Y353D01*
X1562Y353D01*
X1562Y355D01*
X1560Y355D01*
X1560Y359D01*
X1558Y359D01*
X1558Y361D01*
X1556Y361D01*
X1556Y365D01*
X1554Y365D01*
X1554Y369D01*
X1552Y369D01*
X1552Y375D01*
X1550Y375D01*
X1550Y381D01*
X1548Y381D01*
X1548Y395D01*
X1546Y395D01*
X1546Y399D01*
X1548Y399D01*
X1548Y413D01*
X1550Y413D01*
X1550Y421D01*
X1552Y421D01*
X1552Y425D01*
X1554Y425D01*
X1554Y429D01*
X1556Y429D01*
X1556Y433D01*
X1558Y433D01*
X1558Y437D01*
X1560Y437D01*
X1560Y439D01*
X1562Y439D01*
X1562Y441D01*
X1564Y441D01*
X1564Y445D01*
X1566Y445D01*
X1566Y447D01*
X1568Y447D01*
X1568Y449D01*
X1570Y449D01*
X1570Y451D01*
X1572Y451D01*
X1572Y453D01*
X1576Y453D01*
X1576Y455D01*
X1578Y455D01*
X1578Y475D01*
X1278Y475D01*
G37*
D02*
G36*
X1192Y297D02*
X1192Y289D01*
X1196Y289D01*
X1196Y287D01*
X1198Y287D01*
X1198Y285D01*
X1202Y285D01*
X1202Y283D01*
X1204Y283D01*
X1204Y281D01*
X1206Y281D01*
X1206Y279D01*
X1208Y279D01*
X1208Y275D01*
X1210Y275D01*
X1210Y273D01*
X1230Y273D01*
X1230Y277D01*
X1232Y277D01*
X1232Y279D01*
X1234Y279D01*
X1234Y281D01*
X1236Y281D01*
X1236Y283D01*
X1238Y283D01*
X1238Y285D01*
X1240Y285D01*
X1240Y287D01*
X1244Y287D01*
X1244Y289D01*
X1246Y289D01*
X1246Y291D01*
X1250Y291D01*
X1250Y293D01*
X1254Y293D01*
X1254Y295D01*
X1260Y295D01*
X1260Y297D01*
X1192Y297D01*
G37*
D02*
G36*
X1278Y297D02*
X1278Y295D01*
X1286Y295D01*
X1286Y293D01*
X1290Y293D01*
X1290Y291D01*
X1292Y291D01*
X1292Y289D01*
X1296Y289D01*
X1296Y287D01*
X1298Y287D01*
X1298Y285D01*
X1302Y285D01*
X1302Y283D01*
X1304Y283D01*
X1304Y281D01*
X1306Y281D01*
X1306Y279D01*
X1308Y279D01*
X1308Y275D01*
X1310Y275D01*
X1310Y273D01*
X1330Y273D01*
X1330Y277D01*
X1332Y277D01*
X1332Y279D01*
X1334Y279D01*
X1334Y281D01*
X1336Y281D01*
X1336Y283D01*
X1338Y283D01*
X1338Y285D01*
X1340Y285D01*
X1340Y287D01*
X1344Y287D01*
X1344Y289D01*
X1346Y289D01*
X1346Y291D01*
X1350Y291D01*
X1350Y293D01*
X1354Y293D01*
X1354Y295D01*
X1360Y295D01*
X1360Y297D01*
X1278Y297D01*
G37*
D02*
G36*
X266Y422D02*
X298Y422D01*
X298Y377D01*
X266Y377D01*
X266Y422D01*
G37*
D02*
G36*
X795Y301D02*
X840Y301D01*
X840Y269D01*
X795Y269D01*
X795Y301D01*
G37*
D02*
G36*
X1895Y651D02*
X1940Y651D01*
X1940Y619D01*
X1895Y619D01*
X1895Y651D01*
G37*
D02*
G36*
X1345Y651D02*
X1390Y651D01*
X1390Y619D01*
X1345Y619D01*
X1345Y651D01*
G37*
D02*
G36*
X795Y651D02*
X840Y651D01*
X840Y619D01*
X795Y619D01*
X795Y651D01*
G37*
D02*
G36*
X1345Y301D02*
X1390Y301D01*
X1390Y269D01*
X1345Y269D01*
X1345Y301D01*
G37*
D02*
G04 End of Copper0*
M02*