G04 MADE WITH FRITZING*
G04 WWW.FRITZING.ORG*
G04 DOUBLE SIDED*
G04 HOLES PLATED*
G04 CONTOUR ON CENTER OF CONTOUR VECTOR*
%ASAXBY*%
%FSLAX23Y23*%
%MOIN*%
%OFA0B0*%
%SFA1.0B1.0*%
%ADD10C,0.075000*%
%ADD11C,0.080000*%
%ADD12R,0.080000X0.080000*%
%ADD13C,0.024000*%
%LNCOPPER1*%
G90*
G70*
G54D10*
X107Y691D03*
X712Y475D03*
X1262Y475D03*
G54D11*
X2020Y597D03*
X1920Y597D03*
X1820Y597D03*
X1720Y597D03*
X1470Y247D03*
X1370Y247D03*
X1270Y247D03*
X1170Y247D03*
X1470Y597D03*
X1370Y597D03*
X1270Y597D03*
X1170Y597D03*
X920Y247D03*
X820Y247D03*
X720Y247D03*
X620Y247D03*
X920Y597D03*
X820Y597D03*
X720Y597D03*
X620Y597D03*
X320Y297D03*
X320Y397D03*
X320Y497D03*
X1870Y297D03*
X1870Y197D03*
X1870Y97D03*
G54D12*
X2020Y597D03*
X1470Y247D03*
X1470Y597D03*
X920Y247D03*
X920Y597D03*
X320Y297D03*
X1870Y297D03*
G54D13*
X620Y566D02*
X620Y448D01*
D02*
X620Y448D02*
X720Y347D01*
D02*
X720Y347D02*
X720Y279D01*
D02*
X1270Y347D02*
X1270Y279D01*
D02*
X1169Y448D02*
X1270Y347D01*
D02*
X1170Y566D02*
X1169Y448D01*
D02*
X1720Y248D02*
X1720Y566D01*
D02*
X1848Y120D02*
X1720Y248D01*
D02*
X820Y279D02*
X820Y566D01*
D02*
X920Y279D02*
X920Y566D01*
D02*
X1370Y279D02*
X1370Y566D01*
D02*
X1470Y279D02*
X1470Y566D01*
D02*
X1870Y448D02*
X1998Y575D01*
D02*
X1870Y329D02*
X1870Y448D01*
D02*
X769Y97D02*
X1320Y97D01*
D02*
X1320Y97D02*
X1448Y225D01*
D02*
X769Y97D02*
X898Y226D01*
D02*
X519Y97D02*
X769Y97D01*
D02*
X342Y275D02*
X519Y97D01*
G36*
X40Y747D02*
X40Y625D01*
X254Y625D01*
X254Y627D01*
X248Y627D01*
X248Y629D01*
X242Y629D01*
X242Y631D01*
X238Y631D01*
X238Y633D01*
X234Y633D01*
X234Y635D01*
X232Y635D01*
X232Y637D01*
X228Y637D01*
X228Y639D01*
X226Y639D01*
X226Y641D01*
X224Y641D01*
X224Y643D01*
X220Y643D01*
X220Y645D01*
X218Y645D01*
X218Y647D01*
X216Y647D01*
X216Y651D01*
X214Y651D01*
X214Y653D01*
X212Y653D01*
X212Y655D01*
X210Y655D01*
X210Y659D01*
X208Y659D01*
X208Y661D01*
X206Y661D01*
X206Y665D01*
X204Y665D01*
X204Y669D01*
X202Y669D01*
X202Y675D01*
X200Y675D01*
X200Y681D01*
X198Y681D01*
X198Y695D01*
X196Y695D01*
X196Y699D01*
X198Y699D01*
X198Y713D01*
X200Y713D01*
X200Y721D01*
X202Y721D01*
X202Y725D01*
X204Y725D01*
X204Y747D01*
X40Y747D01*
G37*
D02*
G36*
X336Y747D02*
X336Y725D01*
X338Y725D01*
X338Y719D01*
X340Y719D01*
X340Y713D01*
X342Y713D01*
X342Y681D01*
X340Y681D01*
X340Y675D01*
X338Y675D01*
X338Y669D01*
X336Y669D01*
X336Y665D01*
X334Y665D01*
X334Y661D01*
X332Y661D01*
X332Y659D01*
X330Y659D01*
X330Y655D01*
X328Y655D01*
X328Y653D01*
X326Y653D01*
X326Y651D01*
X324Y651D01*
X324Y649D01*
X322Y649D01*
X322Y647D01*
X2070Y647D01*
X2070Y547D01*
X2000Y547D01*
X2000Y545D01*
X1998Y545D01*
X1998Y543D01*
X1996Y543D01*
X1996Y541D01*
X1994Y541D01*
X1994Y539D01*
X1992Y539D01*
X1992Y537D01*
X1990Y537D01*
X1990Y535D01*
X1988Y535D01*
X1988Y533D01*
X1986Y533D01*
X1986Y531D01*
X1984Y531D01*
X1984Y529D01*
X1982Y529D01*
X1982Y527D01*
X1980Y527D01*
X1980Y525D01*
X1978Y525D01*
X1978Y523D01*
X1976Y523D01*
X1976Y521D01*
X1974Y521D01*
X1974Y519D01*
X1972Y519D01*
X1972Y517D01*
X1970Y517D01*
X1970Y515D01*
X1968Y515D01*
X1968Y513D01*
X1966Y513D01*
X1966Y511D01*
X1964Y511D01*
X1964Y509D01*
X1962Y509D01*
X1962Y507D01*
X1960Y507D01*
X1960Y505D01*
X1958Y505D01*
X1958Y503D01*
X1956Y503D01*
X1956Y501D01*
X1954Y501D01*
X1954Y499D01*
X1952Y499D01*
X1952Y497D01*
X1950Y497D01*
X1950Y495D01*
X1948Y495D01*
X1948Y493D01*
X1946Y493D01*
X1946Y491D01*
X1944Y491D01*
X1944Y489D01*
X1942Y489D01*
X1942Y487D01*
X1940Y487D01*
X1940Y485D01*
X1938Y485D01*
X1938Y483D01*
X1936Y483D01*
X1936Y481D01*
X1934Y481D01*
X1934Y479D01*
X1932Y479D01*
X1932Y477D01*
X1930Y477D01*
X1930Y475D01*
X1928Y475D01*
X1928Y473D01*
X1926Y473D01*
X1926Y471D01*
X1924Y471D01*
X1924Y469D01*
X1922Y469D01*
X1922Y467D01*
X1920Y467D01*
X1920Y465D01*
X1918Y465D01*
X1918Y463D01*
X1916Y463D01*
X1916Y461D01*
X1914Y461D01*
X1914Y459D01*
X1912Y459D01*
X1912Y457D01*
X1910Y457D01*
X1910Y455D01*
X1908Y455D01*
X1908Y453D01*
X1906Y453D01*
X1906Y451D01*
X1904Y451D01*
X1904Y449D01*
X1902Y449D01*
X1902Y447D01*
X1900Y447D01*
X1900Y445D01*
X1898Y445D01*
X1898Y443D01*
X1896Y443D01*
X1896Y441D01*
X1894Y441D01*
X1894Y439D01*
X1892Y439D01*
X1892Y347D01*
X1920Y347D01*
X1920Y247D01*
X1908Y247D01*
X1908Y225D01*
X1910Y225D01*
X1910Y223D01*
X1912Y223D01*
X1912Y219D01*
X1914Y219D01*
X1914Y217D01*
X1916Y217D01*
X1916Y211D01*
X1918Y211D01*
X1918Y205D01*
X1920Y205D01*
X1920Y189D01*
X1918Y189D01*
X1918Y183D01*
X1916Y183D01*
X1916Y177D01*
X1914Y177D01*
X1914Y175D01*
X1912Y175D01*
X1912Y171D01*
X1910Y171D01*
X1910Y169D01*
X1908Y169D01*
X1908Y167D01*
X1906Y167D01*
X1906Y163D01*
X1904Y163D01*
X1904Y161D01*
X1900Y161D01*
X1900Y159D01*
X1898Y159D01*
X1898Y157D01*
X1896Y157D01*
X1896Y137D01*
X1898Y137D01*
X1898Y135D01*
X1902Y135D01*
X1902Y133D01*
X1904Y133D01*
X1904Y131D01*
X1906Y131D01*
X1906Y129D01*
X1908Y129D01*
X1908Y125D01*
X1910Y125D01*
X1910Y123D01*
X1912Y123D01*
X1912Y119D01*
X1914Y119D01*
X1914Y117D01*
X1916Y117D01*
X1916Y111D01*
X1918Y111D01*
X1918Y105D01*
X1920Y105D01*
X1920Y89D01*
X1918Y89D01*
X1918Y83D01*
X1916Y83D01*
X1916Y77D01*
X1914Y77D01*
X1914Y75D01*
X1912Y75D01*
X1912Y71D01*
X1910Y71D01*
X1910Y69D01*
X1908Y69D01*
X1908Y67D01*
X1906Y67D01*
X1906Y63D01*
X1904Y63D01*
X1904Y61D01*
X1900Y61D01*
X1900Y41D01*
X2124Y41D01*
X2124Y747D01*
X336Y747D01*
G37*
D02*
G36*
X320Y647D02*
X320Y645D01*
X318Y645D01*
X318Y643D01*
X316Y643D01*
X316Y641D01*
X314Y641D01*
X314Y639D01*
X312Y639D01*
X312Y637D01*
X308Y637D01*
X308Y635D01*
X306Y635D01*
X306Y633D01*
X302Y633D01*
X302Y631D01*
X298Y631D01*
X298Y629D01*
X292Y629D01*
X292Y627D01*
X286Y627D01*
X286Y625D01*
X580Y625D01*
X580Y627D01*
X582Y627D01*
X582Y629D01*
X584Y629D01*
X584Y631D01*
X586Y631D01*
X586Y633D01*
X588Y633D01*
X588Y635D01*
X590Y635D01*
X590Y637D01*
X594Y637D01*
X594Y639D01*
X596Y639D01*
X596Y641D01*
X600Y641D01*
X600Y643D01*
X604Y643D01*
X604Y645D01*
X610Y645D01*
X610Y647D01*
X320Y647D01*
G37*
D02*
G36*
X628Y647D02*
X628Y645D01*
X636Y645D01*
X636Y643D01*
X640Y643D01*
X640Y641D01*
X642Y641D01*
X642Y639D01*
X646Y639D01*
X646Y637D01*
X648Y637D01*
X648Y635D01*
X652Y635D01*
X652Y633D01*
X654Y633D01*
X654Y631D01*
X656Y631D01*
X656Y629D01*
X658Y629D01*
X658Y625D01*
X660Y625D01*
X660Y623D01*
X680Y623D01*
X680Y627D01*
X682Y627D01*
X682Y629D01*
X684Y629D01*
X684Y631D01*
X686Y631D01*
X686Y633D01*
X688Y633D01*
X688Y635D01*
X690Y635D01*
X690Y637D01*
X694Y637D01*
X694Y639D01*
X696Y639D01*
X696Y641D01*
X700Y641D01*
X700Y643D01*
X704Y643D01*
X704Y645D01*
X710Y645D01*
X710Y647D01*
X628Y647D01*
G37*
D02*
G36*
X728Y647D02*
X728Y645D01*
X736Y645D01*
X736Y643D01*
X740Y643D01*
X740Y641D01*
X742Y641D01*
X742Y639D01*
X746Y639D01*
X746Y637D01*
X748Y637D01*
X748Y635D01*
X752Y635D01*
X752Y633D01*
X754Y633D01*
X754Y631D01*
X756Y631D01*
X756Y629D01*
X758Y629D01*
X758Y625D01*
X760Y625D01*
X760Y623D01*
X780Y623D01*
X780Y627D01*
X782Y627D01*
X782Y629D01*
X784Y629D01*
X784Y631D01*
X786Y631D01*
X786Y633D01*
X788Y633D01*
X788Y635D01*
X790Y635D01*
X790Y637D01*
X794Y637D01*
X794Y639D01*
X796Y639D01*
X796Y641D01*
X800Y641D01*
X800Y643D01*
X804Y643D01*
X804Y645D01*
X810Y645D01*
X810Y647D01*
X728Y647D01*
G37*
D02*
G36*
X828Y647D02*
X828Y645D01*
X836Y645D01*
X836Y643D01*
X840Y643D01*
X840Y641D01*
X842Y641D01*
X842Y639D01*
X846Y639D01*
X846Y637D01*
X848Y637D01*
X848Y635D01*
X870Y635D01*
X870Y647D01*
X828Y647D01*
G37*
D02*
G36*
X970Y647D02*
X970Y547D01*
X942Y547D01*
X942Y297D01*
X1178Y297D01*
X1178Y295D01*
X1186Y295D01*
X1186Y293D01*
X1190Y293D01*
X1190Y291D01*
X1192Y291D01*
X1192Y289D01*
X1196Y289D01*
X1196Y287D01*
X1198Y287D01*
X1198Y285D01*
X1202Y285D01*
X1202Y283D01*
X1204Y283D01*
X1204Y281D01*
X1206Y281D01*
X1206Y279D01*
X1208Y279D01*
X1208Y275D01*
X1210Y275D01*
X1210Y273D01*
X1230Y273D01*
X1230Y277D01*
X1232Y277D01*
X1232Y279D01*
X1234Y279D01*
X1234Y281D01*
X1236Y281D01*
X1236Y283D01*
X1238Y283D01*
X1238Y285D01*
X1240Y285D01*
X1240Y287D01*
X1244Y287D01*
X1244Y289D01*
X1246Y289D01*
X1246Y291D01*
X1248Y291D01*
X1248Y339D01*
X1246Y339D01*
X1246Y341D01*
X1244Y341D01*
X1244Y343D01*
X1242Y343D01*
X1242Y345D01*
X1240Y345D01*
X1240Y347D01*
X1238Y347D01*
X1238Y349D01*
X1236Y349D01*
X1236Y351D01*
X1234Y351D01*
X1234Y353D01*
X1232Y353D01*
X1232Y355D01*
X1230Y355D01*
X1230Y357D01*
X1228Y357D01*
X1228Y359D01*
X1226Y359D01*
X1226Y361D01*
X1224Y361D01*
X1224Y363D01*
X1222Y363D01*
X1222Y365D01*
X1220Y365D01*
X1220Y367D01*
X1218Y367D01*
X1218Y369D01*
X1216Y369D01*
X1216Y371D01*
X1214Y371D01*
X1214Y373D01*
X1212Y373D01*
X1212Y375D01*
X1210Y375D01*
X1210Y377D01*
X1208Y377D01*
X1208Y379D01*
X1206Y379D01*
X1206Y381D01*
X1204Y381D01*
X1204Y383D01*
X1202Y383D01*
X1202Y385D01*
X1200Y385D01*
X1200Y387D01*
X1198Y387D01*
X1198Y389D01*
X1196Y389D01*
X1196Y391D01*
X1194Y391D01*
X1194Y393D01*
X1192Y393D01*
X1192Y395D01*
X1190Y395D01*
X1190Y397D01*
X1188Y397D01*
X1188Y399D01*
X1186Y399D01*
X1186Y401D01*
X1184Y401D01*
X1184Y403D01*
X1182Y403D01*
X1182Y405D01*
X1180Y405D01*
X1180Y407D01*
X1178Y407D01*
X1178Y409D01*
X1176Y409D01*
X1176Y411D01*
X1174Y411D01*
X1174Y413D01*
X1172Y413D01*
X1172Y415D01*
X1170Y415D01*
X1170Y417D01*
X1168Y417D01*
X1168Y419D01*
X1166Y419D01*
X1166Y421D01*
X1164Y421D01*
X1164Y423D01*
X1162Y423D01*
X1162Y425D01*
X1160Y425D01*
X1160Y427D01*
X1158Y427D01*
X1158Y429D01*
X1156Y429D01*
X1156Y431D01*
X1154Y431D01*
X1154Y433D01*
X1152Y433D01*
X1152Y435D01*
X1150Y435D01*
X1150Y439D01*
X1148Y439D01*
X1148Y555D01*
X1144Y555D01*
X1144Y557D01*
X1142Y557D01*
X1142Y559D01*
X1138Y559D01*
X1138Y561D01*
X1136Y561D01*
X1136Y563D01*
X1134Y563D01*
X1134Y565D01*
X1132Y565D01*
X1132Y569D01*
X1130Y569D01*
X1130Y571D01*
X1128Y571D01*
X1128Y575D01*
X1126Y575D01*
X1126Y577D01*
X1124Y577D01*
X1124Y581D01*
X1122Y581D01*
X1122Y589D01*
X1120Y589D01*
X1120Y607D01*
X1122Y607D01*
X1122Y613D01*
X1124Y613D01*
X1124Y617D01*
X1126Y617D01*
X1126Y621D01*
X1128Y621D01*
X1128Y623D01*
X1130Y623D01*
X1130Y627D01*
X1132Y627D01*
X1132Y629D01*
X1134Y629D01*
X1134Y631D01*
X1136Y631D01*
X1136Y633D01*
X1138Y633D01*
X1138Y635D01*
X1140Y635D01*
X1140Y637D01*
X1144Y637D01*
X1144Y639D01*
X1146Y639D01*
X1146Y641D01*
X1150Y641D01*
X1150Y643D01*
X1154Y643D01*
X1154Y645D01*
X1160Y645D01*
X1160Y647D01*
X970Y647D01*
G37*
D02*
G36*
X1178Y647D02*
X1178Y645D01*
X1186Y645D01*
X1186Y643D01*
X1190Y643D01*
X1190Y641D01*
X1192Y641D01*
X1192Y639D01*
X1196Y639D01*
X1196Y637D01*
X1198Y637D01*
X1198Y635D01*
X1202Y635D01*
X1202Y633D01*
X1204Y633D01*
X1204Y631D01*
X1206Y631D01*
X1206Y629D01*
X1208Y629D01*
X1208Y625D01*
X1210Y625D01*
X1210Y623D01*
X1230Y623D01*
X1230Y627D01*
X1232Y627D01*
X1232Y629D01*
X1234Y629D01*
X1234Y631D01*
X1236Y631D01*
X1236Y633D01*
X1238Y633D01*
X1238Y635D01*
X1240Y635D01*
X1240Y637D01*
X1244Y637D01*
X1244Y639D01*
X1246Y639D01*
X1246Y641D01*
X1250Y641D01*
X1250Y643D01*
X1254Y643D01*
X1254Y645D01*
X1260Y645D01*
X1260Y647D01*
X1178Y647D01*
G37*
D02*
G36*
X1278Y647D02*
X1278Y645D01*
X1286Y645D01*
X1286Y643D01*
X1290Y643D01*
X1290Y641D01*
X1292Y641D01*
X1292Y639D01*
X1296Y639D01*
X1296Y637D01*
X1298Y637D01*
X1298Y635D01*
X1302Y635D01*
X1302Y633D01*
X1304Y633D01*
X1304Y631D01*
X1306Y631D01*
X1306Y629D01*
X1308Y629D01*
X1308Y625D01*
X1310Y625D01*
X1310Y623D01*
X1330Y623D01*
X1330Y627D01*
X1332Y627D01*
X1332Y629D01*
X1334Y629D01*
X1334Y631D01*
X1336Y631D01*
X1336Y633D01*
X1338Y633D01*
X1338Y635D01*
X1340Y635D01*
X1340Y637D01*
X1344Y637D01*
X1344Y639D01*
X1346Y639D01*
X1346Y641D01*
X1350Y641D01*
X1350Y643D01*
X1354Y643D01*
X1354Y645D01*
X1360Y645D01*
X1360Y647D01*
X1278Y647D01*
G37*
D02*
G36*
X1378Y647D02*
X1378Y645D01*
X1386Y645D01*
X1386Y643D01*
X1390Y643D01*
X1390Y641D01*
X1392Y641D01*
X1392Y639D01*
X1396Y639D01*
X1396Y637D01*
X1398Y637D01*
X1398Y635D01*
X1420Y635D01*
X1420Y647D01*
X1378Y647D01*
G37*
D02*
G36*
X1520Y647D02*
X1520Y547D01*
X1492Y547D01*
X1492Y471D01*
X1622Y471D01*
X1622Y469D01*
X1636Y469D01*
X1636Y467D01*
X1642Y467D01*
X1642Y465D01*
X1648Y465D01*
X1648Y463D01*
X1652Y463D01*
X1652Y461D01*
X1656Y461D01*
X1656Y459D01*
X1658Y459D01*
X1658Y457D01*
X1662Y457D01*
X1662Y455D01*
X1664Y455D01*
X1664Y453D01*
X1666Y453D01*
X1666Y451D01*
X1670Y451D01*
X1670Y449D01*
X1672Y449D01*
X1672Y447D01*
X1674Y447D01*
X1674Y443D01*
X1676Y443D01*
X1676Y441D01*
X1678Y441D01*
X1678Y439D01*
X1698Y439D01*
X1698Y555D01*
X1694Y555D01*
X1694Y557D01*
X1692Y557D01*
X1692Y559D01*
X1688Y559D01*
X1688Y561D01*
X1686Y561D01*
X1686Y563D01*
X1684Y563D01*
X1684Y565D01*
X1682Y565D01*
X1682Y569D01*
X1680Y569D01*
X1680Y571D01*
X1678Y571D01*
X1678Y575D01*
X1676Y575D01*
X1676Y577D01*
X1674Y577D01*
X1674Y581D01*
X1672Y581D01*
X1672Y589D01*
X1670Y589D01*
X1670Y607D01*
X1672Y607D01*
X1672Y613D01*
X1674Y613D01*
X1674Y617D01*
X1676Y617D01*
X1676Y621D01*
X1678Y621D01*
X1678Y623D01*
X1680Y623D01*
X1680Y627D01*
X1682Y627D01*
X1682Y629D01*
X1684Y629D01*
X1684Y631D01*
X1686Y631D01*
X1686Y633D01*
X1688Y633D01*
X1688Y635D01*
X1690Y635D01*
X1690Y637D01*
X1694Y637D01*
X1694Y639D01*
X1696Y639D01*
X1696Y641D01*
X1700Y641D01*
X1700Y643D01*
X1704Y643D01*
X1704Y645D01*
X1710Y645D01*
X1710Y647D01*
X1520Y647D01*
G37*
D02*
G36*
X1728Y647D02*
X1728Y645D01*
X1736Y645D01*
X1736Y643D01*
X1740Y643D01*
X1740Y641D01*
X1742Y641D01*
X1742Y639D01*
X1746Y639D01*
X1746Y637D01*
X1748Y637D01*
X1748Y635D01*
X1752Y635D01*
X1752Y633D01*
X1754Y633D01*
X1754Y631D01*
X1756Y631D01*
X1756Y629D01*
X1758Y629D01*
X1758Y625D01*
X1760Y625D01*
X1760Y623D01*
X1780Y623D01*
X1780Y627D01*
X1782Y627D01*
X1782Y629D01*
X1784Y629D01*
X1784Y631D01*
X1786Y631D01*
X1786Y633D01*
X1788Y633D01*
X1788Y635D01*
X1790Y635D01*
X1790Y637D01*
X1794Y637D01*
X1794Y639D01*
X1796Y639D01*
X1796Y641D01*
X1800Y641D01*
X1800Y643D01*
X1804Y643D01*
X1804Y645D01*
X1810Y645D01*
X1810Y647D01*
X1728Y647D01*
G37*
D02*
G36*
X1828Y647D02*
X1828Y645D01*
X1836Y645D01*
X1836Y643D01*
X1840Y643D01*
X1840Y641D01*
X1842Y641D01*
X1842Y639D01*
X1846Y639D01*
X1846Y637D01*
X1848Y637D01*
X1848Y635D01*
X1852Y635D01*
X1852Y633D01*
X1854Y633D01*
X1854Y631D01*
X1856Y631D01*
X1856Y629D01*
X1858Y629D01*
X1858Y625D01*
X1860Y625D01*
X1860Y623D01*
X1880Y623D01*
X1880Y627D01*
X1882Y627D01*
X1882Y629D01*
X1884Y629D01*
X1884Y631D01*
X1886Y631D01*
X1886Y633D01*
X1888Y633D01*
X1888Y635D01*
X1890Y635D01*
X1890Y637D01*
X1894Y637D01*
X1894Y639D01*
X1896Y639D01*
X1896Y641D01*
X1900Y641D01*
X1900Y643D01*
X1904Y643D01*
X1904Y645D01*
X1910Y645D01*
X1910Y647D01*
X1828Y647D01*
G37*
D02*
G36*
X1928Y647D02*
X1928Y645D01*
X1936Y645D01*
X1936Y643D01*
X1940Y643D01*
X1940Y641D01*
X1942Y641D01*
X1942Y639D01*
X1946Y639D01*
X1946Y637D01*
X1948Y637D01*
X1948Y635D01*
X1970Y635D01*
X1970Y647D01*
X1928Y647D01*
G37*
D02*
G36*
X40Y625D02*
X40Y623D01*
X580Y623D01*
X580Y625D01*
X40Y625D01*
G37*
D02*
G36*
X40Y625D02*
X40Y623D01*
X580Y623D01*
X580Y625D01*
X40Y625D01*
G37*
D02*
G36*
X40Y623D02*
X40Y547D01*
X328Y547D01*
X328Y545D01*
X336Y545D01*
X336Y543D01*
X340Y543D01*
X340Y541D01*
X342Y541D01*
X342Y539D01*
X346Y539D01*
X346Y537D01*
X348Y537D01*
X348Y535D01*
X352Y535D01*
X352Y533D01*
X354Y533D01*
X354Y531D01*
X356Y531D01*
X356Y529D01*
X358Y529D01*
X358Y525D01*
X360Y525D01*
X360Y523D01*
X362Y523D01*
X362Y519D01*
X364Y519D01*
X364Y517D01*
X366Y517D01*
X366Y511D01*
X368Y511D01*
X368Y505D01*
X370Y505D01*
X370Y489D01*
X368Y489D01*
X368Y483D01*
X366Y483D01*
X366Y477D01*
X364Y477D01*
X364Y475D01*
X362Y475D01*
X362Y471D01*
X360Y471D01*
X360Y469D01*
X358Y469D01*
X358Y467D01*
X356Y467D01*
X356Y463D01*
X354Y463D01*
X354Y461D01*
X350Y461D01*
X350Y459D01*
X348Y459D01*
X348Y457D01*
X346Y457D01*
X346Y437D01*
X348Y437D01*
X348Y435D01*
X352Y435D01*
X352Y433D01*
X354Y433D01*
X354Y431D01*
X356Y431D01*
X356Y429D01*
X358Y429D01*
X358Y425D01*
X360Y425D01*
X360Y423D01*
X362Y423D01*
X362Y419D01*
X364Y419D01*
X364Y417D01*
X366Y417D01*
X366Y411D01*
X368Y411D01*
X368Y405D01*
X370Y405D01*
X370Y389D01*
X368Y389D01*
X368Y383D01*
X366Y383D01*
X366Y377D01*
X364Y377D01*
X364Y375D01*
X362Y375D01*
X362Y371D01*
X360Y371D01*
X360Y369D01*
X358Y369D01*
X358Y367D01*
X356Y367D01*
X356Y347D01*
X370Y347D01*
X370Y297D01*
X628Y297D01*
X628Y295D01*
X636Y295D01*
X636Y293D01*
X640Y293D01*
X640Y291D01*
X642Y291D01*
X642Y289D01*
X646Y289D01*
X646Y287D01*
X648Y287D01*
X648Y285D01*
X652Y285D01*
X652Y283D01*
X654Y283D01*
X654Y281D01*
X656Y281D01*
X656Y279D01*
X658Y279D01*
X658Y275D01*
X660Y275D01*
X660Y273D01*
X680Y273D01*
X680Y277D01*
X682Y277D01*
X682Y279D01*
X684Y279D01*
X684Y281D01*
X686Y281D01*
X686Y283D01*
X688Y283D01*
X688Y285D01*
X690Y285D01*
X690Y287D01*
X694Y287D01*
X694Y289D01*
X696Y289D01*
X696Y291D01*
X698Y291D01*
X698Y339D01*
X696Y339D01*
X696Y341D01*
X694Y341D01*
X694Y343D01*
X692Y343D01*
X692Y345D01*
X690Y345D01*
X690Y347D01*
X688Y347D01*
X688Y349D01*
X686Y349D01*
X686Y351D01*
X684Y351D01*
X684Y353D01*
X682Y353D01*
X682Y355D01*
X680Y355D01*
X680Y357D01*
X678Y357D01*
X678Y359D01*
X676Y359D01*
X676Y361D01*
X674Y361D01*
X674Y363D01*
X672Y363D01*
X672Y365D01*
X670Y365D01*
X670Y367D01*
X668Y367D01*
X668Y369D01*
X666Y369D01*
X666Y371D01*
X664Y371D01*
X664Y373D01*
X662Y373D01*
X662Y375D01*
X660Y375D01*
X660Y377D01*
X658Y377D01*
X658Y379D01*
X656Y379D01*
X656Y381D01*
X654Y381D01*
X654Y383D01*
X652Y383D01*
X652Y385D01*
X650Y385D01*
X650Y387D01*
X648Y387D01*
X648Y389D01*
X646Y389D01*
X646Y391D01*
X644Y391D01*
X644Y393D01*
X642Y393D01*
X642Y395D01*
X640Y395D01*
X640Y397D01*
X638Y397D01*
X638Y399D01*
X636Y399D01*
X636Y401D01*
X634Y401D01*
X634Y403D01*
X632Y403D01*
X632Y405D01*
X630Y405D01*
X630Y407D01*
X628Y407D01*
X628Y409D01*
X626Y409D01*
X626Y411D01*
X624Y411D01*
X624Y413D01*
X622Y413D01*
X622Y415D01*
X620Y415D01*
X620Y417D01*
X618Y417D01*
X618Y419D01*
X616Y419D01*
X616Y421D01*
X614Y421D01*
X614Y423D01*
X612Y423D01*
X612Y425D01*
X610Y425D01*
X610Y427D01*
X608Y427D01*
X608Y429D01*
X606Y429D01*
X606Y431D01*
X604Y431D01*
X604Y433D01*
X602Y433D01*
X602Y437D01*
X600Y437D01*
X600Y441D01*
X598Y441D01*
X598Y555D01*
X594Y555D01*
X594Y557D01*
X592Y557D01*
X592Y559D01*
X588Y559D01*
X588Y561D01*
X586Y561D01*
X586Y563D01*
X584Y563D01*
X584Y565D01*
X582Y565D01*
X582Y569D01*
X580Y569D01*
X580Y571D01*
X578Y571D01*
X578Y575D01*
X576Y575D01*
X576Y577D01*
X574Y577D01*
X574Y581D01*
X572Y581D01*
X572Y589D01*
X570Y589D01*
X570Y607D01*
X572Y607D01*
X572Y613D01*
X574Y613D01*
X574Y617D01*
X576Y617D01*
X576Y621D01*
X578Y621D01*
X578Y623D01*
X40Y623D01*
G37*
D02*
G36*
X40Y547D02*
X40Y171D01*
X272Y171D01*
X272Y169D01*
X286Y169D01*
X286Y167D01*
X292Y167D01*
X292Y165D01*
X298Y165D01*
X298Y163D01*
X302Y163D01*
X302Y161D01*
X306Y161D01*
X306Y159D01*
X308Y159D01*
X308Y157D01*
X312Y157D01*
X312Y155D01*
X314Y155D01*
X314Y153D01*
X316Y153D01*
X316Y151D01*
X320Y151D01*
X320Y149D01*
X322Y149D01*
X322Y147D01*
X324Y147D01*
X324Y143D01*
X326Y143D01*
X326Y141D01*
X328Y141D01*
X328Y139D01*
X330Y139D01*
X330Y135D01*
X332Y135D01*
X332Y133D01*
X334Y133D01*
X334Y129D01*
X336Y129D01*
X336Y125D01*
X338Y125D01*
X338Y119D01*
X340Y119D01*
X340Y113D01*
X342Y113D01*
X342Y81D01*
X340Y81D01*
X340Y75D01*
X512Y75D01*
X512Y77D01*
X508Y77D01*
X508Y79D01*
X506Y79D01*
X506Y81D01*
X504Y81D01*
X504Y83D01*
X502Y83D01*
X502Y85D01*
X500Y85D01*
X500Y87D01*
X498Y87D01*
X498Y89D01*
X496Y89D01*
X496Y91D01*
X494Y91D01*
X494Y93D01*
X492Y93D01*
X492Y95D01*
X490Y95D01*
X490Y97D01*
X488Y97D01*
X488Y99D01*
X486Y99D01*
X486Y101D01*
X484Y101D01*
X484Y103D01*
X482Y103D01*
X482Y105D01*
X480Y105D01*
X480Y107D01*
X478Y107D01*
X478Y109D01*
X476Y109D01*
X476Y111D01*
X474Y111D01*
X474Y113D01*
X472Y113D01*
X472Y115D01*
X470Y115D01*
X470Y117D01*
X468Y117D01*
X468Y119D01*
X466Y119D01*
X466Y121D01*
X464Y121D01*
X464Y123D01*
X462Y123D01*
X462Y125D01*
X460Y125D01*
X460Y127D01*
X458Y127D01*
X458Y129D01*
X456Y129D01*
X456Y131D01*
X454Y131D01*
X454Y133D01*
X452Y133D01*
X452Y135D01*
X450Y135D01*
X450Y137D01*
X448Y137D01*
X448Y139D01*
X446Y139D01*
X446Y141D01*
X444Y141D01*
X444Y143D01*
X442Y143D01*
X442Y145D01*
X440Y145D01*
X440Y147D01*
X438Y147D01*
X438Y149D01*
X436Y149D01*
X436Y151D01*
X434Y151D01*
X434Y153D01*
X432Y153D01*
X432Y155D01*
X430Y155D01*
X430Y157D01*
X428Y157D01*
X428Y159D01*
X426Y159D01*
X426Y161D01*
X424Y161D01*
X424Y163D01*
X422Y163D01*
X422Y165D01*
X420Y165D01*
X420Y167D01*
X418Y167D01*
X418Y169D01*
X416Y169D01*
X416Y171D01*
X414Y171D01*
X414Y173D01*
X412Y173D01*
X412Y175D01*
X410Y175D01*
X410Y177D01*
X408Y177D01*
X408Y179D01*
X406Y179D01*
X406Y181D01*
X404Y181D01*
X404Y183D01*
X402Y183D01*
X402Y185D01*
X400Y185D01*
X400Y187D01*
X398Y187D01*
X398Y189D01*
X396Y189D01*
X396Y191D01*
X394Y191D01*
X394Y193D01*
X392Y193D01*
X392Y195D01*
X390Y195D01*
X390Y197D01*
X388Y197D01*
X388Y199D01*
X386Y199D01*
X386Y201D01*
X384Y201D01*
X384Y203D01*
X382Y203D01*
X382Y205D01*
X380Y205D01*
X380Y207D01*
X378Y207D01*
X378Y209D01*
X376Y209D01*
X376Y211D01*
X374Y211D01*
X374Y213D01*
X372Y213D01*
X372Y215D01*
X370Y215D01*
X370Y217D01*
X368Y217D01*
X368Y219D01*
X366Y219D01*
X366Y221D01*
X364Y221D01*
X364Y223D01*
X362Y223D01*
X362Y225D01*
X360Y225D01*
X360Y227D01*
X358Y227D01*
X358Y229D01*
X356Y229D01*
X356Y231D01*
X354Y231D01*
X354Y233D01*
X352Y233D01*
X352Y235D01*
X350Y235D01*
X350Y237D01*
X348Y237D01*
X348Y239D01*
X346Y239D01*
X346Y241D01*
X344Y241D01*
X344Y243D01*
X342Y243D01*
X342Y245D01*
X340Y245D01*
X340Y247D01*
X270Y247D01*
X270Y347D01*
X282Y347D01*
X282Y369D01*
X280Y369D01*
X280Y371D01*
X278Y371D01*
X278Y375D01*
X276Y375D01*
X276Y377D01*
X274Y377D01*
X274Y381D01*
X272Y381D01*
X272Y389D01*
X270Y389D01*
X270Y407D01*
X272Y407D01*
X272Y413D01*
X274Y413D01*
X274Y417D01*
X276Y417D01*
X276Y421D01*
X278Y421D01*
X278Y423D01*
X280Y423D01*
X280Y427D01*
X282Y427D01*
X282Y429D01*
X284Y429D01*
X284Y431D01*
X286Y431D01*
X286Y433D01*
X288Y433D01*
X288Y435D01*
X290Y435D01*
X290Y437D01*
X294Y437D01*
X294Y457D01*
X292Y457D01*
X292Y459D01*
X288Y459D01*
X288Y461D01*
X286Y461D01*
X286Y463D01*
X284Y463D01*
X284Y465D01*
X282Y465D01*
X282Y469D01*
X280Y469D01*
X280Y471D01*
X278Y471D01*
X278Y475D01*
X276Y475D01*
X276Y477D01*
X274Y477D01*
X274Y481D01*
X272Y481D01*
X272Y489D01*
X270Y489D01*
X270Y507D01*
X272Y507D01*
X272Y513D01*
X274Y513D01*
X274Y517D01*
X276Y517D01*
X276Y521D01*
X278Y521D01*
X278Y523D01*
X280Y523D01*
X280Y527D01*
X282Y527D01*
X282Y529D01*
X284Y529D01*
X284Y531D01*
X286Y531D01*
X286Y533D01*
X288Y533D01*
X288Y535D01*
X290Y535D01*
X290Y537D01*
X294Y537D01*
X294Y539D01*
X296Y539D01*
X296Y541D01*
X300Y541D01*
X300Y543D01*
X304Y543D01*
X304Y545D01*
X310Y545D01*
X310Y547D01*
X40Y547D01*
G37*
D02*
G36*
X1492Y471D02*
X1492Y325D01*
X1604Y325D01*
X1604Y327D01*
X1598Y327D01*
X1598Y329D01*
X1592Y329D01*
X1592Y331D01*
X1588Y331D01*
X1588Y333D01*
X1584Y333D01*
X1584Y335D01*
X1582Y335D01*
X1582Y337D01*
X1578Y337D01*
X1578Y339D01*
X1576Y339D01*
X1576Y341D01*
X1574Y341D01*
X1574Y343D01*
X1570Y343D01*
X1570Y345D01*
X1568Y345D01*
X1568Y347D01*
X1566Y347D01*
X1566Y351D01*
X1564Y351D01*
X1564Y353D01*
X1562Y353D01*
X1562Y355D01*
X1560Y355D01*
X1560Y359D01*
X1558Y359D01*
X1558Y361D01*
X1556Y361D01*
X1556Y365D01*
X1554Y365D01*
X1554Y369D01*
X1552Y369D01*
X1552Y375D01*
X1550Y375D01*
X1550Y381D01*
X1548Y381D01*
X1548Y395D01*
X1546Y395D01*
X1546Y399D01*
X1548Y399D01*
X1548Y413D01*
X1550Y413D01*
X1550Y421D01*
X1552Y421D01*
X1552Y425D01*
X1554Y425D01*
X1554Y429D01*
X1556Y429D01*
X1556Y433D01*
X1558Y433D01*
X1558Y437D01*
X1560Y437D01*
X1560Y439D01*
X1562Y439D01*
X1562Y441D01*
X1564Y441D01*
X1564Y445D01*
X1566Y445D01*
X1566Y447D01*
X1568Y447D01*
X1568Y449D01*
X1570Y449D01*
X1570Y451D01*
X1572Y451D01*
X1572Y453D01*
X1576Y453D01*
X1576Y455D01*
X1578Y455D01*
X1578Y457D01*
X1580Y457D01*
X1580Y459D01*
X1584Y459D01*
X1584Y461D01*
X1588Y461D01*
X1588Y463D01*
X1592Y463D01*
X1592Y465D01*
X1596Y465D01*
X1596Y467D01*
X1604Y467D01*
X1604Y469D01*
X1618Y469D01*
X1618Y471D01*
X1492Y471D01*
G37*
D02*
G36*
X1678Y355D02*
X1678Y353D01*
X1676Y353D01*
X1676Y351D01*
X1674Y351D01*
X1674Y349D01*
X1672Y349D01*
X1672Y347D01*
X1670Y347D01*
X1670Y345D01*
X1668Y345D01*
X1668Y343D01*
X1666Y343D01*
X1666Y341D01*
X1664Y341D01*
X1664Y339D01*
X1662Y339D01*
X1662Y337D01*
X1658Y337D01*
X1658Y335D01*
X1656Y335D01*
X1656Y333D01*
X1652Y333D01*
X1652Y331D01*
X1648Y331D01*
X1648Y329D01*
X1642Y329D01*
X1642Y327D01*
X1636Y327D01*
X1636Y325D01*
X1698Y325D01*
X1698Y355D01*
X1678Y355D01*
G37*
D02*
G36*
X1492Y325D02*
X1492Y323D01*
X1698Y323D01*
X1698Y325D01*
X1492Y325D01*
G37*
D02*
G36*
X1492Y325D02*
X1492Y323D01*
X1698Y323D01*
X1698Y325D01*
X1492Y325D01*
G37*
D02*
G36*
X1492Y323D02*
X1492Y297D01*
X1520Y297D01*
X1520Y197D01*
X1450Y197D01*
X1450Y195D01*
X1448Y195D01*
X1448Y193D01*
X1446Y193D01*
X1446Y191D01*
X1444Y191D01*
X1444Y189D01*
X1442Y189D01*
X1442Y187D01*
X1440Y187D01*
X1440Y185D01*
X1438Y185D01*
X1438Y183D01*
X1436Y183D01*
X1436Y181D01*
X1434Y181D01*
X1434Y179D01*
X1432Y179D01*
X1432Y177D01*
X1430Y177D01*
X1430Y175D01*
X1428Y175D01*
X1428Y173D01*
X1426Y173D01*
X1426Y171D01*
X1424Y171D01*
X1424Y169D01*
X1422Y169D01*
X1422Y167D01*
X1420Y167D01*
X1420Y165D01*
X1418Y165D01*
X1418Y163D01*
X1416Y163D01*
X1416Y161D01*
X1414Y161D01*
X1414Y159D01*
X1412Y159D01*
X1412Y157D01*
X1410Y157D01*
X1410Y155D01*
X1408Y155D01*
X1408Y153D01*
X1406Y153D01*
X1406Y151D01*
X1404Y151D01*
X1404Y149D01*
X1402Y149D01*
X1402Y147D01*
X1400Y147D01*
X1400Y145D01*
X1398Y145D01*
X1398Y143D01*
X1396Y143D01*
X1396Y141D01*
X1394Y141D01*
X1394Y139D01*
X1392Y139D01*
X1392Y137D01*
X1390Y137D01*
X1390Y135D01*
X1388Y135D01*
X1388Y133D01*
X1386Y133D01*
X1386Y131D01*
X1384Y131D01*
X1384Y129D01*
X1382Y129D01*
X1382Y127D01*
X1380Y127D01*
X1380Y125D01*
X1378Y125D01*
X1378Y123D01*
X1376Y123D01*
X1376Y121D01*
X1374Y121D01*
X1374Y119D01*
X1372Y119D01*
X1372Y117D01*
X1370Y117D01*
X1370Y115D01*
X1368Y115D01*
X1368Y113D01*
X1366Y113D01*
X1366Y111D01*
X1364Y111D01*
X1364Y109D01*
X1362Y109D01*
X1362Y107D01*
X1360Y107D01*
X1360Y105D01*
X1358Y105D01*
X1358Y103D01*
X1356Y103D01*
X1356Y101D01*
X1354Y101D01*
X1354Y99D01*
X1352Y99D01*
X1352Y97D01*
X1350Y97D01*
X1350Y95D01*
X1348Y95D01*
X1348Y93D01*
X1346Y93D01*
X1346Y91D01*
X1344Y91D01*
X1344Y89D01*
X1342Y89D01*
X1342Y87D01*
X1340Y87D01*
X1340Y85D01*
X1338Y85D01*
X1338Y83D01*
X1336Y83D01*
X1336Y81D01*
X1334Y81D01*
X1334Y79D01*
X1332Y79D01*
X1332Y77D01*
X1326Y77D01*
X1326Y75D01*
X1826Y75D01*
X1826Y77D01*
X1824Y77D01*
X1824Y81D01*
X1822Y81D01*
X1822Y89D01*
X1820Y89D01*
X1820Y117D01*
X1818Y117D01*
X1818Y119D01*
X1816Y119D01*
X1816Y121D01*
X1814Y121D01*
X1814Y123D01*
X1812Y123D01*
X1812Y125D01*
X1810Y125D01*
X1810Y127D01*
X1808Y127D01*
X1808Y129D01*
X1806Y129D01*
X1806Y131D01*
X1804Y131D01*
X1804Y133D01*
X1802Y133D01*
X1802Y135D01*
X1800Y135D01*
X1800Y137D01*
X1798Y137D01*
X1798Y139D01*
X1796Y139D01*
X1796Y141D01*
X1794Y141D01*
X1794Y143D01*
X1792Y143D01*
X1792Y145D01*
X1790Y145D01*
X1790Y147D01*
X1788Y147D01*
X1788Y149D01*
X1786Y149D01*
X1786Y151D01*
X1784Y151D01*
X1784Y153D01*
X1782Y153D01*
X1782Y155D01*
X1780Y155D01*
X1780Y157D01*
X1778Y157D01*
X1778Y159D01*
X1776Y159D01*
X1776Y161D01*
X1774Y161D01*
X1774Y163D01*
X1772Y163D01*
X1772Y165D01*
X1770Y165D01*
X1770Y167D01*
X1768Y167D01*
X1768Y169D01*
X1766Y169D01*
X1766Y171D01*
X1764Y171D01*
X1764Y173D01*
X1762Y173D01*
X1762Y175D01*
X1760Y175D01*
X1760Y177D01*
X1758Y177D01*
X1758Y179D01*
X1756Y179D01*
X1756Y181D01*
X1754Y181D01*
X1754Y183D01*
X1752Y183D01*
X1752Y185D01*
X1750Y185D01*
X1750Y187D01*
X1748Y187D01*
X1748Y189D01*
X1746Y189D01*
X1746Y191D01*
X1744Y191D01*
X1744Y193D01*
X1742Y193D01*
X1742Y195D01*
X1740Y195D01*
X1740Y197D01*
X1738Y197D01*
X1738Y199D01*
X1736Y199D01*
X1736Y201D01*
X1734Y201D01*
X1734Y203D01*
X1732Y203D01*
X1732Y205D01*
X1730Y205D01*
X1730Y207D01*
X1728Y207D01*
X1728Y209D01*
X1726Y209D01*
X1726Y211D01*
X1724Y211D01*
X1724Y213D01*
X1722Y213D01*
X1722Y215D01*
X1720Y215D01*
X1720Y217D01*
X1718Y217D01*
X1718Y219D01*
X1716Y219D01*
X1716Y221D01*
X1714Y221D01*
X1714Y223D01*
X1712Y223D01*
X1712Y225D01*
X1710Y225D01*
X1710Y227D01*
X1708Y227D01*
X1708Y229D01*
X1706Y229D01*
X1706Y231D01*
X1704Y231D01*
X1704Y233D01*
X1702Y233D01*
X1702Y237D01*
X1700Y237D01*
X1700Y241D01*
X1698Y241D01*
X1698Y323D01*
X1492Y323D01*
G37*
D02*
G36*
X370Y297D02*
X370Y277D01*
X372Y277D01*
X372Y275D01*
X374Y275D01*
X374Y273D01*
X376Y273D01*
X376Y271D01*
X378Y271D01*
X378Y269D01*
X380Y269D01*
X380Y267D01*
X382Y267D01*
X382Y265D01*
X384Y265D01*
X384Y263D01*
X386Y263D01*
X386Y261D01*
X388Y261D01*
X388Y259D01*
X390Y259D01*
X390Y257D01*
X392Y257D01*
X392Y255D01*
X394Y255D01*
X394Y253D01*
X396Y253D01*
X396Y251D01*
X398Y251D01*
X398Y249D01*
X400Y249D01*
X400Y247D01*
X402Y247D01*
X402Y245D01*
X404Y245D01*
X404Y243D01*
X406Y243D01*
X406Y241D01*
X408Y241D01*
X408Y239D01*
X410Y239D01*
X410Y237D01*
X412Y237D01*
X412Y235D01*
X414Y235D01*
X414Y233D01*
X416Y233D01*
X416Y231D01*
X418Y231D01*
X418Y229D01*
X420Y229D01*
X420Y227D01*
X422Y227D01*
X422Y225D01*
X424Y225D01*
X424Y223D01*
X426Y223D01*
X426Y221D01*
X428Y221D01*
X428Y219D01*
X430Y219D01*
X430Y217D01*
X432Y217D01*
X432Y215D01*
X434Y215D01*
X434Y213D01*
X436Y213D01*
X436Y211D01*
X438Y211D01*
X438Y209D01*
X440Y209D01*
X440Y207D01*
X442Y207D01*
X442Y205D01*
X444Y205D01*
X444Y203D01*
X446Y203D01*
X446Y201D01*
X448Y201D01*
X448Y199D01*
X450Y199D01*
X450Y197D01*
X612Y197D01*
X612Y199D01*
X606Y199D01*
X606Y201D01*
X600Y201D01*
X600Y203D01*
X598Y203D01*
X598Y205D01*
X594Y205D01*
X594Y207D01*
X592Y207D01*
X592Y209D01*
X588Y209D01*
X588Y211D01*
X586Y211D01*
X586Y213D01*
X584Y213D01*
X584Y215D01*
X582Y215D01*
X582Y219D01*
X580Y219D01*
X580Y221D01*
X578Y221D01*
X578Y225D01*
X576Y225D01*
X576Y227D01*
X574Y227D01*
X574Y231D01*
X572Y231D01*
X572Y239D01*
X570Y239D01*
X570Y257D01*
X572Y257D01*
X572Y263D01*
X574Y263D01*
X574Y267D01*
X576Y267D01*
X576Y271D01*
X578Y271D01*
X578Y273D01*
X580Y273D01*
X580Y277D01*
X582Y277D01*
X582Y279D01*
X584Y279D01*
X584Y281D01*
X586Y281D01*
X586Y283D01*
X588Y283D01*
X588Y285D01*
X590Y285D01*
X590Y287D01*
X594Y287D01*
X594Y289D01*
X596Y289D01*
X596Y291D01*
X600Y291D01*
X600Y293D01*
X604Y293D01*
X604Y295D01*
X610Y295D01*
X610Y297D01*
X370Y297D01*
G37*
D02*
G36*
X970Y297D02*
X970Y197D01*
X1162Y197D01*
X1162Y199D01*
X1156Y199D01*
X1156Y201D01*
X1150Y201D01*
X1150Y203D01*
X1148Y203D01*
X1148Y205D01*
X1144Y205D01*
X1144Y207D01*
X1142Y207D01*
X1142Y209D01*
X1138Y209D01*
X1138Y211D01*
X1136Y211D01*
X1136Y213D01*
X1134Y213D01*
X1134Y215D01*
X1132Y215D01*
X1132Y219D01*
X1130Y219D01*
X1130Y221D01*
X1128Y221D01*
X1128Y225D01*
X1126Y225D01*
X1126Y227D01*
X1124Y227D01*
X1124Y231D01*
X1122Y231D01*
X1122Y239D01*
X1120Y239D01*
X1120Y257D01*
X1122Y257D01*
X1122Y263D01*
X1124Y263D01*
X1124Y267D01*
X1126Y267D01*
X1126Y271D01*
X1128Y271D01*
X1128Y273D01*
X1130Y273D01*
X1130Y277D01*
X1132Y277D01*
X1132Y279D01*
X1134Y279D01*
X1134Y281D01*
X1136Y281D01*
X1136Y283D01*
X1138Y283D01*
X1138Y285D01*
X1140Y285D01*
X1140Y287D01*
X1144Y287D01*
X1144Y289D01*
X1146Y289D01*
X1146Y291D01*
X1150Y291D01*
X1150Y293D01*
X1154Y293D01*
X1154Y295D01*
X1160Y295D01*
X1160Y297D01*
X970Y297D01*
G37*
D02*
G36*
X660Y221D02*
X660Y219D01*
X658Y219D01*
X658Y217D01*
X656Y217D01*
X656Y213D01*
X654Y213D01*
X654Y211D01*
X650Y211D01*
X650Y209D01*
X648Y209D01*
X648Y207D01*
X646Y207D01*
X646Y205D01*
X642Y205D01*
X642Y203D01*
X640Y203D01*
X640Y201D01*
X634Y201D01*
X634Y199D01*
X628Y199D01*
X628Y197D01*
X712Y197D01*
X712Y199D01*
X706Y199D01*
X706Y201D01*
X700Y201D01*
X700Y203D01*
X698Y203D01*
X698Y205D01*
X694Y205D01*
X694Y207D01*
X692Y207D01*
X692Y209D01*
X688Y209D01*
X688Y211D01*
X686Y211D01*
X686Y213D01*
X684Y213D01*
X684Y215D01*
X682Y215D01*
X682Y219D01*
X680Y219D01*
X680Y221D01*
X660Y221D01*
G37*
D02*
G36*
X760Y221D02*
X760Y219D01*
X758Y219D01*
X758Y217D01*
X756Y217D01*
X756Y213D01*
X754Y213D01*
X754Y211D01*
X750Y211D01*
X750Y209D01*
X748Y209D01*
X748Y207D01*
X746Y207D01*
X746Y205D01*
X742Y205D01*
X742Y203D01*
X740Y203D01*
X740Y201D01*
X734Y201D01*
X734Y199D01*
X728Y199D01*
X728Y197D01*
X812Y197D01*
X812Y199D01*
X806Y199D01*
X806Y201D01*
X800Y201D01*
X800Y203D01*
X798Y203D01*
X798Y205D01*
X794Y205D01*
X794Y207D01*
X792Y207D01*
X792Y209D01*
X788Y209D01*
X788Y211D01*
X786Y211D01*
X786Y213D01*
X784Y213D01*
X784Y215D01*
X782Y215D01*
X782Y219D01*
X780Y219D01*
X780Y221D01*
X760Y221D01*
G37*
D02*
G36*
X1210Y221D02*
X1210Y219D01*
X1208Y219D01*
X1208Y217D01*
X1206Y217D01*
X1206Y213D01*
X1204Y213D01*
X1204Y211D01*
X1200Y211D01*
X1200Y209D01*
X1198Y209D01*
X1198Y207D01*
X1196Y207D01*
X1196Y205D01*
X1192Y205D01*
X1192Y203D01*
X1190Y203D01*
X1190Y201D01*
X1184Y201D01*
X1184Y199D01*
X1178Y199D01*
X1178Y197D01*
X1262Y197D01*
X1262Y199D01*
X1256Y199D01*
X1256Y201D01*
X1250Y201D01*
X1250Y203D01*
X1248Y203D01*
X1248Y205D01*
X1244Y205D01*
X1244Y207D01*
X1242Y207D01*
X1242Y209D01*
X1238Y209D01*
X1238Y211D01*
X1236Y211D01*
X1236Y213D01*
X1234Y213D01*
X1234Y215D01*
X1232Y215D01*
X1232Y219D01*
X1230Y219D01*
X1230Y221D01*
X1210Y221D01*
G37*
D02*
G36*
X1310Y221D02*
X1310Y219D01*
X1308Y219D01*
X1308Y217D01*
X1306Y217D01*
X1306Y213D01*
X1304Y213D01*
X1304Y211D01*
X1300Y211D01*
X1300Y209D01*
X1298Y209D01*
X1298Y207D01*
X1296Y207D01*
X1296Y205D01*
X1292Y205D01*
X1292Y203D01*
X1290Y203D01*
X1290Y201D01*
X1284Y201D01*
X1284Y199D01*
X1278Y199D01*
X1278Y197D01*
X1362Y197D01*
X1362Y199D01*
X1356Y199D01*
X1356Y201D01*
X1350Y201D01*
X1350Y203D01*
X1348Y203D01*
X1348Y205D01*
X1344Y205D01*
X1344Y207D01*
X1342Y207D01*
X1342Y209D01*
X1338Y209D01*
X1338Y211D01*
X1336Y211D01*
X1336Y213D01*
X1334Y213D01*
X1334Y215D01*
X1332Y215D01*
X1332Y219D01*
X1330Y219D01*
X1330Y221D01*
X1310Y221D01*
G37*
D02*
G36*
X452Y197D02*
X452Y195D01*
X820Y195D01*
X820Y197D01*
X452Y197D01*
G37*
D02*
G36*
X452Y197D02*
X452Y195D01*
X820Y195D01*
X820Y197D01*
X452Y197D01*
G37*
D02*
G36*
X452Y197D02*
X452Y195D01*
X820Y195D01*
X820Y197D01*
X452Y197D01*
G37*
D02*
G36*
X900Y197D02*
X900Y195D01*
X1370Y195D01*
X1370Y197D01*
X900Y197D01*
G37*
D02*
G36*
X900Y197D02*
X900Y195D01*
X1370Y195D01*
X1370Y197D01*
X900Y197D01*
G37*
D02*
G36*
X900Y197D02*
X900Y195D01*
X1370Y195D01*
X1370Y197D01*
X900Y197D01*
G37*
D02*
G36*
X454Y195D02*
X454Y193D01*
X456Y193D01*
X456Y191D01*
X458Y191D01*
X458Y189D01*
X460Y189D01*
X460Y187D01*
X462Y187D01*
X462Y185D01*
X464Y185D01*
X464Y183D01*
X466Y183D01*
X466Y181D01*
X468Y181D01*
X468Y179D01*
X470Y179D01*
X470Y177D01*
X472Y177D01*
X472Y175D01*
X474Y175D01*
X474Y173D01*
X476Y173D01*
X476Y171D01*
X478Y171D01*
X478Y169D01*
X480Y169D01*
X480Y167D01*
X482Y167D01*
X482Y165D01*
X484Y165D01*
X484Y163D01*
X486Y163D01*
X486Y161D01*
X488Y161D01*
X488Y159D01*
X490Y159D01*
X490Y157D01*
X492Y157D01*
X492Y155D01*
X494Y155D01*
X494Y153D01*
X496Y153D01*
X496Y151D01*
X498Y151D01*
X498Y149D01*
X500Y149D01*
X500Y147D01*
X502Y147D01*
X502Y145D01*
X504Y145D01*
X504Y143D01*
X506Y143D01*
X506Y141D01*
X508Y141D01*
X508Y139D01*
X510Y139D01*
X510Y137D01*
X512Y137D01*
X512Y135D01*
X514Y135D01*
X514Y133D01*
X516Y133D01*
X516Y131D01*
X518Y131D01*
X518Y129D01*
X520Y129D01*
X520Y127D01*
X522Y127D01*
X522Y125D01*
X524Y125D01*
X524Y123D01*
X526Y123D01*
X526Y121D01*
X528Y121D01*
X528Y119D01*
X762Y119D01*
X762Y121D01*
X764Y121D01*
X764Y123D01*
X766Y123D01*
X766Y125D01*
X768Y125D01*
X768Y127D01*
X770Y127D01*
X770Y129D01*
X772Y129D01*
X772Y131D01*
X774Y131D01*
X774Y133D01*
X776Y133D01*
X776Y135D01*
X778Y135D01*
X778Y137D01*
X780Y137D01*
X780Y139D01*
X782Y139D01*
X782Y141D01*
X784Y141D01*
X784Y143D01*
X786Y143D01*
X786Y145D01*
X788Y145D01*
X788Y147D01*
X790Y147D01*
X790Y149D01*
X792Y149D01*
X792Y151D01*
X794Y151D01*
X794Y153D01*
X796Y153D01*
X796Y155D01*
X798Y155D01*
X798Y157D01*
X800Y157D01*
X800Y159D01*
X802Y159D01*
X802Y161D01*
X804Y161D01*
X804Y163D01*
X806Y163D01*
X806Y165D01*
X808Y165D01*
X808Y167D01*
X810Y167D01*
X810Y169D01*
X812Y169D01*
X812Y171D01*
X814Y171D01*
X814Y173D01*
X816Y173D01*
X816Y175D01*
X818Y175D01*
X818Y177D01*
X820Y177D01*
X820Y195D01*
X454Y195D01*
G37*
D02*
G36*
X898Y195D02*
X898Y193D01*
X896Y193D01*
X896Y191D01*
X894Y191D01*
X894Y189D01*
X892Y189D01*
X892Y187D01*
X890Y187D01*
X890Y185D01*
X888Y185D01*
X888Y183D01*
X886Y183D01*
X886Y181D01*
X884Y181D01*
X884Y179D01*
X882Y179D01*
X882Y177D01*
X880Y177D01*
X880Y175D01*
X878Y175D01*
X878Y173D01*
X876Y173D01*
X876Y171D01*
X874Y171D01*
X874Y169D01*
X872Y169D01*
X872Y167D01*
X870Y167D01*
X870Y165D01*
X868Y165D01*
X868Y163D01*
X866Y163D01*
X866Y161D01*
X864Y161D01*
X864Y159D01*
X862Y159D01*
X862Y157D01*
X860Y157D01*
X860Y155D01*
X858Y155D01*
X858Y153D01*
X856Y153D01*
X856Y151D01*
X854Y151D01*
X854Y149D01*
X852Y149D01*
X852Y147D01*
X850Y147D01*
X850Y145D01*
X848Y145D01*
X848Y143D01*
X846Y143D01*
X846Y141D01*
X844Y141D01*
X844Y139D01*
X842Y139D01*
X842Y119D01*
X1312Y119D01*
X1312Y121D01*
X1314Y121D01*
X1314Y123D01*
X1316Y123D01*
X1316Y125D01*
X1318Y125D01*
X1318Y127D01*
X1320Y127D01*
X1320Y129D01*
X1322Y129D01*
X1322Y131D01*
X1324Y131D01*
X1324Y133D01*
X1326Y133D01*
X1326Y135D01*
X1328Y135D01*
X1328Y137D01*
X1330Y137D01*
X1330Y139D01*
X1332Y139D01*
X1332Y141D01*
X1334Y141D01*
X1334Y143D01*
X1336Y143D01*
X1336Y145D01*
X1338Y145D01*
X1338Y147D01*
X1340Y147D01*
X1340Y149D01*
X1342Y149D01*
X1342Y151D01*
X1344Y151D01*
X1344Y153D01*
X1346Y153D01*
X1346Y155D01*
X1348Y155D01*
X1348Y157D01*
X1350Y157D01*
X1350Y159D01*
X1352Y159D01*
X1352Y161D01*
X1354Y161D01*
X1354Y163D01*
X1356Y163D01*
X1356Y165D01*
X1358Y165D01*
X1358Y167D01*
X1360Y167D01*
X1360Y169D01*
X1362Y169D01*
X1362Y171D01*
X1364Y171D01*
X1364Y173D01*
X1366Y173D01*
X1366Y175D01*
X1368Y175D01*
X1368Y177D01*
X1370Y177D01*
X1370Y195D01*
X898Y195D01*
G37*
D02*
G36*
X40Y171D02*
X40Y41D01*
X208Y41D01*
X208Y61D01*
X206Y61D01*
X206Y65D01*
X204Y65D01*
X204Y69D01*
X202Y69D01*
X202Y75D01*
X200Y75D01*
X200Y81D01*
X198Y81D01*
X198Y95D01*
X196Y95D01*
X196Y99D01*
X198Y99D01*
X198Y113D01*
X200Y113D01*
X200Y121D01*
X202Y121D01*
X202Y125D01*
X204Y125D01*
X204Y129D01*
X206Y129D01*
X206Y133D01*
X208Y133D01*
X208Y137D01*
X210Y137D01*
X210Y139D01*
X212Y139D01*
X212Y141D01*
X214Y141D01*
X214Y145D01*
X216Y145D01*
X216Y147D01*
X218Y147D01*
X218Y149D01*
X220Y149D01*
X220Y151D01*
X222Y151D01*
X222Y153D01*
X226Y153D01*
X226Y155D01*
X228Y155D01*
X228Y157D01*
X230Y157D01*
X230Y159D01*
X234Y159D01*
X234Y161D01*
X238Y161D01*
X238Y163D01*
X242Y163D01*
X242Y165D01*
X246Y165D01*
X246Y167D01*
X254Y167D01*
X254Y169D01*
X268Y169D01*
X268Y171D01*
X40Y171D01*
G37*
D02*
G36*
X338Y75D02*
X338Y73D01*
X1828Y73D01*
X1828Y75D01*
X338Y75D01*
G37*
D02*
G36*
X338Y75D02*
X338Y73D01*
X1828Y73D01*
X1828Y75D01*
X338Y75D01*
G37*
D02*
G36*
X338Y73D02*
X338Y69D01*
X336Y69D01*
X336Y65D01*
X334Y65D01*
X334Y61D01*
X332Y61D01*
X332Y41D01*
X1838Y41D01*
X1838Y61D01*
X1836Y61D01*
X1836Y63D01*
X1834Y63D01*
X1834Y65D01*
X1832Y65D01*
X1832Y69D01*
X1830Y69D01*
X1830Y71D01*
X1828Y71D01*
X1828Y73D01*
X338Y73D01*
G37*
D02*
G36*
X660Y571D02*
X660Y569D01*
X658Y569D01*
X658Y567D01*
X656Y567D01*
X656Y563D01*
X654Y563D01*
X654Y561D01*
X650Y561D01*
X650Y559D01*
X648Y559D01*
X648Y557D01*
X646Y557D01*
X646Y555D01*
X642Y555D01*
X642Y547D01*
X712Y547D01*
X712Y549D01*
X706Y549D01*
X706Y551D01*
X700Y551D01*
X700Y553D01*
X698Y553D01*
X698Y555D01*
X694Y555D01*
X694Y557D01*
X692Y557D01*
X692Y559D01*
X688Y559D01*
X688Y561D01*
X686Y561D01*
X686Y563D01*
X684Y563D01*
X684Y565D01*
X682Y565D01*
X682Y569D01*
X680Y569D01*
X680Y571D01*
X660Y571D01*
G37*
D02*
G36*
X760Y571D02*
X760Y569D01*
X758Y569D01*
X758Y567D01*
X756Y567D01*
X756Y563D01*
X754Y563D01*
X754Y561D01*
X750Y561D01*
X750Y559D01*
X748Y559D01*
X748Y557D01*
X746Y557D01*
X746Y555D01*
X742Y555D01*
X742Y553D01*
X740Y553D01*
X740Y551D01*
X734Y551D01*
X734Y549D01*
X728Y549D01*
X728Y547D01*
X812Y547D01*
X812Y549D01*
X806Y549D01*
X806Y551D01*
X800Y551D01*
X800Y553D01*
X798Y553D01*
X798Y555D01*
X794Y555D01*
X794Y557D01*
X792Y557D01*
X792Y559D01*
X788Y559D01*
X788Y561D01*
X786Y561D01*
X786Y563D01*
X784Y563D01*
X784Y565D01*
X782Y565D01*
X782Y569D01*
X780Y569D01*
X780Y571D01*
X760Y571D01*
G37*
D02*
G36*
X850Y561D02*
X850Y559D01*
X848Y559D01*
X848Y557D01*
X846Y557D01*
X846Y555D01*
X842Y555D01*
X842Y553D01*
X840Y553D01*
X840Y551D01*
X834Y551D01*
X834Y549D01*
X828Y549D01*
X828Y547D01*
X870Y547D01*
X870Y561D01*
X850Y561D01*
G37*
D02*
G36*
X642Y547D02*
X642Y545D01*
X898Y545D01*
X898Y547D01*
X642Y547D01*
G37*
D02*
G36*
X642Y547D02*
X642Y545D01*
X898Y545D01*
X898Y547D01*
X642Y547D01*
G37*
D02*
G36*
X642Y547D02*
X642Y545D01*
X898Y545D01*
X898Y547D01*
X642Y547D01*
G37*
D02*
G36*
X642Y545D02*
X642Y455D01*
X644Y455D01*
X644Y453D01*
X646Y453D01*
X646Y451D01*
X648Y451D01*
X648Y449D01*
X650Y449D01*
X650Y447D01*
X652Y447D01*
X652Y445D01*
X654Y445D01*
X654Y443D01*
X656Y443D01*
X656Y441D01*
X658Y441D01*
X658Y439D01*
X660Y439D01*
X660Y437D01*
X662Y437D01*
X662Y435D01*
X664Y435D01*
X664Y433D01*
X666Y433D01*
X666Y431D01*
X668Y431D01*
X668Y429D01*
X670Y429D01*
X670Y427D01*
X672Y427D01*
X672Y425D01*
X674Y425D01*
X674Y423D01*
X676Y423D01*
X676Y421D01*
X678Y421D01*
X678Y419D01*
X680Y419D01*
X680Y417D01*
X682Y417D01*
X682Y415D01*
X684Y415D01*
X684Y413D01*
X686Y413D01*
X686Y411D01*
X688Y411D01*
X688Y409D01*
X690Y409D01*
X690Y407D01*
X692Y407D01*
X692Y405D01*
X694Y405D01*
X694Y403D01*
X696Y403D01*
X696Y401D01*
X698Y401D01*
X698Y399D01*
X700Y399D01*
X700Y397D01*
X702Y397D01*
X702Y395D01*
X704Y395D01*
X704Y393D01*
X706Y393D01*
X706Y391D01*
X708Y391D01*
X708Y389D01*
X710Y389D01*
X710Y387D01*
X712Y387D01*
X712Y385D01*
X714Y385D01*
X714Y383D01*
X716Y383D01*
X716Y381D01*
X718Y381D01*
X718Y379D01*
X720Y379D01*
X720Y377D01*
X722Y377D01*
X722Y375D01*
X724Y375D01*
X724Y373D01*
X726Y373D01*
X726Y371D01*
X728Y371D01*
X728Y369D01*
X730Y369D01*
X730Y367D01*
X732Y367D01*
X732Y365D01*
X734Y365D01*
X734Y363D01*
X736Y363D01*
X736Y359D01*
X738Y359D01*
X738Y357D01*
X740Y357D01*
X740Y351D01*
X742Y351D01*
X742Y297D01*
X828Y297D01*
X828Y295D01*
X836Y295D01*
X836Y293D01*
X840Y293D01*
X840Y291D01*
X842Y291D01*
X842Y289D01*
X846Y289D01*
X846Y287D01*
X848Y287D01*
X848Y285D01*
X870Y285D01*
X870Y297D01*
X898Y297D01*
X898Y545D01*
X642Y545D01*
G37*
D02*
G36*
X742Y297D02*
X742Y289D01*
X746Y289D01*
X746Y287D01*
X748Y287D01*
X748Y285D01*
X752Y285D01*
X752Y283D01*
X754Y283D01*
X754Y281D01*
X756Y281D01*
X756Y279D01*
X758Y279D01*
X758Y275D01*
X760Y275D01*
X760Y273D01*
X780Y273D01*
X780Y277D01*
X782Y277D01*
X782Y279D01*
X784Y279D01*
X784Y281D01*
X786Y281D01*
X786Y283D01*
X788Y283D01*
X788Y285D01*
X790Y285D01*
X790Y287D01*
X794Y287D01*
X794Y289D01*
X796Y289D01*
X796Y291D01*
X800Y291D01*
X800Y293D01*
X804Y293D01*
X804Y295D01*
X810Y295D01*
X810Y297D01*
X742Y297D01*
G37*
D02*
G36*
X1210Y571D02*
X1210Y569D01*
X1208Y569D01*
X1208Y567D01*
X1206Y567D01*
X1206Y563D01*
X1204Y563D01*
X1204Y561D01*
X1200Y561D01*
X1200Y559D01*
X1198Y559D01*
X1198Y557D01*
X1196Y557D01*
X1196Y555D01*
X1192Y555D01*
X1192Y547D01*
X1262Y547D01*
X1262Y549D01*
X1256Y549D01*
X1256Y551D01*
X1250Y551D01*
X1250Y553D01*
X1248Y553D01*
X1248Y555D01*
X1244Y555D01*
X1244Y557D01*
X1242Y557D01*
X1242Y559D01*
X1238Y559D01*
X1238Y561D01*
X1236Y561D01*
X1236Y563D01*
X1234Y563D01*
X1234Y565D01*
X1232Y565D01*
X1232Y569D01*
X1230Y569D01*
X1230Y571D01*
X1210Y571D01*
G37*
D02*
G36*
X1310Y571D02*
X1310Y569D01*
X1308Y569D01*
X1308Y567D01*
X1306Y567D01*
X1306Y563D01*
X1304Y563D01*
X1304Y561D01*
X1300Y561D01*
X1300Y559D01*
X1298Y559D01*
X1298Y557D01*
X1296Y557D01*
X1296Y555D01*
X1292Y555D01*
X1292Y553D01*
X1290Y553D01*
X1290Y551D01*
X1284Y551D01*
X1284Y549D01*
X1278Y549D01*
X1278Y547D01*
X1362Y547D01*
X1362Y549D01*
X1356Y549D01*
X1356Y551D01*
X1350Y551D01*
X1350Y553D01*
X1348Y553D01*
X1348Y555D01*
X1344Y555D01*
X1344Y557D01*
X1342Y557D01*
X1342Y559D01*
X1338Y559D01*
X1338Y561D01*
X1336Y561D01*
X1336Y563D01*
X1334Y563D01*
X1334Y565D01*
X1332Y565D01*
X1332Y569D01*
X1330Y569D01*
X1330Y571D01*
X1310Y571D01*
G37*
D02*
G36*
X1400Y561D02*
X1400Y559D01*
X1398Y559D01*
X1398Y557D01*
X1396Y557D01*
X1396Y555D01*
X1392Y555D01*
X1392Y553D01*
X1390Y553D01*
X1390Y551D01*
X1384Y551D01*
X1384Y549D01*
X1378Y549D01*
X1378Y547D01*
X1420Y547D01*
X1420Y561D01*
X1400Y561D01*
G37*
D02*
G36*
X1192Y547D02*
X1192Y545D01*
X1448Y545D01*
X1448Y547D01*
X1192Y547D01*
G37*
D02*
G36*
X1192Y547D02*
X1192Y545D01*
X1448Y545D01*
X1448Y547D01*
X1192Y547D01*
G37*
D02*
G36*
X1192Y547D02*
X1192Y545D01*
X1448Y545D01*
X1448Y547D01*
X1192Y547D01*
G37*
D02*
G36*
X1192Y545D02*
X1192Y455D01*
X1194Y455D01*
X1194Y453D01*
X1196Y453D01*
X1196Y451D01*
X1198Y451D01*
X1198Y449D01*
X1200Y449D01*
X1200Y447D01*
X1202Y447D01*
X1202Y445D01*
X1204Y445D01*
X1204Y443D01*
X1206Y443D01*
X1206Y441D01*
X1208Y441D01*
X1208Y439D01*
X1210Y439D01*
X1210Y437D01*
X1212Y437D01*
X1212Y435D01*
X1214Y435D01*
X1214Y433D01*
X1216Y433D01*
X1216Y431D01*
X1218Y431D01*
X1218Y429D01*
X1220Y429D01*
X1220Y427D01*
X1222Y427D01*
X1222Y425D01*
X1224Y425D01*
X1224Y423D01*
X1226Y423D01*
X1226Y421D01*
X1228Y421D01*
X1228Y419D01*
X1230Y419D01*
X1230Y417D01*
X1232Y417D01*
X1232Y415D01*
X1234Y415D01*
X1234Y413D01*
X1236Y413D01*
X1236Y411D01*
X1238Y411D01*
X1238Y409D01*
X1240Y409D01*
X1240Y407D01*
X1242Y407D01*
X1242Y405D01*
X1244Y405D01*
X1244Y403D01*
X1246Y403D01*
X1246Y401D01*
X1248Y401D01*
X1248Y399D01*
X1250Y399D01*
X1250Y397D01*
X1252Y397D01*
X1252Y395D01*
X1254Y395D01*
X1254Y393D01*
X1256Y393D01*
X1256Y391D01*
X1258Y391D01*
X1258Y389D01*
X1260Y389D01*
X1260Y387D01*
X1262Y387D01*
X1262Y385D01*
X1264Y385D01*
X1264Y383D01*
X1266Y383D01*
X1266Y381D01*
X1268Y381D01*
X1268Y379D01*
X1270Y379D01*
X1270Y377D01*
X1272Y377D01*
X1272Y375D01*
X1274Y375D01*
X1274Y373D01*
X1276Y373D01*
X1276Y371D01*
X1278Y371D01*
X1278Y369D01*
X1280Y369D01*
X1280Y367D01*
X1282Y367D01*
X1282Y365D01*
X1284Y365D01*
X1284Y363D01*
X1286Y363D01*
X1286Y361D01*
X1288Y361D01*
X1288Y357D01*
X1290Y357D01*
X1290Y353D01*
X1292Y353D01*
X1292Y297D01*
X1378Y297D01*
X1378Y295D01*
X1386Y295D01*
X1386Y293D01*
X1390Y293D01*
X1390Y291D01*
X1392Y291D01*
X1392Y289D01*
X1396Y289D01*
X1396Y287D01*
X1398Y287D01*
X1398Y285D01*
X1420Y285D01*
X1420Y297D01*
X1448Y297D01*
X1448Y545D01*
X1192Y545D01*
G37*
D02*
G36*
X1292Y297D02*
X1292Y289D01*
X1296Y289D01*
X1296Y287D01*
X1298Y287D01*
X1298Y285D01*
X1302Y285D01*
X1302Y283D01*
X1304Y283D01*
X1304Y281D01*
X1306Y281D01*
X1306Y279D01*
X1308Y279D01*
X1308Y275D01*
X1310Y275D01*
X1310Y273D01*
X1330Y273D01*
X1330Y277D01*
X1332Y277D01*
X1332Y279D01*
X1334Y279D01*
X1334Y281D01*
X1336Y281D01*
X1336Y283D01*
X1338Y283D01*
X1338Y285D01*
X1340Y285D01*
X1340Y287D01*
X1344Y287D01*
X1344Y289D01*
X1346Y289D01*
X1346Y291D01*
X1350Y291D01*
X1350Y293D01*
X1354Y293D01*
X1354Y295D01*
X1360Y295D01*
X1360Y297D01*
X1292Y297D01*
G37*
D02*
G36*
X1760Y571D02*
X1760Y569D01*
X1758Y569D01*
X1758Y567D01*
X1756Y567D01*
X1756Y563D01*
X1754Y563D01*
X1754Y561D01*
X1750Y561D01*
X1750Y559D01*
X1748Y559D01*
X1748Y557D01*
X1746Y557D01*
X1746Y555D01*
X1742Y555D01*
X1742Y547D01*
X1812Y547D01*
X1812Y549D01*
X1806Y549D01*
X1806Y551D01*
X1800Y551D01*
X1800Y553D01*
X1798Y553D01*
X1798Y555D01*
X1794Y555D01*
X1794Y557D01*
X1792Y557D01*
X1792Y559D01*
X1788Y559D01*
X1788Y561D01*
X1786Y561D01*
X1786Y563D01*
X1784Y563D01*
X1784Y565D01*
X1782Y565D01*
X1782Y569D01*
X1780Y569D01*
X1780Y571D01*
X1760Y571D01*
G37*
D02*
G36*
X1860Y571D02*
X1860Y569D01*
X1858Y569D01*
X1858Y567D01*
X1856Y567D01*
X1856Y563D01*
X1854Y563D01*
X1854Y561D01*
X1850Y561D01*
X1850Y559D01*
X1848Y559D01*
X1848Y557D01*
X1846Y557D01*
X1846Y555D01*
X1842Y555D01*
X1842Y553D01*
X1840Y553D01*
X1840Y551D01*
X1834Y551D01*
X1834Y549D01*
X1828Y549D01*
X1828Y547D01*
X1912Y547D01*
X1912Y549D01*
X1906Y549D01*
X1906Y551D01*
X1900Y551D01*
X1900Y553D01*
X1898Y553D01*
X1898Y555D01*
X1894Y555D01*
X1894Y557D01*
X1892Y557D01*
X1892Y559D01*
X1888Y559D01*
X1888Y561D01*
X1886Y561D01*
X1886Y563D01*
X1884Y563D01*
X1884Y565D01*
X1882Y565D01*
X1882Y569D01*
X1880Y569D01*
X1880Y571D01*
X1860Y571D01*
G37*
D02*
G36*
X1742Y547D02*
X1742Y545D01*
X1920Y545D01*
X1920Y547D01*
X1742Y547D01*
G37*
D02*
G36*
X1742Y547D02*
X1742Y545D01*
X1920Y545D01*
X1920Y547D01*
X1742Y547D01*
G37*
D02*
G36*
X1742Y545D02*
X1742Y255D01*
X1744Y255D01*
X1744Y253D01*
X1746Y253D01*
X1746Y251D01*
X1748Y251D01*
X1748Y249D01*
X1750Y249D01*
X1750Y247D01*
X1752Y247D01*
X1752Y245D01*
X1754Y245D01*
X1754Y243D01*
X1756Y243D01*
X1756Y241D01*
X1758Y241D01*
X1758Y239D01*
X1760Y239D01*
X1760Y237D01*
X1762Y237D01*
X1762Y235D01*
X1764Y235D01*
X1764Y233D01*
X1766Y233D01*
X1766Y231D01*
X1768Y231D01*
X1768Y229D01*
X1770Y229D01*
X1770Y227D01*
X1772Y227D01*
X1772Y225D01*
X1774Y225D01*
X1774Y223D01*
X1776Y223D01*
X1776Y221D01*
X1778Y221D01*
X1778Y219D01*
X1780Y219D01*
X1780Y217D01*
X1782Y217D01*
X1782Y215D01*
X1784Y215D01*
X1784Y213D01*
X1786Y213D01*
X1786Y211D01*
X1788Y211D01*
X1788Y209D01*
X1790Y209D01*
X1790Y207D01*
X1792Y207D01*
X1792Y205D01*
X1794Y205D01*
X1794Y203D01*
X1796Y203D01*
X1796Y201D01*
X1798Y201D01*
X1798Y199D01*
X1800Y199D01*
X1800Y197D01*
X1820Y197D01*
X1820Y207D01*
X1822Y207D01*
X1822Y213D01*
X1824Y213D01*
X1824Y217D01*
X1826Y217D01*
X1826Y221D01*
X1828Y221D01*
X1828Y223D01*
X1830Y223D01*
X1830Y227D01*
X1832Y227D01*
X1832Y247D01*
X1820Y247D01*
X1820Y347D01*
X1848Y347D01*
X1848Y453D01*
X1850Y453D01*
X1850Y457D01*
X1852Y457D01*
X1852Y461D01*
X1854Y461D01*
X1854Y463D01*
X1856Y463D01*
X1856Y465D01*
X1858Y465D01*
X1858Y467D01*
X1860Y467D01*
X1860Y469D01*
X1862Y469D01*
X1862Y471D01*
X1864Y471D01*
X1864Y473D01*
X1866Y473D01*
X1866Y475D01*
X1868Y475D01*
X1868Y477D01*
X1870Y477D01*
X1870Y479D01*
X1872Y479D01*
X1872Y481D01*
X1874Y481D01*
X1874Y483D01*
X1876Y483D01*
X1876Y485D01*
X1878Y485D01*
X1878Y487D01*
X1880Y487D01*
X1880Y489D01*
X1882Y489D01*
X1882Y491D01*
X1884Y491D01*
X1884Y493D01*
X1886Y493D01*
X1886Y495D01*
X1888Y495D01*
X1888Y497D01*
X1890Y497D01*
X1890Y499D01*
X1892Y499D01*
X1892Y501D01*
X1894Y501D01*
X1894Y503D01*
X1896Y503D01*
X1896Y505D01*
X1898Y505D01*
X1898Y507D01*
X1900Y507D01*
X1900Y509D01*
X1902Y509D01*
X1902Y511D01*
X1904Y511D01*
X1904Y513D01*
X1906Y513D01*
X1906Y515D01*
X1908Y515D01*
X1908Y517D01*
X1910Y517D01*
X1910Y519D01*
X1912Y519D01*
X1912Y521D01*
X1914Y521D01*
X1914Y523D01*
X1916Y523D01*
X1916Y525D01*
X1918Y525D01*
X1918Y527D01*
X1920Y527D01*
X1920Y545D01*
X1742Y545D01*
G37*
D02*
G36*
X266Y422D02*
X298Y422D01*
X298Y377D01*
X266Y377D01*
X266Y422D01*
G37*
D02*
G36*
X336Y422D02*
X370Y422D01*
X370Y377D01*
X336Y377D01*
X336Y422D01*
G37*
D02*
G36*
X1895Y651D02*
X1940Y651D01*
X1940Y619D01*
X1895Y619D01*
X1895Y651D01*
G37*
D02*
G36*
X1345Y651D02*
X1390Y651D01*
X1390Y619D01*
X1345Y619D01*
X1345Y651D01*
G37*
D02*
G36*
X795Y651D02*
X840Y651D01*
X840Y619D01*
X795Y619D01*
X795Y651D01*
G37*
D02*
G36*
X1886Y222D02*
X1920Y222D01*
X1920Y177D01*
X1886Y177D01*
X1886Y222D01*
G37*
D02*
G04 End of Copper1*
M02*