G04 #@! TF.FileFunction,Copper,L2,Bot,Signal*
%FSLAX46Y46*%
G04 Gerber Fmt 4.6, Leading zero omitted, Abs format (unit mm)*
G04 Created by KiCad (PCBNEW 4.0.3+e1-6302~38~ubuntu15.04.1-stable) date Sat Oct  8 22:08:40 2016*
%MOMM*%
%LPD*%
G01*
G04 APERTURE LIST*
%ADD10C,0.100000*%
%ADD11R,1.727200X2.032000*%
%ADD12O,1.727200X2.032000*%
%ADD13R,1.727200X1.727200*%
%ADD14O,1.727200X1.727200*%
%ADD15R,2.540000X2.540000*%
%ADD16C,2.540000*%
%ADD17R,2.032000X1.727200*%
%ADD18O,2.032000X1.727200*%
%ADD19R,2.000000X1.700000*%
%ADD20C,0.600000*%
%ADD21C,0.250000*%
%ADD22C,0.254000*%
G04 APERTURE END LIST*
D10*
D11*
X125000000Y-108500000D03*
D12*
X127540000Y-108500000D03*
X130080000Y-108500000D03*
D13*
X126000000Y-103500000D03*
D14*
X126000000Y-100960000D03*
X128540000Y-103500000D03*
X128540000Y-100960000D03*
X131080000Y-103500000D03*
X131080000Y-100960000D03*
X133620000Y-103500000D03*
X133620000Y-100960000D03*
D15*
X144500000Y-102460000D03*
D16*
X144500000Y-107540000D03*
D17*
X120500000Y-108000000D03*
D18*
X120500000Y-105460000D03*
X120500000Y-102920000D03*
D19*
X136750000Y-101000000D03*
X140750000Y-101000000D03*
D11*
X134000000Y-108500000D03*
D12*
X136540000Y-108500000D03*
X139080000Y-108500000D03*
D20*
X147222075Y-100864312D03*
X135000000Y-101750000D03*
D21*
X144000000Y-100204781D02*
X146562544Y-100204781D01*
X142000000Y-101000000D02*
X142795219Y-100204781D01*
X140750000Y-101000000D02*
X142000000Y-101000000D01*
X142795219Y-100204781D02*
X144000000Y-100204781D01*
X140750000Y-101750000D02*
X140917268Y-101750000D01*
X146562544Y-100204781D02*
X146922076Y-100564313D01*
X146922076Y-100564313D02*
X147222075Y-100864312D01*
X136750000Y-101000000D02*
X135750000Y-101000000D01*
X135750000Y-101000000D02*
X135000000Y-101750000D01*
D22*
G36*
X124793179Y-100071510D02*
X124545032Y-100600973D01*
X124665531Y-100833000D01*
X125873000Y-100833000D01*
X125873000Y-100813000D01*
X126127000Y-100813000D01*
X126127000Y-100833000D01*
X126147000Y-100833000D01*
X126147000Y-101087000D01*
X126127000Y-101087000D01*
X126127000Y-101107000D01*
X125873000Y-101107000D01*
X125873000Y-101087000D01*
X124665531Y-101087000D01*
X124545032Y-101319027D01*
X124793179Y-101848490D01*
X124979433Y-102018495D01*
X124901083Y-102033238D01*
X124684959Y-102172310D01*
X124539969Y-102384510D01*
X124488960Y-102636400D01*
X124488960Y-104363600D01*
X124533238Y-104598917D01*
X124672310Y-104815041D01*
X124884510Y-104960031D01*
X125136400Y-105011040D01*
X126863600Y-105011040D01*
X127098917Y-104966762D01*
X127315041Y-104827690D01*
X127460031Y-104615490D01*
X127468864Y-104571869D01*
X127480330Y-104589029D01*
X127966511Y-104913885D01*
X128540000Y-105027959D01*
X129113489Y-104913885D01*
X129599670Y-104589029D01*
X129810000Y-104274248D01*
X130020330Y-104589029D01*
X130506511Y-104913885D01*
X131080000Y-105027959D01*
X131653489Y-104913885D01*
X132139670Y-104589029D01*
X132350000Y-104274248D01*
X132560330Y-104589029D01*
X133046511Y-104913885D01*
X133620000Y-105027959D01*
X134193489Y-104913885D01*
X134679670Y-104589029D01*
X135004526Y-104102848D01*
X135118600Y-103529359D01*
X135118600Y-103470641D01*
X135004526Y-102897152D01*
X134903363Y-102745750D01*
X142595000Y-102745750D01*
X142595000Y-103856309D01*
X142691673Y-104089698D01*
X142870301Y-104268327D01*
X143103690Y-104365000D01*
X144214250Y-104365000D01*
X144373000Y-104206250D01*
X144373000Y-102587000D01*
X144627000Y-102587000D01*
X144627000Y-104206250D01*
X144785750Y-104365000D01*
X145896310Y-104365000D01*
X146129699Y-104268327D01*
X146308327Y-104089698D01*
X146405000Y-103856309D01*
X146405000Y-102745750D01*
X146246250Y-102587000D01*
X144627000Y-102587000D01*
X144373000Y-102587000D01*
X142753750Y-102587000D01*
X142595000Y-102745750D01*
X134903363Y-102745750D01*
X134862691Y-102684881D01*
X135185167Y-102685162D01*
X135528943Y-102543117D01*
X135604264Y-102467928D01*
X135750000Y-102497440D01*
X137750000Y-102497440D01*
X137985317Y-102453162D01*
X138201441Y-102314090D01*
X138346431Y-102101890D01*
X138397440Y-101850000D01*
X138397440Y-100150000D01*
X138353162Y-99914683D01*
X138221452Y-99710000D01*
X139282099Y-99710000D01*
X139153569Y-99898110D01*
X139102560Y-100150000D01*
X139102560Y-101850000D01*
X139146838Y-102085317D01*
X139285910Y-102301441D01*
X139498110Y-102446431D01*
X139750000Y-102497440D01*
X140686857Y-102497440D01*
X140750000Y-102510000D01*
X140917268Y-102510000D01*
X140980411Y-102497440D01*
X141750000Y-102497440D01*
X141985317Y-102453162D01*
X142201441Y-102314090D01*
X142346431Y-102101890D01*
X142397440Y-101850000D01*
X142397440Y-101630920D01*
X142537401Y-101537401D01*
X142595000Y-101479802D01*
X142595000Y-102174250D01*
X142753750Y-102333000D01*
X144373000Y-102333000D01*
X144373000Y-102313000D01*
X144627000Y-102313000D01*
X144627000Y-102333000D01*
X146246250Y-102333000D01*
X146405000Y-102174250D01*
X146405000Y-101335272D01*
X146428958Y-101393255D01*
X146691748Y-101656504D01*
X147035276Y-101799150D01*
X147407242Y-101799474D01*
X147751018Y-101657429D01*
X147790000Y-101618515D01*
X147790000Y-109930070D01*
X147765089Y-110055305D01*
X147555305Y-110265089D01*
X147430070Y-110290000D01*
X119069930Y-110290000D01*
X118944695Y-110265089D01*
X118734911Y-110055305D01*
X118710000Y-109930070D01*
X118710000Y-105460000D01*
X118816655Y-105460000D01*
X118930729Y-106033489D01*
X119255585Y-106519670D01*
X119269913Y-106529243D01*
X119248683Y-106533238D01*
X119032559Y-106672310D01*
X118887569Y-106884510D01*
X118836560Y-107136400D01*
X118836560Y-108863600D01*
X118880838Y-109098917D01*
X119019910Y-109315041D01*
X119232110Y-109460031D01*
X119484000Y-109511040D01*
X121516000Y-109511040D01*
X121751317Y-109466762D01*
X121967441Y-109327690D01*
X122112431Y-109115490D01*
X122163440Y-108863600D01*
X122163440Y-107484000D01*
X123488960Y-107484000D01*
X123488960Y-109516000D01*
X123533238Y-109751317D01*
X123672310Y-109967441D01*
X123884510Y-110112431D01*
X124136400Y-110163440D01*
X125863600Y-110163440D01*
X126098917Y-110119162D01*
X126315041Y-109980090D01*
X126460031Y-109767890D01*
X126479232Y-109673073D01*
X126637964Y-109850732D01*
X127165209Y-110104709D01*
X127180974Y-110107358D01*
X127413000Y-109986217D01*
X127413000Y-108627000D01*
X127393000Y-108627000D01*
X127393000Y-108373000D01*
X127413000Y-108373000D01*
X127413000Y-107013783D01*
X127667000Y-107013783D01*
X127667000Y-108373000D01*
X127687000Y-108373000D01*
X127687000Y-108627000D01*
X127667000Y-108627000D01*
X127667000Y-109986217D01*
X127899026Y-110107358D01*
X127914791Y-110104709D01*
X128442036Y-109850732D01*
X128813539Y-109434931D01*
X129020330Y-109744415D01*
X129506511Y-110069271D01*
X130080000Y-110183345D01*
X130653489Y-110069271D01*
X131139670Y-109744415D01*
X131464526Y-109258234D01*
X131578600Y-108684745D01*
X131578600Y-108315255D01*
X131464526Y-107741766D01*
X131292293Y-107484000D01*
X132488960Y-107484000D01*
X132488960Y-109516000D01*
X132533238Y-109751317D01*
X132672310Y-109967441D01*
X132884510Y-110112431D01*
X133136400Y-110163440D01*
X134863600Y-110163440D01*
X135098917Y-110119162D01*
X135315041Y-109980090D01*
X135460031Y-109767890D01*
X135479232Y-109673073D01*
X135637964Y-109850732D01*
X136165209Y-110104709D01*
X136180974Y-110107358D01*
X136413000Y-109986217D01*
X136413000Y-108627000D01*
X136393000Y-108627000D01*
X136393000Y-108373000D01*
X136413000Y-108373000D01*
X136413000Y-107013783D01*
X136667000Y-107013783D01*
X136667000Y-108373000D01*
X136687000Y-108373000D01*
X136687000Y-108627000D01*
X136667000Y-108627000D01*
X136667000Y-109986217D01*
X136899026Y-110107358D01*
X136914791Y-110104709D01*
X137442036Y-109850732D01*
X137813539Y-109434931D01*
X138020330Y-109744415D01*
X138506511Y-110069271D01*
X139080000Y-110183345D01*
X139653489Y-110069271D01*
X140139670Y-109744415D01*
X140464526Y-109258234D01*
X140578600Y-108684745D01*
X140578600Y-108315255D01*
X140499435Y-107917265D01*
X142594670Y-107917265D01*
X142884078Y-108617686D01*
X143419495Y-109154039D01*
X144119410Y-109444668D01*
X144877265Y-109445330D01*
X145577686Y-109155922D01*
X146114039Y-108620505D01*
X146404668Y-107920590D01*
X146405330Y-107162735D01*
X146115922Y-106462314D01*
X145580505Y-105925961D01*
X144880590Y-105635332D01*
X144122735Y-105634670D01*
X143422314Y-105924078D01*
X142885961Y-106459495D01*
X142595332Y-107159410D01*
X142594670Y-107917265D01*
X140499435Y-107917265D01*
X140464526Y-107741766D01*
X140139670Y-107255585D01*
X139653489Y-106930729D01*
X139080000Y-106816655D01*
X138506511Y-106930729D01*
X138020330Y-107255585D01*
X137813539Y-107565069D01*
X137442036Y-107149268D01*
X136914791Y-106895291D01*
X136899026Y-106892642D01*
X136667000Y-107013783D01*
X136413000Y-107013783D01*
X136180974Y-106892642D01*
X136165209Y-106895291D01*
X135637964Y-107149268D01*
X135481093Y-107324845D01*
X135466762Y-107248683D01*
X135327690Y-107032559D01*
X135115490Y-106887569D01*
X134863600Y-106836560D01*
X133136400Y-106836560D01*
X132901083Y-106880838D01*
X132684959Y-107019910D01*
X132539969Y-107232110D01*
X132488960Y-107484000D01*
X131292293Y-107484000D01*
X131139670Y-107255585D01*
X130653489Y-106930729D01*
X130080000Y-106816655D01*
X129506511Y-106930729D01*
X129020330Y-107255585D01*
X128813539Y-107565069D01*
X128442036Y-107149268D01*
X127914791Y-106895291D01*
X127899026Y-106892642D01*
X127667000Y-107013783D01*
X127413000Y-107013783D01*
X127180974Y-106892642D01*
X127165209Y-106895291D01*
X126637964Y-107149268D01*
X126481093Y-107324845D01*
X126466762Y-107248683D01*
X126327690Y-107032559D01*
X126115490Y-106887569D01*
X125863600Y-106836560D01*
X124136400Y-106836560D01*
X123901083Y-106880838D01*
X123684959Y-107019910D01*
X123539969Y-107232110D01*
X123488960Y-107484000D01*
X122163440Y-107484000D01*
X122163440Y-107136400D01*
X122119162Y-106901083D01*
X121980090Y-106684959D01*
X121767890Y-106539969D01*
X121726561Y-106531600D01*
X121744415Y-106519670D01*
X122069271Y-106033489D01*
X122183345Y-105460000D01*
X122069271Y-104886511D01*
X121744415Y-104400330D01*
X121434931Y-104193539D01*
X121850732Y-103822036D01*
X122104709Y-103294791D01*
X122107358Y-103279026D01*
X121986217Y-103047000D01*
X120627000Y-103047000D01*
X120627000Y-103067000D01*
X120373000Y-103067000D01*
X120373000Y-103047000D01*
X119013783Y-103047000D01*
X118892642Y-103279026D01*
X118895291Y-103294791D01*
X119149268Y-103822036D01*
X119565069Y-104193539D01*
X119255585Y-104400330D01*
X118930729Y-104886511D01*
X118816655Y-105460000D01*
X118710000Y-105460000D01*
X118710000Y-102560974D01*
X118892642Y-102560974D01*
X119013783Y-102793000D01*
X120373000Y-102793000D01*
X120373000Y-101579076D01*
X120627000Y-101579076D01*
X120627000Y-102793000D01*
X121986217Y-102793000D01*
X122107358Y-102560974D01*
X122104709Y-102545209D01*
X121850732Y-102017964D01*
X121414320Y-101628046D01*
X120861913Y-101434816D01*
X120627000Y-101579076D01*
X120373000Y-101579076D01*
X120138087Y-101434816D01*
X119585680Y-101628046D01*
X119149268Y-102017964D01*
X118895291Y-102545209D01*
X118892642Y-102560974D01*
X118710000Y-102560974D01*
X118710000Y-100069930D01*
X118734911Y-99944695D01*
X118944695Y-99734911D01*
X119069930Y-99710000D01*
X125189241Y-99710000D01*
X124793179Y-100071510D01*
X124793179Y-100071510D01*
G37*
X124793179Y-100071510D02*
X124545032Y-100600973D01*
X124665531Y-100833000D01*
X125873000Y-100833000D01*
X125873000Y-100813000D01*
X126127000Y-100813000D01*
X126127000Y-100833000D01*
X126147000Y-100833000D01*
X126147000Y-101087000D01*
X126127000Y-101087000D01*
X126127000Y-101107000D01*
X125873000Y-101107000D01*
X125873000Y-101087000D01*
X124665531Y-101087000D01*
X124545032Y-101319027D01*
X124793179Y-101848490D01*
X124979433Y-102018495D01*
X124901083Y-102033238D01*
X124684959Y-102172310D01*
X124539969Y-102384510D01*
X124488960Y-102636400D01*
X124488960Y-104363600D01*
X124533238Y-104598917D01*
X124672310Y-104815041D01*
X124884510Y-104960031D01*
X125136400Y-105011040D01*
X126863600Y-105011040D01*
X127098917Y-104966762D01*
X127315041Y-104827690D01*
X127460031Y-104615490D01*
X127468864Y-104571869D01*
X127480330Y-104589029D01*
X127966511Y-104913885D01*
X128540000Y-105027959D01*
X129113489Y-104913885D01*
X129599670Y-104589029D01*
X129810000Y-104274248D01*
X130020330Y-104589029D01*
X130506511Y-104913885D01*
X131080000Y-105027959D01*
X131653489Y-104913885D01*
X132139670Y-104589029D01*
X132350000Y-104274248D01*
X132560330Y-104589029D01*
X133046511Y-104913885D01*
X133620000Y-105027959D01*
X134193489Y-104913885D01*
X134679670Y-104589029D01*
X135004526Y-104102848D01*
X135118600Y-103529359D01*
X135118600Y-103470641D01*
X135004526Y-102897152D01*
X134903363Y-102745750D01*
X142595000Y-102745750D01*
X142595000Y-103856309D01*
X142691673Y-104089698D01*
X142870301Y-104268327D01*
X143103690Y-104365000D01*
X144214250Y-104365000D01*
X144373000Y-104206250D01*
X144373000Y-102587000D01*
X144627000Y-102587000D01*
X144627000Y-104206250D01*
X144785750Y-104365000D01*
X145896310Y-104365000D01*
X146129699Y-104268327D01*
X146308327Y-104089698D01*
X146405000Y-103856309D01*
X146405000Y-102745750D01*
X146246250Y-102587000D01*
X144627000Y-102587000D01*
X144373000Y-102587000D01*
X142753750Y-102587000D01*
X142595000Y-102745750D01*
X134903363Y-102745750D01*
X134862691Y-102684881D01*
X135185167Y-102685162D01*
X135528943Y-102543117D01*
X135604264Y-102467928D01*
X135750000Y-102497440D01*
X137750000Y-102497440D01*
X137985317Y-102453162D01*
X138201441Y-102314090D01*
X138346431Y-102101890D01*
X138397440Y-101850000D01*
X138397440Y-100150000D01*
X138353162Y-99914683D01*
X138221452Y-99710000D01*
X139282099Y-99710000D01*
X139153569Y-99898110D01*
X139102560Y-100150000D01*
X139102560Y-101850000D01*
X139146838Y-102085317D01*
X139285910Y-102301441D01*
X139498110Y-102446431D01*
X139750000Y-102497440D01*
X140686857Y-102497440D01*
X140750000Y-102510000D01*
X140917268Y-102510000D01*
X140980411Y-102497440D01*
X141750000Y-102497440D01*
X141985317Y-102453162D01*
X142201441Y-102314090D01*
X142346431Y-102101890D01*
X142397440Y-101850000D01*
X142397440Y-101630920D01*
X142537401Y-101537401D01*
X142595000Y-101479802D01*
X142595000Y-102174250D01*
X142753750Y-102333000D01*
X144373000Y-102333000D01*
X144373000Y-102313000D01*
X144627000Y-102313000D01*
X144627000Y-102333000D01*
X146246250Y-102333000D01*
X146405000Y-102174250D01*
X146405000Y-101335272D01*
X146428958Y-101393255D01*
X146691748Y-101656504D01*
X147035276Y-101799150D01*
X147407242Y-101799474D01*
X147751018Y-101657429D01*
X147790000Y-101618515D01*
X147790000Y-109930070D01*
X147765089Y-110055305D01*
X147555305Y-110265089D01*
X147430070Y-110290000D01*
X119069930Y-110290000D01*
X118944695Y-110265089D01*
X118734911Y-110055305D01*
X118710000Y-109930070D01*
X118710000Y-105460000D01*
X118816655Y-105460000D01*
X118930729Y-106033489D01*
X119255585Y-106519670D01*
X119269913Y-106529243D01*
X119248683Y-106533238D01*
X119032559Y-106672310D01*
X118887569Y-106884510D01*
X118836560Y-107136400D01*
X118836560Y-108863600D01*
X118880838Y-109098917D01*
X119019910Y-109315041D01*
X119232110Y-109460031D01*
X119484000Y-109511040D01*
X121516000Y-109511040D01*
X121751317Y-109466762D01*
X121967441Y-109327690D01*
X122112431Y-109115490D01*
X122163440Y-108863600D01*
X122163440Y-107484000D01*
X123488960Y-107484000D01*
X123488960Y-109516000D01*
X123533238Y-109751317D01*
X123672310Y-109967441D01*
X123884510Y-110112431D01*
X124136400Y-110163440D01*
X125863600Y-110163440D01*
X126098917Y-110119162D01*
X126315041Y-109980090D01*
X126460031Y-109767890D01*
X126479232Y-109673073D01*
X126637964Y-109850732D01*
X127165209Y-110104709D01*
X127180974Y-110107358D01*
X127413000Y-109986217D01*
X127413000Y-108627000D01*
X127393000Y-108627000D01*
X127393000Y-108373000D01*
X127413000Y-108373000D01*
X127413000Y-107013783D01*
X127667000Y-107013783D01*
X127667000Y-108373000D01*
X127687000Y-108373000D01*
X127687000Y-108627000D01*
X127667000Y-108627000D01*
X127667000Y-109986217D01*
X127899026Y-110107358D01*
X127914791Y-110104709D01*
X128442036Y-109850732D01*
X128813539Y-109434931D01*
X129020330Y-109744415D01*
X129506511Y-110069271D01*
X130080000Y-110183345D01*
X130653489Y-110069271D01*
X131139670Y-109744415D01*
X131464526Y-109258234D01*
X131578600Y-108684745D01*
X131578600Y-108315255D01*
X131464526Y-107741766D01*
X131292293Y-107484000D01*
X132488960Y-107484000D01*
X132488960Y-109516000D01*
X132533238Y-109751317D01*
X132672310Y-109967441D01*
X132884510Y-110112431D01*
X133136400Y-110163440D01*
X134863600Y-110163440D01*
X135098917Y-110119162D01*
X135315041Y-109980090D01*
X135460031Y-109767890D01*
X135479232Y-109673073D01*
X135637964Y-109850732D01*
X136165209Y-110104709D01*
X136180974Y-110107358D01*
X136413000Y-109986217D01*
X136413000Y-108627000D01*
X136393000Y-108627000D01*
X136393000Y-108373000D01*
X136413000Y-108373000D01*
X136413000Y-107013783D01*
X136667000Y-107013783D01*
X136667000Y-108373000D01*
X136687000Y-108373000D01*
X136687000Y-108627000D01*
X136667000Y-108627000D01*
X136667000Y-109986217D01*
X136899026Y-110107358D01*
X136914791Y-110104709D01*
X137442036Y-109850732D01*
X137813539Y-109434931D01*
X138020330Y-109744415D01*
X138506511Y-110069271D01*
X139080000Y-110183345D01*
X139653489Y-110069271D01*
X140139670Y-109744415D01*
X140464526Y-109258234D01*
X140578600Y-108684745D01*
X140578600Y-108315255D01*
X140499435Y-107917265D01*
X142594670Y-107917265D01*
X142884078Y-108617686D01*
X143419495Y-109154039D01*
X144119410Y-109444668D01*
X144877265Y-109445330D01*
X145577686Y-109155922D01*
X146114039Y-108620505D01*
X146404668Y-107920590D01*
X146405330Y-107162735D01*
X146115922Y-106462314D01*
X145580505Y-105925961D01*
X144880590Y-105635332D01*
X144122735Y-105634670D01*
X143422314Y-105924078D01*
X142885961Y-106459495D01*
X142595332Y-107159410D01*
X142594670Y-107917265D01*
X140499435Y-107917265D01*
X140464526Y-107741766D01*
X140139670Y-107255585D01*
X139653489Y-106930729D01*
X139080000Y-106816655D01*
X138506511Y-106930729D01*
X138020330Y-107255585D01*
X137813539Y-107565069D01*
X137442036Y-107149268D01*
X136914791Y-106895291D01*
X136899026Y-106892642D01*
X136667000Y-107013783D01*
X136413000Y-107013783D01*
X136180974Y-106892642D01*
X136165209Y-106895291D01*
X135637964Y-107149268D01*
X135481093Y-107324845D01*
X135466762Y-107248683D01*
X135327690Y-107032559D01*
X135115490Y-106887569D01*
X134863600Y-106836560D01*
X133136400Y-106836560D01*
X132901083Y-106880838D01*
X132684959Y-107019910D01*
X132539969Y-107232110D01*
X132488960Y-107484000D01*
X131292293Y-107484000D01*
X131139670Y-107255585D01*
X130653489Y-106930729D01*
X130080000Y-106816655D01*
X129506511Y-106930729D01*
X129020330Y-107255585D01*
X128813539Y-107565069D01*
X128442036Y-107149268D01*
X127914791Y-106895291D01*
X127899026Y-106892642D01*
X127667000Y-107013783D01*
X127413000Y-107013783D01*
X127180974Y-106892642D01*
X127165209Y-106895291D01*
X126637964Y-107149268D01*
X126481093Y-107324845D01*
X126466762Y-107248683D01*
X126327690Y-107032559D01*
X126115490Y-106887569D01*
X125863600Y-106836560D01*
X124136400Y-106836560D01*
X123901083Y-106880838D01*
X123684959Y-107019910D01*
X123539969Y-107232110D01*
X123488960Y-107484000D01*
X122163440Y-107484000D01*
X122163440Y-107136400D01*
X122119162Y-106901083D01*
X121980090Y-106684959D01*
X121767890Y-106539969D01*
X121726561Y-106531600D01*
X121744415Y-106519670D01*
X122069271Y-106033489D01*
X122183345Y-105460000D01*
X122069271Y-104886511D01*
X121744415Y-104400330D01*
X121434931Y-104193539D01*
X121850732Y-103822036D01*
X122104709Y-103294791D01*
X122107358Y-103279026D01*
X121986217Y-103047000D01*
X120627000Y-103047000D01*
X120627000Y-103067000D01*
X120373000Y-103067000D01*
X120373000Y-103047000D01*
X119013783Y-103047000D01*
X118892642Y-103279026D01*
X118895291Y-103294791D01*
X119149268Y-103822036D01*
X119565069Y-104193539D01*
X119255585Y-104400330D01*
X118930729Y-104886511D01*
X118816655Y-105460000D01*
X118710000Y-105460000D01*
X118710000Y-102560974D01*
X118892642Y-102560974D01*
X119013783Y-102793000D01*
X120373000Y-102793000D01*
X120373000Y-101579076D01*
X120627000Y-101579076D01*
X120627000Y-102793000D01*
X121986217Y-102793000D01*
X122107358Y-102560974D01*
X122104709Y-102545209D01*
X121850732Y-102017964D01*
X121414320Y-101628046D01*
X120861913Y-101434816D01*
X120627000Y-101579076D01*
X120373000Y-101579076D01*
X120138087Y-101434816D01*
X119585680Y-101628046D01*
X119149268Y-102017964D01*
X118895291Y-102545209D01*
X118892642Y-102560974D01*
X118710000Y-102560974D01*
X118710000Y-100069930D01*
X118734911Y-99944695D01*
X118944695Y-99734911D01*
X119069930Y-99710000D01*
X125189241Y-99710000D01*
X124793179Y-100071510D01*
M02*
