G04 #@! TF.FileFunction,Legend,Bot*
%FSLAX46Y46*%
G04 Gerber Fmt 4.6, Leading zero omitted, Abs format (unit mm)*
G04 Created by KiCad (PCBNEW 4.0.3+e1-6302~38~ubuntu15.04.1-stable) date Sat Oct  8 22:08:40 2016*
%MOMM*%
%LPD*%
G01*
G04 APERTURE LIST*
%ADD10C,0.100000*%
%ADD11C,0.150000*%
G04 APERTURE END LIST*
D10*
X139857144Y-106452381D02*
X140333335Y-106452381D01*
X140333335Y-105452381D01*
X139523811Y-106452381D02*
X139523811Y-105785714D01*
X139523811Y-105452381D02*
X139571430Y-105500000D01*
X139523811Y-105547619D01*
X139476192Y-105500000D01*
X139523811Y-105452381D01*
X139523811Y-105547619D01*
X138619049Y-105785714D02*
X138619049Y-106595238D01*
X138666668Y-106690476D01*
X138714287Y-106738095D01*
X138809526Y-106785714D01*
X138952383Y-106785714D01*
X139047621Y-106738095D01*
X138619049Y-106404762D02*
X138714287Y-106452381D01*
X138904764Y-106452381D01*
X139000002Y-106404762D01*
X139047621Y-106357143D01*
X139095240Y-106261905D01*
X139095240Y-105976190D01*
X139047621Y-105880952D01*
X139000002Y-105833333D01*
X138904764Y-105785714D01*
X138714287Y-105785714D01*
X138619049Y-105833333D01*
X138142859Y-106452381D02*
X138142859Y-105452381D01*
X137714287Y-106452381D02*
X137714287Y-105928571D01*
X137761906Y-105833333D01*
X137857144Y-105785714D01*
X138000002Y-105785714D01*
X138095240Y-105833333D01*
X138142859Y-105880952D01*
X137380954Y-105785714D02*
X137000002Y-105785714D01*
X137238097Y-105452381D02*
X137238097Y-106309524D01*
X137190478Y-106404762D01*
X137095240Y-106452381D01*
X137000002Y-106452381D01*
X136666668Y-106452381D02*
X136666668Y-105785714D01*
X136666668Y-105452381D02*
X136714287Y-105500000D01*
X136666668Y-105547619D01*
X136619049Y-105500000D01*
X136666668Y-105452381D01*
X136666668Y-105547619D01*
X136190478Y-105785714D02*
X136190478Y-106452381D01*
X136190478Y-105880952D02*
X136142859Y-105833333D01*
X136047621Y-105785714D01*
X135904763Y-105785714D01*
X135809525Y-105833333D01*
X135761906Y-105928571D01*
X135761906Y-106452381D01*
X134857144Y-105785714D02*
X134857144Y-106595238D01*
X134904763Y-106690476D01*
X134952382Y-106738095D01*
X135047621Y-106785714D01*
X135190478Y-106785714D01*
X135285716Y-106738095D01*
X134857144Y-106404762D02*
X134952382Y-106452381D01*
X135142859Y-106452381D01*
X135238097Y-106404762D01*
X135285716Y-106357143D01*
X135333335Y-106261905D01*
X135333335Y-105976190D01*
X135285716Y-105880952D01*
X135238097Y-105833333D01*
X135142859Y-105785714D01*
X134952382Y-105785714D01*
X134857144Y-105833333D01*
X133047620Y-106357143D02*
X133095239Y-106404762D01*
X133238096Y-106452381D01*
X133333334Y-106452381D01*
X133476192Y-106404762D01*
X133571430Y-106309524D01*
X133619049Y-106214286D01*
X133666668Y-106023810D01*
X133666668Y-105880952D01*
X133619049Y-105690476D01*
X133571430Y-105595238D01*
X133476192Y-105500000D01*
X133333334Y-105452381D01*
X133238096Y-105452381D01*
X133095239Y-105500000D01*
X133047620Y-105547619D01*
X132476192Y-106452381D02*
X132571430Y-106404762D01*
X132619049Y-106357143D01*
X132666668Y-106261905D01*
X132666668Y-105976190D01*
X132619049Y-105880952D01*
X132571430Y-105833333D01*
X132476192Y-105785714D01*
X132333334Y-105785714D01*
X132238096Y-105833333D01*
X132190477Y-105880952D01*
X132142858Y-105976190D01*
X132142858Y-106261905D01*
X132190477Y-106357143D01*
X132238096Y-106404762D01*
X132333334Y-106452381D01*
X132476192Y-106452381D01*
X131714287Y-105785714D02*
X131714287Y-106452381D01*
X131714287Y-105880952D02*
X131666668Y-105833333D01*
X131571430Y-105785714D01*
X131428572Y-105785714D01*
X131333334Y-105833333D01*
X131285715Y-105928571D01*
X131285715Y-106452381D01*
X130952382Y-105785714D02*
X130571430Y-105785714D01*
X130809525Y-105452381D02*
X130809525Y-106309524D01*
X130761906Y-106404762D01*
X130666668Y-106452381D01*
X130571430Y-106452381D01*
X130238096Y-106452381D02*
X130238096Y-105785714D01*
X130238096Y-105976190D02*
X130190477Y-105880952D01*
X130142858Y-105833333D01*
X130047620Y-105785714D01*
X129952381Y-105785714D01*
X129476191Y-106452381D02*
X129571429Y-106404762D01*
X129619048Y-106357143D01*
X129666667Y-106261905D01*
X129666667Y-105976190D01*
X129619048Y-105880952D01*
X129571429Y-105833333D01*
X129476191Y-105785714D01*
X129333333Y-105785714D01*
X129238095Y-105833333D01*
X129190476Y-105880952D01*
X129142857Y-105976190D01*
X129142857Y-106261905D01*
X129190476Y-106357143D01*
X129238095Y-106404762D01*
X129333333Y-106452381D01*
X129476191Y-106452381D01*
X128571429Y-106452381D02*
X128666667Y-106404762D01*
X128714286Y-106309524D01*
X128714286Y-105452381D01*
X128047619Y-106452381D02*
X128142857Y-106404762D01*
X128190476Y-106309524D01*
X128190476Y-105452381D01*
X127285713Y-106404762D02*
X127380951Y-106452381D01*
X127571428Y-106452381D01*
X127666666Y-106404762D01*
X127714285Y-106309524D01*
X127714285Y-105928571D01*
X127666666Y-105833333D01*
X127571428Y-105785714D01*
X127380951Y-105785714D01*
X127285713Y-105833333D01*
X127238094Y-105928571D01*
X127238094Y-106023810D01*
X127714285Y-106119048D01*
X126809523Y-106452381D02*
X126809523Y-105785714D01*
X126809523Y-105976190D02*
X126761904Y-105880952D01*
X126714285Y-105833333D01*
X126619047Y-105785714D01*
X126523808Y-105785714D01*
X142011905Y-104857143D02*
X142059524Y-104904762D01*
X142202381Y-104952381D01*
X142297619Y-104952381D01*
X142440477Y-104904762D01*
X142535715Y-104809524D01*
X142583334Y-104714286D01*
X142630953Y-104523810D01*
X142630953Y-104380952D01*
X142583334Y-104190476D01*
X142535715Y-104095238D01*
X142440477Y-104000000D01*
X142297619Y-103952381D01*
X142202381Y-103952381D01*
X142059524Y-104000000D01*
X142011905Y-104047619D01*
X141440477Y-104952381D02*
X141535715Y-104904762D01*
X141583334Y-104857143D01*
X141630953Y-104761905D01*
X141630953Y-104476190D01*
X141583334Y-104380952D01*
X141535715Y-104333333D01*
X141440477Y-104285714D01*
X141297619Y-104285714D01*
X141202381Y-104333333D01*
X141154762Y-104380952D01*
X141107143Y-104476190D01*
X141107143Y-104761905D01*
X141154762Y-104857143D01*
X141202381Y-104904762D01*
X141297619Y-104952381D01*
X141440477Y-104952381D01*
X140250000Y-104285714D02*
X140250000Y-104952381D01*
X140678572Y-104285714D02*
X140678572Y-104809524D01*
X140630953Y-104904762D01*
X140535715Y-104952381D01*
X140392857Y-104952381D01*
X140297619Y-104904762D01*
X140250000Y-104857143D01*
X139773810Y-104285714D02*
X139773810Y-104952381D01*
X139773810Y-104380952D02*
X139726191Y-104333333D01*
X139630953Y-104285714D01*
X139488095Y-104285714D01*
X139392857Y-104333333D01*
X139345238Y-104428571D01*
X139345238Y-104952381D01*
X139011905Y-104285714D02*
X138630953Y-104285714D01*
X138869048Y-103952381D02*
X138869048Y-104809524D01*
X138821429Y-104904762D01*
X138726191Y-104952381D01*
X138630953Y-104952381D01*
X137916666Y-104904762D02*
X138011904Y-104952381D01*
X138202381Y-104952381D01*
X138297619Y-104904762D01*
X138345238Y-104809524D01*
X138345238Y-104428571D01*
X138297619Y-104333333D01*
X138202381Y-104285714D01*
X138011904Y-104285714D01*
X137916666Y-104333333D01*
X137869047Y-104428571D01*
X137869047Y-104523810D01*
X138345238Y-104619048D01*
X137440476Y-104952381D02*
X137440476Y-104285714D01*
X137440476Y-104476190D02*
X137392857Y-104380952D01*
X137345238Y-104333333D01*
X137250000Y-104285714D01*
X137154761Y-104285714D01*
X136964285Y-104285714D02*
X136583333Y-104285714D01*
X136821428Y-103952381D02*
X136821428Y-104809524D01*
X136773809Y-104904762D01*
X136678571Y-104952381D01*
X136583333Y-104952381D01*
X136107142Y-104952381D02*
X136202380Y-104904762D01*
X136249999Y-104857143D01*
X136297618Y-104761905D01*
X136297618Y-104476190D01*
X136249999Y-104380952D01*
X136202380Y-104333333D01*
X136107142Y-104285714D01*
X135964284Y-104285714D01*
X135869046Y-104333333D01*
X135821427Y-104380952D01*
X135773808Y-104476190D01*
X135773808Y-104761905D01*
X135821427Y-104857143D01*
X135869046Y-104904762D01*
X135964284Y-104952381D01*
X136107142Y-104952381D01*
X135345237Y-104285714D02*
X135345237Y-105285714D01*
X135345237Y-104333333D02*
X135249999Y-104285714D01*
X135059522Y-104285714D01*
X134964284Y-104333333D01*
X134916665Y-104380952D01*
X134869046Y-104476190D01*
X134869046Y-104761905D01*
X134916665Y-104857143D01*
X134964284Y-104904762D01*
X135059522Y-104952381D01*
X135249999Y-104952381D01*
X135345237Y-104904762D01*
X122273809Y-100702381D02*
X122607143Y-100226190D01*
X122845238Y-100702381D02*
X122845238Y-99702381D01*
X122464285Y-99702381D01*
X122369047Y-99750000D01*
X122321428Y-99797619D01*
X122273809Y-99892857D01*
X122273809Y-100035714D01*
X122321428Y-100130952D01*
X122369047Y-100178571D01*
X122464285Y-100226190D01*
X122845238Y-100226190D01*
X121845238Y-100178571D02*
X121511904Y-100178571D01*
X121369047Y-100702381D02*
X121845238Y-100702381D01*
X121845238Y-99702381D01*
X121369047Y-99702381D01*
X121083333Y-99702381D02*
X120750000Y-100702381D01*
X120416666Y-99702381D01*
X119892857Y-99702381D02*
X119797618Y-99702381D01*
X119702380Y-99750000D01*
X119654761Y-99797619D01*
X119607142Y-99892857D01*
X119559523Y-100083333D01*
X119559523Y-100321429D01*
X119607142Y-100511905D01*
X119654761Y-100607143D01*
X119702380Y-100654762D01*
X119797618Y-100702381D01*
X119892857Y-100702381D01*
X119988095Y-100654762D01*
X120035714Y-100607143D01*
X120083333Y-100511905D01*
X120130952Y-100321429D01*
X120130952Y-100083333D01*
X120083333Y-99892857D01*
X120035714Y-99797619D01*
X119988095Y-99750000D01*
X119892857Y-99702381D01*
X118607142Y-100702381D02*
X119178571Y-100702381D01*
X118892857Y-100702381D02*
X118892857Y-99702381D01*
X118988095Y-99845238D01*
X119083333Y-99940476D01*
X119178571Y-99988095D01*
X147428571Y-100595238D02*
X147428571Y-100261904D01*
X147952381Y-100261904D02*
X146952381Y-100261904D01*
X146952381Y-100738095D01*
X147666667Y-101071428D02*
X147666667Y-101547619D01*
X147952381Y-100976190D02*
X146952381Y-101309523D01*
X147952381Y-101642857D01*
X146952381Y-102261905D02*
X147666667Y-102261905D01*
X147809524Y-102214285D01*
X147904762Y-102119047D01*
X147952381Y-101976190D01*
X147952381Y-101880952D01*
X147952381Y-103309524D02*
X147476190Y-102976190D01*
X147952381Y-102738095D02*
X146952381Y-102738095D01*
X146952381Y-103119048D01*
X147000000Y-103214286D01*
X147047619Y-103261905D01*
X147142857Y-103309524D01*
X147285714Y-103309524D01*
X147380952Y-103261905D01*
X147428571Y-103214286D01*
X147476190Y-103119048D01*
X147476190Y-102738095D01*
X147666667Y-103690476D02*
X147666667Y-104166667D01*
X147952381Y-103595238D02*
X146952381Y-103928571D01*
X147952381Y-104261905D01*
X147952381Y-104595238D02*
X146952381Y-104595238D01*
X147952381Y-105166667D01*
X146952381Y-105166667D01*
X147047619Y-106357143D02*
X147000000Y-106404762D01*
X146952381Y-106500000D01*
X146952381Y-106738096D01*
X147000000Y-106833334D01*
X147047619Y-106880953D01*
X147142857Y-106928572D01*
X147238095Y-106928572D01*
X147380952Y-106880953D01*
X147952381Y-106309524D01*
X147952381Y-106928572D01*
X146952381Y-107547619D02*
X146952381Y-107642858D01*
X147000000Y-107738096D01*
X147047619Y-107785715D01*
X147142857Y-107833334D01*
X147333333Y-107880953D01*
X147571429Y-107880953D01*
X147761905Y-107833334D01*
X147857143Y-107785715D01*
X147904762Y-107738096D01*
X147952381Y-107642858D01*
X147952381Y-107547619D01*
X147904762Y-107452381D01*
X147857143Y-107404762D01*
X147761905Y-107357143D01*
X147571429Y-107309524D01*
X147333333Y-107309524D01*
X147142857Y-107357143D01*
X147047619Y-107404762D01*
X147000000Y-107452381D01*
X146952381Y-107547619D01*
X147952381Y-108833334D02*
X147952381Y-108261905D01*
X147952381Y-108547619D02*
X146952381Y-108547619D01*
X147095238Y-108452381D01*
X147190476Y-108357143D01*
X147238095Y-108261905D01*
X146952381Y-109690477D02*
X146952381Y-109500000D01*
X147000000Y-109404762D01*
X147047619Y-109357143D01*
X147190476Y-109261905D01*
X147380952Y-109214286D01*
X147761905Y-109214286D01*
X147857143Y-109261905D01*
X147904762Y-109309524D01*
X147952381Y-109404762D01*
X147952381Y-109595239D01*
X147904762Y-109690477D01*
X147857143Y-109738096D01*
X147761905Y-109785715D01*
X147523810Y-109785715D01*
X147428571Y-109738096D01*
X147380952Y-109690477D01*
X147333333Y-109595239D01*
X147333333Y-109404762D01*
X147380952Y-109309524D01*
X147428571Y-109261905D01*
X147523810Y-109214286D01*
D11*
X139750000Y-99925000D02*
X137750000Y-99925000D01*
X137750000Y-102075000D02*
X139750000Y-102075000D01*
M02*
