G04 #@! TF.FileFunction,Copper,L1,Top,Signal*
%FSLAX46Y46*%
G04 Gerber Fmt 4.6, Leading zero omitted, Abs format (unit mm)*
G04 Created by KiCad (PCBNEW 4.0.3+e1-6302~38~ubuntu15.04.1-stable) date Sat Oct  8 22:08:40 2016*
%MOMM*%
%LPD*%
G01*
G04 APERTURE LIST*
%ADD10C,0.100000*%
%ADD11R,1.727200X2.032000*%
%ADD12O,1.727200X2.032000*%
%ADD13R,1.727200X1.727200*%
%ADD14O,1.727200X1.727200*%
%ADD15R,2.540000X2.540000*%
%ADD16C,2.540000*%
%ADD17R,2.032000X1.727200*%
%ADD18O,2.032000X1.727200*%
%ADD19C,0.600000*%
%ADD20C,2.000000*%
%ADD21C,0.250000*%
G04 APERTURE END LIST*
D10*
D11*
X125000000Y-108500000D03*
D12*
X127540000Y-108500000D03*
X130080000Y-108500000D03*
D13*
X126000000Y-103500000D03*
D14*
X126000000Y-100960000D03*
X128540000Y-103500000D03*
X128540000Y-100960000D03*
X131080000Y-103500000D03*
X131080000Y-100960000D03*
X133620000Y-103500000D03*
X133620000Y-100960000D03*
D15*
X144500000Y-102460000D03*
D16*
X144500000Y-107540000D03*
D17*
X120500000Y-108000000D03*
D18*
X120500000Y-105460000D03*
X120500000Y-102920000D03*
D11*
X134000000Y-108500000D03*
D12*
X136540000Y-108500000D03*
X139080000Y-108500000D03*
D19*
X147222075Y-100864312D03*
X135000000Y-101750000D03*
D20*
X144500000Y-107540000D02*
X143102020Y-106142020D01*
X134127981Y-106142020D02*
X134000000Y-106270001D01*
X143102020Y-106142020D02*
X134127981Y-106142020D01*
X134000000Y-106270001D02*
X133877998Y-106147999D01*
X133877998Y-106147999D02*
X126266103Y-106147999D01*
X126266103Y-106147999D02*
X125000000Y-107414102D01*
X125000000Y-107414102D02*
X125000000Y-108500000D01*
X125000000Y-108500000D02*
X123020041Y-108500000D01*
X123020041Y-108500000D02*
X122515668Y-107995627D01*
X122515668Y-107995627D02*
X120504373Y-107995627D01*
X120504373Y-107995627D02*
X120500000Y-108000000D01*
X134000000Y-108500000D02*
X134000000Y-106270001D01*
D21*
X127676401Y-104363599D02*
X128540000Y-103500000D01*
X127217012Y-104822988D02*
X127676401Y-104363599D01*
X122403012Y-104822988D02*
X127217012Y-104822988D01*
X121766000Y-105460000D02*
X122403012Y-104822988D01*
X128540000Y-103500000D02*
X129862988Y-104822988D01*
X132756401Y-104363599D02*
X133620000Y-103500000D01*
X120500000Y-105460000D02*
X121766000Y-105460000D01*
X129862988Y-104822988D02*
X132297012Y-104822988D01*
X132297012Y-104822988D02*
X132756401Y-104363599D01*
X131193600Y-108500000D02*
X132693600Y-110000000D01*
X145688407Y-110000000D02*
X147222075Y-108466332D01*
X130080000Y-108500000D02*
X131193600Y-108500000D01*
X132693600Y-110000000D02*
X145688407Y-110000000D01*
X147222075Y-108466332D02*
X147222075Y-101288576D01*
X147222075Y-101288576D02*
X147222075Y-100864312D01*
X145594531Y-100096401D02*
X134483599Y-100096401D01*
X146632928Y-101134798D02*
X145594531Y-100096401D01*
X134483599Y-100096401D02*
X133620000Y-100960000D01*
X146632928Y-108419068D02*
X146632928Y-101134798D01*
X145502007Y-109549989D02*
X146632928Y-108419068D01*
X141243589Y-109549989D02*
X145502007Y-109549989D01*
X140193600Y-108500000D02*
X141243589Y-109549989D01*
X139080000Y-108500000D02*
X140193600Y-108500000D01*
X128540000Y-100960000D02*
X129815160Y-102235160D01*
X129815160Y-102235160D02*
X134514840Y-102235160D01*
X134514840Y-102235160D02*
X135000000Y-101750000D01*
M02*
