G04 #@! TF.FileFunction,Legend,Bot*
%FSLAX46Y46*%
G04 Gerber Fmt 4.6, Leading zero omitted, Abs format (unit mm)*
G04 Created by KiCad (PCBNEW 4.0.3+e1-6302~38~ubuntu15.04.1-stable) date Sat Oct 22 19:45:27 2016*
%MOMM*%
%LPD*%
G01*
G04 APERTURE LIST*
%ADD10C,0.100000*%
%ADD11C,0.200000*%
%ADD12C,0.080000*%
%ADD13C,0.150000*%
G04 APERTURE END LIST*
D10*
D11*
X161400000Y-111800000D02*
X161400000Y-112000000D01*
X161600000Y-111600000D02*
X161400000Y-111800000D01*
X161400000Y-111600000D02*
X161600000Y-111600000D01*
X161400000Y-111200000D02*
X161400000Y-111600000D01*
X161600000Y-111200000D02*
X161400000Y-111200000D01*
X161800000Y-111200000D02*
X161800000Y-112000000D01*
X162200000Y-111600000D02*
X162000000Y-111600000D01*
X162200000Y-111200000D02*
X162000000Y-111200000D01*
X162200000Y-112000000D02*
X162200000Y-111200000D01*
D12*
X139923809Y-101742857D02*
X140190476Y-101742857D01*
X140190476Y-102161905D02*
X140190476Y-101361905D01*
X139809523Y-101361905D01*
X139542857Y-101933333D02*
X139161905Y-101933333D01*
X139619048Y-102161905D02*
X139352381Y-101361905D01*
X139085714Y-102161905D01*
X138590476Y-101361905D02*
X138590476Y-101933333D01*
X138628572Y-102047619D01*
X138704762Y-102123810D01*
X138819048Y-102161905D01*
X138895238Y-102161905D01*
X137752381Y-102161905D02*
X138019048Y-101780952D01*
X138209524Y-102161905D02*
X138209524Y-101361905D01*
X137904762Y-101361905D01*
X137828571Y-101400000D01*
X137790476Y-101438095D01*
X137752381Y-101514286D01*
X137752381Y-101628571D01*
X137790476Y-101704762D01*
X137828571Y-101742857D01*
X137904762Y-101780952D01*
X138209524Y-101780952D01*
X137447619Y-101933333D02*
X137066667Y-101933333D01*
X137523810Y-102161905D02*
X137257143Y-101361905D01*
X136990476Y-102161905D01*
X136723810Y-102161905D02*
X136723810Y-101361905D01*
X136266667Y-102161905D01*
X136266667Y-101361905D01*
X135314286Y-101438095D02*
X135276191Y-101400000D01*
X135200000Y-101361905D01*
X135009524Y-101361905D01*
X134933334Y-101400000D01*
X134895238Y-101438095D01*
X134857143Y-101514286D01*
X134857143Y-101590476D01*
X134895238Y-101704762D01*
X135352381Y-102161905D01*
X134857143Y-102161905D01*
X134361905Y-101361905D02*
X134285714Y-101361905D01*
X134209524Y-101400000D01*
X134171429Y-101438095D01*
X134133333Y-101514286D01*
X134095238Y-101666667D01*
X134095238Y-101857143D01*
X134133333Y-102009524D01*
X134171429Y-102085714D01*
X134209524Y-102123810D01*
X134285714Y-102161905D01*
X134361905Y-102161905D01*
X134438095Y-102123810D01*
X134476191Y-102085714D01*
X134514286Y-102009524D01*
X134552381Y-101857143D01*
X134552381Y-101666667D01*
X134514286Y-101514286D01*
X134476191Y-101438095D01*
X134438095Y-101400000D01*
X134361905Y-101361905D01*
X133333333Y-102161905D02*
X133790476Y-102161905D01*
X133561905Y-102161905D02*
X133561905Y-101361905D01*
X133638095Y-101476190D01*
X133714286Y-101552381D01*
X133790476Y-101590476D01*
X132647619Y-101361905D02*
X132800000Y-101361905D01*
X132876190Y-101400000D01*
X132914285Y-101438095D01*
X132990476Y-101552381D01*
X133028571Y-101704762D01*
X133028571Y-102009524D01*
X132990476Y-102085714D01*
X132952381Y-102123810D01*
X132876190Y-102161905D01*
X132723809Y-102161905D01*
X132647619Y-102123810D01*
X132609523Y-102085714D01*
X132571428Y-102009524D01*
X132571428Y-101819048D01*
X132609523Y-101742857D01*
X132647619Y-101704762D01*
X132723809Y-101666667D01*
X132876190Y-101666667D01*
X132952381Y-101704762D01*
X132990476Y-101742857D01*
X133028571Y-101819048D01*
D13*
X132021000Y-106696000D02*
X132021000Y-108696000D01*
X134171000Y-108696000D02*
X134171000Y-106696000D01*
X146828000Y-97087000D02*
X148828000Y-97087000D01*
X148828000Y-94937000D02*
X146828000Y-94937000D01*
X160587000Y-99044000D02*
X160587000Y-97044000D01*
X158437000Y-97044000D02*
X158437000Y-99044000D01*
D12*
X131146571Y-107086476D02*
X131679905Y-107086476D01*
X130841810Y-106896000D02*
X131413238Y-106705524D01*
X131413238Y-107200762D01*
X130879905Y-107429334D02*
X130879905Y-107962667D01*
X131679905Y-107619810D01*
X130879905Y-108419810D02*
X130879905Y-108496001D01*
X130918000Y-108572191D01*
X130956095Y-108610286D01*
X131032286Y-108648382D01*
X131184667Y-108686477D01*
X131375143Y-108686477D01*
X131527524Y-108648382D01*
X131603714Y-108610286D01*
X131641810Y-108572191D01*
X131679905Y-108496001D01*
X131679905Y-108419810D01*
X131641810Y-108343620D01*
X131603714Y-108305524D01*
X131527524Y-108267429D01*
X131375143Y-108229334D01*
X131184667Y-108229334D01*
X131032286Y-108267429D01*
X130956095Y-108305524D01*
X130918000Y-108343620D01*
X130879905Y-108419810D01*
X147999428Y-94595905D02*
X148456571Y-94595905D01*
X148228000Y-94595905D02*
X148228000Y-93795905D01*
X148304190Y-93910190D01*
X148380381Y-93986381D01*
X148456571Y-94024476D01*
X147656571Y-94595905D02*
X147656571Y-93795905D01*
X147199428Y-94595905D02*
X147542285Y-94138762D01*
X147199428Y-93795905D02*
X147656571Y-94253048D01*
X161905905Y-97491619D02*
X161905905Y-97034476D01*
X161905905Y-97263047D02*
X161105905Y-97263047D01*
X161220190Y-97186857D01*
X161296381Y-97110666D01*
X161334476Y-97034476D01*
X161105905Y-97986857D02*
X161105905Y-98063048D01*
X161144000Y-98139238D01*
X161182095Y-98177333D01*
X161258286Y-98215429D01*
X161410667Y-98253524D01*
X161601143Y-98253524D01*
X161753524Y-98215429D01*
X161829714Y-98177333D01*
X161867810Y-98139238D01*
X161905905Y-98063048D01*
X161905905Y-97986857D01*
X161867810Y-97910667D01*
X161829714Y-97872571D01*
X161753524Y-97834476D01*
X161601143Y-97796381D01*
X161410667Y-97796381D01*
X161258286Y-97834476D01*
X161182095Y-97872571D01*
X161144000Y-97910667D01*
X161105905Y-97986857D01*
X161905905Y-98596381D02*
X161105905Y-98596381D01*
X161905905Y-99053524D02*
X161448762Y-98710667D01*
X161105905Y-99053524D02*
X161563048Y-98596381D01*
M02*
