G04 #@! TF.FileFunction,Copper,L1,Top,Signal*
%FSLAX46Y46*%
G04 Gerber Fmt 4.6, Leading zero omitted, Abs format (unit mm)*
G04 Created by KiCad (PCBNEW 4.0.3+e1-6302~38~ubuntu15.04.1-stable) date Sun Oct 23 08:05:09 2016*
%MOMM*%
%LPD*%
G01*
G04 APERTURE LIST*
%ADD10C,0.100000*%
%ADD11R,1.727200X1.727200*%
%ADD12O,1.727200X1.727200*%
%ADD13R,1.750000X1.750000*%
%ADD14C,1.750000*%
%ADD15R,1.300000X1.300000*%
%ADD16C,1.300000*%
%ADD17R,2.540000X2.540000*%
%ADD18C,2.540000*%
%ADD19R,1.727200X2.032000*%
%ADD20O,1.727200X2.032000*%
%ADD21C,0.685800*%
%ADD22C,2.000000*%
%ADD23C,0.250000*%
G04 APERTURE END LIST*
D10*
D11*
X132588000Y-99060000D03*
D12*
X132588000Y-96520000D03*
X135128000Y-99060000D03*
X135128000Y-96520000D03*
X137668000Y-99060000D03*
X137668000Y-96520000D03*
X140208000Y-99060000D03*
X140208000Y-96520000D03*
D13*
X138176000Y-104648000D03*
D14*
X138176000Y-107148000D03*
X138176000Y-109648000D03*
D15*
X148000000Y-110600000D03*
D16*
X148000000Y-105600000D03*
D17*
X158600000Y-104860000D03*
D18*
X158600000Y-109940000D03*
D13*
X154940000Y-99060000D03*
D14*
X154940000Y-96560000D03*
D19*
X145796000Y-99822000D03*
D20*
X148336000Y-99822000D03*
X150876000Y-99822000D03*
D21*
X131064000Y-104902000D03*
D22*
X158600000Y-109940000D02*
X148660000Y-109940000D01*
X148660000Y-109940000D02*
X148000000Y-110600000D01*
X138176000Y-107148000D02*
X145796000Y-107148000D01*
X145796000Y-99822000D02*
X145796000Y-107148000D01*
X145796000Y-107148000D02*
X145796000Y-108396000D01*
X145796000Y-108396000D02*
X148000000Y-110600000D01*
D23*
X151638000Y-97790000D02*
X152908000Y-99060000D01*
X152908000Y-99060000D02*
X154940000Y-99060000D01*
X147828000Y-97790000D02*
X151638000Y-97790000D01*
X140208000Y-99060000D02*
X141478000Y-97790000D01*
X141478000Y-97790000D02*
X147828000Y-97790000D01*
X147828000Y-97790000D02*
X148336000Y-98298000D01*
X148336000Y-98298000D02*
X148336000Y-99822000D01*
X135128000Y-99060000D02*
X136652000Y-100584000D01*
X136652000Y-100584000D02*
X138684000Y-100584000D01*
X138684000Y-100584000D02*
X140208000Y-99060000D01*
X134620000Y-94488000D02*
X135128000Y-94996000D01*
X135128000Y-94996000D02*
X135128000Y-96520000D01*
X131826000Y-94488000D02*
X134620000Y-94488000D01*
X131064000Y-95250000D02*
X131826000Y-94488000D01*
X131064000Y-104902000D02*
X131064000Y-95250000D01*
M02*
