M48
;DRILL file {KiCad 4.0.3+e1-6302~38~ubuntu15.04.1-stable} date Sat Oct 22 19:45:29 2016
;FORMAT={-:-/ absolute / inch / decimal}
FMAT,2
INCH,TZ
T1C0.016
T2C0.031
T3C0.035
T4C0.040
T5C0.060
%
G90
G05
M72
T1
X5.16Y-4.13
T2
X5.8268Y-4.1575
X5.8268Y-4.3543
T3
X5.44Y-4.12
X5.44Y-4.2184
X5.44Y-4.3169
X6.1Y-3.8016
X6.1Y-3.9
T4
X5.22Y-3.8
X5.22Y-3.9
X5.32Y-3.8
X5.32Y-3.9
X5.42Y-3.8
X5.42Y-3.9
X5.52Y-3.8
X5.52Y-3.9
X5.74Y-3.93
X5.84Y-3.93
X5.94Y-3.93
T5
X6.2441Y-4.1283
X6.2441Y-4.3283
T0
M30
