G04 #@! TF.FileFunction,Copper,L2,Bot,Signal*
%FSLAX46Y46*%
G04 Gerber Fmt 4.6, Leading zero omitted, Abs format (unit mm)*
G04 Created by KiCad (PCBNEW 4.0.3+e1-6302~38~ubuntu15.04.1-stable) date Sat Oct 22 19:45:27 2016*
%MOMM*%
%LPD*%
G01*
G04 APERTURE LIST*
%ADD10C,0.100000*%
%ADD11R,1.727200X1.727200*%
%ADD12O,1.727200X1.727200*%
%ADD13R,1.750000X1.750000*%
%ADD14C,1.750000*%
%ADD15R,1.300000X1.300000*%
%ADD16C,1.300000*%
%ADD17R,2.540000X2.540000*%
%ADD18C,2.540000*%
%ADD19R,1.727200X2.032000*%
%ADD20O,1.727200X2.032000*%
%ADD21R,1.700000X2.000000*%
%ADD22R,2.000000X1.700000*%
%ADD23C,0.600000*%
%ADD24C,0.250000*%
%ADD25C,0.254000*%
G04 APERTURE END LIST*
D10*
D11*
X132588000Y-99060000D03*
D12*
X132588000Y-96520000D03*
X135128000Y-99060000D03*
X135128000Y-96520000D03*
X137668000Y-99060000D03*
X137668000Y-96520000D03*
X140208000Y-99060000D03*
X140208000Y-96520000D03*
D13*
X138176000Y-104648000D03*
D14*
X138176000Y-107148000D03*
X138176000Y-109648000D03*
D15*
X148000000Y-110600000D03*
D16*
X148000000Y-105600000D03*
D17*
X158600000Y-104860000D03*
D18*
X158600000Y-109940000D03*
D13*
X154940000Y-99060000D03*
D14*
X154940000Y-96560000D03*
D19*
X145796000Y-99822000D03*
D20*
X148336000Y-99822000D03*
X150876000Y-99822000D03*
D21*
X133096000Y-109696000D03*
X133096000Y-105696000D03*
D22*
X149828000Y-96012000D03*
X145828000Y-96012000D03*
D21*
X159512000Y-96044000D03*
X159512000Y-100044000D03*
D23*
X131064000Y-104902000D03*
D24*
X133096000Y-105696000D02*
X131858000Y-105696000D01*
X131858000Y-105696000D02*
X131064000Y-104902000D01*
X142240000Y-96012000D02*
X141732000Y-96520000D01*
X141732000Y-96520000D02*
X140208000Y-96520000D01*
X145828000Y-96012000D02*
X142240000Y-96012000D01*
X138176000Y-109648000D02*
X133144000Y-109648000D01*
X133144000Y-109648000D02*
X133096000Y-109696000D01*
X157194000Y-96044000D02*
X156678000Y-96560000D01*
X156678000Y-96560000D02*
X154940000Y-96560000D01*
X159512000Y-96044000D02*
X157194000Y-96044000D01*
X152654000Y-96012000D02*
X153202000Y-96560000D01*
X153202000Y-96560000D02*
X154940000Y-96560000D01*
X149828000Y-96012000D02*
X152654000Y-96012000D01*
D25*
G36*
X162097319Y-94204925D02*
X162335076Y-94442682D01*
X162358000Y-94557930D01*
X162358000Y-111690070D01*
X162335076Y-111805318D01*
X162097319Y-112043075D01*
X161982069Y-112066000D01*
X131133930Y-112066000D01*
X131018682Y-112043076D01*
X130780925Y-111805319D01*
X130758000Y-111690069D01*
X130758000Y-108696000D01*
X131598560Y-108696000D01*
X131598560Y-110696000D01*
X131642838Y-110931317D01*
X131781910Y-111147441D01*
X131994110Y-111292431D01*
X132246000Y-111343440D01*
X133946000Y-111343440D01*
X134181317Y-111299162D01*
X134397441Y-111160090D01*
X134542431Y-110947890D01*
X134593440Y-110696000D01*
X134593440Y-110408000D01*
X136856203Y-110408000D01*
X136895138Y-110502229D01*
X137319537Y-110927370D01*
X137874325Y-111157738D01*
X138475040Y-111158262D01*
X139030229Y-110928862D01*
X139455370Y-110504463D01*
X139685603Y-109950000D01*
X146702560Y-109950000D01*
X146702560Y-111250000D01*
X146746838Y-111485317D01*
X146885910Y-111701441D01*
X147098110Y-111846431D01*
X147350000Y-111897440D01*
X148650000Y-111897440D01*
X148885317Y-111853162D01*
X149101441Y-111714090D01*
X149246431Y-111501890D01*
X149297440Y-111250000D01*
X149297440Y-110317265D01*
X156694670Y-110317265D01*
X156984078Y-111017686D01*
X157519495Y-111554039D01*
X158219410Y-111844668D01*
X158977265Y-111845330D01*
X159677686Y-111555922D01*
X160214039Y-111020505D01*
X160504668Y-110320590D01*
X160505330Y-109562735D01*
X160215922Y-108862314D01*
X159680505Y-108325961D01*
X158980590Y-108035332D01*
X158222735Y-108034670D01*
X157522314Y-108324078D01*
X156985961Y-108859495D01*
X156695332Y-109559410D01*
X156694670Y-110317265D01*
X149297440Y-110317265D01*
X149297440Y-109950000D01*
X149253162Y-109714683D01*
X149114090Y-109498559D01*
X148901890Y-109353569D01*
X148650000Y-109302560D01*
X147350000Y-109302560D01*
X147114683Y-109346838D01*
X146898559Y-109485910D01*
X146753569Y-109698110D01*
X146702560Y-109950000D01*
X139685603Y-109950000D01*
X139685738Y-109949675D01*
X139686262Y-109348960D01*
X139456862Y-108793771D01*
X139061464Y-108397682D01*
X139455370Y-108004463D01*
X139685738Y-107449675D01*
X139686262Y-106848960D01*
X139541668Y-106499016D01*
X147280590Y-106499016D01*
X147336271Y-106729611D01*
X147819078Y-106897622D01*
X148329428Y-106868083D01*
X148663729Y-106729611D01*
X148719410Y-106499016D01*
X148000000Y-105779605D01*
X147280590Y-106499016D01*
X139541668Y-106499016D01*
X139456862Y-106293771D01*
X139279198Y-106115797D01*
X139410699Y-106061327D01*
X139589327Y-105882698D01*
X139686000Y-105649309D01*
X139686000Y-105419078D01*
X146702378Y-105419078D01*
X146731917Y-105929428D01*
X146870389Y-106263729D01*
X147100984Y-106319410D01*
X147820395Y-105600000D01*
X148179605Y-105600000D01*
X148899016Y-106319410D01*
X149129611Y-106263729D01*
X149297622Y-105780922D01*
X149268083Y-105270572D01*
X149216381Y-105145750D01*
X156695000Y-105145750D01*
X156695000Y-106256309D01*
X156791673Y-106489698D01*
X156970301Y-106668327D01*
X157203690Y-106765000D01*
X158314250Y-106765000D01*
X158473000Y-106606250D01*
X158473000Y-104987000D01*
X158727000Y-104987000D01*
X158727000Y-106606250D01*
X158885750Y-106765000D01*
X159996310Y-106765000D01*
X160229699Y-106668327D01*
X160408327Y-106489698D01*
X160505000Y-106256309D01*
X160505000Y-105145750D01*
X160346250Y-104987000D01*
X158727000Y-104987000D01*
X158473000Y-104987000D01*
X156853750Y-104987000D01*
X156695000Y-105145750D01*
X149216381Y-105145750D01*
X149129611Y-104936271D01*
X148899016Y-104880590D01*
X148179605Y-105600000D01*
X147820395Y-105600000D01*
X147100984Y-104880590D01*
X146870389Y-104936271D01*
X146702378Y-105419078D01*
X139686000Y-105419078D01*
X139686000Y-104933750D01*
X139527250Y-104775000D01*
X138303000Y-104775000D01*
X138303000Y-104795000D01*
X138049000Y-104795000D01*
X138049000Y-104775000D01*
X136824750Y-104775000D01*
X136666000Y-104933750D01*
X136666000Y-105649309D01*
X136762673Y-105882698D01*
X136941301Y-106061327D01*
X137072714Y-106115760D01*
X136896630Y-106291537D01*
X136666262Y-106846325D01*
X136665738Y-107447040D01*
X136895138Y-108002229D01*
X137290536Y-108398318D01*
X136896630Y-108791537D01*
X136856575Y-108888000D01*
X134593440Y-108888000D01*
X134593440Y-108696000D01*
X134549162Y-108460683D01*
X134410090Y-108244559D01*
X134197890Y-108099569D01*
X133946000Y-108048560D01*
X132246000Y-108048560D01*
X132010683Y-108092838D01*
X131794559Y-108231910D01*
X131649569Y-108444110D01*
X131598560Y-108696000D01*
X130758000Y-108696000D01*
X130758000Y-105787341D01*
X130877201Y-105836838D01*
X130924077Y-105836879D01*
X131320599Y-106233401D01*
X131567161Y-106398148D01*
X131598560Y-106404394D01*
X131598560Y-106696000D01*
X131642838Y-106931317D01*
X131781910Y-107147441D01*
X131994110Y-107292431D01*
X132246000Y-107343440D01*
X133946000Y-107343440D01*
X134181317Y-107299162D01*
X134397441Y-107160090D01*
X134542431Y-106947890D01*
X134593440Y-106696000D01*
X134593440Y-104700984D01*
X147280590Y-104700984D01*
X148000000Y-105420395D01*
X148719410Y-104700984D01*
X148663729Y-104470389D01*
X148180922Y-104302378D01*
X147670572Y-104331917D01*
X147336271Y-104470389D01*
X147280590Y-104700984D01*
X134593440Y-104700984D01*
X134593440Y-104696000D01*
X134549162Y-104460683D01*
X134410090Y-104244559D01*
X134197890Y-104099569D01*
X133946000Y-104048560D01*
X132246000Y-104048560D01*
X132010683Y-104092838D01*
X131794559Y-104231910D01*
X131762725Y-104278500D01*
X131594327Y-104109808D01*
X131250799Y-103967162D01*
X130878833Y-103966838D01*
X130758000Y-104016765D01*
X130758000Y-103646691D01*
X136666000Y-103646691D01*
X136666000Y-104362250D01*
X136824750Y-104521000D01*
X138049000Y-104521000D01*
X138049000Y-103296750D01*
X138303000Y-103296750D01*
X138303000Y-104521000D01*
X139527250Y-104521000D01*
X139686000Y-104362250D01*
X139686000Y-103646691D01*
X139610199Y-103463691D01*
X156695000Y-103463691D01*
X156695000Y-104574250D01*
X156853750Y-104733000D01*
X158473000Y-104733000D01*
X158473000Y-103113750D01*
X158727000Y-103113750D01*
X158727000Y-104733000D01*
X160346250Y-104733000D01*
X160505000Y-104574250D01*
X160505000Y-103463691D01*
X160408327Y-103230302D01*
X160229699Y-103051673D01*
X159996310Y-102955000D01*
X158885750Y-102955000D01*
X158727000Y-103113750D01*
X158473000Y-103113750D01*
X158314250Y-102955000D01*
X157203690Y-102955000D01*
X156970301Y-103051673D01*
X156791673Y-103230302D01*
X156695000Y-103463691D01*
X139610199Y-103463691D01*
X139589327Y-103413302D01*
X139410699Y-103234673D01*
X139177310Y-103138000D01*
X138461750Y-103138000D01*
X138303000Y-103296750D01*
X138049000Y-103296750D01*
X137890250Y-103138000D01*
X137174690Y-103138000D01*
X136941301Y-103234673D01*
X136762673Y-103413302D01*
X136666000Y-103646691D01*
X130758000Y-103646691D01*
X130758000Y-98196400D01*
X131076960Y-98196400D01*
X131076960Y-99923600D01*
X131121238Y-100158917D01*
X131260310Y-100375041D01*
X131472510Y-100520031D01*
X131724400Y-100571040D01*
X133451600Y-100571040D01*
X133686917Y-100526762D01*
X133903041Y-100387690D01*
X134048031Y-100175490D01*
X134056864Y-100131869D01*
X134068330Y-100149029D01*
X134554511Y-100473885D01*
X135128000Y-100587959D01*
X135701489Y-100473885D01*
X136187670Y-100149029D01*
X136398000Y-99834248D01*
X136608330Y-100149029D01*
X137094511Y-100473885D01*
X137668000Y-100587959D01*
X138241489Y-100473885D01*
X138727670Y-100149029D01*
X138938000Y-99834248D01*
X139148330Y-100149029D01*
X139634511Y-100473885D01*
X140208000Y-100587959D01*
X140781489Y-100473885D01*
X141267670Y-100149029D01*
X141592526Y-99662848D01*
X141706600Y-99089359D01*
X141706600Y-99030641D01*
X141661917Y-98806000D01*
X144284960Y-98806000D01*
X144284960Y-100838000D01*
X144329238Y-101073317D01*
X144468310Y-101289441D01*
X144680510Y-101434431D01*
X144932400Y-101485440D01*
X146659600Y-101485440D01*
X146894917Y-101441162D01*
X147111041Y-101302090D01*
X147256031Y-101089890D01*
X147264400Y-101048561D01*
X147276330Y-101066415D01*
X147762511Y-101391271D01*
X148336000Y-101505345D01*
X148909489Y-101391271D01*
X149395670Y-101066415D01*
X149602461Y-100756931D01*
X149973964Y-101172732D01*
X150501209Y-101426709D01*
X150516974Y-101429358D01*
X150749000Y-101308217D01*
X150749000Y-99949000D01*
X151003000Y-99949000D01*
X151003000Y-101308217D01*
X151235026Y-101429358D01*
X151250791Y-101426709D01*
X151778036Y-101172732D01*
X152167954Y-100736320D01*
X152361184Y-100183913D01*
X152216924Y-99949000D01*
X151003000Y-99949000D01*
X150749000Y-99949000D01*
X150729000Y-99949000D01*
X150729000Y-99695000D01*
X150749000Y-99695000D01*
X150749000Y-98335783D01*
X151003000Y-98335783D01*
X151003000Y-99695000D01*
X152216924Y-99695000D01*
X152361184Y-99460087D01*
X152167954Y-98907680D01*
X151778036Y-98471268D01*
X151250791Y-98217291D01*
X151235026Y-98214642D01*
X151003000Y-98335783D01*
X150749000Y-98335783D01*
X150516974Y-98214642D01*
X150501209Y-98217291D01*
X149973964Y-98471268D01*
X149602461Y-98887069D01*
X149395670Y-98577585D01*
X148909489Y-98252729D01*
X148336000Y-98138655D01*
X147762511Y-98252729D01*
X147276330Y-98577585D01*
X147266757Y-98591913D01*
X147262762Y-98570683D01*
X147123690Y-98354559D01*
X146911490Y-98209569D01*
X146659600Y-98158560D01*
X144932400Y-98158560D01*
X144697083Y-98202838D01*
X144480959Y-98341910D01*
X144335969Y-98554110D01*
X144284960Y-98806000D01*
X141661917Y-98806000D01*
X141592526Y-98457152D01*
X141267670Y-97970971D01*
X140996828Y-97790000D01*
X141267670Y-97609029D01*
X141487520Y-97280000D01*
X141732000Y-97280000D01*
X142022839Y-97222148D01*
X142269401Y-97057401D01*
X142554802Y-96772000D01*
X144180560Y-96772000D01*
X144180560Y-96862000D01*
X144224838Y-97097317D01*
X144363910Y-97313441D01*
X144576110Y-97458431D01*
X144828000Y-97509440D01*
X146828000Y-97509440D01*
X147063317Y-97465162D01*
X147279441Y-97326090D01*
X147424431Y-97113890D01*
X147475440Y-96862000D01*
X147475440Y-95162000D01*
X148180560Y-95162000D01*
X148180560Y-96862000D01*
X148224838Y-97097317D01*
X148363910Y-97313441D01*
X148576110Y-97458431D01*
X148828000Y-97509440D01*
X150828000Y-97509440D01*
X151063317Y-97465162D01*
X151279441Y-97326090D01*
X151424431Y-97113890D01*
X151475440Y-96862000D01*
X151475440Y-96772000D01*
X152339198Y-96772000D01*
X152664599Y-97097401D01*
X152911161Y-97262148D01*
X153202000Y-97320000D01*
X153620203Y-97320000D01*
X153659138Y-97414229D01*
X153827717Y-97583103D01*
X153613559Y-97720910D01*
X153468569Y-97933110D01*
X153417560Y-98185000D01*
X153417560Y-99935000D01*
X153461838Y-100170317D01*
X153600910Y-100386441D01*
X153813110Y-100531431D01*
X154065000Y-100582440D01*
X155815000Y-100582440D01*
X156050317Y-100538162D01*
X156266441Y-100399090D01*
X156313818Y-100329750D01*
X158027000Y-100329750D01*
X158027000Y-101170309D01*
X158123673Y-101403698D01*
X158302301Y-101582327D01*
X158535690Y-101679000D01*
X159226250Y-101679000D01*
X159385000Y-101520250D01*
X159385000Y-100171000D01*
X159639000Y-100171000D01*
X159639000Y-101520250D01*
X159797750Y-101679000D01*
X160488310Y-101679000D01*
X160721699Y-101582327D01*
X160900327Y-101403698D01*
X160997000Y-101170309D01*
X160997000Y-100329750D01*
X160838250Y-100171000D01*
X159639000Y-100171000D01*
X159385000Y-100171000D01*
X158185750Y-100171000D01*
X158027000Y-100329750D01*
X156313818Y-100329750D01*
X156411431Y-100186890D01*
X156462440Y-99935000D01*
X156462440Y-98917691D01*
X158027000Y-98917691D01*
X158027000Y-99758250D01*
X158185750Y-99917000D01*
X159385000Y-99917000D01*
X159385000Y-98567750D01*
X159639000Y-98567750D01*
X159639000Y-99917000D01*
X160838250Y-99917000D01*
X160997000Y-99758250D01*
X160997000Y-98917691D01*
X160900327Y-98684302D01*
X160721699Y-98505673D01*
X160488310Y-98409000D01*
X159797750Y-98409000D01*
X159639000Y-98567750D01*
X159385000Y-98567750D01*
X159226250Y-98409000D01*
X158535690Y-98409000D01*
X158302301Y-98505673D01*
X158123673Y-98684302D01*
X158027000Y-98917691D01*
X156462440Y-98917691D01*
X156462440Y-98185000D01*
X156418162Y-97949683D01*
X156279090Y-97733559D01*
X156066890Y-97588569D01*
X156050324Y-97585214D01*
X156219370Y-97416463D01*
X156259425Y-97320000D01*
X156678000Y-97320000D01*
X156968839Y-97262148D01*
X157215401Y-97097401D01*
X157508802Y-96804000D01*
X158014560Y-96804000D01*
X158014560Y-97044000D01*
X158058838Y-97279317D01*
X158197910Y-97495441D01*
X158410110Y-97640431D01*
X158662000Y-97691440D01*
X160362000Y-97691440D01*
X160597317Y-97647162D01*
X160813441Y-97508090D01*
X160958431Y-97295890D01*
X161009440Y-97044000D01*
X161009440Y-95044000D01*
X160965162Y-94808683D01*
X160826090Y-94592559D01*
X160613890Y-94447569D01*
X160362000Y-94396560D01*
X158662000Y-94396560D01*
X158426683Y-94440838D01*
X158210559Y-94579910D01*
X158065569Y-94792110D01*
X158014560Y-95044000D01*
X158014560Y-95284000D01*
X157194000Y-95284000D01*
X156903160Y-95341852D01*
X156656599Y-95506599D01*
X156363198Y-95800000D01*
X156259797Y-95800000D01*
X156220862Y-95705771D01*
X155796463Y-95280630D01*
X155241675Y-95050262D01*
X154640960Y-95049738D01*
X154085771Y-95279138D01*
X153660630Y-95703537D01*
X153620575Y-95800000D01*
X153516802Y-95800000D01*
X153191401Y-95474599D01*
X152944839Y-95309852D01*
X152654000Y-95252000D01*
X151475440Y-95252000D01*
X151475440Y-95162000D01*
X151431162Y-94926683D01*
X151292090Y-94710559D01*
X151079890Y-94565569D01*
X150828000Y-94514560D01*
X148828000Y-94514560D01*
X148592683Y-94558838D01*
X148376559Y-94697910D01*
X148231569Y-94910110D01*
X148180560Y-95162000D01*
X147475440Y-95162000D01*
X147431162Y-94926683D01*
X147292090Y-94710559D01*
X147079890Y-94565569D01*
X146828000Y-94514560D01*
X144828000Y-94514560D01*
X144592683Y-94558838D01*
X144376559Y-94697910D01*
X144231569Y-94910110D01*
X144180560Y-95162000D01*
X144180560Y-95252000D01*
X142240000Y-95252000D01*
X141949161Y-95309852D01*
X141767893Y-95430971D01*
X141702599Y-95474599D01*
X141459353Y-95717845D01*
X141267670Y-95430971D01*
X140781489Y-95106115D01*
X140208000Y-94992041D01*
X139634511Y-95106115D01*
X139148330Y-95430971D01*
X138938000Y-95745752D01*
X138727670Y-95430971D01*
X138241489Y-95106115D01*
X137668000Y-94992041D01*
X137094511Y-95106115D01*
X136608330Y-95430971D01*
X136398000Y-95745752D01*
X136187670Y-95430971D01*
X135701489Y-95106115D01*
X135128000Y-94992041D01*
X134554511Y-95106115D01*
X134068330Y-95430971D01*
X133852336Y-95754228D01*
X133794821Y-95631510D01*
X133362947Y-95237312D01*
X132947026Y-95065042D01*
X132715000Y-95186183D01*
X132715000Y-96393000D01*
X132735000Y-96393000D01*
X132735000Y-96647000D01*
X132715000Y-96647000D01*
X132715000Y-96667000D01*
X132461000Y-96667000D01*
X132461000Y-96647000D01*
X131253531Y-96647000D01*
X131133032Y-96879027D01*
X131381179Y-97408490D01*
X131567433Y-97578495D01*
X131489083Y-97593238D01*
X131272959Y-97732310D01*
X131127969Y-97944510D01*
X131076960Y-98196400D01*
X130758000Y-98196400D01*
X130758000Y-96160973D01*
X131133032Y-96160973D01*
X131253531Y-96393000D01*
X132461000Y-96393000D01*
X132461000Y-95186183D01*
X132228974Y-95065042D01*
X131813053Y-95237312D01*
X131381179Y-95631510D01*
X131133032Y-96160973D01*
X130758000Y-96160973D01*
X130758000Y-94557931D01*
X130780925Y-94442681D01*
X131018682Y-94204924D01*
X131133930Y-94182000D01*
X161982069Y-94182000D01*
X162097319Y-94204925D01*
X162097319Y-94204925D01*
G37*
X162097319Y-94204925D02*
X162335076Y-94442682D01*
X162358000Y-94557930D01*
X162358000Y-111690070D01*
X162335076Y-111805318D01*
X162097319Y-112043075D01*
X161982069Y-112066000D01*
X131133930Y-112066000D01*
X131018682Y-112043076D01*
X130780925Y-111805319D01*
X130758000Y-111690069D01*
X130758000Y-108696000D01*
X131598560Y-108696000D01*
X131598560Y-110696000D01*
X131642838Y-110931317D01*
X131781910Y-111147441D01*
X131994110Y-111292431D01*
X132246000Y-111343440D01*
X133946000Y-111343440D01*
X134181317Y-111299162D01*
X134397441Y-111160090D01*
X134542431Y-110947890D01*
X134593440Y-110696000D01*
X134593440Y-110408000D01*
X136856203Y-110408000D01*
X136895138Y-110502229D01*
X137319537Y-110927370D01*
X137874325Y-111157738D01*
X138475040Y-111158262D01*
X139030229Y-110928862D01*
X139455370Y-110504463D01*
X139685603Y-109950000D01*
X146702560Y-109950000D01*
X146702560Y-111250000D01*
X146746838Y-111485317D01*
X146885910Y-111701441D01*
X147098110Y-111846431D01*
X147350000Y-111897440D01*
X148650000Y-111897440D01*
X148885317Y-111853162D01*
X149101441Y-111714090D01*
X149246431Y-111501890D01*
X149297440Y-111250000D01*
X149297440Y-110317265D01*
X156694670Y-110317265D01*
X156984078Y-111017686D01*
X157519495Y-111554039D01*
X158219410Y-111844668D01*
X158977265Y-111845330D01*
X159677686Y-111555922D01*
X160214039Y-111020505D01*
X160504668Y-110320590D01*
X160505330Y-109562735D01*
X160215922Y-108862314D01*
X159680505Y-108325961D01*
X158980590Y-108035332D01*
X158222735Y-108034670D01*
X157522314Y-108324078D01*
X156985961Y-108859495D01*
X156695332Y-109559410D01*
X156694670Y-110317265D01*
X149297440Y-110317265D01*
X149297440Y-109950000D01*
X149253162Y-109714683D01*
X149114090Y-109498559D01*
X148901890Y-109353569D01*
X148650000Y-109302560D01*
X147350000Y-109302560D01*
X147114683Y-109346838D01*
X146898559Y-109485910D01*
X146753569Y-109698110D01*
X146702560Y-109950000D01*
X139685603Y-109950000D01*
X139685738Y-109949675D01*
X139686262Y-109348960D01*
X139456862Y-108793771D01*
X139061464Y-108397682D01*
X139455370Y-108004463D01*
X139685738Y-107449675D01*
X139686262Y-106848960D01*
X139541668Y-106499016D01*
X147280590Y-106499016D01*
X147336271Y-106729611D01*
X147819078Y-106897622D01*
X148329428Y-106868083D01*
X148663729Y-106729611D01*
X148719410Y-106499016D01*
X148000000Y-105779605D01*
X147280590Y-106499016D01*
X139541668Y-106499016D01*
X139456862Y-106293771D01*
X139279198Y-106115797D01*
X139410699Y-106061327D01*
X139589327Y-105882698D01*
X139686000Y-105649309D01*
X139686000Y-105419078D01*
X146702378Y-105419078D01*
X146731917Y-105929428D01*
X146870389Y-106263729D01*
X147100984Y-106319410D01*
X147820395Y-105600000D01*
X148179605Y-105600000D01*
X148899016Y-106319410D01*
X149129611Y-106263729D01*
X149297622Y-105780922D01*
X149268083Y-105270572D01*
X149216381Y-105145750D01*
X156695000Y-105145750D01*
X156695000Y-106256309D01*
X156791673Y-106489698D01*
X156970301Y-106668327D01*
X157203690Y-106765000D01*
X158314250Y-106765000D01*
X158473000Y-106606250D01*
X158473000Y-104987000D01*
X158727000Y-104987000D01*
X158727000Y-106606250D01*
X158885750Y-106765000D01*
X159996310Y-106765000D01*
X160229699Y-106668327D01*
X160408327Y-106489698D01*
X160505000Y-106256309D01*
X160505000Y-105145750D01*
X160346250Y-104987000D01*
X158727000Y-104987000D01*
X158473000Y-104987000D01*
X156853750Y-104987000D01*
X156695000Y-105145750D01*
X149216381Y-105145750D01*
X149129611Y-104936271D01*
X148899016Y-104880590D01*
X148179605Y-105600000D01*
X147820395Y-105600000D01*
X147100984Y-104880590D01*
X146870389Y-104936271D01*
X146702378Y-105419078D01*
X139686000Y-105419078D01*
X139686000Y-104933750D01*
X139527250Y-104775000D01*
X138303000Y-104775000D01*
X138303000Y-104795000D01*
X138049000Y-104795000D01*
X138049000Y-104775000D01*
X136824750Y-104775000D01*
X136666000Y-104933750D01*
X136666000Y-105649309D01*
X136762673Y-105882698D01*
X136941301Y-106061327D01*
X137072714Y-106115760D01*
X136896630Y-106291537D01*
X136666262Y-106846325D01*
X136665738Y-107447040D01*
X136895138Y-108002229D01*
X137290536Y-108398318D01*
X136896630Y-108791537D01*
X136856575Y-108888000D01*
X134593440Y-108888000D01*
X134593440Y-108696000D01*
X134549162Y-108460683D01*
X134410090Y-108244559D01*
X134197890Y-108099569D01*
X133946000Y-108048560D01*
X132246000Y-108048560D01*
X132010683Y-108092838D01*
X131794559Y-108231910D01*
X131649569Y-108444110D01*
X131598560Y-108696000D01*
X130758000Y-108696000D01*
X130758000Y-105787341D01*
X130877201Y-105836838D01*
X130924077Y-105836879D01*
X131320599Y-106233401D01*
X131567161Y-106398148D01*
X131598560Y-106404394D01*
X131598560Y-106696000D01*
X131642838Y-106931317D01*
X131781910Y-107147441D01*
X131994110Y-107292431D01*
X132246000Y-107343440D01*
X133946000Y-107343440D01*
X134181317Y-107299162D01*
X134397441Y-107160090D01*
X134542431Y-106947890D01*
X134593440Y-106696000D01*
X134593440Y-104700984D01*
X147280590Y-104700984D01*
X148000000Y-105420395D01*
X148719410Y-104700984D01*
X148663729Y-104470389D01*
X148180922Y-104302378D01*
X147670572Y-104331917D01*
X147336271Y-104470389D01*
X147280590Y-104700984D01*
X134593440Y-104700984D01*
X134593440Y-104696000D01*
X134549162Y-104460683D01*
X134410090Y-104244559D01*
X134197890Y-104099569D01*
X133946000Y-104048560D01*
X132246000Y-104048560D01*
X132010683Y-104092838D01*
X131794559Y-104231910D01*
X131762725Y-104278500D01*
X131594327Y-104109808D01*
X131250799Y-103967162D01*
X130878833Y-103966838D01*
X130758000Y-104016765D01*
X130758000Y-103646691D01*
X136666000Y-103646691D01*
X136666000Y-104362250D01*
X136824750Y-104521000D01*
X138049000Y-104521000D01*
X138049000Y-103296750D01*
X138303000Y-103296750D01*
X138303000Y-104521000D01*
X139527250Y-104521000D01*
X139686000Y-104362250D01*
X139686000Y-103646691D01*
X139610199Y-103463691D01*
X156695000Y-103463691D01*
X156695000Y-104574250D01*
X156853750Y-104733000D01*
X158473000Y-104733000D01*
X158473000Y-103113750D01*
X158727000Y-103113750D01*
X158727000Y-104733000D01*
X160346250Y-104733000D01*
X160505000Y-104574250D01*
X160505000Y-103463691D01*
X160408327Y-103230302D01*
X160229699Y-103051673D01*
X159996310Y-102955000D01*
X158885750Y-102955000D01*
X158727000Y-103113750D01*
X158473000Y-103113750D01*
X158314250Y-102955000D01*
X157203690Y-102955000D01*
X156970301Y-103051673D01*
X156791673Y-103230302D01*
X156695000Y-103463691D01*
X139610199Y-103463691D01*
X139589327Y-103413302D01*
X139410699Y-103234673D01*
X139177310Y-103138000D01*
X138461750Y-103138000D01*
X138303000Y-103296750D01*
X138049000Y-103296750D01*
X137890250Y-103138000D01*
X137174690Y-103138000D01*
X136941301Y-103234673D01*
X136762673Y-103413302D01*
X136666000Y-103646691D01*
X130758000Y-103646691D01*
X130758000Y-98196400D01*
X131076960Y-98196400D01*
X131076960Y-99923600D01*
X131121238Y-100158917D01*
X131260310Y-100375041D01*
X131472510Y-100520031D01*
X131724400Y-100571040D01*
X133451600Y-100571040D01*
X133686917Y-100526762D01*
X133903041Y-100387690D01*
X134048031Y-100175490D01*
X134056864Y-100131869D01*
X134068330Y-100149029D01*
X134554511Y-100473885D01*
X135128000Y-100587959D01*
X135701489Y-100473885D01*
X136187670Y-100149029D01*
X136398000Y-99834248D01*
X136608330Y-100149029D01*
X137094511Y-100473885D01*
X137668000Y-100587959D01*
X138241489Y-100473885D01*
X138727670Y-100149029D01*
X138938000Y-99834248D01*
X139148330Y-100149029D01*
X139634511Y-100473885D01*
X140208000Y-100587959D01*
X140781489Y-100473885D01*
X141267670Y-100149029D01*
X141592526Y-99662848D01*
X141706600Y-99089359D01*
X141706600Y-99030641D01*
X141661917Y-98806000D01*
X144284960Y-98806000D01*
X144284960Y-100838000D01*
X144329238Y-101073317D01*
X144468310Y-101289441D01*
X144680510Y-101434431D01*
X144932400Y-101485440D01*
X146659600Y-101485440D01*
X146894917Y-101441162D01*
X147111041Y-101302090D01*
X147256031Y-101089890D01*
X147264400Y-101048561D01*
X147276330Y-101066415D01*
X147762511Y-101391271D01*
X148336000Y-101505345D01*
X148909489Y-101391271D01*
X149395670Y-101066415D01*
X149602461Y-100756931D01*
X149973964Y-101172732D01*
X150501209Y-101426709D01*
X150516974Y-101429358D01*
X150749000Y-101308217D01*
X150749000Y-99949000D01*
X151003000Y-99949000D01*
X151003000Y-101308217D01*
X151235026Y-101429358D01*
X151250791Y-101426709D01*
X151778036Y-101172732D01*
X152167954Y-100736320D01*
X152361184Y-100183913D01*
X152216924Y-99949000D01*
X151003000Y-99949000D01*
X150749000Y-99949000D01*
X150729000Y-99949000D01*
X150729000Y-99695000D01*
X150749000Y-99695000D01*
X150749000Y-98335783D01*
X151003000Y-98335783D01*
X151003000Y-99695000D01*
X152216924Y-99695000D01*
X152361184Y-99460087D01*
X152167954Y-98907680D01*
X151778036Y-98471268D01*
X151250791Y-98217291D01*
X151235026Y-98214642D01*
X151003000Y-98335783D01*
X150749000Y-98335783D01*
X150516974Y-98214642D01*
X150501209Y-98217291D01*
X149973964Y-98471268D01*
X149602461Y-98887069D01*
X149395670Y-98577585D01*
X148909489Y-98252729D01*
X148336000Y-98138655D01*
X147762511Y-98252729D01*
X147276330Y-98577585D01*
X147266757Y-98591913D01*
X147262762Y-98570683D01*
X147123690Y-98354559D01*
X146911490Y-98209569D01*
X146659600Y-98158560D01*
X144932400Y-98158560D01*
X144697083Y-98202838D01*
X144480959Y-98341910D01*
X144335969Y-98554110D01*
X144284960Y-98806000D01*
X141661917Y-98806000D01*
X141592526Y-98457152D01*
X141267670Y-97970971D01*
X140996828Y-97790000D01*
X141267670Y-97609029D01*
X141487520Y-97280000D01*
X141732000Y-97280000D01*
X142022839Y-97222148D01*
X142269401Y-97057401D01*
X142554802Y-96772000D01*
X144180560Y-96772000D01*
X144180560Y-96862000D01*
X144224838Y-97097317D01*
X144363910Y-97313441D01*
X144576110Y-97458431D01*
X144828000Y-97509440D01*
X146828000Y-97509440D01*
X147063317Y-97465162D01*
X147279441Y-97326090D01*
X147424431Y-97113890D01*
X147475440Y-96862000D01*
X147475440Y-95162000D01*
X148180560Y-95162000D01*
X148180560Y-96862000D01*
X148224838Y-97097317D01*
X148363910Y-97313441D01*
X148576110Y-97458431D01*
X148828000Y-97509440D01*
X150828000Y-97509440D01*
X151063317Y-97465162D01*
X151279441Y-97326090D01*
X151424431Y-97113890D01*
X151475440Y-96862000D01*
X151475440Y-96772000D01*
X152339198Y-96772000D01*
X152664599Y-97097401D01*
X152911161Y-97262148D01*
X153202000Y-97320000D01*
X153620203Y-97320000D01*
X153659138Y-97414229D01*
X153827717Y-97583103D01*
X153613559Y-97720910D01*
X153468569Y-97933110D01*
X153417560Y-98185000D01*
X153417560Y-99935000D01*
X153461838Y-100170317D01*
X153600910Y-100386441D01*
X153813110Y-100531431D01*
X154065000Y-100582440D01*
X155815000Y-100582440D01*
X156050317Y-100538162D01*
X156266441Y-100399090D01*
X156313818Y-100329750D01*
X158027000Y-100329750D01*
X158027000Y-101170309D01*
X158123673Y-101403698D01*
X158302301Y-101582327D01*
X158535690Y-101679000D01*
X159226250Y-101679000D01*
X159385000Y-101520250D01*
X159385000Y-100171000D01*
X159639000Y-100171000D01*
X159639000Y-101520250D01*
X159797750Y-101679000D01*
X160488310Y-101679000D01*
X160721699Y-101582327D01*
X160900327Y-101403698D01*
X160997000Y-101170309D01*
X160997000Y-100329750D01*
X160838250Y-100171000D01*
X159639000Y-100171000D01*
X159385000Y-100171000D01*
X158185750Y-100171000D01*
X158027000Y-100329750D01*
X156313818Y-100329750D01*
X156411431Y-100186890D01*
X156462440Y-99935000D01*
X156462440Y-98917691D01*
X158027000Y-98917691D01*
X158027000Y-99758250D01*
X158185750Y-99917000D01*
X159385000Y-99917000D01*
X159385000Y-98567750D01*
X159639000Y-98567750D01*
X159639000Y-99917000D01*
X160838250Y-99917000D01*
X160997000Y-99758250D01*
X160997000Y-98917691D01*
X160900327Y-98684302D01*
X160721699Y-98505673D01*
X160488310Y-98409000D01*
X159797750Y-98409000D01*
X159639000Y-98567750D01*
X159385000Y-98567750D01*
X159226250Y-98409000D01*
X158535690Y-98409000D01*
X158302301Y-98505673D01*
X158123673Y-98684302D01*
X158027000Y-98917691D01*
X156462440Y-98917691D01*
X156462440Y-98185000D01*
X156418162Y-97949683D01*
X156279090Y-97733559D01*
X156066890Y-97588569D01*
X156050324Y-97585214D01*
X156219370Y-97416463D01*
X156259425Y-97320000D01*
X156678000Y-97320000D01*
X156968839Y-97262148D01*
X157215401Y-97097401D01*
X157508802Y-96804000D01*
X158014560Y-96804000D01*
X158014560Y-97044000D01*
X158058838Y-97279317D01*
X158197910Y-97495441D01*
X158410110Y-97640431D01*
X158662000Y-97691440D01*
X160362000Y-97691440D01*
X160597317Y-97647162D01*
X160813441Y-97508090D01*
X160958431Y-97295890D01*
X161009440Y-97044000D01*
X161009440Y-95044000D01*
X160965162Y-94808683D01*
X160826090Y-94592559D01*
X160613890Y-94447569D01*
X160362000Y-94396560D01*
X158662000Y-94396560D01*
X158426683Y-94440838D01*
X158210559Y-94579910D01*
X158065569Y-94792110D01*
X158014560Y-95044000D01*
X158014560Y-95284000D01*
X157194000Y-95284000D01*
X156903160Y-95341852D01*
X156656599Y-95506599D01*
X156363198Y-95800000D01*
X156259797Y-95800000D01*
X156220862Y-95705771D01*
X155796463Y-95280630D01*
X155241675Y-95050262D01*
X154640960Y-95049738D01*
X154085771Y-95279138D01*
X153660630Y-95703537D01*
X153620575Y-95800000D01*
X153516802Y-95800000D01*
X153191401Y-95474599D01*
X152944839Y-95309852D01*
X152654000Y-95252000D01*
X151475440Y-95252000D01*
X151475440Y-95162000D01*
X151431162Y-94926683D01*
X151292090Y-94710559D01*
X151079890Y-94565569D01*
X150828000Y-94514560D01*
X148828000Y-94514560D01*
X148592683Y-94558838D01*
X148376559Y-94697910D01*
X148231569Y-94910110D01*
X148180560Y-95162000D01*
X147475440Y-95162000D01*
X147431162Y-94926683D01*
X147292090Y-94710559D01*
X147079890Y-94565569D01*
X146828000Y-94514560D01*
X144828000Y-94514560D01*
X144592683Y-94558838D01*
X144376559Y-94697910D01*
X144231569Y-94910110D01*
X144180560Y-95162000D01*
X144180560Y-95252000D01*
X142240000Y-95252000D01*
X141949161Y-95309852D01*
X141767893Y-95430971D01*
X141702599Y-95474599D01*
X141459353Y-95717845D01*
X141267670Y-95430971D01*
X140781489Y-95106115D01*
X140208000Y-94992041D01*
X139634511Y-95106115D01*
X139148330Y-95430971D01*
X138938000Y-95745752D01*
X138727670Y-95430971D01*
X138241489Y-95106115D01*
X137668000Y-94992041D01*
X137094511Y-95106115D01*
X136608330Y-95430971D01*
X136398000Y-95745752D01*
X136187670Y-95430971D01*
X135701489Y-95106115D01*
X135128000Y-94992041D01*
X134554511Y-95106115D01*
X134068330Y-95430971D01*
X133852336Y-95754228D01*
X133794821Y-95631510D01*
X133362947Y-95237312D01*
X132947026Y-95065042D01*
X132715000Y-95186183D01*
X132715000Y-96393000D01*
X132735000Y-96393000D01*
X132735000Y-96647000D01*
X132715000Y-96647000D01*
X132715000Y-96667000D01*
X132461000Y-96667000D01*
X132461000Y-96647000D01*
X131253531Y-96647000D01*
X131133032Y-96879027D01*
X131381179Y-97408490D01*
X131567433Y-97578495D01*
X131489083Y-97593238D01*
X131272959Y-97732310D01*
X131127969Y-97944510D01*
X131076960Y-98196400D01*
X130758000Y-98196400D01*
X130758000Y-96160973D01*
X131133032Y-96160973D01*
X131253531Y-96393000D01*
X132461000Y-96393000D01*
X132461000Y-95186183D01*
X132228974Y-95065042D01*
X131813053Y-95237312D01*
X131381179Y-95631510D01*
X131133032Y-96160973D01*
X130758000Y-96160973D01*
X130758000Y-94557931D01*
X130780925Y-94442681D01*
X131018682Y-94204924D01*
X131133930Y-94182000D01*
X161982069Y-94182000D01*
X162097319Y-94204925D01*
M02*
