M48
;DRILL file {KiCad 4.0.3+e1-6302~38~ubuntu15.04.1-stable} date Sat Oct  8 22:08:42 2016
;FORMAT={-:-/ absolute / inch / decimal}
FMAT,2
INCH,TZ
T1C0.016
T2C0.040
T3C0.060
%
G90
G05
M72
T1
X5.315Y-4.0059
X5.7961Y-3.971
T2
X4.7441Y-4.052
X4.7441Y-4.152
X4.7441Y-4.252
X4.9213Y-4.2717
X4.9606Y-3.9748
X4.9606Y-4.0748
X5.0213Y-4.2717
X5.0606Y-3.9748
X5.0606Y-4.0748
X5.1213Y-4.2717
X5.1606Y-3.9748
X5.1606Y-4.0748
X5.2606Y-3.9748
X5.2606Y-4.0748
X5.2756Y-4.2717
X5.3756Y-4.2717
X5.4756Y-4.2717
T3
X5.689Y-4.0339
X5.689Y-4.2339
T0
M30
