G04 #@! TF.FileFunction,Copper,L1,Top,Signal*
%FSLAX46Y46*%
G04 Gerber Fmt 4.6, Leading zero omitted, Abs format (unit mm)*
G04 Created by KiCad (PCBNEW 4.0.3+e1-6302~38~ubuntu15.04.1-stable) date Wed Oct  5 22:25:40 2016*
%MOMM*%
%LPD*%
G01*
G04 APERTURE LIST*
%ADD10C,0.100000*%
%ADD11R,1.727200X1.727200*%
%ADD12C,1.727200*%
%ADD13R,1.300000X1.300000*%
%ADD14C,1.300000*%
%ADD15R,1.800860X1.597660*%
%ADD16R,1.750000X1.750000*%
%ADD17C,1.750000*%
%ADD18R,1.200000X1.700000*%
%ADD19O,1.200000X1.700000*%
%ADD20C,1.524000*%
%ADD21R,3.500120X3.500120*%
%ADD22R,2.000000X1.700000*%
%ADD23R,1.700000X2.000000*%
%ADD24R,1.397000X1.397000*%
%ADD25C,1.397000*%
%ADD26C,0.600000*%
%ADD27C,0.250000*%
%ADD28C,2.050000*%
%ADD29C,0.254000*%
G04 APERTURE END LIST*
D10*
D11*
X80220000Y-61620000D03*
D12*
X82760000Y-61620000D03*
X85300000Y-61620000D03*
X87840000Y-61620000D03*
X90380000Y-61620000D03*
X92920000Y-61620000D03*
X95460000Y-61620000D03*
X98000000Y-61620000D03*
X100540000Y-61620000D03*
X103080000Y-61620000D03*
X105620000Y-61620000D03*
X108160000Y-61620000D03*
X110700000Y-61620000D03*
X113240000Y-61620000D03*
X115780000Y-61620000D03*
X115780000Y-46380000D03*
X113240000Y-46380000D03*
X110700000Y-46380000D03*
X108160000Y-46380000D03*
X105620000Y-46380000D03*
X103080000Y-46380000D03*
X100540000Y-46380000D03*
X98000000Y-46380000D03*
X95460000Y-46380000D03*
X92920000Y-46380000D03*
X90380000Y-46380000D03*
X87840000Y-46380000D03*
X85300000Y-46380000D03*
X82760000Y-46380000D03*
X80220000Y-46380000D03*
D13*
X36000000Y-60000000D03*
D14*
X41000000Y-60000000D03*
D15*
X96000000Y-38580140D03*
X96000000Y-41419860D03*
D16*
X38000000Y-72000000D03*
D17*
X40500000Y-72000000D03*
X43000000Y-72000000D03*
X45500000Y-72000000D03*
X48000000Y-72000000D03*
X50500000Y-72000000D03*
X53000000Y-72000000D03*
X55500000Y-72000000D03*
D16*
X62000000Y-72000000D03*
D17*
X64500000Y-72000000D03*
X67000000Y-72000000D03*
X69500000Y-72000000D03*
X72000000Y-72000000D03*
X74500000Y-72000000D03*
X77000000Y-72000000D03*
X79500000Y-72000000D03*
D18*
X110000000Y-75000000D03*
D19*
X112000000Y-75000000D03*
X114000000Y-75000000D03*
X116000000Y-75000000D03*
D18*
X110000000Y-67500000D03*
D19*
X112000000Y-67500000D03*
X114000000Y-67500000D03*
X116000000Y-67500000D03*
D20*
X72750000Y-50500000D03*
X72750000Y-33500000D03*
X33250000Y-50500000D03*
X33250000Y-33500000D03*
D21*
X105799860Y-38000000D03*
X111799340Y-38000000D03*
X108799600Y-33301000D03*
D22*
X87000000Y-52000000D03*
X83000000Y-52000000D03*
X87000000Y-56000000D03*
X83000000Y-56000000D03*
X109500000Y-52000000D03*
X113500000Y-52000000D03*
X109500000Y-56000000D03*
X113500000Y-56000000D03*
D23*
X100000000Y-39000000D03*
X100000000Y-43000000D03*
D16*
X86000000Y-75000000D03*
D17*
X88500000Y-75000000D03*
X91000000Y-75000000D03*
D16*
X97500000Y-75000000D03*
D17*
X100000000Y-75000000D03*
X102500000Y-75000000D03*
D24*
X87540000Y-36000000D03*
D25*
X85000000Y-36000000D03*
X82460000Y-36000000D03*
D26*
X96000000Y-40000000D03*
X72421178Y-65503528D03*
X73699997Y-61500000D03*
X74500000Y-61500000D03*
X119000000Y-52000000D03*
X119000000Y-56000000D03*
D27*
X96000000Y-41419860D02*
X96000000Y-40000000D01*
X43874999Y-71125001D02*
X43000000Y-72000000D01*
X51939395Y-63060605D02*
X43874999Y-71125001D01*
X88939395Y-63060605D02*
X51939395Y-63060605D01*
X90380000Y-61620000D02*
X88939395Y-63060605D01*
X91029384Y-63510616D02*
X53989384Y-63510616D01*
X92920000Y-61620000D02*
X91029384Y-63510616D01*
X53989384Y-63510616D02*
X46374999Y-71125001D01*
X46374999Y-71125001D02*
X45500000Y-72000000D01*
X95460000Y-61620000D02*
X93119373Y-63960627D01*
X48874999Y-71125001D02*
X48000000Y-72000000D01*
X93119373Y-63960627D02*
X56039373Y-63960627D01*
X56039373Y-63960627D02*
X48874999Y-71125001D01*
X95209362Y-64410638D02*
X58089362Y-64410638D01*
X98000000Y-61620000D02*
X95209362Y-64410638D01*
X51374999Y-71125001D02*
X50500000Y-72000000D01*
X58089362Y-64410638D02*
X51374999Y-71125001D01*
X60139351Y-64860649D02*
X53874999Y-71125001D01*
X100540000Y-61620000D02*
X97299351Y-64860649D01*
X97299351Y-64860649D02*
X60139351Y-64860649D01*
X53874999Y-71125001D02*
X53000000Y-72000000D01*
X103080000Y-61620000D02*
X99389341Y-65310659D01*
X99389341Y-65310659D02*
X73689341Y-65310659D01*
X73689341Y-65310659D02*
X67874999Y-71125001D01*
X67874999Y-71125001D02*
X67000000Y-72000000D01*
X105620000Y-61620000D02*
X101479331Y-65760669D01*
X101479331Y-65760669D02*
X75739331Y-65760669D01*
X75739331Y-65760669D02*
X70374999Y-71125001D01*
X70374999Y-71125001D02*
X69500000Y-72000000D01*
X108160000Y-61620000D02*
X103569321Y-66210679D01*
X103569321Y-66210679D02*
X77789321Y-66210679D01*
X72874999Y-71125001D02*
X72000000Y-72000000D01*
X77789321Y-66210679D02*
X72874999Y-71125001D01*
X110700000Y-61620000D02*
X105659311Y-66660689D01*
X105659311Y-66660689D02*
X79839311Y-66660689D01*
X79839311Y-66660689D02*
X75374999Y-71125001D01*
X75374999Y-71125001D02*
X74500000Y-72000000D01*
X113240000Y-61620000D02*
X111307995Y-63552005D01*
X111307995Y-63552005D02*
X110742858Y-63552005D01*
X81889301Y-67110699D02*
X77874999Y-71125001D01*
X110742858Y-63552005D02*
X107184164Y-67110699D01*
X107184164Y-67110699D02*
X81889301Y-67110699D01*
X77874999Y-71125001D02*
X77000000Y-72000000D01*
X115780000Y-61620000D02*
X113390378Y-64009622D01*
X113390378Y-64009622D02*
X110921651Y-64009622D01*
X110921651Y-64009622D02*
X101914423Y-73016850D01*
X101914423Y-73016850D02*
X92983150Y-73016850D01*
X92983150Y-73016850D02*
X91000000Y-75000000D01*
X115780000Y-46380000D02*
X120453758Y-51053758D01*
X120453758Y-51053758D02*
X120453758Y-59223105D01*
X120453758Y-59223105D02*
X115217230Y-64459633D01*
X102500000Y-73067684D02*
X102500000Y-75000000D01*
X115217230Y-64459633D02*
X111108051Y-64459633D01*
X111108051Y-64459633D02*
X102500000Y-73067684D01*
X108160000Y-46380000D02*
X106355001Y-44575001D01*
X91568601Y-45931399D02*
X91568601Y-49651288D01*
X89219889Y-52000000D02*
X87000000Y-52000000D01*
X106355001Y-44575001D02*
X92924999Y-44575001D01*
X92924999Y-44575001D02*
X91568601Y-45931399D01*
X91568601Y-49651288D02*
X89219889Y-52000000D01*
X108160000Y-46380000D02*
X108160000Y-45840000D01*
X94108601Y-47791399D02*
X87000000Y-54900000D01*
X87000000Y-54900000D02*
X87000000Y-56000000D01*
X94108601Y-45972269D02*
X94108601Y-47791399D01*
X95055858Y-45025012D02*
X94108601Y-45972269D01*
X104265012Y-45025012D02*
X95055858Y-45025012D01*
X105620000Y-46380000D02*
X104265012Y-45025012D01*
X103080000Y-46380000D02*
X103080000Y-47601314D01*
X103080000Y-47601314D02*
X107478686Y-52000000D01*
X107478686Y-52000000D02*
X108250000Y-52000000D01*
X108250000Y-52000000D02*
X109500000Y-52000000D01*
X100540000Y-46380000D02*
X109500000Y-55340000D01*
X109500000Y-55340000D02*
X109500000Y-56000000D01*
D28*
X33250000Y-50500000D02*
X33250000Y-54250000D01*
X36000000Y-57000000D02*
X36000000Y-60000000D01*
X33250000Y-54250000D02*
X36000000Y-57000000D01*
D27*
X96000000Y-38580140D02*
X99580140Y-38580140D01*
X99580140Y-38580140D02*
X100000000Y-39000000D01*
X71996914Y-65503528D02*
X72421178Y-65503528D01*
X61996472Y-65503528D02*
X71996914Y-65503528D01*
X55500000Y-72000000D02*
X61996472Y-65503528D01*
X83000000Y-52000000D02*
X81363590Y-52000000D01*
X81363590Y-52000000D02*
X73699997Y-59663593D01*
X73699997Y-59663593D02*
X73699997Y-61500000D01*
X78000000Y-56000000D02*
X74500000Y-59500000D01*
X74500000Y-59500000D02*
X74500000Y-61500000D01*
X81750000Y-56000000D02*
X78000000Y-56000000D01*
X83000000Y-56000000D02*
X81750000Y-56000000D01*
X83000000Y-56000000D02*
X82850000Y-56000000D01*
X113500000Y-52000000D02*
X119000000Y-52000000D01*
X113500000Y-56000000D02*
X119000000Y-56000000D01*
D28*
X85000000Y-36000000D02*
X85000000Y-37500000D01*
X85000000Y-37500000D02*
X83500000Y-39000000D01*
X83500000Y-39000000D02*
X76500000Y-39000000D01*
X76500000Y-39000000D02*
X72750000Y-42750000D01*
X72750000Y-42750000D02*
X72750000Y-50500000D01*
X87540000Y-36000000D02*
X103799860Y-36000000D01*
X103799860Y-36000000D02*
X105799860Y-38000000D01*
D29*
G36*
X94452130Y-42218690D02*
X94496408Y-42454007D01*
X94635480Y-42670131D01*
X94847680Y-42815121D01*
X95099570Y-42866130D01*
X96900430Y-42866130D01*
X97135747Y-42821852D01*
X97351871Y-42682780D01*
X97496861Y-42470580D01*
X97547870Y-42218690D01*
X97547870Y-41873691D01*
X98515000Y-41873691D01*
X98515000Y-42714250D01*
X98673750Y-42873000D01*
X99873000Y-42873000D01*
X99873000Y-41523750D01*
X100127000Y-41523750D01*
X100127000Y-42873000D01*
X101326250Y-42873000D01*
X101485000Y-42714250D01*
X101485000Y-41873691D01*
X101388327Y-41640302D01*
X101209699Y-41461673D01*
X100976310Y-41365000D01*
X100285750Y-41365000D01*
X100127000Y-41523750D01*
X99873000Y-41523750D01*
X99714250Y-41365000D01*
X99023690Y-41365000D01*
X98790301Y-41461673D01*
X98611673Y-41640302D01*
X98515000Y-41873691D01*
X97547870Y-41873691D01*
X97547870Y-41127000D01*
X119947394Y-41127000D01*
X120873000Y-42052606D01*
X120873000Y-50398198D01*
X117241916Y-46767114D01*
X117278339Y-46679398D01*
X117278859Y-46083218D01*
X117051192Y-45532220D01*
X116629997Y-45110290D01*
X116079398Y-44881661D01*
X115483218Y-44881141D01*
X114932220Y-45108808D01*
X114510290Y-45530003D01*
X114509905Y-45530931D01*
X114089997Y-45110290D01*
X113539398Y-44881661D01*
X112943218Y-44881141D01*
X112392220Y-45108808D01*
X111970290Y-45530003D01*
X111969905Y-45530931D01*
X111549997Y-45110290D01*
X110999398Y-44881661D01*
X110403218Y-44881141D01*
X109852220Y-45108808D01*
X109430290Y-45530003D01*
X109429905Y-45530931D01*
X109009997Y-45110290D01*
X108459398Y-44881661D01*
X107863218Y-44881141D01*
X107773156Y-44918354D01*
X106892402Y-44037600D01*
X106645840Y-43872853D01*
X106355001Y-43815001D01*
X101485000Y-43815001D01*
X101485000Y-43285750D01*
X101326250Y-43127000D01*
X100127000Y-43127000D01*
X100127000Y-43147000D01*
X99873000Y-43147000D01*
X99873000Y-43127000D01*
X98673750Y-43127000D01*
X98515000Y-43285750D01*
X98515000Y-43815001D01*
X92924999Y-43815001D01*
X92682413Y-43863255D01*
X92634159Y-43872853D01*
X92387598Y-44037600D01*
X91272415Y-45152783D01*
X91229997Y-45110290D01*
X90679398Y-44881661D01*
X90083218Y-44881141D01*
X89532220Y-45108808D01*
X89110290Y-45530003D01*
X89093459Y-45570537D01*
X88893805Y-45505800D01*
X88019605Y-46380000D01*
X88893805Y-47254200D01*
X89093033Y-47189601D01*
X89108808Y-47227780D01*
X89530003Y-47649710D01*
X90080602Y-47878339D01*
X90676782Y-47878859D01*
X90808601Y-47824393D01*
X90808601Y-49336486D01*
X88905087Y-51240000D01*
X88647440Y-51240000D01*
X88647440Y-51150000D01*
X88603162Y-50914683D01*
X88464090Y-50698559D01*
X88251890Y-50553569D01*
X88000000Y-50502560D01*
X86000000Y-50502560D01*
X85764683Y-50546838D01*
X85548559Y-50685910D01*
X85403569Y-50898110D01*
X85352560Y-51150000D01*
X85352560Y-52850000D01*
X85396838Y-53085317D01*
X85535910Y-53301441D01*
X85748110Y-53446431D01*
X86000000Y-53497440D01*
X87327758Y-53497440D01*
X86462599Y-54362599D01*
X86369080Y-54502560D01*
X86000000Y-54502560D01*
X85764683Y-54546838D01*
X85548559Y-54685910D01*
X85403569Y-54898110D01*
X85352560Y-55150000D01*
X85352560Y-56850000D01*
X85396838Y-57085317D01*
X85535910Y-57301441D01*
X85748110Y-57446431D01*
X86000000Y-57497440D01*
X88000000Y-57497440D01*
X88235317Y-57453162D01*
X88451441Y-57314090D01*
X88596431Y-57101890D01*
X88647440Y-56850000D01*
X88647440Y-55150000D01*
X88603162Y-54914683D01*
X88464090Y-54698559D01*
X88352494Y-54622308D01*
X94646002Y-48328800D01*
X94810749Y-48082238D01*
X94868601Y-47791399D01*
X94868601Y-47757089D01*
X95160602Y-47878339D01*
X95756782Y-47878859D01*
X96307780Y-47651192D01*
X96729710Y-47229997D01*
X96730095Y-47229069D01*
X97150003Y-47649710D01*
X97700602Y-47878339D01*
X98296782Y-47878859D01*
X98847780Y-47651192D01*
X99269710Y-47229997D01*
X99270095Y-47229069D01*
X99690003Y-47649710D01*
X100240602Y-47878339D01*
X100836782Y-47878859D01*
X100926844Y-47841646D01*
X107935937Y-54850739D01*
X107903569Y-54898110D01*
X107852560Y-55150000D01*
X107852560Y-56850000D01*
X107896838Y-57085317D01*
X108035910Y-57301441D01*
X108248110Y-57446431D01*
X108500000Y-57497440D01*
X110500000Y-57497440D01*
X110735317Y-57453162D01*
X110951441Y-57314090D01*
X111096431Y-57101890D01*
X111147440Y-56850000D01*
X111147440Y-55150000D01*
X111103162Y-54914683D01*
X110964090Y-54698559D01*
X110751890Y-54553569D01*
X110500000Y-54502560D01*
X109737362Y-54502560D01*
X108732242Y-53497440D01*
X110500000Y-53497440D01*
X110735317Y-53453162D01*
X110951441Y-53314090D01*
X111096431Y-53101890D01*
X111147440Y-52850000D01*
X111147440Y-51150000D01*
X111103162Y-50914683D01*
X110964090Y-50698559D01*
X110751890Y-50553569D01*
X110500000Y-50502560D01*
X108500000Y-50502560D01*
X108264683Y-50546838D01*
X108048559Y-50685910D01*
X107903569Y-50898110D01*
X107852560Y-51150000D01*
X107852560Y-51240000D01*
X107793488Y-51240000D01*
X104066351Y-47512863D01*
X104349710Y-47229997D01*
X104350095Y-47229069D01*
X104770003Y-47649710D01*
X105320602Y-47878339D01*
X105916782Y-47878859D01*
X106467780Y-47651192D01*
X106889710Y-47229997D01*
X106890095Y-47229069D01*
X107310003Y-47649710D01*
X107860602Y-47878339D01*
X108456782Y-47878859D01*
X109007780Y-47651192D01*
X109429710Y-47229997D01*
X109430095Y-47229069D01*
X109850003Y-47649710D01*
X110400602Y-47878339D01*
X110996782Y-47878859D01*
X111547780Y-47651192D01*
X111969710Y-47229997D01*
X111970095Y-47229069D01*
X112390003Y-47649710D01*
X112940602Y-47878339D01*
X113536782Y-47878859D01*
X114087780Y-47651192D01*
X114509710Y-47229997D01*
X114510095Y-47229069D01*
X114930003Y-47649710D01*
X115480602Y-47878339D01*
X116076782Y-47878859D01*
X116166844Y-47841646D01*
X119693758Y-51368560D01*
X119693758Y-51371524D01*
X119530327Y-51207808D01*
X119186799Y-51065162D01*
X118814833Y-51064838D01*
X118471057Y-51206883D01*
X118437882Y-51240000D01*
X115147440Y-51240000D01*
X115147440Y-51150000D01*
X115103162Y-50914683D01*
X114964090Y-50698559D01*
X114751890Y-50553569D01*
X114500000Y-50502560D01*
X112500000Y-50502560D01*
X112264683Y-50546838D01*
X112048559Y-50685910D01*
X111903569Y-50898110D01*
X111852560Y-51150000D01*
X111852560Y-52850000D01*
X111896838Y-53085317D01*
X112035910Y-53301441D01*
X112248110Y-53446431D01*
X112500000Y-53497440D01*
X114500000Y-53497440D01*
X114735317Y-53453162D01*
X114951441Y-53314090D01*
X115096431Y-53101890D01*
X115147440Y-52850000D01*
X115147440Y-52760000D01*
X118437537Y-52760000D01*
X118469673Y-52792192D01*
X118813201Y-52934838D01*
X119185167Y-52935162D01*
X119528943Y-52793117D01*
X119693758Y-52628589D01*
X119693758Y-55371524D01*
X119530327Y-55207808D01*
X119186799Y-55065162D01*
X118814833Y-55064838D01*
X118471057Y-55206883D01*
X118437882Y-55240000D01*
X115147440Y-55240000D01*
X115147440Y-55150000D01*
X115103162Y-54914683D01*
X114964090Y-54698559D01*
X114751890Y-54553569D01*
X114500000Y-54502560D01*
X112500000Y-54502560D01*
X112264683Y-54546838D01*
X112048559Y-54685910D01*
X111903569Y-54898110D01*
X111852560Y-55150000D01*
X111852560Y-56850000D01*
X111896838Y-57085317D01*
X112035910Y-57301441D01*
X112248110Y-57446431D01*
X112500000Y-57497440D01*
X114500000Y-57497440D01*
X114735317Y-57453162D01*
X114951441Y-57314090D01*
X115096431Y-57101890D01*
X115147440Y-56850000D01*
X115147440Y-56760000D01*
X118437537Y-56760000D01*
X118469673Y-56792192D01*
X118813201Y-56934838D01*
X119185167Y-56935162D01*
X119528943Y-56793117D01*
X119693758Y-56628589D01*
X119693758Y-58908303D01*
X117278854Y-61323207D01*
X117051192Y-60772220D01*
X116629997Y-60350290D01*
X116079398Y-60121661D01*
X115483218Y-60121141D01*
X114932220Y-60348808D01*
X114510290Y-60770003D01*
X114509905Y-60770931D01*
X114089997Y-60350290D01*
X113539398Y-60121661D01*
X112943218Y-60121141D01*
X112392220Y-60348808D01*
X111970290Y-60770003D01*
X111969905Y-60770931D01*
X111549997Y-60350290D01*
X110999398Y-60121661D01*
X110403218Y-60121141D01*
X109852220Y-60348808D01*
X109430290Y-60770003D01*
X109429905Y-60770931D01*
X109009997Y-60350290D01*
X108459398Y-60121661D01*
X107863218Y-60121141D01*
X107312220Y-60348808D01*
X106890290Y-60770003D01*
X106889905Y-60770931D01*
X106469997Y-60350290D01*
X105919398Y-60121661D01*
X105323218Y-60121141D01*
X104772220Y-60348808D01*
X104350290Y-60770003D01*
X104349905Y-60770931D01*
X103929997Y-60350290D01*
X103379398Y-60121661D01*
X102783218Y-60121141D01*
X102232220Y-60348808D01*
X101810290Y-60770003D01*
X101809905Y-60770931D01*
X101389997Y-60350290D01*
X100839398Y-60121661D01*
X100243218Y-60121141D01*
X99692220Y-60348808D01*
X99270290Y-60770003D01*
X99269905Y-60770931D01*
X98849997Y-60350290D01*
X98299398Y-60121661D01*
X97703218Y-60121141D01*
X97152220Y-60348808D01*
X96730290Y-60770003D01*
X96729905Y-60770931D01*
X96309997Y-60350290D01*
X95759398Y-60121661D01*
X95163218Y-60121141D01*
X94612220Y-60348808D01*
X94190290Y-60770003D01*
X94189905Y-60770931D01*
X93769997Y-60350290D01*
X93219398Y-60121661D01*
X92623218Y-60121141D01*
X92072220Y-60348808D01*
X91650290Y-60770003D01*
X91649905Y-60770931D01*
X91229997Y-60350290D01*
X90679398Y-60121661D01*
X90083218Y-60121141D01*
X89532220Y-60348808D01*
X89110290Y-60770003D01*
X89109905Y-60770931D01*
X88689997Y-60350290D01*
X88139398Y-60121661D01*
X87543218Y-60121141D01*
X86992220Y-60348808D01*
X86570290Y-60770003D01*
X86569905Y-60770931D01*
X86149997Y-60350290D01*
X85599398Y-60121661D01*
X85003218Y-60121141D01*
X84452220Y-60348808D01*
X84030290Y-60770003D01*
X84029905Y-60770931D01*
X83609997Y-60350290D01*
X83059398Y-60121661D01*
X82463218Y-60121141D01*
X81912220Y-60348808D01*
X81695124Y-60565525D01*
X81686762Y-60521083D01*
X81547690Y-60304959D01*
X81335490Y-60159969D01*
X81083600Y-60108960D01*
X79356400Y-60108960D01*
X79121083Y-60153238D01*
X78904959Y-60292310D01*
X78759969Y-60504510D01*
X78708960Y-60756400D01*
X78708960Y-62300605D01*
X75010821Y-62300605D01*
X75028943Y-62293117D01*
X75292192Y-62030327D01*
X75434838Y-61686799D01*
X75435162Y-61314833D01*
X75293117Y-60971057D01*
X75260000Y-60937882D01*
X75260000Y-59814802D01*
X78314802Y-56760000D01*
X81352560Y-56760000D01*
X81352560Y-56850000D01*
X81396838Y-57085317D01*
X81535910Y-57301441D01*
X81748110Y-57446431D01*
X82000000Y-57497440D01*
X84000000Y-57497440D01*
X84235317Y-57453162D01*
X84451441Y-57314090D01*
X84596431Y-57101890D01*
X84647440Y-56850000D01*
X84647440Y-55150000D01*
X84603162Y-54914683D01*
X84464090Y-54698559D01*
X84251890Y-54553569D01*
X84000000Y-54502560D01*
X82000000Y-54502560D01*
X81764683Y-54546838D01*
X81548559Y-54685910D01*
X81403569Y-54898110D01*
X81352560Y-55150000D01*
X81352560Y-55240000D01*
X79198392Y-55240000D01*
X81389907Y-53048485D01*
X81396838Y-53085317D01*
X81535910Y-53301441D01*
X81748110Y-53446431D01*
X82000000Y-53497440D01*
X84000000Y-53497440D01*
X84235317Y-53453162D01*
X84451441Y-53314090D01*
X84596431Y-53101890D01*
X84647440Y-52850000D01*
X84647440Y-51150000D01*
X84603162Y-50914683D01*
X84464090Y-50698559D01*
X84251890Y-50553569D01*
X84000000Y-50502560D01*
X82000000Y-50502560D01*
X81764683Y-50546838D01*
X81548559Y-50685910D01*
X81403569Y-50898110D01*
X81352560Y-51150000D01*
X81352560Y-51242194D01*
X81072751Y-51297852D01*
X80826189Y-51462599D01*
X73162596Y-59126192D01*
X72997849Y-59372754D01*
X72939997Y-59663593D01*
X72939997Y-60937537D01*
X72907805Y-60969673D01*
X72765159Y-61313201D01*
X72764835Y-61685167D01*
X72906880Y-62028943D01*
X73169670Y-62292192D01*
X73189931Y-62300605D01*
X51939395Y-62300605D01*
X51648555Y-62358457D01*
X51401994Y-62523204D01*
X43395837Y-70529361D01*
X43301675Y-70490262D01*
X42700960Y-70489738D01*
X42145771Y-70719138D01*
X41720630Y-71143537D01*
X41711108Y-71166469D01*
X41562060Y-71117545D01*
X40679605Y-72000000D01*
X41562060Y-72882455D01*
X41710648Y-72833682D01*
X41719138Y-72854229D01*
X42143537Y-73279370D01*
X42698325Y-73509738D01*
X43299040Y-73510262D01*
X43854229Y-73280862D01*
X44250318Y-72885464D01*
X44643537Y-73279370D01*
X45198325Y-73509738D01*
X45799040Y-73510262D01*
X46354229Y-73280862D01*
X46750318Y-72885464D01*
X47143537Y-73279370D01*
X47698325Y-73509738D01*
X48299040Y-73510262D01*
X48854229Y-73280862D01*
X49250318Y-72885464D01*
X49643537Y-73279370D01*
X50198325Y-73509738D01*
X50799040Y-73510262D01*
X51354229Y-73280862D01*
X51750318Y-72885464D01*
X52143537Y-73279370D01*
X52698325Y-73509738D01*
X53299040Y-73510262D01*
X53854229Y-73280862D01*
X54250318Y-72885464D01*
X54643537Y-73279370D01*
X55198325Y-73509738D01*
X55799040Y-73510262D01*
X56354229Y-73280862D01*
X56779370Y-72856463D01*
X57009738Y-72301675D01*
X57010262Y-71700960D01*
X56970375Y-71604427D01*
X57449802Y-71125000D01*
X60477560Y-71125000D01*
X60477560Y-72875000D01*
X60521838Y-73110317D01*
X60660910Y-73326441D01*
X60873110Y-73471431D01*
X61125000Y-73522440D01*
X62875000Y-73522440D01*
X63110317Y-73478162D01*
X63326441Y-73339090D01*
X63463994Y-73137774D01*
X63502914Y-73176694D01*
X63617546Y-73062062D01*
X63700884Y-73315953D01*
X64265306Y-73521590D01*
X64865458Y-73495579D01*
X65299116Y-73315953D01*
X65382455Y-73062060D01*
X64500000Y-72179605D01*
X64485858Y-72193748D01*
X64306253Y-72014143D01*
X64320395Y-72000000D01*
X64306253Y-71985858D01*
X64485858Y-71806253D01*
X64500000Y-71820395D01*
X65382455Y-70937940D01*
X65299116Y-70684047D01*
X64734694Y-70478410D01*
X64134542Y-70504421D01*
X63700884Y-70684047D01*
X63617546Y-70937938D01*
X63502914Y-70823306D01*
X63461864Y-70864356D01*
X63339090Y-70673559D01*
X63126890Y-70528569D01*
X62875000Y-70477560D01*
X61125000Y-70477560D01*
X60889683Y-70521838D01*
X60673559Y-70660910D01*
X60528569Y-70873110D01*
X60477560Y-71125000D01*
X57449802Y-71125000D01*
X62311274Y-66263528D01*
X71661670Y-66263528D01*
X67395837Y-70529361D01*
X67301675Y-70490262D01*
X66700960Y-70489738D01*
X66145771Y-70719138D01*
X65720630Y-71143537D01*
X65711108Y-71166469D01*
X65562060Y-71117545D01*
X64679605Y-72000000D01*
X65562060Y-72882455D01*
X65710648Y-72833682D01*
X65719138Y-72854229D01*
X66143537Y-73279370D01*
X66698325Y-73509738D01*
X67299040Y-73510262D01*
X67854229Y-73280862D01*
X68250318Y-72885464D01*
X68643537Y-73279370D01*
X69198325Y-73509738D01*
X69799040Y-73510262D01*
X70354229Y-73280862D01*
X70750318Y-72885464D01*
X71143537Y-73279370D01*
X71698325Y-73509738D01*
X72299040Y-73510262D01*
X72854229Y-73280862D01*
X73250318Y-72885464D01*
X73643537Y-73279370D01*
X74198325Y-73509738D01*
X74799040Y-73510262D01*
X75354229Y-73280862D01*
X75750318Y-72885464D01*
X76143537Y-73279370D01*
X76698325Y-73509738D01*
X77299040Y-73510262D01*
X77854229Y-73280862D01*
X78250318Y-72885464D01*
X78643537Y-73279370D01*
X79198325Y-73509738D01*
X79799040Y-73510262D01*
X80354229Y-73280862D01*
X80779370Y-72856463D01*
X81009738Y-72301675D01*
X81010262Y-71700960D01*
X80780862Y-71145771D01*
X80356463Y-70720630D01*
X79801675Y-70490262D01*
X79584729Y-70490073D01*
X82204103Y-67870699D01*
X105985772Y-67870699D01*
X101599621Y-72256850D01*
X92983150Y-72256850D01*
X92692311Y-72314702D01*
X92445749Y-72479449D01*
X91395837Y-73529361D01*
X91301675Y-73490262D01*
X90700960Y-73489738D01*
X90145771Y-73719138D01*
X89720630Y-74143537D01*
X89711108Y-74166469D01*
X89562060Y-74117545D01*
X88679605Y-75000000D01*
X89562060Y-75882455D01*
X89710648Y-75833682D01*
X89719138Y-75854229D01*
X90143537Y-76279370D01*
X90698325Y-76509738D01*
X91299040Y-76510262D01*
X91854229Y-76280862D01*
X92279370Y-75856463D01*
X92509738Y-75301675D01*
X92510262Y-74700960D01*
X92470375Y-74604427D01*
X93297952Y-73776850D01*
X96094341Y-73776850D01*
X96028569Y-73873110D01*
X95977560Y-74125000D01*
X95977560Y-75875000D01*
X96021838Y-76110317D01*
X96160910Y-76326441D01*
X96373110Y-76471431D01*
X96625000Y-76522440D01*
X98375000Y-76522440D01*
X98610317Y-76478162D01*
X98826441Y-76339090D01*
X98963994Y-76137774D01*
X99002914Y-76176694D01*
X99117546Y-76062062D01*
X99200884Y-76315953D01*
X99765306Y-76521590D01*
X100365458Y-76495579D01*
X100799116Y-76315953D01*
X100882455Y-76062060D01*
X100000000Y-75179605D01*
X99985858Y-75193748D01*
X99806253Y-75014143D01*
X99820395Y-75000000D01*
X99806253Y-74985858D01*
X99985858Y-74806253D01*
X100000000Y-74820395D01*
X100882455Y-73937940D01*
X100829578Y-73776850D01*
X101587958Y-73776850D01*
X101220630Y-74143537D01*
X101211108Y-74166469D01*
X101062060Y-74117545D01*
X100179605Y-75000000D01*
X101062060Y-75882455D01*
X101210648Y-75833682D01*
X101219138Y-75854229D01*
X101643537Y-76279370D01*
X102198325Y-76509738D01*
X102799040Y-76510262D01*
X103354229Y-76280862D01*
X103779370Y-75856463D01*
X104009738Y-75301675D01*
X104010262Y-74700960D01*
X103782610Y-74150000D01*
X108752560Y-74150000D01*
X108752560Y-75850000D01*
X108796838Y-76085317D01*
X108935910Y-76301441D01*
X109148110Y-76446431D01*
X109400000Y-76497440D01*
X110600000Y-76497440D01*
X110835317Y-76453162D01*
X111051441Y-76314090D01*
X111155571Y-76161691D01*
X111170875Y-76181933D01*
X111590624Y-76428286D01*
X111682391Y-76443462D01*
X111873000Y-76318731D01*
X111873000Y-75127000D01*
X111853000Y-75127000D01*
X111853000Y-74873000D01*
X111873000Y-74873000D01*
X111873000Y-73681269D01*
X112127000Y-73681269D01*
X112127000Y-74873000D01*
X112147000Y-74873000D01*
X112147000Y-75127000D01*
X112127000Y-75127000D01*
X112127000Y-76318731D01*
X112317609Y-76443462D01*
X112409376Y-76428286D01*
X112829125Y-76181933D01*
X112997590Y-75959109D01*
X113126723Y-76152370D01*
X113527386Y-76420084D01*
X114000000Y-76514093D01*
X114472614Y-76420084D01*
X114873277Y-76152370D01*
X115000000Y-75962715D01*
X115126723Y-76152370D01*
X115527386Y-76420084D01*
X116000000Y-76514093D01*
X116472614Y-76420084D01*
X116873277Y-76152370D01*
X117140991Y-75751707D01*
X117235000Y-75279093D01*
X117235000Y-74720907D01*
X117140991Y-74248293D01*
X116873277Y-73847630D01*
X116472614Y-73579916D01*
X116000000Y-73485907D01*
X115527386Y-73579916D01*
X115126723Y-73847630D01*
X115000000Y-74037285D01*
X114873277Y-73847630D01*
X114472614Y-73579916D01*
X114000000Y-73485907D01*
X113527386Y-73579916D01*
X113126723Y-73847630D01*
X112997590Y-74040891D01*
X112829125Y-73818067D01*
X112409376Y-73571714D01*
X112317609Y-73556538D01*
X112127000Y-73681269D01*
X111873000Y-73681269D01*
X111682391Y-73556538D01*
X111590624Y-73571714D01*
X111170875Y-73818067D01*
X111154731Y-73839420D01*
X111064090Y-73698559D01*
X110851890Y-73553569D01*
X110600000Y-73502560D01*
X109400000Y-73502560D01*
X109164683Y-73546838D01*
X108948559Y-73685910D01*
X108803569Y-73898110D01*
X108752560Y-74150000D01*
X103782610Y-74150000D01*
X103780862Y-74145771D01*
X103356463Y-73720630D01*
X103260000Y-73680575D01*
X103260000Y-73382486D01*
X108752560Y-67889926D01*
X108752560Y-68350000D01*
X108796838Y-68585317D01*
X108935910Y-68801441D01*
X109148110Y-68946431D01*
X109400000Y-68997440D01*
X110600000Y-68997440D01*
X110835317Y-68953162D01*
X111051441Y-68814090D01*
X111155571Y-68661691D01*
X111170875Y-68681933D01*
X111590624Y-68928286D01*
X111682391Y-68943462D01*
X111873000Y-68818731D01*
X111873000Y-67627000D01*
X111853000Y-67627000D01*
X111853000Y-67373000D01*
X111873000Y-67373000D01*
X111873000Y-66181269D01*
X112127000Y-66181269D01*
X112127000Y-67373000D01*
X112147000Y-67373000D01*
X112147000Y-67627000D01*
X112127000Y-67627000D01*
X112127000Y-68818731D01*
X112317609Y-68943462D01*
X112409376Y-68928286D01*
X112829125Y-68681933D01*
X112997590Y-68459109D01*
X113126723Y-68652370D01*
X113527386Y-68920084D01*
X114000000Y-69014093D01*
X114472614Y-68920084D01*
X114873277Y-68652370D01*
X115000000Y-68462715D01*
X115126723Y-68652370D01*
X115527386Y-68920084D01*
X116000000Y-69014093D01*
X116472614Y-68920084D01*
X116873277Y-68652370D01*
X117140991Y-68251707D01*
X117235000Y-67779093D01*
X117235000Y-67220907D01*
X117140991Y-66748293D01*
X116873277Y-66347630D01*
X116472614Y-66079916D01*
X116000000Y-65985907D01*
X115527386Y-66079916D01*
X115126723Y-66347630D01*
X115000000Y-66537285D01*
X114873277Y-66347630D01*
X114472614Y-66079916D01*
X114000000Y-65985907D01*
X113527386Y-66079916D01*
X113126723Y-66347630D01*
X112997590Y-66540891D01*
X112829125Y-66318067D01*
X112409376Y-66071714D01*
X112317609Y-66056538D01*
X112127000Y-66181269D01*
X111873000Y-66181269D01*
X111682391Y-66056538D01*
X111590624Y-66071714D01*
X111170875Y-66318067D01*
X111154731Y-66339420D01*
X111064090Y-66198559D01*
X110851890Y-66053569D01*
X110633202Y-66009284D01*
X111422853Y-65219633D01*
X115217230Y-65219633D01*
X115508069Y-65161781D01*
X115754631Y-64997034D01*
X120873000Y-59878665D01*
X120873000Y-79947394D01*
X119947394Y-80873000D01*
X32052606Y-80873000D01*
X31127000Y-79947394D01*
X31127000Y-74125000D01*
X84477560Y-74125000D01*
X84477560Y-75875000D01*
X84521838Y-76110317D01*
X84660910Y-76326441D01*
X84873110Y-76471431D01*
X85125000Y-76522440D01*
X86875000Y-76522440D01*
X87110317Y-76478162D01*
X87326441Y-76339090D01*
X87463994Y-76137774D01*
X87502914Y-76176694D01*
X87617546Y-76062062D01*
X87700884Y-76315953D01*
X88265306Y-76521590D01*
X88865458Y-76495579D01*
X89299116Y-76315953D01*
X89382455Y-76062060D01*
X88500000Y-75179605D01*
X88485858Y-75193748D01*
X88306253Y-75014143D01*
X88320395Y-75000000D01*
X88306253Y-74985858D01*
X88485858Y-74806253D01*
X88500000Y-74820395D01*
X89382455Y-73937940D01*
X89299116Y-73684047D01*
X88734694Y-73478410D01*
X88134542Y-73504421D01*
X87700884Y-73684047D01*
X87617546Y-73937938D01*
X87502914Y-73823306D01*
X87461864Y-73864356D01*
X87339090Y-73673559D01*
X87126890Y-73528569D01*
X86875000Y-73477560D01*
X85125000Y-73477560D01*
X84889683Y-73521838D01*
X84673559Y-73660910D01*
X84528569Y-73873110D01*
X84477560Y-74125000D01*
X31127000Y-74125000D01*
X31127000Y-71125000D01*
X36477560Y-71125000D01*
X36477560Y-72875000D01*
X36521838Y-73110317D01*
X36660910Y-73326441D01*
X36873110Y-73471431D01*
X37125000Y-73522440D01*
X38875000Y-73522440D01*
X39110317Y-73478162D01*
X39326441Y-73339090D01*
X39463994Y-73137774D01*
X39502914Y-73176694D01*
X39617546Y-73062062D01*
X39700884Y-73315953D01*
X40265306Y-73521590D01*
X40865458Y-73495579D01*
X41299116Y-73315953D01*
X41382455Y-73062060D01*
X40500000Y-72179605D01*
X40485858Y-72193748D01*
X40306253Y-72014143D01*
X40320395Y-72000000D01*
X40306253Y-71985858D01*
X40485858Y-71806253D01*
X40500000Y-71820395D01*
X41382455Y-70937940D01*
X41299116Y-70684047D01*
X40734694Y-70478410D01*
X40134542Y-70504421D01*
X39700884Y-70684047D01*
X39617546Y-70937938D01*
X39502914Y-70823306D01*
X39461864Y-70864356D01*
X39339090Y-70673559D01*
X39126890Y-70528569D01*
X38875000Y-70477560D01*
X37125000Y-70477560D01*
X36889683Y-70521838D01*
X36673559Y-70660910D01*
X36528569Y-70873110D01*
X36477560Y-71125000D01*
X31127000Y-71125000D01*
X31127000Y-60285750D01*
X34715000Y-60285750D01*
X34715000Y-60776310D01*
X34811673Y-61009699D01*
X34990302Y-61188327D01*
X35223691Y-61285000D01*
X35714250Y-61285000D01*
X35873000Y-61126250D01*
X35873000Y-60127000D01*
X36127000Y-60127000D01*
X36127000Y-61126250D01*
X36285750Y-61285000D01*
X36776309Y-61285000D01*
X37009698Y-61188327D01*
X37188327Y-61009699D01*
X37285000Y-60776310D01*
X37285000Y-60285750D01*
X37253731Y-60254481D01*
X39714777Y-60254481D01*
X39909995Y-60726943D01*
X40271155Y-61088735D01*
X40743276Y-61284777D01*
X41254481Y-61285223D01*
X41726943Y-61090005D01*
X42088735Y-60728845D01*
X42284777Y-60256724D01*
X42285223Y-59745519D01*
X42090005Y-59273057D01*
X41728845Y-58911265D01*
X41256724Y-58715223D01*
X40745519Y-58714777D01*
X40273057Y-58909995D01*
X39911265Y-59271155D01*
X39715223Y-59743276D01*
X39714777Y-60254481D01*
X37253731Y-60254481D01*
X37126250Y-60127000D01*
X36127000Y-60127000D01*
X35873000Y-60127000D01*
X34873750Y-60127000D01*
X34715000Y-60285750D01*
X31127000Y-60285750D01*
X31127000Y-60052606D01*
X32052606Y-59127000D01*
X34755050Y-59127000D01*
X34715000Y-59223690D01*
X34715000Y-59714250D01*
X34873750Y-59873000D01*
X35873000Y-59873000D01*
X35873000Y-59853000D01*
X36127000Y-59853000D01*
X36127000Y-59873000D01*
X37126250Y-59873000D01*
X37285000Y-59714250D01*
X37285000Y-59223690D01*
X37244950Y-59127000D01*
X38000000Y-59127000D01*
X38049410Y-59116994D01*
X38089803Y-59089803D01*
X39089803Y-58089803D01*
X39117666Y-58047789D01*
X39127000Y-58000000D01*
X39127000Y-55052606D01*
X40052606Y-54127000D01*
X75000000Y-54127000D01*
X75049410Y-54116994D01*
X75089803Y-54089803D01*
X76089803Y-53089803D01*
X76117666Y-53047789D01*
X76127000Y-53000000D01*
X76127000Y-46676782D01*
X78721141Y-46676782D01*
X78948808Y-47227780D01*
X79370003Y-47649710D01*
X79920602Y-47878339D01*
X80516782Y-47878859D01*
X81067780Y-47651192D01*
X81489710Y-47229997D01*
X81490095Y-47229069D01*
X81910003Y-47649710D01*
X82460602Y-47878339D01*
X83056782Y-47878859D01*
X83607780Y-47651192D01*
X84029710Y-47229997D01*
X84030095Y-47229069D01*
X84450003Y-47649710D01*
X85000602Y-47878339D01*
X85596782Y-47878859D01*
X86147780Y-47651192D01*
X86365546Y-47433805D01*
X86965800Y-47433805D01*
X87047741Y-47686516D01*
X87608030Y-47890248D01*
X88203635Y-47864058D01*
X88632259Y-47686516D01*
X88714200Y-47433805D01*
X87840000Y-46559605D01*
X86965800Y-47433805D01*
X86365546Y-47433805D01*
X86569710Y-47229997D01*
X86586541Y-47189463D01*
X86786195Y-47254200D01*
X87660395Y-46380000D01*
X86786195Y-45505800D01*
X86586967Y-45570399D01*
X86571192Y-45532220D01*
X86365526Y-45326195D01*
X86965800Y-45326195D01*
X87840000Y-46200395D01*
X88714200Y-45326195D01*
X88632259Y-45073484D01*
X88071970Y-44869752D01*
X87476365Y-44895942D01*
X87047741Y-45073484D01*
X86965800Y-45326195D01*
X86365526Y-45326195D01*
X86149997Y-45110290D01*
X85599398Y-44881661D01*
X85003218Y-44881141D01*
X84452220Y-45108808D01*
X84030290Y-45530003D01*
X84029905Y-45530931D01*
X83609997Y-45110290D01*
X83059398Y-44881661D01*
X82463218Y-44881141D01*
X81912220Y-45108808D01*
X81490290Y-45530003D01*
X81489905Y-45530931D01*
X81069997Y-45110290D01*
X80519398Y-44881661D01*
X79923218Y-44881141D01*
X79372220Y-45108808D01*
X78950290Y-45530003D01*
X78721661Y-46080602D01*
X78721141Y-46676782D01*
X76127000Y-46676782D01*
X76127000Y-43052606D01*
X78052606Y-41127000D01*
X94452130Y-41127000D01*
X94452130Y-42218690D01*
X94452130Y-42218690D01*
G37*
X94452130Y-42218690D02*
X94496408Y-42454007D01*
X94635480Y-42670131D01*
X94847680Y-42815121D01*
X95099570Y-42866130D01*
X96900430Y-42866130D01*
X97135747Y-42821852D01*
X97351871Y-42682780D01*
X97496861Y-42470580D01*
X97547870Y-42218690D01*
X97547870Y-41873691D01*
X98515000Y-41873691D01*
X98515000Y-42714250D01*
X98673750Y-42873000D01*
X99873000Y-42873000D01*
X99873000Y-41523750D01*
X100127000Y-41523750D01*
X100127000Y-42873000D01*
X101326250Y-42873000D01*
X101485000Y-42714250D01*
X101485000Y-41873691D01*
X101388327Y-41640302D01*
X101209699Y-41461673D01*
X100976310Y-41365000D01*
X100285750Y-41365000D01*
X100127000Y-41523750D01*
X99873000Y-41523750D01*
X99714250Y-41365000D01*
X99023690Y-41365000D01*
X98790301Y-41461673D01*
X98611673Y-41640302D01*
X98515000Y-41873691D01*
X97547870Y-41873691D01*
X97547870Y-41127000D01*
X119947394Y-41127000D01*
X120873000Y-42052606D01*
X120873000Y-50398198D01*
X117241916Y-46767114D01*
X117278339Y-46679398D01*
X117278859Y-46083218D01*
X117051192Y-45532220D01*
X116629997Y-45110290D01*
X116079398Y-44881661D01*
X115483218Y-44881141D01*
X114932220Y-45108808D01*
X114510290Y-45530003D01*
X114509905Y-45530931D01*
X114089997Y-45110290D01*
X113539398Y-44881661D01*
X112943218Y-44881141D01*
X112392220Y-45108808D01*
X111970290Y-45530003D01*
X111969905Y-45530931D01*
X111549997Y-45110290D01*
X110999398Y-44881661D01*
X110403218Y-44881141D01*
X109852220Y-45108808D01*
X109430290Y-45530003D01*
X109429905Y-45530931D01*
X109009997Y-45110290D01*
X108459398Y-44881661D01*
X107863218Y-44881141D01*
X107773156Y-44918354D01*
X106892402Y-44037600D01*
X106645840Y-43872853D01*
X106355001Y-43815001D01*
X101485000Y-43815001D01*
X101485000Y-43285750D01*
X101326250Y-43127000D01*
X100127000Y-43127000D01*
X100127000Y-43147000D01*
X99873000Y-43147000D01*
X99873000Y-43127000D01*
X98673750Y-43127000D01*
X98515000Y-43285750D01*
X98515000Y-43815001D01*
X92924999Y-43815001D01*
X92682413Y-43863255D01*
X92634159Y-43872853D01*
X92387598Y-44037600D01*
X91272415Y-45152783D01*
X91229997Y-45110290D01*
X90679398Y-44881661D01*
X90083218Y-44881141D01*
X89532220Y-45108808D01*
X89110290Y-45530003D01*
X89093459Y-45570537D01*
X88893805Y-45505800D01*
X88019605Y-46380000D01*
X88893805Y-47254200D01*
X89093033Y-47189601D01*
X89108808Y-47227780D01*
X89530003Y-47649710D01*
X90080602Y-47878339D01*
X90676782Y-47878859D01*
X90808601Y-47824393D01*
X90808601Y-49336486D01*
X88905087Y-51240000D01*
X88647440Y-51240000D01*
X88647440Y-51150000D01*
X88603162Y-50914683D01*
X88464090Y-50698559D01*
X88251890Y-50553569D01*
X88000000Y-50502560D01*
X86000000Y-50502560D01*
X85764683Y-50546838D01*
X85548559Y-50685910D01*
X85403569Y-50898110D01*
X85352560Y-51150000D01*
X85352560Y-52850000D01*
X85396838Y-53085317D01*
X85535910Y-53301441D01*
X85748110Y-53446431D01*
X86000000Y-53497440D01*
X87327758Y-53497440D01*
X86462599Y-54362599D01*
X86369080Y-54502560D01*
X86000000Y-54502560D01*
X85764683Y-54546838D01*
X85548559Y-54685910D01*
X85403569Y-54898110D01*
X85352560Y-55150000D01*
X85352560Y-56850000D01*
X85396838Y-57085317D01*
X85535910Y-57301441D01*
X85748110Y-57446431D01*
X86000000Y-57497440D01*
X88000000Y-57497440D01*
X88235317Y-57453162D01*
X88451441Y-57314090D01*
X88596431Y-57101890D01*
X88647440Y-56850000D01*
X88647440Y-55150000D01*
X88603162Y-54914683D01*
X88464090Y-54698559D01*
X88352494Y-54622308D01*
X94646002Y-48328800D01*
X94810749Y-48082238D01*
X94868601Y-47791399D01*
X94868601Y-47757089D01*
X95160602Y-47878339D01*
X95756782Y-47878859D01*
X96307780Y-47651192D01*
X96729710Y-47229997D01*
X96730095Y-47229069D01*
X97150003Y-47649710D01*
X97700602Y-47878339D01*
X98296782Y-47878859D01*
X98847780Y-47651192D01*
X99269710Y-47229997D01*
X99270095Y-47229069D01*
X99690003Y-47649710D01*
X100240602Y-47878339D01*
X100836782Y-47878859D01*
X100926844Y-47841646D01*
X107935937Y-54850739D01*
X107903569Y-54898110D01*
X107852560Y-55150000D01*
X107852560Y-56850000D01*
X107896838Y-57085317D01*
X108035910Y-57301441D01*
X108248110Y-57446431D01*
X108500000Y-57497440D01*
X110500000Y-57497440D01*
X110735317Y-57453162D01*
X110951441Y-57314090D01*
X111096431Y-57101890D01*
X111147440Y-56850000D01*
X111147440Y-55150000D01*
X111103162Y-54914683D01*
X110964090Y-54698559D01*
X110751890Y-54553569D01*
X110500000Y-54502560D01*
X109737362Y-54502560D01*
X108732242Y-53497440D01*
X110500000Y-53497440D01*
X110735317Y-53453162D01*
X110951441Y-53314090D01*
X111096431Y-53101890D01*
X111147440Y-52850000D01*
X111147440Y-51150000D01*
X111103162Y-50914683D01*
X110964090Y-50698559D01*
X110751890Y-50553569D01*
X110500000Y-50502560D01*
X108500000Y-50502560D01*
X108264683Y-50546838D01*
X108048559Y-50685910D01*
X107903569Y-50898110D01*
X107852560Y-51150000D01*
X107852560Y-51240000D01*
X107793488Y-51240000D01*
X104066351Y-47512863D01*
X104349710Y-47229997D01*
X104350095Y-47229069D01*
X104770003Y-47649710D01*
X105320602Y-47878339D01*
X105916782Y-47878859D01*
X106467780Y-47651192D01*
X106889710Y-47229997D01*
X106890095Y-47229069D01*
X107310003Y-47649710D01*
X107860602Y-47878339D01*
X108456782Y-47878859D01*
X109007780Y-47651192D01*
X109429710Y-47229997D01*
X109430095Y-47229069D01*
X109850003Y-47649710D01*
X110400602Y-47878339D01*
X110996782Y-47878859D01*
X111547780Y-47651192D01*
X111969710Y-47229997D01*
X111970095Y-47229069D01*
X112390003Y-47649710D01*
X112940602Y-47878339D01*
X113536782Y-47878859D01*
X114087780Y-47651192D01*
X114509710Y-47229997D01*
X114510095Y-47229069D01*
X114930003Y-47649710D01*
X115480602Y-47878339D01*
X116076782Y-47878859D01*
X116166844Y-47841646D01*
X119693758Y-51368560D01*
X119693758Y-51371524D01*
X119530327Y-51207808D01*
X119186799Y-51065162D01*
X118814833Y-51064838D01*
X118471057Y-51206883D01*
X118437882Y-51240000D01*
X115147440Y-51240000D01*
X115147440Y-51150000D01*
X115103162Y-50914683D01*
X114964090Y-50698559D01*
X114751890Y-50553569D01*
X114500000Y-50502560D01*
X112500000Y-50502560D01*
X112264683Y-50546838D01*
X112048559Y-50685910D01*
X111903569Y-50898110D01*
X111852560Y-51150000D01*
X111852560Y-52850000D01*
X111896838Y-53085317D01*
X112035910Y-53301441D01*
X112248110Y-53446431D01*
X112500000Y-53497440D01*
X114500000Y-53497440D01*
X114735317Y-53453162D01*
X114951441Y-53314090D01*
X115096431Y-53101890D01*
X115147440Y-52850000D01*
X115147440Y-52760000D01*
X118437537Y-52760000D01*
X118469673Y-52792192D01*
X118813201Y-52934838D01*
X119185167Y-52935162D01*
X119528943Y-52793117D01*
X119693758Y-52628589D01*
X119693758Y-55371524D01*
X119530327Y-55207808D01*
X119186799Y-55065162D01*
X118814833Y-55064838D01*
X118471057Y-55206883D01*
X118437882Y-55240000D01*
X115147440Y-55240000D01*
X115147440Y-55150000D01*
X115103162Y-54914683D01*
X114964090Y-54698559D01*
X114751890Y-54553569D01*
X114500000Y-54502560D01*
X112500000Y-54502560D01*
X112264683Y-54546838D01*
X112048559Y-54685910D01*
X111903569Y-54898110D01*
X111852560Y-55150000D01*
X111852560Y-56850000D01*
X111896838Y-57085317D01*
X112035910Y-57301441D01*
X112248110Y-57446431D01*
X112500000Y-57497440D01*
X114500000Y-57497440D01*
X114735317Y-57453162D01*
X114951441Y-57314090D01*
X115096431Y-57101890D01*
X115147440Y-56850000D01*
X115147440Y-56760000D01*
X118437537Y-56760000D01*
X118469673Y-56792192D01*
X118813201Y-56934838D01*
X119185167Y-56935162D01*
X119528943Y-56793117D01*
X119693758Y-56628589D01*
X119693758Y-58908303D01*
X117278854Y-61323207D01*
X117051192Y-60772220D01*
X116629997Y-60350290D01*
X116079398Y-60121661D01*
X115483218Y-60121141D01*
X114932220Y-60348808D01*
X114510290Y-60770003D01*
X114509905Y-60770931D01*
X114089997Y-60350290D01*
X113539398Y-60121661D01*
X112943218Y-60121141D01*
X112392220Y-60348808D01*
X111970290Y-60770003D01*
X111969905Y-60770931D01*
X111549997Y-60350290D01*
X110999398Y-60121661D01*
X110403218Y-60121141D01*
X109852220Y-60348808D01*
X109430290Y-60770003D01*
X109429905Y-60770931D01*
X109009997Y-60350290D01*
X108459398Y-60121661D01*
X107863218Y-60121141D01*
X107312220Y-60348808D01*
X106890290Y-60770003D01*
X106889905Y-60770931D01*
X106469997Y-60350290D01*
X105919398Y-60121661D01*
X105323218Y-60121141D01*
X104772220Y-60348808D01*
X104350290Y-60770003D01*
X104349905Y-60770931D01*
X103929997Y-60350290D01*
X103379398Y-60121661D01*
X102783218Y-60121141D01*
X102232220Y-60348808D01*
X101810290Y-60770003D01*
X101809905Y-60770931D01*
X101389997Y-60350290D01*
X100839398Y-60121661D01*
X100243218Y-60121141D01*
X99692220Y-60348808D01*
X99270290Y-60770003D01*
X99269905Y-60770931D01*
X98849997Y-60350290D01*
X98299398Y-60121661D01*
X97703218Y-60121141D01*
X97152220Y-60348808D01*
X96730290Y-60770003D01*
X96729905Y-60770931D01*
X96309997Y-60350290D01*
X95759398Y-60121661D01*
X95163218Y-60121141D01*
X94612220Y-60348808D01*
X94190290Y-60770003D01*
X94189905Y-60770931D01*
X93769997Y-60350290D01*
X93219398Y-60121661D01*
X92623218Y-60121141D01*
X92072220Y-60348808D01*
X91650290Y-60770003D01*
X91649905Y-60770931D01*
X91229997Y-60350290D01*
X90679398Y-60121661D01*
X90083218Y-60121141D01*
X89532220Y-60348808D01*
X89110290Y-60770003D01*
X89109905Y-60770931D01*
X88689997Y-60350290D01*
X88139398Y-60121661D01*
X87543218Y-60121141D01*
X86992220Y-60348808D01*
X86570290Y-60770003D01*
X86569905Y-60770931D01*
X86149997Y-60350290D01*
X85599398Y-60121661D01*
X85003218Y-60121141D01*
X84452220Y-60348808D01*
X84030290Y-60770003D01*
X84029905Y-60770931D01*
X83609997Y-60350290D01*
X83059398Y-60121661D01*
X82463218Y-60121141D01*
X81912220Y-60348808D01*
X81695124Y-60565525D01*
X81686762Y-60521083D01*
X81547690Y-60304959D01*
X81335490Y-60159969D01*
X81083600Y-60108960D01*
X79356400Y-60108960D01*
X79121083Y-60153238D01*
X78904959Y-60292310D01*
X78759969Y-60504510D01*
X78708960Y-60756400D01*
X78708960Y-62300605D01*
X75010821Y-62300605D01*
X75028943Y-62293117D01*
X75292192Y-62030327D01*
X75434838Y-61686799D01*
X75435162Y-61314833D01*
X75293117Y-60971057D01*
X75260000Y-60937882D01*
X75260000Y-59814802D01*
X78314802Y-56760000D01*
X81352560Y-56760000D01*
X81352560Y-56850000D01*
X81396838Y-57085317D01*
X81535910Y-57301441D01*
X81748110Y-57446431D01*
X82000000Y-57497440D01*
X84000000Y-57497440D01*
X84235317Y-57453162D01*
X84451441Y-57314090D01*
X84596431Y-57101890D01*
X84647440Y-56850000D01*
X84647440Y-55150000D01*
X84603162Y-54914683D01*
X84464090Y-54698559D01*
X84251890Y-54553569D01*
X84000000Y-54502560D01*
X82000000Y-54502560D01*
X81764683Y-54546838D01*
X81548559Y-54685910D01*
X81403569Y-54898110D01*
X81352560Y-55150000D01*
X81352560Y-55240000D01*
X79198392Y-55240000D01*
X81389907Y-53048485D01*
X81396838Y-53085317D01*
X81535910Y-53301441D01*
X81748110Y-53446431D01*
X82000000Y-53497440D01*
X84000000Y-53497440D01*
X84235317Y-53453162D01*
X84451441Y-53314090D01*
X84596431Y-53101890D01*
X84647440Y-52850000D01*
X84647440Y-51150000D01*
X84603162Y-50914683D01*
X84464090Y-50698559D01*
X84251890Y-50553569D01*
X84000000Y-50502560D01*
X82000000Y-50502560D01*
X81764683Y-50546838D01*
X81548559Y-50685910D01*
X81403569Y-50898110D01*
X81352560Y-51150000D01*
X81352560Y-51242194D01*
X81072751Y-51297852D01*
X80826189Y-51462599D01*
X73162596Y-59126192D01*
X72997849Y-59372754D01*
X72939997Y-59663593D01*
X72939997Y-60937537D01*
X72907805Y-60969673D01*
X72765159Y-61313201D01*
X72764835Y-61685167D01*
X72906880Y-62028943D01*
X73169670Y-62292192D01*
X73189931Y-62300605D01*
X51939395Y-62300605D01*
X51648555Y-62358457D01*
X51401994Y-62523204D01*
X43395837Y-70529361D01*
X43301675Y-70490262D01*
X42700960Y-70489738D01*
X42145771Y-70719138D01*
X41720630Y-71143537D01*
X41711108Y-71166469D01*
X41562060Y-71117545D01*
X40679605Y-72000000D01*
X41562060Y-72882455D01*
X41710648Y-72833682D01*
X41719138Y-72854229D01*
X42143537Y-73279370D01*
X42698325Y-73509738D01*
X43299040Y-73510262D01*
X43854229Y-73280862D01*
X44250318Y-72885464D01*
X44643537Y-73279370D01*
X45198325Y-73509738D01*
X45799040Y-73510262D01*
X46354229Y-73280862D01*
X46750318Y-72885464D01*
X47143537Y-73279370D01*
X47698325Y-73509738D01*
X48299040Y-73510262D01*
X48854229Y-73280862D01*
X49250318Y-72885464D01*
X49643537Y-73279370D01*
X50198325Y-73509738D01*
X50799040Y-73510262D01*
X51354229Y-73280862D01*
X51750318Y-72885464D01*
X52143537Y-73279370D01*
X52698325Y-73509738D01*
X53299040Y-73510262D01*
X53854229Y-73280862D01*
X54250318Y-72885464D01*
X54643537Y-73279370D01*
X55198325Y-73509738D01*
X55799040Y-73510262D01*
X56354229Y-73280862D01*
X56779370Y-72856463D01*
X57009738Y-72301675D01*
X57010262Y-71700960D01*
X56970375Y-71604427D01*
X57449802Y-71125000D01*
X60477560Y-71125000D01*
X60477560Y-72875000D01*
X60521838Y-73110317D01*
X60660910Y-73326441D01*
X60873110Y-73471431D01*
X61125000Y-73522440D01*
X62875000Y-73522440D01*
X63110317Y-73478162D01*
X63326441Y-73339090D01*
X63463994Y-73137774D01*
X63502914Y-73176694D01*
X63617546Y-73062062D01*
X63700884Y-73315953D01*
X64265306Y-73521590D01*
X64865458Y-73495579D01*
X65299116Y-73315953D01*
X65382455Y-73062060D01*
X64500000Y-72179605D01*
X64485858Y-72193748D01*
X64306253Y-72014143D01*
X64320395Y-72000000D01*
X64306253Y-71985858D01*
X64485858Y-71806253D01*
X64500000Y-71820395D01*
X65382455Y-70937940D01*
X65299116Y-70684047D01*
X64734694Y-70478410D01*
X64134542Y-70504421D01*
X63700884Y-70684047D01*
X63617546Y-70937938D01*
X63502914Y-70823306D01*
X63461864Y-70864356D01*
X63339090Y-70673559D01*
X63126890Y-70528569D01*
X62875000Y-70477560D01*
X61125000Y-70477560D01*
X60889683Y-70521838D01*
X60673559Y-70660910D01*
X60528569Y-70873110D01*
X60477560Y-71125000D01*
X57449802Y-71125000D01*
X62311274Y-66263528D01*
X71661670Y-66263528D01*
X67395837Y-70529361D01*
X67301675Y-70490262D01*
X66700960Y-70489738D01*
X66145771Y-70719138D01*
X65720630Y-71143537D01*
X65711108Y-71166469D01*
X65562060Y-71117545D01*
X64679605Y-72000000D01*
X65562060Y-72882455D01*
X65710648Y-72833682D01*
X65719138Y-72854229D01*
X66143537Y-73279370D01*
X66698325Y-73509738D01*
X67299040Y-73510262D01*
X67854229Y-73280862D01*
X68250318Y-72885464D01*
X68643537Y-73279370D01*
X69198325Y-73509738D01*
X69799040Y-73510262D01*
X70354229Y-73280862D01*
X70750318Y-72885464D01*
X71143537Y-73279370D01*
X71698325Y-73509738D01*
X72299040Y-73510262D01*
X72854229Y-73280862D01*
X73250318Y-72885464D01*
X73643537Y-73279370D01*
X74198325Y-73509738D01*
X74799040Y-73510262D01*
X75354229Y-73280862D01*
X75750318Y-72885464D01*
X76143537Y-73279370D01*
X76698325Y-73509738D01*
X77299040Y-73510262D01*
X77854229Y-73280862D01*
X78250318Y-72885464D01*
X78643537Y-73279370D01*
X79198325Y-73509738D01*
X79799040Y-73510262D01*
X80354229Y-73280862D01*
X80779370Y-72856463D01*
X81009738Y-72301675D01*
X81010262Y-71700960D01*
X80780862Y-71145771D01*
X80356463Y-70720630D01*
X79801675Y-70490262D01*
X79584729Y-70490073D01*
X82204103Y-67870699D01*
X105985772Y-67870699D01*
X101599621Y-72256850D01*
X92983150Y-72256850D01*
X92692311Y-72314702D01*
X92445749Y-72479449D01*
X91395837Y-73529361D01*
X91301675Y-73490262D01*
X90700960Y-73489738D01*
X90145771Y-73719138D01*
X89720630Y-74143537D01*
X89711108Y-74166469D01*
X89562060Y-74117545D01*
X88679605Y-75000000D01*
X89562060Y-75882455D01*
X89710648Y-75833682D01*
X89719138Y-75854229D01*
X90143537Y-76279370D01*
X90698325Y-76509738D01*
X91299040Y-76510262D01*
X91854229Y-76280862D01*
X92279370Y-75856463D01*
X92509738Y-75301675D01*
X92510262Y-74700960D01*
X92470375Y-74604427D01*
X93297952Y-73776850D01*
X96094341Y-73776850D01*
X96028569Y-73873110D01*
X95977560Y-74125000D01*
X95977560Y-75875000D01*
X96021838Y-76110317D01*
X96160910Y-76326441D01*
X96373110Y-76471431D01*
X96625000Y-76522440D01*
X98375000Y-76522440D01*
X98610317Y-76478162D01*
X98826441Y-76339090D01*
X98963994Y-76137774D01*
X99002914Y-76176694D01*
X99117546Y-76062062D01*
X99200884Y-76315953D01*
X99765306Y-76521590D01*
X100365458Y-76495579D01*
X100799116Y-76315953D01*
X100882455Y-76062060D01*
X100000000Y-75179605D01*
X99985858Y-75193748D01*
X99806253Y-75014143D01*
X99820395Y-75000000D01*
X99806253Y-74985858D01*
X99985858Y-74806253D01*
X100000000Y-74820395D01*
X100882455Y-73937940D01*
X100829578Y-73776850D01*
X101587958Y-73776850D01*
X101220630Y-74143537D01*
X101211108Y-74166469D01*
X101062060Y-74117545D01*
X100179605Y-75000000D01*
X101062060Y-75882455D01*
X101210648Y-75833682D01*
X101219138Y-75854229D01*
X101643537Y-76279370D01*
X102198325Y-76509738D01*
X102799040Y-76510262D01*
X103354229Y-76280862D01*
X103779370Y-75856463D01*
X104009738Y-75301675D01*
X104010262Y-74700960D01*
X103782610Y-74150000D01*
X108752560Y-74150000D01*
X108752560Y-75850000D01*
X108796838Y-76085317D01*
X108935910Y-76301441D01*
X109148110Y-76446431D01*
X109400000Y-76497440D01*
X110600000Y-76497440D01*
X110835317Y-76453162D01*
X111051441Y-76314090D01*
X111155571Y-76161691D01*
X111170875Y-76181933D01*
X111590624Y-76428286D01*
X111682391Y-76443462D01*
X111873000Y-76318731D01*
X111873000Y-75127000D01*
X111853000Y-75127000D01*
X111853000Y-74873000D01*
X111873000Y-74873000D01*
X111873000Y-73681269D01*
X112127000Y-73681269D01*
X112127000Y-74873000D01*
X112147000Y-74873000D01*
X112147000Y-75127000D01*
X112127000Y-75127000D01*
X112127000Y-76318731D01*
X112317609Y-76443462D01*
X112409376Y-76428286D01*
X112829125Y-76181933D01*
X112997590Y-75959109D01*
X113126723Y-76152370D01*
X113527386Y-76420084D01*
X114000000Y-76514093D01*
X114472614Y-76420084D01*
X114873277Y-76152370D01*
X115000000Y-75962715D01*
X115126723Y-76152370D01*
X115527386Y-76420084D01*
X116000000Y-76514093D01*
X116472614Y-76420084D01*
X116873277Y-76152370D01*
X117140991Y-75751707D01*
X117235000Y-75279093D01*
X117235000Y-74720907D01*
X117140991Y-74248293D01*
X116873277Y-73847630D01*
X116472614Y-73579916D01*
X116000000Y-73485907D01*
X115527386Y-73579916D01*
X115126723Y-73847630D01*
X115000000Y-74037285D01*
X114873277Y-73847630D01*
X114472614Y-73579916D01*
X114000000Y-73485907D01*
X113527386Y-73579916D01*
X113126723Y-73847630D01*
X112997590Y-74040891D01*
X112829125Y-73818067D01*
X112409376Y-73571714D01*
X112317609Y-73556538D01*
X112127000Y-73681269D01*
X111873000Y-73681269D01*
X111682391Y-73556538D01*
X111590624Y-73571714D01*
X111170875Y-73818067D01*
X111154731Y-73839420D01*
X111064090Y-73698559D01*
X110851890Y-73553569D01*
X110600000Y-73502560D01*
X109400000Y-73502560D01*
X109164683Y-73546838D01*
X108948559Y-73685910D01*
X108803569Y-73898110D01*
X108752560Y-74150000D01*
X103782610Y-74150000D01*
X103780862Y-74145771D01*
X103356463Y-73720630D01*
X103260000Y-73680575D01*
X103260000Y-73382486D01*
X108752560Y-67889926D01*
X108752560Y-68350000D01*
X108796838Y-68585317D01*
X108935910Y-68801441D01*
X109148110Y-68946431D01*
X109400000Y-68997440D01*
X110600000Y-68997440D01*
X110835317Y-68953162D01*
X111051441Y-68814090D01*
X111155571Y-68661691D01*
X111170875Y-68681933D01*
X111590624Y-68928286D01*
X111682391Y-68943462D01*
X111873000Y-68818731D01*
X111873000Y-67627000D01*
X111853000Y-67627000D01*
X111853000Y-67373000D01*
X111873000Y-67373000D01*
X111873000Y-66181269D01*
X112127000Y-66181269D01*
X112127000Y-67373000D01*
X112147000Y-67373000D01*
X112147000Y-67627000D01*
X112127000Y-67627000D01*
X112127000Y-68818731D01*
X112317609Y-68943462D01*
X112409376Y-68928286D01*
X112829125Y-68681933D01*
X112997590Y-68459109D01*
X113126723Y-68652370D01*
X113527386Y-68920084D01*
X114000000Y-69014093D01*
X114472614Y-68920084D01*
X114873277Y-68652370D01*
X115000000Y-68462715D01*
X115126723Y-68652370D01*
X115527386Y-68920084D01*
X116000000Y-69014093D01*
X116472614Y-68920084D01*
X116873277Y-68652370D01*
X117140991Y-68251707D01*
X117235000Y-67779093D01*
X117235000Y-67220907D01*
X117140991Y-66748293D01*
X116873277Y-66347630D01*
X116472614Y-66079916D01*
X116000000Y-65985907D01*
X115527386Y-66079916D01*
X115126723Y-66347630D01*
X115000000Y-66537285D01*
X114873277Y-66347630D01*
X114472614Y-66079916D01*
X114000000Y-65985907D01*
X113527386Y-66079916D01*
X113126723Y-66347630D01*
X112997590Y-66540891D01*
X112829125Y-66318067D01*
X112409376Y-66071714D01*
X112317609Y-66056538D01*
X112127000Y-66181269D01*
X111873000Y-66181269D01*
X111682391Y-66056538D01*
X111590624Y-66071714D01*
X111170875Y-66318067D01*
X111154731Y-66339420D01*
X111064090Y-66198559D01*
X110851890Y-66053569D01*
X110633202Y-66009284D01*
X111422853Y-65219633D01*
X115217230Y-65219633D01*
X115508069Y-65161781D01*
X115754631Y-64997034D01*
X120873000Y-59878665D01*
X120873000Y-79947394D01*
X119947394Y-80873000D01*
X32052606Y-80873000D01*
X31127000Y-79947394D01*
X31127000Y-74125000D01*
X84477560Y-74125000D01*
X84477560Y-75875000D01*
X84521838Y-76110317D01*
X84660910Y-76326441D01*
X84873110Y-76471431D01*
X85125000Y-76522440D01*
X86875000Y-76522440D01*
X87110317Y-76478162D01*
X87326441Y-76339090D01*
X87463994Y-76137774D01*
X87502914Y-76176694D01*
X87617546Y-76062062D01*
X87700884Y-76315953D01*
X88265306Y-76521590D01*
X88865458Y-76495579D01*
X89299116Y-76315953D01*
X89382455Y-76062060D01*
X88500000Y-75179605D01*
X88485858Y-75193748D01*
X88306253Y-75014143D01*
X88320395Y-75000000D01*
X88306253Y-74985858D01*
X88485858Y-74806253D01*
X88500000Y-74820395D01*
X89382455Y-73937940D01*
X89299116Y-73684047D01*
X88734694Y-73478410D01*
X88134542Y-73504421D01*
X87700884Y-73684047D01*
X87617546Y-73937938D01*
X87502914Y-73823306D01*
X87461864Y-73864356D01*
X87339090Y-73673559D01*
X87126890Y-73528569D01*
X86875000Y-73477560D01*
X85125000Y-73477560D01*
X84889683Y-73521838D01*
X84673559Y-73660910D01*
X84528569Y-73873110D01*
X84477560Y-74125000D01*
X31127000Y-74125000D01*
X31127000Y-71125000D01*
X36477560Y-71125000D01*
X36477560Y-72875000D01*
X36521838Y-73110317D01*
X36660910Y-73326441D01*
X36873110Y-73471431D01*
X37125000Y-73522440D01*
X38875000Y-73522440D01*
X39110317Y-73478162D01*
X39326441Y-73339090D01*
X39463994Y-73137774D01*
X39502914Y-73176694D01*
X39617546Y-73062062D01*
X39700884Y-73315953D01*
X40265306Y-73521590D01*
X40865458Y-73495579D01*
X41299116Y-73315953D01*
X41382455Y-73062060D01*
X40500000Y-72179605D01*
X40485858Y-72193748D01*
X40306253Y-72014143D01*
X40320395Y-72000000D01*
X40306253Y-71985858D01*
X40485858Y-71806253D01*
X40500000Y-71820395D01*
X41382455Y-70937940D01*
X41299116Y-70684047D01*
X40734694Y-70478410D01*
X40134542Y-70504421D01*
X39700884Y-70684047D01*
X39617546Y-70937938D01*
X39502914Y-70823306D01*
X39461864Y-70864356D01*
X39339090Y-70673559D01*
X39126890Y-70528569D01*
X38875000Y-70477560D01*
X37125000Y-70477560D01*
X36889683Y-70521838D01*
X36673559Y-70660910D01*
X36528569Y-70873110D01*
X36477560Y-71125000D01*
X31127000Y-71125000D01*
X31127000Y-60285750D01*
X34715000Y-60285750D01*
X34715000Y-60776310D01*
X34811673Y-61009699D01*
X34990302Y-61188327D01*
X35223691Y-61285000D01*
X35714250Y-61285000D01*
X35873000Y-61126250D01*
X35873000Y-60127000D01*
X36127000Y-60127000D01*
X36127000Y-61126250D01*
X36285750Y-61285000D01*
X36776309Y-61285000D01*
X37009698Y-61188327D01*
X37188327Y-61009699D01*
X37285000Y-60776310D01*
X37285000Y-60285750D01*
X37253731Y-60254481D01*
X39714777Y-60254481D01*
X39909995Y-60726943D01*
X40271155Y-61088735D01*
X40743276Y-61284777D01*
X41254481Y-61285223D01*
X41726943Y-61090005D01*
X42088735Y-60728845D01*
X42284777Y-60256724D01*
X42285223Y-59745519D01*
X42090005Y-59273057D01*
X41728845Y-58911265D01*
X41256724Y-58715223D01*
X40745519Y-58714777D01*
X40273057Y-58909995D01*
X39911265Y-59271155D01*
X39715223Y-59743276D01*
X39714777Y-60254481D01*
X37253731Y-60254481D01*
X37126250Y-60127000D01*
X36127000Y-60127000D01*
X35873000Y-60127000D01*
X34873750Y-60127000D01*
X34715000Y-60285750D01*
X31127000Y-60285750D01*
X31127000Y-60052606D01*
X32052606Y-59127000D01*
X34755050Y-59127000D01*
X34715000Y-59223690D01*
X34715000Y-59714250D01*
X34873750Y-59873000D01*
X35873000Y-59873000D01*
X35873000Y-59853000D01*
X36127000Y-59853000D01*
X36127000Y-59873000D01*
X37126250Y-59873000D01*
X37285000Y-59714250D01*
X37285000Y-59223690D01*
X37244950Y-59127000D01*
X38000000Y-59127000D01*
X38049410Y-59116994D01*
X38089803Y-59089803D01*
X39089803Y-58089803D01*
X39117666Y-58047789D01*
X39127000Y-58000000D01*
X39127000Y-55052606D01*
X40052606Y-54127000D01*
X75000000Y-54127000D01*
X75049410Y-54116994D01*
X75089803Y-54089803D01*
X76089803Y-53089803D01*
X76117666Y-53047789D01*
X76127000Y-53000000D01*
X76127000Y-46676782D01*
X78721141Y-46676782D01*
X78948808Y-47227780D01*
X79370003Y-47649710D01*
X79920602Y-47878339D01*
X80516782Y-47878859D01*
X81067780Y-47651192D01*
X81489710Y-47229997D01*
X81490095Y-47229069D01*
X81910003Y-47649710D01*
X82460602Y-47878339D01*
X83056782Y-47878859D01*
X83607780Y-47651192D01*
X84029710Y-47229997D01*
X84030095Y-47229069D01*
X84450003Y-47649710D01*
X85000602Y-47878339D01*
X85596782Y-47878859D01*
X86147780Y-47651192D01*
X86365546Y-47433805D01*
X86965800Y-47433805D01*
X87047741Y-47686516D01*
X87608030Y-47890248D01*
X88203635Y-47864058D01*
X88632259Y-47686516D01*
X88714200Y-47433805D01*
X87840000Y-46559605D01*
X86965800Y-47433805D01*
X86365546Y-47433805D01*
X86569710Y-47229997D01*
X86586541Y-47189463D01*
X86786195Y-47254200D01*
X87660395Y-46380000D01*
X86786195Y-45505800D01*
X86586967Y-45570399D01*
X86571192Y-45532220D01*
X86365526Y-45326195D01*
X86965800Y-45326195D01*
X87840000Y-46200395D01*
X88714200Y-45326195D01*
X88632259Y-45073484D01*
X88071970Y-44869752D01*
X87476365Y-44895942D01*
X87047741Y-45073484D01*
X86965800Y-45326195D01*
X86365526Y-45326195D01*
X86149997Y-45110290D01*
X85599398Y-44881661D01*
X85003218Y-44881141D01*
X84452220Y-45108808D01*
X84030290Y-45530003D01*
X84029905Y-45530931D01*
X83609997Y-45110290D01*
X83059398Y-44881661D01*
X82463218Y-44881141D01*
X81912220Y-45108808D01*
X81490290Y-45530003D01*
X81489905Y-45530931D01*
X81069997Y-45110290D01*
X80519398Y-44881661D01*
X79923218Y-44881141D01*
X79372220Y-45108808D01*
X78950290Y-45530003D01*
X78721661Y-46080602D01*
X78721141Y-46676782D01*
X76127000Y-46676782D01*
X76127000Y-43052606D01*
X78052606Y-41127000D01*
X94452130Y-41127000D01*
X94452130Y-42218690D01*
M02*
