G04 #@! TF.FileFunction,Soldermask,Bot*
%FSLAX46Y46*%
G04 Gerber Fmt 4.6, Leading zero omitted, Abs format (unit mm)*
G04 Created by KiCad (PCBNEW 4.0.3+e1-6302~38~ubuntu15.04.1-stable) date Wed Oct  5 22:25:40 2016*
%MOMM*%
%LPD*%
G01*
G04 APERTURE LIST*
%ADD10C,0.100000*%
%ADD11R,1.727200X1.727200*%
%ADD12C,1.727200*%
%ADD13R,1.300000X1.300000*%
%ADD14C,1.300000*%
%ADD15R,1.750000X1.750000*%
%ADD16C,1.750000*%
%ADD17R,1.200000X1.700000*%
%ADD18O,1.200000X1.700000*%
%ADD19C,1.524000*%
%ADD20R,3.500120X3.500120*%
%ADD21R,1.397000X1.397000*%
%ADD22C,1.397000*%
G04 APERTURE END LIST*
D10*
D11*
X80220000Y-61620000D03*
D12*
X82760000Y-61620000D03*
X85300000Y-61620000D03*
X87840000Y-61620000D03*
X90380000Y-61620000D03*
X92920000Y-61620000D03*
X95460000Y-61620000D03*
X98000000Y-61620000D03*
X100540000Y-61620000D03*
X103080000Y-61620000D03*
X105620000Y-61620000D03*
X108160000Y-61620000D03*
X110700000Y-61620000D03*
X113240000Y-61620000D03*
X115780000Y-61620000D03*
X115780000Y-46380000D03*
X113240000Y-46380000D03*
X110700000Y-46380000D03*
X108160000Y-46380000D03*
X105620000Y-46380000D03*
X103080000Y-46380000D03*
X100540000Y-46380000D03*
X98000000Y-46380000D03*
X95460000Y-46380000D03*
X92920000Y-46380000D03*
X90380000Y-46380000D03*
X87840000Y-46380000D03*
X85300000Y-46380000D03*
X82760000Y-46380000D03*
X80220000Y-46380000D03*
D13*
X36000000Y-60000000D03*
D14*
X41000000Y-60000000D03*
D15*
X38000000Y-72000000D03*
D16*
X40500000Y-72000000D03*
X43000000Y-72000000D03*
X45500000Y-72000000D03*
X48000000Y-72000000D03*
X50500000Y-72000000D03*
X53000000Y-72000000D03*
X55500000Y-72000000D03*
D15*
X62000000Y-72000000D03*
D16*
X64500000Y-72000000D03*
X67000000Y-72000000D03*
X69500000Y-72000000D03*
X72000000Y-72000000D03*
X74500000Y-72000000D03*
X77000000Y-72000000D03*
X79500000Y-72000000D03*
D17*
X110000000Y-75000000D03*
D18*
X112000000Y-75000000D03*
X114000000Y-75000000D03*
X116000000Y-75000000D03*
D17*
X110000000Y-67500000D03*
D18*
X112000000Y-67500000D03*
X114000000Y-67500000D03*
X116000000Y-67500000D03*
D19*
X72750000Y-50500000D03*
X72750000Y-33500000D03*
X33250000Y-50500000D03*
X33250000Y-33500000D03*
D20*
X105799860Y-38000000D03*
X111799340Y-38000000D03*
X108799600Y-33301000D03*
D15*
X86000000Y-75000000D03*
D16*
X88500000Y-75000000D03*
X91000000Y-75000000D03*
D15*
X97500000Y-75000000D03*
D16*
X100000000Y-75000000D03*
X102500000Y-75000000D03*
D21*
X87540000Y-36000000D03*
D22*
X85000000Y-36000000D03*
X82460000Y-36000000D03*
M02*
