G04 #@! TF.FileFunction,Legend,Top*
%FSLAX46Y46*%
G04 Gerber Fmt 4.6, Leading zero omitted, Abs format (unit mm)*
G04 Created by KiCad (PCBNEW 4.0.3+e1-6302~38~ubuntu15.04.1-stable) date Wed Oct  5 22:25:40 2016*
%MOMM*%
%LPD*%
G01*
G04 APERTURE LIST*
%ADD10C,0.100000*%
%ADD11C,0.300000*%
%ADD12C,0.150000*%
G04 APERTURE END LIST*
D10*
X95166667Y-33833333D02*
X95119047Y-33785714D01*
X95023809Y-33642857D01*
X94976190Y-33547619D01*
X94928571Y-33404762D01*
X94880952Y-33166667D01*
X94880952Y-32976190D01*
X94928571Y-32738095D01*
X94976190Y-32595238D01*
X95023809Y-32500000D01*
X95119047Y-32357143D01*
X95166667Y-32309524D01*
X95547619Y-33071429D02*
X96309524Y-33071429D01*
X95928572Y-33452381D02*
X95928572Y-32690476D01*
X96690476Y-33833333D02*
X96738095Y-33785714D01*
X96833333Y-33642857D01*
X96880952Y-33547619D01*
X96928571Y-33404762D01*
X96976190Y-33166667D01*
X96976190Y-32976190D01*
X96928571Y-32738095D01*
X96880952Y-32595238D01*
X96833333Y-32500000D01*
X96738095Y-32357143D01*
X96690476Y-32309524D01*
X98166667Y-32547619D02*
X98214286Y-32500000D01*
X98309524Y-32452381D01*
X98547620Y-32452381D01*
X98642858Y-32500000D01*
X98690477Y-32547619D01*
X98738096Y-32642857D01*
X98738096Y-32738095D01*
X98690477Y-32880952D01*
X98119048Y-33452381D01*
X98738096Y-33452381D01*
X99642858Y-32452381D02*
X99166667Y-32452381D01*
X99119048Y-32928571D01*
X99166667Y-32880952D01*
X99261905Y-32833333D01*
X99500001Y-32833333D01*
X99595239Y-32880952D01*
X99642858Y-32928571D01*
X99690477Y-33023810D01*
X99690477Y-33261905D01*
X99642858Y-33357143D01*
X99595239Y-33404762D01*
X99500001Y-33452381D01*
X99261905Y-33452381D01*
X99166667Y-33404762D01*
X99119048Y-33357143D01*
X99976191Y-32452381D02*
X100309524Y-33452381D01*
X100642858Y-32452381D01*
X101738096Y-33452381D02*
X101738096Y-32452381D01*
X102071430Y-33166667D01*
X102404763Y-32452381D01*
X102404763Y-33452381D01*
X103309525Y-33452381D02*
X103309525Y-32928571D01*
X103261906Y-32833333D01*
X103166668Y-32785714D01*
X102976191Y-32785714D01*
X102880953Y-32833333D01*
X103309525Y-33404762D02*
X103214287Y-33452381D01*
X102976191Y-33452381D01*
X102880953Y-33404762D01*
X102833334Y-33309524D01*
X102833334Y-33214286D01*
X102880953Y-33119048D01*
X102976191Y-33071429D01*
X103214287Y-33071429D01*
X103309525Y-33023810D01*
X103690477Y-33452381D02*
X104214287Y-32785714D01*
X103690477Y-32785714D02*
X104214287Y-33452381D01*
X42571427Y-42452381D02*
X42095236Y-42452381D01*
X42095236Y-41452381D01*
X42904760Y-42452381D02*
X42904760Y-41452381D01*
X43238094Y-42166667D01*
X43571427Y-41452381D01*
X43571427Y-42452381D01*
X43999998Y-41547619D02*
X44047617Y-41500000D01*
X44142855Y-41452381D01*
X44380951Y-41452381D01*
X44476189Y-41500000D01*
X44523808Y-41547619D01*
X44571427Y-41642857D01*
X44571427Y-41738095D01*
X44523808Y-41880952D01*
X43952379Y-42452381D01*
X44571427Y-42452381D01*
X45476189Y-41452381D02*
X44999998Y-41452381D01*
X44952379Y-41928571D01*
X44999998Y-41880952D01*
X45095236Y-41833333D01*
X45333332Y-41833333D01*
X45428570Y-41880952D01*
X45476189Y-41928571D01*
X45523808Y-42023810D01*
X45523808Y-42261905D01*
X45476189Y-42357143D01*
X45428570Y-42404762D01*
X45333332Y-42452381D01*
X45095236Y-42452381D01*
X44999998Y-42404762D01*
X44952379Y-42357143D01*
X45999998Y-42452381D02*
X46190474Y-42452381D01*
X46285713Y-42404762D01*
X46333332Y-42357143D01*
X46428570Y-42214286D01*
X46476189Y-42023810D01*
X46476189Y-41642857D01*
X46428570Y-41547619D01*
X46380951Y-41500000D01*
X46285713Y-41452381D01*
X46095236Y-41452381D01*
X45999998Y-41500000D01*
X45952379Y-41547619D01*
X45904760Y-41642857D01*
X45904760Y-41880952D01*
X45952379Y-41976190D01*
X45999998Y-42023810D01*
X46095236Y-42071429D01*
X46285713Y-42071429D01*
X46380951Y-42023810D01*
X46428570Y-41976190D01*
X46476189Y-41880952D01*
X47333332Y-41452381D02*
X47142855Y-41452381D01*
X47047617Y-41500000D01*
X46999998Y-41547619D01*
X46904760Y-41690476D01*
X46857141Y-41880952D01*
X46857141Y-42261905D01*
X46904760Y-42357143D01*
X46952379Y-42404762D01*
X47047617Y-42452381D01*
X47238094Y-42452381D01*
X47333332Y-42404762D01*
X47380951Y-42357143D01*
X47428570Y-42261905D01*
X47428570Y-42023810D01*
X47380951Y-41928571D01*
X47333332Y-41880952D01*
X47238094Y-41833333D01*
X47047617Y-41833333D01*
X46952379Y-41880952D01*
X46904760Y-41928571D01*
X46857141Y-42023810D01*
X49095237Y-41452381D02*
X48619046Y-41452381D01*
X48571427Y-41928571D01*
X48619046Y-41880952D01*
X48714284Y-41833333D01*
X48952380Y-41833333D01*
X49047618Y-41880952D01*
X49095237Y-41928571D01*
X49142856Y-42023810D01*
X49142856Y-42261905D01*
X49095237Y-42357143D01*
X49047618Y-42404762D01*
X48952380Y-42452381D01*
X48714284Y-42452381D01*
X48619046Y-42404762D01*
X48571427Y-42357143D01*
X49428570Y-41452381D02*
X49761903Y-42452381D01*
X50095237Y-41452381D01*
X51761904Y-42452381D02*
X51428570Y-41976190D01*
X51190475Y-42452381D02*
X51190475Y-41452381D01*
X51571428Y-41452381D01*
X51666666Y-41500000D01*
X51714285Y-41547619D01*
X51761904Y-41642857D01*
X51761904Y-41785714D01*
X51714285Y-41880952D01*
X51666666Y-41928571D01*
X51571428Y-41976190D01*
X51190475Y-41976190D01*
X52571428Y-42404762D02*
X52476190Y-42452381D01*
X52285713Y-42452381D01*
X52190475Y-42404762D01*
X52142856Y-42309524D01*
X52142856Y-41928571D01*
X52190475Y-41833333D01*
X52285713Y-41785714D01*
X52476190Y-41785714D01*
X52571428Y-41833333D01*
X52619047Y-41928571D01*
X52619047Y-42023810D01*
X52142856Y-42119048D01*
X53476190Y-41785714D02*
X53476190Y-42595238D01*
X53428571Y-42690476D01*
X53380952Y-42738095D01*
X53285713Y-42785714D01*
X53142856Y-42785714D01*
X53047618Y-42738095D01*
X53476190Y-42404762D02*
X53380952Y-42452381D01*
X53190475Y-42452381D01*
X53095237Y-42404762D01*
X53047618Y-42357143D01*
X52999999Y-42261905D01*
X52999999Y-41976190D01*
X53047618Y-41880952D01*
X53095237Y-41833333D01*
X53190475Y-41785714D01*
X53380952Y-41785714D01*
X53476190Y-41833333D01*
X54380952Y-41785714D02*
X54380952Y-42452381D01*
X53952380Y-41785714D02*
X53952380Y-42309524D01*
X53999999Y-42404762D01*
X54095237Y-42452381D01*
X54238095Y-42452381D01*
X54333333Y-42404762D01*
X54380952Y-42357143D01*
X54999999Y-42452381D02*
X54904761Y-42404762D01*
X54857142Y-42309524D01*
X54857142Y-41452381D01*
X55809524Y-42452381D02*
X55809524Y-41928571D01*
X55761905Y-41833333D01*
X55666667Y-41785714D01*
X55476190Y-41785714D01*
X55380952Y-41833333D01*
X55809524Y-42404762D02*
X55714286Y-42452381D01*
X55476190Y-42452381D01*
X55380952Y-42404762D01*
X55333333Y-42309524D01*
X55333333Y-42214286D01*
X55380952Y-42119048D01*
X55476190Y-42071429D01*
X55714286Y-42071429D01*
X55809524Y-42023810D01*
X56142857Y-41785714D02*
X56523809Y-41785714D01*
X56285714Y-41452381D02*
X56285714Y-42309524D01*
X56333333Y-42404762D01*
X56428571Y-42452381D01*
X56523809Y-42452381D01*
X57000000Y-42452381D02*
X56904762Y-42404762D01*
X56857143Y-42357143D01*
X56809524Y-42261905D01*
X56809524Y-41976190D01*
X56857143Y-41880952D01*
X56904762Y-41833333D01*
X57000000Y-41785714D01*
X57142858Y-41785714D01*
X57238096Y-41833333D01*
X57285715Y-41880952D01*
X57333334Y-41976190D01*
X57333334Y-42261905D01*
X57285715Y-42357143D01*
X57238096Y-42404762D01*
X57142858Y-42452381D01*
X57000000Y-42452381D01*
X57761905Y-42452381D02*
X57761905Y-41785714D01*
X57761905Y-41976190D02*
X57809524Y-41880952D01*
X57857143Y-41833333D01*
X57952381Y-41785714D01*
X58047620Y-41785714D01*
X59142858Y-42452381D02*
X59142858Y-41452381D01*
X59476192Y-42166667D01*
X59809525Y-41452381D01*
X59809525Y-42452381D01*
X60428572Y-42452381D02*
X60333334Y-42404762D01*
X60285715Y-42357143D01*
X60238096Y-42261905D01*
X60238096Y-41976190D01*
X60285715Y-41880952D01*
X60333334Y-41833333D01*
X60428572Y-41785714D01*
X60571430Y-41785714D01*
X60666668Y-41833333D01*
X60714287Y-41880952D01*
X60761906Y-41976190D01*
X60761906Y-42261905D01*
X60714287Y-42357143D01*
X60666668Y-42404762D01*
X60571430Y-42452381D01*
X60428572Y-42452381D01*
X61619049Y-42452381D02*
X61619049Y-41452381D01*
X61619049Y-42404762D02*
X61523811Y-42452381D01*
X61333334Y-42452381D01*
X61238096Y-42404762D01*
X61190477Y-42357143D01*
X61142858Y-42261905D01*
X61142858Y-41976190D01*
X61190477Y-41880952D01*
X61238096Y-41833333D01*
X61333334Y-41785714D01*
X61523811Y-41785714D01*
X61619049Y-41833333D01*
X62523811Y-41785714D02*
X62523811Y-42452381D01*
X62095239Y-41785714D02*
X62095239Y-42309524D01*
X62142858Y-42404762D01*
X62238096Y-42452381D01*
X62380954Y-42452381D01*
X62476192Y-42404762D01*
X62523811Y-42357143D01*
X63142858Y-42452381D02*
X63047620Y-42404762D01*
X63000001Y-42309524D01*
X63000001Y-41452381D01*
X63904764Y-42404762D02*
X63809526Y-42452381D01*
X63619049Y-42452381D01*
X63523811Y-42404762D01*
X63476192Y-42309524D01*
X63476192Y-41928571D01*
X63523811Y-41833333D01*
X63619049Y-41785714D01*
X63809526Y-41785714D01*
X63904764Y-41833333D01*
X63952383Y-41928571D01*
X63952383Y-42023810D01*
X63476192Y-42119048D01*
X115880952Y-80452381D02*
X115547618Y-79976190D01*
X115309523Y-80452381D02*
X115309523Y-79452381D01*
X115690476Y-79452381D01*
X115785714Y-79500000D01*
X115833333Y-79547619D01*
X115880952Y-79642857D01*
X115880952Y-79785714D01*
X115833333Y-79880952D01*
X115785714Y-79928571D01*
X115690476Y-79976190D01*
X115309523Y-79976190D01*
X116309523Y-79928571D02*
X116642857Y-79928571D01*
X116785714Y-80452381D02*
X116309523Y-80452381D01*
X116309523Y-79452381D01*
X116785714Y-79452381D01*
X117071428Y-79452381D02*
X117404761Y-80452381D01*
X117738095Y-79452381D01*
X119023809Y-79452381D02*
X119119048Y-79452381D01*
X119214286Y-79500000D01*
X119261905Y-79547619D01*
X119309524Y-79642857D01*
X119357143Y-79833333D01*
X119357143Y-80071429D01*
X119309524Y-80261905D01*
X119261905Y-80357143D01*
X119214286Y-80404762D01*
X119119048Y-80452381D01*
X119023809Y-80452381D01*
X118928571Y-80404762D01*
X118880952Y-80357143D01*
X118833333Y-80261905D01*
X118785714Y-80071429D01*
X118785714Y-79833333D01*
X118833333Y-79642857D01*
X118880952Y-79547619D01*
X118928571Y-79500000D01*
X119023809Y-79452381D01*
X120309524Y-80452381D02*
X119738095Y-80452381D01*
X120023809Y-80452381D02*
X120023809Y-79452381D01*
X119928571Y-79595238D01*
X119833333Y-79690476D01*
X119738095Y-79738095D01*
X31928571Y-79928571D02*
X31928571Y-80261905D01*
X32452381Y-80261905D02*
X31452381Y-80261905D01*
X31452381Y-79785714D01*
X32166667Y-79452381D02*
X32166667Y-78976190D01*
X32452381Y-79547619D02*
X31452381Y-79214286D01*
X32452381Y-78880952D01*
X31452381Y-78261904D02*
X32166667Y-78261904D01*
X32309524Y-78309524D01*
X32404762Y-78404762D01*
X32452381Y-78547619D01*
X32452381Y-78642857D01*
X32452381Y-77214285D02*
X31976190Y-77547619D01*
X32452381Y-77785714D02*
X31452381Y-77785714D01*
X31452381Y-77404761D01*
X31500000Y-77309523D01*
X31547619Y-77261904D01*
X31642857Y-77214285D01*
X31785714Y-77214285D01*
X31880952Y-77261904D01*
X31928571Y-77309523D01*
X31976190Y-77404761D01*
X31976190Y-77785714D01*
X32166667Y-76833333D02*
X32166667Y-76357142D01*
X32452381Y-76928571D02*
X31452381Y-76595238D01*
X32452381Y-76261904D01*
X32452381Y-75928571D02*
X31452381Y-75928571D01*
X32452381Y-75357142D01*
X31452381Y-75357142D01*
X31547619Y-74166666D02*
X31500000Y-74119047D01*
X31452381Y-74023809D01*
X31452381Y-73785713D01*
X31500000Y-73690475D01*
X31547619Y-73642856D01*
X31642857Y-73595237D01*
X31738095Y-73595237D01*
X31880952Y-73642856D01*
X32452381Y-74214285D01*
X32452381Y-73595237D01*
X31452381Y-72976190D02*
X31452381Y-72880951D01*
X31500000Y-72785713D01*
X31547619Y-72738094D01*
X31642857Y-72690475D01*
X31833333Y-72642856D01*
X32071429Y-72642856D01*
X32261905Y-72690475D01*
X32357143Y-72738094D01*
X32404762Y-72785713D01*
X32452381Y-72880951D01*
X32452381Y-72976190D01*
X32404762Y-73071428D01*
X32357143Y-73119047D01*
X32261905Y-73166666D01*
X32071429Y-73214285D01*
X31833333Y-73214285D01*
X31642857Y-73166666D01*
X31547619Y-73119047D01*
X31500000Y-73071428D01*
X31452381Y-72976190D01*
X32452381Y-71690475D02*
X32452381Y-72261904D01*
X32452381Y-71976190D02*
X31452381Y-71976190D01*
X31595238Y-72071428D01*
X31690476Y-72166666D01*
X31738095Y-72261904D01*
X31452381Y-70833332D02*
X31452381Y-71023809D01*
X31500000Y-71119047D01*
X31547619Y-71166666D01*
X31690476Y-71261904D01*
X31880952Y-71309523D01*
X32261905Y-71309523D01*
X32357143Y-71261904D01*
X32404762Y-71214285D01*
X32452381Y-71119047D01*
X32452381Y-70928570D01*
X32404762Y-70833332D01*
X32357143Y-70785713D01*
X32261905Y-70738094D01*
X32023810Y-70738094D01*
X31928571Y-70785713D01*
X31880952Y-70833332D01*
X31833333Y-70928570D01*
X31833333Y-71119047D01*
X31880952Y-71214285D01*
X31928571Y-71261904D01*
X32023810Y-71309523D01*
D11*
X46547619Y-58904762D02*
X46357143Y-58809524D01*
X46261904Y-58619048D01*
X46261904Y-56904762D01*
X47309523Y-58904762D02*
X47309523Y-57571429D01*
X47309523Y-56904762D02*
X47214285Y-57000000D01*
X47309523Y-57095238D01*
X47404762Y-57000000D01*
X47309523Y-56904762D01*
X47309523Y-57095238D01*
X49119047Y-57571429D02*
X49119047Y-59190476D01*
X49023809Y-59380952D01*
X48928571Y-59476190D01*
X48738095Y-59571429D01*
X48452381Y-59571429D01*
X48261904Y-59476190D01*
X49119047Y-58809524D02*
X48928571Y-58904762D01*
X48547619Y-58904762D01*
X48357143Y-58809524D01*
X48261904Y-58714286D01*
X48166666Y-58523810D01*
X48166666Y-57952381D01*
X48261904Y-57761905D01*
X48357143Y-57666667D01*
X48547619Y-57571429D01*
X48928571Y-57571429D01*
X49119047Y-57666667D01*
X49785714Y-57571429D02*
X50547619Y-57571429D01*
X50071428Y-56904762D02*
X50071428Y-58619048D01*
X50166667Y-58809524D01*
X50357143Y-58904762D01*
X50547619Y-58904762D01*
X51214285Y-58904762D02*
X51214285Y-56904762D01*
X52071428Y-58904762D02*
X52071428Y-57857143D01*
X51976190Y-57666667D01*
X51785714Y-57571429D01*
X51500000Y-57571429D01*
X51309524Y-57666667D01*
X51214285Y-57761905D01*
X53023809Y-58904762D02*
X53023809Y-57571429D01*
X53023809Y-56904762D02*
X52928571Y-57000000D01*
X53023809Y-57095238D01*
X53119048Y-57000000D01*
X53023809Y-56904762D01*
X53023809Y-57095238D01*
X53976190Y-57571429D02*
X53976190Y-58904762D01*
X53976190Y-57761905D02*
X54071429Y-57666667D01*
X54261905Y-57571429D01*
X54547619Y-57571429D01*
X54738095Y-57666667D01*
X54833333Y-57857143D01*
X54833333Y-58904762D01*
X56642857Y-57571429D02*
X56642857Y-59190476D01*
X56547619Y-59380952D01*
X56452381Y-59476190D01*
X56261905Y-59571429D01*
X55976191Y-59571429D01*
X55785714Y-59476190D01*
X56642857Y-58809524D02*
X56452381Y-58904762D01*
X56071429Y-58904762D01*
X55880953Y-58809524D01*
X55785714Y-58714286D01*
X55690476Y-58523810D01*
X55690476Y-57952381D01*
X55785714Y-57761905D01*
X55880953Y-57666667D01*
X56071429Y-57571429D01*
X56452381Y-57571429D01*
X56642857Y-57666667D01*
X59976191Y-58809524D02*
X59785715Y-58904762D01*
X59404763Y-58904762D01*
X59214287Y-58809524D01*
X59119048Y-58714286D01*
X59023810Y-58523810D01*
X59023810Y-57952381D01*
X59119048Y-57761905D01*
X59214287Y-57666667D01*
X59404763Y-57571429D01*
X59785715Y-57571429D01*
X59976191Y-57666667D01*
X61119049Y-58904762D02*
X60928573Y-58809524D01*
X60833334Y-58714286D01*
X60738096Y-58523810D01*
X60738096Y-57952381D01*
X60833334Y-57761905D01*
X60928573Y-57666667D01*
X61119049Y-57571429D01*
X61404763Y-57571429D01*
X61595239Y-57666667D01*
X61690477Y-57761905D01*
X61785715Y-57952381D01*
X61785715Y-58523810D01*
X61690477Y-58714286D01*
X61595239Y-58809524D01*
X61404763Y-58904762D01*
X61119049Y-58904762D01*
X62642858Y-57571429D02*
X62642858Y-58904762D01*
X62642858Y-57761905D02*
X62738097Y-57666667D01*
X62928573Y-57571429D01*
X63214287Y-57571429D01*
X63404763Y-57666667D01*
X63500001Y-57857143D01*
X63500001Y-58904762D01*
X64166668Y-57571429D02*
X64928573Y-57571429D01*
X64452382Y-56904762D02*
X64452382Y-58619048D01*
X64547621Y-58809524D01*
X64738097Y-58904762D01*
X64928573Y-58904762D01*
X65595239Y-58904762D02*
X65595239Y-57571429D01*
X65595239Y-57952381D02*
X65690478Y-57761905D01*
X65785716Y-57666667D01*
X65976192Y-57571429D01*
X66166668Y-57571429D01*
X67119049Y-58904762D02*
X66928573Y-58809524D01*
X66833334Y-58714286D01*
X66738096Y-58523810D01*
X66738096Y-57952381D01*
X66833334Y-57761905D01*
X66928573Y-57666667D01*
X67119049Y-57571429D01*
X67404763Y-57571429D01*
X67595239Y-57666667D01*
X67690477Y-57761905D01*
X67785715Y-57952381D01*
X67785715Y-58523810D01*
X67690477Y-58714286D01*
X67595239Y-58809524D01*
X67404763Y-58904762D01*
X67119049Y-58904762D01*
X68928573Y-58904762D02*
X68738097Y-58809524D01*
X68642858Y-58619048D01*
X68642858Y-56904762D01*
X69976192Y-58904762D02*
X69785716Y-58809524D01*
X69690477Y-58619048D01*
X69690477Y-56904762D01*
X71500001Y-58809524D02*
X71309525Y-58904762D01*
X70928573Y-58904762D01*
X70738096Y-58809524D01*
X70642858Y-58619048D01*
X70642858Y-57857143D01*
X70738096Y-57666667D01*
X70928573Y-57571429D01*
X71309525Y-57571429D01*
X71500001Y-57666667D01*
X71595239Y-57857143D01*
X71595239Y-58047619D01*
X70642858Y-58238095D01*
X72452382Y-58904762D02*
X72452382Y-57571429D01*
X72452382Y-57952381D02*
X72547621Y-57761905D01*
X72642859Y-57666667D01*
X72833335Y-57571429D01*
X73023811Y-57571429D01*
D12*
X75775000Y-63525000D02*
X75775000Y-44475000D01*
X75775000Y-44475000D02*
X120225000Y-44475000D01*
X120225000Y-44475000D02*
X120225000Y-63525000D01*
X120225000Y-63525000D02*
X75775000Y-63525000D01*
X118955000Y-61620000D02*
G75*
G03X118955000Y-61620000I-635000J0D01*
G01*
X118955000Y-46380000D02*
G75*
G03X118955000Y-46380000I-635000J0D01*
G01*
X78315000Y-61620000D02*
G75*
G03X78315000Y-61620000I-635000J0D01*
G01*
X78315000Y-46380000D02*
G75*
G03X78315000Y-46380000I-635000J0D01*
G01*
X78315000Y-56540000D02*
G75*
G03X78315000Y-56540000I-635000J0D01*
G01*
X80855000Y-56540000D02*
G75*
G03X80855000Y-56540000I-635000J0D01*
G01*
X80855000Y-51460000D02*
G75*
G03X80855000Y-51460000I-635000J0D01*
G01*
X78315000Y-51460000D02*
G75*
G03X78315000Y-51460000I-635000J0D01*
G01*
X78315000Y-54000000D02*
G75*
G03X78315000Y-54000000I-635000J0D01*
G01*
X80855000Y-54000000D02*
G75*
G03X80855000Y-54000000I-635000J0D01*
G01*
X116415000Y-51460000D02*
X116415000Y-56540000D01*
X120860000Y-56540000D02*
X120860000Y-51460000D01*
X120860000Y-56540000D02*
X116415000Y-56540000D01*
X116415000Y-51460000D02*
X120860000Y-51460000D01*
X38575000Y-55001000D02*
X38575000Y-64999000D01*
X38715000Y-55005000D02*
X38715000Y-64995000D01*
X38855000Y-55013000D02*
X38855000Y-64987000D01*
X38995000Y-55025000D02*
X38995000Y-64975000D01*
X39135000Y-55040000D02*
X39135000Y-64960000D01*
X39275000Y-55060000D02*
X39275000Y-64940000D01*
X39415000Y-55084000D02*
X39415000Y-64916000D01*
X39555000Y-55113000D02*
X39555000Y-64887000D01*
X39695000Y-55145000D02*
X39695000Y-64855000D01*
X39835000Y-55182000D02*
X39835000Y-64818000D01*
X39975000Y-55223000D02*
X39975000Y-64777000D01*
X40115000Y-55268000D02*
X40115000Y-59534000D01*
X40115000Y-60466000D02*
X40115000Y-64732000D01*
X40255000Y-55318000D02*
X40255000Y-59333000D01*
X40255000Y-60667000D02*
X40255000Y-64682000D01*
X40395000Y-55373000D02*
X40395000Y-59204000D01*
X40395000Y-60796000D02*
X40395000Y-64627000D01*
X40535000Y-55433000D02*
X40535000Y-59115000D01*
X40535000Y-60885000D02*
X40535000Y-64567000D01*
X40675000Y-55498000D02*
X40675000Y-59054000D01*
X40675000Y-60946000D02*
X40675000Y-64502000D01*
X40815000Y-55568000D02*
X40815000Y-59017000D01*
X40815000Y-60983000D02*
X40815000Y-64432000D01*
X40955000Y-55644000D02*
X40955000Y-59001000D01*
X40955000Y-60999000D02*
X40955000Y-64356000D01*
X41095000Y-55726000D02*
X41095000Y-59005000D01*
X41095000Y-60995000D02*
X41095000Y-64274000D01*
X41235000Y-55814000D02*
X41235000Y-59028000D01*
X41235000Y-60972000D02*
X41235000Y-64186000D01*
X41375000Y-55909000D02*
X41375000Y-59073000D01*
X41375000Y-60927000D02*
X41375000Y-64091000D01*
X41515000Y-56011000D02*
X41515000Y-59143000D01*
X41515000Y-60857000D02*
X41515000Y-63989000D01*
X41655000Y-56121000D02*
X41655000Y-59244000D01*
X41655000Y-60756000D02*
X41655000Y-63879000D01*
X41795000Y-56239000D02*
X41795000Y-59393000D01*
X41795000Y-60607000D02*
X41795000Y-63761000D01*
X41935000Y-56367000D02*
X41935000Y-59645000D01*
X41935000Y-60355000D02*
X41935000Y-63633000D01*
X42075000Y-56504000D02*
X42075000Y-63496000D01*
X42215000Y-56654000D02*
X42215000Y-63346000D01*
X42355000Y-56816000D02*
X42355000Y-63184000D01*
X42495000Y-56993000D02*
X42495000Y-63007000D01*
X42635000Y-57189000D02*
X42635000Y-62811000D01*
X42775000Y-57407000D02*
X42775000Y-62593000D01*
X42915000Y-57653000D02*
X42915000Y-62347000D01*
X43055000Y-57938000D02*
X43055000Y-62062000D01*
X43195000Y-58280000D02*
X43195000Y-61720000D01*
X43335000Y-58726000D02*
X43335000Y-61274000D01*
X43475000Y-59501000D02*
X43475000Y-60499000D01*
X42000000Y-60000000D02*
G75*
G03X42000000Y-60000000I-1000000J0D01*
G01*
X43537500Y-60000000D02*
G75*
G03X43537500Y-60000000I-5037500J0D01*
G01*
X97050000Y-42150000D02*
X97050000Y-38550000D01*
X94950000Y-42150000D02*
X94950000Y-38550000D01*
X95700000Y-40100000D02*
X96300000Y-40100000D01*
X96300000Y-40100000D02*
X96000000Y-40400000D01*
X96000000Y-40400000D02*
X95800000Y-40200000D01*
X95800000Y-40200000D02*
X96050000Y-40200000D01*
X96050000Y-40200000D02*
X96000000Y-40250000D01*
X95500000Y-40500000D02*
X96500000Y-40500000D01*
X96000000Y-40000000D02*
X96000000Y-39500000D01*
X96000000Y-40500000D02*
X95500000Y-40000000D01*
X95500000Y-40000000D02*
X96500000Y-40000000D01*
X96500000Y-40000000D02*
X96000000Y-40500000D01*
X46750000Y-81350000D02*
X35400000Y-81350000D01*
X35400000Y-81350000D02*
X35400000Y-69550000D01*
X35400000Y-69550000D02*
X36600000Y-69550000D01*
X36600000Y-69550000D02*
X36600000Y-74050000D01*
X36600000Y-74050000D02*
X46750000Y-74050000D01*
X46750000Y-81350000D02*
X58100000Y-81350000D01*
X58100000Y-81350000D02*
X58100000Y-69550000D01*
X58100000Y-69550000D02*
X56900000Y-69550000D01*
X56900000Y-69550000D02*
X56900000Y-74050000D01*
X56900000Y-74050000D02*
X46750000Y-74050000D01*
X37750000Y-74700000D02*
X37750000Y-80700000D01*
X37750000Y-80700000D02*
X38250000Y-80700000D01*
X38250000Y-80700000D02*
X38250000Y-74700000D01*
X38250000Y-74700000D02*
X37750000Y-74700000D01*
X40250000Y-74700000D02*
X40250000Y-80700000D01*
X40250000Y-80700000D02*
X40750000Y-80700000D01*
X40750000Y-80700000D02*
X40750000Y-74700000D01*
X40750000Y-74700000D02*
X40250000Y-74700000D01*
X42750000Y-74700000D02*
X42750000Y-80700000D01*
X42750000Y-80700000D02*
X43250000Y-80700000D01*
X43250000Y-80700000D02*
X43250000Y-74700000D01*
X43250000Y-74700000D02*
X42750000Y-74700000D01*
X45250000Y-74700000D02*
X45250000Y-80700000D01*
X45250000Y-80700000D02*
X45750000Y-80700000D01*
X45750000Y-80700000D02*
X45750000Y-74700000D01*
X45750000Y-74700000D02*
X45250000Y-74700000D01*
X47750000Y-74700000D02*
X47750000Y-80700000D01*
X47750000Y-80700000D02*
X48250000Y-80700000D01*
X48250000Y-80700000D02*
X48250000Y-74700000D01*
X48250000Y-74700000D02*
X47750000Y-74700000D01*
X50250000Y-74700000D02*
X50250000Y-80700000D01*
X50250000Y-80700000D02*
X50750000Y-80700000D01*
X50750000Y-80700000D02*
X50750000Y-74700000D01*
X50750000Y-74700000D02*
X50250000Y-74700000D01*
X52750000Y-74700000D02*
X52750000Y-80700000D01*
X52750000Y-80700000D02*
X53250000Y-80700000D01*
X53250000Y-80700000D02*
X53250000Y-74700000D01*
X53250000Y-74700000D02*
X52750000Y-74700000D01*
X55250000Y-74700000D02*
X55250000Y-80700000D01*
X55250000Y-80700000D02*
X55750000Y-80700000D01*
X55750000Y-80700000D02*
X55750000Y-74700000D01*
X55750000Y-74700000D02*
X55250000Y-74700000D01*
X38000000Y-70500000D02*
X37700000Y-69900000D01*
X37700000Y-69900000D02*
X38300000Y-69900000D01*
X38300000Y-69900000D02*
X38000000Y-70500000D01*
X70750000Y-81350000D02*
X59400000Y-81350000D01*
X59400000Y-81350000D02*
X59400000Y-69550000D01*
X59400000Y-69550000D02*
X60600000Y-69550000D01*
X60600000Y-69550000D02*
X60600000Y-74050000D01*
X60600000Y-74050000D02*
X70750000Y-74050000D01*
X70750000Y-81350000D02*
X82100000Y-81350000D01*
X82100000Y-81350000D02*
X82100000Y-69550000D01*
X82100000Y-69550000D02*
X80900000Y-69550000D01*
X80900000Y-69550000D02*
X80900000Y-74050000D01*
X80900000Y-74050000D02*
X70750000Y-74050000D01*
X61750000Y-74700000D02*
X61750000Y-80700000D01*
X61750000Y-80700000D02*
X62250000Y-80700000D01*
X62250000Y-80700000D02*
X62250000Y-74700000D01*
X62250000Y-74700000D02*
X61750000Y-74700000D01*
X64250000Y-74700000D02*
X64250000Y-80700000D01*
X64250000Y-80700000D02*
X64750000Y-80700000D01*
X64750000Y-80700000D02*
X64750000Y-74700000D01*
X64750000Y-74700000D02*
X64250000Y-74700000D01*
X66750000Y-74700000D02*
X66750000Y-80700000D01*
X66750000Y-80700000D02*
X67250000Y-80700000D01*
X67250000Y-80700000D02*
X67250000Y-74700000D01*
X67250000Y-74700000D02*
X66750000Y-74700000D01*
X69250000Y-74700000D02*
X69250000Y-80700000D01*
X69250000Y-80700000D02*
X69750000Y-80700000D01*
X69750000Y-80700000D02*
X69750000Y-74700000D01*
X69750000Y-74700000D02*
X69250000Y-74700000D01*
X71750000Y-74700000D02*
X71750000Y-80700000D01*
X71750000Y-80700000D02*
X72250000Y-80700000D01*
X72250000Y-80700000D02*
X72250000Y-74700000D01*
X72250000Y-74700000D02*
X71750000Y-74700000D01*
X74250000Y-74700000D02*
X74250000Y-80700000D01*
X74250000Y-80700000D02*
X74750000Y-80700000D01*
X74750000Y-80700000D02*
X74750000Y-74700000D01*
X74750000Y-74700000D02*
X74250000Y-74700000D01*
X76750000Y-74700000D02*
X76750000Y-80700000D01*
X76750000Y-80700000D02*
X77250000Y-80700000D01*
X77250000Y-80700000D02*
X77250000Y-74700000D01*
X77250000Y-74700000D02*
X76750000Y-74700000D01*
X79250000Y-74700000D02*
X79250000Y-80700000D01*
X79250000Y-80700000D02*
X79750000Y-80700000D01*
X79750000Y-80700000D02*
X79750000Y-74700000D01*
X79750000Y-74700000D02*
X79250000Y-74700000D01*
X62000000Y-70500000D02*
X61700000Y-69900000D01*
X61700000Y-69900000D02*
X62300000Y-69900000D01*
X62300000Y-69900000D02*
X62000000Y-70500000D01*
X108050000Y-77800000D02*
X108050000Y-73300000D01*
X108050000Y-73300000D02*
X117950000Y-73300000D01*
X117950000Y-73300000D02*
X117950000Y-77800000D01*
X117950000Y-77800000D02*
X108050000Y-77800000D01*
X110500000Y-73300000D02*
X110500000Y-73800000D01*
X110500000Y-73800000D02*
X108550000Y-73800000D01*
X108550000Y-73800000D02*
X108550000Y-77300000D01*
X108550000Y-77300000D02*
X117450000Y-77300000D01*
X117450000Y-77300000D02*
X117450000Y-73800000D01*
X117450000Y-73800000D02*
X115500000Y-73800000D01*
X115500000Y-73800000D02*
X115500000Y-73300000D01*
X108050000Y-74500000D02*
X108550000Y-74500000D01*
X108050000Y-75800000D02*
X108550000Y-75800000D01*
X117450000Y-74500000D02*
X117950000Y-74500000D01*
X117450000Y-75800000D02*
X117950000Y-75800000D01*
X109700000Y-73300000D02*
X109700000Y-73100000D01*
X109700000Y-73100000D02*
X109400000Y-73100000D01*
X109400000Y-73100000D02*
X109400000Y-73300000D01*
X109700000Y-73200000D02*
X109400000Y-73200000D01*
X110900000Y-77300000D02*
X110900000Y-76800000D01*
X110900000Y-76800000D02*
X111100000Y-76800000D01*
X111100000Y-76800000D02*
X111100000Y-77300000D01*
X111000000Y-77300000D02*
X111000000Y-76800000D01*
X112900000Y-77300000D02*
X112900000Y-76800000D01*
X112900000Y-76800000D02*
X113100000Y-76800000D01*
X113100000Y-76800000D02*
X113100000Y-77300000D01*
X113000000Y-77300000D02*
X113000000Y-76800000D01*
X114900000Y-77300000D02*
X114900000Y-76800000D01*
X114900000Y-76800000D02*
X115100000Y-76800000D01*
X115100000Y-76800000D02*
X115100000Y-77300000D01*
X115000000Y-77300000D02*
X115000000Y-76800000D01*
X108050000Y-70300000D02*
X108050000Y-65800000D01*
X108050000Y-65800000D02*
X117950000Y-65800000D01*
X117950000Y-65800000D02*
X117950000Y-70300000D01*
X117950000Y-70300000D02*
X108050000Y-70300000D01*
X110500000Y-65800000D02*
X110500000Y-66300000D01*
X110500000Y-66300000D02*
X108550000Y-66300000D01*
X108550000Y-66300000D02*
X108550000Y-69800000D01*
X108550000Y-69800000D02*
X117450000Y-69800000D01*
X117450000Y-69800000D02*
X117450000Y-66300000D01*
X117450000Y-66300000D02*
X115500000Y-66300000D01*
X115500000Y-66300000D02*
X115500000Y-65800000D01*
X108050000Y-67000000D02*
X108550000Y-67000000D01*
X108050000Y-68300000D02*
X108550000Y-68300000D01*
X117450000Y-67000000D02*
X117950000Y-67000000D01*
X117450000Y-68300000D02*
X117950000Y-68300000D01*
X109700000Y-65800000D02*
X109700000Y-65600000D01*
X109700000Y-65600000D02*
X109400000Y-65600000D01*
X109400000Y-65600000D02*
X109400000Y-65800000D01*
X109700000Y-65700000D02*
X109400000Y-65700000D01*
X110900000Y-69800000D02*
X110900000Y-69300000D01*
X110900000Y-69300000D02*
X111100000Y-69300000D01*
X111100000Y-69300000D02*
X111100000Y-69800000D01*
X111000000Y-69800000D02*
X111000000Y-69300000D01*
X112900000Y-69800000D02*
X112900000Y-69300000D01*
X112900000Y-69300000D02*
X113100000Y-69300000D01*
X113100000Y-69300000D02*
X113100000Y-69800000D01*
X113000000Y-69800000D02*
X113000000Y-69300000D01*
X114900000Y-69800000D02*
X114900000Y-69300000D01*
X114900000Y-69300000D02*
X115100000Y-69300000D01*
X115100000Y-69300000D02*
X115100000Y-69800000D01*
X115000000Y-69800000D02*
X115000000Y-69300000D01*
X74250000Y-52000000D02*
X74250000Y-32000000D01*
X74250000Y-32000000D02*
X31750000Y-32000000D01*
X31750000Y-32000000D02*
X31750000Y-52000000D01*
X74250000Y-52000000D02*
X31750000Y-52000000D01*
X116000500Y-42500880D02*
X116000500Y-33499120D01*
X119500620Y-42500880D02*
X119500620Y-33499120D01*
X119500620Y-33499120D02*
X104999760Y-33499120D01*
X104999760Y-33499120D02*
X104999760Y-42500880D01*
X104999760Y-42500880D02*
X119500620Y-42500880D01*
X84000000Y-50925000D02*
X86000000Y-50925000D01*
X86000000Y-53075000D02*
X84000000Y-53075000D01*
X84000000Y-54925000D02*
X86000000Y-54925000D01*
X86000000Y-57075000D02*
X84000000Y-57075000D01*
X112500000Y-53075000D02*
X110500000Y-53075000D01*
X110500000Y-50925000D02*
X112500000Y-50925000D01*
X112500000Y-57075000D02*
X110500000Y-57075000D01*
X110500000Y-54925000D02*
X112500000Y-54925000D01*
X98925000Y-42000000D02*
X98925000Y-40000000D01*
X101075000Y-40000000D02*
X101075000Y-42000000D01*
X83450000Y-72550000D02*
X83450000Y-78500000D01*
X83450000Y-78500000D02*
X93550000Y-78500000D01*
X93550000Y-78500000D02*
X93550000Y-72550000D01*
X93550000Y-72550000D02*
X83450000Y-72550000D01*
X86750000Y-72550000D02*
X86750000Y-73300000D01*
X86750000Y-73300000D02*
X90250000Y-73300000D01*
X90250000Y-73300000D02*
X90250000Y-72550000D01*
X90250000Y-72550000D02*
X86750000Y-72550000D01*
X83450000Y-72550000D02*
X83450000Y-73300000D01*
X83450000Y-73300000D02*
X85250000Y-73300000D01*
X85250000Y-73300000D02*
X85250000Y-72550000D01*
X85250000Y-72550000D02*
X83450000Y-72550000D01*
X91750000Y-72550000D02*
X91750000Y-73300000D01*
X91750000Y-73300000D02*
X93550000Y-73300000D01*
X93550000Y-73300000D02*
X93550000Y-72550000D01*
X93550000Y-72550000D02*
X91750000Y-72550000D01*
X83450000Y-74800000D02*
X84200000Y-74800000D01*
X84200000Y-74800000D02*
X84200000Y-77750000D01*
X84200000Y-77750000D02*
X88500000Y-77750000D01*
X93550000Y-74800000D02*
X92800000Y-74800000D01*
X92800000Y-74800000D02*
X92800000Y-77750000D01*
X92800000Y-77750000D02*
X88500000Y-77750000D01*
X86000000Y-72250000D02*
X85700000Y-71650000D01*
X85700000Y-71650000D02*
X86300000Y-71650000D01*
X86300000Y-71650000D02*
X86000000Y-72250000D01*
X94950000Y-72550000D02*
X94950000Y-78500000D01*
X94950000Y-78500000D02*
X105050000Y-78500000D01*
X105050000Y-78500000D02*
X105050000Y-72550000D01*
X105050000Y-72550000D02*
X94950000Y-72550000D01*
X98250000Y-72550000D02*
X98250000Y-73300000D01*
X98250000Y-73300000D02*
X101750000Y-73300000D01*
X101750000Y-73300000D02*
X101750000Y-72550000D01*
X101750000Y-72550000D02*
X98250000Y-72550000D01*
X94950000Y-72550000D02*
X94950000Y-73300000D01*
X94950000Y-73300000D02*
X96750000Y-73300000D01*
X96750000Y-73300000D02*
X96750000Y-72550000D01*
X96750000Y-72550000D02*
X94950000Y-72550000D01*
X103250000Y-72550000D02*
X103250000Y-73300000D01*
X103250000Y-73300000D02*
X105050000Y-73300000D01*
X105050000Y-73300000D02*
X105050000Y-72550000D01*
X105050000Y-72550000D02*
X103250000Y-72550000D01*
X94950000Y-74800000D02*
X95700000Y-74800000D01*
X95700000Y-74800000D02*
X95700000Y-77750000D01*
X95700000Y-77750000D02*
X100000000Y-77750000D01*
X105050000Y-74800000D02*
X104300000Y-74800000D01*
X104300000Y-74800000D02*
X104300000Y-77750000D01*
X104300000Y-77750000D02*
X100000000Y-77750000D01*
X97500000Y-72250000D02*
X97200000Y-71650000D01*
X97200000Y-71650000D02*
X97800000Y-71650000D01*
X97800000Y-71650000D02*
X97500000Y-72250000D01*
X88810000Y-34730000D02*
X88810000Y-37270000D01*
X88810000Y-37270000D02*
X81190000Y-37270000D01*
X81190000Y-37270000D02*
X81190000Y-34730000D01*
X81190000Y-34730000D02*
X88810000Y-34730000D01*
X86270000Y-37270000D02*
X86270000Y-34730000D01*
D10*
X93142857Y-54166667D02*
X93619048Y-54166667D01*
X93047619Y-54452381D02*
X93380952Y-53452381D01*
X93714286Y-54452381D01*
X94047619Y-54452381D02*
X94047619Y-53785714D01*
X94047619Y-53976190D02*
X94095238Y-53880952D01*
X94142857Y-53833333D01*
X94238095Y-53785714D01*
X94333334Y-53785714D01*
X95095239Y-54452381D02*
X95095239Y-53452381D01*
X95095239Y-54404762D02*
X95000001Y-54452381D01*
X94809524Y-54452381D01*
X94714286Y-54404762D01*
X94666667Y-54357143D01*
X94619048Y-54261905D01*
X94619048Y-53976190D01*
X94666667Y-53880952D01*
X94714286Y-53833333D01*
X94809524Y-53785714D01*
X95000001Y-53785714D01*
X95095239Y-53833333D01*
X96000001Y-53785714D02*
X96000001Y-54452381D01*
X95571429Y-53785714D02*
X95571429Y-54309524D01*
X95619048Y-54404762D01*
X95714286Y-54452381D01*
X95857144Y-54452381D01*
X95952382Y-54404762D01*
X96000001Y-54357143D01*
X96476191Y-54452381D02*
X96476191Y-53785714D01*
X96476191Y-53452381D02*
X96428572Y-53500000D01*
X96476191Y-53547619D01*
X96523810Y-53500000D01*
X96476191Y-53452381D01*
X96476191Y-53547619D01*
X96952381Y-53785714D02*
X96952381Y-54452381D01*
X96952381Y-53880952D02*
X97000000Y-53833333D01*
X97095238Y-53785714D01*
X97238096Y-53785714D01*
X97333334Y-53833333D01*
X97380953Y-53928571D01*
X97380953Y-54452381D01*
X98000000Y-54452381D02*
X97904762Y-54404762D01*
X97857143Y-54357143D01*
X97809524Y-54261905D01*
X97809524Y-53976190D01*
X97857143Y-53880952D01*
X97904762Y-53833333D01*
X98000000Y-53785714D01*
X98142858Y-53785714D01*
X98238096Y-53833333D01*
X98285715Y-53880952D01*
X98333334Y-53976190D01*
X98333334Y-54261905D01*
X98285715Y-54357143D01*
X98238096Y-54404762D01*
X98142858Y-54452381D01*
X98000000Y-54452381D01*
X99523810Y-54452381D02*
X99523810Y-53452381D01*
X100095239Y-54452381D01*
X100095239Y-53452381D01*
X101000001Y-54452381D02*
X101000001Y-53928571D01*
X100952382Y-53833333D01*
X100857144Y-53785714D01*
X100666667Y-53785714D01*
X100571429Y-53833333D01*
X101000001Y-54404762D02*
X100904763Y-54452381D01*
X100666667Y-54452381D01*
X100571429Y-54404762D01*
X100523810Y-54309524D01*
X100523810Y-54214286D01*
X100571429Y-54119048D01*
X100666667Y-54071429D01*
X100904763Y-54071429D01*
X101000001Y-54023810D01*
X101476191Y-53785714D02*
X101476191Y-54452381D01*
X101476191Y-53880952D02*
X101523810Y-53833333D01*
X101619048Y-53785714D01*
X101761906Y-53785714D01*
X101857144Y-53833333D01*
X101904763Y-53928571D01*
X101904763Y-54452381D01*
X102523810Y-54452381D02*
X102428572Y-54404762D01*
X102380953Y-54357143D01*
X102333334Y-54261905D01*
X102333334Y-53976190D01*
X102380953Y-53880952D01*
X102428572Y-53833333D01*
X102523810Y-53785714D01*
X102666668Y-53785714D01*
X102761906Y-53833333D01*
X102809525Y-53880952D01*
X102857144Y-53976190D01*
X102857144Y-54261905D01*
X102809525Y-54357143D01*
X102761906Y-54404762D01*
X102666668Y-54452381D01*
X102523810Y-54452381D01*
D12*
X118105714Y-54642857D02*
X118772381Y-54642857D01*
X118105714Y-55071429D02*
X118629524Y-55071429D01*
X118724762Y-55023810D01*
X118772381Y-54928572D01*
X118772381Y-54785714D01*
X118724762Y-54690476D01*
X118677143Y-54642857D01*
X118724762Y-54214286D02*
X118772381Y-54119048D01*
X118772381Y-53928572D01*
X118724762Y-53833333D01*
X118629524Y-53785714D01*
X118581905Y-53785714D01*
X118486667Y-53833333D01*
X118439048Y-53928572D01*
X118439048Y-54071429D01*
X118391429Y-54166667D01*
X118296190Y-54214286D01*
X118248571Y-54214286D01*
X118153333Y-54166667D01*
X118105714Y-54071429D01*
X118105714Y-53928572D01*
X118153333Y-53833333D01*
X118772381Y-53357143D02*
X117772381Y-53357143D01*
X118153333Y-53357143D02*
X118105714Y-53261905D01*
X118105714Y-53071428D01*
X118153333Y-52976190D01*
X118200952Y-52928571D01*
X118296190Y-52880952D01*
X118581905Y-52880952D01*
X118677143Y-52928571D01*
X118724762Y-52976190D01*
X118772381Y-53071428D01*
X118772381Y-53261905D01*
X118724762Y-53357143D01*
D10*
X36476191Y-54152381D02*
X35904762Y-54152381D01*
X36190476Y-54152381D02*
X36190476Y-53152381D01*
X36095238Y-53295238D01*
X36000000Y-53390476D01*
X35904762Y-53438095D01*
X37095238Y-53152381D02*
X37190477Y-53152381D01*
X37285715Y-53200000D01*
X37333334Y-53247619D01*
X37380953Y-53342857D01*
X37428572Y-53533333D01*
X37428572Y-53771429D01*
X37380953Y-53961905D01*
X37333334Y-54057143D01*
X37285715Y-54104762D01*
X37190477Y-54152381D01*
X37095238Y-54152381D01*
X37000000Y-54104762D01*
X36952381Y-54057143D01*
X36904762Y-53961905D01*
X36857143Y-53771429D01*
X36857143Y-53533333D01*
X36904762Y-53342857D01*
X36952381Y-53247619D01*
X37000000Y-53200000D01*
X37095238Y-53152381D01*
X38047619Y-53152381D02*
X38142858Y-53152381D01*
X38238096Y-53200000D01*
X38285715Y-53247619D01*
X38333334Y-53342857D01*
X38380953Y-53533333D01*
X38380953Y-53771429D01*
X38333334Y-53961905D01*
X38285715Y-54057143D01*
X38238096Y-54104762D01*
X38142858Y-54152381D01*
X38047619Y-54152381D01*
X37952381Y-54104762D01*
X37904762Y-54057143D01*
X37857143Y-53961905D01*
X37809524Y-53771429D01*
X37809524Y-53533333D01*
X37857143Y-53342857D01*
X37904762Y-53247619D01*
X37952381Y-53200000D01*
X38047619Y-53152381D01*
X39000000Y-53152381D02*
X39095239Y-53152381D01*
X39190477Y-53200000D01*
X39238096Y-53247619D01*
X39285715Y-53342857D01*
X39333334Y-53533333D01*
X39333334Y-53771429D01*
X39285715Y-53961905D01*
X39238096Y-54057143D01*
X39190477Y-54104762D01*
X39095239Y-54152381D01*
X39000000Y-54152381D01*
X38904762Y-54104762D01*
X38857143Y-54057143D01*
X38809524Y-53961905D01*
X38761905Y-53771429D01*
X38761905Y-53533333D01*
X38809524Y-53342857D01*
X38857143Y-53247619D01*
X38904762Y-53200000D01*
X39000000Y-53152381D01*
X40190477Y-53485714D02*
X40190477Y-54152381D01*
X39761905Y-53485714D02*
X39761905Y-54009524D01*
X39809524Y-54104762D01*
X39904762Y-54152381D01*
X40047620Y-54152381D01*
X40142858Y-54104762D01*
X40190477Y-54057143D01*
X41000001Y-53628571D02*
X40666667Y-53628571D01*
X40666667Y-54152381D02*
X40666667Y-53152381D01*
X41142858Y-53152381D01*
X94452381Y-40642857D02*
X94452381Y-41119048D01*
X93452381Y-41119048D01*
X93928571Y-40309524D02*
X93928571Y-39976190D01*
X94452381Y-39833333D02*
X94452381Y-40309524D01*
X93452381Y-40309524D01*
X93452381Y-39833333D01*
X94452381Y-39404762D02*
X93452381Y-39404762D01*
X93452381Y-39166667D01*
X93500000Y-39023809D01*
X93595238Y-38928571D01*
X93690476Y-38880952D01*
X93880952Y-38833333D01*
X94023810Y-38833333D01*
X94214286Y-38880952D01*
X94309524Y-38928571D01*
X94404762Y-39023809D01*
X94452381Y-39166667D01*
X94452381Y-39404762D01*
D12*
X45083333Y-68952381D02*
X45083333Y-67952381D01*
X45083333Y-68428571D02*
X45654762Y-68428571D01*
X45654762Y-68952381D02*
X45654762Y-67952381D01*
X46559524Y-68285714D02*
X46559524Y-68952381D01*
X46130952Y-68285714D02*
X46130952Y-68809524D01*
X46178571Y-68904762D01*
X46273809Y-68952381D01*
X46416667Y-68952381D01*
X46511905Y-68904762D01*
X46559524Y-68857143D01*
X47035714Y-68952381D02*
X47035714Y-67952381D01*
X47035714Y-68333333D02*
X47130952Y-68285714D01*
X47321429Y-68285714D01*
X47416667Y-68333333D01*
X47464286Y-68380952D01*
X47511905Y-68476190D01*
X47511905Y-68761905D01*
X47464286Y-68857143D01*
X47416667Y-68904762D01*
X47321429Y-68952381D01*
X47130952Y-68952381D01*
X47035714Y-68904762D01*
X48464286Y-68952381D02*
X47892857Y-68952381D01*
X48178571Y-68952381D02*
X48178571Y-67952381D01*
X48083333Y-68095238D01*
X47988095Y-68190476D01*
X47892857Y-68238095D01*
X69083333Y-68952381D02*
X69083333Y-67952381D01*
X69083333Y-68428571D02*
X69654762Y-68428571D01*
X69654762Y-68952381D02*
X69654762Y-67952381D01*
X70559524Y-68285714D02*
X70559524Y-68952381D01*
X70130952Y-68285714D02*
X70130952Y-68809524D01*
X70178571Y-68904762D01*
X70273809Y-68952381D01*
X70416667Y-68952381D01*
X70511905Y-68904762D01*
X70559524Y-68857143D01*
X71035714Y-68952381D02*
X71035714Y-67952381D01*
X71035714Y-68333333D02*
X71130952Y-68285714D01*
X71321429Y-68285714D01*
X71416667Y-68333333D01*
X71464286Y-68380952D01*
X71511905Y-68476190D01*
X71511905Y-68761905D01*
X71464286Y-68857143D01*
X71416667Y-68904762D01*
X71321429Y-68952381D01*
X71130952Y-68952381D01*
X71035714Y-68904762D01*
X71892857Y-68047619D02*
X71940476Y-68000000D01*
X72035714Y-67952381D01*
X72273810Y-67952381D01*
X72369048Y-68000000D01*
X72416667Y-68047619D01*
X72464286Y-68142857D01*
X72464286Y-68238095D01*
X72416667Y-68380952D01*
X71845238Y-68952381D01*
X72464286Y-68952381D01*
X108952381Y-72452381D02*
X108476190Y-72452381D01*
X108476190Y-71452381D01*
X109666667Y-72404762D02*
X109571429Y-72452381D01*
X109380952Y-72452381D01*
X109285714Y-72404762D01*
X109238095Y-72309524D01*
X109238095Y-71928571D01*
X109285714Y-71833333D01*
X109380952Y-71785714D01*
X109571429Y-71785714D01*
X109666667Y-71833333D01*
X109714286Y-71928571D01*
X109714286Y-72023810D01*
X109238095Y-72119048D01*
X110571429Y-72452381D02*
X110571429Y-71452381D01*
X110571429Y-72404762D02*
X110476191Y-72452381D01*
X110285714Y-72452381D01*
X110190476Y-72404762D01*
X110142857Y-72357143D01*
X110095238Y-72261905D01*
X110095238Y-71976190D01*
X110142857Y-71880952D01*
X110190476Y-71833333D01*
X110285714Y-71785714D01*
X110476191Y-71785714D01*
X110571429Y-71833333D01*
X111571429Y-72452381D02*
X111000000Y-72452381D01*
X111285714Y-72452381D02*
X111285714Y-71452381D01*
X111190476Y-71595238D01*
X111095238Y-71690476D01*
X111000000Y-71738095D01*
X108952381Y-64952381D02*
X108476190Y-64952381D01*
X108476190Y-63952381D01*
X109666667Y-64904762D02*
X109571429Y-64952381D01*
X109380952Y-64952381D01*
X109285714Y-64904762D01*
X109238095Y-64809524D01*
X109238095Y-64428571D01*
X109285714Y-64333333D01*
X109380952Y-64285714D01*
X109571429Y-64285714D01*
X109666667Y-64333333D01*
X109714286Y-64428571D01*
X109714286Y-64523810D01*
X109238095Y-64619048D01*
X110571429Y-64952381D02*
X110571429Y-63952381D01*
X110571429Y-64904762D02*
X110476191Y-64952381D01*
X110285714Y-64952381D01*
X110190476Y-64904762D01*
X110142857Y-64857143D01*
X110095238Y-64761905D01*
X110095238Y-64476190D01*
X110142857Y-64380952D01*
X110190476Y-64333333D01*
X110285714Y-64285714D01*
X110476191Y-64285714D01*
X110571429Y-64333333D01*
X111000000Y-64047619D02*
X111047619Y-64000000D01*
X111142857Y-63952381D01*
X111380953Y-63952381D01*
X111476191Y-64000000D01*
X111523810Y-64047619D01*
X111571429Y-64142857D01*
X111571429Y-64238095D01*
X111523810Y-64380952D01*
X110952381Y-64952381D01*
X111571429Y-64952381D01*
X35297619Y-32952381D02*
X35488096Y-32952381D01*
X35583334Y-33000000D01*
X35678572Y-33095238D01*
X35726191Y-33285714D01*
X35726191Y-33619048D01*
X35678572Y-33809524D01*
X35583334Y-33904762D01*
X35488096Y-33952381D01*
X35297619Y-33952381D01*
X35202381Y-33904762D01*
X35107143Y-33809524D01*
X35059524Y-33619048D01*
X35059524Y-33285714D01*
X35107143Y-33095238D01*
X35202381Y-33000000D01*
X35297619Y-32952381D01*
X36583334Y-33285714D02*
X36583334Y-33952381D01*
X36154762Y-33285714D02*
X36154762Y-33809524D01*
X36202381Y-33904762D01*
X36297619Y-33952381D01*
X36440477Y-33952381D01*
X36535715Y-33904762D01*
X36583334Y-33857143D01*
X36916667Y-33285714D02*
X37297619Y-33285714D01*
X37059524Y-32952381D02*
X37059524Y-33809524D01*
X37107143Y-33904762D01*
X37202381Y-33952381D01*
X37297619Y-33952381D01*
X37630953Y-33571429D02*
X38392858Y-33571429D01*
X35297619Y-49952381D02*
X35488096Y-49952381D01*
X35583334Y-50000000D01*
X35678572Y-50095238D01*
X35726191Y-50285714D01*
X35726191Y-50619048D01*
X35678572Y-50809524D01*
X35583334Y-50904762D01*
X35488096Y-50952381D01*
X35297619Y-50952381D01*
X35202381Y-50904762D01*
X35107143Y-50809524D01*
X35059524Y-50619048D01*
X35059524Y-50285714D01*
X35107143Y-50095238D01*
X35202381Y-50000000D01*
X35297619Y-49952381D01*
X36583334Y-50285714D02*
X36583334Y-50952381D01*
X36154762Y-50285714D02*
X36154762Y-50809524D01*
X36202381Y-50904762D01*
X36297619Y-50952381D01*
X36440477Y-50952381D01*
X36535715Y-50904762D01*
X36583334Y-50857143D01*
X36916667Y-50285714D02*
X37297619Y-50285714D01*
X37059524Y-49952381D02*
X37059524Y-50809524D01*
X37107143Y-50904762D01*
X37202381Y-50952381D01*
X37297619Y-50952381D01*
X37630953Y-50571429D02*
X38392858Y-50571429D01*
X38011906Y-50952381D02*
X38011906Y-50190476D01*
X68678572Y-33952381D02*
X68678572Y-32952381D01*
X69154762Y-33285714D02*
X69154762Y-33952381D01*
X69154762Y-33380952D02*
X69202381Y-33333333D01*
X69297619Y-33285714D01*
X69440477Y-33285714D01*
X69535715Y-33333333D01*
X69583334Y-33428571D01*
X69583334Y-33952381D01*
X70059524Y-33571429D02*
X70821429Y-33571429D01*
X68678572Y-50952381D02*
X68678572Y-49952381D01*
X69154762Y-50285714D02*
X69154762Y-50952381D01*
X69154762Y-50380952D02*
X69202381Y-50333333D01*
X69297619Y-50285714D01*
X69440477Y-50285714D01*
X69535715Y-50333333D01*
X69583334Y-50428571D01*
X69583334Y-50952381D01*
X70059524Y-50571429D02*
X70821429Y-50571429D01*
X70440477Y-50952381D02*
X70440477Y-50190476D01*
D10*
X83880953Y-50452381D02*
X83547619Y-49976190D01*
X83309524Y-50452381D02*
X83309524Y-49452381D01*
X83690477Y-49452381D01*
X83785715Y-49500000D01*
X83833334Y-49547619D01*
X83880953Y-49642857D01*
X83880953Y-49785714D01*
X83833334Y-49880952D01*
X83785715Y-49928571D01*
X83690477Y-49976190D01*
X83309524Y-49976190D01*
X84738096Y-49785714D02*
X84738096Y-50452381D01*
X84500000Y-49404762D02*
X84261905Y-50119048D01*
X84880953Y-50119048D01*
X85166667Y-49452381D02*
X85833334Y-49452381D01*
X85404762Y-50452381D01*
X86404762Y-49452381D02*
X86500001Y-49452381D01*
X86595239Y-49500000D01*
X86642858Y-49547619D01*
X86690477Y-49642857D01*
X86738096Y-49833333D01*
X86738096Y-50071429D01*
X86690477Y-50261905D01*
X86642858Y-50357143D01*
X86595239Y-50404762D01*
X86500001Y-50452381D01*
X86404762Y-50452381D01*
X86309524Y-50404762D01*
X86261905Y-50357143D01*
X86214286Y-50261905D01*
X86166667Y-50071429D01*
X86166667Y-49833333D01*
X86214286Y-49642857D01*
X86261905Y-49547619D01*
X86309524Y-49500000D01*
X86404762Y-49452381D01*
X83880953Y-58452381D02*
X83547619Y-57976190D01*
X83309524Y-58452381D02*
X83309524Y-57452381D01*
X83690477Y-57452381D01*
X83785715Y-57500000D01*
X83833334Y-57547619D01*
X83880953Y-57642857D01*
X83880953Y-57785714D01*
X83833334Y-57880952D01*
X83785715Y-57928571D01*
X83690477Y-57976190D01*
X83309524Y-57976190D01*
X84738096Y-57785714D02*
X84738096Y-58452381D01*
X84500000Y-57404762D02*
X84261905Y-58119048D01*
X84880953Y-58119048D01*
X85166667Y-57452381D02*
X85833334Y-57452381D01*
X85404762Y-58452381D01*
X86404762Y-57452381D02*
X86500001Y-57452381D01*
X86595239Y-57500000D01*
X86642858Y-57547619D01*
X86690477Y-57642857D01*
X86738096Y-57833333D01*
X86738096Y-58071429D01*
X86690477Y-58261905D01*
X86642858Y-58357143D01*
X86595239Y-58404762D01*
X86500001Y-58452381D01*
X86404762Y-58452381D01*
X86309524Y-58404762D01*
X86261905Y-58357143D01*
X86214286Y-58261905D01*
X86166667Y-58071429D01*
X86166667Y-57833333D01*
X86214286Y-57642857D01*
X86261905Y-57547619D01*
X86309524Y-57500000D01*
X86404762Y-57452381D01*
X110380953Y-50452381D02*
X110047619Y-49976190D01*
X109809524Y-50452381D02*
X109809524Y-49452381D01*
X110190477Y-49452381D01*
X110285715Y-49500000D01*
X110333334Y-49547619D01*
X110380953Y-49642857D01*
X110380953Y-49785714D01*
X110333334Y-49880952D01*
X110285715Y-49928571D01*
X110190477Y-49976190D01*
X109809524Y-49976190D01*
X111238096Y-49785714D02*
X111238096Y-50452381D01*
X111000000Y-49404762D02*
X110761905Y-50119048D01*
X111380953Y-50119048D01*
X111666667Y-49452381D02*
X112333334Y-49452381D01*
X111904762Y-50452381D01*
X112904762Y-49452381D02*
X113000001Y-49452381D01*
X113095239Y-49500000D01*
X113142858Y-49547619D01*
X113190477Y-49642857D01*
X113238096Y-49833333D01*
X113238096Y-50071429D01*
X113190477Y-50261905D01*
X113142858Y-50357143D01*
X113095239Y-50404762D01*
X113000001Y-50452381D01*
X112904762Y-50452381D01*
X112809524Y-50404762D01*
X112761905Y-50357143D01*
X112714286Y-50261905D01*
X112666667Y-50071429D01*
X112666667Y-49833333D01*
X112714286Y-49642857D01*
X112761905Y-49547619D01*
X112809524Y-49500000D01*
X112904762Y-49452381D01*
X110380953Y-58452381D02*
X110047619Y-57976190D01*
X109809524Y-58452381D02*
X109809524Y-57452381D01*
X110190477Y-57452381D01*
X110285715Y-57500000D01*
X110333334Y-57547619D01*
X110380953Y-57642857D01*
X110380953Y-57785714D01*
X110333334Y-57880952D01*
X110285715Y-57928571D01*
X110190477Y-57976190D01*
X109809524Y-57976190D01*
X111238096Y-57785714D02*
X111238096Y-58452381D01*
X111000000Y-57404762D02*
X110761905Y-58119048D01*
X111380953Y-58119048D01*
X111666667Y-57452381D02*
X112333334Y-57452381D01*
X111904762Y-58452381D01*
X112904762Y-57452381D02*
X113000001Y-57452381D01*
X113095239Y-57500000D01*
X113142858Y-57547619D01*
X113190477Y-57642857D01*
X113238096Y-57833333D01*
X113238096Y-58071429D01*
X113190477Y-58261905D01*
X113142858Y-58357143D01*
X113095239Y-58404762D01*
X113000001Y-58452381D01*
X112904762Y-58452381D01*
X112809524Y-58404762D01*
X112761905Y-58357143D01*
X112714286Y-58261905D01*
X112666667Y-58071429D01*
X112666667Y-57833333D01*
X112714286Y-57642857D01*
X112761905Y-57547619D01*
X112809524Y-57500000D01*
X112904762Y-57452381D01*
X102452381Y-42119047D02*
X101976190Y-42452381D01*
X102452381Y-42690476D02*
X101452381Y-42690476D01*
X101452381Y-42309523D01*
X101500000Y-42214285D01*
X101547619Y-42166666D01*
X101642857Y-42119047D01*
X101785714Y-42119047D01*
X101880952Y-42166666D01*
X101928571Y-42214285D01*
X101976190Y-42309523D01*
X101976190Y-42690476D01*
X102452381Y-41166666D02*
X102452381Y-41738095D01*
X102452381Y-41452381D02*
X101452381Y-41452381D01*
X101595238Y-41547619D01*
X101690476Y-41642857D01*
X101738095Y-41738095D01*
X101452381Y-40261904D02*
X101452381Y-40738095D01*
X101928571Y-40785714D01*
X101880952Y-40738095D01*
X101833333Y-40642857D01*
X101833333Y-40404761D01*
X101880952Y-40309523D01*
X101928571Y-40261904D01*
X102023810Y-40214285D01*
X102261905Y-40214285D01*
X102357143Y-40261904D01*
X102404762Y-40309523D01*
X102452381Y-40404761D01*
X102452381Y-40642857D01*
X102404762Y-40738095D01*
X102357143Y-40785714D01*
X101452381Y-39595238D02*
X101452381Y-39499999D01*
X101500000Y-39404761D01*
X101547619Y-39357142D01*
X101642857Y-39309523D01*
X101833333Y-39261904D01*
X102071429Y-39261904D01*
X102261905Y-39309523D01*
X102357143Y-39357142D01*
X102404762Y-39404761D01*
X102452381Y-39499999D01*
X102452381Y-39595238D01*
X102404762Y-39690476D01*
X102357143Y-39738095D01*
X102261905Y-39785714D01*
X102071429Y-39833333D01*
X101833333Y-39833333D01*
X101642857Y-39785714D01*
X101547619Y-39738095D01*
X101500000Y-39690476D01*
X101452381Y-39595238D01*
D12*
X85690476Y-71904762D02*
X85833333Y-71952381D01*
X86071429Y-71952381D01*
X86166667Y-71904762D01*
X86214286Y-71857143D01*
X86261905Y-71761905D01*
X86261905Y-71666667D01*
X86214286Y-71571429D01*
X86166667Y-71523810D01*
X86071429Y-71476190D01*
X85880952Y-71428571D01*
X85785714Y-71380952D01*
X85738095Y-71333333D01*
X85690476Y-71238095D01*
X85690476Y-71142857D01*
X85738095Y-71047619D01*
X85785714Y-71000000D01*
X85880952Y-70952381D01*
X86119048Y-70952381D01*
X86261905Y-71000000D01*
X87071429Y-71904762D02*
X86976191Y-71952381D01*
X86785714Y-71952381D01*
X86690476Y-71904762D01*
X86642857Y-71809524D01*
X86642857Y-71428571D01*
X86690476Y-71333333D01*
X86785714Y-71285714D01*
X86976191Y-71285714D01*
X87071429Y-71333333D01*
X87119048Y-71428571D01*
X87119048Y-71523810D01*
X86642857Y-71619048D01*
X87547619Y-71285714D02*
X87547619Y-71952381D01*
X87547619Y-71380952D02*
X87595238Y-71333333D01*
X87690476Y-71285714D01*
X87833334Y-71285714D01*
X87928572Y-71333333D01*
X87976191Y-71428571D01*
X87976191Y-71952381D01*
X88404762Y-71904762D02*
X88500000Y-71952381D01*
X88690476Y-71952381D01*
X88785715Y-71904762D01*
X88833334Y-71809524D01*
X88833334Y-71761905D01*
X88785715Y-71666667D01*
X88690476Y-71619048D01*
X88547619Y-71619048D01*
X88452381Y-71571429D01*
X88404762Y-71476190D01*
X88404762Y-71428571D01*
X88452381Y-71333333D01*
X88547619Y-71285714D01*
X88690476Y-71285714D01*
X88785715Y-71333333D01*
X89404762Y-71952381D02*
X89309524Y-71904762D01*
X89261905Y-71857143D01*
X89214286Y-71761905D01*
X89214286Y-71476190D01*
X89261905Y-71380952D01*
X89309524Y-71333333D01*
X89404762Y-71285714D01*
X89547620Y-71285714D01*
X89642858Y-71333333D01*
X89690477Y-71380952D01*
X89738096Y-71476190D01*
X89738096Y-71761905D01*
X89690477Y-71857143D01*
X89642858Y-71904762D01*
X89547620Y-71952381D01*
X89404762Y-71952381D01*
X90166667Y-71952381D02*
X90166667Y-71285714D01*
X90166667Y-71476190D02*
X90214286Y-71380952D01*
X90261905Y-71333333D01*
X90357143Y-71285714D01*
X90452382Y-71285714D01*
X91309525Y-71952381D02*
X90738096Y-71952381D01*
X91023810Y-71952381D02*
X91023810Y-70952381D01*
X90928572Y-71095238D01*
X90833334Y-71190476D01*
X90738096Y-71238095D01*
X97190476Y-71904762D02*
X97333333Y-71952381D01*
X97571429Y-71952381D01*
X97666667Y-71904762D01*
X97714286Y-71857143D01*
X97761905Y-71761905D01*
X97761905Y-71666667D01*
X97714286Y-71571429D01*
X97666667Y-71523810D01*
X97571429Y-71476190D01*
X97380952Y-71428571D01*
X97285714Y-71380952D01*
X97238095Y-71333333D01*
X97190476Y-71238095D01*
X97190476Y-71142857D01*
X97238095Y-71047619D01*
X97285714Y-71000000D01*
X97380952Y-70952381D01*
X97619048Y-70952381D01*
X97761905Y-71000000D01*
X98571429Y-71904762D02*
X98476191Y-71952381D01*
X98285714Y-71952381D01*
X98190476Y-71904762D01*
X98142857Y-71809524D01*
X98142857Y-71428571D01*
X98190476Y-71333333D01*
X98285714Y-71285714D01*
X98476191Y-71285714D01*
X98571429Y-71333333D01*
X98619048Y-71428571D01*
X98619048Y-71523810D01*
X98142857Y-71619048D01*
X99047619Y-71285714D02*
X99047619Y-71952381D01*
X99047619Y-71380952D02*
X99095238Y-71333333D01*
X99190476Y-71285714D01*
X99333334Y-71285714D01*
X99428572Y-71333333D01*
X99476191Y-71428571D01*
X99476191Y-71952381D01*
X99904762Y-71904762D02*
X100000000Y-71952381D01*
X100190476Y-71952381D01*
X100285715Y-71904762D01*
X100333334Y-71809524D01*
X100333334Y-71761905D01*
X100285715Y-71666667D01*
X100190476Y-71619048D01*
X100047619Y-71619048D01*
X99952381Y-71571429D01*
X99904762Y-71476190D01*
X99904762Y-71428571D01*
X99952381Y-71333333D01*
X100047619Y-71285714D01*
X100190476Y-71285714D01*
X100285715Y-71333333D01*
X100904762Y-71952381D02*
X100809524Y-71904762D01*
X100761905Y-71857143D01*
X100714286Y-71761905D01*
X100714286Y-71476190D01*
X100761905Y-71380952D01*
X100809524Y-71333333D01*
X100904762Y-71285714D01*
X101047620Y-71285714D01*
X101142858Y-71333333D01*
X101190477Y-71380952D01*
X101238096Y-71476190D01*
X101238096Y-71761905D01*
X101190477Y-71857143D01*
X101142858Y-71904762D01*
X101047620Y-71952381D01*
X100904762Y-71952381D01*
X101666667Y-71952381D02*
X101666667Y-71285714D01*
X101666667Y-71476190D02*
X101714286Y-71380952D01*
X101761905Y-71333333D01*
X101857143Y-71285714D01*
X101952382Y-71285714D01*
X102238096Y-71047619D02*
X102285715Y-71000000D01*
X102380953Y-70952381D01*
X102619049Y-70952381D01*
X102714287Y-71000000D01*
X102761906Y-71047619D01*
X102809525Y-71142857D01*
X102809525Y-71238095D01*
X102761906Y-71380952D01*
X102190477Y-71952381D01*
X102809525Y-71952381D01*
X83666667Y-38944762D02*
X83809524Y-38992381D01*
X84047620Y-38992381D01*
X84142858Y-38944762D01*
X84190477Y-38897143D01*
X84238096Y-38801905D01*
X84238096Y-38706667D01*
X84190477Y-38611429D01*
X84142858Y-38563810D01*
X84047620Y-38516190D01*
X83857143Y-38468571D01*
X83761905Y-38420952D01*
X83714286Y-38373333D01*
X83666667Y-38278095D01*
X83666667Y-38182857D01*
X83714286Y-38087619D01*
X83761905Y-38040000D01*
X83857143Y-37992381D01*
X84095239Y-37992381D01*
X84238096Y-38040000D01*
X84571429Y-37992381D02*
X84809524Y-38992381D01*
X85000001Y-38278095D01*
X85190477Y-38992381D01*
X85428572Y-37992381D01*
X86333334Y-38992381D02*
X85761905Y-38992381D01*
X86047619Y-38992381D02*
X86047619Y-37992381D01*
X85952381Y-38135238D01*
X85857143Y-38230476D01*
X85761905Y-38278095D01*
M02*
