M48
;DRILL file {KiCad 4.0.3+e1-6302~38~ubuntu15.04.1-stable} date Wed Oct  5 22:25:42 2016
;FORMAT={-:-/ absolute / inch / decimal}
FMAT,2
INCH,TZ
T1C0.016
T2C0.028
T3C0.030
T4C0.031
T5C0.032
T6C0.035
T7C0.039
T8C0.040
%
G90
G05
M72
T1
X2.8512Y-2.5789
X2.9016Y-2.4213
X2.9331Y-2.4213
X3.7795Y-1.5748
X4.685Y-2.0472
X4.685Y-2.2047
T2
X4.3307Y-2.6575
X4.3307Y-2.9528
X4.4094Y-2.6575
X4.4094Y-2.9528
X4.4882Y-2.6575
X4.4882Y-2.9528
X4.5669Y-2.6575
X4.5669Y-2.9528
T3
X1.3091Y-1.3189
X1.3091Y-1.9882
X2.8642Y-1.3189
X2.8642Y-1.9882
T4
X1.4173Y-2.3622
X1.6142Y-2.3622
T5
X3.2465Y-1.4173
X3.3465Y-1.4173
X3.4465Y-1.4173
T6
X1.4961Y-2.8346
X1.5945Y-2.8346
X1.6929Y-2.8346
X1.7913Y-2.8346
X1.8898Y-2.8346
X1.9882Y-2.8346
X2.0866Y-2.8346
X2.185Y-2.8346
X2.4409Y-2.8346
X2.5394Y-2.8346
X2.6378Y-2.8346
X2.7362Y-2.8346
X2.8346Y-2.8346
X2.9331Y-2.8346
X3.0315Y-2.8346
X3.1299Y-2.8346
X3.3858Y-2.9528
X3.4843Y-2.9528
X3.5827Y-2.9528
X3.8386Y-2.9528
X3.937Y-2.9528
X4.0354Y-2.9528
T8
X3.1583Y-1.826
X3.1583Y-2.426
X3.2583Y-1.826
X3.2583Y-2.426
X3.3583Y-1.826
X3.3583Y-2.426
X3.4583Y-1.826
X3.4583Y-2.426
X3.5583Y-1.826
X3.5583Y-2.426
X3.6583Y-1.826
X3.6583Y-2.426
X3.7583Y-1.826
X3.7583Y-2.426
X3.8583Y-1.826
X3.8583Y-2.426
X3.9583Y-1.826
X3.9583Y-2.426
X4.0583Y-1.826
X4.0583Y-2.426
X4.1583Y-1.826
X4.1583Y-2.426
X4.2583Y-1.826
X4.2583Y-2.426
X4.3583Y-1.826
X4.3583Y-2.426
X4.4583Y-1.826
X4.4583Y-2.426
X4.5583Y-1.826
X4.5583Y-2.426
T7
X4.1653Y-1.5354G85X4.1653Y-1.4567
G05
X4.3228Y-1.3111G85X4.2441Y-1.3111
G05
X4.4015Y-1.5354G85X4.4015Y-1.4567
G05
T0
M30
