G04 #@! TF.FileFunction,Copper,L2,Bot,Signal*
%FSLAX46Y46*%
G04 Gerber Fmt 4.6, Leading zero omitted, Abs format (unit mm)*
G04 Created by KiCad (PCBNEW 4.0.3+e1-6302~38~ubuntu15.04.1-stable) date Wed Oct  5 22:25:40 2016*
%MOMM*%
%LPD*%
G01*
G04 APERTURE LIST*
%ADD10C,0.100000*%
%ADD11R,1.727200X1.727200*%
%ADD12C,1.727200*%
%ADD13R,1.300000X1.300000*%
%ADD14C,1.300000*%
%ADD15R,1.750000X1.750000*%
%ADD16C,1.750000*%
%ADD17R,1.200000X1.700000*%
%ADD18O,1.200000X1.700000*%
%ADD19C,1.524000*%
%ADD20R,3.500120X3.500120*%
%ADD21R,1.397000X1.397000*%
%ADD22C,1.397000*%
%ADD23C,0.600000*%
%ADD24C,2.050000*%
%ADD25C,0.250000*%
%ADD26C,0.254000*%
G04 APERTURE END LIST*
D10*
D11*
X80220000Y-61620000D03*
D12*
X82760000Y-61620000D03*
X85300000Y-61620000D03*
X87840000Y-61620000D03*
X90380000Y-61620000D03*
X92920000Y-61620000D03*
X95460000Y-61620000D03*
X98000000Y-61620000D03*
X100540000Y-61620000D03*
X103080000Y-61620000D03*
X105620000Y-61620000D03*
X108160000Y-61620000D03*
X110700000Y-61620000D03*
X113240000Y-61620000D03*
X115780000Y-61620000D03*
X115780000Y-46380000D03*
X113240000Y-46380000D03*
X110700000Y-46380000D03*
X108160000Y-46380000D03*
X105620000Y-46380000D03*
X103080000Y-46380000D03*
X100540000Y-46380000D03*
X98000000Y-46380000D03*
X95460000Y-46380000D03*
X92920000Y-46380000D03*
X90380000Y-46380000D03*
X87840000Y-46380000D03*
X85300000Y-46380000D03*
X82760000Y-46380000D03*
X80220000Y-46380000D03*
D13*
X36000000Y-60000000D03*
D14*
X41000000Y-60000000D03*
D15*
X38000000Y-72000000D03*
D16*
X40500000Y-72000000D03*
X43000000Y-72000000D03*
X45500000Y-72000000D03*
X48000000Y-72000000D03*
X50500000Y-72000000D03*
X53000000Y-72000000D03*
X55500000Y-72000000D03*
D15*
X62000000Y-72000000D03*
D16*
X64500000Y-72000000D03*
X67000000Y-72000000D03*
X69500000Y-72000000D03*
X72000000Y-72000000D03*
X74500000Y-72000000D03*
X77000000Y-72000000D03*
X79500000Y-72000000D03*
D17*
X110000000Y-75000000D03*
D18*
X112000000Y-75000000D03*
X114000000Y-75000000D03*
X116000000Y-75000000D03*
D17*
X110000000Y-67500000D03*
D18*
X112000000Y-67500000D03*
X114000000Y-67500000D03*
X116000000Y-67500000D03*
D19*
X72750000Y-50500000D03*
X72750000Y-33500000D03*
X33250000Y-50500000D03*
X33250000Y-33500000D03*
D20*
X105799860Y-38000000D03*
X111799340Y-38000000D03*
X108799600Y-33301000D03*
D15*
X86000000Y-75000000D03*
D16*
X88500000Y-75000000D03*
X91000000Y-75000000D03*
D15*
X97500000Y-75000000D03*
D16*
X100000000Y-75000000D03*
X102500000Y-75000000D03*
D21*
X87540000Y-36000000D03*
D22*
X85000000Y-36000000D03*
X82460000Y-36000000D03*
D23*
X96000000Y-40000000D03*
X72421178Y-65503528D03*
X73699997Y-61500000D03*
X74500000Y-61500000D03*
X119000000Y-52000000D03*
X119000000Y-56000000D03*
D24*
X33250000Y-50500000D02*
X33250000Y-54250000D01*
X33250000Y-54250000D02*
X36000000Y-57000000D01*
X36000000Y-57000000D02*
X36000000Y-60000000D01*
D25*
X73699997Y-61500000D02*
X73699997Y-64224709D01*
X73699997Y-64224709D02*
X72721177Y-65203529D01*
X72721177Y-65203529D02*
X72421178Y-65503528D01*
X74500000Y-63500000D02*
X79500000Y-68500000D01*
X79500000Y-68500000D02*
X79500000Y-72000000D01*
X74500000Y-61500000D02*
X74500000Y-63500000D01*
X119000000Y-52000000D02*
X120439251Y-53439251D01*
X120439251Y-53439251D02*
X120439251Y-70560750D01*
X120439251Y-70560750D02*
X119000000Y-72000000D01*
X119000000Y-72000000D02*
X114980658Y-72000000D01*
X114980658Y-72000000D02*
X114000000Y-72980658D01*
X114000000Y-72980658D02*
X114000000Y-75000000D01*
X119000000Y-56000000D02*
X119989240Y-56989240D01*
X119989240Y-56989240D02*
X119989240Y-70374350D01*
X119989240Y-70374350D02*
X118863590Y-71500000D01*
X118863590Y-71500000D02*
X115088890Y-71500000D01*
X115088890Y-71500000D02*
X114000000Y-70411110D01*
X114000000Y-70411110D02*
X114000000Y-67500000D01*
X114000000Y-67500000D02*
X114000000Y-67250000D01*
D24*
X85000000Y-36000000D02*
X85000000Y-37500000D01*
X85000000Y-37500000D02*
X83500000Y-39000000D01*
X83500000Y-39000000D02*
X76500000Y-39000000D01*
X76500000Y-39000000D02*
X72750000Y-42750000D01*
X72750000Y-42750000D02*
X72750000Y-50500000D01*
X87540000Y-36000000D02*
X103799860Y-36000000D01*
X103799860Y-36000000D02*
X105799860Y-38000000D01*
D26*
G36*
X106453109Y-31299050D02*
X106402100Y-31550940D01*
X106402100Y-35051060D01*
X106446378Y-35286377D01*
X106585450Y-35502501D01*
X106731803Y-35602500D01*
X105749954Y-35602500D01*
X104973657Y-34826203D01*
X104435115Y-34466360D01*
X103799860Y-34340000D01*
X87540000Y-34340000D01*
X86904746Y-34466360D01*
X86366203Y-34826203D01*
X86270000Y-34970181D01*
X86173797Y-34826203D01*
X85635254Y-34466360D01*
X85000000Y-34340000D01*
X84364746Y-34466360D01*
X83826203Y-34826203D01*
X83564076Y-35218503D01*
X83216353Y-34870173D01*
X82726413Y-34666732D01*
X82195914Y-34666269D01*
X81705620Y-34868854D01*
X81330173Y-35243647D01*
X81126732Y-35733587D01*
X81126269Y-36264086D01*
X81328854Y-36754380D01*
X81703647Y-37129827D01*
X82193587Y-37333268D01*
X82724086Y-37333731D01*
X82885278Y-37267128D01*
X82812406Y-37340000D01*
X76500000Y-37340000D01*
X75864745Y-37466360D01*
X75326203Y-37826203D01*
X71576203Y-41576203D01*
X71216360Y-42114745D01*
X71216360Y-42114746D01*
X71090000Y-42750000D01*
X71090000Y-50500000D01*
X71216360Y-51135254D01*
X71576203Y-51673797D01*
X72114746Y-52033640D01*
X72750000Y-52160000D01*
X73385254Y-52033640D01*
X73923797Y-51673797D01*
X74283640Y-51135254D01*
X74410000Y-50500000D01*
X74410000Y-46676782D01*
X78721141Y-46676782D01*
X78948808Y-47227780D01*
X79370003Y-47649710D01*
X79920602Y-47878339D01*
X80516782Y-47878859D01*
X81067780Y-47651192D01*
X81285546Y-47433805D01*
X81885800Y-47433805D01*
X81967741Y-47686516D01*
X82528030Y-47890248D01*
X83123635Y-47864058D01*
X83552259Y-47686516D01*
X83634200Y-47433805D01*
X82760000Y-46559605D01*
X81885800Y-47433805D01*
X81285546Y-47433805D01*
X81489710Y-47229997D01*
X81506541Y-47189463D01*
X81706195Y-47254200D01*
X82580395Y-46380000D01*
X82939605Y-46380000D01*
X83813805Y-47254200D01*
X84013033Y-47189601D01*
X84028808Y-47227780D01*
X84450003Y-47649710D01*
X85000602Y-47878339D01*
X85596782Y-47878859D01*
X86147780Y-47651192D01*
X86569710Y-47229997D01*
X86570095Y-47229069D01*
X86990003Y-47649710D01*
X87540602Y-47878339D01*
X88136782Y-47878859D01*
X88687780Y-47651192D01*
X89109710Y-47229997D01*
X89110095Y-47229069D01*
X89530003Y-47649710D01*
X90080602Y-47878339D01*
X90676782Y-47878859D01*
X91227780Y-47651192D01*
X91649710Y-47229997D01*
X91650095Y-47229069D01*
X92070003Y-47649710D01*
X92620602Y-47878339D01*
X93216782Y-47878859D01*
X93767780Y-47651192D01*
X94189710Y-47229997D01*
X94190095Y-47229069D01*
X94610003Y-47649710D01*
X95160602Y-47878339D01*
X95756782Y-47878859D01*
X96307780Y-47651192D01*
X96729710Y-47229997D01*
X96730095Y-47229069D01*
X97150003Y-47649710D01*
X97700602Y-47878339D01*
X98296782Y-47878859D01*
X98847780Y-47651192D01*
X99269710Y-47229997D01*
X99270095Y-47229069D01*
X99690003Y-47649710D01*
X100240602Y-47878339D01*
X100836782Y-47878859D01*
X101387780Y-47651192D01*
X101809710Y-47229997D01*
X101810095Y-47229069D01*
X102230003Y-47649710D01*
X102780602Y-47878339D01*
X103376782Y-47878859D01*
X103927780Y-47651192D01*
X104349710Y-47229997D01*
X104350095Y-47229069D01*
X104770003Y-47649710D01*
X105320602Y-47878339D01*
X105916782Y-47878859D01*
X106467780Y-47651192D01*
X106889710Y-47229997D01*
X106890095Y-47229069D01*
X107310003Y-47649710D01*
X107860602Y-47878339D01*
X108456782Y-47878859D01*
X109007780Y-47651192D01*
X109429710Y-47229997D01*
X109430095Y-47229069D01*
X109850003Y-47649710D01*
X110400602Y-47878339D01*
X110996782Y-47878859D01*
X111547780Y-47651192D01*
X111969710Y-47229997D01*
X111970095Y-47229069D01*
X112390003Y-47649710D01*
X112940602Y-47878339D01*
X113536782Y-47878859D01*
X114087780Y-47651192D01*
X114509710Y-47229997D01*
X114510095Y-47229069D01*
X114930003Y-47649710D01*
X115480602Y-47878339D01*
X116076782Y-47878859D01*
X116627780Y-47651192D01*
X117049710Y-47229997D01*
X117278339Y-46679398D01*
X117278859Y-46083218D01*
X117051192Y-45532220D01*
X116629997Y-45110290D01*
X116079398Y-44881661D01*
X115483218Y-44881141D01*
X114932220Y-45108808D01*
X114510290Y-45530003D01*
X114509905Y-45530931D01*
X114089997Y-45110290D01*
X113539398Y-44881661D01*
X112943218Y-44881141D01*
X112392220Y-45108808D01*
X111970290Y-45530003D01*
X111969905Y-45530931D01*
X111549997Y-45110290D01*
X110999398Y-44881661D01*
X110403218Y-44881141D01*
X109852220Y-45108808D01*
X109430290Y-45530003D01*
X109429905Y-45530931D01*
X109009997Y-45110290D01*
X108459398Y-44881661D01*
X107863218Y-44881141D01*
X107312220Y-45108808D01*
X106890290Y-45530003D01*
X106889905Y-45530931D01*
X106469997Y-45110290D01*
X105919398Y-44881661D01*
X105323218Y-44881141D01*
X104772220Y-45108808D01*
X104350290Y-45530003D01*
X104349905Y-45530931D01*
X103929997Y-45110290D01*
X103379398Y-44881661D01*
X102783218Y-44881141D01*
X102232220Y-45108808D01*
X101810290Y-45530003D01*
X101809905Y-45530931D01*
X101389997Y-45110290D01*
X100839398Y-44881661D01*
X100243218Y-44881141D01*
X99692220Y-45108808D01*
X99270290Y-45530003D01*
X99269905Y-45530931D01*
X98849997Y-45110290D01*
X98299398Y-44881661D01*
X97703218Y-44881141D01*
X97152220Y-45108808D01*
X96730290Y-45530003D01*
X96729905Y-45530931D01*
X96309997Y-45110290D01*
X95759398Y-44881661D01*
X95163218Y-44881141D01*
X94612220Y-45108808D01*
X94190290Y-45530003D01*
X94189905Y-45530931D01*
X93769997Y-45110290D01*
X93219398Y-44881661D01*
X92623218Y-44881141D01*
X92072220Y-45108808D01*
X91650290Y-45530003D01*
X91649905Y-45530931D01*
X91229997Y-45110290D01*
X90679398Y-44881661D01*
X90083218Y-44881141D01*
X89532220Y-45108808D01*
X89110290Y-45530003D01*
X89109905Y-45530931D01*
X88689997Y-45110290D01*
X88139398Y-44881661D01*
X87543218Y-44881141D01*
X86992220Y-45108808D01*
X86570290Y-45530003D01*
X86569905Y-45530931D01*
X86149997Y-45110290D01*
X85599398Y-44881661D01*
X85003218Y-44881141D01*
X84452220Y-45108808D01*
X84030290Y-45530003D01*
X84013459Y-45570537D01*
X83813805Y-45505800D01*
X82939605Y-46380000D01*
X82580395Y-46380000D01*
X81706195Y-45505800D01*
X81506967Y-45570399D01*
X81491192Y-45532220D01*
X81285526Y-45326195D01*
X81885800Y-45326195D01*
X82760000Y-46200395D01*
X83634200Y-45326195D01*
X83552259Y-45073484D01*
X82991970Y-44869752D01*
X82396365Y-44895942D01*
X81967741Y-45073484D01*
X81885800Y-45326195D01*
X81285526Y-45326195D01*
X81069997Y-45110290D01*
X80519398Y-44881661D01*
X79923218Y-44881141D01*
X79372220Y-45108808D01*
X78950290Y-45530003D01*
X78721661Y-46080602D01*
X78721141Y-46676782D01*
X74410000Y-46676782D01*
X74410000Y-43437594D01*
X77187594Y-40660000D01*
X83500000Y-40660000D01*
X84135255Y-40533640D01*
X84673797Y-40173797D01*
X86173797Y-38673797D01*
X86533639Y-38135255D01*
X86533640Y-38135254D01*
X86660000Y-37500000D01*
X86660000Y-37370106D01*
X86904746Y-37533640D01*
X87540000Y-37660000D01*
X103112266Y-37660000D01*
X103402360Y-37950094D01*
X103402360Y-39750060D01*
X103446638Y-39985377D01*
X103585710Y-40201501D01*
X103797910Y-40346491D01*
X104049800Y-40397500D01*
X107549920Y-40397500D01*
X107785237Y-40353222D01*
X108001361Y-40214150D01*
X108146351Y-40001950D01*
X108197360Y-39750060D01*
X108197360Y-38285750D01*
X109414280Y-38285750D01*
X109414280Y-39876370D01*
X109510953Y-40109759D01*
X109689582Y-40288387D01*
X109922971Y-40385060D01*
X111513590Y-40385060D01*
X111672340Y-40226310D01*
X111672340Y-38127000D01*
X111926340Y-38127000D01*
X111926340Y-40226310D01*
X112085090Y-40385060D01*
X113675709Y-40385060D01*
X113909098Y-40288387D01*
X114087727Y-40109759D01*
X114184400Y-39876370D01*
X114184400Y-38285750D01*
X114025650Y-38127000D01*
X111926340Y-38127000D01*
X111672340Y-38127000D01*
X109573030Y-38127000D01*
X109414280Y-38285750D01*
X108197360Y-38285750D01*
X108197360Y-36249940D01*
X108153082Y-36014623D01*
X108014010Y-35798499D01*
X107867657Y-35698500D01*
X109721240Y-35698500D01*
X109689582Y-35711613D01*
X109510953Y-35890241D01*
X109414280Y-36123630D01*
X109414280Y-37714250D01*
X109573030Y-37873000D01*
X111672340Y-37873000D01*
X111672340Y-35773690D01*
X111926340Y-35773690D01*
X111926340Y-37873000D01*
X114025650Y-37873000D01*
X114184400Y-37714250D01*
X114184400Y-36123630D01*
X114087727Y-35890241D01*
X113909098Y-35711613D01*
X113675709Y-35614940D01*
X112085090Y-35614940D01*
X111926340Y-35773690D01*
X111672340Y-35773690D01*
X111513590Y-35614940D01*
X110846023Y-35614940D01*
X111001101Y-35515150D01*
X111146091Y-35302950D01*
X111197100Y-35051060D01*
X111197100Y-31550940D01*
X111152822Y-31315623D01*
X111031446Y-31127000D01*
X119947394Y-31127000D01*
X120873000Y-32052606D01*
X120873000Y-52798198D01*
X119935122Y-51860320D01*
X119935162Y-51814833D01*
X119793117Y-51471057D01*
X119530327Y-51207808D01*
X119186799Y-51065162D01*
X118814833Y-51064838D01*
X118471057Y-51206883D01*
X118207808Y-51469673D01*
X118065162Y-51813201D01*
X118064838Y-52185167D01*
X118206883Y-52528943D01*
X118469673Y-52792192D01*
X118813201Y-52934838D01*
X118860077Y-52934879D01*
X119679251Y-53754053D01*
X119679251Y-55356992D01*
X119530327Y-55207808D01*
X119186799Y-55065162D01*
X118814833Y-55064838D01*
X118471057Y-55206883D01*
X118207808Y-55469673D01*
X118065162Y-55813201D01*
X118064838Y-56185167D01*
X118206883Y-56528943D01*
X118469673Y-56792192D01*
X118813201Y-56934838D01*
X118860077Y-56934879D01*
X119229240Y-57304042D01*
X119229240Y-70059547D01*
X118548788Y-70740000D01*
X115403692Y-70740000D01*
X114760000Y-70096308D01*
X114760000Y-68728059D01*
X114873277Y-68652370D01*
X115000000Y-68462715D01*
X115126723Y-68652370D01*
X115527386Y-68920084D01*
X116000000Y-69014093D01*
X116472614Y-68920084D01*
X116873277Y-68652370D01*
X117140991Y-68251707D01*
X117235000Y-67779093D01*
X117235000Y-67220907D01*
X117140991Y-66748293D01*
X116873277Y-66347630D01*
X116472614Y-66079916D01*
X116000000Y-65985907D01*
X115527386Y-66079916D01*
X115126723Y-66347630D01*
X115000000Y-66537285D01*
X114873277Y-66347630D01*
X114472614Y-66079916D01*
X114000000Y-65985907D01*
X113527386Y-66079916D01*
X113126723Y-66347630D01*
X113000000Y-66537285D01*
X112873277Y-66347630D01*
X112472614Y-66079916D01*
X112000000Y-65985907D01*
X111527386Y-66079916D01*
X111154410Y-66329130D01*
X111138327Y-66290301D01*
X110959698Y-66111673D01*
X110726309Y-66015000D01*
X110285750Y-66015000D01*
X110127000Y-66173750D01*
X110127000Y-67373000D01*
X110147000Y-67373000D01*
X110147000Y-67627000D01*
X110127000Y-67627000D01*
X110127000Y-68826250D01*
X110285750Y-68985000D01*
X110726309Y-68985000D01*
X110959698Y-68888327D01*
X111138327Y-68709699D01*
X111154410Y-68670870D01*
X111527386Y-68920084D01*
X112000000Y-69014093D01*
X112472614Y-68920084D01*
X112873277Y-68652370D01*
X113000000Y-68462715D01*
X113126723Y-68652370D01*
X113240000Y-68728059D01*
X113240000Y-70411110D01*
X113297852Y-70701949D01*
X113462599Y-70948511D01*
X114209972Y-71695884D01*
X113462599Y-72443257D01*
X113297852Y-72689819D01*
X113240000Y-72980658D01*
X113240000Y-73771941D01*
X113126723Y-73847630D01*
X113000000Y-74037285D01*
X112873277Y-73847630D01*
X112472614Y-73579916D01*
X112000000Y-73485907D01*
X111527386Y-73579916D01*
X111154410Y-73829130D01*
X111138327Y-73790301D01*
X110959698Y-73611673D01*
X110726309Y-73515000D01*
X110285750Y-73515000D01*
X110127000Y-73673750D01*
X110127000Y-74873000D01*
X110147000Y-74873000D01*
X110147000Y-75127000D01*
X110127000Y-75127000D01*
X110127000Y-76326250D01*
X110285750Y-76485000D01*
X110726309Y-76485000D01*
X110959698Y-76388327D01*
X111138327Y-76209699D01*
X111154410Y-76170870D01*
X111527386Y-76420084D01*
X112000000Y-76514093D01*
X112472614Y-76420084D01*
X112873277Y-76152370D01*
X113000000Y-75962715D01*
X113126723Y-76152370D01*
X113527386Y-76420084D01*
X114000000Y-76514093D01*
X114472614Y-76420084D01*
X114873277Y-76152370D01*
X115000000Y-75962715D01*
X115126723Y-76152370D01*
X115527386Y-76420084D01*
X116000000Y-76514093D01*
X116472614Y-76420084D01*
X116873277Y-76152370D01*
X117140991Y-75751707D01*
X117235000Y-75279093D01*
X117235000Y-74720907D01*
X117140991Y-74248293D01*
X116873277Y-73847630D01*
X116472614Y-73579916D01*
X116000000Y-73485907D01*
X115527386Y-73579916D01*
X115126723Y-73847630D01*
X115000000Y-74037285D01*
X114873277Y-73847630D01*
X114760000Y-73771941D01*
X114760000Y-73295460D01*
X115295460Y-72760000D01*
X119000000Y-72760000D01*
X119290839Y-72702148D01*
X119537401Y-72537401D01*
X120873000Y-71201803D01*
X120873000Y-79947394D01*
X119947394Y-80873000D01*
X32052606Y-80873000D01*
X31127000Y-79947394D01*
X31127000Y-75285750D01*
X84490000Y-75285750D01*
X84490000Y-76001310D01*
X84586673Y-76234699D01*
X84765302Y-76413327D01*
X84998691Y-76510000D01*
X85714250Y-76510000D01*
X85873000Y-76351250D01*
X85873000Y-75127000D01*
X84648750Y-75127000D01*
X84490000Y-75285750D01*
X31127000Y-75285750D01*
X31127000Y-73998690D01*
X84490000Y-73998690D01*
X84490000Y-74714250D01*
X84648750Y-74873000D01*
X85873000Y-74873000D01*
X85873000Y-73648750D01*
X86127000Y-73648750D01*
X86127000Y-74873000D01*
X86147000Y-74873000D01*
X86147000Y-75127000D01*
X86127000Y-75127000D01*
X86127000Y-76351250D01*
X86285750Y-76510000D01*
X87001309Y-76510000D01*
X87234698Y-76413327D01*
X87413327Y-76234699D01*
X87467760Y-76103286D01*
X87643537Y-76279370D01*
X88198325Y-76509738D01*
X88799040Y-76510262D01*
X89354229Y-76280862D01*
X89750318Y-75885464D01*
X90143537Y-76279370D01*
X90698325Y-76509738D01*
X91299040Y-76510262D01*
X91854229Y-76280862D01*
X92279370Y-75856463D01*
X92509738Y-75301675D01*
X92509751Y-75285750D01*
X95990000Y-75285750D01*
X95990000Y-76001310D01*
X96086673Y-76234699D01*
X96265302Y-76413327D01*
X96498691Y-76510000D01*
X97214250Y-76510000D01*
X97373000Y-76351250D01*
X97373000Y-75127000D01*
X96148750Y-75127000D01*
X95990000Y-75285750D01*
X92509751Y-75285750D01*
X92510262Y-74700960D01*
X92280862Y-74145771D01*
X92134038Y-73998690D01*
X95990000Y-73998690D01*
X95990000Y-74714250D01*
X96148750Y-74873000D01*
X97373000Y-74873000D01*
X97373000Y-73648750D01*
X97627000Y-73648750D01*
X97627000Y-74873000D01*
X97647000Y-74873000D01*
X97647000Y-75127000D01*
X97627000Y-75127000D01*
X97627000Y-76351250D01*
X97785750Y-76510000D01*
X98501309Y-76510000D01*
X98734698Y-76413327D01*
X98913327Y-76234699D01*
X98967760Y-76103286D01*
X99143537Y-76279370D01*
X99698325Y-76509738D01*
X100299040Y-76510262D01*
X100854229Y-76280862D01*
X101250318Y-75885464D01*
X101643537Y-76279370D01*
X102198325Y-76509738D01*
X102799040Y-76510262D01*
X103354229Y-76280862D01*
X103779370Y-75856463D01*
X104009738Y-75301675D01*
X104009751Y-75285750D01*
X108765000Y-75285750D01*
X108765000Y-75976310D01*
X108861673Y-76209699D01*
X109040302Y-76388327D01*
X109273691Y-76485000D01*
X109714250Y-76485000D01*
X109873000Y-76326250D01*
X109873000Y-75127000D01*
X108923750Y-75127000D01*
X108765000Y-75285750D01*
X104009751Y-75285750D01*
X104010262Y-74700960D01*
X103780862Y-74145771D01*
X103658995Y-74023690D01*
X108765000Y-74023690D01*
X108765000Y-74714250D01*
X108923750Y-74873000D01*
X109873000Y-74873000D01*
X109873000Y-73673750D01*
X109714250Y-73515000D01*
X109273691Y-73515000D01*
X109040302Y-73611673D01*
X108861673Y-73790301D01*
X108765000Y-74023690D01*
X103658995Y-74023690D01*
X103356463Y-73720630D01*
X102801675Y-73490262D01*
X102200960Y-73489738D01*
X101645771Y-73719138D01*
X101249682Y-74114536D01*
X100856463Y-73720630D01*
X100301675Y-73490262D01*
X99700960Y-73489738D01*
X99145771Y-73719138D01*
X98967797Y-73896802D01*
X98913327Y-73765301D01*
X98734698Y-73586673D01*
X98501309Y-73490000D01*
X97785750Y-73490000D01*
X97627000Y-73648750D01*
X97373000Y-73648750D01*
X97214250Y-73490000D01*
X96498691Y-73490000D01*
X96265302Y-73586673D01*
X96086673Y-73765301D01*
X95990000Y-73998690D01*
X92134038Y-73998690D01*
X91856463Y-73720630D01*
X91301675Y-73490262D01*
X90700960Y-73489738D01*
X90145771Y-73719138D01*
X89749682Y-74114536D01*
X89356463Y-73720630D01*
X88801675Y-73490262D01*
X88200960Y-73489738D01*
X87645771Y-73719138D01*
X87467797Y-73896802D01*
X87413327Y-73765301D01*
X87234698Y-73586673D01*
X87001309Y-73490000D01*
X86285750Y-73490000D01*
X86127000Y-73648750D01*
X85873000Y-73648750D01*
X85714250Y-73490000D01*
X84998691Y-73490000D01*
X84765302Y-73586673D01*
X84586673Y-73765301D01*
X84490000Y-73998690D01*
X31127000Y-73998690D01*
X31127000Y-72285750D01*
X36490000Y-72285750D01*
X36490000Y-73001310D01*
X36586673Y-73234699D01*
X36765302Y-73413327D01*
X36998691Y-73510000D01*
X37714250Y-73510000D01*
X37873000Y-73351250D01*
X37873000Y-72127000D01*
X36648750Y-72127000D01*
X36490000Y-72285750D01*
X31127000Y-72285750D01*
X31127000Y-70998690D01*
X36490000Y-70998690D01*
X36490000Y-71714250D01*
X36648750Y-71873000D01*
X37873000Y-71873000D01*
X37873000Y-70648750D01*
X38127000Y-70648750D01*
X38127000Y-71873000D01*
X38147000Y-71873000D01*
X38147000Y-72127000D01*
X38127000Y-72127000D01*
X38127000Y-73351250D01*
X38285750Y-73510000D01*
X39001309Y-73510000D01*
X39234698Y-73413327D01*
X39413327Y-73234699D01*
X39467760Y-73103286D01*
X39643537Y-73279370D01*
X40198325Y-73509738D01*
X40799040Y-73510262D01*
X41354229Y-73280862D01*
X41750318Y-72885464D01*
X42143537Y-73279370D01*
X42698325Y-73509738D01*
X43299040Y-73510262D01*
X43854229Y-73280862D01*
X44250318Y-72885464D01*
X44643537Y-73279370D01*
X45198325Y-73509738D01*
X45799040Y-73510262D01*
X46354229Y-73280862D01*
X46750318Y-72885464D01*
X47143537Y-73279370D01*
X47698325Y-73509738D01*
X48299040Y-73510262D01*
X48854229Y-73280862D01*
X49250318Y-72885464D01*
X49643537Y-73279370D01*
X50198325Y-73509738D01*
X50799040Y-73510262D01*
X51354229Y-73280862D01*
X51750318Y-72885464D01*
X52143537Y-73279370D01*
X52698325Y-73509738D01*
X53299040Y-73510262D01*
X53854229Y-73280862D01*
X54250318Y-72885464D01*
X54643537Y-73279370D01*
X55198325Y-73509738D01*
X55799040Y-73510262D01*
X56354229Y-73280862D01*
X56779370Y-72856463D01*
X57009738Y-72301675D01*
X57009751Y-72285750D01*
X60490000Y-72285750D01*
X60490000Y-73001310D01*
X60586673Y-73234699D01*
X60765302Y-73413327D01*
X60998691Y-73510000D01*
X61714250Y-73510000D01*
X61873000Y-73351250D01*
X61873000Y-72127000D01*
X60648750Y-72127000D01*
X60490000Y-72285750D01*
X57009751Y-72285750D01*
X57010262Y-71700960D01*
X56780862Y-71145771D01*
X56634038Y-70998690D01*
X60490000Y-70998690D01*
X60490000Y-71714250D01*
X60648750Y-71873000D01*
X61873000Y-71873000D01*
X61873000Y-70648750D01*
X62127000Y-70648750D01*
X62127000Y-71873000D01*
X62147000Y-71873000D01*
X62147000Y-72127000D01*
X62127000Y-72127000D01*
X62127000Y-73351250D01*
X62285750Y-73510000D01*
X63001309Y-73510000D01*
X63234698Y-73413327D01*
X63413327Y-73234699D01*
X63467760Y-73103286D01*
X63643537Y-73279370D01*
X64198325Y-73509738D01*
X64799040Y-73510262D01*
X65354229Y-73280862D01*
X65750318Y-72885464D01*
X66143537Y-73279370D01*
X66698325Y-73509738D01*
X67299040Y-73510262D01*
X67854229Y-73280862D01*
X68250318Y-72885464D01*
X68643537Y-73279370D01*
X69198325Y-73509738D01*
X69799040Y-73510262D01*
X70354229Y-73280862D01*
X70750318Y-72885464D01*
X71143537Y-73279370D01*
X71698325Y-73509738D01*
X72299040Y-73510262D01*
X72854229Y-73280862D01*
X73250318Y-72885464D01*
X73643537Y-73279370D01*
X74198325Y-73509738D01*
X74799040Y-73510262D01*
X75354229Y-73280862D01*
X75750318Y-72885464D01*
X76143537Y-73279370D01*
X76698325Y-73509738D01*
X77299040Y-73510262D01*
X77854229Y-73280862D01*
X78250318Y-72885464D01*
X78643537Y-73279370D01*
X79198325Y-73509738D01*
X79799040Y-73510262D01*
X80354229Y-73280862D01*
X80779370Y-72856463D01*
X81009738Y-72301675D01*
X81010262Y-71700960D01*
X80780862Y-71145771D01*
X80356463Y-70720630D01*
X80260000Y-70680575D01*
X80260000Y-68500000D01*
X80202148Y-68209161D01*
X80037401Y-67962599D01*
X79860552Y-67785750D01*
X108765000Y-67785750D01*
X108765000Y-68476310D01*
X108861673Y-68709699D01*
X109040302Y-68888327D01*
X109273691Y-68985000D01*
X109714250Y-68985000D01*
X109873000Y-68826250D01*
X109873000Y-67627000D01*
X108923750Y-67627000D01*
X108765000Y-67785750D01*
X79860552Y-67785750D01*
X78598492Y-66523690D01*
X108765000Y-66523690D01*
X108765000Y-67214250D01*
X108923750Y-67373000D01*
X109873000Y-67373000D01*
X109873000Y-66173750D01*
X109714250Y-66015000D01*
X109273691Y-66015000D01*
X109040302Y-66111673D01*
X108861673Y-66290301D01*
X108765000Y-66523690D01*
X78598492Y-66523690D01*
X75260000Y-63185198D01*
X75260000Y-62062463D01*
X75292192Y-62030327D01*
X75434838Y-61686799D01*
X75435162Y-61314833D01*
X75293117Y-60971057D01*
X75078835Y-60756400D01*
X78708960Y-60756400D01*
X78708960Y-62483600D01*
X78753238Y-62718917D01*
X78892310Y-62935041D01*
X79104510Y-63080031D01*
X79356400Y-63131040D01*
X81083600Y-63131040D01*
X81318917Y-63086762D01*
X81535041Y-62947690D01*
X81680031Y-62735490D01*
X81692852Y-62672180D01*
X81910003Y-62889710D01*
X82460602Y-63118339D01*
X83056782Y-63118859D01*
X83607780Y-62891192D01*
X84029710Y-62469997D01*
X84030095Y-62469069D01*
X84450003Y-62889710D01*
X85000602Y-63118339D01*
X85596782Y-63118859D01*
X86147780Y-62891192D01*
X86365546Y-62673805D01*
X86965800Y-62673805D01*
X87047741Y-62926516D01*
X87608030Y-63130248D01*
X88203635Y-63104058D01*
X88632259Y-62926516D01*
X88714200Y-62673805D01*
X87840000Y-61799605D01*
X86965800Y-62673805D01*
X86365546Y-62673805D01*
X86569710Y-62469997D01*
X86586541Y-62429463D01*
X86786195Y-62494200D01*
X87660395Y-61620000D01*
X88019605Y-61620000D01*
X88893805Y-62494200D01*
X89093033Y-62429601D01*
X89108808Y-62467780D01*
X89530003Y-62889710D01*
X90080602Y-63118339D01*
X90676782Y-63118859D01*
X91227780Y-62891192D01*
X91649710Y-62469997D01*
X91650095Y-62469069D01*
X92070003Y-62889710D01*
X92620602Y-63118339D01*
X93216782Y-63118859D01*
X93767780Y-62891192D01*
X94189710Y-62469997D01*
X94190095Y-62469069D01*
X94610003Y-62889710D01*
X95160602Y-63118339D01*
X95756782Y-63118859D01*
X96307780Y-62891192D01*
X96729710Y-62469997D01*
X96730095Y-62469069D01*
X97150003Y-62889710D01*
X97700602Y-63118339D01*
X98296782Y-63118859D01*
X98847780Y-62891192D01*
X99269710Y-62469997D01*
X99270095Y-62469069D01*
X99690003Y-62889710D01*
X100240602Y-63118339D01*
X100836782Y-63118859D01*
X101387780Y-62891192D01*
X101809710Y-62469997D01*
X101810095Y-62469069D01*
X102230003Y-62889710D01*
X102780602Y-63118339D01*
X103376782Y-63118859D01*
X103927780Y-62891192D01*
X104349710Y-62469997D01*
X104350095Y-62469069D01*
X104770003Y-62889710D01*
X105320602Y-63118339D01*
X105916782Y-63118859D01*
X106467780Y-62891192D01*
X106889710Y-62469997D01*
X106890095Y-62469069D01*
X107310003Y-62889710D01*
X107860602Y-63118339D01*
X108456782Y-63118859D01*
X109007780Y-62891192D01*
X109429710Y-62469997D01*
X109430095Y-62469069D01*
X109850003Y-62889710D01*
X110400602Y-63118339D01*
X110996782Y-63118859D01*
X111547780Y-62891192D01*
X111969710Y-62469997D01*
X111970095Y-62469069D01*
X112390003Y-62889710D01*
X112940602Y-63118339D01*
X113536782Y-63118859D01*
X114087780Y-62891192D01*
X114509710Y-62469997D01*
X114510095Y-62469069D01*
X114930003Y-62889710D01*
X115480602Y-63118339D01*
X116076782Y-63118859D01*
X116627780Y-62891192D01*
X117049710Y-62469997D01*
X117278339Y-61919398D01*
X117278859Y-61323218D01*
X117051192Y-60772220D01*
X116629997Y-60350290D01*
X116079398Y-60121661D01*
X115483218Y-60121141D01*
X114932220Y-60348808D01*
X114510290Y-60770003D01*
X114509905Y-60770931D01*
X114089997Y-60350290D01*
X113539398Y-60121661D01*
X112943218Y-60121141D01*
X112392220Y-60348808D01*
X111970290Y-60770003D01*
X111969905Y-60770931D01*
X111549997Y-60350290D01*
X110999398Y-60121661D01*
X110403218Y-60121141D01*
X109852220Y-60348808D01*
X109430290Y-60770003D01*
X109429905Y-60770931D01*
X109009997Y-60350290D01*
X108459398Y-60121661D01*
X107863218Y-60121141D01*
X107312220Y-60348808D01*
X106890290Y-60770003D01*
X106889905Y-60770931D01*
X106469997Y-60350290D01*
X105919398Y-60121661D01*
X105323218Y-60121141D01*
X104772220Y-60348808D01*
X104350290Y-60770003D01*
X104349905Y-60770931D01*
X103929997Y-60350290D01*
X103379398Y-60121661D01*
X102783218Y-60121141D01*
X102232220Y-60348808D01*
X101810290Y-60770003D01*
X101809905Y-60770931D01*
X101389997Y-60350290D01*
X100839398Y-60121661D01*
X100243218Y-60121141D01*
X99692220Y-60348808D01*
X99270290Y-60770003D01*
X99269905Y-60770931D01*
X98849997Y-60350290D01*
X98299398Y-60121661D01*
X97703218Y-60121141D01*
X97152220Y-60348808D01*
X96730290Y-60770003D01*
X96729905Y-60770931D01*
X96309997Y-60350290D01*
X95759398Y-60121661D01*
X95163218Y-60121141D01*
X94612220Y-60348808D01*
X94190290Y-60770003D01*
X94189905Y-60770931D01*
X93769997Y-60350290D01*
X93219398Y-60121661D01*
X92623218Y-60121141D01*
X92072220Y-60348808D01*
X91650290Y-60770003D01*
X91649905Y-60770931D01*
X91229997Y-60350290D01*
X90679398Y-60121661D01*
X90083218Y-60121141D01*
X89532220Y-60348808D01*
X89110290Y-60770003D01*
X89093459Y-60810537D01*
X88893805Y-60745800D01*
X88019605Y-61620000D01*
X87660395Y-61620000D01*
X86786195Y-60745800D01*
X86586967Y-60810399D01*
X86571192Y-60772220D01*
X86365526Y-60566195D01*
X86965800Y-60566195D01*
X87840000Y-61440395D01*
X88714200Y-60566195D01*
X88632259Y-60313484D01*
X88071970Y-60109752D01*
X87476365Y-60135942D01*
X87047741Y-60313484D01*
X86965800Y-60566195D01*
X86365526Y-60566195D01*
X86149997Y-60350290D01*
X85599398Y-60121661D01*
X85003218Y-60121141D01*
X84452220Y-60348808D01*
X84030290Y-60770003D01*
X84029905Y-60770931D01*
X83609997Y-60350290D01*
X83059398Y-60121661D01*
X82463218Y-60121141D01*
X81912220Y-60348808D01*
X81695124Y-60565525D01*
X81686762Y-60521083D01*
X81547690Y-60304959D01*
X81335490Y-60159969D01*
X81083600Y-60108960D01*
X79356400Y-60108960D01*
X79121083Y-60153238D01*
X78904959Y-60292310D01*
X78759969Y-60504510D01*
X78708960Y-60756400D01*
X75078835Y-60756400D01*
X75030327Y-60707808D01*
X74686799Y-60565162D01*
X74314833Y-60564838D01*
X74099894Y-60653649D01*
X73886796Y-60565162D01*
X73514830Y-60564838D01*
X73171054Y-60706883D01*
X72907805Y-60969673D01*
X72765159Y-61313201D01*
X72764835Y-61685167D01*
X72906880Y-62028943D01*
X72939997Y-62062118D01*
X72939997Y-63909907D01*
X72281498Y-64568406D01*
X72236011Y-64568366D01*
X71892235Y-64710411D01*
X71628986Y-64973201D01*
X71486340Y-65316729D01*
X71486016Y-65688695D01*
X71628061Y-66032471D01*
X71890851Y-66295720D01*
X72234379Y-66438366D01*
X72606345Y-66438690D01*
X72950121Y-66296645D01*
X73213370Y-66033855D01*
X73356016Y-65690327D01*
X73356057Y-65643451D01*
X74237398Y-64762110D01*
X74402145Y-64515548D01*
X74408549Y-64483351D01*
X78740000Y-68814802D01*
X78740000Y-70680203D01*
X78645771Y-70719138D01*
X78249682Y-71114536D01*
X77856463Y-70720630D01*
X77301675Y-70490262D01*
X76700960Y-70489738D01*
X76145771Y-70719138D01*
X75749682Y-71114536D01*
X75356463Y-70720630D01*
X74801675Y-70490262D01*
X74200960Y-70489738D01*
X73645771Y-70719138D01*
X73249682Y-71114536D01*
X72856463Y-70720630D01*
X72301675Y-70490262D01*
X71700960Y-70489738D01*
X71145771Y-70719138D01*
X70749682Y-71114536D01*
X70356463Y-70720630D01*
X69801675Y-70490262D01*
X69200960Y-70489738D01*
X68645771Y-70719138D01*
X68249682Y-71114536D01*
X67856463Y-70720630D01*
X67301675Y-70490262D01*
X66700960Y-70489738D01*
X66145771Y-70719138D01*
X65749682Y-71114536D01*
X65356463Y-70720630D01*
X64801675Y-70490262D01*
X64200960Y-70489738D01*
X63645771Y-70719138D01*
X63467797Y-70896802D01*
X63413327Y-70765301D01*
X63234698Y-70586673D01*
X63001309Y-70490000D01*
X62285750Y-70490000D01*
X62127000Y-70648750D01*
X61873000Y-70648750D01*
X61714250Y-70490000D01*
X60998691Y-70490000D01*
X60765302Y-70586673D01*
X60586673Y-70765301D01*
X60490000Y-70998690D01*
X56634038Y-70998690D01*
X56356463Y-70720630D01*
X55801675Y-70490262D01*
X55200960Y-70489738D01*
X54645771Y-70719138D01*
X54249682Y-71114536D01*
X53856463Y-70720630D01*
X53301675Y-70490262D01*
X52700960Y-70489738D01*
X52145771Y-70719138D01*
X51749682Y-71114536D01*
X51356463Y-70720630D01*
X50801675Y-70490262D01*
X50200960Y-70489738D01*
X49645771Y-70719138D01*
X49249682Y-71114536D01*
X48856463Y-70720630D01*
X48301675Y-70490262D01*
X47700960Y-70489738D01*
X47145771Y-70719138D01*
X46749682Y-71114536D01*
X46356463Y-70720630D01*
X45801675Y-70490262D01*
X45200960Y-70489738D01*
X44645771Y-70719138D01*
X44249682Y-71114536D01*
X43856463Y-70720630D01*
X43301675Y-70490262D01*
X42700960Y-70489738D01*
X42145771Y-70719138D01*
X41749682Y-71114536D01*
X41356463Y-70720630D01*
X40801675Y-70490262D01*
X40200960Y-70489738D01*
X39645771Y-70719138D01*
X39467797Y-70896802D01*
X39413327Y-70765301D01*
X39234698Y-70586673D01*
X39001309Y-70490000D01*
X38285750Y-70490000D01*
X38127000Y-70648750D01*
X37873000Y-70648750D01*
X37714250Y-70490000D01*
X36998691Y-70490000D01*
X36765302Y-70586673D01*
X36586673Y-70765301D01*
X36490000Y-70998690D01*
X31127000Y-70998690D01*
X31127000Y-50500000D01*
X31590000Y-50500000D01*
X31590000Y-54250000D01*
X31716360Y-54885255D01*
X32076203Y-55423797D01*
X34340000Y-57687594D01*
X34340000Y-60000000D01*
X34466360Y-60635254D01*
X34826203Y-61173797D01*
X35364746Y-61533640D01*
X36000000Y-61660000D01*
X36635254Y-61533640D01*
X37173797Y-61173797D01*
X37357399Y-60899016D01*
X40280590Y-60899016D01*
X40336271Y-61129611D01*
X40819078Y-61297622D01*
X41329428Y-61268083D01*
X41663729Y-61129611D01*
X41719410Y-60899016D01*
X41000000Y-60179605D01*
X40280590Y-60899016D01*
X37357399Y-60899016D01*
X37533640Y-60635254D01*
X37660000Y-60000000D01*
X37660000Y-59819078D01*
X39702378Y-59819078D01*
X39731917Y-60329428D01*
X39870389Y-60663729D01*
X40100984Y-60719410D01*
X40820395Y-60000000D01*
X41179605Y-60000000D01*
X41899016Y-60719410D01*
X42129611Y-60663729D01*
X42297622Y-60180922D01*
X42268083Y-59670572D01*
X42129611Y-59336271D01*
X41899016Y-59280590D01*
X41179605Y-60000000D01*
X40820395Y-60000000D01*
X40100984Y-59280590D01*
X39870389Y-59336271D01*
X39702378Y-59819078D01*
X37660000Y-59819078D01*
X37660000Y-59100984D01*
X40280590Y-59100984D01*
X41000000Y-59820395D01*
X41719410Y-59100984D01*
X41663729Y-58870389D01*
X41180922Y-58702378D01*
X40670572Y-58731917D01*
X40336271Y-58870389D01*
X40280590Y-59100984D01*
X37660000Y-59100984D01*
X37660000Y-57000000D01*
X37533640Y-56364746D01*
X37173797Y-55826203D01*
X34910000Y-53562406D01*
X34910000Y-50500000D01*
X34783640Y-49864746D01*
X34423797Y-49326203D01*
X33885254Y-48966360D01*
X33250000Y-48840000D01*
X32614746Y-48966360D01*
X32076203Y-49326203D01*
X31716360Y-49864746D01*
X31590000Y-50500000D01*
X31127000Y-50500000D01*
X31127000Y-34480213D01*
X32449392Y-34480213D01*
X32518857Y-34722397D01*
X33042302Y-34909144D01*
X33597368Y-34881362D01*
X33981143Y-34722397D01*
X34050608Y-34480213D01*
X71949392Y-34480213D01*
X72018857Y-34722397D01*
X72542302Y-34909144D01*
X73097368Y-34881362D01*
X73481143Y-34722397D01*
X73550608Y-34480213D01*
X72750000Y-33679605D01*
X71949392Y-34480213D01*
X34050608Y-34480213D01*
X33250000Y-33679605D01*
X32449392Y-34480213D01*
X31127000Y-34480213D01*
X31127000Y-33292302D01*
X31840856Y-33292302D01*
X31868638Y-33847368D01*
X32027603Y-34231143D01*
X32269787Y-34300608D01*
X33070395Y-33500000D01*
X33429605Y-33500000D01*
X34230213Y-34300608D01*
X34472397Y-34231143D01*
X34659144Y-33707698D01*
X34638353Y-33292302D01*
X71340856Y-33292302D01*
X71368638Y-33847368D01*
X71527603Y-34231143D01*
X71769787Y-34300608D01*
X72570395Y-33500000D01*
X72929605Y-33500000D01*
X73730213Y-34300608D01*
X73972397Y-34231143D01*
X74159144Y-33707698D01*
X74131362Y-33152632D01*
X73972397Y-32768857D01*
X73730213Y-32699392D01*
X72929605Y-33500000D01*
X72570395Y-33500000D01*
X71769787Y-32699392D01*
X71527603Y-32768857D01*
X71340856Y-33292302D01*
X34638353Y-33292302D01*
X34631362Y-33152632D01*
X34472397Y-32768857D01*
X34230213Y-32699392D01*
X33429605Y-33500000D01*
X33070395Y-33500000D01*
X32269787Y-32699392D01*
X32027603Y-32768857D01*
X31840856Y-33292302D01*
X31127000Y-33292302D01*
X31127000Y-32519787D01*
X32449392Y-32519787D01*
X33250000Y-33320395D01*
X34050608Y-32519787D01*
X71949392Y-32519787D01*
X72750000Y-33320395D01*
X73550608Y-32519787D01*
X73481143Y-32277603D01*
X72957698Y-32090856D01*
X72402632Y-32118638D01*
X72018857Y-32277603D01*
X71949392Y-32519787D01*
X34050608Y-32519787D01*
X33981143Y-32277603D01*
X33457698Y-32090856D01*
X32902632Y-32118638D01*
X32518857Y-32277603D01*
X32449392Y-32519787D01*
X31127000Y-32519787D01*
X31127000Y-32052606D01*
X32052606Y-31127000D01*
X106570666Y-31127000D01*
X106453109Y-31299050D01*
X106453109Y-31299050D01*
G37*
X106453109Y-31299050D02*
X106402100Y-31550940D01*
X106402100Y-35051060D01*
X106446378Y-35286377D01*
X106585450Y-35502501D01*
X106731803Y-35602500D01*
X105749954Y-35602500D01*
X104973657Y-34826203D01*
X104435115Y-34466360D01*
X103799860Y-34340000D01*
X87540000Y-34340000D01*
X86904746Y-34466360D01*
X86366203Y-34826203D01*
X86270000Y-34970181D01*
X86173797Y-34826203D01*
X85635254Y-34466360D01*
X85000000Y-34340000D01*
X84364746Y-34466360D01*
X83826203Y-34826203D01*
X83564076Y-35218503D01*
X83216353Y-34870173D01*
X82726413Y-34666732D01*
X82195914Y-34666269D01*
X81705620Y-34868854D01*
X81330173Y-35243647D01*
X81126732Y-35733587D01*
X81126269Y-36264086D01*
X81328854Y-36754380D01*
X81703647Y-37129827D01*
X82193587Y-37333268D01*
X82724086Y-37333731D01*
X82885278Y-37267128D01*
X82812406Y-37340000D01*
X76500000Y-37340000D01*
X75864745Y-37466360D01*
X75326203Y-37826203D01*
X71576203Y-41576203D01*
X71216360Y-42114745D01*
X71216360Y-42114746D01*
X71090000Y-42750000D01*
X71090000Y-50500000D01*
X71216360Y-51135254D01*
X71576203Y-51673797D01*
X72114746Y-52033640D01*
X72750000Y-52160000D01*
X73385254Y-52033640D01*
X73923797Y-51673797D01*
X74283640Y-51135254D01*
X74410000Y-50500000D01*
X74410000Y-46676782D01*
X78721141Y-46676782D01*
X78948808Y-47227780D01*
X79370003Y-47649710D01*
X79920602Y-47878339D01*
X80516782Y-47878859D01*
X81067780Y-47651192D01*
X81285546Y-47433805D01*
X81885800Y-47433805D01*
X81967741Y-47686516D01*
X82528030Y-47890248D01*
X83123635Y-47864058D01*
X83552259Y-47686516D01*
X83634200Y-47433805D01*
X82760000Y-46559605D01*
X81885800Y-47433805D01*
X81285546Y-47433805D01*
X81489710Y-47229997D01*
X81506541Y-47189463D01*
X81706195Y-47254200D01*
X82580395Y-46380000D01*
X82939605Y-46380000D01*
X83813805Y-47254200D01*
X84013033Y-47189601D01*
X84028808Y-47227780D01*
X84450003Y-47649710D01*
X85000602Y-47878339D01*
X85596782Y-47878859D01*
X86147780Y-47651192D01*
X86569710Y-47229997D01*
X86570095Y-47229069D01*
X86990003Y-47649710D01*
X87540602Y-47878339D01*
X88136782Y-47878859D01*
X88687780Y-47651192D01*
X89109710Y-47229997D01*
X89110095Y-47229069D01*
X89530003Y-47649710D01*
X90080602Y-47878339D01*
X90676782Y-47878859D01*
X91227780Y-47651192D01*
X91649710Y-47229997D01*
X91650095Y-47229069D01*
X92070003Y-47649710D01*
X92620602Y-47878339D01*
X93216782Y-47878859D01*
X93767780Y-47651192D01*
X94189710Y-47229997D01*
X94190095Y-47229069D01*
X94610003Y-47649710D01*
X95160602Y-47878339D01*
X95756782Y-47878859D01*
X96307780Y-47651192D01*
X96729710Y-47229997D01*
X96730095Y-47229069D01*
X97150003Y-47649710D01*
X97700602Y-47878339D01*
X98296782Y-47878859D01*
X98847780Y-47651192D01*
X99269710Y-47229997D01*
X99270095Y-47229069D01*
X99690003Y-47649710D01*
X100240602Y-47878339D01*
X100836782Y-47878859D01*
X101387780Y-47651192D01*
X101809710Y-47229997D01*
X101810095Y-47229069D01*
X102230003Y-47649710D01*
X102780602Y-47878339D01*
X103376782Y-47878859D01*
X103927780Y-47651192D01*
X104349710Y-47229997D01*
X104350095Y-47229069D01*
X104770003Y-47649710D01*
X105320602Y-47878339D01*
X105916782Y-47878859D01*
X106467780Y-47651192D01*
X106889710Y-47229997D01*
X106890095Y-47229069D01*
X107310003Y-47649710D01*
X107860602Y-47878339D01*
X108456782Y-47878859D01*
X109007780Y-47651192D01*
X109429710Y-47229997D01*
X109430095Y-47229069D01*
X109850003Y-47649710D01*
X110400602Y-47878339D01*
X110996782Y-47878859D01*
X111547780Y-47651192D01*
X111969710Y-47229997D01*
X111970095Y-47229069D01*
X112390003Y-47649710D01*
X112940602Y-47878339D01*
X113536782Y-47878859D01*
X114087780Y-47651192D01*
X114509710Y-47229997D01*
X114510095Y-47229069D01*
X114930003Y-47649710D01*
X115480602Y-47878339D01*
X116076782Y-47878859D01*
X116627780Y-47651192D01*
X117049710Y-47229997D01*
X117278339Y-46679398D01*
X117278859Y-46083218D01*
X117051192Y-45532220D01*
X116629997Y-45110290D01*
X116079398Y-44881661D01*
X115483218Y-44881141D01*
X114932220Y-45108808D01*
X114510290Y-45530003D01*
X114509905Y-45530931D01*
X114089997Y-45110290D01*
X113539398Y-44881661D01*
X112943218Y-44881141D01*
X112392220Y-45108808D01*
X111970290Y-45530003D01*
X111969905Y-45530931D01*
X111549997Y-45110290D01*
X110999398Y-44881661D01*
X110403218Y-44881141D01*
X109852220Y-45108808D01*
X109430290Y-45530003D01*
X109429905Y-45530931D01*
X109009997Y-45110290D01*
X108459398Y-44881661D01*
X107863218Y-44881141D01*
X107312220Y-45108808D01*
X106890290Y-45530003D01*
X106889905Y-45530931D01*
X106469997Y-45110290D01*
X105919398Y-44881661D01*
X105323218Y-44881141D01*
X104772220Y-45108808D01*
X104350290Y-45530003D01*
X104349905Y-45530931D01*
X103929997Y-45110290D01*
X103379398Y-44881661D01*
X102783218Y-44881141D01*
X102232220Y-45108808D01*
X101810290Y-45530003D01*
X101809905Y-45530931D01*
X101389997Y-45110290D01*
X100839398Y-44881661D01*
X100243218Y-44881141D01*
X99692220Y-45108808D01*
X99270290Y-45530003D01*
X99269905Y-45530931D01*
X98849997Y-45110290D01*
X98299398Y-44881661D01*
X97703218Y-44881141D01*
X97152220Y-45108808D01*
X96730290Y-45530003D01*
X96729905Y-45530931D01*
X96309997Y-45110290D01*
X95759398Y-44881661D01*
X95163218Y-44881141D01*
X94612220Y-45108808D01*
X94190290Y-45530003D01*
X94189905Y-45530931D01*
X93769997Y-45110290D01*
X93219398Y-44881661D01*
X92623218Y-44881141D01*
X92072220Y-45108808D01*
X91650290Y-45530003D01*
X91649905Y-45530931D01*
X91229997Y-45110290D01*
X90679398Y-44881661D01*
X90083218Y-44881141D01*
X89532220Y-45108808D01*
X89110290Y-45530003D01*
X89109905Y-45530931D01*
X88689997Y-45110290D01*
X88139398Y-44881661D01*
X87543218Y-44881141D01*
X86992220Y-45108808D01*
X86570290Y-45530003D01*
X86569905Y-45530931D01*
X86149997Y-45110290D01*
X85599398Y-44881661D01*
X85003218Y-44881141D01*
X84452220Y-45108808D01*
X84030290Y-45530003D01*
X84013459Y-45570537D01*
X83813805Y-45505800D01*
X82939605Y-46380000D01*
X82580395Y-46380000D01*
X81706195Y-45505800D01*
X81506967Y-45570399D01*
X81491192Y-45532220D01*
X81285526Y-45326195D01*
X81885800Y-45326195D01*
X82760000Y-46200395D01*
X83634200Y-45326195D01*
X83552259Y-45073484D01*
X82991970Y-44869752D01*
X82396365Y-44895942D01*
X81967741Y-45073484D01*
X81885800Y-45326195D01*
X81285526Y-45326195D01*
X81069997Y-45110290D01*
X80519398Y-44881661D01*
X79923218Y-44881141D01*
X79372220Y-45108808D01*
X78950290Y-45530003D01*
X78721661Y-46080602D01*
X78721141Y-46676782D01*
X74410000Y-46676782D01*
X74410000Y-43437594D01*
X77187594Y-40660000D01*
X83500000Y-40660000D01*
X84135255Y-40533640D01*
X84673797Y-40173797D01*
X86173797Y-38673797D01*
X86533639Y-38135255D01*
X86533640Y-38135254D01*
X86660000Y-37500000D01*
X86660000Y-37370106D01*
X86904746Y-37533640D01*
X87540000Y-37660000D01*
X103112266Y-37660000D01*
X103402360Y-37950094D01*
X103402360Y-39750060D01*
X103446638Y-39985377D01*
X103585710Y-40201501D01*
X103797910Y-40346491D01*
X104049800Y-40397500D01*
X107549920Y-40397500D01*
X107785237Y-40353222D01*
X108001361Y-40214150D01*
X108146351Y-40001950D01*
X108197360Y-39750060D01*
X108197360Y-38285750D01*
X109414280Y-38285750D01*
X109414280Y-39876370D01*
X109510953Y-40109759D01*
X109689582Y-40288387D01*
X109922971Y-40385060D01*
X111513590Y-40385060D01*
X111672340Y-40226310D01*
X111672340Y-38127000D01*
X111926340Y-38127000D01*
X111926340Y-40226310D01*
X112085090Y-40385060D01*
X113675709Y-40385060D01*
X113909098Y-40288387D01*
X114087727Y-40109759D01*
X114184400Y-39876370D01*
X114184400Y-38285750D01*
X114025650Y-38127000D01*
X111926340Y-38127000D01*
X111672340Y-38127000D01*
X109573030Y-38127000D01*
X109414280Y-38285750D01*
X108197360Y-38285750D01*
X108197360Y-36249940D01*
X108153082Y-36014623D01*
X108014010Y-35798499D01*
X107867657Y-35698500D01*
X109721240Y-35698500D01*
X109689582Y-35711613D01*
X109510953Y-35890241D01*
X109414280Y-36123630D01*
X109414280Y-37714250D01*
X109573030Y-37873000D01*
X111672340Y-37873000D01*
X111672340Y-35773690D01*
X111926340Y-35773690D01*
X111926340Y-37873000D01*
X114025650Y-37873000D01*
X114184400Y-37714250D01*
X114184400Y-36123630D01*
X114087727Y-35890241D01*
X113909098Y-35711613D01*
X113675709Y-35614940D01*
X112085090Y-35614940D01*
X111926340Y-35773690D01*
X111672340Y-35773690D01*
X111513590Y-35614940D01*
X110846023Y-35614940D01*
X111001101Y-35515150D01*
X111146091Y-35302950D01*
X111197100Y-35051060D01*
X111197100Y-31550940D01*
X111152822Y-31315623D01*
X111031446Y-31127000D01*
X119947394Y-31127000D01*
X120873000Y-32052606D01*
X120873000Y-52798198D01*
X119935122Y-51860320D01*
X119935162Y-51814833D01*
X119793117Y-51471057D01*
X119530327Y-51207808D01*
X119186799Y-51065162D01*
X118814833Y-51064838D01*
X118471057Y-51206883D01*
X118207808Y-51469673D01*
X118065162Y-51813201D01*
X118064838Y-52185167D01*
X118206883Y-52528943D01*
X118469673Y-52792192D01*
X118813201Y-52934838D01*
X118860077Y-52934879D01*
X119679251Y-53754053D01*
X119679251Y-55356992D01*
X119530327Y-55207808D01*
X119186799Y-55065162D01*
X118814833Y-55064838D01*
X118471057Y-55206883D01*
X118207808Y-55469673D01*
X118065162Y-55813201D01*
X118064838Y-56185167D01*
X118206883Y-56528943D01*
X118469673Y-56792192D01*
X118813201Y-56934838D01*
X118860077Y-56934879D01*
X119229240Y-57304042D01*
X119229240Y-70059547D01*
X118548788Y-70740000D01*
X115403692Y-70740000D01*
X114760000Y-70096308D01*
X114760000Y-68728059D01*
X114873277Y-68652370D01*
X115000000Y-68462715D01*
X115126723Y-68652370D01*
X115527386Y-68920084D01*
X116000000Y-69014093D01*
X116472614Y-68920084D01*
X116873277Y-68652370D01*
X117140991Y-68251707D01*
X117235000Y-67779093D01*
X117235000Y-67220907D01*
X117140991Y-66748293D01*
X116873277Y-66347630D01*
X116472614Y-66079916D01*
X116000000Y-65985907D01*
X115527386Y-66079916D01*
X115126723Y-66347630D01*
X115000000Y-66537285D01*
X114873277Y-66347630D01*
X114472614Y-66079916D01*
X114000000Y-65985907D01*
X113527386Y-66079916D01*
X113126723Y-66347630D01*
X113000000Y-66537285D01*
X112873277Y-66347630D01*
X112472614Y-66079916D01*
X112000000Y-65985907D01*
X111527386Y-66079916D01*
X111154410Y-66329130D01*
X111138327Y-66290301D01*
X110959698Y-66111673D01*
X110726309Y-66015000D01*
X110285750Y-66015000D01*
X110127000Y-66173750D01*
X110127000Y-67373000D01*
X110147000Y-67373000D01*
X110147000Y-67627000D01*
X110127000Y-67627000D01*
X110127000Y-68826250D01*
X110285750Y-68985000D01*
X110726309Y-68985000D01*
X110959698Y-68888327D01*
X111138327Y-68709699D01*
X111154410Y-68670870D01*
X111527386Y-68920084D01*
X112000000Y-69014093D01*
X112472614Y-68920084D01*
X112873277Y-68652370D01*
X113000000Y-68462715D01*
X113126723Y-68652370D01*
X113240000Y-68728059D01*
X113240000Y-70411110D01*
X113297852Y-70701949D01*
X113462599Y-70948511D01*
X114209972Y-71695884D01*
X113462599Y-72443257D01*
X113297852Y-72689819D01*
X113240000Y-72980658D01*
X113240000Y-73771941D01*
X113126723Y-73847630D01*
X113000000Y-74037285D01*
X112873277Y-73847630D01*
X112472614Y-73579916D01*
X112000000Y-73485907D01*
X111527386Y-73579916D01*
X111154410Y-73829130D01*
X111138327Y-73790301D01*
X110959698Y-73611673D01*
X110726309Y-73515000D01*
X110285750Y-73515000D01*
X110127000Y-73673750D01*
X110127000Y-74873000D01*
X110147000Y-74873000D01*
X110147000Y-75127000D01*
X110127000Y-75127000D01*
X110127000Y-76326250D01*
X110285750Y-76485000D01*
X110726309Y-76485000D01*
X110959698Y-76388327D01*
X111138327Y-76209699D01*
X111154410Y-76170870D01*
X111527386Y-76420084D01*
X112000000Y-76514093D01*
X112472614Y-76420084D01*
X112873277Y-76152370D01*
X113000000Y-75962715D01*
X113126723Y-76152370D01*
X113527386Y-76420084D01*
X114000000Y-76514093D01*
X114472614Y-76420084D01*
X114873277Y-76152370D01*
X115000000Y-75962715D01*
X115126723Y-76152370D01*
X115527386Y-76420084D01*
X116000000Y-76514093D01*
X116472614Y-76420084D01*
X116873277Y-76152370D01*
X117140991Y-75751707D01*
X117235000Y-75279093D01*
X117235000Y-74720907D01*
X117140991Y-74248293D01*
X116873277Y-73847630D01*
X116472614Y-73579916D01*
X116000000Y-73485907D01*
X115527386Y-73579916D01*
X115126723Y-73847630D01*
X115000000Y-74037285D01*
X114873277Y-73847630D01*
X114760000Y-73771941D01*
X114760000Y-73295460D01*
X115295460Y-72760000D01*
X119000000Y-72760000D01*
X119290839Y-72702148D01*
X119537401Y-72537401D01*
X120873000Y-71201803D01*
X120873000Y-79947394D01*
X119947394Y-80873000D01*
X32052606Y-80873000D01*
X31127000Y-79947394D01*
X31127000Y-75285750D01*
X84490000Y-75285750D01*
X84490000Y-76001310D01*
X84586673Y-76234699D01*
X84765302Y-76413327D01*
X84998691Y-76510000D01*
X85714250Y-76510000D01*
X85873000Y-76351250D01*
X85873000Y-75127000D01*
X84648750Y-75127000D01*
X84490000Y-75285750D01*
X31127000Y-75285750D01*
X31127000Y-73998690D01*
X84490000Y-73998690D01*
X84490000Y-74714250D01*
X84648750Y-74873000D01*
X85873000Y-74873000D01*
X85873000Y-73648750D01*
X86127000Y-73648750D01*
X86127000Y-74873000D01*
X86147000Y-74873000D01*
X86147000Y-75127000D01*
X86127000Y-75127000D01*
X86127000Y-76351250D01*
X86285750Y-76510000D01*
X87001309Y-76510000D01*
X87234698Y-76413327D01*
X87413327Y-76234699D01*
X87467760Y-76103286D01*
X87643537Y-76279370D01*
X88198325Y-76509738D01*
X88799040Y-76510262D01*
X89354229Y-76280862D01*
X89750318Y-75885464D01*
X90143537Y-76279370D01*
X90698325Y-76509738D01*
X91299040Y-76510262D01*
X91854229Y-76280862D01*
X92279370Y-75856463D01*
X92509738Y-75301675D01*
X92509751Y-75285750D01*
X95990000Y-75285750D01*
X95990000Y-76001310D01*
X96086673Y-76234699D01*
X96265302Y-76413327D01*
X96498691Y-76510000D01*
X97214250Y-76510000D01*
X97373000Y-76351250D01*
X97373000Y-75127000D01*
X96148750Y-75127000D01*
X95990000Y-75285750D01*
X92509751Y-75285750D01*
X92510262Y-74700960D01*
X92280862Y-74145771D01*
X92134038Y-73998690D01*
X95990000Y-73998690D01*
X95990000Y-74714250D01*
X96148750Y-74873000D01*
X97373000Y-74873000D01*
X97373000Y-73648750D01*
X97627000Y-73648750D01*
X97627000Y-74873000D01*
X97647000Y-74873000D01*
X97647000Y-75127000D01*
X97627000Y-75127000D01*
X97627000Y-76351250D01*
X97785750Y-76510000D01*
X98501309Y-76510000D01*
X98734698Y-76413327D01*
X98913327Y-76234699D01*
X98967760Y-76103286D01*
X99143537Y-76279370D01*
X99698325Y-76509738D01*
X100299040Y-76510262D01*
X100854229Y-76280862D01*
X101250318Y-75885464D01*
X101643537Y-76279370D01*
X102198325Y-76509738D01*
X102799040Y-76510262D01*
X103354229Y-76280862D01*
X103779370Y-75856463D01*
X104009738Y-75301675D01*
X104009751Y-75285750D01*
X108765000Y-75285750D01*
X108765000Y-75976310D01*
X108861673Y-76209699D01*
X109040302Y-76388327D01*
X109273691Y-76485000D01*
X109714250Y-76485000D01*
X109873000Y-76326250D01*
X109873000Y-75127000D01*
X108923750Y-75127000D01*
X108765000Y-75285750D01*
X104009751Y-75285750D01*
X104010262Y-74700960D01*
X103780862Y-74145771D01*
X103658995Y-74023690D01*
X108765000Y-74023690D01*
X108765000Y-74714250D01*
X108923750Y-74873000D01*
X109873000Y-74873000D01*
X109873000Y-73673750D01*
X109714250Y-73515000D01*
X109273691Y-73515000D01*
X109040302Y-73611673D01*
X108861673Y-73790301D01*
X108765000Y-74023690D01*
X103658995Y-74023690D01*
X103356463Y-73720630D01*
X102801675Y-73490262D01*
X102200960Y-73489738D01*
X101645771Y-73719138D01*
X101249682Y-74114536D01*
X100856463Y-73720630D01*
X100301675Y-73490262D01*
X99700960Y-73489738D01*
X99145771Y-73719138D01*
X98967797Y-73896802D01*
X98913327Y-73765301D01*
X98734698Y-73586673D01*
X98501309Y-73490000D01*
X97785750Y-73490000D01*
X97627000Y-73648750D01*
X97373000Y-73648750D01*
X97214250Y-73490000D01*
X96498691Y-73490000D01*
X96265302Y-73586673D01*
X96086673Y-73765301D01*
X95990000Y-73998690D01*
X92134038Y-73998690D01*
X91856463Y-73720630D01*
X91301675Y-73490262D01*
X90700960Y-73489738D01*
X90145771Y-73719138D01*
X89749682Y-74114536D01*
X89356463Y-73720630D01*
X88801675Y-73490262D01*
X88200960Y-73489738D01*
X87645771Y-73719138D01*
X87467797Y-73896802D01*
X87413327Y-73765301D01*
X87234698Y-73586673D01*
X87001309Y-73490000D01*
X86285750Y-73490000D01*
X86127000Y-73648750D01*
X85873000Y-73648750D01*
X85714250Y-73490000D01*
X84998691Y-73490000D01*
X84765302Y-73586673D01*
X84586673Y-73765301D01*
X84490000Y-73998690D01*
X31127000Y-73998690D01*
X31127000Y-72285750D01*
X36490000Y-72285750D01*
X36490000Y-73001310D01*
X36586673Y-73234699D01*
X36765302Y-73413327D01*
X36998691Y-73510000D01*
X37714250Y-73510000D01*
X37873000Y-73351250D01*
X37873000Y-72127000D01*
X36648750Y-72127000D01*
X36490000Y-72285750D01*
X31127000Y-72285750D01*
X31127000Y-70998690D01*
X36490000Y-70998690D01*
X36490000Y-71714250D01*
X36648750Y-71873000D01*
X37873000Y-71873000D01*
X37873000Y-70648750D01*
X38127000Y-70648750D01*
X38127000Y-71873000D01*
X38147000Y-71873000D01*
X38147000Y-72127000D01*
X38127000Y-72127000D01*
X38127000Y-73351250D01*
X38285750Y-73510000D01*
X39001309Y-73510000D01*
X39234698Y-73413327D01*
X39413327Y-73234699D01*
X39467760Y-73103286D01*
X39643537Y-73279370D01*
X40198325Y-73509738D01*
X40799040Y-73510262D01*
X41354229Y-73280862D01*
X41750318Y-72885464D01*
X42143537Y-73279370D01*
X42698325Y-73509738D01*
X43299040Y-73510262D01*
X43854229Y-73280862D01*
X44250318Y-72885464D01*
X44643537Y-73279370D01*
X45198325Y-73509738D01*
X45799040Y-73510262D01*
X46354229Y-73280862D01*
X46750318Y-72885464D01*
X47143537Y-73279370D01*
X47698325Y-73509738D01*
X48299040Y-73510262D01*
X48854229Y-73280862D01*
X49250318Y-72885464D01*
X49643537Y-73279370D01*
X50198325Y-73509738D01*
X50799040Y-73510262D01*
X51354229Y-73280862D01*
X51750318Y-72885464D01*
X52143537Y-73279370D01*
X52698325Y-73509738D01*
X53299040Y-73510262D01*
X53854229Y-73280862D01*
X54250318Y-72885464D01*
X54643537Y-73279370D01*
X55198325Y-73509738D01*
X55799040Y-73510262D01*
X56354229Y-73280862D01*
X56779370Y-72856463D01*
X57009738Y-72301675D01*
X57009751Y-72285750D01*
X60490000Y-72285750D01*
X60490000Y-73001310D01*
X60586673Y-73234699D01*
X60765302Y-73413327D01*
X60998691Y-73510000D01*
X61714250Y-73510000D01*
X61873000Y-73351250D01*
X61873000Y-72127000D01*
X60648750Y-72127000D01*
X60490000Y-72285750D01*
X57009751Y-72285750D01*
X57010262Y-71700960D01*
X56780862Y-71145771D01*
X56634038Y-70998690D01*
X60490000Y-70998690D01*
X60490000Y-71714250D01*
X60648750Y-71873000D01*
X61873000Y-71873000D01*
X61873000Y-70648750D01*
X62127000Y-70648750D01*
X62127000Y-71873000D01*
X62147000Y-71873000D01*
X62147000Y-72127000D01*
X62127000Y-72127000D01*
X62127000Y-73351250D01*
X62285750Y-73510000D01*
X63001309Y-73510000D01*
X63234698Y-73413327D01*
X63413327Y-73234699D01*
X63467760Y-73103286D01*
X63643537Y-73279370D01*
X64198325Y-73509738D01*
X64799040Y-73510262D01*
X65354229Y-73280862D01*
X65750318Y-72885464D01*
X66143537Y-73279370D01*
X66698325Y-73509738D01*
X67299040Y-73510262D01*
X67854229Y-73280862D01*
X68250318Y-72885464D01*
X68643537Y-73279370D01*
X69198325Y-73509738D01*
X69799040Y-73510262D01*
X70354229Y-73280862D01*
X70750318Y-72885464D01*
X71143537Y-73279370D01*
X71698325Y-73509738D01*
X72299040Y-73510262D01*
X72854229Y-73280862D01*
X73250318Y-72885464D01*
X73643537Y-73279370D01*
X74198325Y-73509738D01*
X74799040Y-73510262D01*
X75354229Y-73280862D01*
X75750318Y-72885464D01*
X76143537Y-73279370D01*
X76698325Y-73509738D01*
X77299040Y-73510262D01*
X77854229Y-73280862D01*
X78250318Y-72885464D01*
X78643537Y-73279370D01*
X79198325Y-73509738D01*
X79799040Y-73510262D01*
X80354229Y-73280862D01*
X80779370Y-72856463D01*
X81009738Y-72301675D01*
X81010262Y-71700960D01*
X80780862Y-71145771D01*
X80356463Y-70720630D01*
X80260000Y-70680575D01*
X80260000Y-68500000D01*
X80202148Y-68209161D01*
X80037401Y-67962599D01*
X79860552Y-67785750D01*
X108765000Y-67785750D01*
X108765000Y-68476310D01*
X108861673Y-68709699D01*
X109040302Y-68888327D01*
X109273691Y-68985000D01*
X109714250Y-68985000D01*
X109873000Y-68826250D01*
X109873000Y-67627000D01*
X108923750Y-67627000D01*
X108765000Y-67785750D01*
X79860552Y-67785750D01*
X78598492Y-66523690D01*
X108765000Y-66523690D01*
X108765000Y-67214250D01*
X108923750Y-67373000D01*
X109873000Y-67373000D01*
X109873000Y-66173750D01*
X109714250Y-66015000D01*
X109273691Y-66015000D01*
X109040302Y-66111673D01*
X108861673Y-66290301D01*
X108765000Y-66523690D01*
X78598492Y-66523690D01*
X75260000Y-63185198D01*
X75260000Y-62062463D01*
X75292192Y-62030327D01*
X75434838Y-61686799D01*
X75435162Y-61314833D01*
X75293117Y-60971057D01*
X75078835Y-60756400D01*
X78708960Y-60756400D01*
X78708960Y-62483600D01*
X78753238Y-62718917D01*
X78892310Y-62935041D01*
X79104510Y-63080031D01*
X79356400Y-63131040D01*
X81083600Y-63131040D01*
X81318917Y-63086762D01*
X81535041Y-62947690D01*
X81680031Y-62735490D01*
X81692852Y-62672180D01*
X81910003Y-62889710D01*
X82460602Y-63118339D01*
X83056782Y-63118859D01*
X83607780Y-62891192D01*
X84029710Y-62469997D01*
X84030095Y-62469069D01*
X84450003Y-62889710D01*
X85000602Y-63118339D01*
X85596782Y-63118859D01*
X86147780Y-62891192D01*
X86365546Y-62673805D01*
X86965800Y-62673805D01*
X87047741Y-62926516D01*
X87608030Y-63130248D01*
X88203635Y-63104058D01*
X88632259Y-62926516D01*
X88714200Y-62673805D01*
X87840000Y-61799605D01*
X86965800Y-62673805D01*
X86365546Y-62673805D01*
X86569710Y-62469997D01*
X86586541Y-62429463D01*
X86786195Y-62494200D01*
X87660395Y-61620000D01*
X88019605Y-61620000D01*
X88893805Y-62494200D01*
X89093033Y-62429601D01*
X89108808Y-62467780D01*
X89530003Y-62889710D01*
X90080602Y-63118339D01*
X90676782Y-63118859D01*
X91227780Y-62891192D01*
X91649710Y-62469997D01*
X91650095Y-62469069D01*
X92070003Y-62889710D01*
X92620602Y-63118339D01*
X93216782Y-63118859D01*
X93767780Y-62891192D01*
X94189710Y-62469997D01*
X94190095Y-62469069D01*
X94610003Y-62889710D01*
X95160602Y-63118339D01*
X95756782Y-63118859D01*
X96307780Y-62891192D01*
X96729710Y-62469997D01*
X96730095Y-62469069D01*
X97150003Y-62889710D01*
X97700602Y-63118339D01*
X98296782Y-63118859D01*
X98847780Y-62891192D01*
X99269710Y-62469997D01*
X99270095Y-62469069D01*
X99690003Y-62889710D01*
X100240602Y-63118339D01*
X100836782Y-63118859D01*
X101387780Y-62891192D01*
X101809710Y-62469997D01*
X101810095Y-62469069D01*
X102230003Y-62889710D01*
X102780602Y-63118339D01*
X103376782Y-63118859D01*
X103927780Y-62891192D01*
X104349710Y-62469997D01*
X104350095Y-62469069D01*
X104770003Y-62889710D01*
X105320602Y-63118339D01*
X105916782Y-63118859D01*
X106467780Y-62891192D01*
X106889710Y-62469997D01*
X106890095Y-62469069D01*
X107310003Y-62889710D01*
X107860602Y-63118339D01*
X108456782Y-63118859D01*
X109007780Y-62891192D01*
X109429710Y-62469997D01*
X109430095Y-62469069D01*
X109850003Y-62889710D01*
X110400602Y-63118339D01*
X110996782Y-63118859D01*
X111547780Y-62891192D01*
X111969710Y-62469997D01*
X111970095Y-62469069D01*
X112390003Y-62889710D01*
X112940602Y-63118339D01*
X113536782Y-63118859D01*
X114087780Y-62891192D01*
X114509710Y-62469997D01*
X114510095Y-62469069D01*
X114930003Y-62889710D01*
X115480602Y-63118339D01*
X116076782Y-63118859D01*
X116627780Y-62891192D01*
X117049710Y-62469997D01*
X117278339Y-61919398D01*
X117278859Y-61323218D01*
X117051192Y-60772220D01*
X116629997Y-60350290D01*
X116079398Y-60121661D01*
X115483218Y-60121141D01*
X114932220Y-60348808D01*
X114510290Y-60770003D01*
X114509905Y-60770931D01*
X114089997Y-60350290D01*
X113539398Y-60121661D01*
X112943218Y-60121141D01*
X112392220Y-60348808D01*
X111970290Y-60770003D01*
X111969905Y-60770931D01*
X111549997Y-60350290D01*
X110999398Y-60121661D01*
X110403218Y-60121141D01*
X109852220Y-60348808D01*
X109430290Y-60770003D01*
X109429905Y-60770931D01*
X109009997Y-60350290D01*
X108459398Y-60121661D01*
X107863218Y-60121141D01*
X107312220Y-60348808D01*
X106890290Y-60770003D01*
X106889905Y-60770931D01*
X106469997Y-60350290D01*
X105919398Y-60121661D01*
X105323218Y-60121141D01*
X104772220Y-60348808D01*
X104350290Y-60770003D01*
X104349905Y-60770931D01*
X103929997Y-60350290D01*
X103379398Y-60121661D01*
X102783218Y-60121141D01*
X102232220Y-60348808D01*
X101810290Y-60770003D01*
X101809905Y-60770931D01*
X101389997Y-60350290D01*
X100839398Y-60121661D01*
X100243218Y-60121141D01*
X99692220Y-60348808D01*
X99270290Y-60770003D01*
X99269905Y-60770931D01*
X98849997Y-60350290D01*
X98299398Y-60121661D01*
X97703218Y-60121141D01*
X97152220Y-60348808D01*
X96730290Y-60770003D01*
X96729905Y-60770931D01*
X96309997Y-60350290D01*
X95759398Y-60121661D01*
X95163218Y-60121141D01*
X94612220Y-60348808D01*
X94190290Y-60770003D01*
X94189905Y-60770931D01*
X93769997Y-60350290D01*
X93219398Y-60121661D01*
X92623218Y-60121141D01*
X92072220Y-60348808D01*
X91650290Y-60770003D01*
X91649905Y-60770931D01*
X91229997Y-60350290D01*
X90679398Y-60121661D01*
X90083218Y-60121141D01*
X89532220Y-60348808D01*
X89110290Y-60770003D01*
X89093459Y-60810537D01*
X88893805Y-60745800D01*
X88019605Y-61620000D01*
X87660395Y-61620000D01*
X86786195Y-60745800D01*
X86586967Y-60810399D01*
X86571192Y-60772220D01*
X86365526Y-60566195D01*
X86965800Y-60566195D01*
X87840000Y-61440395D01*
X88714200Y-60566195D01*
X88632259Y-60313484D01*
X88071970Y-60109752D01*
X87476365Y-60135942D01*
X87047741Y-60313484D01*
X86965800Y-60566195D01*
X86365526Y-60566195D01*
X86149997Y-60350290D01*
X85599398Y-60121661D01*
X85003218Y-60121141D01*
X84452220Y-60348808D01*
X84030290Y-60770003D01*
X84029905Y-60770931D01*
X83609997Y-60350290D01*
X83059398Y-60121661D01*
X82463218Y-60121141D01*
X81912220Y-60348808D01*
X81695124Y-60565525D01*
X81686762Y-60521083D01*
X81547690Y-60304959D01*
X81335490Y-60159969D01*
X81083600Y-60108960D01*
X79356400Y-60108960D01*
X79121083Y-60153238D01*
X78904959Y-60292310D01*
X78759969Y-60504510D01*
X78708960Y-60756400D01*
X75078835Y-60756400D01*
X75030327Y-60707808D01*
X74686799Y-60565162D01*
X74314833Y-60564838D01*
X74099894Y-60653649D01*
X73886796Y-60565162D01*
X73514830Y-60564838D01*
X73171054Y-60706883D01*
X72907805Y-60969673D01*
X72765159Y-61313201D01*
X72764835Y-61685167D01*
X72906880Y-62028943D01*
X72939997Y-62062118D01*
X72939997Y-63909907D01*
X72281498Y-64568406D01*
X72236011Y-64568366D01*
X71892235Y-64710411D01*
X71628986Y-64973201D01*
X71486340Y-65316729D01*
X71486016Y-65688695D01*
X71628061Y-66032471D01*
X71890851Y-66295720D01*
X72234379Y-66438366D01*
X72606345Y-66438690D01*
X72950121Y-66296645D01*
X73213370Y-66033855D01*
X73356016Y-65690327D01*
X73356057Y-65643451D01*
X74237398Y-64762110D01*
X74402145Y-64515548D01*
X74408549Y-64483351D01*
X78740000Y-68814802D01*
X78740000Y-70680203D01*
X78645771Y-70719138D01*
X78249682Y-71114536D01*
X77856463Y-70720630D01*
X77301675Y-70490262D01*
X76700960Y-70489738D01*
X76145771Y-70719138D01*
X75749682Y-71114536D01*
X75356463Y-70720630D01*
X74801675Y-70490262D01*
X74200960Y-70489738D01*
X73645771Y-70719138D01*
X73249682Y-71114536D01*
X72856463Y-70720630D01*
X72301675Y-70490262D01*
X71700960Y-70489738D01*
X71145771Y-70719138D01*
X70749682Y-71114536D01*
X70356463Y-70720630D01*
X69801675Y-70490262D01*
X69200960Y-70489738D01*
X68645771Y-70719138D01*
X68249682Y-71114536D01*
X67856463Y-70720630D01*
X67301675Y-70490262D01*
X66700960Y-70489738D01*
X66145771Y-70719138D01*
X65749682Y-71114536D01*
X65356463Y-70720630D01*
X64801675Y-70490262D01*
X64200960Y-70489738D01*
X63645771Y-70719138D01*
X63467797Y-70896802D01*
X63413327Y-70765301D01*
X63234698Y-70586673D01*
X63001309Y-70490000D01*
X62285750Y-70490000D01*
X62127000Y-70648750D01*
X61873000Y-70648750D01*
X61714250Y-70490000D01*
X60998691Y-70490000D01*
X60765302Y-70586673D01*
X60586673Y-70765301D01*
X60490000Y-70998690D01*
X56634038Y-70998690D01*
X56356463Y-70720630D01*
X55801675Y-70490262D01*
X55200960Y-70489738D01*
X54645771Y-70719138D01*
X54249682Y-71114536D01*
X53856463Y-70720630D01*
X53301675Y-70490262D01*
X52700960Y-70489738D01*
X52145771Y-70719138D01*
X51749682Y-71114536D01*
X51356463Y-70720630D01*
X50801675Y-70490262D01*
X50200960Y-70489738D01*
X49645771Y-70719138D01*
X49249682Y-71114536D01*
X48856463Y-70720630D01*
X48301675Y-70490262D01*
X47700960Y-70489738D01*
X47145771Y-70719138D01*
X46749682Y-71114536D01*
X46356463Y-70720630D01*
X45801675Y-70490262D01*
X45200960Y-70489738D01*
X44645771Y-70719138D01*
X44249682Y-71114536D01*
X43856463Y-70720630D01*
X43301675Y-70490262D01*
X42700960Y-70489738D01*
X42145771Y-70719138D01*
X41749682Y-71114536D01*
X41356463Y-70720630D01*
X40801675Y-70490262D01*
X40200960Y-70489738D01*
X39645771Y-70719138D01*
X39467797Y-70896802D01*
X39413327Y-70765301D01*
X39234698Y-70586673D01*
X39001309Y-70490000D01*
X38285750Y-70490000D01*
X38127000Y-70648750D01*
X37873000Y-70648750D01*
X37714250Y-70490000D01*
X36998691Y-70490000D01*
X36765302Y-70586673D01*
X36586673Y-70765301D01*
X36490000Y-70998690D01*
X31127000Y-70998690D01*
X31127000Y-50500000D01*
X31590000Y-50500000D01*
X31590000Y-54250000D01*
X31716360Y-54885255D01*
X32076203Y-55423797D01*
X34340000Y-57687594D01*
X34340000Y-60000000D01*
X34466360Y-60635254D01*
X34826203Y-61173797D01*
X35364746Y-61533640D01*
X36000000Y-61660000D01*
X36635254Y-61533640D01*
X37173797Y-61173797D01*
X37357399Y-60899016D01*
X40280590Y-60899016D01*
X40336271Y-61129611D01*
X40819078Y-61297622D01*
X41329428Y-61268083D01*
X41663729Y-61129611D01*
X41719410Y-60899016D01*
X41000000Y-60179605D01*
X40280590Y-60899016D01*
X37357399Y-60899016D01*
X37533640Y-60635254D01*
X37660000Y-60000000D01*
X37660000Y-59819078D01*
X39702378Y-59819078D01*
X39731917Y-60329428D01*
X39870389Y-60663729D01*
X40100984Y-60719410D01*
X40820395Y-60000000D01*
X41179605Y-60000000D01*
X41899016Y-60719410D01*
X42129611Y-60663729D01*
X42297622Y-60180922D01*
X42268083Y-59670572D01*
X42129611Y-59336271D01*
X41899016Y-59280590D01*
X41179605Y-60000000D01*
X40820395Y-60000000D01*
X40100984Y-59280590D01*
X39870389Y-59336271D01*
X39702378Y-59819078D01*
X37660000Y-59819078D01*
X37660000Y-59100984D01*
X40280590Y-59100984D01*
X41000000Y-59820395D01*
X41719410Y-59100984D01*
X41663729Y-58870389D01*
X41180922Y-58702378D01*
X40670572Y-58731917D01*
X40336271Y-58870389D01*
X40280590Y-59100984D01*
X37660000Y-59100984D01*
X37660000Y-57000000D01*
X37533640Y-56364746D01*
X37173797Y-55826203D01*
X34910000Y-53562406D01*
X34910000Y-50500000D01*
X34783640Y-49864746D01*
X34423797Y-49326203D01*
X33885254Y-48966360D01*
X33250000Y-48840000D01*
X32614746Y-48966360D01*
X32076203Y-49326203D01*
X31716360Y-49864746D01*
X31590000Y-50500000D01*
X31127000Y-50500000D01*
X31127000Y-34480213D01*
X32449392Y-34480213D01*
X32518857Y-34722397D01*
X33042302Y-34909144D01*
X33597368Y-34881362D01*
X33981143Y-34722397D01*
X34050608Y-34480213D01*
X71949392Y-34480213D01*
X72018857Y-34722397D01*
X72542302Y-34909144D01*
X73097368Y-34881362D01*
X73481143Y-34722397D01*
X73550608Y-34480213D01*
X72750000Y-33679605D01*
X71949392Y-34480213D01*
X34050608Y-34480213D01*
X33250000Y-33679605D01*
X32449392Y-34480213D01*
X31127000Y-34480213D01*
X31127000Y-33292302D01*
X31840856Y-33292302D01*
X31868638Y-33847368D01*
X32027603Y-34231143D01*
X32269787Y-34300608D01*
X33070395Y-33500000D01*
X33429605Y-33500000D01*
X34230213Y-34300608D01*
X34472397Y-34231143D01*
X34659144Y-33707698D01*
X34638353Y-33292302D01*
X71340856Y-33292302D01*
X71368638Y-33847368D01*
X71527603Y-34231143D01*
X71769787Y-34300608D01*
X72570395Y-33500000D01*
X72929605Y-33500000D01*
X73730213Y-34300608D01*
X73972397Y-34231143D01*
X74159144Y-33707698D01*
X74131362Y-33152632D01*
X73972397Y-32768857D01*
X73730213Y-32699392D01*
X72929605Y-33500000D01*
X72570395Y-33500000D01*
X71769787Y-32699392D01*
X71527603Y-32768857D01*
X71340856Y-33292302D01*
X34638353Y-33292302D01*
X34631362Y-33152632D01*
X34472397Y-32768857D01*
X34230213Y-32699392D01*
X33429605Y-33500000D01*
X33070395Y-33500000D01*
X32269787Y-32699392D01*
X32027603Y-32768857D01*
X31840856Y-33292302D01*
X31127000Y-33292302D01*
X31127000Y-32519787D01*
X32449392Y-32519787D01*
X33250000Y-33320395D01*
X34050608Y-32519787D01*
X71949392Y-32519787D01*
X72750000Y-33320395D01*
X73550608Y-32519787D01*
X73481143Y-32277603D01*
X72957698Y-32090856D01*
X72402632Y-32118638D01*
X72018857Y-32277603D01*
X71949392Y-32519787D01*
X34050608Y-32519787D01*
X33981143Y-32277603D01*
X33457698Y-32090856D01*
X32902632Y-32118638D01*
X32518857Y-32277603D01*
X32449392Y-32519787D01*
X31127000Y-32519787D01*
X31127000Y-32052606D01*
X32052606Y-31127000D01*
X106570666Y-31127000D01*
X106453109Y-31299050D01*
M02*
