G04 MADE WITH FRITZING*
G04 WWW.FRITZING.ORG*
G04 DOUBLE SIDED*
G04 HOLES PLATED*
G04 CONTOUR ON CENTER OF CONTOUR VECTOR*
%ASAXBY*%
%FSLAX23Y23*%
%MOIN*%
%OFA0B0*%
%SFA1.0B1.0*%
%ADD10R,1.968500X0.393701X1.952500X0.377701*%
%ADD11C,0.008000*%
%ADD12R,0.001000X0.001000*%
%LNSILK0*%
G90*
G70*
G54D11*
X4Y390D02*
X1965Y390D01*
X1965Y4D01*
X4Y4D01*
X4Y390D01*
D02*
G54D12*
X1618Y349D02*
X1622Y349D01*
X1351Y348D02*
X1352Y348D01*
X1371Y348D02*
X1379Y348D01*
X1394Y348D02*
X1404Y348D01*
X1421Y348D02*
X1433Y348D01*
X1618Y348D02*
X1622Y348D01*
X1672Y348D02*
X1677Y348D01*
X1349Y347D02*
X1353Y347D01*
X1371Y347D02*
X1380Y347D01*
X1391Y347D02*
X1406Y347D01*
X1418Y347D02*
X1434Y347D01*
X1618Y347D02*
X1622Y347D01*
X1671Y347D02*
X1680Y347D01*
X1349Y346D02*
X1354Y346D01*
X1371Y346D02*
X1381Y346D01*
X1391Y346D02*
X1407Y346D01*
X1417Y346D02*
X1435Y346D01*
X1618Y346D02*
X1622Y346D01*
X1671Y346D02*
X1681Y346D01*
X1350Y345D02*
X1354Y345D01*
X1371Y345D02*
X1380Y345D01*
X1390Y345D02*
X1407Y345D01*
X1417Y345D02*
X1434Y345D01*
X1480Y345D02*
X1489Y345D01*
X1618Y345D02*
X1622Y345D01*
X1671Y345D02*
X1682Y345D01*
X1351Y344D02*
X1354Y344D01*
X1371Y344D02*
X1373Y344D01*
X1390Y344D02*
X1393Y344D01*
X1405Y344D02*
X1408Y344D01*
X1417Y344D02*
X1420Y344D01*
X1478Y344D02*
X1483Y344D01*
X1487Y344D02*
X1491Y344D01*
X1678Y344D02*
X1682Y344D01*
X1351Y343D02*
X1354Y343D01*
X1371Y343D02*
X1373Y343D01*
X1390Y343D02*
X1393Y343D01*
X1405Y343D02*
X1408Y343D01*
X1417Y343D02*
X1420Y343D01*
X1477Y343D02*
X1479Y343D01*
X1490Y343D02*
X1493Y343D01*
X1679Y343D02*
X1683Y343D01*
X1351Y342D02*
X1354Y342D01*
X1371Y342D02*
X1373Y342D01*
X1390Y342D02*
X1393Y342D01*
X1405Y342D02*
X1408Y342D01*
X1417Y342D02*
X1420Y342D01*
X1476Y342D02*
X1478Y342D01*
X1492Y342D02*
X1494Y342D01*
X1680Y342D02*
X1683Y342D01*
X1351Y341D02*
X1354Y341D01*
X1371Y341D02*
X1373Y341D01*
X1390Y341D02*
X1393Y341D01*
X1405Y341D02*
X1408Y341D01*
X1417Y341D02*
X1420Y341D01*
X1475Y341D02*
X1476Y341D01*
X1493Y341D02*
X1495Y341D01*
X1680Y341D02*
X1683Y341D01*
X1351Y340D02*
X1354Y340D01*
X1371Y340D02*
X1373Y340D01*
X1390Y340D02*
X1393Y340D01*
X1405Y340D02*
X1408Y340D01*
X1417Y340D02*
X1420Y340D01*
X1474Y340D02*
X1475Y340D01*
X1481Y340D02*
X1488Y340D01*
X1494Y340D02*
X1496Y340D01*
X1540Y340D02*
X1543Y340D01*
X1551Y340D02*
X1551Y340D01*
X1567Y340D02*
X1575Y340D01*
X1594Y340D02*
X1598Y340D01*
X1605Y340D02*
X1605Y340D01*
X1619Y340D02*
X1627Y340D01*
X1648Y340D02*
X1655Y340D01*
X1676Y340D02*
X1685Y340D01*
X1351Y339D02*
X1354Y339D01*
X1371Y339D02*
X1373Y339D01*
X1390Y339D02*
X1393Y339D01*
X1405Y339D02*
X1408Y339D01*
X1417Y339D02*
X1420Y339D01*
X1474Y339D02*
X1475Y339D01*
X1480Y339D02*
X1489Y339D01*
X1495Y339D02*
X1496Y339D01*
X1538Y339D02*
X1546Y339D01*
X1550Y339D02*
X1552Y339D01*
X1565Y339D02*
X1576Y339D01*
X1591Y339D02*
X1599Y339D01*
X1604Y339D02*
X1606Y339D01*
X1618Y339D02*
X1628Y339D01*
X1645Y339D02*
X1657Y339D01*
X1675Y339D02*
X1686Y339D01*
X1351Y338D02*
X1354Y338D01*
X1371Y338D02*
X1373Y338D01*
X1390Y338D02*
X1393Y338D01*
X1405Y338D02*
X1408Y338D01*
X1417Y338D02*
X1420Y338D01*
X1473Y338D02*
X1474Y338D01*
X1480Y338D02*
X1481Y338D01*
X1487Y338D02*
X1491Y338D01*
X1496Y338D02*
X1497Y338D01*
X1537Y338D02*
X1547Y338D01*
X1550Y338D02*
X1553Y338D01*
X1564Y338D02*
X1576Y338D01*
X1590Y338D02*
X1601Y338D01*
X1604Y338D02*
X1607Y338D01*
X1618Y338D02*
X1628Y338D01*
X1644Y338D02*
X1657Y338D01*
X1675Y338D02*
X1686Y338D01*
X1351Y337D02*
X1354Y337D01*
X1371Y337D02*
X1373Y337D01*
X1390Y337D02*
X1393Y337D01*
X1405Y337D02*
X1408Y337D01*
X1417Y337D02*
X1420Y337D01*
X1473Y337D02*
X1474Y337D01*
X1489Y337D02*
X1491Y337D01*
X1496Y337D02*
X1497Y337D01*
X1536Y337D02*
X1553Y337D01*
X1563Y337D02*
X1575Y337D01*
X1590Y337D02*
X1602Y337D01*
X1604Y337D02*
X1607Y337D01*
X1618Y337D02*
X1627Y337D01*
X1644Y337D02*
X1656Y337D01*
X1675Y337D02*
X1686Y337D01*
X1351Y336D02*
X1354Y336D01*
X1371Y336D02*
X1373Y336D01*
X1390Y336D02*
X1393Y336D01*
X1405Y336D02*
X1408Y336D01*
X1417Y336D02*
X1420Y336D01*
X1472Y336D02*
X1473Y336D01*
X1489Y336D02*
X1492Y336D01*
X1496Y336D02*
X1497Y336D01*
X1536Y336D02*
X1539Y336D01*
X1544Y336D02*
X1553Y336D01*
X1563Y336D02*
X1566Y336D01*
X1589Y336D02*
X1593Y336D01*
X1598Y336D02*
X1607Y336D01*
X1618Y336D02*
X1621Y336D01*
X1643Y336D02*
X1647Y336D01*
X1680Y336D02*
X1683Y336D01*
X1351Y335D02*
X1354Y335D01*
X1371Y335D02*
X1373Y335D01*
X1390Y335D02*
X1393Y335D01*
X1405Y335D02*
X1408Y335D01*
X1417Y335D02*
X1432Y335D01*
X1472Y335D02*
X1473Y335D01*
X1490Y335D02*
X1492Y335D01*
X1497Y335D02*
X1498Y335D01*
X1535Y335D02*
X1538Y335D01*
X1546Y335D02*
X1553Y335D01*
X1562Y335D02*
X1565Y335D01*
X1589Y335D02*
X1592Y335D01*
X1599Y335D02*
X1607Y335D01*
X1618Y335D02*
X1621Y335D01*
X1643Y335D02*
X1646Y335D01*
X1680Y335D02*
X1683Y335D01*
X1351Y334D02*
X1354Y334D01*
X1371Y334D02*
X1373Y334D01*
X1390Y334D02*
X1393Y334D01*
X1405Y334D02*
X1408Y334D01*
X1417Y334D02*
X1434Y334D01*
X1472Y334D02*
X1473Y334D01*
X1490Y334D02*
X1492Y334D01*
X1497Y334D02*
X1498Y334D01*
X1535Y334D02*
X1538Y334D01*
X1548Y334D02*
X1553Y334D01*
X1562Y334D02*
X1565Y334D01*
X1589Y334D02*
X1592Y334D01*
X1600Y334D02*
X1607Y334D01*
X1618Y334D02*
X1621Y334D01*
X1643Y334D02*
X1646Y334D01*
X1680Y334D02*
X1683Y334D01*
X1351Y333D02*
X1354Y333D01*
X1371Y333D02*
X1373Y333D01*
X1390Y333D02*
X1393Y333D01*
X1405Y333D02*
X1408Y333D01*
X1418Y333D02*
X1434Y333D01*
X1472Y333D02*
X1473Y333D01*
X1490Y333D02*
X1492Y333D01*
X1497Y333D02*
X1498Y333D01*
X1535Y333D02*
X1538Y333D01*
X1549Y333D02*
X1553Y333D01*
X1562Y333D02*
X1565Y333D01*
X1589Y333D02*
X1592Y333D01*
X1602Y333D02*
X1607Y333D01*
X1618Y333D02*
X1621Y333D01*
X1643Y333D02*
X1646Y333D01*
X1680Y333D02*
X1683Y333D01*
X1337Y332D02*
X1354Y332D01*
X1364Y332D02*
X1365Y332D01*
X1371Y332D02*
X1373Y332D01*
X1390Y332D02*
X1393Y332D01*
X1405Y332D02*
X1408Y332D01*
X1419Y332D02*
X1434Y332D01*
X1472Y332D02*
X1473Y332D01*
X1490Y332D02*
X1492Y332D01*
X1497Y332D02*
X1498Y332D01*
X1535Y332D02*
X1538Y332D01*
X1550Y332D02*
X1553Y332D01*
X1562Y332D02*
X1575Y332D01*
X1590Y332D02*
X1591Y332D01*
X1603Y332D02*
X1607Y332D01*
X1618Y332D02*
X1621Y332D01*
X1643Y332D02*
X1656Y332D01*
X1680Y332D02*
X1683Y332D01*
X1336Y331D02*
X1354Y331D01*
X1363Y331D02*
X1366Y331D01*
X1371Y331D02*
X1373Y331D01*
X1390Y331D02*
X1393Y331D01*
X1405Y331D02*
X1408Y331D01*
X1432Y331D02*
X1435Y331D01*
X1472Y331D02*
X1473Y331D01*
X1490Y331D02*
X1492Y331D01*
X1497Y331D02*
X1498Y331D01*
X1535Y331D02*
X1538Y331D01*
X1550Y331D02*
X1553Y331D01*
X1562Y331D02*
X1577Y331D01*
X1604Y331D02*
X1607Y331D01*
X1618Y331D02*
X1621Y331D01*
X1643Y331D02*
X1658Y331D01*
X1680Y331D02*
X1683Y331D01*
X1336Y330D02*
X1354Y330D01*
X1363Y330D02*
X1366Y330D01*
X1371Y330D02*
X1373Y330D01*
X1390Y330D02*
X1393Y330D01*
X1405Y330D02*
X1408Y330D01*
X1432Y330D02*
X1435Y330D01*
X1472Y330D02*
X1473Y330D01*
X1490Y330D02*
X1492Y330D01*
X1497Y330D02*
X1498Y330D01*
X1535Y330D02*
X1538Y330D01*
X1550Y330D02*
X1553Y330D01*
X1562Y330D02*
X1578Y330D01*
X1604Y330D02*
X1607Y330D01*
X1618Y330D02*
X1621Y330D01*
X1643Y330D02*
X1659Y330D01*
X1680Y330D02*
X1683Y330D01*
X1336Y329D02*
X1354Y329D01*
X1363Y329D02*
X1366Y329D01*
X1371Y329D02*
X1373Y329D01*
X1390Y329D02*
X1393Y329D01*
X1405Y329D02*
X1408Y329D01*
X1432Y329D02*
X1435Y329D01*
X1472Y329D02*
X1473Y329D01*
X1489Y329D02*
X1492Y329D01*
X1496Y329D02*
X1497Y329D01*
X1535Y329D02*
X1538Y329D01*
X1550Y329D02*
X1553Y329D01*
X1562Y329D02*
X1579Y329D01*
X1604Y329D02*
X1607Y329D01*
X1618Y329D02*
X1621Y329D01*
X1643Y329D02*
X1660Y329D01*
X1680Y329D02*
X1683Y329D01*
X1336Y328D02*
X1339Y328D01*
X1351Y328D02*
X1354Y328D01*
X1363Y328D02*
X1366Y328D01*
X1371Y328D02*
X1373Y328D01*
X1390Y328D02*
X1393Y328D01*
X1405Y328D02*
X1408Y328D01*
X1432Y328D02*
X1435Y328D01*
X1473Y328D02*
X1474Y328D01*
X1489Y328D02*
X1491Y328D01*
X1496Y328D02*
X1497Y328D01*
X1535Y328D02*
X1538Y328D01*
X1550Y328D02*
X1553Y328D01*
X1562Y328D02*
X1566Y328D01*
X1576Y328D02*
X1579Y328D01*
X1604Y328D02*
X1607Y328D01*
X1618Y328D02*
X1621Y328D01*
X1643Y328D02*
X1647Y328D01*
X1657Y328D02*
X1660Y328D01*
X1680Y328D02*
X1683Y328D01*
X1336Y327D02*
X1339Y327D01*
X1351Y327D02*
X1354Y327D01*
X1363Y327D02*
X1366Y327D01*
X1371Y327D02*
X1373Y327D01*
X1390Y327D02*
X1393Y327D01*
X1405Y327D02*
X1408Y327D01*
X1432Y327D02*
X1435Y327D01*
X1473Y327D02*
X1474Y327D01*
X1480Y327D02*
X1481Y327D01*
X1487Y327D02*
X1491Y327D01*
X1496Y327D02*
X1497Y327D01*
X1535Y327D02*
X1538Y327D01*
X1550Y327D02*
X1553Y327D01*
X1562Y327D02*
X1565Y327D01*
X1577Y327D02*
X1580Y327D01*
X1604Y327D02*
X1607Y327D01*
X1618Y327D02*
X1621Y327D01*
X1643Y327D02*
X1646Y327D01*
X1658Y327D02*
X1660Y327D01*
X1680Y327D02*
X1683Y327D01*
X1336Y326D02*
X1339Y326D01*
X1351Y326D02*
X1354Y326D01*
X1363Y326D02*
X1366Y326D01*
X1371Y326D02*
X1373Y326D01*
X1390Y326D02*
X1393Y326D01*
X1405Y326D02*
X1408Y326D01*
X1432Y326D02*
X1435Y326D01*
X1474Y326D02*
X1475Y326D01*
X1480Y326D02*
X1489Y326D01*
X1495Y326D02*
X1496Y326D01*
X1535Y326D02*
X1538Y326D01*
X1550Y326D02*
X1553Y326D01*
X1562Y326D02*
X1565Y326D01*
X1577Y326D02*
X1580Y326D01*
X1604Y326D02*
X1607Y326D01*
X1618Y326D02*
X1621Y326D01*
X1643Y326D02*
X1646Y326D01*
X1658Y326D02*
X1660Y326D01*
X1680Y326D02*
X1683Y326D01*
X1336Y325D02*
X1339Y325D01*
X1351Y325D02*
X1354Y325D01*
X1363Y325D02*
X1366Y325D01*
X1371Y325D02*
X1373Y325D01*
X1390Y325D02*
X1393Y325D01*
X1405Y325D02*
X1408Y325D01*
X1432Y325D02*
X1435Y325D01*
X1474Y325D02*
X1476Y325D01*
X1481Y325D02*
X1488Y325D01*
X1494Y325D02*
X1496Y325D01*
X1535Y325D02*
X1538Y325D01*
X1550Y325D02*
X1553Y325D01*
X1562Y325D02*
X1565Y325D01*
X1577Y325D02*
X1580Y325D01*
X1604Y325D02*
X1607Y325D01*
X1618Y325D02*
X1621Y325D01*
X1643Y325D02*
X1646Y325D01*
X1658Y325D02*
X1660Y325D01*
X1680Y325D02*
X1683Y325D01*
X1336Y324D02*
X1339Y324D01*
X1351Y324D02*
X1354Y324D01*
X1363Y324D02*
X1366Y324D01*
X1371Y324D02*
X1373Y324D01*
X1390Y324D02*
X1393Y324D01*
X1405Y324D02*
X1408Y324D01*
X1432Y324D02*
X1435Y324D01*
X1475Y324D02*
X1476Y324D01*
X1493Y324D02*
X1495Y324D01*
X1535Y324D02*
X1538Y324D01*
X1550Y324D02*
X1553Y324D01*
X1562Y324D02*
X1567Y324D01*
X1577Y324D02*
X1579Y324D01*
X1604Y324D02*
X1607Y324D01*
X1618Y324D02*
X1621Y324D01*
X1643Y324D02*
X1648Y324D01*
X1658Y324D02*
X1660Y324D01*
X1680Y324D02*
X1683Y324D01*
X1336Y323D02*
X1339Y323D01*
X1351Y323D02*
X1354Y323D01*
X1363Y323D02*
X1366Y323D01*
X1370Y323D02*
X1373Y323D01*
X1390Y323D02*
X1393Y323D01*
X1405Y323D02*
X1408Y323D01*
X1432Y323D02*
X1435Y323D01*
X1476Y323D02*
X1478Y323D01*
X1492Y323D02*
X1494Y323D01*
X1535Y323D02*
X1538Y323D01*
X1550Y323D02*
X1553Y323D01*
X1562Y323D02*
X1569Y323D01*
X1576Y323D02*
X1579Y323D01*
X1604Y323D02*
X1607Y323D01*
X1618Y323D02*
X1621Y323D01*
X1643Y323D02*
X1649Y323D01*
X1657Y323D02*
X1660Y323D01*
X1680Y323D02*
X1683Y323D01*
X1336Y322D02*
X1354Y322D01*
X1363Y322D02*
X1380Y322D01*
X1390Y322D02*
X1407Y322D01*
X1417Y322D02*
X1435Y322D01*
X1477Y322D02*
X1479Y322D01*
X1490Y322D02*
X1493Y322D01*
X1535Y322D02*
X1538Y322D01*
X1550Y322D02*
X1553Y322D01*
X1562Y322D02*
X1579Y322D01*
X1604Y322D02*
X1607Y322D01*
X1618Y322D02*
X1621Y322D01*
X1643Y322D02*
X1660Y322D01*
X1680Y322D02*
X1683Y322D01*
X1336Y321D02*
X1354Y321D01*
X1363Y321D02*
X1381Y321D01*
X1391Y321D02*
X1407Y321D01*
X1417Y321D02*
X1435Y321D01*
X1478Y321D02*
X1483Y321D01*
X1487Y321D02*
X1491Y321D01*
X1535Y321D02*
X1538Y321D01*
X1550Y321D02*
X1553Y321D01*
X1562Y321D02*
X1578Y321D01*
X1604Y321D02*
X1607Y321D01*
X1618Y321D02*
X1621Y321D01*
X1643Y321D02*
X1659Y321D01*
X1680Y321D02*
X1683Y321D01*
X1336Y320D02*
X1353Y320D01*
X1363Y320D02*
X1380Y320D01*
X1391Y320D02*
X1406Y320D01*
X1417Y320D02*
X1435Y320D01*
X1480Y320D02*
X1489Y320D01*
X1536Y320D02*
X1538Y320D01*
X1550Y320D02*
X1552Y320D01*
X1563Y320D02*
X1565Y320D01*
X1567Y320D02*
X1577Y320D01*
X1604Y320D02*
X1606Y320D01*
X1618Y320D02*
X1621Y320D01*
X1643Y320D02*
X1645Y320D01*
X1648Y320D02*
X1658Y320D01*
X1680Y320D02*
X1682Y320D01*
X1618Y319D02*
X1621Y319D01*
X1618Y318D02*
X1621Y318D01*
X1630Y318D02*
X1630Y318D01*
X1618Y317D02*
X1621Y317D01*
X1629Y317D02*
X1631Y317D01*
X1618Y316D02*
X1621Y316D01*
X1629Y316D02*
X1632Y316D01*
X1618Y315D02*
X1622Y315D01*
X1628Y315D02*
X1631Y315D01*
X1619Y314D02*
X1631Y314D01*
X1619Y313D02*
X1630Y313D01*
X1621Y312D02*
X1629Y312D01*
X1376Y205D02*
X1381Y205D01*
X1390Y205D02*
X1391Y205D01*
X1410Y205D02*
X1417Y205D01*
X1441Y205D02*
X1453Y205D01*
X1475Y205D02*
X1479Y205D01*
X1489Y205D02*
X1489Y205D01*
X1509Y205D02*
X1516Y205D01*
X1540Y205D02*
X1551Y205D01*
X1374Y204D02*
X1383Y204D01*
X1389Y204D02*
X1392Y204D01*
X1408Y204D02*
X1420Y204D01*
X1439Y204D02*
X1455Y204D01*
X1472Y204D02*
X1482Y204D01*
X1487Y204D02*
X1490Y204D01*
X1506Y204D02*
X1519Y204D01*
X1537Y204D02*
X1553Y204D01*
X1372Y203D02*
X1384Y203D01*
X1389Y203D02*
X1392Y203D01*
X1407Y203D02*
X1422Y203D01*
X1438Y203D02*
X1456Y203D01*
X1471Y203D02*
X1483Y203D01*
X1487Y203D02*
X1491Y203D01*
X1505Y203D02*
X1520Y203D01*
X1536Y203D02*
X1554Y203D01*
X1372Y202D02*
X1385Y202D01*
X1389Y202D02*
X1392Y202D01*
X1406Y202D02*
X1423Y202D01*
X1437Y202D02*
X1457Y202D01*
X1470Y202D02*
X1485Y202D01*
X1487Y202D02*
X1491Y202D01*
X1504Y202D02*
X1521Y202D01*
X1535Y202D02*
X1555Y202D01*
X1371Y201D02*
X1387Y201D01*
X1389Y201D02*
X1392Y201D01*
X1405Y201D02*
X1423Y201D01*
X1437Y201D02*
X1457Y201D01*
X1470Y201D02*
X1491Y201D01*
X1503Y201D02*
X1522Y201D01*
X1535Y201D02*
X1555Y201D01*
X1371Y200D02*
X1375Y200D01*
X1382Y200D02*
X1392Y200D01*
X1404Y200D02*
X1409Y200D01*
X1419Y200D02*
X1424Y200D01*
X1437Y200D02*
X1440Y200D01*
X1453Y200D02*
X1457Y200D01*
X1469Y200D02*
X1474Y200D01*
X1481Y200D02*
X1491Y200D01*
X1502Y200D02*
X1508Y200D01*
X1517Y200D02*
X1523Y200D01*
X1535Y200D02*
X1539Y200D01*
X1552Y200D02*
X1556Y200D01*
X1371Y199D02*
X1374Y199D01*
X1383Y199D02*
X1392Y199D01*
X1404Y199D02*
X1408Y199D01*
X1420Y199D02*
X1425Y199D01*
X1438Y199D02*
X1439Y199D01*
X1454Y199D02*
X1457Y199D01*
X1469Y199D02*
X1473Y199D01*
X1482Y199D02*
X1491Y199D01*
X1502Y199D02*
X1506Y199D01*
X1519Y199D02*
X1523Y199D01*
X1536Y199D02*
X1537Y199D01*
X1552Y199D02*
X1556Y199D01*
X1371Y198D02*
X1374Y198D01*
X1384Y198D02*
X1392Y198D01*
X1403Y198D02*
X1407Y198D01*
X1421Y198D02*
X1425Y198D01*
X1453Y198D02*
X1457Y198D01*
X1469Y198D02*
X1473Y198D01*
X1484Y198D02*
X1491Y198D01*
X1502Y198D02*
X1506Y198D01*
X1519Y198D02*
X1523Y198D01*
X1551Y198D02*
X1555Y198D01*
X1371Y197D02*
X1374Y197D01*
X1385Y197D02*
X1392Y197D01*
X1403Y197D02*
X1407Y197D01*
X1421Y197D02*
X1425Y197D01*
X1450Y197D02*
X1457Y197D01*
X1469Y197D02*
X1473Y197D01*
X1485Y197D02*
X1491Y197D01*
X1502Y197D02*
X1505Y197D01*
X1520Y197D02*
X1523Y197D01*
X1549Y197D02*
X1555Y197D01*
X1371Y196D02*
X1374Y196D01*
X1386Y196D02*
X1392Y196D01*
X1403Y196D02*
X1407Y196D01*
X1421Y196D02*
X1425Y196D01*
X1448Y196D02*
X1456Y196D01*
X1469Y196D02*
X1473Y196D01*
X1487Y196D02*
X1491Y196D01*
X1502Y196D02*
X1505Y196D01*
X1520Y196D02*
X1523Y196D01*
X1546Y196D02*
X1554Y196D01*
X1372Y195D02*
X1373Y195D01*
X1388Y195D02*
X1392Y195D01*
X1403Y195D02*
X1407Y195D01*
X1421Y195D02*
X1425Y195D01*
X1446Y195D02*
X1455Y195D01*
X1469Y195D02*
X1473Y195D01*
X1487Y195D02*
X1491Y195D01*
X1502Y195D02*
X1505Y195D01*
X1520Y195D02*
X1523Y195D01*
X1544Y195D02*
X1554Y195D01*
X1388Y194D02*
X1392Y194D01*
X1403Y194D02*
X1407Y194D01*
X1421Y194D02*
X1425Y194D01*
X1443Y194D02*
X1454Y194D01*
X1469Y194D02*
X1473Y194D01*
X1487Y194D02*
X1491Y194D01*
X1502Y194D02*
X1505Y194D01*
X1520Y194D02*
X1523Y194D01*
X1542Y194D02*
X1552Y194D01*
X1389Y193D02*
X1392Y193D01*
X1403Y193D02*
X1407Y193D01*
X1421Y193D02*
X1425Y193D01*
X1441Y193D02*
X1451Y193D01*
X1469Y193D02*
X1473Y193D01*
X1487Y193D02*
X1491Y193D01*
X1502Y193D02*
X1523Y193D01*
X1539Y193D02*
X1550Y193D01*
X1389Y192D02*
X1392Y192D01*
X1403Y192D02*
X1407Y192D01*
X1421Y192D02*
X1425Y192D01*
X1439Y192D02*
X1449Y192D01*
X1469Y192D02*
X1473Y192D01*
X1487Y192D02*
X1491Y192D01*
X1502Y192D02*
X1523Y192D01*
X1538Y192D02*
X1548Y192D01*
X1389Y191D02*
X1392Y191D01*
X1403Y191D02*
X1407Y191D01*
X1421Y191D02*
X1425Y191D01*
X1438Y191D02*
X1447Y191D01*
X1469Y191D02*
X1473Y191D01*
X1487Y191D02*
X1491Y191D01*
X1502Y191D02*
X1523Y191D01*
X1537Y191D02*
X1545Y191D01*
X1389Y190D02*
X1392Y190D01*
X1403Y190D02*
X1407Y190D01*
X1421Y190D02*
X1425Y190D01*
X1437Y190D02*
X1444Y190D01*
X1469Y190D02*
X1473Y190D01*
X1487Y190D02*
X1491Y190D01*
X1502Y190D02*
X1523Y190D01*
X1536Y190D02*
X1543Y190D01*
X1389Y189D02*
X1392Y189D01*
X1403Y189D02*
X1407Y189D01*
X1421Y189D02*
X1425Y189D01*
X1437Y189D02*
X1442Y189D01*
X1469Y189D02*
X1473Y189D01*
X1487Y189D02*
X1491Y189D01*
X1519Y189D02*
X1523Y189D01*
X1535Y189D02*
X1541Y189D01*
X1389Y188D02*
X1392Y188D01*
X1403Y188D02*
X1407Y188D01*
X1421Y188D02*
X1425Y188D01*
X1436Y188D02*
X1441Y188D01*
X1469Y188D02*
X1473Y188D01*
X1487Y188D02*
X1491Y188D01*
X1520Y188D02*
X1523Y188D01*
X1535Y188D02*
X1539Y188D01*
X1389Y187D02*
X1392Y187D01*
X1403Y187D02*
X1407Y187D01*
X1421Y187D02*
X1425Y187D01*
X1436Y187D02*
X1440Y187D01*
X1469Y187D02*
X1473Y187D01*
X1487Y187D02*
X1491Y187D01*
X1520Y187D02*
X1523Y187D01*
X1535Y187D02*
X1538Y187D01*
X1389Y186D02*
X1392Y186D01*
X1404Y186D02*
X1408Y186D01*
X1421Y186D02*
X1425Y186D01*
X1436Y186D02*
X1440Y186D01*
X1469Y186D02*
X1473Y186D01*
X1487Y186D02*
X1491Y186D01*
X1519Y186D02*
X1523Y186D01*
X1535Y186D02*
X1538Y186D01*
X1389Y185D02*
X1392Y185D01*
X1404Y185D02*
X1409Y185D01*
X1420Y185D02*
X1424Y185D01*
X1436Y185D02*
X1440Y185D01*
X1454Y185D02*
X1457Y185D01*
X1469Y185D02*
X1473Y185D01*
X1487Y185D02*
X1491Y185D01*
X1518Y185D02*
X1523Y185D01*
X1535Y185D02*
X1539Y185D01*
X1553Y185D02*
X1556Y185D01*
X1389Y184D02*
X1392Y184D01*
X1404Y184D02*
X1424Y184D01*
X1437Y184D02*
X1458Y184D01*
X1469Y184D02*
X1473Y184D01*
X1487Y184D02*
X1491Y184D01*
X1505Y184D02*
X1522Y184D01*
X1535Y184D02*
X1556Y184D01*
X1389Y183D02*
X1392Y183D01*
X1405Y183D02*
X1423Y183D01*
X1437Y183D02*
X1458Y183D01*
X1469Y183D02*
X1473Y183D01*
X1487Y183D02*
X1491Y183D01*
X1502Y183D02*
X1522Y183D01*
X1536Y183D02*
X1556Y183D01*
X1389Y182D02*
X1392Y182D01*
X1406Y182D02*
X1422Y182D01*
X1438Y182D02*
X1457Y182D01*
X1469Y182D02*
X1473Y182D01*
X1487Y182D02*
X1491Y182D01*
X1502Y182D02*
X1520Y182D01*
X1536Y182D02*
X1555Y182D01*
X1389Y181D02*
X1392Y181D01*
X1408Y181D02*
X1421Y181D01*
X1439Y181D02*
X1456Y181D01*
X1469Y181D02*
X1473Y181D01*
X1487Y181D02*
X1490Y181D01*
X1502Y181D02*
X1519Y181D01*
X1537Y181D02*
X1554Y181D01*
X1389Y180D02*
X1391Y180D01*
X1409Y180D02*
X1419Y180D01*
X1440Y180D02*
X1454Y180D01*
X1470Y180D02*
X1472Y180D01*
X1488Y180D02*
X1490Y180D01*
X1503Y180D02*
X1518Y180D01*
X1539Y180D02*
X1552Y180D01*
X1449Y171D02*
X1452Y171D01*
X1448Y170D02*
X1453Y170D01*
X1374Y169D02*
X1375Y169D01*
X1448Y169D02*
X1453Y169D01*
X1547Y169D02*
X1555Y169D01*
X1373Y168D02*
X1376Y168D01*
X1448Y168D02*
X1453Y168D01*
X1546Y168D02*
X1556Y168D01*
X1373Y167D02*
X1377Y167D01*
X1448Y167D02*
X1453Y167D01*
X1546Y167D02*
X1556Y167D01*
X1373Y166D02*
X1377Y166D01*
X1448Y166D02*
X1453Y166D01*
X1546Y166D02*
X1556Y166D01*
X1373Y165D02*
X1377Y165D01*
X1449Y165D02*
X1452Y165D01*
X1546Y165D02*
X1555Y165D01*
X1373Y164D02*
X1377Y164D01*
X1546Y164D02*
X1550Y164D01*
X1373Y163D02*
X1377Y163D01*
X1546Y163D02*
X1550Y163D01*
X1373Y162D02*
X1377Y162D01*
X1546Y162D02*
X1550Y162D01*
X1373Y161D02*
X1377Y161D01*
X1546Y161D02*
X1550Y161D01*
X1315Y160D02*
X1321Y160D01*
X1326Y160D02*
X1328Y160D01*
X1373Y160D02*
X1377Y160D01*
X1546Y160D02*
X1550Y160D01*
X1246Y159D02*
X1254Y159D01*
X1261Y159D02*
X1263Y159D01*
X1275Y159D02*
X1277Y159D01*
X1293Y159D02*
X1295Y159D01*
X1314Y159D02*
X1322Y159D01*
X1326Y159D02*
X1329Y159D01*
X1344Y159D02*
X1357Y159D01*
X1373Y159D02*
X1377Y159D01*
X1381Y159D02*
X1389Y159D01*
X1448Y159D02*
X1457Y159D01*
X1472Y159D02*
X1485Y159D01*
X1508Y159D02*
X1521Y159D01*
X1546Y159D02*
X1550Y159D01*
X1244Y158D02*
X1255Y158D01*
X1260Y158D02*
X1263Y158D01*
X1275Y158D02*
X1278Y158D01*
X1292Y158D02*
X1296Y158D01*
X1312Y158D02*
X1329Y158D01*
X1343Y158D02*
X1357Y158D01*
X1373Y158D02*
X1377Y158D01*
X1379Y158D02*
X1391Y158D01*
X1448Y158D02*
X1458Y158D01*
X1472Y158D02*
X1487Y158D01*
X1507Y158D02*
X1521Y158D01*
X1546Y158D02*
X1550Y158D01*
X1243Y157D02*
X1256Y157D01*
X1260Y157D02*
X1263Y157D01*
X1275Y157D02*
X1278Y157D01*
X1292Y157D02*
X1296Y157D01*
X1311Y157D02*
X1329Y157D01*
X1342Y157D02*
X1357Y157D01*
X1373Y157D02*
X1392Y157D01*
X1448Y157D02*
X1458Y157D01*
X1471Y157D02*
X1488Y157D01*
X1506Y157D02*
X1521Y157D01*
X1546Y157D02*
X1550Y157D01*
X1243Y156D02*
X1257Y156D01*
X1260Y156D02*
X1263Y156D01*
X1275Y156D02*
X1278Y156D01*
X1292Y156D02*
X1296Y156D01*
X1310Y156D02*
X1317Y156D01*
X1319Y156D02*
X1329Y156D01*
X1341Y156D02*
X1357Y156D01*
X1373Y156D02*
X1393Y156D01*
X1448Y156D02*
X1457Y156D01*
X1472Y156D02*
X1489Y156D01*
X1505Y156D02*
X1521Y156D01*
X1546Y156D02*
X1550Y156D01*
X1242Y155D02*
X1247Y155D01*
X1252Y155D02*
X1263Y155D01*
X1275Y155D02*
X1278Y155D01*
X1292Y155D02*
X1296Y155D01*
X1309Y155D02*
X1315Y155D01*
X1321Y155D02*
X1329Y155D01*
X1341Y155D02*
X1346Y155D01*
X1373Y155D02*
X1382Y155D01*
X1388Y155D02*
X1394Y155D01*
X1448Y155D02*
X1451Y155D01*
X1484Y155D02*
X1490Y155D01*
X1505Y155D02*
X1510Y155D01*
X1546Y155D02*
X1550Y155D01*
X1242Y154D02*
X1246Y154D01*
X1254Y154D02*
X1263Y154D01*
X1275Y154D02*
X1278Y154D01*
X1292Y154D02*
X1296Y154D01*
X1308Y154D02*
X1314Y154D01*
X1322Y154D02*
X1329Y154D01*
X1341Y154D02*
X1345Y154D01*
X1373Y154D02*
X1381Y154D01*
X1389Y154D02*
X1394Y154D01*
X1448Y154D02*
X1451Y154D01*
X1485Y154D02*
X1491Y154D01*
X1505Y154D02*
X1509Y154D01*
X1546Y154D02*
X1550Y154D01*
X1242Y153D02*
X1245Y153D01*
X1255Y153D02*
X1263Y153D01*
X1275Y153D02*
X1278Y153D01*
X1292Y153D02*
X1296Y153D01*
X1308Y153D02*
X1313Y153D01*
X1323Y153D02*
X1329Y153D01*
X1341Y153D02*
X1344Y153D01*
X1373Y153D02*
X1379Y153D01*
X1390Y153D02*
X1394Y153D01*
X1448Y153D02*
X1451Y153D01*
X1487Y153D02*
X1492Y153D01*
X1505Y153D02*
X1508Y153D01*
X1546Y153D02*
X1550Y153D01*
X1242Y152D02*
X1245Y152D01*
X1256Y152D02*
X1263Y152D01*
X1275Y152D02*
X1278Y152D01*
X1292Y152D02*
X1296Y152D01*
X1308Y152D02*
X1312Y152D01*
X1324Y152D02*
X1329Y152D01*
X1341Y152D02*
X1344Y152D01*
X1373Y152D02*
X1378Y152D01*
X1391Y152D02*
X1395Y152D01*
X1448Y152D02*
X1451Y152D01*
X1488Y152D02*
X1493Y152D01*
X1505Y152D02*
X1508Y152D01*
X1546Y152D02*
X1550Y152D01*
X1242Y151D02*
X1245Y151D01*
X1257Y151D02*
X1263Y151D01*
X1275Y151D02*
X1278Y151D01*
X1292Y151D02*
X1296Y151D01*
X1307Y151D02*
X1311Y151D01*
X1325Y151D02*
X1329Y151D01*
X1341Y151D02*
X1344Y151D01*
X1373Y151D02*
X1377Y151D01*
X1391Y151D02*
X1395Y151D01*
X1448Y151D02*
X1451Y151D01*
X1489Y151D02*
X1493Y151D01*
X1505Y151D02*
X1508Y151D01*
X1546Y151D02*
X1550Y151D01*
X1243Y150D02*
X1245Y150D01*
X1258Y150D02*
X1263Y150D01*
X1275Y150D02*
X1278Y150D01*
X1292Y150D02*
X1296Y150D01*
X1307Y150D02*
X1311Y150D01*
X1325Y150D02*
X1329Y150D01*
X1341Y150D02*
X1345Y150D01*
X1347Y150D02*
X1356Y150D01*
X1373Y150D02*
X1377Y150D01*
X1391Y150D02*
X1395Y150D01*
X1448Y150D02*
X1451Y150D01*
X1489Y150D02*
X1493Y150D01*
X1505Y150D02*
X1509Y150D01*
X1511Y150D02*
X1520Y150D01*
X1546Y150D02*
X1550Y150D01*
X1259Y149D02*
X1263Y149D01*
X1275Y149D02*
X1278Y149D01*
X1292Y149D02*
X1296Y149D01*
X1307Y149D02*
X1311Y149D01*
X1325Y149D02*
X1329Y149D01*
X1341Y149D02*
X1358Y149D01*
X1373Y149D02*
X1377Y149D01*
X1391Y149D02*
X1395Y149D01*
X1448Y149D02*
X1451Y149D01*
X1489Y149D02*
X1493Y149D01*
X1505Y149D02*
X1522Y149D01*
X1546Y149D02*
X1550Y149D01*
X1260Y148D02*
X1263Y148D01*
X1275Y148D02*
X1278Y148D01*
X1292Y148D02*
X1296Y148D01*
X1307Y148D02*
X1311Y148D01*
X1325Y148D02*
X1329Y148D01*
X1341Y148D02*
X1360Y148D01*
X1373Y148D02*
X1377Y148D01*
X1391Y148D02*
X1395Y148D01*
X1448Y148D02*
X1451Y148D01*
X1489Y148D02*
X1493Y148D01*
X1505Y148D02*
X1524Y148D01*
X1546Y148D02*
X1550Y148D01*
X1260Y147D02*
X1263Y147D01*
X1275Y147D02*
X1278Y147D01*
X1292Y147D02*
X1296Y147D01*
X1307Y147D02*
X1311Y147D01*
X1325Y147D02*
X1329Y147D01*
X1341Y147D02*
X1361Y147D01*
X1373Y147D02*
X1377Y147D01*
X1391Y147D02*
X1395Y147D01*
X1448Y147D02*
X1451Y147D01*
X1489Y147D02*
X1493Y147D01*
X1505Y147D02*
X1525Y147D01*
X1546Y147D02*
X1550Y147D01*
X1260Y146D02*
X1263Y146D01*
X1275Y146D02*
X1278Y146D01*
X1292Y146D02*
X1296Y146D01*
X1307Y146D02*
X1311Y146D01*
X1325Y146D02*
X1329Y146D01*
X1341Y146D02*
X1361Y146D01*
X1373Y146D02*
X1377Y146D01*
X1391Y146D02*
X1395Y146D01*
X1448Y146D02*
X1451Y146D01*
X1489Y146D02*
X1493Y146D01*
X1505Y146D02*
X1525Y146D01*
X1546Y146D02*
X1550Y146D01*
X1260Y145D02*
X1263Y145D01*
X1275Y145D02*
X1278Y145D01*
X1292Y145D02*
X1296Y145D01*
X1307Y145D02*
X1311Y145D01*
X1325Y145D02*
X1329Y145D01*
X1341Y145D02*
X1345Y145D01*
X1357Y145D02*
X1362Y145D01*
X1373Y145D02*
X1377Y145D01*
X1391Y145D02*
X1395Y145D01*
X1448Y145D02*
X1451Y145D01*
X1489Y145D02*
X1493Y145D01*
X1505Y145D02*
X1509Y145D01*
X1521Y145D02*
X1526Y145D01*
X1546Y145D02*
X1550Y145D01*
X1260Y144D02*
X1263Y144D01*
X1275Y144D02*
X1278Y144D01*
X1292Y144D02*
X1296Y144D01*
X1307Y144D02*
X1311Y144D01*
X1325Y144D02*
X1329Y144D01*
X1341Y144D02*
X1344Y144D01*
X1358Y144D02*
X1362Y144D01*
X1373Y144D02*
X1377Y144D01*
X1391Y144D02*
X1395Y144D01*
X1448Y144D02*
X1451Y144D01*
X1489Y144D02*
X1493Y144D01*
X1505Y144D02*
X1508Y144D01*
X1522Y144D02*
X1526Y144D01*
X1546Y144D02*
X1550Y144D01*
X1260Y143D02*
X1263Y143D01*
X1275Y143D02*
X1279Y143D01*
X1292Y143D02*
X1296Y143D01*
X1307Y143D02*
X1311Y143D01*
X1325Y143D02*
X1329Y143D01*
X1341Y143D02*
X1344Y143D01*
X1358Y143D02*
X1362Y143D01*
X1373Y143D02*
X1377Y143D01*
X1391Y143D02*
X1395Y143D01*
X1448Y143D02*
X1451Y143D01*
X1489Y143D02*
X1493Y143D01*
X1505Y143D02*
X1508Y143D01*
X1522Y143D02*
X1526Y143D01*
X1546Y143D02*
X1550Y143D01*
X1260Y142D02*
X1263Y142D01*
X1275Y142D02*
X1280Y142D01*
X1292Y142D02*
X1296Y142D01*
X1307Y142D02*
X1311Y142D01*
X1325Y142D02*
X1329Y142D01*
X1341Y142D02*
X1344Y142D01*
X1358Y142D02*
X1362Y142D01*
X1373Y142D02*
X1378Y142D01*
X1391Y142D02*
X1395Y142D01*
X1448Y142D02*
X1451Y142D01*
X1488Y142D02*
X1493Y142D01*
X1505Y142D02*
X1508Y142D01*
X1522Y142D02*
X1526Y142D01*
X1546Y142D02*
X1550Y142D01*
X1260Y141D02*
X1263Y141D01*
X1275Y141D02*
X1282Y141D01*
X1292Y141D02*
X1296Y141D01*
X1308Y141D02*
X1312Y141D01*
X1323Y141D02*
X1329Y141D01*
X1341Y141D02*
X1345Y141D01*
X1358Y141D02*
X1362Y141D01*
X1373Y141D02*
X1379Y141D01*
X1391Y141D02*
X1394Y141D01*
X1448Y141D02*
X1451Y141D01*
X1487Y141D02*
X1492Y141D01*
X1505Y141D02*
X1509Y141D01*
X1522Y141D02*
X1526Y141D01*
X1546Y141D02*
X1550Y141D01*
X1260Y140D02*
X1263Y140D01*
X1275Y140D02*
X1283Y140D01*
X1292Y140D02*
X1296Y140D01*
X1308Y140D02*
X1313Y140D01*
X1322Y140D02*
X1329Y140D01*
X1341Y140D02*
X1346Y140D01*
X1358Y140D02*
X1362Y140D01*
X1373Y140D02*
X1380Y140D01*
X1390Y140D02*
X1394Y140D01*
X1448Y140D02*
X1451Y140D01*
X1486Y140D02*
X1492Y140D01*
X1505Y140D02*
X1510Y140D01*
X1522Y140D02*
X1526Y140D01*
X1546Y140D02*
X1550Y140D01*
X1260Y139D02*
X1263Y139D01*
X1275Y139D02*
X1285Y139D01*
X1291Y139D02*
X1296Y139D01*
X1309Y139D02*
X1315Y139D01*
X1321Y139D02*
X1329Y139D01*
X1341Y139D02*
X1348Y139D01*
X1357Y139D02*
X1362Y139D01*
X1373Y139D02*
X1381Y139D01*
X1388Y139D02*
X1394Y139D01*
X1448Y139D02*
X1451Y139D01*
X1485Y139D02*
X1491Y139D01*
X1505Y139D02*
X1512Y139D01*
X1521Y139D02*
X1526Y139D01*
X1546Y139D02*
X1550Y139D01*
X1260Y138D02*
X1263Y138D01*
X1275Y138D02*
X1295Y138D01*
X1310Y138D02*
X1316Y138D01*
X1320Y138D02*
X1329Y138D01*
X1341Y138D02*
X1361Y138D01*
X1373Y138D02*
X1393Y138D01*
X1442Y138D02*
X1457Y138D01*
X1472Y138D02*
X1490Y138D01*
X1505Y138D02*
X1525Y138D01*
X1540Y138D02*
X1555Y138D01*
X1260Y137D02*
X1263Y137D01*
X1275Y137D02*
X1278Y137D01*
X1280Y137D02*
X1295Y137D01*
X1311Y137D02*
X1329Y137D01*
X1341Y137D02*
X1361Y137D01*
X1373Y137D02*
X1392Y137D01*
X1441Y137D02*
X1458Y137D01*
X1472Y137D02*
X1488Y137D01*
X1505Y137D02*
X1525Y137D01*
X1539Y137D02*
X1556Y137D01*
X1260Y136D02*
X1263Y136D01*
X1275Y136D02*
X1278Y136D01*
X1282Y136D02*
X1294Y136D01*
X1312Y136D02*
X1329Y136D01*
X1341Y136D02*
X1360Y136D01*
X1373Y136D02*
X1377Y136D01*
X1379Y136D02*
X1391Y136D01*
X1441Y136D02*
X1458Y136D01*
X1471Y136D02*
X1487Y136D01*
X1505Y136D02*
X1524Y136D01*
X1539Y136D02*
X1556Y136D01*
X1260Y135D02*
X1263Y135D01*
X1275Y135D02*
X1278Y135D01*
X1284Y135D02*
X1292Y135D01*
X1313Y135D02*
X1323Y135D01*
X1325Y135D02*
X1329Y135D01*
X1341Y135D02*
X1343Y135D01*
X1347Y135D02*
X1359Y135D01*
X1373Y135D02*
X1376Y135D01*
X1380Y135D02*
X1390Y135D01*
X1441Y135D02*
X1458Y135D01*
X1472Y135D02*
X1486Y135D01*
X1505Y135D02*
X1507Y135D01*
X1511Y135D02*
X1523Y135D01*
X1540Y135D02*
X1556Y135D01*
X1287Y134D02*
X1290Y134D01*
X1315Y134D02*
X1321Y134D01*
X1325Y134D02*
X1329Y134D01*
X1349Y134D02*
X1356Y134D01*
X1383Y134D02*
X1387Y134D01*
X1443Y134D02*
X1456Y134D01*
X1474Y134D02*
X1483Y134D01*
X1513Y134D02*
X1520Y134D01*
X1541Y134D02*
X1554Y134D01*
X1325Y133D02*
X1329Y133D01*
X1325Y132D02*
X1329Y132D01*
X1325Y131D02*
X1329Y131D01*
X1325Y130D02*
X1329Y130D01*
X1325Y129D02*
X1329Y129D01*
X1325Y128D02*
X1329Y128D01*
X1325Y127D02*
X1329Y127D01*
X1326Y126D02*
X1329Y126D01*
X1326Y125D02*
X1328Y125D01*
D02*
G04 End of Silk0*
M02*