G04 #@! TF.FileFunction,Legend,Top*
%FSLAX46Y46*%
G04 Gerber Fmt 4.6, Leading zero omitted, Abs format (unit mm)*
G04 Created by KiCad (PCBNEW 4.0.3+e1-6302~38~ubuntu15.04.1-stable) date Sun Aug 28 21:25:33 2016*
%MOMM*%
%LPD*%
G01*
G04 APERTURE LIST*
%ADD10C,0.100000*%
%ADD11C,0.400000*%
%ADD12C,0.150000*%
G04 APERTURE END LIST*
D10*
D11*
X110000000Y-69500000D02*
X112500000Y-69500000D01*
X110000000Y-68500000D02*
X110000000Y-69500000D01*
X108500000Y-70000000D02*
X110000000Y-68500000D01*
X110000000Y-71500000D02*
X108500000Y-70000000D01*
X110000000Y-70500000D02*
X110000000Y-71500000D01*
X112500000Y-70500000D02*
X110000000Y-70500000D01*
X112500000Y-69500000D02*
X112500000Y-70500000D01*
D12*
X135250000Y-72500000D02*
X131000000Y-72500000D01*
X131000000Y-72500000D02*
X131000000Y-67500000D01*
X131000000Y-67500000D02*
X135250000Y-67500000D01*
X129250000Y-73900000D02*
X129250000Y-74250000D01*
X129250000Y-74250000D02*
X127650000Y-74250000D01*
X127650000Y-74250000D02*
X127650000Y-74950000D01*
X127650000Y-74950000D02*
X135250000Y-74950000D01*
X135250000Y-74950000D02*
X135250000Y-65050000D01*
X135250000Y-65050000D02*
X127650000Y-65050000D01*
X127650000Y-65050000D02*
X127650000Y-65750000D01*
X127650000Y-65750000D02*
X129250000Y-65750000D01*
X129250000Y-65750000D02*
X129250000Y-66100000D01*
X127800000Y-73000000D02*
X127400000Y-73400000D01*
X127400000Y-73400000D02*
X127400000Y-72600000D01*
X127400000Y-72600000D02*
X127800000Y-73000000D01*
X129250000Y-74950000D02*
X129250000Y-74250000D01*
X129250000Y-65050000D02*
X129250000Y-65750000D01*
X131500000Y-74300000D02*
X133100000Y-74300000D01*
X133100000Y-74300000D02*
X133100000Y-73300000D01*
X133100000Y-73300000D02*
X131500000Y-73300000D01*
X131500000Y-73300000D02*
X131500000Y-74300000D01*
X131500000Y-65700000D02*
X133100000Y-65700000D01*
X133100000Y-65700000D02*
X133100000Y-66700000D01*
X133100000Y-66700000D02*
X131500000Y-66700000D01*
X131500000Y-66700000D02*
X131500000Y-65700000D01*
X133100000Y-73300000D02*
X135250000Y-73300000D01*
X133100000Y-73800000D02*
X135250000Y-73800000D01*
X129250000Y-72100000D02*
X129250000Y-71900000D01*
X129250000Y-70100000D02*
X129250000Y-69900000D01*
X129250000Y-68100000D02*
X129250000Y-67900000D01*
X90300000Y-73700000D02*
X90300000Y-66300000D01*
X90300000Y-66300000D02*
X94700000Y-66300000D01*
X94700000Y-66300000D02*
X94700000Y-73700000D01*
X94700000Y-73700000D02*
X90300000Y-73700000D01*
X126952381Y-73738095D02*
X125952381Y-73738095D01*
X125952381Y-73357142D01*
X126000000Y-73261904D01*
X126047619Y-73214285D01*
X126142857Y-73166666D01*
X126285714Y-73166666D01*
X126380952Y-73214285D01*
X126428571Y-73261904D01*
X126476190Y-73357142D01*
X126476190Y-73738095D01*
X126952381Y-72214285D02*
X126952381Y-72785714D01*
X126952381Y-72500000D02*
X125952381Y-72500000D01*
X126095238Y-72595238D01*
X126190476Y-72690476D01*
X126238095Y-72785714D01*
X96452381Y-70738095D02*
X95452381Y-70738095D01*
X95452381Y-70357142D01*
X95500000Y-70261904D01*
X95547619Y-70214285D01*
X95642857Y-70166666D01*
X95785714Y-70166666D01*
X95880952Y-70214285D01*
X95928571Y-70261904D01*
X95976190Y-70357142D01*
X95976190Y-70738095D01*
X95547619Y-69785714D02*
X95500000Y-69738095D01*
X95452381Y-69642857D01*
X95452381Y-69404761D01*
X95500000Y-69309523D01*
X95547619Y-69261904D01*
X95642857Y-69214285D01*
X95738095Y-69214285D01*
X95880952Y-69261904D01*
X96452381Y-69833333D01*
X96452381Y-69214285D01*
M02*
