M48
;DRILL file {KiCad 4.0.3+e1-6302~38~ubuntu15.04.1-stable} date Sat Aug 20 23:13:32 2016
;FORMAT={-:-/ absolute / inch / decimal}
FMAT,2
INCH,TZ
T1C0.026
T2C0.028
T3C0.030
T4C0.031
T5C0.032
T6C0.035
T7C0.039
T8C0.040
T9C0.050
T10C0.126
%
G90
G05
M72
T1
X7.725Y-3.2
X7.725Y-3.2787
X7.725Y-3.3575
X7.725Y-3.4362
X7.725Y-3.515
X7.725Y-3.5937
X7.725Y-3.6724
X7.725Y-3.7512
X8.2762Y-3.2
X8.2762Y-3.2787
X8.2762Y-3.3575
X8.2762Y-3.4362
X8.2762Y-3.515
X8.2762Y-3.5937
X8.2762Y-3.6724
X8.2762Y-3.7512
T2
X6.1499Y-4.125
X6.1499Y-4.525
T3
X4.865Y-3.91
X4.865Y-4.31
X4.865Y-4.41
X5.165Y-3.91
X5.165Y-4.31
X5.165Y-4.41
T4
X5.6Y-3.125
X5.6984Y-3.125
X5.975Y-4.225
X5.975Y-4.325
X5.975Y-4.425
T5
X6.9Y-3.1
X6.9Y-3.3
X7.2Y-3.1
X7.2Y-3.3
T6
X5.075Y-3.175
X5.075Y-3.2734
X5.075Y-3.55
X5.075Y-3.6484
X5.625Y-3.45
X5.625Y-3.55
X5.925Y-3.45
X5.925Y-3.55
X6.2766Y-3.3
X6.375Y-3.3
T7
X5.3249Y-3.45
X5.3251Y-3.65
X5.4499Y-4.05
X5.4501Y-3.05
X6.125Y-3.55
X6.125Y-3.675
X6.3Y-4.025
X6.3Y-4.425
X6.525Y-3.55
X6.525Y-3.675
X6.6Y-3.875
X6.6Y-4.275
X6.725Y-3.875
X6.725Y-4.275
X7.125Y-4.025
X7.525Y-4.025
T8
X7.4Y-4.175
X7.4Y-4.525
X7.4226Y-3.1215
X7.4226Y-3.2215
X7.4226Y-3.3215
X7.4226Y-3.4215
X7.4226Y-3.5215
X7.4226Y-3.6215
X7.5Y-4.175
X7.5Y-4.525
X7.6Y-4.525
X7.825Y-4.05
X7.925Y-4.05
X8.025Y-4.05
X8.125Y-4.05
X8.225Y-4.05
T9
X5.3249Y-3.05
X5.3251Y-4.05
X5.4499Y-3.65
X5.4501Y-3.45
T10
X5.725Y-4.025
X7.125Y-3.575
T0
M30
