G04 #@! TF.FileFunction,Copper,L2,Bot,Signal*
%FSLAX46Y46*%
G04 Gerber Fmt 4.6, Leading zero omitted, Abs format (unit mm)*
G04 Created by KiCad (PCBNEW 4.0.3+e1-6302~38~ubuntu15.04.1-stable) date Sat Aug 20 23:13:29 2016*
%MOMM*%
%LPD*%
G01*
G04 APERTURE LIST*
%ADD10C,0.100000*%
%ADD11R,1.750000X1.750000*%
%ADD12C,1.750000*%
%ADD13R,1.300000X1.300000*%
%ADD14C,1.300000*%
%ADD15C,1.998980*%
%ADD16R,1.998980X1.998980*%
%ADD17R,1.778000X1.300000*%
%ADD18O,1.778000X1.300000*%
%ADD19R,2.500000X1.100000*%
%ADD20O,2.500000X1.100000*%
%ADD21R,2.032000X2.032000*%
%ADD22O,2.032000X2.032000*%
%ADD23R,2.032000X1.727200*%
%ADD24O,2.032000X1.727200*%
%ADD25R,1.727200X2.032000*%
%ADD26O,1.727200X2.032000*%
%ADD27C,1.397000*%
%ADD28C,1.699260*%
%ADD29R,1.699260X1.699260*%
%ADD30C,1.524000*%
%ADD31C,3.200000*%
%ADD32C,0.500000*%
%ADD33C,0.254000*%
G04 APERTURE END LIST*
D10*
D11*
X161925000Y-83820000D03*
D12*
X159425000Y-83820000D03*
D13*
X142240000Y-79375000D03*
D14*
X144740000Y-79375000D03*
D15*
X138432540Y-87630000D03*
D16*
X138432540Y-77470000D03*
D15*
X138427460Y-92710000D03*
D16*
X138427460Y-102870000D03*
D15*
X135252460Y-77470000D03*
D16*
X135252460Y-87630000D03*
D15*
X135257540Y-102870000D03*
D16*
X135257540Y-92710000D03*
D11*
X128905000Y-80645000D03*
D12*
X128905000Y-83145000D03*
D11*
X128905000Y-90170000D03*
D12*
X128905000Y-92670000D03*
D15*
X155575000Y-90170000D03*
X165735000Y-90170000D03*
X165735000Y-93345000D03*
X155575000Y-93345000D03*
D17*
X142875000Y-87630000D03*
D18*
X142875000Y-90170000D03*
X150495000Y-90170000D03*
X150495000Y-87630000D03*
D19*
X195515000Y-81280000D03*
D20*
X195515000Y-83280000D03*
X195515000Y-85280000D03*
X195515000Y-87280000D03*
X195515000Y-89280000D03*
X195515000Y-91280000D03*
X195515000Y-93280000D03*
X195515000Y-95280000D03*
X210915000Y-95280000D03*
X210815000Y-93280000D03*
X210915000Y-91280000D03*
X210915000Y-89280000D03*
X210915000Y-87280000D03*
X210915000Y-85280000D03*
X210915000Y-83280000D03*
X210915000Y-81280000D03*
D21*
X190500000Y-106045000D03*
D22*
X187960000Y-106045000D03*
D23*
X188535000Y-91985000D03*
D24*
X188535000Y-89445000D03*
X188535000Y-86905000D03*
X188535000Y-84365000D03*
X188535000Y-81825000D03*
X188535000Y-79285000D03*
D25*
X208915000Y-102870000D03*
D26*
X206375000Y-102870000D03*
X203835000Y-102870000D03*
X201295000Y-102870000D03*
X198755000Y-102870000D03*
D25*
X187960000Y-114935000D03*
D26*
X190500000Y-114935000D03*
X193040000Y-114935000D03*
D15*
X167640000Y-98425000D03*
X167640000Y-108585000D03*
X170815000Y-108585000D03*
X170815000Y-98425000D03*
X180975000Y-102235000D03*
X191135000Y-102235000D03*
D27*
X182880000Y-78740000D03*
X182880000Y-83820000D03*
X175260000Y-78740000D03*
X175260000Y-83820000D03*
D28*
X156207460Y-104774480D03*
D29*
X156207460Y-114934480D03*
D15*
X160020000Y-112395000D03*
X160020000Y-102235000D03*
D30*
X123571000Y-112014000D03*
X123571000Y-109474000D03*
X131191000Y-112014000D03*
X131191000Y-109474000D03*
X131191000Y-99314000D03*
X123571000Y-99314000D03*
X151765000Y-109855000D03*
X151765000Y-107315000D03*
X151765000Y-112395000D03*
D31*
X145415000Y-102235000D03*
X180975000Y-90805000D03*
D32*
X131191000Y-99314000D02*
X123571000Y-99314000D01*
D33*
G36*
X193548000Y-76252606D02*
X193548000Y-79375000D01*
X193558006Y-79424410D01*
X193585197Y-79464803D01*
X194212780Y-80092386D01*
X194029683Y-80126838D01*
X193813559Y-80265910D01*
X193668569Y-80478110D01*
X193617560Y-80730000D01*
X193617560Y-81830000D01*
X193661838Y-82065317D01*
X193800910Y-82281441D01*
X193988615Y-82409694D01*
X193940149Y-82442078D01*
X193683274Y-82826520D01*
X193593071Y-83280000D01*
X193683274Y-83733480D01*
X193940149Y-84117922D01*
X194182717Y-84280000D01*
X193940149Y-84442078D01*
X193683274Y-84826520D01*
X193593071Y-85280000D01*
X193683274Y-85733480D01*
X193940149Y-86117922D01*
X194182717Y-86280000D01*
X193940149Y-86442078D01*
X193683274Y-86826520D01*
X193593071Y-87280000D01*
X193683274Y-87733480D01*
X193940149Y-88117922D01*
X194182717Y-88280000D01*
X193940149Y-88442078D01*
X193683274Y-88826520D01*
X193593071Y-89280000D01*
X193683274Y-89733480D01*
X193940149Y-90117922D01*
X194182717Y-90280000D01*
X193940149Y-90442078D01*
X193683274Y-90826520D01*
X193593071Y-91280000D01*
X193683274Y-91733480D01*
X193940149Y-92117922D01*
X194182717Y-92280000D01*
X193940149Y-92442078D01*
X193683274Y-92826520D01*
X193593071Y-93280000D01*
X193683274Y-93733480D01*
X193940149Y-94117922D01*
X194182717Y-94280000D01*
X193940149Y-94442078D01*
X193683274Y-94826520D01*
X193593071Y-95280000D01*
X193683274Y-95733480D01*
X193940149Y-96117922D01*
X194324591Y-96374797D01*
X194778071Y-96465000D01*
X196251929Y-96465000D01*
X196705409Y-96374797D01*
X197089851Y-96117922D01*
X197346726Y-95733480D01*
X197375316Y-95589744D01*
X209071197Y-95589744D01*
X209071602Y-95616146D01*
X209287276Y-96028118D01*
X209644187Y-96326196D01*
X210088000Y-96465000D01*
X210788000Y-96465000D01*
X210788000Y-95407000D01*
X211042000Y-95407000D01*
X211042000Y-96465000D01*
X211742000Y-96465000D01*
X212185813Y-96326196D01*
X212542724Y-96028118D01*
X212758398Y-95616146D01*
X212758803Y-95589744D01*
X212633361Y-95407000D01*
X211042000Y-95407000D01*
X210788000Y-95407000D01*
X209196639Y-95407000D01*
X209071197Y-95589744D01*
X197375316Y-95589744D01*
X197436929Y-95280000D01*
X197346726Y-94826520D01*
X197089851Y-94442078D01*
X196847283Y-94280000D01*
X197089851Y-94117922D01*
X197346726Y-93733480D01*
X197375316Y-93589744D01*
X208971197Y-93589744D01*
X208971602Y-93616146D01*
X209187276Y-94028118D01*
X209538873Y-94321758D01*
X209287276Y-94531882D01*
X209071602Y-94943854D01*
X209071197Y-94970256D01*
X209196639Y-95153000D01*
X210788000Y-95153000D01*
X210788000Y-94095000D01*
X210688000Y-94095000D01*
X210688000Y-93407000D01*
X210942000Y-93407000D01*
X210942000Y-94465000D01*
X211042000Y-94465000D01*
X211042000Y-95153000D01*
X212633361Y-95153000D01*
X212758803Y-94970256D01*
X212758398Y-94943854D01*
X212542724Y-94531882D01*
X212191127Y-94238242D01*
X212442724Y-94028118D01*
X212658398Y-93616146D01*
X212658803Y-93589744D01*
X212533361Y-93407000D01*
X210942000Y-93407000D01*
X210688000Y-93407000D01*
X209096639Y-93407000D01*
X208971197Y-93589744D01*
X197375316Y-93589744D01*
X197436929Y-93280000D01*
X197346726Y-92826520D01*
X197089851Y-92442078D01*
X196847283Y-92280000D01*
X197089851Y-92117922D01*
X197346726Y-91733480D01*
X197436929Y-91280000D01*
X197346726Y-90826520D01*
X197089851Y-90442078D01*
X196847283Y-90280000D01*
X197089851Y-90117922D01*
X197346726Y-89733480D01*
X197436929Y-89280000D01*
X197346726Y-88826520D01*
X197089851Y-88442078D01*
X196847283Y-88280000D01*
X197089851Y-88117922D01*
X197346726Y-87733480D01*
X197436929Y-87280000D01*
X197346726Y-86826520D01*
X197089851Y-86442078D01*
X196847283Y-86280000D01*
X197089851Y-86117922D01*
X197346726Y-85733480D01*
X197436929Y-85280000D01*
X197346726Y-84826520D01*
X197089851Y-84442078D01*
X196847283Y-84280000D01*
X197089851Y-84117922D01*
X197346726Y-83733480D01*
X197436929Y-83280000D01*
X197346726Y-82826520D01*
X197089851Y-82442078D01*
X197039129Y-82408187D01*
X197216441Y-82294090D01*
X197361431Y-82081890D01*
X197412440Y-81830000D01*
X197412440Y-80730000D01*
X197368162Y-80494683D01*
X197229090Y-80278559D01*
X197021911Y-80137000D01*
X209966923Y-80137000D01*
X209724591Y-80185203D01*
X209340149Y-80442078D01*
X209083274Y-80826520D01*
X208993071Y-81280000D01*
X209083274Y-81733480D01*
X209340149Y-82117922D01*
X209582717Y-82280000D01*
X209340149Y-82442078D01*
X209083274Y-82826520D01*
X208993071Y-83280000D01*
X209083274Y-83733480D01*
X209340149Y-84117922D01*
X209582717Y-84280000D01*
X209340149Y-84442078D01*
X209083274Y-84826520D01*
X208993071Y-85280000D01*
X209083274Y-85733480D01*
X209340149Y-86117922D01*
X209582717Y-86280000D01*
X209340149Y-86442078D01*
X209083274Y-86826520D01*
X208993071Y-87280000D01*
X209083274Y-87733480D01*
X209340149Y-88117922D01*
X209582717Y-88280000D01*
X209340149Y-88442078D01*
X209083274Y-88826520D01*
X208993071Y-89280000D01*
X209083274Y-89733480D01*
X209340149Y-90117922D01*
X209582717Y-90280000D01*
X209340149Y-90442078D01*
X209083274Y-90826520D01*
X208993071Y-91280000D01*
X209083274Y-91733480D01*
X209340149Y-92117922D01*
X209530583Y-92245165D01*
X209187276Y-92531882D01*
X208971602Y-92943854D01*
X208971197Y-92970256D01*
X209096639Y-93153000D01*
X210688000Y-93153000D01*
X210688000Y-93133000D01*
X210942000Y-93133000D01*
X210942000Y-93153000D01*
X212533361Y-93153000D01*
X212658803Y-92970256D01*
X212658398Y-92943854D01*
X212442724Y-92531882D01*
X212188309Y-92319405D01*
X212489851Y-92117922D01*
X212746726Y-91733480D01*
X212836929Y-91280000D01*
X212746726Y-90826520D01*
X212489851Y-90442078D01*
X212247283Y-90280000D01*
X212489851Y-90117922D01*
X212746726Y-89733480D01*
X212836929Y-89280000D01*
X212746726Y-88826520D01*
X212489851Y-88442078D01*
X212247283Y-88280000D01*
X212489851Y-88117922D01*
X212746726Y-87733480D01*
X212836929Y-87280000D01*
X212746726Y-86826520D01*
X212489851Y-86442078D01*
X212247283Y-86280000D01*
X212489851Y-86117922D01*
X212746726Y-85733480D01*
X212836929Y-85280000D01*
X212746726Y-84826520D01*
X212489851Y-84442078D01*
X212247283Y-84280000D01*
X212489851Y-84117922D01*
X212746726Y-83733480D01*
X212836929Y-83280000D01*
X212746726Y-82826520D01*
X212489851Y-82442078D01*
X212247283Y-82280000D01*
X212489851Y-82117922D01*
X212746726Y-81733480D01*
X212836929Y-81280000D01*
X212746726Y-80826520D01*
X212489851Y-80442078D01*
X212105409Y-80185203D01*
X211863077Y-80137000D01*
X213307394Y-80137000D01*
X213868000Y-80697606D01*
X213868000Y-118692394D01*
X213354897Y-119205497D01*
X213116082Y-119253000D01*
X149277606Y-119253000D01*
X148717000Y-118692394D01*
X148717000Y-114084850D01*
X154710390Y-114084850D01*
X154710390Y-115784110D01*
X154754668Y-116019427D01*
X154893740Y-116235551D01*
X155105940Y-116380541D01*
X155357830Y-116431550D01*
X157057090Y-116431550D01*
X157292407Y-116387272D01*
X157508531Y-116248200D01*
X157653521Y-116036000D01*
X157704530Y-115784110D01*
X157704530Y-114084850D01*
X157660252Y-113849533D01*
X157521180Y-113633409D01*
X157308980Y-113488419D01*
X157057090Y-113437410D01*
X155357830Y-113437410D01*
X155122513Y-113481688D01*
X154906389Y-113620760D01*
X154761399Y-113832960D01*
X154710390Y-114084850D01*
X148717000Y-114084850D01*
X148717000Y-112671661D01*
X150367758Y-112671661D01*
X150579990Y-113185303D01*
X150972630Y-113578629D01*
X151485900Y-113791757D01*
X152041661Y-113792242D01*
X152555303Y-113580010D01*
X152948629Y-113187370D01*
X153143239Y-112718694D01*
X158385226Y-112718694D01*
X158633538Y-113319655D01*
X159092927Y-113779846D01*
X159693453Y-114029206D01*
X160343694Y-114029774D01*
X160611787Y-113919000D01*
X186448960Y-113919000D01*
X186448960Y-115951000D01*
X186493238Y-116186317D01*
X186632310Y-116402441D01*
X186844510Y-116547431D01*
X187096400Y-116598440D01*
X188823600Y-116598440D01*
X189058917Y-116554162D01*
X189275041Y-116415090D01*
X189420031Y-116202890D01*
X189428400Y-116161561D01*
X189440330Y-116179415D01*
X189926511Y-116504271D01*
X190500000Y-116618345D01*
X191073489Y-116504271D01*
X191559670Y-116179415D01*
X191766461Y-115869931D01*
X192137964Y-116285732D01*
X192665209Y-116539709D01*
X192680974Y-116542358D01*
X192913000Y-116421217D01*
X192913000Y-115062000D01*
X193167000Y-115062000D01*
X193167000Y-116421217D01*
X193399026Y-116542358D01*
X193414791Y-116539709D01*
X193942036Y-116285732D01*
X194331954Y-115849320D01*
X194525184Y-115296913D01*
X194380924Y-115062000D01*
X193167000Y-115062000D01*
X192913000Y-115062000D01*
X192893000Y-115062000D01*
X192893000Y-114808000D01*
X192913000Y-114808000D01*
X192913000Y-113448783D01*
X193167000Y-113448783D01*
X193167000Y-114808000D01*
X194380924Y-114808000D01*
X194525184Y-114573087D01*
X194331954Y-114020680D01*
X193942036Y-113584268D01*
X193414791Y-113330291D01*
X193399026Y-113327642D01*
X193167000Y-113448783D01*
X192913000Y-113448783D01*
X192680974Y-113327642D01*
X192665209Y-113330291D01*
X192137964Y-113584268D01*
X191766461Y-114000069D01*
X191559670Y-113690585D01*
X191073489Y-113365729D01*
X190500000Y-113251655D01*
X189926511Y-113365729D01*
X189440330Y-113690585D01*
X189430757Y-113704913D01*
X189426762Y-113683683D01*
X189287690Y-113467559D01*
X189075490Y-113322569D01*
X188823600Y-113271560D01*
X187096400Y-113271560D01*
X186861083Y-113315838D01*
X186644959Y-113454910D01*
X186499969Y-113667110D01*
X186448960Y-113919000D01*
X160611787Y-113919000D01*
X160944655Y-113781462D01*
X161404846Y-113322073D01*
X161654206Y-112721547D01*
X161654774Y-112071306D01*
X161406462Y-111470345D01*
X160947073Y-111010154D01*
X160346547Y-110760794D01*
X159696306Y-110760226D01*
X159095345Y-111008538D01*
X158635154Y-111467927D01*
X158385794Y-112068453D01*
X158385226Y-112718694D01*
X153143239Y-112718694D01*
X153161757Y-112674100D01*
X153162242Y-112118339D01*
X152950010Y-111604697D01*
X152557370Y-111211371D01*
X152365273Y-111131605D01*
X152496143Y-111077397D01*
X152565608Y-110835213D01*
X151765000Y-110034605D01*
X150964392Y-110835213D01*
X151033857Y-111077397D01*
X151174318Y-111127509D01*
X150974697Y-111209990D01*
X150581371Y-111602630D01*
X150368243Y-112115900D01*
X150367758Y-112671661D01*
X148717000Y-112671661D01*
X148717000Y-109647302D01*
X150355856Y-109647302D01*
X150383638Y-110202368D01*
X150542603Y-110586143D01*
X150784787Y-110655608D01*
X151585395Y-109855000D01*
X151944605Y-109855000D01*
X152745213Y-110655608D01*
X152987397Y-110586143D01*
X153174144Y-110062698D01*
X153157851Y-109737163D01*
X166667443Y-109737163D01*
X166766042Y-110003965D01*
X167375582Y-110230401D01*
X168025377Y-110206341D01*
X168513958Y-110003965D01*
X168612557Y-109737163D01*
X167640000Y-108764605D01*
X166667443Y-109737163D01*
X153157851Y-109737163D01*
X153146362Y-109507632D01*
X152987397Y-109123857D01*
X152745213Y-109054392D01*
X151944605Y-109855000D01*
X151585395Y-109855000D01*
X150784787Y-109054392D01*
X150542603Y-109123857D01*
X150355856Y-109647302D01*
X148717000Y-109647302D01*
X148717000Y-107591661D01*
X150367758Y-107591661D01*
X150579990Y-108105303D01*
X150972630Y-108498629D01*
X151164727Y-108578395D01*
X151033857Y-108632603D01*
X150964392Y-108874787D01*
X151765000Y-109675395D01*
X152565608Y-108874787D01*
X152496143Y-108632603D01*
X152355682Y-108582491D01*
X152555303Y-108500010D01*
X152735044Y-108320582D01*
X165994599Y-108320582D01*
X166018659Y-108970377D01*
X166221035Y-109458958D01*
X166487837Y-109557557D01*
X167460395Y-108585000D01*
X167819605Y-108585000D01*
X168792163Y-109557557D01*
X169058965Y-109458958D01*
X169224013Y-109014667D01*
X169428538Y-109509655D01*
X169887927Y-109969846D01*
X170488453Y-110219206D01*
X171138694Y-110219774D01*
X171739655Y-109971462D01*
X172199846Y-109512073D01*
X172449206Y-108911547D01*
X172449774Y-108261306D01*
X172201462Y-107660345D01*
X171742073Y-107200154D01*
X171141547Y-106950794D01*
X170491306Y-106950226D01*
X169890345Y-107198538D01*
X169430154Y-107657927D01*
X169233316Y-108131965D01*
X169058965Y-107711042D01*
X168792163Y-107612443D01*
X167819605Y-108585000D01*
X167460395Y-108585000D01*
X166487837Y-107612443D01*
X166221035Y-107711042D01*
X165994599Y-108320582D01*
X152735044Y-108320582D01*
X152948629Y-108107370D01*
X153161757Y-107594100D01*
X153161897Y-107432837D01*
X166667443Y-107432837D01*
X167640000Y-108405395D01*
X168612557Y-107432837D01*
X168513958Y-107166035D01*
X167904418Y-106939599D01*
X167254623Y-106963659D01*
X166766042Y-107166035D01*
X166667443Y-107432837D01*
X153161897Y-107432837D01*
X153162242Y-107038339D01*
X152950010Y-106524697D01*
X152557370Y-106131371D01*
X152044100Y-105918243D01*
X151488339Y-105917758D01*
X150974697Y-106129990D01*
X150581371Y-106522630D01*
X150368243Y-107035900D01*
X150367758Y-107591661D01*
X148717000Y-107591661D01*
X148717000Y-105068496D01*
X154722572Y-105068496D01*
X154948118Y-105614357D01*
X155365386Y-106032354D01*
X155910853Y-106258852D01*
X156501476Y-106259368D01*
X157047337Y-106033822D01*
X157068540Y-106012655D01*
X186309000Y-106012655D01*
X186309000Y-106077345D01*
X186434675Y-106709155D01*
X186792567Y-107244778D01*
X187328190Y-107602670D01*
X187960000Y-107728345D01*
X188591810Y-107602670D01*
X188928001Y-107378034D01*
X188945673Y-107420698D01*
X189124301Y-107599327D01*
X189357690Y-107696000D01*
X190214250Y-107696000D01*
X190373000Y-107537250D01*
X190373000Y-106172000D01*
X190627000Y-106172000D01*
X190627000Y-107537250D01*
X190785750Y-107696000D01*
X191642310Y-107696000D01*
X191875699Y-107599327D01*
X192054327Y-107420698D01*
X192151000Y-107187309D01*
X192151000Y-106330750D01*
X191992250Y-106172000D01*
X190627000Y-106172000D01*
X190373000Y-106172000D01*
X190353000Y-106172000D01*
X190353000Y-105918000D01*
X190373000Y-105918000D01*
X190373000Y-104552750D01*
X190627000Y-104552750D01*
X190627000Y-105918000D01*
X191992250Y-105918000D01*
X192151000Y-105759250D01*
X192151000Y-104902691D01*
X192054327Y-104669302D01*
X191875699Y-104490673D01*
X191642310Y-104394000D01*
X190785750Y-104394000D01*
X190627000Y-104552750D01*
X190373000Y-104552750D01*
X190214250Y-104394000D01*
X189357690Y-104394000D01*
X189124301Y-104490673D01*
X188945673Y-104669302D01*
X188928001Y-104711966D01*
X188591810Y-104487330D01*
X187960000Y-104361655D01*
X187328190Y-104487330D01*
X186792567Y-104845222D01*
X186434675Y-105380845D01*
X186309000Y-106012655D01*
X157068540Y-106012655D01*
X157465334Y-105616554D01*
X157691832Y-105071087D01*
X157692348Y-104480464D01*
X157466802Y-103934603D01*
X157049534Y-103516606D01*
X156504067Y-103290108D01*
X155913444Y-103289592D01*
X155367583Y-103515138D01*
X154949586Y-103932406D01*
X154723088Y-104477873D01*
X154722572Y-105068496D01*
X148717000Y-105068496D01*
X148717000Y-104001549D01*
X149141351Y-102979598D01*
X149141718Y-102558694D01*
X158385226Y-102558694D01*
X158633538Y-103159655D01*
X159092927Y-103619846D01*
X159693453Y-103869206D01*
X160343694Y-103869774D01*
X160944655Y-103621462D01*
X161404846Y-103162073D01*
X161654206Y-102561547D01*
X161654208Y-102558694D01*
X179340226Y-102558694D01*
X179588538Y-103159655D01*
X180047927Y-103619846D01*
X180648453Y-103869206D01*
X181298694Y-103869774D01*
X181899655Y-103621462D01*
X182359846Y-103162073D01*
X182609206Y-102561547D01*
X182609208Y-102558694D01*
X189500226Y-102558694D01*
X189748538Y-103159655D01*
X190207927Y-103619846D01*
X190808453Y-103869206D01*
X191458694Y-103869774D01*
X192059655Y-103621462D01*
X192519846Y-103162073D01*
X192717837Y-102685255D01*
X197256400Y-102685255D01*
X197256400Y-103054745D01*
X197370474Y-103628234D01*
X197695330Y-104114415D01*
X198181511Y-104439271D01*
X198755000Y-104553345D01*
X199328489Y-104439271D01*
X199814670Y-104114415D01*
X200025000Y-103799634D01*
X200235330Y-104114415D01*
X200721511Y-104439271D01*
X201295000Y-104553345D01*
X201868489Y-104439271D01*
X202354670Y-104114415D01*
X202565000Y-103799634D01*
X202775330Y-104114415D01*
X203261511Y-104439271D01*
X203835000Y-104553345D01*
X204408489Y-104439271D01*
X204894670Y-104114415D01*
X205105000Y-103799634D01*
X205315330Y-104114415D01*
X205801511Y-104439271D01*
X206375000Y-104553345D01*
X206948489Y-104439271D01*
X207434670Y-104114415D01*
X207449500Y-104092220D01*
X207513073Y-104245698D01*
X207691701Y-104424327D01*
X207925090Y-104521000D01*
X208629250Y-104521000D01*
X208788000Y-104362250D01*
X208788000Y-102997000D01*
X209042000Y-102997000D01*
X209042000Y-104362250D01*
X209200750Y-104521000D01*
X209904910Y-104521000D01*
X210138299Y-104424327D01*
X210316927Y-104245698D01*
X210413600Y-104012309D01*
X210413600Y-103155750D01*
X210254850Y-102997000D01*
X209042000Y-102997000D01*
X208788000Y-102997000D01*
X208768000Y-102997000D01*
X208768000Y-102743000D01*
X208788000Y-102743000D01*
X208788000Y-101377750D01*
X209042000Y-101377750D01*
X209042000Y-102743000D01*
X210254850Y-102743000D01*
X210413600Y-102584250D01*
X210413600Y-101727691D01*
X210316927Y-101494302D01*
X210138299Y-101315673D01*
X209904910Y-101219000D01*
X209200750Y-101219000D01*
X209042000Y-101377750D01*
X208788000Y-101377750D01*
X208629250Y-101219000D01*
X207925090Y-101219000D01*
X207691701Y-101315673D01*
X207513073Y-101494302D01*
X207449500Y-101647780D01*
X207434670Y-101625585D01*
X206948489Y-101300729D01*
X206375000Y-101186655D01*
X205801511Y-101300729D01*
X205315330Y-101625585D01*
X205105000Y-101940366D01*
X204894670Y-101625585D01*
X204408489Y-101300729D01*
X203835000Y-101186655D01*
X203261511Y-101300729D01*
X202775330Y-101625585D01*
X202565000Y-101940366D01*
X202354670Y-101625585D01*
X201868489Y-101300729D01*
X201295000Y-101186655D01*
X200721511Y-101300729D01*
X200235330Y-101625585D01*
X200025000Y-101940366D01*
X199814670Y-101625585D01*
X199328489Y-101300729D01*
X198755000Y-101186655D01*
X198181511Y-101300729D01*
X197695330Y-101625585D01*
X197370474Y-102111766D01*
X197256400Y-102685255D01*
X192717837Y-102685255D01*
X192769206Y-102561547D01*
X192769774Y-101911306D01*
X192521462Y-101310345D01*
X192062073Y-100850154D01*
X191461547Y-100600794D01*
X190811306Y-100600226D01*
X190210345Y-100848538D01*
X189750154Y-101307927D01*
X189500794Y-101908453D01*
X189500226Y-102558694D01*
X182609208Y-102558694D01*
X182609774Y-101911306D01*
X182361462Y-101310345D01*
X181902073Y-100850154D01*
X181301547Y-100600794D01*
X180651306Y-100600226D01*
X180050345Y-100848538D01*
X179590154Y-101307927D01*
X179340794Y-101908453D01*
X179340226Y-102558694D01*
X161654208Y-102558694D01*
X161654774Y-101911306D01*
X161406462Y-101310345D01*
X160947073Y-100850154D01*
X160346547Y-100600794D01*
X159696306Y-100600226D01*
X159095345Y-100848538D01*
X158635154Y-101307927D01*
X158385794Y-101908453D01*
X158385226Y-102558694D01*
X149141718Y-102558694D01*
X149142645Y-101496906D01*
X148717000Y-100466766D01*
X148717000Y-98748694D01*
X166005226Y-98748694D01*
X166253538Y-99349655D01*
X166712927Y-99809846D01*
X167313453Y-100059206D01*
X167963694Y-100059774D01*
X168564655Y-99811462D01*
X169024846Y-99352073D01*
X169227691Y-98863568D01*
X169428538Y-99349655D01*
X169887927Y-99809846D01*
X170488453Y-100059206D01*
X171138694Y-100059774D01*
X171739655Y-99811462D01*
X172199846Y-99352073D01*
X172449206Y-98751547D01*
X172449774Y-98101306D01*
X172201462Y-97500345D01*
X171742073Y-97040154D01*
X171141547Y-96790794D01*
X170491306Y-96790226D01*
X169890345Y-97038538D01*
X169430154Y-97497927D01*
X169227309Y-97986432D01*
X169026462Y-97500345D01*
X168567073Y-97040154D01*
X167966547Y-96790794D01*
X167316306Y-96790226D01*
X166715345Y-97038538D01*
X166255154Y-97497927D01*
X166005794Y-98098453D01*
X166005226Y-98748694D01*
X148717000Y-98748694D01*
X148717000Y-87630000D01*
X148941143Y-87630000D01*
X149038958Y-88121748D01*
X149317511Y-88538632D01*
X149734395Y-88817185D01*
X150150733Y-88900000D01*
X149734395Y-88982815D01*
X149317511Y-89261368D01*
X149038958Y-89678252D01*
X148941143Y-90170000D01*
X149038958Y-90661748D01*
X149317511Y-91078632D01*
X149734395Y-91357185D01*
X150226143Y-91455000D01*
X150763857Y-91455000D01*
X151255605Y-91357185D01*
X151672489Y-91078632D01*
X151951042Y-90661748D01*
X151984470Y-90493694D01*
X153940226Y-90493694D01*
X154188538Y-91094655D01*
X154647927Y-91554846D01*
X155136432Y-91757691D01*
X154650345Y-91958538D01*
X154190154Y-92417927D01*
X153940794Y-93018453D01*
X153940226Y-93668694D01*
X154188538Y-94269655D01*
X154647927Y-94729846D01*
X155248453Y-94979206D01*
X155898694Y-94979774D01*
X156499655Y-94731462D01*
X156959846Y-94272073D01*
X157209206Y-93671547D01*
X157209208Y-93668694D01*
X164100226Y-93668694D01*
X164348538Y-94269655D01*
X164807927Y-94729846D01*
X165408453Y-94979206D01*
X166058694Y-94979774D01*
X166659655Y-94731462D01*
X167119846Y-94272073D01*
X167369206Y-93671547D01*
X167369774Y-93021306D01*
X167121462Y-92420345D01*
X166662073Y-91960154D01*
X166188035Y-91763316D01*
X166608958Y-91588965D01*
X166625910Y-91543094D01*
X177247355Y-91543094D01*
X177813561Y-92913418D01*
X178861068Y-93962754D01*
X180230402Y-94531351D01*
X181713094Y-94532645D01*
X183083418Y-93966439D01*
X184132754Y-92918932D01*
X184401902Y-92270750D01*
X186884000Y-92270750D01*
X186884000Y-92974910D01*
X186980673Y-93208299D01*
X187159302Y-93386927D01*
X187392691Y-93483600D01*
X188249250Y-93483600D01*
X188408000Y-93324850D01*
X188408000Y-92112000D01*
X188662000Y-92112000D01*
X188662000Y-93324850D01*
X188820750Y-93483600D01*
X189677309Y-93483600D01*
X189910698Y-93386927D01*
X190089327Y-93208299D01*
X190186000Y-92974910D01*
X190186000Y-92270750D01*
X190027250Y-92112000D01*
X188662000Y-92112000D01*
X188408000Y-92112000D01*
X187042750Y-92112000D01*
X186884000Y-92270750D01*
X184401902Y-92270750D01*
X184701351Y-91549598D01*
X184702645Y-90066906D01*
X184136439Y-88696582D01*
X183088932Y-87647246D01*
X181719598Y-87078649D01*
X180236906Y-87077355D01*
X178866582Y-87643561D01*
X177817246Y-88691068D01*
X177248649Y-90060402D01*
X177247355Y-91543094D01*
X166625910Y-91543094D01*
X166707557Y-91322163D01*
X165735000Y-90349605D01*
X164762443Y-91322163D01*
X164861042Y-91588965D01*
X165305333Y-91754013D01*
X164810345Y-91958538D01*
X164350154Y-92417927D01*
X164100794Y-93018453D01*
X164100226Y-93668694D01*
X157209208Y-93668694D01*
X157209774Y-93021306D01*
X156961462Y-92420345D01*
X156502073Y-91960154D01*
X156013568Y-91757309D01*
X156499655Y-91556462D01*
X156959846Y-91097073D01*
X157209206Y-90496547D01*
X157209722Y-89905582D01*
X164089599Y-89905582D01*
X164113659Y-90555377D01*
X164316035Y-91043958D01*
X164582837Y-91142557D01*
X165555395Y-90170000D01*
X165914605Y-90170000D01*
X166887163Y-91142557D01*
X167153965Y-91043958D01*
X167380401Y-90434418D01*
X167356341Y-89784623D01*
X167153965Y-89296042D01*
X166887163Y-89197443D01*
X165914605Y-90170000D01*
X165555395Y-90170000D01*
X164582837Y-89197443D01*
X164316035Y-89296042D01*
X164089599Y-89905582D01*
X157209722Y-89905582D01*
X157209774Y-89846306D01*
X156961462Y-89245345D01*
X156734351Y-89017837D01*
X164762443Y-89017837D01*
X165735000Y-89990395D01*
X166707557Y-89017837D01*
X166608958Y-88751035D01*
X165999418Y-88524599D01*
X165349623Y-88548659D01*
X164861042Y-88751035D01*
X164762443Y-89017837D01*
X156734351Y-89017837D01*
X156502073Y-88785154D01*
X155901547Y-88535794D01*
X155251306Y-88535226D01*
X154650345Y-88783538D01*
X154190154Y-89242927D01*
X153940794Y-89843453D01*
X153940226Y-90493694D01*
X151984470Y-90493694D01*
X152048857Y-90170000D01*
X151951042Y-89678252D01*
X151672489Y-89261368D01*
X151255605Y-88982815D01*
X150839267Y-88900000D01*
X151255605Y-88817185D01*
X151672489Y-88538632D01*
X151951042Y-88121748D01*
X152048857Y-87630000D01*
X151951042Y-87138252D01*
X151672489Y-86721368D01*
X151255605Y-86442815D01*
X150763857Y-86345000D01*
X150226143Y-86345000D01*
X149734395Y-86442815D01*
X149317511Y-86721368D01*
X149038958Y-87138252D01*
X148941143Y-87630000D01*
X148717000Y-87630000D01*
X148717000Y-84119040D01*
X157914738Y-84119040D01*
X158144138Y-84674229D01*
X158568537Y-85099370D01*
X159123325Y-85329738D01*
X159724040Y-85330262D01*
X160279229Y-85100862D01*
X160448103Y-84932283D01*
X160585910Y-85146441D01*
X160798110Y-85291431D01*
X161050000Y-85342440D01*
X162800000Y-85342440D01*
X163035317Y-85298162D01*
X163251441Y-85159090D01*
X163396431Y-84946890D01*
X163435454Y-84754188D01*
X174505417Y-84754188D01*
X174567071Y-84989800D01*
X175067480Y-85165927D01*
X175597199Y-85137148D01*
X175952929Y-84989800D01*
X176014583Y-84754188D01*
X182125417Y-84754188D01*
X182187071Y-84989800D01*
X182687480Y-85165927D01*
X183217199Y-85137148D01*
X183572929Y-84989800D01*
X183634583Y-84754188D01*
X182880000Y-83999605D01*
X182125417Y-84754188D01*
X176014583Y-84754188D01*
X175260000Y-83999605D01*
X174505417Y-84754188D01*
X163435454Y-84754188D01*
X163447440Y-84695000D01*
X163447440Y-83627480D01*
X173914073Y-83627480D01*
X173942852Y-84157199D01*
X174090200Y-84512929D01*
X174325812Y-84574583D01*
X175080395Y-83820000D01*
X175439605Y-83820000D01*
X176194188Y-84574583D01*
X176429800Y-84512929D01*
X176605927Y-84012520D01*
X176585009Y-83627480D01*
X181534073Y-83627480D01*
X181562852Y-84157199D01*
X181710200Y-84512929D01*
X181945812Y-84574583D01*
X182700395Y-83820000D01*
X183059605Y-83820000D01*
X183814188Y-84574583D01*
X184049800Y-84512929D01*
X184225927Y-84012520D01*
X184197148Y-83482801D01*
X184049800Y-83127071D01*
X183814188Y-83065417D01*
X183059605Y-83820000D01*
X182700395Y-83820000D01*
X181945812Y-83065417D01*
X181710200Y-83127071D01*
X181534073Y-83627480D01*
X176585009Y-83627480D01*
X176577148Y-83482801D01*
X176429800Y-83127071D01*
X176194188Y-83065417D01*
X175439605Y-83820000D01*
X175080395Y-83820000D01*
X174325812Y-83065417D01*
X174090200Y-83127071D01*
X173914073Y-83627480D01*
X163447440Y-83627480D01*
X163447440Y-82945000D01*
X163436303Y-82885812D01*
X174505417Y-82885812D01*
X175260000Y-83640395D01*
X176014583Y-82885812D01*
X182125417Y-82885812D01*
X182880000Y-83640395D01*
X183634583Y-82885812D01*
X183572929Y-82650200D01*
X183072520Y-82474073D01*
X182542801Y-82502852D01*
X182187071Y-82650200D01*
X182125417Y-82885812D01*
X176014583Y-82885812D01*
X175952929Y-82650200D01*
X175452520Y-82474073D01*
X174922801Y-82502852D01*
X174567071Y-82650200D01*
X174505417Y-82885812D01*
X163436303Y-82885812D01*
X163403162Y-82709683D01*
X163264090Y-82493559D01*
X163051890Y-82348569D01*
X162800000Y-82297560D01*
X161050000Y-82297560D01*
X160814683Y-82341838D01*
X160598559Y-82480910D01*
X160453569Y-82693110D01*
X160450214Y-82709676D01*
X160281463Y-82540630D01*
X159726675Y-82310262D01*
X159125960Y-82309738D01*
X158570771Y-82539138D01*
X158145630Y-82963537D01*
X157915262Y-83518325D01*
X157914738Y-84119040D01*
X148717000Y-84119040D01*
X148717000Y-79004086D01*
X173926269Y-79004086D01*
X174128854Y-79494380D01*
X174503647Y-79869827D01*
X174993587Y-80073268D01*
X175524086Y-80073731D01*
X176014380Y-79871146D01*
X176389827Y-79496353D01*
X176593268Y-79006413D01*
X176593270Y-79004086D01*
X181546269Y-79004086D01*
X181748854Y-79494380D01*
X182123647Y-79869827D01*
X182613587Y-80073268D01*
X183144086Y-80073731D01*
X183634380Y-79871146D01*
X184009827Y-79496353D01*
X184097588Y-79285000D01*
X186851655Y-79285000D01*
X186965729Y-79858489D01*
X187290585Y-80344670D01*
X187605366Y-80555000D01*
X187290585Y-80765330D01*
X186965729Y-81251511D01*
X186851655Y-81825000D01*
X186965729Y-82398489D01*
X187290585Y-82884670D01*
X187605366Y-83095000D01*
X187290585Y-83305330D01*
X186965729Y-83791511D01*
X186851655Y-84365000D01*
X186965729Y-84938489D01*
X187290585Y-85424670D01*
X187605366Y-85635000D01*
X187290585Y-85845330D01*
X186965729Y-86331511D01*
X186851655Y-86905000D01*
X186965729Y-87478489D01*
X187290585Y-87964670D01*
X187605366Y-88175000D01*
X187290585Y-88385330D01*
X186965729Y-88871511D01*
X186851655Y-89445000D01*
X186965729Y-90018489D01*
X187290585Y-90504670D01*
X187312780Y-90519500D01*
X187159302Y-90583073D01*
X186980673Y-90761701D01*
X186884000Y-90995090D01*
X186884000Y-91699250D01*
X187042750Y-91858000D01*
X188408000Y-91858000D01*
X188408000Y-91838000D01*
X188662000Y-91838000D01*
X188662000Y-91858000D01*
X190027250Y-91858000D01*
X190186000Y-91699250D01*
X190186000Y-90995090D01*
X190089327Y-90761701D01*
X189910698Y-90583073D01*
X189757220Y-90519500D01*
X189779415Y-90504670D01*
X190104271Y-90018489D01*
X190218345Y-89445000D01*
X190104271Y-88871511D01*
X189779415Y-88385330D01*
X189464634Y-88175000D01*
X189779415Y-87964670D01*
X190104271Y-87478489D01*
X190218345Y-86905000D01*
X190104271Y-86331511D01*
X189779415Y-85845330D01*
X189464634Y-85635000D01*
X189779415Y-85424670D01*
X190104271Y-84938489D01*
X190218345Y-84365000D01*
X190104271Y-83791511D01*
X189779415Y-83305330D01*
X189464634Y-83095000D01*
X189779415Y-82884670D01*
X190104271Y-82398489D01*
X190218345Y-81825000D01*
X190104271Y-81251511D01*
X189779415Y-80765330D01*
X189464634Y-80555000D01*
X189779415Y-80344670D01*
X190104271Y-79858489D01*
X190218345Y-79285000D01*
X190104271Y-78711511D01*
X189779415Y-78225330D01*
X189293234Y-77900474D01*
X188719745Y-77786400D01*
X188350255Y-77786400D01*
X187776766Y-77900474D01*
X187290585Y-78225330D01*
X186965729Y-78711511D01*
X186851655Y-79285000D01*
X184097588Y-79285000D01*
X184213268Y-79006413D01*
X184213731Y-78475914D01*
X184011146Y-77985620D01*
X183636353Y-77610173D01*
X183146413Y-77406732D01*
X182615914Y-77406269D01*
X182125620Y-77608854D01*
X181750173Y-77983647D01*
X181546732Y-78473587D01*
X181546269Y-79004086D01*
X176593270Y-79004086D01*
X176593731Y-78475914D01*
X176391146Y-77985620D01*
X176016353Y-77610173D01*
X175526413Y-77406732D01*
X174995914Y-77406269D01*
X174505620Y-77608854D01*
X174130173Y-77983647D01*
X173926732Y-78473587D01*
X173926269Y-79004086D01*
X148717000Y-79004086D01*
X148717000Y-76252606D01*
X149259606Y-75710000D01*
X193005394Y-75710000D01*
X193548000Y-76252606D01*
X193548000Y-76252606D01*
G37*
X193548000Y-76252606D02*
X193548000Y-79375000D01*
X193558006Y-79424410D01*
X193585197Y-79464803D01*
X194212780Y-80092386D01*
X194029683Y-80126838D01*
X193813559Y-80265910D01*
X193668569Y-80478110D01*
X193617560Y-80730000D01*
X193617560Y-81830000D01*
X193661838Y-82065317D01*
X193800910Y-82281441D01*
X193988615Y-82409694D01*
X193940149Y-82442078D01*
X193683274Y-82826520D01*
X193593071Y-83280000D01*
X193683274Y-83733480D01*
X193940149Y-84117922D01*
X194182717Y-84280000D01*
X193940149Y-84442078D01*
X193683274Y-84826520D01*
X193593071Y-85280000D01*
X193683274Y-85733480D01*
X193940149Y-86117922D01*
X194182717Y-86280000D01*
X193940149Y-86442078D01*
X193683274Y-86826520D01*
X193593071Y-87280000D01*
X193683274Y-87733480D01*
X193940149Y-88117922D01*
X194182717Y-88280000D01*
X193940149Y-88442078D01*
X193683274Y-88826520D01*
X193593071Y-89280000D01*
X193683274Y-89733480D01*
X193940149Y-90117922D01*
X194182717Y-90280000D01*
X193940149Y-90442078D01*
X193683274Y-90826520D01*
X193593071Y-91280000D01*
X193683274Y-91733480D01*
X193940149Y-92117922D01*
X194182717Y-92280000D01*
X193940149Y-92442078D01*
X193683274Y-92826520D01*
X193593071Y-93280000D01*
X193683274Y-93733480D01*
X193940149Y-94117922D01*
X194182717Y-94280000D01*
X193940149Y-94442078D01*
X193683274Y-94826520D01*
X193593071Y-95280000D01*
X193683274Y-95733480D01*
X193940149Y-96117922D01*
X194324591Y-96374797D01*
X194778071Y-96465000D01*
X196251929Y-96465000D01*
X196705409Y-96374797D01*
X197089851Y-96117922D01*
X197346726Y-95733480D01*
X197375316Y-95589744D01*
X209071197Y-95589744D01*
X209071602Y-95616146D01*
X209287276Y-96028118D01*
X209644187Y-96326196D01*
X210088000Y-96465000D01*
X210788000Y-96465000D01*
X210788000Y-95407000D01*
X211042000Y-95407000D01*
X211042000Y-96465000D01*
X211742000Y-96465000D01*
X212185813Y-96326196D01*
X212542724Y-96028118D01*
X212758398Y-95616146D01*
X212758803Y-95589744D01*
X212633361Y-95407000D01*
X211042000Y-95407000D01*
X210788000Y-95407000D01*
X209196639Y-95407000D01*
X209071197Y-95589744D01*
X197375316Y-95589744D01*
X197436929Y-95280000D01*
X197346726Y-94826520D01*
X197089851Y-94442078D01*
X196847283Y-94280000D01*
X197089851Y-94117922D01*
X197346726Y-93733480D01*
X197375316Y-93589744D01*
X208971197Y-93589744D01*
X208971602Y-93616146D01*
X209187276Y-94028118D01*
X209538873Y-94321758D01*
X209287276Y-94531882D01*
X209071602Y-94943854D01*
X209071197Y-94970256D01*
X209196639Y-95153000D01*
X210788000Y-95153000D01*
X210788000Y-94095000D01*
X210688000Y-94095000D01*
X210688000Y-93407000D01*
X210942000Y-93407000D01*
X210942000Y-94465000D01*
X211042000Y-94465000D01*
X211042000Y-95153000D01*
X212633361Y-95153000D01*
X212758803Y-94970256D01*
X212758398Y-94943854D01*
X212542724Y-94531882D01*
X212191127Y-94238242D01*
X212442724Y-94028118D01*
X212658398Y-93616146D01*
X212658803Y-93589744D01*
X212533361Y-93407000D01*
X210942000Y-93407000D01*
X210688000Y-93407000D01*
X209096639Y-93407000D01*
X208971197Y-93589744D01*
X197375316Y-93589744D01*
X197436929Y-93280000D01*
X197346726Y-92826520D01*
X197089851Y-92442078D01*
X196847283Y-92280000D01*
X197089851Y-92117922D01*
X197346726Y-91733480D01*
X197436929Y-91280000D01*
X197346726Y-90826520D01*
X197089851Y-90442078D01*
X196847283Y-90280000D01*
X197089851Y-90117922D01*
X197346726Y-89733480D01*
X197436929Y-89280000D01*
X197346726Y-88826520D01*
X197089851Y-88442078D01*
X196847283Y-88280000D01*
X197089851Y-88117922D01*
X197346726Y-87733480D01*
X197436929Y-87280000D01*
X197346726Y-86826520D01*
X197089851Y-86442078D01*
X196847283Y-86280000D01*
X197089851Y-86117922D01*
X197346726Y-85733480D01*
X197436929Y-85280000D01*
X197346726Y-84826520D01*
X197089851Y-84442078D01*
X196847283Y-84280000D01*
X197089851Y-84117922D01*
X197346726Y-83733480D01*
X197436929Y-83280000D01*
X197346726Y-82826520D01*
X197089851Y-82442078D01*
X197039129Y-82408187D01*
X197216441Y-82294090D01*
X197361431Y-82081890D01*
X197412440Y-81830000D01*
X197412440Y-80730000D01*
X197368162Y-80494683D01*
X197229090Y-80278559D01*
X197021911Y-80137000D01*
X209966923Y-80137000D01*
X209724591Y-80185203D01*
X209340149Y-80442078D01*
X209083274Y-80826520D01*
X208993071Y-81280000D01*
X209083274Y-81733480D01*
X209340149Y-82117922D01*
X209582717Y-82280000D01*
X209340149Y-82442078D01*
X209083274Y-82826520D01*
X208993071Y-83280000D01*
X209083274Y-83733480D01*
X209340149Y-84117922D01*
X209582717Y-84280000D01*
X209340149Y-84442078D01*
X209083274Y-84826520D01*
X208993071Y-85280000D01*
X209083274Y-85733480D01*
X209340149Y-86117922D01*
X209582717Y-86280000D01*
X209340149Y-86442078D01*
X209083274Y-86826520D01*
X208993071Y-87280000D01*
X209083274Y-87733480D01*
X209340149Y-88117922D01*
X209582717Y-88280000D01*
X209340149Y-88442078D01*
X209083274Y-88826520D01*
X208993071Y-89280000D01*
X209083274Y-89733480D01*
X209340149Y-90117922D01*
X209582717Y-90280000D01*
X209340149Y-90442078D01*
X209083274Y-90826520D01*
X208993071Y-91280000D01*
X209083274Y-91733480D01*
X209340149Y-92117922D01*
X209530583Y-92245165D01*
X209187276Y-92531882D01*
X208971602Y-92943854D01*
X208971197Y-92970256D01*
X209096639Y-93153000D01*
X210688000Y-93153000D01*
X210688000Y-93133000D01*
X210942000Y-93133000D01*
X210942000Y-93153000D01*
X212533361Y-93153000D01*
X212658803Y-92970256D01*
X212658398Y-92943854D01*
X212442724Y-92531882D01*
X212188309Y-92319405D01*
X212489851Y-92117922D01*
X212746726Y-91733480D01*
X212836929Y-91280000D01*
X212746726Y-90826520D01*
X212489851Y-90442078D01*
X212247283Y-90280000D01*
X212489851Y-90117922D01*
X212746726Y-89733480D01*
X212836929Y-89280000D01*
X212746726Y-88826520D01*
X212489851Y-88442078D01*
X212247283Y-88280000D01*
X212489851Y-88117922D01*
X212746726Y-87733480D01*
X212836929Y-87280000D01*
X212746726Y-86826520D01*
X212489851Y-86442078D01*
X212247283Y-86280000D01*
X212489851Y-86117922D01*
X212746726Y-85733480D01*
X212836929Y-85280000D01*
X212746726Y-84826520D01*
X212489851Y-84442078D01*
X212247283Y-84280000D01*
X212489851Y-84117922D01*
X212746726Y-83733480D01*
X212836929Y-83280000D01*
X212746726Y-82826520D01*
X212489851Y-82442078D01*
X212247283Y-82280000D01*
X212489851Y-82117922D01*
X212746726Y-81733480D01*
X212836929Y-81280000D01*
X212746726Y-80826520D01*
X212489851Y-80442078D01*
X212105409Y-80185203D01*
X211863077Y-80137000D01*
X213307394Y-80137000D01*
X213868000Y-80697606D01*
X213868000Y-118692394D01*
X213354897Y-119205497D01*
X213116082Y-119253000D01*
X149277606Y-119253000D01*
X148717000Y-118692394D01*
X148717000Y-114084850D01*
X154710390Y-114084850D01*
X154710390Y-115784110D01*
X154754668Y-116019427D01*
X154893740Y-116235551D01*
X155105940Y-116380541D01*
X155357830Y-116431550D01*
X157057090Y-116431550D01*
X157292407Y-116387272D01*
X157508531Y-116248200D01*
X157653521Y-116036000D01*
X157704530Y-115784110D01*
X157704530Y-114084850D01*
X157660252Y-113849533D01*
X157521180Y-113633409D01*
X157308980Y-113488419D01*
X157057090Y-113437410D01*
X155357830Y-113437410D01*
X155122513Y-113481688D01*
X154906389Y-113620760D01*
X154761399Y-113832960D01*
X154710390Y-114084850D01*
X148717000Y-114084850D01*
X148717000Y-112671661D01*
X150367758Y-112671661D01*
X150579990Y-113185303D01*
X150972630Y-113578629D01*
X151485900Y-113791757D01*
X152041661Y-113792242D01*
X152555303Y-113580010D01*
X152948629Y-113187370D01*
X153143239Y-112718694D01*
X158385226Y-112718694D01*
X158633538Y-113319655D01*
X159092927Y-113779846D01*
X159693453Y-114029206D01*
X160343694Y-114029774D01*
X160611787Y-113919000D01*
X186448960Y-113919000D01*
X186448960Y-115951000D01*
X186493238Y-116186317D01*
X186632310Y-116402441D01*
X186844510Y-116547431D01*
X187096400Y-116598440D01*
X188823600Y-116598440D01*
X189058917Y-116554162D01*
X189275041Y-116415090D01*
X189420031Y-116202890D01*
X189428400Y-116161561D01*
X189440330Y-116179415D01*
X189926511Y-116504271D01*
X190500000Y-116618345D01*
X191073489Y-116504271D01*
X191559670Y-116179415D01*
X191766461Y-115869931D01*
X192137964Y-116285732D01*
X192665209Y-116539709D01*
X192680974Y-116542358D01*
X192913000Y-116421217D01*
X192913000Y-115062000D01*
X193167000Y-115062000D01*
X193167000Y-116421217D01*
X193399026Y-116542358D01*
X193414791Y-116539709D01*
X193942036Y-116285732D01*
X194331954Y-115849320D01*
X194525184Y-115296913D01*
X194380924Y-115062000D01*
X193167000Y-115062000D01*
X192913000Y-115062000D01*
X192893000Y-115062000D01*
X192893000Y-114808000D01*
X192913000Y-114808000D01*
X192913000Y-113448783D01*
X193167000Y-113448783D01*
X193167000Y-114808000D01*
X194380924Y-114808000D01*
X194525184Y-114573087D01*
X194331954Y-114020680D01*
X193942036Y-113584268D01*
X193414791Y-113330291D01*
X193399026Y-113327642D01*
X193167000Y-113448783D01*
X192913000Y-113448783D01*
X192680974Y-113327642D01*
X192665209Y-113330291D01*
X192137964Y-113584268D01*
X191766461Y-114000069D01*
X191559670Y-113690585D01*
X191073489Y-113365729D01*
X190500000Y-113251655D01*
X189926511Y-113365729D01*
X189440330Y-113690585D01*
X189430757Y-113704913D01*
X189426762Y-113683683D01*
X189287690Y-113467559D01*
X189075490Y-113322569D01*
X188823600Y-113271560D01*
X187096400Y-113271560D01*
X186861083Y-113315838D01*
X186644959Y-113454910D01*
X186499969Y-113667110D01*
X186448960Y-113919000D01*
X160611787Y-113919000D01*
X160944655Y-113781462D01*
X161404846Y-113322073D01*
X161654206Y-112721547D01*
X161654774Y-112071306D01*
X161406462Y-111470345D01*
X160947073Y-111010154D01*
X160346547Y-110760794D01*
X159696306Y-110760226D01*
X159095345Y-111008538D01*
X158635154Y-111467927D01*
X158385794Y-112068453D01*
X158385226Y-112718694D01*
X153143239Y-112718694D01*
X153161757Y-112674100D01*
X153162242Y-112118339D01*
X152950010Y-111604697D01*
X152557370Y-111211371D01*
X152365273Y-111131605D01*
X152496143Y-111077397D01*
X152565608Y-110835213D01*
X151765000Y-110034605D01*
X150964392Y-110835213D01*
X151033857Y-111077397D01*
X151174318Y-111127509D01*
X150974697Y-111209990D01*
X150581371Y-111602630D01*
X150368243Y-112115900D01*
X150367758Y-112671661D01*
X148717000Y-112671661D01*
X148717000Y-109647302D01*
X150355856Y-109647302D01*
X150383638Y-110202368D01*
X150542603Y-110586143D01*
X150784787Y-110655608D01*
X151585395Y-109855000D01*
X151944605Y-109855000D01*
X152745213Y-110655608D01*
X152987397Y-110586143D01*
X153174144Y-110062698D01*
X153157851Y-109737163D01*
X166667443Y-109737163D01*
X166766042Y-110003965D01*
X167375582Y-110230401D01*
X168025377Y-110206341D01*
X168513958Y-110003965D01*
X168612557Y-109737163D01*
X167640000Y-108764605D01*
X166667443Y-109737163D01*
X153157851Y-109737163D01*
X153146362Y-109507632D01*
X152987397Y-109123857D01*
X152745213Y-109054392D01*
X151944605Y-109855000D01*
X151585395Y-109855000D01*
X150784787Y-109054392D01*
X150542603Y-109123857D01*
X150355856Y-109647302D01*
X148717000Y-109647302D01*
X148717000Y-107591661D01*
X150367758Y-107591661D01*
X150579990Y-108105303D01*
X150972630Y-108498629D01*
X151164727Y-108578395D01*
X151033857Y-108632603D01*
X150964392Y-108874787D01*
X151765000Y-109675395D01*
X152565608Y-108874787D01*
X152496143Y-108632603D01*
X152355682Y-108582491D01*
X152555303Y-108500010D01*
X152735044Y-108320582D01*
X165994599Y-108320582D01*
X166018659Y-108970377D01*
X166221035Y-109458958D01*
X166487837Y-109557557D01*
X167460395Y-108585000D01*
X167819605Y-108585000D01*
X168792163Y-109557557D01*
X169058965Y-109458958D01*
X169224013Y-109014667D01*
X169428538Y-109509655D01*
X169887927Y-109969846D01*
X170488453Y-110219206D01*
X171138694Y-110219774D01*
X171739655Y-109971462D01*
X172199846Y-109512073D01*
X172449206Y-108911547D01*
X172449774Y-108261306D01*
X172201462Y-107660345D01*
X171742073Y-107200154D01*
X171141547Y-106950794D01*
X170491306Y-106950226D01*
X169890345Y-107198538D01*
X169430154Y-107657927D01*
X169233316Y-108131965D01*
X169058965Y-107711042D01*
X168792163Y-107612443D01*
X167819605Y-108585000D01*
X167460395Y-108585000D01*
X166487837Y-107612443D01*
X166221035Y-107711042D01*
X165994599Y-108320582D01*
X152735044Y-108320582D01*
X152948629Y-108107370D01*
X153161757Y-107594100D01*
X153161897Y-107432837D01*
X166667443Y-107432837D01*
X167640000Y-108405395D01*
X168612557Y-107432837D01*
X168513958Y-107166035D01*
X167904418Y-106939599D01*
X167254623Y-106963659D01*
X166766042Y-107166035D01*
X166667443Y-107432837D01*
X153161897Y-107432837D01*
X153162242Y-107038339D01*
X152950010Y-106524697D01*
X152557370Y-106131371D01*
X152044100Y-105918243D01*
X151488339Y-105917758D01*
X150974697Y-106129990D01*
X150581371Y-106522630D01*
X150368243Y-107035900D01*
X150367758Y-107591661D01*
X148717000Y-107591661D01*
X148717000Y-105068496D01*
X154722572Y-105068496D01*
X154948118Y-105614357D01*
X155365386Y-106032354D01*
X155910853Y-106258852D01*
X156501476Y-106259368D01*
X157047337Y-106033822D01*
X157068540Y-106012655D01*
X186309000Y-106012655D01*
X186309000Y-106077345D01*
X186434675Y-106709155D01*
X186792567Y-107244778D01*
X187328190Y-107602670D01*
X187960000Y-107728345D01*
X188591810Y-107602670D01*
X188928001Y-107378034D01*
X188945673Y-107420698D01*
X189124301Y-107599327D01*
X189357690Y-107696000D01*
X190214250Y-107696000D01*
X190373000Y-107537250D01*
X190373000Y-106172000D01*
X190627000Y-106172000D01*
X190627000Y-107537250D01*
X190785750Y-107696000D01*
X191642310Y-107696000D01*
X191875699Y-107599327D01*
X192054327Y-107420698D01*
X192151000Y-107187309D01*
X192151000Y-106330750D01*
X191992250Y-106172000D01*
X190627000Y-106172000D01*
X190373000Y-106172000D01*
X190353000Y-106172000D01*
X190353000Y-105918000D01*
X190373000Y-105918000D01*
X190373000Y-104552750D01*
X190627000Y-104552750D01*
X190627000Y-105918000D01*
X191992250Y-105918000D01*
X192151000Y-105759250D01*
X192151000Y-104902691D01*
X192054327Y-104669302D01*
X191875699Y-104490673D01*
X191642310Y-104394000D01*
X190785750Y-104394000D01*
X190627000Y-104552750D01*
X190373000Y-104552750D01*
X190214250Y-104394000D01*
X189357690Y-104394000D01*
X189124301Y-104490673D01*
X188945673Y-104669302D01*
X188928001Y-104711966D01*
X188591810Y-104487330D01*
X187960000Y-104361655D01*
X187328190Y-104487330D01*
X186792567Y-104845222D01*
X186434675Y-105380845D01*
X186309000Y-106012655D01*
X157068540Y-106012655D01*
X157465334Y-105616554D01*
X157691832Y-105071087D01*
X157692348Y-104480464D01*
X157466802Y-103934603D01*
X157049534Y-103516606D01*
X156504067Y-103290108D01*
X155913444Y-103289592D01*
X155367583Y-103515138D01*
X154949586Y-103932406D01*
X154723088Y-104477873D01*
X154722572Y-105068496D01*
X148717000Y-105068496D01*
X148717000Y-104001549D01*
X149141351Y-102979598D01*
X149141718Y-102558694D01*
X158385226Y-102558694D01*
X158633538Y-103159655D01*
X159092927Y-103619846D01*
X159693453Y-103869206D01*
X160343694Y-103869774D01*
X160944655Y-103621462D01*
X161404846Y-103162073D01*
X161654206Y-102561547D01*
X161654208Y-102558694D01*
X179340226Y-102558694D01*
X179588538Y-103159655D01*
X180047927Y-103619846D01*
X180648453Y-103869206D01*
X181298694Y-103869774D01*
X181899655Y-103621462D01*
X182359846Y-103162073D01*
X182609206Y-102561547D01*
X182609208Y-102558694D01*
X189500226Y-102558694D01*
X189748538Y-103159655D01*
X190207927Y-103619846D01*
X190808453Y-103869206D01*
X191458694Y-103869774D01*
X192059655Y-103621462D01*
X192519846Y-103162073D01*
X192717837Y-102685255D01*
X197256400Y-102685255D01*
X197256400Y-103054745D01*
X197370474Y-103628234D01*
X197695330Y-104114415D01*
X198181511Y-104439271D01*
X198755000Y-104553345D01*
X199328489Y-104439271D01*
X199814670Y-104114415D01*
X200025000Y-103799634D01*
X200235330Y-104114415D01*
X200721511Y-104439271D01*
X201295000Y-104553345D01*
X201868489Y-104439271D01*
X202354670Y-104114415D01*
X202565000Y-103799634D01*
X202775330Y-104114415D01*
X203261511Y-104439271D01*
X203835000Y-104553345D01*
X204408489Y-104439271D01*
X204894670Y-104114415D01*
X205105000Y-103799634D01*
X205315330Y-104114415D01*
X205801511Y-104439271D01*
X206375000Y-104553345D01*
X206948489Y-104439271D01*
X207434670Y-104114415D01*
X207449500Y-104092220D01*
X207513073Y-104245698D01*
X207691701Y-104424327D01*
X207925090Y-104521000D01*
X208629250Y-104521000D01*
X208788000Y-104362250D01*
X208788000Y-102997000D01*
X209042000Y-102997000D01*
X209042000Y-104362250D01*
X209200750Y-104521000D01*
X209904910Y-104521000D01*
X210138299Y-104424327D01*
X210316927Y-104245698D01*
X210413600Y-104012309D01*
X210413600Y-103155750D01*
X210254850Y-102997000D01*
X209042000Y-102997000D01*
X208788000Y-102997000D01*
X208768000Y-102997000D01*
X208768000Y-102743000D01*
X208788000Y-102743000D01*
X208788000Y-101377750D01*
X209042000Y-101377750D01*
X209042000Y-102743000D01*
X210254850Y-102743000D01*
X210413600Y-102584250D01*
X210413600Y-101727691D01*
X210316927Y-101494302D01*
X210138299Y-101315673D01*
X209904910Y-101219000D01*
X209200750Y-101219000D01*
X209042000Y-101377750D01*
X208788000Y-101377750D01*
X208629250Y-101219000D01*
X207925090Y-101219000D01*
X207691701Y-101315673D01*
X207513073Y-101494302D01*
X207449500Y-101647780D01*
X207434670Y-101625585D01*
X206948489Y-101300729D01*
X206375000Y-101186655D01*
X205801511Y-101300729D01*
X205315330Y-101625585D01*
X205105000Y-101940366D01*
X204894670Y-101625585D01*
X204408489Y-101300729D01*
X203835000Y-101186655D01*
X203261511Y-101300729D01*
X202775330Y-101625585D01*
X202565000Y-101940366D01*
X202354670Y-101625585D01*
X201868489Y-101300729D01*
X201295000Y-101186655D01*
X200721511Y-101300729D01*
X200235330Y-101625585D01*
X200025000Y-101940366D01*
X199814670Y-101625585D01*
X199328489Y-101300729D01*
X198755000Y-101186655D01*
X198181511Y-101300729D01*
X197695330Y-101625585D01*
X197370474Y-102111766D01*
X197256400Y-102685255D01*
X192717837Y-102685255D01*
X192769206Y-102561547D01*
X192769774Y-101911306D01*
X192521462Y-101310345D01*
X192062073Y-100850154D01*
X191461547Y-100600794D01*
X190811306Y-100600226D01*
X190210345Y-100848538D01*
X189750154Y-101307927D01*
X189500794Y-101908453D01*
X189500226Y-102558694D01*
X182609208Y-102558694D01*
X182609774Y-101911306D01*
X182361462Y-101310345D01*
X181902073Y-100850154D01*
X181301547Y-100600794D01*
X180651306Y-100600226D01*
X180050345Y-100848538D01*
X179590154Y-101307927D01*
X179340794Y-101908453D01*
X179340226Y-102558694D01*
X161654208Y-102558694D01*
X161654774Y-101911306D01*
X161406462Y-101310345D01*
X160947073Y-100850154D01*
X160346547Y-100600794D01*
X159696306Y-100600226D01*
X159095345Y-100848538D01*
X158635154Y-101307927D01*
X158385794Y-101908453D01*
X158385226Y-102558694D01*
X149141718Y-102558694D01*
X149142645Y-101496906D01*
X148717000Y-100466766D01*
X148717000Y-98748694D01*
X166005226Y-98748694D01*
X166253538Y-99349655D01*
X166712927Y-99809846D01*
X167313453Y-100059206D01*
X167963694Y-100059774D01*
X168564655Y-99811462D01*
X169024846Y-99352073D01*
X169227691Y-98863568D01*
X169428538Y-99349655D01*
X169887927Y-99809846D01*
X170488453Y-100059206D01*
X171138694Y-100059774D01*
X171739655Y-99811462D01*
X172199846Y-99352073D01*
X172449206Y-98751547D01*
X172449774Y-98101306D01*
X172201462Y-97500345D01*
X171742073Y-97040154D01*
X171141547Y-96790794D01*
X170491306Y-96790226D01*
X169890345Y-97038538D01*
X169430154Y-97497927D01*
X169227309Y-97986432D01*
X169026462Y-97500345D01*
X168567073Y-97040154D01*
X167966547Y-96790794D01*
X167316306Y-96790226D01*
X166715345Y-97038538D01*
X166255154Y-97497927D01*
X166005794Y-98098453D01*
X166005226Y-98748694D01*
X148717000Y-98748694D01*
X148717000Y-87630000D01*
X148941143Y-87630000D01*
X149038958Y-88121748D01*
X149317511Y-88538632D01*
X149734395Y-88817185D01*
X150150733Y-88900000D01*
X149734395Y-88982815D01*
X149317511Y-89261368D01*
X149038958Y-89678252D01*
X148941143Y-90170000D01*
X149038958Y-90661748D01*
X149317511Y-91078632D01*
X149734395Y-91357185D01*
X150226143Y-91455000D01*
X150763857Y-91455000D01*
X151255605Y-91357185D01*
X151672489Y-91078632D01*
X151951042Y-90661748D01*
X151984470Y-90493694D01*
X153940226Y-90493694D01*
X154188538Y-91094655D01*
X154647927Y-91554846D01*
X155136432Y-91757691D01*
X154650345Y-91958538D01*
X154190154Y-92417927D01*
X153940794Y-93018453D01*
X153940226Y-93668694D01*
X154188538Y-94269655D01*
X154647927Y-94729846D01*
X155248453Y-94979206D01*
X155898694Y-94979774D01*
X156499655Y-94731462D01*
X156959846Y-94272073D01*
X157209206Y-93671547D01*
X157209208Y-93668694D01*
X164100226Y-93668694D01*
X164348538Y-94269655D01*
X164807927Y-94729846D01*
X165408453Y-94979206D01*
X166058694Y-94979774D01*
X166659655Y-94731462D01*
X167119846Y-94272073D01*
X167369206Y-93671547D01*
X167369774Y-93021306D01*
X167121462Y-92420345D01*
X166662073Y-91960154D01*
X166188035Y-91763316D01*
X166608958Y-91588965D01*
X166625910Y-91543094D01*
X177247355Y-91543094D01*
X177813561Y-92913418D01*
X178861068Y-93962754D01*
X180230402Y-94531351D01*
X181713094Y-94532645D01*
X183083418Y-93966439D01*
X184132754Y-92918932D01*
X184401902Y-92270750D01*
X186884000Y-92270750D01*
X186884000Y-92974910D01*
X186980673Y-93208299D01*
X187159302Y-93386927D01*
X187392691Y-93483600D01*
X188249250Y-93483600D01*
X188408000Y-93324850D01*
X188408000Y-92112000D01*
X188662000Y-92112000D01*
X188662000Y-93324850D01*
X188820750Y-93483600D01*
X189677309Y-93483600D01*
X189910698Y-93386927D01*
X190089327Y-93208299D01*
X190186000Y-92974910D01*
X190186000Y-92270750D01*
X190027250Y-92112000D01*
X188662000Y-92112000D01*
X188408000Y-92112000D01*
X187042750Y-92112000D01*
X186884000Y-92270750D01*
X184401902Y-92270750D01*
X184701351Y-91549598D01*
X184702645Y-90066906D01*
X184136439Y-88696582D01*
X183088932Y-87647246D01*
X181719598Y-87078649D01*
X180236906Y-87077355D01*
X178866582Y-87643561D01*
X177817246Y-88691068D01*
X177248649Y-90060402D01*
X177247355Y-91543094D01*
X166625910Y-91543094D01*
X166707557Y-91322163D01*
X165735000Y-90349605D01*
X164762443Y-91322163D01*
X164861042Y-91588965D01*
X165305333Y-91754013D01*
X164810345Y-91958538D01*
X164350154Y-92417927D01*
X164100794Y-93018453D01*
X164100226Y-93668694D01*
X157209208Y-93668694D01*
X157209774Y-93021306D01*
X156961462Y-92420345D01*
X156502073Y-91960154D01*
X156013568Y-91757309D01*
X156499655Y-91556462D01*
X156959846Y-91097073D01*
X157209206Y-90496547D01*
X157209722Y-89905582D01*
X164089599Y-89905582D01*
X164113659Y-90555377D01*
X164316035Y-91043958D01*
X164582837Y-91142557D01*
X165555395Y-90170000D01*
X165914605Y-90170000D01*
X166887163Y-91142557D01*
X167153965Y-91043958D01*
X167380401Y-90434418D01*
X167356341Y-89784623D01*
X167153965Y-89296042D01*
X166887163Y-89197443D01*
X165914605Y-90170000D01*
X165555395Y-90170000D01*
X164582837Y-89197443D01*
X164316035Y-89296042D01*
X164089599Y-89905582D01*
X157209722Y-89905582D01*
X157209774Y-89846306D01*
X156961462Y-89245345D01*
X156734351Y-89017837D01*
X164762443Y-89017837D01*
X165735000Y-89990395D01*
X166707557Y-89017837D01*
X166608958Y-88751035D01*
X165999418Y-88524599D01*
X165349623Y-88548659D01*
X164861042Y-88751035D01*
X164762443Y-89017837D01*
X156734351Y-89017837D01*
X156502073Y-88785154D01*
X155901547Y-88535794D01*
X155251306Y-88535226D01*
X154650345Y-88783538D01*
X154190154Y-89242927D01*
X153940794Y-89843453D01*
X153940226Y-90493694D01*
X151984470Y-90493694D01*
X152048857Y-90170000D01*
X151951042Y-89678252D01*
X151672489Y-89261368D01*
X151255605Y-88982815D01*
X150839267Y-88900000D01*
X151255605Y-88817185D01*
X151672489Y-88538632D01*
X151951042Y-88121748D01*
X152048857Y-87630000D01*
X151951042Y-87138252D01*
X151672489Y-86721368D01*
X151255605Y-86442815D01*
X150763857Y-86345000D01*
X150226143Y-86345000D01*
X149734395Y-86442815D01*
X149317511Y-86721368D01*
X149038958Y-87138252D01*
X148941143Y-87630000D01*
X148717000Y-87630000D01*
X148717000Y-84119040D01*
X157914738Y-84119040D01*
X158144138Y-84674229D01*
X158568537Y-85099370D01*
X159123325Y-85329738D01*
X159724040Y-85330262D01*
X160279229Y-85100862D01*
X160448103Y-84932283D01*
X160585910Y-85146441D01*
X160798110Y-85291431D01*
X161050000Y-85342440D01*
X162800000Y-85342440D01*
X163035317Y-85298162D01*
X163251441Y-85159090D01*
X163396431Y-84946890D01*
X163435454Y-84754188D01*
X174505417Y-84754188D01*
X174567071Y-84989800D01*
X175067480Y-85165927D01*
X175597199Y-85137148D01*
X175952929Y-84989800D01*
X176014583Y-84754188D01*
X182125417Y-84754188D01*
X182187071Y-84989800D01*
X182687480Y-85165927D01*
X183217199Y-85137148D01*
X183572929Y-84989800D01*
X183634583Y-84754188D01*
X182880000Y-83999605D01*
X182125417Y-84754188D01*
X176014583Y-84754188D01*
X175260000Y-83999605D01*
X174505417Y-84754188D01*
X163435454Y-84754188D01*
X163447440Y-84695000D01*
X163447440Y-83627480D01*
X173914073Y-83627480D01*
X173942852Y-84157199D01*
X174090200Y-84512929D01*
X174325812Y-84574583D01*
X175080395Y-83820000D01*
X175439605Y-83820000D01*
X176194188Y-84574583D01*
X176429800Y-84512929D01*
X176605927Y-84012520D01*
X176585009Y-83627480D01*
X181534073Y-83627480D01*
X181562852Y-84157199D01*
X181710200Y-84512929D01*
X181945812Y-84574583D01*
X182700395Y-83820000D01*
X183059605Y-83820000D01*
X183814188Y-84574583D01*
X184049800Y-84512929D01*
X184225927Y-84012520D01*
X184197148Y-83482801D01*
X184049800Y-83127071D01*
X183814188Y-83065417D01*
X183059605Y-83820000D01*
X182700395Y-83820000D01*
X181945812Y-83065417D01*
X181710200Y-83127071D01*
X181534073Y-83627480D01*
X176585009Y-83627480D01*
X176577148Y-83482801D01*
X176429800Y-83127071D01*
X176194188Y-83065417D01*
X175439605Y-83820000D01*
X175080395Y-83820000D01*
X174325812Y-83065417D01*
X174090200Y-83127071D01*
X173914073Y-83627480D01*
X163447440Y-83627480D01*
X163447440Y-82945000D01*
X163436303Y-82885812D01*
X174505417Y-82885812D01*
X175260000Y-83640395D01*
X176014583Y-82885812D01*
X182125417Y-82885812D01*
X182880000Y-83640395D01*
X183634583Y-82885812D01*
X183572929Y-82650200D01*
X183072520Y-82474073D01*
X182542801Y-82502852D01*
X182187071Y-82650200D01*
X182125417Y-82885812D01*
X176014583Y-82885812D01*
X175952929Y-82650200D01*
X175452520Y-82474073D01*
X174922801Y-82502852D01*
X174567071Y-82650200D01*
X174505417Y-82885812D01*
X163436303Y-82885812D01*
X163403162Y-82709683D01*
X163264090Y-82493559D01*
X163051890Y-82348569D01*
X162800000Y-82297560D01*
X161050000Y-82297560D01*
X160814683Y-82341838D01*
X160598559Y-82480910D01*
X160453569Y-82693110D01*
X160450214Y-82709676D01*
X160281463Y-82540630D01*
X159726675Y-82310262D01*
X159125960Y-82309738D01*
X158570771Y-82539138D01*
X158145630Y-82963537D01*
X157915262Y-83518325D01*
X157914738Y-84119040D01*
X148717000Y-84119040D01*
X148717000Y-79004086D01*
X173926269Y-79004086D01*
X174128854Y-79494380D01*
X174503647Y-79869827D01*
X174993587Y-80073268D01*
X175524086Y-80073731D01*
X176014380Y-79871146D01*
X176389827Y-79496353D01*
X176593268Y-79006413D01*
X176593270Y-79004086D01*
X181546269Y-79004086D01*
X181748854Y-79494380D01*
X182123647Y-79869827D01*
X182613587Y-80073268D01*
X183144086Y-80073731D01*
X183634380Y-79871146D01*
X184009827Y-79496353D01*
X184097588Y-79285000D01*
X186851655Y-79285000D01*
X186965729Y-79858489D01*
X187290585Y-80344670D01*
X187605366Y-80555000D01*
X187290585Y-80765330D01*
X186965729Y-81251511D01*
X186851655Y-81825000D01*
X186965729Y-82398489D01*
X187290585Y-82884670D01*
X187605366Y-83095000D01*
X187290585Y-83305330D01*
X186965729Y-83791511D01*
X186851655Y-84365000D01*
X186965729Y-84938489D01*
X187290585Y-85424670D01*
X187605366Y-85635000D01*
X187290585Y-85845330D01*
X186965729Y-86331511D01*
X186851655Y-86905000D01*
X186965729Y-87478489D01*
X187290585Y-87964670D01*
X187605366Y-88175000D01*
X187290585Y-88385330D01*
X186965729Y-88871511D01*
X186851655Y-89445000D01*
X186965729Y-90018489D01*
X187290585Y-90504670D01*
X187312780Y-90519500D01*
X187159302Y-90583073D01*
X186980673Y-90761701D01*
X186884000Y-90995090D01*
X186884000Y-91699250D01*
X187042750Y-91858000D01*
X188408000Y-91858000D01*
X188408000Y-91838000D01*
X188662000Y-91838000D01*
X188662000Y-91858000D01*
X190027250Y-91858000D01*
X190186000Y-91699250D01*
X190186000Y-90995090D01*
X190089327Y-90761701D01*
X189910698Y-90583073D01*
X189757220Y-90519500D01*
X189779415Y-90504670D01*
X190104271Y-90018489D01*
X190218345Y-89445000D01*
X190104271Y-88871511D01*
X189779415Y-88385330D01*
X189464634Y-88175000D01*
X189779415Y-87964670D01*
X190104271Y-87478489D01*
X190218345Y-86905000D01*
X190104271Y-86331511D01*
X189779415Y-85845330D01*
X189464634Y-85635000D01*
X189779415Y-85424670D01*
X190104271Y-84938489D01*
X190218345Y-84365000D01*
X190104271Y-83791511D01*
X189779415Y-83305330D01*
X189464634Y-83095000D01*
X189779415Y-82884670D01*
X190104271Y-82398489D01*
X190218345Y-81825000D01*
X190104271Y-81251511D01*
X189779415Y-80765330D01*
X189464634Y-80555000D01*
X189779415Y-80344670D01*
X190104271Y-79858489D01*
X190218345Y-79285000D01*
X190104271Y-78711511D01*
X189779415Y-78225330D01*
X189293234Y-77900474D01*
X188719745Y-77786400D01*
X188350255Y-77786400D01*
X187776766Y-77900474D01*
X187290585Y-78225330D01*
X186965729Y-78711511D01*
X186851655Y-79285000D01*
X184097588Y-79285000D01*
X184213268Y-79006413D01*
X184213731Y-78475914D01*
X184011146Y-77985620D01*
X183636353Y-77610173D01*
X183146413Y-77406732D01*
X182615914Y-77406269D01*
X182125620Y-77608854D01*
X181750173Y-77983647D01*
X181546732Y-78473587D01*
X181546269Y-79004086D01*
X176593270Y-79004086D01*
X176593731Y-78475914D01*
X176391146Y-77985620D01*
X176016353Y-77610173D01*
X175526413Y-77406732D01*
X174995914Y-77406269D01*
X174505620Y-77608854D01*
X174130173Y-77983647D01*
X173926732Y-78473587D01*
X173926269Y-79004086D01*
X148717000Y-79004086D01*
X148717000Y-76252606D01*
X149259606Y-75710000D01*
X193005394Y-75710000D01*
X193548000Y-76252606D01*
M02*
