M48
;DRILL file {KiCad 4.0.3+e1-6302~38~ubuntu15.04.1-stable} date Fri Aug 26 22:40:41 2016
;FORMAT={-:-/ absolute / inch / decimal}
FMAT,2
INCH,TZ
T1C0.016
T2C0.028
T3C0.031
T4C0.035
T5C0.040
T6C0.060
T7C0.126
%
G90
G05
M72
T1
X3.6213Y-2.975
T2
X2.9Y-2.2
X2.9Y-2.55
X2.9787Y-2.2
X2.9787Y-2.55
X3.0575Y-2.2
X3.0575Y-2.55
X3.1362Y-2.2
X3.1362Y-2.55
T3
X2.9281Y-3.25
X3.125Y-3.25
T4
X2.6Y-2.025
X2.6Y-2.1234
X2.6Y-2.2219
X2.6Y-2.3203
X2.6Y-2.4187
X2.6Y-2.5171
X2.6Y-2.6156
X2.6Y-2.714
X2.6Y-2.975
X2.6Y-3.0734
X2.6Y-3.1719
X2.6Y-3.2703
X2.6Y-3.3687
X2.6Y-3.4671
X2.6Y-3.5656
X2.6Y-3.664
X2.9Y-1.775
X2.9984Y-1.775
X3.0969Y-1.775
X3.425Y-1.775
X3.5234Y-1.775
X3.6219Y-1.775
T5
X3.4Y-2.175
X3.4Y-2.275
X3.4Y-2.375
X3.4Y-2.475
X3.4Y-2.575
X3.4Y-2.675
X3.4Y-2.775
X3.4Y-2.875
X3.4Y-2.975
X3.4Y-3.075
X3.4Y-3.175
X3.4Y-3.275
X3.4Y-3.375
X3.4Y-3.475
X3.4Y-3.575
X4.Y-2.175
X4.Y-2.275
X4.Y-2.375
X4.Y-2.475
X4.Y-2.575
X4.Y-2.675
X4.Y-2.775
X4.Y-2.875
X4.Y-2.975
X4.Y-3.075
X4.Y-3.175
X4.Y-3.275
X4.Y-3.375
X4.Y-3.475
X4.Y-3.575
T6
X2.925Y-3.7
X3.125Y-3.7
T7
X2.3228Y-1.7323
X2.3228Y-3.937
X3.9764Y-1.7323
X3.9764Y-3.937
T0
M30
