G04 #@! TF.FileFunction,Copper,L2,Bot,Signal*
%FSLAX46Y46*%
G04 Gerber Fmt 4.6, Leading zero omitted, Abs format (unit mm)*
G04 Created by KiCad (PCBNEW 4.0.3+e1-6302~38~ubuntu15.04.1-stable) date Thu Aug 18 22:44:53 2016*
%MOMM*%
%LPD*%
G01*
G04 APERTURE LIST*
%ADD10C,0.100000*%
%ADD11R,1.727200X1.727200*%
%ADD12C,1.727200*%
%ADD13R,1.300000X1.300000*%
%ADD14C,1.300000*%
%ADD15R,1.750000X1.750000*%
%ADD16C,1.750000*%
%ADD17R,1.727200X2.032000*%
%ADD18O,1.727200X2.032000*%
%ADD19R,1.200000X1.700000*%
%ADD20O,1.200000X1.700000*%
%ADD21R,2.540000X2.540000*%
%ADD22C,2.540000*%
%ADD23C,3.200000*%
%ADD24C,0.600000*%
%ADD25C,0.250000*%
%ADD26C,0.500000*%
%ADD27C,0.254000*%
G04 APERTURE END LIST*
D10*
D11*
X86360000Y-55245000D03*
D12*
X86360000Y-57785000D03*
X86360000Y-60325000D03*
X86360000Y-62865000D03*
X86360000Y-65405000D03*
X86360000Y-67945000D03*
X86360000Y-70485000D03*
X86360000Y-73025000D03*
X86360000Y-75565000D03*
X86360000Y-78105000D03*
X86360000Y-80645000D03*
X86360000Y-83185000D03*
X86360000Y-85725000D03*
X86360000Y-88265000D03*
X86360000Y-90805000D03*
X101600000Y-90805000D03*
X101600000Y-88265000D03*
X101600000Y-85725000D03*
X101600000Y-83185000D03*
X101600000Y-80645000D03*
X101600000Y-78105000D03*
X101600000Y-75565000D03*
X101600000Y-73025000D03*
X101600000Y-70485000D03*
X101600000Y-67945000D03*
X101600000Y-65405000D03*
X101600000Y-62865000D03*
X101600000Y-60325000D03*
X101600000Y-57785000D03*
X101600000Y-55245000D03*
D13*
X79375000Y-82550000D03*
D14*
X74375000Y-82550000D03*
D15*
X66040000Y-51435000D03*
D16*
X66040000Y-53935000D03*
X66040000Y-56435000D03*
X66040000Y-58935000D03*
X66040000Y-61435000D03*
X66040000Y-63935000D03*
X66040000Y-66435000D03*
X66040000Y-68935000D03*
D15*
X66040000Y-75565000D03*
D16*
X66040000Y-78065000D03*
X66040000Y-80565000D03*
X66040000Y-83065000D03*
X66040000Y-85565000D03*
X66040000Y-88065000D03*
X66040000Y-90565000D03*
X66040000Y-93065000D03*
D17*
X79375000Y-73660000D03*
D18*
X76835000Y-73660000D03*
X74295000Y-73660000D03*
D19*
X73660000Y-55880000D03*
D20*
X75660000Y-55880000D03*
X77660000Y-55880000D03*
X79660000Y-55880000D03*
D19*
X73660000Y-64770000D03*
D20*
X75660000Y-64770000D03*
X77660000Y-64770000D03*
X79660000Y-64770000D03*
D21*
X79375000Y-93980000D03*
D22*
X74295000Y-93980000D03*
D15*
X73660000Y-45085000D03*
D16*
X76160000Y-45085000D03*
X78660000Y-45085000D03*
D15*
X86995000Y-45085000D03*
D16*
X89495000Y-45085000D03*
X91995000Y-45085000D03*
D23*
X59000000Y-44000000D03*
X101000000Y-44000000D03*
X59000000Y-100000000D03*
X101000000Y-100000000D03*
D24*
X93980000Y-78105000D03*
D25*
X69850000Y-60325000D02*
X69850000Y-60245000D01*
X69850000Y-60245000D02*
X66040000Y-56435000D01*
X69850000Y-60325000D02*
X69850000Y-61595000D01*
X86360000Y-65405000D02*
X83185000Y-68580000D01*
X69850000Y-65405000D02*
X69850000Y-61595000D01*
X73025000Y-68580000D02*
X69850000Y-65405000D01*
X83185000Y-68580000D02*
X73025000Y-68580000D01*
X69215000Y-62230000D02*
X69215000Y-66040000D01*
X66040000Y-58935000D02*
X66040000Y-59055000D01*
X66040000Y-59055000D02*
X69215000Y-62230000D01*
X69215000Y-66040000D02*
X72390000Y-69215000D01*
X72390000Y-69215000D02*
X85090000Y-69215000D01*
X85090000Y-69215000D02*
X86360000Y-67945000D01*
X68580000Y-63500000D02*
X68580000Y-66675000D01*
X66040000Y-61435000D02*
X66515000Y-61435000D01*
X66515000Y-61435000D02*
X68580000Y-63500000D01*
X68580000Y-66675000D02*
X71755000Y-69850000D01*
X71755000Y-69850000D02*
X83185000Y-69850000D01*
X83185000Y-69850000D02*
X83820000Y-70485000D01*
X83820000Y-70485000D02*
X86360000Y-70485000D01*
X86360000Y-73025000D02*
X85090000Y-73025000D01*
X67945000Y-65840000D02*
X66040000Y-63935000D01*
X67945000Y-67310000D02*
X67945000Y-65840000D01*
X71120000Y-70485000D02*
X67945000Y-67310000D01*
X82550000Y-70485000D02*
X71120000Y-70485000D01*
X85090000Y-73025000D02*
X82550000Y-70485000D01*
X86360000Y-75565000D02*
X81915000Y-71120000D01*
X70725000Y-71120000D02*
X66040000Y-66435000D01*
X81915000Y-71120000D02*
X70725000Y-71120000D01*
X86360000Y-78105000D02*
X83820000Y-80645000D01*
X69930000Y-84455000D02*
X66040000Y-80565000D01*
X82550000Y-84455000D02*
X69930000Y-84455000D01*
X83820000Y-83185000D02*
X82550000Y-84455000D01*
X83820000Y-80645000D02*
X83820000Y-83185000D01*
X66595000Y-80010000D02*
X66040000Y-80565000D01*
X86360000Y-80645000D02*
X84455000Y-82550000D01*
X68065000Y-85090000D02*
X66040000Y-83065000D01*
X83185000Y-85090000D02*
X68065000Y-85090000D01*
X84455000Y-83820000D02*
X83185000Y-85090000D01*
X84455000Y-82550000D02*
X84455000Y-83820000D01*
X86360000Y-83185000D02*
X83820000Y-85725000D01*
X83820000Y-85725000D02*
X66200000Y-85725000D01*
X66200000Y-85725000D02*
X66040000Y-85565000D01*
X86360000Y-85725000D02*
X85725000Y-86360000D01*
X67745000Y-86360000D02*
X66040000Y-88065000D01*
X85725000Y-86360000D02*
X67745000Y-86360000D01*
X66240000Y-88265000D02*
X66040000Y-88065000D01*
X86360000Y-88265000D02*
X85090000Y-86995000D01*
X69610000Y-86995000D02*
X66040000Y-90565000D01*
X85090000Y-86995000D02*
X69610000Y-86995000D01*
X86360000Y-90805000D02*
X88265000Y-88900000D01*
X81835000Y-48260000D02*
X78660000Y-45085000D01*
X86360000Y-48260000D02*
X81835000Y-48260000D01*
X88265000Y-50165000D02*
X86360000Y-48260000D01*
X88265000Y-88900000D02*
X88265000Y-50165000D01*
X95170000Y-48260000D02*
X95250000Y-48260000D01*
X95250000Y-48260000D02*
X99695000Y-52705000D01*
X99695000Y-55245000D02*
X100965000Y-56515000D01*
X99695000Y-55245000D02*
X99695000Y-52705000D01*
X100965000Y-56515000D02*
X102870000Y-56515000D01*
X102870000Y-56515000D02*
X103505000Y-57150000D01*
X103505000Y-57150000D02*
X103505000Y-88900000D01*
X103505000Y-88900000D02*
X101600000Y-90805000D01*
X95170000Y-48260000D02*
X91995000Y-45085000D01*
D26*
X99060000Y-48260000D02*
X101600000Y-50800000D01*
X101600000Y-50800000D02*
X101600000Y-55245000D01*
X74295000Y-73660000D02*
X58420000Y-73660000D01*
X96520000Y-45720000D02*
X99060000Y-48260000D01*
X96520000Y-42545000D02*
X96520000Y-45720000D01*
X95250000Y-41275000D02*
X96520000Y-42545000D01*
X65405000Y-41275000D02*
X95250000Y-41275000D01*
X63500000Y-43180000D02*
X65405000Y-41275000D01*
X63500000Y-45720000D02*
X63500000Y-43180000D01*
X60960000Y-48260000D02*
X63500000Y-45720000D01*
X58420000Y-48260000D02*
X60960000Y-48260000D01*
X56515000Y-50165000D02*
X58420000Y-48260000D01*
X56515000Y-71755000D02*
X56515000Y-50165000D01*
X58420000Y-73660000D02*
X56515000Y-71755000D01*
D25*
X66040000Y-93065000D02*
X66040000Y-95250000D01*
X93980000Y-94615000D02*
X93980000Y-78105000D01*
X91440000Y-97155000D02*
X93980000Y-94615000D01*
X67945000Y-97155000D02*
X91440000Y-97155000D01*
X66040000Y-95250000D02*
X67945000Y-97155000D01*
X66040000Y-93065000D02*
X66040000Y-93345000D01*
D27*
G36*
X95635000Y-42911579D02*
X95635000Y-45719995D01*
X95634999Y-45720000D01*
X95679052Y-45941463D01*
X95702367Y-46058675D01*
X95894210Y-46345790D01*
X98434208Y-48885787D01*
X98434210Y-48885790D01*
X100715000Y-51166579D01*
X100715000Y-54010963D01*
X100455000Y-54270510D01*
X100455000Y-52705000D01*
X100397148Y-52414161D01*
X100397148Y-52414160D01*
X100232401Y-52167599D01*
X95787401Y-47722599D01*
X95546309Y-47561507D01*
X93465639Y-45480837D01*
X93504738Y-45386675D01*
X93505262Y-44785960D01*
X93275862Y-44230771D01*
X92851463Y-43805630D01*
X92296675Y-43575262D01*
X91695960Y-43574738D01*
X91140771Y-43804138D01*
X90715630Y-44228537D01*
X90706108Y-44251469D01*
X90557060Y-44202545D01*
X89674605Y-45085000D01*
X90557060Y-45967455D01*
X90705648Y-45918682D01*
X90714138Y-45939229D01*
X91138537Y-46364370D01*
X91693325Y-46594738D01*
X92294040Y-46595262D01*
X92390573Y-46555375D01*
X94632599Y-48797401D01*
X94873691Y-48958493D01*
X98935000Y-53019802D01*
X98935000Y-55245000D01*
X98992852Y-55535839D01*
X99157599Y-55782401D01*
X100324396Y-56949198D01*
X100101661Y-57485602D01*
X100101141Y-58081782D01*
X100328808Y-58632780D01*
X100750003Y-59054710D01*
X100750931Y-59055095D01*
X100330290Y-59475003D01*
X100101661Y-60025602D01*
X100101141Y-60621782D01*
X100328808Y-61172780D01*
X100750003Y-61594710D01*
X100790537Y-61611541D01*
X100725800Y-61811195D01*
X101600000Y-62685395D01*
X102474200Y-61811195D01*
X102409601Y-61611967D01*
X102447780Y-61596192D01*
X102745000Y-61299490D01*
X102745000Y-62020370D01*
X102653805Y-61990800D01*
X101779605Y-62865000D01*
X102653805Y-63739200D01*
X102745000Y-63709630D01*
X102745000Y-64430808D01*
X102449997Y-64135290D01*
X102409463Y-64118459D01*
X102474200Y-63918805D01*
X101600000Y-63044605D01*
X100725800Y-63918805D01*
X100790399Y-64118033D01*
X100752220Y-64133808D01*
X100330290Y-64555003D01*
X100101661Y-65105602D01*
X100101141Y-65701782D01*
X100328808Y-66252780D01*
X100750003Y-66674710D01*
X100750931Y-66675095D01*
X100330290Y-67095003D01*
X100101661Y-67645602D01*
X100101141Y-68241782D01*
X100328808Y-68792780D01*
X100750003Y-69214710D01*
X100750931Y-69215095D01*
X100330290Y-69635003D01*
X100101661Y-70185602D01*
X100101141Y-70781782D01*
X100328808Y-71332780D01*
X100750003Y-71754710D01*
X100750931Y-71755095D01*
X100330290Y-72175003D01*
X100101661Y-72725602D01*
X100101141Y-73321782D01*
X100328808Y-73872780D01*
X100750003Y-74294710D01*
X100750931Y-74295095D01*
X100330290Y-74715003D01*
X100101661Y-75265602D01*
X100101141Y-75861782D01*
X100328808Y-76412780D01*
X100750003Y-76834710D01*
X100750931Y-76835095D01*
X100330290Y-77255003D01*
X100101661Y-77805602D01*
X100101141Y-78401782D01*
X100328808Y-78952780D01*
X100750003Y-79374710D01*
X100750931Y-79375095D01*
X100330290Y-79795003D01*
X100101661Y-80345602D01*
X100101141Y-80941782D01*
X100328808Y-81492780D01*
X100750003Y-81914710D01*
X100750931Y-81915095D01*
X100330290Y-82335003D01*
X100101661Y-82885602D01*
X100101141Y-83481782D01*
X100328808Y-84032780D01*
X100750003Y-84454710D01*
X100750931Y-84455095D01*
X100330290Y-84875003D01*
X100101661Y-85425602D01*
X100101141Y-86021782D01*
X100328808Y-86572780D01*
X100750003Y-86994710D01*
X100750931Y-86995095D01*
X100330290Y-87415003D01*
X100101661Y-87965602D01*
X100101141Y-88561782D01*
X100328808Y-89112780D01*
X100750003Y-89534710D01*
X100750931Y-89535095D01*
X100330290Y-89955003D01*
X100101661Y-90505602D01*
X100101141Y-91101782D01*
X100328808Y-91652780D01*
X100750003Y-92074710D01*
X101300602Y-92303339D01*
X101896782Y-92303859D01*
X102447780Y-92076192D01*
X102869710Y-91654997D01*
X103098339Y-91104398D01*
X103098859Y-90508218D01*
X103061646Y-90418156D01*
X103873000Y-89606802D01*
X103873000Y-97602639D01*
X103113932Y-96842246D01*
X101744598Y-96273649D01*
X100261906Y-96272355D01*
X98891582Y-96838561D01*
X97842246Y-97886068D01*
X97273649Y-99255402D01*
X97272355Y-100738094D01*
X97838561Y-102108418D01*
X98601810Y-102873000D01*
X61397361Y-102873000D01*
X62157754Y-102113932D01*
X62726351Y-100744598D01*
X62727645Y-99261906D01*
X62161439Y-97891582D01*
X61113932Y-96842246D01*
X59744598Y-96273649D01*
X58261906Y-96272355D01*
X56891582Y-96838561D01*
X56127000Y-97601810D01*
X56127000Y-72618580D01*
X57794208Y-74285787D01*
X57794210Y-74285790D01*
X58081325Y-74477633D01*
X58137516Y-74488810D01*
X58420000Y-74545001D01*
X58420005Y-74545000D01*
X64546923Y-74545000D01*
X64517560Y-74690000D01*
X64517560Y-76440000D01*
X64561838Y-76675317D01*
X64700910Y-76891441D01*
X64902226Y-77028994D01*
X64863306Y-77067914D01*
X64977938Y-77182546D01*
X64724047Y-77265884D01*
X64518410Y-77830306D01*
X64544421Y-78430458D01*
X64724047Y-78864116D01*
X64977940Y-78947455D01*
X65860395Y-78065000D01*
X65846253Y-78050858D01*
X66025858Y-77871253D01*
X66040000Y-77885395D01*
X66054143Y-77871253D01*
X66233748Y-78050858D01*
X66219605Y-78065000D01*
X67102060Y-78947455D01*
X67355953Y-78864116D01*
X67561590Y-78299694D01*
X67535579Y-77699542D01*
X67355953Y-77265884D01*
X67102062Y-77182546D01*
X67216694Y-77067914D01*
X67175644Y-77026864D01*
X67366441Y-76904090D01*
X67511431Y-76691890D01*
X67562440Y-76440000D01*
X67562440Y-74690000D01*
X67535156Y-74545000D01*
X72995176Y-74545000D01*
X73235330Y-74904415D01*
X73721511Y-75229271D01*
X74295000Y-75343345D01*
X74868489Y-75229271D01*
X75354670Y-74904415D01*
X75565000Y-74589634D01*
X75775330Y-74904415D01*
X76261511Y-75229271D01*
X76835000Y-75343345D01*
X77408489Y-75229271D01*
X77894670Y-74904415D01*
X77909500Y-74882220D01*
X77973073Y-75035698D01*
X78151701Y-75214327D01*
X78385090Y-75311000D01*
X79089250Y-75311000D01*
X79248000Y-75152250D01*
X79248000Y-73787000D01*
X79502000Y-73787000D01*
X79502000Y-75152250D01*
X79660750Y-75311000D01*
X80364910Y-75311000D01*
X80598299Y-75214327D01*
X80776927Y-75035698D01*
X80873600Y-74802309D01*
X80873600Y-73945750D01*
X80714850Y-73787000D01*
X79502000Y-73787000D01*
X79248000Y-73787000D01*
X79228000Y-73787000D01*
X79228000Y-73533000D01*
X79248000Y-73533000D01*
X79248000Y-72167750D01*
X79502000Y-72167750D01*
X79502000Y-73533000D01*
X80714850Y-73533000D01*
X80873600Y-73374250D01*
X80873600Y-72517691D01*
X80776927Y-72284302D01*
X80598299Y-72105673D01*
X80364910Y-72009000D01*
X79660750Y-72009000D01*
X79502000Y-72167750D01*
X79248000Y-72167750D01*
X79089250Y-72009000D01*
X78385090Y-72009000D01*
X78151701Y-72105673D01*
X77973073Y-72284302D01*
X77909500Y-72437780D01*
X77894670Y-72415585D01*
X77408489Y-72090729D01*
X76835000Y-71976655D01*
X76261511Y-72090729D01*
X75775330Y-72415585D01*
X75565000Y-72730366D01*
X75354670Y-72415585D01*
X74868489Y-72090729D01*
X74295000Y-71976655D01*
X73721511Y-72090729D01*
X73235330Y-72415585D01*
X72995176Y-72775000D01*
X58786579Y-72775000D01*
X57400000Y-71388420D01*
X57400000Y-56734040D01*
X64529738Y-56734040D01*
X64759138Y-57289229D01*
X65154536Y-57685318D01*
X64760630Y-58078537D01*
X64530262Y-58633325D01*
X64529738Y-59234040D01*
X64759138Y-59789229D01*
X65154536Y-60185318D01*
X64760630Y-60578537D01*
X64530262Y-61133325D01*
X64529738Y-61734040D01*
X64759138Y-62289229D01*
X65154536Y-62685318D01*
X64760630Y-63078537D01*
X64530262Y-63633325D01*
X64529738Y-64234040D01*
X64759138Y-64789229D01*
X65154536Y-65185318D01*
X64760630Y-65578537D01*
X64530262Y-66133325D01*
X64529738Y-66734040D01*
X64759138Y-67289229D01*
X65154536Y-67685318D01*
X64760630Y-68078537D01*
X64530262Y-68633325D01*
X64529738Y-69234040D01*
X64759138Y-69789229D01*
X65183537Y-70214370D01*
X65738325Y-70444738D01*
X66339040Y-70445262D01*
X66894229Y-70215862D01*
X67319370Y-69791463D01*
X67549738Y-69236675D01*
X67549927Y-69019729D01*
X70187599Y-71657401D01*
X70434161Y-71822148D01*
X70725000Y-71880000D01*
X81600198Y-71880000D01*
X84898084Y-75177886D01*
X84861661Y-75265602D01*
X84861141Y-75861782D01*
X85088808Y-76412780D01*
X85510003Y-76834710D01*
X85510931Y-76835095D01*
X85090290Y-77255003D01*
X84861661Y-77805602D01*
X84861141Y-78401782D01*
X84898354Y-78491844D01*
X83282599Y-80107599D01*
X83117852Y-80354161D01*
X83060000Y-80645000D01*
X83060000Y-82870198D01*
X82235198Y-83695000D01*
X80428406Y-83695000D01*
X80476441Y-83664090D01*
X80621431Y-83451890D01*
X80672440Y-83200000D01*
X80672440Y-81900000D01*
X80628162Y-81664683D01*
X80489090Y-81448559D01*
X80276890Y-81303569D01*
X80025000Y-81252560D01*
X78725000Y-81252560D01*
X78489683Y-81296838D01*
X78273559Y-81435910D01*
X78128569Y-81648110D01*
X78077560Y-81900000D01*
X78077560Y-83200000D01*
X78121838Y-83435317D01*
X78260910Y-83651441D01*
X78324661Y-83695000D01*
X74968845Y-83695000D01*
X75101943Y-83640005D01*
X75463735Y-83278845D01*
X75659777Y-82806724D01*
X75660223Y-82295519D01*
X75465005Y-81823057D01*
X75103845Y-81461265D01*
X74631724Y-81265223D01*
X74120519Y-81264777D01*
X73648057Y-81459995D01*
X73286265Y-81821155D01*
X73090223Y-82293276D01*
X73089777Y-82804481D01*
X73284995Y-83276943D01*
X73646155Y-83638735D01*
X73781656Y-83695000D01*
X70244802Y-83695000D01*
X67510639Y-80960837D01*
X67549738Y-80866675D01*
X67550262Y-80265960D01*
X67320862Y-79710771D01*
X67232191Y-79621945D01*
X67132401Y-79472599D01*
X66984361Y-79373682D01*
X66896463Y-79285630D01*
X66873531Y-79276108D01*
X66922455Y-79127060D01*
X66040000Y-78244605D01*
X65157545Y-79127060D01*
X65206318Y-79275648D01*
X65185771Y-79284138D01*
X64760630Y-79708537D01*
X64530262Y-80263325D01*
X64529738Y-80864040D01*
X64759138Y-81419229D01*
X65154536Y-81815318D01*
X64760630Y-82208537D01*
X64530262Y-82763325D01*
X64529738Y-83364040D01*
X64759138Y-83919229D01*
X65154536Y-84315318D01*
X64760630Y-84708537D01*
X64530262Y-85263325D01*
X64529738Y-85864040D01*
X64759138Y-86419229D01*
X65154536Y-86815318D01*
X64760630Y-87208537D01*
X64530262Y-87763325D01*
X64529738Y-88364040D01*
X64759138Y-88919229D01*
X65154536Y-89315318D01*
X64760630Y-89708537D01*
X64530262Y-90263325D01*
X64529738Y-90864040D01*
X64759138Y-91419229D01*
X65154536Y-91815318D01*
X64760630Y-92208537D01*
X64530262Y-92763325D01*
X64529738Y-93364040D01*
X64759138Y-93919229D01*
X65183537Y-94344370D01*
X65280000Y-94384425D01*
X65280000Y-95250000D01*
X65337852Y-95540839D01*
X65502599Y-95787401D01*
X67407599Y-97692401D01*
X67654161Y-97857148D01*
X67945000Y-97915000D01*
X91440000Y-97915000D01*
X91730839Y-97857148D01*
X91977401Y-97692401D01*
X94517401Y-95152401D01*
X94682148Y-94905840D01*
X94720586Y-94712599D01*
X94740000Y-94615000D01*
X94740000Y-78667463D01*
X94772192Y-78635327D01*
X94914838Y-78291799D01*
X94915162Y-77919833D01*
X94773117Y-77576057D01*
X94510327Y-77312808D01*
X94166799Y-77170162D01*
X93794833Y-77169838D01*
X93451057Y-77311883D01*
X93187808Y-77574673D01*
X93045162Y-77918201D01*
X93044838Y-78290167D01*
X93186883Y-78633943D01*
X93220000Y-78667118D01*
X93220000Y-94300198D01*
X91125198Y-96395000D01*
X68259802Y-96395000D01*
X66800000Y-94935198D01*
X66800000Y-94384797D01*
X66866631Y-94357265D01*
X72389670Y-94357265D01*
X72679078Y-95057686D01*
X73214495Y-95594039D01*
X73914410Y-95884668D01*
X74672265Y-95885330D01*
X75372686Y-95595922D01*
X75909039Y-95060505D01*
X76199668Y-94360590D01*
X76200330Y-93602735D01*
X75910922Y-92902314D01*
X75718944Y-92710000D01*
X77457560Y-92710000D01*
X77457560Y-95250000D01*
X77501838Y-95485317D01*
X77640910Y-95701441D01*
X77853110Y-95846431D01*
X78105000Y-95897440D01*
X80645000Y-95897440D01*
X80880317Y-95853162D01*
X81096441Y-95714090D01*
X81241431Y-95501890D01*
X81292440Y-95250000D01*
X81292440Y-92710000D01*
X81248162Y-92474683D01*
X81109090Y-92258559D01*
X80896890Y-92113569D01*
X80645000Y-92062560D01*
X78105000Y-92062560D01*
X77869683Y-92106838D01*
X77653559Y-92245910D01*
X77508569Y-92458110D01*
X77457560Y-92710000D01*
X75718944Y-92710000D01*
X75375505Y-92365961D01*
X74675590Y-92075332D01*
X73917735Y-92074670D01*
X73217314Y-92364078D01*
X72680961Y-92899495D01*
X72390332Y-93599410D01*
X72389670Y-94357265D01*
X66866631Y-94357265D01*
X66894229Y-94345862D01*
X67319370Y-93921463D01*
X67549738Y-93366675D01*
X67550262Y-92765960D01*
X67320862Y-92210771D01*
X66925464Y-91814682D01*
X67319370Y-91421463D01*
X67549738Y-90866675D01*
X67550262Y-90265960D01*
X67510375Y-90169427D01*
X69924802Y-87755000D01*
X84775198Y-87755000D01*
X84898084Y-87877886D01*
X84861661Y-87965602D01*
X84861141Y-88561782D01*
X85088808Y-89112780D01*
X85510003Y-89534710D01*
X85510931Y-89535095D01*
X85090290Y-89955003D01*
X84861661Y-90505602D01*
X84861141Y-91101782D01*
X85088808Y-91652780D01*
X85510003Y-92074710D01*
X86060602Y-92303339D01*
X86656782Y-92303859D01*
X87207780Y-92076192D01*
X87629710Y-91654997D01*
X87858339Y-91104398D01*
X87858859Y-90508218D01*
X87821646Y-90418156D01*
X88802401Y-89437401D01*
X88967148Y-89190839D01*
X89025000Y-88900000D01*
X89025000Y-62633030D01*
X100089752Y-62633030D01*
X100115942Y-63228635D01*
X100293484Y-63657259D01*
X100546195Y-63739200D01*
X101420395Y-62865000D01*
X100546195Y-61990800D01*
X100293484Y-62072741D01*
X100089752Y-62633030D01*
X89025000Y-62633030D01*
X89025000Y-50165000D01*
X88967148Y-49874161D01*
X88802401Y-49627599D01*
X86897401Y-47722599D01*
X86650839Y-47557852D01*
X86360000Y-47500000D01*
X82149802Y-47500000D01*
X80130639Y-45480837D01*
X80169738Y-45386675D01*
X80170262Y-44785960D01*
X79940862Y-44230771D01*
X79920128Y-44210000D01*
X85472560Y-44210000D01*
X85472560Y-45960000D01*
X85516838Y-46195317D01*
X85655910Y-46411441D01*
X85868110Y-46556431D01*
X86120000Y-46607440D01*
X87870000Y-46607440D01*
X88105317Y-46563162D01*
X88321441Y-46424090D01*
X88458994Y-46222774D01*
X88497914Y-46261694D01*
X88612546Y-46147062D01*
X88695884Y-46400953D01*
X89260306Y-46606590D01*
X89860458Y-46580579D01*
X90294116Y-46400953D01*
X90377455Y-46147060D01*
X89495000Y-45264605D01*
X89480858Y-45278748D01*
X89301253Y-45099143D01*
X89315395Y-45085000D01*
X89301253Y-45070858D01*
X89480858Y-44891253D01*
X89495000Y-44905395D01*
X90377455Y-44022940D01*
X90294116Y-43769047D01*
X89729694Y-43563410D01*
X89129542Y-43589421D01*
X88695884Y-43769047D01*
X88612546Y-44022938D01*
X88497914Y-43908306D01*
X88456864Y-43949356D01*
X88334090Y-43758559D01*
X88121890Y-43613569D01*
X87870000Y-43562560D01*
X86120000Y-43562560D01*
X85884683Y-43606838D01*
X85668559Y-43745910D01*
X85523569Y-43958110D01*
X85472560Y-44210000D01*
X79920128Y-44210000D01*
X79516463Y-43805630D01*
X78961675Y-43575262D01*
X78360960Y-43574738D01*
X77805771Y-43804138D01*
X77380630Y-44228537D01*
X77371108Y-44251469D01*
X77222060Y-44202545D01*
X76339605Y-45085000D01*
X77222060Y-45967455D01*
X77370648Y-45918682D01*
X77379138Y-45939229D01*
X77803537Y-46364370D01*
X78358325Y-46594738D01*
X78959040Y-46595262D01*
X79055573Y-46555375D01*
X81297599Y-48797401D01*
X81544161Y-48962148D01*
X81835000Y-49020000D01*
X86045198Y-49020000D01*
X87505000Y-50479802D01*
X87505000Y-53805132D01*
X87475490Y-53784969D01*
X87223600Y-53733960D01*
X85496400Y-53733960D01*
X85261083Y-53778238D01*
X85044959Y-53917310D01*
X84899969Y-54129510D01*
X84848960Y-54381400D01*
X84848960Y-56108600D01*
X84893238Y-56343917D01*
X85032310Y-56560041D01*
X85244510Y-56705031D01*
X85307820Y-56717852D01*
X85090290Y-56935003D01*
X84861661Y-57485602D01*
X84861141Y-58081782D01*
X85088808Y-58632780D01*
X85510003Y-59054710D01*
X85510931Y-59055095D01*
X85090290Y-59475003D01*
X84861661Y-60025602D01*
X84861141Y-60621782D01*
X85088808Y-61172780D01*
X85510003Y-61594710D01*
X85510931Y-61595095D01*
X85090290Y-62015003D01*
X84861661Y-62565602D01*
X84861141Y-63161782D01*
X85088808Y-63712780D01*
X85510003Y-64134710D01*
X85510931Y-64135095D01*
X85090290Y-64555003D01*
X84861661Y-65105602D01*
X84861141Y-65701782D01*
X84898354Y-65791844D01*
X82870198Y-67820000D01*
X73339802Y-67820000D01*
X70610000Y-65090198D01*
X70610000Y-63920000D01*
X72412560Y-63920000D01*
X72412560Y-65620000D01*
X72456838Y-65855317D01*
X72595910Y-66071441D01*
X72808110Y-66216431D01*
X73060000Y-66267440D01*
X74260000Y-66267440D01*
X74495317Y-66223162D01*
X74711441Y-66084090D01*
X74815571Y-65931691D01*
X74830875Y-65951933D01*
X75250624Y-66198286D01*
X75342391Y-66213462D01*
X75533000Y-66088731D01*
X75533000Y-64897000D01*
X75513000Y-64897000D01*
X75513000Y-64643000D01*
X75533000Y-64643000D01*
X75533000Y-63451269D01*
X75787000Y-63451269D01*
X75787000Y-64643000D01*
X75807000Y-64643000D01*
X75807000Y-64897000D01*
X75787000Y-64897000D01*
X75787000Y-66088731D01*
X75977609Y-66213462D01*
X76069376Y-66198286D01*
X76489125Y-65951933D01*
X76657590Y-65729109D01*
X76786723Y-65922370D01*
X77187386Y-66190084D01*
X77660000Y-66284093D01*
X78132614Y-66190084D01*
X78533277Y-65922370D01*
X78660000Y-65732715D01*
X78786723Y-65922370D01*
X79187386Y-66190084D01*
X79660000Y-66284093D01*
X80132614Y-66190084D01*
X80533277Y-65922370D01*
X80800991Y-65521707D01*
X80895000Y-65049093D01*
X80895000Y-64490907D01*
X80800991Y-64018293D01*
X80533277Y-63617630D01*
X80132614Y-63349916D01*
X79660000Y-63255907D01*
X79187386Y-63349916D01*
X78786723Y-63617630D01*
X78660000Y-63807285D01*
X78533277Y-63617630D01*
X78132614Y-63349916D01*
X77660000Y-63255907D01*
X77187386Y-63349916D01*
X76786723Y-63617630D01*
X76657590Y-63810891D01*
X76489125Y-63588067D01*
X76069376Y-63341714D01*
X75977609Y-63326538D01*
X75787000Y-63451269D01*
X75533000Y-63451269D01*
X75342391Y-63326538D01*
X75250624Y-63341714D01*
X74830875Y-63588067D01*
X74814731Y-63609420D01*
X74724090Y-63468559D01*
X74511890Y-63323569D01*
X74260000Y-63272560D01*
X73060000Y-63272560D01*
X72824683Y-63316838D01*
X72608559Y-63455910D01*
X72463569Y-63668110D01*
X72412560Y-63920000D01*
X70610000Y-63920000D01*
X70610000Y-60245000D01*
X70552148Y-59954161D01*
X70387401Y-59707599D01*
X67510639Y-56830837D01*
X67549738Y-56736675D01*
X67550262Y-56135960D01*
X67320862Y-55580771D01*
X66896463Y-55155630D01*
X66873531Y-55146108D01*
X66911642Y-55030000D01*
X72412560Y-55030000D01*
X72412560Y-56730000D01*
X72456838Y-56965317D01*
X72595910Y-57181441D01*
X72808110Y-57326431D01*
X73060000Y-57377440D01*
X74260000Y-57377440D01*
X74495317Y-57333162D01*
X74711441Y-57194090D01*
X74815571Y-57041691D01*
X74830875Y-57061933D01*
X75250624Y-57308286D01*
X75342391Y-57323462D01*
X75533000Y-57198731D01*
X75533000Y-56007000D01*
X75513000Y-56007000D01*
X75513000Y-55753000D01*
X75533000Y-55753000D01*
X75533000Y-54561269D01*
X75787000Y-54561269D01*
X75787000Y-55753000D01*
X75807000Y-55753000D01*
X75807000Y-56007000D01*
X75787000Y-56007000D01*
X75787000Y-57198731D01*
X75977609Y-57323462D01*
X76069376Y-57308286D01*
X76489125Y-57061933D01*
X76657590Y-56839109D01*
X76786723Y-57032370D01*
X77187386Y-57300084D01*
X77660000Y-57394093D01*
X78132614Y-57300084D01*
X78533277Y-57032370D01*
X78660000Y-56842715D01*
X78786723Y-57032370D01*
X79187386Y-57300084D01*
X79660000Y-57394093D01*
X80132614Y-57300084D01*
X80533277Y-57032370D01*
X80800991Y-56631707D01*
X80895000Y-56159093D01*
X80895000Y-55600907D01*
X80800991Y-55128293D01*
X80533277Y-54727630D01*
X80132614Y-54459916D01*
X79660000Y-54365907D01*
X79187386Y-54459916D01*
X78786723Y-54727630D01*
X78660000Y-54917285D01*
X78533277Y-54727630D01*
X78132614Y-54459916D01*
X77660000Y-54365907D01*
X77187386Y-54459916D01*
X76786723Y-54727630D01*
X76657590Y-54920891D01*
X76489125Y-54698067D01*
X76069376Y-54451714D01*
X75977609Y-54436538D01*
X75787000Y-54561269D01*
X75533000Y-54561269D01*
X75342391Y-54436538D01*
X75250624Y-54451714D01*
X74830875Y-54698067D01*
X74814731Y-54719420D01*
X74724090Y-54578559D01*
X74511890Y-54433569D01*
X74260000Y-54382560D01*
X73060000Y-54382560D01*
X72824683Y-54426838D01*
X72608559Y-54565910D01*
X72463569Y-54778110D01*
X72412560Y-55030000D01*
X66911642Y-55030000D01*
X66922455Y-54997060D01*
X66040000Y-54114605D01*
X65157545Y-54997060D01*
X65206318Y-55145648D01*
X65185771Y-55154138D01*
X64760630Y-55578537D01*
X64530262Y-56133325D01*
X64529738Y-56734040D01*
X57400000Y-56734040D01*
X57400000Y-50560000D01*
X64517560Y-50560000D01*
X64517560Y-52310000D01*
X64561838Y-52545317D01*
X64700910Y-52761441D01*
X64902226Y-52898994D01*
X64863306Y-52937914D01*
X64977938Y-53052546D01*
X64724047Y-53135884D01*
X64518410Y-53700306D01*
X64544421Y-54300458D01*
X64724047Y-54734116D01*
X64977940Y-54817455D01*
X65860395Y-53935000D01*
X65846253Y-53920858D01*
X66025858Y-53741253D01*
X66040000Y-53755395D01*
X66054143Y-53741253D01*
X66233748Y-53920858D01*
X66219605Y-53935000D01*
X67102060Y-54817455D01*
X67355953Y-54734116D01*
X67561590Y-54169694D01*
X67535579Y-53569542D01*
X67355953Y-53135884D01*
X67102062Y-53052546D01*
X67216694Y-52937914D01*
X67175644Y-52896864D01*
X67366441Y-52774090D01*
X67511431Y-52561890D01*
X67562440Y-52310000D01*
X67562440Y-50560000D01*
X67518162Y-50324683D01*
X67379090Y-50108559D01*
X67166890Y-49963569D01*
X66915000Y-49912560D01*
X65165000Y-49912560D01*
X64929683Y-49956838D01*
X64713559Y-50095910D01*
X64568569Y-50308110D01*
X64517560Y-50560000D01*
X57400000Y-50560000D01*
X57400000Y-50531580D01*
X58786579Y-49145000D01*
X60959995Y-49145000D01*
X60960000Y-49145001D01*
X61242484Y-49088810D01*
X61298675Y-49077633D01*
X61585790Y-48885790D01*
X61585791Y-48885789D01*
X64125787Y-46345792D01*
X64125790Y-46345790D01*
X64317633Y-46058675D01*
X64385000Y-45720000D01*
X64385000Y-44210000D01*
X72137560Y-44210000D01*
X72137560Y-45960000D01*
X72181838Y-46195317D01*
X72320910Y-46411441D01*
X72533110Y-46556431D01*
X72785000Y-46607440D01*
X74535000Y-46607440D01*
X74770317Y-46563162D01*
X74986441Y-46424090D01*
X75123994Y-46222774D01*
X75162914Y-46261694D01*
X75277546Y-46147062D01*
X75360884Y-46400953D01*
X75925306Y-46606590D01*
X76525458Y-46580579D01*
X76959116Y-46400953D01*
X77042455Y-46147060D01*
X76160000Y-45264605D01*
X76145858Y-45278748D01*
X75966253Y-45099143D01*
X75980395Y-45085000D01*
X75966253Y-45070858D01*
X76145858Y-44891253D01*
X76160000Y-44905395D01*
X77042455Y-44022940D01*
X76959116Y-43769047D01*
X76394694Y-43563410D01*
X75794542Y-43589421D01*
X75360884Y-43769047D01*
X75277546Y-44022938D01*
X75162914Y-43908306D01*
X75121864Y-43949356D01*
X74999090Y-43758559D01*
X74786890Y-43613569D01*
X74535000Y-43562560D01*
X72785000Y-43562560D01*
X72549683Y-43606838D01*
X72333559Y-43745910D01*
X72188569Y-43958110D01*
X72137560Y-44210000D01*
X64385000Y-44210000D01*
X64385000Y-43546580D01*
X65771579Y-42160000D01*
X94883420Y-42160000D01*
X95635000Y-42911579D01*
X95635000Y-42911579D01*
G37*
X95635000Y-42911579D02*
X95635000Y-45719995D01*
X95634999Y-45720000D01*
X95679052Y-45941463D01*
X95702367Y-46058675D01*
X95894210Y-46345790D01*
X98434208Y-48885787D01*
X98434210Y-48885790D01*
X100715000Y-51166579D01*
X100715000Y-54010963D01*
X100455000Y-54270510D01*
X100455000Y-52705000D01*
X100397148Y-52414161D01*
X100397148Y-52414160D01*
X100232401Y-52167599D01*
X95787401Y-47722599D01*
X95546309Y-47561507D01*
X93465639Y-45480837D01*
X93504738Y-45386675D01*
X93505262Y-44785960D01*
X93275862Y-44230771D01*
X92851463Y-43805630D01*
X92296675Y-43575262D01*
X91695960Y-43574738D01*
X91140771Y-43804138D01*
X90715630Y-44228537D01*
X90706108Y-44251469D01*
X90557060Y-44202545D01*
X89674605Y-45085000D01*
X90557060Y-45967455D01*
X90705648Y-45918682D01*
X90714138Y-45939229D01*
X91138537Y-46364370D01*
X91693325Y-46594738D01*
X92294040Y-46595262D01*
X92390573Y-46555375D01*
X94632599Y-48797401D01*
X94873691Y-48958493D01*
X98935000Y-53019802D01*
X98935000Y-55245000D01*
X98992852Y-55535839D01*
X99157599Y-55782401D01*
X100324396Y-56949198D01*
X100101661Y-57485602D01*
X100101141Y-58081782D01*
X100328808Y-58632780D01*
X100750003Y-59054710D01*
X100750931Y-59055095D01*
X100330290Y-59475003D01*
X100101661Y-60025602D01*
X100101141Y-60621782D01*
X100328808Y-61172780D01*
X100750003Y-61594710D01*
X100790537Y-61611541D01*
X100725800Y-61811195D01*
X101600000Y-62685395D01*
X102474200Y-61811195D01*
X102409601Y-61611967D01*
X102447780Y-61596192D01*
X102745000Y-61299490D01*
X102745000Y-62020370D01*
X102653805Y-61990800D01*
X101779605Y-62865000D01*
X102653805Y-63739200D01*
X102745000Y-63709630D01*
X102745000Y-64430808D01*
X102449997Y-64135290D01*
X102409463Y-64118459D01*
X102474200Y-63918805D01*
X101600000Y-63044605D01*
X100725800Y-63918805D01*
X100790399Y-64118033D01*
X100752220Y-64133808D01*
X100330290Y-64555003D01*
X100101661Y-65105602D01*
X100101141Y-65701782D01*
X100328808Y-66252780D01*
X100750003Y-66674710D01*
X100750931Y-66675095D01*
X100330290Y-67095003D01*
X100101661Y-67645602D01*
X100101141Y-68241782D01*
X100328808Y-68792780D01*
X100750003Y-69214710D01*
X100750931Y-69215095D01*
X100330290Y-69635003D01*
X100101661Y-70185602D01*
X100101141Y-70781782D01*
X100328808Y-71332780D01*
X100750003Y-71754710D01*
X100750931Y-71755095D01*
X100330290Y-72175003D01*
X100101661Y-72725602D01*
X100101141Y-73321782D01*
X100328808Y-73872780D01*
X100750003Y-74294710D01*
X100750931Y-74295095D01*
X100330290Y-74715003D01*
X100101661Y-75265602D01*
X100101141Y-75861782D01*
X100328808Y-76412780D01*
X100750003Y-76834710D01*
X100750931Y-76835095D01*
X100330290Y-77255003D01*
X100101661Y-77805602D01*
X100101141Y-78401782D01*
X100328808Y-78952780D01*
X100750003Y-79374710D01*
X100750931Y-79375095D01*
X100330290Y-79795003D01*
X100101661Y-80345602D01*
X100101141Y-80941782D01*
X100328808Y-81492780D01*
X100750003Y-81914710D01*
X100750931Y-81915095D01*
X100330290Y-82335003D01*
X100101661Y-82885602D01*
X100101141Y-83481782D01*
X100328808Y-84032780D01*
X100750003Y-84454710D01*
X100750931Y-84455095D01*
X100330290Y-84875003D01*
X100101661Y-85425602D01*
X100101141Y-86021782D01*
X100328808Y-86572780D01*
X100750003Y-86994710D01*
X100750931Y-86995095D01*
X100330290Y-87415003D01*
X100101661Y-87965602D01*
X100101141Y-88561782D01*
X100328808Y-89112780D01*
X100750003Y-89534710D01*
X100750931Y-89535095D01*
X100330290Y-89955003D01*
X100101661Y-90505602D01*
X100101141Y-91101782D01*
X100328808Y-91652780D01*
X100750003Y-92074710D01*
X101300602Y-92303339D01*
X101896782Y-92303859D01*
X102447780Y-92076192D01*
X102869710Y-91654997D01*
X103098339Y-91104398D01*
X103098859Y-90508218D01*
X103061646Y-90418156D01*
X103873000Y-89606802D01*
X103873000Y-97602639D01*
X103113932Y-96842246D01*
X101744598Y-96273649D01*
X100261906Y-96272355D01*
X98891582Y-96838561D01*
X97842246Y-97886068D01*
X97273649Y-99255402D01*
X97272355Y-100738094D01*
X97838561Y-102108418D01*
X98601810Y-102873000D01*
X61397361Y-102873000D01*
X62157754Y-102113932D01*
X62726351Y-100744598D01*
X62727645Y-99261906D01*
X62161439Y-97891582D01*
X61113932Y-96842246D01*
X59744598Y-96273649D01*
X58261906Y-96272355D01*
X56891582Y-96838561D01*
X56127000Y-97601810D01*
X56127000Y-72618580D01*
X57794208Y-74285787D01*
X57794210Y-74285790D01*
X58081325Y-74477633D01*
X58137516Y-74488810D01*
X58420000Y-74545001D01*
X58420005Y-74545000D01*
X64546923Y-74545000D01*
X64517560Y-74690000D01*
X64517560Y-76440000D01*
X64561838Y-76675317D01*
X64700910Y-76891441D01*
X64902226Y-77028994D01*
X64863306Y-77067914D01*
X64977938Y-77182546D01*
X64724047Y-77265884D01*
X64518410Y-77830306D01*
X64544421Y-78430458D01*
X64724047Y-78864116D01*
X64977940Y-78947455D01*
X65860395Y-78065000D01*
X65846253Y-78050858D01*
X66025858Y-77871253D01*
X66040000Y-77885395D01*
X66054143Y-77871253D01*
X66233748Y-78050858D01*
X66219605Y-78065000D01*
X67102060Y-78947455D01*
X67355953Y-78864116D01*
X67561590Y-78299694D01*
X67535579Y-77699542D01*
X67355953Y-77265884D01*
X67102062Y-77182546D01*
X67216694Y-77067914D01*
X67175644Y-77026864D01*
X67366441Y-76904090D01*
X67511431Y-76691890D01*
X67562440Y-76440000D01*
X67562440Y-74690000D01*
X67535156Y-74545000D01*
X72995176Y-74545000D01*
X73235330Y-74904415D01*
X73721511Y-75229271D01*
X74295000Y-75343345D01*
X74868489Y-75229271D01*
X75354670Y-74904415D01*
X75565000Y-74589634D01*
X75775330Y-74904415D01*
X76261511Y-75229271D01*
X76835000Y-75343345D01*
X77408489Y-75229271D01*
X77894670Y-74904415D01*
X77909500Y-74882220D01*
X77973073Y-75035698D01*
X78151701Y-75214327D01*
X78385090Y-75311000D01*
X79089250Y-75311000D01*
X79248000Y-75152250D01*
X79248000Y-73787000D01*
X79502000Y-73787000D01*
X79502000Y-75152250D01*
X79660750Y-75311000D01*
X80364910Y-75311000D01*
X80598299Y-75214327D01*
X80776927Y-75035698D01*
X80873600Y-74802309D01*
X80873600Y-73945750D01*
X80714850Y-73787000D01*
X79502000Y-73787000D01*
X79248000Y-73787000D01*
X79228000Y-73787000D01*
X79228000Y-73533000D01*
X79248000Y-73533000D01*
X79248000Y-72167750D01*
X79502000Y-72167750D01*
X79502000Y-73533000D01*
X80714850Y-73533000D01*
X80873600Y-73374250D01*
X80873600Y-72517691D01*
X80776927Y-72284302D01*
X80598299Y-72105673D01*
X80364910Y-72009000D01*
X79660750Y-72009000D01*
X79502000Y-72167750D01*
X79248000Y-72167750D01*
X79089250Y-72009000D01*
X78385090Y-72009000D01*
X78151701Y-72105673D01*
X77973073Y-72284302D01*
X77909500Y-72437780D01*
X77894670Y-72415585D01*
X77408489Y-72090729D01*
X76835000Y-71976655D01*
X76261511Y-72090729D01*
X75775330Y-72415585D01*
X75565000Y-72730366D01*
X75354670Y-72415585D01*
X74868489Y-72090729D01*
X74295000Y-71976655D01*
X73721511Y-72090729D01*
X73235330Y-72415585D01*
X72995176Y-72775000D01*
X58786579Y-72775000D01*
X57400000Y-71388420D01*
X57400000Y-56734040D01*
X64529738Y-56734040D01*
X64759138Y-57289229D01*
X65154536Y-57685318D01*
X64760630Y-58078537D01*
X64530262Y-58633325D01*
X64529738Y-59234040D01*
X64759138Y-59789229D01*
X65154536Y-60185318D01*
X64760630Y-60578537D01*
X64530262Y-61133325D01*
X64529738Y-61734040D01*
X64759138Y-62289229D01*
X65154536Y-62685318D01*
X64760630Y-63078537D01*
X64530262Y-63633325D01*
X64529738Y-64234040D01*
X64759138Y-64789229D01*
X65154536Y-65185318D01*
X64760630Y-65578537D01*
X64530262Y-66133325D01*
X64529738Y-66734040D01*
X64759138Y-67289229D01*
X65154536Y-67685318D01*
X64760630Y-68078537D01*
X64530262Y-68633325D01*
X64529738Y-69234040D01*
X64759138Y-69789229D01*
X65183537Y-70214370D01*
X65738325Y-70444738D01*
X66339040Y-70445262D01*
X66894229Y-70215862D01*
X67319370Y-69791463D01*
X67549738Y-69236675D01*
X67549927Y-69019729D01*
X70187599Y-71657401D01*
X70434161Y-71822148D01*
X70725000Y-71880000D01*
X81600198Y-71880000D01*
X84898084Y-75177886D01*
X84861661Y-75265602D01*
X84861141Y-75861782D01*
X85088808Y-76412780D01*
X85510003Y-76834710D01*
X85510931Y-76835095D01*
X85090290Y-77255003D01*
X84861661Y-77805602D01*
X84861141Y-78401782D01*
X84898354Y-78491844D01*
X83282599Y-80107599D01*
X83117852Y-80354161D01*
X83060000Y-80645000D01*
X83060000Y-82870198D01*
X82235198Y-83695000D01*
X80428406Y-83695000D01*
X80476441Y-83664090D01*
X80621431Y-83451890D01*
X80672440Y-83200000D01*
X80672440Y-81900000D01*
X80628162Y-81664683D01*
X80489090Y-81448559D01*
X80276890Y-81303569D01*
X80025000Y-81252560D01*
X78725000Y-81252560D01*
X78489683Y-81296838D01*
X78273559Y-81435910D01*
X78128569Y-81648110D01*
X78077560Y-81900000D01*
X78077560Y-83200000D01*
X78121838Y-83435317D01*
X78260910Y-83651441D01*
X78324661Y-83695000D01*
X74968845Y-83695000D01*
X75101943Y-83640005D01*
X75463735Y-83278845D01*
X75659777Y-82806724D01*
X75660223Y-82295519D01*
X75465005Y-81823057D01*
X75103845Y-81461265D01*
X74631724Y-81265223D01*
X74120519Y-81264777D01*
X73648057Y-81459995D01*
X73286265Y-81821155D01*
X73090223Y-82293276D01*
X73089777Y-82804481D01*
X73284995Y-83276943D01*
X73646155Y-83638735D01*
X73781656Y-83695000D01*
X70244802Y-83695000D01*
X67510639Y-80960837D01*
X67549738Y-80866675D01*
X67550262Y-80265960D01*
X67320862Y-79710771D01*
X67232191Y-79621945D01*
X67132401Y-79472599D01*
X66984361Y-79373682D01*
X66896463Y-79285630D01*
X66873531Y-79276108D01*
X66922455Y-79127060D01*
X66040000Y-78244605D01*
X65157545Y-79127060D01*
X65206318Y-79275648D01*
X65185771Y-79284138D01*
X64760630Y-79708537D01*
X64530262Y-80263325D01*
X64529738Y-80864040D01*
X64759138Y-81419229D01*
X65154536Y-81815318D01*
X64760630Y-82208537D01*
X64530262Y-82763325D01*
X64529738Y-83364040D01*
X64759138Y-83919229D01*
X65154536Y-84315318D01*
X64760630Y-84708537D01*
X64530262Y-85263325D01*
X64529738Y-85864040D01*
X64759138Y-86419229D01*
X65154536Y-86815318D01*
X64760630Y-87208537D01*
X64530262Y-87763325D01*
X64529738Y-88364040D01*
X64759138Y-88919229D01*
X65154536Y-89315318D01*
X64760630Y-89708537D01*
X64530262Y-90263325D01*
X64529738Y-90864040D01*
X64759138Y-91419229D01*
X65154536Y-91815318D01*
X64760630Y-92208537D01*
X64530262Y-92763325D01*
X64529738Y-93364040D01*
X64759138Y-93919229D01*
X65183537Y-94344370D01*
X65280000Y-94384425D01*
X65280000Y-95250000D01*
X65337852Y-95540839D01*
X65502599Y-95787401D01*
X67407599Y-97692401D01*
X67654161Y-97857148D01*
X67945000Y-97915000D01*
X91440000Y-97915000D01*
X91730839Y-97857148D01*
X91977401Y-97692401D01*
X94517401Y-95152401D01*
X94682148Y-94905840D01*
X94720586Y-94712599D01*
X94740000Y-94615000D01*
X94740000Y-78667463D01*
X94772192Y-78635327D01*
X94914838Y-78291799D01*
X94915162Y-77919833D01*
X94773117Y-77576057D01*
X94510327Y-77312808D01*
X94166799Y-77170162D01*
X93794833Y-77169838D01*
X93451057Y-77311883D01*
X93187808Y-77574673D01*
X93045162Y-77918201D01*
X93044838Y-78290167D01*
X93186883Y-78633943D01*
X93220000Y-78667118D01*
X93220000Y-94300198D01*
X91125198Y-96395000D01*
X68259802Y-96395000D01*
X66800000Y-94935198D01*
X66800000Y-94384797D01*
X66866631Y-94357265D01*
X72389670Y-94357265D01*
X72679078Y-95057686D01*
X73214495Y-95594039D01*
X73914410Y-95884668D01*
X74672265Y-95885330D01*
X75372686Y-95595922D01*
X75909039Y-95060505D01*
X76199668Y-94360590D01*
X76200330Y-93602735D01*
X75910922Y-92902314D01*
X75718944Y-92710000D01*
X77457560Y-92710000D01*
X77457560Y-95250000D01*
X77501838Y-95485317D01*
X77640910Y-95701441D01*
X77853110Y-95846431D01*
X78105000Y-95897440D01*
X80645000Y-95897440D01*
X80880317Y-95853162D01*
X81096441Y-95714090D01*
X81241431Y-95501890D01*
X81292440Y-95250000D01*
X81292440Y-92710000D01*
X81248162Y-92474683D01*
X81109090Y-92258559D01*
X80896890Y-92113569D01*
X80645000Y-92062560D01*
X78105000Y-92062560D01*
X77869683Y-92106838D01*
X77653559Y-92245910D01*
X77508569Y-92458110D01*
X77457560Y-92710000D01*
X75718944Y-92710000D01*
X75375505Y-92365961D01*
X74675590Y-92075332D01*
X73917735Y-92074670D01*
X73217314Y-92364078D01*
X72680961Y-92899495D01*
X72390332Y-93599410D01*
X72389670Y-94357265D01*
X66866631Y-94357265D01*
X66894229Y-94345862D01*
X67319370Y-93921463D01*
X67549738Y-93366675D01*
X67550262Y-92765960D01*
X67320862Y-92210771D01*
X66925464Y-91814682D01*
X67319370Y-91421463D01*
X67549738Y-90866675D01*
X67550262Y-90265960D01*
X67510375Y-90169427D01*
X69924802Y-87755000D01*
X84775198Y-87755000D01*
X84898084Y-87877886D01*
X84861661Y-87965602D01*
X84861141Y-88561782D01*
X85088808Y-89112780D01*
X85510003Y-89534710D01*
X85510931Y-89535095D01*
X85090290Y-89955003D01*
X84861661Y-90505602D01*
X84861141Y-91101782D01*
X85088808Y-91652780D01*
X85510003Y-92074710D01*
X86060602Y-92303339D01*
X86656782Y-92303859D01*
X87207780Y-92076192D01*
X87629710Y-91654997D01*
X87858339Y-91104398D01*
X87858859Y-90508218D01*
X87821646Y-90418156D01*
X88802401Y-89437401D01*
X88967148Y-89190839D01*
X89025000Y-88900000D01*
X89025000Y-62633030D01*
X100089752Y-62633030D01*
X100115942Y-63228635D01*
X100293484Y-63657259D01*
X100546195Y-63739200D01*
X101420395Y-62865000D01*
X100546195Y-61990800D01*
X100293484Y-62072741D01*
X100089752Y-62633030D01*
X89025000Y-62633030D01*
X89025000Y-50165000D01*
X88967148Y-49874161D01*
X88802401Y-49627599D01*
X86897401Y-47722599D01*
X86650839Y-47557852D01*
X86360000Y-47500000D01*
X82149802Y-47500000D01*
X80130639Y-45480837D01*
X80169738Y-45386675D01*
X80170262Y-44785960D01*
X79940862Y-44230771D01*
X79920128Y-44210000D01*
X85472560Y-44210000D01*
X85472560Y-45960000D01*
X85516838Y-46195317D01*
X85655910Y-46411441D01*
X85868110Y-46556431D01*
X86120000Y-46607440D01*
X87870000Y-46607440D01*
X88105317Y-46563162D01*
X88321441Y-46424090D01*
X88458994Y-46222774D01*
X88497914Y-46261694D01*
X88612546Y-46147062D01*
X88695884Y-46400953D01*
X89260306Y-46606590D01*
X89860458Y-46580579D01*
X90294116Y-46400953D01*
X90377455Y-46147060D01*
X89495000Y-45264605D01*
X89480858Y-45278748D01*
X89301253Y-45099143D01*
X89315395Y-45085000D01*
X89301253Y-45070858D01*
X89480858Y-44891253D01*
X89495000Y-44905395D01*
X90377455Y-44022940D01*
X90294116Y-43769047D01*
X89729694Y-43563410D01*
X89129542Y-43589421D01*
X88695884Y-43769047D01*
X88612546Y-44022938D01*
X88497914Y-43908306D01*
X88456864Y-43949356D01*
X88334090Y-43758559D01*
X88121890Y-43613569D01*
X87870000Y-43562560D01*
X86120000Y-43562560D01*
X85884683Y-43606838D01*
X85668559Y-43745910D01*
X85523569Y-43958110D01*
X85472560Y-44210000D01*
X79920128Y-44210000D01*
X79516463Y-43805630D01*
X78961675Y-43575262D01*
X78360960Y-43574738D01*
X77805771Y-43804138D01*
X77380630Y-44228537D01*
X77371108Y-44251469D01*
X77222060Y-44202545D01*
X76339605Y-45085000D01*
X77222060Y-45967455D01*
X77370648Y-45918682D01*
X77379138Y-45939229D01*
X77803537Y-46364370D01*
X78358325Y-46594738D01*
X78959040Y-46595262D01*
X79055573Y-46555375D01*
X81297599Y-48797401D01*
X81544161Y-48962148D01*
X81835000Y-49020000D01*
X86045198Y-49020000D01*
X87505000Y-50479802D01*
X87505000Y-53805132D01*
X87475490Y-53784969D01*
X87223600Y-53733960D01*
X85496400Y-53733960D01*
X85261083Y-53778238D01*
X85044959Y-53917310D01*
X84899969Y-54129510D01*
X84848960Y-54381400D01*
X84848960Y-56108600D01*
X84893238Y-56343917D01*
X85032310Y-56560041D01*
X85244510Y-56705031D01*
X85307820Y-56717852D01*
X85090290Y-56935003D01*
X84861661Y-57485602D01*
X84861141Y-58081782D01*
X85088808Y-58632780D01*
X85510003Y-59054710D01*
X85510931Y-59055095D01*
X85090290Y-59475003D01*
X84861661Y-60025602D01*
X84861141Y-60621782D01*
X85088808Y-61172780D01*
X85510003Y-61594710D01*
X85510931Y-61595095D01*
X85090290Y-62015003D01*
X84861661Y-62565602D01*
X84861141Y-63161782D01*
X85088808Y-63712780D01*
X85510003Y-64134710D01*
X85510931Y-64135095D01*
X85090290Y-64555003D01*
X84861661Y-65105602D01*
X84861141Y-65701782D01*
X84898354Y-65791844D01*
X82870198Y-67820000D01*
X73339802Y-67820000D01*
X70610000Y-65090198D01*
X70610000Y-63920000D01*
X72412560Y-63920000D01*
X72412560Y-65620000D01*
X72456838Y-65855317D01*
X72595910Y-66071441D01*
X72808110Y-66216431D01*
X73060000Y-66267440D01*
X74260000Y-66267440D01*
X74495317Y-66223162D01*
X74711441Y-66084090D01*
X74815571Y-65931691D01*
X74830875Y-65951933D01*
X75250624Y-66198286D01*
X75342391Y-66213462D01*
X75533000Y-66088731D01*
X75533000Y-64897000D01*
X75513000Y-64897000D01*
X75513000Y-64643000D01*
X75533000Y-64643000D01*
X75533000Y-63451269D01*
X75787000Y-63451269D01*
X75787000Y-64643000D01*
X75807000Y-64643000D01*
X75807000Y-64897000D01*
X75787000Y-64897000D01*
X75787000Y-66088731D01*
X75977609Y-66213462D01*
X76069376Y-66198286D01*
X76489125Y-65951933D01*
X76657590Y-65729109D01*
X76786723Y-65922370D01*
X77187386Y-66190084D01*
X77660000Y-66284093D01*
X78132614Y-66190084D01*
X78533277Y-65922370D01*
X78660000Y-65732715D01*
X78786723Y-65922370D01*
X79187386Y-66190084D01*
X79660000Y-66284093D01*
X80132614Y-66190084D01*
X80533277Y-65922370D01*
X80800991Y-65521707D01*
X80895000Y-65049093D01*
X80895000Y-64490907D01*
X80800991Y-64018293D01*
X80533277Y-63617630D01*
X80132614Y-63349916D01*
X79660000Y-63255907D01*
X79187386Y-63349916D01*
X78786723Y-63617630D01*
X78660000Y-63807285D01*
X78533277Y-63617630D01*
X78132614Y-63349916D01*
X77660000Y-63255907D01*
X77187386Y-63349916D01*
X76786723Y-63617630D01*
X76657590Y-63810891D01*
X76489125Y-63588067D01*
X76069376Y-63341714D01*
X75977609Y-63326538D01*
X75787000Y-63451269D01*
X75533000Y-63451269D01*
X75342391Y-63326538D01*
X75250624Y-63341714D01*
X74830875Y-63588067D01*
X74814731Y-63609420D01*
X74724090Y-63468559D01*
X74511890Y-63323569D01*
X74260000Y-63272560D01*
X73060000Y-63272560D01*
X72824683Y-63316838D01*
X72608559Y-63455910D01*
X72463569Y-63668110D01*
X72412560Y-63920000D01*
X70610000Y-63920000D01*
X70610000Y-60245000D01*
X70552148Y-59954161D01*
X70387401Y-59707599D01*
X67510639Y-56830837D01*
X67549738Y-56736675D01*
X67550262Y-56135960D01*
X67320862Y-55580771D01*
X66896463Y-55155630D01*
X66873531Y-55146108D01*
X66911642Y-55030000D01*
X72412560Y-55030000D01*
X72412560Y-56730000D01*
X72456838Y-56965317D01*
X72595910Y-57181441D01*
X72808110Y-57326431D01*
X73060000Y-57377440D01*
X74260000Y-57377440D01*
X74495317Y-57333162D01*
X74711441Y-57194090D01*
X74815571Y-57041691D01*
X74830875Y-57061933D01*
X75250624Y-57308286D01*
X75342391Y-57323462D01*
X75533000Y-57198731D01*
X75533000Y-56007000D01*
X75513000Y-56007000D01*
X75513000Y-55753000D01*
X75533000Y-55753000D01*
X75533000Y-54561269D01*
X75787000Y-54561269D01*
X75787000Y-55753000D01*
X75807000Y-55753000D01*
X75807000Y-56007000D01*
X75787000Y-56007000D01*
X75787000Y-57198731D01*
X75977609Y-57323462D01*
X76069376Y-57308286D01*
X76489125Y-57061933D01*
X76657590Y-56839109D01*
X76786723Y-57032370D01*
X77187386Y-57300084D01*
X77660000Y-57394093D01*
X78132614Y-57300084D01*
X78533277Y-57032370D01*
X78660000Y-56842715D01*
X78786723Y-57032370D01*
X79187386Y-57300084D01*
X79660000Y-57394093D01*
X80132614Y-57300084D01*
X80533277Y-57032370D01*
X80800991Y-56631707D01*
X80895000Y-56159093D01*
X80895000Y-55600907D01*
X80800991Y-55128293D01*
X80533277Y-54727630D01*
X80132614Y-54459916D01*
X79660000Y-54365907D01*
X79187386Y-54459916D01*
X78786723Y-54727630D01*
X78660000Y-54917285D01*
X78533277Y-54727630D01*
X78132614Y-54459916D01*
X77660000Y-54365907D01*
X77187386Y-54459916D01*
X76786723Y-54727630D01*
X76657590Y-54920891D01*
X76489125Y-54698067D01*
X76069376Y-54451714D01*
X75977609Y-54436538D01*
X75787000Y-54561269D01*
X75533000Y-54561269D01*
X75342391Y-54436538D01*
X75250624Y-54451714D01*
X74830875Y-54698067D01*
X74814731Y-54719420D01*
X74724090Y-54578559D01*
X74511890Y-54433569D01*
X74260000Y-54382560D01*
X73060000Y-54382560D01*
X72824683Y-54426838D01*
X72608559Y-54565910D01*
X72463569Y-54778110D01*
X72412560Y-55030000D01*
X66911642Y-55030000D01*
X66922455Y-54997060D01*
X66040000Y-54114605D01*
X65157545Y-54997060D01*
X65206318Y-55145648D01*
X65185771Y-55154138D01*
X64760630Y-55578537D01*
X64530262Y-56133325D01*
X64529738Y-56734040D01*
X57400000Y-56734040D01*
X57400000Y-50560000D01*
X64517560Y-50560000D01*
X64517560Y-52310000D01*
X64561838Y-52545317D01*
X64700910Y-52761441D01*
X64902226Y-52898994D01*
X64863306Y-52937914D01*
X64977938Y-53052546D01*
X64724047Y-53135884D01*
X64518410Y-53700306D01*
X64544421Y-54300458D01*
X64724047Y-54734116D01*
X64977940Y-54817455D01*
X65860395Y-53935000D01*
X65846253Y-53920858D01*
X66025858Y-53741253D01*
X66040000Y-53755395D01*
X66054143Y-53741253D01*
X66233748Y-53920858D01*
X66219605Y-53935000D01*
X67102060Y-54817455D01*
X67355953Y-54734116D01*
X67561590Y-54169694D01*
X67535579Y-53569542D01*
X67355953Y-53135884D01*
X67102062Y-53052546D01*
X67216694Y-52937914D01*
X67175644Y-52896864D01*
X67366441Y-52774090D01*
X67511431Y-52561890D01*
X67562440Y-52310000D01*
X67562440Y-50560000D01*
X67518162Y-50324683D01*
X67379090Y-50108559D01*
X67166890Y-49963569D01*
X66915000Y-49912560D01*
X65165000Y-49912560D01*
X64929683Y-49956838D01*
X64713559Y-50095910D01*
X64568569Y-50308110D01*
X64517560Y-50560000D01*
X57400000Y-50560000D01*
X57400000Y-50531580D01*
X58786579Y-49145000D01*
X60959995Y-49145000D01*
X60960000Y-49145001D01*
X61242484Y-49088810D01*
X61298675Y-49077633D01*
X61585790Y-48885790D01*
X61585791Y-48885789D01*
X64125787Y-46345792D01*
X64125790Y-46345790D01*
X64317633Y-46058675D01*
X64385000Y-45720000D01*
X64385000Y-44210000D01*
X72137560Y-44210000D01*
X72137560Y-45960000D01*
X72181838Y-46195317D01*
X72320910Y-46411441D01*
X72533110Y-46556431D01*
X72785000Y-46607440D01*
X74535000Y-46607440D01*
X74770317Y-46563162D01*
X74986441Y-46424090D01*
X75123994Y-46222774D01*
X75162914Y-46261694D01*
X75277546Y-46147062D01*
X75360884Y-46400953D01*
X75925306Y-46606590D01*
X76525458Y-46580579D01*
X76959116Y-46400953D01*
X77042455Y-46147060D01*
X76160000Y-45264605D01*
X76145858Y-45278748D01*
X75966253Y-45099143D01*
X75980395Y-45085000D01*
X75966253Y-45070858D01*
X76145858Y-44891253D01*
X76160000Y-44905395D01*
X77042455Y-44022940D01*
X76959116Y-43769047D01*
X76394694Y-43563410D01*
X75794542Y-43589421D01*
X75360884Y-43769047D01*
X75277546Y-44022938D01*
X75162914Y-43908306D01*
X75121864Y-43949356D01*
X74999090Y-43758559D01*
X74786890Y-43613569D01*
X74535000Y-43562560D01*
X72785000Y-43562560D01*
X72549683Y-43606838D01*
X72333559Y-43745910D01*
X72188569Y-43958110D01*
X72137560Y-44210000D01*
X64385000Y-44210000D01*
X64385000Y-43546580D01*
X65771579Y-42160000D01*
X94883420Y-42160000D01*
X95635000Y-42911579D01*
M02*
