G04 #@! TF.FileFunction,Copper,L2,Bot,Signal*
%FSLAX46Y46*%
G04 Gerber Fmt 4.6, Leading zero omitted, Abs format (unit mm)*
G04 Created by KiCad (PCBNEW 4.0.2+e4-6225~38~ubuntu15.04.1-stable) date zo 07 aug 2016 00:42:35 CEST*
%MOMM*%
G01*
G04 APERTURE LIST*
%ADD10C,0.100000*%
%ADD11C,1.998980*%
%ADD12R,1.600000X1.600000*%
%ADD13C,1.600000*%
%ADD14C,3.200000*%
%ADD15R,1.750000X1.750000*%
%ADD16C,1.750000*%
%ADD17R,2.000000X1.700000*%
%ADD18C,0.400000*%
%ADD19C,0.254000*%
G04 APERTURE END LIST*
D10*
D11*
X149352000Y-111252000D03*
X164352000Y-111252000D03*
X164338000Y-106680000D03*
X149338000Y-106680000D03*
X164338000Y-89154000D03*
X149338000Y-89154000D03*
D12*
X137458000Y-96520000D03*
D13*
X137458000Y-99060000D03*
X142958000Y-99060000D03*
X142958000Y-96520000D03*
D14*
X132842000Y-83058000D03*
X169926000Y-83058000D03*
D15*
X164465000Y-95313500D03*
D16*
X164465000Y-97813500D03*
X164465000Y-100313500D03*
D14*
X132842000Y-112522000D03*
X169926000Y-112522000D03*
D17*
X152940000Y-89154000D03*
X156940000Y-89154000D03*
X152940000Y-106680000D03*
X156940000Y-106680000D03*
X152940000Y-111252000D03*
X156940000Y-111252000D03*
D18*
X156940000Y-89154000D02*
X164338000Y-89154000D01*
X152940000Y-106680000D02*
X149338000Y-106680000D01*
X149352000Y-111252000D02*
X152940000Y-111252000D01*
X149352000Y-111252000D02*
X149352000Y-106694000D01*
X149352000Y-106694000D02*
X149338000Y-106680000D01*
X137458000Y-99060000D02*
X137458000Y-101390000D01*
X142748000Y-106680000D02*
X149338000Y-106680000D01*
X137458000Y-101390000D02*
X142748000Y-106680000D01*
X149338000Y-89154000D02*
X152940000Y-89154000D01*
X149338000Y-89154000D02*
X146558000Y-89154000D01*
X142958000Y-92754000D02*
X142958000Y-96520000D01*
X146558000Y-89154000D02*
X142958000Y-92754000D01*
X156940000Y-111252000D02*
X164352000Y-111252000D01*
X164352000Y-111252000D02*
X164352000Y-111238000D01*
X164338000Y-106680000D02*
X156940000Y-106680000D01*
X164338000Y-106680000D02*
X164338000Y-100440500D01*
X164338000Y-100440500D02*
X164465000Y-100313500D01*
D19*
G36*
X167817582Y-79896561D02*
X166768246Y-80944068D01*
X166199649Y-82313402D01*
X166198355Y-83796094D01*
X166764561Y-85166418D01*
X167812068Y-86215754D01*
X169181402Y-86784351D01*
X170664094Y-86785645D01*
X172034418Y-86219439D01*
X173083754Y-85171932D01*
X173355000Y-84518699D01*
X173355000Y-111061130D01*
X173087439Y-110413582D01*
X172039932Y-109364246D01*
X170670598Y-108795649D01*
X169187906Y-108794355D01*
X167817582Y-109360561D01*
X166768246Y-110408068D01*
X166199649Y-111777402D01*
X166198355Y-113260094D01*
X166764561Y-114630418D01*
X167812068Y-115679754D01*
X168465301Y-115951000D01*
X134302870Y-115951000D01*
X134950418Y-115683439D01*
X135999754Y-114635932D01*
X136568351Y-113266598D01*
X136569645Y-111783906D01*
X136003439Y-110413582D01*
X134955932Y-109364246D01*
X133586598Y-108795649D01*
X132103906Y-108794355D01*
X130733582Y-109360561D01*
X129684246Y-110408068D01*
X129413000Y-111061301D01*
X129413000Y-100464775D01*
X134422803Y-100464775D01*
X134595233Y-100882086D01*
X134914235Y-101201645D01*
X135331244Y-101374803D01*
X135782775Y-101375197D01*
X136200086Y-101202767D01*
X136519645Y-100883765D01*
X136623000Y-100634860D01*
X136623000Y-101390000D01*
X136686561Y-101709541D01*
X136762531Y-101823238D01*
X136867566Y-101980434D01*
X142157566Y-107270434D01*
X142428460Y-107451440D01*
X142748000Y-107515000D01*
X147914493Y-107515000D01*
X147951538Y-107604655D01*
X148410927Y-108064846D01*
X148517000Y-108108891D01*
X148517000Y-109828493D01*
X148427345Y-109865538D01*
X147967154Y-110324927D01*
X147717794Y-110925453D01*
X147717226Y-111575694D01*
X147965538Y-112176655D01*
X148424927Y-112636846D01*
X149025453Y-112886206D01*
X149675694Y-112886774D01*
X150276655Y-112638462D01*
X150736846Y-112179073D01*
X150775078Y-112087000D01*
X151257000Y-112087000D01*
X151257000Y-112776000D01*
X151265685Y-112822159D01*
X151292965Y-112864553D01*
X151334590Y-112892994D01*
X151384000Y-112903000D01*
X158496000Y-112903000D01*
X158542159Y-112894315D01*
X158584553Y-112867035D01*
X158612994Y-112825410D01*
X158623000Y-112776000D01*
X158623000Y-112404163D01*
X163379443Y-112404163D01*
X163478042Y-112670965D01*
X164087582Y-112897401D01*
X164737377Y-112873341D01*
X165225958Y-112670965D01*
X165324557Y-112404163D01*
X164352000Y-111431605D01*
X163379443Y-112404163D01*
X158623000Y-112404163D01*
X158623000Y-110987582D01*
X162706599Y-110987582D01*
X162730659Y-111637377D01*
X162933035Y-112125958D01*
X163199837Y-112224557D01*
X164172395Y-111252000D01*
X164531605Y-111252000D01*
X165504163Y-112224557D01*
X165770965Y-112125958D01*
X165997401Y-111516418D01*
X165973341Y-110866623D01*
X165770965Y-110378042D01*
X165504163Y-110279443D01*
X164531605Y-111252000D01*
X164172395Y-111252000D01*
X163199837Y-110279443D01*
X162933035Y-110378042D01*
X162706599Y-110987582D01*
X158623000Y-110987582D01*
X158623000Y-110099837D01*
X163379443Y-110099837D01*
X164352000Y-111072395D01*
X165324557Y-110099837D01*
X165225958Y-109833035D01*
X164616418Y-109606599D01*
X163966623Y-109630659D01*
X163478042Y-109833035D01*
X163379443Y-110099837D01*
X158623000Y-110099837D01*
X158623000Y-109728000D01*
X158614315Y-109681841D01*
X158587035Y-109639447D01*
X158545410Y-109611006D01*
X158496000Y-109601000D01*
X151384000Y-109601000D01*
X151337841Y-109609685D01*
X151295447Y-109636965D01*
X151267006Y-109678590D01*
X151257000Y-109728000D01*
X151257000Y-110417000D01*
X150775507Y-110417000D01*
X150738462Y-110327345D01*
X150279073Y-109867154D01*
X150187000Y-109828922D01*
X150187000Y-108097722D01*
X150262655Y-108066462D01*
X150722846Y-107607073D01*
X150761078Y-107515000D01*
X151257000Y-107515000D01*
X151257000Y-108204000D01*
X151265685Y-108250159D01*
X151292965Y-108292553D01*
X151334590Y-108320994D01*
X151384000Y-108331000D01*
X158496000Y-108331000D01*
X158542159Y-108322315D01*
X158584553Y-108295035D01*
X158612994Y-108253410D01*
X158623000Y-108204000D01*
X158623000Y-107515000D01*
X162914493Y-107515000D01*
X162951538Y-107604655D01*
X163410927Y-108064846D01*
X164011453Y-108314206D01*
X164661694Y-108314774D01*
X165262655Y-108066462D01*
X165722846Y-107607073D01*
X165972206Y-107006547D01*
X165972774Y-106356306D01*
X165724462Y-105755345D01*
X165265073Y-105295154D01*
X165173000Y-105256922D01*
X165173000Y-101654783D01*
X165319229Y-101594362D01*
X165744370Y-101169963D01*
X165974738Y-100615175D01*
X165975262Y-100014460D01*
X165745862Y-99459271D01*
X165321463Y-99034130D01*
X165298531Y-99024608D01*
X165347455Y-98875560D01*
X164465000Y-97993105D01*
X163582545Y-98875560D01*
X163631318Y-99024148D01*
X163610771Y-99032638D01*
X163185630Y-99457037D01*
X162955262Y-100011825D01*
X162954738Y-100612540D01*
X163184138Y-101167729D01*
X163503000Y-101487148D01*
X163503000Y-105256493D01*
X163413345Y-105293538D01*
X162953154Y-105752927D01*
X162914922Y-105845000D01*
X158623000Y-105845000D01*
X158623000Y-105156000D01*
X158614315Y-105109841D01*
X158587035Y-105067447D01*
X158545410Y-105039006D01*
X158496000Y-105029000D01*
X151384000Y-105029000D01*
X151337841Y-105037685D01*
X151295447Y-105064965D01*
X151267006Y-105106590D01*
X151257000Y-105156000D01*
X151257000Y-105845000D01*
X150761507Y-105845000D01*
X150724462Y-105755345D01*
X150265073Y-105295154D01*
X149664547Y-105045794D01*
X149014306Y-105045226D01*
X148413345Y-105293538D01*
X147953154Y-105752927D01*
X147914922Y-105845000D01*
X143093868Y-105845000D01*
X138293000Y-101044132D01*
X138293000Y-100254083D01*
X138369817Y-100177400D01*
X138609043Y-100756372D01*
X139138839Y-101287093D01*
X139831405Y-101574672D01*
X140581305Y-101575326D01*
X141274372Y-101288957D01*
X141805093Y-100759161D01*
X142065446Y-100132162D01*
X142129861Y-100067747D01*
X142203995Y-100313864D01*
X142741223Y-100506965D01*
X143311454Y-100479778D01*
X143712005Y-100313864D01*
X143786139Y-100067745D01*
X142958000Y-99239605D01*
X142943858Y-99253748D01*
X142764252Y-99074142D01*
X142778395Y-99060000D01*
X143137605Y-99060000D01*
X143965745Y-99888139D01*
X144211864Y-99814005D01*
X144404965Y-99276777D01*
X144377778Y-98706546D01*
X144211864Y-98305995D01*
X143965745Y-98231861D01*
X143137605Y-99060000D01*
X142778395Y-99060000D01*
X141950255Y-98231861D01*
X141704136Y-98305995D01*
X141647413Y-98463805D01*
X141277161Y-98092907D01*
X140584595Y-97805328D01*
X139834695Y-97804674D01*
X139141628Y-98091043D01*
X138765464Y-98466551D01*
X138675243Y-98248200D01*
X138373312Y-97945742D01*
X138493317Y-97923162D01*
X138709441Y-97784090D01*
X138854431Y-97571890D01*
X138905440Y-97320000D01*
X138905440Y-97253286D01*
X139138839Y-97487093D01*
X139831405Y-97774672D01*
X140581305Y-97775326D01*
X141274372Y-97488957D01*
X141650536Y-97113449D01*
X141740757Y-97331800D01*
X142144077Y-97735824D01*
X142258768Y-97783448D01*
X142203995Y-97806136D01*
X142129861Y-98052255D01*
X142958000Y-98880395D01*
X143786139Y-98052255D01*
X143712005Y-97806136D01*
X143653746Y-97785195D01*
X143769800Y-97737243D01*
X144173824Y-97333923D01*
X144392750Y-96806691D01*
X144393248Y-96235813D01*
X144175243Y-95708200D01*
X143793000Y-95325290D01*
X143793000Y-94438500D01*
X162942560Y-94438500D01*
X162942560Y-96188500D01*
X162986838Y-96423817D01*
X163125910Y-96639941D01*
X163327226Y-96777494D01*
X163288306Y-96816414D01*
X163402938Y-96931046D01*
X163149047Y-97014384D01*
X162943410Y-97578806D01*
X162969421Y-98178958D01*
X163149047Y-98612616D01*
X163402940Y-98695955D01*
X164285395Y-97813500D01*
X164271253Y-97799358D01*
X164450858Y-97619753D01*
X164465000Y-97633895D01*
X164479143Y-97619753D01*
X164658748Y-97799358D01*
X164644605Y-97813500D01*
X165527060Y-98695955D01*
X165780953Y-98612616D01*
X165986590Y-98048194D01*
X165960579Y-97448042D01*
X165780953Y-97014384D01*
X165527062Y-96931046D01*
X165641694Y-96816414D01*
X165600644Y-96775364D01*
X165791441Y-96652590D01*
X165936431Y-96440390D01*
X165987440Y-96188500D01*
X165987440Y-94438500D01*
X165943162Y-94203183D01*
X165804090Y-93987059D01*
X165591890Y-93842069D01*
X165340000Y-93791060D01*
X163590000Y-93791060D01*
X163354683Y-93835338D01*
X163138559Y-93974410D01*
X162993569Y-94186610D01*
X162942560Y-94438500D01*
X143793000Y-94438500D01*
X143793000Y-93099868D01*
X146903868Y-89989000D01*
X147914493Y-89989000D01*
X147951538Y-90078655D01*
X148410927Y-90538846D01*
X149011453Y-90788206D01*
X149661694Y-90788774D01*
X150262655Y-90540462D01*
X150722846Y-90081073D01*
X150761078Y-89989000D01*
X151257000Y-89989000D01*
X151257000Y-90678000D01*
X151265685Y-90724159D01*
X151292965Y-90766553D01*
X151334590Y-90794994D01*
X151384000Y-90805000D01*
X158496000Y-90805000D01*
X158542159Y-90796315D01*
X158584553Y-90769035D01*
X158612994Y-90727410D01*
X158623000Y-90678000D01*
X158623000Y-89989000D01*
X162914493Y-89989000D01*
X162951538Y-90078655D01*
X163410927Y-90538846D01*
X164011453Y-90788206D01*
X164661694Y-90788774D01*
X165262655Y-90540462D01*
X165722846Y-90081073D01*
X165972206Y-89480547D01*
X165972774Y-88830306D01*
X165724462Y-88229345D01*
X165265073Y-87769154D01*
X164664547Y-87519794D01*
X164014306Y-87519226D01*
X163413345Y-87767538D01*
X162953154Y-88226927D01*
X162914922Y-88319000D01*
X158623000Y-88319000D01*
X158623000Y-87630000D01*
X158614315Y-87583841D01*
X158587035Y-87541447D01*
X158545410Y-87513006D01*
X158496000Y-87503000D01*
X151384000Y-87503000D01*
X151337841Y-87511685D01*
X151295447Y-87538965D01*
X151267006Y-87580590D01*
X151257000Y-87630000D01*
X151257000Y-88319000D01*
X150761507Y-88319000D01*
X150724462Y-88229345D01*
X150265073Y-87769154D01*
X149664547Y-87519794D01*
X149014306Y-87519226D01*
X148413345Y-87767538D01*
X147953154Y-88226927D01*
X147914922Y-88319000D01*
X146558000Y-88319000D01*
X146238459Y-88382561D01*
X145967566Y-88563566D01*
X142367566Y-92163566D01*
X142186561Y-92434459D01*
X142123000Y-92754000D01*
X142123000Y-95325917D01*
X142046183Y-95402600D01*
X141806957Y-94823628D01*
X141277161Y-94292907D01*
X140584595Y-94005328D01*
X139834695Y-94004674D01*
X139141628Y-94291043D01*
X138610907Y-94820839D01*
X138487117Y-95118957D01*
X138258000Y-95072560D01*
X136658000Y-95072560D01*
X136422683Y-95116838D01*
X136206559Y-95255910D01*
X136061569Y-95468110D01*
X136010560Y-95720000D01*
X136010560Y-97320000D01*
X136054838Y-97555317D01*
X136193910Y-97771441D01*
X136406110Y-97916431D01*
X136544354Y-97944426D01*
X136242176Y-98246077D01*
X136023250Y-98773309D01*
X136022874Y-99204073D01*
X135784756Y-99105197D01*
X135333225Y-99104803D01*
X134915914Y-99277233D01*
X134596355Y-99596235D01*
X134423197Y-100013244D01*
X134422803Y-100464775D01*
X129413000Y-100464775D01*
X129413000Y-84518870D01*
X129680561Y-85166418D01*
X130728068Y-86215754D01*
X132097402Y-86784351D01*
X133580094Y-86785645D01*
X134950418Y-86219439D01*
X135999754Y-85171932D01*
X136568351Y-83802598D01*
X136569645Y-82319906D01*
X136003439Y-80949582D01*
X134955932Y-79900246D01*
X134302699Y-79629000D01*
X168465130Y-79629000D01*
X167817582Y-79896561D01*
X167817582Y-79896561D01*
G37*
X167817582Y-79896561D02*
X166768246Y-80944068D01*
X166199649Y-82313402D01*
X166198355Y-83796094D01*
X166764561Y-85166418D01*
X167812068Y-86215754D01*
X169181402Y-86784351D01*
X170664094Y-86785645D01*
X172034418Y-86219439D01*
X173083754Y-85171932D01*
X173355000Y-84518699D01*
X173355000Y-111061130D01*
X173087439Y-110413582D01*
X172039932Y-109364246D01*
X170670598Y-108795649D01*
X169187906Y-108794355D01*
X167817582Y-109360561D01*
X166768246Y-110408068D01*
X166199649Y-111777402D01*
X166198355Y-113260094D01*
X166764561Y-114630418D01*
X167812068Y-115679754D01*
X168465301Y-115951000D01*
X134302870Y-115951000D01*
X134950418Y-115683439D01*
X135999754Y-114635932D01*
X136568351Y-113266598D01*
X136569645Y-111783906D01*
X136003439Y-110413582D01*
X134955932Y-109364246D01*
X133586598Y-108795649D01*
X132103906Y-108794355D01*
X130733582Y-109360561D01*
X129684246Y-110408068D01*
X129413000Y-111061301D01*
X129413000Y-100464775D01*
X134422803Y-100464775D01*
X134595233Y-100882086D01*
X134914235Y-101201645D01*
X135331244Y-101374803D01*
X135782775Y-101375197D01*
X136200086Y-101202767D01*
X136519645Y-100883765D01*
X136623000Y-100634860D01*
X136623000Y-101390000D01*
X136686561Y-101709541D01*
X136762531Y-101823238D01*
X136867566Y-101980434D01*
X142157566Y-107270434D01*
X142428460Y-107451440D01*
X142748000Y-107515000D01*
X147914493Y-107515000D01*
X147951538Y-107604655D01*
X148410927Y-108064846D01*
X148517000Y-108108891D01*
X148517000Y-109828493D01*
X148427345Y-109865538D01*
X147967154Y-110324927D01*
X147717794Y-110925453D01*
X147717226Y-111575694D01*
X147965538Y-112176655D01*
X148424927Y-112636846D01*
X149025453Y-112886206D01*
X149675694Y-112886774D01*
X150276655Y-112638462D01*
X150736846Y-112179073D01*
X150775078Y-112087000D01*
X151257000Y-112087000D01*
X151257000Y-112776000D01*
X151265685Y-112822159D01*
X151292965Y-112864553D01*
X151334590Y-112892994D01*
X151384000Y-112903000D01*
X158496000Y-112903000D01*
X158542159Y-112894315D01*
X158584553Y-112867035D01*
X158612994Y-112825410D01*
X158623000Y-112776000D01*
X158623000Y-112404163D01*
X163379443Y-112404163D01*
X163478042Y-112670965D01*
X164087582Y-112897401D01*
X164737377Y-112873341D01*
X165225958Y-112670965D01*
X165324557Y-112404163D01*
X164352000Y-111431605D01*
X163379443Y-112404163D01*
X158623000Y-112404163D01*
X158623000Y-110987582D01*
X162706599Y-110987582D01*
X162730659Y-111637377D01*
X162933035Y-112125958D01*
X163199837Y-112224557D01*
X164172395Y-111252000D01*
X164531605Y-111252000D01*
X165504163Y-112224557D01*
X165770965Y-112125958D01*
X165997401Y-111516418D01*
X165973341Y-110866623D01*
X165770965Y-110378042D01*
X165504163Y-110279443D01*
X164531605Y-111252000D01*
X164172395Y-111252000D01*
X163199837Y-110279443D01*
X162933035Y-110378042D01*
X162706599Y-110987582D01*
X158623000Y-110987582D01*
X158623000Y-110099837D01*
X163379443Y-110099837D01*
X164352000Y-111072395D01*
X165324557Y-110099837D01*
X165225958Y-109833035D01*
X164616418Y-109606599D01*
X163966623Y-109630659D01*
X163478042Y-109833035D01*
X163379443Y-110099837D01*
X158623000Y-110099837D01*
X158623000Y-109728000D01*
X158614315Y-109681841D01*
X158587035Y-109639447D01*
X158545410Y-109611006D01*
X158496000Y-109601000D01*
X151384000Y-109601000D01*
X151337841Y-109609685D01*
X151295447Y-109636965D01*
X151267006Y-109678590D01*
X151257000Y-109728000D01*
X151257000Y-110417000D01*
X150775507Y-110417000D01*
X150738462Y-110327345D01*
X150279073Y-109867154D01*
X150187000Y-109828922D01*
X150187000Y-108097722D01*
X150262655Y-108066462D01*
X150722846Y-107607073D01*
X150761078Y-107515000D01*
X151257000Y-107515000D01*
X151257000Y-108204000D01*
X151265685Y-108250159D01*
X151292965Y-108292553D01*
X151334590Y-108320994D01*
X151384000Y-108331000D01*
X158496000Y-108331000D01*
X158542159Y-108322315D01*
X158584553Y-108295035D01*
X158612994Y-108253410D01*
X158623000Y-108204000D01*
X158623000Y-107515000D01*
X162914493Y-107515000D01*
X162951538Y-107604655D01*
X163410927Y-108064846D01*
X164011453Y-108314206D01*
X164661694Y-108314774D01*
X165262655Y-108066462D01*
X165722846Y-107607073D01*
X165972206Y-107006547D01*
X165972774Y-106356306D01*
X165724462Y-105755345D01*
X165265073Y-105295154D01*
X165173000Y-105256922D01*
X165173000Y-101654783D01*
X165319229Y-101594362D01*
X165744370Y-101169963D01*
X165974738Y-100615175D01*
X165975262Y-100014460D01*
X165745862Y-99459271D01*
X165321463Y-99034130D01*
X165298531Y-99024608D01*
X165347455Y-98875560D01*
X164465000Y-97993105D01*
X163582545Y-98875560D01*
X163631318Y-99024148D01*
X163610771Y-99032638D01*
X163185630Y-99457037D01*
X162955262Y-100011825D01*
X162954738Y-100612540D01*
X163184138Y-101167729D01*
X163503000Y-101487148D01*
X163503000Y-105256493D01*
X163413345Y-105293538D01*
X162953154Y-105752927D01*
X162914922Y-105845000D01*
X158623000Y-105845000D01*
X158623000Y-105156000D01*
X158614315Y-105109841D01*
X158587035Y-105067447D01*
X158545410Y-105039006D01*
X158496000Y-105029000D01*
X151384000Y-105029000D01*
X151337841Y-105037685D01*
X151295447Y-105064965D01*
X151267006Y-105106590D01*
X151257000Y-105156000D01*
X151257000Y-105845000D01*
X150761507Y-105845000D01*
X150724462Y-105755345D01*
X150265073Y-105295154D01*
X149664547Y-105045794D01*
X149014306Y-105045226D01*
X148413345Y-105293538D01*
X147953154Y-105752927D01*
X147914922Y-105845000D01*
X143093868Y-105845000D01*
X138293000Y-101044132D01*
X138293000Y-100254083D01*
X138369817Y-100177400D01*
X138609043Y-100756372D01*
X139138839Y-101287093D01*
X139831405Y-101574672D01*
X140581305Y-101575326D01*
X141274372Y-101288957D01*
X141805093Y-100759161D01*
X142065446Y-100132162D01*
X142129861Y-100067747D01*
X142203995Y-100313864D01*
X142741223Y-100506965D01*
X143311454Y-100479778D01*
X143712005Y-100313864D01*
X143786139Y-100067745D01*
X142958000Y-99239605D01*
X142943858Y-99253748D01*
X142764252Y-99074142D01*
X142778395Y-99060000D01*
X143137605Y-99060000D01*
X143965745Y-99888139D01*
X144211864Y-99814005D01*
X144404965Y-99276777D01*
X144377778Y-98706546D01*
X144211864Y-98305995D01*
X143965745Y-98231861D01*
X143137605Y-99060000D01*
X142778395Y-99060000D01*
X141950255Y-98231861D01*
X141704136Y-98305995D01*
X141647413Y-98463805D01*
X141277161Y-98092907D01*
X140584595Y-97805328D01*
X139834695Y-97804674D01*
X139141628Y-98091043D01*
X138765464Y-98466551D01*
X138675243Y-98248200D01*
X138373312Y-97945742D01*
X138493317Y-97923162D01*
X138709441Y-97784090D01*
X138854431Y-97571890D01*
X138905440Y-97320000D01*
X138905440Y-97253286D01*
X139138839Y-97487093D01*
X139831405Y-97774672D01*
X140581305Y-97775326D01*
X141274372Y-97488957D01*
X141650536Y-97113449D01*
X141740757Y-97331800D01*
X142144077Y-97735824D01*
X142258768Y-97783448D01*
X142203995Y-97806136D01*
X142129861Y-98052255D01*
X142958000Y-98880395D01*
X143786139Y-98052255D01*
X143712005Y-97806136D01*
X143653746Y-97785195D01*
X143769800Y-97737243D01*
X144173824Y-97333923D01*
X144392750Y-96806691D01*
X144393248Y-96235813D01*
X144175243Y-95708200D01*
X143793000Y-95325290D01*
X143793000Y-94438500D01*
X162942560Y-94438500D01*
X162942560Y-96188500D01*
X162986838Y-96423817D01*
X163125910Y-96639941D01*
X163327226Y-96777494D01*
X163288306Y-96816414D01*
X163402938Y-96931046D01*
X163149047Y-97014384D01*
X162943410Y-97578806D01*
X162969421Y-98178958D01*
X163149047Y-98612616D01*
X163402940Y-98695955D01*
X164285395Y-97813500D01*
X164271253Y-97799358D01*
X164450858Y-97619753D01*
X164465000Y-97633895D01*
X164479143Y-97619753D01*
X164658748Y-97799358D01*
X164644605Y-97813500D01*
X165527060Y-98695955D01*
X165780953Y-98612616D01*
X165986590Y-98048194D01*
X165960579Y-97448042D01*
X165780953Y-97014384D01*
X165527062Y-96931046D01*
X165641694Y-96816414D01*
X165600644Y-96775364D01*
X165791441Y-96652590D01*
X165936431Y-96440390D01*
X165987440Y-96188500D01*
X165987440Y-94438500D01*
X165943162Y-94203183D01*
X165804090Y-93987059D01*
X165591890Y-93842069D01*
X165340000Y-93791060D01*
X163590000Y-93791060D01*
X163354683Y-93835338D01*
X163138559Y-93974410D01*
X162993569Y-94186610D01*
X162942560Y-94438500D01*
X143793000Y-94438500D01*
X143793000Y-93099868D01*
X146903868Y-89989000D01*
X147914493Y-89989000D01*
X147951538Y-90078655D01*
X148410927Y-90538846D01*
X149011453Y-90788206D01*
X149661694Y-90788774D01*
X150262655Y-90540462D01*
X150722846Y-90081073D01*
X150761078Y-89989000D01*
X151257000Y-89989000D01*
X151257000Y-90678000D01*
X151265685Y-90724159D01*
X151292965Y-90766553D01*
X151334590Y-90794994D01*
X151384000Y-90805000D01*
X158496000Y-90805000D01*
X158542159Y-90796315D01*
X158584553Y-90769035D01*
X158612994Y-90727410D01*
X158623000Y-90678000D01*
X158623000Y-89989000D01*
X162914493Y-89989000D01*
X162951538Y-90078655D01*
X163410927Y-90538846D01*
X164011453Y-90788206D01*
X164661694Y-90788774D01*
X165262655Y-90540462D01*
X165722846Y-90081073D01*
X165972206Y-89480547D01*
X165972774Y-88830306D01*
X165724462Y-88229345D01*
X165265073Y-87769154D01*
X164664547Y-87519794D01*
X164014306Y-87519226D01*
X163413345Y-87767538D01*
X162953154Y-88226927D01*
X162914922Y-88319000D01*
X158623000Y-88319000D01*
X158623000Y-87630000D01*
X158614315Y-87583841D01*
X158587035Y-87541447D01*
X158545410Y-87513006D01*
X158496000Y-87503000D01*
X151384000Y-87503000D01*
X151337841Y-87511685D01*
X151295447Y-87538965D01*
X151267006Y-87580590D01*
X151257000Y-87630000D01*
X151257000Y-88319000D01*
X150761507Y-88319000D01*
X150724462Y-88229345D01*
X150265073Y-87769154D01*
X149664547Y-87519794D01*
X149014306Y-87519226D01*
X148413345Y-87767538D01*
X147953154Y-88226927D01*
X147914922Y-88319000D01*
X146558000Y-88319000D01*
X146238459Y-88382561D01*
X145967566Y-88563566D01*
X142367566Y-92163566D01*
X142186561Y-92434459D01*
X142123000Y-92754000D01*
X142123000Y-95325917D01*
X142046183Y-95402600D01*
X141806957Y-94823628D01*
X141277161Y-94292907D01*
X140584595Y-94005328D01*
X139834695Y-94004674D01*
X139141628Y-94291043D01*
X138610907Y-94820839D01*
X138487117Y-95118957D01*
X138258000Y-95072560D01*
X136658000Y-95072560D01*
X136422683Y-95116838D01*
X136206559Y-95255910D01*
X136061569Y-95468110D01*
X136010560Y-95720000D01*
X136010560Y-97320000D01*
X136054838Y-97555317D01*
X136193910Y-97771441D01*
X136406110Y-97916431D01*
X136544354Y-97944426D01*
X136242176Y-98246077D01*
X136023250Y-98773309D01*
X136022874Y-99204073D01*
X135784756Y-99105197D01*
X135333225Y-99104803D01*
X134915914Y-99277233D01*
X134596355Y-99596235D01*
X134423197Y-100013244D01*
X134422803Y-100464775D01*
X129413000Y-100464775D01*
X129413000Y-84518870D01*
X129680561Y-85166418D01*
X130728068Y-86215754D01*
X132097402Y-86784351D01*
X133580094Y-86785645D01*
X134950418Y-86219439D01*
X135999754Y-85171932D01*
X136568351Y-83802598D01*
X136569645Y-82319906D01*
X136003439Y-80949582D01*
X134955932Y-79900246D01*
X134302699Y-79629000D01*
X168465130Y-79629000D01*
X167817582Y-79896561D01*
M02*
