G04 #@! TF.FileFunction,Legend,Bot*
%FSLAX46Y46*%
G04 Gerber Fmt 4.6, Leading zero omitted, Abs format (unit mm)*
G04 Created by KiCad (PCBNEW 4.0.3+e1-6302~38~ubuntu15.04.1-stable) date Fri Aug 26 22:40:40 2016*
%MOMM*%
%LPD*%
G01*
G04 APERTURE LIST*
%ADD10C,0.100000*%
%ADD11C,0.300000*%
%ADD12C,0.010000*%
G04 APERTURE END LIST*
D10*
X68674763Y-102052381D02*
X68674763Y-101385714D01*
X68674763Y-101576190D02*
X68627144Y-101480952D01*
X68579525Y-101433333D01*
X68484287Y-101385714D01*
X68389048Y-101385714D01*
X67674762Y-102004762D02*
X67770000Y-102052381D01*
X67960477Y-102052381D01*
X68055715Y-102004762D01*
X68103334Y-101909524D01*
X68103334Y-101528571D01*
X68055715Y-101433333D01*
X67960477Y-101385714D01*
X67770000Y-101385714D01*
X67674762Y-101433333D01*
X67627143Y-101528571D01*
X67627143Y-101623810D01*
X68103334Y-101719048D01*
X67293810Y-101385714D02*
X67055715Y-102052381D01*
X66817619Y-101385714D01*
X66246191Y-101052381D02*
X66150952Y-101052381D01*
X66055714Y-101100000D01*
X66008095Y-101147619D01*
X65960476Y-101242857D01*
X65912857Y-101433333D01*
X65912857Y-101671429D01*
X65960476Y-101861905D01*
X66008095Y-101957143D01*
X66055714Y-102004762D01*
X66150952Y-102052381D01*
X66246191Y-102052381D01*
X66341429Y-102004762D01*
X66389048Y-101957143D01*
X66436667Y-101861905D01*
X66484286Y-101671429D01*
X66484286Y-101433333D01*
X66436667Y-101242857D01*
X66389048Y-101147619D01*
X66341429Y-101100000D01*
X66246191Y-101052381D01*
X64960476Y-102052381D02*
X65531905Y-102052381D01*
X65246191Y-102052381D02*
X65246191Y-101052381D01*
X65341429Y-101195238D01*
X65436667Y-101290476D01*
X65531905Y-101338095D01*
X95154762Y-101385714D02*
X94773810Y-101385714D01*
X95011905Y-102052381D02*
X95011905Y-101195238D01*
X94964286Y-101100000D01*
X94869048Y-101052381D01*
X94773810Y-101052381D01*
X94011904Y-102052381D02*
X94011904Y-101528571D01*
X94059523Y-101433333D01*
X94154761Y-101385714D01*
X94345238Y-101385714D01*
X94440476Y-101433333D01*
X94011904Y-102004762D02*
X94107142Y-102052381D01*
X94345238Y-102052381D01*
X94440476Y-102004762D01*
X94488095Y-101909524D01*
X94488095Y-101814286D01*
X94440476Y-101719048D01*
X94345238Y-101671429D01*
X94107142Y-101671429D01*
X94011904Y-101623810D01*
X93535714Y-101385714D02*
X93535714Y-102242857D01*
X93583333Y-102338095D01*
X93678571Y-102385714D01*
X93726190Y-102385714D01*
X93535714Y-101052381D02*
X93583333Y-101100000D01*
X93535714Y-101147619D01*
X93488095Y-101100000D01*
X93535714Y-101052381D01*
X93535714Y-101147619D01*
X93059524Y-102052381D02*
X93059524Y-101385714D01*
X93059524Y-101576190D02*
X93011905Y-101480952D01*
X92964286Y-101433333D01*
X92869048Y-101385714D01*
X92773809Y-101385714D01*
X92011904Y-102052381D02*
X92011904Y-101528571D01*
X92059523Y-101433333D01*
X92154761Y-101385714D01*
X92345238Y-101385714D01*
X92440476Y-101433333D01*
X92011904Y-102004762D02*
X92107142Y-102052381D01*
X92345238Y-102052381D01*
X92440476Y-102004762D01*
X92488095Y-101909524D01*
X92488095Y-101814286D01*
X92440476Y-101719048D01*
X92345238Y-101671429D01*
X92107142Y-101671429D01*
X92011904Y-101623810D01*
X91535714Y-101385714D02*
X91535714Y-102052381D01*
X91535714Y-101480952D02*
X91488095Y-101433333D01*
X91392857Y-101385714D01*
X91249999Y-101385714D01*
X91154761Y-101433333D01*
X91107142Y-101528571D01*
X91107142Y-102052381D01*
X89916666Y-101147619D02*
X89869047Y-101100000D01*
X89773809Y-101052381D01*
X89535713Y-101052381D01*
X89440475Y-101100000D01*
X89392856Y-101147619D01*
X89345237Y-101242857D01*
X89345237Y-101338095D01*
X89392856Y-101480952D01*
X89964285Y-102052381D01*
X89345237Y-102052381D01*
X88726190Y-101052381D02*
X88630951Y-101052381D01*
X88535713Y-101100000D01*
X88488094Y-101147619D01*
X88440475Y-101242857D01*
X88392856Y-101433333D01*
X88392856Y-101671429D01*
X88440475Y-101861905D01*
X88488094Y-101957143D01*
X88535713Y-102004762D01*
X88630951Y-102052381D01*
X88726190Y-102052381D01*
X88821428Y-102004762D01*
X88869047Y-101957143D01*
X88916666Y-101861905D01*
X88964285Y-101671429D01*
X88964285Y-101433333D01*
X88916666Y-101242857D01*
X88869047Y-101147619D01*
X88821428Y-101100000D01*
X88726190Y-101052381D01*
X87440475Y-102052381D02*
X88011904Y-102052381D01*
X87726190Y-102052381D02*
X87726190Y-101052381D01*
X87821428Y-101195238D01*
X87916666Y-101290476D01*
X88011904Y-101338095D01*
X86583332Y-101052381D02*
X86773809Y-101052381D01*
X86869047Y-101100000D01*
X86916666Y-101147619D01*
X87011904Y-101290476D01*
X87059523Y-101480952D01*
X87059523Y-101861905D01*
X87011904Y-101957143D01*
X86964285Y-102004762D01*
X86869047Y-102052381D01*
X86678570Y-102052381D01*
X86583332Y-102004762D01*
X86535713Y-101957143D01*
X86488094Y-101861905D01*
X86488094Y-101623810D01*
X86535713Y-101528571D01*
X86583332Y-101480952D01*
X86678570Y-101433333D01*
X86869047Y-101433333D01*
X86964285Y-101480952D01*
X87011904Y-101528571D01*
X87059523Y-101623810D01*
D11*
X89724285Y-50208571D02*
X89867143Y-50137143D01*
X89938571Y-49994286D01*
X89938571Y-48708571D01*
X89152857Y-50208571D02*
X89152857Y-49208571D01*
X89152857Y-48708571D02*
X89224286Y-48780000D01*
X89152857Y-48851429D01*
X89081429Y-48780000D01*
X89152857Y-48708571D01*
X89152857Y-48851429D01*
X87795714Y-49208571D02*
X87795714Y-50422857D01*
X87867143Y-50565714D01*
X87938571Y-50637143D01*
X88081428Y-50708571D01*
X88295714Y-50708571D01*
X88438571Y-50637143D01*
X87795714Y-50137143D02*
X87938571Y-50208571D01*
X88224285Y-50208571D01*
X88367143Y-50137143D01*
X88438571Y-50065714D01*
X88510000Y-49922857D01*
X88510000Y-49494286D01*
X88438571Y-49351429D01*
X88367143Y-49280000D01*
X88224285Y-49208571D01*
X87938571Y-49208571D01*
X87795714Y-49280000D01*
X87081428Y-50208571D02*
X87081428Y-48708571D01*
X86438571Y-50208571D02*
X86438571Y-49422857D01*
X86510000Y-49280000D01*
X86652857Y-49208571D01*
X86867142Y-49208571D01*
X87010000Y-49280000D01*
X87081428Y-49351429D01*
X85938571Y-49208571D02*
X85367142Y-49208571D01*
X85724285Y-48708571D02*
X85724285Y-49994286D01*
X85652857Y-50137143D01*
X85509999Y-50208571D01*
X85367142Y-50208571D01*
X84867142Y-50208571D02*
X84867142Y-49208571D01*
X84867142Y-48708571D02*
X84938571Y-48780000D01*
X84867142Y-48851429D01*
X84795714Y-48780000D01*
X84867142Y-48708571D01*
X84867142Y-48851429D01*
X84152856Y-49208571D02*
X84152856Y-50208571D01*
X84152856Y-49351429D02*
X84081428Y-49280000D01*
X83938570Y-49208571D01*
X83724285Y-49208571D01*
X83581428Y-49280000D01*
X83509999Y-49422857D01*
X83509999Y-50208571D01*
X82152856Y-49208571D02*
X82152856Y-50422857D01*
X82224285Y-50565714D01*
X82295713Y-50637143D01*
X82438570Y-50708571D01*
X82652856Y-50708571D01*
X82795713Y-50637143D01*
X82152856Y-50137143D02*
X82295713Y-50208571D01*
X82581427Y-50208571D01*
X82724285Y-50137143D01*
X82795713Y-50065714D01*
X82867142Y-49922857D01*
X82867142Y-49494286D01*
X82795713Y-49351429D01*
X82724285Y-49280000D01*
X82581427Y-49208571D01*
X82295713Y-49208571D01*
X82152856Y-49280000D01*
X79652856Y-50137143D02*
X79795713Y-50208571D01*
X80081427Y-50208571D01*
X80224285Y-50137143D01*
X80295713Y-50065714D01*
X80367142Y-49922857D01*
X80367142Y-49494286D01*
X80295713Y-49351429D01*
X80224285Y-49280000D01*
X80081427Y-49208571D01*
X79795713Y-49208571D01*
X79652856Y-49280000D01*
X78795713Y-50208571D02*
X78938571Y-50137143D01*
X79009999Y-50065714D01*
X79081428Y-49922857D01*
X79081428Y-49494286D01*
X79009999Y-49351429D01*
X78938571Y-49280000D01*
X78795713Y-49208571D01*
X78581428Y-49208571D01*
X78438571Y-49280000D01*
X78367142Y-49351429D01*
X78295713Y-49494286D01*
X78295713Y-49922857D01*
X78367142Y-50065714D01*
X78438571Y-50137143D01*
X78581428Y-50208571D01*
X78795713Y-50208571D01*
X77652856Y-49208571D02*
X77652856Y-50208571D01*
X77652856Y-49351429D02*
X77581428Y-49280000D01*
X77438570Y-49208571D01*
X77224285Y-49208571D01*
X77081428Y-49280000D01*
X77009999Y-49422857D01*
X77009999Y-50208571D01*
X76509999Y-49208571D02*
X75938570Y-49208571D01*
X76295713Y-48708571D02*
X76295713Y-49994286D01*
X76224285Y-50137143D01*
X76081427Y-50208571D01*
X75938570Y-50208571D01*
X75438570Y-50208571D02*
X75438570Y-49208571D01*
X75438570Y-49494286D02*
X75367142Y-49351429D01*
X75295713Y-49280000D01*
X75152856Y-49208571D01*
X75009999Y-49208571D01*
X74295713Y-50208571D02*
X74438571Y-50137143D01*
X74509999Y-50065714D01*
X74581428Y-49922857D01*
X74581428Y-49494286D01*
X74509999Y-49351429D01*
X74438571Y-49280000D01*
X74295713Y-49208571D01*
X74081428Y-49208571D01*
X73938571Y-49280000D01*
X73867142Y-49351429D01*
X73795713Y-49494286D01*
X73795713Y-49922857D01*
X73867142Y-50065714D01*
X73938571Y-50137143D01*
X74081428Y-50208571D01*
X74295713Y-50208571D01*
X72938570Y-50208571D02*
X73081428Y-50137143D01*
X73152856Y-49994286D01*
X73152856Y-48708571D01*
X72152856Y-50208571D02*
X72295714Y-50137143D01*
X72367142Y-49994286D01*
X72367142Y-48708571D01*
X71010000Y-50137143D02*
X71152857Y-50208571D01*
X71438571Y-50208571D01*
X71581428Y-50137143D01*
X71652857Y-49994286D01*
X71652857Y-49422857D01*
X71581428Y-49280000D01*
X71438571Y-49208571D01*
X71152857Y-49208571D01*
X71010000Y-49280000D01*
X70938571Y-49422857D01*
X70938571Y-49565714D01*
X71652857Y-49708571D01*
X70295714Y-50208571D02*
X70295714Y-49208571D01*
X70295714Y-49494286D02*
X70224286Y-49351429D01*
X70152857Y-49280000D01*
X70010000Y-49208571D01*
X69867143Y-49208571D01*
D12*
G36*
X78796114Y-76879505D02*
X78721461Y-76916727D01*
X78655569Y-76985261D01*
X78637423Y-77010648D01*
X78617655Y-77043866D01*
X78604828Y-77079945D01*
X78597490Y-77128098D01*
X78594187Y-77197536D01*
X78593462Y-77289206D01*
X78596737Y-77414830D01*
X78608123Y-77509154D01*
X78629959Y-77579523D01*
X78664581Y-77633286D01*
X78714330Y-77677788D01*
X78717986Y-77680423D01*
X78767015Y-77707377D01*
X78826055Y-77720712D01*
X78901141Y-77724000D01*
X79023205Y-77724000D01*
X79023256Y-77842497D01*
X79024392Y-77908492D01*
X79031314Y-77947202D01*
X79049402Y-77970419D01*
X79084038Y-77989933D01*
X79092355Y-77993920D01*
X79131280Y-78012603D01*
X79161417Y-78024403D01*
X79183826Y-78025422D01*
X79199567Y-78011761D01*
X79209698Y-77979522D01*
X79215277Y-77924804D01*
X79217365Y-77843711D01*
X79217019Y-77732344D01*
X79215300Y-77586802D01*
X79214763Y-77543269D01*
X79212828Y-77393205D01*
X79211096Y-77295042D01*
X79023308Y-77295042D01*
X79022252Y-77378364D01*
X79017562Y-77432880D01*
X79006949Y-77468837D01*
X78988128Y-77496482D01*
X78975350Y-77509965D01*
X78923110Y-77549417D01*
X78876858Y-77552628D01*
X78829133Y-77520049D01*
X78827923Y-77518846D01*
X78808506Y-77493668D01*
X78796693Y-77459447D01*
X78790735Y-77406748D01*
X78788880Y-77326131D01*
X78788846Y-77308271D01*
X78793330Y-77197175D01*
X78807926Y-77120161D01*
X78834350Y-77073147D01*
X78874317Y-77052050D01*
X78897416Y-77049923D01*
X78952238Y-77059900D01*
X78989842Y-77092752D01*
X79012477Y-77152857D01*
X79022394Y-77244598D01*
X79023308Y-77295042D01*
X79211096Y-77295042D01*
X79210778Y-77277060D01*
X79208127Y-77189679D01*
X79204394Y-77125905D01*
X79199093Y-77080582D01*
X79191742Y-77048555D01*
X79181857Y-77024668D01*
X79168954Y-77003764D01*
X79163421Y-76995898D01*
X79090031Y-76921595D01*
X78997240Y-76879467D01*
X78889904Y-76867722D01*
X78796114Y-76879505D01*
X78796114Y-76879505D01*
G37*
X78796114Y-76879505D02*
X78721461Y-76916727D01*
X78655569Y-76985261D01*
X78637423Y-77010648D01*
X78617655Y-77043866D01*
X78604828Y-77079945D01*
X78597490Y-77128098D01*
X78594187Y-77197536D01*
X78593462Y-77289206D01*
X78596737Y-77414830D01*
X78608123Y-77509154D01*
X78629959Y-77579523D01*
X78664581Y-77633286D01*
X78714330Y-77677788D01*
X78717986Y-77680423D01*
X78767015Y-77707377D01*
X78826055Y-77720712D01*
X78901141Y-77724000D01*
X79023205Y-77724000D01*
X79023256Y-77842497D01*
X79024392Y-77908492D01*
X79031314Y-77947202D01*
X79049402Y-77970419D01*
X79084038Y-77989933D01*
X79092355Y-77993920D01*
X79131280Y-78012603D01*
X79161417Y-78024403D01*
X79183826Y-78025422D01*
X79199567Y-78011761D01*
X79209698Y-77979522D01*
X79215277Y-77924804D01*
X79217365Y-77843711D01*
X79217019Y-77732344D01*
X79215300Y-77586802D01*
X79214763Y-77543269D01*
X79212828Y-77393205D01*
X79211096Y-77295042D01*
X79023308Y-77295042D01*
X79022252Y-77378364D01*
X79017562Y-77432880D01*
X79006949Y-77468837D01*
X78988128Y-77496482D01*
X78975350Y-77509965D01*
X78923110Y-77549417D01*
X78876858Y-77552628D01*
X78829133Y-77520049D01*
X78827923Y-77518846D01*
X78808506Y-77493668D01*
X78796693Y-77459447D01*
X78790735Y-77406748D01*
X78788880Y-77326131D01*
X78788846Y-77308271D01*
X78793330Y-77197175D01*
X78807926Y-77120161D01*
X78834350Y-77073147D01*
X78874317Y-77052050D01*
X78897416Y-77049923D01*
X78952238Y-77059900D01*
X78989842Y-77092752D01*
X79012477Y-77152857D01*
X79022394Y-77244598D01*
X79023308Y-77295042D01*
X79211096Y-77295042D01*
X79210778Y-77277060D01*
X79208127Y-77189679D01*
X79204394Y-77125905D01*
X79199093Y-77080582D01*
X79191742Y-77048555D01*
X79181857Y-77024668D01*
X79168954Y-77003764D01*
X79163421Y-76995898D01*
X79090031Y-76921595D01*
X78997240Y-76879467D01*
X78889904Y-76867722D01*
X78796114Y-76879505D01*
G36*
X77293336Y-76890089D02*
X77230633Y-76926358D01*
X77187039Y-76962358D01*
X77155155Y-77000075D01*
X77133190Y-77046199D01*
X77119351Y-77107421D01*
X77111847Y-77190431D01*
X77108883Y-77301919D01*
X77108539Y-77382062D01*
X77108539Y-77677065D01*
X77274615Y-77751515D01*
X77284385Y-77428402D01*
X77288421Y-77307729D01*
X77292656Y-77220141D01*
X77297903Y-77159650D01*
X77304975Y-77120268D01*
X77314689Y-77096007D01*
X77327856Y-77080880D01*
X77332081Y-77077606D01*
X77396091Y-77052034D01*
X77460792Y-77062153D01*
X77499308Y-77089000D01*
X77514975Y-77108024D01*
X77525820Y-77132988D01*
X77532712Y-77170834D01*
X77536521Y-77228502D01*
X77538117Y-77312935D01*
X77538385Y-77400928D01*
X77538437Y-77511323D01*
X77540328Y-77589463D01*
X77546655Y-77642165D01*
X77560017Y-77676242D01*
X77583015Y-77698511D01*
X77618246Y-77715787D01*
X77665303Y-77733738D01*
X77716697Y-77753278D01*
X77710579Y-77406485D01*
X77708116Y-77281468D01*
X77705233Y-77189082D01*
X77701102Y-77122881D01*
X77694893Y-77076420D01*
X77685774Y-77043256D01*
X77672917Y-77016944D01*
X77657416Y-76993729D01*
X77582629Y-76919569D01*
X77491372Y-76876684D01*
X77392117Y-76866412D01*
X77293336Y-76890089D01*
X77293336Y-76890089D01*
G37*
X77293336Y-76890089D02*
X77230633Y-76926358D01*
X77187039Y-76962358D01*
X77155155Y-77000075D01*
X77133190Y-77046199D01*
X77119351Y-77107421D01*
X77111847Y-77190431D01*
X77108883Y-77301919D01*
X77108539Y-77382062D01*
X77108539Y-77677065D01*
X77274615Y-77751515D01*
X77284385Y-77428402D01*
X77288421Y-77307729D01*
X77292656Y-77220141D01*
X77297903Y-77159650D01*
X77304975Y-77120268D01*
X77314689Y-77096007D01*
X77327856Y-77080880D01*
X77332081Y-77077606D01*
X77396091Y-77052034D01*
X77460792Y-77062153D01*
X77499308Y-77089000D01*
X77514975Y-77108024D01*
X77525820Y-77132988D01*
X77532712Y-77170834D01*
X77536521Y-77228502D01*
X77538117Y-77312935D01*
X77538385Y-77400928D01*
X77538437Y-77511323D01*
X77540328Y-77589463D01*
X77546655Y-77642165D01*
X77560017Y-77676242D01*
X77583015Y-77698511D01*
X77618246Y-77715787D01*
X77665303Y-77733738D01*
X77716697Y-77753278D01*
X77710579Y-77406485D01*
X77708116Y-77281468D01*
X77705233Y-77189082D01*
X77701102Y-77122881D01*
X77694893Y-77076420D01*
X77685774Y-77043256D01*
X77672917Y-77016944D01*
X77657416Y-76993729D01*
X77582629Y-76919569D01*
X77491372Y-76876684D01*
X77392117Y-76866412D01*
X77293336Y-76890089D01*
G36*
X79548114Y-76882256D02*
X79456536Y-76930409D01*
X79388951Y-77007905D01*
X79364943Y-77057727D01*
X79346262Y-77132533D01*
X79336699Y-77227052D01*
X79335792Y-77330210D01*
X79343079Y-77430935D01*
X79358097Y-77518153D01*
X79380385Y-77580791D01*
X79387235Y-77591579D01*
X79468368Y-77672105D01*
X79564734Y-77720336D01*
X79669299Y-77734450D01*
X79775032Y-77712629D01*
X79804457Y-77699547D01*
X79861759Y-77659231D01*
X79912050Y-77605775D01*
X79916803Y-77598995D01*
X79936122Y-77566321D01*
X79948892Y-77531394D01*
X79956436Y-77485414D01*
X79960076Y-77419584D01*
X79961135Y-77325105D01*
X79961154Y-77303923D01*
X79961106Y-77297182D01*
X79765769Y-77297182D01*
X79764632Y-77386349D01*
X79760159Y-77445520D01*
X79750754Y-77483741D01*
X79734824Y-77510053D01*
X79726692Y-77518846D01*
X79679942Y-77552261D01*
X79634553Y-77550737D01*
X79588660Y-77521752D01*
X79561288Y-77490809D01*
X79545077Y-77445643D01*
X79535974Y-77374420D01*
X79535349Y-77366114D01*
X79533796Y-77237037D01*
X79550035Y-77141172D01*
X79583848Y-77079107D01*
X79635016Y-77051432D01*
X79653280Y-77049923D01*
X79701240Y-77057513D01*
X79734047Y-77083808D01*
X79754105Y-77134095D01*
X79763822Y-77213664D01*
X79765769Y-77297182D01*
X79961106Y-77297182D01*
X79960426Y-77203249D01*
X79957371Y-77132906D01*
X79950678Y-77084163D01*
X79939040Y-77048288D01*
X79921147Y-77016548D01*
X79917192Y-77010648D01*
X79850733Y-76931104D01*
X79778315Y-76884929D01*
X79690151Y-76866599D01*
X79660213Y-76865703D01*
X79548114Y-76882256D01*
X79548114Y-76882256D01*
G37*
X79548114Y-76882256D02*
X79456536Y-76930409D01*
X79388951Y-77007905D01*
X79364943Y-77057727D01*
X79346262Y-77132533D01*
X79336699Y-77227052D01*
X79335792Y-77330210D01*
X79343079Y-77430935D01*
X79358097Y-77518153D01*
X79380385Y-77580791D01*
X79387235Y-77591579D01*
X79468368Y-77672105D01*
X79564734Y-77720336D01*
X79669299Y-77734450D01*
X79775032Y-77712629D01*
X79804457Y-77699547D01*
X79861759Y-77659231D01*
X79912050Y-77605775D01*
X79916803Y-77598995D01*
X79936122Y-77566321D01*
X79948892Y-77531394D01*
X79956436Y-77485414D01*
X79960076Y-77419584D01*
X79961135Y-77325105D01*
X79961154Y-77303923D01*
X79961106Y-77297182D01*
X79765769Y-77297182D01*
X79764632Y-77386349D01*
X79760159Y-77445520D01*
X79750754Y-77483741D01*
X79734824Y-77510053D01*
X79726692Y-77518846D01*
X79679942Y-77552261D01*
X79634553Y-77550737D01*
X79588660Y-77521752D01*
X79561288Y-77490809D01*
X79545077Y-77445643D01*
X79535974Y-77374420D01*
X79535349Y-77366114D01*
X79533796Y-77237037D01*
X79550035Y-77141172D01*
X79583848Y-77079107D01*
X79635016Y-77051432D01*
X79653280Y-77049923D01*
X79701240Y-77057513D01*
X79734047Y-77083808D01*
X79754105Y-77134095D01*
X79763822Y-77213664D01*
X79765769Y-77297182D01*
X79961106Y-77297182D01*
X79960426Y-77203249D01*
X79957371Y-77132906D01*
X79950678Y-77084163D01*
X79939040Y-77048288D01*
X79921147Y-77016548D01*
X79917192Y-77010648D01*
X79850733Y-76931104D01*
X79778315Y-76884929D01*
X79690151Y-76866599D01*
X79660213Y-76865703D01*
X79548114Y-76882256D01*
G36*
X78030746Y-76894745D02*
X77953714Y-76946567D01*
X77894184Y-77021412D01*
X77858622Y-77116654D01*
X77851429Y-77186756D01*
X77852246Y-77216009D01*
X77859086Y-77238407D01*
X77877888Y-77258474D01*
X77914592Y-77280733D01*
X77975138Y-77309709D01*
X78065466Y-77349927D01*
X78065923Y-77350129D01*
X78149067Y-77388210D01*
X78217247Y-77422025D01*
X78263495Y-77447933D01*
X78280842Y-77462295D01*
X78280846Y-77462411D01*
X78265557Y-77493685D01*
X78229804Y-77528157D01*
X78188758Y-77552990D01*
X78167963Y-77557923D01*
X78111230Y-77540862D01*
X78062373Y-77498133D01*
X78038535Y-77451155D01*
X78015603Y-77416522D01*
X77970682Y-77377081D01*
X77917877Y-77343009D01*
X77871290Y-77324480D01*
X77861548Y-77323462D01*
X77850582Y-77340215D01*
X77849921Y-77383039D01*
X77857980Y-77440781D01*
X77873173Y-77502289D01*
X77893914Y-77556409D01*
X77894962Y-77558510D01*
X77957379Y-77645660D01*
X78038274Y-77704939D01*
X78130144Y-77734034D01*
X78225487Y-77730634D01*
X78316802Y-77692428D01*
X78320862Y-77689741D01*
X78392694Y-77624642D01*
X78439927Y-77539705D01*
X78466066Y-77428021D01*
X78469574Y-77396643D01*
X78475787Y-77248536D01*
X78468339Y-77179468D01*
X78280846Y-77179468D01*
X78278410Y-77222552D01*
X78265086Y-77235126D01*
X78231868Y-77225719D01*
X78179506Y-77203483D01*
X78120976Y-77175610D01*
X78119521Y-77174872D01*
X78069911Y-77148777D01*
X78050000Y-77131363D01*
X78054910Y-77113107D01*
X78075584Y-77089120D01*
X78128181Y-77054406D01*
X78184823Y-77051856D01*
X78235631Y-77077119D01*
X78270724Y-77125847D01*
X78280846Y-77179468D01*
X78468339Y-77179468D01*
X78463008Y-77130036D01*
X78430222Y-77036055D01*
X78384579Y-76970215D01*
X78302198Y-76903681D01*
X78211454Y-76870676D01*
X78118815Y-76868573D01*
X78030746Y-76894745D01*
X78030746Y-76894745D01*
G37*
X78030746Y-76894745D02*
X77953714Y-76946567D01*
X77894184Y-77021412D01*
X77858622Y-77116654D01*
X77851429Y-77186756D01*
X77852246Y-77216009D01*
X77859086Y-77238407D01*
X77877888Y-77258474D01*
X77914592Y-77280733D01*
X77975138Y-77309709D01*
X78065466Y-77349927D01*
X78065923Y-77350129D01*
X78149067Y-77388210D01*
X78217247Y-77422025D01*
X78263495Y-77447933D01*
X78280842Y-77462295D01*
X78280846Y-77462411D01*
X78265557Y-77493685D01*
X78229804Y-77528157D01*
X78188758Y-77552990D01*
X78167963Y-77557923D01*
X78111230Y-77540862D01*
X78062373Y-77498133D01*
X78038535Y-77451155D01*
X78015603Y-77416522D01*
X77970682Y-77377081D01*
X77917877Y-77343009D01*
X77871290Y-77324480D01*
X77861548Y-77323462D01*
X77850582Y-77340215D01*
X77849921Y-77383039D01*
X77857980Y-77440781D01*
X77873173Y-77502289D01*
X77893914Y-77556409D01*
X77894962Y-77558510D01*
X77957379Y-77645660D01*
X78038274Y-77704939D01*
X78130144Y-77734034D01*
X78225487Y-77730634D01*
X78316802Y-77692428D01*
X78320862Y-77689741D01*
X78392694Y-77624642D01*
X78439927Y-77539705D01*
X78466066Y-77428021D01*
X78469574Y-77396643D01*
X78475787Y-77248536D01*
X78468339Y-77179468D01*
X78280846Y-77179468D01*
X78278410Y-77222552D01*
X78265086Y-77235126D01*
X78231868Y-77225719D01*
X78179506Y-77203483D01*
X78120976Y-77175610D01*
X78119521Y-77174872D01*
X78069911Y-77148777D01*
X78050000Y-77131363D01*
X78054910Y-77113107D01*
X78075584Y-77089120D01*
X78128181Y-77054406D01*
X78184823Y-77051856D01*
X78235631Y-77077119D01*
X78270724Y-77125847D01*
X78280846Y-77179468D01*
X78468339Y-77179468D01*
X78463008Y-77130036D01*
X78430222Y-77036055D01*
X78384579Y-76970215D01*
X78302198Y-76903681D01*
X78211454Y-76870676D01*
X78118815Y-76868573D01*
X78030746Y-76894745D01*
G36*
X76405154Y-76787120D02*
X76399428Y-76866980D01*
X76392851Y-76914039D01*
X76383738Y-76934566D01*
X76370402Y-76934829D01*
X76366077Y-76932378D01*
X76308556Y-76914636D01*
X76233732Y-76915672D01*
X76157661Y-76933910D01*
X76110082Y-76957505D01*
X76061298Y-76995198D01*
X76025636Y-77037855D01*
X76001155Y-77092057D01*
X75985913Y-77164384D01*
X75977970Y-77261419D01*
X75975384Y-77389742D01*
X75975338Y-77414358D01*
X75975308Y-77690870D01*
X76036839Y-77712320D01*
X76080541Y-77726912D01*
X76104518Y-77733706D01*
X76105223Y-77733769D01*
X76107585Y-77715345D01*
X76109594Y-77664526D01*
X76111099Y-77587993D01*
X76111947Y-77492430D01*
X76112077Y-77434329D01*
X76112349Y-77319771D01*
X76113748Y-77237667D01*
X76117151Y-77181393D01*
X76123433Y-77144326D01*
X76133471Y-77119844D01*
X76148139Y-77101325D01*
X76157298Y-77092406D01*
X76220211Y-77056466D01*
X76288864Y-77053775D01*
X76351152Y-77084170D01*
X76362671Y-77095144D01*
X76379567Y-77115779D01*
X76391286Y-77140256D01*
X76398767Y-77175647D01*
X76402946Y-77229026D01*
X76404763Y-77307466D01*
X76405154Y-77415617D01*
X76405154Y-77690870D01*
X76466685Y-77712320D01*
X76510387Y-77726912D01*
X76534364Y-77733706D01*
X76535070Y-77733769D01*
X76536874Y-77715069D01*
X76538500Y-77662322D01*
X76539883Y-77580557D01*
X76540958Y-77474805D01*
X76541660Y-77350094D01*
X76541923Y-77211455D01*
X76541923Y-76676806D01*
X76414923Y-76623236D01*
X76405154Y-76787120D01*
X76405154Y-76787120D01*
G37*
X76405154Y-76787120D02*
X76399428Y-76866980D01*
X76392851Y-76914039D01*
X76383738Y-76934566D01*
X76370402Y-76934829D01*
X76366077Y-76932378D01*
X76308556Y-76914636D01*
X76233732Y-76915672D01*
X76157661Y-76933910D01*
X76110082Y-76957505D01*
X76061298Y-76995198D01*
X76025636Y-77037855D01*
X76001155Y-77092057D01*
X75985913Y-77164384D01*
X75977970Y-77261419D01*
X75975384Y-77389742D01*
X75975338Y-77414358D01*
X75975308Y-77690870D01*
X76036839Y-77712320D01*
X76080541Y-77726912D01*
X76104518Y-77733706D01*
X76105223Y-77733769D01*
X76107585Y-77715345D01*
X76109594Y-77664526D01*
X76111099Y-77587993D01*
X76111947Y-77492430D01*
X76112077Y-77434329D01*
X76112349Y-77319771D01*
X76113748Y-77237667D01*
X76117151Y-77181393D01*
X76123433Y-77144326D01*
X76133471Y-77119844D01*
X76148139Y-77101325D01*
X76157298Y-77092406D01*
X76220211Y-77056466D01*
X76288864Y-77053775D01*
X76351152Y-77084170D01*
X76362671Y-77095144D01*
X76379567Y-77115779D01*
X76391286Y-77140256D01*
X76398767Y-77175647D01*
X76402946Y-77229026D01*
X76404763Y-77307466D01*
X76405154Y-77415617D01*
X76405154Y-77690870D01*
X76466685Y-77712320D01*
X76510387Y-77726912D01*
X76534364Y-77733706D01*
X76535070Y-77733769D01*
X76536874Y-77715069D01*
X76538500Y-77662322D01*
X76539883Y-77580557D01*
X76540958Y-77474805D01*
X76541660Y-77350094D01*
X76541923Y-77211455D01*
X76541923Y-76676806D01*
X76414923Y-76623236D01*
X76405154Y-76787120D01*
G36*
X75511499Y-76921303D02*
X75434940Y-76949733D01*
X75434064Y-76950279D01*
X75386715Y-76985127D01*
X75351759Y-77025852D01*
X75327175Y-77078925D01*
X75310938Y-77150814D01*
X75301025Y-77247992D01*
X75295414Y-77376928D01*
X75294923Y-77395298D01*
X75287859Y-77672287D01*
X75347305Y-77703028D01*
X75390319Y-77723802D01*
X75416290Y-77733646D01*
X75417491Y-77733769D01*
X75421986Y-77715606D01*
X75425556Y-77666612D01*
X75427752Y-77595031D01*
X75428231Y-77537068D01*
X75428242Y-77443170D01*
X75432534Y-77384203D01*
X75447497Y-77356079D01*
X75479518Y-77354706D01*
X75534986Y-77375998D01*
X75618731Y-77415136D01*
X75680311Y-77447643D01*
X75711983Y-77475845D01*
X75721294Y-77506582D01*
X75721308Y-77508104D01*
X75705943Y-77561054D01*
X75660453Y-77589660D01*
X75590834Y-77593803D01*
X75540687Y-77593084D01*
X75514246Y-77607527D01*
X75497757Y-77642218D01*
X75488267Y-77686416D01*
X75501943Y-77711493D01*
X75507093Y-77715082D01*
X75555575Y-77729496D01*
X75623469Y-77731537D01*
X75693388Y-77721983D01*
X75742932Y-77704522D01*
X75811430Y-77646364D01*
X75850366Y-77565408D01*
X75858077Y-77502160D01*
X75852193Y-77445111D01*
X75830899Y-77398542D01*
X75788735Y-77357181D01*
X75720241Y-77315755D01*
X75619956Y-77268993D01*
X75613846Y-77266350D01*
X75523510Y-77224617D01*
X75467765Y-77190391D01*
X75443871Y-77159635D01*
X75449087Y-77128311D01*
X75480672Y-77092383D01*
X75490117Y-77084116D01*
X75553383Y-77052058D01*
X75618936Y-77053407D01*
X75676028Y-77084838D01*
X75713907Y-77143024D01*
X75717426Y-77154446D01*
X75751700Y-77209837D01*
X75795191Y-77236518D01*
X75858077Y-77262960D01*
X75858077Y-77194548D01*
X75838948Y-77095110D01*
X75782169Y-77003902D01*
X75752622Y-76973389D01*
X75685458Y-76934228D01*
X75600044Y-76916500D01*
X75511499Y-76921303D01*
X75511499Y-76921303D01*
G37*
X75511499Y-76921303D02*
X75434940Y-76949733D01*
X75434064Y-76950279D01*
X75386715Y-76985127D01*
X75351759Y-77025852D01*
X75327175Y-77078925D01*
X75310938Y-77150814D01*
X75301025Y-77247992D01*
X75295414Y-77376928D01*
X75294923Y-77395298D01*
X75287859Y-77672287D01*
X75347305Y-77703028D01*
X75390319Y-77723802D01*
X75416290Y-77733646D01*
X75417491Y-77733769D01*
X75421986Y-77715606D01*
X75425556Y-77666612D01*
X75427752Y-77595031D01*
X75428231Y-77537068D01*
X75428242Y-77443170D01*
X75432534Y-77384203D01*
X75447497Y-77356079D01*
X75479518Y-77354706D01*
X75534986Y-77375998D01*
X75618731Y-77415136D01*
X75680311Y-77447643D01*
X75711983Y-77475845D01*
X75721294Y-77506582D01*
X75721308Y-77508104D01*
X75705943Y-77561054D01*
X75660453Y-77589660D01*
X75590834Y-77593803D01*
X75540687Y-77593084D01*
X75514246Y-77607527D01*
X75497757Y-77642218D01*
X75488267Y-77686416D01*
X75501943Y-77711493D01*
X75507093Y-77715082D01*
X75555575Y-77729496D01*
X75623469Y-77731537D01*
X75693388Y-77721983D01*
X75742932Y-77704522D01*
X75811430Y-77646364D01*
X75850366Y-77565408D01*
X75858077Y-77502160D01*
X75852193Y-77445111D01*
X75830899Y-77398542D01*
X75788735Y-77357181D01*
X75720241Y-77315755D01*
X75619956Y-77268993D01*
X75613846Y-77266350D01*
X75523510Y-77224617D01*
X75467765Y-77190391D01*
X75443871Y-77159635D01*
X75449087Y-77128311D01*
X75480672Y-77092383D01*
X75490117Y-77084116D01*
X75553383Y-77052058D01*
X75618936Y-77053407D01*
X75676028Y-77084838D01*
X75713907Y-77143024D01*
X75717426Y-77154446D01*
X75751700Y-77209837D01*
X75795191Y-77236518D01*
X75858077Y-77262960D01*
X75858077Y-77194548D01*
X75838948Y-77095110D01*
X75782169Y-77003902D01*
X75752622Y-76973389D01*
X75685458Y-76934228D01*
X75600044Y-76916500D01*
X75511499Y-76921303D01*
G36*
X74851638Y-76919670D02*
X74762883Y-76952421D01*
X74690978Y-77010350D01*
X74662856Y-77051128D01*
X74632198Y-77125954D01*
X74632835Y-77180058D01*
X74665013Y-77216446D01*
X74676919Y-77222633D01*
X74728325Y-77241925D01*
X74754578Y-77236982D01*
X74763470Y-77204587D01*
X74763923Y-77186692D01*
X74780203Y-77120859D01*
X74822635Y-77074807D01*
X74881612Y-77052564D01*
X74947525Y-77058161D01*
X75001105Y-77087229D01*
X75019202Y-77103810D01*
X75032029Y-77123925D01*
X75040694Y-77154332D01*
X75046304Y-77201788D01*
X75049965Y-77273050D01*
X75052785Y-77374875D01*
X75053516Y-77407115D01*
X75056180Y-77517410D01*
X75059208Y-77595036D01*
X75063750Y-77646396D01*
X75070954Y-77677890D01*
X75081967Y-77695920D01*
X75097940Y-77706888D01*
X75108166Y-77711733D01*
X75151594Y-77728301D01*
X75177158Y-77733769D01*
X75185605Y-77715507D01*
X75190761Y-77660296D01*
X75192654Y-77567499D01*
X75191311Y-77436478D01*
X75190893Y-77416269D01*
X75187942Y-77296733D01*
X75184452Y-77209449D01*
X75179486Y-77147591D01*
X75172107Y-77104336D01*
X75161376Y-77072860D01*
X75146355Y-77046339D01*
X75138498Y-77034975D01*
X75093447Y-76984692D01*
X75043060Y-76945581D01*
X75036892Y-76942167D01*
X74946542Y-76915212D01*
X74851638Y-76919670D01*
X74851638Y-76919670D01*
G37*
X74851638Y-76919670D02*
X74762883Y-76952421D01*
X74690978Y-77010350D01*
X74662856Y-77051128D01*
X74632198Y-77125954D01*
X74632835Y-77180058D01*
X74665013Y-77216446D01*
X74676919Y-77222633D01*
X74728325Y-77241925D01*
X74754578Y-77236982D01*
X74763470Y-77204587D01*
X74763923Y-77186692D01*
X74780203Y-77120859D01*
X74822635Y-77074807D01*
X74881612Y-77052564D01*
X74947525Y-77058161D01*
X75001105Y-77087229D01*
X75019202Y-77103810D01*
X75032029Y-77123925D01*
X75040694Y-77154332D01*
X75046304Y-77201788D01*
X75049965Y-77273050D01*
X75052785Y-77374875D01*
X75053516Y-77407115D01*
X75056180Y-77517410D01*
X75059208Y-77595036D01*
X75063750Y-77646396D01*
X75070954Y-77677890D01*
X75081967Y-77695920D01*
X75097940Y-77706888D01*
X75108166Y-77711733D01*
X75151594Y-77728301D01*
X75177158Y-77733769D01*
X75185605Y-77715507D01*
X75190761Y-77660296D01*
X75192654Y-77567499D01*
X75191311Y-77436478D01*
X75190893Y-77416269D01*
X75187942Y-77296733D01*
X75184452Y-77209449D01*
X75179486Y-77147591D01*
X75172107Y-77104336D01*
X75161376Y-77072860D01*
X75146355Y-77046339D01*
X75138498Y-77034975D01*
X75093447Y-76984692D01*
X75043060Y-76945581D01*
X75036892Y-76942167D01*
X74946542Y-76915212D01*
X74851638Y-76919670D01*
G36*
X73962919Y-77075289D02*
X73963167Y-77221320D01*
X73964128Y-77333655D01*
X73966206Y-77417678D01*
X73969807Y-77478769D01*
X73975335Y-77522309D01*
X73983196Y-77553679D01*
X73993793Y-77578262D01*
X74001818Y-77592294D01*
X74068272Y-77668388D01*
X74152530Y-77716084D01*
X74245751Y-77733199D01*
X74339100Y-77717546D01*
X74394688Y-77689418D01*
X74453043Y-77640760D01*
X74492814Y-77581333D01*
X74516810Y-77503507D01*
X74527839Y-77399652D01*
X74529401Y-77323462D01*
X74529191Y-77317986D01*
X74392692Y-77317986D01*
X74391859Y-77405355D01*
X74388039Y-77463192D01*
X74379254Y-77501029D01*
X74363526Y-77528398D01*
X74344734Y-77549042D01*
X74281625Y-77588890D01*
X74213863Y-77592295D01*
X74149821Y-77559025D01*
X74144836Y-77554517D01*
X74123561Y-77531067D01*
X74110221Y-77503166D01*
X74102999Y-77461641D01*
X74100077Y-77397316D01*
X74099615Y-77326200D01*
X74100617Y-77236858D01*
X74104762Y-77177258D01*
X74113764Y-77138089D01*
X74129333Y-77110040D01*
X74142098Y-77095144D01*
X74201400Y-77057575D01*
X74269699Y-77053057D01*
X74334890Y-77081753D01*
X74347472Y-77092406D01*
X74368889Y-77116063D01*
X74382256Y-77144251D01*
X74389434Y-77186245D01*
X74392281Y-77251319D01*
X74392692Y-77317986D01*
X74529191Y-77317986D01*
X74524678Y-77200765D01*
X74508638Y-77108577D01*
X74478472Y-77039269D01*
X74431371Y-76985211D01*
X74394688Y-76957505D01*
X74328010Y-76927572D01*
X74250728Y-76913678D01*
X74178890Y-76917397D01*
X74138692Y-76932400D01*
X74122918Y-76936670D01*
X74112450Y-76920750D01*
X74105144Y-76878089D01*
X74099615Y-76813106D01*
X74093563Y-76740732D01*
X74085156Y-76697187D01*
X74069859Y-76672287D01*
X74043136Y-76655845D01*
X74026346Y-76648564D01*
X73962846Y-76621963D01*
X73962919Y-77075289D01*
X73962919Y-77075289D01*
G37*
X73962919Y-77075289D02*
X73963167Y-77221320D01*
X73964128Y-77333655D01*
X73966206Y-77417678D01*
X73969807Y-77478769D01*
X73975335Y-77522309D01*
X73983196Y-77553679D01*
X73993793Y-77578262D01*
X74001818Y-77592294D01*
X74068272Y-77668388D01*
X74152530Y-77716084D01*
X74245751Y-77733199D01*
X74339100Y-77717546D01*
X74394688Y-77689418D01*
X74453043Y-77640760D01*
X74492814Y-77581333D01*
X74516810Y-77503507D01*
X74527839Y-77399652D01*
X74529401Y-77323462D01*
X74529191Y-77317986D01*
X74392692Y-77317986D01*
X74391859Y-77405355D01*
X74388039Y-77463192D01*
X74379254Y-77501029D01*
X74363526Y-77528398D01*
X74344734Y-77549042D01*
X74281625Y-77588890D01*
X74213863Y-77592295D01*
X74149821Y-77559025D01*
X74144836Y-77554517D01*
X74123561Y-77531067D01*
X74110221Y-77503166D01*
X74102999Y-77461641D01*
X74100077Y-77397316D01*
X74099615Y-77326200D01*
X74100617Y-77236858D01*
X74104762Y-77177258D01*
X74113764Y-77138089D01*
X74129333Y-77110040D01*
X74142098Y-77095144D01*
X74201400Y-77057575D01*
X74269699Y-77053057D01*
X74334890Y-77081753D01*
X74347472Y-77092406D01*
X74368889Y-77116063D01*
X74382256Y-77144251D01*
X74389434Y-77186245D01*
X74392281Y-77251319D01*
X74392692Y-77317986D01*
X74529191Y-77317986D01*
X74524678Y-77200765D01*
X74508638Y-77108577D01*
X74478472Y-77039269D01*
X74431371Y-76985211D01*
X74394688Y-76957505D01*
X74328010Y-76927572D01*
X74250728Y-76913678D01*
X74178890Y-76917397D01*
X74138692Y-76932400D01*
X74122918Y-76936670D01*
X74112450Y-76920750D01*
X74105144Y-76878089D01*
X74099615Y-76813106D01*
X74093563Y-76740732D01*
X74085156Y-76697187D01*
X74069859Y-76672287D01*
X74043136Y-76655845D01*
X74026346Y-76648564D01*
X73962846Y-76621963D01*
X73962919Y-77075289D01*
G36*
X73169071Y-76931662D02*
X73166089Y-76983068D01*
X73163753Y-77061192D01*
X73162251Y-77159857D01*
X73161769Y-77263343D01*
X73161769Y-77613533D01*
X73223599Y-77675363D01*
X73266207Y-77713462D01*
X73303610Y-77728895D01*
X73354730Y-77727918D01*
X73375022Y-77725433D01*
X73438446Y-77718200D01*
X73490905Y-77714055D01*
X73503692Y-77713672D01*
X73546801Y-77716176D01*
X73608456Y-77722462D01*
X73632362Y-77725433D01*
X73691078Y-77730028D01*
X73730536Y-77720046D01*
X73769662Y-77689228D01*
X73783785Y-77675363D01*
X73845615Y-77613533D01*
X73845615Y-76958503D01*
X73795850Y-76935829D01*
X73752998Y-76919034D01*
X73727927Y-76913154D01*
X73721499Y-76931736D01*
X73715491Y-76983655D01*
X73710303Y-77063172D01*
X73706336Y-77164546D01*
X73704423Y-77250192D01*
X73699077Y-77587231D01*
X73652440Y-77593825D01*
X73610024Y-77589214D01*
X73589240Y-77574287D01*
X73583430Y-77546377D01*
X73578470Y-77486925D01*
X73574754Y-77403466D01*
X73572676Y-77303532D01*
X73572376Y-77252104D01*
X73572077Y-76956054D01*
X73510546Y-76934604D01*
X73466996Y-76920020D01*
X73443306Y-76913219D01*
X73442623Y-76913154D01*
X73440246Y-76931642D01*
X73437634Y-76982906D01*
X73435005Y-77060649D01*
X73432579Y-77158574D01*
X73430885Y-77250192D01*
X73425539Y-77587231D01*
X73308308Y-77587231D01*
X73302928Y-77279746D01*
X73297549Y-76972261D01*
X73240399Y-76942707D01*
X73198203Y-76922413D01*
X73173230Y-76913204D01*
X73172509Y-76913154D01*
X73169071Y-76931662D01*
X73169071Y-76931662D01*
G37*
X73169071Y-76931662D02*
X73166089Y-76983068D01*
X73163753Y-77061192D01*
X73162251Y-77159857D01*
X73161769Y-77263343D01*
X73161769Y-77613533D01*
X73223599Y-77675363D01*
X73266207Y-77713462D01*
X73303610Y-77728895D01*
X73354730Y-77727918D01*
X73375022Y-77725433D01*
X73438446Y-77718200D01*
X73490905Y-77714055D01*
X73503692Y-77713672D01*
X73546801Y-77716176D01*
X73608456Y-77722462D01*
X73632362Y-77725433D01*
X73691078Y-77730028D01*
X73730536Y-77720046D01*
X73769662Y-77689228D01*
X73783785Y-77675363D01*
X73845615Y-77613533D01*
X73845615Y-76958503D01*
X73795850Y-76935829D01*
X73752998Y-76919034D01*
X73727927Y-76913154D01*
X73721499Y-76931736D01*
X73715491Y-76983655D01*
X73710303Y-77063172D01*
X73706336Y-77164546D01*
X73704423Y-77250192D01*
X73699077Y-77587231D01*
X73652440Y-77593825D01*
X73610024Y-77589214D01*
X73589240Y-77574287D01*
X73583430Y-77546377D01*
X73578470Y-77486925D01*
X73574754Y-77403466D01*
X73572676Y-77303532D01*
X73572376Y-77252104D01*
X73572077Y-76956054D01*
X73510546Y-76934604D01*
X73466996Y-76920020D01*
X73443306Y-76913219D01*
X73442623Y-76913154D01*
X73440246Y-76931642D01*
X73437634Y-76982906D01*
X73435005Y-77060649D01*
X73432579Y-77158574D01*
X73430885Y-77250192D01*
X73425539Y-77587231D01*
X73308308Y-77587231D01*
X73302928Y-77279746D01*
X73297549Y-76972261D01*
X73240399Y-76942707D01*
X73198203Y-76922413D01*
X73173230Y-76913204D01*
X73172509Y-76913154D01*
X73169071Y-76931662D01*
G36*
X72677667Y-76928528D02*
X72621410Y-76954117D01*
X72577253Y-76985124D01*
X72544899Y-77019795D01*
X72522562Y-77064520D01*
X72508454Y-77125692D01*
X72500789Y-77209701D01*
X72497780Y-77322940D01*
X72497462Y-77397509D01*
X72497462Y-77688420D01*
X72547227Y-77711095D01*
X72586424Y-77727667D01*
X72605843Y-77733769D01*
X72609558Y-77715610D01*
X72612505Y-77666648D01*
X72614309Y-77595153D01*
X72614692Y-77538385D01*
X72616339Y-77456371D01*
X72620778Y-77391309D01*
X72627260Y-77351467D01*
X72632410Y-77343000D01*
X72667023Y-77351646D01*
X72721360Y-77373823D01*
X72784278Y-77403886D01*
X72844632Y-77436192D01*
X72891279Y-77465098D01*
X72913074Y-77484961D01*
X72913161Y-77485175D01*
X72911286Y-77521935D01*
X72894475Y-77557026D01*
X72864961Y-77585528D01*
X72821884Y-77595061D01*
X72785068Y-77593950D01*
X72732926Y-77593133D01*
X72705556Y-77605349D01*
X72689118Y-77637624D01*
X72687045Y-77643710D01*
X72679919Y-77689739D01*
X72698976Y-77717687D01*
X72748647Y-77731007D01*
X72802303Y-77733470D01*
X72898858Y-77715210D01*
X72948841Y-77689131D01*
X73010571Y-77627868D01*
X73043310Y-77552670D01*
X73046247Y-77473211D01*
X73018576Y-77399167D01*
X72976953Y-77352769D01*
X72935396Y-77326793D01*
X72870078Y-77293907D01*
X72793962Y-77260557D01*
X72781274Y-77255461D01*
X72697667Y-77218565D01*
X72649470Y-77186046D01*
X72633970Y-77153718D01*
X72648450Y-77117394D01*
X72673308Y-77089000D01*
X72732061Y-77054039D01*
X72796707Y-77051417D01*
X72855992Y-77078358D01*
X72898661Y-77132088D01*
X72904261Y-77145950D01*
X72936867Y-77196936D01*
X72984470Y-77234787D01*
X73044539Y-77265850D01*
X73044539Y-77177768D01*
X73041003Y-77123951D01*
X73025844Y-77081534D01*
X72992232Y-77036279D01*
X72959965Y-77001420D01*
X72909791Y-76952062D01*
X72870807Y-76925547D01*
X72828936Y-76914911D01*
X72781540Y-76913154D01*
X72677667Y-76928528D01*
X72677667Y-76928528D01*
G37*
X72677667Y-76928528D02*
X72621410Y-76954117D01*
X72577253Y-76985124D01*
X72544899Y-77019795D01*
X72522562Y-77064520D01*
X72508454Y-77125692D01*
X72500789Y-77209701D01*
X72497780Y-77322940D01*
X72497462Y-77397509D01*
X72497462Y-77688420D01*
X72547227Y-77711095D01*
X72586424Y-77727667D01*
X72605843Y-77733769D01*
X72609558Y-77715610D01*
X72612505Y-77666648D01*
X72614309Y-77595153D01*
X72614692Y-77538385D01*
X72616339Y-77456371D01*
X72620778Y-77391309D01*
X72627260Y-77351467D01*
X72632410Y-77343000D01*
X72667023Y-77351646D01*
X72721360Y-77373823D01*
X72784278Y-77403886D01*
X72844632Y-77436192D01*
X72891279Y-77465098D01*
X72913074Y-77484961D01*
X72913161Y-77485175D01*
X72911286Y-77521935D01*
X72894475Y-77557026D01*
X72864961Y-77585528D01*
X72821884Y-77595061D01*
X72785068Y-77593950D01*
X72732926Y-77593133D01*
X72705556Y-77605349D01*
X72689118Y-77637624D01*
X72687045Y-77643710D01*
X72679919Y-77689739D01*
X72698976Y-77717687D01*
X72748647Y-77731007D01*
X72802303Y-77733470D01*
X72898858Y-77715210D01*
X72948841Y-77689131D01*
X73010571Y-77627868D01*
X73043310Y-77552670D01*
X73046247Y-77473211D01*
X73018576Y-77399167D01*
X72976953Y-77352769D01*
X72935396Y-77326793D01*
X72870078Y-77293907D01*
X72793962Y-77260557D01*
X72781274Y-77255461D01*
X72697667Y-77218565D01*
X72649470Y-77186046D01*
X72633970Y-77153718D01*
X72648450Y-77117394D01*
X72673308Y-77089000D01*
X72732061Y-77054039D01*
X72796707Y-77051417D01*
X72855992Y-77078358D01*
X72898661Y-77132088D01*
X72904261Y-77145950D01*
X72936867Y-77196936D01*
X72984470Y-77234787D01*
X73044539Y-77265850D01*
X73044539Y-77177768D01*
X73041003Y-77123951D01*
X73025844Y-77081534D01*
X72992232Y-77036279D01*
X72959965Y-77001420D01*
X72909791Y-76952062D01*
X72870807Y-76925547D01*
X72828936Y-76914911D01*
X72781540Y-76913154D01*
X72677667Y-76928528D01*
G36*
X71994193Y-76931782D02*
X71970839Y-76941988D01*
X71915098Y-76986134D01*
X71867431Y-77049967D01*
X71837952Y-77118087D01*
X71833154Y-77151670D01*
X71849240Y-77198556D01*
X71884525Y-77223365D01*
X71922356Y-77238387D01*
X71939679Y-77241155D01*
X71948114Y-77221066D01*
X71964770Y-77177351D01*
X71972077Y-77157598D01*
X72013052Y-77089271D01*
X72072378Y-77055191D01*
X72148448Y-77056239D01*
X72154082Y-77057581D01*
X72194695Y-77076836D01*
X72224552Y-77114375D01*
X72244945Y-77174809D01*
X72257164Y-77262751D01*
X72262500Y-77382813D01*
X72263000Y-77446698D01*
X72263248Y-77547403D01*
X72264874Y-77616054D01*
X72269199Y-77659673D01*
X72277546Y-77685282D01*
X72291235Y-77699903D01*
X72311589Y-77710558D01*
X72312766Y-77711095D01*
X72351962Y-77727667D01*
X72371381Y-77733769D01*
X72374365Y-77715319D01*
X72376919Y-77664323D01*
X72378860Y-77587308D01*
X72380003Y-77490805D01*
X72380231Y-77420184D01*
X72379068Y-77283525D01*
X72374521Y-77179851D01*
X72365001Y-77103108D01*
X72348919Y-77047246D01*
X72324687Y-77006212D01*
X72290714Y-76973954D01*
X72257167Y-76951440D01*
X72176501Y-76921476D01*
X72082619Y-76914718D01*
X71994193Y-76931782D01*
X71994193Y-76931782D01*
G37*
X71994193Y-76931782D02*
X71970839Y-76941988D01*
X71915098Y-76986134D01*
X71867431Y-77049967D01*
X71837952Y-77118087D01*
X71833154Y-77151670D01*
X71849240Y-77198556D01*
X71884525Y-77223365D01*
X71922356Y-77238387D01*
X71939679Y-77241155D01*
X71948114Y-77221066D01*
X71964770Y-77177351D01*
X71972077Y-77157598D01*
X72013052Y-77089271D01*
X72072378Y-77055191D01*
X72148448Y-77056239D01*
X72154082Y-77057581D01*
X72194695Y-77076836D01*
X72224552Y-77114375D01*
X72244945Y-77174809D01*
X72257164Y-77262751D01*
X72262500Y-77382813D01*
X72263000Y-77446698D01*
X72263248Y-77547403D01*
X72264874Y-77616054D01*
X72269199Y-77659673D01*
X72277546Y-77685282D01*
X72291235Y-77699903D01*
X72311589Y-77710558D01*
X72312766Y-77711095D01*
X72351962Y-77727667D01*
X72371381Y-77733769D01*
X72374365Y-77715319D01*
X72376919Y-77664323D01*
X72378860Y-77587308D01*
X72380003Y-77490805D01*
X72380231Y-77420184D01*
X72379068Y-77283525D01*
X72374521Y-77179851D01*
X72365001Y-77103108D01*
X72348919Y-77047246D01*
X72324687Y-77006212D01*
X72290714Y-76973954D01*
X72257167Y-76951440D01*
X72176501Y-76921476D01*
X72082619Y-76914718D01*
X71994193Y-76931782D01*
G36*
X71319776Y-76942838D02*
X71242472Y-76993361D01*
X71205186Y-77038590D01*
X71175647Y-77120663D01*
X71173301Y-77185607D01*
X71178615Y-77272445D01*
X71378885Y-77360103D01*
X71476261Y-77404887D01*
X71539887Y-77440913D01*
X71572971Y-77472117D01*
X71578720Y-77502436D01*
X71560342Y-77535805D01*
X71540077Y-77557923D01*
X71481111Y-77593393D01*
X71416976Y-77595879D01*
X71358074Y-77568235D01*
X71314803Y-77513320D01*
X71307064Y-77493928D01*
X71269994Y-77433364D01*
X71227346Y-77407552D01*
X71168846Y-77385471D01*
X71168846Y-77469184D01*
X71174018Y-77526150D01*
X71194277Y-77574189D01*
X71236738Y-77629346D01*
X71243049Y-77636514D01*
X71290280Y-77685585D01*
X71330879Y-77711920D01*
X71381672Y-77724035D01*
X71423780Y-77728003D01*
X71499098Y-77728991D01*
X71552714Y-77716466D01*
X71586162Y-77697869D01*
X71638732Y-77656975D01*
X71675121Y-77612748D01*
X71698150Y-77557126D01*
X71710641Y-77482047D01*
X71715413Y-77379449D01*
X71715794Y-77327376D01*
X71714499Y-77264948D01*
X71596529Y-77264948D01*
X71595161Y-77298438D01*
X71591751Y-77303923D01*
X71569247Y-77296472D01*
X71520818Y-77276753D01*
X71456092Y-77248718D01*
X71442557Y-77242692D01*
X71360756Y-77201096D01*
X71315688Y-77164538D01*
X71305783Y-77130296D01*
X71329474Y-77095648D01*
X71349040Y-77080339D01*
X71419640Y-77049721D01*
X71485720Y-77054780D01*
X71541041Y-77092151D01*
X71579364Y-77158473D01*
X71591651Y-77211116D01*
X71596529Y-77264948D01*
X71714499Y-77264948D01*
X71713270Y-77205720D01*
X71703968Y-77115710D01*
X71685540Y-77050167D01*
X71655640Y-77001912D01*
X71611920Y-76963767D01*
X71592859Y-76951440D01*
X71506274Y-76919336D01*
X71411478Y-76917316D01*
X71319776Y-76942838D01*
X71319776Y-76942838D01*
G37*
X71319776Y-76942838D02*
X71242472Y-76993361D01*
X71205186Y-77038590D01*
X71175647Y-77120663D01*
X71173301Y-77185607D01*
X71178615Y-77272445D01*
X71378885Y-77360103D01*
X71476261Y-77404887D01*
X71539887Y-77440913D01*
X71572971Y-77472117D01*
X71578720Y-77502436D01*
X71560342Y-77535805D01*
X71540077Y-77557923D01*
X71481111Y-77593393D01*
X71416976Y-77595879D01*
X71358074Y-77568235D01*
X71314803Y-77513320D01*
X71307064Y-77493928D01*
X71269994Y-77433364D01*
X71227346Y-77407552D01*
X71168846Y-77385471D01*
X71168846Y-77469184D01*
X71174018Y-77526150D01*
X71194277Y-77574189D01*
X71236738Y-77629346D01*
X71243049Y-77636514D01*
X71290280Y-77685585D01*
X71330879Y-77711920D01*
X71381672Y-77724035D01*
X71423780Y-77728003D01*
X71499098Y-77728991D01*
X71552714Y-77716466D01*
X71586162Y-77697869D01*
X71638732Y-77656975D01*
X71675121Y-77612748D01*
X71698150Y-77557126D01*
X71710641Y-77482047D01*
X71715413Y-77379449D01*
X71715794Y-77327376D01*
X71714499Y-77264948D01*
X71596529Y-77264948D01*
X71595161Y-77298438D01*
X71591751Y-77303923D01*
X71569247Y-77296472D01*
X71520818Y-77276753D01*
X71456092Y-77248718D01*
X71442557Y-77242692D01*
X71360756Y-77201096D01*
X71315688Y-77164538D01*
X71305783Y-77130296D01*
X71329474Y-77095648D01*
X71349040Y-77080339D01*
X71419640Y-77049721D01*
X71485720Y-77054780D01*
X71541041Y-77092151D01*
X71579364Y-77158473D01*
X71591651Y-77211116D01*
X71596529Y-77264948D01*
X71714499Y-77264948D01*
X71713270Y-77205720D01*
X71703968Y-77115710D01*
X71685540Y-77050167D01*
X71655640Y-77001912D01*
X71611920Y-76963767D01*
X71592859Y-76951440D01*
X71506274Y-76919336D01*
X71411478Y-76917316D01*
X71319776Y-76942838D01*
G36*
X75425122Y-70582776D02*
X75319388Y-70583355D01*
X75242868Y-70584922D01*
X75190628Y-70587972D01*
X75157737Y-70592996D01*
X75139263Y-70600489D01*
X75130273Y-70610944D01*
X75125837Y-70624853D01*
X75125406Y-70626654D01*
X75118667Y-70659145D01*
X75106192Y-70723252D01*
X75089281Y-70812151D01*
X75069229Y-70919019D01*
X75047336Y-71037033D01*
X75046571Y-71041178D01*
X75024641Y-71156831D01*
X75004123Y-71259014D01*
X74986341Y-71341598D01*
X74972619Y-71398456D01*
X74964282Y-71423458D01*
X74963884Y-71423901D01*
X74939323Y-71436110D01*
X74888685Y-71456456D01*
X74822905Y-71480545D01*
X74822539Y-71480674D01*
X74739683Y-71511818D01*
X74642000Y-71551491D01*
X74549923Y-71591381D01*
X74545566Y-71593353D01*
X74395593Y-71661420D01*
X74063502Y-71434639D01*
X73961626Y-71365504D01*
X73869343Y-71303697D01*
X73791997Y-71252733D01*
X73734936Y-71216127D01*
X73703505Y-71197394D01*
X73700521Y-71196004D01*
X73677679Y-71202190D01*
X73635018Y-71232035D01*
X73570872Y-71286947D01*
X73483579Y-71368334D01*
X73394465Y-71454922D01*
X73308559Y-71540247D01*
X73231673Y-71618108D01*
X73168436Y-71683697D01*
X73123477Y-71732205D01*
X73101424Y-71758825D01*
X73100604Y-71760195D01*
X73098166Y-71778463D01*
X73107350Y-71808295D01*
X73130426Y-71853721D01*
X73169663Y-71918770D01*
X73227330Y-72007470D01*
X73304205Y-72121657D01*
X73372430Y-72222162D01*
X73433418Y-72312303D01*
X73483644Y-72386849D01*
X73519584Y-72440565D01*
X73537713Y-72468218D01*
X73538854Y-72470095D01*
X73536641Y-72496590D01*
X73519862Y-72548086D01*
X73491858Y-72614851D01*
X73481878Y-72636172D01*
X73438328Y-72731159D01*
X73391866Y-72838937D01*
X73354123Y-72932192D01*
X73326927Y-73001406D01*
X73305325Y-73054006D01*
X73292842Y-73081497D01*
X73291291Y-73083616D01*
X73268332Y-73087124D01*
X73214214Y-73096738D01*
X73136132Y-73111089D01*
X73041281Y-73128807D01*
X72936857Y-73148525D01*
X72830056Y-73168874D01*
X72728074Y-73188486D01*
X72638106Y-73205991D01*
X72567347Y-73220022D01*
X72522994Y-73229209D01*
X72512115Y-73231807D01*
X72500878Y-73238218D01*
X72492395Y-73252697D01*
X72486286Y-73280133D01*
X72482168Y-73325411D01*
X72479659Y-73393420D01*
X72478379Y-73489047D01*
X72477946Y-73617180D01*
X72477923Y-73669701D01*
X72477923Y-74096845D01*
X72580500Y-74117091D01*
X72637569Y-74128070D01*
X72722731Y-74144095D01*
X72825628Y-74163233D01*
X72935904Y-74183551D01*
X72966385Y-74189132D01*
X73068145Y-74208917D01*
X73156795Y-74228373D01*
X73224892Y-74245697D01*
X73264996Y-74259088D01*
X73271677Y-74263079D01*
X73288081Y-74291342D01*
X73311601Y-74346109D01*
X73337684Y-74416588D01*
X73342858Y-74431769D01*
X73377044Y-74525896D01*
X73419477Y-74632101D01*
X73461003Y-74727473D01*
X73461208Y-74727916D01*
X73530360Y-74877525D01*
X73075488Y-75546617D01*
X73367500Y-75839116D01*
X73455820Y-75926170D01*
X73536375Y-76002909D01*
X73604640Y-76065237D01*
X73656092Y-76109056D01*
X73686206Y-76130270D01*
X73690526Y-76131616D01*
X73715889Y-76121016D01*
X73767642Y-76091547D01*
X73840132Y-76046705D01*
X73927706Y-75989984D01*
X74022388Y-75926462D01*
X74118484Y-75861668D01*
X74204163Y-75805287D01*
X74273984Y-75760788D01*
X74322506Y-75731639D01*
X74344218Y-75721308D01*
X74370707Y-75730050D01*
X74420938Y-75753087D01*
X74484549Y-75785631D01*
X74491292Y-75789249D01*
X74576954Y-75832210D01*
X74635694Y-75853279D01*
X74672228Y-75853503D01*
X74691269Y-75833928D01*
X74691380Y-75833654D01*
X74700898Y-75810472D01*
X74723597Y-75755441D01*
X74757718Y-75672822D01*
X74801500Y-75566872D01*
X74853184Y-75441852D01*
X74911008Y-75302020D01*
X74967009Y-75166637D01*
X75028553Y-75017234D01*
X75085061Y-74878832D01*
X75134839Y-74755673D01*
X75176194Y-74652002D01*
X75207432Y-74572059D01*
X75226859Y-74520088D01*
X75232846Y-74500692D01*
X75217832Y-74478443D01*
X75178561Y-74442982D01*
X75126193Y-74403887D01*
X74977059Y-74280245D01*
X74860489Y-74138522D01*
X74777882Y-73981704D01*
X74730634Y-73812775D01*
X74720143Y-73634722D01*
X74727769Y-73552539D01*
X74769318Y-73382031D01*
X74840877Y-73231459D01*
X74938005Y-73102309D01*
X75056266Y-72996064D01*
X75191220Y-72914210D01*
X75338429Y-72858232D01*
X75493456Y-72829615D01*
X75651861Y-72829844D01*
X75809206Y-72860405D01*
X75961054Y-72922782D01*
X76102965Y-73018460D01*
X76162197Y-73072572D01*
X76275797Y-73211520D01*
X76354894Y-73363361D01*
X76400014Y-73523667D01*
X76411684Y-73688012D01*
X76390431Y-73851971D01*
X76336780Y-74011118D01*
X76251260Y-74161025D01*
X76134395Y-74297267D01*
X76003807Y-74403887D01*
X75949412Y-74444642D01*
X75910986Y-74479718D01*
X75897154Y-74500726D01*
X75904397Y-74523635D01*
X75924995Y-74578365D01*
X75957254Y-74660672D01*
X75999479Y-74766315D01*
X76049977Y-74891050D01*
X76107052Y-75030636D01*
X76163146Y-75166670D01*
X76225033Y-75316201D01*
X76282356Y-75454767D01*
X76333356Y-75578107D01*
X76376273Y-75681964D01*
X76409347Y-75762080D01*
X76430819Y-75814195D01*
X76438775Y-75833654D01*
X76457571Y-75853423D01*
X76493926Y-75853365D01*
X76552521Y-75832441D01*
X76638032Y-75789613D01*
X76638708Y-75789249D01*
X76703093Y-75756012D01*
X76755139Y-75731802D01*
X76784488Y-75721404D01*
X76785783Y-75721308D01*
X76807876Y-75731855D01*
X76856652Y-75761184D01*
X76926669Y-75805827D01*
X77012486Y-75862314D01*
X77107612Y-75926462D01*
X77204460Y-75991411D01*
X77291747Y-76047896D01*
X77363819Y-76092421D01*
X77415023Y-76121490D01*
X77439474Y-76131616D01*
X77461990Y-76118307D01*
X77507258Y-76081112D01*
X77570756Y-76024128D01*
X77647961Y-75951449D01*
X77734349Y-75867171D01*
X77762601Y-75839016D01*
X78054713Y-75546416D01*
X77832369Y-75220104D01*
X77764798Y-75119897D01*
X77705493Y-75029963D01*
X77657783Y-74955510D01*
X77624993Y-74901751D01*
X77610452Y-74873894D01*
X77610026Y-74871912D01*
X77617692Y-74845655D01*
X77638311Y-74792837D01*
X77668315Y-74722310D01*
X77689375Y-74675093D01*
X77728752Y-74584694D01*
X77765835Y-74493366D01*
X77794585Y-74416200D01*
X77802395Y-74392692D01*
X77824583Y-74329916D01*
X77846273Y-74281411D01*
X77858187Y-74263079D01*
X77884477Y-74251859D01*
X77941858Y-74235954D01*
X78022882Y-74217167D01*
X78120105Y-74197299D01*
X78163615Y-74189132D01*
X78274104Y-74168829D01*
X78380084Y-74149170D01*
X78471199Y-74132088D01*
X78537092Y-74119518D01*
X78549500Y-74117091D01*
X78652077Y-74096845D01*
X78652077Y-73669701D01*
X78651847Y-73529246D01*
X78650901Y-73422979D01*
X78648859Y-73346013D01*
X78645338Y-73293460D01*
X78639957Y-73260433D01*
X78632334Y-73242045D01*
X78622088Y-73233408D01*
X78617885Y-73231807D01*
X78592530Y-73226127D01*
X78536516Y-73214795D01*
X78457036Y-73199179D01*
X78361288Y-73180647D01*
X78256467Y-73160569D01*
X78149768Y-73140312D01*
X78048387Y-73121246D01*
X77959521Y-73104739D01*
X77890363Y-73092159D01*
X77848111Y-73084875D01*
X77838710Y-73083616D01*
X77830193Y-73066763D01*
X77811340Y-73021870D01*
X77785676Y-72957430D01*
X77775877Y-72932192D01*
X77736352Y-72834686D01*
X77689808Y-72726959D01*
X77648123Y-72636172D01*
X77617450Y-72566753D01*
X77597044Y-72509710D01*
X77590232Y-72474777D01*
X77591318Y-72470095D01*
X77605715Y-72447991D01*
X77638588Y-72398831D01*
X77686410Y-72327848D01*
X77745652Y-72240278D01*
X77812785Y-72141357D01*
X77826059Y-72121830D01*
X77903954Y-72006140D01*
X77961213Y-71918044D01*
X78000119Y-71853486D01*
X78022956Y-71808411D01*
X78032006Y-71778763D01*
X78029552Y-71760485D01*
X78029489Y-71760369D01*
X78010173Y-71736361D01*
X77967449Y-71689947D01*
X77905949Y-71625937D01*
X77830302Y-71549145D01*
X77745139Y-71464382D01*
X77735535Y-71454922D01*
X77628210Y-71350989D01*
X77545385Y-71274675D01*
X77485395Y-71224571D01*
X77446577Y-71199270D01*
X77429480Y-71196004D01*
X77404527Y-71210250D01*
X77352745Y-71243156D01*
X77279480Y-71291208D01*
X77190080Y-71350890D01*
X77089889Y-71418688D01*
X77066499Y-71434639D01*
X76734407Y-71661420D01*
X76584435Y-71593353D01*
X76493230Y-71553685D01*
X76395331Y-71513791D01*
X76311169Y-71481983D01*
X76307462Y-71480674D01*
X76241631Y-71456576D01*
X76190884Y-71436200D01*
X76166158Y-71423936D01*
X76166116Y-71423901D01*
X76158271Y-71401734D01*
X76144934Y-71347217D01*
X76127430Y-71266480D01*
X76107083Y-71165650D01*
X76085218Y-71050856D01*
X76083429Y-71041178D01*
X76061496Y-70922904D01*
X76041360Y-70815542D01*
X76024320Y-70725917D01*
X76011672Y-70660851D01*
X76004716Y-70627168D01*
X76004594Y-70626654D01*
X76000361Y-70612325D01*
X75992129Y-70601507D01*
X75974967Y-70593706D01*
X75943942Y-70588429D01*
X75894122Y-70585182D01*
X75820576Y-70583472D01*
X75718371Y-70582807D01*
X75582575Y-70582693D01*
X75565000Y-70582692D01*
X75425122Y-70582776D01*
X75425122Y-70582776D01*
G37*
X75425122Y-70582776D02*
X75319388Y-70583355D01*
X75242868Y-70584922D01*
X75190628Y-70587972D01*
X75157737Y-70592996D01*
X75139263Y-70600489D01*
X75130273Y-70610944D01*
X75125837Y-70624853D01*
X75125406Y-70626654D01*
X75118667Y-70659145D01*
X75106192Y-70723252D01*
X75089281Y-70812151D01*
X75069229Y-70919019D01*
X75047336Y-71037033D01*
X75046571Y-71041178D01*
X75024641Y-71156831D01*
X75004123Y-71259014D01*
X74986341Y-71341598D01*
X74972619Y-71398456D01*
X74964282Y-71423458D01*
X74963884Y-71423901D01*
X74939323Y-71436110D01*
X74888685Y-71456456D01*
X74822905Y-71480545D01*
X74822539Y-71480674D01*
X74739683Y-71511818D01*
X74642000Y-71551491D01*
X74549923Y-71591381D01*
X74545566Y-71593353D01*
X74395593Y-71661420D01*
X74063502Y-71434639D01*
X73961626Y-71365504D01*
X73869343Y-71303697D01*
X73791997Y-71252733D01*
X73734936Y-71216127D01*
X73703505Y-71197394D01*
X73700521Y-71196004D01*
X73677679Y-71202190D01*
X73635018Y-71232035D01*
X73570872Y-71286947D01*
X73483579Y-71368334D01*
X73394465Y-71454922D01*
X73308559Y-71540247D01*
X73231673Y-71618108D01*
X73168436Y-71683697D01*
X73123477Y-71732205D01*
X73101424Y-71758825D01*
X73100604Y-71760195D01*
X73098166Y-71778463D01*
X73107350Y-71808295D01*
X73130426Y-71853721D01*
X73169663Y-71918770D01*
X73227330Y-72007470D01*
X73304205Y-72121657D01*
X73372430Y-72222162D01*
X73433418Y-72312303D01*
X73483644Y-72386849D01*
X73519584Y-72440565D01*
X73537713Y-72468218D01*
X73538854Y-72470095D01*
X73536641Y-72496590D01*
X73519862Y-72548086D01*
X73491858Y-72614851D01*
X73481878Y-72636172D01*
X73438328Y-72731159D01*
X73391866Y-72838937D01*
X73354123Y-72932192D01*
X73326927Y-73001406D01*
X73305325Y-73054006D01*
X73292842Y-73081497D01*
X73291291Y-73083616D01*
X73268332Y-73087124D01*
X73214214Y-73096738D01*
X73136132Y-73111089D01*
X73041281Y-73128807D01*
X72936857Y-73148525D01*
X72830056Y-73168874D01*
X72728074Y-73188486D01*
X72638106Y-73205991D01*
X72567347Y-73220022D01*
X72522994Y-73229209D01*
X72512115Y-73231807D01*
X72500878Y-73238218D01*
X72492395Y-73252697D01*
X72486286Y-73280133D01*
X72482168Y-73325411D01*
X72479659Y-73393420D01*
X72478379Y-73489047D01*
X72477946Y-73617180D01*
X72477923Y-73669701D01*
X72477923Y-74096845D01*
X72580500Y-74117091D01*
X72637569Y-74128070D01*
X72722731Y-74144095D01*
X72825628Y-74163233D01*
X72935904Y-74183551D01*
X72966385Y-74189132D01*
X73068145Y-74208917D01*
X73156795Y-74228373D01*
X73224892Y-74245697D01*
X73264996Y-74259088D01*
X73271677Y-74263079D01*
X73288081Y-74291342D01*
X73311601Y-74346109D01*
X73337684Y-74416588D01*
X73342858Y-74431769D01*
X73377044Y-74525896D01*
X73419477Y-74632101D01*
X73461003Y-74727473D01*
X73461208Y-74727916D01*
X73530360Y-74877525D01*
X73075488Y-75546617D01*
X73367500Y-75839116D01*
X73455820Y-75926170D01*
X73536375Y-76002909D01*
X73604640Y-76065237D01*
X73656092Y-76109056D01*
X73686206Y-76130270D01*
X73690526Y-76131616D01*
X73715889Y-76121016D01*
X73767642Y-76091547D01*
X73840132Y-76046705D01*
X73927706Y-75989984D01*
X74022388Y-75926462D01*
X74118484Y-75861668D01*
X74204163Y-75805287D01*
X74273984Y-75760788D01*
X74322506Y-75731639D01*
X74344218Y-75721308D01*
X74370707Y-75730050D01*
X74420938Y-75753087D01*
X74484549Y-75785631D01*
X74491292Y-75789249D01*
X74576954Y-75832210D01*
X74635694Y-75853279D01*
X74672228Y-75853503D01*
X74691269Y-75833928D01*
X74691380Y-75833654D01*
X74700898Y-75810472D01*
X74723597Y-75755441D01*
X74757718Y-75672822D01*
X74801500Y-75566872D01*
X74853184Y-75441852D01*
X74911008Y-75302020D01*
X74967009Y-75166637D01*
X75028553Y-75017234D01*
X75085061Y-74878832D01*
X75134839Y-74755673D01*
X75176194Y-74652002D01*
X75207432Y-74572059D01*
X75226859Y-74520088D01*
X75232846Y-74500692D01*
X75217832Y-74478443D01*
X75178561Y-74442982D01*
X75126193Y-74403887D01*
X74977059Y-74280245D01*
X74860489Y-74138522D01*
X74777882Y-73981704D01*
X74730634Y-73812775D01*
X74720143Y-73634722D01*
X74727769Y-73552539D01*
X74769318Y-73382031D01*
X74840877Y-73231459D01*
X74938005Y-73102309D01*
X75056266Y-72996064D01*
X75191220Y-72914210D01*
X75338429Y-72858232D01*
X75493456Y-72829615D01*
X75651861Y-72829844D01*
X75809206Y-72860405D01*
X75961054Y-72922782D01*
X76102965Y-73018460D01*
X76162197Y-73072572D01*
X76275797Y-73211520D01*
X76354894Y-73363361D01*
X76400014Y-73523667D01*
X76411684Y-73688012D01*
X76390431Y-73851971D01*
X76336780Y-74011118D01*
X76251260Y-74161025D01*
X76134395Y-74297267D01*
X76003807Y-74403887D01*
X75949412Y-74444642D01*
X75910986Y-74479718D01*
X75897154Y-74500726D01*
X75904397Y-74523635D01*
X75924995Y-74578365D01*
X75957254Y-74660672D01*
X75999479Y-74766315D01*
X76049977Y-74891050D01*
X76107052Y-75030636D01*
X76163146Y-75166670D01*
X76225033Y-75316201D01*
X76282356Y-75454767D01*
X76333356Y-75578107D01*
X76376273Y-75681964D01*
X76409347Y-75762080D01*
X76430819Y-75814195D01*
X76438775Y-75833654D01*
X76457571Y-75853423D01*
X76493926Y-75853365D01*
X76552521Y-75832441D01*
X76638032Y-75789613D01*
X76638708Y-75789249D01*
X76703093Y-75756012D01*
X76755139Y-75731802D01*
X76784488Y-75721404D01*
X76785783Y-75721308D01*
X76807876Y-75731855D01*
X76856652Y-75761184D01*
X76926669Y-75805827D01*
X77012486Y-75862314D01*
X77107612Y-75926462D01*
X77204460Y-75991411D01*
X77291747Y-76047896D01*
X77363819Y-76092421D01*
X77415023Y-76121490D01*
X77439474Y-76131616D01*
X77461990Y-76118307D01*
X77507258Y-76081112D01*
X77570756Y-76024128D01*
X77647961Y-75951449D01*
X77734349Y-75867171D01*
X77762601Y-75839016D01*
X78054713Y-75546416D01*
X77832369Y-75220104D01*
X77764798Y-75119897D01*
X77705493Y-75029963D01*
X77657783Y-74955510D01*
X77624993Y-74901751D01*
X77610452Y-74873894D01*
X77610026Y-74871912D01*
X77617692Y-74845655D01*
X77638311Y-74792837D01*
X77668315Y-74722310D01*
X77689375Y-74675093D01*
X77728752Y-74584694D01*
X77765835Y-74493366D01*
X77794585Y-74416200D01*
X77802395Y-74392692D01*
X77824583Y-74329916D01*
X77846273Y-74281411D01*
X77858187Y-74263079D01*
X77884477Y-74251859D01*
X77941858Y-74235954D01*
X78022882Y-74217167D01*
X78120105Y-74197299D01*
X78163615Y-74189132D01*
X78274104Y-74168829D01*
X78380084Y-74149170D01*
X78471199Y-74132088D01*
X78537092Y-74119518D01*
X78549500Y-74117091D01*
X78652077Y-74096845D01*
X78652077Y-73669701D01*
X78651847Y-73529246D01*
X78650901Y-73422979D01*
X78648859Y-73346013D01*
X78645338Y-73293460D01*
X78639957Y-73260433D01*
X78632334Y-73242045D01*
X78622088Y-73233408D01*
X78617885Y-73231807D01*
X78592530Y-73226127D01*
X78536516Y-73214795D01*
X78457036Y-73199179D01*
X78361288Y-73180647D01*
X78256467Y-73160569D01*
X78149768Y-73140312D01*
X78048387Y-73121246D01*
X77959521Y-73104739D01*
X77890363Y-73092159D01*
X77848111Y-73084875D01*
X77838710Y-73083616D01*
X77830193Y-73066763D01*
X77811340Y-73021870D01*
X77785676Y-72957430D01*
X77775877Y-72932192D01*
X77736352Y-72834686D01*
X77689808Y-72726959D01*
X77648123Y-72636172D01*
X77617450Y-72566753D01*
X77597044Y-72509710D01*
X77590232Y-72474777D01*
X77591318Y-72470095D01*
X77605715Y-72447991D01*
X77638588Y-72398831D01*
X77686410Y-72327848D01*
X77745652Y-72240278D01*
X77812785Y-72141357D01*
X77826059Y-72121830D01*
X77903954Y-72006140D01*
X77961213Y-71918044D01*
X78000119Y-71853486D01*
X78022956Y-71808411D01*
X78032006Y-71778763D01*
X78029552Y-71760485D01*
X78029489Y-71760369D01*
X78010173Y-71736361D01*
X77967449Y-71689947D01*
X77905949Y-71625937D01*
X77830302Y-71549145D01*
X77745139Y-71464382D01*
X77735535Y-71454922D01*
X77628210Y-71350989D01*
X77545385Y-71274675D01*
X77485395Y-71224571D01*
X77446577Y-71199270D01*
X77429480Y-71196004D01*
X77404527Y-71210250D01*
X77352745Y-71243156D01*
X77279480Y-71291208D01*
X77190080Y-71350890D01*
X77089889Y-71418688D01*
X77066499Y-71434639D01*
X76734407Y-71661420D01*
X76584435Y-71593353D01*
X76493230Y-71553685D01*
X76395331Y-71513791D01*
X76311169Y-71481983D01*
X76307462Y-71480674D01*
X76241631Y-71456576D01*
X76190884Y-71436200D01*
X76166158Y-71423936D01*
X76166116Y-71423901D01*
X76158271Y-71401734D01*
X76144934Y-71347217D01*
X76127430Y-71266480D01*
X76107083Y-71165650D01*
X76085218Y-71050856D01*
X76083429Y-71041178D01*
X76061496Y-70922904D01*
X76041360Y-70815542D01*
X76024320Y-70725917D01*
X76011672Y-70660851D01*
X76004716Y-70627168D01*
X76004594Y-70626654D01*
X76000361Y-70612325D01*
X75992129Y-70601507D01*
X75974967Y-70593706D01*
X75943942Y-70588429D01*
X75894122Y-70585182D01*
X75820576Y-70583472D01*
X75718371Y-70582807D01*
X75582575Y-70582693D01*
X75565000Y-70582692D01*
X75425122Y-70582776D01*
M02*
