G04 #@! TF.FileFunction,Legend,Bot*
%FSLAX46Y46*%
G04 Gerber Fmt 4.6, Leading zero omitted, Abs format (unit mm)*
G04 Created by KiCad (PCBNEW 4.0.3+e1-6302~38~ubuntu15.04.1-stable) date Thu Aug 25 00:23:02 2016*
%MOMM*%
%LPD*%
G01*
G04 APERTURE LIST*
%ADD10C,0.100000*%
%ADD11C,0.150000*%
G04 APERTURE END LIST*
D10*
D11*
X149715220Y-99717860D02*
X149354540Y-101188520D01*
X149354540Y-101188520D02*
X149075140Y-100126800D01*
X149075140Y-100126800D02*
X148765260Y-101198680D01*
X148765260Y-101198680D02*
X148424900Y-99748340D01*
X151135080Y-100408740D02*
X150345140Y-100398580D01*
X150345140Y-100398580D02*
X150334980Y-100408740D01*
X150334980Y-100408740D02*
X150334980Y-100398580D01*
X150294340Y-99687380D02*
X150294340Y-101229160D01*
X151183340Y-99677220D02*
X151183340Y-101246940D01*
X151183340Y-101246940D02*
X151173180Y-101236780D01*
X151734520Y-99778820D02*
X152085040Y-99697540D01*
X152085040Y-99697540D02*
X152405080Y-99687380D01*
X152405080Y-99687380D02*
X152643840Y-99888040D01*
X152643840Y-99888040D02*
X152674320Y-100157280D01*
X152674320Y-100157280D02*
X152433020Y-100398580D01*
X152433020Y-100398580D02*
X152044400Y-100528120D01*
X152044400Y-100528120D02*
X151864060Y-100688140D01*
X151864060Y-100688140D02*
X151823420Y-100987860D01*
X151823420Y-100987860D02*
X152054560Y-101208840D01*
X152054560Y-101208840D02*
X152374600Y-101236780D01*
X152374600Y-101236780D02*
X152725120Y-101127560D01*
X153763980Y-99677220D02*
X154012900Y-99697540D01*
X154012900Y-99697540D02*
X154254200Y-99938840D01*
X154254200Y-99938840D02*
X154343100Y-100429060D01*
X154343100Y-100429060D02*
X154315160Y-100777040D01*
X154315160Y-100777040D02*
X154114500Y-101097080D01*
X154114500Y-101097080D02*
X153863040Y-101219000D01*
X153863040Y-101219000D02*
X153553160Y-101147880D01*
X153553160Y-101147880D02*
X153334720Y-100967540D01*
X153334720Y-100967540D02*
X153263600Y-100507800D01*
X153263600Y-100507800D02*
X153314400Y-100098860D01*
X153314400Y-100098860D02*
X153423620Y-99816920D01*
X153423620Y-99816920D02*
X153784300Y-99687380D01*
X153164540Y-97957640D02*
X153423620Y-98518980D01*
X153423620Y-98518980D02*
X152885140Y-99037140D01*
X152885140Y-99037140D02*
X152364440Y-98767900D01*
X152364440Y-98767900D02*
X152085040Y-98927920D01*
X150644860Y-98907600D02*
X150314660Y-98717100D01*
X150314660Y-98717100D02*
X149875240Y-99047300D01*
X149875240Y-99047300D02*
X149402800Y-98557080D01*
X149402800Y-98557080D02*
X149684740Y-98077020D01*
X149684740Y-98077020D02*
X149494240Y-97607120D01*
X149494240Y-97607120D02*
X148884640Y-97419160D01*
X148884640Y-97419160D02*
X148884640Y-96738440D01*
X148884640Y-96738440D02*
X149443440Y-96598740D01*
X149443440Y-96598740D02*
X149644100Y-96027240D01*
X149644100Y-96027240D02*
X149374860Y-95557340D01*
X149374860Y-95557340D02*
X149844760Y-95046800D01*
X149844760Y-95046800D02*
X150362920Y-95308420D01*
X150362920Y-95308420D02*
X150832820Y-95107760D01*
X150832820Y-95107760D02*
X151003000Y-94566740D01*
X151003000Y-94566740D02*
X151693880Y-94548960D01*
X151693880Y-94548960D02*
X151904700Y-95097600D01*
X151904700Y-95097600D02*
X152323800Y-95267780D01*
X152323800Y-95267780D02*
X152874980Y-94998540D01*
X152874980Y-94998540D02*
X153393140Y-95526860D01*
X153393140Y-95526860D02*
X153144220Y-96067880D01*
X153144220Y-96067880D02*
X153314400Y-96547940D01*
X153314400Y-96547940D02*
X153863040Y-96647000D01*
X153863040Y-96647000D02*
X153873200Y-97348040D01*
X153873200Y-97348040D02*
X153314400Y-97548700D01*
X153314400Y-97548700D02*
X153174700Y-97947480D01*
X151033480Y-97927160D02*
X150733760Y-97777300D01*
X150733760Y-97777300D02*
X150533100Y-97579180D01*
X150533100Y-97579180D02*
X150383240Y-97177860D01*
X150383240Y-97177860D02*
X150383240Y-96779080D01*
X150383240Y-96779080D02*
X150533100Y-96428560D01*
X150533100Y-96428560D02*
X150985220Y-96078040D01*
X150985220Y-96078040D02*
X151434800Y-96027240D01*
X151434800Y-96027240D02*
X151833580Y-96128840D01*
X151833580Y-96128840D02*
X152234900Y-96476820D01*
X152234900Y-96476820D02*
X152384760Y-96928940D01*
X152384760Y-96928940D02*
X152333960Y-97426780D01*
X152333960Y-97426780D02*
X152085040Y-97729040D01*
X152085040Y-97729040D02*
X151734520Y-97927160D01*
X151734520Y-97927160D02*
X152085040Y-98927920D01*
X151033480Y-97927160D02*
X150634700Y-98927920D01*
M02*
