G04 #@! TF.FileFunction,Copper,L2,Bot,Signal*
%FSLAX46Y46*%
G04 Gerber Fmt 4.6, Leading zero omitted, Abs format (unit mm)*
G04 Created by KiCad (PCBNEW 4.0.3+e1-6302~38~ubuntu15.04.1-stable) date Thu Aug 25 00:23:02 2016*
%MOMM*%
%LPD*%
G01*
G04 APERTURE LIST*
%ADD10C,0.100000*%
%ADD11C,3.200000*%
%ADD12R,1.600000X1.600000*%
%ADD13C,1.600000*%
%ADD14R,1.750000X1.750000*%
%ADD15C,1.750000*%
%ADD16C,0.254000*%
G04 APERTURE END LIST*
D10*
D11*
X132842000Y-87376000D03*
X169926000Y-87376000D03*
X132842000Y-108204000D03*
X169926000Y-108204000D03*
D12*
X142450000Y-99060000D03*
D13*
X142450000Y-96520000D03*
X136950000Y-96520000D03*
X136950000Y-99060000D03*
D14*
X165227000Y-100330000D03*
D15*
X165227000Y-97830000D03*
X165227000Y-95330000D03*
D16*
G36*
X167817582Y-84214561D02*
X166768246Y-85262068D01*
X166199649Y-86631402D01*
X166198355Y-88114094D01*
X166764561Y-89484418D01*
X167812068Y-90533754D01*
X169181402Y-91102351D01*
X170664094Y-91103645D01*
X172034418Y-90537439D01*
X173083754Y-89489932D01*
X173355000Y-88836699D01*
X173355000Y-106743130D01*
X173087439Y-106095582D01*
X172039932Y-105046246D01*
X170670598Y-104477649D01*
X169187906Y-104476355D01*
X167817582Y-105042561D01*
X166768246Y-106090068D01*
X166199649Y-107459402D01*
X166198355Y-108942094D01*
X166764561Y-110312418D01*
X167812068Y-111361754D01*
X168465301Y-111633000D01*
X134302870Y-111633000D01*
X134950418Y-111365439D01*
X135999754Y-110317932D01*
X136568351Y-108948598D01*
X136569645Y-107465906D01*
X136003439Y-106095582D01*
X134955932Y-105046246D01*
X133586598Y-104477649D01*
X132103906Y-104476355D01*
X130733582Y-105042561D01*
X129684246Y-106090068D01*
X129413000Y-106743301D01*
X129413000Y-99344187D01*
X135514752Y-99344187D01*
X135732757Y-99871800D01*
X136136077Y-100275824D01*
X136663309Y-100494750D01*
X137234187Y-100495248D01*
X137761800Y-100277243D01*
X137861817Y-100177400D01*
X138101043Y-100756372D01*
X138630839Y-101287093D01*
X139323405Y-101574672D01*
X140073305Y-101575326D01*
X140766372Y-101288957D01*
X141297093Y-100759161D01*
X141356642Y-100615750D01*
X163717000Y-100615750D01*
X163717000Y-101331309D01*
X163813673Y-101564698D01*
X163992301Y-101743327D01*
X164225690Y-101840000D01*
X164941250Y-101840000D01*
X165100000Y-101681250D01*
X165100000Y-100457000D01*
X165354000Y-100457000D01*
X165354000Y-101681250D01*
X165512750Y-101840000D01*
X166228310Y-101840000D01*
X166461699Y-101743327D01*
X166640327Y-101564698D01*
X166737000Y-101331309D01*
X166737000Y-100615750D01*
X166578250Y-100457000D01*
X165354000Y-100457000D01*
X165100000Y-100457000D01*
X163875750Y-100457000D01*
X163717000Y-100615750D01*
X141356642Y-100615750D01*
X141420883Y-100461043D01*
X141650000Y-100507440D01*
X143250000Y-100507440D01*
X143485317Y-100463162D01*
X143701441Y-100324090D01*
X143846431Y-100111890D01*
X143897440Y-99860000D01*
X143897440Y-98260000D01*
X143853162Y-98024683D01*
X143714090Y-97808559D01*
X143501890Y-97663569D01*
X143363646Y-97635574D01*
X143665824Y-97333923D01*
X143884750Y-96806691D01*
X143885126Y-96375927D01*
X144123244Y-96474803D01*
X144574775Y-96475197D01*
X144992086Y-96302767D01*
X145311645Y-95983765D01*
X145458940Y-95629040D01*
X163716738Y-95629040D01*
X163946138Y-96184229D01*
X164341536Y-96580318D01*
X163947630Y-96973537D01*
X163717262Y-97528325D01*
X163716738Y-98129040D01*
X163946138Y-98684229D01*
X164123802Y-98862203D01*
X163992301Y-98916673D01*
X163813673Y-99095302D01*
X163717000Y-99328691D01*
X163717000Y-100044250D01*
X163875750Y-100203000D01*
X165100000Y-100203000D01*
X165100000Y-100183000D01*
X165354000Y-100183000D01*
X165354000Y-100203000D01*
X166578250Y-100203000D01*
X166737000Y-100044250D01*
X166737000Y-99328691D01*
X166640327Y-99095302D01*
X166461699Y-98916673D01*
X166330286Y-98862240D01*
X166506370Y-98686463D01*
X166736738Y-98131675D01*
X166737262Y-97530960D01*
X166507862Y-96975771D01*
X166112464Y-96579682D01*
X166506370Y-96186463D01*
X166736738Y-95631675D01*
X166737262Y-95030960D01*
X166507862Y-94475771D01*
X166083463Y-94050630D01*
X165528675Y-93820262D01*
X164927960Y-93819738D01*
X164372771Y-94049138D01*
X163947630Y-94473537D01*
X163717262Y-95028325D01*
X163716738Y-95629040D01*
X145458940Y-95629040D01*
X145484803Y-95566756D01*
X145485197Y-95115225D01*
X145312767Y-94697914D01*
X144993765Y-94378355D01*
X144576756Y-94205197D01*
X144125225Y-94204803D01*
X143707914Y-94377233D01*
X143388355Y-94696235D01*
X143215197Y-95113244D01*
X143215048Y-95283881D01*
X142736691Y-95085250D01*
X142165813Y-95084752D01*
X141638200Y-95302757D01*
X141538183Y-95402600D01*
X141298957Y-94823628D01*
X140769161Y-94292907D01*
X140076595Y-94005328D01*
X139326695Y-94004674D01*
X138633628Y-94291043D01*
X138102907Y-94820839D01*
X137842554Y-95447838D01*
X137778139Y-95512253D01*
X137704005Y-95266136D01*
X137166777Y-95073035D01*
X136596546Y-95100222D01*
X136195995Y-95266136D01*
X136121861Y-95512255D01*
X136950000Y-96340395D01*
X136964142Y-96326252D01*
X137143748Y-96505858D01*
X137129605Y-96520000D01*
X137957745Y-97348139D01*
X138203864Y-97274005D01*
X138260587Y-97116195D01*
X138630839Y-97487093D01*
X139323405Y-97774672D01*
X140073305Y-97775326D01*
X140766372Y-97488957D01*
X141142536Y-97113449D01*
X141232757Y-97331800D01*
X141534688Y-97634258D01*
X141414683Y-97656838D01*
X141198559Y-97795910D01*
X141053569Y-98008110D01*
X141002560Y-98260000D01*
X141002560Y-98326714D01*
X140769161Y-98092907D01*
X140076595Y-97805328D01*
X139326695Y-97804674D01*
X138633628Y-98091043D01*
X138257464Y-98466551D01*
X138167243Y-98248200D01*
X137763923Y-97844176D01*
X137649232Y-97796552D01*
X137704005Y-97773864D01*
X137778139Y-97527745D01*
X136950000Y-96699605D01*
X136121861Y-97527745D01*
X136195995Y-97773864D01*
X136254254Y-97794805D01*
X136138200Y-97842757D01*
X135734176Y-98246077D01*
X135515250Y-98773309D01*
X135514752Y-99344187D01*
X129413000Y-99344187D01*
X129413000Y-96303223D01*
X135503035Y-96303223D01*
X135530222Y-96873454D01*
X135696136Y-97274005D01*
X135942255Y-97348139D01*
X136770395Y-96520000D01*
X135942255Y-95691861D01*
X135696136Y-95765995D01*
X135503035Y-96303223D01*
X129413000Y-96303223D01*
X129413000Y-88836870D01*
X129680561Y-89484418D01*
X130728068Y-90533754D01*
X132097402Y-91102351D01*
X133580094Y-91103645D01*
X134950418Y-90537439D01*
X135999754Y-89489932D01*
X136568351Y-88120598D01*
X136569645Y-86637906D01*
X136003439Y-85267582D01*
X134955932Y-84218246D01*
X134302699Y-83947000D01*
X168465130Y-83947000D01*
X167817582Y-84214561D01*
X167817582Y-84214561D01*
G37*
X167817582Y-84214561D02*
X166768246Y-85262068D01*
X166199649Y-86631402D01*
X166198355Y-88114094D01*
X166764561Y-89484418D01*
X167812068Y-90533754D01*
X169181402Y-91102351D01*
X170664094Y-91103645D01*
X172034418Y-90537439D01*
X173083754Y-89489932D01*
X173355000Y-88836699D01*
X173355000Y-106743130D01*
X173087439Y-106095582D01*
X172039932Y-105046246D01*
X170670598Y-104477649D01*
X169187906Y-104476355D01*
X167817582Y-105042561D01*
X166768246Y-106090068D01*
X166199649Y-107459402D01*
X166198355Y-108942094D01*
X166764561Y-110312418D01*
X167812068Y-111361754D01*
X168465301Y-111633000D01*
X134302870Y-111633000D01*
X134950418Y-111365439D01*
X135999754Y-110317932D01*
X136568351Y-108948598D01*
X136569645Y-107465906D01*
X136003439Y-106095582D01*
X134955932Y-105046246D01*
X133586598Y-104477649D01*
X132103906Y-104476355D01*
X130733582Y-105042561D01*
X129684246Y-106090068D01*
X129413000Y-106743301D01*
X129413000Y-99344187D01*
X135514752Y-99344187D01*
X135732757Y-99871800D01*
X136136077Y-100275824D01*
X136663309Y-100494750D01*
X137234187Y-100495248D01*
X137761800Y-100277243D01*
X137861817Y-100177400D01*
X138101043Y-100756372D01*
X138630839Y-101287093D01*
X139323405Y-101574672D01*
X140073305Y-101575326D01*
X140766372Y-101288957D01*
X141297093Y-100759161D01*
X141356642Y-100615750D01*
X163717000Y-100615750D01*
X163717000Y-101331309D01*
X163813673Y-101564698D01*
X163992301Y-101743327D01*
X164225690Y-101840000D01*
X164941250Y-101840000D01*
X165100000Y-101681250D01*
X165100000Y-100457000D01*
X165354000Y-100457000D01*
X165354000Y-101681250D01*
X165512750Y-101840000D01*
X166228310Y-101840000D01*
X166461699Y-101743327D01*
X166640327Y-101564698D01*
X166737000Y-101331309D01*
X166737000Y-100615750D01*
X166578250Y-100457000D01*
X165354000Y-100457000D01*
X165100000Y-100457000D01*
X163875750Y-100457000D01*
X163717000Y-100615750D01*
X141356642Y-100615750D01*
X141420883Y-100461043D01*
X141650000Y-100507440D01*
X143250000Y-100507440D01*
X143485317Y-100463162D01*
X143701441Y-100324090D01*
X143846431Y-100111890D01*
X143897440Y-99860000D01*
X143897440Y-98260000D01*
X143853162Y-98024683D01*
X143714090Y-97808559D01*
X143501890Y-97663569D01*
X143363646Y-97635574D01*
X143665824Y-97333923D01*
X143884750Y-96806691D01*
X143885126Y-96375927D01*
X144123244Y-96474803D01*
X144574775Y-96475197D01*
X144992086Y-96302767D01*
X145311645Y-95983765D01*
X145458940Y-95629040D01*
X163716738Y-95629040D01*
X163946138Y-96184229D01*
X164341536Y-96580318D01*
X163947630Y-96973537D01*
X163717262Y-97528325D01*
X163716738Y-98129040D01*
X163946138Y-98684229D01*
X164123802Y-98862203D01*
X163992301Y-98916673D01*
X163813673Y-99095302D01*
X163717000Y-99328691D01*
X163717000Y-100044250D01*
X163875750Y-100203000D01*
X165100000Y-100203000D01*
X165100000Y-100183000D01*
X165354000Y-100183000D01*
X165354000Y-100203000D01*
X166578250Y-100203000D01*
X166737000Y-100044250D01*
X166737000Y-99328691D01*
X166640327Y-99095302D01*
X166461699Y-98916673D01*
X166330286Y-98862240D01*
X166506370Y-98686463D01*
X166736738Y-98131675D01*
X166737262Y-97530960D01*
X166507862Y-96975771D01*
X166112464Y-96579682D01*
X166506370Y-96186463D01*
X166736738Y-95631675D01*
X166737262Y-95030960D01*
X166507862Y-94475771D01*
X166083463Y-94050630D01*
X165528675Y-93820262D01*
X164927960Y-93819738D01*
X164372771Y-94049138D01*
X163947630Y-94473537D01*
X163717262Y-95028325D01*
X163716738Y-95629040D01*
X145458940Y-95629040D01*
X145484803Y-95566756D01*
X145485197Y-95115225D01*
X145312767Y-94697914D01*
X144993765Y-94378355D01*
X144576756Y-94205197D01*
X144125225Y-94204803D01*
X143707914Y-94377233D01*
X143388355Y-94696235D01*
X143215197Y-95113244D01*
X143215048Y-95283881D01*
X142736691Y-95085250D01*
X142165813Y-95084752D01*
X141638200Y-95302757D01*
X141538183Y-95402600D01*
X141298957Y-94823628D01*
X140769161Y-94292907D01*
X140076595Y-94005328D01*
X139326695Y-94004674D01*
X138633628Y-94291043D01*
X138102907Y-94820839D01*
X137842554Y-95447838D01*
X137778139Y-95512253D01*
X137704005Y-95266136D01*
X137166777Y-95073035D01*
X136596546Y-95100222D01*
X136195995Y-95266136D01*
X136121861Y-95512255D01*
X136950000Y-96340395D01*
X136964142Y-96326252D01*
X137143748Y-96505858D01*
X137129605Y-96520000D01*
X137957745Y-97348139D01*
X138203864Y-97274005D01*
X138260587Y-97116195D01*
X138630839Y-97487093D01*
X139323405Y-97774672D01*
X140073305Y-97775326D01*
X140766372Y-97488957D01*
X141142536Y-97113449D01*
X141232757Y-97331800D01*
X141534688Y-97634258D01*
X141414683Y-97656838D01*
X141198559Y-97795910D01*
X141053569Y-98008110D01*
X141002560Y-98260000D01*
X141002560Y-98326714D01*
X140769161Y-98092907D01*
X140076595Y-97805328D01*
X139326695Y-97804674D01*
X138633628Y-98091043D01*
X138257464Y-98466551D01*
X138167243Y-98248200D01*
X137763923Y-97844176D01*
X137649232Y-97796552D01*
X137704005Y-97773864D01*
X137778139Y-97527745D01*
X136950000Y-96699605D01*
X136121861Y-97527745D01*
X136195995Y-97773864D01*
X136254254Y-97794805D01*
X136138200Y-97842757D01*
X135734176Y-98246077D01*
X135515250Y-98773309D01*
X135514752Y-99344187D01*
X129413000Y-99344187D01*
X129413000Y-96303223D01*
X135503035Y-96303223D01*
X135530222Y-96873454D01*
X135696136Y-97274005D01*
X135942255Y-97348139D01*
X136770395Y-96520000D01*
X135942255Y-95691861D01*
X135696136Y-95765995D01*
X135503035Y-96303223D01*
X129413000Y-96303223D01*
X129413000Y-88836870D01*
X129680561Y-89484418D01*
X130728068Y-90533754D01*
X132097402Y-91102351D01*
X133580094Y-91103645D01*
X134950418Y-90537439D01*
X135999754Y-89489932D01*
X136568351Y-88120598D01*
X136569645Y-86637906D01*
X136003439Y-85267582D01*
X134955932Y-84218246D01*
X134302699Y-83947000D01*
X168465130Y-83947000D01*
X167817582Y-84214561D01*
M02*
