G04 #@! TF.FileFunction,Legend,Top*
%FSLAX46Y46*%
G04 Gerber Fmt 4.6, Leading zero omitted, Abs format (unit mm)*
G04 Created by KiCad (PCBNEW 4.0.3+e1-6302~38~ubuntu15.04.1-stable) date Thu Aug 25 00:23:02 2016*
%MOMM*%
%LPD*%
G01*
G04 APERTURE LIST*
%ADD10C,0.100000*%
%ADD11C,0.150000*%
%ADD12C,0.200000*%
G04 APERTURE END LIST*
D10*
D11*
X141598286Y-87221143D02*
X141741143Y-87292571D01*
X142026858Y-87292571D01*
X142169715Y-87221143D01*
X142241143Y-87078286D01*
X142241143Y-87006857D01*
X142169715Y-86864000D01*
X142026858Y-86792571D01*
X141812572Y-86792571D01*
X141669715Y-86721143D01*
X141598286Y-86578286D01*
X141598286Y-86506857D01*
X141669715Y-86364000D01*
X141812572Y-86292571D01*
X142026858Y-86292571D01*
X142169715Y-86364000D01*
X143455429Y-87221143D02*
X143312572Y-87292571D01*
X143026858Y-87292571D01*
X142884001Y-87221143D01*
X142812572Y-87078286D01*
X142812572Y-86506857D01*
X142884001Y-86364000D01*
X143026858Y-86292571D01*
X143312572Y-86292571D01*
X143455429Y-86364000D01*
X143526858Y-86506857D01*
X143526858Y-86649714D01*
X142812572Y-86792571D01*
X144169715Y-86292571D02*
X144169715Y-87292571D01*
X144169715Y-86435429D02*
X144241143Y-86364000D01*
X144384001Y-86292571D01*
X144598286Y-86292571D01*
X144741143Y-86364000D01*
X144812572Y-86506857D01*
X144812572Y-87292571D01*
X145455429Y-87221143D02*
X145598286Y-87292571D01*
X145884001Y-87292571D01*
X146026858Y-87221143D01*
X146098286Y-87078286D01*
X146098286Y-87006857D01*
X146026858Y-86864000D01*
X145884001Y-86792571D01*
X145669715Y-86792571D01*
X145526858Y-86721143D01*
X145455429Y-86578286D01*
X145455429Y-86506857D01*
X145526858Y-86364000D01*
X145669715Y-86292571D01*
X145884001Y-86292571D01*
X146026858Y-86364000D01*
X146955430Y-87292571D02*
X146812572Y-87221143D01*
X146741144Y-87149714D01*
X146669715Y-87006857D01*
X146669715Y-86578286D01*
X146741144Y-86435429D01*
X146812572Y-86364000D01*
X146955430Y-86292571D01*
X147169715Y-86292571D01*
X147312572Y-86364000D01*
X147384001Y-86435429D01*
X147455430Y-86578286D01*
X147455430Y-87006857D01*
X147384001Y-87149714D01*
X147312572Y-87221143D01*
X147169715Y-87292571D01*
X146955430Y-87292571D01*
X148098287Y-87292571D02*
X148098287Y-86292571D01*
X148098287Y-86578286D02*
X148169715Y-86435429D01*
X148241144Y-86364000D01*
X148384001Y-86292571D01*
X148526858Y-86292571D01*
X150384001Y-87292571D02*
X150241143Y-87221143D01*
X150169715Y-87078286D01*
X150169715Y-85792571D01*
X151598286Y-87292571D02*
X151598286Y-86506857D01*
X151526857Y-86364000D01*
X151384000Y-86292571D01*
X151098286Y-86292571D01*
X150955429Y-86364000D01*
X151598286Y-87221143D02*
X151455429Y-87292571D01*
X151098286Y-87292571D01*
X150955429Y-87221143D01*
X150884000Y-87078286D01*
X150884000Y-86935429D01*
X150955429Y-86792571D01*
X151098286Y-86721143D01*
X151455429Y-86721143D01*
X151598286Y-86649714D01*
X152955429Y-87221143D02*
X152812572Y-87292571D01*
X152526858Y-87292571D01*
X152384000Y-87221143D01*
X152312572Y-87149714D01*
X152241143Y-87006857D01*
X152241143Y-86578286D01*
X152312572Y-86435429D01*
X152384000Y-86364000D01*
X152526858Y-86292571D01*
X152812572Y-86292571D01*
X152955429Y-86364000D01*
X153598286Y-87292571D02*
X153598286Y-86292571D01*
X153598286Y-85792571D02*
X153526857Y-85864000D01*
X153598286Y-85935429D01*
X153669714Y-85864000D01*
X153598286Y-85792571D01*
X153598286Y-85935429D01*
X156098286Y-87292571D02*
X156098286Y-85792571D01*
X156098286Y-87221143D02*
X155955429Y-87292571D01*
X155669715Y-87292571D01*
X155526857Y-87221143D01*
X155455429Y-87149714D01*
X155384000Y-87006857D01*
X155384000Y-86578286D01*
X155455429Y-86435429D01*
X155526857Y-86364000D01*
X155669715Y-86292571D01*
X155955429Y-86292571D01*
X156098286Y-86364000D01*
X157455429Y-87292571D02*
X157455429Y-86506857D01*
X157384000Y-86364000D01*
X157241143Y-86292571D01*
X156955429Y-86292571D01*
X156812572Y-86364000D01*
X157455429Y-87221143D02*
X157312572Y-87292571D01*
X156955429Y-87292571D01*
X156812572Y-87221143D01*
X156741143Y-87078286D01*
X156741143Y-86935429D01*
X156812572Y-86792571D01*
X156955429Y-86721143D01*
X157312572Y-86721143D01*
X157455429Y-86649714D01*
X158169715Y-86292571D02*
X158169715Y-87792571D01*
X158169715Y-86364000D02*
X158312572Y-86292571D01*
X158598286Y-86292571D01*
X158741143Y-86364000D01*
X158812572Y-86435429D01*
X158884001Y-86578286D01*
X158884001Y-87006857D01*
X158812572Y-87149714D01*
X158741143Y-87221143D01*
X158598286Y-87292571D01*
X158312572Y-87292571D01*
X158169715Y-87221143D01*
X160169715Y-86292571D02*
X160169715Y-87292571D01*
X159526858Y-86292571D02*
X159526858Y-87078286D01*
X159598286Y-87221143D01*
X159741144Y-87292571D01*
X159955429Y-87292571D01*
X160098286Y-87221143D01*
X160169715Y-87149714D01*
X160884001Y-87292571D02*
X160884001Y-86292571D01*
X160884001Y-86578286D02*
X160955429Y-86435429D01*
X161026858Y-86364000D01*
X161169715Y-86292571D01*
X161312572Y-86292571D01*
D10*
X161782095Y-110180381D02*
X161782095Y-109513714D01*
X161782095Y-109704190D02*
X161829714Y-109608952D01*
X161877333Y-109561333D01*
X161972571Y-109513714D01*
X162067810Y-109513714D01*
X162782096Y-110132762D02*
X162686858Y-110180381D01*
X162496381Y-110180381D01*
X162401143Y-110132762D01*
X162353524Y-110037524D01*
X162353524Y-109656571D01*
X162401143Y-109561333D01*
X162496381Y-109513714D01*
X162686858Y-109513714D01*
X162782096Y-109561333D01*
X162829715Y-109656571D01*
X162829715Y-109751810D01*
X162353524Y-109847048D01*
X163163048Y-109513714D02*
X163401143Y-110180381D01*
X163639239Y-109513714D01*
X164210667Y-109180381D02*
X164305906Y-109180381D01*
X164401144Y-109228000D01*
X164448763Y-109275619D01*
X164496382Y-109370857D01*
X164544001Y-109561333D01*
X164544001Y-109799429D01*
X164496382Y-109989905D01*
X164448763Y-110085143D01*
X164401144Y-110132762D01*
X164305906Y-110180381D01*
X164210667Y-110180381D01*
X164115429Y-110132762D01*
X164067810Y-110085143D01*
X164020191Y-109989905D01*
X163972572Y-109799429D01*
X163972572Y-109561333D01*
X164020191Y-109370857D01*
X164067810Y-109275619D01*
X164115429Y-109228000D01*
X164210667Y-109180381D01*
X164924953Y-109275619D02*
X164972572Y-109228000D01*
X165067810Y-109180381D01*
X165305906Y-109180381D01*
X165401144Y-109228000D01*
X165448763Y-109275619D01*
X165496382Y-109370857D01*
X165496382Y-109466095D01*
X165448763Y-109608952D01*
X164877334Y-110180381D01*
X165496382Y-110180381D01*
X137509238Y-109513714D02*
X137890190Y-109513714D01*
X137652095Y-110180381D02*
X137652095Y-109323238D01*
X137699714Y-109228000D01*
X137794952Y-109180381D01*
X137890190Y-109180381D01*
X138652096Y-110180381D02*
X138652096Y-109656571D01*
X138604477Y-109561333D01*
X138509239Y-109513714D01*
X138318762Y-109513714D01*
X138223524Y-109561333D01*
X138652096Y-110132762D02*
X138556858Y-110180381D01*
X138318762Y-110180381D01*
X138223524Y-110132762D01*
X138175905Y-110037524D01*
X138175905Y-109942286D01*
X138223524Y-109847048D01*
X138318762Y-109799429D01*
X138556858Y-109799429D01*
X138652096Y-109751810D01*
X139128286Y-109513714D02*
X139128286Y-110370857D01*
X139080667Y-110466095D01*
X138985429Y-110513714D01*
X138937810Y-110513714D01*
X139128286Y-109180381D02*
X139080667Y-109228000D01*
X139128286Y-109275619D01*
X139175905Y-109228000D01*
X139128286Y-109180381D01*
X139128286Y-109275619D01*
X139604476Y-110180381D02*
X139604476Y-109513714D01*
X139604476Y-109704190D02*
X139652095Y-109608952D01*
X139699714Y-109561333D01*
X139794952Y-109513714D01*
X139890191Y-109513714D01*
X140652096Y-110180381D02*
X140652096Y-109656571D01*
X140604477Y-109561333D01*
X140509239Y-109513714D01*
X140318762Y-109513714D01*
X140223524Y-109561333D01*
X140652096Y-110132762D02*
X140556858Y-110180381D01*
X140318762Y-110180381D01*
X140223524Y-110132762D01*
X140175905Y-110037524D01*
X140175905Y-109942286D01*
X140223524Y-109847048D01*
X140318762Y-109799429D01*
X140556858Y-109799429D01*
X140652096Y-109751810D01*
X141128286Y-109513714D02*
X141128286Y-110180381D01*
X141128286Y-109608952D02*
X141175905Y-109561333D01*
X141271143Y-109513714D01*
X141414001Y-109513714D01*
X141509239Y-109561333D01*
X141556858Y-109656571D01*
X141556858Y-110180381D01*
X142747334Y-109275619D02*
X142794953Y-109228000D01*
X142890191Y-109180381D01*
X143128287Y-109180381D01*
X143223525Y-109228000D01*
X143271144Y-109275619D01*
X143318763Y-109370857D01*
X143318763Y-109466095D01*
X143271144Y-109608952D01*
X142699715Y-110180381D01*
X143318763Y-110180381D01*
X143937810Y-109180381D02*
X144033049Y-109180381D01*
X144128287Y-109228000D01*
X144175906Y-109275619D01*
X144223525Y-109370857D01*
X144271144Y-109561333D01*
X144271144Y-109799429D01*
X144223525Y-109989905D01*
X144175906Y-110085143D01*
X144128287Y-110132762D01*
X144033049Y-110180381D01*
X143937810Y-110180381D01*
X143842572Y-110132762D01*
X143794953Y-110085143D01*
X143747334Y-109989905D01*
X143699715Y-109799429D01*
X143699715Y-109561333D01*
X143747334Y-109370857D01*
X143794953Y-109275619D01*
X143842572Y-109228000D01*
X143937810Y-109180381D01*
X145223525Y-110180381D02*
X144652096Y-110180381D01*
X144937810Y-110180381D02*
X144937810Y-109180381D01*
X144842572Y-109323238D01*
X144747334Y-109418476D01*
X144652096Y-109466095D01*
X146080668Y-109180381D02*
X145890191Y-109180381D01*
X145794953Y-109228000D01*
X145747334Y-109275619D01*
X145652096Y-109418476D01*
X145604477Y-109608952D01*
X145604477Y-109989905D01*
X145652096Y-110085143D01*
X145699715Y-110132762D01*
X145794953Y-110180381D01*
X145985430Y-110180381D01*
X146080668Y-110132762D01*
X146128287Y-110085143D01*
X146175906Y-109989905D01*
X146175906Y-109751810D01*
X146128287Y-109656571D01*
X146080668Y-109608952D01*
X145985430Y-109561333D01*
X145794953Y-109561333D01*
X145699715Y-109608952D01*
X145652096Y-109656571D01*
X145604477Y-109751810D01*
X161246000Y-100961809D02*
X161205524Y-101042761D01*
X161205524Y-101164190D01*
X161246000Y-101285618D01*
X161326952Y-101366571D01*
X161407905Y-101407047D01*
X161569810Y-101447523D01*
X161691238Y-101447523D01*
X161853143Y-101407047D01*
X161934095Y-101366571D01*
X162015048Y-101285618D01*
X162055524Y-101164190D01*
X162055524Y-101083238D01*
X162015048Y-100961809D01*
X161974571Y-100921333D01*
X161691238Y-100921333D01*
X161691238Y-101083238D01*
X162055524Y-100557047D02*
X161205524Y-100557047D01*
X162055524Y-100071333D01*
X161205524Y-100071333D01*
X162055524Y-99666571D02*
X161205524Y-99666571D01*
X161205524Y-99464190D01*
X161246000Y-99342762D01*
X161326952Y-99261809D01*
X161407905Y-99221333D01*
X161569810Y-99180857D01*
X161691238Y-99180857D01*
X161853143Y-99221333D01*
X161934095Y-99261809D01*
X162015048Y-99342762D01*
X162055524Y-99464190D01*
X162055524Y-99666571D01*
X161731714Y-98168952D02*
X161731714Y-97521333D01*
X162055524Y-97845143D02*
X161407905Y-97845143D01*
X161205524Y-96711809D02*
X161205524Y-97116571D01*
X161610286Y-97157047D01*
X161569810Y-97116571D01*
X161529333Y-97035619D01*
X161529333Y-96833238D01*
X161569810Y-96752285D01*
X161610286Y-96711809D01*
X161691238Y-96671333D01*
X161893619Y-96671333D01*
X161974571Y-96711809D01*
X162015048Y-96752285D01*
X162055524Y-96833238D01*
X162055524Y-97035619D01*
X162015048Y-97116571D01*
X161974571Y-97157047D01*
X161205524Y-95497523D02*
X161205524Y-95335619D01*
X161246000Y-95254666D01*
X161326952Y-95173714D01*
X161488857Y-95133238D01*
X161772190Y-95133238D01*
X161934095Y-95173714D01*
X162015048Y-95254666D01*
X162055524Y-95335619D01*
X162055524Y-95497523D01*
X162015048Y-95578476D01*
X161934095Y-95659428D01*
X161772190Y-95699904D01*
X161488857Y-95699904D01*
X161326952Y-95659428D01*
X161246000Y-95578476D01*
X161205524Y-95497523D01*
X161488857Y-94404666D02*
X162055524Y-94404666D01*
X161488857Y-94768952D02*
X161934095Y-94768952D01*
X162015048Y-94728476D01*
X162055524Y-94647523D01*
X162055524Y-94526095D01*
X162015048Y-94445143D01*
X161974571Y-94404666D01*
X161488857Y-94121333D02*
X161488857Y-93797523D01*
X161205524Y-93999904D02*
X161934095Y-93999904D01*
X162015048Y-93959428D01*
X162055524Y-93878475D01*
X162055524Y-93797523D01*
D11*
X135128000Y-87376000D02*
G75*
G03X135128000Y-87376000I-2286000J0D01*
G01*
X172212000Y-87376000D02*
G75*
G03X172212000Y-87376000I-2286000J0D01*
G01*
X135128000Y-108204000D02*
G75*
G03X135128000Y-108204000I-2286000J0D01*
G01*
X172212000Y-108204000D02*
G75*
G03X172212000Y-108204000I-2286000J0D01*
G01*
X152384000Y-93785000D02*
X150384000Y-93785000D01*
X150384000Y-91635000D02*
X152384000Y-91635000D01*
X150384000Y-96715000D02*
X152384000Y-96715000D01*
X152384000Y-98865000D02*
X150384000Y-98865000D01*
X150384000Y-101795000D02*
X152384000Y-101795000D01*
X152384000Y-103945000D02*
X150384000Y-103945000D01*
D12*
X144800000Y-100690000D02*
X141000000Y-100690000D01*
X138300000Y-100690000D02*
X136300000Y-100690000D01*
X136300000Y-94890000D02*
X138300000Y-94890000D01*
X141000000Y-94890000D02*
X143400000Y-94890000D01*
X144800000Y-96090000D02*
X144800000Y-100690000D01*
X136300000Y-100690000D02*
X134600000Y-98990000D01*
X134600000Y-98990000D02*
X134600000Y-96590000D01*
X134600000Y-96590000D02*
X136300000Y-94890000D01*
D11*
X174577000Y-97830000D02*
X174577000Y-102930000D01*
X174577000Y-102930000D02*
X162777000Y-102930000D01*
X162777000Y-102930000D02*
X162777000Y-101730000D01*
X162777000Y-101730000D02*
X167277000Y-101730000D01*
X167277000Y-101730000D02*
X167277000Y-97830000D01*
X174577000Y-97830000D02*
X174577000Y-92730000D01*
X174577000Y-92730000D02*
X162777000Y-92730000D01*
X162777000Y-92730000D02*
X162777000Y-93930000D01*
X162777000Y-93930000D02*
X167277000Y-93930000D01*
X167277000Y-93930000D02*
X167277000Y-97830000D01*
X167927000Y-100580000D02*
X173927000Y-100580000D01*
X173927000Y-100580000D02*
X173927000Y-100080000D01*
X173927000Y-100080000D02*
X167927000Y-100080000D01*
X167927000Y-100080000D02*
X167927000Y-100580000D01*
X167927000Y-98080000D02*
X173927000Y-98080000D01*
X173927000Y-98080000D02*
X173927000Y-97580000D01*
X173927000Y-97580000D02*
X167927000Y-97580000D01*
X167927000Y-97580000D02*
X167927000Y-98080000D01*
X167927000Y-95580000D02*
X173927000Y-95580000D01*
X173927000Y-95580000D02*
X173927000Y-95080000D01*
X173927000Y-95080000D02*
X167927000Y-95080000D01*
X167927000Y-95080000D02*
X167927000Y-95580000D01*
X163727000Y-100330000D02*
X163127000Y-100630000D01*
X163127000Y-100630000D02*
X163127000Y-100030000D01*
X163127000Y-100030000D02*
X163727000Y-100330000D01*
D10*
X150797095Y-94872524D02*
X150311381Y-94872524D01*
X150554238Y-94872524D02*
X150554238Y-94022524D01*
X150473286Y-94143952D01*
X150392333Y-94224905D01*
X150311381Y-94265381D01*
X151323286Y-94022524D02*
X151404238Y-94022524D01*
X151485190Y-94063000D01*
X151525667Y-94103476D01*
X151566143Y-94184429D01*
X151606619Y-94346333D01*
X151606619Y-94548714D01*
X151566143Y-94710619D01*
X151525667Y-94791571D01*
X151485190Y-94832048D01*
X151404238Y-94872524D01*
X151323286Y-94872524D01*
X151242333Y-94832048D01*
X151201857Y-94791571D01*
X151161381Y-94710619D01*
X151120905Y-94548714D01*
X151120905Y-94346333D01*
X151161381Y-94184429D01*
X151201857Y-94103476D01*
X151242333Y-94063000D01*
X151323286Y-94022524D01*
X151970905Y-94872524D02*
X151970905Y-94022524D01*
X152456619Y-94872524D02*
X152092334Y-94386810D01*
X152456619Y-94022524D02*
X151970905Y-94508238D01*
X151201857Y-100079524D02*
X150716143Y-100079524D01*
X150959000Y-100079524D02*
X150959000Y-99229524D01*
X150878048Y-99350952D01*
X150797095Y-99431905D01*
X150716143Y-99472381D01*
X151566143Y-100079524D02*
X151566143Y-99229524D01*
X152051857Y-100079524D02*
X151687572Y-99593810D01*
X152051857Y-99229524D02*
X151566143Y-99715238D01*
X150817333Y-105032524D02*
X150331619Y-105032524D01*
X150574476Y-105032524D02*
X150574476Y-104182524D01*
X150493524Y-104303952D01*
X150412571Y-104384905D01*
X150331619Y-104425381D01*
X151343524Y-104182524D02*
X151424476Y-104182524D01*
X151505428Y-104223000D01*
X151545905Y-104263476D01*
X151586381Y-104344429D01*
X151626857Y-104506333D01*
X151626857Y-104708714D01*
X151586381Y-104870619D01*
X151545905Y-104951571D01*
X151505428Y-104992048D01*
X151424476Y-105032524D01*
X151343524Y-105032524D01*
X151262571Y-104992048D01*
X151222095Y-104951571D01*
X151181619Y-104870619D01*
X151141143Y-104708714D01*
X151141143Y-104506333D01*
X151181619Y-104344429D01*
X151222095Y-104263476D01*
X151262571Y-104223000D01*
X151343524Y-104182524D01*
X152153048Y-104182524D02*
X152234000Y-104182524D01*
X152314952Y-104223000D01*
X152355429Y-104263476D01*
X152395905Y-104344429D01*
X152436381Y-104506333D01*
X152436381Y-104708714D01*
X152395905Y-104870619D01*
X152355429Y-104951571D01*
X152314952Y-104992048D01*
X152234000Y-105032524D01*
X152153048Y-105032524D01*
X152072095Y-104992048D01*
X152031619Y-104951571D01*
X151991143Y-104870619D01*
X151950667Y-104708714D01*
X151950667Y-104506333D01*
X151991143Y-104344429D01*
X152031619Y-104263476D01*
X152072095Y-104223000D01*
X152153048Y-104182524D01*
X136320238Y-93387524D02*
X136805953Y-93387524D01*
X136563096Y-94237524D02*
X136563096Y-93387524D01*
X137575000Y-94156571D02*
X137534524Y-94197048D01*
X137413095Y-94237524D01*
X137332143Y-94237524D01*
X137210715Y-94197048D01*
X137129762Y-94116095D01*
X137089286Y-94035143D01*
X137048810Y-93873238D01*
X137048810Y-93751810D01*
X137089286Y-93589905D01*
X137129762Y-93508952D01*
X137210715Y-93428000D01*
X137332143Y-93387524D01*
X137413095Y-93387524D01*
X137534524Y-93428000D01*
X137575000Y-93468476D01*
X138425000Y-94237524D02*
X138141667Y-93832762D01*
X137939286Y-94237524D02*
X137939286Y-93387524D01*
X138263095Y-93387524D01*
X138344048Y-93428000D01*
X138384524Y-93468476D01*
X138425000Y-93549429D01*
X138425000Y-93670857D01*
X138384524Y-93751810D01*
X138344048Y-93792286D01*
X138263095Y-93832762D01*
X137939286Y-93832762D01*
X138667857Y-93387524D02*
X139153572Y-93387524D01*
X138910715Y-94237524D02*
X138910715Y-93387524D01*
X139841667Y-93387524D02*
X139436905Y-93387524D01*
X139396429Y-93792286D01*
X139436905Y-93751810D01*
X139517857Y-93711333D01*
X139720238Y-93711333D01*
X139801191Y-93751810D01*
X139841667Y-93792286D01*
X139882143Y-93873238D01*
X139882143Y-94075619D01*
X139841667Y-94156571D01*
X139801191Y-94197048D01*
X139720238Y-94237524D01*
X139517857Y-94237524D01*
X139436905Y-94197048D01*
X139396429Y-94156571D01*
X140408334Y-93387524D02*
X140489286Y-93387524D01*
X140570238Y-93428000D01*
X140610715Y-93468476D01*
X140651191Y-93549429D01*
X140691667Y-93711333D01*
X140691667Y-93913714D01*
X140651191Y-94075619D01*
X140610715Y-94156571D01*
X140570238Y-94197048D01*
X140489286Y-94237524D01*
X140408334Y-94237524D01*
X140327381Y-94197048D01*
X140286905Y-94156571D01*
X140246429Y-94075619D01*
X140205953Y-93913714D01*
X140205953Y-93711333D01*
X140246429Y-93549429D01*
X140286905Y-93468476D01*
X140327381Y-93428000D01*
X140408334Y-93387524D01*
X141217858Y-93387524D02*
X141298810Y-93387524D01*
X141379762Y-93428000D01*
X141420239Y-93468476D01*
X141460715Y-93549429D01*
X141501191Y-93711333D01*
X141501191Y-93913714D01*
X141460715Y-94075619D01*
X141420239Y-94156571D01*
X141379762Y-94197048D01*
X141298810Y-94237524D01*
X141217858Y-94237524D01*
X141136905Y-94197048D01*
X141096429Y-94156571D01*
X141055953Y-94075619D01*
X141015477Y-93913714D01*
X141015477Y-93711333D01*
X141055953Y-93549429D01*
X141096429Y-93468476D01*
X141136905Y-93428000D01*
X141217858Y-93387524D01*
X142027382Y-93387524D02*
X142108334Y-93387524D01*
X142189286Y-93428000D01*
X142229763Y-93468476D01*
X142270239Y-93549429D01*
X142310715Y-93711333D01*
X142310715Y-93913714D01*
X142270239Y-94075619D01*
X142229763Y-94156571D01*
X142189286Y-94197048D01*
X142108334Y-94237524D01*
X142027382Y-94237524D01*
X141946429Y-94197048D01*
X141905953Y-94156571D01*
X141865477Y-94075619D01*
X141825001Y-93913714D01*
X141825001Y-93711333D01*
X141865477Y-93549429D01*
X141905953Y-93468476D01*
X141946429Y-93428000D01*
X142027382Y-93387524D01*
X143079763Y-94237524D02*
X142675001Y-94237524D01*
X142675001Y-93387524D01*
M02*
