G04 MADE WITH FRITZING*
G04 WWW.FRITZING.ORG*
G04 DOUBLE SIDED*
G04 HOLES PLATED*
G04 CONTOUR ON CENTER OF CONTOUR VECTOR*
%ASAXBY*%
%FSLAX23Y23*%
%MOIN*%
%OFA0B0*%
%SFA1.0B1.0*%
%ADD10C,0.010000*%
%ADD11C,0.005000*%
%ADD12R,0.001000X0.001000*%
%LNSILK1*%
G90*
G70*
G54D10*
X235Y352D02*
X435Y352D01*
D02*
X435Y352D02*
X435Y286D01*
D02*
X435Y286D02*
X235Y286D01*
D02*
X235Y286D02*
X235Y352D01*
D02*
X235Y102D02*
X435Y102D01*
D02*
X435Y102D02*
X435Y36D01*
D02*
X435Y36D02*
X235Y36D01*
D02*
X235Y36D02*
X235Y102D01*
D02*
X360Y227D02*
X560Y227D01*
D02*
X560Y227D02*
X560Y161D01*
D02*
X560Y161D02*
X360Y161D01*
D02*
X360Y161D02*
X360Y227D01*
D02*
X1000Y94D02*
X1000Y294D01*
D02*
X1000Y294D02*
X900Y294D01*
D02*
X900Y294D02*
X900Y94D01*
D02*
X900Y94D02*
X1000Y94D01*
D02*
X1100Y94D02*
X1100Y294D01*
D02*
X1100Y294D02*
X1000Y294D01*
D02*
X1000Y294D02*
X1000Y94D01*
D02*
X1000Y94D02*
X1100Y94D01*
D02*
X1562Y349D02*
X1562Y39D01*
D02*
X1562Y39D02*
X1778Y39D01*
D02*
X1778Y39D02*
X1778Y349D01*
D02*
X1778Y349D02*
X1562Y349D01*
G54D11*
D02*
X1738Y39D02*
X1738Y349D01*
G54D12*
X0Y394D02*
X1967Y394D01*
X0Y393D02*
X1967Y393D01*
X0Y392D02*
X1967Y392D01*
X0Y391D02*
X1967Y391D01*
X0Y390D02*
X1967Y390D01*
X0Y389D02*
X1967Y389D01*
X0Y388D02*
X1967Y388D01*
X0Y387D02*
X1967Y387D01*
X0Y386D02*
X7Y386D01*
X1960Y386D02*
X1967Y386D01*
X0Y385D02*
X7Y385D01*
X1960Y385D02*
X1967Y385D01*
X0Y384D02*
X7Y384D01*
X1960Y384D02*
X1967Y384D01*
X0Y383D02*
X7Y383D01*
X1960Y383D02*
X1967Y383D01*
X0Y382D02*
X7Y382D01*
X1960Y382D02*
X1967Y382D01*
X0Y381D02*
X7Y381D01*
X1960Y381D02*
X1967Y381D01*
X0Y380D02*
X7Y380D01*
X1960Y380D02*
X1967Y380D01*
X0Y379D02*
X7Y379D01*
X1960Y379D02*
X1967Y379D01*
X0Y378D02*
X7Y378D01*
X1960Y378D02*
X1967Y378D01*
X0Y377D02*
X7Y377D01*
X1960Y377D02*
X1967Y377D01*
X0Y376D02*
X7Y376D01*
X1960Y376D02*
X1967Y376D01*
X0Y375D02*
X7Y375D01*
X1960Y375D02*
X1967Y375D01*
X0Y374D02*
X7Y374D01*
X1960Y374D02*
X1967Y374D01*
X0Y373D02*
X7Y373D01*
X1960Y373D02*
X1967Y373D01*
X0Y372D02*
X7Y372D01*
X1960Y372D02*
X1967Y372D01*
X0Y371D02*
X7Y371D01*
X1960Y371D02*
X1967Y371D01*
X0Y370D02*
X7Y370D01*
X1960Y370D02*
X1967Y370D01*
X0Y369D02*
X7Y369D01*
X1960Y369D02*
X1967Y369D01*
X0Y368D02*
X7Y368D01*
X1960Y368D02*
X1967Y368D01*
X0Y367D02*
X7Y367D01*
X1960Y367D02*
X1967Y367D01*
X0Y366D02*
X7Y366D01*
X1960Y366D02*
X1967Y366D01*
X0Y365D02*
X7Y365D01*
X1145Y365D02*
X1149Y365D01*
X1960Y365D02*
X1967Y365D01*
X0Y364D02*
X7Y364D01*
X1090Y364D02*
X1095Y364D01*
X1145Y364D02*
X1149Y364D01*
X1334Y364D02*
X1346Y364D01*
X1363Y364D02*
X1373Y364D01*
X1388Y364D02*
X1396Y364D01*
X1415Y364D02*
X1416Y364D01*
X1960Y364D02*
X1967Y364D01*
X0Y363D02*
X7Y363D01*
X1087Y363D02*
X1096Y363D01*
X1144Y363D02*
X1149Y363D01*
X1333Y363D02*
X1349Y363D01*
X1361Y363D02*
X1376Y363D01*
X1386Y363D02*
X1396Y363D01*
X1413Y363D02*
X1417Y363D01*
X1960Y363D02*
X1967Y363D01*
X0Y362D02*
X7Y362D01*
X1086Y362D02*
X1096Y362D01*
X1144Y362D02*
X1149Y362D01*
X1282Y362D02*
X1282Y362D01*
X1332Y362D02*
X1349Y362D01*
X1360Y362D02*
X1376Y362D01*
X1386Y362D02*
X1396Y362D01*
X1413Y362D02*
X1418Y362D01*
X1960Y362D02*
X1967Y362D01*
X0Y361D02*
X7Y361D01*
X1085Y361D02*
X1096Y361D01*
X1145Y361D02*
X1149Y361D01*
X1277Y361D02*
X1287Y361D01*
X1333Y361D02*
X1350Y361D01*
X1359Y361D02*
X1377Y361D01*
X1387Y361D02*
X1396Y361D01*
X1413Y361D02*
X1417Y361D01*
X1960Y361D02*
X1967Y361D01*
X0Y360D02*
X7Y360D01*
X1085Y360D02*
X1089Y360D01*
X1275Y360D02*
X1280Y360D01*
X1284Y360D02*
X1289Y360D01*
X1347Y360D02*
X1350Y360D01*
X1359Y360D02*
X1362Y360D01*
X1374Y360D02*
X1377Y360D01*
X1393Y360D02*
X1396Y360D01*
X1413Y360D02*
X1416Y360D01*
X1960Y360D02*
X1967Y360D01*
X0Y359D02*
X7Y359D01*
X1084Y359D02*
X1087Y359D01*
X1274Y359D02*
X1277Y359D01*
X1288Y359D02*
X1290Y359D01*
X1347Y359D02*
X1350Y359D01*
X1359Y359D02*
X1362Y359D01*
X1374Y359D02*
X1377Y359D01*
X1394Y359D02*
X1396Y359D01*
X1413Y359D02*
X1416Y359D01*
X1960Y359D02*
X1967Y359D01*
X0Y358D02*
X7Y358D01*
X1084Y358D02*
X1087Y358D01*
X1273Y358D02*
X1275Y358D01*
X1289Y358D02*
X1291Y358D01*
X1347Y358D02*
X1350Y358D01*
X1359Y358D02*
X1362Y358D01*
X1374Y358D02*
X1377Y358D01*
X1394Y358D02*
X1396Y358D01*
X1413Y358D02*
X1416Y358D01*
X1960Y358D02*
X1967Y358D01*
X0Y357D02*
X7Y357D01*
X1084Y357D02*
X1087Y357D01*
X1272Y357D02*
X1274Y357D01*
X1290Y357D02*
X1292Y357D01*
X1347Y357D02*
X1350Y357D01*
X1359Y357D02*
X1362Y357D01*
X1374Y357D02*
X1377Y357D01*
X1394Y357D02*
X1396Y357D01*
X1413Y357D02*
X1416Y357D01*
X1960Y357D02*
X1967Y357D01*
X0Y356D02*
X7Y356D01*
X1082Y356D02*
X1091Y356D01*
X1111Y356D02*
X1119Y356D01*
X1140Y356D02*
X1148Y356D01*
X1162Y356D02*
X1162Y356D01*
X1169Y356D02*
X1173Y356D01*
X1192Y356D02*
X1200Y356D01*
X1215Y356D02*
X1216Y356D01*
X1223Y356D02*
X1227Y356D01*
X1271Y356D02*
X1273Y356D01*
X1279Y356D02*
X1286Y356D01*
X1291Y356D02*
X1293Y356D01*
X1347Y356D02*
X1350Y356D01*
X1359Y356D02*
X1362Y356D01*
X1374Y356D02*
X1377Y356D01*
X1394Y356D02*
X1396Y356D01*
X1413Y356D02*
X1416Y356D01*
X1960Y356D02*
X1967Y356D01*
X0Y355D02*
X7Y355D01*
X1081Y355D02*
X1092Y355D01*
X1110Y355D02*
X1121Y355D01*
X1139Y355D02*
X1149Y355D01*
X1161Y355D02*
X1163Y355D01*
X1167Y355D02*
X1176Y355D01*
X1191Y355D02*
X1202Y355D01*
X1214Y355D02*
X1217Y355D01*
X1221Y355D02*
X1229Y355D01*
X1271Y355D02*
X1272Y355D01*
X1277Y355D02*
X1287Y355D01*
X1292Y355D02*
X1293Y355D01*
X1347Y355D02*
X1350Y355D01*
X1359Y355D02*
X1362Y355D01*
X1374Y355D02*
X1377Y355D01*
X1394Y355D02*
X1396Y355D01*
X1413Y355D02*
X1416Y355D01*
X1960Y355D02*
X1967Y355D01*
X0Y354D02*
X7Y354D01*
X1081Y354D02*
X1092Y354D01*
X1110Y354D02*
X1122Y354D01*
X1139Y354D02*
X1149Y354D01*
X1160Y354D02*
X1163Y354D01*
X1166Y354D02*
X1177Y354D01*
X1191Y354D02*
X1203Y354D01*
X1214Y354D02*
X1217Y354D01*
X1220Y354D02*
X1230Y354D01*
X1270Y354D02*
X1271Y354D01*
X1276Y354D02*
X1280Y354D01*
X1286Y354D02*
X1287Y354D01*
X1293Y354D02*
X1294Y354D01*
X1347Y354D02*
X1350Y354D01*
X1359Y354D02*
X1362Y354D01*
X1374Y354D02*
X1377Y354D01*
X1394Y354D02*
X1396Y354D01*
X1413Y354D02*
X1416Y354D01*
X1960Y354D02*
X1967Y354D01*
X0Y353D02*
X7Y353D01*
X1081Y353D02*
X1092Y353D01*
X1111Y353D02*
X1123Y353D01*
X1140Y353D02*
X1149Y353D01*
X1160Y353D02*
X1163Y353D01*
X1165Y353D02*
X1177Y353D01*
X1192Y353D02*
X1204Y353D01*
X1214Y353D02*
X1231Y353D01*
X1270Y353D02*
X1271Y353D01*
X1276Y353D02*
X1278Y353D01*
X1293Y353D02*
X1294Y353D01*
X1347Y353D02*
X1350Y353D01*
X1359Y353D02*
X1362Y353D01*
X1374Y353D02*
X1377Y353D01*
X1394Y353D02*
X1396Y353D01*
X1413Y353D02*
X1416Y353D01*
X1960Y353D02*
X1967Y353D01*
X0Y352D02*
X7Y352D01*
X1084Y352D02*
X1087Y352D01*
X1120Y352D02*
X1123Y352D01*
X1146Y352D02*
X1149Y352D01*
X1160Y352D02*
X1169Y352D01*
X1174Y352D02*
X1178Y352D01*
X1201Y352D02*
X1204Y352D01*
X1214Y352D02*
X1222Y352D01*
X1228Y352D02*
X1231Y352D01*
X1270Y352D02*
X1270Y352D01*
X1275Y352D02*
X1277Y352D01*
X1294Y352D02*
X1295Y352D01*
X1347Y352D02*
X1350Y352D01*
X1359Y352D02*
X1362Y352D01*
X1374Y352D02*
X1377Y352D01*
X1394Y352D02*
X1396Y352D01*
X1413Y352D02*
X1416Y352D01*
X1960Y352D02*
X1967Y352D01*
X0Y351D02*
X7Y351D01*
X1084Y351D02*
X1087Y351D01*
X1121Y351D02*
X1124Y351D01*
X1146Y351D02*
X1149Y351D01*
X1160Y351D02*
X1168Y351D01*
X1175Y351D02*
X1178Y351D01*
X1201Y351D02*
X1204Y351D01*
X1214Y351D02*
X1221Y351D01*
X1229Y351D02*
X1231Y351D01*
X1269Y351D02*
X1270Y351D01*
X1275Y351D02*
X1277Y351D01*
X1294Y351D02*
X1295Y351D01*
X1334Y351D02*
X1350Y351D01*
X1359Y351D02*
X1362Y351D01*
X1374Y351D02*
X1377Y351D01*
X1394Y351D02*
X1396Y351D01*
X1413Y351D02*
X1416Y351D01*
X1960Y351D02*
X1967Y351D01*
X0Y350D02*
X7Y350D01*
X1084Y350D02*
X1087Y350D01*
X1121Y350D02*
X1124Y350D01*
X1146Y350D02*
X1149Y350D01*
X1160Y350D02*
X1166Y350D01*
X1175Y350D02*
X1178Y350D01*
X1202Y350D02*
X1205Y350D01*
X1214Y350D02*
X1219Y350D01*
X1229Y350D02*
X1231Y350D01*
X1269Y350D02*
X1270Y350D01*
X1275Y350D02*
X1277Y350D01*
X1294Y350D02*
X1295Y350D01*
X1333Y350D02*
X1350Y350D01*
X1359Y350D02*
X1362Y350D01*
X1374Y350D02*
X1377Y350D01*
X1394Y350D02*
X1396Y350D01*
X1413Y350D02*
X1416Y350D01*
X1960Y350D02*
X1967Y350D01*
X0Y349D02*
X7Y349D01*
X1084Y349D02*
X1087Y349D01*
X1121Y349D02*
X1124Y349D01*
X1146Y349D02*
X1149Y349D01*
X1160Y349D02*
X1165Y349D01*
X1175Y349D02*
X1178Y349D01*
X1202Y349D02*
X1205Y349D01*
X1214Y349D02*
X1218Y349D01*
X1229Y349D02*
X1231Y349D01*
X1269Y349D02*
X1270Y349D01*
X1275Y349D02*
X1277Y349D01*
X1294Y349D02*
X1295Y349D01*
X1333Y349D02*
X1349Y349D01*
X1359Y349D02*
X1362Y349D01*
X1374Y349D02*
X1377Y349D01*
X1394Y349D02*
X1396Y349D01*
X1413Y349D02*
X1416Y349D01*
X1960Y349D02*
X1967Y349D01*
X0Y348D02*
X7Y348D01*
X1084Y348D02*
X1087Y348D01*
X1110Y348D02*
X1124Y348D01*
X1146Y348D02*
X1149Y348D01*
X1160Y348D02*
X1164Y348D01*
X1176Y348D02*
X1177Y348D01*
X1191Y348D02*
X1205Y348D01*
X1214Y348D02*
X1217Y348D01*
X1229Y348D02*
X1231Y348D01*
X1269Y348D02*
X1270Y348D01*
X1275Y348D02*
X1276Y348D01*
X1294Y348D02*
X1295Y348D01*
X1332Y348D02*
X1347Y348D01*
X1359Y348D02*
X1362Y348D01*
X1374Y348D02*
X1377Y348D01*
X1394Y348D02*
X1396Y348D01*
X1402Y348D02*
X1403Y348D01*
X1413Y348D02*
X1430Y348D01*
X1960Y348D02*
X1967Y348D01*
X0Y347D02*
X7Y347D01*
X1084Y347D02*
X1087Y347D01*
X1109Y347D02*
X1124Y347D01*
X1146Y347D02*
X1149Y347D01*
X1160Y347D02*
X1163Y347D01*
X1189Y347D02*
X1205Y347D01*
X1214Y347D02*
X1217Y347D01*
X1229Y347D02*
X1231Y347D01*
X1269Y347D02*
X1270Y347D01*
X1275Y347D02*
X1277Y347D01*
X1294Y347D02*
X1295Y347D01*
X1332Y347D02*
X1335Y347D01*
X1359Y347D02*
X1362Y347D01*
X1374Y347D02*
X1377Y347D01*
X1394Y347D02*
X1396Y347D01*
X1401Y347D02*
X1404Y347D01*
X1413Y347D02*
X1431Y347D01*
X1960Y347D02*
X1967Y347D01*
X0Y346D02*
X7Y346D01*
X1084Y346D02*
X1087Y346D01*
X1108Y346D02*
X1124Y346D01*
X1146Y346D02*
X1149Y346D01*
X1160Y346D02*
X1163Y346D01*
X1188Y346D02*
X1205Y346D01*
X1214Y346D02*
X1217Y346D01*
X1229Y346D02*
X1231Y346D01*
X1269Y346D02*
X1270Y346D01*
X1275Y346D02*
X1277Y346D01*
X1294Y346D02*
X1295Y346D01*
X1332Y346D02*
X1335Y346D01*
X1359Y346D02*
X1362Y346D01*
X1374Y346D02*
X1377Y346D01*
X1394Y346D02*
X1396Y346D01*
X1401Y346D02*
X1404Y346D01*
X1413Y346D02*
X1431Y346D01*
X1960Y346D02*
X1967Y346D01*
X0Y345D02*
X7Y345D01*
X1084Y345D02*
X1087Y345D01*
X1107Y345D02*
X1124Y345D01*
X1146Y345D02*
X1149Y345D01*
X1160Y345D02*
X1163Y345D01*
X1188Y345D02*
X1205Y345D01*
X1214Y345D02*
X1217Y345D01*
X1229Y345D02*
X1231Y345D01*
X1270Y345D02*
X1270Y345D01*
X1275Y345D02*
X1277Y345D01*
X1294Y345D02*
X1295Y345D01*
X1332Y345D02*
X1335Y345D01*
X1359Y345D02*
X1362Y345D01*
X1374Y345D02*
X1377Y345D01*
X1394Y345D02*
X1396Y345D01*
X1401Y345D02*
X1404Y345D01*
X1413Y345D02*
X1431Y345D01*
X1960Y345D02*
X1967Y345D01*
X0Y344D02*
X7Y344D01*
X1084Y344D02*
X1087Y344D01*
X1107Y344D02*
X1110Y344D01*
X1120Y344D02*
X1124Y344D01*
X1146Y344D02*
X1149Y344D01*
X1160Y344D02*
X1163Y344D01*
X1188Y344D02*
X1191Y344D01*
X1201Y344D02*
X1205Y344D01*
X1214Y344D02*
X1217Y344D01*
X1229Y344D02*
X1231Y344D01*
X1270Y344D02*
X1271Y344D01*
X1276Y344D02*
X1278Y344D01*
X1293Y344D02*
X1294Y344D01*
X1332Y344D02*
X1335Y344D01*
X1359Y344D02*
X1362Y344D01*
X1374Y344D02*
X1377Y344D01*
X1394Y344D02*
X1396Y344D01*
X1401Y344D02*
X1404Y344D01*
X1413Y344D02*
X1416Y344D01*
X1428Y344D02*
X1431Y344D01*
X1960Y344D02*
X1967Y344D01*
X0Y343D02*
X7Y343D01*
X1084Y343D02*
X1087Y343D01*
X1106Y343D02*
X1109Y343D01*
X1121Y343D02*
X1124Y343D01*
X1146Y343D02*
X1149Y343D01*
X1160Y343D02*
X1163Y343D01*
X1187Y343D02*
X1190Y343D01*
X1202Y343D02*
X1205Y343D01*
X1214Y343D02*
X1217Y343D01*
X1229Y343D02*
X1231Y343D01*
X1270Y343D02*
X1271Y343D01*
X1276Y343D02*
X1280Y343D01*
X1286Y343D02*
X1287Y343D01*
X1293Y343D02*
X1294Y343D01*
X1332Y343D02*
X1335Y343D01*
X1359Y343D02*
X1362Y343D01*
X1374Y343D02*
X1377Y343D01*
X1394Y343D02*
X1396Y343D01*
X1401Y343D02*
X1404Y343D01*
X1413Y343D02*
X1416Y343D01*
X1428Y343D02*
X1431Y343D01*
X1960Y343D02*
X1967Y343D01*
X0Y342D02*
X7Y342D01*
X1084Y342D02*
X1087Y342D01*
X1106Y342D02*
X1109Y342D01*
X1121Y342D02*
X1124Y342D01*
X1146Y342D02*
X1149Y342D01*
X1160Y342D02*
X1163Y342D01*
X1187Y342D02*
X1190Y342D01*
X1202Y342D02*
X1205Y342D01*
X1214Y342D02*
X1217Y342D01*
X1229Y342D02*
X1231Y342D01*
X1271Y342D02*
X1272Y342D01*
X1277Y342D02*
X1287Y342D01*
X1292Y342D02*
X1293Y342D01*
X1332Y342D02*
X1335Y342D01*
X1359Y342D02*
X1362Y342D01*
X1374Y342D02*
X1377Y342D01*
X1394Y342D02*
X1396Y342D01*
X1401Y342D02*
X1404Y342D01*
X1413Y342D02*
X1416Y342D01*
X1428Y342D02*
X1431Y342D01*
X1960Y342D02*
X1967Y342D01*
X0Y341D02*
X7Y341D01*
X1084Y341D02*
X1087Y341D01*
X1106Y341D02*
X1109Y341D01*
X1121Y341D02*
X1124Y341D01*
X1146Y341D02*
X1149Y341D01*
X1160Y341D02*
X1163Y341D01*
X1187Y341D02*
X1190Y341D01*
X1201Y341D02*
X1205Y341D01*
X1214Y341D02*
X1217Y341D01*
X1229Y341D02*
X1231Y341D01*
X1271Y341D02*
X1273Y341D01*
X1279Y341D02*
X1286Y341D01*
X1291Y341D02*
X1293Y341D01*
X1332Y341D02*
X1335Y341D01*
X1359Y341D02*
X1362Y341D01*
X1374Y341D02*
X1377Y341D01*
X1394Y341D02*
X1396Y341D01*
X1401Y341D02*
X1404Y341D01*
X1413Y341D02*
X1416Y341D01*
X1428Y341D02*
X1431Y341D01*
X1960Y341D02*
X1967Y341D01*
X0Y340D02*
X7Y340D01*
X257Y340D02*
X268Y340D01*
X289Y340D02*
X303Y340D01*
X317Y340D02*
X319Y340D01*
X1084Y340D02*
X1087Y340D01*
X1107Y340D02*
X1109Y340D01*
X1119Y340D02*
X1124Y340D01*
X1146Y340D02*
X1149Y340D01*
X1160Y340D02*
X1163Y340D01*
X1187Y340D02*
X1190Y340D01*
X1200Y340D02*
X1205Y340D01*
X1214Y340D02*
X1217Y340D01*
X1229Y340D02*
X1231Y340D01*
X1272Y340D02*
X1274Y340D01*
X1290Y340D02*
X1292Y340D01*
X1332Y340D02*
X1335Y340D01*
X1359Y340D02*
X1362Y340D01*
X1374Y340D02*
X1377Y340D01*
X1394Y340D02*
X1396Y340D01*
X1401Y340D02*
X1404Y340D01*
X1413Y340D02*
X1416Y340D01*
X1428Y340D02*
X1431Y340D01*
X1960Y340D02*
X1967Y340D01*
X0Y339D02*
X7Y339D01*
X256Y339D02*
X268Y339D01*
X288Y339D02*
X305Y339D01*
X317Y339D02*
X319Y339D01*
X1084Y339D02*
X1087Y339D01*
X1107Y339D02*
X1110Y339D01*
X1117Y339D02*
X1124Y339D01*
X1146Y339D02*
X1149Y339D01*
X1160Y339D02*
X1163Y339D01*
X1188Y339D02*
X1191Y339D01*
X1198Y339D02*
X1205Y339D01*
X1214Y339D02*
X1217Y339D01*
X1229Y339D02*
X1231Y339D01*
X1273Y339D02*
X1275Y339D01*
X1289Y339D02*
X1291Y339D01*
X1332Y339D02*
X1335Y339D01*
X1359Y339D02*
X1362Y339D01*
X1374Y339D02*
X1377Y339D01*
X1393Y339D02*
X1397Y339D01*
X1401Y339D02*
X1404Y339D01*
X1413Y339D02*
X1416Y339D01*
X1428Y339D02*
X1431Y339D01*
X1960Y339D02*
X1967Y339D01*
X0Y338D02*
X7Y338D01*
X256Y338D02*
X268Y338D01*
X287Y338D02*
X305Y338D01*
X316Y338D02*
X320Y338D01*
X354Y338D02*
X361Y338D01*
X1084Y338D02*
X1087Y338D01*
X1107Y338D02*
X1124Y338D01*
X1146Y338D02*
X1149Y338D01*
X1160Y338D02*
X1163Y338D01*
X1188Y338D02*
X1205Y338D01*
X1214Y338D02*
X1217Y338D01*
X1229Y338D02*
X1231Y338D01*
X1274Y338D02*
X1277Y338D01*
X1287Y338D02*
X1290Y338D01*
X1332Y338D02*
X1349Y338D01*
X1359Y338D02*
X1377Y338D01*
X1387Y338D02*
X1404Y338D01*
X1413Y338D02*
X1431Y338D01*
X1960Y338D02*
X1967Y338D01*
X0Y337D02*
X7Y337D01*
X257Y337D02*
X268Y337D01*
X286Y337D02*
X306Y337D01*
X316Y337D02*
X320Y337D01*
X351Y337D02*
X363Y337D01*
X1084Y337D02*
X1087Y337D01*
X1108Y337D02*
X1124Y337D01*
X1146Y337D02*
X1149Y337D01*
X1160Y337D02*
X1163Y337D01*
X1189Y337D02*
X1205Y337D01*
X1214Y337D02*
X1217Y337D01*
X1229Y337D02*
X1231Y337D01*
X1276Y337D02*
X1281Y337D01*
X1284Y337D02*
X1288Y337D01*
X1332Y337D02*
X1350Y337D01*
X1360Y337D02*
X1376Y337D01*
X1386Y337D02*
X1404Y337D01*
X1413Y337D02*
X1431Y337D01*
X1960Y337D02*
X1967Y337D01*
X0Y336D02*
X7Y336D01*
X264Y336D02*
X268Y336D01*
X286Y336D02*
X290Y336D01*
X303Y336D02*
X306Y336D01*
X316Y336D02*
X320Y336D01*
X349Y336D02*
X365Y336D01*
X1084Y336D02*
X1087Y336D01*
X1109Y336D02*
X1119Y336D01*
X1122Y336D02*
X1123Y336D01*
X1146Y336D02*
X1149Y336D01*
X1161Y336D02*
X1163Y336D01*
X1190Y336D02*
X1199Y336D01*
X1202Y336D02*
X1204Y336D01*
X1215Y336D02*
X1217Y336D01*
X1229Y336D02*
X1231Y336D01*
X1278Y336D02*
X1287Y336D01*
X1332Y336D02*
X1350Y336D01*
X1361Y336D02*
X1375Y336D01*
X1386Y336D02*
X1403Y336D01*
X1413Y336D02*
X1430Y336D01*
X1960Y336D02*
X1967Y336D01*
X0Y335D02*
X7Y335D01*
X264Y335D02*
X268Y335D01*
X286Y335D02*
X289Y335D01*
X303Y335D02*
X306Y335D01*
X316Y335D02*
X320Y335D01*
X348Y335D02*
X356Y335D01*
X359Y335D02*
X366Y335D01*
X1146Y335D02*
X1149Y335D01*
X1960Y335D02*
X1967Y335D01*
X0Y334D02*
X7Y334D01*
X264Y334D02*
X268Y334D01*
X286Y334D02*
X289Y334D01*
X303Y334D02*
X306Y334D01*
X316Y334D02*
X320Y334D01*
X347Y334D02*
X352Y334D01*
X362Y334D02*
X367Y334D01*
X1146Y334D02*
X1149Y334D01*
X1960Y334D02*
X1967Y334D01*
X0Y333D02*
X7Y333D01*
X264Y333D02*
X268Y333D01*
X286Y333D02*
X289Y333D01*
X303Y333D02*
X306Y333D01*
X316Y333D02*
X320Y333D01*
X346Y333D02*
X351Y333D01*
X364Y333D02*
X368Y333D01*
X1135Y333D02*
X1138Y333D01*
X1146Y333D02*
X1149Y333D01*
X1960Y333D02*
X1967Y333D01*
X0Y332D02*
X7Y332D01*
X264Y332D02*
X268Y332D01*
X286Y332D02*
X289Y332D01*
X303Y332D02*
X306Y332D01*
X316Y332D02*
X320Y332D01*
X346Y332D02*
X350Y332D01*
X365Y332D02*
X369Y332D01*
X1135Y332D02*
X1138Y332D01*
X1146Y332D02*
X1149Y332D01*
X1526Y332D02*
X1528Y332D01*
X1541Y332D02*
X1555Y332D01*
X1960Y332D02*
X1967Y332D01*
X0Y331D02*
X7Y331D01*
X264Y331D02*
X268Y331D01*
X286Y331D02*
X289Y331D01*
X303Y331D02*
X306Y331D01*
X316Y331D02*
X320Y331D01*
X332Y331D02*
X333Y331D01*
X345Y331D02*
X349Y331D01*
X366Y331D02*
X369Y331D01*
X1136Y331D02*
X1139Y331D01*
X1145Y331D02*
X1149Y331D01*
X1525Y331D02*
X1528Y331D01*
X1540Y331D02*
X1556Y331D01*
X1960Y331D02*
X1967Y331D01*
X0Y330D02*
X7Y330D01*
X264Y330D02*
X268Y330D01*
X286Y330D02*
X289Y330D01*
X303Y330D02*
X306Y330D01*
X316Y330D02*
X320Y330D01*
X330Y330D02*
X334Y330D01*
X345Y330D02*
X348Y330D01*
X366Y330D02*
X370Y330D01*
X1136Y330D02*
X1148Y330D01*
X1525Y330D02*
X1528Y330D01*
X1540Y330D02*
X1556Y330D01*
X1960Y330D02*
X1967Y330D01*
X0Y329D02*
X7Y329D01*
X264Y329D02*
X268Y329D01*
X286Y329D02*
X289Y329D01*
X303Y329D02*
X306Y329D01*
X316Y329D02*
X320Y329D01*
X329Y329D02*
X334Y329D01*
X344Y329D02*
X348Y329D01*
X367Y329D02*
X370Y329D01*
X1137Y329D02*
X1148Y329D01*
X1525Y329D02*
X1528Y329D01*
X1539Y329D02*
X1556Y329D01*
X1960Y329D02*
X1967Y329D01*
X0Y328D02*
X7Y328D01*
X264Y328D02*
X268Y328D01*
X286Y328D02*
X289Y328D01*
X303Y328D02*
X306Y328D01*
X316Y328D02*
X320Y328D01*
X328Y328D02*
X333Y328D01*
X344Y328D02*
X347Y328D01*
X367Y328D02*
X370Y328D01*
X1138Y328D02*
X1146Y328D01*
X1525Y328D02*
X1528Y328D01*
X1539Y328D02*
X1542Y328D01*
X1553Y328D02*
X1557Y328D01*
X1960Y328D02*
X1967Y328D01*
X0Y327D02*
X7Y327D01*
X264Y327D02*
X268Y327D01*
X286Y327D02*
X289Y327D01*
X303Y327D02*
X306Y327D01*
X316Y327D02*
X320Y327D01*
X327Y327D02*
X332Y327D01*
X344Y327D02*
X347Y327D01*
X367Y327D02*
X370Y327D01*
X1525Y327D02*
X1528Y327D01*
X1539Y327D02*
X1542Y327D01*
X1553Y327D02*
X1557Y327D01*
X1960Y327D02*
X1967Y327D01*
X0Y326D02*
X7Y326D01*
X264Y326D02*
X268Y326D01*
X286Y326D02*
X289Y326D01*
X303Y326D02*
X306Y326D01*
X316Y326D02*
X320Y326D01*
X326Y326D02*
X331Y326D01*
X344Y326D02*
X347Y326D01*
X367Y326D02*
X371Y326D01*
X1525Y326D02*
X1528Y326D01*
X1539Y326D02*
X1542Y326D01*
X1553Y326D02*
X1557Y326D01*
X1960Y326D02*
X1967Y326D01*
X0Y325D02*
X7Y325D01*
X264Y325D02*
X268Y325D01*
X286Y325D02*
X289Y325D01*
X303Y325D02*
X306Y325D01*
X316Y325D02*
X320Y325D01*
X325Y325D02*
X330Y325D01*
X344Y325D02*
X347Y325D01*
X367Y325D02*
X371Y325D01*
X1525Y325D02*
X1528Y325D01*
X1539Y325D02*
X1542Y325D01*
X1553Y325D02*
X1557Y325D01*
X1960Y325D02*
X1967Y325D01*
X0Y324D02*
X7Y324D01*
X167Y324D02*
X234Y324D01*
X264Y324D02*
X268Y324D01*
X286Y324D02*
X289Y324D01*
X303Y324D02*
X306Y324D01*
X316Y324D02*
X320Y324D01*
X323Y324D02*
X329Y324D01*
X344Y324D02*
X347Y324D01*
X367Y324D02*
X371Y324D01*
X435Y324D02*
X482Y324D01*
X1525Y324D02*
X1528Y324D01*
X1539Y324D02*
X1542Y324D01*
X1553Y324D02*
X1557Y324D01*
X1960Y324D02*
X1967Y324D01*
X0Y323D02*
X7Y323D01*
X168Y323D02*
X234Y323D01*
X264Y323D02*
X268Y323D01*
X286Y323D02*
X289Y323D01*
X303Y323D02*
X306Y323D01*
X316Y323D02*
X320Y323D01*
X322Y323D02*
X328Y323D01*
X344Y323D02*
X347Y323D01*
X367Y323D02*
X371Y323D01*
X435Y323D02*
X482Y323D01*
X1525Y323D02*
X1528Y323D01*
X1539Y323D02*
X1542Y323D01*
X1553Y323D02*
X1557Y323D01*
X1960Y323D02*
X1967Y323D01*
X0Y322D02*
X7Y322D01*
X168Y322D02*
X234Y322D01*
X264Y322D02*
X268Y322D01*
X273Y322D02*
X275Y322D01*
X286Y322D02*
X289Y322D01*
X303Y322D02*
X306Y322D01*
X316Y322D02*
X327Y322D01*
X344Y322D02*
X347Y322D01*
X367Y322D02*
X370Y322D01*
X435Y322D02*
X482Y322D01*
X1525Y322D02*
X1528Y322D01*
X1539Y322D02*
X1542Y322D01*
X1553Y322D02*
X1557Y322D01*
X1960Y322D02*
X1967Y322D01*
X0Y321D02*
X7Y321D01*
X168Y321D02*
X234Y321D01*
X264Y321D02*
X268Y321D01*
X273Y321D02*
X276Y321D01*
X286Y321D02*
X289Y321D01*
X303Y321D02*
X306Y321D01*
X316Y321D02*
X325Y321D01*
X344Y321D02*
X347Y321D01*
X367Y321D02*
X370Y321D01*
X435Y321D02*
X482Y321D01*
X1525Y321D02*
X1528Y321D01*
X1539Y321D02*
X1542Y321D01*
X1553Y321D02*
X1557Y321D01*
X1960Y321D02*
X1967Y321D01*
X0Y320D02*
X7Y320D01*
X168Y320D02*
X234Y320D01*
X264Y320D02*
X268Y320D01*
X273Y320D02*
X276Y320D01*
X286Y320D02*
X289Y320D01*
X303Y320D02*
X306Y320D01*
X316Y320D02*
X326Y320D01*
X344Y320D02*
X348Y320D01*
X367Y320D02*
X370Y320D01*
X435Y320D02*
X482Y320D01*
X1525Y320D02*
X1542Y320D01*
X1553Y320D02*
X1557Y320D01*
X1960Y320D02*
X1967Y320D01*
X0Y319D02*
X7Y319D01*
X168Y319D02*
X234Y319D01*
X264Y319D02*
X268Y319D01*
X273Y319D02*
X276Y319D01*
X286Y319D02*
X289Y319D01*
X303Y319D02*
X306Y319D01*
X316Y319D02*
X327Y319D01*
X345Y319D02*
X348Y319D01*
X366Y319D02*
X370Y319D01*
X435Y319D02*
X482Y319D01*
X1525Y319D02*
X1542Y319D01*
X1553Y319D02*
X1557Y319D01*
X1960Y319D02*
X1967Y319D01*
X0Y318D02*
X7Y318D01*
X168Y318D02*
X234Y318D01*
X264Y318D02*
X268Y318D01*
X273Y318D02*
X276Y318D01*
X286Y318D02*
X289Y318D01*
X303Y318D02*
X306Y318D01*
X316Y318D02*
X328Y318D01*
X345Y318D02*
X348Y318D01*
X366Y318D02*
X369Y318D01*
X435Y318D02*
X482Y318D01*
X1525Y318D02*
X1542Y318D01*
X1553Y318D02*
X1556Y318D01*
X1960Y318D02*
X1967Y318D01*
X0Y317D02*
X7Y317D01*
X168Y317D02*
X234Y317D01*
X264Y317D02*
X268Y317D01*
X273Y317D02*
X276Y317D01*
X286Y317D02*
X289Y317D01*
X303Y317D02*
X306Y317D01*
X316Y317D02*
X321Y317D01*
X324Y317D02*
X329Y317D01*
X345Y317D02*
X349Y317D01*
X366Y317D02*
X369Y317D01*
X435Y317D02*
X482Y317D01*
X1525Y317D02*
X1542Y317D01*
X1553Y317D02*
X1556Y317D01*
X1960Y317D02*
X1967Y317D01*
X0Y316D02*
X7Y316D01*
X167Y316D02*
X234Y316D01*
X264Y316D02*
X268Y316D01*
X273Y316D02*
X276Y316D01*
X286Y316D02*
X289Y316D01*
X303Y316D02*
X306Y316D01*
X316Y316D02*
X320Y316D01*
X325Y316D02*
X330Y316D01*
X346Y316D02*
X350Y316D01*
X365Y316D02*
X368Y316D01*
X435Y316D02*
X482Y316D01*
X1552Y316D02*
X1556Y316D01*
X1960Y316D02*
X1967Y316D01*
X0Y315D02*
X7Y315D01*
X167Y315D02*
X234Y315D01*
X264Y315D02*
X268Y315D01*
X273Y315D02*
X276Y315D01*
X286Y315D02*
X289Y315D01*
X303Y315D02*
X306Y315D01*
X316Y315D02*
X320Y315D01*
X326Y315D02*
X331Y315D01*
X347Y315D02*
X350Y315D01*
X364Y315D02*
X368Y315D01*
X435Y315D02*
X482Y315D01*
X1552Y315D02*
X1555Y315D01*
X1960Y315D02*
X1967Y315D01*
X0Y314D02*
X7Y314D01*
X264Y314D02*
X268Y314D01*
X273Y314D02*
X276Y314D01*
X286Y314D02*
X289Y314D01*
X303Y314D02*
X306Y314D01*
X316Y314D02*
X320Y314D01*
X327Y314D02*
X333Y314D01*
X347Y314D02*
X351Y314D01*
X363Y314D02*
X367Y314D01*
X1552Y314D02*
X1555Y314D01*
X1960Y314D02*
X1967Y314D01*
X0Y313D02*
X7Y313D01*
X264Y313D02*
X268Y313D01*
X273Y313D02*
X276Y313D01*
X286Y313D02*
X289Y313D01*
X303Y313D02*
X306Y313D01*
X316Y313D02*
X320Y313D01*
X328Y313D02*
X334Y313D01*
X348Y313D02*
X353Y313D01*
X362Y313D02*
X366Y313D01*
X1552Y313D02*
X1554Y313D01*
X1960Y313D02*
X1967Y313D01*
X0Y312D02*
X7Y312D01*
X258Y312D02*
X276Y312D01*
X286Y312D02*
X306Y312D01*
X316Y312D02*
X320Y312D01*
X329Y312D02*
X335Y312D01*
X349Y312D02*
X354Y312D01*
X361Y312D02*
X365Y312D01*
X1960Y312D02*
X1967Y312D01*
X0Y311D02*
X7Y311D01*
X256Y311D02*
X276Y311D01*
X286Y311D02*
X306Y311D01*
X316Y311D02*
X320Y311D01*
X331Y311D02*
X336Y311D01*
X343Y311D02*
X355Y311D01*
X360Y311D02*
X371Y311D01*
X1960Y311D02*
X1967Y311D01*
X0Y310D02*
X7Y310D01*
X256Y310D02*
X276Y310D01*
X287Y310D02*
X305Y310D01*
X316Y310D02*
X320Y310D01*
X332Y310D02*
X336Y310D01*
X343Y310D02*
X355Y310D01*
X360Y310D02*
X371Y310D01*
X1960Y310D02*
X1967Y310D01*
X0Y309D02*
X7Y309D01*
X256Y309D02*
X276Y309D01*
X288Y309D02*
X305Y309D01*
X317Y309D02*
X319Y309D01*
X333Y309D02*
X336Y309D01*
X343Y309D02*
X355Y309D01*
X360Y309D02*
X371Y309D01*
X1960Y309D02*
X1967Y309D01*
X0Y308D02*
X7Y308D01*
X258Y308D02*
X274Y308D01*
X290Y308D02*
X302Y308D01*
X318Y308D02*
X318Y308D01*
X334Y308D02*
X335Y308D01*
X344Y308D02*
X354Y308D01*
X360Y308D02*
X371Y308D01*
X1960Y308D02*
X1967Y308D01*
X0Y307D02*
X7Y307D01*
X1960Y307D02*
X1967Y307D01*
X0Y306D02*
X7Y306D01*
X1960Y306D02*
X1967Y306D01*
X0Y305D02*
X7Y305D01*
X1960Y305D02*
X1967Y305D01*
X0Y304D02*
X7Y304D01*
X1960Y304D02*
X1967Y304D01*
X0Y303D02*
X7Y303D01*
X1960Y303D02*
X1967Y303D01*
X0Y302D02*
X7Y302D01*
X1540Y302D02*
X1542Y302D01*
X1960Y302D02*
X1967Y302D01*
X0Y301D02*
X7Y301D01*
X1539Y301D02*
X1542Y301D01*
X1960Y301D02*
X1967Y301D01*
X0Y300D02*
X7Y300D01*
X1539Y300D02*
X1542Y300D01*
X1960Y300D02*
X1967Y300D01*
X0Y299D02*
X7Y299D01*
X1539Y299D02*
X1542Y299D01*
X1960Y299D02*
X1967Y299D01*
X0Y298D02*
X7Y298D01*
X1539Y298D02*
X1542Y298D01*
X1960Y298D02*
X1967Y298D01*
X0Y297D02*
X7Y297D01*
X1539Y297D02*
X1542Y297D01*
X1960Y297D02*
X1967Y297D01*
X0Y296D02*
X7Y296D01*
X1539Y296D02*
X1542Y296D01*
X1960Y296D02*
X1967Y296D01*
X0Y295D02*
X7Y295D01*
X1539Y295D02*
X1542Y295D01*
X1960Y295D02*
X1967Y295D01*
X0Y294D02*
X7Y294D01*
X1532Y294D02*
X1550Y294D01*
X1960Y294D02*
X1967Y294D01*
X0Y293D02*
X7Y293D01*
X1531Y293D02*
X1551Y293D01*
X1960Y293D02*
X1967Y293D01*
X0Y292D02*
X7Y292D01*
X1531Y292D02*
X1551Y292D01*
X1960Y292D02*
X1967Y292D01*
X0Y291D02*
X7Y291D01*
X1532Y291D02*
X1550Y291D01*
X1960Y291D02*
X1967Y291D01*
X0Y290D02*
X7Y290D01*
X1539Y290D02*
X1543Y290D01*
X1960Y290D02*
X1967Y290D01*
X0Y289D02*
X7Y289D01*
X1539Y289D02*
X1542Y289D01*
X1960Y289D02*
X1967Y289D01*
X0Y288D02*
X7Y288D01*
X1539Y288D02*
X1542Y288D01*
X1960Y288D02*
X1967Y288D01*
X0Y287D02*
X7Y287D01*
X1539Y287D02*
X1542Y287D01*
X1960Y287D02*
X1967Y287D01*
X0Y286D02*
X7Y286D01*
X1539Y286D02*
X1542Y286D01*
X1960Y286D02*
X1967Y286D01*
X0Y285D02*
X7Y285D01*
X1539Y285D02*
X1542Y285D01*
X1960Y285D02*
X1967Y285D01*
X0Y284D02*
X7Y284D01*
X1539Y284D02*
X1542Y284D01*
X1960Y284D02*
X1967Y284D01*
X0Y283D02*
X7Y283D01*
X1540Y283D02*
X1542Y283D01*
X1960Y283D02*
X1967Y283D01*
X0Y282D02*
X7Y282D01*
X1960Y282D02*
X1967Y282D01*
X0Y281D02*
X7Y281D01*
X1960Y281D02*
X1967Y281D01*
X0Y280D02*
X7Y280D01*
X1960Y280D02*
X1967Y280D01*
X0Y279D02*
X7Y279D01*
X1960Y279D02*
X1967Y279D01*
X0Y278D02*
X7Y278D01*
X1960Y278D02*
X1967Y278D01*
X0Y277D02*
X7Y277D01*
X1960Y277D02*
X1967Y277D01*
X0Y276D02*
X7Y276D01*
X1960Y276D02*
X1967Y276D01*
X0Y275D02*
X7Y275D01*
X1960Y275D02*
X1967Y275D01*
X0Y274D02*
X7Y274D01*
X1960Y274D02*
X1967Y274D01*
X0Y273D02*
X7Y273D01*
X1960Y273D02*
X1967Y273D01*
X0Y272D02*
X7Y272D01*
X1960Y272D02*
X1967Y272D01*
X0Y271D02*
X7Y271D01*
X1960Y271D02*
X1967Y271D01*
X0Y270D02*
X7Y270D01*
X1960Y270D02*
X1967Y270D01*
X0Y269D02*
X7Y269D01*
X1960Y269D02*
X1967Y269D01*
X0Y268D02*
X7Y268D01*
X1960Y268D02*
X1967Y268D01*
X0Y267D02*
X7Y267D01*
X1960Y267D02*
X1967Y267D01*
X0Y266D02*
X7Y266D01*
X1960Y266D02*
X1967Y266D01*
X0Y265D02*
X7Y265D01*
X1960Y265D02*
X1967Y265D01*
X0Y264D02*
X7Y264D01*
X1960Y264D02*
X1967Y264D01*
X0Y263D02*
X7Y263D01*
X1960Y263D02*
X1967Y263D01*
X0Y262D02*
X7Y262D01*
X1960Y262D02*
X1967Y262D01*
X0Y261D02*
X7Y261D01*
X1960Y261D02*
X1967Y261D01*
X0Y260D02*
X7Y260D01*
X1960Y260D02*
X1967Y260D01*
X0Y259D02*
X7Y259D01*
X1960Y259D02*
X1967Y259D01*
X0Y258D02*
X7Y258D01*
X1960Y258D02*
X1967Y258D01*
X0Y257D02*
X7Y257D01*
X1960Y257D02*
X1967Y257D01*
X0Y256D02*
X7Y256D01*
X1960Y256D02*
X1967Y256D01*
X0Y255D02*
X7Y255D01*
X1960Y255D02*
X1967Y255D01*
X0Y254D02*
X7Y254D01*
X1960Y254D02*
X1967Y254D01*
X0Y253D02*
X7Y253D01*
X1960Y253D02*
X1967Y253D01*
X0Y252D02*
X7Y252D01*
X1960Y252D02*
X1967Y252D01*
X0Y251D02*
X7Y251D01*
X1960Y251D02*
X1967Y251D01*
X0Y250D02*
X7Y250D01*
X1960Y250D02*
X1967Y250D01*
X0Y249D02*
X7Y249D01*
X1960Y249D02*
X1967Y249D01*
X0Y248D02*
X7Y248D01*
X1960Y248D02*
X1967Y248D01*
X0Y247D02*
X7Y247D01*
X1960Y247D02*
X1967Y247D01*
X0Y246D02*
X7Y246D01*
X1960Y246D02*
X1967Y246D01*
X0Y245D02*
X7Y245D01*
X1960Y245D02*
X1967Y245D01*
X0Y244D02*
X7Y244D01*
X1960Y244D02*
X1967Y244D01*
X0Y243D02*
X7Y243D01*
X1960Y243D02*
X1967Y243D01*
X0Y242D02*
X7Y242D01*
X1538Y242D02*
X1543Y242D01*
X1960Y242D02*
X1967Y242D01*
X0Y241D02*
X7Y241D01*
X1536Y241D02*
X1546Y241D01*
X1960Y241D02*
X1967Y241D01*
X0Y240D02*
X7Y240D01*
X1534Y240D02*
X1548Y240D01*
X1960Y240D02*
X1967Y240D01*
X0Y239D02*
X7Y239D01*
X1532Y239D02*
X1550Y239D01*
X1960Y239D02*
X1967Y239D01*
X0Y238D02*
X7Y238D01*
X1530Y238D02*
X1538Y238D01*
X1543Y238D02*
X1552Y238D01*
X1960Y238D02*
X1967Y238D01*
X0Y237D02*
X7Y237D01*
X1528Y237D02*
X1536Y237D01*
X1545Y237D02*
X1554Y237D01*
X1960Y237D02*
X1967Y237D01*
X0Y236D02*
X7Y236D01*
X1527Y236D02*
X1534Y236D01*
X1547Y236D02*
X1555Y236D01*
X1960Y236D02*
X1967Y236D01*
X0Y235D02*
X7Y235D01*
X1526Y235D02*
X1532Y235D01*
X1549Y235D02*
X1556Y235D01*
X1960Y235D02*
X1967Y235D01*
X0Y234D02*
X7Y234D01*
X1526Y234D02*
X1530Y234D01*
X1551Y234D02*
X1556Y234D01*
X1960Y234D02*
X1967Y234D01*
X0Y233D02*
X7Y233D01*
X1525Y233D02*
X1529Y233D01*
X1553Y233D02*
X1556Y233D01*
X1960Y233D02*
X1967Y233D01*
X0Y232D02*
X7Y232D01*
X1525Y232D02*
X1528Y232D01*
X1553Y232D02*
X1557Y232D01*
X1960Y232D02*
X1967Y232D01*
X0Y231D02*
X7Y231D01*
X1123Y231D02*
X1139Y231D01*
X1525Y231D02*
X1528Y231D01*
X1553Y231D02*
X1557Y231D01*
X1960Y231D02*
X1967Y231D01*
X0Y230D02*
X7Y230D01*
X1122Y230D02*
X1141Y230D01*
X1525Y230D02*
X1557Y230D01*
X1960Y230D02*
X1967Y230D01*
X0Y229D02*
X7Y229D01*
X855Y229D02*
X887Y229D01*
X1121Y229D02*
X1143Y229D01*
X1525Y229D02*
X1557Y229D01*
X1960Y229D02*
X1967Y229D01*
X0Y228D02*
X7Y228D01*
X855Y228D02*
X888Y228D01*
X1121Y228D02*
X1144Y228D01*
X1525Y228D02*
X1557Y228D01*
X1960Y228D02*
X1967Y228D01*
X0Y227D02*
X7Y227D01*
X855Y227D02*
X888Y227D01*
X1121Y227D02*
X1145Y227D01*
X1525Y227D02*
X1557Y227D01*
X1960Y227D02*
X1967Y227D01*
X0Y226D02*
X7Y226D01*
X855Y226D02*
X888Y226D01*
X1121Y226D02*
X1145Y226D01*
X1525Y226D02*
X1557Y226D01*
X1960Y226D02*
X1967Y226D01*
X0Y225D02*
X7Y225D01*
X855Y225D02*
X888Y225D01*
X1122Y225D02*
X1146Y225D01*
X1525Y225D02*
X1528Y225D01*
X1553Y225D02*
X1557Y225D01*
X1960Y225D02*
X1967Y225D01*
X0Y224D02*
X7Y224D01*
X855Y224D02*
X887Y224D01*
X1128Y224D02*
X1134Y224D01*
X1139Y224D02*
X1146Y224D01*
X1525Y224D02*
X1528Y224D01*
X1553Y224D02*
X1557Y224D01*
X1960Y224D02*
X1967Y224D01*
X0Y223D02*
X7Y223D01*
X855Y223D02*
X885Y223D01*
X1128Y223D02*
X1134Y223D01*
X1140Y223D02*
X1147Y223D01*
X1525Y223D02*
X1528Y223D01*
X1554Y223D02*
X1556Y223D01*
X1960Y223D02*
X1967Y223D01*
X0Y222D02*
X7Y222D01*
X855Y222D02*
X861Y222D01*
X1128Y222D02*
X1134Y222D01*
X1140Y222D02*
X1147Y222D01*
X1527Y222D02*
X1527Y222D01*
X1555Y222D02*
X1555Y222D01*
X1960Y222D02*
X1967Y222D01*
X0Y221D02*
X7Y221D01*
X855Y221D02*
X861Y221D01*
X1128Y221D02*
X1134Y221D01*
X1141Y221D02*
X1148Y221D01*
X1960Y221D02*
X1967Y221D01*
X0Y220D02*
X7Y220D01*
X855Y220D02*
X861Y220D01*
X1128Y220D02*
X1134Y220D01*
X1141Y220D02*
X1148Y220D01*
X1960Y220D02*
X1967Y220D01*
X0Y219D02*
X7Y219D01*
X855Y219D02*
X861Y219D01*
X1128Y219D02*
X1134Y219D01*
X1142Y219D02*
X1149Y219D01*
X1960Y219D02*
X1967Y219D01*
X0Y218D02*
X7Y218D01*
X855Y218D02*
X861Y218D01*
X1128Y218D02*
X1134Y218D01*
X1142Y218D02*
X1149Y218D01*
X1960Y218D02*
X1967Y218D01*
X0Y217D02*
X7Y217D01*
X855Y217D02*
X861Y217D01*
X1128Y217D02*
X1134Y217D01*
X1143Y217D02*
X1150Y217D01*
X1960Y217D02*
X1967Y217D01*
X0Y216D02*
X7Y216D01*
X855Y216D02*
X861Y216D01*
X1128Y216D02*
X1134Y216D01*
X1143Y216D02*
X1150Y216D01*
X1960Y216D02*
X1967Y216D01*
X0Y215D02*
X7Y215D01*
X855Y215D02*
X861Y215D01*
X1128Y215D02*
X1134Y215D01*
X1144Y215D02*
X1151Y215D01*
X1960Y215D02*
X1967Y215D01*
X0Y214D02*
X7Y214D01*
X384Y214D02*
X394Y214D01*
X416Y214D02*
X429Y214D01*
X446Y214D02*
X459Y214D01*
X855Y214D02*
X861Y214D01*
X1128Y214D02*
X1134Y214D01*
X1145Y214D02*
X1151Y214D01*
X1960Y214D02*
X1967Y214D01*
X0Y213D02*
X7Y213D01*
X383Y213D02*
X394Y213D01*
X414Y213D02*
X431Y213D01*
X444Y213D02*
X461Y213D01*
X855Y213D02*
X861Y213D01*
X1128Y213D02*
X1134Y213D01*
X1145Y213D02*
X1152Y213D01*
X1960Y213D02*
X1967Y213D01*
X0Y212D02*
X7Y212D01*
X383Y212D02*
X394Y212D01*
X413Y212D02*
X432Y212D01*
X443Y212D02*
X462Y212D01*
X481Y212D02*
X487Y212D01*
X855Y212D02*
X861Y212D01*
X1128Y212D02*
X1134Y212D01*
X1146Y212D02*
X1152Y212D01*
X1526Y212D02*
X1557Y212D01*
X1960Y212D02*
X1967Y212D01*
X0Y211D02*
X7Y211D01*
X383Y211D02*
X394Y211D01*
X413Y211D02*
X432Y211D01*
X443Y211D02*
X462Y211D01*
X478Y211D02*
X489Y211D01*
X855Y211D02*
X861Y211D01*
X1128Y211D02*
X1134Y211D01*
X1146Y211D02*
X1153Y211D01*
X1525Y211D02*
X1557Y211D01*
X1960Y211D02*
X1967Y211D01*
X0Y210D02*
X7Y210D01*
X384Y210D02*
X394Y210D01*
X413Y210D02*
X432Y210D01*
X443Y210D02*
X462Y210D01*
X476Y210D02*
X491Y210D01*
X855Y210D02*
X861Y210D01*
X1128Y210D02*
X1134Y210D01*
X1147Y210D02*
X1153Y210D01*
X1525Y210D02*
X1557Y210D01*
X1960Y210D02*
X1967Y210D01*
X0Y209D02*
X7Y209D01*
X391Y209D02*
X394Y209D01*
X413Y209D02*
X416Y209D01*
X429Y209D02*
X432Y209D01*
X443Y209D02*
X446Y209D01*
X459Y209D02*
X463Y209D01*
X475Y209D02*
X492Y209D01*
X855Y209D02*
X861Y209D01*
X1128Y209D02*
X1134Y209D01*
X1147Y209D02*
X1154Y209D01*
X1526Y209D02*
X1557Y209D01*
X1960Y209D02*
X1967Y209D01*
X0Y208D02*
X7Y208D01*
X391Y208D02*
X394Y208D01*
X413Y208D02*
X416Y208D01*
X429Y208D02*
X432Y208D01*
X443Y208D02*
X446Y208D01*
X459Y208D02*
X463Y208D01*
X474Y208D02*
X479Y208D01*
X488Y208D02*
X493Y208D01*
X855Y208D02*
X861Y208D01*
X1128Y208D02*
X1134Y208D01*
X1148Y208D02*
X1154Y208D01*
X1549Y208D02*
X1557Y208D01*
X1960Y208D02*
X1967Y208D01*
X0Y207D02*
X7Y207D01*
X391Y207D02*
X394Y207D01*
X413Y207D02*
X416Y207D01*
X429Y207D02*
X432Y207D01*
X443Y207D02*
X446Y207D01*
X459Y207D02*
X463Y207D01*
X473Y207D02*
X477Y207D01*
X490Y207D02*
X494Y207D01*
X855Y207D02*
X861Y207D01*
X1128Y207D02*
X1134Y207D01*
X1148Y207D02*
X1154Y207D01*
X1547Y207D02*
X1556Y207D01*
X1960Y207D02*
X1967Y207D01*
X0Y206D02*
X7Y206D01*
X391Y206D02*
X394Y206D01*
X413Y206D02*
X416Y206D01*
X429Y206D02*
X432Y206D01*
X443Y206D02*
X446Y206D01*
X459Y206D02*
X463Y206D01*
X472Y206D02*
X476Y206D01*
X491Y206D02*
X495Y206D01*
X855Y206D02*
X873Y206D01*
X1128Y206D02*
X1134Y206D01*
X1148Y206D02*
X1154Y206D01*
X1545Y206D02*
X1554Y206D01*
X1960Y206D02*
X1967Y206D01*
X0Y205D02*
X7Y205D01*
X391Y205D02*
X394Y205D01*
X413Y205D02*
X416Y205D01*
X429Y205D02*
X432Y205D01*
X443Y205D02*
X446Y205D01*
X459Y205D02*
X463Y205D01*
X472Y205D02*
X475Y205D01*
X492Y205D02*
X496Y205D01*
X855Y205D02*
X874Y205D01*
X1128Y205D02*
X1134Y205D01*
X1148Y205D02*
X1154Y205D01*
X1543Y205D02*
X1552Y205D01*
X1960Y205D02*
X1967Y205D01*
X0Y204D02*
X7Y204D01*
X391Y204D02*
X394Y204D01*
X413Y204D02*
X416Y204D01*
X429Y204D02*
X432Y204D01*
X443Y204D02*
X446Y204D01*
X459Y204D02*
X463Y204D01*
X471Y204D02*
X475Y204D01*
X492Y204D02*
X496Y204D01*
X855Y204D02*
X874Y204D01*
X1128Y204D02*
X1134Y204D01*
X1148Y204D02*
X1154Y204D01*
X1540Y204D02*
X1550Y204D01*
X1960Y204D02*
X1967Y204D01*
X0Y203D02*
X7Y203D01*
X391Y203D02*
X394Y203D01*
X413Y203D02*
X416Y203D01*
X429Y203D02*
X432Y203D01*
X443Y203D02*
X446Y203D01*
X459Y203D02*
X463Y203D01*
X471Y203D02*
X474Y203D01*
X493Y203D02*
X496Y203D01*
X855Y203D02*
X874Y203D01*
X1128Y203D02*
X1134Y203D01*
X1148Y203D02*
X1154Y203D01*
X1538Y203D02*
X1548Y203D01*
X1960Y203D02*
X1967Y203D01*
X0Y202D02*
X7Y202D01*
X391Y202D02*
X394Y202D01*
X413Y202D02*
X416Y202D01*
X429Y202D02*
X432Y202D01*
X443Y202D02*
X446Y202D01*
X459Y202D02*
X463Y202D01*
X471Y202D02*
X474Y202D01*
X493Y202D02*
X497Y202D01*
X855Y202D02*
X874Y202D01*
X1128Y202D02*
X1134Y202D01*
X1148Y202D02*
X1154Y202D01*
X1536Y202D02*
X1545Y202D01*
X1960Y202D02*
X1967Y202D01*
X0Y201D02*
X7Y201D01*
X391Y201D02*
X394Y201D01*
X413Y201D02*
X416Y201D01*
X429Y201D02*
X432Y201D01*
X443Y201D02*
X446Y201D01*
X459Y201D02*
X463Y201D01*
X470Y201D02*
X474Y201D01*
X494Y201D02*
X497Y201D01*
X855Y201D02*
X874Y201D01*
X1128Y201D02*
X1134Y201D01*
X1148Y201D02*
X1154Y201D01*
X1534Y201D02*
X1543Y201D01*
X1960Y201D02*
X1967Y201D01*
X0Y200D02*
X7Y200D01*
X391Y200D02*
X394Y200D01*
X413Y200D02*
X416Y200D01*
X429Y200D02*
X432Y200D01*
X443Y200D02*
X446Y200D01*
X459Y200D02*
X463Y200D01*
X470Y200D02*
X473Y200D01*
X494Y200D02*
X497Y200D01*
X855Y200D02*
X873Y200D01*
X1128Y200D02*
X1134Y200D01*
X1147Y200D02*
X1154Y200D01*
X1531Y200D02*
X1541Y200D01*
X1960Y200D02*
X1967Y200D01*
X0Y199D02*
X7Y199D01*
X292Y199D02*
X359Y199D01*
X391Y199D02*
X394Y199D01*
X413Y199D02*
X416Y199D01*
X429Y199D02*
X432Y199D01*
X443Y199D02*
X446Y199D01*
X459Y199D02*
X463Y199D01*
X470Y199D02*
X473Y199D01*
X494Y199D02*
X497Y199D01*
X560Y199D02*
X607Y199D01*
X855Y199D02*
X861Y199D01*
X1128Y199D02*
X1134Y199D01*
X1147Y199D02*
X1153Y199D01*
X1529Y199D02*
X1538Y199D01*
X1960Y199D02*
X1967Y199D01*
X0Y198D02*
X7Y198D01*
X292Y198D02*
X359Y198D01*
X391Y198D02*
X394Y198D01*
X413Y198D02*
X416Y198D01*
X429Y198D02*
X432Y198D01*
X443Y198D02*
X446Y198D01*
X459Y198D02*
X463Y198D01*
X470Y198D02*
X473Y198D01*
X494Y198D02*
X497Y198D01*
X560Y198D02*
X607Y198D01*
X855Y198D02*
X861Y198D01*
X1128Y198D02*
X1134Y198D01*
X1146Y198D02*
X1153Y198D01*
X1527Y198D02*
X1536Y198D01*
X1960Y198D02*
X1967Y198D01*
X0Y197D02*
X7Y197D01*
X293Y197D02*
X359Y197D01*
X391Y197D02*
X394Y197D01*
X413Y197D02*
X416Y197D01*
X429Y197D02*
X432Y197D01*
X443Y197D02*
X446Y197D01*
X459Y197D02*
X463Y197D01*
X470Y197D02*
X473Y197D01*
X494Y197D02*
X497Y197D01*
X560Y197D02*
X607Y197D01*
X855Y197D02*
X861Y197D01*
X1128Y197D02*
X1134Y197D01*
X1146Y197D02*
X1153Y197D01*
X1525Y197D02*
X1534Y197D01*
X1960Y197D02*
X1967Y197D01*
X0Y196D02*
X7Y196D01*
X293Y196D02*
X359Y196D01*
X391Y196D02*
X394Y196D01*
X400Y196D02*
X401Y196D01*
X413Y196D02*
X416Y196D01*
X429Y196D02*
X432Y196D01*
X443Y196D02*
X446Y196D01*
X459Y196D02*
X463Y196D01*
X470Y196D02*
X473Y196D01*
X494Y196D02*
X497Y196D01*
X560Y196D02*
X607Y196D01*
X855Y196D02*
X861Y196D01*
X1128Y196D02*
X1134Y196D01*
X1145Y196D02*
X1152Y196D01*
X1525Y196D02*
X1554Y196D01*
X1960Y196D02*
X1967Y196D01*
X0Y195D02*
X7Y195D01*
X293Y195D02*
X359Y195D01*
X391Y195D02*
X394Y195D01*
X399Y195D02*
X402Y195D01*
X413Y195D02*
X416Y195D01*
X429Y195D02*
X432Y195D01*
X443Y195D02*
X446Y195D01*
X459Y195D02*
X463Y195D01*
X470Y195D02*
X474Y195D01*
X493Y195D02*
X497Y195D01*
X560Y195D02*
X607Y195D01*
X855Y195D02*
X861Y195D01*
X1128Y195D02*
X1134Y195D01*
X1145Y195D02*
X1152Y195D01*
X1525Y195D02*
X1556Y195D01*
X1960Y195D02*
X1967Y195D01*
X0Y194D02*
X7Y194D01*
X293Y194D02*
X359Y194D01*
X391Y194D02*
X394Y194D01*
X399Y194D02*
X402Y194D01*
X413Y194D02*
X416Y194D01*
X429Y194D02*
X432Y194D01*
X443Y194D02*
X446Y194D01*
X459Y194D02*
X463Y194D01*
X471Y194D02*
X474Y194D01*
X493Y194D02*
X497Y194D01*
X560Y194D02*
X607Y194D01*
X855Y194D02*
X861Y194D01*
X1128Y194D02*
X1134Y194D01*
X1144Y194D02*
X1151Y194D01*
X1525Y194D02*
X1557Y194D01*
X1960Y194D02*
X1967Y194D01*
X0Y193D02*
X7Y193D01*
X293Y193D02*
X359Y193D01*
X391Y193D02*
X394Y193D01*
X399Y193D02*
X402Y193D01*
X413Y193D02*
X416Y193D01*
X429Y193D02*
X432Y193D01*
X443Y193D02*
X446Y193D01*
X459Y193D02*
X463Y193D01*
X471Y193D02*
X474Y193D01*
X493Y193D02*
X496Y193D01*
X560Y193D02*
X607Y193D01*
X855Y193D02*
X861Y193D01*
X1128Y193D02*
X1134Y193D01*
X1144Y193D02*
X1151Y193D01*
X1525Y193D02*
X1556Y193D01*
X1960Y193D02*
X1967Y193D01*
X0Y192D02*
X7Y192D01*
X293Y192D02*
X359Y192D01*
X391Y192D02*
X394Y192D01*
X399Y192D02*
X402Y192D01*
X413Y192D02*
X416Y192D01*
X429Y192D02*
X432Y192D01*
X443Y192D02*
X446Y192D01*
X459Y192D02*
X463Y192D01*
X471Y192D02*
X475Y192D01*
X493Y192D02*
X496Y192D01*
X560Y192D02*
X607Y192D01*
X855Y192D02*
X861Y192D01*
X1128Y192D02*
X1134Y192D01*
X1143Y192D02*
X1150Y192D01*
X1525Y192D02*
X1555Y192D01*
X1960Y192D02*
X1967Y192D01*
X0Y191D02*
X7Y191D01*
X292Y191D02*
X359Y191D01*
X391Y191D02*
X394Y191D01*
X399Y191D02*
X402Y191D01*
X413Y191D02*
X416Y191D01*
X429Y191D02*
X432Y191D01*
X443Y191D02*
X446Y191D01*
X459Y191D02*
X463Y191D01*
X472Y191D02*
X475Y191D01*
X492Y191D02*
X496Y191D01*
X560Y191D02*
X607Y191D01*
X855Y191D02*
X861Y191D01*
X1128Y191D02*
X1134Y191D01*
X1143Y191D02*
X1150Y191D01*
X1960Y191D02*
X1967Y191D01*
X0Y190D02*
X7Y190D01*
X292Y190D02*
X358Y190D01*
X391Y190D02*
X394Y190D01*
X399Y190D02*
X402Y190D01*
X413Y190D02*
X416Y190D01*
X429Y190D02*
X432Y190D01*
X443Y190D02*
X446Y190D01*
X459Y190D02*
X463Y190D01*
X472Y190D02*
X476Y190D01*
X491Y190D02*
X495Y190D01*
X560Y190D02*
X607Y190D01*
X855Y190D02*
X861Y190D01*
X1128Y190D02*
X1134Y190D01*
X1142Y190D02*
X1149Y190D01*
X1960Y190D02*
X1967Y190D01*
X0Y189D02*
X7Y189D01*
X391Y189D02*
X394Y189D01*
X399Y189D02*
X402Y189D01*
X413Y189D02*
X416Y189D01*
X429Y189D02*
X432Y189D01*
X443Y189D02*
X446Y189D01*
X459Y189D02*
X463Y189D01*
X473Y189D02*
X477Y189D01*
X491Y189D02*
X494Y189D01*
X855Y189D02*
X861Y189D01*
X1128Y189D02*
X1134Y189D01*
X1142Y189D02*
X1149Y189D01*
X1960Y189D02*
X1967Y189D01*
X0Y188D02*
X7Y188D01*
X391Y188D02*
X394Y188D01*
X399Y188D02*
X402Y188D01*
X413Y188D02*
X416Y188D01*
X429Y188D02*
X432Y188D01*
X443Y188D02*
X446Y188D01*
X459Y188D02*
X463Y188D01*
X474Y188D02*
X477Y188D01*
X490Y188D02*
X494Y188D01*
X855Y188D02*
X861Y188D01*
X1128Y188D02*
X1134Y188D01*
X1141Y188D02*
X1148Y188D01*
X1960Y188D02*
X1967Y188D01*
X0Y187D02*
X7Y187D01*
X391Y187D02*
X394Y187D01*
X399Y187D02*
X402Y187D01*
X413Y187D02*
X416Y187D01*
X429Y187D02*
X432Y187D01*
X443Y187D02*
X446Y187D01*
X459Y187D02*
X463Y187D01*
X475Y187D02*
X479Y187D01*
X489Y187D02*
X493Y187D01*
X855Y187D02*
X861Y187D01*
X1128Y187D02*
X1134Y187D01*
X1141Y187D02*
X1148Y187D01*
X1960Y187D02*
X1967Y187D01*
X0Y186D02*
X7Y186D01*
X390Y186D02*
X394Y186D01*
X399Y186D02*
X402Y186D01*
X413Y186D02*
X416Y186D01*
X429Y186D02*
X432Y186D01*
X443Y186D02*
X446Y186D01*
X459Y186D02*
X463Y186D01*
X476Y186D02*
X480Y186D01*
X487Y186D02*
X492Y186D01*
X855Y186D02*
X861Y186D01*
X1128Y186D02*
X1134Y186D01*
X1140Y186D02*
X1147Y186D01*
X1960Y186D02*
X1967Y186D01*
X0Y185D02*
X7Y185D01*
X383Y185D02*
X402Y185D01*
X413Y185D02*
X432Y185D01*
X443Y185D02*
X462Y185D01*
X470Y185D02*
X481Y185D01*
X486Y185D02*
X497Y185D01*
X855Y185D02*
X861Y185D01*
X1128Y185D02*
X1134Y185D01*
X1139Y185D02*
X1147Y185D01*
X1960Y185D02*
X1967Y185D01*
X0Y184D02*
X7Y184D01*
X383Y184D02*
X402Y184D01*
X413Y184D02*
X432Y184D01*
X443Y184D02*
X462Y184D01*
X470Y184D02*
X481Y184D01*
X486Y184D02*
X497Y184D01*
X855Y184D02*
X861Y184D01*
X1123Y184D02*
X1146Y184D01*
X1960Y184D02*
X1967Y184D01*
X0Y183D02*
X7Y183D01*
X383Y183D02*
X402Y183D01*
X414Y183D02*
X431Y183D01*
X444Y183D02*
X461Y183D01*
X470Y183D02*
X481Y183D01*
X486Y183D02*
X497Y183D01*
X855Y183D02*
X861Y183D01*
X1122Y183D02*
X1146Y183D01*
X1960Y183D02*
X1967Y183D01*
X0Y182D02*
X7Y182D01*
X384Y182D02*
X401Y182D01*
X415Y182D02*
X430Y182D01*
X446Y182D02*
X460Y182D01*
X470Y182D02*
X481Y182D01*
X486Y182D02*
X497Y182D01*
X855Y182D02*
X887Y182D01*
X1121Y182D02*
X1145Y182D01*
X1526Y182D02*
X1527Y182D01*
X1543Y182D02*
X1552Y182D01*
X1960Y182D02*
X1967Y182D01*
X0Y181D02*
X7Y181D01*
X855Y181D02*
X888Y181D01*
X1121Y181D02*
X1144Y181D01*
X1525Y181D02*
X1528Y181D01*
X1543Y181D02*
X1554Y181D01*
X1960Y181D02*
X1967Y181D01*
X0Y180D02*
X7Y180D01*
X855Y180D02*
X888Y180D01*
X1121Y180D02*
X1143Y180D01*
X1525Y180D02*
X1528Y180D01*
X1543Y180D02*
X1555Y180D01*
X1960Y180D02*
X1967Y180D01*
X0Y179D02*
X7Y179D01*
X855Y179D02*
X888Y179D01*
X1121Y179D02*
X1142Y179D01*
X1525Y179D02*
X1528Y179D01*
X1543Y179D02*
X1556Y179D01*
X1960Y179D02*
X1967Y179D01*
X0Y178D02*
X7Y178D01*
X855Y178D02*
X888Y178D01*
X1122Y178D02*
X1140Y178D01*
X1525Y178D02*
X1528Y178D01*
X1543Y178D02*
X1546Y178D01*
X1552Y178D02*
X1556Y178D01*
X1960Y178D02*
X1967Y178D01*
X0Y177D02*
X7Y177D01*
X855Y177D02*
X887Y177D01*
X1525Y177D02*
X1528Y177D01*
X1543Y177D02*
X1546Y177D01*
X1553Y177D02*
X1557Y177D01*
X1960Y177D02*
X1967Y177D01*
X0Y176D02*
X7Y176D01*
X855Y176D02*
X885Y176D01*
X1525Y176D02*
X1528Y176D01*
X1543Y176D02*
X1546Y176D01*
X1553Y176D02*
X1557Y176D01*
X1960Y176D02*
X1967Y176D01*
X0Y175D02*
X7Y175D01*
X1525Y175D02*
X1528Y175D01*
X1543Y175D02*
X1546Y175D01*
X1553Y175D02*
X1557Y175D01*
X1960Y175D02*
X1967Y175D01*
X0Y174D02*
X7Y174D01*
X1525Y174D02*
X1528Y174D01*
X1543Y174D02*
X1546Y174D01*
X1553Y174D02*
X1557Y174D01*
X1960Y174D02*
X1967Y174D01*
X0Y173D02*
X7Y173D01*
X1525Y173D02*
X1529Y173D01*
X1543Y173D02*
X1546Y173D01*
X1553Y173D02*
X1557Y173D01*
X1960Y173D02*
X1967Y173D01*
X0Y172D02*
X7Y172D01*
X1525Y172D02*
X1530Y172D01*
X1553Y172D02*
X1557Y172D01*
X1960Y172D02*
X1967Y172D01*
X0Y171D02*
X7Y171D01*
X1526Y171D02*
X1531Y171D01*
X1553Y171D02*
X1557Y171D01*
X1960Y171D02*
X1967Y171D01*
X0Y170D02*
X7Y170D01*
X1527Y170D02*
X1532Y170D01*
X1553Y170D02*
X1557Y170D01*
X1960Y170D02*
X1967Y170D01*
X0Y169D02*
X7Y169D01*
X1528Y169D02*
X1534Y169D01*
X1553Y169D02*
X1557Y169D01*
X1960Y169D02*
X1967Y169D01*
X0Y168D02*
X7Y168D01*
X1529Y168D02*
X1535Y168D01*
X1553Y168D02*
X1557Y168D01*
X1960Y168D02*
X1967Y168D01*
X0Y167D02*
X7Y167D01*
X1530Y167D02*
X1536Y167D01*
X1553Y167D02*
X1556Y167D01*
X1960Y167D02*
X1967Y167D01*
X0Y166D02*
X7Y166D01*
X1532Y166D02*
X1539Y166D01*
X1552Y166D02*
X1556Y166D01*
X1960Y166D02*
X1967Y166D01*
X0Y165D02*
X7Y165D01*
X1533Y165D02*
X1556Y165D01*
X1960Y165D02*
X1967Y165D01*
X0Y164D02*
X7Y164D01*
X1534Y164D02*
X1555Y164D01*
X1960Y164D02*
X1967Y164D01*
X0Y163D02*
X7Y163D01*
X1536Y163D02*
X1554Y163D01*
X1960Y163D02*
X1967Y163D01*
X0Y162D02*
X7Y162D01*
X1538Y162D02*
X1552Y162D01*
X1960Y162D02*
X1967Y162D01*
X0Y161D02*
X7Y161D01*
X1960Y161D02*
X1967Y161D01*
X0Y160D02*
X7Y160D01*
X1960Y160D02*
X1967Y160D01*
X0Y159D02*
X7Y159D01*
X1960Y159D02*
X1967Y159D01*
X0Y158D02*
X7Y158D01*
X1960Y158D02*
X1967Y158D01*
X0Y157D02*
X7Y157D01*
X1960Y157D02*
X1967Y157D01*
X0Y156D02*
X7Y156D01*
X1960Y156D02*
X1967Y156D01*
X0Y155D02*
X7Y155D01*
X1960Y155D02*
X1967Y155D01*
X0Y154D02*
X7Y154D01*
X1960Y154D02*
X1967Y154D01*
X0Y153D02*
X7Y153D01*
X1960Y153D02*
X1967Y153D01*
X0Y152D02*
X7Y152D01*
X1960Y152D02*
X1967Y152D01*
X0Y151D02*
X7Y151D01*
X1960Y151D02*
X1967Y151D01*
X0Y150D02*
X7Y150D01*
X1960Y150D02*
X1967Y150D01*
X0Y149D02*
X7Y149D01*
X1960Y149D02*
X1967Y149D01*
X0Y148D02*
X7Y148D01*
X1960Y148D02*
X1967Y148D01*
X0Y147D02*
X7Y147D01*
X1960Y147D02*
X1967Y147D01*
X0Y146D02*
X7Y146D01*
X1960Y146D02*
X1967Y146D01*
X0Y145D02*
X7Y145D01*
X1960Y145D02*
X1967Y145D01*
X0Y144D02*
X7Y144D01*
X1960Y144D02*
X1967Y144D01*
X0Y143D02*
X7Y143D01*
X1960Y143D02*
X1967Y143D01*
X0Y142D02*
X7Y142D01*
X1960Y142D02*
X1967Y142D01*
X0Y141D02*
X7Y141D01*
X1960Y141D02*
X1967Y141D01*
X0Y140D02*
X7Y140D01*
X1960Y140D02*
X1967Y140D01*
X0Y139D02*
X7Y139D01*
X1960Y139D02*
X1967Y139D01*
X0Y138D02*
X7Y138D01*
X1960Y138D02*
X1967Y138D01*
X0Y137D02*
X7Y137D01*
X1960Y137D02*
X1967Y137D01*
X0Y136D02*
X7Y136D01*
X1960Y136D02*
X1967Y136D01*
X0Y135D02*
X7Y135D01*
X1960Y135D02*
X1967Y135D01*
X0Y134D02*
X7Y134D01*
X1960Y134D02*
X1967Y134D01*
X0Y133D02*
X7Y133D01*
X1960Y133D02*
X1967Y133D01*
X0Y132D02*
X7Y132D01*
X1960Y132D02*
X1967Y132D01*
X0Y131D02*
X7Y131D01*
X997Y131D02*
X998Y131D01*
X1097Y131D02*
X1098Y131D01*
X1960Y131D02*
X1967Y131D01*
X0Y130D02*
X7Y130D01*
X996Y130D02*
X999Y130D01*
X1096Y130D02*
X1099Y130D01*
X1960Y130D02*
X1967Y130D01*
X0Y129D02*
X7Y129D01*
X995Y129D02*
X1000Y129D01*
X1095Y129D02*
X1100Y129D01*
X1960Y129D02*
X1967Y129D01*
X0Y128D02*
X7Y128D01*
X994Y128D02*
X1000Y128D01*
X1094Y128D02*
X1100Y128D01*
X1960Y128D02*
X1967Y128D01*
X0Y127D02*
X7Y127D01*
X993Y127D02*
X999Y127D01*
X1093Y127D02*
X1099Y127D01*
X1960Y127D02*
X1967Y127D01*
X0Y126D02*
X7Y126D01*
X992Y126D02*
X998Y126D01*
X1092Y126D02*
X1098Y126D01*
X1960Y126D02*
X1967Y126D01*
X0Y125D02*
X7Y125D01*
X991Y125D02*
X997Y125D01*
X1091Y125D02*
X1097Y125D01*
X1960Y125D02*
X1967Y125D01*
X0Y124D02*
X7Y124D01*
X990Y124D02*
X996Y124D01*
X1090Y124D02*
X1096Y124D01*
X1960Y124D02*
X1967Y124D01*
X0Y123D02*
X7Y123D01*
X989Y123D02*
X995Y123D01*
X1089Y123D02*
X1095Y123D01*
X1960Y123D02*
X1967Y123D01*
X0Y122D02*
X7Y122D01*
X988Y122D02*
X994Y122D01*
X1088Y122D02*
X1094Y122D01*
X1551Y122D02*
X1552Y122D01*
X1960Y122D02*
X1967Y122D01*
X0Y121D02*
X7Y121D01*
X987Y121D02*
X993Y121D01*
X1087Y121D02*
X1093Y121D01*
X1550Y121D02*
X1554Y121D01*
X1960Y121D02*
X1967Y121D01*
X0Y120D02*
X7Y120D01*
X986Y120D02*
X992Y120D01*
X1086Y120D02*
X1092Y120D01*
X1535Y120D02*
X1536Y120D01*
X1550Y120D02*
X1555Y120D01*
X1960Y120D02*
X1967Y120D01*
X0Y119D02*
X7Y119D01*
X985Y119D02*
X991Y119D01*
X1085Y119D02*
X1091Y119D01*
X1534Y119D02*
X1537Y119D01*
X1550Y119D02*
X1556Y119D01*
X1960Y119D02*
X1967Y119D01*
X0Y118D02*
X7Y118D01*
X984Y118D02*
X990Y118D01*
X1084Y118D02*
X1090Y118D01*
X1534Y118D02*
X1537Y118D01*
X1552Y118D02*
X1556Y118D01*
X1960Y118D02*
X1967Y118D01*
X0Y117D02*
X7Y117D01*
X983Y117D02*
X989Y117D01*
X1083Y117D02*
X1089Y117D01*
X1534Y117D02*
X1537Y117D01*
X1553Y117D02*
X1556Y117D01*
X1960Y117D02*
X1967Y117D01*
X0Y116D02*
X7Y116D01*
X982Y116D02*
X988Y116D01*
X1082Y116D02*
X1088Y116D01*
X1534Y116D02*
X1537Y116D01*
X1553Y116D02*
X1557Y116D01*
X1960Y116D02*
X1967Y116D01*
X0Y115D02*
X7Y115D01*
X982Y115D02*
X987Y115D01*
X1081Y115D02*
X1087Y115D01*
X1534Y115D02*
X1537Y115D01*
X1553Y115D02*
X1557Y115D01*
X1960Y115D02*
X1967Y115D01*
X0Y114D02*
X7Y114D01*
X981Y114D02*
X986Y114D01*
X1081Y114D02*
X1086Y114D01*
X1534Y114D02*
X1537Y114D01*
X1553Y114D02*
X1557Y114D01*
X1960Y114D02*
X1967Y114D01*
X0Y113D02*
X7Y113D01*
X979Y113D02*
X985Y113D01*
X1079Y113D02*
X1085Y113D01*
X1534Y113D02*
X1537Y113D01*
X1553Y113D02*
X1557Y113D01*
X1960Y113D02*
X1967Y113D01*
X0Y112D02*
X7Y112D01*
X978Y112D02*
X984Y112D01*
X1078Y112D02*
X1084Y112D01*
X1534Y112D02*
X1537Y112D01*
X1553Y112D02*
X1557Y112D01*
X1960Y112D02*
X1967Y112D01*
X0Y111D02*
X7Y111D01*
X977Y111D02*
X983Y111D01*
X1077Y111D02*
X1083Y111D01*
X1534Y111D02*
X1537Y111D01*
X1553Y111D02*
X1556Y111D01*
X1960Y111D02*
X1967Y111D01*
X0Y110D02*
X7Y110D01*
X976Y110D02*
X982Y110D01*
X1076Y110D02*
X1082Y110D01*
X1534Y110D02*
X1537Y110D01*
X1552Y110D02*
X1556Y110D01*
X1960Y110D02*
X1967Y110D01*
X0Y109D02*
X7Y109D01*
X975Y109D02*
X981Y109D01*
X1075Y109D02*
X1081Y109D01*
X1527Y109D02*
X1556Y109D01*
X1960Y109D02*
X1967Y109D01*
X0Y108D02*
X7Y108D01*
X974Y108D02*
X980Y108D01*
X1074Y108D02*
X1080Y108D01*
X1527Y108D02*
X1555Y108D01*
X1960Y108D02*
X1967Y108D01*
X0Y107D02*
X7Y107D01*
X973Y107D02*
X979Y107D01*
X1073Y107D02*
X1079Y107D01*
X1527Y107D02*
X1554Y107D01*
X1960Y107D02*
X1967Y107D01*
X0Y106D02*
X7Y106D01*
X972Y106D02*
X978Y106D01*
X1072Y106D02*
X1078Y106D01*
X1528Y106D02*
X1552Y106D01*
X1960Y106D02*
X1967Y106D01*
X0Y105D02*
X7Y105D01*
X971Y105D02*
X977Y105D01*
X1071Y105D02*
X1077Y105D01*
X1534Y105D02*
X1537Y105D01*
X1960Y105D02*
X1967Y105D01*
X0Y104D02*
X7Y104D01*
X970Y104D02*
X976Y104D01*
X1070Y104D02*
X1076Y104D01*
X1534Y104D02*
X1537Y104D01*
X1960Y104D02*
X1967Y104D01*
X0Y103D02*
X7Y103D01*
X969Y103D02*
X975Y103D01*
X1069Y103D02*
X1075Y103D01*
X1534Y103D02*
X1537Y103D01*
X1960Y103D02*
X1967Y103D01*
X0Y102D02*
X7Y102D01*
X968Y102D02*
X974Y102D01*
X1068Y102D02*
X1074Y102D01*
X1535Y102D02*
X1535Y102D01*
X1960Y102D02*
X1967Y102D01*
X0Y101D02*
X7Y101D01*
X967Y101D02*
X973Y101D01*
X1067Y101D02*
X1073Y101D01*
X1960Y101D02*
X1967Y101D01*
X0Y100D02*
X7Y100D01*
X966Y100D02*
X972Y100D01*
X1066Y100D02*
X1072Y100D01*
X1960Y100D02*
X1967Y100D01*
X0Y99D02*
X7Y99D01*
X965Y99D02*
X971Y99D01*
X1065Y99D02*
X1071Y99D01*
X1960Y99D02*
X1967Y99D01*
X0Y98D02*
X7Y98D01*
X964Y98D02*
X970Y98D01*
X1064Y98D02*
X1070Y98D01*
X1960Y98D02*
X1967Y98D01*
X0Y97D02*
X7Y97D01*
X963Y97D02*
X969Y97D01*
X1063Y97D02*
X1069Y97D01*
X1960Y97D02*
X1967Y97D01*
X0Y96D02*
X7Y96D01*
X964Y96D02*
X968Y96D01*
X1064Y96D02*
X1068Y96D01*
X1960Y96D02*
X1967Y96D01*
X0Y95D02*
X7Y95D01*
X965Y95D02*
X967Y95D01*
X1065Y95D02*
X1067Y95D01*
X1960Y95D02*
X1967Y95D01*
X0Y94D02*
X7Y94D01*
X634Y94D02*
X644Y94D01*
X665Y94D02*
X671Y94D01*
X688Y94D02*
X689Y94D01*
X697Y94D02*
X701Y94D01*
X721Y94D02*
X730Y94D01*
X751Y94D02*
X758Y94D01*
X775Y94D02*
X775Y94D01*
X783Y94D02*
X788Y94D01*
X966Y94D02*
X966Y94D01*
X1066Y94D02*
X1066Y94D01*
X1960Y94D02*
X1967Y94D01*
X0Y93D02*
X7Y93D01*
X632Y93D02*
X646Y93D01*
X662Y93D02*
X673Y93D01*
X687Y93D02*
X690Y93D01*
X695Y93D02*
X703Y93D01*
X718Y93D02*
X733Y93D01*
X749Y93D02*
X760Y93D01*
X774Y93D02*
X776Y93D01*
X781Y93D02*
X790Y93D01*
X1960Y93D02*
X1967Y93D01*
X0Y92D02*
X7Y92D01*
X631Y92D02*
X647Y92D01*
X661Y92D02*
X674Y92D01*
X687Y92D02*
X690Y92D01*
X693Y92D02*
X704Y92D01*
X717Y92D02*
X734Y92D01*
X747Y92D02*
X761Y92D01*
X774Y92D02*
X777Y92D01*
X780Y92D02*
X791Y92D01*
X1535Y92D02*
X1555Y92D01*
X1960Y92D02*
X1967Y92D01*
X0Y91D02*
X7Y91D01*
X630Y91D02*
X647Y91D01*
X660Y91D02*
X675Y91D01*
X687Y91D02*
X705Y91D01*
X717Y91D02*
X734Y91D01*
X746Y91D02*
X762Y91D01*
X774Y91D02*
X777Y91D01*
X779Y91D02*
X792Y91D01*
X1534Y91D02*
X1556Y91D01*
X1960Y91D02*
X1967Y91D01*
X0Y90D02*
X7Y90D01*
X260Y90D02*
X270Y90D01*
X290Y90D02*
X292Y90D01*
X630Y90D02*
X634Y90D01*
X644Y90D02*
X648Y90D01*
X659Y90D02*
X664Y90D01*
X671Y90D02*
X676Y90D01*
X687Y90D02*
X696Y90D01*
X701Y90D02*
X705Y90D01*
X717Y90D02*
X720Y90D01*
X730Y90D02*
X734Y90D01*
X746Y90D02*
X751Y90D01*
X758Y90D02*
X763Y90D01*
X774Y90D02*
X783Y90D01*
X788Y90D02*
X792Y90D01*
X1534Y90D02*
X1557Y90D01*
X1960Y90D02*
X1967Y90D01*
X0Y89D02*
X7Y89D01*
X259Y89D02*
X270Y89D01*
X289Y89D02*
X292Y89D01*
X630Y89D02*
X633Y89D01*
X645Y89D02*
X647Y89D01*
X658Y89D02*
X662Y89D01*
X673Y89D02*
X677Y89D01*
X687Y89D02*
X695Y89D01*
X702Y89D02*
X705Y89D01*
X716Y89D02*
X719Y89D01*
X732Y89D02*
X734Y89D01*
X745Y89D02*
X749Y89D01*
X759Y89D02*
X763Y89D01*
X774Y89D02*
X782Y89D01*
X789Y89D02*
X793Y89D01*
X1534Y89D02*
X1556Y89D01*
X1960Y89D02*
X1967Y89D01*
X0Y88D02*
X7Y88D01*
X259Y88D02*
X270Y88D01*
X289Y88D02*
X292Y88D01*
X325Y88D02*
X335Y88D01*
X630Y88D02*
X633Y88D01*
X658Y88D02*
X661Y88D01*
X674Y88D02*
X677Y88D01*
X687Y88D02*
X693Y88D01*
X703Y88D02*
X706Y88D01*
X716Y88D02*
X720Y88D01*
X745Y88D02*
X748Y88D01*
X760Y88D02*
X764Y88D01*
X774Y88D02*
X781Y88D01*
X790Y88D02*
X793Y88D01*
X1549Y88D02*
X1554Y88D01*
X1960Y88D02*
X1967Y88D01*
X0Y87D02*
X7Y87D01*
X260Y87D02*
X270Y87D01*
X289Y87D02*
X292Y87D01*
X323Y87D02*
X337Y87D01*
X630Y87D02*
X636Y87D01*
X658Y87D02*
X661Y87D01*
X674Y87D02*
X677Y87D01*
X687Y87D02*
X692Y87D01*
X703Y87D02*
X706Y87D01*
X717Y87D02*
X722Y87D01*
X745Y87D02*
X748Y87D01*
X761Y87D02*
X764Y87D01*
X774Y87D02*
X780Y87D01*
X790Y87D02*
X793Y87D01*
X1550Y87D02*
X1554Y87D01*
X1960Y87D02*
X1967Y87D01*
X0Y86D02*
X7Y86D01*
X267Y86D02*
X270Y86D01*
X289Y86D02*
X292Y86D01*
X321Y86D02*
X338Y86D01*
X631Y86D02*
X638Y86D01*
X658Y86D02*
X661Y86D01*
X674Y86D02*
X677Y86D01*
X687Y86D02*
X690Y86D01*
X703Y86D02*
X706Y86D01*
X717Y86D02*
X725Y86D01*
X745Y86D02*
X748Y86D01*
X761Y86D02*
X764Y86D01*
X774Y86D02*
X779Y86D01*
X790Y86D02*
X792Y86D01*
X1550Y86D02*
X1554Y86D01*
X1960Y86D02*
X1967Y86D01*
X0Y85D02*
X7Y85D01*
X267Y85D02*
X270Y85D01*
X289Y85D02*
X292Y85D01*
X320Y85D02*
X326Y85D01*
X334Y85D02*
X339Y85D01*
X632Y85D02*
X640Y85D01*
X658Y85D02*
X661Y85D01*
X674Y85D02*
X677Y85D01*
X687Y85D02*
X690Y85D01*
X703Y85D02*
X706Y85D01*
X718Y85D02*
X727Y85D01*
X745Y85D02*
X748Y85D01*
X761Y85D02*
X764Y85D01*
X774Y85D02*
X777Y85D01*
X1551Y85D02*
X1555Y85D01*
X1960Y85D02*
X1967Y85D01*
X0Y84D02*
X7Y84D01*
X267Y84D02*
X270Y84D01*
X289Y84D02*
X292Y84D01*
X320Y84D02*
X324Y84D01*
X336Y84D02*
X340Y84D01*
X633Y84D02*
X643Y84D01*
X658Y84D02*
X662Y84D01*
X673Y84D02*
X677Y84D01*
X687Y84D02*
X690Y84D01*
X703Y84D02*
X706Y84D01*
X720Y84D02*
X729Y84D01*
X745Y84D02*
X748Y84D01*
X761Y84D02*
X764Y84D01*
X774Y84D02*
X777Y84D01*
X1552Y84D02*
X1556Y84D01*
X1960Y84D02*
X1967Y84D01*
X0Y83D02*
X7Y83D01*
X267Y83D02*
X270Y83D01*
X289Y83D02*
X292Y83D01*
X319Y83D02*
X323Y83D01*
X337Y83D02*
X341Y83D01*
X636Y83D02*
X645Y83D01*
X658Y83D02*
X677Y83D01*
X687Y83D02*
X690Y83D01*
X703Y83D02*
X706Y83D01*
X722Y83D02*
X731Y83D01*
X745Y83D02*
X748Y83D01*
X761Y83D02*
X764Y83D01*
X774Y83D02*
X777Y83D01*
X1552Y83D02*
X1556Y83D01*
X1960Y83D02*
X1967Y83D01*
X0Y82D02*
X7Y82D01*
X267Y82D02*
X270Y82D01*
X289Y82D02*
X292Y82D01*
X318Y82D02*
X322Y82D01*
X338Y82D02*
X342Y82D01*
X638Y82D02*
X646Y82D01*
X658Y82D02*
X677Y82D01*
X687Y82D02*
X690Y82D01*
X703Y82D02*
X706Y82D01*
X725Y82D02*
X733Y82D01*
X745Y82D02*
X748Y82D01*
X761Y82D02*
X764Y82D01*
X774Y82D02*
X777Y82D01*
X1553Y82D02*
X1556Y82D01*
X1960Y82D02*
X1967Y82D01*
X0Y81D02*
X7Y81D01*
X267Y81D02*
X270Y81D01*
X289Y81D02*
X292Y81D01*
X304Y81D02*
X306Y81D01*
X318Y81D02*
X321Y81D01*
X339Y81D02*
X342Y81D01*
X640Y81D02*
X647Y81D01*
X658Y81D02*
X677Y81D01*
X687Y81D02*
X690Y81D01*
X703Y81D02*
X706Y81D01*
X727Y81D02*
X734Y81D01*
X745Y81D02*
X748Y81D01*
X761Y81D02*
X764Y81D01*
X774Y81D02*
X777Y81D01*
X1553Y81D02*
X1557Y81D01*
X1960Y81D02*
X1967Y81D01*
X0Y80D02*
X7Y80D01*
X267Y80D02*
X270Y80D01*
X289Y80D02*
X292Y80D01*
X303Y80D02*
X307Y80D01*
X317Y80D02*
X321Y80D01*
X339Y80D02*
X343Y80D01*
X643Y80D02*
X647Y80D01*
X658Y80D02*
X675Y80D01*
X687Y80D02*
X690Y80D01*
X703Y80D02*
X706Y80D01*
X729Y80D02*
X734Y80D01*
X745Y80D02*
X748Y80D01*
X761Y80D02*
X764Y80D01*
X774Y80D02*
X777Y80D01*
X1553Y80D02*
X1557Y80D01*
X1960Y80D02*
X1967Y80D01*
X0Y79D02*
X7Y79D01*
X267Y79D02*
X270Y79D01*
X289Y79D02*
X292Y79D01*
X301Y79D02*
X307Y79D01*
X317Y79D02*
X320Y79D01*
X340Y79D02*
X343Y79D01*
X644Y79D02*
X648Y79D01*
X658Y79D02*
X661Y79D01*
X687Y79D02*
X690Y79D01*
X703Y79D02*
X706Y79D01*
X731Y79D02*
X734Y79D01*
X745Y79D02*
X748Y79D01*
X761Y79D02*
X764Y79D01*
X774Y79D02*
X777Y79D01*
X1553Y79D02*
X1557Y79D01*
X1960Y79D02*
X1967Y79D01*
X0Y78D02*
X7Y78D01*
X267Y78D02*
X270Y78D01*
X289Y78D02*
X292Y78D01*
X300Y78D02*
X306Y78D01*
X317Y78D02*
X320Y78D01*
X340Y78D02*
X343Y78D01*
X645Y78D02*
X648Y78D01*
X658Y78D02*
X661Y78D01*
X687Y78D02*
X690Y78D01*
X703Y78D02*
X706Y78D01*
X732Y78D02*
X735Y78D01*
X745Y78D02*
X748Y78D01*
X760Y78D02*
X764Y78D01*
X774Y78D02*
X777Y78D01*
X1553Y78D02*
X1557Y78D01*
X1960Y78D02*
X1967Y78D01*
X0Y77D02*
X7Y77D01*
X267Y77D02*
X270Y77D01*
X289Y77D02*
X292Y77D01*
X299Y77D02*
X305Y77D01*
X317Y77D02*
X320Y77D01*
X340Y77D02*
X343Y77D01*
X630Y77D02*
X631Y77D01*
X645Y77D02*
X648Y77D01*
X658Y77D02*
X662Y77D01*
X687Y77D02*
X690Y77D01*
X703Y77D02*
X706Y77D01*
X717Y77D02*
X718Y77D01*
X731Y77D02*
X735Y77D01*
X745Y77D02*
X749Y77D01*
X760Y77D02*
X763Y77D01*
X774Y77D02*
X777Y77D01*
X1553Y77D02*
X1556Y77D01*
X1960Y77D02*
X1967Y77D01*
X0Y76D02*
X7Y76D01*
X267Y76D02*
X270Y76D01*
X289Y76D02*
X292Y76D01*
X298Y76D02*
X303Y76D01*
X317Y76D02*
X320Y76D01*
X340Y76D02*
X343Y76D01*
X629Y76D02*
X633Y76D01*
X644Y76D02*
X648Y76D01*
X659Y76D02*
X663Y76D01*
X687Y76D02*
X690Y76D01*
X703Y76D02*
X706Y76D01*
X716Y76D02*
X719Y76D01*
X731Y76D02*
X734Y76D01*
X745Y76D02*
X750Y76D01*
X758Y76D02*
X763Y76D01*
X774Y76D02*
X777Y76D01*
X1552Y76D02*
X1556Y76D01*
X1960Y76D02*
X1967Y76D01*
X0Y75D02*
X7Y75D01*
X167Y75D02*
X233Y75D01*
X267Y75D02*
X270Y75D01*
X289Y75D02*
X292Y75D01*
X297Y75D02*
X302Y75D01*
X316Y75D02*
X320Y75D01*
X340Y75D02*
X343Y75D01*
X435Y75D02*
X482Y75D01*
X629Y75D02*
X647Y75D01*
X659Y75D02*
X676Y75D01*
X687Y75D02*
X690Y75D01*
X703Y75D02*
X706Y75D01*
X716Y75D02*
X734Y75D01*
X746Y75D02*
X762Y75D01*
X774Y75D02*
X777Y75D01*
X1534Y75D02*
X1556Y75D01*
X1960Y75D02*
X1967Y75D01*
X0Y74D02*
X7Y74D01*
X167Y74D02*
X234Y74D01*
X267Y74D02*
X270Y74D01*
X289Y74D02*
X292Y74D01*
X296Y74D02*
X301Y74D01*
X316Y74D02*
X320Y74D01*
X340Y74D02*
X343Y74D01*
X435Y74D02*
X482Y74D01*
X630Y74D02*
X647Y74D01*
X660Y74D02*
X677Y74D01*
X687Y74D02*
X690Y74D01*
X703Y74D02*
X706Y74D01*
X716Y74D02*
X733Y74D01*
X747Y74D02*
X761Y74D01*
X774Y74D02*
X777Y74D01*
X1534Y74D02*
X1555Y74D01*
X1960Y74D02*
X1967Y74D01*
X0Y73D02*
X7Y73D01*
X168Y73D02*
X234Y73D01*
X267Y73D02*
X270Y73D01*
X277Y73D02*
X277Y73D01*
X289Y73D02*
X292Y73D01*
X294Y73D02*
X300Y73D01*
X317Y73D02*
X320Y73D01*
X340Y73D02*
X343Y73D01*
X435Y73D02*
X482Y73D01*
X631Y73D02*
X646Y73D01*
X661Y73D02*
X677Y73D01*
X687Y73D02*
X690Y73D01*
X703Y73D02*
X705Y73D01*
X718Y73D02*
X733Y73D01*
X748Y73D02*
X760Y73D01*
X774Y73D02*
X777Y73D01*
X1534Y73D02*
X1554Y73D01*
X1960Y73D02*
X1967Y73D01*
X0Y72D02*
X7Y72D01*
X168Y72D02*
X234Y72D01*
X267Y72D02*
X270Y72D01*
X276Y72D02*
X278Y72D01*
X289Y72D02*
X299Y72D01*
X317Y72D02*
X320Y72D01*
X340Y72D02*
X343Y72D01*
X435Y72D02*
X482Y72D01*
X633Y72D02*
X644Y72D01*
X663Y72D02*
X676Y72D01*
X688Y72D02*
X689Y72D01*
X703Y72D02*
X705Y72D01*
X719Y72D02*
X731Y72D01*
X750Y72D02*
X759Y72D01*
X774Y72D02*
X776Y72D01*
X1535Y72D02*
X1552Y72D01*
X1960Y72D02*
X1967Y72D01*
X0Y71D02*
X7Y71D01*
X168Y71D02*
X234Y71D01*
X267Y71D02*
X270Y71D01*
X276Y71D02*
X279Y71D01*
X289Y71D02*
X298Y71D01*
X317Y71D02*
X320Y71D01*
X340Y71D02*
X343Y71D01*
X435Y71D02*
X482Y71D01*
X1960Y71D02*
X1967Y71D01*
X0Y70D02*
X7Y70D01*
X168Y70D02*
X234Y70D01*
X267Y70D02*
X270Y70D01*
X276Y70D02*
X279Y70D01*
X289Y70D02*
X299Y70D01*
X317Y70D02*
X320Y70D01*
X339Y70D02*
X343Y70D01*
X435Y70D02*
X482Y70D01*
X1960Y70D02*
X1967Y70D01*
X0Y69D02*
X7Y69D01*
X168Y69D02*
X234Y69D01*
X267Y69D02*
X270Y69D01*
X276Y69D02*
X279Y69D01*
X289Y69D02*
X300Y69D01*
X317Y69D02*
X321Y69D01*
X339Y69D02*
X342Y69D01*
X435Y69D02*
X482Y69D01*
X1960Y69D02*
X1967Y69D01*
X0Y68D02*
X7Y68D01*
X168Y68D02*
X234Y68D01*
X267Y68D02*
X270Y68D01*
X276Y68D02*
X279Y68D01*
X289Y68D02*
X294Y68D01*
X296Y68D02*
X301Y68D01*
X318Y68D02*
X321Y68D01*
X339Y68D02*
X342Y68D01*
X435Y68D02*
X482Y68D01*
X719Y68D02*
X722Y68D01*
X1960Y68D02*
X1967Y68D01*
X0Y67D02*
X7Y67D01*
X168Y67D02*
X234Y67D01*
X267Y67D02*
X270Y67D01*
X276Y67D02*
X279Y67D01*
X289Y67D02*
X293Y67D01*
X297Y67D02*
X302Y67D01*
X318Y67D02*
X322Y67D01*
X338Y67D02*
X341Y67D01*
X435Y67D02*
X482Y67D01*
X718Y67D02*
X723Y67D01*
X1960Y67D02*
X1967Y67D01*
X0Y66D02*
X7Y66D01*
X167Y66D02*
X234Y66D01*
X267Y66D02*
X270Y66D01*
X276Y66D02*
X279Y66D01*
X289Y66D02*
X292Y66D01*
X298Y66D02*
X303Y66D01*
X319Y66D02*
X323Y66D01*
X337Y66D02*
X341Y66D01*
X435Y66D02*
X482Y66D01*
X616Y66D02*
X624Y66D01*
X718Y66D02*
X723Y66D01*
X796Y66D02*
X797Y66D01*
X1960Y66D02*
X1967Y66D01*
X0Y65D02*
X7Y65D01*
X267Y65D02*
X270Y65D01*
X276Y65D02*
X279Y65D01*
X289Y65D02*
X292Y65D01*
X299Y65D02*
X305Y65D01*
X320Y65D02*
X323Y65D01*
X336Y65D02*
X340Y65D01*
X615Y65D02*
X625Y65D01*
X718Y65D02*
X723Y65D01*
X795Y65D02*
X798Y65D01*
X1960Y65D02*
X1967Y65D01*
X0Y64D02*
X7Y64D01*
X267Y64D02*
X270Y64D01*
X276Y64D02*
X279Y64D01*
X289Y64D02*
X292Y64D01*
X300Y64D02*
X306Y64D01*
X321Y64D02*
X324Y64D01*
X335Y64D02*
X339Y64D01*
X615Y64D02*
X625Y64D01*
X718Y64D02*
X723Y64D01*
X794Y64D02*
X798Y64D01*
X1960Y64D02*
X1967Y64D01*
X0Y63D02*
X7Y63D01*
X267Y63D02*
X270Y63D01*
X276Y63D02*
X279Y63D01*
X289Y63D02*
X292Y63D01*
X301Y63D02*
X307Y63D01*
X322Y63D02*
X326Y63D01*
X334Y63D02*
X338Y63D01*
X615Y63D02*
X625Y63D01*
X718Y63D02*
X723Y63D01*
X794Y63D02*
X798Y63D01*
X1960Y63D02*
X1967Y63D01*
X0Y62D02*
X7Y62D01*
X260Y62D02*
X279Y62D01*
X289Y62D02*
X292Y62D01*
X303Y62D02*
X308Y62D01*
X322Y62D02*
X327Y62D01*
X333Y62D02*
X338Y62D01*
X616Y62D02*
X625Y62D01*
X719Y62D02*
X722Y62D01*
X794Y62D02*
X798Y62D01*
X1540Y62D02*
X1542Y62D01*
X1960Y62D02*
X1967Y62D01*
X0Y61D02*
X7Y61D01*
X259Y61D02*
X279Y61D01*
X289Y61D02*
X292Y61D01*
X304Y61D02*
X309Y61D01*
X316Y61D02*
X327Y61D01*
X333Y61D02*
X344Y61D01*
X621Y61D02*
X625Y61D01*
X794Y61D02*
X798Y61D01*
X1537Y61D02*
X1545Y61D01*
X1960Y61D02*
X1967Y61D01*
X0Y60D02*
X7Y60D01*
X259Y60D02*
X279Y60D01*
X289Y60D02*
X292Y60D01*
X305Y60D02*
X309Y60D01*
X316Y60D02*
X327Y60D01*
X333Y60D02*
X344Y60D01*
X621Y60D02*
X625Y60D01*
X794Y60D02*
X798Y60D01*
X1535Y60D02*
X1547Y60D01*
X1960Y60D02*
X1967Y60D01*
X0Y59D02*
X7Y59D01*
X260Y59D02*
X278Y59D01*
X290Y59D02*
X292Y59D01*
X306Y59D02*
X308Y59D01*
X316Y59D02*
X327Y59D01*
X333Y59D02*
X344Y59D01*
X621Y59D02*
X625Y59D01*
X794Y59D02*
X798Y59D01*
X1533Y59D02*
X1549Y59D01*
X1960Y59D02*
X1967Y59D01*
X0Y58D02*
X7Y58D01*
X621Y58D02*
X625Y58D01*
X794Y58D02*
X798Y58D01*
X1531Y58D02*
X1551Y58D01*
X1960Y58D02*
X1967Y58D01*
X0Y57D02*
X7Y57D01*
X621Y57D02*
X625Y57D01*
X794Y57D02*
X798Y57D01*
X843Y57D02*
X845Y57D01*
X850Y57D02*
X856Y57D01*
X1529Y57D02*
X1537Y57D01*
X1545Y57D02*
X1553Y57D01*
X1960Y57D02*
X1967Y57D01*
X0Y56D02*
X7Y56D01*
X621Y56D02*
X625Y56D01*
X650Y56D02*
X663Y56D01*
X686Y56D02*
X699Y56D01*
X714Y56D02*
X723Y56D01*
X782Y56D02*
X790Y56D01*
X794Y56D02*
X798Y56D01*
X814Y56D02*
X827Y56D01*
X842Y56D02*
X845Y56D01*
X849Y56D02*
X857Y56D01*
X876Y56D02*
X878Y56D01*
X894Y56D02*
X896Y56D01*
X908Y56D02*
X910Y56D01*
X917Y56D02*
X925Y56D01*
X1527Y56D02*
X1535Y56D01*
X1547Y56D02*
X1555Y56D01*
X1960Y56D02*
X1967Y56D01*
X0Y55D02*
X7Y55D01*
X621Y55D02*
X625Y55D01*
X650Y55D02*
X664Y55D01*
X684Y55D02*
X699Y55D01*
X713Y55D02*
X723Y55D01*
X780Y55D02*
X792Y55D01*
X794Y55D02*
X798Y55D01*
X814Y55D02*
X828Y55D01*
X842Y55D02*
X859Y55D01*
X875Y55D02*
X879Y55D01*
X893Y55D02*
X896Y55D01*
X908Y55D02*
X911Y55D01*
X916Y55D02*
X927Y55D01*
X1526Y55D02*
X1533Y55D01*
X1549Y55D02*
X1555Y55D01*
X1960Y55D02*
X1967Y55D01*
X0Y54D02*
X7Y54D01*
X621Y54D02*
X625Y54D01*
X650Y54D02*
X665Y54D01*
X683Y54D02*
X700Y54D01*
X713Y54D02*
X723Y54D01*
X779Y54D02*
X798Y54D01*
X814Y54D02*
X829Y54D01*
X842Y54D02*
X860Y54D01*
X875Y54D02*
X879Y54D01*
X893Y54D02*
X896Y54D01*
X908Y54D02*
X911Y54D01*
X915Y54D02*
X928Y54D01*
X1526Y54D02*
X1531Y54D01*
X1551Y54D02*
X1556Y54D01*
X1960Y54D02*
X1967Y54D01*
X0Y53D02*
X7Y53D01*
X621Y53D02*
X625Y53D01*
X650Y53D02*
X666Y53D01*
X682Y53D02*
X699Y53D01*
X714Y53D02*
X723Y53D01*
X778Y53D02*
X798Y53D01*
X814Y53D02*
X830Y53D01*
X842Y53D02*
X852Y53D01*
X854Y53D02*
X861Y53D01*
X875Y53D02*
X879Y53D01*
X893Y53D02*
X896Y53D01*
X908Y53D02*
X911Y53D01*
X914Y53D02*
X928Y53D01*
X1525Y53D02*
X1529Y53D01*
X1553Y53D02*
X1556Y53D01*
X1960Y53D02*
X1967Y53D01*
X0Y52D02*
X7Y52D01*
X621Y52D02*
X625Y52D01*
X661Y52D02*
X666Y52D01*
X681Y52D02*
X687Y52D01*
X720Y52D02*
X723Y52D01*
X777Y52D02*
X783Y52D01*
X789Y52D02*
X798Y52D01*
X825Y52D02*
X830Y52D01*
X842Y52D02*
X850Y52D01*
X856Y52D02*
X862Y52D01*
X875Y52D02*
X879Y52D01*
X893Y52D02*
X896Y52D01*
X908Y52D02*
X919Y52D01*
X924Y52D02*
X929Y52D01*
X1525Y52D02*
X1528Y52D01*
X1553Y52D02*
X1557Y52D01*
X1960Y52D02*
X1967Y52D01*
X0Y51D02*
X7Y51D01*
X621Y51D02*
X625Y51D01*
X662Y51D02*
X666Y51D01*
X680Y51D02*
X686Y51D01*
X720Y51D02*
X723Y51D01*
X777Y51D02*
X782Y51D01*
X790Y51D02*
X798Y51D01*
X826Y51D02*
X830Y51D01*
X842Y51D02*
X849Y51D01*
X857Y51D02*
X863Y51D01*
X875Y51D02*
X879Y51D01*
X893Y51D02*
X896Y51D01*
X908Y51D02*
X917Y51D01*
X925Y51D02*
X929Y51D01*
X1525Y51D02*
X1529Y51D01*
X1553Y51D02*
X1556Y51D01*
X1960Y51D02*
X1967Y51D01*
X0Y50D02*
X7Y50D01*
X621Y50D02*
X625Y50D01*
X663Y50D02*
X666Y50D01*
X679Y50D02*
X684Y50D01*
X720Y50D02*
X723Y50D01*
X777Y50D02*
X781Y50D01*
X792Y50D02*
X798Y50D01*
X827Y50D02*
X830Y50D01*
X842Y50D02*
X848Y50D01*
X858Y50D02*
X863Y50D01*
X875Y50D02*
X879Y50D01*
X893Y50D02*
X896Y50D01*
X908Y50D02*
X916Y50D01*
X926Y50D02*
X929Y50D01*
X1525Y50D02*
X1530Y50D01*
X1551Y50D02*
X1556Y50D01*
X1960Y50D02*
X1967Y50D01*
X0Y49D02*
X7Y49D01*
X621Y49D02*
X625Y49D01*
X663Y49D02*
X666Y49D01*
X678Y49D02*
X683Y49D01*
X720Y49D02*
X723Y49D01*
X776Y49D02*
X780Y49D01*
X793Y49D02*
X798Y49D01*
X827Y49D02*
X830Y49D01*
X842Y49D02*
X847Y49D01*
X859Y49D02*
X863Y49D01*
X875Y49D02*
X879Y49D01*
X893Y49D02*
X896Y49D01*
X908Y49D02*
X915Y49D01*
X926Y49D02*
X929Y49D01*
X1526Y49D02*
X1532Y49D01*
X1549Y49D02*
X1556Y49D01*
X1960Y49D02*
X1967Y49D01*
X0Y48D02*
X7Y48D01*
X621Y48D02*
X625Y48D01*
X663Y48D02*
X666Y48D01*
X678Y48D02*
X682Y48D01*
X720Y48D02*
X723Y48D01*
X776Y48D02*
X780Y48D01*
X794Y48D02*
X798Y48D01*
X827Y48D02*
X830Y48D01*
X842Y48D02*
X846Y48D01*
X860Y48D02*
X864Y48D01*
X875Y48D02*
X879Y48D01*
X893Y48D02*
X896Y48D01*
X908Y48D02*
X914Y48D01*
X926Y48D02*
X929Y48D01*
X1527Y48D02*
X1534Y48D01*
X1547Y48D02*
X1555Y48D01*
X1960Y48D02*
X1967Y48D01*
X0Y47D02*
X7Y47D01*
X621Y47D02*
X625Y47D01*
X651Y47D02*
X660Y47D01*
X662Y47D02*
X666Y47D01*
X678Y47D02*
X682Y47D01*
X720Y47D02*
X723Y47D01*
X776Y47D02*
X780Y47D01*
X794Y47D02*
X798Y47D01*
X815Y47D02*
X824Y47D01*
X826Y47D02*
X830Y47D01*
X842Y47D02*
X846Y47D01*
X860Y47D02*
X864Y47D01*
X875Y47D02*
X879Y47D01*
X893Y47D02*
X896Y47D01*
X908Y47D02*
X913Y47D01*
X926Y47D02*
X928Y47D01*
X1528Y47D02*
X1536Y47D01*
X1545Y47D02*
X1554Y47D01*
X1960Y47D02*
X1967Y47D01*
X0Y46D02*
X7Y46D01*
X621Y46D02*
X625Y46D01*
X648Y46D02*
X666Y46D01*
X678Y46D02*
X682Y46D01*
X720Y46D02*
X723Y46D01*
X776Y46D02*
X780Y46D01*
X794Y46D02*
X798Y46D01*
X813Y46D02*
X830Y46D01*
X842Y46D02*
X846Y46D01*
X860Y46D02*
X864Y46D01*
X875Y46D02*
X879Y46D01*
X893Y46D02*
X896Y46D01*
X908Y46D02*
X912Y46D01*
X1530Y46D02*
X1538Y46D01*
X1543Y46D02*
X1552Y46D01*
X1960Y46D02*
X1967Y46D01*
X0Y45D02*
X7Y45D01*
X621Y45D02*
X625Y45D01*
X647Y45D02*
X666Y45D01*
X678Y45D02*
X682Y45D01*
X720Y45D02*
X723Y45D01*
X776Y45D02*
X780Y45D01*
X794Y45D02*
X798Y45D01*
X811Y45D02*
X830Y45D01*
X842Y45D02*
X846Y45D01*
X860Y45D02*
X864Y45D01*
X875Y45D02*
X879Y45D01*
X893Y45D02*
X896Y45D01*
X908Y45D02*
X911Y45D01*
X1532Y45D02*
X1550Y45D01*
X1960Y45D02*
X1967Y45D01*
X0Y44D02*
X7Y44D01*
X621Y44D02*
X625Y44D01*
X646Y44D02*
X666Y44D01*
X678Y44D02*
X682Y44D01*
X720Y44D02*
X723Y44D01*
X776Y44D02*
X780Y44D01*
X794Y44D02*
X798Y44D01*
X810Y44D02*
X830Y44D01*
X842Y44D02*
X846Y44D01*
X860Y44D02*
X864Y44D01*
X875Y44D02*
X879Y44D01*
X893Y44D02*
X896Y44D01*
X908Y44D02*
X911Y44D01*
X1534Y44D02*
X1548Y44D01*
X1960Y44D02*
X1967Y44D01*
X0Y43D02*
X7Y43D01*
X621Y43D02*
X625Y43D01*
X646Y43D02*
X666Y43D01*
X678Y43D02*
X682Y43D01*
X720Y43D02*
X723Y43D01*
X776Y43D02*
X780Y43D01*
X794Y43D02*
X798Y43D01*
X810Y43D02*
X830Y43D01*
X842Y43D02*
X846Y43D01*
X860Y43D02*
X864Y43D01*
X875Y43D02*
X879Y43D01*
X893Y43D02*
X896Y43D01*
X908Y43D02*
X911Y43D01*
X1536Y43D02*
X1546Y43D01*
X1960Y43D02*
X1967Y43D01*
X0Y42D02*
X7Y42D01*
X621Y42D02*
X625Y42D01*
X645Y42D02*
X650Y42D01*
X662Y42D02*
X666Y42D01*
X678Y42D02*
X682Y42D01*
X720Y42D02*
X723Y42D01*
X776Y42D02*
X780Y42D01*
X794Y42D02*
X798Y42D01*
X809Y42D02*
X814Y42D01*
X826Y42D02*
X830Y42D01*
X842Y42D02*
X846Y42D01*
X860Y42D02*
X864Y42D01*
X875Y42D02*
X879Y42D01*
X893Y42D02*
X896Y42D01*
X908Y42D02*
X911Y42D01*
X1538Y42D02*
X1543Y42D01*
X1960Y42D02*
X1967Y42D01*
X0Y41D02*
X7Y41D01*
X621Y41D02*
X625Y41D01*
X645Y41D02*
X649Y41D01*
X663Y41D02*
X666Y41D01*
X678Y41D02*
X682Y41D01*
X720Y41D02*
X723Y41D01*
X776Y41D02*
X780Y41D01*
X794Y41D02*
X798Y41D01*
X809Y41D02*
X813Y41D01*
X827Y41D02*
X830Y41D01*
X842Y41D02*
X846Y41D01*
X860Y41D02*
X864Y41D01*
X875Y41D02*
X879Y41D01*
X893Y41D02*
X896Y41D01*
X908Y41D02*
X911Y41D01*
X1960Y41D02*
X1967Y41D01*
X0Y40D02*
X7Y40D01*
X621Y40D02*
X625Y40D01*
X645Y40D02*
X649Y40D01*
X663Y40D02*
X666Y40D01*
X678Y40D02*
X682Y40D01*
X720Y40D02*
X723Y40D01*
X776Y40D02*
X780Y40D01*
X794Y40D02*
X798Y40D01*
X809Y40D02*
X813Y40D01*
X827Y40D02*
X830Y40D01*
X842Y40D02*
X846Y40D01*
X860Y40D02*
X864Y40D01*
X875Y40D02*
X879Y40D01*
X892Y40D02*
X896Y40D01*
X908Y40D02*
X911Y40D01*
X1960Y40D02*
X1967Y40D01*
X0Y39D02*
X7Y39D01*
X621Y39D02*
X625Y39D01*
X645Y39D02*
X649Y39D01*
X663Y39D02*
X666Y39D01*
X678Y39D02*
X683Y39D01*
X720Y39D02*
X723Y39D01*
X776Y39D02*
X780Y39D01*
X793Y39D02*
X798Y39D01*
X809Y39D02*
X813Y39D01*
X827Y39D02*
X830Y39D01*
X842Y39D02*
X846Y39D01*
X860Y39D02*
X864Y39D01*
X875Y39D02*
X879Y39D01*
X891Y39D02*
X896Y39D01*
X908Y39D02*
X911Y39D01*
X1960Y39D02*
X1967Y39D01*
X0Y38D02*
X7Y38D01*
X621Y38D02*
X625Y38D01*
X645Y38D02*
X649Y38D01*
X662Y38D02*
X666Y38D01*
X679Y38D02*
X684Y38D01*
X720Y38D02*
X723Y38D01*
X777Y38D02*
X780Y38D01*
X792Y38D02*
X798Y38D01*
X809Y38D02*
X813Y38D01*
X826Y38D02*
X830Y38D01*
X842Y38D02*
X848Y38D01*
X859Y38D02*
X863Y38D01*
X875Y38D02*
X879Y38D01*
X889Y38D02*
X896Y38D01*
X908Y38D02*
X911Y38D01*
X1960Y38D02*
X1967Y38D01*
X0Y37D02*
X7Y37D01*
X621Y37D02*
X625Y37D01*
X645Y37D02*
X649Y37D01*
X661Y37D02*
X666Y37D01*
X679Y37D02*
X685Y37D01*
X720Y37D02*
X723Y37D01*
X777Y37D02*
X781Y37D01*
X791Y37D02*
X798Y37D01*
X809Y37D02*
X813Y37D01*
X825Y37D02*
X830Y37D01*
X842Y37D02*
X849Y37D01*
X858Y37D02*
X863Y37D01*
X875Y37D02*
X879Y37D01*
X888Y37D02*
X896Y37D01*
X908Y37D02*
X911Y37D01*
X1960Y37D02*
X1967Y37D01*
X0Y36D02*
X7Y36D01*
X621Y36D02*
X625Y36D01*
X645Y36D02*
X650Y36D01*
X659Y36D02*
X666Y36D01*
X680Y36D02*
X686Y36D01*
X720Y36D02*
X723Y36D01*
X777Y36D02*
X783Y36D01*
X790Y36D02*
X798Y36D01*
X809Y36D02*
X814Y36D01*
X823Y36D02*
X830Y36D01*
X842Y36D02*
X850Y36D01*
X856Y36D02*
X862Y36D01*
X875Y36D02*
X880Y36D01*
X886Y36D02*
X896Y36D01*
X908Y36D02*
X911Y36D01*
X1960Y36D02*
X1967Y36D01*
X0Y35D02*
X7Y35D01*
X616Y35D02*
X631Y35D01*
X646Y35D02*
X666Y35D01*
X681Y35D02*
X699Y35D01*
X714Y35D02*
X729Y35D01*
X778Y35D02*
X798Y35D01*
X810Y35D02*
X830Y35D01*
X842Y35D02*
X851Y35D01*
X855Y35D02*
X861Y35D01*
X876Y35D02*
X896Y35D01*
X908Y35D02*
X911Y35D01*
X1960Y35D02*
X1967Y35D01*
X0Y34D02*
X7Y34D01*
X615Y34D02*
X632Y34D01*
X646Y34D02*
X666Y34D01*
X683Y34D02*
X699Y34D01*
X713Y34D02*
X730Y34D01*
X779Y34D02*
X798Y34D01*
X810Y34D02*
X830Y34D01*
X842Y34D02*
X860Y34D01*
X876Y34D02*
X890Y34D01*
X893Y34D02*
X896Y34D01*
X908Y34D02*
X911Y34D01*
X1960Y34D02*
X1967Y34D01*
X0Y33D02*
X7Y33D01*
X615Y33D02*
X632Y33D01*
X647Y33D02*
X666Y33D01*
X684Y33D02*
X700Y33D01*
X713Y33D02*
X730Y33D01*
X780Y33D02*
X792Y33D01*
X794Y33D02*
X798Y33D01*
X811Y33D02*
X830Y33D01*
X842Y33D02*
X859Y33D01*
X877Y33D02*
X889Y33D01*
X893Y33D02*
X896Y33D01*
X908Y33D02*
X911Y33D01*
X1960Y33D02*
X1967Y33D01*
X0Y32D02*
X7Y32D01*
X615Y32D02*
X631Y32D01*
X648Y32D02*
X660Y32D01*
X664Y32D02*
X666Y32D01*
X685Y32D02*
X699Y32D01*
X713Y32D02*
X730Y32D01*
X781Y32D02*
X791Y32D01*
X795Y32D02*
X798Y32D01*
X812Y32D02*
X824Y32D01*
X828Y32D02*
X830Y32D01*
X842Y32D02*
X846Y32D01*
X848Y32D02*
X858Y32D01*
X879Y32D02*
X887Y32D01*
X893Y32D02*
X896Y32D01*
X908Y32D02*
X911Y32D01*
X1960Y32D02*
X1967Y32D01*
X0Y31D02*
X7Y31D01*
X617Y31D02*
X630Y31D01*
X651Y31D02*
X658Y31D01*
X688Y31D02*
X697Y31D01*
X715Y31D02*
X728Y31D01*
X784Y31D02*
X788Y31D01*
X815Y31D02*
X822Y31D01*
X842Y31D02*
X846Y31D01*
X849Y31D02*
X856Y31D01*
X881Y31D02*
X884Y31D01*
X1960Y31D02*
X1967Y31D01*
X0Y30D02*
X7Y30D01*
X842Y30D02*
X846Y30D01*
X853Y30D02*
X853Y30D01*
X1960Y30D02*
X1967Y30D01*
X0Y29D02*
X7Y29D01*
X842Y29D02*
X846Y29D01*
X1960Y29D02*
X1967Y29D01*
X0Y28D02*
X7Y28D01*
X842Y28D02*
X846Y28D01*
X1960Y28D02*
X1967Y28D01*
X0Y27D02*
X7Y27D01*
X842Y27D02*
X846Y27D01*
X1960Y27D02*
X1967Y27D01*
X0Y26D02*
X7Y26D01*
X842Y26D02*
X846Y26D01*
X1960Y26D02*
X1967Y26D01*
X0Y25D02*
X7Y25D01*
X842Y25D02*
X846Y25D01*
X1960Y25D02*
X1967Y25D01*
X0Y24D02*
X7Y24D01*
X842Y24D02*
X846Y24D01*
X1960Y24D02*
X1967Y24D01*
X0Y23D02*
X7Y23D01*
X842Y23D02*
X845Y23D01*
X1960Y23D02*
X1967Y23D01*
X0Y22D02*
X7Y22D01*
X843Y22D02*
X845Y22D01*
X1960Y22D02*
X1967Y22D01*
X0Y21D02*
X7Y21D01*
X1960Y21D02*
X1967Y21D01*
X0Y20D02*
X7Y20D01*
X1960Y20D02*
X1967Y20D01*
X0Y19D02*
X7Y19D01*
X1960Y19D02*
X1967Y19D01*
X0Y18D02*
X7Y18D01*
X1960Y18D02*
X1967Y18D01*
X0Y17D02*
X7Y17D01*
X1960Y17D02*
X1967Y17D01*
X0Y16D02*
X7Y16D01*
X1960Y16D02*
X1967Y16D01*
X0Y15D02*
X7Y15D01*
X1960Y15D02*
X1967Y15D01*
X0Y14D02*
X7Y14D01*
X1960Y14D02*
X1967Y14D01*
X0Y13D02*
X7Y13D01*
X1960Y13D02*
X1967Y13D01*
X0Y12D02*
X7Y12D01*
X1960Y12D02*
X1967Y12D01*
X0Y11D02*
X7Y11D01*
X1960Y11D02*
X1967Y11D01*
X0Y10D02*
X7Y10D01*
X1960Y10D02*
X1967Y10D01*
X0Y9D02*
X1967Y9D01*
X0Y8D02*
X1967Y8D01*
X0Y7D02*
X1967Y7D01*
X0Y6D02*
X1967Y6D01*
X0Y5D02*
X1967Y5D01*
X0Y4D02*
X1967Y4D01*
X0Y3D02*
X1967Y3D01*
X0Y2D02*
X1967Y2D01*
D02*
G04 End of Silk1*
M02*