G04 #@! TF.FileFunction,Legend,Top*
%FSLAX46Y46*%
G04 Gerber Fmt 4.6, Leading zero omitted, Abs format (unit mm)*
G04 Created by KiCad (PCBNEW 4.0.3+e1-6302~38~ubuntu15.04.1-stable) date Mon Sep 12 00:10:40 2016*
%MOMM*%
%LPD*%
G01*
G04 APERTURE LIST*
%ADD10C,0.100000*%
%ADD11C,0.300000*%
%ADD12C,0.150000*%
G04 APERTURE END LIST*
D10*
D11*
X81471715Y-78656571D02*
X81328857Y-78585143D01*
X81257429Y-78442286D01*
X81257429Y-77156571D01*
X82043143Y-78656571D02*
X82043143Y-77656571D01*
X82043143Y-77156571D02*
X81971714Y-77228000D01*
X82043143Y-77299429D01*
X82114571Y-77228000D01*
X82043143Y-77156571D01*
X82043143Y-77299429D01*
X83400286Y-77656571D02*
X83400286Y-78870857D01*
X83328857Y-79013714D01*
X83257429Y-79085143D01*
X83114572Y-79156571D01*
X82900286Y-79156571D01*
X82757429Y-79085143D01*
X83400286Y-78585143D02*
X83257429Y-78656571D01*
X82971715Y-78656571D01*
X82828857Y-78585143D01*
X82757429Y-78513714D01*
X82686000Y-78370857D01*
X82686000Y-77942286D01*
X82757429Y-77799429D01*
X82828857Y-77728000D01*
X82971715Y-77656571D01*
X83257429Y-77656571D01*
X83400286Y-77728000D01*
X84114572Y-78656571D02*
X84114572Y-77156571D01*
X84757429Y-78656571D02*
X84757429Y-77870857D01*
X84686000Y-77728000D01*
X84543143Y-77656571D01*
X84328858Y-77656571D01*
X84186000Y-77728000D01*
X84114572Y-77799429D01*
X85257429Y-77656571D02*
X85828858Y-77656571D01*
X85471715Y-77156571D02*
X85471715Y-78442286D01*
X85543143Y-78585143D01*
X85686001Y-78656571D01*
X85828858Y-78656571D01*
X86328858Y-78656571D02*
X86328858Y-77656571D01*
X86328858Y-77156571D02*
X86257429Y-77228000D01*
X86328858Y-77299429D01*
X86400286Y-77228000D01*
X86328858Y-77156571D01*
X86328858Y-77299429D01*
X87043144Y-77656571D02*
X87043144Y-78656571D01*
X87043144Y-77799429D02*
X87114572Y-77728000D01*
X87257430Y-77656571D01*
X87471715Y-77656571D01*
X87614572Y-77728000D01*
X87686001Y-77870857D01*
X87686001Y-78656571D01*
X89043144Y-77656571D02*
X89043144Y-78870857D01*
X88971715Y-79013714D01*
X88900287Y-79085143D01*
X88757430Y-79156571D01*
X88543144Y-79156571D01*
X88400287Y-79085143D01*
X89043144Y-78585143D02*
X88900287Y-78656571D01*
X88614573Y-78656571D01*
X88471715Y-78585143D01*
X88400287Y-78513714D01*
X88328858Y-78370857D01*
X88328858Y-77942286D01*
X88400287Y-77799429D01*
X88471715Y-77728000D01*
X88614573Y-77656571D01*
X88900287Y-77656571D01*
X89043144Y-77728000D01*
X91543144Y-78585143D02*
X91400287Y-78656571D01*
X91114573Y-78656571D01*
X90971715Y-78585143D01*
X90900287Y-78513714D01*
X90828858Y-78370857D01*
X90828858Y-77942286D01*
X90900287Y-77799429D01*
X90971715Y-77728000D01*
X91114573Y-77656571D01*
X91400287Y-77656571D01*
X91543144Y-77728000D01*
X92400287Y-78656571D02*
X92257429Y-78585143D01*
X92186001Y-78513714D01*
X92114572Y-78370857D01*
X92114572Y-77942286D01*
X92186001Y-77799429D01*
X92257429Y-77728000D01*
X92400287Y-77656571D01*
X92614572Y-77656571D01*
X92757429Y-77728000D01*
X92828858Y-77799429D01*
X92900287Y-77942286D01*
X92900287Y-78370857D01*
X92828858Y-78513714D01*
X92757429Y-78585143D01*
X92614572Y-78656571D01*
X92400287Y-78656571D01*
X93543144Y-77656571D02*
X93543144Y-78656571D01*
X93543144Y-77799429D02*
X93614572Y-77728000D01*
X93757430Y-77656571D01*
X93971715Y-77656571D01*
X94114572Y-77728000D01*
X94186001Y-77870857D01*
X94186001Y-78656571D01*
X94686001Y-77656571D02*
X95257430Y-77656571D01*
X94900287Y-77156571D02*
X94900287Y-78442286D01*
X94971715Y-78585143D01*
X95114573Y-78656571D01*
X95257430Y-78656571D01*
X95757430Y-78656571D02*
X95757430Y-77656571D01*
X95757430Y-77942286D02*
X95828858Y-77799429D01*
X95900287Y-77728000D01*
X96043144Y-77656571D01*
X96186001Y-77656571D01*
X96900287Y-78656571D02*
X96757429Y-78585143D01*
X96686001Y-78513714D01*
X96614572Y-78370857D01*
X96614572Y-77942286D01*
X96686001Y-77799429D01*
X96757429Y-77728000D01*
X96900287Y-77656571D01*
X97114572Y-77656571D01*
X97257429Y-77728000D01*
X97328858Y-77799429D01*
X97400287Y-77942286D01*
X97400287Y-78370857D01*
X97328858Y-78513714D01*
X97257429Y-78585143D01*
X97114572Y-78656571D01*
X96900287Y-78656571D01*
X98257430Y-78656571D02*
X98114572Y-78585143D01*
X98043144Y-78442286D01*
X98043144Y-77156571D01*
X99043144Y-78656571D02*
X98900286Y-78585143D01*
X98828858Y-78442286D01*
X98828858Y-77156571D01*
X100186000Y-78585143D02*
X100043143Y-78656571D01*
X99757429Y-78656571D01*
X99614572Y-78585143D01*
X99543143Y-78442286D01*
X99543143Y-77870857D01*
X99614572Y-77728000D01*
X99757429Y-77656571D01*
X100043143Y-77656571D01*
X100186000Y-77728000D01*
X100257429Y-77870857D01*
X100257429Y-78013714D01*
X99543143Y-78156571D01*
X100900286Y-78656571D02*
X100900286Y-77656571D01*
X100900286Y-77942286D02*
X100971714Y-77799429D01*
X101043143Y-77728000D01*
X101186000Y-77656571D01*
X101328857Y-77656571D01*
D12*
X65913096Y-80272333D02*
X65865476Y-80224714D01*
X65770238Y-80081857D01*
X65722619Y-79986619D01*
X65675000Y-79843762D01*
X65627381Y-79605667D01*
X65627381Y-79415190D01*
X65675000Y-79177095D01*
X65722619Y-79034238D01*
X65770238Y-78939000D01*
X65865476Y-78796143D01*
X65913096Y-78748524D01*
X66294048Y-79510429D02*
X67055953Y-79510429D01*
X66675001Y-79891381D02*
X66675001Y-79129476D01*
X67436905Y-80272333D02*
X67484524Y-80224714D01*
X67579762Y-80081857D01*
X67627381Y-79986619D01*
X67675000Y-79843762D01*
X67722619Y-79605667D01*
X67722619Y-79415190D01*
X67675000Y-79177095D01*
X67627381Y-79034238D01*
X67579762Y-78939000D01*
X67484524Y-78796143D01*
X67436905Y-78748524D01*
X64913095Y-81160429D02*
X65675000Y-81160429D01*
X65294048Y-81541381D02*
X65294048Y-80779476D01*
X66675000Y-81541381D02*
X66103571Y-81541381D01*
X66389285Y-81541381D02*
X66389285Y-80541381D01*
X66294047Y-80684238D01*
X66198809Y-80779476D01*
X66103571Y-80827095D01*
X67055952Y-80636619D02*
X67103571Y-80589000D01*
X67198809Y-80541381D01*
X67436905Y-80541381D01*
X67532143Y-80589000D01*
X67579762Y-80636619D01*
X67627381Y-80731857D01*
X67627381Y-80827095D01*
X67579762Y-80969952D01*
X67008333Y-81541381D01*
X67627381Y-81541381D01*
X67913095Y-80541381D02*
X68246428Y-81541381D01*
X68579762Y-80541381D01*
X107350000Y-78186000D02*
X107350000Y-88184000D01*
X107490000Y-78190000D02*
X107490000Y-88180000D01*
X107630000Y-78198000D02*
X107630000Y-88172000D01*
X107770000Y-78210000D02*
X107770000Y-88160000D01*
X107910000Y-78225000D02*
X107910000Y-88145000D01*
X108050000Y-78245000D02*
X108050000Y-88125000D01*
X108190000Y-78269000D02*
X108190000Y-88101000D01*
X108330000Y-78298000D02*
X108330000Y-88072000D01*
X108470000Y-78330000D02*
X108470000Y-88040000D01*
X108610000Y-78367000D02*
X108610000Y-88003000D01*
X108750000Y-78408000D02*
X108750000Y-87962000D01*
X108890000Y-78453000D02*
X108890000Y-82719000D01*
X108890000Y-83651000D02*
X108890000Y-87917000D01*
X109030000Y-78503000D02*
X109030000Y-82518000D01*
X109030000Y-83852000D02*
X109030000Y-87867000D01*
X109170000Y-78558000D02*
X109170000Y-82389000D01*
X109170000Y-83981000D02*
X109170000Y-87812000D01*
X109310000Y-78618000D02*
X109310000Y-82300000D01*
X109310000Y-84070000D02*
X109310000Y-87752000D01*
X109450000Y-78683000D02*
X109450000Y-82239000D01*
X109450000Y-84131000D02*
X109450000Y-87687000D01*
X109590000Y-78753000D02*
X109590000Y-82202000D01*
X109590000Y-84168000D02*
X109590000Y-87617000D01*
X109730000Y-78829000D02*
X109730000Y-82186000D01*
X109730000Y-84184000D02*
X109730000Y-87541000D01*
X109870000Y-78911000D02*
X109870000Y-82190000D01*
X109870000Y-84180000D02*
X109870000Y-87459000D01*
X110010000Y-78999000D02*
X110010000Y-82213000D01*
X110010000Y-84157000D02*
X110010000Y-87371000D01*
X110150000Y-79094000D02*
X110150000Y-82258000D01*
X110150000Y-84112000D02*
X110150000Y-87276000D01*
X110290000Y-79196000D02*
X110290000Y-82328000D01*
X110290000Y-84042000D02*
X110290000Y-87174000D01*
X110430000Y-79306000D02*
X110430000Y-82429000D01*
X110430000Y-83941000D02*
X110430000Y-87064000D01*
X110570000Y-79424000D02*
X110570000Y-82578000D01*
X110570000Y-83792000D02*
X110570000Y-86946000D01*
X110710000Y-79552000D02*
X110710000Y-82830000D01*
X110710000Y-83540000D02*
X110710000Y-86818000D01*
X110850000Y-79689000D02*
X110850000Y-86681000D01*
X110990000Y-79839000D02*
X110990000Y-86531000D01*
X111130000Y-80001000D02*
X111130000Y-86369000D01*
X111270000Y-80178000D02*
X111270000Y-86192000D01*
X111410000Y-80374000D02*
X111410000Y-85996000D01*
X111550000Y-80592000D02*
X111550000Y-85778000D01*
X111690000Y-80838000D02*
X111690000Y-85532000D01*
X111830000Y-81123000D02*
X111830000Y-85247000D01*
X111970000Y-81465000D02*
X111970000Y-84905000D01*
X112110000Y-81911000D02*
X112110000Y-84459000D01*
X112250000Y-82686000D02*
X112250000Y-83684000D01*
X110775000Y-83185000D02*
G75*
G03X110775000Y-83185000I-1000000J0D01*
G01*
X112312500Y-83185000D02*
G75*
G03X112312500Y-83185000I-5037500J0D01*
G01*
X99835000Y-37640000D02*
X111185000Y-37640000D01*
X111185000Y-37640000D02*
X111185000Y-49440000D01*
X111185000Y-49440000D02*
X109985000Y-49440000D01*
X109985000Y-49440000D02*
X109985000Y-44940000D01*
X109985000Y-44940000D02*
X99835000Y-44940000D01*
X99835000Y-37640000D02*
X88485000Y-37640000D01*
X88485000Y-37640000D02*
X88485000Y-49440000D01*
X88485000Y-49440000D02*
X89685000Y-49440000D01*
X89685000Y-49440000D02*
X89685000Y-44940000D01*
X89685000Y-44940000D02*
X99835000Y-44940000D01*
X108835000Y-44290000D02*
X108835000Y-38290000D01*
X108835000Y-38290000D02*
X108335000Y-38290000D01*
X108335000Y-38290000D02*
X108335000Y-44290000D01*
X108335000Y-44290000D02*
X108835000Y-44290000D01*
X106335000Y-44290000D02*
X106335000Y-38290000D01*
X106335000Y-38290000D02*
X105835000Y-38290000D01*
X105835000Y-38290000D02*
X105835000Y-44290000D01*
X105835000Y-44290000D02*
X106335000Y-44290000D01*
X103835000Y-44290000D02*
X103835000Y-38290000D01*
X103835000Y-38290000D02*
X103335000Y-38290000D01*
X103335000Y-38290000D02*
X103335000Y-44290000D01*
X103335000Y-44290000D02*
X103835000Y-44290000D01*
X101335000Y-44290000D02*
X101335000Y-38290000D01*
X101335000Y-38290000D02*
X100835000Y-38290000D01*
X100835000Y-38290000D02*
X100835000Y-44290000D01*
X100835000Y-44290000D02*
X101335000Y-44290000D01*
X98835000Y-44290000D02*
X98835000Y-38290000D01*
X98835000Y-38290000D02*
X98335000Y-38290000D01*
X98335000Y-38290000D02*
X98335000Y-44290000D01*
X98335000Y-44290000D02*
X98835000Y-44290000D01*
X96335000Y-44290000D02*
X96335000Y-38290000D01*
X96335000Y-38290000D02*
X95835000Y-38290000D01*
X95835000Y-38290000D02*
X95835000Y-44290000D01*
X95835000Y-44290000D02*
X96335000Y-44290000D01*
X93835000Y-44290000D02*
X93835000Y-38290000D01*
X93835000Y-38290000D02*
X93335000Y-38290000D01*
X93335000Y-38290000D02*
X93335000Y-44290000D01*
X93335000Y-44290000D02*
X93835000Y-44290000D01*
X91335000Y-44290000D02*
X91335000Y-38290000D01*
X91335000Y-38290000D02*
X90835000Y-38290000D01*
X90835000Y-38290000D02*
X90835000Y-44290000D01*
X90835000Y-44290000D02*
X91335000Y-44290000D01*
X108585000Y-48490000D02*
X108885000Y-49090000D01*
X108885000Y-49090000D02*
X108285000Y-49090000D01*
X108285000Y-49090000D02*
X108585000Y-48490000D01*
X75705000Y-37640000D02*
X87055000Y-37640000D01*
X87055000Y-37640000D02*
X87055000Y-49440000D01*
X87055000Y-49440000D02*
X85855000Y-49440000D01*
X85855000Y-49440000D02*
X85855000Y-44940000D01*
X85855000Y-44940000D02*
X75705000Y-44940000D01*
X75705000Y-37640000D02*
X64355000Y-37640000D01*
X64355000Y-37640000D02*
X64355000Y-49440000D01*
X64355000Y-49440000D02*
X65555000Y-49440000D01*
X65555000Y-49440000D02*
X65555000Y-44940000D01*
X65555000Y-44940000D02*
X75705000Y-44940000D01*
X84705000Y-44290000D02*
X84705000Y-38290000D01*
X84705000Y-38290000D02*
X84205000Y-38290000D01*
X84205000Y-38290000D02*
X84205000Y-44290000D01*
X84205000Y-44290000D02*
X84705000Y-44290000D01*
X82205000Y-44290000D02*
X82205000Y-38290000D01*
X82205000Y-38290000D02*
X81705000Y-38290000D01*
X81705000Y-38290000D02*
X81705000Y-44290000D01*
X81705000Y-44290000D02*
X82205000Y-44290000D01*
X79705000Y-44290000D02*
X79705000Y-38290000D01*
X79705000Y-38290000D02*
X79205000Y-38290000D01*
X79205000Y-38290000D02*
X79205000Y-44290000D01*
X79205000Y-44290000D02*
X79705000Y-44290000D01*
X77205000Y-44290000D02*
X77205000Y-38290000D01*
X77205000Y-38290000D02*
X76705000Y-38290000D01*
X76705000Y-38290000D02*
X76705000Y-44290000D01*
X76705000Y-44290000D02*
X77205000Y-44290000D01*
X74705000Y-44290000D02*
X74705000Y-38290000D01*
X74705000Y-38290000D02*
X74205000Y-38290000D01*
X74205000Y-38290000D02*
X74205000Y-44290000D01*
X74205000Y-44290000D02*
X74705000Y-44290000D01*
X72205000Y-44290000D02*
X72205000Y-38290000D01*
X72205000Y-38290000D02*
X71705000Y-38290000D01*
X71705000Y-38290000D02*
X71705000Y-44290000D01*
X71705000Y-44290000D02*
X72205000Y-44290000D01*
X69705000Y-44290000D02*
X69705000Y-38290000D01*
X69705000Y-38290000D02*
X69205000Y-38290000D01*
X69205000Y-38290000D02*
X69205000Y-44290000D01*
X69205000Y-44290000D02*
X69705000Y-44290000D01*
X67205000Y-44290000D02*
X67205000Y-38290000D01*
X67205000Y-38290000D02*
X66705000Y-38290000D01*
X66705000Y-38290000D02*
X66705000Y-44290000D01*
X66705000Y-44290000D02*
X67205000Y-44290000D01*
X84455000Y-48490000D02*
X84755000Y-49090000D01*
X84755000Y-49090000D02*
X84155000Y-49090000D01*
X84155000Y-49090000D02*
X84455000Y-48490000D01*
X123235000Y-41015000D02*
X123235000Y-45515000D01*
X123235000Y-45515000D02*
X113335000Y-45515000D01*
X113335000Y-45515000D02*
X113335000Y-41015000D01*
X113335000Y-41015000D02*
X123235000Y-41015000D01*
X120785000Y-45515000D02*
X120785000Y-45015000D01*
X120785000Y-45015000D02*
X122735000Y-45015000D01*
X122735000Y-45015000D02*
X122735000Y-41515000D01*
X122735000Y-41515000D02*
X113835000Y-41515000D01*
X113835000Y-41515000D02*
X113835000Y-45015000D01*
X113835000Y-45015000D02*
X115785000Y-45015000D01*
X115785000Y-45015000D02*
X115785000Y-45515000D01*
X123235000Y-44315000D02*
X122735000Y-44315000D01*
X123235000Y-43015000D02*
X122735000Y-43015000D01*
X113835000Y-44315000D02*
X113335000Y-44315000D01*
X113835000Y-43015000D02*
X113335000Y-43015000D01*
X121585000Y-45515000D02*
X121585000Y-45715000D01*
X121585000Y-45715000D02*
X121885000Y-45715000D01*
X121885000Y-45715000D02*
X121885000Y-45515000D01*
X121585000Y-45615000D02*
X121885000Y-45615000D01*
X120385000Y-41515000D02*
X120385000Y-42015000D01*
X120385000Y-42015000D02*
X120185000Y-42015000D01*
X120185000Y-42015000D02*
X120185000Y-41515000D01*
X120285000Y-41515000D02*
X120285000Y-42015000D01*
X118385000Y-41515000D02*
X118385000Y-42015000D01*
X118385000Y-42015000D02*
X118185000Y-42015000D01*
X118185000Y-42015000D02*
X118185000Y-41515000D01*
X118285000Y-41515000D02*
X118285000Y-42015000D01*
X116385000Y-41515000D02*
X116385000Y-42015000D01*
X116385000Y-42015000D02*
X116185000Y-42015000D01*
X116185000Y-42015000D02*
X116185000Y-41515000D01*
X116285000Y-41515000D02*
X116285000Y-42015000D01*
X135300000Y-41015000D02*
X135300000Y-45515000D01*
X135300000Y-45515000D02*
X125400000Y-45515000D01*
X125400000Y-45515000D02*
X125400000Y-41015000D01*
X125400000Y-41015000D02*
X135300000Y-41015000D01*
X132850000Y-45515000D02*
X132850000Y-45015000D01*
X132850000Y-45015000D02*
X134800000Y-45015000D01*
X134800000Y-45015000D02*
X134800000Y-41515000D01*
X134800000Y-41515000D02*
X125900000Y-41515000D01*
X125900000Y-41515000D02*
X125900000Y-45015000D01*
X125900000Y-45015000D02*
X127850000Y-45015000D01*
X127850000Y-45015000D02*
X127850000Y-45515000D01*
X135300000Y-44315000D02*
X134800000Y-44315000D01*
X135300000Y-43015000D02*
X134800000Y-43015000D01*
X125900000Y-44315000D02*
X125400000Y-44315000D01*
X125900000Y-43015000D02*
X125400000Y-43015000D01*
X133650000Y-45515000D02*
X133650000Y-45715000D01*
X133650000Y-45715000D02*
X133950000Y-45715000D01*
X133950000Y-45715000D02*
X133950000Y-45515000D01*
X133650000Y-45615000D02*
X133950000Y-45615000D01*
X132450000Y-41515000D02*
X132450000Y-42015000D01*
X132450000Y-42015000D02*
X132250000Y-42015000D01*
X132250000Y-42015000D02*
X132250000Y-41515000D01*
X132350000Y-41515000D02*
X132350000Y-42015000D01*
X130450000Y-41515000D02*
X130450000Y-42015000D01*
X130450000Y-42015000D02*
X130250000Y-42015000D01*
X130250000Y-42015000D02*
X130250000Y-41515000D01*
X130350000Y-41515000D02*
X130350000Y-42015000D01*
X128450000Y-41515000D02*
X128450000Y-42015000D01*
X128450000Y-42015000D02*
X128250000Y-42015000D01*
X128250000Y-42015000D02*
X128250000Y-41515000D01*
X128350000Y-41515000D02*
X128350000Y-42015000D01*
X84185000Y-63940000D02*
X82185000Y-63940000D01*
X82185000Y-61790000D02*
X84185000Y-61790000D01*
X82185000Y-66235000D02*
X84185000Y-66235000D01*
X84185000Y-68385000D02*
X82185000Y-68385000D01*
X96250000Y-63940000D02*
X94250000Y-63940000D01*
X94250000Y-61790000D02*
X96250000Y-61790000D01*
X96250000Y-68385000D02*
X94250000Y-68385000D01*
X94250000Y-66235000D02*
X96250000Y-66235000D01*
X137885000Y-64145000D02*
X143835000Y-64145000D01*
X143835000Y-64145000D02*
X143835000Y-54045000D01*
X143835000Y-54045000D02*
X137885000Y-54045000D01*
X137885000Y-54045000D02*
X137885000Y-64145000D01*
X137885000Y-60845000D02*
X138635000Y-60845000D01*
X138635000Y-60845000D02*
X138635000Y-57345000D01*
X138635000Y-57345000D02*
X137885000Y-57345000D01*
X137885000Y-57345000D02*
X137885000Y-60845000D01*
X137885000Y-64145000D02*
X138635000Y-64145000D01*
X138635000Y-64145000D02*
X138635000Y-62345000D01*
X138635000Y-62345000D02*
X137885000Y-62345000D01*
X137885000Y-62345000D02*
X137885000Y-64145000D01*
X137885000Y-55845000D02*
X138635000Y-55845000D01*
X138635000Y-55845000D02*
X138635000Y-54045000D01*
X138635000Y-54045000D02*
X137885000Y-54045000D01*
X137885000Y-54045000D02*
X137885000Y-55845000D01*
X140135000Y-64145000D02*
X140135000Y-63395000D01*
X140135000Y-63395000D02*
X143085000Y-63395000D01*
X143085000Y-63395000D02*
X143085000Y-59095000D01*
X140135000Y-54045000D02*
X140135000Y-54795000D01*
X140135000Y-54795000D02*
X143085000Y-54795000D01*
X143085000Y-54795000D02*
X143085000Y-59095000D01*
X137585000Y-61595000D02*
X136985000Y-61895000D01*
X136985000Y-61895000D02*
X136985000Y-61295000D01*
X136985000Y-61295000D02*
X137585000Y-61595000D01*
X137885000Y-78115000D02*
X143835000Y-78115000D01*
X143835000Y-78115000D02*
X143835000Y-68015000D01*
X143835000Y-68015000D02*
X137885000Y-68015000D01*
X137885000Y-68015000D02*
X137885000Y-78115000D01*
X137885000Y-74815000D02*
X138635000Y-74815000D01*
X138635000Y-74815000D02*
X138635000Y-71315000D01*
X138635000Y-71315000D02*
X137885000Y-71315000D01*
X137885000Y-71315000D02*
X137885000Y-74815000D01*
X137885000Y-78115000D02*
X138635000Y-78115000D01*
X138635000Y-78115000D02*
X138635000Y-76315000D01*
X138635000Y-76315000D02*
X137885000Y-76315000D01*
X137885000Y-76315000D02*
X137885000Y-78115000D01*
X137885000Y-69815000D02*
X138635000Y-69815000D01*
X138635000Y-69815000D02*
X138635000Y-68015000D01*
X138635000Y-68015000D02*
X137885000Y-68015000D01*
X137885000Y-68015000D02*
X137885000Y-69815000D01*
X140135000Y-78115000D02*
X140135000Y-77365000D01*
X140135000Y-77365000D02*
X143085000Y-77365000D01*
X143085000Y-77365000D02*
X143085000Y-73065000D01*
X140135000Y-68015000D02*
X140135000Y-68765000D01*
X140135000Y-68765000D02*
X143085000Y-68765000D01*
X143085000Y-68765000D02*
X143085000Y-73065000D01*
X137585000Y-75565000D02*
X136985000Y-75865000D01*
X136985000Y-75865000D02*
X136985000Y-75265000D01*
X136985000Y-75265000D02*
X137585000Y-75565000D01*
X60286000Y-43000000D02*
G75*
G03X60286000Y-43000000I-2286000J0D01*
G01*
X144286000Y-43000000D02*
G75*
G03X144286000Y-43000000I-2286000J0D01*
G01*
X60286000Y-87000000D02*
G75*
G03X60286000Y-87000000I-2286000J0D01*
G01*
X144286000Y-87000000D02*
G75*
G03X144286000Y-87000000I-2286000J0D01*
G01*
X111760000Y-55880000D02*
X111760000Y-74930000D01*
X111760000Y-74930000D02*
X67310000Y-74930000D01*
X67310000Y-74930000D02*
X67310000Y-55880000D01*
X67310000Y-55880000D02*
X111760000Y-55880000D01*
X69850000Y-57785000D02*
G75*
G03X69850000Y-57785000I-635000J0D01*
G01*
X69850000Y-73025000D02*
G75*
G03X69850000Y-73025000I-635000J0D01*
G01*
X110490000Y-57785000D02*
G75*
G03X110490000Y-57785000I-635000J0D01*
G01*
X110490000Y-73025000D02*
G75*
G03X110490000Y-73025000I-635000J0D01*
G01*
X110490000Y-62865000D02*
G75*
G03X110490000Y-62865000I-635000J0D01*
G01*
X107950000Y-62865000D02*
G75*
G03X107950000Y-62865000I-635000J0D01*
G01*
X107950000Y-67945000D02*
G75*
G03X107950000Y-67945000I-635000J0D01*
G01*
X110490000Y-67945000D02*
G75*
G03X110490000Y-67945000I-635000J0D01*
G01*
X110490000Y-65405000D02*
G75*
G03X110490000Y-65405000I-635000J0D01*
G01*
X107950000Y-65405000D02*
G75*
G03X107950000Y-65405000I-635000J0D01*
G01*
X71120000Y-67945000D02*
X71120000Y-62865000D01*
X66675000Y-62865000D02*
X66675000Y-67945000D01*
X66675000Y-62865000D02*
X71120000Y-62865000D01*
X71120000Y-67945000D02*
X66675000Y-67945000D01*
X134460000Y-48600000D02*
X114460000Y-48600000D01*
X114460000Y-48600000D02*
X114460000Y-91100000D01*
X114460000Y-91100000D02*
X134460000Y-91100000D01*
X134460000Y-48600000D02*
X134460000Y-91100000D01*
X69159120Y-89598500D02*
X78160880Y-89598500D01*
X69159120Y-93098620D02*
X78160880Y-93098620D01*
X78160880Y-93098620D02*
X78160880Y-78597760D01*
X78160880Y-78597760D02*
X69159120Y-78597760D01*
X69159120Y-78597760D02*
X69159120Y-93098620D01*
X97917000Y-84201000D02*
X97917000Y-86741000D01*
X97917000Y-86741000D02*
X90297000Y-86741000D01*
X90297000Y-86741000D02*
X90297000Y-84201000D01*
X90297000Y-84201000D02*
X97917000Y-84201000D01*
X95377000Y-86741000D02*
X95377000Y-84201000D01*
X83278000Y-83194000D02*
X83278000Y-86794000D01*
X85378000Y-83194000D02*
X85378000Y-86794000D01*
X84628000Y-85244000D02*
X84028000Y-85244000D01*
X84028000Y-85244000D02*
X84328000Y-84944000D01*
X84328000Y-84944000D02*
X84528000Y-85144000D01*
X84528000Y-85144000D02*
X84278000Y-85144000D01*
X84278000Y-85144000D02*
X84328000Y-85094000D01*
X84828000Y-84844000D02*
X83828000Y-84844000D01*
X84328000Y-85344000D02*
X84328000Y-85844000D01*
X84328000Y-84844000D02*
X84828000Y-85344000D01*
X84828000Y-85344000D02*
X83828000Y-85344000D01*
X83828000Y-85344000D02*
X84328000Y-84844000D01*
X88578000Y-84471000D02*
X88578000Y-86471000D01*
X86428000Y-86471000D02*
X86428000Y-84471000D01*
X104608334Y-86082143D02*
X104560715Y-86129762D01*
X104417858Y-86177381D01*
X104322620Y-86177381D01*
X104179762Y-86129762D01*
X104084524Y-86034524D01*
X104036905Y-85939286D01*
X103989286Y-85748810D01*
X103989286Y-85605952D01*
X104036905Y-85415476D01*
X104084524Y-85320238D01*
X104179762Y-85225000D01*
X104322620Y-85177381D01*
X104417858Y-85177381D01*
X104560715Y-85225000D01*
X104608334Y-85272619D01*
X105560715Y-86177381D02*
X104989286Y-86177381D01*
X105275000Y-86177381D02*
X105275000Y-85177381D01*
X105179762Y-85320238D01*
X105084524Y-85415476D01*
X104989286Y-85463095D01*
X98168333Y-50942381D02*
X98168333Y-49942381D01*
X98168333Y-50418571D02*
X98739762Y-50418571D01*
X98739762Y-50942381D02*
X98739762Y-49942381D01*
X99644524Y-50275714D02*
X99644524Y-50942381D01*
X99215952Y-50275714D02*
X99215952Y-50799524D01*
X99263571Y-50894762D01*
X99358809Y-50942381D01*
X99501667Y-50942381D01*
X99596905Y-50894762D01*
X99644524Y-50847143D01*
X100120714Y-50942381D02*
X100120714Y-49942381D01*
X100120714Y-50323333D02*
X100215952Y-50275714D01*
X100406429Y-50275714D01*
X100501667Y-50323333D01*
X100549286Y-50370952D01*
X100596905Y-50466190D01*
X100596905Y-50751905D01*
X100549286Y-50847143D01*
X100501667Y-50894762D01*
X100406429Y-50942381D01*
X100215952Y-50942381D01*
X100120714Y-50894762D01*
X101549286Y-50942381D02*
X100977857Y-50942381D01*
X101263571Y-50942381D02*
X101263571Y-49942381D01*
X101168333Y-50085238D01*
X101073095Y-50180476D01*
X100977857Y-50228095D01*
X74038333Y-50942381D02*
X74038333Y-49942381D01*
X74038333Y-50418571D02*
X74609762Y-50418571D01*
X74609762Y-50942381D02*
X74609762Y-49942381D01*
X75514524Y-50275714D02*
X75514524Y-50942381D01*
X75085952Y-50275714D02*
X75085952Y-50799524D01*
X75133571Y-50894762D01*
X75228809Y-50942381D01*
X75371667Y-50942381D01*
X75466905Y-50894762D01*
X75514524Y-50847143D01*
X75990714Y-50942381D02*
X75990714Y-49942381D01*
X75990714Y-50323333D02*
X76085952Y-50275714D01*
X76276429Y-50275714D01*
X76371667Y-50323333D01*
X76419286Y-50370952D01*
X76466905Y-50466190D01*
X76466905Y-50751905D01*
X76419286Y-50847143D01*
X76371667Y-50894762D01*
X76276429Y-50942381D01*
X76085952Y-50942381D01*
X75990714Y-50894762D01*
X76847857Y-50037619D02*
X76895476Y-49990000D01*
X76990714Y-49942381D01*
X77228810Y-49942381D01*
X77324048Y-49990000D01*
X77371667Y-50037619D01*
X77419286Y-50132857D01*
X77419286Y-50228095D01*
X77371667Y-50370952D01*
X76800238Y-50942381D01*
X77419286Y-50942381D01*
X120237381Y-47267381D02*
X119761190Y-47267381D01*
X119761190Y-46267381D01*
X120951667Y-47219762D02*
X120856429Y-47267381D01*
X120665952Y-47267381D01*
X120570714Y-47219762D01*
X120523095Y-47124524D01*
X120523095Y-46743571D01*
X120570714Y-46648333D01*
X120665952Y-46600714D01*
X120856429Y-46600714D01*
X120951667Y-46648333D01*
X120999286Y-46743571D01*
X120999286Y-46838810D01*
X120523095Y-46934048D01*
X121856429Y-47267381D02*
X121856429Y-46267381D01*
X121856429Y-47219762D02*
X121761191Y-47267381D01*
X121570714Y-47267381D01*
X121475476Y-47219762D01*
X121427857Y-47172143D01*
X121380238Y-47076905D01*
X121380238Y-46791190D01*
X121427857Y-46695952D01*
X121475476Y-46648333D01*
X121570714Y-46600714D01*
X121761191Y-46600714D01*
X121856429Y-46648333D01*
X122856429Y-47267381D02*
X122285000Y-47267381D01*
X122570714Y-47267381D02*
X122570714Y-46267381D01*
X122475476Y-46410238D01*
X122380238Y-46505476D01*
X122285000Y-46553095D01*
X132302381Y-47267381D02*
X131826190Y-47267381D01*
X131826190Y-46267381D01*
X133016667Y-47219762D02*
X132921429Y-47267381D01*
X132730952Y-47267381D01*
X132635714Y-47219762D01*
X132588095Y-47124524D01*
X132588095Y-46743571D01*
X132635714Y-46648333D01*
X132730952Y-46600714D01*
X132921429Y-46600714D01*
X133016667Y-46648333D01*
X133064286Y-46743571D01*
X133064286Y-46838810D01*
X132588095Y-46934048D01*
X133921429Y-47267381D02*
X133921429Y-46267381D01*
X133921429Y-47219762D02*
X133826191Y-47267381D01*
X133635714Y-47267381D01*
X133540476Y-47219762D01*
X133492857Y-47172143D01*
X133445238Y-47076905D01*
X133445238Y-46791190D01*
X133492857Y-46695952D01*
X133540476Y-46648333D01*
X133635714Y-46600714D01*
X133826191Y-46600714D01*
X133921429Y-46648333D01*
X134350000Y-46362619D02*
X134397619Y-46315000D01*
X134492857Y-46267381D01*
X134730953Y-46267381D01*
X134826191Y-46315000D01*
X134873810Y-46362619D01*
X134921429Y-46457857D01*
X134921429Y-46553095D01*
X134873810Y-46695952D01*
X134302381Y-47267381D01*
X134921429Y-47267381D01*
X82423096Y-64555714D02*
X82423096Y-65222381D01*
X82185000Y-64174762D02*
X81946905Y-64889048D01*
X82565953Y-64889048D01*
X82851667Y-64222381D02*
X83518334Y-64222381D01*
X83089762Y-65222381D01*
X84089762Y-64222381D02*
X84185001Y-64222381D01*
X84280239Y-64270000D01*
X84327858Y-64317619D01*
X84375477Y-64412857D01*
X84423096Y-64603333D01*
X84423096Y-64841429D01*
X84375477Y-65031905D01*
X84327858Y-65127143D01*
X84280239Y-65174762D01*
X84185001Y-65222381D01*
X84089762Y-65222381D01*
X83994524Y-65174762D01*
X83946905Y-65127143D01*
X83899286Y-65031905D01*
X83851667Y-64841429D01*
X83851667Y-64603333D01*
X83899286Y-64412857D01*
X83946905Y-64317619D01*
X83994524Y-64270000D01*
X84089762Y-64222381D01*
X82423096Y-69000714D02*
X82423096Y-69667381D01*
X82185000Y-68619762D02*
X81946905Y-69334048D01*
X82565953Y-69334048D01*
X82851667Y-68667381D02*
X83518334Y-68667381D01*
X83089762Y-69667381D01*
X84089762Y-68667381D02*
X84185001Y-68667381D01*
X84280239Y-68715000D01*
X84327858Y-68762619D01*
X84375477Y-68857857D01*
X84423096Y-69048333D01*
X84423096Y-69286429D01*
X84375477Y-69476905D01*
X84327858Y-69572143D01*
X84280239Y-69619762D01*
X84185001Y-69667381D01*
X84089762Y-69667381D01*
X83994524Y-69619762D01*
X83946905Y-69572143D01*
X83899286Y-69476905D01*
X83851667Y-69286429D01*
X83851667Y-69048333D01*
X83899286Y-68857857D01*
X83946905Y-68762619D01*
X83994524Y-68715000D01*
X84089762Y-68667381D01*
X94488096Y-64555714D02*
X94488096Y-65222381D01*
X94250000Y-64174762D02*
X94011905Y-64889048D01*
X94630953Y-64889048D01*
X94916667Y-64222381D02*
X95583334Y-64222381D01*
X95154762Y-65222381D01*
X96154762Y-64222381D02*
X96250001Y-64222381D01*
X96345239Y-64270000D01*
X96392858Y-64317619D01*
X96440477Y-64412857D01*
X96488096Y-64603333D01*
X96488096Y-64841429D01*
X96440477Y-65031905D01*
X96392858Y-65127143D01*
X96345239Y-65174762D01*
X96250001Y-65222381D01*
X96154762Y-65222381D01*
X96059524Y-65174762D01*
X96011905Y-65127143D01*
X95964286Y-65031905D01*
X95916667Y-64841429D01*
X95916667Y-64603333D01*
X95964286Y-64412857D01*
X96011905Y-64317619D01*
X96059524Y-64270000D01*
X96154762Y-64222381D01*
X94488096Y-69000714D02*
X94488096Y-69667381D01*
X94250000Y-68619762D02*
X94011905Y-69334048D01*
X94630953Y-69334048D01*
X94916667Y-68667381D02*
X95583334Y-68667381D01*
X95154762Y-69667381D01*
X96154762Y-68667381D02*
X96250001Y-68667381D01*
X96345239Y-68715000D01*
X96392858Y-68762619D01*
X96440477Y-68857857D01*
X96488096Y-69048333D01*
X96488096Y-69286429D01*
X96440477Y-69476905D01*
X96392858Y-69572143D01*
X96345239Y-69619762D01*
X96250001Y-69667381D01*
X96154762Y-69667381D01*
X96059524Y-69619762D01*
X96011905Y-69572143D01*
X95964286Y-69476905D01*
X95916667Y-69286429D01*
X95916667Y-69048333D01*
X95964286Y-68857857D01*
X96011905Y-68762619D01*
X96059524Y-68715000D01*
X96154762Y-68667381D01*
X136929762Y-59324524D02*
X136977381Y-59181667D01*
X136977381Y-58943571D01*
X136929762Y-58848333D01*
X136882143Y-58800714D01*
X136786905Y-58753095D01*
X136691667Y-58753095D01*
X136596429Y-58800714D01*
X136548810Y-58848333D01*
X136501190Y-58943571D01*
X136453571Y-59134048D01*
X136405952Y-59229286D01*
X136358333Y-59276905D01*
X136263095Y-59324524D01*
X136167857Y-59324524D01*
X136072619Y-59276905D01*
X136025000Y-59229286D01*
X135977381Y-59134048D01*
X135977381Y-58895952D01*
X136025000Y-58753095D01*
X136929762Y-57943571D02*
X136977381Y-58038809D01*
X136977381Y-58229286D01*
X136929762Y-58324524D01*
X136834524Y-58372143D01*
X136453571Y-58372143D01*
X136358333Y-58324524D01*
X136310714Y-58229286D01*
X136310714Y-58038809D01*
X136358333Y-57943571D01*
X136453571Y-57895952D01*
X136548810Y-57895952D01*
X136644048Y-58372143D01*
X136310714Y-57467381D02*
X136977381Y-57467381D01*
X136405952Y-57467381D02*
X136358333Y-57419762D01*
X136310714Y-57324524D01*
X136310714Y-57181666D01*
X136358333Y-57086428D01*
X136453571Y-57038809D01*
X136977381Y-57038809D01*
X136929762Y-56610238D02*
X136977381Y-56515000D01*
X136977381Y-56324524D01*
X136929762Y-56229285D01*
X136834524Y-56181666D01*
X136786905Y-56181666D01*
X136691667Y-56229285D01*
X136644048Y-56324524D01*
X136644048Y-56467381D01*
X136596429Y-56562619D01*
X136501190Y-56610238D01*
X136453571Y-56610238D01*
X136358333Y-56562619D01*
X136310714Y-56467381D01*
X136310714Y-56324524D01*
X136358333Y-56229285D01*
X136977381Y-55610238D02*
X136929762Y-55705476D01*
X136882143Y-55753095D01*
X136786905Y-55800714D01*
X136501190Y-55800714D01*
X136405952Y-55753095D01*
X136358333Y-55705476D01*
X136310714Y-55610238D01*
X136310714Y-55467380D01*
X136358333Y-55372142D01*
X136405952Y-55324523D01*
X136501190Y-55276904D01*
X136786905Y-55276904D01*
X136882143Y-55324523D01*
X136929762Y-55372142D01*
X136977381Y-55467380D01*
X136977381Y-55610238D01*
X136977381Y-54848333D02*
X136310714Y-54848333D01*
X136501190Y-54848333D02*
X136405952Y-54800714D01*
X136358333Y-54753095D01*
X136310714Y-54657857D01*
X136310714Y-54562618D01*
X136977381Y-53705475D02*
X136977381Y-54276904D01*
X136977381Y-53991190D02*
X135977381Y-53991190D01*
X136120238Y-54086428D01*
X136215476Y-54181666D01*
X136263095Y-54276904D01*
X136929762Y-73294524D02*
X136977381Y-73151667D01*
X136977381Y-72913571D01*
X136929762Y-72818333D01*
X136882143Y-72770714D01*
X136786905Y-72723095D01*
X136691667Y-72723095D01*
X136596429Y-72770714D01*
X136548810Y-72818333D01*
X136501190Y-72913571D01*
X136453571Y-73104048D01*
X136405952Y-73199286D01*
X136358333Y-73246905D01*
X136263095Y-73294524D01*
X136167857Y-73294524D01*
X136072619Y-73246905D01*
X136025000Y-73199286D01*
X135977381Y-73104048D01*
X135977381Y-72865952D01*
X136025000Y-72723095D01*
X136929762Y-71913571D02*
X136977381Y-72008809D01*
X136977381Y-72199286D01*
X136929762Y-72294524D01*
X136834524Y-72342143D01*
X136453571Y-72342143D01*
X136358333Y-72294524D01*
X136310714Y-72199286D01*
X136310714Y-72008809D01*
X136358333Y-71913571D01*
X136453571Y-71865952D01*
X136548810Y-71865952D01*
X136644048Y-72342143D01*
X136310714Y-71437381D02*
X136977381Y-71437381D01*
X136405952Y-71437381D02*
X136358333Y-71389762D01*
X136310714Y-71294524D01*
X136310714Y-71151666D01*
X136358333Y-71056428D01*
X136453571Y-71008809D01*
X136977381Y-71008809D01*
X136929762Y-70580238D02*
X136977381Y-70485000D01*
X136977381Y-70294524D01*
X136929762Y-70199285D01*
X136834524Y-70151666D01*
X136786905Y-70151666D01*
X136691667Y-70199285D01*
X136644048Y-70294524D01*
X136644048Y-70437381D01*
X136596429Y-70532619D01*
X136501190Y-70580238D01*
X136453571Y-70580238D01*
X136358333Y-70532619D01*
X136310714Y-70437381D01*
X136310714Y-70294524D01*
X136358333Y-70199285D01*
X136977381Y-69580238D02*
X136929762Y-69675476D01*
X136882143Y-69723095D01*
X136786905Y-69770714D01*
X136501190Y-69770714D01*
X136405952Y-69723095D01*
X136358333Y-69675476D01*
X136310714Y-69580238D01*
X136310714Y-69437380D01*
X136358333Y-69342142D01*
X136405952Y-69294523D01*
X136501190Y-69246904D01*
X136786905Y-69246904D01*
X136882143Y-69294523D01*
X136929762Y-69342142D01*
X136977381Y-69437380D01*
X136977381Y-69580238D01*
X136977381Y-68818333D02*
X136310714Y-68818333D01*
X136501190Y-68818333D02*
X136405952Y-68770714D01*
X136358333Y-68723095D01*
X136310714Y-68627857D01*
X136310714Y-68532618D01*
X136072619Y-68246904D02*
X136025000Y-68199285D01*
X135977381Y-68104047D01*
X135977381Y-67865951D01*
X136025000Y-67770713D01*
X136072619Y-67723094D01*
X136167857Y-67675475D01*
X136263095Y-67675475D01*
X136405952Y-67723094D01*
X136977381Y-68294523D01*
X136977381Y-67675475D01*
X73191667Y-70262143D02*
X73191667Y-69785952D01*
X73477381Y-70357381D02*
X72477381Y-70024048D01*
X73477381Y-69690714D01*
X73477381Y-69357381D02*
X72810714Y-69357381D01*
X73001190Y-69357381D02*
X72905952Y-69309762D01*
X72858333Y-69262143D01*
X72810714Y-69166905D01*
X72810714Y-69071666D01*
X73477381Y-68309761D02*
X72477381Y-68309761D01*
X73429762Y-68309761D02*
X73477381Y-68404999D01*
X73477381Y-68595476D01*
X73429762Y-68690714D01*
X73382143Y-68738333D01*
X73286905Y-68785952D01*
X73001190Y-68785952D01*
X72905952Y-68738333D01*
X72858333Y-68690714D01*
X72810714Y-68595476D01*
X72810714Y-68404999D01*
X72858333Y-68309761D01*
X72810714Y-67404999D02*
X73477381Y-67404999D01*
X72810714Y-67833571D02*
X73334524Y-67833571D01*
X73429762Y-67785952D01*
X73477381Y-67690714D01*
X73477381Y-67547856D01*
X73429762Y-67452618D01*
X73382143Y-67404999D01*
X73477381Y-66928809D02*
X72810714Y-66928809D01*
X72477381Y-66928809D02*
X72525000Y-66976428D01*
X72572619Y-66928809D01*
X72525000Y-66881190D01*
X72477381Y-66928809D01*
X72572619Y-66928809D01*
X72810714Y-66452619D02*
X73477381Y-66452619D01*
X72905952Y-66452619D02*
X72858333Y-66405000D01*
X72810714Y-66309762D01*
X72810714Y-66166904D01*
X72858333Y-66071666D01*
X72953571Y-66024047D01*
X73477381Y-66024047D01*
X73477381Y-65405000D02*
X73429762Y-65500238D01*
X73382143Y-65547857D01*
X73286905Y-65595476D01*
X73001190Y-65595476D01*
X72905952Y-65547857D01*
X72858333Y-65500238D01*
X72810714Y-65405000D01*
X72810714Y-65262142D01*
X72858333Y-65166904D01*
X72905952Y-65119285D01*
X73001190Y-65071666D01*
X73286905Y-65071666D01*
X73382143Y-65119285D01*
X73429762Y-65166904D01*
X73477381Y-65262142D01*
X73477381Y-65405000D01*
X73477381Y-63881190D02*
X72477381Y-63881190D01*
X73477381Y-63309761D01*
X72477381Y-63309761D01*
X73477381Y-62404999D02*
X72953571Y-62404999D01*
X72858333Y-62452618D01*
X72810714Y-62547856D01*
X72810714Y-62738333D01*
X72858333Y-62833571D01*
X73429762Y-62404999D02*
X73477381Y-62500237D01*
X73477381Y-62738333D01*
X73429762Y-62833571D01*
X73334524Y-62881190D01*
X73239286Y-62881190D01*
X73144048Y-62833571D01*
X73096429Y-62738333D01*
X73096429Y-62500237D01*
X73048810Y-62404999D01*
X72810714Y-61928809D02*
X73477381Y-61928809D01*
X72905952Y-61928809D02*
X72858333Y-61881190D01*
X72810714Y-61785952D01*
X72810714Y-61643094D01*
X72858333Y-61547856D01*
X72953571Y-61500237D01*
X73477381Y-61500237D01*
X73477381Y-60881190D02*
X73429762Y-60976428D01*
X73382143Y-61024047D01*
X73286905Y-61071666D01*
X73001190Y-61071666D01*
X72905952Y-61024047D01*
X72858333Y-60976428D01*
X72810714Y-60881190D01*
X72810714Y-60738332D01*
X72858333Y-60643094D01*
X72905952Y-60595475D01*
X73001190Y-60547856D01*
X73286905Y-60547856D01*
X73382143Y-60595475D01*
X73429762Y-60643094D01*
X73477381Y-60738332D01*
X73477381Y-60881190D01*
X69000714Y-66047857D02*
X69667381Y-66047857D01*
X69000714Y-66476429D02*
X69524524Y-66476429D01*
X69619762Y-66428810D01*
X69667381Y-66333572D01*
X69667381Y-66190714D01*
X69619762Y-66095476D01*
X69572143Y-66047857D01*
X69619762Y-65619286D02*
X69667381Y-65524048D01*
X69667381Y-65333572D01*
X69619762Y-65238333D01*
X69524524Y-65190714D01*
X69476905Y-65190714D01*
X69381667Y-65238333D01*
X69334048Y-65333572D01*
X69334048Y-65476429D01*
X69286429Y-65571667D01*
X69191190Y-65619286D01*
X69143571Y-65619286D01*
X69048333Y-65571667D01*
X69000714Y-65476429D01*
X69000714Y-65333572D01*
X69048333Y-65238333D01*
X69667381Y-64762143D02*
X68667381Y-64762143D01*
X69048333Y-64762143D02*
X69000714Y-64666905D01*
X69000714Y-64476428D01*
X69048333Y-64381190D01*
X69095952Y-64333571D01*
X69191190Y-64285952D01*
X69476905Y-64285952D01*
X69572143Y-64333571D01*
X69619762Y-64381190D01*
X69667381Y-64476428D01*
X69667381Y-64666905D01*
X69619762Y-64762143D01*
X131912381Y-70659524D02*
X130912381Y-70659524D01*
X131626667Y-70326190D01*
X130912381Y-69992857D01*
X131912381Y-69992857D01*
X131912381Y-68992857D02*
X131912381Y-69564286D01*
X131912381Y-69278572D02*
X130912381Y-69278572D01*
X131055238Y-69373810D01*
X131150476Y-69469048D01*
X131198095Y-69564286D01*
X115412381Y-87552381D02*
X115412381Y-87361904D01*
X115460000Y-87266666D01*
X115555238Y-87171428D01*
X115745714Y-87123809D01*
X116079048Y-87123809D01*
X116269524Y-87171428D01*
X116364762Y-87266666D01*
X116412381Y-87361904D01*
X116412381Y-87552381D01*
X116364762Y-87647619D01*
X116269524Y-87742857D01*
X116079048Y-87790476D01*
X115745714Y-87790476D01*
X115555238Y-87742857D01*
X115460000Y-87647619D01*
X115412381Y-87552381D01*
X115745714Y-86266666D02*
X116412381Y-86266666D01*
X115745714Y-86695238D02*
X116269524Y-86695238D01*
X116364762Y-86647619D01*
X116412381Y-86552381D01*
X116412381Y-86409523D01*
X116364762Y-86314285D01*
X116317143Y-86266666D01*
X115745714Y-85933333D02*
X115745714Y-85552381D01*
X115412381Y-85790476D02*
X116269524Y-85790476D01*
X116364762Y-85742857D01*
X116412381Y-85647619D01*
X116412381Y-85552381D01*
X116031429Y-85219047D02*
X116031429Y-84457142D01*
X132412381Y-87552381D02*
X132412381Y-87361904D01*
X132460000Y-87266666D01*
X132555238Y-87171428D01*
X132745714Y-87123809D01*
X133079048Y-87123809D01*
X133269524Y-87171428D01*
X133364762Y-87266666D01*
X133412381Y-87361904D01*
X133412381Y-87552381D01*
X133364762Y-87647619D01*
X133269524Y-87742857D01*
X133079048Y-87790476D01*
X132745714Y-87790476D01*
X132555238Y-87742857D01*
X132460000Y-87647619D01*
X132412381Y-87552381D01*
X132745714Y-86266666D02*
X133412381Y-86266666D01*
X132745714Y-86695238D02*
X133269524Y-86695238D01*
X133364762Y-86647619D01*
X133412381Y-86552381D01*
X133412381Y-86409523D01*
X133364762Y-86314285D01*
X133317143Y-86266666D01*
X132745714Y-85933333D02*
X132745714Y-85552381D01*
X132412381Y-85790476D02*
X133269524Y-85790476D01*
X133364762Y-85742857D01*
X133412381Y-85647619D01*
X133412381Y-85552381D01*
X133031429Y-85219047D02*
X133031429Y-84457142D01*
X133412381Y-84838094D02*
X132650476Y-84838094D01*
X116412381Y-54171428D02*
X115412381Y-54171428D01*
X115745714Y-53695238D02*
X116412381Y-53695238D01*
X115840952Y-53695238D02*
X115793333Y-53647619D01*
X115745714Y-53552381D01*
X115745714Y-53409523D01*
X115793333Y-53314285D01*
X115888571Y-53266666D01*
X116412381Y-53266666D01*
X116031429Y-52790476D02*
X116031429Y-52028571D01*
X133412381Y-54171428D02*
X132412381Y-54171428D01*
X132745714Y-53695238D02*
X133412381Y-53695238D01*
X132840952Y-53695238D02*
X132793333Y-53647619D01*
X132745714Y-53552381D01*
X132745714Y-53409523D01*
X132793333Y-53314285D01*
X132888571Y-53266666D01*
X133412381Y-53266666D01*
X133031429Y-52790476D02*
X133031429Y-52028571D01*
X133412381Y-52409523D02*
X132650476Y-52409523D01*
X72921905Y-75951341D02*
X72921905Y-74951341D01*
X73302858Y-74951341D01*
X73398096Y-74998960D01*
X73445715Y-75046579D01*
X73493334Y-75141817D01*
X73493334Y-75284674D01*
X73445715Y-75379912D01*
X73398096Y-75427531D01*
X73302858Y-75475150D01*
X72921905Y-75475150D01*
X74445715Y-75951341D02*
X73874286Y-75951341D01*
X74160000Y-75951341D02*
X74160000Y-74951341D01*
X74064762Y-75094198D01*
X73969524Y-75189436D01*
X73874286Y-75237055D01*
X92773667Y-88415762D02*
X92916524Y-88463381D01*
X93154620Y-88463381D01*
X93249858Y-88415762D01*
X93297477Y-88368143D01*
X93345096Y-88272905D01*
X93345096Y-88177667D01*
X93297477Y-88082429D01*
X93249858Y-88034810D01*
X93154620Y-87987190D01*
X92964143Y-87939571D01*
X92868905Y-87891952D01*
X92821286Y-87844333D01*
X92773667Y-87749095D01*
X92773667Y-87653857D01*
X92821286Y-87558619D01*
X92868905Y-87511000D01*
X92964143Y-87463381D01*
X93202239Y-87463381D01*
X93345096Y-87511000D01*
X93678429Y-87463381D02*
X93916524Y-88463381D01*
X94107001Y-87749095D01*
X94297477Y-88463381D01*
X94535572Y-87463381D01*
X95440334Y-88463381D02*
X94868905Y-88463381D01*
X95154619Y-88463381D02*
X95154619Y-87463381D01*
X95059381Y-87606238D01*
X94964143Y-87701476D01*
X94868905Y-87749095D01*
D10*
X87864905Y-86004333D02*
X87864905Y-86461476D01*
X87864905Y-86232905D02*
X87064905Y-86232905D01*
X87179190Y-86309095D01*
X87255381Y-86385286D01*
X87293476Y-86461476D01*
X87064905Y-85280523D02*
X87064905Y-85661476D01*
X87445857Y-85699571D01*
X87407762Y-85661476D01*
X87369667Y-85585285D01*
X87369667Y-85394809D01*
X87407762Y-85318619D01*
X87445857Y-85280523D01*
X87522048Y-85242428D01*
X87712524Y-85242428D01*
X87788714Y-85280523D01*
X87826810Y-85318619D01*
X87864905Y-85394809D01*
X87864905Y-85585285D01*
X87826810Y-85661476D01*
X87788714Y-85699571D01*
X87064905Y-84747190D02*
X87064905Y-84670999D01*
X87103000Y-84594809D01*
X87141095Y-84556714D01*
X87217286Y-84518618D01*
X87369667Y-84480523D01*
X87560143Y-84480523D01*
X87712524Y-84518618D01*
X87788714Y-84556714D01*
X87826810Y-84594809D01*
X87864905Y-84670999D01*
X87864905Y-84747190D01*
X87826810Y-84823380D01*
X87788714Y-84861476D01*
X87712524Y-84899571D01*
X87560143Y-84937666D01*
X87369667Y-84937666D01*
X87217286Y-84899571D01*
X87141095Y-84861476D01*
X87103000Y-84823380D01*
X87064905Y-84747190D01*
M02*
