G04 #@! TF.FileFunction,Copper,L1,Top,Signal*
%FSLAX46Y46*%
G04 Gerber Fmt 4.6, Leading zero omitted, Abs format (unit mm)*
G04 Created by KiCad (PCBNEW 4.0.3+e1-6302~38~ubuntu15.04.1-stable) date Mon Sep 12 00:10:40 2016*
%MOMM*%
%LPD*%
G01*
G04 APERTURE LIST*
%ADD10C,0.100000*%
%ADD11R,1.300000X1.300000*%
%ADD12C,1.300000*%
%ADD13R,1.750000X1.750000*%
%ADD14C,1.750000*%
%ADD15R,1.200000X1.700000*%
%ADD16O,1.200000X1.700000*%
%ADD17R,2.000000X1.700000*%
%ADD18C,3.200000*%
%ADD19R,1.727200X1.727200*%
%ADD20C,1.727200*%
%ADD21C,1.524000*%
%ADD22R,3.500120X3.500120*%
%ADD23R,1.397000X1.397000*%
%ADD24C,1.397000*%
%ADD25R,1.800860X1.597660*%
%ADD26R,1.700000X2.000000*%
%ADD27C,0.600000*%
%ADD28C,0.250000*%
%ADD29C,0.254000*%
G04 APERTURE END LIST*
D10*
D11*
X104775000Y-83185000D03*
D12*
X109775000Y-83185000D03*
D13*
X108585000Y-46990000D03*
D14*
X106085000Y-46990000D03*
X103585000Y-46990000D03*
X101085000Y-46990000D03*
X98585000Y-46990000D03*
X96085000Y-46990000D03*
X93585000Y-46990000D03*
X91085000Y-46990000D03*
D13*
X84455000Y-46990000D03*
D14*
X81955000Y-46990000D03*
X79455000Y-46990000D03*
X76955000Y-46990000D03*
X74455000Y-46990000D03*
X71955000Y-46990000D03*
X69455000Y-46990000D03*
X66955000Y-46990000D03*
D15*
X121285000Y-43815000D03*
D16*
X119285000Y-43815000D03*
X117285000Y-43815000D03*
X115285000Y-43815000D03*
D15*
X133350000Y-43815000D03*
D16*
X131350000Y-43815000D03*
X129350000Y-43815000D03*
X127350000Y-43815000D03*
D17*
X81185000Y-62865000D03*
X85185000Y-62865000D03*
X85185000Y-67310000D03*
X81185000Y-67310000D03*
X93250000Y-62865000D03*
X97250000Y-62865000D03*
X93250000Y-67310000D03*
X97250000Y-67310000D03*
D13*
X140335000Y-61595000D03*
D14*
X140335000Y-59095000D03*
X140335000Y-56595000D03*
D13*
X140335000Y-75565000D03*
D14*
X140335000Y-73065000D03*
X140335000Y-70565000D03*
D18*
X58000000Y-43000000D03*
X142000000Y-43000000D03*
X58000000Y-87000000D03*
X142000000Y-87000000D03*
D19*
X107315000Y-57785000D03*
D20*
X104775000Y-57785000D03*
X102235000Y-57785000D03*
X99695000Y-57785000D03*
X97155000Y-57785000D03*
X94615000Y-57785000D03*
X92075000Y-57785000D03*
X89535000Y-57785000D03*
X86995000Y-57785000D03*
X84455000Y-57785000D03*
X81915000Y-57785000D03*
X79375000Y-57785000D03*
X76835000Y-57785000D03*
X74295000Y-57785000D03*
X71755000Y-57785000D03*
X71755000Y-73025000D03*
X74295000Y-73025000D03*
X76835000Y-73025000D03*
X79375000Y-73025000D03*
X81915000Y-73025000D03*
X84455000Y-73025000D03*
X86995000Y-73025000D03*
X89535000Y-73025000D03*
X92075000Y-73025000D03*
X94615000Y-73025000D03*
X97155000Y-73025000D03*
X99695000Y-73025000D03*
X102235000Y-73025000D03*
X104775000Y-73025000D03*
X107315000Y-73025000D03*
D21*
X132960000Y-50100000D03*
X115960000Y-50100000D03*
X132960000Y-89600000D03*
X115960000Y-89600000D03*
D22*
X73660000Y-79397860D03*
X73660000Y-85397340D03*
X78359000Y-82397600D03*
D23*
X96647000Y-85471000D03*
D24*
X94107000Y-85471000D03*
X91567000Y-85471000D03*
D25*
X84328000Y-86763860D03*
X84328000Y-83924140D03*
D26*
X87503000Y-87471000D03*
X87503000Y-83471000D03*
D27*
X123825000Y-59055000D03*
X123825000Y-74295000D03*
X87503000Y-83471000D03*
D28*
X103585000Y-46990000D02*
X103585000Y-51355000D01*
X103585000Y-51355000D02*
X97155000Y-57785000D01*
X101085000Y-46990000D02*
X101085000Y-51315000D01*
X101085000Y-51315000D02*
X94615000Y-57785000D01*
X98585000Y-46990000D02*
X98585000Y-51275000D01*
X98585000Y-51275000D02*
X92075000Y-57785000D01*
X96085000Y-46990000D02*
X96085000Y-51235000D01*
X96085000Y-51235000D02*
X89535000Y-57785000D01*
X93585000Y-46990000D02*
X93585000Y-51195000D01*
X93585000Y-51195000D02*
X86995000Y-57785000D01*
X79455000Y-46990000D02*
X79455000Y-52785000D01*
X79455000Y-52785000D02*
X84455000Y-57785000D01*
X76955000Y-46990000D02*
X76955000Y-52825000D01*
X76955000Y-52825000D02*
X81915000Y-57785000D01*
X74455000Y-46990000D02*
X74455000Y-52865000D01*
X74455000Y-52865000D02*
X79375000Y-57785000D01*
X71955000Y-46990000D02*
X71955000Y-52905000D01*
X71955000Y-52905000D02*
X76835000Y-57785000D01*
X69455000Y-46990000D02*
X69455000Y-52945000D01*
X69455000Y-52945000D02*
X74295000Y-57785000D01*
X123825000Y-59055000D02*
X137875000Y-59055000D01*
X137875000Y-59055000D02*
X140335000Y-56595000D01*
X139780000Y-56595000D02*
X140335000Y-56595000D01*
X140255000Y-56595000D02*
X140335000Y-56595000D01*
X138430000Y-72470000D02*
X140335000Y-70565000D01*
X138430000Y-73660000D02*
X138430000Y-72470000D01*
X137795000Y-74295000D02*
X138430000Y-73660000D01*
X123825000Y-74295000D02*
X137795000Y-74295000D01*
X79375000Y-73025000D02*
X82701992Y-69698008D01*
X82701992Y-69698008D02*
X82701992Y-66106232D01*
X82701992Y-66106232D02*
X81185000Y-64589240D01*
X81185000Y-64589240D02*
X81185000Y-62865000D01*
X81280000Y-62865000D02*
X81185000Y-62865000D01*
X85185000Y-67310000D02*
X85185000Y-67903246D01*
X85185000Y-67903246D02*
X81915000Y-71173246D01*
X81915000Y-71173246D02*
X81915000Y-73025000D01*
X85090000Y-67310000D02*
X85185000Y-67310000D01*
X85090000Y-67405000D02*
X85185000Y-67310000D01*
X84455000Y-73025000D02*
X84455000Y-70858386D01*
X84455000Y-70858386D02*
X88638386Y-66675000D01*
X88638386Y-66675000D02*
X91140661Y-66675000D01*
X91140661Y-66675000D02*
X93250000Y-64565661D01*
X93250000Y-64565661D02*
X93250000Y-63637800D01*
X93250000Y-63637800D02*
X93250000Y-62865000D01*
X93250000Y-62865000D02*
X93250000Y-63595000D01*
X93250000Y-62865000D02*
X93250000Y-62960000D01*
X86995000Y-73025000D02*
X86995000Y-69215000D01*
X86995000Y-69215000D02*
X88900000Y-67310000D01*
X93250000Y-67310000D02*
X88900000Y-67310000D01*
X93345000Y-67405000D02*
X93250000Y-67310000D01*
X85185000Y-62865000D02*
X85185000Y-58993676D01*
X85185000Y-58993676D02*
X85725000Y-58453676D01*
X85725000Y-58453676D02*
X85725000Y-56515000D01*
X85725000Y-56515000D02*
X91085000Y-51155000D01*
X91085000Y-51155000D02*
X91085000Y-46990000D01*
X81185000Y-67310000D02*
X81185000Y-65622438D01*
X81185000Y-65622438D02*
X79375000Y-63812438D01*
X70485000Y-56478459D02*
X66955000Y-52948459D01*
X66955000Y-52948459D02*
X66955000Y-46990000D01*
X79375000Y-63812438D02*
X79375000Y-60312755D01*
X79375000Y-60312755D02*
X78116210Y-59053965D01*
X78116210Y-59053965D02*
X71120982Y-59053965D01*
X71120982Y-59053965D02*
X70485000Y-58417983D01*
X70485000Y-58417983D02*
X70485000Y-56478459D01*
X117285000Y-44065000D02*
X117285000Y-43815000D01*
X112455000Y-48895000D02*
X117285000Y-44065000D01*
X108585000Y-48895000D02*
X112455000Y-48895000D01*
X100965000Y-60960000D02*
X100965000Y-56515000D01*
X99060000Y-62865000D02*
X100965000Y-60960000D01*
X100965000Y-56515000D02*
X108585000Y-48895000D01*
X97250000Y-62865000D02*
X99060000Y-62865000D01*
X117285000Y-43815000D02*
X117292841Y-43822841D01*
X97250000Y-67310000D02*
X97250000Y-65641285D01*
X97250000Y-65641285D02*
X103505000Y-59386285D01*
X103505000Y-59386285D02*
X103505000Y-56515000D01*
X103505000Y-56515000D02*
X110490000Y-49530000D01*
X110490000Y-49530000D02*
X112688332Y-49530000D01*
X112688332Y-49530000D02*
X117133332Y-45085000D01*
X129350000Y-44065000D02*
X129350000Y-43815000D01*
X117133332Y-45085000D02*
X128330000Y-45085000D01*
X128330000Y-45085000D02*
X129350000Y-44065000D01*
X129350000Y-43826708D02*
X129350000Y-43815000D01*
X84328000Y-86763860D02*
X86795860Y-86763860D01*
X86795860Y-86763860D02*
X87503000Y-87471000D01*
D29*
G36*
X137994981Y-40318874D02*
X137273823Y-42055617D01*
X137272182Y-43936133D01*
X137990308Y-45674132D01*
X139318874Y-47005019D01*
X141055617Y-47726177D01*
X142936133Y-47727818D01*
X144674132Y-47009692D01*
X145873000Y-45812915D01*
X145873000Y-84188937D01*
X144681126Y-82994981D01*
X142944383Y-82273823D01*
X141063867Y-82272182D01*
X139325868Y-82990308D01*
X137994981Y-84318874D01*
X137273823Y-86055617D01*
X137272182Y-87936133D01*
X137990308Y-89674132D01*
X139187085Y-90873000D01*
X133537350Y-90873000D01*
X133750303Y-90785010D01*
X134143629Y-90392370D01*
X134356757Y-89879100D01*
X134357242Y-89323339D01*
X134145010Y-88809697D01*
X133752370Y-88416371D01*
X133239100Y-88203243D01*
X132683339Y-88202758D01*
X132169697Y-88414990D01*
X131776371Y-88807630D01*
X131563243Y-89320900D01*
X131562758Y-89876661D01*
X131774990Y-90390303D01*
X132167630Y-90783629D01*
X132382860Y-90873000D01*
X116568977Y-90873000D01*
X116691143Y-90822397D01*
X116760608Y-90580213D01*
X115960000Y-89779605D01*
X115159392Y-90580213D01*
X115228857Y-90822397D01*
X115370695Y-90873000D01*
X60811063Y-90873000D01*
X62005019Y-89681126D01*
X62124949Y-89392302D01*
X114550856Y-89392302D01*
X114578638Y-89947368D01*
X114737603Y-90331143D01*
X114979787Y-90400608D01*
X115780395Y-89600000D01*
X116139605Y-89600000D01*
X116940213Y-90400608D01*
X117182397Y-90331143D01*
X117369144Y-89807698D01*
X117341362Y-89252632D01*
X117182397Y-88868857D01*
X116940213Y-88799392D01*
X116139605Y-89600000D01*
X115780395Y-89600000D01*
X114979787Y-88799392D01*
X114737603Y-88868857D01*
X114550856Y-89392302D01*
X62124949Y-89392302D01*
X62726177Y-87944383D01*
X62727818Y-86063867D01*
X62570485Y-85683090D01*
X71274940Y-85683090D01*
X71274940Y-87273709D01*
X71371613Y-87507098D01*
X71550241Y-87685727D01*
X71783630Y-87782400D01*
X73374250Y-87782400D01*
X73533000Y-87623650D01*
X73533000Y-85524340D01*
X73787000Y-85524340D01*
X73787000Y-87623650D01*
X73945750Y-87782400D01*
X75536370Y-87782400D01*
X75769759Y-87685727D01*
X75948387Y-87507098D01*
X76045060Y-87273709D01*
X76045060Y-85965030D01*
X82780130Y-85965030D01*
X82780130Y-87562690D01*
X82824408Y-87798007D01*
X82963480Y-88014131D01*
X83175680Y-88159121D01*
X83427570Y-88210130D01*
X85228430Y-88210130D01*
X85463747Y-88165852D01*
X85679871Y-88026780D01*
X85824861Y-87814580D01*
X85875870Y-87562690D01*
X85875870Y-87523860D01*
X86005560Y-87523860D01*
X86005560Y-88471000D01*
X86049838Y-88706317D01*
X86188910Y-88922441D01*
X86401110Y-89067431D01*
X86653000Y-89118440D01*
X88353000Y-89118440D01*
X88588317Y-89074162D01*
X88804441Y-88935090D01*
X88949431Y-88722890D01*
X88970309Y-88619787D01*
X115159392Y-88619787D01*
X115960000Y-89420395D01*
X116760608Y-88619787D01*
X116691143Y-88377603D01*
X116167698Y-88190856D01*
X115612632Y-88218638D01*
X115228857Y-88377603D01*
X115159392Y-88619787D01*
X88970309Y-88619787D01*
X89000440Y-88471000D01*
X89000440Y-86471000D01*
X88956162Y-86235683D01*
X88817090Y-86019559D01*
X88604890Y-85874569D01*
X88353000Y-85823560D01*
X86653000Y-85823560D01*
X86417683Y-85867838D01*
X86206299Y-86003860D01*
X85875870Y-86003860D01*
X85875870Y-85965030D01*
X85832604Y-85735086D01*
X90233269Y-85735086D01*
X90435854Y-86225380D01*
X90810647Y-86600827D01*
X91300587Y-86804268D01*
X91831086Y-86804731D01*
X92321380Y-86602146D01*
X92696827Y-86227353D01*
X92837094Y-85889554D01*
X92975854Y-86225380D01*
X93350647Y-86600827D01*
X93840587Y-86804268D01*
X94371086Y-86804731D01*
X94861380Y-86602146D01*
X95236827Y-86227353D01*
X95301060Y-86072663D01*
X95301060Y-86169500D01*
X95345338Y-86404817D01*
X95484410Y-86620941D01*
X95696610Y-86765931D01*
X95948500Y-86816940D01*
X97345500Y-86816940D01*
X97580817Y-86772662D01*
X97796941Y-86633590D01*
X97941931Y-86421390D01*
X97992940Y-86169500D01*
X97992940Y-84772500D01*
X97948662Y-84537183D01*
X97809590Y-84321059D01*
X97597390Y-84176069D01*
X97345500Y-84125060D01*
X95948500Y-84125060D01*
X95713183Y-84169338D01*
X95497059Y-84308410D01*
X95352069Y-84520610D01*
X95301060Y-84772500D01*
X95301060Y-84868884D01*
X95238146Y-84716620D01*
X94863353Y-84341173D01*
X94373413Y-84137732D01*
X93842914Y-84137269D01*
X93352620Y-84339854D01*
X92977173Y-84714647D01*
X92836906Y-85052446D01*
X92698146Y-84716620D01*
X92323353Y-84341173D01*
X91833413Y-84137732D01*
X91302914Y-84137269D01*
X90812620Y-84339854D01*
X90437173Y-84714647D01*
X90233732Y-85204587D01*
X90233269Y-85735086D01*
X85832604Y-85735086D01*
X85831592Y-85729713D01*
X85692520Y-85513589D01*
X85480320Y-85368599D01*
X85378741Y-85348029D01*
X85588129Y-85261297D01*
X85766757Y-85082668D01*
X85863430Y-84849279D01*
X85863430Y-84209890D01*
X85704680Y-84051140D01*
X84455000Y-84051140D01*
X84455000Y-84071140D01*
X84201000Y-84071140D01*
X84201000Y-84051140D01*
X82951320Y-84051140D01*
X82792570Y-84209890D01*
X82792570Y-84849279D01*
X82889243Y-85082668D01*
X83067871Y-85261297D01*
X83273681Y-85346546D01*
X83192253Y-85361868D01*
X82976129Y-85500940D01*
X82831139Y-85713140D01*
X82780130Y-85965030D01*
X76045060Y-85965030D01*
X76045060Y-85683090D01*
X75886310Y-85524340D01*
X73787000Y-85524340D01*
X73533000Y-85524340D01*
X71433690Y-85524340D01*
X71274940Y-85683090D01*
X62570485Y-85683090D01*
X62009692Y-84325868D01*
X61206199Y-83520971D01*
X71274940Y-83520971D01*
X71274940Y-85111590D01*
X71433690Y-85270340D01*
X73533000Y-85270340D01*
X73533000Y-83171030D01*
X73374250Y-83012280D01*
X71783630Y-83012280D01*
X71550241Y-83108953D01*
X71371613Y-83287582D01*
X71274940Y-83520971D01*
X61206199Y-83520971D01*
X60681126Y-82994981D01*
X58944383Y-82273823D01*
X57063867Y-82272182D01*
X55325868Y-82990308D01*
X54127000Y-84187085D01*
X54127000Y-77647800D01*
X71262500Y-77647800D01*
X71262500Y-81147920D01*
X71306778Y-81383237D01*
X71445850Y-81599361D01*
X71658050Y-81744351D01*
X71909940Y-81795360D01*
X75410060Y-81795360D01*
X75645377Y-81751082D01*
X75861501Y-81612010D01*
X75961500Y-81465657D01*
X75961500Y-83319240D01*
X75948387Y-83287582D01*
X75769759Y-83108953D01*
X75536370Y-83012280D01*
X73945750Y-83012280D01*
X73787000Y-83171030D01*
X73787000Y-85270340D01*
X75886310Y-85270340D01*
X76045060Y-85111590D01*
X76045060Y-84444023D01*
X76144850Y-84599101D01*
X76357050Y-84744091D01*
X76608940Y-84795100D01*
X80109060Y-84795100D01*
X80344377Y-84750822D01*
X80560501Y-84611750D01*
X80705491Y-84399550D01*
X80756500Y-84147660D01*
X80756500Y-82999001D01*
X82792570Y-82999001D01*
X82792570Y-83638390D01*
X82951320Y-83797140D01*
X84201000Y-83797140D01*
X84201000Y-82649060D01*
X84455000Y-82649060D01*
X84455000Y-83797140D01*
X85704680Y-83797140D01*
X85863430Y-83638390D01*
X85863430Y-82999001D01*
X85766757Y-82765612D01*
X85588129Y-82586983D01*
X85354740Y-82490310D01*
X84613750Y-82490310D01*
X84455000Y-82649060D01*
X84201000Y-82649060D01*
X84042250Y-82490310D01*
X83301260Y-82490310D01*
X83067871Y-82586983D01*
X82889243Y-82765612D01*
X82792570Y-82999001D01*
X80756500Y-82999001D01*
X80756500Y-82471000D01*
X86005560Y-82471000D01*
X86005560Y-84471000D01*
X86049838Y-84706317D01*
X86188910Y-84922441D01*
X86401110Y-85067431D01*
X86653000Y-85118440D01*
X88353000Y-85118440D01*
X88588317Y-85074162D01*
X88804441Y-84935090D01*
X88949431Y-84722890D01*
X89000440Y-84471000D01*
X89000440Y-82535000D01*
X103477560Y-82535000D01*
X103477560Y-83835000D01*
X103521838Y-84070317D01*
X103660910Y-84286441D01*
X103873110Y-84431431D01*
X104125000Y-84482440D01*
X105425000Y-84482440D01*
X105660317Y-84438162D01*
X105876441Y-84299090D01*
X106021431Y-84086890D01*
X106022012Y-84084016D01*
X109055590Y-84084016D01*
X109111271Y-84314611D01*
X109594078Y-84482622D01*
X110104428Y-84453083D01*
X110438729Y-84314611D01*
X110494410Y-84084016D01*
X109775000Y-83364605D01*
X109055590Y-84084016D01*
X106022012Y-84084016D01*
X106072440Y-83835000D01*
X106072440Y-83004078D01*
X108477378Y-83004078D01*
X108506917Y-83514428D01*
X108645389Y-83848729D01*
X108875984Y-83904410D01*
X109595395Y-83185000D01*
X109954605Y-83185000D01*
X110674016Y-83904410D01*
X110904611Y-83848729D01*
X111072622Y-83365922D01*
X111043083Y-82855572D01*
X110904611Y-82521271D01*
X110674016Y-82465590D01*
X109954605Y-83185000D01*
X109595395Y-83185000D01*
X108875984Y-82465590D01*
X108645389Y-82521271D01*
X108477378Y-83004078D01*
X106072440Y-83004078D01*
X106072440Y-82535000D01*
X106028162Y-82299683D01*
X106019347Y-82285984D01*
X109055590Y-82285984D01*
X109775000Y-83005395D01*
X110494410Y-82285984D01*
X110438729Y-82055389D01*
X109955922Y-81887378D01*
X109445572Y-81916917D01*
X109111271Y-82055389D01*
X109055590Y-82285984D01*
X106019347Y-82285984D01*
X105889090Y-82083559D01*
X105676890Y-81938569D01*
X105425000Y-81887560D01*
X104125000Y-81887560D01*
X103889683Y-81931838D01*
X103673559Y-82070910D01*
X103528569Y-82283110D01*
X103477560Y-82535000D01*
X89000440Y-82535000D01*
X89000440Y-82471000D01*
X88956162Y-82235683D01*
X88817090Y-82019559D01*
X88604890Y-81874569D01*
X88353000Y-81823560D01*
X86653000Y-81823560D01*
X86417683Y-81867838D01*
X86201559Y-82006910D01*
X86056569Y-82219110D01*
X86005560Y-82471000D01*
X80756500Y-82471000D01*
X80756500Y-80647540D01*
X80712222Y-80412223D01*
X80573150Y-80196099D01*
X80360950Y-80051109D01*
X80109060Y-80000100D01*
X76608940Y-80000100D01*
X76373623Y-80044378D01*
X76157499Y-80183450D01*
X76057500Y-80329803D01*
X76057500Y-77647800D01*
X76013222Y-77412483D01*
X75874150Y-77196359D01*
X75661950Y-77051369D01*
X75410060Y-77000360D01*
X71909940Y-77000360D01*
X71674623Y-77044638D01*
X71458499Y-77183710D01*
X71313509Y-77395910D01*
X71262500Y-77647800D01*
X54127000Y-77647800D01*
X54127000Y-75850750D01*
X138825000Y-75850750D01*
X138825000Y-76566309D01*
X138921673Y-76799698D01*
X139100301Y-76978327D01*
X139333690Y-77075000D01*
X140049250Y-77075000D01*
X140208000Y-76916250D01*
X140208000Y-75692000D01*
X140462000Y-75692000D01*
X140462000Y-76916250D01*
X140620750Y-77075000D01*
X141336310Y-77075000D01*
X141569699Y-76978327D01*
X141748327Y-76799698D01*
X141845000Y-76566309D01*
X141845000Y-75850750D01*
X141686250Y-75692000D01*
X140462000Y-75692000D01*
X140208000Y-75692000D01*
X138983750Y-75692000D01*
X138825000Y-75850750D01*
X54127000Y-75850750D01*
X54127000Y-45811063D01*
X55318874Y-47005019D01*
X57055617Y-47726177D01*
X58936133Y-47727818D01*
X59998057Y-47289040D01*
X65444738Y-47289040D01*
X65674138Y-47844229D01*
X66098537Y-48269370D01*
X66195000Y-48309425D01*
X66195000Y-52948459D01*
X66252852Y-53239298D01*
X66417599Y-53485860D01*
X69725000Y-56793261D01*
X69725000Y-58417983D01*
X69782852Y-58708822D01*
X69947599Y-58955384D01*
X70583581Y-59591366D01*
X70830142Y-59756113D01*
X71120982Y-59813965D01*
X77801408Y-59813965D01*
X78615000Y-60627557D01*
X78615000Y-63812438D01*
X78672852Y-64103277D01*
X78837599Y-64349839D01*
X80300320Y-65812560D01*
X80185000Y-65812560D01*
X79949683Y-65856838D01*
X79733559Y-65995910D01*
X79588569Y-66208110D01*
X79537560Y-66460000D01*
X79537560Y-68160000D01*
X79581838Y-68395317D01*
X79720910Y-68611441D01*
X79933110Y-68756431D01*
X80185000Y-68807440D01*
X81941992Y-68807440D01*
X81941992Y-69383206D01*
X79762114Y-71563084D01*
X79674398Y-71526661D01*
X79078218Y-71526141D01*
X78527220Y-71753808D01*
X78105290Y-72175003D01*
X78104905Y-72175931D01*
X77684997Y-71755290D01*
X77134398Y-71526661D01*
X76538218Y-71526141D01*
X75987220Y-71753808D01*
X75565290Y-72175003D01*
X75564905Y-72175931D01*
X75144997Y-71755290D01*
X74594398Y-71526661D01*
X73998218Y-71526141D01*
X73447220Y-71753808D01*
X73025290Y-72175003D01*
X73024905Y-72175931D01*
X72604997Y-71755290D01*
X72054398Y-71526661D01*
X71458218Y-71526141D01*
X70907220Y-71753808D01*
X70485290Y-72175003D01*
X70256661Y-72725602D01*
X70256141Y-73321782D01*
X70483808Y-73872780D01*
X70905003Y-74294710D01*
X71455602Y-74523339D01*
X72051782Y-74523859D01*
X72602780Y-74296192D01*
X73024710Y-73874997D01*
X73025095Y-73874069D01*
X73445003Y-74294710D01*
X73995602Y-74523339D01*
X74591782Y-74523859D01*
X75142780Y-74296192D01*
X75564710Y-73874997D01*
X75565095Y-73874069D01*
X75985003Y-74294710D01*
X76535602Y-74523339D01*
X77131782Y-74523859D01*
X77682780Y-74296192D01*
X78104710Y-73874997D01*
X78105095Y-73874069D01*
X78525003Y-74294710D01*
X79075602Y-74523339D01*
X79671782Y-74523859D01*
X80222780Y-74296192D01*
X80644710Y-73874997D01*
X80645095Y-73874069D01*
X81065003Y-74294710D01*
X81615602Y-74523339D01*
X82211782Y-74523859D01*
X82762780Y-74296192D01*
X83184710Y-73874997D01*
X83185095Y-73874069D01*
X83605003Y-74294710D01*
X84155602Y-74523339D01*
X84751782Y-74523859D01*
X85302780Y-74296192D01*
X85724710Y-73874997D01*
X85725095Y-73874069D01*
X86145003Y-74294710D01*
X86695602Y-74523339D01*
X87291782Y-74523859D01*
X87842780Y-74296192D01*
X88264710Y-73874997D01*
X88265095Y-73874069D01*
X88685003Y-74294710D01*
X89235602Y-74523339D01*
X89831782Y-74523859D01*
X90382780Y-74296192D01*
X90804710Y-73874997D01*
X90805095Y-73874069D01*
X91225003Y-74294710D01*
X91775602Y-74523339D01*
X92371782Y-74523859D01*
X92922780Y-74296192D01*
X93344710Y-73874997D01*
X93345095Y-73874069D01*
X93765003Y-74294710D01*
X94315602Y-74523339D01*
X94911782Y-74523859D01*
X95462780Y-74296192D01*
X95884710Y-73874997D01*
X95885095Y-73874069D01*
X96305003Y-74294710D01*
X96855602Y-74523339D01*
X97451782Y-74523859D01*
X98002780Y-74296192D01*
X98424710Y-73874997D01*
X98425095Y-73874069D01*
X98845003Y-74294710D01*
X99395602Y-74523339D01*
X99991782Y-74523859D01*
X100542780Y-74296192D01*
X100964710Y-73874997D01*
X100965095Y-73874069D01*
X101385003Y-74294710D01*
X101935602Y-74523339D01*
X102531782Y-74523859D01*
X103082780Y-74296192D01*
X103300546Y-74078805D01*
X103900800Y-74078805D01*
X103982741Y-74331516D01*
X104543030Y-74535248D01*
X105138635Y-74509058D01*
X105567259Y-74331516D01*
X105649200Y-74078805D01*
X104775000Y-73204605D01*
X103900800Y-74078805D01*
X103300546Y-74078805D01*
X103504710Y-73874997D01*
X103521541Y-73834463D01*
X103721195Y-73899200D01*
X104595395Y-73025000D01*
X104954605Y-73025000D01*
X105828805Y-73899200D01*
X106028033Y-73834601D01*
X106043808Y-73872780D01*
X106465003Y-74294710D01*
X107015602Y-74523339D01*
X107611782Y-74523859D01*
X107717525Y-74480167D01*
X122889838Y-74480167D01*
X123031883Y-74823943D01*
X123294673Y-75087192D01*
X123638201Y-75229838D01*
X124010167Y-75230162D01*
X124353943Y-75088117D01*
X124387118Y-75055000D01*
X137795000Y-75055000D01*
X138085839Y-74997148D01*
X138332401Y-74832401D01*
X138967401Y-74197401D01*
X139113521Y-73978716D01*
X139231802Y-74097203D01*
X139100301Y-74151673D01*
X138921673Y-74330302D01*
X138825000Y-74563691D01*
X138825000Y-75279250D01*
X138983750Y-75438000D01*
X140208000Y-75438000D01*
X140208000Y-75418000D01*
X140462000Y-75418000D01*
X140462000Y-75438000D01*
X141686250Y-75438000D01*
X141845000Y-75279250D01*
X141845000Y-74563691D01*
X141748327Y-74330302D01*
X141569699Y-74151673D01*
X141438286Y-74097240D01*
X141614370Y-73921463D01*
X141844738Y-73366675D01*
X141845262Y-72765960D01*
X141615862Y-72210771D01*
X141220464Y-71814682D01*
X141614370Y-71421463D01*
X141844738Y-70866675D01*
X141845262Y-70265960D01*
X141615862Y-69710771D01*
X141191463Y-69285630D01*
X140636675Y-69055262D01*
X140035960Y-69054738D01*
X139480771Y-69284138D01*
X139055630Y-69708537D01*
X138825262Y-70263325D01*
X138824738Y-70864040D01*
X138864625Y-70960573D01*
X137892599Y-71932599D01*
X137727852Y-72179161D01*
X137670000Y-72470000D01*
X137670000Y-73345198D01*
X137480198Y-73535000D01*
X124387463Y-73535000D01*
X124355327Y-73502808D01*
X124011799Y-73360162D01*
X123639833Y-73359838D01*
X123296057Y-73501883D01*
X123032808Y-73764673D01*
X122890162Y-74108201D01*
X122889838Y-74480167D01*
X107717525Y-74480167D01*
X108162780Y-74296192D01*
X108584710Y-73874997D01*
X108813339Y-73324398D01*
X108813859Y-72728218D01*
X108586192Y-72177220D01*
X108164997Y-71755290D01*
X107614398Y-71526661D01*
X107018218Y-71526141D01*
X106467220Y-71753808D01*
X106045290Y-72175003D01*
X106028459Y-72215537D01*
X105828805Y-72150800D01*
X104954605Y-73025000D01*
X104595395Y-73025000D01*
X103721195Y-72150800D01*
X103521967Y-72215399D01*
X103506192Y-72177220D01*
X103300526Y-71971195D01*
X103900800Y-71971195D01*
X104775000Y-72845395D01*
X105649200Y-71971195D01*
X105567259Y-71718484D01*
X105006970Y-71514752D01*
X104411365Y-71540942D01*
X103982741Y-71718484D01*
X103900800Y-71971195D01*
X103300526Y-71971195D01*
X103084997Y-71755290D01*
X102534398Y-71526661D01*
X101938218Y-71526141D01*
X101387220Y-71753808D01*
X100965290Y-72175003D01*
X100964905Y-72175931D01*
X100544997Y-71755290D01*
X99994398Y-71526661D01*
X99398218Y-71526141D01*
X98847220Y-71753808D01*
X98425290Y-72175003D01*
X98424905Y-72175931D01*
X98004997Y-71755290D01*
X97454398Y-71526661D01*
X96858218Y-71526141D01*
X96307220Y-71753808D01*
X95885290Y-72175003D01*
X95884905Y-72175931D01*
X95464997Y-71755290D01*
X94914398Y-71526661D01*
X94318218Y-71526141D01*
X93767220Y-71753808D01*
X93345290Y-72175003D01*
X93344905Y-72175931D01*
X92924997Y-71755290D01*
X92374398Y-71526661D01*
X91778218Y-71526141D01*
X91227220Y-71753808D01*
X90805290Y-72175003D01*
X90804905Y-72175931D01*
X90384997Y-71755290D01*
X89834398Y-71526661D01*
X89238218Y-71526141D01*
X88687220Y-71753808D01*
X88265290Y-72175003D01*
X88264905Y-72175931D01*
X87844997Y-71755290D01*
X87755000Y-71717920D01*
X87755000Y-69529802D01*
X89214802Y-68070000D01*
X91602560Y-68070000D01*
X91602560Y-68160000D01*
X91646838Y-68395317D01*
X91785910Y-68611441D01*
X91998110Y-68756431D01*
X92250000Y-68807440D01*
X94250000Y-68807440D01*
X94485317Y-68763162D01*
X94701441Y-68624090D01*
X94846431Y-68411890D01*
X94897440Y-68160000D01*
X94897440Y-66460000D01*
X94853162Y-66224683D01*
X94714090Y-66008559D01*
X94501890Y-65863569D01*
X94250000Y-65812560D01*
X93077903Y-65812560D01*
X93787401Y-65103062D01*
X93952148Y-64856500D01*
X94010000Y-64565661D01*
X94010000Y-64362440D01*
X94250000Y-64362440D01*
X94485317Y-64318162D01*
X94701441Y-64179090D01*
X94846431Y-63966890D01*
X94897440Y-63715000D01*
X94897440Y-62015000D01*
X94853162Y-61779683D01*
X94714090Y-61563559D01*
X94501890Y-61418569D01*
X94250000Y-61367560D01*
X92250000Y-61367560D01*
X92014683Y-61411838D01*
X91798559Y-61550910D01*
X91653569Y-61763110D01*
X91602560Y-62015000D01*
X91602560Y-63715000D01*
X91646838Y-63950317D01*
X91785910Y-64166441D01*
X91998110Y-64311431D01*
X92250000Y-64362440D01*
X92378419Y-64362440D01*
X90825859Y-65915000D01*
X88638386Y-65915000D01*
X88347546Y-65972852D01*
X88100985Y-66137599D01*
X86832440Y-67406144D01*
X86832440Y-66460000D01*
X86788162Y-66224683D01*
X86649090Y-66008559D01*
X86436890Y-65863569D01*
X86185000Y-65812560D01*
X84185000Y-65812560D01*
X83949683Y-65856838D01*
X83733559Y-65995910D01*
X83588569Y-66208110D01*
X83537560Y-66460000D01*
X83537560Y-68160000D01*
X83581838Y-68395317D01*
X83596046Y-68417398D01*
X83461992Y-68551452D01*
X83461992Y-66106232D01*
X83404140Y-65815393D01*
X83239393Y-65568831D01*
X82033002Y-64362440D01*
X82185000Y-64362440D01*
X82420317Y-64318162D01*
X82636441Y-64179090D01*
X82781431Y-63966890D01*
X82832440Y-63715000D01*
X82832440Y-62015000D01*
X82788162Y-61779683D01*
X82649090Y-61563559D01*
X82436890Y-61418569D01*
X82185000Y-61367560D01*
X80185000Y-61367560D01*
X80135000Y-61376968D01*
X80135000Y-60312755D01*
X80077148Y-60021916D01*
X79912401Y-59775354D01*
X79420687Y-59283640D01*
X79671782Y-59283859D01*
X80222780Y-59056192D01*
X80644710Y-58634997D01*
X80645095Y-58634069D01*
X81065003Y-59054710D01*
X81615602Y-59283339D01*
X82211782Y-59283859D01*
X82762780Y-59056192D01*
X83184710Y-58634997D01*
X83185095Y-58634069D01*
X83605003Y-59054710D01*
X84155602Y-59283339D01*
X84425000Y-59283574D01*
X84425000Y-61367560D01*
X84185000Y-61367560D01*
X83949683Y-61411838D01*
X83733559Y-61550910D01*
X83588569Y-61763110D01*
X83537560Y-62015000D01*
X83537560Y-63715000D01*
X83581838Y-63950317D01*
X83720910Y-64166441D01*
X83933110Y-64311431D01*
X84185000Y-64362440D01*
X86185000Y-64362440D01*
X86420317Y-64318162D01*
X86636441Y-64179090D01*
X86781431Y-63966890D01*
X86832440Y-63715000D01*
X86832440Y-62015000D01*
X86788162Y-61779683D01*
X86649090Y-61563559D01*
X86436890Y-61418569D01*
X86185000Y-61367560D01*
X85945000Y-61367560D01*
X85945000Y-59308478D01*
X86182993Y-59070485D01*
X86695602Y-59283339D01*
X87291782Y-59283859D01*
X87842780Y-59056192D01*
X88264710Y-58634997D01*
X88265095Y-58634069D01*
X88685003Y-59054710D01*
X89235602Y-59283339D01*
X89831782Y-59283859D01*
X90382780Y-59056192D01*
X90804710Y-58634997D01*
X90805095Y-58634069D01*
X91225003Y-59054710D01*
X91775602Y-59283339D01*
X92371782Y-59283859D01*
X92922780Y-59056192D01*
X93344710Y-58634997D01*
X93345095Y-58634069D01*
X93765003Y-59054710D01*
X94315602Y-59283339D01*
X94911782Y-59283859D01*
X95462780Y-59056192D01*
X95884710Y-58634997D01*
X95885095Y-58634069D01*
X96305003Y-59054710D01*
X96855602Y-59283339D01*
X97451782Y-59283859D01*
X98002780Y-59056192D01*
X98424710Y-58634997D01*
X98441541Y-58594463D01*
X98641195Y-58659200D01*
X99515395Y-57785000D01*
X99501253Y-57770858D01*
X99680858Y-57591253D01*
X99695000Y-57605395D01*
X99709143Y-57591253D01*
X99888748Y-57770858D01*
X99874605Y-57785000D01*
X99888748Y-57799143D01*
X99709143Y-57978748D01*
X99695000Y-57964605D01*
X98820800Y-58838805D01*
X98902741Y-59091516D01*
X99463030Y-59295248D01*
X100058635Y-59269058D01*
X100205000Y-59208432D01*
X100205000Y-60645198D01*
X98887583Y-61962615D01*
X98853162Y-61779683D01*
X98714090Y-61563559D01*
X98501890Y-61418569D01*
X98250000Y-61367560D01*
X96250000Y-61367560D01*
X96014683Y-61411838D01*
X95798559Y-61550910D01*
X95653569Y-61763110D01*
X95602560Y-62015000D01*
X95602560Y-63715000D01*
X95646838Y-63950317D01*
X95785910Y-64166441D01*
X95998110Y-64311431D01*
X96250000Y-64362440D01*
X97454043Y-64362440D01*
X96712599Y-65103884D01*
X96547852Y-65350446D01*
X96490000Y-65641285D01*
X96490000Y-65812560D01*
X96250000Y-65812560D01*
X96014683Y-65856838D01*
X95798559Y-65995910D01*
X95653569Y-66208110D01*
X95602560Y-66460000D01*
X95602560Y-68160000D01*
X95646838Y-68395317D01*
X95785910Y-68611441D01*
X95998110Y-68756431D01*
X96250000Y-68807440D01*
X98250000Y-68807440D01*
X98485317Y-68763162D01*
X98701441Y-68624090D01*
X98846431Y-68411890D01*
X98897440Y-68160000D01*
X98897440Y-66460000D01*
X98853162Y-66224683D01*
X98714090Y-66008559D01*
X98501890Y-65863569D01*
X98250000Y-65812560D01*
X98153527Y-65812560D01*
X102085337Y-61880750D01*
X138825000Y-61880750D01*
X138825000Y-62596309D01*
X138921673Y-62829698D01*
X139100301Y-63008327D01*
X139333690Y-63105000D01*
X140049250Y-63105000D01*
X140208000Y-62946250D01*
X140208000Y-61722000D01*
X140462000Y-61722000D01*
X140462000Y-62946250D01*
X140620750Y-63105000D01*
X141336310Y-63105000D01*
X141569699Y-63008327D01*
X141748327Y-62829698D01*
X141845000Y-62596309D01*
X141845000Y-61880750D01*
X141686250Y-61722000D01*
X140462000Y-61722000D01*
X140208000Y-61722000D01*
X138983750Y-61722000D01*
X138825000Y-61880750D01*
X102085337Y-61880750D01*
X104042401Y-59923686D01*
X104207148Y-59677124D01*
X104265000Y-59386285D01*
X104265000Y-59195889D01*
X104475602Y-59283339D01*
X105071782Y-59283859D01*
X105622780Y-59056192D01*
X105839876Y-58839475D01*
X105848238Y-58883917D01*
X105987310Y-59100041D01*
X106199510Y-59245031D01*
X106451400Y-59296040D01*
X108178600Y-59296040D01*
X108413917Y-59251762D01*
X108431936Y-59240167D01*
X122889838Y-59240167D01*
X123031883Y-59583943D01*
X123294673Y-59847192D01*
X123638201Y-59989838D01*
X124010167Y-59990162D01*
X124353943Y-59848117D01*
X124387118Y-59815000D01*
X137875000Y-59815000D01*
X138165839Y-59757148D01*
X138412401Y-59592401D01*
X138824925Y-59179877D01*
X138824738Y-59394040D01*
X139054138Y-59949229D01*
X139231802Y-60127203D01*
X139100301Y-60181673D01*
X138921673Y-60360302D01*
X138825000Y-60593691D01*
X138825000Y-61309250D01*
X138983750Y-61468000D01*
X140208000Y-61468000D01*
X140208000Y-61448000D01*
X140462000Y-61448000D01*
X140462000Y-61468000D01*
X141686250Y-61468000D01*
X141845000Y-61309250D01*
X141845000Y-60593691D01*
X141748327Y-60360302D01*
X141569699Y-60181673D01*
X141438286Y-60127240D01*
X141614370Y-59951463D01*
X141844738Y-59396675D01*
X141845262Y-58795960D01*
X141615862Y-58240771D01*
X141220464Y-57844682D01*
X141614370Y-57451463D01*
X141844738Y-56896675D01*
X141845262Y-56295960D01*
X141615862Y-55740771D01*
X141191463Y-55315630D01*
X140636675Y-55085262D01*
X140035960Y-55084738D01*
X139480771Y-55314138D01*
X139055630Y-55738537D01*
X138825262Y-56293325D01*
X138824738Y-56894040D01*
X138864625Y-56990573D01*
X137560198Y-58295000D01*
X124387463Y-58295000D01*
X124355327Y-58262808D01*
X124011799Y-58120162D01*
X123639833Y-58119838D01*
X123296057Y-58261883D01*
X123032808Y-58524673D01*
X122890162Y-58868201D01*
X122889838Y-59240167D01*
X108431936Y-59240167D01*
X108630041Y-59112690D01*
X108775031Y-58900490D01*
X108826040Y-58648600D01*
X108826040Y-56921400D01*
X108781762Y-56686083D01*
X108642690Y-56469959D01*
X108430490Y-56324969D01*
X108178600Y-56273960D01*
X106451400Y-56273960D01*
X106216083Y-56318238D01*
X105999959Y-56457310D01*
X105854969Y-56669510D01*
X105842148Y-56732820D01*
X105624997Y-56515290D01*
X105074398Y-56286661D01*
X104808373Y-56286429D01*
X110014589Y-51080213D01*
X115159392Y-51080213D01*
X115228857Y-51322397D01*
X115752302Y-51509144D01*
X116307368Y-51481362D01*
X116691143Y-51322397D01*
X116760608Y-51080213D01*
X115960000Y-50279605D01*
X115159392Y-51080213D01*
X110014589Y-51080213D01*
X110804802Y-50290000D01*
X112688332Y-50290000D01*
X112979171Y-50232148D01*
X113225733Y-50067401D01*
X113400832Y-49892302D01*
X114550856Y-49892302D01*
X114578638Y-50447368D01*
X114737603Y-50831143D01*
X114979787Y-50900608D01*
X115780395Y-50100000D01*
X116139605Y-50100000D01*
X116940213Y-50900608D01*
X117182397Y-50831143D01*
X117344540Y-50376661D01*
X131562758Y-50376661D01*
X131774990Y-50890303D01*
X132167630Y-51283629D01*
X132680900Y-51496757D01*
X133236661Y-51497242D01*
X133750303Y-51285010D01*
X134143629Y-50892370D01*
X134356757Y-50379100D01*
X134357242Y-49823339D01*
X134145010Y-49309697D01*
X133752370Y-48916371D01*
X133239100Y-48703243D01*
X132683339Y-48702758D01*
X132169697Y-48914990D01*
X131776371Y-49307630D01*
X131563243Y-49820900D01*
X131562758Y-50376661D01*
X117344540Y-50376661D01*
X117369144Y-50307698D01*
X117341362Y-49752632D01*
X117182397Y-49368857D01*
X116940213Y-49299392D01*
X116139605Y-50100000D01*
X115780395Y-50100000D01*
X114979787Y-49299392D01*
X114737603Y-49368857D01*
X114550856Y-49892302D01*
X113400832Y-49892302D01*
X114173347Y-49119787D01*
X115159392Y-49119787D01*
X115960000Y-49920395D01*
X116760608Y-49119787D01*
X116691143Y-48877603D01*
X116167698Y-48690856D01*
X115612632Y-48718638D01*
X115228857Y-48877603D01*
X115159392Y-49119787D01*
X114173347Y-49119787D01*
X117448134Y-45845000D01*
X128330000Y-45845000D01*
X128620839Y-45787148D01*
X128867401Y-45622401D01*
X129192114Y-45297688D01*
X129350000Y-45329093D01*
X129822614Y-45235084D01*
X130223277Y-44967370D01*
X130350000Y-44777715D01*
X130476723Y-44967370D01*
X130877386Y-45235084D01*
X131350000Y-45329093D01*
X131822614Y-45235084D01*
X132195590Y-44985870D01*
X132211673Y-45024699D01*
X132390302Y-45203327D01*
X132623691Y-45300000D01*
X133064250Y-45300000D01*
X133223000Y-45141250D01*
X133223000Y-43942000D01*
X133477000Y-43942000D01*
X133477000Y-45141250D01*
X133635750Y-45300000D01*
X134076309Y-45300000D01*
X134309698Y-45203327D01*
X134488327Y-45024699D01*
X134585000Y-44791310D01*
X134585000Y-44100750D01*
X134426250Y-43942000D01*
X133477000Y-43942000D01*
X133223000Y-43942000D01*
X133203000Y-43942000D01*
X133203000Y-43688000D01*
X133223000Y-43688000D01*
X133223000Y-42488750D01*
X133477000Y-42488750D01*
X133477000Y-43688000D01*
X134426250Y-43688000D01*
X134585000Y-43529250D01*
X134585000Y-42838690D01*
X134488327Y-42605301D01*
X134309698Y-42426673D01*
X134076309Y-42330000D01*
X133635750Y-42330000D01*
X133477000Y-42488750D01*
X133223000Y-42488750D01*
X133064250Y-42330000D01*
X132623691Y-42330000D01*
X132390302Y-42426673D01*
X132211673Y-42605301D01*
X132195590Y-42644130D01*
X131822614Y-42394916D01*
X131350000Y-42300907D01*
X130877386Y-42394916D01*
X130476723Y-42662630D01*
X130350000Y-42852285D01*
X130223277Y-42662630D01*
X129822614Y-42394916D01*
X129350000Y-42300907D01*
X128877386Y-42394916D01*
X128476723Y-42662630D01*
X128350000Y-42852285D01*
X128223277Y-42662630D01*
X127822614Y-42394916D01*
X127350000Y-42300907D01*
X126877386Y-42394916D01*
X126476723Y-42662630D01*
X126209009Y-43063293D01*
X126115000Y-43535907D01*
X126115000Y-44094093D01*
X126160930Y-44325000D01*
X122520000Y-44325000D01*
X122520000Y-44100750D01*
X122361250Y-43942000D01*
X121412000Y-43942000D01*
X121412000Y-43962000D01*
X121158000Y-43962000D01*
X121158000Y-43942000D01*
X121138000Y-43942000D01*
X121138000Y-43688000D01*
X121158000Y-43688000D01*
X121158000Y-42488750D01*
X121412000Y-42488750D01*
X121412000Y-43688000D01*
X122361250Y-43688000D01*
X122520000Y-43529250D01*
X122520000Y-42838690D01*
X122423327Y-42605301D01*
X122244698Y-42426673D01*
X122011309Y-42330000D01*
X121570750Y-42330000D01*
X121412000Y-42488750D01*
X121158000Y-42488750D01*
X120999250Y-42330000D01*
X120558691Y-42330000D01*
X120325302Y-42426673D01*
X120146673Y-42605301D01*
X120130590Y-42644130D01*
X119757614Y-42394916D01*
X119285000Y-42300907D01*
X118812386Y-42394916D01*
X118411723Y-42662630D01*
X118285000Y-42852285D01*
X118158277Y-42662630D01*
X117757614Y-42394916D01*
X117285000Y-42300907D01*
X116812386Y-42394916D01*
X116411723Y-42662630D01*
X116285000Y-42852285D01*
X116158277Y-42662630D01*
X115757614Y-42394916D01*
X115285000Y-42300907D01*
X114812386Y-42394916D01*
X114411723Y-42662630D01*
X114144009Y-43063293D01*
X114050000Y-43535907D01*
X114050000Y-44094093D01*
X114144009Y-44566707D01*
X114411723Y-44967370D01*
X114812386Y-45235084D01*
X115002331Y-45272866D01*
X112140198Y-48135000D01*
X110035482Y-48135000D01*
X110095000Y-47991310D01*
X110095000Y-47275750D01*
X109936250Y-47117000D01*
X108712000Y-47117000D01*
X108712000Y-47137000D01*
X108458000Y-47137000D01*
X108458000Y-47117000D01*
X108438000Y-47117000D01*
X108438000Y-46863000D01*
X108458000Y-46863000D01*
X108458000Y-45638750D01*
X108712000Y-45638750D01*
X108712000Y-46863000D01*
X109936250Y-46863000D01*
X110095000Y-46704250D01*
X110095000Y-45988690D01*
X109998327Y-45755301D01*
X109819698Y-45576673D01*
X109586309Y-45480000D01*
X108870750Y-45480000D01*
X108712000Y-45638750D01*
X108458000Y-45638750D01*
X108299250Y-45480000D01*
X107583691Y-45480000D01*
X107350302Y-45576673D01*
X107171673Y-45755301D01*
X107117240Y-45886714D01*
X106941463Y-45710630D01*
X106386675Y-45480262D01*
X105785960Y-45479738D01*
X105230771Y-45709138D01*
X104834682Y-46104536D01*
X104441463Y-45710630D01*
X103886675Y-45480262D01*
X103285960Y-45479738D01*
X102730771Y-45709138D01*
X102334682Y-46104536D01*
X101941463Y-45710630D01*
X101386675Y-45480262D01*
X100785960Y-45479738D01*
X100230771Y-45709138D01*
X99834682Y-46104536D01*
X99441463Y-45710630D01*
X98886675Y-45480262D01*
X98285960Y-45479738D01*
X97730771Y-45709138D01*
X97334682Y-46104536D01*
X96941463Y-45710630D01*
X96386675Y-45480262D01*
X95785960Y-45479738D01*
X95230771Y-45709138D01*
X94834682Y-46104536D01*
X94441463Y-45710630D01*
X93886675Y-45480262D01*
X93285960Y-45479738D01*
X92730771Y-45709138D01*
X92334682Y-46104536D01*
X91941463Y-45710630D01*
X91386675Y-45480262D01*
X90785960Y-45479738D01*
X90230771Y-45709138D01*
X89805630Y-46133537D01*
X89575262Y-46688325D01*
X89574738Y-47289040D01*
X89804138Y-47844229D01*
X90228537Y-48269370D01*
X90325000Y-48309425D01*
X90325000Y-50840198D01*
X85187599Y-55977599D01*
X85022852Y-56224161D01*
X84990887Y-56384860D01*
X84754398Y-56286661D01*
X84158218Y-56286141D01*
X84068156Y-56323354D01*
X80215000Y-52470198D01*
X80215000Y-48309797D01*
X80309229Y-48270862D01*
X80705318Y-47875464D01*
X81098537Y-48269370D01*
X81653325Y-48499738D01*
X82254040Y-48500262D01*
X82809229Y-48270862D01*
X82987203Y-48093198D01*
X83041673Y-48224699D01*
X83220302Y-48403327D01*
X83453691Y-48500000D01*
X84169250Y-48500000D01*
X84328000Y-48341250D01*
X84328000Y-47117000D01*
X84582000Y-47117000D01*
X84582000Y-48341250D01*
X84740750Y-48500000D01*
X85456309Y-48500000D01*
X85689698Y-48403327D01*
X85868327Y-48224699D01*
X85965000Y-47991310D01*
X85965000Y-47275750D01*
X85806250Y-47117000D01*
X84582000Y-47117000D01*
X84328000Y-47117000D01*
X84308000Y-47117000D01*
X84308000Y-46863000D01*
X84328000Y-46863000D01*
X84328000Y-45638750D01*
X84582000Y-45638750D01*
X84582000Y-46863000D01*
X85806250Y-46863000D01*
X85965000Y-46704250D01*
X85965000Y-45988690D01*
X85868327Y-45755301D01*
X85689698Y-45576673D01*
X85456309Y-45480000D01*
X84740750Y-45480000D01*
X84582000Y-45638750D01*
X84328000Y-45638750D01*
X84169250Y-45480000D01*
X83453691Y-45480000D01*
X83220302Y-45576673D01*
X83041673Y-45755301D01*
X82987240Y-45886714D01*
X82811463Y-45710630D01*
X82256675Y-45480262D01*
X81655960Y-45479738D01*
X81100771Y-45709138D01*
X80704682Y-46104536D01*
X80311463Y-45710630D01*
X79756675Y-45480262D01*
X79155960Y-45479738D01*
X78600771Y-45709138D01*
X78204682Y-46104536D01*
X77811463Y-45710630D01*
X77256675Y-45480262D01*
X76655960Y-45479738D01*
X76100771Y-45709138D01*
X75704682Y-46104536D01*
X75311463Y-45710630D01*
X74756675Y-45480262D01*
X74155960Y-45479738D01*
X73600771Y-45709138D01*
X73204682Y-46104536D01*
X72811463Y-45710630D01*
X72256675Y-45480262D01*
X71655960Y-45479738D01*
X71100771Y-45709138D01*
X70704682Y-46104536D01*
X70311463Y-45710630D01*
X69756675Y-45480262D01*
X69155960Y-45479738D01*
X68600771Y-45709138D01*
X68204682Y-46104536D01*
X67811463Y-45710630D01*
X67256675Y-45480262D01*
X66655960Y-45479738D01*
X66100771Y-45709138D01*
X65675630Y-46133537D01*
X65445262Y-46688325D01*
X65444738Y-47289040D01*
X59998057Y-47289040D01*
X60674132Y-47009692D01*
X62005019Y-45681126D01*
X62726177Y-43944383D01*
X62727818Y-42063867D01*
X62009692Y-40325868D01*
X60812915Y-39127000D01*
X139188937Y-39127000D01*
X137994981Y-40318874D01*
X137994981Y-40318874D01*
G37*
X137994981Y-40318874D02*
X137273823Y-42055617D01*
X137272182Y-43936133D01*
X137990308Y-45674132D01*
X139318874Y-47005019D01*
X141055617Y-47726177D01*
X142936133Y-47727818D01*
X144674132Y-47009692D01*
X145873000Y-45812915D01*
X145873000Y-84188937D01*
X144681126Y-82994981D01*
X142944383Y-82273823D01*
X141063867Y-82272182D01*
X139325868Y-82990308D01*
X137994981Y-84318874D01*
X137273823Y-86055617D01*
X137272182Y-87936133D01*
X137990308Y-89674132D01*
X139187085Y-90873000D01*
X133537350Y-90873000D01*
X133750303Y-90785010D01*
X134143629Y-90392370D01*
X134356757Y-89879100D01*
X134357242Y-89323339D01*
X134145010Y-88809697D01*
X133752370Y-88416371D01*
X133239100Y-88203243D01*
X132683339Y-88202758D01*
X132169697Y-88414990D01*
X131776371Y-88807630D01*
X131563243Y-89320900D01*
X131562758Y-89876661D01*
X131774990Y-90390303D01*
X132167630Y-90783629D01*
X132382860Y-90873000D01*
X116568977Y-90873000D01*
X116691143Y-90822397D01*
X116760608Y-90580213D01*
X115960000Y-89779605D01*
X115159392Y-90580213D01*
X115228857Y-90822397D01*
X115370695Y-90873000D01*
X60811063Y-90873000D01*
X62005019Y-89681126D01*
X62124949Y-89392302D01*
X114550856Y-89392302D01*
X114578638Y-89947368D01*
X114737603Y-90331143D01*
X114979787Y-90400608D01*
X115780395Y-89600000D01*
X116139605Y-89600000D01*
X116940213Y-90400608D01*
X117182397Y-90331143D01*
X117369144Y-89807698D01*
X117341362Y-89252632D01*
X117182397Y-88868857D01*
X116940213Y-88799392D01*
X116139605Y-89600000D01*
X115780395Y-89600000D01*
X114979787Y-88799392D01*
X114737603Y-88868857D01*
X114550856Y-89392302D01*
X62124949Y-89392302D01*
X62726177Y-87944383D01*
X62727818Y-86063867D01*
X62570485Y-85683090D01*
X71274940Y-85683090D01*
X71274940Y-87273709D01*
X71371613Y-87507098D01*
X71550241Y-87685727D01*
X71783630Y-87782400D01*
X73374250Y-87782400D01*
X73533000Y-87623650D01*
X73533000Y-85524340D01*
X73787000Y-85524340D01*
X73787000Y-87623650D01*
X73945750Y-87782400D01*
X75536370Y-87782400D01*
X75769759Y-87685727D01*
X75948387Y-87507098D01*
X76045060Y-87273709D01*
X76045060Y-85965030D01*
X82780130Y-85965030D01*
X82780130Y-87562690D01*
X82824408Y-87798007D01*
X82963480Y-88014131D01*
X83175680Y-88159121D01*
X83427570Y-88210130D01*
X85228430Y-88210130D01*
X85463747Y-88165852D01*
X85679871Y-88026780D01*
X85824861Y-87814580D01*
X85875870Y-87562690D01*
X85875870Y-87523860D01*
X86005560Y-87523860D01*
X86005560Y-88471000D01*
X86049838Y-88706317D01*
X86188910Y-88922441D01*
X86401110Y-89067431D01*
X86653000Y-89118440D01*
X88353000Y-89118440D01*
X88588317Y-89074162D01*
X88804441Y-88935090D01*
X88949431Y-88722890D01*
X88970309Y-88619787D01*
X115159392Y-88619787D01*
X115960000Y-89420395D01*
X116760608Y-88619787D01*
X116691143Y-88377603D01*
X116167698Y-88190856D01*
X115612632Y-88218638D01*
X115228857Y-88377603D01*
X115159392Y-88619787D01*
X88970309Y-88619787D01*
X89000440Y-88471000D01*
X89000440Y-86471000D01*
X88956162Y-86235683D01*
X88817090Y-86019559D01*
X88604890Y-85874569D01*
X88353000Y-85823560D01*
X86653000Y-85823560D01*
X86417683Y-85867838D01*
X86206299Y-86003860D01*
X85875870Y-86003860D01*
X85875870Y-85965030D01*
X85832604Y-85735086D01*
X90233269Y-85735086D01*
X90435854Y-86225380D01*
X90810647Y-86600827D01*
X91300587Y-86804268D01*
X91831086Y-86804731D01*
X92321380Y-86602146D01*
X92696827Y-86227353D01*
X92837094Y-85889554D01*
X92975854Y-86225380D01*
X93350647Y-86600827D01*
X93840587Y-86804268D01*
X94371086Y-86804731D01*
X94861380Y-86602146D01*
X95236827Y-86227353D01*
X95301060Y-86072663D01*
X95301060Y-86169500D01*
X95345338Y-86404817D01*
X95484410Y-86620941D01*
X95696610Y-86765931D01*
X95948500Y-86816940D01*
X97345500Y-86816940D01*
X97580817Y-86772662D01*
X97796941Y-86633590D01*
X97941931Y-86421390D01*
X97992940Y-86169500D01*
X97992940Y-84772500D01*
X97948662Y-84537183D01*
X97809590Y-84321059D01*
X97597390Y-84176069D01*
X97345500Y-84125060D01*
X95948500Y-84125060D01*
X95713183Y-84169338D01*
X95497059Y-84308410D01*
X95352069Y-84520610D01*
X95301060Y-84772500D01*
X95301060Y-84868884D01*
X95238146Y-84716620D01*
X94863353Y-84341173D01*
X94373413Y-84137732D01*
X93842914Y-84137269D01*
X93352620Y-84339854D01*
X92977173Y-84714647D01*
X92836906Y-85052446D01*
X92698146Y-84716620D01*
X92323353Y-84341173D01*
X91833413Y-84137732D01*
X91302914Y-84137269D01*
X90812620Y-84339854D01*
X90437173Y-84714647D01*
X90233732Y-85204587D01*
X90233269Y-85735086D01*
X85832604Y-85735086D01*
X85831592Y-85729713D01*
X85692520Y-85513589D01*
X85480320Y-85368599D01*
X85378741Y-85348029D01*
X85588129Y-85261297D01*
X85766757Y-85082668D01*
X85863430Y-84849279D01*
X85863430Y-84209890D01*
X85704680Y-84051140D01*
X84455000Y-84051140D01*
X84455000Y-84071140D01*
X84201000Y-84071140D01*
X84201000Y-84051140D01*
X82951320Y-84051140D01*
X82792570Y-84209890D01*
X82792570Y-84849279D01*
X82889243Y-85082668D01*
X83067871Y-85261297D01*
X83273681Y-85346546D01*
X83192253Y-85361868D01*
X82976129Y-85500940D01*
X82831139Y-85713140D01*
X82780130Y-85965030D01*
X76045060Y-85965030D01*
X76045060Y-85683090D01*
X75886310Y-85524340D01*
X73787000Y-85524340D01*
X73533000Y-85524340D01*
X71433690Y-85524340D01*
X71274940Y-85683090D01*
X62570485Y-85683090D01*
X62009692Y-84325868D01*
X61206199Y-83520971D01*
X71274940Y-83520971D01*
X71274940Y-85111590D01*
X71433690Y-85270340D01*
X73533000Y-85270340D01*
X73533000Y-83171030D01*
X73374250Y-83012280D01*
X71783630Y-83012280D01*
X71550241Y-83108953D01*
X71371613Y-83287582D01*
X71274940Y-83520971D01*
X61206199Y-83520971D01*
X60681126Y-82994981D01*
X58944383Y-82273823D01*
X57063867Y-82272182D01*
X55325868Y-82990308D01*
X54127000Y-84187085D01*
X54127000Y-77647800D01*
X71262500Y-77647800D01*
X71262500Y-81147920D01*
X71306778Y-81383237D01*
X71445850Y-81599361D01*
X71658050Y-81744351D01*
X71909940Y-81795360D01*
X75410060Y-81795360D01*
X75645377Y-81751082D01*
X75861501Y-81612010D01*
X75961500Y-81465657D01*
X75961500Y-83319240D01*
X75948387Y-83287582D01*
X75769759Y-83108953D01*
X75536370Y-83012280D01*
X73945750Y-83012280D01*
X73787000Y-83171030D01*
X73787000Y-85270340D01*
X75886310Y-85270340D01*
X76045060Y-85111590D01*
X76045060Y-84444023D01*
X76144850Y-84599101D01*
X76357050Y-84744091D01*
X76608940Y-84795100D01*
X80109060Y-84795100D01*
X80344377Y-84750822D01*
X80560501Y-84611750D01*
X80705491Y-84399550D01*
X80756500Y-84147660D01*
X80756500Y-82999001D01*
X82792570Y-82999001D01*
X82792570Y-83638390D01*
X82951320Y-83797140D01*
X84201000Y-83797140D01*
X84201000Y-82649060D01*
X84455000Y-82649060D01*
X84455000Y-83797140D01*
X85704680Y-83797140D01*
X85863430Y-83638390D01*
X85863430Y-82999001D01*
X85766757Y-82765612D01*
X85588129Y-82586983D01*
X85354740Y-82490310D01*
X84613750Y-82490310D01*
X84455000Y-82649060D01*
X84201000Y-82649060D01*
X84042250Y-82490310D01*
X83301260Y-82490310D01*
X83067871Y-82586983D01*
X82889243Y-82765612D01*
X82792570Y-82999001D01*
X80756500Y-82999001D01*
X80756500Y-82471000D01*
X86005560Y-82471000D01*
X86005560Y-84471000D01*
X86049838Y-84706317D01*
X86188910Y-84922441D01*
X86401110Y-85067431D01*
X86653000Y-85118440D01*
X88353000Y-85118440D01*
X88588317Y-85074162D01*
X88804441Y-84935090D01*
X88949431Y-84722890D01*
X89000440Y-84471000D01*
X89000440Y-82535000D01*
X103477560Y-82535000D01*
X103477560Y-83835000D01*
X103521838Y-84070317D01*
X103660910Y-84286441D01*
X103873110Y-84431431D01*
X104125000Y-84482440D01*
X105425000Y-84482440D01*
X105660317Y-84438162D01*
X105876441Y-84299090D01*
X106021431Y-84086890D01*
X106022012Y-84084016D01*
X109055590Y-84084016D01*
X109111271Y-84314611D01*
X109594078Y-84482622D01*
X110104428Y-84453083D01*
X110438729Y-84314611D01*
X110494410Y-84084016D01*
X109775000Y-83364605D01*
X109055590Y-84084016D01*
X106022012Y-84084016D01*
X106072440Y-83835000D01*
X106072440Y-83004078D01*
X108477378Y-83004078D01*
X108506917Y-83514428D01*
X108645389Y-83848729D01*
X108875984Y-83904410D01*
X109595395Y-83185000D01*
X109954605Y-83185000D01*
X110674016Y-83904410D01*
X110904611Y-83848729D01*
X111072622Y-83365922D01*
X111043083Y-82855572D01*
X110904611Y-82521271D01*
X110674016Y-82465590D01*
X109954605Y-83185000D01*
X109595395Y-83185000D01*
X108875984Y-82465590D01*
X108645389Y-82521271D01*
X108477378Y-83004078D01*
X106072440Y-83004078D01*
X106072440Y-82535000D01*
X106028162Y-82299683D01*
X106019347Y-82285984D01*
X109055590Y-82285984D01*
X109775000Y-83005395D01*
X110494410Y-82285984D01*
X110438729Y-82055389D01*
X109955922Y-81887378D01*
X109445572Y-81916917D01*
X109111271Y-82055389D01*
X109055590Y-82285984D01*
X106019347Y-82285984D01*
X105889090Y-82083559D01*
X105676890Y-81938569D01*
X105425000Y-81887560D01*
X104125000Y-81887560D01*
X103889683Y-81931838D01*
X103673559Y-82070910D01*
X103528569Y-82283110D01*
X103477560Y-82535000D01*
X89000440Y-82535000D01*
X89000440Y-82471000D01*
X88956162Y-82235683D01*
X88817090Y-82019559D01*
X88604890Y-81874569D01*
X88353000Y-81823560D01*
X86653000Y-81823560D01*
X86417683Y-81867838D01*
X86201559Y-82006910D01*
X86056569Y-82219110D01*
X86005560Y-82471000D01*
X80756500Y-82471000D01*
X80756500Y-80647540D01*
X80712222Y-80412223D01*
X80573150Y-80196099D01*
X80360950Y-80051109D01*
X80109060Y-80000100D01*
X76608940Y-80000100D01*
X76373623Y-80044378D01*
X76157499Y-80183450D01*
X76057500Y-80329803D01*
X76057500Y-77647800D01*
X76013222Y-77412483D01*
X75874150Y-77196359D01*
X75661950Y-77051369D01*
X75410060Y-77000360D01*
X71909940Y-77000360D01*
X71674623Y-77044638D01*
X71458499Y-77183710D01*
X71313509Y-77395910D01*
X71262500Y-77647800D01*
X54127000Y-77647800D01*
X54127000Y-75850750D01*
X138825000Y-75850750D01*
X138825000Y-76566309D01*
X138921673Y-76799698D01*
X139100301Y-76978327D01*
X139333690Y-77075000D01*
X140049250Y-77075000D01*
X140208000Y-76916250D01*
X140208000Y-75692000D01*
X140462000Y-75692000D01*
X140462000Y-76916250D01*
X140620750Y-77075000D01*
X141336310Y-77075000D01*
X141569699Y-76978327D01*
X141748327Y-76799698D01*
X141845000Y-76566309D01*
X141845000Y-75850750D01*
X141686250Y-75692000D01*
X140462000Y-75692000D01*
X140208000Y-75692000D01*
X138983750Y-75692000D01*
X138825000Y-75850750D01*
X54127000Y-75850750D01*
X54127000Y-45811063D01*
X55318874Y-47005019D01*
X57055617Y-47726177D01*
X58936133Y-47727818D01*
X59998057Y-47289040D01*
X65444738Y-47289040D01*
X65674138Y-47844229D01*
X66098537Y-48269370D01*
X66195000Y-48309425D01*
X66195000Y-52948459D01*
X66252852Y-53239298D01*
X66417599Y-53485860D01*
X69725000Y-56793261D01*
X69725000Y-58417983D01*
X69782852Y-58708822D01*
X69947599Y-58955384D01*
X70583581Y-59591366D01*
X70830142Y-59756113D01*
X71120982Y-59813965D01*
X77801408Y-59813965D01*
X78615000Y-60627557D01*
X78615000Y-63812438D01*
X78672852Y-64103277D01*
X78837599Y-64349839D01*
X80300320Y-65812560D01*
X80185000Y-65812560D01*
X79949683Y-65856838D01*
X79733559Y-65995910D01*
X79588569Y-66208110D01*
X79537560Y-66460000D01*
X79537560Y-68160000D01*
X79581838Y-68395317D01*
X79720910Y-68611441D01*
X79933110Y-68756431D01*
X80185000Y-68807440D01*
X81941992Y-68807440D01*
X81941992Y-69383206D01*
X79762114Y-71563084D01*
X79674398Y-71526661D01*
X79078218Y-71526141D01*
X78527220Y-71753808D01*
X78105290Y-72175003D01*
X78104905Y-72175931D01*
X77684997Y-71755290D01*
X77134398Y-71526661D01*
X76538218Y-71526141D01*
X75987220Y-71753808D01*
X75565290Y-72175003D01*
X75564905Y-72175931D01*
X75144997Y-71755290D01*
X74594398Y-71526661D01*
X73998218Y-71526141D01*
X73447220Y-71753808D01*
X73025290Y-72175003D01*
X73024905Y-72175931D01*
X72604997Y-71755290D01*
X72054398Y-71526661D01*
X71458218Y-71526141D01*
X70907220Y-71753808D01*
X70485290Y-72175003D01*
X70256661Y-72725602D01*
X70256141Y-73321782D01*
X70483808Y-73872780D01*
X70905003Y-74294710D01*
X71455602Y-74523339D01*
X72051782Y-74523859D01*
X72602780Y-74296192D01*
X73024710Y-73874997D01*
X73025095Y-73874069D01*
X73445003Y-74294710D01*
X73995602Y-74523339D01*
X74591782Y-74523859D01*
X75142780Y-74296192D01*
X75564710Y-73874997D01*
X75565095Y-73874069D01*
X75985003Y-74294710D01*
X76535602Y-74523339D01*
X77131782Y-74523859D01*
X77682780Y-74296192D01*
X78104710Y-73874997D01*
X78105095Y-73874069D01*
X78525003Y-74294710D01*
X79075602Y-74523339D01*
X79671782Y-74523859D01*
X80222780Y-74296192D01*
X80644710Y-73874997D01*
X80645095Y-73874069D01*
X81065003Y-74294710D01*
X81615602Y-74523339D01*
X82211782Y-74523859D01*
X82762780Y-74296192D01*
X83184710Y-73874997D01*
X83185095Y-73874069D01*
X83605003Y-74294710D01*
X84155602Y-74523339D01*
X84751782Y-74523859D01*
X85302780Y-74296192D01*
X85724710Y-73874997D01*
X85725095Y-73874069D01*
X86145003Y-74294710D01*
X86695602Y-74523339D01*
X87291782Y-74523859D01*
X87842780Y-74296192D01*
X88264710Y-73874997D01*
X88265095Y-73874069D01*
X88685003Y-74294710D01*
X89235602Y-74523339D01*
X89831782Y-74523859D01*
X90382780Y-74296192D01*
X90804710Y-73874997D01*
X90805095Y-73874069D01*
X91225003Y-74294710D01*
X91775602Y-74523339D01*
X92371782Y-74523859D01*
X92922780Y-74296192D01*
X93344710Y-73874997D01*
X93345095Y-73874069D01*
X93765003Y-74294710D01*
X94315602Y-74523339D01*
X94911782Y-74523859D01*
X95462780Y-74296192D01*
X95884710Y-73874997D01*
X95885095Y-73874069D01*
X96305003Y-74294710D01*
X96855602Y-74523339D01*
X97451782Y-74523859D01*
X98002780Y-74296192D01*
X98424710Y-73874997D01*
X98425095Y-73874069D01*
X98845003Y-74294710D01*
X99395602Y-74523339D01*
X99991782Y-74523859D01*
X100542780Y-74296192D01*
X100964710Y-73874997D01*
X100965095Y-73874069D01*
X101385003Y-74294710D01*
X101935602Y-74523339D01*
X102531782Y-74523859D01*
X103082780Y-74296192D01*
X103300546Y-74078805D01*
X103900800Y-74078805D01*
X103982741Y-74331516D01*
X104543030Y-74535248D01*
X105138635Y-74509058D01*
X105567259Y-74331516D01*
X105649200Y-74078805D01*
X104775000Y-73204605D01*
X103900800Y-74078805D01*
X103300546Y-74078805D01*
X103504710Y-73874997D01*
X103521541Y-73834463D01*
X103721195Y-73899200D01*
X104595395Y-73025000D01*
X104954605Y-73025000D01*
X105828805Y-73899200D01*
X106028033Y-73834601D01*
X106043808Y-73872780D01*
X106465003Y-74294710D01*
X107015602Y-74523339D01*
X107611782Y-74523859D01*
X107717525Y-74480167D01*
X122889838Y-74480167D01*
X123031883Y-74823943D01*
X123294673Y-75087192D01*
X123638201Y-75229838D01*
X124010167Y-75230162D01*
X124353943Y-75088117D01*
X124387118Y-75055000D01*
X137795000Y-75055000D01*
X138085839Y-74997148D01*
X138332401Y-74832401D01*
X138967401Y-74197401D01*
X139113521Y-73978716D01*
X139231802Y-74097203D01*
X139100301Y-74151673D01*
X138921673Y-74330302D01*
X138825000Y-74563691D01*
X138825000Y-75279250D01*
X138983750Y-75438000D01*
X140208000Y-75438000D01*
X140208000Y-75418000D01*
X140462000Y-75418000D01*
X140462000Y-75438000D01*
X141686250Y-75438000D01*
X141845000Y-75279250D01*
X141845000Y-74563691D01*
X141748327Y-74330302D01*
X141569699Y-74151673D01*
X141438286Y-74097240D01*
X141614370Y-73921463D01*
X141844738Y-73366675D01*
X141845262Y-72765960D01*
X141615862Y-72210771D01*
X141220464Y-71814682D01*
X141614370Y-71421463D01*
X141844738Y-70866675D01*
X141845262Y-70265960D01*
X141615862Y-69710771D01*
X141191463Y-69285630D01*
X140636675Y-69055262D01*
X140035960Y-69054738D01*
X139480771Y-69284138D01*
X139055630Y-69708537D01*
X138825262Y-70263325D01*
X138824738Y-70864040D01*
X138864625Y-70960573D01*
X137892599Y-71932599D01*
X137727852Y-72179161D01*
X137670000Y-72470000D01*
X137670000Y-73345198D01*
X137480198Y-73535000D01*
X124387463Y-73535000D01*
X124355327Y-73502808D01*
X124011799Y-73360162D01*
X123639833Y-73359838D01*
X123296057Y-73501883D01*
X123032808Y-73764673D01*
X122890162Y-74108201D01*
X122889838Y-74480167D01*
X107717525Y-74480167D01*
X108162780Y-74296192D01*
X108584710Y-73874997D01*
X108813339Y-73324398D01*
X108813859Y-72728218D01*
X108586192Y-72177220D01*
X108164997Y-71755290D01*
X107614398Y-71526661D01*
X107018218Y-71526141D01*
X106467220Y-71753808D01*
X106045290Y-72175003D01*
X106028459Y-72215537D01*
X105828805Y-72150800D01*
X104954605Y-73025000D01*
X104595395Y-73025000D01*
X103721195Y-72150800D01*
X103521967Y-72215399D01*
X103506192Y-72177220D01*
X103300526Y-71971195D01*
X103900800Y-71971195D01*
X104775000Y-72845395D01*
X105649200Y-71971195D01*
X105567259Y-71718484D01*
X105006970Y-71514752D01*
X104411365Y-71540942D01*
X103982741Y-71718484D01*
X103900800Y-71971195D01*
X103300526Y-71971195D01*
X103084997Y-71755290D01*
X102534398Y-71526661D01*
X101938218Y-71526141D01*
X101387220Y-71753808D01*
X100965290Y-72175003D01*
X100964905Y-72175931D01*
X100544997Y-71755290D01*
X99994398Y-71526661D01*
X99398218Y-71526141D01*
X98847220Y-71753808D01*
X98425290Y-72175003D01*
X98424905Y-72175931D01*
X98004997Y-71755290D01*
X97454398Y-71526661D01*
X96858218Y-71526141D01*
X96307220Y-71753808D01*
X95885290Y-72175003D01*
X95884905Y-72175931D01*
X95464997Y-71755290D01*
X94914398Y-71526661D01*
X94318218Y-71526141D01*
X93767220Y-71753808D01*
X93345290Y-72175003D01*
X93344905Y-72175931D01*
X92924997Y-71755290D01*
X92374398Y-71526661D01*
X91778218Y-71526141D01*
X91227220Y-71753808D01*
X90805290Y-72175003D01*
X90804905Y-72175931D01*
X90384997Y-71755290D01*
X89834398Y-71526661D01*
X89238218Y-71526141D01*
X88687220Y-71753808D01*
X88265290Y-72175003D01*
X88264905Y-72175931D01*
X87844997Y-71755290D01*
X87755000Y-71717920D01*
X87755000Y-69529802D01*
X89214802Y-68070000D01*
X91602560Y-68070000D01*
X91602560Y-68160000D01*
X91646838Y-68395317D01*
X91785910Y-68611441D01*
X91998110Y-68756431D01*
X92250000Y-68807440D01*
X94250000Y-68807440D01*
X94485317Y-68763162D01*
X94701441Y-68624090D01*
X94846431Y-68411890D01*
X94897440Y-68160000D01*
X94897440Y-66460000D01*
X94853162Y-66224683D01*
X94714090Y-66008559D01*
X94501890Y-65863569D01*
X94250000Y-65812560D01*
X93077903Y-65812560D01*
X93787401Y-65103062D01*
X93952148Y-64856500D01*
X94010000Y-64565661D01*
X94010000Y-64362440D01*
X94250000Y-64362440D01*
X94485317Y-64318162D01*
X94701441Y-64179090D01*
X94846431Y-63966890D01*
X94897440Y-63715000D01*
X94897440Y-62015000D01*
X94853162Y-61779683D01*
X94714090Y-61563559D01*
X94501890Y-61418569D01*
X94250000Y-61367560D01*
X92250000Y-61367560D01*
X92014683Y-61411838D01*
X91798559Y-61550910D01*
X91653569Y-61763110D01*
X91602560Y-62015000D01*
X91602560Y-63715000D01*
X91646838Y-63950317D01*
X91785910Y-64166441D01*
X91998110Y-64311431D01*
X92250000Y-64362440D01*
X92378419Y-64362440D01*
X90825859Y-65915000D01*
X88638386Y-65915000D01*
X88347546Y-65972852D01*
X88100985Y-66137599D01*
X86832440Y-67406144D01*
X86832440Y-66460000D01*
X86788162Y-66224683D01*
X86649090Y-66008559D01*
X86436890Y-65863569D01*
X86185000Y-65812560D01*
X84185000Y-65812560D01*
X83949683Y-65856838D01*
X83733559Y-65995910D01*
X83588569Y-66208110D01*
X83537560Y-66460000D01*
X83537560Y-68160000D01*
X83581838Y-68395317D01*
X83596046Y-68417398D01*
X83461992Y-68551452D01*
X83461992Y-66106232D01*
X83404140Y-65815393D01*
X83239393Y-65568831D01*
X82033002Y-64362440D01*
X82185000Y-64362440D01*
X82420317Y-64318162D01*
X82636441Y-64179090D01*
X82781431Y-63966890D01*
X82832440Y-63715000D01*
X82832440Y-62015000D01*
X82788162Y-61779683D01*
X82649090Y-61563559D01*
X82436890Y-61418569D01*
X82185000Y-61367560D01*
X80185000Y-61367560D01*
X80135000Y-61376968D01*
X80135000Y-60312755D01*
X80077148Y-60021916D01*
X79912401Y-59775354D01*
X79420687Y-59283640D01*
X79671782Y-59283859D01*
X80222780Y-59056192D01*
X80644710Y-58634997D01*
X80645095Y-58634069D01*
X81065003Y-59054710D01*
X81615602Y-59283339D01*
X82211782Y-59283859D01*
X82762780Y-59056192D01*
X83184710Y-58634997D01*
X83185095Y-58634069D01*
X83605003Y-59054710D01*
X84155602Y-59283339D01*
X84425000Y-59283574D01*
X84425000Y-61367560D01*
X84185000Y-61367560D01*
X83949683Y-61411838D01*
X83733559Y-61550910D01*
X83588569Y-61763110D01*
X83537560Y-62015000D01*
X83537560Y-63715000D01*
X83581838Y-63950317D01*
X83720910Y-64166441D01*
X83933110Y-64311431D01*
X84185000Y-64362440D01*
X86185000Y-64362440D01*
X86420317Y-64318162D01*
X86636441Y-64179090D01*
X86781431Y-63966890D01*
X86832440Y-63715000D01*
X86832440Y-62015000D01*
X86788162Y-61779683D01*
X86649090Y-61563559D01*
X86436890Y-61418569D01*
X86185000Y-61367560D01*
X85945000Y-61367560D01*
X85945000Y-59308478D01*
X86182993Y-59070485D01*
X86695602Y-59283339D01*
X87291782Y-59283859D01*
X87842780Y-59056192D01*
X88264710Y-58634997D01*
X88265095Y-58634069D01*
X88685003Y-59054710D01*
X89235602Y-59283339D01*
X89831782Y-59283859D01*
X90382780Y-59056192D01*
X90804710Y-58634997D01*
X90805095Y-58634069D01*
X91225003Y-59054710D01*
X91775602Y-59283339D01*
X92371782Y-59283859D01*
X92922780Y-59056192D01*
X93344710Y-58634997D01*
X93345095Y-58634069D01*
X93765003Y-59054710D01*
X94315602Y-59283339D01*
X94911782Y-59283859D01*
X95462780Y-59056192D01*
X95884710Y-58634997D01*
X95885095Y-58634069D01*
X96305003Y-59054710D01*
X96855602Y-59283339D01*
X97451782Y-59283859D01*
X98002780Y-59056192D01*
X98424710Y-58634997D01*
X98441541Y-58594463D01*
X98641195Y-58659200D01*
X99515395Y-57785000D01*
X99501253Y-57770858D01*
X99680858Y-57591253D01*
X99695000Y-57605395D01*
X99709143Y-57591253D01*
X99888748Y-57770858D01*
X99874605Y-57785000D01*
X99888748Y-57799143D01*
X99709143Y-57978748D01*
X99695000Y-57964605D01*
X98820800Y-58838805D01*
X98902741Y-59091516D01*
X99463030Y-59295248D01*
X100058635Y-59269058D01*
X100205000Y-59208432D01*
X100205000Y-60645198D01*
X98887583Y-61962615D01*
X98853162Y-61779683D01*
X98714090Y-61563559D01*
X98501890Y-61418569D01*
X98250000Y-61367560D01*
X96250000Y-61367560D01*
X96014683Y-61411838D01*
X95798559Y-61550910D01*
X95653569Y-61763110D01*
X95602560Y-62015000D01*
X95602560Y-63715000D01*
X95646838Y-63950317D01*
X95785910Y-64166441D01*
X95998110Y-64311431D01*
X96250000Y-64362440D01*
X97454043Y-64362440D01*
X96712599Y-65103884D01*
X96547852Y-65350446D01*
X96490000Y-65641285D01*
X96490000Y-65812560D01*
X96250000Y-65812560D01*
X96014683Y-65856838D01*
X95798559Y-65995910D01*
X95653569Y-66208110D01*
X95602560Y-66460000D01*
X95602560Y-68160000D01*
X95646838Y-68395317D01*
X95785910Y-68611441D01*
X95998110Y-68756431D01*
X96250000Y-68807440D01*
X98250000Y-68807440D01*
X98485317Y-68763162D01*
X98701441Y-68624090D01*
X98846431Y-68411890D01*
X98897440Y-68160000D01*
X98897440Y-66460000D01*
X98853162Y-66224683D01*
X98714090Y-66008559D01*
X98501890Y-65863569D01*
X98250000Y-65812560D01*
X98153527Y-65812560D01*
X102085337Y-61880750D01*
X138825000Y-61880750D01*
X138825000Y-62596309D01*
X138921673Y-62829698D01*
X139100301Y-63008327D01*
X139333690Y-63105000D01*
X140049250Y-63105000D01*
X140208000Y-62946250D01*
X140208000Y-61722000D01*
X140462000Y-61722000D01*
X140462000Y-62946250D01*
X140620750Y-63105000D01*
X141336310Y-63105000D01*
X141569699Y-63008327D01*
X141748327Y-62829698D01*
X141845000Y-62596309D01*
X141845000Y-61880750D01*
X141686250Y-61722000D01*
X140462000Y-61722000D01*
X140208000Y-61722000D01*
X138983750Y-61722000D01*
X138825000Y-61880750D01*
X102085337Y-61880750D01*
X104042401Y-59923686D01*
X104207148Y-59677124D01*
X104265000Y-59386285D01*
X104265000Y-59195889D01*
X104475602Y-59283339D01*
X105071782Y-59283859D01*
X105622780Y-59056192D01*
X105839876Y-58839475D01*
X105848238Y-58883917D01*
X105987310Y-59100041D01*
X106199510Y-59245031D01*
X106451400Y-59296040D01*
X108178600Y-59296040D01*
X108413917Y-59251762D01*
X108431936Y-59240167D01*
X122889838Y-59240167D01*
X123031883Y-59583943D01*
X123294673Y-59847192D01*
X123638201Y-59989838D01*
X124010167Y-59990162D01*
X124353943Y-59848117D01*
X124387118Y-59815000D01*
X137875000Y-59815000D01*
X138165839Y-59757148D01*
X138412401Y-59592401D01*
X138824925Y-59179877D01*
X138824738Y-59394040D01*
X139054138Y-59949229D01*
X139231802Y-60127203D01*
X139100301Y-60181673D01*
X138921673Y-60360302D01*
X138825000Y-60593691D01*
X138825000Y-61309250D01*
X138983750Y-61468000D01*
X140208000Y-61468000D01*
X140208000Y-61448000D01*
X140462000Y-61448000D01*
X140462000Y-61468000D01*
X141686250Y-61468000D01*
X141845000Y-61309250D01*
X141845000Y-60593691D01*
X141748327Y-60360302D01*
X141569699Y-60181673D01*
X141438286Y-60127240D01*
X141614370Y-59951463D01*
X141844738Y-59396675D01*
X141845262Y-58795960D01*
X141615862Y-58240771D01*
X141220464Y-57844682D01*
X141614370Y-57451463D01*
X141844738Y-56896675D01*
X141845262Y-56295960D01*
X141615862Y-55740771D01*
X141191463Y-55315630D01*
X140636675Y-55085262D01*
X140035960Y-55084738D01*
X139480771Y-55314138D01*
X139055630Y-55738537D01*
X138825262Y-56293325D01*
X138824738Y-56894040D01*
X138864625Y-56990573D01*
X137560198Y-58295000D01*
X124387463Y-58295000D01*
X124355327Y-58262808D01*
X124011799Y-58120162D01*
X123639833Y-58119838D01*
X123296057Y-58261883D01*
X123032808Y-58524673D01*
X122890162Y-58868201D01*
X122889838Y-59240167D01*
X108431936Y-59240167D01*
X108630041Y-59112690D01*
X108775031Y-58900490D01*
X108826040Y-58648600D01*
X108826040Y-56921400D01*
X108781762Y-56686083D01*
X108642690Y-56469959D01*
X108430490Y-56324969D01*
X108178600Y-56273960D01*
X106451400Y-56273960D01*
X106216083Y-56318238D01*
X105999959Y-56457310D01*
X105854969Y-56669510D01*
X105842148Y-56732820D01*
X105624997Y-56515290D01*
X105074398Y-56286661D01*
X104808373Y-56286429D01*
X110014589Y-51080213D01*
X115159392Y-51080213D01*
X115228857Y-51322397D01*
X115752302Y-51509144D01*
X116307368Y-51481362D01*
X116691143Y-51322397D01*
X116760608Y-51080213D01*
X115960000Y-50279605D01*
X115159392Y-51080213D01*
X110014589Y-51080213D01*
X110804802Y-50290000D01*
X112688332Y-50290000D01*
X112979171Y-50232148D01*
X113225733Y-50067401D01*
X113400832Y-49892302D01*
X114550856Y-49892302D01*
X114578638Y-50447368D01*
X114737603Y-50831143D01*
X114979787Y-50900608D01*
X115780395Y-50100000D01*
X116139605Y-50100000D01*
X116940213Y-50900608D01*
X117182397Y-50831143D01*
X117344540Y-50376661D01*
X131562758Y-50376661D01*
X131774990Y-50890303D01*
X132167630Y-51283629D01*
X132680900Y-51496757D01*
X133236661Y-51497242D01*
X133750303Y-51285010D01*
X134143629Y-50892370D01*
X134356757Y-50379100D01*
X134357242Y-49823339D01*
X134145010Y-49309697D01*
X133752370Y-48916371D01*
X133239100Y-48703243D01*
X132683339Y-48702758D01*
X132169697Y-48914990D01*
X131776371Y-49307630D01*
X131563243Y-49820900D01*
X131562758Y-50376661D01*
X117344540Y-50376661D01*
X117369144Y-50307698D01*
X117341362Y-49752632D01*
X117182397Y-49368857D01*
X116940213Y-49299392D01*
X116139605Y-50100000D01*
X115780395Y-50100000D01*
X114979787Y-49299392D01*
X114737603Y-49368857D01*
X114550856Y-49892302D01*
X113400832Y-49892302D01*
X114173347Y-49119787D01*
X115159392Y-49119787D01*
X115960000Y-49920395D01*
X116760608Y-49119787D01*
X116691143Y-48877603D01*
X116167698Y-48690856D01*
X115612632Y-48718638D01*
X115228857Y-48877603D01*
X115159392Y-49119787D01*
X114173347Y-49119787D01*
X117448134Y-45845000D01*
X128330000Y-45845000D01*
X128620839Y-45787148D01*
X128867401Y-45622401D01*
X129192114Y-45297688D01*
X129350000Y-45329093D01*
X129822614Y-45235084D01*
X130223277Y-44967370D01*
X130350000Y-44777715D01*
X130476723Y-44967370D01*
X130877386Y-45235084D01*
X131350000Y-45329093D01*
X131822614Y-45235084D01*
X132195590Y-44985870D01*
X132211673Y-45024699D01*
X132390302Y-45203327D01*
X132623691Y-45300000D01*
X133064250Y-45300000D01*
X133223000Y-45141250D01*
X133223000Y-43942000D01*
X133477000Y-43942000D01*
X133477000Y-45141250D01*
X133635750Y-45300000D01*
X134076309Y-45300000D01*
X134309698Y-45203327D01*
X134488327Y-45024699D01*
X134585000Y-44791310D01*
X134585000Y-44100750D01*
X134426250Y-43942000D01*
X133477000Y-43942000D01*
X133223000Y-43942000D01*
X133203000Y-43942000D01*
X133203000Y-43688000D01*
X133223000Y-43688000D01*
X133223000Y-42488750D01*
X133477000Y-42488750D01*
X133477000Y-43688000D01*
X134426250Y-43688000D01*
X134585000Y-43529250D01*
X134585000Y-42838690D01*
X134488327Y-42605301D01*
X134309698Y-42426673D01*
X134076309Y-42330000D01*
X133635750Y-42330000D01*
X133477000Y-42488750D01*
X133223000Y-42488750D01*
X133064250Y-42330000D01*
X132623691Y-42330000D01*
X132390302Y-42426673D01*
X132211673Y-42605301D01*
X132195590Y-42644130D01*
X131822614Y-42394916D01*
X131350000Y-42300907D01*
X130877386Y-42394916D01*
X130476723Y-42662630D01*
X130350000Y-42852285D01*
X130223277Y-42662630D01*
X129822614Y-42394916D01*
X129350000Y-42300907D01*
X128877386Y-42394916D01*
X128476723Y-42662630D01*
X128350000Y-42852285D01*
X128223277Y-42662630D01*
X127822614Y-42394916D01*
X127350000Y-42300907D01*
X126877386Y-42394916D01*
X126476723Y-42662630D01*
X126209009Y-43063293D01*
X126115000Y-43535907D01*
X126115000Y-44094093D01*
X126160930Y-44325000D01*
X122520000Y-44325000D01*
X122520000Y-44100750D01*
X122361250Y-43942000D01*
X121412000Y-43942000D01*
X121412000Y-43962000D01*
X121158000Y-43962000D01*
X121158000Y-43942000D01*
X121138000Y-43942000D01*
X121138000Y-43688000D01*
X121158000Y-43688000D01*
X121158000Y-42488750D01*
X121412000Y-42488750D01*
X121412000Y-43688000D01*
X122361250Y-43688000D01*
X122520000Y-43529250D01*
X122520000Y-42838690D01*
X122423327Y-42605301D01*
X122244698Y-42426673D01*
X122011309Y-42330000D01*
X121570750Y-42330000D01*
X121412000Y-42488750D01*
X121158000Y-42488750D01*
X120999250Y-42330000D01*
X120558691Y-42330000D01*
X120325302Y-42426673D01*
X120146673Y-42605301D01*
X120130590Y-42644130D01*
X119757614Y-42394916D01*
X119285000Y-42300907D01*
X118812386Y-42394916D01*
X118411723Y-42662630D01*
X118285000Y-42852285D01*
X118158277Y-42662630D01*
X117757614Y-42394916D01*
X117285000Y-42300907D01*
X116812386Y-42394916D01*
X116411723Y-42662630D01*
X116285000Y-42852285D01*
X116158277Y-42662630D01*
X115757614Y-42394916D01*
X115285000Y-42300907D01*
X114812386Y-42394916D01*
X114411723Y-42662630D01*
X114144009Y-43063293D01*
X114050000Y-43535907D01*
X114050000Y-44094093D01*
X114144009Y-44566707D01*
X114411723Y-44967370D01*
X114812386Y-45235084D01*
X115002331Y-45272866D01*
X112140198Y-48135000D01*
X110035482Y-48135000D01*
X110095000Y-47991310D01*
X110095000Y-47275750D01*
X109936250Y-47117000D01*
X108712000Y-47117000D01*
X108712000Y-47137000D01*
X108458000Y-47137000D01*
X108458000Y-47117000D01*
X108438000Y-47117000D01*
X108438000Y-46863000D01*
X108458000Y-46863000D01*
X108458000Y-45638750D01*
X108712000Y-45638750D01*
X108712000Y-46863000D01*
X109936250Y-46863000D01*
X110095000Y-46704250D01*
X110095000Y-45988690D01*
X109998327Y-45755301D01*
X109819698Y-45576673D01*
X109586309Y-45480000D01*
X108870750Y-45480000D01*
X108712000Y-45638750D01*
X108458000Y-45638750D01*
X108299250Y-45480000D01*
X107583691Y-45480000D01*
X107350302Y-45576673D01*
X107171673Y-45755301D01*
X107117240Y-45886714D01*
X106941463Y-45710630D01*
X106386675Y-45480262D01*
X105785960Y-45479738D01*
X105230771Y-45709138D01*
X104834682Y-46104536D01*
X104441463Y-45710630D01*
X103886675Y-45480262D01*
X103285960Y-45479738D01*
X102730771Y-45709138D01*
X102334682Y-46104536D01*
X101941463Y-45710630D01*
X101386675Y-45480262D01*
X100785960Y-45479738D01*
X100230771Y-45709138D01*
X99834682Y-46104536D01*
X99441463Y-45710630D01*
X98886675Y-45480262D01*
X98285960Y-45479738D01*
X97730771Y-45709138D01*
X97334682Y-46104536D01*
X96941463Y-45710630D01*
X96386675Y-45480262D01*
X95785960Y-45479738D01*
X95230771Y-45709138D01*
X94834682Y-46104536D01*
X94441463Y-45710630D01*
X93886675Y-45480262D01*
X93285960Y-45479738D01*
X92730771Y-45709138D01*
X92334682Y-46104536D01*
X91941463Y-45710630D01*
X91386675Y-45480262D01*
X90785960Y-45479738D01*
X90230771Y-45709138D01*
X89805630Y-46133537D01*
X89575262Y-46688325D01*
X89574738Y-47289040D01*
X89804138Y-47844229D01*
X90228537Y-48269370D01*
X90325000Y-48309425D01*
X90325000Y-50840198D01*
X85187599Y-55977599D01*
X85022852Y-56224161D01*
X84990887Y-56384860D01*
X84754398Y-56286661D01*
X84158218Y-56286141D01*
X84068156Y-56323354D01*
X80215000Y-52470198D01*
X80215000Y-48309797D01*
X80309229Y-48270862D01*
X80705318Y-47875464D01*
X81098537Y-48269370D01*
X81653325Y-48499738D01*
X82254040Y-48500262D01*
X82809229Y-48270862D01*
X82987203Y-48093198D01*
X83041673Y-48224699D01*
X83220302Y-48403327D01*
X83453691Y-48500000D01*
X84169250Y-48500000D01*
X84328000Y-48341250D01*
X84328000Y-47117000D01*
X84582000Y-47117000D01*
X84582000Y-48341250D01*
X84740750Y-48500000D01*
X85456309Y-48500000D01*
X85689698Y-48403327D01*
X85868327Y-48224699D01*
X85965000Y-47991310D01*
X85965000Y-47275750D01*
X85806250Y-47117000D01*
X84582000Y-47117000D01*
X84328000Y-47117000D01*
X84308000Y-47117000D01*
X84308000Y-46863000D01*
X84328000Y-46863000D01*
X84328000Y-45638750D01*
X84582000Y-45638750D01*
X84582000Y-46863000D01*
X85806250Y-46863000D01*
X85965000Y-46704250D01*
X85965000Y-45988690D01*
X85868327Y-45755301D01*
X85689698Y-45576673D01*
X85456309Y-45480000D01*
X84740750Y-45480000D01*
X84582000Y-45638750D01*
X84328000Y-45638750D01*
X84169250Y-45480000D01*
X83453691Y-45480000D01*
X83220302Y-45576673D01*
X83041673Y-45755301D01*
X82987240Y-45886714D01*
X82811463Y-45710630D01*
X82256675Y-45480262D01*
X81655960Y-45479738D01*
X81100771Y-45709138D01*
X80704682Y-46104536D01*
X80311463Y-45710630D01*
X79756675Y-45480262D01*
X79155960Y-45479738D01*
X78600771Y-45709138D01*
X78204682Y-46104536D01*
X77811463Y-45710630D01*
X77256675Y-45480262D01*
X76655960Y-45479738D01*
X76100771Y-45709138D01*
X75704682Y-46104536D01*
X75311463Y-45710630D01*
X74756675Y-45480262D01*
X74155960Y-45479738D01*
X73600771Y-45709138D01*
X73204682Y-46104536D01*
X72811463Y-45710630D01*
X72256675Y-45480262D01*
X71655960Y-45479738D01*
X71100771Y-45709138D01*
X70704682Y-46104536D01*
X70311463Y-45710630D01*
X69756675Y-45480262D01*
X69155960Y-45479738D01*
X68600771Y-45709138D01*
X68204682Y-46104536D01*
X67811463Y-45710630D01*
X67256675Y-45480262D01*
X66655960Y-45479738D01*
X66100771Y-45709138D01*
X65675630Y-46133537D01*
X65445262Y-46688325D01*
X65444738Y-47289040D01*
X59998057Y-47289040D01*
X60674132Y-47009692D01*
X62005019Y-45681126D01*
X62726177Y-43944383D01*
X62727818Y-42063867D01*
X62009692Y-40325868D01*
X60812915Y-39127000D01*
X139188937Y-39127000D01*
X137994981Y-40318874D01*
M02*
