G04 #@! TF.FileFunction,Soldermask,Bot*
%FSLAX46Y46*%
G04 Gerber Fmt 4.6, Leading zero omitted, Abs format (unit mm)*
G04 Created by KiCad (PCBNEW 4.0.3+e1-6302~38~ubuntu15.04.1-stable) date Mon Sep 12 00:10:41 2016*
%MOMM*%
%LPD*%
G01*
G04 APERTURE LIST*
%ADD10C,0.100000*%
%ADD11R,1.300000X1.300000*%
%ADD12C,1.300000*%
%ADD13R,1.750000X1.750000*%
%ADD14C,1.750000*%
%ADD15R,1.200000X1.700000*%
%ADD16O,1.200000X1.700000*%
%ADD17C,7.200000*%
%ADD18R,1.727200X1.727200*%
%ADD19C,1.727200*%
%ADD20C,1.524000*%
%ADD21R,3.500120X3.500120*%
%ADD22R,1.397000X1.397000*%
%ADD23C,1.397000*%
G04 APERTURE END LIST*
D10*
D11*
X104775000Y-83185000D03*
D12*
X109775000Y-83185000D03*
D13*
X108585000Y-46990000D03*
D14*
X106085000Y-46990000D03*
X103585000Y-46990000D03*
X101085000Y-46990000D03*
X98585000Y-46990000D03*
X96085000Y-46990000D03*
X93585000Y-46990000D03*
X91085000Y-46990000D03*
D13*
X84455000Y-46990000D03*
D14*
X81955000Y-46990000D03*
X79455000Y-46990000D03*
X76955000Y-46990000D03*
X74455000Y-46990000D03*
X71955000Y-46990000D03*
X69455000Y-46990000D03*
X66955000Y-46990000D03*
D15*
X121285000Y-43815000D03*
D16*
X119285000Y-43815000D03*
X117285000Y-43815000D03*
X115285000Y-43815000D03*
D15*
X133350000Y-43815000D03*
D16*
X131350000Y-43815000D03*
X129350000Y-43815000D03*
X127350000Y-43815000D03*
D13*
X140335000Y-61595000D03*
D14*
X140335000Y-59095000D03*
X140335000Y-56595000D03*
D13*
X140335000Y-75565000D03*
D14*
X140335000Y-73065000D03*
X140335000Y-70565000D03*
D17*
X58000000Y-43000000D03*
X142000000Y-43000000D03*
X58000000Y-87000000D03*
X142000000Y-87000000D03*
D18*
X107315000Y-57785000D03*
D19*
X104775000Y-57785000D03*
X102235000Y-57785000D03*
X99695000Y-57785000D03*
X97155000Y-57785000D03*
X94615000Y-57785000D03*
X92075000Y-57785000D03*
X89535000Y-57785000D03*
X86995000Y-57785000D03*
X84455000Y-57785000D03*
X81915000Y-57785000D03*
X79375000Y-57785000D03*
X76835000Y-57785000D03*
X74295000Y-57785000D03*
X71755000Y-57785000D03*
X71755000Y-73025000D03*
X74295000Y-73025000D03*
X76835000Y-73025000D03*
X79375000Y-73025000D03*
X81915000Y-73025000D03*
X84455000Y-73025000D03*
X86995000Y-73025000D03*
X89535000Y-73025000D03*
X92075000Y-73025000D03*
X94615000Y-73025000D03*
X97155000Y-73025000D03*
X99695000Y-73025000D03*
X102235000Y-73025000D03*
X104775000Y-73025000D03*
X107315000Y-73025000D03*
D20*
X132960000Y-50100000D03*
X115960000Y-50100000D03*
X132960000Y-89600000D03*
X115960000Y-89600000D03*
D21*
X73660000Y-79397860D03*
X73660000Y-85397340D03*
X78359000Y-82397600D03*
D22*
X96647000Y-85471000D03*
D23*
X94107000Y-85471000D03*
X91567000Y-85471000D03*
M02*
