G04 #@! TF.FileFunction,Legend,Bot*
%FSLAX46Y46*%
G04 Gerber Fmt 4.6, Leading zero omitted, Abs format (unit mm)*
G04 Created by KiCad (PCBNEW 4.0.3+e1-6302~38~ubuntu15.04.1-stable) date Mon Sep 12 00:10:40 2016*
%MOMM*%
%LPD*%
G01*
G04 APERTURE LIST*
%ADD10C,0.100000*%
%ADD11C,0.010000*%
G04 APERTURE END LIST*
D10*
X68119048Y-89987381D02*
X68452382Y-89511190D01*
X68690477Y-89987381D02*
X68690477Y-88987381D01*
X68309524Y-88987381D01*
X68214286Y-89035000D01*
X68166667Y-89082619D01*
X68119048Y-89177857D01*
X68119048Y-89320714D01*
X68166667Y-89415952D01*
X68214286Y-89463571D01*
X68309524Y-89511190D01*
X68690477Y-89511190D01*
X67690477Y-89463571D02*
X67357143Y-89463571D01*
X67214286Y-89987381D02*
X67690477Y-89987381D01*
X67690477Y-88987381D01*
X67214286Y-88987381D01*
X66928572Y-88987381D02*
X66595239Y-89987381D01*
X66261905Y-88987381D01*
X64976191Y-88987381D02*
X64880952Y-88987381D01*
X64785714Y-89035000D01*
X64738095Y-89082619D01*
X64690476Y-89177857D01*
X64642857Y-89368333D01*
X64642857Y-89606429D01*
X64690476Y-89796905D01*
X64738095Y-89892143D01*
X64785714Y-89939762D01*
X64880952Y-89987381D01*
X64976191Y-89987381D01*
X65071429Y-89939762D01*
X65119048Y-89892143D01*
X65166667Y-89796905D01*
X65214286Y-89606429D01*
X65214286Y-89368333D01*
X65166667Y-89177857D01*
X65119048Y-89082619D01*
X65071429Y-89035000D01*
X64976191Y-88987381D01*
X63690476Y-89987381D02*
X64261905Y-89987381D01*
X63976191Y-89987381D02*
X63976191Y-88987381D01*
X64071429Y-89130238D01*
X64166667Y-89225476D01*
X64261905Y-89273095D01*
X130746571Y-89590571D02*
X131079905Y-89590571D01*
X131079905Y-90114381D02*
X131079905Y-89114381D01*
X130603714Y-89114381D01*
X130270381Y-89828667D02*
X129794190Y-89828667D01*
X130365619Y-90114381D02*
X130032286Y-89114381D01*
X129698952Y-90114381D01*
X129079904Y-89114381D02*
X129079904Y-89828667D01*
X129127524Y-89971524D01*
X129222762Y-90066762D01*
X129365619Y-90114381D01*
X129460857Y-90114381D01*
X128032285Y-90114381D02*
X128365619Y-89638190D01*
X128603714Y-90114381D02*
X128603714Y-89114381D01*
X128222761Y-89114381D01*
X128127523Y-89162000D01*
X128079904Y-89209619D01*
X128032285Y-89304857D01*
X128032285Y-89447714D01*
X128079904Y-89542952D01*
X128127523Y-89590571D01*
X128222761Y-89638190D01*
X128603714Y-89638190D01*
X127651333Y-89828667D02*
X127175142Y-89828667D01*
X127746571Y-90114381D02*
X127413238Y-89114381D01*
X127079904Y-90114381D01*
X126746571Y-90114381D02*
X126746571Y-89114381D01*
X126175142Y-90114381D01*
X126175142Y-89114381D01*
X124984666Y-89209619D02*
X124937047Y-89162000D01*
X124841809Y-89114381D01*
X124603713Y-89114381D01*
X124508475Y-89162000D01*
X124460856Y-89209619D01*
X124413237Y-89304857D01*
X124413237Y-89400095D01*
X124460856Y-89542952D01*
X125032285Y-90114381D01*
X124413237Y-90114381D01*
X123794190Y-89114381D02*
X123698951Y-89114381D01*
X123603713Y-89162000D01*
X123556094Y-89209619D01*
X123508475Y-89304857D01*
X123460856Y-89495333D01*
X123460856Y-89733429D01*
X123508475Y-89923905D01*
X123556094Y-90019143D01*
X123603713Y-90066762D01*
X123698951Y-90114381D01*
X123794190Y-90114381D01*
X123889428Y-90066762D01*
X123937047Y-90019143D01*
X123984666Y-89923905D01*
X124032285Y-89733429D01*
X124032285Y-89495333D01*
X123984666Y-89304857D01*
X123937047Y-89209619D01*
X123889428Y-89162000D01*
X123794190Y-89114381D01*
X122508475Y-90114381D02*
X123079904Y-90114381D01*
X122794190Y-90114381D02*
X122794190Y-89114381D01*
X122889428Y-89257238D01*
X122984666Y-89352476D01*
X123079904Y-89400095D01*
X121651332Y-89114381D02*
X121841809Y-89114381D01*
X121937047Y-89162000D01*
X121984666Y-89209619D01*
X122079904Y-89352476D01*
X122127523Y-89542952D01*
X122127523Y-89923905D01*
X122079904Y-90019143D01*
X122032285Y-90066762D01*
X121937047Y-90114381D01*
X121746570Y-90114381D01*
X121651332Y-90066762D01*
X121603713Y-90019143D01*
X121556094Y-89923905D01*
X121556094Y-89685810D01*
X121603713Y-89590571D01*
X121651332Y-89542952D01*
X121746570Y-89495333D01*
X121937047Y-89495333D01*
X122032285Y-89542952D01*
X122079904Y-89590571D01*
X122127523Y-89685810D01*
D11*
G36*
X105466114Y-67989505D02*
X105391461Y-68026727D01*
X105325569Y-68095261D01*
X105307423Y-68120648D01*
X105287655Y-68153866D01*
X105274828Y-68189945D01*
X105267490Y-68238098D01*
X105264187Y-68307536D01*
X105263462Y-68399206D01*
X105266737Y-68524830D01*
X105278123Y-68619154D01*
X105299959Y-68689523D01*
X105334581Y-68743286D01*
X105384330Y-68787788D01*
X105387986Y-68790423D01*
X105437015Y-68817377D01*
X105496055Y-68830712D01*
X105571141Y-68834000D01*
X105693205Y-68834000D01*
X105693256Y-68952497D01*
X105694392Y-69018492D01*
X105701314Y-69057202D01*
X105719402Y-69080419D01*
X105754038Y-69099933D01*
X105762355Y-69103920D01*
X105801280Y-69122603D01*
X105831417Y-69134403D01*
X105853826Y-69135422D01*
X105869567Y-69121761D01*
X105879698Y-69089522D01*
X105885277Y-69034804D01*
X105887365Y-68953711D01*
X105887019Y-68842344D01*
X105885300Y-68696802D01*
X105884763Y-68653269D01*
X105882828Y-68503205D01*
X105881096Y-68405042D01*
X105693308Y-68405042D01*
X105692252Y-68488364D01*
X105687562Y-68542880D01*
X105676949Y-68578837D01*
X105658128Y-68606482D01*
X105645350Y-68619965D01*
X105593110Y-68659417D01*
X105546858Y-68662628D01*
X105499133Y-68630049D01*
X105497923Y-68628846D01*
X105478506Y-68603668D01*
X105466693Y-68569447D01*
X105460735Y-68516748D01*
X105458880Y-68436131D01*
X105458846Y-68418271D01*
X105463330Y-68307175D01*
X105477926Y-68230161D01*
X105504350Y-68183147D01*
X105544317Y-68162050D01*
X105567416Y-68159923D01*
X105622238Y-68169900D01*
X105659842Y-68202752D01*
X105682477Y-68262857D01*
X105692394Y-68354598D01*
X105693308Y-68405042D01*
X105881096Y-68405042D01*
X105880778Y-68387060D01*
X105878127Y-68299679D01*
X105874394Y-68235905D01*
X105869093Y-68190582D01*
X105861742Y-68158555D01*
X105851857Y-68134668D01*
X105838954Y-68113764D01*
X105833421Y-68105898D01*
X105760031Y-68031595D01*
X105667240Y-67989467D01*
X105559904Y-67977722D01*
X105466114Y-67989505D01*
X105466114Y-67989505D01*
G37*
X105466114Y-67989505D02*
X105391461Y-68026727D01*
X105325569Y-68095261D01*
X105307423Y-68120648D01*
X105287655Y-68153866D01*
X105274828Y-68189945D01*
X105267490Y-68238098D01*
X105264187Y-68307536D01*
X105263462Y-68399206D01*
X105266737Y-68524830D01*
X105278123Y-68619154D01*
X105299959Y-68689523D01*
X105334581Y-68743286D01*
X105384330Y-68787788D01*
X105387986Y-68790423D01*
X105437015Y-68817377D01*
X105496055Y-68830712D01*
X105571141Y-68834000D01*
X105693205Y-68834000D01*
X105693256Y-68952497D01*
X105694392Y-69018492D01*
X105701314Y-69057202D01*
X105719402Y-69080419D01*
X105754038Y-69099933D01*
X105762355Y-69103920D01*
X105801280Y-69122603D01*
X105831417Y-69134403D01*
X105853826Y-69135422D01*
X105869567Y-69121761D01*
X105879698Y-69089522D01*
X105885277Y-69034804D01*
X105887365Y-68953711D01*
X105887019Y-68842344D01*
X105885300Y-68696802D01*
X105884763Y-68653269D01*
X105882828Y-68503205D01*
X105881096Y-68405042D01*
X105693308Y-68405042D01*
X105692252Y-68488364D01*
X105687562Y-68542880D01*
X105676949Y-68578837D01*
X105658128Y-68606482D01*
X105645350Y-68619965D01*
X105593110Y-68659417D01*
X105546858Y-68662628D01*
X105499133Y-68630049D01*
X105497923Y-68628846D01*
X105478506Y-68603668D01*
X105466693Y-68569447D01*
X105460735Y-68516748D01*
X105458880Y-68436131D01*
X105458846Y-68418271D01*
X105463330Y-68307175D01*
X105477926Y-68230161D01*
X105504350Y-68183147D01*
X105544317Y-68162050D01*
X105567416Y-68159923D01*
X105622238Y-68169900D01*
X105659842Y-68202752D01*
X105682477Y-68262857D01*
X105692394Y-68354598D01*
X105693308Y-68405042D01*
X105881096Y-68405042D01*
X105880778Y-68387060D01*
X105878127Y-68299679D01*
X105874394Y-68235905D01*
X105869093Y-68190582D01*
X105861742Y-68158555D01*
X105851857Y-68134668D01*
X105838954Y-68113764D01*
X105833421Y-68105898D01*
X105760031Y-68031595D01*
X105667240Y-67989467D01*
X105559904Y-67977722D01*
X105466114Y-67989505D01*
G36*
X103963336Y-68000089D02*
X103900633Y-68036358D01*
X103857039Y-68072358D01*
X103825155Y-68110075D01*
X103803190Y-68156199D01*
X103789351Y-68217421D01*
X103781847Y-68300431D01*
X103778883Y-68411919D01*
X103778539Y-68492062D01*
X103778539Y-68787065D01*
X103944615Y-68861515D01*
X103954385Y-68538402D01*
X103958421Y-68417729D01*
X103962656Y-68330141D01*
X103967903Y-68269650D01*
X103974975Y-68230268D01*
X103984689Y-68206007D01*
X103997856Y-68190880D01*
X104002081Y-68187606D01*
X104066091Y-68162034D01*
X104130792Y-68172153D01*
X104169308Y-68199000D01*
X104184975Y-68218024D01*
X104195820Y-68242988D01*
X104202712Y-68280834D01*
X104206521Y-68338502D01*
X104208117Y-68422935D01*
X104208385Y-68510928D01*
X104208437Y-68621323D01*
X104210328Y-68699463D01*
X104216655Y-68752165D01*
X104230017Y-68786242D01*
X104253015Y-68808511D01*
X104288246Y-68825787D01*
X104335303Y-68843738D01*
X104386697Y-68863278D01*
X104380579Y-68516485D01*
X104378116Y-68391468D01*
X104375233Y-68299082D01*
X104371102Y-68232881D01*
X104364893Y-68186420D01*
X104355774Y-68153256D01*
X104342917Y-68126944D01*
X104327416Y-68103729D01*
X104252629Y-68029569D01*
X104161372Y-67986684D01*
X104062117Y-67976412D01*
X103963336Y-68000089D01*
X103963336Y-68000089D01*
G37*
X103963336Y-68000089D02*
X103900633Y-68036358D01*
X103857039Y-68072358D01*
X103825155Y-68110075D01*
X103803190Y-68156199D01*
X103789351Y-68217421D01*
X103781847Y-68300431D01*
X103778883Y-68411919D01*
X103778539Y-68492062D01*
X103778539Y-68787065D01*
X103944615Y-68861515D01*
X103954385Y-68538402D01*
X103958421Y-68417729D01*
X103962656Y-68330141D01*
X103967903Y-68269650D01*
X103974975Y-68230268D01*
X103984689Y-68206007D01*
X103997856Y-68190880D01*
X104002081Y-68187606D01*
X104066091Y-68162034D01*
X104130792Y-68172153D01*
X104169308Y-68199000D01*
X104184975Y-68218024D01*
X104195820Y-68242988D01*
X104202712Y-68280834D01*
X104206521Y-68338502D01*
X104208117Y-68422935D01*
X104208385Y-68510928D01*
X104208437Y-68621323D01*
X104210328Y-68699463D01*
X104216655Y-68752165D01*
X104230017Y-68786242D01*
X104253015Y-68808511D01*
X104288246Y-68825787D01*
X104335303Y-68843738D01*
X104386697Y-68863278D01*
X104380579Y-68516485D01*
X104378116Y-68391468D01*
X104375233Y-68299082D01*
X104371102Y-68232881D01*
X104364893Y-68186420D01*
X104355774Y-68153256D01*
X104342917Y-68126944D01*
X104327416Y-68103729D01*
X104252629Y-68029569D01*
X104161372Y-67986684D01*
X104062117Y-67976412D01*
X103963336Y-68000089D01*
G36*
X106218114Y-67992256D02*
X106126536Y-68040409D01*
X106058951Y-68117905D01*
X106034943Y-68167727D01*
X106016262Y-68242533D01*
X106006699Y-68337052D01*
X106005792Y-68440210D01*
X106013079Y-68540935D01*
X106028097Y-68628153D01*
X106050385Y-68690791D01*
X106057235Y-68701579D01*
X106138368Y-68782105D01*
X106234734Y-68830336D01*
X106339299Y-68844450D01*
X106445032Y-68822629D01*
X106474457Y-68809547D01*
X106531759Y-68769231D01*
X106582050Y-68715775D01*
X106586803Y-68708995D01*
X106606122Y-68676321D01*
X106618892Y-68641394D01*
X106626436Y-68595414D01*
X106630076Y-68529584D01*
X106631135Y-68435105D01*
X106631154Y-68413923D01*
X106631106Y-68407182D01*
X106435769Y-68407182D01*
X106434632Y-68496349D01*
X106430159Y-68555520D01*
X106420754Y-68593741D01*
X106404824Y-68620053D01*
X106396692Y-68628846D01*
X106349942Y-68662261D01*
X106304553Y-68660737D01*
X106258660Y-68631752D01*
X106231288Y-68600809D01*
X106215077Y-68555643D01*
X106205974Y-68484420D01*
X106205349Y-68476114D01*
X106203796Y-68347037D01*
X106220035Y-68251172D01*
X106253848Y-68189107D01*
X106305016Y-68161432D01*
X106323280Y-68159923D01*
X106371240Y-68167513D01*
X106404047Y-68193808D01*
X106424105Y-68244095D01*
X106433822Y-68323664D01*
X106435769Y-68407182D01*
X106631106Y-68407182D01*
X106630426Y-68313249D01*
X106627371Y-68242906D01*
X106620678Y-68194163D01*
X106609040Y-68158288D01*
X106591147Y-68126548D01*
X106587192Y-68120648D01*
X106520733Y-68041104D01*
X106448315Y-67994929D01*
X106360151Y-67976599D01*
X106330213Y-67975703D01*
X106218114Y-67992256D01*
X106218114Y-67992256D01*
G37*
X106218114Y-67992256D02*
X106126536Y-68040409D01*
X106058951Y-68117905D01*
X106034943Y-68167727D01*
X106016262Y-68242533D01*
X106006699Y-68337052D01*
X106005792Y-68440210D01*
X106013079Y-68540935D01*
X106028097Y-68628153D01*
X106050385Y-68690791D01*
X106057235Y-68701579D01*
X106138368Y-68782105D01*
X106234734Y-68830336D01*
X106339299Y-68844450D01*
X106445032Y-68822629D01*
X106474457Y-68809547D01*
X106531759Y-68769231D01*
X106582050Y-68715775D01*
X106586803Y-68708995D01*
X106606122Y-68676321D01*
X106618892Y-68641394D01*
X106626436Y-68595414D01*
X106630076Y-68529584D01*
X106631135Y-68435105D01*
X106631154Y-68413923D01*
X106631106Y-68407182D01*
X106435769Y-68407182D01*
X106434632Y-68496349D01*
X106430159Y-68555520D01*
X106420754Y-68593741D01*
X106404824Y-68620053D01*
X106396692Y-68628846D01*
X106349942Y-68662261D01*
X106304553Y-68660737D01*
X106258660Y-68631752D01*
X106231288Y-68600809D01*
X106215077Y-68555643D01*
X106205974Y-68484420D01*
X106205349Y-68476114D01*
X106203796Y-68347037D01*
X106220035Y-68251172D01*
X106253848Y-68189107D01*
X106305016Y-68161432D01*
X106323280Y-68159923D01*
X106371240Y-68167513D01*
X106404047Y-68193808D01*
X106424105Y-68244095D01*
X106433822Y-68323664D01*
X106435769Y-68407182D01*
X106631106Y-68407182D01*
X106630426Y-68313249D01*
X106627371Y-68242906D01*
X106620678Y-68194163D01*
X106609040Y-68158288D01*
X106591147Y-68126548D01*
X106587192Y-68120648D01*
X106520733Y-68041104D01*
X106448315Y-67994929D01*
X106360151Y-67976599D01*
X106330213Y-67975703D01*
X106218114Y-67992256D01*
G36*
X104700746Y-68004745D02*
X104623714Y-68056567D01*
X104564184Y-68131412D01*
X104528622Y-68226654D01*
X104521429Y-68296756D01*
X104522246Y-68326009D01*
X104529086Y-68348407D01*
X104547888Y-68368474D01*
X104584592Y-68390733D01*
X104645138Y-68419709D01*
X104735466Y-68459927D01*
X104735923Y-68460129D01*
X104819067Y-68498210D01*
X104887247Y-68532025D01*
X104933495Y-68557933D01*
X104950842Y-68572295D01*
X104950846Y-68572411D01*
X104935557Y-68603685D01*
X104899804Y-68638157D01*
X104858758Y-68662990D01*
X104837963Y-68667923D01*
X104781230Y-68650862D01*
X104732373Y-68608133D01*
X104708535Y-68561155D01*
X104685603Y-68526522D01*
X104640682Y-68487081D01*
X104587877Y-68453009D01*
X104541290Y-68434480D01*
X104531548Y-68433462D01*
X104520582Y-68450215D01*
X104519921Y-68493039D01*
X104527980Y-68550781D01*
X104543173Y-68612289D01*
X104563914Y-68666409D01*
X104564962Y-68668510D01*
X104627379Y-68755660D01*
X104708274Y-68814939D01*
X104800144Y-68844034D01*
X104895487Y-68840634D01*
X104986802Y-68802428D01*
X104990862Y-68799741D01*
X105062694Y-68734642D01*
X105109927Y-68649705D01*
X105136066Y-68538021D01*
X105139574Y-68506643D01*
X105145787Y-68358536D01*
X105138339Y-68289468D01*
X104950846Y-68289468D01*
X104948410Y-68332552D01*
X104935086Y-68345126D01*
X104901868Y-68335719D01*
X104849506Y-68313483D01*
X104790976Y-68285610D01*
X104789521Y-68284872D01*
X104739911Y-68258777D01*
X104720000Y-68241363D01*
X104724910Y-68223107D01*
X104745584Y-68199120D01*
X104798181Y-68164406D01*
X104854823Y-68161856D01*
X104905631Y-68187119D01*
X104940724Y-68235847D01*
X104950846Y-68289468D01*
X105138339Y-68289468D01*
X105133008Y-68240036D01*
X105100222Y-68146055D01*
X105054579Y-68080215D01*
X104972198Y-68013681D01*
X104881454Y-67980676D01*
X104788815Y-67978573D01*
X104700746Y-68004745D01*
X104700746Y-68004745D01*
G37*
X104700746Y-68004745D02*
X104623714Y-68056567D01*
X104564184Y-68131412D01*
X104528622Y-68226654D01*
X104521429Y-68296756D01*
X104522246Y-68326009D01*
X104529086Y-68348407D01*
X104547888Y-68368474D01*
X104584592Y-68390733D01*
X104645138Y-68419709D01*
X104735466Y-68459927D01*
X104735923Y-68460129D01*
X104819067Y-68498210D01*
X104887247Y-68532025D01*
X104933495Y-68557933D01*
X104950842Y-68572295D01*
X104950846Y-68572411D01*
X104935557Y-68603685D01*
X104899804Y-68638157D01*
X104858758Y-68662990D01*
X104837963Y-68667923D01*
X104781230Y-68650862D01*
X104732373Y-68608133D01*
X104708535Y-68561155D01*
X104685603Y-68526522D01*
X104640682Y-68487081D01*
X104587877Y-68453009D01*
X104541290Y-68434480D01*
X104531548Y-68433462D01*
X104520582Y-68450215D01*
X104519921Y-68493039D01*
X104527980Y-68550781D01*
X104543173Y-68612289D01*
X104563914Y-68666409D01*
X104564962Y-68668510D01*
X104627379Y-68755660D01*
X104708274Y-68814939D01*
X104800144Y-68844034D01*
X104895487Y-68840634D01*
X104986802Y-68802428D01*
X104990862Y-68799741D01*
X105062694Y-68734642D01*
X105109927Y-68649705D01*
X105136066Y-68538021D01*
X105139574Y-68506643D01*
X105145787Y-68358536D01*
X105138339Y-68289468D01*
X104950846Y-68289468D01*
X104948410Y-68332552D01*
X104935086Y-68345126D01*
X104901868Y-68335719D01*
X104849506Y-68313483D01*
X104790976Y-68285610D01*
X104789521Y-68284872D01*
X104739911Y-68258777D01*
X104720000Y-68241363D01*
X104724910Y-68223107D01*
X104745584Y-68199120D01*
X104798181Y-68164406D01*
X104854823Y-68161856D01*
X104905631Y-68187119D01*
X104940724Y-68235847D01*
X104950846Y-68289468D01*
X105138339Y-68289468D01*
X105133008Y-68240036D01*
X105100222Y-68146055D01*
X105054579Y-68080215D01*
X104972198Y-68013681D01*
X104881454Y-67980676D01*
X104788815Y-67978573D01*
X104700746Y-68004745D01*
G36*
X103075154Y-67897120D02*
X103069428Y-67976980D01*
X103062851Y-68024039D01*
X103053738Y-68044566D01*
X103040402Y-68044829D01*
X103036077Y-68042378D01*
X102978556Y-68024636D01*
X102903732Y-68025672D01*
X102827661Y-68043910D01*
X102780082Y-68067505D01*
X102731298Y-68105198D01*
X102695636Y-68147855D01*
X102671155Y-68202057D01*
X102655913Y-68274384D01*
X102647970Y-68371419D01*
X102645384Y-68499742D01*
X102645338Y-68524358D01*
X102645308Y-68800870D01*
X102706839Y-68822320D01*
X102750541Y-68836912D01*
X102774518Y-68843706D01*
X102775223Y-68843769D01*
X102777585Y-68825345D01*
X102779594Y-68774526D01*
X102781099Y-68697993D01*
X102781947Y-68602430D01*
X102782077Y-68544329D01*
X102782349Y-68429771D01*
X102783748Y-68347667D01*
X102787151Y-68291393D01*
X102793433Y-68254326D01*
X102803471Y-68229844D01*
X102818139Y-68211325D01*
X102827298Y-68202406D01*
X102890211Y-68166466D01*
X102958864Y-68163775D01*
X103021152Y-68194170D01*
X103032671Y-68205144D01*
X103049567Y-68225779D01*
X103061286Y-68250256D01*
X103068767Y-68285647D01*
X103072946Y-68339026D01*
X103074763Y-68417466D01*
X103075154Y-68525617D01*
X103075154Y-68800870D01*
X103136685Y-68822320D01*
X103180387Y-68836912D01*
X103204364Y-68843706D01*
X103205070Y-68843769D01*
X103206874Y-68825069D01*
X103208500Y-68772322D01*
X103209883Y-68690557D01*
X103210958Y-68584805D01*
X103211660Y-68460094D01*
X103211923Y-68321455D01*
X103211923Y-67786806D01*
X103084923Y-67733236D01*
X103075154Y-67897120D01*
X103075154Y-67897120D01*
G37*
X103075154Y-67897120D02*
X103069428Y-67976980D01*
X103062851Y-68024039D01*
X103053738Y-68044566D01*
X103040402Y-68044829D01*
X103036077Y-68042378D01*
X102978556Y-68024636D01*
X102903732Y-68025672D01*
X102827661Y-68043910D01*
X102780082Y-68067505D01*
X102731298Y-68105198D01*
X102695636Y-68147855D01*
X102671155Y-68202057D01*
X102655913Y-68274384D01*
X102647970Y-68371419D01*
X102645384Y-68499742D01*
X102645338Y-68524358D01*
X102645308Y-68800870D01*
X102706839Y-68822320D01*
X102750541Y-68836912D01*
X102774518Y-68843706D01*
X102775223Y-68843769D01*
X102777585Y-68825345D01*
X102779594Y-68774526D01*
X102781099Y-68697993D01*
X102781947Y-68602430D01*
X102782077Y-68544329D01*
X102782349Y-68429771D01*
X102783748Y-68347667D01*
X102787151Y-68291393D01*
X102793433Y-68254326D01*
X102803471Y-68229844D01*
X102818139Y-68211325D01*
X102827298Y-68202406D01*
X102890211Y-68166466D01*
X102958864Y-68163775D01*
X103021152Y-68194170D01*
X103032671Y-68205144D01*
X103049567Y-68225779D01*
X103061286Y-68250256D01*
X103068767Y-68285647D01*
X103072946Y-68339026D01*
X103074763Y-68417466D01*
X103075154Y-68525617D01*
X103075154Y-68800870D01*
X103136685Y-68822320D01*
X103180387Y-68836912D01*
X103204364Y-68843706D01*
X103205070Y-68843769D01*
X103206874Y-68825069D01*
X103208500Y-68772322D01*
X103209883Y-68690557D01*
X103210958Y-68584805D01*
X103211660Y-68460094D01*
X103211923Y-68321455D01*
X103211923Y-67786806D01*
X103084923Y-67733236D01*
X103075154Y-67897120D01*
G36*
X102181499Y-68031303D02*
X102104940Y-68059733D01*
X102104064Y-68060279D01*
X102056715Y-68095127D01*
X102021759Y-68135852D01*
X101997175Y-68188925D01*
X101980938Y-68260814D01*
X101971025Y-68357992D01*
X101965414Y-68486928D01*
X101964923Y-68505298D01*
X101957859Y-68782287D01*
X102017305Y-68813028D01*
X102060319Y-68833802D01*
X102086290Y-68843646D01*
X102087491Y-68843769D01*
X102091986Y-68825606D01*
X102095556Y-68776612D01*
X102097752Y-68705031D01*
X102098231Y-68647068D01*
X102098242Y-68553170D01*
X102102534Y-68494203D01*
X102117497Y-68466079D01*
X102149518Y-68464706D01*
X102204986Y-68485998D01*
X102288731Y-68525136D01*
X102350311Y-68557643D01*
X102381983Y-68585845D01*
X102391294Y-68616582D01*
X102391308Y-68618104D01*
X102375943Y-68671054D01*
X102330453Y-68699660D01*
X102260834Y-68703803D01*
X102210687Y-68703084D01*
X102184246Y-68717527D01*
X102167757Y-68752218D01*
X102158267Y-68796416D01*
X102171943Y-68821493D01*
X102177093Y-68825082D01*
X102225575Y-68839496D01*
X102293469Y-68841537D01*
X102363388Y-68831983D01*
X102412932Y-68814522D01*
X102481430Y-68756364D01*
X102520366Y-68675408D01*
X102528077Y-68612160D01*
X102522193Y-68555111D01*
X102500899Y-68508542D01*
X102458735Y-68467181D01*
X102390241Y-68425755D01*
X102289956Y-68378993D01*
X102283846Y-68376350D01*
X102193510Y-68334617D01*
X102137765Y-68300391D01*
X102113871Y-68269635D01*
X102119087Y-68238311D01*
X102150672Y-68202383D01*
X102160117Y-68194116D01*
X102223383Y-68162058D01*
X102288936Y-68163407D01*
X102346028Y-68194838D01*
X102383907Y-68253024D01*
X102387426Y-68264446D01*
X102421700Y-68319837D01*
X102465191Y-68346518D01*
X102528077Y-68372960D01*
X102528077Y-68304548D01*
X102508948Y-68205110D01*
X102452169Y-68113902D01*
X102422622Y-68083389D01*
X102355458Y-68044228D01*
X102270044Y-68026500D01*
X102181499Y-68031303D01*
X102181499Y-68031303D01*
G37*
X102181499Y-68031303D02*
X102104940Y-68059733D01*
X102104064Y-68060279D01*
X102056715Y-68095127D01*
X102021759Y-68135852D01*
X101997175Y-68188925D01*
X101980938Y-68260814D01*
X101971025Y-68357992D01*
X101965414Y-68486928D01*
X101964923Y-68505298D01*
X101957859Y-68782287D01*
X102017305Y-68813028D01*
X102060319Y-68833802D01*
X102086290Y-68843646D01*
X102087491Y-68843769D01*
X102091986Y-68825606D01*
X102095556Y-68776612D01*
X102097752Y-68705031D01*
X102098231Y-68647068D01*
X102098242Y-68553170D01*
X102102534Y-68494203D01*
X102117497Y-68466079D01*
X102149518Y-68464706D01*
X102204986Y-68485998D01*
X102288731Y-68525136D01*
X102350311Y-68557643D01*
X102381983Y-68585845D01*
X102391294Y-68616582D01*
X102391308Y-68618104D01*
X102375943Y-68671054D01*
X102330453Y-68699660D01*
X102260834Y-68703803D01*
X102210687Y-68703084D01*
X102184246Y-68717527D01*
X102167757Y-68752218D01*
X102158267Y-68796416D01*
X102171943Y-68821493D01*
X102177093Y-68825082D01*
X102225575Y-68839496D01*
X102293469Y-68841537D01*
X102363388Y-68831983D01*
X102412932Y-68814522D01*
X102481430Y-68756364D01*
X102520366Y-68675408D01*
X102528077Y-68612160D01*
X102522193Y-68555111D01*
X102500899Y-68508542D01*
X102458735Y-68467181D01*
X102390241Y-68425755D01*
X102289956Y-68378993D01*
X102283846Y-68376350D01*
X102193510Y-68334617D01*
X102137765Y-68300391D01*
X102113871Y-68269635D01*
X102119087Y-68238311D01*
X102150672Y-68202383D01*
X102160117Y-68194116D01*
X102223383Y-68162058D01*
X102288936Y-68163407D01*
X102346028Y-68194838D01*
X102383907Y-68253024D01*
X102387426Y-68264446D01*
X102421700Y-68319837D01*
X102465191Y-68346518D01*
X102528077Y-68372960D01*
X102528077Y-68304548D01*
X102508948Y-68205110D01*
X102452169Y-68113902D01*
X102422622Y-68083389D01*
X102355458Y-68044228D01*
X102270044Y-68026500D01*
X102181499Y-68031303D01*
G36*
X101521638Y-68029670D02*
X101432883Y-68062421D01*
X101360978Y-68120350D01*
X101332856Y-68161128D01*
X101302198Y-68235954D01*
X101302835Y-68290058D01*
X101335013Y-68326446D01*
X101346919Y-68332633D01*
X101398325Y-68351925D01*
X101424578Y-68346982D01*
X101433470Y-68314587D01*
X101433923Y-68296692D01*
X101450203Y-68230859D01*
X101492635Y-68184807D01*
X101551612Y-68162564D01*
X101617525Y-68168161D01*
X101671105Y-68197229D01*
X101689202Y-68213810D01*
X101702029Y-68233925D01*
X101710694Y-68264332D01*
X101716304Y-68311788D01*
X101719965Y-68383050D01*
X101722785Y-68484875D01*
X101723516Y-68517115D01*
X101726180Y-68627410D01*
X101729208Y-68705036D01*
X101733750Y-68756396D01*
X101740954Y-68787890D01*
X101751967Y-68805920D01*
X101767940Y-68816888D01*
X101778166Y-68821733D01*
X101821594Y-68838301D01*
X101847158Y-68843769D01*
X101855605Y-68825507D01*
X101860761Y-68770296D01*
X101862654Y-68677499D01*
X101861311Y-68546478D01*
X101860893Y-68526269D01*
X101857942Y-68406733D01*
X101854452Y-68319449D01*
X101849486Y-68257591D01*
X101842107Y-68214336D01*
X101831376Y-68182860D01*
X101816355Y-68156339D01*
X101808498Y-68144975D01*
X101763447Y-68094692D01*
X101713060Y-68055581D01*
X101706892Y-68052167D01*
X101616542Y-68025212D01*
X101521638Y-68029670D01*
X101521638Y-68029670D01*
G37*
X101521638Y-68029670D02*
X101432883Y-68062421D01*
X101360978Y-68120350D01*
X101332856Y-68161128D01*
X101302198Y-68235954D01*
X101302835Y-68290058D01*
X101335013Y-68326446D01*
X101346919Y-68332633D01*
X101398325Y-68351925D01*
X101424578Y-68346982D01*
X101433470Y-68314587D01*
X101433923Y-68296692D01*
X101450203Y-68230859D01*
X101492635Y-68184807D01*
X101551612Y-68162564D01*
X101617525Y-68168161D01*
X101671105Y-68197229D01*
X101689202Y-68213810D01*
X101702029Y-68233925D01*
X101710694Y-68264332D01*
X101716304Y-68311788D01*
X101719965Y-68383050D01*
X101722785Y-68484875D01*
X101723516Y-68517115D01*
X101726180Y-68627410D01*
X101729208Y-68705036D01*
X101733750Y-68756396D01*
X101740954Y-68787890D01*
X101751967Y-68805920D01*
X101767940Y-68816888D01*
X101778166Y-68821733D01*
X101821594Y-68838301D01*
X101847158Y-68843769D01*
X101855605Y-68825507D01*
X101860761Y-68770296D01*
X101862654Y-68677499D01*
X101861311Y-68546478D01*
X101860893Y-68526269D01*
X101857942Y-68406733D01*
X101854452Y-68319449D01*
X101849486Y-68257591D01*
X101842107Y-68214336D01*
X101831376Y-68182860D01*
X101816355Y-68156339D01*
X101808498Y-68144975D01*
X101763447Y-68094692D01*
X101713060Y-68055581D01*
X101706892Y-68052167D01*
X101616542Y-68025212D01*
X101521638Y-68029670D01*
G36*
X100632919Y-68185289D02*
X100633167Y-68331320D01*
X100634128Y-68443655D01*
X100636206Y-68527678D01*
X100639807Y-68588769D01*
X100645335Y-68632309D01*
X100653196Y-68663679D01*
X100663793Y-68688262D01*
X100671818Y-68702294D01*
X100738272Y-68778388D01*
X100822530Y-68826084D01*
X100915751Y-68843199D01*
X101009100Y-68827546D01*
X101064688Y-68799418D01*
X101123043Y-68750760D01*
X101162814Y-68691333D01*
X101186810Y-68613507D01*
X101197839Y-68509652D01*
X101199401Y-68433462D01*
X101199191Y-68427986D01*
X101062692Y-68427986D01*
X101061859Y-68515355D01*
X101058039Y-68573192D01*
X101049254Y-68611029D01*
X101033526Y-68638398D01*
X101014734Y-68659042D01*
X100951625Y-68698890D01*
X100883863Y-68702295D01*
X100819821Y-68669025D01*
X100814836Y-68664517D01*
X100793561Y-68641067D01*
X100780221Y-68613166D01*
X100772999Y-68571641D01*
X100770077Y-68507316D01*
X100769615Y-68436200D01*
X100770617Y-68346858D01*
X100774762Y-68287258D01*
X100783764Y-68248089D01*
X100799333Y-68220040D01*
X100812098Y-68205144D01*
X100871400Y-68167575D01*
X100939699Y-68163057D01*
X101004890Y-68191753D01*
X101017472Y-68202406D01*
X101038889Y-68226063D01*
X101052256Y-68254251D01*
X101059434Y-68296245D01*
X101062281Y-68361319D01*
X101062692Y-68427986D01*
X101199191Y-68427986D01*
X101194678Y-68310765D01*
X101178638Y-68218577D01*
X101148472Y-68149269D01*
X101101371Y-68095211D01*
X101064688Y-68067505D01*
X100998010Y-68037572D01*
X100920728Y-68023678D01*
X100848890Y-68027397D01*
X100808692Y-68042400D01*
X100792918Y-68046670D01*
X100782450Y-68030750D01*
X100775144Y-67988089D01*
X100769615Y-67923106D01*
X100763563Y-67850732D01*
X100755156Y-67807187D01*
X100739859Y-67782287D01*
X100713136Y-67765845D01*
X100696346Y-67758564D01*
X100632846Y-67731963D01*
X100632919Y-68185289D01*
X100632919Y-68185289D01*
G37*
X100632919Y-68185289D02*
X100633167Y-68331320D01*
X100634128Y-68443655D01*
X100636206Y-68527678D01*
X100639807Y-68588769D01*
X100645335Y-68632309D01*
X100653196Y-68663679D01*
X100663793Y-68688262D01*
X100671818Y-68702294D01*
X100738272Y-68778388D01*
X100822530Y-68826084D01*
X100915751Y-68843199D01*
X101009100Y-68827546D01*
X101064688Y-68799418D01*
X101123043Y-68750760D01*
X101162814Y-68691333D01*
X101186810Y-68613507D01*
X101197839Y-68509652D01*
X101199401Y-68433462D01*
X101199191Y-68427986D01*
X101062692Y-68427986D01*
X101061859Y-68515355D01*
X101058039Y-68573192D01*
X101049254Y-68611029D01*
X101033526Y-68638398D01*
X101014734Y-68659042D01*
X100951625Y-68698890D01*
X100883863Y-68702295D01*
X100819821Y-68669025D01*
X100814836Y-68664517D01*
X100793561Y-68641067D01*
X100780221Y-68613166D01*
X100772999Y-68571641D01*
X100770077Y-68507316D01*
X100769615Y-68436200D01*
X100770617Y-68346858D01*
X100774762Y-68287258D01*
X100783764Y-68248089D01*
X100799333Y-68220040D01*
X100812098Y-68205144D01*
X100871400Y-68167575D01*
X100939699Y-68163057D01*
X101004890Y-68191753D01*
X101017472Y-68202406D01*
X101038889Y-68226063D01*
X101052256Y-68254251D01*
X101059434Y-68296245D01*
X101062281Y-68361319D01*
X101062692Y-68427986D01*
X101199191Y-68427986D01*
X101194678Y-68310765D01*
X101178638Y-68218577D01*
X101148472Y-68149269D01*
X101101371Y-68095211D01*
X101064688Y-68067505D01*
X100998010Y-68037572D01*
X100920728Y-68023678D01*
X100848890Y-68027397D01*
X100808692Y-68042400D01*
X100792918Y-68046670D01*
X100782450Y-68030750D01*
X100775144Y-67988089D01*
X100769615Y-67923106D01*
X100763563Y-67850732D01*
X100755156Y-67807187D01*
X100739859Y-67782287D01*
X100713136Y-67765845D01*
X100696346Y-67758564D01*
X100632846Y-67731963D01*
X100632919Y-68185289D01*
G36*
X99839071Y-68041662D02*
X99836089Y-68093068D01*
X99833753Y-68171192D01*
X99832251Y-68269857D01*
X99831769Y-68373343D01*
X99831769Y-68723533D01*
X99893599Y-68785363D01*
X99936207Y-68823462D01*
X99973610Y-68838895D01*
X100024730Y-68837918D01*
X100045022Y-68835433D01*
X100108446Y-68828200D01*
X100160905Y-68824055D01*
X100173692Y-68823672D01*
X100216801Y-68826176D01*
X100278456Y-68832462D01*
X100302362Y-68835433D01*
X100361078Y-68840028D01*
X100400536Y-68830046D01*
X100439662Y-68799228D01*
X100453785Y-68785363D01*
X100515615Y-68723533D01*
X100515615Y-68068503D01*
X100465850Y-68045829D01*
X100422998Y-68029034D01*
X100397927Y-68023154D01*
X100391499Y-68041736D01*
X100385491Y-68093655D01*
X100380303Y-68173172D01*
X100376336Y-68274546D01*
X100374423Y-68360192D01*
X100369077Y-68697231D01*
X100322440Y-68703825D01*
X100280024Y-68699214D01*
X100259240Y-68684287D01*
X100253430Y-68656377D01*
X100248470Y-68596925D01*
X100244754Y-68513466D01*
X100242676Y-68413532D01*
X100242376Y-68362104D01*
X100242077Y-68066054D01*
X100180546Y-68044604D01*
X100136996Y-68030020D01*
X100113306Y-68023219D01*
X100112623Y-68023154D01*
X100110246Y-68041642D01*
X100107634Y-68092906D01*
X100105005Y-68170649D01*
X100102579Y-68268574D01*
X100100885Y-68360192D01*
X100095539Y-68697231D01*
X99978308Y-68697231D01*
X99972928Y-68389746D01*
X99967549Y-68082261D01*
X99910399Y-68052707D01*
X99868203Y-68032413D01*
X99843230Y-68023204D01*
X99842509Y-68023154D01*
X99839071Y-68041662D01*
X99839071Y-68041662D01*
G37*
X99839071Y-68041662D02*
X99836089Y-68093068D01*
X99833753Y-68171192D01*
X99832251Y-68269857D01*
X99831769Y-68373343D01*
X99831769Y-68723533D01*
X99893599Y-68785363D01*
X99936207Y-68823462D01*
X99973610Y-68838895D01*
X100024730Y-68837918D01*
X100045022Y-68835433D01*
X100108446Y-68828200D01*
X100160905Y-68824055D01*
X100173692Y-68823672D01*
X100216801Y-68826176D01*
X100278456Y-68832462D01*
X100302362Y-68835433D01*
X100361078Y-68840028D01*
X100400536Y-68830046D01*
X100439662Y-68799228D01*
X100453785Y-68785363D01*
X100515615Y-68723533D01*
X100515615Y-68068503D01*
X100465850Y-68045829D01*
X100422998Y-68029034D01*
X100397927Y-68023154D01*
X100391499Y-68041736D01*
X100385491Y-68093655D01*
X100380303Y-68173172D01*
X100376336Y-68274546D01*
X100374423Y-68360192D01*
X100369077Y-68697231D01*
X100322440Y-68703825D01*
X100280024Y-68699214D01*
X100259240Y-68684287D01*
X100253430Y-68656377D01*
X100248470Y-68596925D01*
X100244754Y-68513466D01*
X100242676Y-68413532D01*
X100242376Y-68362104D01*
X100242077Y-68066054D01*
X100180546Y-68044604D01*
X100136996Y-68030020D01*
X100113306Y-68023219D01*
X100112623Y-68023154D01*
X100110246Y-68041642D01*
X100107634Y-68092906D01*
X100105005Y-68170649D01*
X100102579Y-68268574D01*
X100100885Y-68360192D01*
X100095539Y-68697231D01*
X99978308Y-68697231D01*
X99972928Y-68389746D01*
X99967549Y-68082261D01*
X99910399Y-68052707D01*
X99868203Y-68032413D01*
X99843230Y-68023204D01*
X99842509Y-68023154D01*
X99839071Y-68041662D01*
G36*
X99347667Y-68038528D02*
X99291410Y-68064117D01*
X99247253Y-68095124D01*
X99214899Y-68129795D01*
X99192562Y-68174520D01*
X99178454Y-68235692D01*
X99170789Y-68319701D01*
X99167780Y-68432940D01*
X99167462Y-68507509D01*
X99167462Y-68798420D01*
X99217227Y-68821095D01*
X99256424Y-68837667D01*
X99275843Y-68843769D01*
X99279558Y-68825610D01*
X99282505Y-68776648D01*
X99284309Y-68705153D01*
X99284692Y-68648385D01*
X99286339Y-68566371D01*
X99290778Y-68501309D01*
X99297260Y-68461467D01*
X99302410Y-68453000D01*
X99337023Y-68461646D01*
X99391360Y-68483823D01*
X99454278Y-68513886D01*
X99514632Y-68546192D01*
X99561279Y-68575098D01*
X99583074Y-68594961D01*
X99583161Y-68595175D01*
X99581286Y-68631935D01*
X99564475Y-68667026D01*
X99534961Y-68695528D01*
X99491884Y-68705061D01*
X99455068Y-68703950D01*
X99402926Y-68703133D01*
X99375556Y-68715349D01*
X99359118Y-68747624D01*
X99357045Y-68753710D01*
X99349919Y-68799739D01*
X99368976Y-68827687D01*
X99418647Y-68841007D01*
X99472303Y-68843470D01*
X99568858Y-68825210D01*
X99618841Y-68799131D01*
X99680571Y-68737868D01*
X99713310Y-68662670D01*
X99716247Y-68583211D01*
X99688576Y-68509167D01*
X99646953Y-68462769D01*
X99605396Y-68436793D01*
X99540078Y-68403907D01*
X99463962Y-68370557D01*
X99451274Y-68365461D01*
X99367667Y-68328565D01*
X99319470Y-68296046D01*
X99303970Y-68263718D01*
X99318450Y-68227394D01*
X99343308Y-68199000D01*
X99402061Y-68164039D01*
X99466707Y-68161417D01*
X99525992Y-68188358D01*
X99568661Y-68242088D01*
X99574261Y-68255950D01*
X99606867Y-68306936D01*
X99654470Y-68344787D01*
X99714539Y-68375850D01*
X99714539Y-68287768D01*
X99711003Y-68233951D01*
X99695844Y-68191534D01*
X99662232Y-68146279D01*
X99629965Y-68111420D01*
X99579791Y-68062062D01*
X99540807Y-68035547D01*
X99498936Y-68024911D01*
X99451540Y-68023154D01*
X99347667Y-68038528D01*
X99347667Y-68038528D01*
G37*
X99347667Y-68038528D02*
X99291410Y-68064117D01*
X99247253Y-68095124D01*
X99214899Y-68129795D01*
X99192562Y-68174520D01*
X99178454Y-68235692D01*
X99170789Y-68319701D01*
X99167780Y-68432940D01*
X99167462Y-68507509D01*
X99167462Y-68798420D01*
X99217227Y-68821095D01*
X99256424Y-68837667D01*
X99275843Y-68843769D01*
X99279558Y-68825610D01*
X99282505Y-68776648D01*
X99284309Y-68705153D01*
X99284692Y-68648385D01*
X99286339Y-68566371D01*
X99290778Y-68501309D01*
X99297260Y-68461467D01*
X99302410Y-68453000D01*
X99337023Y-68461646D01*
X99391360Y-68483823D01*
X99454278Y-68513886D01*
X99514632Y-68546192D01*
X99561279Y-68575098D01*
X99583074Y-68594961D01*
X99583161Y-68595175D01*
X99581286Y-68631935D01*
X99564475Y-68667026D01*
X99534961Y-68695528D01*
X99491884Y-68705061D01*
X99455068Y-68703950D01*
X99402926Y-68703133D01*
X99375556Y-68715349D01*
X99359118Y-68747624D01*
X99357045Y-68753710D01*
X99349919Y-68799739D01*
X99368976Y-68827687D01*
X99418647Y-68841007D01*
X99472303Y-68843470D01*
X99568858Y-68825210D01*
X99618841Y-68799131D01*
X99680571Y-68737868D01*
X99713310Y-68662670D01*
X99716247Y-68583211D01*
X99688576Y-68509167D01*
X99646953Y-68462769D01*
X99605396Y-68436793D01*
X99540078Y-68403907D01*
X99463962Y-68370557D01*
X99451274Y-68365461D01*
X99367667Y-68328565D01*
X99319470Y-68296046D01*
X99303970Y-68263718D01*
X99318450Y-68227394D01*
X99343308Y-68199000D01*
X99402061Y-68164039D01*
X99466707Y-68161417D01*
X99525992Y-68188358D01*
X99568661Y-68242088D01*
X99574261Y-68255950D01*
X99606867Y-68306936D01*
X99654470Y-68344787D01*
X99714539Y-68375850D01*
X99714539Y-68287768D01*
X99711003Y-68233951D01*
X99695844Y-68191534D01*
X99662232Y-68146279D01*
X99629965Y-68111420D01*
X99579791Y-68062062D01*
X99540807Y-68035547D01*
X99498936Y-68024911D01*
X99451540Y-68023154D01*
X99347667Y-68038528D01*
G36*
X98664193Y-68041782D02*
X98640839Y-68051988D01*
X98585098Y-68096134D01*
X98537431Y-68159967D01*
X98507952Y-68228087D01*
X98503154Y-68261670D01*
X98519240Y-68308556D01*
X98554525Y-68333365D01*
X98592356Y-68348387D01*
X98609679Y-68351155D01*
X98618114Y-68331066D01*
X98634770Y-68287351D01*
X98642077Y-68267598D01*
X98683052Y-68199271D01*
X98742378Y-68165191D01*
X98818448Y-68166239D01*
X98824082Y-68167581D01*
X98864695Y-68186836D01*
X98894552Y-68224375D01*
X98914945Y-68284809D01*
X98927164Y-68372751D01*
X98932500Y-68492813D01*
X98933000Y-68556698D01*
X98933248Y-68657403D01*
X98934874Y-68726054D01*
X98939199Y-68769673D01*
X98947546Y-68795282D01*
X98961235Y-68809903D01*
X98981589Y-68820558D01*
X98982766Y-68821095D01*
X99021962Y-68837667D01*
X99041381Y-68843769D01*
X99044365Y-68825319D01*
X99046919Y-68774323D01*
X99048860Y-68697308D01*
X99050003Y-68600805D01*
X99050231Y-68530184D01*
X99049068Y-68393525D01*
X99044521Y-68289851D01*
X99035001Y-68213108D01*
X99018919Y-68157246D01*
X98994687Y-68116212D01*
X98960714Y-68083954D01*
X98927167Y-68061440D01*
X98846501Y-68031476D01*
X98752619Y-68024718D01*
X98664193Y-68041782D01*
X98664193Y-68041782D01*
G37*
X98664193Y-68041782D02*
X98640839Y-68051988D01*
X98585098Y-68096134D01*
X98537431Y-68159967D01*
X98507952Y-68228087D01*
X98503154Y-68261670D01*
X98519240Y-68308556D01*
X98554525Y-68333365D01*
X98592356Y-68348387D01*
X98609679Y-68351155D01*
X98618114Y-68331066D01*
X98634770Y-68287351D01*
X98642077Y-68267598D01*
X98683052Y-68199271D01*
X98742378Y-68165191D01*
X98818448Y-68166239D01*
X98824082Y-68167581D01*
X98864695Y-68186836D01*
X98894552Y-68224375D01*
X98914945Y-68284809D01*
X98927164Y-68372751D01*
X98932500Y-68492813D01*
X98933000Y-68556698D01*
X98933248Y-68657403D01*
X98934874Y-68726054D01*
X98939199Y-68769673D01*
X98947546Y-68795282D01*
X98961235Y-68809903D01*
X98981589Y-68820558D01*
X98982766Y-68821095D01*
X99021962Y-68837667D01*
X99041381Y-68843769D01*
X99044365Y-68825319D01*
X99046919Y-68774323D01*
X99048860Y-68697308D01*
X99050003Y-68600805D01*
X99050231Y-68530184D01*
X99049068Y-68393525D01*
X99044521Y-68289851D01*
X99035001Y-68213108D01*
X99018919Y-68157246D01*
X98994687Y-68116212D01*
X98960714Y-68083954D01*
X98927167Y-68061440D01*
X98846501Y-68031476D01*
X98752619Y-68024718D01*
X98664193Y-68041782D01*
G36*
X97989776Y-68052838D02*
X97912472Y-68103361D01*
X97875186Y-68148590D01*
X97845647Y-68230663D01*
X97843301Y-68295607D01*
X97848615Y-68382445D01*
X98048885Y-68470103D01*
X98146261Y-68514887D01*
X98209887Y-68550913D01*
X98242971Y-68582117D01*
X98248720Y-68612436D01*
X98230342Y-68645805D01*
X98210077Y-68667923D01*
X98151111Y-68703393D01*
X98086976Y-68705879D01*
X98028074Y-68678235D01*
X97984803Y-68623320D01*
X97977064Y-68603928D01*
X97939994Y-68543364D01*
X97897346Y-68517552D01*
X97838846Y-68495471D01*
X97838846Y-68579184D01*
X97844018Y-68636150D01*
X97864277Y-68684189D01*
X97906738Y-68739346D01*
X97913049Y-68746514D01*
X97960280Y-68795585D01*
X98000879Y-68821920D01*
X98051672Y-68834035D01*
X98093780Y-68838003D01*
X98169098Y-68838991D01*
X98222714Y-68826466D01*
X98256162Y-68807869D01*
X98308732Y-68766975D01*
X98345121Y-68722748D01*
X98368150Y-68667126D01*
X98380641Y-68592047D01*
X98385413Y-68489449D01*
X98385794Y-68437376D01*
X98384499Y-68374948D01*
X98266529Y-68374948D01*
X98265161Y-68408438D01*
X98261751Y-68413923D01*
X98239247Y-68406472D01*
X98190818Y-68386753D01*
X98126092Y-68358718D01*
X98112557Y-68352692D01*
X98030756Y-68311096D01*
X97985688Y-68274538D01*
X97975783Y-68240296D01*
X97999474Y-68205648D01*
X98019040Y-68190339D01*
X98089640Y-68159721D01*
X98155720Y-68164780D01*
X98211041Y-68202151D01*
X98249364Y-68268473D01*
X98261651Y-68321116D01*
X98266529Y-68374948D01*
X98384499Y-68374948D01*
X98383270Y-68315720D01*
X98373968Y-68225710D01*
X98355540Y-68160167D01*
X98325640Y-68111912D01*
X98281920Y-68073767D01*
X98262859Y-68061440D01*
X98176274Y-68029336D01*
X98081478Y-68027316D01*
X97989776Y-68052838D01*
X97989776Y-68052838D01*
G37*
X97989776Y-68052838D02*
X97912472Y-68103361D01*
X97875186Y-68148590D01*
X97845647Y-68230663D01*
X97843301Y-68295607D01*
X97848615Y-68382445D01*
X98048885Y-68470103D01*
X98146261Y-68514887D01*
X98209887Y-68550913D01*
X98242971Y-68582117D01*
X98248720Y-68612436D01*
X98230342Y-68645805D01*
X98210077Y-68667923D01*
X98151111Y-68703393D01*
X98086976Y-68705879D01*
X98028074Y-68678235D01*
X97984803Y-68623320D01*
X97977064Y-68603928D01*
X97939994Y-68543364D01*
X97897346Y-68517552D01*
X97838846Y-68495471D01*
X97838846Y-68579184D01*
X97844018Y-68636150D01*
X97864277Y-68684189D01*
X97906738Y-68739346D01*
X97913049Y-68746514D01*
X97960280Y-68795585D01*
X98000879Y-68821920D01*
X98051672Y-68834035D01*
X98093780Y-68838003D01*
X98169098Y-68838991D01*
X98222714Y-68826466D01*
X98256162Y-68807869D01*
X98308732Y-68766975D01*
X98345121Y-68722748D01*
X98368150Y-68667126D01*
X98380641Y-68592047D01*
X98385413Y-68489449D01*
X98385794Y-68437376D01*
X98384499Y-68374948D01*
X98266529Y-68374948D01*
X98265161Y-68408438D01*
X98261751Y-68413923D01*
X98239247Y-68406472D01*
X98190818Y-68386753D01*
X98126092Y-68358718D01*
X98112557Y-68352692D01*
X98030756Y-68311096D01*
X97985688Y-68274538D01*
X97975783Y-68240296D01*
X97999474Y-68205648D01*
X98019040Y-68190339D01*
X98089640Y-68159721D01*
X98155720Y-68164780D01*
X98211041Y-68202151D01*
X98249364Y-68268473D01*
X98261651Y-68321116D01*
X98266529Y-68374948D01*
X98384499Y-68374948D01*
X98383270Y-68315720D01*
X98373968Y-68225710D01*
X98355540Y-68160167D01*
X98325640Y-68111912D01*
X98281920Y-68073767D01*
X98262859Y-68061440D01*
X98176274Y-68029336D01*
X98081478Y-68027316D01*
X97989776Y-68052838D01*
G36*
X102095122Y-61692776D02*
X101989388Y-61693355D01*
X101912868Y-61694922D01*
X101860628Y-61697972D01*
X101827737Y-61702996D01*
X101809263Y-61710489D01*
X101800273Y-61720944D01*
X101795837Y-61734853D01*
X101795406Y-61736654D01*
X101788667Y-61769145D01*
X101776192Y-61833252D01*
X101759281Y-61922151D01*
X101739229Y-62029019D01*
X101717336Y-62147033D01*
X101716571Y-62151178D01*
X101694641Y-62266831D01*
X101674123Y-62369014D01*
X101656341Y-62451598D01*
X101642619Y-62508456D01*
X101634282Y-62533458D01*
X101633884Y-62533901D01*
X101609323Y-62546110D01*
X101558685Y-62566456D01*
X101492905Y-62590545D01*
X101492539Y-62590674D01*
X101409683Y-62621818D01*
X101312000Y-62661491D01*
X101219923Y-62701381D01*
X101215566Y-62703353D01*
X101065593Y-62771420D01*
X100733502Y-62544639D01*
X100631626Y-62475504D01*
X100539343Y-62413697D01*
X100461997Y-62362733D01*
X100404936Y-62326127D01*
X100373505Y-62307394D01*
X100370521Y-62306004D01*
X100347679Y-62312190D01*
X100305018Y-62342035D01*
X100240872Y-62396947D01*
X100153579Y-62478334D01*
X100064465Y-62564922D01*
X99978559Y-62650247D01*
X99901673Y-62728108D01*
X99838436Y-62793697D01*
X99793477Y-62842205D01*
X99771424Y-62868825D01*
X99770604Y-62870195D01*
X99768166Y-62888463D01*
X99777350Y-62918295D01*
X99800426Y-62963721D01*
X99839663Y-63028770D01*
X99897330Y-63117470D01*
X99974205Y-63231657D01*
X100042430Y-63332162D01*
X100103418Y-63422303D01*
X100153644Y-63496849D01*
X100189584Y-63550565D01*
X100207713Y-63578218D01*
X100208854Y-63580095D01*
X100206641Y-63606590D01*
X100189862Y-63658086D01*
X100161858Y-63724851D01*
X100151878Y-63746172D01*
X100108328Y-63841159D01*
X100061866Y-63948937D01*
X100024123Y-64042192D01*
X99996927Y-64111406D01*
X99975325Y-64164006D01*
X99962842Y-64191497D01*
X99961291Y-64193616D01*
X99938332Y-64197124D01*
X99884214Y-64206738D01*
X99806132Y-64221089D01*
X99711281Y-64238807D01*
X99606857Y-64258525D01*
X99500056Y-64278874D01*
X99398074Y-64298486D01*
X99308106Y-64315991D01*
X99237347Y-64330022D01*
X99192994Y-64339209D01*
X99182115Y-64341807D01*
X99170878Y-64348218D01*
X99162395Y-64362697D01*
X99156286Y-64390133D01*
X99152168Y-64435411D01*
X99149659Y-64503420D01*
X99148379Y-64599047D01*
X99147946Y-64727180D01*
X99147923Y-64779701D01*
X99147923Y-65206845D01*
X99250500Y-65227091D01*
X99307569Y-65238070D01*
X99392731Y-65254095D01*
X99495628Y-65273233D01*
X99605904Y-65293551D01*
X99636385Y-65299132D01*
X99738145Y-65318917D01*
X99826795Y-65338373D01*
X99894892Y-65355697D01*
X99934996Y-65369088D01*
X99941677Y-65373079D01*
X99958081Y-65401342D01*
X99981601Y-65456109D01*
X100007684Y-65526588D01*
X100012858Y-65541769D01*
X100047044Y-65635896D01*
X100089477Y-65742101D01*
X100131003Y-65837473D01*
X100131208Y-65837916D01*
X100200360Y-65987525D01*
X99745488Y-66656617D01*
X100037500Y-66949116D01*
X100125820Y-67036170D01*
X100206375Y-67112909D01*
X100274640Y-67175237D01*
X100326092Y-67219056D01*
X100356206Y-67240270D01*
X100360526Y-67241616D01*
X100385889Y-67231016D01*
X100437642Y-67201547D01*
X100510132Y-67156705D01*
X100597706Y-67099984D01*
X100692388Y-67036462D01*
X100788484Y-66971668D01*
X100874163Y-66915287D01*
X100943984Y-66870788D01*
X100992506Y-66841639D01*
X101014218Y-66831308D01*
X101040707Y-66840050D01*
X101090938Y-66863087D01*
X101154549Y-66895631D01*
X101161292Y-66899249D01*
X101246954Y-66942210D01*
X101305694Y-66963279D01*
X101342228Y-66963503D01*
X101361269Y-66943928D01*
X101361380Y-66943654D01*
X101370898Y-66920472D01*
X101393597Y-66865441D01*
X101427718Y-66782822D01*
X101471500Y-66676872D01*
X101523184Y-66551852D01*
X101581008Y-66412020D01*
X101637009Y-66276637D01*
X101698553Y-66127234D01*
X101755061Y-65988832D01*
X101804839Y-65865673D01*
X101846194Y-65762002D01*
X101877432Y-65682059D01*
X101896859Y-65630088D01*
X101902846Y-65610692D01*
X101887832Y-65588443D01*
X101848561Y-65552982D01*
X101796193Y-65513887D01*
X101647059Y-65390245D01*
X101530489Y-65248522D01*
X101447882Y-65091704D01*
X101400634Y-64922775D01*
X101390143Y-64744722D01*
X101397769Y-64662539D01*
X101439318Y-64492031D01*
X101510877Y-64341459D01*
X101608005Y-64212309D01*
X101726266Y-64106064D01*
X101861220Y-64024210D01*
X102008429Y-63968232D01*
X102163456Y-63939615D01*
X102321861Y-63939844D01*
X102479206Y-63970405D01*
X102631054Y-64032782D01*
X102772965Y-64128460D01*
X102832197Y-64182572D01*
X102945797Y-64321520D01*
X103024894Y-64473361D01*
X103070014Y-64633667D01*
X103081684Y-64798012D01*
X103060431Y-64961971D01*
X103006780Y-65121118D01*
X102921260Y-65271025D01*
X102804395Y-65407267D01*
X102673807Y-65513887D01*
X102619412Y-65554642D01*
X102580986Y-65589718D01*
X102567154Y-65610726D01*
X102574397Y-65633635D01*
X102594995Y-65688365D01*
X102627254Y-65770672D01*
X102669479Y-65876315D01*
X102719977Y-66001050D01*
X102777052Y-66140636D01*
X102833146Y-66276670D01*
X102895033Y-66426201D01*
X102952356Y-66564767D01*
X103003356Y-66688107D01*
X103046273Y-66791964D01*
X103079347Y-66872080D01*
X103100819Y-66924195D01*
X103108775Y-66943654D01*
X103127571Y-66963423D01*
X103163926Y-66963365D01*
X103222521Y-66942441D01*
X103308032Y-66899613D01*
X103308708Y-66899249D01*
X103373093Y-66866012D01*
X103425139Y-66841802D01*
X103454488Y-66831404D01*
X103455783Y-66831308D01*
X103477876Y-66841855D01*
X103526652Y-66871184D01*
X103596669Y-66915827D01*
X103682486Y-66972314D01*
X103777612Y-67036462D01*
X103874460Y-67101411D01*
X103961747Y-67157896D01*
X104033819Y-67202421D01*
X104085023Y-67231490D01*
X104109474Y-67241616D01*
X104131990Y-67228307D01*
X104177258Y-67191112D01*
X104240756Y-67134128D01*
X104317961Y-67061449D01*
X104404349Y-66977171D01*
X104432601Y-66949016D01*
X104724713Y-66656416D01*
X104502369Y-66330104D01*
X104434798Y-66229897D01*
X104375493Y-66139963D01*
X104327783Y-66065510D01*
X104294993Y-66011751D01*
X104280452Y-65983894D01*
X104280026Y-65981912D01*
X104287692Y-65955655D01*
X104308311Y-65902837D01*
X104338315Y-65832310D01*
X104359375Y-65785093D01*
X104398752Y-65694694D01*
X104435835Y-65603366D01*
X104464585Y-65526200D01*
X104472395Y-65502692D01*
X104494583Y-65439916D01*
X104516273Y-65391411D01*
X104528187Y-65373079D01*
X104554477Y-65361859D01*
X104611858Y-65345954D01*
X104692882Y-65327167D01*
X104790105Y-65307299D01*
X104833615Y-65299132D01*
X104944104Y-65278829D01*
X105050084Y-65259170D01*
X105141199Y-65242088D01*
X105207092Y-65229518D01*
X105219500Y-65227091D01*
X105322077Y-65206845D01*
X105322077Y-64779701D01*
X105321847Y-64639246D01*
X105320901Y-64532979D01*
X105318859Y-64456013D01*
X105315338Y-64403460D01*
X105309957Y-64370433D01*
X105302334Y-64352045D01*
X105292088Y-64343408D01*
X105287885Y-64341807D01*
X105262530Y-64336127D01*
X105206516Y-64324795D01*
X105127036Y-64309179D01*
X105031288Y-64290647D01*
X104926467Y-64270569D01*
X104819768Y-64250312D01*
X104718387Y-64231246D01*
X104629521Y-64214739D01*
X104560363Y-64202159D01*
X104518111Y-64194875D01*
X104508710Y-64193616D01*
X104500193Y-64176763D01*
X104481340Y-64131870D01*
X104455676Y-64067430D01*
X104445877Y-64042192D01*
X104406352Y-63944686D01*
X104359808Y-63836959D01*
X104318123Y-63746172D01*
X104287450Y-63676753D01*
X104267044Y-63619710D01*
X104260232Y-63584777D01*
X104261318Y-63580095D01*
X104275715Y-63557991D01*
X104308588Y-63508831D01*
X104356410Y-63437848D01*
X104415652Y-63350278D01*
X104482785Y-63251357D01*
X104496059Y-63231830D01*
X104573954Y-63116140D01*
X104631213Y-63028044D01*
X104670119Y-62963486D01*
X104692956Y-62918411D01*
X104702006Y-62888763D01*
X104699552Y-62870485D01*
X104699489Y-62870369D01*
X104680173Y-62846361D01*
X104637449Y-62799947D01*
X104575949Y-62735937D01*
X104500302Y-62659145D01*
X104415139Y-62574382D01*
X104405535Y-62564922D01*
X104298210Y-62460989D01*
X104215385Y-62384675D01*
X104155395Y-62334571D01*
X104116577Y-62309270D01*
X104099480Y-62306004D01*
X104074527Y-62320250D01*
X104022745Y-62353156D01*
X103949480Y-62401208D01*
X103860080Y-62460890D01*
X103759889Y-62528688D01*
X103736499Y-62544639D01*
X103404407Y-62771420D01*
X103254435Y-62703353D01*
X103163230Y-62663685D01*
X103065331Y-62623791D01*
X102981169Y-62591983D01*
X102977462Y-62590674D01*
X102911631Y-62566576D01*
X102860884Y-62546200D01*
X102836158Y-62533936D01*
X102836116Y-62533901D01*
X102828271Y-62511734D01*
X102814934Y-62457217D01*
X102797430Y-62376480D01*
X102777083Y-62275650D01*
X102755218Y-62160856D01*
X102753429Y-62151178D01*
X102731496Y-62032904D01*
X102711360Y-61925542D01*
X102694320Y-61835917D01*
X102681672Y-61770851D01*
X102674716Y-61737168D01*
X102674594Y-61736654D01*
X102670361Y-61722325D01*
X102662129Y-61711507D01*
X102644967Y-61703706D01*
X102613942Y-61698429D01*
X102564122Y-61695182D01*
X102490576Y-61693472D01*
X102388371Y-61692807D01*
X102252575Y-61692693D01*
X102235000Y-61692692D01*
X102095122Y-61692776D01*
X102095122Y-61692776D01*
G37*
X102095122Y-61692776D02*
X101989388Y-61693355D01*
X101912868Y-61694922D01*
X101860628Y-61697972D01*
X101827737Y-61702996D01*
X101809263Y-61710489D01*
X101800273Y-61720944D01*
X101795837Y-61734853D01*
X101795406Y-61736654D01*
X101788667Y-61769145D01*
X101776192Y-61833252D01*
X101759281Y-61922151D01*
X101739229Y-62029019D01*
X101717336Y-62147033D01*
X101716571Y-62151178D01*
X101694641Y-62266831D01*
X101674123Y-62369014D01*
X101656341Y-62451598D01*
X101642619Y-62508456D01*
X101634282Y-62533458D01*
X101633884Y-62533901D01*
X101609323Y-62546110D01*
X101558685Y-62566456D01*
X101492905Y-62590545D01*
X101492539Y-62590674D01*
X101409683Y-62621818D01*
X101312000Y-62661491D01*
X101219923Y-62701381D01*
X101215566Y-62703353D01*
X101065593Y-62771420D01*
X100733502Y-62544639D01*
X100631626Y-62475504D01*
X100539343Y-62413697D01*
X100461997Y-62362733D01*
X100404936Y-62326127D01*
X100373505Y-62307394D01*
X100370521Y-62306004D01*
X100347679Y-62312190D01*
X100305018Y-62342035D01*
X100240872Y-62396947D01*
X100153579Y-62478334D01*
X100064465Y-62564922D01*
X99978559Y-62650247D01*
X99901673Y-62728108D01*
X99838436Y-62793697D01*
X99793477Y-62842205D01*
X99771424Y-62868825D01*
X99770604Y-62870195D01*
X99768166Y-62888463D01*
X99777350Y-62918295D01*
X99800426Y-62963721D01*
X99839663Y-63028770D01*
X99897330Y-63117470D01*
X99974205Y-63231657D01*
X100042430Y-63332162D01*
X100103418Y-63422303D01*
X100153644Y-63496849D01*
X100189584Y-63550565D01*
X100207713Y-63578218D01*
X100208854Y-63580095D01*
X100206641Y-63606590D01*
X100189862Y-63658086D01*
X100161858Y-63724851D01*
X100151878Y-63746172D01*
X100108328Y-63841159D01*
X100061866Y-63948937D01*
X100024123Y-64042192D01*
X99996927Y-64111406D01*
X99975325Y-64164006D01*
X99962842Y-64191497D01*
X99961291Y-64193616D01*
X99938332Y-64197124D01*
X99884214Y-64206738D01*
X99806132Y-64221089D01*
X99711281Y-64238807D01*
X99606857Y-64258525D01*
X99500056Y-64278874D01*
X99398074Y-64298486D01*
X99308106Y-64315991D01*
X99237347Y-64330022D01*
X99192994Y-64339209D01*
X99182115Y-64341807D01*
X99170878Y-64348218D01*
X99162395Y-64362697D01*
X99156286Y-64390133D01*
X99152168Y-64435411D01*
X99149659Y-64503420D01*
X99148379Y-64599047D01*
X99147946Y-64727180D01*
X99147923Y-64779701D01*
X99147923Y-65206845D01*
X99250500Y-65227091D01*
X99307569Y-65238070D01*
X99392731Y-65254095D01*
X99495628Y-65273233D01*
X99605904Y-65293551D01*
X99636385Y-65299132D01*
X99738145Y-65318917D01*
X99826795Y-65338373D01*
X99894892Y-65355697D01*
X99934996Y-65369088D01*
X99941677Y-65373079D01*
X99958081Y-65401342D01*
X99981601Y-65456109D01*
X100007684Y-65526588D01*
X100012858Y-65541769D01*
X100047044Y-65635896D01*
X100089477Y-65742101D01*
X100131003Y-65837473D01*
X100131208Y-65837916D01*
X100200360Y-65987525D01*
X99745488Y-66656617D01*
X100037500Y-66949116D01*
X100125820Y-67036170D01*
X100206375Y-67112909D01*
X100274640Y-67175237D01*
X100326092Y-67219056D01*
X100356206Y-67240270D01*
X100360526Y-67241616D01*
X100385889Y-67231016D01*
X100437642Y-67201547D01*
X100510132Y-67156705D01*
X100597706Y-67099984D01*
X100692388Y-67036462D01*
X100788484Y-66971668D01*
X100874163Y-66915287D01*
X100943984Y-66870788D01*
X100992506Y-66841639D01*
X101014218Y-66831308D01*
X101040707Y-66840050D01*
X101090938Y-66863087D01*
X101154549Y-66895631D01*
X101161292Y-66899249D01*
X101246954Y-66942210D01*
X101305694Y-66963279D01*
X101342228Y-66963503D01*
X101361269Y-66943928D01*
X101361380Y-66943654D01*
X101370898Y-66920472D01*
X101393597Y-66865441D01*
X101427718Y-66782822D01*
X101471500Y-66676872D01*
X101523184Y-66551852D01*
X101581008Y-66412020D01*
X101637009Y-66276637D01*
X101698553Y-66127234D01*
X101755061Y-65988832D01*
X101804839Y-65865673D01*
X101846194Y-65762002D01*
X101877432Y-65682059D01*
X101896859Y-65630088D01*
X101902846Y-65610692D01*
X101887832Y-65588443D01*
X101848561Y-65552982D01*
X101796193Y-65513887D01*
X101647059Y-65390245D01*
X101530489Y-65248522D01*
X101447882Y-65091704D01*
X101400634Y-64922775D01*
X101390143Y-64744722D01*
X101397769Y-64662539D01*
X101439318Y-64492031D01*
X101510877Y-64341459D01*
X101608005Y-64212309D01*
X101726266Y-64106064D01*
X101861220Y-64024210D01*
X102008429Y-63968232D01*
X102163456Y-63939615D01*
X102321861Y-63939844D01*
X102479206Y-63970405D01*
X102631054Y-64032782D01*
X102772965Y-64128460D01*
X102832197Y-64182572D01*
X102945797Y-64321520D01*
X103024894Y-64473361D01*
X103070014Y-64633667D01*
X103081684Y-64798012D01*
X103060431Y-64961971D01*
X103006780Y-65121118D01*
X102921260Y-65271025D01*
X102804395Y-65407267D01*
X102673807Y-65513887D01*
X102619412Y-65554642D01*
X102580986Y-65589718D01*
X102567154Y-65610726D01*
X102574397Y-65633635D01*
X102594995Y-65688365D01*
X102627254Y-65770672D01*
X102669479Y-65876315D01*
X102719977Y-66001050D01*
X102777052Y-66140636D01*
X102833146Y-66276670D01*
X102895033Y-66426201D01*
X102952356Y-66564767D01*
X103003356Y-66688107D01*
X103046273Y-66791964D01*
X103079347Y-66872080D01*
X103100819Y-66924195D01*
X103108775Y-66943654D01*
X103127571Y-66963423D01*
X103163926Y-66963365D01*
X103222521Y-66942441D01*
X103308032Y-66899613D01*
X103308708Y-66899249D01*
X103373093Y-66866012D01*
X103425139Y-66841802D01*
X103454488Y-66831404D01*
X103455783Y-66831308D01*
X103477876Y-66841855D01*
X103526652Y-66871184D01*
X103596669Y-66915827D01*
X103682486Y-66972314D01*
X103777612Y-67036462D01*
X103874460Y-67101411D01*
X103961747Y-67157896D01*
X104033819Y-67202421D01*
X104085023Y-67231490D01*
X104109474Y-67241616D01*
X104131990Y-67228307D01*
X104177258Y-67191112D01*
X104240756Y-67134128D01*
X104317961Y-67061449D01*
X104404349Y-66977171D01*
X104432601Y-66949016D01*
X104724713Y-66656416D01*
X104502369Y-66330104D01*
X104434798Y-66229897D01*
X104375493Y-66139963D01*
X104327783Y-66065510D01*
X104294993Y-66011751D01*
X104280452Y-65983894D01*
X104280026Y-65981912D01*
X104287692Y-65955655D01*
X104308311Y-65902837D01*
X104338315Y-65832310D01*
X104359375Y-65785093D01*
X104398752Y-65694694D01*
X104435835Y-65603366D01*
X104464585Y-65526200D01*
X104472395Y-65502692D01*
X104494583Y-65439916D01*
X104516273Y-65391411D01*
X104528187Y-65373079D01*
X104554477Y-65361859D01*
X104611858Y-65345954D01*
X104692882Y-65327167D01*
X104790105Y-65307299D01*
X104833615Y-65299132D01*
X104944104Y-65278829D01*
X105050084Y-65259170D01*
X105141199Y-65242088D01*
X105207092Y-65229518D01*
X105219500Y-65227091D01*
X105322077Y-65206845D01*
X105322077Y-64779701D01*
X105321847Y-64639246D01*
X105320901Y-64532979D01*
X105318859Y-64456013D01*
X105315338Y-64403460D01*
X105309957Y-64370433D01*
X105302334Y-64352045D01*
X105292088Y-64343408D01*
X105287885Y-64341807D01*
X105262530Y-64336127D01*
X105206516Y-64324795D01*
X105127036Y-64309179D01*
X105031288Y-64290647D01*
X104926467Y-64270569D01*
X104819768Y-64250312D01*
X104718387Y-64231246D01*
X104629521Y-64214739D01*
X104560363Y-64202159D01*
X104518111Y-64194875D01*
X104508710Y-64193616D01*
X104500193Y-64176763D01*
X104481340Y-64131870D01*
X104455676Y-64067430D01*
X104445877Y-64042192D01*
X104406352Y-63944686D01*
X104359808Y-63836959D01*
X104318123Y-63746172D01*
X104287450Y-63676753D01*
X104267044Y-63619710D01*
X104260232Y-63584777D01*
X104261318Y-63580095D01*
X104275715Y-63557991D01*
X104308588Y-63508831D01*
X104356410Y-63437848D01*
X104415652Y-63350278D01*
X104482785Y-63251357D01*
X104496059Y-63231830D01*
X104573954Y-63116140D01*
X104631213Y-63028044D01*
X104670119Y-62963486D01*
X104692956Y-62918411D01*
X104702006Y-62888763D01*
X104699552Y-62870485D01*
X104699489Y-62870369D01*
X104680173Y-62846361D01*
X104637449Y-62799947D01*
X104575949Y-62735937D01*
X104500302Y-62659145D01*
X104415139Y-62574382D01*
X104405535Y-62564922D01*
X104298210Y-62460989D01*
X104215385Y-62384675D01*
X104155395Y-62334571D01*
X104116577Y-62309270D01*
X104099480Y-62306004D01*
X104074527Y-62320250D01*
X104022745Y-62353156D01*
X103949480Y-62401208D01*
X103860080Y-62460890D01*
X103759889Y-62528688D01*
X103736499Y-62544639D01*
X103404407Y-62771420D01*
X103254435Y-62703353D01*
X103163230Y-62663685D01*
X103065331Y-62623791D01*
X102981169Y-62591983D01*
X102977462Y-62590674D01*
X102911631Y-62566576D01*
X102860884Y-62546200D01*
X102836158Y-62533936D01*
X102836116Y-62533901D01*
X102828271Y-62511734D01*
X102814934Y-62457217D01*
X102797430Y-62376480D01*
X102777083Y-62275650D01*
X102755218Y-62160856D01*
X102753429Y-62151178D01*
X102731496Y-62032904D01*
X102711360Y-61925542D01*
X102694320Y-61835917D01*
X102681672Y-61770851D01*
X102674716Y-61737168D01*
X102674594Y-61736654D01*
X102670361Y-61722325D01*
X102662129Y-61711507D01*
X102644967Y-61703706D01*
X102613942Y-61698429D01*
X102564122Y-61695182D01*
X102490576Y-61693472D01*
X102388371Y-61692807D01*
X102252575Y-61692693D01*
X102235000Y-61692692D01*
X102095122Y-61692776D01*
M02*
