G04 #@! TF.FileFunction,Copper,L2,Bot,Signal*
%FSLAX46Y46*%
G04 Gerber Fmt 4.6, Leading zero omitted, Abs format (unit mm)*
G04 Created by KiCad (PCBNEW 4.0.2+e4-6225~38~ubuntu15.04.1-stable) date zo 17 jul 2016 23:00:48 CEST*
%MOMM*%
G01*
G04 APERTURE LIST*
%ADD10C,0.100000*%
%ADD11R,1.727200X1.727200*%
%ADD12C,1.727200*%
%ADD13R,1.750000X1.750000*%
%ADD14C,1.750000*%
%ADD15R,2.032000X2.032000*%
%ADD16O,2.032000X2.032000*%
%ADD17R,2.540000X2.540000*%
%ADD18C,2.540000*%
%ADD19C,0.254000*%
G04 APERTURE END LIST*
D10*
D11*
X141605000Y-86995000D03*
D12*
X141605000Y-89535000D03*
X141605000Y-92075000D03*
X141605000Y-94615000D03*
X141605000Y-97155000D03*
X141605000Y-99695000D03*
X141605000Y-102235000D03*
X141605000Y-104775000D03*
X141605000Y-107315000D03*
X141605000Y-109855000D03*
X141605000Y-112395000D03*
X141605000Y-114935000D03*
X141605000Y-117475000D03*
X141605000Y-120015000D03*
X141605000Y-122555000D03*
X156845000Y-122555000D03*
X156845000Y-120015000D03*
X156845000Y-117475000D03*
X156845000Y-114935000D03*
X156845000Y-112395000D03*
X156845000Y-109855000D03*
X156845000Y-107315000D03*
X156845000Y-104775000D03*
X156845000Y-102235000D03*
X156845000Y-99695000D03*
X156845000Y-97155000D03*
X156845000Y-94615000D03*
X156845000Y-92075000D03*
X156845000Y-89535000D03*
X156845000Y-86995000D03*
D13*
X130175000Y-86360000D03*
D14*
X132675000Y-86360000D03*
X135175000Y-86360000D03*
D13*
X118745000Y-86360000D03*
D14*
X121245000Y-86360000D03*
X123745000Y-86360000D03*
D13*
X130175000Y-95250000D03*
D14*
X132675000Y-95250000D03*
X135175000Y-95250000D03*
D13*
X118745000Y-95250000D03*
D14*
X121245000Y-95250000D03*
X123745000Y-95250000D03*
D13*
X130175000Y-104140000D03*
D14*
X132675000Y-104140000D03*
X135175000Y-104140000D03*
D13*
X118745000Y-104140000D03*
D14*
X121245000Y-104140000D03*
X123745000Y-104140000D03*
D13*
X130175000Y-113030000D03*
D14*
X132675000Y-113030000D03*
X135175000Y-113030000D03*
D13*
X118745000Y-113030000D03*
D14*
X121245000Y-113030000D03*
X123745000Y-113030000D03*
D15*
X136525000Y-121285000D03*
D16*
X133985000Y-121285000D03*
D13*
X163195000Y-113030000D03*
D14*
X165695000Y-113030000D03*
X168195000Y-113030000D03*
D13*
X163195000Y-104140000D03*
D14*
X165695000Y-104140000D03*
X168195000Y-104140000D03*
D13*
X163195000Y-95250000D03*
D14*
X165695000Y-95250000D03*
X168195000Y-95250000D03*
D13*
X163195000Y-86360000D03*
D14*
X165695000Y-86360000D03*
X168195000Y-86360000D03*
D17*
X163195000Y-123190000D03*
D18*
X168275000Y-123190000D03*
D19*
G36*
X172593000Y-83237606D02*
X172593000Y-126947394D01*
X172032394Y-127508000D01*
X114987606Y-127508000D01*
X114427000Y-126947394D01*
X114427000Y-121252655D01*
X132334000Y-121252655D01*
X132334000Y-121317345D01*
X132459675Y-121949155D01*
X132817567Y-122484778D01*
X133353190Y-122842670D01*
X133985000Y-122968345D01*
X134616810Y-122842670D01*
X134956792Y-122615501D01*
X135044910Y-122752441D01*
X135257110Y-122897431D01*
X135509000Y-122948440D01*
X137541000Y-122948440D01*
X137776317Y-122904162D01*
X137992441Y-122765090D01*
X138137431Y-122552890D01*
X138188440Y-122301000D01*
X138188440Y-120269000D01*
X138144162Y-120033683D01*
X138005090Y-119817559D01*
X137792890Y-119672569D01*
X137541000Y-119621560D01*
X135509000Y-119621560D01*
X135273683Y-119665838D01*
X135057559Y-119804910D01*
X134955802Y-119953837D01*
X134616810Y-119727330D01*
X133985000Y-119601655D01*
X133353190Y-119727330D01*
X132817567Y-120085222D01*
X132459675Y-120620845D01*
X132334000Y-121252655D01*
X114427000Y-121252655D01*
X114427000Y-112155000D01*
X117222560Y-112155000D01*
X117222560Y-113905000D01*
X117266838Y-114140317D01*
X117405910Y-114356441D01*
X117618110Y-114501431D01*
X117870000Y-114552440D01*
X119620000Y-114552440D01*
X119855317Y-114508162D01*
X120071441Y-114369090D01*
X120208994Y-114167774D01*
X120247914Y-114206694D01*
X120362546Y-114092062D01*
X120445884Y-114345953D01*
X121010306Y-114551590D01*
X121610458Y-114525579D01*
X122044116Y-114345953D01*
X122127455Y-114092060D01*
X121245000Y-113209605D01*
X121230858Y-113223748D01*
X121051253Y-113044143D01*
X121065395Y-113030000D01*
X121424605Y-113030000D01*
X122307060Y-113912455D01*
X122455648Y-113863682D01*
X122464138Y-113884229D01*
X122888537Y-114309370D01*
X123443325Y-114539738D01*
X124044040Y-114540262D01*
X124599229Y-114310862D01*
X125024370Y-113886463D01*
X125254738Y-113331675D01*
X125255262Y-112730960D01*
X125025862Y-112175771D01*
X125005128Y-112155000D01*
X128652560Y-112155000D01*
X128652560Y-113905000D01*
X128696838Y-114140317D01*
X128835910Y-114356441D01*
X129048110Y-114501431D01*
X129300000Y-114552440D01*
X131050000Y-114552440D01*
X131285317Y-114508162D01*
X131501441Y-114369090D01*
X131638994Y-114167774D01*
X131677914Y-114206694D01*
X131792546Y-114092062D01*
X131875884Y-114345953D01*
X132440306Y-114551590D01*
X133040458Y-114525579D01*
X133474116Y-114345953D01*
X133557455Y-114092060D01*
X132675000Y-113209605D01*
X132660858Y-113223748D01*
X132481253Y-113044143D01*
X132495395Y-113030000D01*
X132854605Y-113030000D01*
X133737060Y-113912455D01*
X133885648Y-113863682D01*
X133894138Y-113884229D01*
X134318537Y-114309370D01*
X134873325Y-114539738D01*
X135474040Y-114540262D01*
X136029229Y-114310862D01*
X136454370Y-113886463D01*
X136684738Y-113331675D01*
X136685262Y-112730960D01*
X136455862Y-112175771D01*
X136031463Y-111750630D01*
X135476675Y-111520262D01*
X134875960Y-111519738D01*
X134320771Y-111749138D01*
X133895630Y-112173537D01*
X133886108Y-112196469D01*
X133737060Y-112147545D01*
X132854605Y-113030000D01*
X132495395Y-113030000D01*
X132481253Y-113015858D01*
X132660858Y-112836253D01*
X132675000Y-112850395D01*
X133557455Y-111967940D01*
X133474116Y-111714047D01*
X132909694Y-111508410D01*
X132309542Y-111534421D01*
X131875884Y-111714047D01*
X131792546Y-111967938D01*
X131677914Y-111853306D01*
X131636864Y-111894356D01*
X131514090Y-111703559D01*
X131301890Y-111558569D01*
X131050000Y-111507560D01*
X129300000Y-111507560D01*
X129064683Y-111551838D01*
X128848559Y-111690910D01*
X128703569Y-111903110D01*
X128652560Y-112155000D01*
X125005128Y-112155000D01*
X124601463Y-111750630D01*
X124046675Y-111520262D01*
X123445960Y-111519738D01*
X122890771Y-111749138D01*
X122465630Y-112173537D01*
X122456108Y-112196469D01*
X122307060Y-112147545D01*
X121424605Y-113030000D01*
X121065395Y-113030000D01*
X121051253Y-113015858D01*
X121230858Y-112836253D01*
X121245000Y-112850395D01*
X122127455Y-111967940D01*
X122044116Y-111714047D01*
X121479694Y-111508410D01*
X120879542Y-111534421D01*
X120445884Y-111714047D01*
X120362546Y-111967938D01*
X120247914Y-111853306D01*
X120206864Y-111894356D01*
X120084090Y-111703559D01*
X119871890Y-111558569D01*
X119620000Y-111507560D01*
X117870000Y-111507560D01*
X117634683Y-111551838D01*
X117418559Y-111690910D01*
X117273569Y-111903110D01*
X117222560Y-112155000D01*
X114427000Y-112155000D01*
X114427000Y-103265000D01*
X117222560Y-103265000D01*
X117222560Y-105015000D01*
X117266838Y-105250317D01*
X117405910Y-105466441D01*
X117618110Y-105611431D01*
X117870000Y-105662440D01*
X119620000Y-105662440D01*
X119855317Y-105618162D01*
X120071441Y-105479090D01*
X120208994Y-105277774D01*
X120247914Y-105316694D01*
X120362546Y-105202062D01*
X120445884Y-105455953D01*
X121010306Y-105661590D01*
X121610458Y-105635579D01*
X122044116Y-105455953D01*
X122127455Y-105202060D01*
X121245000Y-104319605D01*
X121230858Y-104333748D01*
X121051253Y-104154143D01*
X121065395Y-104140000D01*
X121424605Y-104140000D01*
X122307060Y-105022455D01*
X122455648Y-104973682D01*
X122464138Y-104994229D01*
X122888537Y-105419370D01*
X123443325Y-105649738D01*
X124044040Y-105650262D01*
X124599229Y-105420862D01*
X125024370Y-104996463D01*
X125254738Y-104441675D01*
X125255262Y-103840960D01*
X125025862Y-103285771D01*
X125005128Y-103265000D01*
X128652560Y-103265000D01*
X128652560Y-105015000D01*
X128696838Y-105250317D01*
X128835910Y-105466441D01*
X129048110Y-105611431D01*
X129300000Y-105662440D01*
X131050000Y-105662440D01*
X131285317Y-105618162D01*
X131501441Y-105479090D01*
X131638994Y-105277774D01*
X131677914Y-105316694D01*
X131792546Y-105202062D01*
X131875884Y-105455953D01*
X132440306Y-105661590D01*
X133040458Y-105635579D01*
X133474116Y-105455953D01*
X133557455Y-105202060D01*
X132675000Y-104319605D01*
X132660858Y-104333748D01*
X132481253Y-104154143D01*
X132495395Y-104140000D01*
X132854605Y-104140000D01*
X133737060Y-105022455D01*
X133885648Y-104973682D01*
X133894138Y-104994229D01*
X134318537Y-105419370D01*
X134873325Y-105649738D01*
X135474040Y-105650262D01*
X136029229Y-105420862D01*
X136454370Y-104996463D01*
X136684738Y-104441675D01*
X136685262Y-103840960D01*
X136455862Y-103285771D01*
X136031463Y-102860630D01*
X135476675Y-102630262D01*
X134875960Y-102629738D01*
X134320771Y-102859138D01*
X133895630Y-103283537D01*
X133886108Y-103306469D01*
X133737060Y-103257545D01*
X132854605Y-104140000D01*
X132495395Y-104140000D01*
X132481253Y-104125858D01*
X132660858Y-103946253D01*
X132675000Y-103960395D01*
X133557455Y-103077940D01*
X133474116Y-102824047D01*
X132909694Y-102618410D01*
X132309542Y-102644421D01*
X131875884Y-102824047D01*
X131792546Y-103077938D01*
X131677914Y-102963306D01*
X131636864Y-103004356D01*
X131514090Y-102813559D01*
X131301890Y-102668569D01*
X131050000Y-102617560D01*
X129300000Y-102617560D01*
X129064683Y-102661838D01*
X128848559Y-102800910D01*
X128703569Y-103013110D01*
X128652560Y-103265000D01*
X125005128Y-103265000D01*
X124601463Y-102860630D01*
X124046675Y-102630262D01*
X123445960Y-102629738D01*
X122890771Y-102859138D01*
X122465630Y-103283537D01*
X122456108Y-103306469D01*
X122307060Y-103257545D01*
X121424605Y-104140000D01*
X121065395Y-104140000D01*
X121051253Y-104125858D01*
X121230858Y-103946253D01*
X121245000Y-103960395D01*
X122127455Y-103077940D01*
X122044116Y-102824047D01*
X121479694Y-102618410D01*
X120879542Y-102644421D01*
X120445884Y-102824047D01*
X120362546Y-103077938D01*
X120247914Y-102963306D01*
X120206864Y-103004356D01*
X120084090Y-102813559D01*
X119871890Y-102668569D01*
X119620000Y-102617560D01*
X117870000Y-102617560D01*
X117634683Y-102661838D01*
X117418559Y-102800910D01*
X117273569Y-103013110D01*
X117222560Y-103265000D01*
X114427000Y-103265000D01*
X114427000Y-97451782D01*
X140106141Y-97451782D01*
X140333808Y-98002780D01*
X140755003Y-98424710D01*
X140755931Y-98425095D01*
X140335290Y-98845003D01*
X140106661Y-99395602D01*
X140106141Y-99991782D01*
X140333808Y-100542780D01*
X140755003Y-100964710D01*
X140755931Y-100965095D01*
X140335290Y-101385003D01*
X140106661Y-101935602D01*
X140106141Y-102531782D01*
X140333808Y-103082780D01*
X140755003Y-103504710D01*
X140755931Y-103505095D01*
X140335290Y-103925003D01*
X140106661Y-104475602D01*
X140106141Y-105071782D01*
X140333808Y-105622780D01*
X140755003Y-106044710D01*
X140755931Y-106045095D01*
X140335290Y-106465003D01*
X140106661Y-107015602D01*
X140106141Y-107611782D01*
X140333808Y-108162780D01*
X140755003Y-108584710D01*
X140755931Y-108585095D01*
X140335290Y-109005003D01*
X140106661Y-109555602D01*
X140106141Y-110151782D01*
X140333808Y-110702780D01*
X140755003Y-111124710D01*
X140755931Y-111125095D01*
X140335290Y-111545003D01*
X140106661Y-112095602D01*
X140106141Y-112691782D01*
X140333808Y-113242780D01*
X140755003Y-113664710D01*
X140755931Y-113665095D01*
X140335290Y-114085003D01*
X140106661Y-114635602D01*
X140106141Y-115231782D01*
X140333808Y-115782780D01*
X140755003Y-116204710D01*
X140755931Y-116205095D01*
X140335290Y-116625003D01*
X140106661Y-117175602D01*
X140106141Y-117771782D01*
X140333808Y-118322780D01*
X140755003Y-118744710D01*
X140755931Y-118745095D01*
X140335290Y-119165003D01*
X140106661Y-119715602D01*
X140106141Y-120311782D01*
X140333808Y-120862780D01*
X140755003Y-121284710D01*
X140755931Y-121285095D01*
X140335290Y-121705003D01*
X140106661Y-122255602D01*
X140106141Y-122851782D01*
X140333808Y-123402780D01*
X140755003Y-123824710D01*
X141305602Y-124053339D01*
X141901782Y-124053859D01*
X142452780Y-123826192D01*
X142874710Y-123404997D01*
X143103339Y-122854398D01*
X143103859Y-122258218D01*
X142876192Y-121707220D01*
X142454997Y-121285290D01*
X142454069Y-121284905D01*
X142874710Y-120864997D01*
X143103339Y-120314398D01*
X143103859Y-119718218D01*
X142876192Y-119167220D01*
X142454997Y-118745290D01*
X142454069Y-118744905D01*
X142874710Y-118324997D01*
X143103339Y-117774398D01*
X143103859Y-117178218D01*
X142876192Y-116627220D01*
X142454997Y-116205290D01*
X142454069Y-116204905D01*
X142874710Y-115784997D01*
X143103339Y-115234398D01*
X143103859Y-114638218D01*
X142876192Y-114087220D01*
X142454997Y-113665290D01*
X142454069Y-113664905D01*
X142874710Y-113244997D01*
X143103339Y-112694398D01*
X143103859Y-112098218D01*
X142876192Y-111547220D01*
X142454997Y-111125290D01*
X142454069Y-111124905D01*
X142874710Y-110704997D01*
X143103339Y-110154398D01*
X143103859Y-109558218D01*
X142876192Y-109007220D01*
X142454997Y-108585290D01*
X142454069Y-108584905D01*
X142874710Y-108164997D01*
X143103339Y-107614398D01*
X143103859Y-107018218D01*
X142876192Y-106467220D01*
X142454997Y-106045290D01*
X142454069Y-106044905D01*
X142874710Y-105624997D01*
X143103339Y-105074398D01*
X143103859Y-104478218D01*
X142876192Y-103927220D01*
X142454997Y-103505290D01*
X142454069Y-103504905D01*
X142874710Y-103084997D01*
X143103339Y-102534398D01*
X143103859Y-101938218D01*
X142876192Y-101387220D01*
X142454997Y-100965290D01*
X142454069Y-100964905D01*
X142874710Y-100544997D01*
X143103339Y-99994398D01*
X143103859Y-99398218D01*
X142876192Y-98847220D01*
X142454997Y-98425290D01*
X142454069Y-98424905D01*
X142874710Y-98004997D01*
X143103339Y-97454398D01*
X143103859Y-96858218D01*
X142876192Y-96307220D01*
X142454997Y-95885290D01*
X142414463Y-95868459D01*
X142479200Y-95668805D01*
X141605000Y-94794605D01*
X140730800Y-95668805D01*
X140795399Y-95868033D01*
X140757220Y-95883808D01*
X140335290Y-96305003D01*
X140106661Y-96855602D01*
X140106141Y-97451782D01*
X114427000Y-97451782D01*
X114427000Y-94375000D01*
X117222560Y-94375000D01*
X117222560Y-96125000D01*
X117266838Y-96360317D01*
X117405910Y-96576441D01*
X117618110Y-96721431D01*
X117870000Y-96772440D01*
X119620000Y-96772440D01*
X119855317Y-96728162D01*
X120071441Y-96589090D01*
X120208994Y-96387774D01*
X120247914Y-96426694D01*
X120362546Y-96312062D01*
X120445884Y-96565953D01*
X121010306Y-96771590D01*
X121610458Y-96745579D01*
X122044116Y-96565953D01*
X122127455Y-96312060D01*
X121245000Y-95429605D01*
X121230858Y-95443748D01*
X121051253Y-95264143D01*
X121065395Y-95250000D01*
X121424605Y-95250000D01*
X122307060Y-96132455D01*
X122455648Y-96083682D01*
X122464138Y-96104229D01*
X122888537Y-96529370D01*
X123443325Y-96759738D01*
X124044040Y-96760262D01*
X124599229Y-96530862D01*
X125024370Y-96106463D01*
X125254738Y-95551675D01*
X125255262Y-94950960D01*
X125025862Y-94395771D01*
X125005128Y-94375000D01*
X128652560Y-94375000D01*
X128652560Y-96125000D01*
X128696838Y-96360317D01*
X128835910Y-96576441D01*
X129048110Y-96721431D01*
X129300000Y-96772440D01*
X131050000Y-96772440D01*
X131285317Y-96728162D01*
X131501441Y-96589090D01*
X131638994Y-96387774D01*
X131677914Y-96426694D01*
X131792546Y-96312062D01*
X131875884Y-96565953D01*
X132440306Y-96771590D01*
X133040458Y-96745579D01*
X133474116Y-96565953D01*
X133557455Y-96312060D01*
X132675000Y-95429605D01*
X132660858Y-95443748D01*
X132481253Y-95264143D01*
X132495395Y-95250000D01*
X132854605Y-95250000D01*
X133737060Y-96132455D01*
X133885648Y-96083682D01*
X133894138Y-96104229D01*
X134318537Y-96529370D01*
X134873325Y-96759738D01*
X135474040Y-96760262D01*
X136029229Y-96530862D01*
X136454370Y-96106463D01*
X136684738Y-95551675D01*
X136685262Y-94950960D01*
X136455862Y-94395771D01*
X136443144Y-94383030D01*
X140094752Y-94383030D01*
X140120942Y-94978635D01*
X140298484Y-95407259D01*
X140551195Y-95489200D01*
X141425395Y-94615000D01*
X141784605Y-94615000D01*
X142658805Y-95489200D01*
X142911516Y-95407259D01*
X143115248Y-94846970D01*
X143089058Y-94251365D01*
X142911516Y-93822741D01*
X142658805Y-93740800D01*
X141784605Y-94615000D01*
X141425395Y-94615000D01*
X140551195Y-93740800D01*
X140298484Y-93822741D01*
X140094752Y-94383030D01*
X136443144Y-94383030D01*
X136031463Y-93970630D01*
X135476675Y-93740262D01*
X134875960Y-93739738D01*
X134320771Y-93969138D01*
X133895630Y-94393537D01*
X133886108Y-94416469D01*
X133737060Y-94367545D01*
X132854605Y-95250000D01*
X132495395Y-95250000D01*
X132481253Y-95235858D01*
X132660858Y-95056253D01*
X132675000Y-95070395D01*
X133557455Y-94187940D01*
X133474116Y-93934047D01*
X132909694Y-93728410D01*
X132309542Y-93754421D01*
X131875884Y-93934047D01*
X131792546Y-94187938D01*
X131677914Y-94073306D01*
X131636864Y-94114356D01*
X131514090Y-93923559D01*
X131301890Y-93778569D01*
X131050000Y-93727560D01*
X129300000Y-93727560D01*
X129064683Y-93771838D01*
X128848559Y-93910910D01*
X128703569Y-94123110D01*
X128652560Y-94375000D01*
X125005128Y-94375000D01*
X124601463Y-93970630D01*
X124046675Y-93740262D01*
X123445960Y-93739738D01*
X122890771Y-93969138D01*
X122465630Y-94393537D01*
X122456108Y-94416469D01*
X122307060Y-94367545D01*
X121424605Y-95250000D01*
X121065395Y-95250000D01*
X121051253Y-95235858D01*
X121230858Y-95056253D01*
X121245000Y-95070395D01*
X122127455Y-94187940D01*
X122044116Y-93934047D01*
X121479694Y-93728410D01*
X120879542Y-93754421D01*
X120445884Y-93934047D01*
X120362546Y-94187938D01*
X120247914Y-94073306D01*
X120206864Y-94114356D01*
X120084090Y-93923559D01*
X119871890Y-93778569D01*
X119620000Y-93727560D01*
X117870000Y-93727560D01*
X117634683Y-93771838D01*
X117418559Y-93910910D01*
X117273569Y-94123110D01*
X117222560Y-94375000D01*
X114427000Y-94375000D01*
X114427000Y-85485000D01*
X117222560Y-85485000D01*
X117222560Y-87235000D01*
X117266838Y-87470317D01*
X117405910Y-87686441D01*
X117618110Y-87831431D01*
X117870000Y-87882440D01*
X119620000Y-87882440D01*
X119855317Y-87838162D01*
X120071441Y-87699090D01*
X120208994Y-87497774D01*
X120247914Y-87536694D01*
X120362546Y-87422062D01*
X120445884Y-87675953D01*
X121010306Y-87881590D01*
X121610458Y-87855579D01*
X122044116Y-87675953D01*
X122127455Y-87422060D01*
X121245000Y-86539605D01*
X121230858Y-86553748D01*
X121051253Y-86374143D01*
X121065395Y-86360000D01*
X121424605Y-86360000D01*
X122307060Y-87242455D01*
X122455648Y-87193682D01*
X122464138Y-87214229D01*
X122888537Y-87639370D01*
X123443325Y-87869738D01*
X124044040Y-87870262D01*
X124599229Y-87640862D01*
X125024370Y-87216463D01*
X125254738Y-86661675D01*
X125255262Y-86060960D01*
X125025862Y-85505771D01*
X125005128Y-85485000D01*
X128652560Y-85485000D01*
X128652560Y-87235000D01*
X128696838Y-87470317D01*
X128835910Y-87686441D01*
X129048110Y-87831431D01*
X129300000Y-87882440D01*
X131050000Y-87882440D01*
X131285317Y-87838162D01*
X131501441Y-87699090D01*
X131638994Y-87497774D01*
X131677914Y-87536694D01*
X131792546Y-87422062D01*
X131875884Y-87675953D01*
X132440306Y-87881590D01*
X133040458Y-87855579D01*
X133474116Y-87675953D01*
X133557455Y-87422060D01*
X132675000Y-86539605D01*
X132660858Y-86553748D01*
X132481253Y-86374143D01*
X132495395Y-86360000D01*
X132854605Y-86360000D01*
X133737060Y-87242455D01*
X133885648Y-87193682D01*
X133894138Y-87214229D01*
X134318537Y-87639370D01*
X134873325Y-87869738D01*
X135474040Y-87870262D01*
X136029229Y-87640862D01*
X136454370Y-87216463D01*
X136684738Y-86661675D01*
X136685200Y-86131400D01*
X140093960Y-86131400D01*
X140093960Y-87858600D01*
X140138238Y-88093917D01*
X140277310Y-88310041D01*
X140489510Y-88455031D01*
X140552820Y-88467852D01*
X140335290Y-88685003D01*
X140106661Y-89235602D01*
X140106141Y-89831782D01*
X140333808Y-90382780D01*
X140755003Y-90804710D01*
X140755931Y-90805095D01*
X140335290Y-91225003D01*
X140106661Y-91775602D01*
X140106141Y-92371782D01*
X140333808Y-92922780D01*
X140755003Y-93344710D01*
X140795537Y-93361541D01*
X140730800Y-93561195D01*
X141605000Y-94435395D01*
X142479200Y-93561195D01*
X142414601Y-93361967D01*
X142452780Y-93346192D01*
X142874710Y-92924997D01*
X143103339Y-92374398D01*
X143103341Y-92371782D01*
X155346141Y-92371782D01*
X155573808Y-92922780D01*
X155995003Y-93344710D01*
X155995931Y-93345095D01*
X155575290Y-93765003D01*
X155346661Y-94315602D01*
X155346141Y-94911782D01*
X155573808Y-95462780D01*
X155995003Y-95884710D01*
X155995931Y-95885095D01*
X155575290Y-96305003D01*
X155346661Y-96855602D01*
X155346141Y-97451782D01*
X155573808Y-98002780D01*
X155995003Y-98424710D01*
X155995931Y-98425095D01*
X155575290Y-98845003D01*
X155346661Y-99395602D01*
X155346141Y-99991782D01*
X155573808Y-100542780D01*
X155995003Y-100964710D01*
X155995931Y-100965095D01*
X155575290Y-101385003D01*
X155346661Y-101935602D01*
X155346141Y-102531782D01*
X155573808Y-103082780D01*
X155995003Y-103504710D01*
X155995931Y-103505095D01*
X155575290Y-103925003D01*
X155346661Y-104475602D01*
X155346141Y-105071782D01*
X155573808Y-105622780D01*
X155995003Y-106044710D01*
X155995931Y-106045095D01*
X155575290Y-106465003D01*
X155346661Y-107015602D01*
X155346141Y-107611782D01*
X155573808Y-108162780D01*
X155995003Y-108584710D01*
X155995931Y-108585095D01*
X155575290Y-109005003D01*
X155346661Y-109555602D01*
X155346141Y-110151782D01*
X155573808Y-110702780D01*
X155995003Y-111124710D01*
X155995931Y-111125095D01*
X155575290Y-111545003D01*
X155346661Y-112095602D01*
X155346141Y-112691782D01*
X155573808Y-113242780D01*
X155995003Y-113664710D01*
X155995931Y-113665095D01*
X155575290Y-114085003D01*
X155346661Y-114635602D01*
X155346141Y-115231782D01*
X155573808Y-115782780D01*
X155995003Y-116204710D01*
X155995931Y-116205095D01*
X155575290Y-116625003D01*
X155346661Y-117175602D01*
X155346141Y-117771782D01*
X155573808Y-118322780D01*
X155995003Y-118744710D01*
X155995931Y-118745095D01*
X155575290Y-119165003D01*
X155346661Y-119715602D01*
X155346141Y-120311782D01*
X155573808Y-120862780D01*
X155995003Y-121284710D01*
X155995931Y-121285095D01*
X155575290Y-121705003D01*
X155346661Y-122255602D01*
X155346141Y-122851782D01*
X155573808Y-123402780D01*
X155995003Y-123824710D01*
X156545602Y-124053339D01*
X157141782Y-124053859D01*
X157692780Y-123826192D01*
X158114710Y-123404997D01*
X158343339Y-122854398D01*
X158343859Y-122258218D01*
X158204111Y-121920000D01*
X161277560Y-121920000D01*
X161277560Y-124460000D01*
X161321838Y-124695317D01*
X161460910Y-124911441D01*
X161673110Y-125056431D01*
X161925000Y-125107440D01*
X164465000Y-125107440D01*
X164700317Y-125063162D01*
X164916441Y-124924090D01*
X165061431Y-124711890D01*
X165096689Y-124537777D01*
X167106828Y-124537777D01*
X167238520Y-124832657D01*
X167946036Y-125104261D01*
X168703632Y-125084436D01*
X169311480Y-124832657D01*
X169443172Y-124537777D01*
X168275000Y-123369605D01*
X167106828Y-124537777D01*
X165096689Y-124537777D01*
X165112440Y-124460000D01*
X165112440Y-122861036D01*
X166360739Y-122861036D01*
X166380564Y-123618632D01*
X166632343Y-124226480D01*
X166927223Y-124358172D01*
X168095395Y-123190000D01*
X168454605Y-123190000D01*
X169622777Y-124358172D01*
X169917657Y-124226480D01*
X170189261Y-123518964D01*
X170169436Y-122761368D01*
X169917657Y-122153520D01*
X169622777Y-122021828D01*
X168454605Y-123190000D01*
X168095395Y-123190000D01*
X166927223Y-122021828D01*
X166632343Y-122153520D01*
X166360739Y-122861036D01*
X165112440Y-122861036D01*
X165112440Y-121920000D01*
X165097806Y-121842223D01*
X167106828Y-121842223D01*
X168275000Y-123010395D01*
X169443172Y-121842223D01*
X169311480Y-121547343D01*
X168603964Y-121275739D01*
X167846368Y-121295564D01*
X167238520Y-121547343D01*
X167106828Y-121842223D01*
X165097806Y-121842223D01*
X165068162Y-121684683D01*
X164929090Y-121468559D01*
X164716890Y-121323569D01*
X164465000Y-121272560D01*
X161925000Y-121272560D01*
X161689683Y-121316838D01*
X161473559Y-121455910D01*
X161328569Y-121668110D01*
X161277560Y-121920000D01*
X158204111Y-121920000D01*
X158116192Y-121707220D01*
X157694997Y-121285290D01*
X157694069Y-121284905D01*
X158114710Y-120864997D01*
X158343339Y-120314398D01*
X158343859Y-119718218D01*
X158116192Y-119167220D01*
X157694997Y-118745290D01*
X157694069Y-118744905D01*
X158114710Y-118324997D01*
X158343339Y-117774398D01*
X158343859Y-117178218D01*
X158116192Y-116627220D01*
X157694997Y-116205290D01*
X157694069Y-116204905D01*
X158114710Y-115784997D01*
X158343339Y-115234398D01*
X158343859Y-114638218D01*
X158116192Y-114087220D01*
X157694997Y-113665290D01*
X157694069Y-113664905D01*
X158114710Y-113244997D01*
X158343339Y-112694398D01*
X158343809Y-112155000D01*
X161672560Y-112155000D01*
X161672560Y-113905000D01*
X161716838Y-114140317D01*
X161855910Y-114356441D01*
X162068110Y-114501431D01*
X162320000Y-114552440D01*
X164070000Y-114552440D01*
X164305317Y-114508162D01*
X164521441Y-114369090D01*
X164658994Y-114167774D01*
X164697914Y-114206694D01*
X164812546Y-114092062D01*
X164895884Y-114345953D01*
X165460306Y-114551590D01*
X166060458Y-114525579D01*
X166494116Y-114345953D01*
X166577455Y-114092060D01*
X165695000Y-113209605D01*
X165680858Y-113223748D01*
X165501253Y-113044143D01*
X165515395Y-113030000D01*
X165874605Y-113030000D01*
X166757060Y-113912455D01*
X166905648Y-113863682D01*
X166914138Y-113884229D01*
X167338537Y-114309370D01*
X167893325Y-114539738D01*
X168494040Y-114540262D01*
X169049229Y-114310862D01*
X169474370Y-113886463D01*
X169704738Y-113331675D01*
X169705262Y-112730960D01*
X169475862Y-112175771D01*
X169051463Y-111750630D01*
X168496675Y-111520262D01*
X167895960Y-111519738D01*
X167340771Y-111749138D01*
X166915630Y-112173537D01*
X166906108Y-112196469D01*
X166757060Y-112147545D01*
X165874605Y-113030000D01*
X165515395Y-113030000D01*
X165501253Y-113015858D01*
X165680858Y-112836253D01*
X165695000Y-112850395D01*
X166577455Y-111967940D01*
X166494116Y-111714047D01*
X165929694Y-111508410D01*
X165329542Y-111534421D01*
X164895884Y-111714047D01*
X164812546Y-111967938D01*
X164697914Y-111853306D01*
X164656864Y-111894356D01*
X164534090Y-111703559D01*
X164321890Y-111558569D01*
X164070000Y-111507560D01*
X162320000Y-111507560D01*
X162084683Y-111551838D01*
X161868559Y-111690910D01*
X161723569Y-111903110D01*
X161672560Y-112155000D01*
X158343809Y-112155000D01*
X158343859Y-112098218D01*
X158116192Y-111547220D01*
X157694997Y-111125290D01*
X157694069Y-111124905D01*
X158114710Y-110704997D01*
X158343339Y-110154398D01*
X158343859Y-109558218D01*
X158116192Y-109007220D01*
X157694997Y-108585290D01*
X157694069Y-108584905D01*
X158114710Y-108164997D01*
X158343339Y-107614398D01*
X158343859Y-107018218D01*
X158116192Y-106467220D01*
X157694997Y-106045290D01*
X157694069Y-106044905D01*
X158114710Y-105624997D01*
X158343339Y-105074398D01*
X158343859Y-104478218D01*
X158116192Y-103927220D01*
X157694997Y-103505290D01*
X157694069Y-103504905D01*
X157934392Y-103265000D01*
X161672560Y-103265000D01*
X161672560Y-105015000D01*
X161716838Y-105250317D01*
X161855910Y-105466441D01*
X162068110Y-105611431D01*
X162320000Y-105662440D01*
X164070000Y-105662440D01*
X164305317Y-105618162D01*
X164521441Y-105479090D01*
X164658994Y-105277774D01*
X164697914Y-105316694D01*
X164812546Y-105202062D01*
X164895884Y-105455953D01*
X165460306Y-105661590D01*
X166060458Y-105635579D01*
X166494116Y-105455953D01*
X166577455Y-105202060D01*
X165695000Y-104319605D01*
X165680858Y-104333748D01*
X165501253Y-104154143D01*
X165515395Y-104140000D01*
X165874605Y-104140000D01*
X166757060Y-105022455D01*
X166905648Y-104973682D01*
X166914138Y-104994229D01*
X167338537Y-105419370D01*
X167893325Y-105649738D01*
X168494040Y-105650262D01*
X169049229Y-105420862D01*
X169474370Y-104996463D01*
X169704738Y-104441675D01*
X169705262Y-103840960D01*
X169475862Y-103285771D01*
X169051463Y-102860630D01*
X168496675Y-102630262D01*
X167895960Y-102629738D01*
X167340771Y-102859138D01*
X166915630Y-103283537D01*
X166906108Y-103306469D01*
X166757060Y-103257545D01*
X165874605Y-104140000D01*
X165515395Y-104140000D01*
X165501253Y-104125858D01*
X165680858Y-103946253D01*
X165695000Y-103960395D01*
X166577455Y-103077940D01*
X166494116Y-102824047D01*
X165929694Y-102618410D01*
X165329542Y-102644421D01*
X164895884Y-102824047D01*
X164812546Y-103077938D01*
X164697914Y-102963306D01*
X164656864Y-103004356D01*
X164534090Y-102813559D01*
X164321890Y-102668569D01*
X164070000Y-102617560D01*
X162320000Y-102617560D01*
X162084683Y-102661838D01*
X161868559Y-102800910D01*
X161723569Y-103013110D01*
X161672560Y-103265000D01*
X157934392Y-103265000D01*
X158114710Y-103084997D01*
X158343339Y-102534398D01*
X158343859Y-101938218D01*
X158116192Y-101387220D01*
X157694997Y-100965290D01*
X157694069Y-100964905D01*
X158114710Y-100544997D01*
X158343339Y-99994398D01*
X158343859Y-99398218D01*
X158116192Y-98847220D01*
X157694997Y-98425290D01*
X157694069Y-98424905D01*
X158114710Y-98004997D01*
X158343339Y-97454398D01*
X158343859Y-96858218D01*
X158116192Y-96307220D01*
X157694997Y-95885290D01*
X157694069Y-95884905D01*
X158114710Y-95464997D01*
X158343339Y-94914398D01*
X158343809Y-94375000D01*
X161672560Y-94375000D01*
X161672560Y-96125000D01*
X161716838Y-96360317D01*
X161855910Y-96576441D01*
X162068110Y-96721431D01*
X162320000Y-96772440D01*
X164070000Y-96772440D01*
X164305317Y-96728162D01*
X164521441Y-96589090D01*
X164658994Y-96387774D01*
X164697914Y-96426694D01*
X164812546Y-96312062D01*
X164895884Y-96565953D01*
X165460306Y-96771590D01*
X166060458Y-96745579D01*
X166494116Y-96565953D01*
X166577455Y-96312060D01*
X165695000Y-95429605D01*
X165680858Y-95443748D01*
X165501253Y-95264143D01*
X165515395Y-95250000D01*
X165874605Y-95250000D01*
X166757060Y-96132455D01*
X166905648Y-96083682D01*
X166914138Y-96104229D01*
X167338537Y-96529370D01*
X167893325Y-96759738D01*
X168494040Y-96760262D01*
X169049229Y-96530862D01*
X169474370Y-96106463D01*
X169704738Y-95551675D01*
X169705262Y-94950960D01*
X169475862Y-94395771D01*
X169051463Y-93970630D01*
X168496675Y-93740262D01*
X167895960Y-93739738D01*
X167340771Y-93969138D01*
X166915630Y-94393537D01*
X166906108Y-94416469D01*
X166757060Y-94367545D01*
X165874605Y-95250000D01*
X165515395Y-95250000D01*
X165501253Y-95235858D01*
X165680858Y-95056253D01*
X165695000Y-95070395D01*
X166577455Y-94187940D01*
X166494116Y-93934047D01*
X165929694Y-93728410D01*
X165329542Y-93754421D01*
X164895884Y-93934047D01*
X164812546Y-94187938D01*
X164697914Y-94073306D01*
X164656864Y-94114356D01*
X164534090Y-93923559D01*
X164321890Y-93778569D01*
X164070000Y-93727560D01*
X162320000Y-93727560D01*
X162084683Y-93771838D01*
X161868559Y-93910910D01*
X161723569Y-94123110D01*
X161672560Y-94375000D01*
X158343809Y-94375000D01*
X158343859Y-94318218D01*
X158116192Y-93767220D01*
X157694997Y-93345290D01*
X157694069Y-93344905D01*
X158114710Y-92924997D01*
X158343339Y-92374398D01*
X158343859Y-91778218D01*
X158116192Y-91227220D01*
X157694997Y-90805290D01*
X157654463Y-90788459D01*
X157719200Y-90588805D01*
X156845000Y-89714605D01*
X155970800Y-90588805D01*
X156035399Y-90788033D01*
X155997220Y-90803808D01*
X155575290Y-91225003D01*
X155346661Y-91775602D01*
X155346141Y-92371782D01*
X143103341Y-92371782D01*
X143103859Y-91778218D01*
X142876192Y-91227220D01*
X142454997Y-90805290D01*
X142454069Y-90804905D01*
X142874710Y-90384997D01*
X143103339Y-89834398D01*
X143103802Y-89303030D01*
X155334752Y-89303030D01*
X155360942Y-89898635D01*
X155538484Y-90327259D01*
X155791195Y-90409200D01*
X156665395Y-89535000D01*
X157024605Y-89535000D01*
X157898805Y-90409200D01*
X158151516Y-90327259D01*
X158355248Y-89766970D01*
X158329058Y-89171365D01*
X158151516Y-88742741D01*
X157898805Y-88660800D01*
X157024605Y-89535000D01*
X156665395Y-89535000D01*
X155791195Y-88660800D01*
X155538484Y-88742741D01*
X155334752Y-89303030D01*
X143103802Y-89303030D01*
X143103859Y-89238218D01*
X142876192Y-88687220D01*
X142659475Y-88470124D01*
X142703917Y-88461762D01*
X142920041Y-88322690D01*
X143065031Y-88110490D01*
X143116040Y-87858600D01*
X143116040Y-87291782D01*
X155346141Y-87291782D01*
X155573808Y-87842780D01*
X155995003Y-88264710D01*
X156035537Y-88281541D01*
X155970800Y-88481195D01*
X156845000Y-89355395D01*
X157719200Y-88481195D01*
X157654601Y-88281967D01*
X157692780Y-88266192D01*
X158114710Y-87844997D01*
X158343339Y-87294398D01*
X158343859Y-86698218D01*
X158116192Y-86147220D01*
X157694997Y-85725290D01*
X157144398Y-85496661D01*
X156548218Y-85496141D01*
X155997220Y-85723808D01*
X155575290Y-86145003D01*
X155346661Y-86695602D01*
X155346141Y-87291782D01*
X143116040Y-87291782D01*
X143116040Y-86131400D01*
X143071762Y-85896083D01*
X142932690Y-85679959D01*
X142720490Y-85534969D01*
X142473736Y-85485000D01*
X161672560Y-85485000D01*
X161672560Y-87235000D01*
X161716838Y-87470317D01*
X161855910Y-87686441D01*
X162068110Y-87831431D01*
X162320000Y-87882440D01*
X164070000Y-87882440D01*
X164305317Y-87838162D01*
X164521441Y-87699090D01*
X164658994Y-87497774D01*
X164697914Y-87536694D01*
X164812546Y-87422062D01*
X164895884Y-87675953D01*
X165460306Y-87881590D01*
X166060458Y-87855579D01*
X166494116Y-87675953D01*
X166577455Y-87422060D01*
X165695000Y-86539605D01*
X165680858Y-86553748D01*
X165501253Y-86374143D01*
X165515395Y-86360000D01*
X165874605Y-86360000D01*
X166757060Y-87242455D01*
X166905648Y-87193682D01*
X166914138Y-87214229D01*
X167338537Y-87639370D01*
X167893325Y-87869738D01*
X168494040Y-87870262D01*
X169049229Y-87640862D01*
X169474370Y-87216463D01*
X169704738Y-86661675D01*
X169705262Y-86060960D01*
X169475862Y-85505771D01*
X169051463Y-85080630D01*
X168496675Y-84850262D01*
X167895960Y-84849738D01*
X167340771Y-85079138D01*
X166915630Y-85503537D01*
X166906108Y-85526469D01*
X166757060Y-85477545D01*
X165874605Y-86360000D01*
X165515395Y-86360000D01*
X165501253Y-86345858D01*
X165680858Y-86166253D01*
X165695000Y-86180395D01*
X166577455Y-85297940D01*
X166494116Y-85044047D01*
X165929694Y-84838410D01*
X165329542Y-84864421D01*
X164895884Y-85044047D01*
X164812546Y-85297938D01*
X164697914Y-85183306D01*
X164656864Y-85224356D01*
X164534090Y-85033559D01*
X164321890Y-84888569D01*
X164070000Y-84837560D01*
X162320000Y-84837560D01*
X162084683Y-84881838D01*
X161868559Y-85020910D01*
X161723569Y-85233110D01*
X161672560Y-85485000D01*
X142473736Y-85485000D01*
X142468600Y-85483960D01*
X140741400Y-85483960D01*
X140506083Y-85528238D01*
X140289959Y-85667310D01*
X140144969Y-85879510D01*
X140093960Y-86131400D01*
X136685200Y-86131400D01*
X136685262Y-86060960D01*
X136455862Y-85505771D01*
X136031463Y-85080630D01*
X135476675Y-84850262D01*
X134875960Y-84849738D01*
X134320771Y-85079138D01*
X133895630Y-85503537D01*
X133886108Y-85526469D01*
X133737060Y-85477545D01*
X132854605Y-86360000D01*
X132495395Y-86360000D01*
X132481253Y-86345858D01*
X132660858Y-86166253D01*
X132675000Y-86180395D01*
X133557455Y-85297940D01*
X133474116Y-85044047D01*
X132909694Y-84838410D01*
X132309542Y-84864421D01*
X131875884Y-85044047D01*
X131792546Y-85297938D01*
X131677914Y-85183306D01*
X131636864Y-85224356D01*
X131514090Y-85033559D01*
X131301890Y-84888569D01*
X131050000Y-84837560D01*
X129300000Y-84837560D01*
X129064683Y-84881838D01*
X128848559Y-85020910D01*
X128703569Y-85233110D01*
X128652560Y-85485000D01*
X125005128Y-85485000D01*
X124601463Y-85080630D01*
X124046675Y-84850262D01*
X123445960Y-84849738D01*
X122890771Y-85079138D01*
X122465630Y-85503537D01*
X122456108Y-85526469D01*
X122307060Y-85477545D01*
X121424605Y-86360000D01*
X121065395Y-86360000D01*
X121051253Y-86345858D01*
X121230858Y-86166253D01*
X121245000Y-86180395D01*
X122127455Y-85297940D01*
X122044116Y-85044047D01*
X121479694Y-84838410D01*
X120879542Y-84864421D01*
X120445884Y-85044047D01*
X120362546Y-85297938D01*
X120247914Y-85183306D01*
X120206864Y-85224356D01*
X120084090Y-85033559D01*
X119871890Y-84888569D01*
X119620000Y-84837560D01*
X117870000Y-84837560D01*
X117634683Y-84881838D01*
X117418559Y-85020910D01*
X117273569Y-85233110D01*
X117222560Y-85485000D01*
X114427000Y-85485000D01*
X114427000Y-83237606D01*
X114987606Y-82677000D01*
X172032394Y-82677000D01*
X172593000Y-83237606D01*
X172593000Y-83237606D01*
G37*
X172593000Y-83237606D02*
X172593000Y-126947394D01*
X172032394Y-127508000D01*
X114987606Y-127508000D01*
X114427000Y-126947394D01*
X114427000Y-121252655D01*
X132334000Y-121252655D01*
X132334000Y-121317345D01*
X132459675Y-121949155D01*
X132817567Y-122484778D01*
X133353190Y-122842670D01*
X133985000Y-122968345D01*
X134616810Y-122842670D01*
X134956792Y-122615501D01*
X135044910Y-122752441D01*
X135257110Y-122897431D01*
X135509000Y-122948440D01*
X137541000Y-122948440D01*
X137776317Y-122904162D01*
X137992441Y-122765090D01*
X138137431Y-122552890D01*
X138188440Y-122301000D01*
X138188440Y-120269000D01*
X138144162Y-120033683D01*
X138005090Y-119817559D01*
X137792890Y-119672569D01*
X137541000Y-119621560D01*
X135509000Y-119621560D01*
X135273683Y-119665838D01*
X135057559Y-119804910D01*
X134955802Y-119953837D01*
X134616810Y-119727330D01*
X133985000Y-119601655D01*
X133353190Y-119727330D01*
X132817567Y-120085222D01*
X132459675Y-120620845D01*
X132334000Y-121252655D01*
X114427000Y-121252655D01*
X114427000Y-112155000D01*
X117222560Y-112155000D01*
X117222560Y-113905000D01*
X117266838Y-114140317D01*
X117405910Y-114356441D01*
X117618110Y-114501431D01*
X117870000Y-114552440D01*
X119620000Y-114552440D01*
X119855317Y-114508162D01*
X120071441Y-114369090D01*
X120208994Y-114167774D01*
X120247914Y-114206694D01*
X120362546Y-114092062D01*
X120445884Y-114345953D01*
X121010306Y-114551590D01*
X121610458Y-114525579D01*
X122044116Y-114345953D01*
X122127455Y-114092060D01*
X121245000Y-113209605D01*
X121230858Y-113223748D01*
X121051253Y-113044143D01*
X121065395Y-113030000D01*
X121424605Y-113030000D01*
X122307060Y-113912455D01*
X122455648Y-113863682D01*
X122464138Y-113884229D01*
X122888537Y-114309370D01*
X123443325Y-114539738D01*
X124044040Y-114540262D01*
X124599229Y-114310862D01*
X125024370Y-113886463D01*
X125254738Y-113331675D01*
X125255262Y-112730960D01*
X125025862Y-112175771D01*
X125005128Y-112155000D01*
X128652560Y-112155000D01*
X128652560Y-113905000D01*
X128696838Y-114140317D01*
X128835910Y-114356441D01*
X129048110Y-114501431D01*
X129300000Y-114552440D01*
X131050000Y-114552440D01*
X131285317Y-114508162D01*
X131501441Y-114369090D01*
X131638994Y-114167774D01*
X131677914Y-114206694D01*
X131792546Y-114092062D01*
X131875884Y-114345953D01*
X132440306Y-114551590D01*
X133040458Y-114525579D01*
X133474116Y-114345953D01*
X133557455Y-114092060D01*
X132675000Y-113209605D01*
X132660858Y-113223748D01*
X132481253Y-113044143D01*
X132495395Y-113030000D01*
X132854605Y-113030000D01*
X133737060Y-113912455D01*
X133885648Y-113863682D01*
X133894138Y-113884229D01*
X134318537Y-114309370D01*
X134873325Y-114539738D01*
X135474040Y-114540262D01*
X136029229Y-114310862D01*
X136454370Y-113886463D01*
X136684738Y-113331675D01*
X136685262Y-112730960D01*
X136455862Y-112175771D01*
X136031463Y-111750630D01*
X135476675Y-111520262D01*
X134875960Y-111519738D01*
X134320771Y-111749138D01*
X133895630Y-112173537D01*
X133886108Y-112196469D01*
X133737060Y-112147545D01*
X132854605Y-113030000D01*
X132495395Y-113030000D01*
X132481253Y-113015858D01*
X132660858Y-112836253D01*
X132675000Y-112850395D01*
X133557455Y-111967940D01*
X133474116Y-111714047D01*
X132909694Y-111508410D01*
X132309542Y-111534421D01*
X131875884Y-111714047D01*
X131792546Y-111967938D01*
X131677914Y-111853306D01*
X131636864Y-111894356D01*
X131514090Y-111703559D01*
X131301890Y-111558569D01*
X131050000Y-111507560D01*
X129300000Y-111507560D01*
X129064683Y-111551838D01*
X128848559Y-111690910D01*
X128703569Y-111903110D01*
X128652560Y-112155000D01*
X125005128Y-112155000D01*
X124601463Y-111750630D01*
X124046675Y-111520262D01*
X123445960Y-111519738D01*
X122890771Y-111749138D01*
X122465630Y-112173537D01*
X122456108Y-112196469D01*
X122307060Y-112147545D01*
X121424605Y-113030000D01*
X121065395Y-113030000D01*
X121051253Y-113015858D01*
X121230858Y-112836253D01*
X121245000Y-112850395D01*
X122127455Y-111967940D01*
X122044116Y-111714047D01*
X121479694Y-111508410D01*
X120879542Y-111534421D01*
X120445884Y-111714047D01*
X120362546Y-111967938D01*
X120247914Y-111853306D01*
X120206864Y-111894356D01*
X120084090Y-111703559D01*
X119871890Y-111558569D01*
X119620000Y-111507560D01*
X117870000Y-111507560D01*
X117634683Y-111551838D01*
X117418559Y-111690910D01*
X117273569Y-111903110D01*
X117222560Y-112155000D01*
X114427000Y-112155000D01*
X114427000Y-103265000D01*
X117222560Y-103265000D01*
X117222560Y-105015000D01*
X117266838Y-105250317D01*
X117405910Y-105466441D01*
X117618110Y-105611431D01*
X117870000Y-105662440D01*
X119620000Y-105662440D01*
X119855317Y-105618162D01*
X120071441Y-105479090D01*
X120208994Y-105277774D01*
X120247914Y-105316694D01*
X120362546Y-105202062D01*
X120445884Y-105455953D01*
X121010306Y-105661590D01*
X121610458Y-105635579D01*
X122044116Y-105455953D01*
X122127455Y-105202060D01*
X121245000Y-104319605D01*
X121230858Y-104333748D01*
X121051253Y-104154143D01*
X121065395Y-104140000D01*
X121424605Y-104140000D01*
X122307060Y-105022455D01*
X122455648Y-104973682D01*
X122464138Y-104994229D01*
X122888537Y-105419370D01*
X123443325Y-105649738D01*
X124044040Y-105650262D01*
X124599229Y-105420862D01*
X125024370Y-104996463D01*
X125254738Y-104441675D01*
X125255262Y-103840960D01*
X125025862Y-103285771D01*
X125005128Y-103265000D01*
X128652560Y-103265000D01*
X128652560Y-105015000D01*
X128696838Y-105250317D01*
X128835910Y-105466441D01*
X129048110Y-105611431D01*
X129300000Y-105662440D01*
X131050000Y-105662440D01*
X131285317Y-105618162D01*
X131501441Y-105479090D01*
X131638994Y-105277774D01*
X131677914Y-105316694D01*
X131792546Y-105202062D01*
X131875884Y-105455953D01*
X132440306Y-105661590D01*
X133040458Y-105635579D01*
X133474116Y-105455953D01*
X133557455Y-105202060D01*
X132675000Y-104319605D01*
X132660858Y-104333748D01*
X132481253Y-104154143D01*
X132495395Y-104140000D01*
X132854605Y-104140000D01*
X133737060Y-105022455D01*
X133885648Y-104973682D01*
X133894138Y-104994229D01*
X134318537Y-105419370D01*
X134873325Y-105649738D01*
X135474040Y-105650262D01*
X136029229Y-105420862D01*
X136454370Y-104996463D01*
X136684738Y-104441675D01*
X136685262Y-103840960D01*
X136455862Y-103285771D01*
X136031463Y-102860630D01*
X135476675Y-102630262D01*
X134875960Y-102629738D01*
X134320771Y-102859138D01*
X133895630Y-103283537D01*
X133886108Y-103306469D01*
X133737060Y-103257545D01*
X132854605Y-104140000D01*
X132495395Y-104140000D01*
X132481253Y-104125858D01*
X132660858Y-103946253D01*
X132675000Y-103960395D01*
X133557455Y-103077940D01*
X133474116Y-102824047D01*
X132909694Y-102618410D01*
X132309542Y-102644421D01*
X131875884Y-102824047D01*
X131792546Y-103077938D01*
X131677914Y-102963306D01*
X131636864Y-103004356D01*
X131514090Y-102813559D01*
X131301890Y-102668569D01*
X131050000Y-102617560D01*
X129300000Y-102617560D01*
X129064683Y-102661838D01*
X128848559Y-102800910D01*
X128703569Y-103013110D01*
X128652560Y-103265000D01*
X125005128Y-103265000D01*
X124601463Y-102860630D01*
X124046675Y-102630262D01*
X123445960Y-102629738D01*
X122890771Y-102859138D01*
X122465630Y-103283537D01*
X122456108Y-103306469D01*
X122307060Y-103257545D01*
X121424605Y-104140000D01*
X121065395Y-104140000D01*
X121051253Y-104125858D01*
X121230858Y-103946253D01*
X121245000Y-103960395D01*
X122127455Y-103077940D01*
X122044116Y-102824047D01*
X121479694Y-102618410D01*
X120879542Y-102644421D01*
X120445884Y-102824047D01*
X120362546Y-103077938D01*
X120247914Y-102963306D01*
X120206864Y-103004356D01*
X120084090Y-102813559D01*
X119871890Y-102668569D01*
X119620000Y-102617560D01*
X117870000Y-102617560D01*
X117634683Y-102661838D01*
X117418559Y-102800910D01*
X117273569Y-103013110D01*
X117222560Y-103265000D01*
X114427000Y-103265000D01*
X114427000Y-97451782D01*
X140106141Y-97451782D01*
X140333808Y-98002780D01*
X140755003Y-98424710D01*
X140755931Y-98425095D01*
X140335290Y-98845003D01*
X140106661Y-99395602D01*
X140106141Y-99991782D01*
X140333808Y-100542780D01*
X140755003Y-100964710D01*
X140755931Y-100965095D01*
X140335290Y-101385003D01*
X140106661Y-101935602D01*
X140106141Y-102531782D01*
X140333808Y-103082780D01*
X140755003Y-103504710D01*
X140755931Y-103505095D01*
X140335290Y-103925003D01*
X140106661Y-104475602D01*
X140106141Y-105071782D01*
X140333808Y-105622780D01*
X140755003Y-106044710D01*
X140755931Y-106045095D01*
X140335290Y-106465003D01*
X140106661Y-107015602D01*
X140106141Y-107611782D01*
X140333808Y-108162780D01*
X140755003Y-108584710D01*
X140755931Y-108585095D01*
X140335290Y-109005003D01*
X140106661Y-109555602D01*
X140106141Y-110151782D01*
X140333808Y-110702780D01*
X140755003Y-111124710D01*
X140755931Y-111125095D01*
X140335290Y-111545003D01*
X140106661Y-112095602D01*
X140106141Y-112691782D01*
X140333808Y-113242780D01*
X140755003Y-113664710D01*
X140755931Y-113665095D01*
X140335290Y-114085003D01*
X140106661Y-114635602D01*
X140106141Y-115231782D01*
X140333808Y-115782780D01*
X140755003Y-116204710D01*
X140755931Y-116205095D01*
X140335290Y-116625003D01*
X140106661Y-117175602D01*
X140106141Y-117771782D01*
X140333808Y-118322780D01*
X140755003Y-118744710D01*
X140755931Y-118745095D01*
X140335290Y-119165003D01*
X140106661Y-119715602D01*
X140106141Y-120311782D01*
X140333808Y-120862780D01*
X140755003Y-121284710D01*
X140755931Y-121285095D01*
X140335290Y-121705003D01*
X140106661Y-122255602D01*
X140106141Y-122851782D01*
X140333808Y-123402780D01*
X140755003Y-123824710D01*
X141305602Y-124053339D01*
X141901782Y-124053859D01*
X142452780Y-123826192D01*
X142874710Y-123404997D01*
X143103339Y-122854398D01*
X143103859Y-122258218D01*
X142876192Y-121707220D01*
X142454997Y-121285290D01*
X142454069Y-121284905D01*
X142874710Y-120864997D01*
X143103339Y-120314398D01*
X143103859Y-119718218D01*
X142876192Y-119167220D01*
X142454997Y-118745290D01*
X142454069Y-118744905D01*
X142874710Y-118324997D01*
X143103339Y-117774398D01*
X143103859Y-117178218D01*
X142876192Y-116627220D01*
X142454997Y-116205290D01*
X142454069Y-116204905D01*
X142874710Y-115784997D01*
X143103339Y-115234398D01*
X143103859Y-114638218D01*
X142876192Y-114087220D01*
X142454997Y-113665290D01*
X142454069Y-113664905D01*
X142874710Y-113244997D01*
X143103339Y-112694398D01*
X143103859Y-112098218D01*
X142876192Y-111547220D01*
X142454997Y-111125290D01*
X142454069Y-111124905D01*
X142874710Y-110704997D01*
X143103339Y-110154398D01*
X143103859Y-109558218D01*
X142876192Y-109007220D01*
X142454997Y-108585290D01*
X142454069Y-108584905D01*
X142874710Y-108164997D01*
X143103339Y-107614398D01*
X143103859Y-107018218D01*
X142876192Y-106467220D01*
X142454997Y-106045290D01*
X142454069Y-106044905D01*
X142874710Y-105624997D01*
X143103339Y-105074398D01*
X143103859Y-104478218D01*
X142876192Y-103927220D01*
X142454997Y-103505290D01*
X142454069Y-103504905D01*
X142874710Y-103084997D01*
X143103339Y-102534398D01*
X143103859Y-101938218D01*
X142876192Y-101387220D01*
X142454997Y-100965290D01*
X142454069Y-100964905D01*
X142874710Y-100544997D01*
X143103339Y-99994398D01*
X143103859Y-99398218D01*
X142876192Y-98847220D01*
X142454997Y-98425290D01*
X142454069Y-98424905D01*
X142874710Y-98004997D01*
X143103339Y-97454398D01*
X143103859Y-96858218D01*
X142876192Y-96307220D01*
X142454997Y-95885290D01*
X142414463Y-95868459D01*
X142479200Y-95668805D01*
X141605000Y-94794605D01*
X140730800Y-95668805D01*
X140795399Y-95868033D01*
X140757220Y-95883808D01*
X140335290Y-96305003D01*
X140106661Y-96855602D01*
X140106141Y-97451782D01*
X114427000Y-97451782D01*
X114427000Y-94375000D01*
X117222560Y-94375000D01*
X117222560Y-96125000D01*
X117266838Y-96360317D01*
X117405910Y-96576441D01*
X117618110Y-96721431D01*
X117870000Y-96772440D01*
X119620000Y-96772440D01*
X119855317Y-96728162D01*
X120071441Y-96589090D01*
X120208994Y-96387774D01*
X120247914Y-96426694D01*
X120362546Y-96312062D01*
X120445884Y-96565953D01*
X121010306Y-96771590D01*
X121610458Y-96745579D01*
X122044116Y-96565953D01*
X122127455Y-96312060D01*
X121245000Y-95429605D01*
X121230858Y-95443748D01*
X121051253Y-95264143D01*
X121065395Y-95250000D01*
X121424605Y-95250000D01*
X122307060Y-96132455D01*
X122455648Y-96083682D01*
X122464138Y-96104229D01*
X122888537Y-96529370D01*
X123443325Y-96759738D01*
X124044040Y-96760262D01*
X124599229Y-96530862D01*
X125024370Y-96106463D01*
X125254738Y-95551675D01*
X125255262Y-94950960D01*
X125025862Y-94395771D01*
X125005128Y-94375000D01*
X128652560Y-94375000D01*
X128652560Y-96125000D01*
X128696838Y-96360317D01*
X128835910Y-96576441D01*
X129048110Y-96721431D01*
X129300000Y-96772440D01*
X131050000Y-96772440D01*
X131285317Y-96728162D01*
X131501441Y-96589090D01*
X131638994Y-96387774D01*
X131677914Y-96426694D01*
X131792546Y-96312062D01*
X131875884Y-96565953D01*
X132440306Y-96771590D01*
X133040458Y-96745579D01*
X133474116Y-96565953D01*
X133557455Y-96312060D01*
X132675000Y-95429605D01*
X132660858Y-95443748D01*
X132481253Y-95264143D01*
X132495395Y-95250000D01*
X132854605Y-95250000D01*
X133737060Y-96132455D01*
X133885648Y-96083682D01*
X133894138Y-96104229D01*
X134318537Y-96529370D01*
X134873325Y-96759738D01*
X135474040Y-96760262D01*
X136029229Y-96530862D01*
X136454370Y-96106463D01*
X136684738Y-95551675D01*
X136685262Y-94950960D01*
X136455862Y-94395771D01*
X136443144Y-94383030D01*
X140094752Y-94383030D01*
X140120942Y-94978635D01*
X140298484Y-95407259D01*
X140551195Y-95489200D01*
X141425395Y-94615000D01*
X141784605Y-94615000D01*
X142658805Y-95489200D01*
X142911516Y-95407259D01*
X143115248Y-94846970D01*
X143089058Y-94251365D01*
X142911516Y-93822741D01*
X142658805Y-93740800D01*
X141784605Y-94615000D01*
X141425395Y-94615000D01*
X140551195Y-93740800D01*
X140298484Y-93822741D01*
X140094752Y-94383030D01*
X136443144Y-94383030D01*
X136031463Y-93970630D01*
X135476675Y-93740262D01*
X134875960Y-93739738D01*
X134320771Y-93969138D01*
X133895630Y-94393537D01*
X133886108Y-94416469D01*
X133737060Y-94367545D01*
X132854605Y-95250000D01*
X132495395Y-95250000D01*
X132481253Y-95235858D01*
X132660858Y-95056253D01*
X132675000Y-95070395D01*
X133557455Y-94187940D01*
X133474116Y-93934047D01*
X132909694Y-93728410D01*
X132309542Y-93754421D01*
X131875884Y-93934047D01*
X131792546Y-94187938D01*
X131677914Y-94073306D01*
X131636864Y-94114356D01*
X131514090Y-93923559D01*
X131301890Y-93778569D01*
X131050000Y-93727560D01*
X129300000Y-93727560D01*
X129064683Y-93771838D01*
X128848559Y-93910910D01*
X128703569Y-94123110D01*
X128652560Y-94375000D01*
X125005128Y-94375000D01*
X124601463Y-93970630D01*
X124046675Y-93740262D01*
X123445960Y-93739738D01*
X122890771Y-93969138D01*
X122465630Y-94393537D01*
X122456108Y-94416469D01*
X122307060Y-94367545D01*
X121424605Y-95250000D01*
X121065395Y-95250000D01*
X121051253Y-95235858D01*
X121230858Y-95056253D01*
X121245000Y-95070395D01*
X122127455Y-94187940D01*
X122044116Y-93934047D01*
X121479694Y-93728410D01*
X120879542Y-93754421D01*
X120445884Y-93934047D01*
X120362546Y-94187938D01*
X120247914Y-94073306D01*
X120206864Y-94114356D01*
X120084090Y-93923559D01*
X119871890Y-93778569D01*
X119620000Y-93727560D01*
X117870000Y-93727560D01*
X117634683Y-93771838D01*
X117418559Y-93910910D01*
X117273569Y-94123110D01*
X117222560Y-94375000D01*
X114427000Y-94375000D01*
X114427000Y-85485000D01*
X117222560Y-85485000D01*
X117222560Y-87235000D01*
X117266838Y-87470317D01*
X117405910Y-87686441D01*
X117618110Y-87831431D01*
X117870000Y-87882440D01*
X119620000Y-87882440D01*
X119855317Y-87838162D01*
X120071441Y-87699090D01*
X120208994Y-87497774D01*
X120247914Y-87536694D01*
X120362546Y-87422062D01*
X120445884Y-87675953D01*
X121010306Y-87881590D01*
X121610458Y-87855579D01*
X122044116Y-87675953D01*
X122127455Y-87422060D01*
X121245000Y-86539605D01*
X121230858Y-86553748D01*
X121051253Y-86374143D01*
X121065395Y-86360000D01*
X121424605Y-86360000D01*
X122307060Y-87242455D01*
X122455648Y-87193682D01*
X122464138Y-87214229D01*
X122888537Y-87639370D01*
X123443325Y-87869738D01*
X124044040Y-87870262D01*
X124599229Y-87640862D01*
X125024370Y-87216463D01*
X125254738Y-86661675D01*
X125255262Y-86060960D01*
X125025862Y-85505771D01*
X125005128Y-85485000D01*
X128652560Y-85485000D01*
X128652560Y-87235000D01*
X128696838Y-87470317D01*
X128835910Y-87686441D01*
X129048110Y-87831431D01*
X129300000Y-87882440D01*
X131050000Y-87882440D01*
X131285317Y-87838162D01*
X131501441Y-87699090D01*
X131638994Y-87497774D01*
X131677914Y-87536694D01*
X131792546Y-87422062D01*
X131875884Y-87675953D01*
X132440306Y-87881590D01*
X133040458Y-87855579D01*
X133474116Y-87675953D01*
X133557455Y-87422060D01*
X132675000Y-86539605D01*
X132660858Y-86553748D01*
X132481253Y-86374143D01*
X132495395Y-86360000D01*
X132854605Y-86360000D01*
X133737060Y-87242455D01*
X133885648Y-87193682D01*
X133894138Y-87214229D01*
X134318537Y-87639370D01*
X134873325Y-87869738D01*
X135474040Y-87870262D01*
X136029229Y-87640862D01*
X136454370Y-87216463D01*
X136684738Y-86661675D01*
X136685200Y-86131400D01*
X140093960Y-86131400D01*
X140093960Y-87858600D01*
X140138238Y-88093917D01*
X140277310Y-88310041D01*
X140489510Y-88455031D01*
X140552820Y-88467852D01*
X140335290Y-88685003D01*
X140106661Y-89235602D01*
X140106141Y-89831782D01*
X140333808Y-90382780D01*
X140755003Y-90804710D01*
X140755931Y-90805095D01*
X140335290Y-91225003D01*
X140106661Y-91775602D01*
X140106141Y-92371782D01*
X140333808Y-92922780D01*
X140755003Y-93344710D01*
X140795537Y-93361541D01*
X140730800Y-93561195D01*
X141605000Y-94435395D01*
X142479200Y-93561195D01*
X142414601Y-93361967D01*
X142452780Y-93346192D01*
X142874710Y-92924997D01*
X143103339Y-92374398D01*
X143103341Y-92371782D01*
X155346141Y-92371782D01*
X155573808Y-92922780D01*
X155995003Y-93344710D01*
X155995931Y-93345095D01*
X155575290Y-93765003D01*
X155346661Y-94315602D01*
X155346141Y-94911782D01*
X155573808Y-95462780D01*
X155995003Y-95884710D01*
X155995931Y-95885095D01*
X155575290Y-96305003D01*
X155346661Y-96855602D01*
X155346141Y-97451782D01*
X155573808Y-98002780D01*
X155995003Y-98424710D01*
X155995931Y-98425095D01*
X155575290Y-98845003D01*
X155346661Y-99395602D01*
X155346141Y-99991782D01*
X155573808Y-100542780D01*
X155995003Y-100964710D01*
X155995931Y-100965095D01*
X155575290Y-101385003D01*
X155346661Y-101935602D01*
X155346141Y-102531782D01*
X155573808Y-103082780D01*
X155995003Y-103504710D01*
X155995931Y-103505095D01*
X155575290Y-103925003D01*
X155346661Y-104475602D01*
X155346141Y-105071782D01*
X155573808Y-105622780D01*
X155995003Y-106044710D01*
X155995931Y-106045095D01*
X155575290Y-106465003D01*
X155346661Y-107015602D01*
X155346141Y-107611782D01*
X155573808Y-108162780D01*
X155995003Y-108584710D01*
X155995931Y-108585095D01*
X155575290Y-109005003D01*
X155346661Y-109555602D01*
X155346141Y-110151782D01*
X155573808Y-110702780D01*
X155995003Y-111124710D01*
X155995931Y-111125095D01*
X155575290Y-111545003D01*
X155346661Y-112095602D01*
X155346141Y-112691782D01*
X155573808Y-113242780D01*
X155995003Y-113664710D01*
X155995931Y-113665095D01*
X155575290Y-114085003D01*
X155346661Y-114635602D01*
X155346141Y-115231782D01*
X155573808Y-115782780D01*
X155995003Y-116204710D01*
X155995931Y-116205095D01*
X155575290Y-116625003D01*
X155346661Y-117175602D01*
X155346141Y-117771782D01*
X155573808Y-118322780D01*
X155995003Y-118744710D01*
X155995931Y-118745095D01*
X155575290Y-119165003D01*
X155346661Y-119715602D01*
X155346141Y-120311782D01*
X155573808Y-120862780D01*
X155995003Y-121284710D01*
X155995931Y-121285095D01*
X155575290Y-121705003D01*
X155346661Y-122255602D01*
X155346141Y-122851782D01*
X155573808Y-123402780D01*
X155995003Y-123824710D01*
X156545602Y-124053339D01*
X157141782Y-124053859D01*
X157692780Y-123826192D01*
X158114710Y-123404997D01*
X158343339Y-122854398D01*
X158343859Y-122258218D01*
X158204111Y-121920000D01*
X161277560Y-121920000D01*
X161277560Y-124460000D01*
X161321838Y-124695317D01*
X161460910Y-124911441D01*
X161673110Y-125056431D01*
X161925000Y-125107440D01*
X164465000Y-125107440D01*
X164700317Y-125063162D01*
X164916441Y-124924090D01*
X165061431Y-124711890D01*
X165096689Y-124537777D01*
X167106828Y-124537777D01*
X167238520Y-124832657D01*
X167946036Y-125104261D01*
X168703632Y-125084436D01*
X169311480Y-124832657D01*
X169443172Y-124537777D01*
X168275000Y-123369605D01*
X167106828Y-124537777D01*
X165096689Y-124537777D01*
X165112440Y-124460000D01*
X165112440Y-122861036D01*
X166360739Y-122861036D01*
X166380564Y-123618632D01*
X166632343Y-124226480D01*
X166927223Y-124358172D01*
X168095395Y-123190000D01*
X168454605Y-123190000D01*
X169622777Y-124358172D01*
X169917657Y-124226480D01*
X170189261Y-123518964D01*
X170169436Y-122761368D01*
X169917657Y-122153520D01*
X169622777Y-122021828D01*
X168454605Y-123190000D01*
X168095395Y-123190000D01*
X166927223Y-122021828D01*
X166632343Y-122153520D01*
X166360739Y-122861036D01*
X165112440Y-122861036D01*
X165112440Y-121920000D01*
X165097806Y-121842223D01*
X167106828Y-121842223D01*
X168275000Y-123010395D01*
X169443172Y-121842223D01*
X169311480Y-121547343D01*
X168603964Y-121275739D01*
X167846368Y-121295564D01*
X167238520Y-121547343D01*
X167106828Y-121842223D01*
X165097806Y-121842223D01*
X165068162Y-121684683D01*
X164929090Y-121468559D01*
X164716890Y-121323569D01*
X164465000Y-121272560D01*
X161925000Y-121272560D01*
X161689683Y-121316838D01*
X161473559Y-121455910D01*
X161328569Y-121668110D01*
X161277560Y-121920000D01*
X158204111Y-121920000D01*
X158116192Y-121707220D01*
X157694997Y-121285290D01*
X157694069Y-121284905D01*
X158114710Y-120864997D01*
X158343339Y-120314398D01*
X158343859Y-119718218D01*
X158116192Y-119167220D01*
X157694997Y-118745290D01*
X157694069Y-118744905D01*
X158114710Y-118324997D01*
X158343339Y-117774398D01*
X158343859Y-117178218D01*
X158116192Y-116627220D01*
X157694997Y-116205290D01*
X157694069Y-116204905D01*
X158114710Y-115784997D01*
X158343339Y-115234398D01*
X158343859Y-114638218D01*
X158116192Y-114087220D01*
X157694997Y-113665290D01*
X157694069Y-113664905D01*
X158114710Y-113244997D01*
X158343339Y-112694398D01*
X158343809Y-112155000D01*
X161672560Y-112155000D01*
X161672560Y-113905000D01*
X161716838Y-114140317D01*
X161855910Y-114356441D01*
X162068110Y-114501431D01*
X162320000Y-114552440D01*
X164070000Y-114552440D01*
X164305317Y-114508162D01*
X164521441Y-114369090D01*
X164658994Y-114167774D01*
X164697914Y-114206694D01*
X164812546Y-114092062D01*
X164895884Y-114345953D01*
X165460306Y-114551590D01*
X166060458Y-114525579D01*
X166494116Y-114345953D01*
X166577455Y-114092060D01*
X165695000Y-113209605D01*
X165680858Y-113223748D01*
X165501253Y-113044143D01*
X165515395Y-113030000D01*
X165874605Y-113030000D01*
X166757060Y-113912455D01*
X166905648Y-113863682D01*
X166914138Y-113884229D01*
X167338537Y-114309370D01*
X167893325Y-114539738D01*
X168494040Y-114540262D01*
X169049229Y-114310862D01*
X169474370Y-113886463D01*
X169704738Y-113331675D01*
X169705262Y-112730960D01*
X169475862Y-112175771D01*
X169051463Y-111750630D01*
X168496675Y-111520262D01*
X167895960Y-111519738D01*
X167340771Y-111749138D01*
X166915630Y-112173537D01*
X166906108Y-112196469D01*
X166757060Y-112147545D01*
X165874605Y-113030000D01*
X165515395Y-113030000D01*
X165501253Y-113015858D01*
X165680858Y-112836253D01*
X165695000Y-112850395D01*
X166577455Y-111967940D01*
X166494116Y-111714047D01*
X165929694Y-111508410D01*
X165329542Y-111534421D01*
X164895884Y-111714047D01*
X164812546Y-111967938D01*
X164697914Y-111853306D01*
X164656864Y-111894356D01*
X164534090Y-111703559D01*
X164321890Y-111558569D01*
X164070000Y-111507560D01*
X162320000Y-111507560D01*
X162084683Y-111551838D01*
X161868559Y-111690910D01*
X161723569Y-111903110D01*
X161672560Y-112155000D01*
X158343809Y-112155000D01*
X158343859Y-112098218D01*
X158116192Y-111547220D01*
X157694997Y-111125290D01*
X157694069Y-111124905D01*
X158114710Y-110704997D01*
X158343339Y-110154398D01*
X158343859Y-109558218D01*
X158116192Y-109007220D01*
X157694997Y-108585290D01*
X157694069Y-108584905D01*
X158114710Y-108164997D01*
X158343339Y-107614398D01*
X158343859Y-107018218D01*
X158116192Y-106467220D01*
X157694997Y-106045290D01*
X157694069Y-106044905D01*
X158114710Y-105624997D01*
X158343339Y-105074398D01*
X158343859Y-104478218D01*
X158116192Y-103927220D01*
X157694997Y-103505290D01*
X157694069Y-103504905D01*
X157934392Y-103265000D01*
X161672560Y-103265000D01*
X161672560Y-105015000D01*
X161716838Y-105250317D01*
X161855910Y-105466441D01*
X162068110Y-105611431D01*
X162320000Y-105662440D01*
X164070000Y-105662440D01*
X164305317Y-105618162D01*
X164521441Y-105479090D01*
X164658994Y-105277774D01*
X164697914Y-105316694D01*
X164812546Y-105202062D01*
X164895884Y-105455953D01*
X165460306Y-105661590D01*
X166060458Y-105635579D01*
X166494116Y-105455953D01*
X166577455Y-105202060D01*
X165695000Y-104319605D01*
X165680858Y-104333748D01*
X165501253Y-104154143D01*
X165515395Y-104140000D01*
X165874605Y-104140000D01*
X166757060Y-105022455D01*
X166905648Y-104973682D01*
X166914138Y-104994229D01*
X167338537Y-105419370D01*
X167893325Y-105649738D01*
X168494040Y-105650262D01*
X169049229Y-105420862D01*
X169474370Y-104996463D01*
X169704738Y-104441675D01*
X169705262Y-103840960D01*
X169475862Y-103285771D01*
X169051463Y-102860630D01*
X168496675Y-102630262D01*
X167895960Y-102629738D01*
X167340771Y-102859138D01*
X166915630Y-103283537D01*
X166906108Y-103306469D01*
X166757060Y-103257545D01*
X165874605Y-104140000D01*
X165515395Y-104140000D01*
X165501253Y-104125858D01*
X165680858Y-103946253D01*
X165695000Y-103960395D01*
X166577455Y-103077940D01*
X166494116Y-102824047D01*
X165929694Y-102618410D01*
X165329542Y-102644421D01*
X164895884Y-102824047D01*
X164812546Y-103077938D01*
X164697914Y-102963306D01*
X164656864Y-103004356D01*
X164534090Y-102813559D01*
X164321890Y-102668569D01*
X164070000Y-102617560D01*
X162320000Y-102617560D01*
X162084683Y-102661838D01*
X161868559Y-102800910D01*
X161723569Y-103013110D01*
X161672560Y-103265000D01*
X157934392Y-103265000D01*
X158114710Y-103084997D01*
X158343339Y-102534398D01*
X158343859Y-101938218D01*
X158116192Y-101387220D01*
X157694997Y-100965290D01*
X157694069Y-100964905D01*
X158114710Y-100544997D01*
X158343339Y-99994398D01*
X158343859Y-99398218D01*
X158116192Y-98847220D01*
X157694997Y-98425290D01*
X157694069Y-98424905D01*
X158114710Y-98004997D01*
X158343339Y-97454398D01*
X158343859Y-96858218D01*
X158116192Y-96307220D01*
X157694997Y-95885290D01*
X157694069Y-95884905D01*
X158114710Y-95464997D01*
X158343339Y-94914398D01*
X158343809Y-94375000D01*
X161672560Y-94375000D01*
X161672560Y-96125000D01*
X161716838Y-96360317D01*
X161855910Y-96576441D01*
X162068110Y-96721431D01*
X162320000Y-96772440D01*
X164070000Y-96772440D01*
X164305317Y-96728162D01*
X164521441Y-96589090D01*
X164658994Y-96387774D01*
X164697914Y-96426694D01*
X164812546Y-96312062D01*
X164895884Y-96565953D01*
X165460306Y-96771590D01*
X166060458Y-96745579D01*
X166494116Y-96565953D01*
X166577455Y-96312060D01*
X165695000Y-95429605D01*
X165680858Y-95443748D01*
X165501253Y-95264143D01*
X165515395Y-95250000D01*
X165874605Y-95250000D01*
X166757060Y-96132455D01*
X166905648Y-96083682D01*
X166914138Y-96104229D01*
X167338537Y-96529370D01*
X167893325Y-96759738D01*
X168494040Y-96760262D01*
X169049229Y-96530862D01*
X169474370Y-96106463D01*
X169704738Y-95551675D01*
X169705262Y-94950960D01*
X169475862Y-94395771D01*
X169051463Y-93970630D01*
X168496675Y-93740262D01*
X167895960Y-93739738D01*
X167340771Y-93969138D01*
X166915630Y-94393537D01*
X166906108Y-94416469D01*
X166757060Y-94367545D01*
X165874605Y-95250000D01*
X165515395Y-95250000D01*
X165501253Y-95235858D01*
X165680858Y-95056253D01*
X165695000Y-95070395D01*
X166577455Y-94187940D01*
X166494116Y-93934047D01*
X165929694Y-93728410D01*
X165329542Y-93754421D01*
X164895884Y-93934047D01*
X164812546Y-94187938D01*
X164697914Y-94073306D01*
X164656864Y-94114356D01*
X164534090Y-93923559D01*
X164321890Y-93778569D01*
X164070000Y-93727560D01*
X162320000Y-93727560D01*
X162084683Y-93771838D01*
X161868559Y-93910910D01*
X161723569Y-94123110D01*
X161672560Y-94375000D01*
X158343809Y-94375000D01*
X158343859Y-94318218D01*
X158116192Y-93767220D01*
X157694997Y-93345290D01*
X157694069Y-93344905D01*
X158114710Y-92924997D01*
X158343339Y-92374398D01*
X158343859Y-91778218D01*
X158116192Y-91227220D01*
X157694997Y-90805290D01*
X157654463Y-90788459D01*
X157719200Y-90588805D01*
X156845000Y-89714605D01*
X155970800Y-90588805D01*
X156035399Y-90788033D01*
X155997220Y-90803808D01*
X155575290Y-91225003D01*
X155346661Y-91775602D01*
X155346141Y-92371782D01*
X143103341Y-92371782D01*
X143103859Y-91778218D01*
X142876192Y-91227220D01*
X142454997Y-90805290D01*
X142454069Y-90804905D01*
X142874710Y-90384997D01*
X143103339Y-89834398D01*
X143103802Y-89303030D01*
X155334752Y-89303030D01*
X155360942Y-89898635D01*
X155538484Y-90327259D01*
X155791195Y-90409200D01*
X156665395Y-89535000D01*
X157024605Y-89535000D01*
X157898805Y-90409200D01*
X158151516Y-90327259D01*
X158355248Y-89766970D01*
X158329058Y-89171365D01*
X158151516Y-88742741D01*
X157898805Y-88660800D01*
X157024605Y-89535000D01*
X156665395Y-89535000D01*
X155791195Y-88660800D01*
X155538484Y-88742741D01*
X155334752Y-89303030D01*
X143103802Y-89303030D01*
X143103859Y-89238218D01*
X142876192Y-88687220D01*
X142659475Y-88470124D01*
X142703917Y-88461762D01*
X142920041Y-88322690D01*
X143065031Y-88110490D01*
X143116040Y-87858600D01*
X143116040Y-87291782D01*
X155346141Y-87291782D01*
X155573808Y-87842780D01*
X155995003Y-88264710D01*
X156035537Y-88281541D01*
X155970800Y-88481195D01*
X156845000Y-89355395D01*
X157719200Y-88481195D01*
X157654601Y-88281967D01*
X157692780Y-88266192D01*
X158114710Y-87844997D01*
X158343339Y-87294398D01*
X158343859Y-86698218D01*
X158116192Y-86147220D01*
X157694997Y-85725290D01*
X157144398Y-85496661D01*
X156548218Y-85496141D01*
X155997220Y-85723808D01*
X155575290Y-86145003D01*
X155346661Y-86695602D01*
X155346141Y-87291782D01*
X143116040Y-87291782D01*
X143116040Y-86131400D01*
X143071762Y-85896083D01*
X142932690Y-85679959D01*
X142720490Y-85534969D01*
X142473736Y-85485000D01*
X161672560Y-85485000D01*
X161672560Y-87235000D01*
X161716838Y-87470317D01*
X161855910Y-87686441D01*
X162068110Y-87831431D01*
X162320000Y-87882440D01*
X164070000Y-87882440D01*
X164305317Y-87838162D01*
X164521441Y-87699090D01*
X164658994Y-87497774D01*
X164697914Y-87536694D01*
X164812546Y-87422062D01*
X164895884Y-87675953D01*
X165460306Y-87881590D01*
X166060458Y-87855579D01*
X166494116Y-87675953D01*
X166577455Y-87422060D01*
X165695000Y-86539605D01*
X165680858Y-86553748D01*
X165501253Y-86374143D01*
X165515395Y-86360000D01*
X165874605Y-86360000D01*
X166757060Y-87242455D01*
X166905648Y-87193682D01*
X166914138Y-87214229D01*
X167338537Y-87639370D01*
X167893325Y-87869738D01*
X168494040Y-87870262D01*
X169049229Y-87640862D01*
X169474370Y-87216463D01*
X169704738Y-86661675D01*
X169705262Y-86060960D01*
X169475862Y-85505771D01*
X169051463Y-85080630D01*
X168496675Y-84850262D01*
X167895960Y-84849738D01*
X167340771Y-85079138D01*
X166915630Y-85503537D01*
X166906108Y-85526469D01*
X166757060Y-85477545D01*
X165874605Y-86360000D01*
X165515395Y-86360000D01*
X165501253Y-86345858D01*
X165680858Y-86166253D01*
X165695000Y-86180395D01*
X166577455Y-85297940D01*
X166494116Y-85044047D01*
X165929694Y-84838410D01*
X165329542Y-84864421D01*
X164895884Y-85044047D01*
X164812546Y-85297938D01*
X164697914Y-85183306D01*
X164656864Y-85224356D01*
X164534090Y-85033559D01*
X164321890Y-84888569D01*
X164070000Y-84837560D01*
X162320000Y-84837560D01*
X162084683Y-84881838D01*
X161868559Y-85020910D01*
X161723569Y-85233110D01*
X161672560Y-85485000D01*
X142473736Y-85485000D01*
X142468600Y-85483960D01*
X140741400Y-85483960D01*
X140506083Y-85528238D01*
X140289959Y-85667310D01*
X140144969Y-85879510D01*
X140093960Y-86131400D01*
X136685200Y-86131400D01*
X136685262Y-86060960D01*
X136455862Y-85505771D01*
X136031463Y-85080630D01*
X135476675Y-84850262D01*
X134875960Y-84849738D01*
X134320771Y-85079138D01*
X133895630Y-85503537D01*
X133886108Y-85526469D01*
X133737060Y-85477545D01*
X132854605Y-86360000D01*
X132495395Y-86360000D01*
X132481253Y-86345858D01*
X132660858Y-86166253D01*
X132675000Y-86180395D01*
X133557455Y-85297940D01*
X133474116Y-85044047D01*
X132909694Y-84838410D01*
X132309542Y-84864421D01*
X131875884Y-85044047D01*
X131792546Y-85297938D01*
X131677914Y-85183306D01*
X131636864Y-85224356D01*
X131514090Y-85033559D01*
X131301890Y-84888569D01*
X131050000Y-84837560D01*
X129300000Y-84837560D01*
X129064683Y-84881838D01*
X128848559Y-85020910D01*
X128703569Y-85233110D01*
X128652560Y-85485000D01*
X125005128Y-85485000D01*
X124601463Y-85080630D01*
X124046675Y-84850262D01*
X123445960Y-84849738D01*
X122890771Y-85079138D01*
X122465630Y-85503537D01*
X122456108Y-85526469D01*
X122307060Y-85477545D01*
X121424605Y-86360000D01*
X121065395Y-86360000D01*
X121051253Y-86345858D01*
X121230858Y-86166253D01*
X121245000Y-86180395D01*
X122127455Y-85297940D01*
X122044116Y-85044047D01*
X121479694Y-84838410D01*
X120879542Y-84864421D01*
X120445884Y-85044047D01*
X120362546Y-85297938D01*
X120247914Y-85183306D01*
X120206864Y-85224356D01*
X120084090Y-85033559D01*
X119871890Y-84888569D01*
X119620000Y-84837560D01*
X117870000Y-84837560D01*
X117634683Y-84881838D01*
X117418559Y-85020910D01*
X117273569Y-85233110D01*
X117222560Y-85485000D01*
X114427000Y-85485000D01*
X114427000Y-83237606D01*
X114987606Y-82677000D01*
X172032394Y-82677000D01*
X172593000Y-83237606D01*
M02*
