G04 #@! TF.FileFunction,Legend,Top*
%FSLAX46Y46*%
G04 Gerber Fmt 4.6, Leading zero omitted, Abs format (unit mm)*
G04 Created by KiCad (PCBNEW 4.0.3+e1-6302~38~ubuntu15.04.1-stable) date Mon Sep 12 00:13:52 2016*
%MOMM*%
%LPD*%
G01*
G04 APERTURE LIST*
%ADD10C,0.100000*%
%ADD11C,0.150000*%
G04 APERTURE END LIST*
D10*
D11*
X167780000Y-66215000D02*
X179130000Y-66215000D01*
X179130000Y-66215000D02*
X179130000Y-78015000D01*
X179130000Y-78015000D02*
X177930000Y-78015000D01*
X177930000Y-78015000D02*
X177930000Y-73515000D01*
X177930000Y-73515000D02*
X167780000Y-73515000D01*
X167780000Y-66215000D02*
X156430000Y-66215000D01*
X156430000Y-66215000D02*
X156430000Y-78015000D01*
X156430000Y-78015000D02*
X157630000Y-78015000D01*
X157630000Y-78015000D02*
X157630000Y-73515000D01*
X157630000Y-73515000D02*
X167780000Y-73515000D01*
X176780000Y-72865000D02*
X176780000Y-66865000D01*
X176780000Y-66865000D02*
X176280000Y-66865000D01*
X176280000Y-66865000D02*
X176280000Y-72865000D01*
X176280000Y-72865000D02*
X176780000Y-72865000D01*
X174280000Y-72865000D02*
X174280000Y-66865000D01*
X174280000Y-66865000D02*
X173780000Y-66865000D01*
X173780000Y-66865000D02*
X173780000Y-72865000D01*
X173780000Y-72865000D02*
X174280000Y-72865000D01*
X171780000Y-72865000D02*
X171780000Y-66865000D01*
X171780000Y-66865000D02*
X171280000Y-66865000D01*
X171280000Y-66865000D02*
X171280000Y-72865000D01*
X171280000Y-72865000D02*
X171780000Y-72865000D01*
X169280000Y-72865000D02*
X169280000Y-66865000D01*
X169280000Y-66865000D02*
X168780000Y-66865000D01*
X168780000Y-66865000D02*
X168780000Y-72865000D01*
X168780000Y-72865000D02*
X169280000Y-72865000D01*
X166780000Y-72865000D02*
X166780000Y-66865000D01*
X166780000Y-66865000D02*
X166280000Y-66865000D01*
X166280000Y-66865000D02*
X166280000Y-72865000D01*
X166280000Y-72865000D02*
X166780000Y-72865000D01*
X164280000Y-72865000D02*
X164280000Y-66865000D01*
X164280000Y-66865000D02*
X163780000Y-66865000D01*
X163780000Y-66865000D02*
X163780000Y-72865000D01*
X163780000Y-72865000D02*
X164280000Y-72865000D01*
X161780000Y-72865000D02*
X161780000Y-66865000D01*
X161780000Y-66865000D02*
X161280000Y-66865000D01*
X161280000Y-66865000D02*
X161280000Y-72865000D01*
X161280000Y-72865000D02*
X161780000Y-72865000D01*
X159280000Y-72865000D02*
X159280000Y-66865000D01*
X159280000Y-66865000D02*
X158780000Y-66865000D01*
X158780000Y-66865000D02*
X158780000Y-72865000D01*
X158780000Y-72865000D02*
X159280000Y-72865000D01*
X176530000Y-77065000D02*
X176830000Y-77665000D01*
X176830000Y-77665000D02*
X176230000Y-77665000D01*
X176230000Y-77665000D02*
X176530000Y-77065000D01*
X150485000Y-86450000D02*
X150485000Y-92400000D01*
X150485000Y-92400000D02*
X160585000Y-92400000D01*
X160585000Y-92400000D02*
X160585000Y-86450000D01*
X160585000Y-86450000D02*
X150485000Y-86450000D01*
X153785000Y-86450000D02*
X153785000Y-87200000D01*
X153785000Y-87200000D02*
X157285000Y-87200000D01*
X157285000Y-87200000D02*
X157285000Y-86450000D01*
X157285000Y-86450000D02*
X153785000Y-86450000D01*
X150485000Y-86450000D02*
X150485000Y-87200000D01*
X150485000Y-87200000D02*
X152285000Y-87200000D01*
X152285000Y-87200000D02*
X152285000Y-86450000D01*
X152285000Y-86450000D02*
X150485000Y-86450000D01*
X158785000Y-86450000D02*
X158785000Y-87200000D01*
X158785000Y-87200000D02*
X160585000Y-87200000D01*
X160585000Y-87200000D02*
X160585000Y-86450000D01*
X160585000Y-86450000D02*
X158785000Y-86450000D01*
X150485000Y-88700000D02*
X151235000Y-88700000D01*
X151235000Y-88700000D02*
X151235000Y-91650000D01*
X151235000Y-91650000D02*
X155535000Y-91650000D01*
X160585000Y-88700000D02*
X159835000Y-88700000D01*
X159835000Y-88700000D02*
X159835000Y-91650000D01*
X159835000Y-91650000D02*
X155535000Y-91650000D01*
X153035000Y-86150000D02*
X152735000Y-85550000D01*
X152735000Y-85550000D02*
X153335000Y-85550000D01*
X153335000Y-85550000D02*
X153035000Y-86150000D01*
X162550000Y-86450000D02*
X162550000Y-92400000D01*
X162550000Y-92400000D02*
X172650000Y-92400000D01*
X172650000Y-92400000D02*
X172650000Y-86450000D01*
X172650000Y-86450000D02*
X162550000Y-86450000D01*
X165850000Y-86450000D02*
X165850000Y-87200000D01*
X165850000Y-87200000D02*
X169350000Y-87200000D01*
X169350000Y-87200000D02*
X169350000Y-86450000D01*
X169350000Y-86450000D02*
X165850000Y-86450000D01*
X162550000Y-86450000D02*
X162550000Y-87200000D01*
X162550000Y-87200000D02*
X164350000Y-87200000D01*
X164350000Y-87200000D02*
X164350000Y-86450000D01*
X164350000Y-86450000D02*
X162550000Y-86450000D01*
X170850000Y-86450000D02*
X170850000Y-87200000D01*
X170850000Y-87200000D02*
X172650000Y-87200000D01*
X172650000Y-87200000D02*
X172650000Y-86450000D01*
X172650000Y-86450000D02*
X170850000Y-86450000D01*
X162550000Y-88700000D02*
X163300000Y-88700000D01*
X163300000Y-88700000D02*
X163300000Y-91650000D01*
X163300000Y-91650000D02*
X167600000Y-91650000D01*
X172650000Y-88700000D02*
X171900000Y-88700000D01*
X171900000Y-88700000D02*
X171900000Y-91650000D01*
X171900000Y-91650000D02*
X167600000Y-91650000D01*
X165100000Y-86150000D02*
X164800000Y-85550000D01*
X164800000Y-85550000D02*
X165400000Y-85550000D01*
X165400000Y-85550000D02*
X165100000Y-86150000D01*
X174615000Y-86450000D02*
X174615000Y-92400000D01*
X174615000Y-92400000D02*
X184715000Y-92400000D01*
X184715000Y-92400000D02*
X184715000Y-86450000D01*
X184715000Y-86450000D02*
X174615000Y-86450000D01*
X177915000Y-86450000D02*
X177915000Y-87200000D01*
X177915000Y-87200000D02*
X181415000Y-87200000D01*
X181415000Y-87200000D02*
X181415000Y-86450000D01*
X181415000Y-86450000D02*
X177915000Y-86450000D01*
X174615000Y-86450000D02*
X174615000Y-87200000D01*
X174615000Y-87200000D02*
X176415000Y-87200000D01*
X176415000Y-87200000D02*
X176415000Y-86450000D01*
X176415000Y-86450000D02*
X174615000Y-86450000D01*
X182915000Y-86450000D02*
X182915000Y-87200000D01*
X182915000Y-87200000D02*
X184715000Y-87200000D01*
X184715000Y-87200000D02*
X184715000Y-86450000D01*
X184715000Y-86450000D02*
X182915000Y-86450000D01*
X174615000Y-88700000D02*
X175365000Y-88700000D01*
X175365000Y-88700000D02*
X175365000Y-91650000D01*
X175365000Y-91650000D02*
X179665000Y-91650000D01*
X184715000Y-88700000D02*
X183965000Y-88700000D01*
X183965000Y-88700000D02*
X183965000Y-91650000D01*
X183965000Y-91650000D02*
X179665000Y-91650000D01*
X177165000Y-86150000D02*
X176865000Y-85550000D01*
X176865000Y-85550000D02*
X177465000Y-85550000D01*
X177465000Y-85550000D02*
X177165000Y-86150000D01*
X156200000Y-95340000D02*
X156200000Y-101290000D01*
X156200000Y-101290000D02*
X166300000Y-101290000D01*
X166300000Y-101290000D02*
X166300000Y-95340000D01*
X166300000Y-95340000D02*
X156200000Y-95340000D01*
X159500000Y-95340000D02*
X159500000Y-96090000D01*
X159500000Y-96090000D02*
X163000000Y-96090000D01*
X163000000Y-96090000D02*
X163000000Y-95340000D01*
X163000000Y-95340000D02*
X159500000Y-95340000D01*
X156200000Y-95340000D02*
X156200000Y-96090000D01*
X156200000Y-96090000D02*
X158000000Y-96090000D01*
X158000000Y-96090000D02*
X158000000Y-95340000D01*
X158000000Y-95340000D02*
X156200000Y-95340000D01*
X164500000Y-95340000D02*
X164500000Y-96090000D01*
X164500000Y-96090000D02*
X166300000Y-96090000D01*
X166300000Y-96090000D02*
X166300000Y-95340000D01*
X166300000Y-95340000D02*
X164500000Y-95340000D01*
X156200000Y-97590000D02*
X156950000Y-97590000D01*
X156950000Y-97590000D02*
X156950000Y-100540000D01*
X156950000Y-100540000D02*
X161250000Y-100540000D01*
X166300000Y-97590000D02*
X165550000Y-97590000D01*
X165550000Y-97590000D02*
X165550000Y-100540000D01*
X165550000Y-100540000D02*
X161250000Y-100540000D01*
X158750000Y-95040000D02*
X158450000Y-94440000D01*
X158450000Y-94440000D02*
X159050000Y-94440000D01*
X159050000Y-94440000D02*
X158750000Y-95040000D01*
X168900000Y-95340000D02*
X168900000Y-101290000D01*
X168900000Y-101290000D02*
X179000000Y-101290000D01*
X179000000Y-101290000D02*
X179000000Y-95340000D01*
X179000000Y-95340000D02*
X168900000Y-95340000D01*
X172200000Y-95340000D02*
X172200000Y-96090000D01*
X172200000Y-96090000D02*
X175700000Y-96090000D01*
X175700000Y-96090000D02*
X175700000Y-95340000D01*
X175700000Y-95340000D02*
X172200000Y-95340000D01*
X168900000Y-95340000D02*
X168900000Y-96090000D01*
X168900000Y-96090000D02*
X170700000Y-96090000D01*
X170700000Y-96090000D02*
X170700000Y-95340000D01*
X170700000Y-95340000D02*
X168900000Y-95340000D01*
X177200000Y-95340000D02*
X177200000Y-96090000D01*
X177200000Y-96090000D02*
X179000000Y-96090000D01*
X179000000Y-96090000D02*
X179000000Y-95340000D01*
X179000000Y-95340000D02*
X177200000Y-95340000D01*
X168900000Y-97590000D02*
X169650000Y-97590000D01*
X169650000Y-97590000D02*
X169650000Y-100540000D01*
X169650000Y-100540000D02*
X173950000Y-100540000D01*
X179000000Y-97590000D02*
X178250000Y-97590000D01*
X178250000Y-97590000D02*
X178250000Y-100540000D01*
X178250000Y-100540000D02*
X173950000Y-100540000D01*
X171450000Y-95040000D02*
X171150000Y-94440000D01*
X171150000Y-94440000D02*
X171750000Y-94440000D01*
X171750000Y-94440000D02*
X171450000Y-95040000D01*
X145370000Y-84080000D02*
X145370000Y-79580000D01*
X145370000Y-79580000D02*
X155270000Y-79580000D01*
X155270000Y-79580000D02*
X155270000Y-84080000D01*
X155270000Y-84080000D02*
X145370000Y-84080000D01*
X147820000Y-79580000D02*
X147820000Y-80080000D01*
X147820000Y-80080000D02*
X145870000Y-80080000D01*
X145870000Y-80080000D02*
X145870000Y-83580000D01*
X145870000Y-83580000D02*
X154770000Y-83580000D01*
X154770000Y-83580000D02*
X154770000Y-80080000D01*
X154770000Y-80080000D02*
X152820000Y-80080000D01*
X152820000Y-80080000D02*
X152820000Y-79580000D01*
X145370000Y-80780000D02*
X145870000Y-80780000D01*
X145370000Y-82080000D02*
X145870000Y-82080000D01*
X154770000Y-80780000D02*
X155270000Y-80780000D01*
X154770000Y-82080000D02*
X155270000Y-82080000D01*
X147020000Y-79580000D02*
X147020000Y-79380000D01*
X147020000Y-79380000D02*
X146720000Y-79380000D01*
X146720000Y-79380000D02*
X146720000Y-79580000D01*
X147020000Y-79480000D02*
X146720000Y-79480000D01*
X148220000Y-83580000D02*
X148220000Y-83080000D01*
X148220000Y-83080000D02*
X148420000Y-83080000D01*
X148420000Y-83080000D02*
X148420000Y-83580000D01*
X148320000Y-83580000D02*
X148320000Y-83080000D01*
X150220000Y-83580000D02*
X150220000Y-83080000D01*
X150220000Y-83080000D02*
X150420000Y-83080000D01*
X150420000Y-83080000D02*
X150420000Y-83580000D01*
X150320000Y-83580000D02*
X150320000Y-83080000D01*
X152220000Y-83580000D02*
X152220000Y-83080000D01*
X152220000Y-83080000D02*
X152420000Y-83080000D01*
X152420000Y-83080000D02*
X152420000Y-83580000D01*
X152320000Y-83580000D02*
X152320000Y-83080000D01*
X156800000Y-84080000D02*
X156800000Y-79580000D01*
X156800000Y-79580000D02*
X166700000Y-79580000D01*
X166700000Y-79580000D02*
X166700000Y-84080000D01*
X166700000Y-84080000D02*
X156800000Y-84080000D01*
X159250000Y-79580000D02*
X159250000Y-80080000D01*
X159250000Y-80080000D02*
X157300000Y-80080000D01*
X157300000Y-80080000D02*
X157300000Y-83580000D01*
X157300000Y-83580000D02*
X166200000Y-83580000D01*
X166200000Y-83580000D02*
X166200000Y-80080000D01*
X166200000Y-80080000D02*
X164250000Y-80080000D01*
X164250000Y-80080000D02*
X164250000Y-79580000D01*
X156800000Y-80780000D02*
X157300000Y-80780000D01*
X156800000Y-82080000D02*
X157300000Y-82080000D01*
X166200000Y-80780000D02*
X166700000Y-80780000D01*
X166200000Y-82080000D02*
X166700000Y-82080000D01*
X158450000Y-79580000D02*
X158450000Y-79380000D01*
X158450000Y-79380000D02*
X158150000Y-79380000D01*
X158150000Y-79380000D02*
X158150000Y-79580000D01*
X158450000Y-79480000D02*
X158150000Y-79480000D01*
X159650000Y-83580000D02*
X159650000Y-83080000D01*
X159650000Y-83080000D02*
X159850000Y-83080000D01*
X159850000Y-83080000D02*
X159850000Y-83580000D01*
X159750000Y-83580000D02*
X159750000Y-83080000D01*
X161650000Y-83580000D02*
X161650000Y-83080000D01*
X161650000Y-83080000D02*
X161850000Y-83080000D01*
X161850000Y-83080000D02*
X161850000Y-83580000D01*
X161750000Y-83580000D02*
X161750000Y-83080000D01*
X163650000Y-83580000D02*
X163650000Y-83080000D01*
X163650000Y-83080000D02*
X163850000Y-83080000D01*
X163850000Y-83080000D02*
X163850000Y-83580000D01*
X163750000Y-83580000D02*
X163750000Y-83080000D01*
X168230000Y-84080000D02*
X168230000Y-79580000D01*
X168230000Y-79580000D02*
X178130000Y-79580000D01*
X178130000Y-79580000D02*
X178130000Y-84080000D01*
X178130000Y-84080000D02*
X168230000Y-84080000D01*
X170680000Y-79580000D02*
X170680000Y-80080000D01*
X170680000Y-80080000D02*
X168730000Y-80080000D01*
X168730000Y-80080000D02*
X168730000Y-83580000D01*
X168730000Y-83580000D02*
X177630000Y-83580000D01*
X177630000Y-83580000D02*
X177630000Y-80080000D01*
X177630000Y-80080000D02*
X175680000Y-80080000D01*
X175680000Y-80080000D02*
X175680000Y-79580000D01*
X168230000Y-80780000D02*
X168730000Y-80780000D01*
X168230000Y-82080000D02*
X168730000Y-82080000D01*
X177630000Y-80780000D02*
X178130000Y-80780000D01*
X177630000Y-82080000D02*
X178130000Y-82080000D01*
X169880000Y-79580000D02*
X169880000Y-79380000D01*
X169880000Y-79380000D02*
X169580000Y-79380000D01*
X169580000Y-79380000D02*
X169580000Y-79580000D01*
X169880000Y-79480000D02*
X169580000Y-79480000D01*
X171080000Y-83580000D02*
X171080000Y-83080000D01*
X171080000Y-83080000D02*
X171280000Y-83080000D01*
X171280000Y-83080000D02*
X171280000Y-83580000D01*
X171180000Y-83580000D02*
X171180000Y-83080000D01*
X173080000Y-83580000D02*
X173080000Y-83080000D01*
X173080000Y-83080000D02*
X173280000Y-83080000D01*
X173280000Y-83080000D02*
X173280000Y-83580000D01*
X173180000Y-83580000D02*
X173180000Y-83080000D01*
X175080000Y-83580000D02*
X175080000Y-83080000D01*
X175080000Y-83080000D02*
X175280000Y-83080000D01*
X175280000Y-83080000D02*
X175280000Y-83580000D01*
X175180000Y-83580000D02*
X175180000Y-83080000D01*
X179660000Y-84080000D02*
X179660000Y-79580000D01*
X179660000Y-79580000D02*
X189560000Y-79580000D01*
X189560000Y-79580000D02*
X189560000Y-84080000D01*
X189560000Y-84080000D02*
X179660000Y-84080000D01*
X182110000Y-79580000D02*
X182110000Y-80080000D01*
X182110000Y-80080000D02*
X180160000Y-80080000D01*
X180160000Y-80080000D02*
X180160000Y-83580000D01*
X180160000Y-83580000D02*
X189060000Y-83580000D01*
X189060000Y-83580000D02*
X189060000Y-80080000D01*
X189060000Y-80080000D02*
X187110000Y-80080000D01*
X187110000Y-80080000D02*
X187110000Y-79580000D01*
X179660000Y-80780000D02*
X180160000Y-80780000D01*
X179660000Y-82080000D02*
X180160000Y-82080000D01*
X189060000Y-80780000D02*
X189560000Y-80780000D01*
X189060000Y-82080000D02*
X189560000Y-82080000D01*
X181310000Y-79580000D02*
X181310000Y-79380000D01*
X181310000Y-79380000D02*
X181010000Y-79380000D01*
X181010000Y-79380000D02*
X181010000Y-79580000D01*
X181310000Y-79480000D02*
X181010000Y-79480000D01*
X182510000Y-83580000D02*
X182510000Y-83080000D01*
X182510000Y-83080000D02*
X182710000Y-83080000D01*
X182710000Y-83080000D02*
X182710000Y-83580000D01*
X182610000Y-83580000D02*
X182610000Y-83080000D01*
X184510000Y-83580000D02*
X184510000Y-83080000D01*
X184510000Y-83080000D02*
X184710000Y-83080000D01*
X184710000Y-83080000D02*
X184710000Y-83580000D01*
X184610000Y-83580000D02*
X184610000Y-83080000D01*
X186510000Y-83580000D02*
X186510000Y-83080000D01*
X186510000Y-83080000D02*
X186710000Y-83080000D01*
X186710000Y-83080000D02*
X186710000Y-83580000D01*
X186610000Y-83580000D02*
X186610000Y-83080000D01*
X150876000Y-69850000D02*
G75*
G03X150876000Y-69850000I-2286000J0D01*
G01*
X188341000Y-69850000D02*
G75*
G03X188341000Y-69850000I-2286000J0D01*
G01*
X150876000Y-98425000D02*
G75*
G03X150876000Y-98425000I-2286000J0D01*
G01*
X188341000Y-98425000D02*
G75*
G03X188341000Y-98425000I-2286000J0D01*
G01*
X164735237Y-77827143D02*
X164687618Y-77874762D01*
X164544761Y-77922381D01*
X164449523Y-77922381D01*
X164306665Y-77874762D01*
X164211427Y-77779524D01*
X164163808Y-77684286D01*
X164116189Y-77493810D01*
X164116189Y-77350952D01*
X164163808Y-77160476D01*
X164211427Y-77065238D01*
X164306665Y-76970000D01*
X164449523Y-76922381D01*
X164544761Y-76922381D01*
X164687618Y-76970000D01*
X164735237Y-77017619D01*
X165306665Y-77922381D02*
X165211427Y-77874762D01*
X165163808Y-77827143D01*
X165116189Y-77731905D01*
X165116189Y-77446190D01*
X165163808Y-77350952D01*
X165211427Y-77303333D01*
X165306665Y-77255714D01*
X165449523Y-77255714D01*
X165544761Y-77303333D01*
X165592380Y-77350952D01*
X165639999Y-77446190D01*
X165639999Y-77731905D01*
X165592380Y-77827143D01*
X165544761Y-77874762D01*
X165449523Y-77922381D01*
X165306665Y-77922381D01*
X166068570Y-77255714D02*
X166068570Y-77922381D01*
X166068570Y-77350952D02*
X166116189Y-77303333D01*
X166211427Y-77255714D01*
X166354285Y-77255714D01*
X166449523Y-77303333D01*
X166497142Y-77398571D01*
X166497142Y-77922381D01*
X166830475Y-77255714D02*
X167211427Y-77255714D01*
X166973332Y-76922381D02*
X166973332Y-77779524D01*
X167020951Y-77874762D01*
X167116189Y-77922381D01*
X167211427Y-77922381D01*
X167544761Y-77922381D02*
X167544761Y-77255714D01*
X167544761Y-77446190D02*
X167592380Y-77350952D01*
X167639999Y-77303333D01*
X167735237Y-77255714D01*
X167830476Y-77255714D01*
X168306666Y-77922381D02*
X168211428Y-77874762D01*
X168163809Y-77827143D01*
X168116190Y-77731905D01*
X168116190Y-77446190D01*
X168163809Y-77350952D01*
X168211428Y-77303333D01*
X168306666Y-77255714D01*
X168449524Y-77255714D01*
X168544762Y-77303333D01*
X168592381Y-77350952D01*
X168640000Y-77446190D01*
X168640000Y-77731905D01*
X168592381Y-77827143D01*
X168544762Y-77874762D01*
X168449524Y-77922381D01*
X168306666Y-77922381D01*
X169211428Y-77922381D02*
X169116190Y-77874762D01*
X169068571Y-77779524D01*
X169068571Y-76922381D01*
X169735238Y-77922381D02*
X169640000Y-77874762D01*
X169592381Y-77779524D01*
X169592381Y-76922381D01*
X170497144Y-77874762D02*
X170401906Y-77922381D01*
X170211429Y-77922381D01*
X170116191Y-77874762D01*
X170068572Y-77779524D01*
X170068572Y-77398571D01*
X170116191Y-77303333D01*
X170211429Y-77255714D01*
X170401906Y-77255714D01*
X170497144Y-77303333D01*
X170544763Y-77398571D01*
X170544763Y-77493810D01*
X170068572Y-77589048D01*
X170973334Y-77922381D02*
X170973334Y-77255714D01*
X170973334Y-77446190D02*
X171020953Y-77350952D01*
X171068572Y-77303333D01*
X171163810Y-77255714D01*
X171259049Y-77255714D01*
X154924476Y-85748762D02*
X155067333Y-85796381D01*
X155305429Y-85796381D01*
X155400667Y-85748762D01*
X155448286Y-85701143D01*
X155495905Y-85605905D01*
X155495905Y-85510667D01*
X155448286Y-85415429D01*
X155400667Y-85367810D01*
X155305429Y-85320190D01*
X155114952Y-85272571D01*
X155019714Y-85224952D01*
X154972095Y-85177333D01*
X154924476Y-85082095D01*
X154924476Y-84986857D01*
X154972095Y-84891619D01*
X155019714Y-84844000D01*
X155114952Y-84796381D01*
X155353048Y-84796381D01*
X155495905Y-84844000D01*
X156305429Y-85748762D02*
X156210191Y-85796381D01*
X156019714Y-85796381D01*
X155924476Y-85748762D01*
X155876857Y-85653524D01*
X155876857Y-85272571D01*
X155924476Y-85177333D01*
X156019714Y-85129714D01*
X156210191Y-85129714D01*
X156305429Y-85177333D01*
X156353048Y-85272571D01*
X156353048Y-85367810D01*
X155876857Y-85463048D01*
X156781619Y-85129714D02*
X156781619Y-85796381D01*
X156781619Y-85224952D02*
X156829238Y-85177333D01*
X156924476Y-85129714D01*
X157067334Y-85129714D01*
X157162572Y-85177333D01*
X157210191Y-85272571D01*
X157210191Y-85796381D01*
X157638762Y-85748762D02*
X157734000Y-85796381D01*
X157924476Y-85796381D01*
X158019715Y-85748762D01*
X158067334Y-85653524D01*
X158067334Y-85605905D01*
X158019715Y-85510667D01*
X157924476Y-85463048D01*
X157781619Y-85463048D01*
X157686381Y-85415429D01*
X157638762Y-85320190D01*
X157638762Y-85272571D01*
X157686381Y-85177333D01*
X157781619Y-85129714D01*
X157924476Y-85129714D01*
X158019715Y-85177333D01*
X158638762Y-85796381D02*
X158543524Y-85748762D01*
X158495905Y-85701143D01*
X158448286Y-85605905D01*
X158448286Y-85320190D01*
X158495905Y-85224952D01*
X158543524Y-85177333D01*
X158638762Y-85129714D01*
X158781620Y-85129714D01*
X158876858Y-85177333D01*
X158924477Y-85224952D01*
X158972096Y-85320190D01*
X158972096Y-85605905D01*
X158924477Y-85701143D01*
X158876858Y-85748762D01*
X158781620Y-85796381D01*
X158638762Y-85796381D01*
X159400667Y-85796381D02*
X159400667Y-85129714D01*
X159400667Y-85320190D02*
X159448286Y-85224952D01*
X159495905Y-85177333D01*
X159591143Y-85129714D01*
X159686382Y-85129714D01*
X160543525Y-85796381D02*
X159972096Y-85796381D01*
X160257810Y-85796381D02*
X160257810Y-84796381D01*
X160162572Y-84939238D01*
X160067334Y-85034476D01*
X159972096Y-85082095D01*
X167116476Y-85748762D02*
X167259333Y-85796381D01*
X167497429Y-85796381D01*
X167592667Y-85748762D01*
X167640286Y-85701143D01*
X167687905Y-85605905D01*
X167687905Y-85510667D01*
X167640286Y-85415429D01*
X167592667Y-85367810D01*
X167497429Y-85320190D01*
X167306952Y-85272571D01*
X167211714Y-85224952D01*
X167164095Y-85177333D01*
X167116476Y-85082095D01*
X167116476Y-84986857D01*
X167164095Y-84891619D01*
X167211714Y-84844000D01*
X167306952Y-84796381D01*
X167545048Y-84796381D01*
X167687905Y-84844000D01*
X168497429Y-85748762D02*
X168402191Y-85796381D01*
X168211714Y-85796381D01*
X168116476Y-85748762D01*
X168068857Y-85653524D01*
X168068857Y-85272571D01*
X168116476Y-85177333D01*
X168211714Y-85129714D01*
X168402191Y-85129714D01*
X168497429Y-85177333D01*
X168545048Y-85272571D01*
X168545048Y-85367810D01*
X168068857Y-85463048D01*
X168973619Y-85129714D02*
X168973619Y-85796381D01*
X168973619Y-85224952D02*
X169021238Y-85177333D01*
X169116476Y-85129714D01*
X169259334Y-85129714D01*
X169354572Y-85177333D01*
X169402191Y-85272571D01*
X169402191Y-85796381D01*
X169830762Y-85748762D02*
X169926000Y-85796381D01*
X170116476Y-85796381D01*
X170211715Y-85748762D01*
X170259334Y-85653524D01*
X170259334Y-85605905D01*
X170211715Y-85510667D01*
X170116476Y-85463048D01*
X169973619Y-85463048D01*
X169878381Y-85415429D01*
X169830762Y-85320190D01*
X169830762Y-85272571D01*
X169878381Y-85177333D01*
X169973619Y-85129714D01*
X170116476Y-85129714D01*
X170211715Y-85177333D01*
X170830762Y-85796381D02*
X170735524Y-85748762D01*
X170687905Y-85701143D01*
X170640286Y-85605905D01*
X170640286Y-85320190D01*
X170687905Y-85224952D01*
X170735524Y-85177333D01*
X170830762Y-85129714D01*
X170973620Y-85129714D01*
X171068858Y-85177333D01*
X171116477Y-85224952D01*
X171164096Y-85320190D01*
X171164096Y-85605905D01*
X171116477Y-85701143D01*
X171068858Y-85748762D01*
X170973620Y-85796381D01*
X170830762Y-85796381D01*
X171592667Y-85796381D02*
X171592667Y-85129714D01*
X171592667Y-85320190D02*
X171640286Y-85224952D01*
X171687905Y-85177333D01*
X171783143Y-85129714D01*
X171878382Y-85129714D01*
X172164096Y-84891619D02*
X172211715Y-84844000D01*
X172306953Y-84796381D01*
X172545049Y-84796381D01*
X172640287Y-84844000D01*
X172687906Y-84891619D01*
X172735525Y-84986857D01*
X172735525Y-85082095D01*
X172687906Y-85224952D01*
X172116477Y-85796381D01*
X172735525Y-85796381D01*
X179054476Y-85748762D02*
X179197333Y-85796381D01*
X179435429Y-85796381D01*
X179530667Y-85748762D01*
X179578286Y-85701143D01*
X179625905Y-85605905D01*
X179625905Y-85510667D01*
X179578286Y-85415429D01*
X179530667Y-85367810D01*
X179435429Y-85320190D01*
X179244952Y-85272571D01*
X179149714Y-85224952D01*
X179102095Y-85177333D01*
X179054476Y-85082095D01*
X179054476Y-84986857D01*
X179102095Y-84891619D01*
X179149714Y-84844000D01*
X179244952Y-84796381D01*
X179483048Y-84796381D01*
X179625905Y-84844000D01*
X180435429Y-85748762D02*
X180340191Y-85796381D01*
X180149714Y-85796381D01*
X180054476Y-85748762D01*
X180006857Y-85653524D01*
X180006857Y-85272571D01*
X180054476Y-85177333D01*
X180149714Y-85129714D01*
X180340191Y-85129714D01*
X180435429Y-85177333D01*
X180483048Y-85272571D01*
X180483048Y-85367810D01*
X180006857Y-85463048D01*
X180911619Y-85129714D02*
X180911619Y-85796381D01*
X180911619Y-85224952D02*
X180959238Y-85177333D01*
X181054476Y-85129714D01*
X181197334Y-85129714D01*
X181292572Y-85177333D01*
X181340191Y-85272571D01*
X181340191Y-85796381D01*
X181768762Y-85748762D02*
X181864000Y-85796381D01*
X182054476Y-85796381D01*
X182149715Y-85748762D01*
X182197334Y-85653524D01*
X182197334Y-85605905D01*
X182149715Y-85510667D01*
X182054476Y-85463048D01*
X181911619Y-85463048D01*
X181816381Y-85415429D01*
X181768762Y-85320190D01*
X181768762Y-85272571D01*
X181816381Y-85177333D01*
X181911619Y-85129714D01*
X182054476Y-85129714D01*
X182149715Y-85177333D01*
X182768762Y-85796381D02*
X182673524Y-85748762D01*
X182625905Y-85701143D01*
X182578286Y-85605905D01*
X182578286Y-85320190D01*
X182625905Y-85224952D01*
X182673524Y-85177333D01*
X182768762Y-85129714D01*
X182911620Y-85129714D01*
X183006858Y-85177333D01*
X183054477Y-85224952D01*
X183102096Y-85320190D01*
X183102096Y-85605905D01*
X183054477Y-85701143D01*
X183006858Y-85748762D01*
X182911620Y-85796381D01*
X182768762Y-85796381D01*
X183530667Y-85796381D02*
X183530667Y-85129714D01*
X183530667Y-85320190D02*
X183578286Y-85224952D01*
X183625905Y-85177333D01*
X183721143Y-85129714D01*
X183816382Y-85129714D01*
X184054477Y-84796381D02*
X184673525Y-84796381D01*
X184340191Y-85177333D01*
X184483049Y-85177333D01*
X184578287Y-85224952D01*
X184625906Y-85272571D01*
X184673525Y-85367810D01*
X184673525Y-85605905D01*
X184625906Y-85701143D01*
X184578287Y-85748762D01*
X184483049Y-85796381D01*
X184197334Y-85796381D01*
X184102096Y-85748762D01*
X184054477Y-85701143D01*
X160766476Y-94638762D02*
X160909333Y-94686381D01*
X161147429Y-94686381D01*
X161242667Y-94638762D01*
X161290286Y-94591143D01*
X161337905Y-94495905D01*
X161337905Y-94400667D01*
X161290286Y-94305429D01*
X161242667Y-94257810D01*
X161147429Y-94210190D01*
X160956952Y-94162571D01*
X160861714Y-94114952D01*
X160814095Y-94067333D01*
X160766476Y-93972095D01*
X160766476Y-93876857D01*
X160814095Y-93781619D01*
X160861714Y-93734000D01*
X160956952Y-93686381D01*
X161195048Y-93686381D01*
X161337905Y-93734000D01*
X162147429Y-94638762D02*
X162052191Y-94686381D01*
X161861714Y-94686381D01*
X161766476Y-94638762D01*
X161718857Y-94543524D01*
X161718857Y-94162571D01*
X161766476Y-94067333D01*
X161861714Y-94019714D01*
X162052191Y-94019714D01*
X162147429Y-94067333D01*
X162195048Y-94162571D01*
X162195048Y-94257810D01*
X161718857Y-94353048D01*
X162623619Y-94019714D02*
X162623619Y-94686381D01*
X162623619Y-94114952D02*
X162671238Y-94067333D01*
X162766476Y-94019714D01*
X162909334Y-94019714D01*
X163004572Y-94067333D01*
X163052191Y-94162571D01*
X163052191Y-94686381D01*
X163480762Y-94638762D02*
X163576000Y-94686381D01*
X163766476Y-94686381D01*
X163861715Y-94638762D01*
X163909334Y-94543524D01*
X163909334Y-94495905D01*
X163861715Y-94400667D01*
X163766476Y-94353048D01*
X163623619Y-94353048D01*
X163528381Y-94305429D01*
X163480762Y-94210190D01*
X163480762Y-94162571D01*
X163528381Y-94067333D01*
X163623619Y-94019714D01*
X163766476Y-94019714D01*
X163861715Y-94067333D01*
X164480762Y-94686381D02*
X164385524Y-94638762D01*
X164337905Y-94591143D01*
X164290286Y-94495905D01*
X164290286Y-94210190D01*
X164337905Y-94114952D01*
X164385524Y-94067333D01*
X164480762Y-94019714D01*
X164623620Y-94019714D01*
X164718858Y-94067333D01*
X164766477Y-94114952D01*
X164814096Y-94210190D01*
X164814096Y-94495905D01*
X164766477Y-94591143D01*
X164718858Y-94638762D01*
X164623620Y-94686381D01*
X164480762Y-94686381D01*
X165242667Y-94686381D02*
X165242667Y-94019714D01*
X165242667Y-94210190D02*
X165290286Y-94114952D01*
X165337905Y-94067333D01*
X165433143Y-94019714D01*
X165528382Y-94019714D01*
X166290287Y-94019714D02*
X166290287Y-94686381D01*
X166052191Y-93638762D02*
X165814096Y-94353048D01*
X166433144Y-94353048D01*
X173212476Y-94638762D02*
X173355333Y-94686381D01*
X173593429Y-94686381D01*
X173688667Y-94638762D01*
X173736286Y-94591143D01*
X173783905Y-94495905D01*
X173783905Y-94400667D01*
X173736286Y-94305429D01*
X173688667Y-94257810D01*
X173593429Y-94210190D01*
X173402952Y-94162571D01*
X173307714Y-94114952D01*
X173260095Y-94067333D01*
X173212476Y-93972095D01*
X173212476Y-93876857D01*
X173260095Y-93781619D01*
X173307714Y-93734000D01*
X173402952Y-93686381D01*
X173641048Y-93686381D01*
X173783905Y-93734000D01*
X174593429Y-94638762D02*
X174498191Y-94686381D01*
X174307714Y-94686381D01*
X174212476Y-94638762D01*
X174164857Y-94543524D01*
X174164857Y-94162571D01*
X174212476Y-94067333D01*
X174307714Y-94019714D01*
X174498191Y-94019714D01*
X174593429Y-94067333D01*
X174641048Y-94162571D01*
X174641048Y-94257810D01*
X174164857Y-94353048D01*
X175069619Y-94019714D02*
X175069619Y-94686381D01*
X175069619Y-94114952D02*
X175117238Y-94067333D01*
X175212476Y-94019714D01*
X175355334Y-94019714D01*
X175450572Y-94067333D01*
X175498191Y-94162571D01*
X175498191Y-94686381D01*
X175926762Y-94638762D02*
X176022000Y-94686381D01*
X176212476Y-94686381D01*
X176307715Y-94638762D01*
X176355334Y-94543524D01*
X176355334Y-94495905D01*
X176307715Y-94400667D01*
X176212476Y-94353048D01*
X176069619Y-94353048D01*
X175974381Y-94305429D01*
X175926762Y-94210190D01*
X175926762Y-94162571D01*
X175974381Y-94067333D01*
X176069619Y-94019714D01*
X176212476Y-94019714D01*
X176307715Y-94067333D01*
X176926762Y-94686381D02*
X176831524Y-94638762D01*
X176783905Y-94591143D01*
X176736286Y-94495905D01*
X176736286Y-94210190D01*
X176783905Y-94114952D01*
X176831524Y-94067333D01*
X176926762Y-94019714D01*
X177069620Y-94019714D01*
X177164858Y-94067333D01*
X177212477Y-94114952D01*
X177260096Y-94210190D01*
X177260096Y-94495905D01*
X177212477Y-94591143D01*
X177164858Y-94638762D01*
X177069620Y-94686381D01*
X176926762Y-94686381D01*
X177688667Y-94686381D02*
X177688667Y-94019714D01*
X177688667Y-94210190D02*
X177736286Y-94114952D01*
X177783905Y-94067333D01*
X177879143Y-94019714D01*
X177974382Y-94019714D01*
X178783906Y-93686381D02*
X178307715Y-93686381D01*
X178260096Y-94162571D01*
X178307715Y-94114952D01*
X178402953Y-94067333D01*
X178641049Y-94067333D01*
X178736287Y-94114952D01*
X178783906Y-94162571D01*
X178831525Y-94257810D01*
X178831525Y-94495905D01*
X178783906Y-94591143D01*
X178736287Y-94638762D01*
X178641049Y-94686381D01*
X178402953Y-94686381D01*
X178307715Y-94638762D01*
X178260096Y-94591143D01*
X149320381Y-79192381D02*
X148844190Y-79192381D01*
X148844190Y-78192381D01*
X150034667Y-79144762D02*
X149939429Y-79192381D01*
X149748952Y-79192381D01*
X149653714Y-79144762D01*
X149606095Y-79049524D01*
X149606095Y-78668571D01*
X149653714Y-78573333D01*
X149748952Y-78525714D01*
X149939429Y-78525714D01*
X150034667Y-78573333D01*
X150082286Y-78668571D01*
X150082286Y-78763810D01*
X149606095Y-78859048D01*
X150939429Y-79192381D02*
X150939429Y-78192381D01*
X150939429Y-79144762D02*
X150844191Y-79192381D01*
X150653714Y-79192381D01*
X150558476Y-79144762D01*
X150510857Y-79097143D01*
X150463238Y-79001905D01*
X150463238Y-78716190D01*
X150510857Y-78620952D01*
X150558476Y-78573333D01*
X150653714Y-78525714D01*
X150844191Y-78525714D01*
X150939429Y-78573333D01*
X151939429Y-79192381D02*
X151368000Y-79192381D01*
X151653714Y-79192381D02*
X151653714Y-78192381D01*
X151558476Y-78335238D01*
X151463238Y-78430476D01*
X151368000Y-78478095D01*
X160750381Y-79192381D02*
X160274190Y-79192381D01*
X160274190Y-78192381D01*
X161464667Y-79144762D02*
X161369429Y-79192381D01*
X161178952Y-79192381D01*
X161083714Y-79144762D01*
X161036095Y-79049524D01*
X161036095Y-78668571D01*
X161083714Y-78573333D01*
X161178952Y-78525714D01*
X161369429Y-78525714D01*
X161464667Y-78573333D01*
X161512286Y-78668571D01*
X161512286Y-78763810D01*
X161036095Y-78859048D01*
X162369429Y-79192381D02*
X162369429Y-78192381D01*
X162369429Y-79144762D02*
X162274191Y-79192381D01*
X162083714Y-79192381D01*
X161988476Y-79144762D01*
X161940857Y-79097143D01*
X161893238Y-79001905D01*
X161893238Y-78716190D01*
X161940857Y-78620952D01*
X161988476Y-78573333D01*
X162083714Y-78525714D01*
X162274191Y-78525714D01*
X162369429Y-78573333D01*
X162798000Y-78287619D02*
X162845619Y-78240000D01*
X162940857Y-78192381D01*
X163178953Y-78192381D01*
X163274191Y-78240000D01*
X163321810Y-78287619D01*
X163369429Y-78382857D01*
X163369429Y-78478095D01*
X163321810Y-78620952D01*
X162750381Y-79192381D01*
X163369429Y-79192381D01*
X172180381Y-79192381D02*
X171704190Y-79192381D01*
X171704190Y-78192381D01*
X172894667Y-79144762D02*
X172799429Y-79192381D01*
X172608952Y-79192381D01*
X172513714Y-79144762D01*
X172466095Y-79049524D01*
X172466095Y-78668571D01*
X172513714Y-78573333D01*
X172608952Y-78525714D01*
X172799429Y-78525714D01*
X172894667Y-78573333D01*
X172942286Y-78668571D01*
X172942286Y-78763810D01*
X172466095Y-78859048D01*
X173799429Y-79192381D02*
X173799429Y-78192381D01*
X173799429Y-79144762D02*
X173704191Y-79192381D01*
X173513714Y-79192381D01*
X173418476Y-79144762D01*
X173370857Y-79097143D01*
X173323238Y-79001905D01*
X173323238Y-78716190D01*
X173370857Y-78620952D01*
X173418476Y-78573333D01*
X173513714Y-78525714D01*
X173704191Y-78525714D01*
X173799429Y-78573333D01*
X174180381Y-78192381D02*
X174799429Y-78192381D01*
X174466095Y-78573333D01*
X174608953Y-78573333D01*
X174704191Y-78620952D01*
X174751810Y-78668571D01*
X174799429Y-78763810D01*
X174799429Y-79001905D01*
X174751810Y-79097143D01*
X174704191Y-79144762D01*
X174608953Y-79192381D01*
X174323238Y-79192381D01*
X174228000Y-79144762D01*
X174180381Y-79097143D01*
X183610381Y-79192381D02*
X183134190Y-79192381D01*
X183134190Y-78192381D01*
X184324667Y-79144762D02*
X184229429Y-79192381D01*
X184038952Y-79192381D01*
X183943714Y-79144762D01*
X183896095Y-79049524D01*
X183896095Y-78668571D01*
X183943714Y-78573333D01*
X184038952Y-78525714D01*
X184229429Y-78525714D01*
X184324667Y-78573333D01*
X184372286Y-78668571D01*
X184372286Y-78763810D01*
X183896095Y-78859048D01*
X185229429Y-79192381D02*
X185229429Y-78192381D01*
X185229429Y-79144762D02*
X185134191Y-79192381D01*
X184943714Y-79192381D01*
X184848476Y-79144762D01*
X184800857Y-79097143D01*
X184753238Y-79001905D01*
X184753238Y-78716190D01*
X184800857Y-78620952D01*
X184848476Y-78573333D01*
X184943714Y-78525714D01*
X185134191Y-78525714D01*
X185229429Y-78573333D01*
X186134191Y-78525714D02*
X186134191Y-79192381D01*
X185896095Y-78144762D02*
X185658000Y-78859048D01*
X186277048Y-78859048D01*
M02*
