G04 #@! TF.FileFunction,Legend,Bot*
%FSLAX46Y46*%
G04 Gerber Fmt 4.6, Leading zero omitted, Abs format (unit mm)*
G04 Created by KiCad (PCBNEW 4.0.3+e1-6302~38~ubuntu15.04.1-stable) date Mon Sep 12 00:13:52 2016*
%MOMM*%
%LPD*%
G01*
G04 APERTURE LIST*
%ADD10C,0.100000*%
%ADD11C,0.300000*%
%ADD12C,0.010000*%
G04 APERTURE END LIST*
D10*
X158162048Y-101544381D02*
X158495382Y-101068190D01*
X158733477Y-101544381D02*
X158733477Y-100544381D01*
X158352524Y-100544381D01*
X158257286Y-100592000D01*
X158209667Y-100639619D01*
X158162048Y-100734857D01*
X158162048Y-100877714D01*
X158209667Y-100972952D01*
X158257286Y-101020571D01*
X158352524Y-101068190D01*
X158733477Y-101068190D01*
X157733477Y-101020571D02*
X157400143Y-101020571D01*
X157257286Y-101544381D02*
X157733477Y-101544381D01*
X157733477Y-100544381D01*
X157257286Y-100544381D01*
X156971572Y-100544381D02*
X156638239Y-101544381D01*
X156304905Y-100544381D01*
X155019191Y-100544381D02*
X154923952Y-100544381D01*
X154828714Y-100592000D01*
X154781095Y-100639619D01*
X154733476Y-100734857D01*
X154685857Y-100925333D01*
X154685857Y-101163429D01*
X154733476Y-101353905D01*
X154781095Y-101449143D01*
X154828714Y-101496762D01*
X154923952Y-101544381D01*
X155019191Y-101544381D01*
X155114429Y-101496762D01*
X155162048Y-101449143D01*
X155209667Y-101353905D01*
X155257286Y-101163429D01*
X155257286Y-100925333D01*
X155209667Y-100734857D01*
X155162048Y-100639619D01*
X155114429Y-100592000D01*
X155019191Y-100544381D01*
X153733476Y-101544381D02*
X154304905Y-101544381D01*
X154019191Y-101544381D02*
X154019191Y-100544381D01*
X154114429Y-100687238D01*
X154209667Y-100782476D01*
X154304905Y-100830095D01*
X180403571Y-101020571D02*
X180736905Y-101020571D01*
X180736905Y-101544381D02*
X180736905Y-100544381D01*
X180260714Y-100544381D01*
X179927381Y-101258667D02*
X179451190Y-101258667D01*
X180022619Y-101544381D02*
X179689286Y-100544381D01*
X179355952Y-101544381D01*
X178736904Y-100544381D02*
X178736904Y-101258667D01*
X178784524Y-101401524D01*
X178879762Y-101496762D01*
X179022619Y-101544381D01*
X179117857Y-101544381D01*
X177689285Y-101544381D02*
X178022619Y-101068190D01*
X178260714Y-101544381D02*
X178260714Y-100544381D01*
X177879761Y-100544381D01*
X177784523Y-100592000D01*
X177736904Y-100639619D01*
X177689285Y-100734857D01*
X177689285Y-100877714D01*
X177736904Y-100972952D01*
X177784523Y-101020571D01*
X177879761Y-101068190D01*
X178260714Y-101068190D01*
X177308333Y-101258667D02*
X176832142Y-101258667D01*
X177403571Y-101544381D02*
X177070238Y-100544381D01*
X176736904Y-101544381D01*
X176403571Y-101544381D02*
X176403571Y-100544381D01*
X175832142Y-101544381D01*
X175832142Y-100544381D01*
X174641666Y-100639619D02*
X174594047Y-100592000D01*
X174498809Y-100544381D01*
X174260713Y-100544381D01*
X174165475Y-100592000D01*
X174117856Y-100639619D01*
X174070237Y-100734857D01*
X174070237Y-100830095D01*
X174117856Y-100972952D01*
X174689285Y-101544381D01*
X174070237Y-101544381D01*
X173451190Y-100544381D02*
X173355951Y-100544381D01*
X173260713Y-100592000D01*
X173213094Y-100639619D01*
X173165475Y-100734857D01*
X173117856Y-100925333D01*
X173117856Y-101163429D01*
X173165475Y-101353905D01*
X173213094Y-101449143D01*
X173260713Y-101496762D01*
X173355951Y-101544381D01*
X173451190Y-101544381D01*
X173546428Y-101496762D01*
X173594047Y-101449143D01*
X173641666Y-101353905D01*
X173689285Y-101163429D01*
X173689285Y-100925333D01*
X173641666Y-100734857D01*
X173594047Y-100639619D01*
X173546428Y-100592000D01*
X173451190Y-100544381D01*
X172165475Y-101544381D02*
X172736904Y-101544381D01*
X172451190Y-101544381D02*
X172451190Y-100544381D01*
X172546428Y-100687238D01*
X172641666Y-100782476D01*
X172736904Y-100830095D01*
X171308332Y-100544381D02*
X171498809Y-100544381D01*
X171594047Y-100592000D01*
X171641666Y-100639619D01*
X171736904Y-100782476D01*
X171784523Y-100972952D01*
X171784523Y-101353905D01*
X171736904Y-101449143D01*
X171689285Y-101496762D01*
X171594047Y-101544381D01*
X171403570Y-101544381D01*
X171308332Y-101496762D01*
X171260713Y-101449143D01*
X171213094Y-101353905D01*
X171213094Y-101115810D01*
X171260713Y-101020571D01*
X171308332Y-100972952D01*
X171403570Y-100925333D01*
X171594047Y-100925333D01*
X171689285Y-100972952D01*
X171736904Y-101020571D01*
X171784523Y-101115810D01*
D11*
X173354286Y-70965143D02*
X173497143Y-71036571D01*
X173782857Y-71036571D01*
X173925715Y-70965143D01*
X173997143Y-70893714D01*
X174068572Y-70750857D01*
X174068572Y-70322286D01*
X173997143Y-70179429D01*
X173925715Y-70108000D01*
X173782857Y-70036571D01*
X173497143Y-70036571D01*
X173354286Y-70108000D01*
X172068572Y-71036571D02*
X172068572Y-70250857D01*
X172140001Y-70108000D01*
X172282858Y-70036571D01*
X172568572Y-70036571D01*
X172711429Y-70108000D01*
X172068572Y-70965143D02*
X172211429Y-71036571D01*
X172568572Y-71036571D01*
X172711429Y-70965143D01*
X172782858Y-70822286D01*
X172782858Y-70679429D01*
X172711429Y-70536571D01*
X172568572Y-70465143D01*
X172211429Y-70465143D01*
X172068572Y-70393714D01*
X171354286Y-71036571D02*
X171354286Y-69536571D01*
X171354286Y-70108000D02*
X171211429Y-70036571D01*
X170925715Y-70036571D01*
X170782858Y-70108000D01*
X170711429Y-70179429D01*
X170640000Y-70322286D01*
X170640000Y-70750857D01*
X170711429Y-70893714D01*
X170782858Y-70965143D01*
X170925715Y-71036571D01*
X171211429Y-71036571D01*
X171354286Y-70965143D01*
X169997143Y-71036571D02*
X169997143Y-70036571D01*
X169997143Y-69536571D02*
X170068572Y-69608000D01*
X169997143Y-69679429D01*
X169925715Y-69608000D01*
X169997143Y-69536571D01*
X169997143Y-69679429D01*
X169282857Y-70036571D02*
X169282857Y-71036571D01*
X169282857Y-70179429D02*
X169211429Y-70108000D01*
X169068571Y-70036571D01*
X168854286Y-70036571D01*
X168711429Y-70108000D01*
X168640000Y-70250857D01*
X168640000Y-71036571D01*
X167354286Y-70965143D02*
X167497143Y-71036571D01*
X167782857Y-71036571D01*
X167925714Y-70965143D01*
X167997143Y-70822286D01*
X167997143Y-70250857D01*
X167925714Y-70108000D01*
X167782857Y-70036571D01*
X167497143Y-70036571D01*
X167354286Y-70108000D01*
X167282857Y-70250857D01*
X167282857Y-70393714D01*
X167997143Y-70536571D01*
X166854286Y-70036571D02*
X166282857Y-70036571D01*
X166640000Y-69536571D02*
X166640000Y-70822286D01*
X166568572Y-70965143D01*
X166425714Y-71036571D01*
X166282857Y-71036571D01*
X164640000Y-71036571D02*
X164640000Y-69536571D01*
X163997143Y-71036571D02*
X163997143Y-70250857D01*
X164068572Y-70108000D01*
X164211429Y-70036571D01*
X164425714Y-70036571D01*
X164568572Y-70108000D01*
X164640000Y-70179429D01*
X162640000Y-70036571D02*
X162640000Y-71036571D01*
X163282857Y-70036571D02*
X163282857Y-70822286D01*
X163211429Y-70965143D01*
X163068571Y-71036571D01*
X162854286Y-71036571D01*
X162711429Y-70965143D01*
X162640000Y-70893714D01*
X161925714Y-71036571D02*
X161925714Y-69536571D01*
X161925714Y-70108000D02*
X161782857Y-70036571D01*
X161497143Y-70036571D01*
X161354286Y-70108000D01*
X161282857Y-70179429D01*
X161211428Y-70322286D01*
X161211428Y-70750857D01*
X161282857Y-70893714D01*
X161354286Y-70965143D01*
X161497143Y-71036571D01*
X161782857Y-71036571D01*
X161925714Y-70965143D01*
D12*
G36*
X170040256Y-95264918D02*
X169984799Y-95292568D01*
X169935852Y-95343480D01*
X169922371Y-95362338D01*
X169907686Y-95387015D01*
X169898158Y-95413816D01*
X169892707Y-95449587D01*
X169890253Y-95501169D01*
X169889714Y-95569267D01*
X169892148Y-95662588D01*
X169900606Y-95732657D01*
X169916826Y-95784931D01*
X169942546Y-95824869D01*
X169979503Y-95857929D01*
X169982218Y-95859886D01*
X170018640Y-95879908D01*
X170062498Y-95889815D01*
X170118276Y-95892257D01*
X170208952Y-95892257D01*
X170208990Y-95980283D01*
X170209834Y-96029308D01*
X170214976Y-96058065D01*
X170228413Y-96075311D01*
X170254142Y-96089808D01*
X170260321Y-96092769D01*
X170289236Y-96106648D01*
X170311624Y-96115414D01*
X170328271Y-96116171D01*
X170339964Y-96106023D01*
X170347490Y-96082073D01*
X170351634Y-96041426D01*
X170353185Y-95981186D01*
X170352929Y-95898455D01*
X170351651Y-95790339D01*
X170351252Y-95758000D01*
X170349815Y-95646524D01*
X170348528Y-95573603D01*
X170209029Y-95573603D01*
X170208245Y-95635499D01*
X170204760Y-95675997D01*
X170196876Y-95702708D01*
X170182895Y-95723244D01*
X170173403Y-95733260D01*
X170134596Y-95762567D01*
X170100237Y-95764952D01*
X170064784Y-95740750D01*
X170063886Y-95739857D01*
X170049461Y-95721153D01*
X170040687Y-95695732D01*
X170036261Y-95656584D01*
X170034882Y-95596697D01*
X170034857Y-95583430D01*
X170038188Y-95500901D01*
X170049031Y-95443691D01*
X170068660Y-95408766D01*
X170098350Y-95393094D01*
X170115509Y-95391514D01*
X170156234Y-95398926D01*
X170184168Y-95423330D01*
X170200983Y-95467980D01*
X170208350Y-95536130D01*
X170209029Y-95573603D01*
X170348528Y-95573603D01*
X170348292Y-95560245D01*
X170346323Y-95495333D01*
X170343550Y-95447958D01*
X170339612Y-95414290D01*
X170334151Y-95390498D01*
X170326808Y-95372753D01*
X170317223Y-95357224D01*
X170313113Y-95351381D01*
X170258595Y-95296185D01*
X170189664Y-95264890D01*
X170109928Y-95256165D01*
X170040256Y-95264918D01*
X170040256Y-95264918D01*
G37*
X170040256Y-95264918D02*
X169984799Y-95292568D01*
X169935852Y-95343480D01*
X169922371Y-95362338D01*
X169907686Y-95387015D01*
X169898158Y-95413816D01*
X169892707Y-95449587D01*
X169890253Y-95501169D01*
X169889714Y-95569267D01*
X169892148Y-95662588D01*
X169900606Y-95732657D01*
X169916826Y-95784931D01*
X169942546Y-95824869D01*
X169979503Y-95857929D01*
X169982218Y-95859886D01*
X170018640Y-95879908D01*
X170062498Y-95889815D01*
X170118276Y-95892257D01*
X170208952Y-95892257D01*
X170208990Y-95980283D01*
X170209834Y-96029308D01*
X170214976Y-96058065D01*
X170228413Y-96075311D01*
X170254142Y-96089808D01*
X170260321Y-96092769D01*
X170289236Y-96106648D01*
X170311624Y-96115414D01*
X170328271Y-96116171D01*
X170339964Y-96106023D01*
X170347490Y-96082073D01*
X170351634Y-96041426D01*
X170353185Y-95981186D01*
X170352929Y-95898455D01*
X170351651Y-95790339D01*
X170351252Y-95758000D01*
X170349815Y-95646524D01*
X170348528Y-95573603D01*
X170209029Y-95573603D01*
X170208245Y-95635499D01*
X170204760Y-95675997D01*
X170196876Y-95702708D01*
X170182895Y-95723244D01*
X170173403Y-95733260D01*
X170134596Y-95762567D01*
X170100237Y-95764952D01*
X170064784Y-95740750D01*
X170063886Y-95739857D01*
X170049461Y-95721153D01*
X170040687Y-95695732D01*
X170036261Y-95656584D01*
X170034882Y-95596697D01*
X170034857Y-95583430D01*
X170038188Y-95500901D01*
X170049031Y-95443691D01*
X170068660Y-95408766D01*
X170098350Y-95393094D01*
X170115509Y-95391514D01*
X170156234Y-95398926D01*
X170184168Y-95423330D01*
X170200983Y-95467980D01*
X170208350Y-95536130D01*
X170209029Y-95573603D01*
X170348528Y-95573603D01*
X170348292Y-95560245D01*
X170346323Y-95495333D01*
X170343550Y-95447958D01*
X170339612Y-95414290D01*
X170334151Y-95390498D01*
X170326808Y-95372753D01*
X170317223Y-95357224D01*
X170313113Y-95351381D01*
X170258595Y-95296185D01*
X170189664Y-95264890D01*
X170109928Y-95256165D01*
X170040256Y-95264918D01*
G36*
X168923907Y-95272780D02*
X168877328Y-95299723D01*
X168844943Y-95326466D01*
X168821258Y-95354484D01*
X168804941Y-95388748D01*
X168794661Y-95434227D01*
X168789086Y-95495892D01*
X168786884Y-95578711D01*
X168786629Y-95638246D01*
X168786629Y-95857391D01*
X168848314Y-95885044D01*
X168910000Y-95912697D01*
X168917257Y-95672670D01*
X168920256Y-95583028D01*
X168923402Y-95517962D01*
X168927299Y-95473026D01*
X168932553Y-95443770D01*
X168939769Y-95425748D01*
X168949550Y-95414511D01*
X168952688Y-95412079D01*
X169000239Y-95393083D01*
X169048303Y-95400600D01*
X169076914Y-95420543D01*
X169088553Y-95434675D01*
X169096609Y-95453220D01*
X169101729Y-95481334D01*
X169104559Y-95524173D01*
X169105744Y-95586895D01*
X169105943Y-95652261D01*
X169105982Y-95734268D01*
X169107386Y-95792316D01*
X169112086Y-95831465D01*
X169122013Y-95856780D01*
X169139097Y-95873323D01*
X169165268Y-95886156D01*
X169200225Y-95899491D01*
X169238404Y-95914007D01*
X169233859Y-95656389D01*
X169232029Y-95563519D01*
X169229888Y-95494889D01*
X169226819Y-95445711D01*
X169222206Y-95411198D01*
X169215432Y-95386562D01*
X169205881Y-95367016D01*
X169194366Y-95349770D01*
X169138810Y-95294680D01*
X169071020Y-95262822D01*
X168997287Y-95255191D01*
X168923907Y-95272780D01*
X168923907Y-95272780D01*
G37*
X168923907Y-95272780D02*
X168877328Y-95299723D01*
X168844943Y-95326466D01*
X168821258Y-95354484D01*
X168804941Y-95388748D01*
X168794661Y-95434227D01*
X168789086Y-95495892D01*
X168786884Y-95578711D01*
X168786629Y-95638246D01*
X168786629Y-95857391D01*
X168848314Y-95885044D01*
X168910000Y-95912697D01*
X168917257Y-95672670D01*
X168920256Y-95583028D01*
X168923402Y-95517962D01*
X168927299Y-95473026D01*
X168932553Y-95443770D01*
X168939769Y-95425748D01*
X168949550Y-95414511D01*
X168952688Y-95412079D01*
X169000239Y-95393083D01*
X169048303Y-95400600D01*
X169076914Y-95420543D01*
X169088553Y-95434675D01*
X169096609Y-95453220D01*
X169101729Y-95481334D01*
X169104559Y-95524173D01*
X169105744Y-95586895D01*
X169105943Y-95652261D01*
X169105982Y-95734268D01*
X169107386Y-95792316D01*
X169112086Y-95831465D01*
X169122013Y-95856780D01*
X169139097Y-95873323D01*
X169165268Y-95886156D01*
X169200225Y-95899491D01*
X169238404Y-95914007D01*
X169233859Y-95656389D01*
X169232029Y-95563519D01*
X169229888Y-95494889D01*
X169226819Y-95445711D01*
X169222206Y-95411198D01*
X169215432Y-95386562D01*
X169205881Y-95367016D01*
X169194366Y-95349770D01*
X169138810Y-95294680D01*
X169071020Y-95262822D01*
X168997287Y-95255191D01*
X168923907Y-95272780D01*
G36*
X170598885Y-95266962D02*
X170530855Y-95302733D01*
X170480649Y-95360301D01*
X170462815Y-95397312D01*
X170448937Y-95452882D01*
X170441833Y-95523096D01*
X170441160Y-95599727D01*
X170446573Y-95674552D01*
X170457730Y-95739342D01*
X170474286Y-95785873D01*
X170479374Y-95793887D01*
X170539645Y-95853707D01*
X170611231Y-95889535D01*
X170688908Y-95900020D01*
X170767452Y-95883810D01*
X170789311Y-95874092D01*
X170831878Y-95844143D01*
X170869237Y-95804433D01*
X170872768Y-95799397D01*
X170887119Y-95775124D01*
X170896606Y-95749178D01*
X170902210Y-95715022D01*
X170904914Y-95666119D01*
X170905701Y-95595935D01*
X170905714Y-95580200D01*
X170905678Y-95575192D01*
X170760571Y-95575192D01*
X170759727Y-95641430D01*
X170756404Y-95685386D01*
X170749417Y-95713779D01*
X170737584Y-95733325D01*
X170731543Y-95739857D01*
X170696814Y-95764680D01*
X170663097Y-95763548D01*
X170629005Y-95742016D01*
X170608671Y-95719029D01*
X170596629Y-95685478D01*
X170589866Y-95632569D01*
X170589402Y-95626399D01*
X170588248Y-95530513D01*
X170600312Y-95459299D01*
X170625430Y-95413194D01*
X170663440Y-95392635D01*
X170677008Y-95391514D01*
X170712636Y-95397152D01*
X170737006Y-95416686D01*
X170751907Y-95454042D01*
X170759125Y-95513150D01*
X170760571Y-95575192D01*
X170905678Y-95575192D01*
X170905174Y-95505413D01*
X170902904Y-95453159D01*
X170897932Y-95416949D01*
X170889287Y-95390299D01*
X170875995Y-95366722D01*
X170873057Y-95362338D01*
X170823687Y-95303249D01*
X170769891Y-95268947D01*
X170704398Y-95255331D01*
X170682158Y-95254665D01*
X170598885Y-95266962D01*
X170598885Y-95266962D01*
G37*
X170598885Y-95266962D02*
X170530855Y-95302733D01*
X170480649Y-95360301D01*
X170462815Y-95397312D01*
X170448937Y-95452882D01*
X170441833Y-95523096D01*
X170441160Y-95599727D01*
X170446573Y-95674552D01*
X170457730Y-95739342D01*
X170474286Y-95785873D01*
X170479374Y-95793887D01*
X170539645Y-95853707D01*
X170611231Y-95889535D01*
X170688908Y-95900020D01*
X170767452Y-95883810D01*
X170789311Y-95874092D01*
X170831878Y-95844143D01*
X170869237Y-95804433D01*
X170872768Y-95799397D01*
X170887119Y-95775124D01*
X170896606Y-95749178D01*
X170902210Y-95715022D01*
X170904914Y-95666119D01*
X170905701Y-95595935D01*
X170905714Y-95580200D01*
X170905678Y-95575192D01*
X170760571Y-95575192D01*
X170759727Y-95641430D01*
X170756404Y-95685386D01*
X170749417Y-95713779D01*
X170737584Y-95733325D01*
X170731543Y-95739857D01*
X170696814Y-95764680D01*
X170663097Y-95763548D01*
X170629005Y-95742016D01*
X170608671Y-95719029D01*
X170596629Y-95685478D01*
X170589866Y-95632569D01*
X170589402Y-95626399D01*
X170588248Y-95530513D01*
X170600312Y-95459299D01*
X170625430Y-95413194D01*
X170663440Y-95392635D01*
X170677008Y-95391514D01*
X170712636Y-95397152D01*
X170737006Y-95416686D01*
X170751907Y-95454042D01*
X170759125Y-95513150D01*
X170760571Y-95575192D01*
X170905678Y-95575192D01*
X170905174Y-95505413D01*
X170902904Y-95453159D01*
X170897932Y-95416949D01*
X170889287Y-95390299D01*
X170875995Y-95366722D01*
X170873057Y-95362338D01*
X170823687Y-95303249D01*
X170769891Y-95268947D01*
X170704398Y-95255331D01*
X170682158Y-95254665D01*
X170598885Y-95266962D01*
G36*
X169471697Y-95276239D02*
X169414473Y-95314735D01*
X169370251Y-95370335D01*
X169343833Y-95441086D01*
X169338490Y-95493162D01*
X169339097Y-95514893D01*
X169344178Y-95531531D01*
X169358145Y-95546437D01*
X169385411Y-95562973D01*
X169430388Y-95584498D01*
X169497489Y-95614374D01*
X169497829Y-95614524D01*
X169559593Y-95642813D01*
X169610241Y-95667933D01*
X169644596Y-95687179D01*
X169657482Y-95697848D01*
X169657486Y-95697934D01*
X169646128Y-95721166D01*
X169619569Y-95746774D01*
X169589077Y-95765221D01*
X169573630Y-95768886D01*
X169531485Y-95756212D01*
X169495192Y-95724471D01*
X169477483Y-95689572D01*
X169460448Y-95663845D01*
X169427078Y-95634546D01*
X169387851Y-95609235D01*
X169353244Y-95595471D01*
X169346007Y-95594714D01*
X169337861Y-95607160D01*
X169337370Y-95638972D01*
X169343357Y-95681866D01*
X169354643Y-95727558D01*
X169370050Y-95767761D01*
X169370829Y-95769322D01*
X169417196Y-95834062D01*
X169477289Y-95878097D01*
X169545535Y-95899711D01*
X169616362Y-95897185D01*
X169684196Y-95868804D01*
X169687212Y-95866808D01*
X169740573Y-95818448D01*
X169775660Y-95755352D01*
X169795078Y-95672387D01*
X169797684Y-95649078D01*
X169802299Y-95539055D01*
X169796767Y-95487748D01*
X169657486Y-95487748D01*
X169655676Y-95519753D01*
X169645778Y-95529093D01*
X169621102Y-95522105D01*
X169582205Y-95505587D01*
X169538725Y-95484881D01*
X169537644Y-95484333D01*
X169500791Y-95464949D01*
X169486000Y-95452013D01*
X169489647Y-95438451D01*
X169505005Y-95420632D01*
X169544077Y-95394845D01*
X169586154Y-95392950D01*
X169623897Y-95411717D01*
X169649966Y-95447915D01*
X169657486Y-95487748D01*
X169796767Y-95487748D01*
X169792806Y-95451027D01*
X169768450Y-95381212D01*
X169734544Y-95332302D01*
X169673347Y-95282878D01*
X169605937Y-95258359D01*
X169537120Y-95256797D01*
X169471697Y-95276239D01*
X169471697Y-95276239D01*
G37*
X169471697Y-95276239D02*
X169414473Y-95314735D01*
X169370251Y-95370335D01*
X169343833Y-95441086D01*
X169338490Y-95493162D01*
X169339097Y-95514893D01*
X169344178Y-95531531D01*
X169358145Y-95546437D01*
X169385411Y-95562973D01*
X169430388Y-95584498D01*
X169497489Y-95614374D01*
X169497829Y-95614524D01*
X169559593Y-95642813D01*
X169610241Y-95667933D01*
X169644596Y-95687179D01*
X169657482Y-95697848D01*
X169657486Y-95697934D01*
X169646128Y-95721166D01*
X169619569Y-95746774D01*
X169589077Y-95765221D01*
X169573630Y-95768886D01*
X169531485Y-95756212D01*
X169495192Y-95724471D01*
X169477483Y-95689572D01*
X169460448Y-95663845D01*
X169427078Y-95634546D01*
X169387851Y-95609235D01*
X169353244Y-95595471D01*
X169346007Y-95594714D01*
X169337861Y-95607160D01*
X169337370Y-95638972D01*
X169343357Y-95681866D01*
X169354643Y-95727558D01*
X169370050Y-95767761D01*
X169370829Y-95769322D01*
X169417196Y-95834062D01*
X169477289Y-95878097D01*
X169545535Y-95899711D01*
X169616362Y-95897185D01*
X169684196Y-95868804D01*
X169687212Y-95866808D01*
X169740573Y-95818448D01*
X169775660Y-95755352D01*
X169795078Y-95672387D01*
X169797684Y-95649078D01*
X169802299Y-95539055D01*
X169796767Y-95487748D01*
X169657486Y-95487748D01*
X169655676Y-95519753D01*
X169645778Y-95529093D01*
X169621102Y-95522105D01*
X169582205Y-95505587D01*
X169538725Y-95484881D01*
X169537644Y-95484333D01*
X169500791Y-95464949D01*
X169486000Y-95452013D01*
X169489647Y-95438451D01*
X169505005Y-95420632D01*
X169544077Y-95394845D01*
X169586154Y-95392950D01*
X169623897Y-95411717D01*
X169649966Y-95447915D01*
X169657486Y-95487748D01*
X169796767Y-95487748D01*
X169792806Y-95451027D01*
X169768450Y-95381212D01*
X169734544Y-95332302D01*
X169673347Y-95282878D01*
X169605937Y-95258359D01*
X169537120Y-95256797D01*
X169471697Y-95276239D01*
G36*
X168264114Y-95196289D02*
X168259861Y-95255613D01*
X168254975Y-95290572D01*
X168248205Y-95305820D01*
X168238298Y-95306015D01*
X168235086Y-95304195D01*
X168192356Y-95291015D01*
X168136773Y-95291785D01*
X168080263Y-95305333D01*
X168044918Y-95322861D01*
X168008679Y-95350861D01*
X167982187Y-95382549D01*
X167964001Y-95422813D01*
X167952678Y-95476543D01*
X167946778Y-95548626D01*
X167944857Y-95643951D01*
X167944823Y-95662237D01*
X167944800Y-95867646D01*
X167990509Y-95883580D01*
X168022973Y-95894420D01*
X168040785Y-95899468D01*
X168041309Y-95899514D01*
X168043063Y-95885828D01*
X168044556Y-95848076D01*
X168045674Y-95791224D01*
X168046303Y-95720234D01*
X168046400Y-95677073D01*
X168046602Y-95591973D01*
X168047642Y-95530981D01*
X168050169Y-95489177D01*
X168054836Y-95461642D01*
X168062293Y-95443456D01*
X168073189Y-95429698D01*
X168079993Y-95423073D01*
X168126728Y-95396375D01*
X168177728Y-95394375D01*
X168223999Y-95416955D01*
X168232556Y-95425107D01*
X168245107Y-95440436D01*
X168253812Y-95458618D01*
X168259369Y-95484909D01*
X168262474Y-95524562D01*
X168263824Y-95582832D01*
X168264114Y-95663173D01*
X168264114Y-95867646D01*
X168309823Y-95883580D01*
X168342287Y-95894420D01*
X168360099Y-95899468D01*
X168360623Y-95899514D01*
X168361963Y-95885623D01*
X168363172Y-95846439D01*
X168364199Y-95785700D01*
X168364998Y-95707141D01*
X168365519Y-95614498D01*
X168365714Y-95511509D01*
X168365714Y-95114342D01*
X168318543Y-95094444D01*
X168271371Y-95074547D01*
X168264114Y-95196289D01*
X168264114Y-95196289D01*
G37*
X168264114Y-95196289D02*
X168259861Y-95255613D01*
X168254975Y-95290572D01*
X168248205Y-95305820D01*
X168238298Y-95306015D01*
X168235086Y-95304195D01*
X168192356Y-95291015D01*
X168136773Y-95291785D01*
X168080263Y-95305333D01*
X168044918Y-95322861D01*
X168008679Y-95350861D01*
X167982187Y-95382549D01*
X167964001Y-95422813D01*
X167952678Y-95476543D01*
X167946778Y-95548626D01*
X167944857Y-95643951D01*
X167944823Y-95662237D01*
X167944800Y-95867646D01*
X167990509Y-95883580D01*
X168022973Y-95894420D01*
X168040785Y-95899468D01*
X168041309Y-95899514D01*
X168043063Y-95885828D01*
X168044556Y-95848076D01*
X168045674Y-95791224D01*
X168046303Y-95720234D01*
X168046400Y-95677073D01*
X168046602Y-95591973D01*
X168047642Y-95530981D01*
X168050169Y-95489177D01*
X168054836Y-95461642D01*
X168062293Y-95443456D01*
X168073189Y-95429698D01*
X168079993Y-95423073D01*
X168126728Y-95396375D01*
X168177728Y-95394375D01*
X168223999Y-95416955D01*
X168232556Y-95425107D01*
X168245107Y-95440436D01*
X168253812Y-95458618D01*
X168259369Y-95484909D01*
X168262474Y-95524562D01*
X168263824Y-95582832D01*
X168264114Y-95663173D01*
X168264114Y-95867646D01*
X168309823Y-95883580D01*
X168342287Y-95894420D01*
X168360099Y-95899468D01*
X168360623Y-95899514D01*
X168361963Y-95885623D01*
X168363172Y-95846439D01*
X168364199Y-95785700D01*
X168364998Y-95707141D01*
X168365519Y-95614498D01*
X168365714Y-95511509D01*
X168365714Y-95114342D01*
X168318543Y-95094444D01*
X168271371Y-95074547D01*
X168264114Y-95196289D01*
G36*
X167600256Y-95295968D02*
X167543384Y-95317087D01*
X167542733Y-95317493D01*
X167507560Y-95343380D01*
X167481593Y-95373633D01*
X167463330Y-95413058D01*
X167451268Y-95466462D01*
X167443904Y-95538651D01*
X167439736Y-95634432D01*
X167439371Y-95648078D01*
X167434124Y-95853842D01*
X167478284Y-95876678D01*
X167510237Y-95892110D01*
X167529530Y-95899423D01*
X167530422Y-95899514D01*
X167533761Y-95886022D01*
X167536413Y-95849626D01*
X167538044Y-95796452D01*
X167538400Y-95753393D01*
X167538408Y-95683641D01*
X167541597Y-95639837D01*
X167552712Y-95618944D01*
X167576499Y-95617925D01*
X167617704Y-95633741D01*
X167679914Y-95662815D01*
X167725659Y-95686963D01*
X167749187Y-95707913D01*
X167756104Y-95730747D01*
X167756114Y-95731877D01*
X167744701Y-95771212D01*
X167710908Y-95792462D01*
X167659191Y-95795539D01*
X167621939Y-95795006D01*
X167602297Y-95805735D01*
X167590048Y-95831505D01*
X167582998Y-95864337D01*
X167593158Y-95882966D01*
X167596983Y-95885632D01*
X167632999Y-95896340D01*
X167683434Y-95897856D01*
X167735374Y-95890759D01*
X167772178Y-95877788D01*
X167823062Y-95834585D01*
X167851986Y-95774446D01*
X167857714Y-95727462D01*
X167853343Y-95685082D01*
X167837525Y-95650488D01*
X167806203Y-95619763D01*
X167755322Y-95588990D01*
X167680824Y-95554252D01*
X167676286Y-95552288D01*
X167609179Y-95521287D01*
X167567768Y-95495862D01*
X167550019Y-95473014D01*
X167553893Y-95449745D01*
X167577357Y-95423056D01*
X167584373Y-95416914D01*
X167631370Y-95393100D01*
X167680067Y-95394103D01*
X167722478Y-95417451D01*
X167750616Y-95460675D01*
X167753231Y-95469160D01*
X167778692Y-95510308D01*
X167810999Y-95530128D01*
X167857714Y-95549770D01*
X167857714Y-95498950D01*
X167843504Y-95425082D01*
X167801325Y-95357327D01*
X167779376Y-95334661D01*
X167729483Y-95305569D01*
X167666033Y-95292400D01*
X167600256Y-95295968D01*
X167600256Y-95295968D01*
G37*
X167600256Y-95295968D02*
X167543384Y-95317087D01*
X167542733Y-95317493D01*
X167507560Y-95343380D01*
X167481593Y-95373633D01*
X167463330Y-95413058D01*
X167451268Y-95466462D01*
X167443904Y-95538651D01*
X167439736Y-95634432D01*
X167439371Y-95648078D01*
X167434124Y-95853842D01*
X167478284Y-95876678D01*
X167510237Y-95892110D01*
X167529530Y-95899423D01*
X167530422Y-95899514D01*
X167533761Y-95886022D01*
X167536413Y-95849626D01*
X167538044Y-95796452D01*
X167538400Y-95753393D01*
X167538408Y-95683641D01*
X167541597Y-95639837D01*
X167552712Y-95618944D01*
X167576499Y-95617925D01*
X167617704Y-95633741D01*
X167679914Y-95662815D01*
X167725659Y-95686963D01*
X167749187Y-95707913D01*
X167756104Y-95730747D01*
X167756114Y-95731877D01*
X167744701Y-95771212D01*
X167710908Y-95792462D01*
X167659191Y-95795539D01*
X167621939Y-95795006D01*
X167602297Y-95805735D01*
X167590048Y-95831505D01*
X167582998Y-95864337D01*
X167593158Y-95882966D01*
X167596983Y-95885632D01*
X167632999Y-95896340D01*
X167683434Y-95897856D01*
X167735374Y-95890759D01*
X167772178Y-95877788D01*
X167823062Y-95834585D01*
X167851986Y-95774446D01*
X167857714Y-95727462D01*
X167853343Y-95685082D01*
X167837525Y-95650488D01*
X167806203Y-95619763D01*
X167755322Y-95588990D01*
X167680824Y-95554252D01*
X167676286Y-95552288D01*
X167609179Y-95521287D01*
X167567768Y-95495862D01*
X167550019Y-95473014D01*
X167553893Y-95449745D01*
X167577357Y-95423056D01*
X167584373Y-95416914D01*
X167631370Y-95393100D01*
X167680067Y-95394103D01*
X167722478Y-95417451D01*
X167750616Y-95460675D01*
X167753231Y-95469160D01*
X167778692Y-95510308D01*
X167810999Y-95530128D01*
X167857714Y-95549770D01*
X167857714Y-95498950D01*
X167843504Y-95425082D01*
X167801325Y-95357327D01*
X167779376Y-95334661D01*
X167729483Y-95305569D01*
X167666033Y-95292400D01*
X167600256Y-95295968D01*
G36*
X167110074Y-95294755D02*
X167044142Y-95319084D01*
X166990727Y-95362117D01*
X166969836Y-95392409D01*
X166947061Y-95447994D01*
X166947534Y-95488186D01*
X166971438Y-95515217D01*
X166980283Y-95519813D01*
X167018470Y-95534144D01*
X167037972Y-95530472D01*
X167044578Y-95506407D01*
X167044914Y-95493114D01*
X167057008Y-95444210D01*
X167088529Y-95409999D01*
X167132341Y-95393476D01*
X167181305Y-95397634D01*
X167221106Y-95419227D01*
X167234550Y-95431544D01*
X167244079Y-95446487D01*
X167250515Y-95469075D01*
X167254683Y-95504328D01*
X167257403Y-95557266D01*
X167259498Y-95632907D01*
X167260040Y-95656857D01*
X167262019Y-95738790D01*
X167264269Y-95796455D01*
X167267643Y-95834608D01*
X167272994Y-95858004D01*
X167281176Y-95871398D01*
X167293041Y-95879545D01*
X167300638Y-95883144D01*
X167332898Y-95895452D01*
X167351889Y-95899514D01*
X167358164Y-95885948D01*
X167361994Y-95844934D01*
X167363400Y-95775999D01*
X167362402Y-95678669D01*
X167362092Y-95663657D01*
X167359899Y-95574859D01*
X167357307Y-95510019D01*
X167353618Y-95464067D01*
X167348136Y-95431935D01*
X167340165Y-95408553D01*
X167329007Y-95388852D01*
X167323170Y-95380410D01*
X167289704Y-95343057D01*
X167252273Y-95314003D01*
X167247691Y-95311467D01*
X167180574Y-95291443D01*
X167110074Y-95294755D01*
X167110074Y-95294755D01*
G37*
X167110074Y-95294755D02*
X167044142Y-95319084D01*
X166990727Y-95362117D01*
X166969836Y-95392409D01*
X166947061Y-95447994D01*
X166947534Y-95488186D01*
X166971438Y-95515217D01*
X166980283Y-95519813D01*
X167018470Y-95534144D01*
X167037972Y-95530472D01*
X167044578Y-95506407D01*
X167044914Y-95493114D01*
X167057008Y-95444210D01*
X167088529Y-95409999D01*
X167132341Y-95393476D01*
X167181305Y-95397634D01*
X167221106Y-95419227D01*
X167234550Y-95431544D01*
X167244079Y-95446487D01*
X167250515Y-95469075D01*
X167254683Y-95504328D01*
X167257403Y-95557266D01*
X167259498Y-95632907D01*
X167260040Y-95656857D01*
X167262019Y-95738790D01*
X167264269Y-95796455D01*
X167267643Y-95834608D01*
X167272994Y-95858004D01*
X167281176Y-95871398D01*
X167293041Y-95879545D01*
X167300638Y-95883144D01*
X167332898Y-95895452D01*
X167351889Y-95899514D01*
X167358164Y-95885948D01*
X167361994Y-95844934D01*
X167363400Y-95775999D01*
X167362402Y-95678669D01*
X167362092Y-95663657D01*
X167359899Y-95574859D01*
X167357307Y-95510019D01*
X167353618Y-95464067D01*
X167348136Y-95431935D01*
X167340165Y-95408553D01*
X167329007Y-95388852D01*
X167323170Y-95380410D01*
X167289704Y-95343057D01*
X167252273Y-95314003D01*
X167247691Y-95311467D01*
X167180574Y-95291443D01*
X167110074Y-95294755D01*
G36*
X166449883Y-95410358D02*
X166450067Y-95518837D01*
X166450781Y-95602287D01*
X166452325Y-95664704D01*
X166454999Y-95710085D01*
X166459106Y-95742429D01*
X166464945Y-95765733D01*
X166472818Y-95783995D01*
X166478779Y-95794418D01*
X166528145Y-95850945D01*
X166590736Y-95886377D01*
X166659987Y-95899090D01*
X166729332Y-95887463D01*
X166770625Y-95866568D01*
X166813975Y-95830422D01*
X166843519Y-95786276D01*
X166861345Y-95728462D01*
X166869537Y-95651313D01*
X166870698Y-95594714D01*
X166870542Y-95590647D01*
X166769143Y-95590647D01*
X166768524Y-95655550D01*
X166765686Y-95698514D01*
X166759160Y-95726622D01*
X166747477Y-95746953D01*
X166733517Y-95762288D01*
X166686635Y-95791890D01*
X166636299Y-95794419D01*
X166588724Y-95769705D01*
X166585021Y-95766356D01*
X166569217Y-95748935D01*
X166559307Y-95728209D01*
X166553942Y-95697362D01*
X166551772Y-95649577D01*
X166551429Y-95596748D01*
X166552173Y-95530381D01*
X166555252Y-95486106D01*
X166561939Y-95457009D01*
X166573504Y-95436173D01*
X166582987Y-95425107D01*
X166627040Y-95397198D01*
X166677776Y-95393843D01*
X166726204Y-95415159D01*
X166735550Y-95423073D01*
X166751460Y-95440647D01*
X166761390Y-95461587D01*
X166766722Y-95492782D01*
X166768837Y-95541122D01*
X166769143Y-95590647D01*
X166870542Y-95590647D01*
X166867190Y-95503568D01*
X166855274Y-95435086D01*
X166832865Y-95383600D01*
X166797876Y-95343443D01*
X166770625Y-95322861D01*
X166721093Y-95300625D01*
X166663684Y-95290304D01*
X166610318Y-95293067D01*
X166580457Y-95304212D01*
X166568739Y-95307383D01*
X166560963Y-95295557D01*
X166555535Y-95263866D01*
X166551429Y-95215593D01*
X166546933Y-95161829D01*
X166540687Y-95129482D01*
X166529324Y-95110985D01*
X166509472Y-95098770D01*
X166497000Y-95093362D01*
X166449829Y-95073601D01*
X166449883Y-95410358D01*
X166449883Y-95410358D01*
G37*
X166449883Y-95410358D02*
X166450067Y-95518837D01*
X166450781Y-95602287D01*
X166452325Y-95664704D01*
X166454999Y-95710085D01*
X166459106Y-95742429D01*
X166464945Y-95765733D01*
X166472818Y-95783995D01*
X166478779Y-95794418D01*
X166528145Y-95850945D01*
X166590736Y-95886377D01*
X166659987Y-95899090D01*
X166729332Y-95887463D01*
X166770625Y-95866568D01*
X166813975Y-95830422D01*
X166843519Y-95786276D01*
X166861345Y-95728462D01*
X166869537Y-95651313D01*
X166870698Y-95594714D01*
X166870542Y-95590647D01*
X166769143Y-95590647D01*
X166768524Y-95655550D01*
X166765686Y-95698514D01*
X166759160Y-95726622D01*
X166747477Y-95746953D01*
X166733517Y-95762288D01*
X166686635Y-95791890D01*
X166636299Y-95794419D01*
X166588724Y-95769705D01*
X166585021Y-95766356D01*
X166569217Y-95748935D01*
X166559307Y-95728209D01*
X166553942Y-95697362D01*
X166551772Y-95649577D01*
X166551429Y-95596748D01*
X166552173Y-95530381D01*
X166555252Y-95486106D01*
X166561939Y-95457009D01*
X166573504Y-95436173D01*
X166582987Y-95425107D01*
X166627040Y-95397198D01*
X166677776Y-95393843D01*
X166726204Y-95415159D01*
X166735550Y-95423073D01*
X166751460Y-95440647D01*
X166761390Y-95461587D01*
X166766722Y-95492782D01*
X166768837Y-95541122D01*
X166769143Y-95590647D01*
X166870542Y-95590647D01*
X166867190Y-95503568D01*
X166855274Y-95435086D01*
X166832865Y-95383600D01*
X166797876Y-95343443D01*
X166770625Y-95322861D01*
X166721093Y-95300625D01*
X166663684Y-95290304D01*
X166610318Y-95293067D01*
X166580457Y-95304212D01*
X166568739Y-95307383D01*
X166560963Y-95295557D01*
X166555535Y-95263866D01*
X166551429Y-95215593D01*
X166546933Y-95161829D01*
X166540687Y-95129482D01*
X166529324Y-95110985D01*
X166509472Y-95098770D01*
X166497000Y-95093362D01*
X166449829Y-95073601D01*
X166449883Y-95410358D01*
G36*
X165860167Y-95303663D02*
X165857952Y-95341850D01*
X165856216Y-95399886D01*
X165855101Y-95473180D01*
X165854743Y-95550055D01*
X165854743Y-95810196D01*
X165900674Y-95856127D01*
X165932325Y-95884429D01*
X165960110Y-95895893D01*
X165998085Y-95895168D01*
X166013160Y-95893321D01*
X166060274Y-95887948D01*
X166099244Y-95884869D01*
X166108743Y-95884585D01*
X166140767Y-95886445D01*
X166186568Y-95891114D01*
X166204326Y-95893321D01*
X166247943Y-95896735D01*
X166277255Y-95889320D01*
X166306320Y-95866427D01*
X166316812Y-95856127D01*
X166362743Y-95810196D01*
X166362743Y-95323602D01*
X166325774Y-95306758D01*
X166293941Y-95294282D01*
X166275317Y-95289914D01*
X166270542Y-95303718D01*
X166266079Y-95342286D01*
X166262225Y-95401356D01*
X166259278Y-95476663D01*
X166257857Y-95540286D01*
X166253886Y-95790657D01*
X166219241Y-95795556D01*
X166187732Y-95792131D01*
X166172292Y-95781041D01*
X166167977Y-95760308D01*
X166164292Y-95716145D01*
X166161531Y-95654146D01*
X166159988Y-95579909D01*
X166159765Y-95541706D01*
X166159543Y-95321783D01*
X166113834Y-95305849D01*
X166081482Y-95295015D01*
X166063885Y-95289962D01*
X166063377Y-95289914D01*
X166061612Y-95303648D01*
X166059671Y-95341730D01*
X166057718Y-95399482D01*
X166055916Y-95472227D01*
X166054657Y-95540286D01*
X166050686Y-95790657D01*
X165963600Y-95790657D01*
X165959604Y-95562240D01*
X165955608Y-95333822D01*
X165913153Y-95311868D01*
X165881808Y-95296793D01*
X165863256Y-95289951D01*
X165862721Y-95289914D01*
X165860167Y-95303663D01*
X165860167Y-95303663D01*
G37*
X165860167Y-95303663D02*
X165857952Y-95341850D01*
X165856216Y-95399886D01*
X165855101Y-95473180D01*
X165854743Y-95550055D01*
X165854743Y-95810196D01*
X165900674Y-95856127D01*
X165932325Y-95884429D01*
X165960110Y-95895893D01*
X165998085Y-95895168D01*
X166013160Y-95893321D01*
X166060274Y-95887948D01*
X166099244Y-95884869D01*
X166108743Y-95884585D01*
X166140767Y-95886445D01*
X166186568Y-95891114D01*
X166204326Y-95893321D01*
X166247943Y-95896735D01*
X166277255Y-95889320D01*
X166306320Y-95866427D01*
X166316812Y-95856127D01*
X166362743Y-95810196D01*
X166362743Y-95323602D01*
X166325774Y-95306758D01*
X166293941Y-95294282D01*
X166275317Y-95289914D01*
X166270542Y-95303718D01*
X166266079Y-95342286D01*
X166262225Y-95401356D01*
X166259278Y-95476663D01*
X166257857Y-95540286D01*
X166253886Y-95790657D01*
X166219241Y-95795556D01*
X166187732Y-95792131D01*
X166172292Y-95781041D01*
X166167977Y-95760308D01*
X166164292Y-95716145D01*
X166161531Y-95654146D01*
X166159988Y-95579909D01*
X166159765Y-95541706D01*
X166159543Y-95321783D01*
X166113834Y-95305849D01*
X166081482Y-95295015D01*
X166063885Y-95289962D01*
X166063377Y-95289914D01*
X166061612Y-95303648D01*
X166059671Y-95341730D01*
X166057718Y-95399482D01*
X166055916Y-95472227D01*
X166054657Y-95540286D01*
X166050686Y-95790657D01*
X165963600Y-95790657D01*
X165959604Y-95562240D01*
X165955608Y-95333822D01*
X165913153Y-95311868D01*
X165881808Y-95296793D01*
X165863256Y-95289951D01*
X165862721Y-95289914D01*
X165860167Y-95303663D01*
G36*
X165495124Y-95301335D02*
X165453333Y-95320344D01*
X165420531Y-95343378D01*
X165396497Y-95369133D01*
X165379903Y-95402358D01*
X165369423Y-95447800D01*
X165363729Y-95510207D01*
X165361493Y-95594327D01*
X165361257Y-95649721D01*
X165361257Y-95865826D01*
X165398226Y-95882670D01*
X165427344Y-95894981D01*
X165441769Y-95899514D01*
X165444528Y-95886025D01*
X165446718Y-95849653D01*
X165448058Y-95796542D01*
X165448343Y-95754372D01*
X165449566Y-95693447D01*
X165452864Y-95645115D01*
X165457679Y-95615518D01*
X165461504Y-95609229D01*
X165487217Y-95615652D01*
X165527582Y-95632125D01*
X165574321Y-95654458D01*
X165619155Y-95678457D01*
X165653807Y-95699930D01*
X165669998Y-95714685D01*
X165670062Y-95714845D01*
X165668670Y-95742152D01*
X165656182Y-95768219D01*
X165634257Y-95789392D01*
X165602257Y-95796474D01*
X165574908Y-95795649D01*
X165536174Y-95795042D01*
X165515842Y-95804116D01*
X165503631Y-95828092D01*
X165502091Y-95832613D01*
X165496797Y-95866806D01*
X165510953Y-95887568D01*
X165547852Y-95897462D01*
X165587711Y-95899292D01*
X165659438Y-95885727D01*
X165696568Y-95866355D01*
X165742424Y-95820845D01*
X165766744Y-95764983D01*
X165768927Y-95705957D01*
X165748371Y-95650953D01*
X165717451Y-95616486D01*
X165686580Y-95597189D01*
X165638058Y-95572759D01*
X165581515Y-95547985D01*
X165572090Y-95544199D01*
X165509981Y-95516791D01*
X165474178Y-95492634D01*
X165462663Y-95468619D01*
X165473420Y-95441635D01*
X165491886Y-95420543D01*
X165535531Y-95394572D01*
X165583554Y-95392624D01*
X165627594Y-95412637D01*
X165659291Y-95452551D01*
X165663451Y-95462848D01*
X165687673Y-95500724D01*
X165723035Y-95528842D01*
X165767657Y-95551917D01*
X165767657Y-95486485D01*
X165765031Y-95446506D01*
X165753770Y-95414997D01*
X165728801Y-95381378D01*
X165704831Y-95355484D01*
X165667559Y-95318817D01*
X165638599Y-95299121D01*
X165607495Y-95291220D01*
X165572287Y-95289914D01*
X165495124Y-95301335D01*
X165495124Y-95301335D01*
G37*
X165495124Y-95301335D02*
X165453333Y-95320344D01*
X165420531Y-95343378D01*
X165396497Y-95369133D01*
X165379903Y-95402358D01*
X165369423Y-95447800D01*
X165363729Y-95510207D01*
X165361493Y-95594327D01*
X165361257Y-95649721D01*
X165361257Y-95865826D01*
X165398226Y-95882670D01*
X165427344Y-95894981D01*
X165441769Y-95899514D01*
X165444528Y-95886025D01*
X165446718Y-95849653D01*
X165448058Y-95796542D01*
X165448343Y-95754372D01*
X165449566Y-95693447D01*
X165452864Y-95645115D01*
X165457679Y-95615518D01*
X165461504Y-95609229D01*
X165487217Y-95615652D01*
X165527582Y-95632125D01*
X165574321Y-95654458D01*
X165619155Y-95678457D01*
X165653807Y-95699930D01*
X165669998Y-95714685D01*
X165670062Y-95714845D01*
X165668670Y-95742152D01*
X165656182Y-95768219D01*
X165634257Y-95789392D01*
X165602257Y-95796474D01*
X165574908Y-95795649D01*
X165536174Y-95795042D01*
X165515842Y-95804116D01*
X165503631Y-95828092D01*
X165502091Y-95832613D01*
X165496797Y-95866806D01*
X165510953Y-95887568D01*
X165547852Y-95897462D01*
X165587711Y-95899292D01*
X165659438Y-95885727D01*
X165696568Y-95866355D01*
X165742424Y-95820845D01*
X165766744Y-95764983D01*
X165768927Y-95705957D01*
X165748371Y-95650953D01*
X165717451Y-95616486D01*
X165686580Y-95597189D01*
X165638058Y-95572759D01*
X165581515Y-95547985D01*
X165572090Y-95544199D01*
X165509981Y-95516791D01*
X165474178Y-95492634D01*
X165462663Y-95468619D01*
X165473420Y-95441635D01*
X165491886Y-95420543D01*
X165535531Y-95394572D01*
X165583554Y-95392624D01*
X165627594Y-95412637D01*
X165659291Y-95452551D01*
X165663451Y-95462848D01*
X165687673Y-95500724D01*
X165723035Y-95528842D01*
X165767657Y-95551917D01*
X165767657Y-95486485D01*
X165765031Y-95446506D01*
X165753770Y-95414997D01*
X165728801Y-95381378D01*
X165704831Y-95355484D01*
X165667559Y-95318817D01*
X165638599Y-95299121D01*
X165607495Y-95291220D01*
X165572287Y-95289914D01*
X165495124Y-95301335D01*
G36*
X164987400Y-95303752D02*
X164970052Y-95311334D01*
X164928644Y-95344128D01*
X164893235Y-95391547D01*
X164871336Y-95442151D01*
X164867771Y-95467098D01*
X164879721Y-95501927D01*
X164905933Y-95520357D01*
X164934036Y-95531516D01*
X164946905Y-95533572D01*
X164953171Y-95518649D01*
X164965544Y-95486175D01*
X164970972Y-95471502D01*
X165001410Y-95420744D01*
X165045480Y-95395427D01*
X165101990Y-95396206D01*
X165106175Y-95397203D01*
X165136345Y-95411507D01*
X165158524Y-95439393D01*
X165173673Y-95484287D01*
X165182750Y-95549615D01*
X165186714Y-95638804D01*
X165187086Y-95686261D01*
X165187270Y-95761071D01*
X165188478Y-95812069D01*
X165191691Y-95844471D01*
X165197891Y-95863495D01*
X165208060Y-95874356D01*
X165223181Y-95882272D01*
X165224054Y-95882670D01*
X165253172Y-95894981D01*
X165267597Y-95899514D01*
X165269814Y-95885809D01*
X165271711Y-95847925D01*
X165273153Y-95790715D01*
X165274002Y-95719027D01*
X165274171Y-95666565D01*
X165273308Y-95565047D01*
X165269930Y-95488032D01*
X165262858Y-95431023D01*
X165250912Y-95389526D01*
X165232910Y-95359043D01*
X165207673Y-95335080D01*
X165182753Y-95318355D01*
X165122829Y-95296097D01*
X165053089Y-95291076D01*
X164987400Y-95303752D01*
X164987400Y-95303752D01*
G37*
X164987400Y-95303752D02*
X164970052Y-95311334D01*
X164928644Y-95344128D01*
X164893235Y-95391547D01*
X164871336Y-95442151D01*
X164867771Y-95467098D01*
X164879721Y-95501927D01*
X164905933Y-95520357D01*
X164934036Y-95531516D01*
X164946905Y-95533572D01*
X164953171Y-95518649D01*
X164965544Y-95486175D01*
X164970972Y-95471502D01*
X165001410Y-95420744D01*
X165045480Y-95395427D01*
X165101990Y-95396206D01*
X165106175Y-95397203D01*
X165136345Y-95411507D01*
X165158524Y-95439393D01*
X165173673Y-95484287D01*
X165182750Y-95549615D01*
X165186714Y-95638804D01*
X165187086Y-95686261D01*
X165187270Y-95761071D01*
X165188478Y-95812069D01*
X165191691Y-95844471D01*
X165197891Y-95863495D01*
X165208060Y-95874356D01*
X165223181Y-95882272D01*
X165224054Y-95882670D01*
X165253172Y-95894981D01*
X165267597Y-95899514D01*
X165269814Y-95885809D01*
X165271711Y-95847925D01*
X165273153Y-95790715D01*
X165274002Y-95719027D01*
X165274171Y-95666565D01*
X165273308Y-95565047D01*
X165269930Y-95488032D01*
X165262858Y-95431023D01*
X165250912Y-95389526D01*
X165232910Y-95359043D01*
X165207673Y-95335080D01*
X165182753Y-95318355D01*
X165122829Y-95296097D01*
X165053089Y-95291076D01*
X164987400Y-95303752D01*
G36*
X164486405Y-95311966D02*
X164428979Y-95349497D01*
X164401281Y-95383096D01*
X164379338Y-95444064D01*
X164377595Y-95492308D01*
X164381543Y-95556816D01*
X164530314Y-95621934D01*
X164602651Y-95655202D01*
X164649916Y-95681964D01*
X164674493Y-95705144D01*
X164678763Y-95727667D01*
X164665111Y-95752455D01*
X164650057Y-95768886D01*
X164606254Y-95795235D01*
X164558611Y-95797081D01*
X164514855Y-95776546D01*
X164482711Y-95735752D01*
X164476962Y-95721347D01*
X164449424Y-95676356D01*
X164417742Y-95657182D01*
X164374286Y-95640779D01*
X164374286Y-95702966D01*
X164378128Y-95745283D01*
X164393177Y-95780969D01*
X164424720Y-95821943D01*
X164429408Y-95827267D01*
X164464494Y-95863720D01*
X164494653Y-95883283D01*
X164532385Y-95892283D01*
X164563665Y-95895230D01*
X164619615Y-95895965D01*
X164659445Y-95886660D01*
X164684292Y-95872846D01*
X164723344Y-95842467D01*
X164750375Y-95809613D01*
X164767483Y-95768294D01*
X164776762Y-95712521D01*
X164780307Y-95636305D01*
X164780590Y-95597622D01*
X164779628Y-95551247D01*
X164691993Y-95551247D01*
X164690977Y-95576126D01*
X164688444Y-95580200D01*
X164671726Y-95574665D01*
X164635751Y-95560017D01*
X164587669Y-95539190D01*
X164577614Y-95534714D01*
X164516848Y-95503814D01*
X164483368Y-95476657D01*
X164476010Y-95451220D01*
X164493609Y-95425481D01*
X164508144Y-95414109D01*
X164560590Y-95391364D01*
X164609678Y-95395122D01*
X164650773Y-95422884D01*
X164679242Y-95472152D01*
X164688369Y-95511257D01*
X164691993Y-95551247D01*
X164779628Y-95551247D01*
X164778715Y-95507249D01*
X164771804Y-95440384D01*
X164758116Y-95391695D01*
X164735904Y-95355849D01*
X164703426Y-95327513D01*
X164689267Y-95318355D01*
X164624947Y-95294507D01*
X164554527Y-95293006D01*
X164486405Y-95311966D01*
X164486405Y-95311966D01*
G37*
X164486405Y-95311966D02*
X164428979Y-95349497D01*
X164401281Y-95383096D01*
X164379338Y-95444064D01*
X164377595Y-95492308D01*
X164381543Y-95556816D01*
X164530314Y-95621934D01*
X164602651Y-95655202D01*
X164649916Y-95681964D01*
X164674493Y-95705144D01*
X164678763Y-95727667D01*
X164665111Y-95752455D01*
X164650057Y-95768886D01*
X164606254Y-95795235D01*
X164558611Y-95797081D01*
X164514855Y-95776546D01*
X164482711Y-95735752D01*
X164476962Y-95721347D01*
X164449424Y-95676356D01*
X164417742Y-95657182D01*
X164374286Y-95640779D01*
X164374286Y-95702966D01*
X164378128Y-95745283D01*
X164393177Y-95780969D01*
X164424720Y-95821943D01*
X164429408Y-95827267D01*
X164464494Y-95863720D01*
X164494653Y-95883283D01*
X164532385Y-95892283D01*
X164563665Y-95895230D01*
X164619615Y-95895965D01*
X164659445Y-95886660D01*
X164684292Y-95872846D01*
X164723344Y-95842467D01*
X164750375Y-95809613D01*
X164767483Y-95768294D01*
X164776762Y-95712521D01*
X164780307Y-95636305D01*
X164780590Y-95597622D01*
X164779628Y-95551247D01*
X164691993Y-95551247D01*
X164690977Y-95576126D01*
X164688444Y-95580200D01*
X164671726Y-95574665D01*
X164635751Y-95560017D01*
X164587669Y-95539190D01*
X164577614Y-95534714D01*
X164516848Y-95503814D01*
X164483368Y-95476657D01*
X164476010Y-95451220D01*
X164493609Y-95425481D01*
X164508144Y-95414109D01*
X164560590Y-95391364D01*
X164609678Y-95395122D01*
X164650773Y-95422884D01*
X164679242Y-95472152D01*
X164688369Y-95511257D01*
X164691993Y-95551247D01*
X164779628Y-95551247D01*
X164778715Y-95507249D01*
X164771804Y-95440384D01*
X164758116Y-95391695D01*
X164735904Y-95355849D01*
X164703426Y-95327513D01*
X164689267Y-95318355D01*
X164624947Y-95294507D01*
X164554527Y-95293006D01*
X164486405Y-95311966D01*
G36*
X167536090Y-90587348D02*
X167457546Y-90587778D01*
X167400702Y-90588942D01*
X167361895Y-90591207D01*
X167337462Y-90594940D01*
X167323738Y-90600506D01*
X167317060Y-90608273D01*
X167313764Y-90618605D01*
X167313444Y-90619943D01*
X167308438Y-90644079D01*
X167299171Y-90691701D01*
X167286608Y-90757741D01*
X167271713Y-90837128D01*
X167255449Y-90924796D01*
X167254881Y-90927875D01*
X167238590Y-91013789D01*
X167223348Y-91089696D01*
X167210139Y-91151045D01*
X167199946Y-91193282D01*
X167193752Y-91211855D01*
X167193457Y-91212184D01*
X167175212Y-91221253D01*
X167137595Y-91236367D01*
X167088729Y-91254262D01*
X167088457Y-91254358D01*
X167026907Y-91277493D01*
X166954343Y-91306965D01*
X166885943Y-91336597D01*
X166882706Y-91338062D01*
X166771298Y-91388626D01*
X166524601Y-91220160D01*
X166448923Y-91168803D01*
X166380369Y-91122889D01*
X166322912Y-91085030D01*
X166280524Y-91057837D01*
X166257175Y-91043921D01*
X166254958Y-91042889D01*
X166237990Y-91047484D01*
X166206299Y-91069655D01*
X166158648Y-91110447D01*
X166093802Y-91170905D01*
X166027603Y-91235227D01*
X165963786Y-91298612D01*
X165906671Y-91356451D01*
X165859695Y-91405175D01*
X165826297Y-91441210D01*
X165809915Y-91460984D01*
X165809306Y-91462002D01*
X165807495Y-91475572D01*
X165814317Y-91497733D01*
X165831460Y-91531478D01*
X165860607Y-91579800D01*
X165903445Y-91645692D01*
X165960552Y-91730517D01*
X166011234Y-91805177D01*
X166056539Y-91872140D01*
X166093850Y-91927516D01*
X166120548Y-91967420D01*
X166134015Y-91987962D01*
X166134863Y-91989356D01*
X166133219Y-92009038D01*
X166120755Y-92047293D01*
X166099952Y-92096889D01*
X166092538Y-92112728D01*
X166060186Y-92183290D01*
X166025672Y-92263353D01*
X165997635Y-92332629D01*
X165977432Y-92384045D01*
X165961385Y-92423119D01*
X165952112Y-92443541D01*
X165950959Y-92445114D01*
X165933904Y-92447721D01*
X165893702Y-92454863D01*
X165835698Y-92465523D01*
X165765237Y-92478685D01*
X165687665Y-92493333D01*
X165608328Y-92508449D01*
X165532569Y-92523018D01*
X165465736Y-92536022D01*
X165413172Y-92546445D01*
X165380224Y-92553270D01*
X165372143Y-92555199D01*
X165363795Y-92559962D01*
X165357494Y-92570718D01*
X165352955Y-92591098D01*
X165349896Y-92624734D01*
X165348033Y-92675255D01*
X165347082Y-92746292D01*
X165346760Y-92841476D01*
X165346743Y-92880492D01*
X165346743Y-93197799D01*
X165422943Y-93212839D01*
X165465337Y-93220995D01*
X165528600Y-93232899D01*
X165605038Y-93247116D01*
X165686957Y-93262210D01*
X165709600Y-93266355D01*
X165785194Y-93281053D01*
X165851047Y-93295505D01*
X165901634Y-93308375D01*
X165931426Y-93318322D01*
X165936388Y-93321287D01*
X165948574Y-93342283D01*
X165966047Y-93382967D01*
X165985423Y-93435322D01*
X165989266Y-93446600D01*
X166014661Y-93516523D01*
X166046183Y-93595418D01*
X166077031Y-93666266D01*
X166077183Y-93666595D01*
X166128553Y-93777733D01*
X165959601Y-94026253D01*
X165790648Y-94274772D01*
X166007571Y-94492058D01*
X166073181Y-94556726D01*
X166133021Y-94613733D01*
X166183733Y-94660033D01*
X166221954Y-94692584D01*
X166244325Y-94708343D01*
X166247534Y-94709343D01*
X166266374Y-94701469D01*
X166304820Y-94679578D01*
X166358670Y-94646267D01*
X166423724Y-94604131D01*
X166494060Y-94556943D01*
X166565445Y-94508810D01*
X166629092Y-94466928D01*
X166680959Y-94433871D01*
X166717005Y-94412218D01*
X166733133Y-94404543D01*
X166752811Y-94411037D01*
X166790125Y-94428150D01*
X166837379Y-94452326D01*
X166842388Y-94455013D01*
X166906023Y-94486927D01*
X166949659Y-94502579D01*
X166976798Y-94502745D01*
X166990943Y-94488204D01*
X166991025Y-94488000D01*
X166998095Y-94470779D01*
X167014958Y-94429899D01*
X167040305Y-94368525D01*
X167072829Y-94289819D01*
X167111222Y-94196947D01*
X167154178Y-94093072D01*
X167195778Y-93992502D01*
X167241496Y-93881516D01*
X167283474Y-93778703D01*
X167320452Y-93687215D01*
X167351173Y-93610201D01*
X167374378Y-93550815D01*
X167388810Y-93512209D01*
X167393257Y-93497800D01*
X167382104Y-93481272D01*
X167352931Y-93454930D01*
X167314029Y-93425887D01*
X167203243Y-93334039D01*
X167116649Y-93228759D01*
X167055284Y-93112266D01*
X167020185Y-92986776D01*
X167012392Y-92854507D01*
X167018057Y-92793457D01*
X167048922Y-92666795D01*
X167102080Y-92554941D01*
X167174233Y-92459001D01*
X167262083Y-92380076D01*
X167362335Y-92319270D01*
X167471690Y-92277687D01*
X167586853Y-92256428D01*
X167704525Y-92256599D01*
X167821410Y-92279301D01*
X167934211Y-92325638D01*
X168039631Y-92396713D01*
X168083632Y-92436911D01*
X168168021Y-92540129D01*
X168226778Y-92652925D01*
X168260296Y-92772010D01*
X168268965Y-92894095D01*
X168253177Y-93015893D01*
X168213322Y-93134116D01*
X168149793Y-93245475D01*
X168062979Y-93346684D01*
X167965971Y-93425887D01*
X167925563Y-93456162D01*
X167897018Y-93482219D01*
X167886743Y-93497825D01*
X167892123Y-93514843D01*
X167907425Y-93555500D01*
X167931388Y-93616642D01*
X167962756Y-93695119D01*
X168000268Y-93787780D01*
X168042667Y-93891472D01*
X168084337Y-93992526D01*
X168130310Y-94103607D01*
X168172893Y-94206541D01*
X168210779Y-94298165D01*
X168242660Y-94375316D01*
X168267229Y-94434831D01*
X168283180Y-94473544D01*
X168289090Y-94488000D01*
X168303052Y-94502685D01*
X168330060Y-94502642D01*
X168373587Y-94487099D01*
X168437110Y-94455284D01*
X168437612Y-94455013D01*
X168485440Y-94430323D01*
X168524103Y-94412338D01*
X168545905Y-94404614D01*
X168546867Y-94404543D01*
X168563279Y-94412378D01*
X168599513Y-94434165D01*
X168651526Y-94467328D01*
X168715275Y-94509291D01*
X168785940Y-94556943D01*
X168857884Y-94605191D01*
X168922726Y-94647151D01*
X168976265Y-94680227D01*
X169014303Y-94701821D01*
X169032467Y-94709343D01*
X169049192Y-94699457D01*
X169082820Y-94671826D01*
X169129990Y-94629495D01*
X169187342Y-94575505D01*
X169251516Y-94512899D01*
X169272503Y-94491983D01*
X169489501Y-94274623D01*
X169324332Y-94032220D01*
X169274136Y-93957781D01*
X169230081Y-93890972D01*
X169194638Y-93835665D01*
X169170281Y-93795729D01*
X169159478Y-93775036D01*
X169159162Y-93773563D01*
X169164857Y-93754058D01*
X169180174Y-93714822D01*
X169202463Y-93662430D01*
X169218107Y-93627355D01*
X169247359Y-93560201D01*
X169274906Y-93492358D01*
X169296263Y-93435034D01*
X169302065Y-93417572D01*
X169318548Y-93370938D01*
X169334660Y-93334905D01*
X169343510Y-93321287D01*
X169363040Y-93312952D01*
X169405666Y-93301137D01*
X169465855Y-93287181D01*
X169538078Y-93272422D01*
X169570400Y-93266355D01*
X169652478Y-93251273D01*
X169731205Y-93236669D01*
X169798891Y-93223980D01*
X169847840Y-93214642D01*
X169857057Y-93212839D01*
X169933257Y-93197799D01*
X169933257Y-92880492D01*
X169933086Y-92776154D01*
X169932384Y-92697213D01*
X169930866Y-92640038D01*
X169928251Y-92600999D01*
X169924254Y-92576465D01*
X169918591Y-92562805D01*
X169910980Y-92556389D01*
X169907857Y-92555199D01*
X169889022Y-92550980D01*
X169847412Y-92542562D01*
X169788370Y-92530961D01*
X169717243Y-92517195D01*
X169639375Y-92502280D01*
X169560113Y-92487232D01*
X169484802Y-92473069D01*
X169418787Y-92460806D01*
X169367413Y-92451461D01*
X169336025Y-92446050D01*
X169329041Y-92445114D01*
X169322715Y-92432596D01*
X169308710Y-92399246D01*
X169289645Y-92351377D01*
X169282366Y-92332629D01*
X169253004Y-92260195D01*
X169218429Y-92180170D01*
X169187463Y-92112728D01*
X169164677Y-92061159D01*
X169149518Y-92018785D01*
X169144458Y-91992834D01*
X169145264Y-91989356D01*
X169155959Y-91972936D01*
X169180380Y-91936417D01*
X169215905Y-91883687D01*
X169259913Y-91818635D01*
X169309783Y-91745151D01*
X169319644Y-91730645D01*
X169377508Y-91644704D01*
X169420044Y-91579261D01*
X169448946Y-91531304D01*
X169465910Y-91497820D01*
X169472633Y-91475795D01*
X169470810Y-91462217D01*
X169470764Y-91462131D01*
X169456414Y-91444297D01*
X169424677Y-91409817D01*
X169378990Y-91362268D01*
X169322796Y-91305222D01*
X169259532Y-91242255D01*
X169252398Y-91235227D01*
X169172670Y-91158020D01*
X169111143Y-91101330D01*
X169066579Y-91064110D01*
X169037743Y-91045315D01*
X169025042Y-91042889D01*
X169006506Y-91053471D01*
X168968039Y-91077916D01*
X168913614Y-91113612D01*
X168847202Y-91157947D01*
X168772775Y-91208311D01*
X168755399Y-91220160D01*
X168508703Y-91388626D01*
X168397294Y-91338062D01*
X168329543Y-91308595D01*
X168256817Y-91278959D01*
X168194297Y-91255330D01*
X168191543Y-91254358D01*
X168142640Y-91236457D01*
X168104943Y-91221320D01*
X168086575Y-91212210D01*
X168086544Y-91212184D01*
X168080715Y-91195717D01*
X168070808Y-91155219D01*
X168057805Y-91095242D01*
X168042691Y-91020340D01*
X168026448Y-90935064D01*
X168025119Y-90927875D01*
X168008825Y-90840014D01*
X167993867Y-90760260D01*
X167981209Y-90693681D01*
X167971814Y-90645347D01*
X167966646Y-90620325D01*
X167966556Y-90619943D01*
X167963411Y-90609299D01*
X167957296Y-90601262D01*
X167944547Y-90595467D01*
X167921500Y-90591547D01*
X167884491Y-90589135D01*
X167829856Y-90587865D01*
X167753933Y-90587371D01*
X167653056Y-90587286D01*
X167640000Y-90587286D01*
X167536090Y-90587348D01*
X167536090Y-90587348D01*
G37*
X167536090Y-90587348D02*
X167457546Y-90587778D01*
X167400702Y-90588942D01*
X167361895Y-90591207D01*
X167337462Y-90594940D01*
X167323738Y-90600506D01*
X167317060Y-90608273D01*
X167313764Y-90618605D01*
X167313444Y-90619943D01*
X167308438Y-90644079D01*
X167299171Y-90691701D01*
X167286608Y-90757741D01*
X167271713Y-90837128D01*
X167255449Y-90924796D01*
X167254881Y-90927875D01*
X167238590Y-91013789D01*
X167223348Y-91089696D01*
X167210139Y-91151045D01*
X167199946Y-91193282D01*
X167193752Y-91211855D01*
X167193457Y-91212184D01*
X167175212Y-91221253D01*
X167137595Y-91236367D01*
X167088729Y-91254262D01*
X167088457Y-91254358D01*
X167026907Y-91277493D01*
X166954343Y-91306965D01*
X166885943Y-91336597D01*
X166882706Y-91338062D01*
X166771298Y-91388626D01*
X166524601Y-91220160D01*
X166448923Y-91168803D01*
X166380369Y-91122889D01*
X166322912Y-91085030D01*
X166280524Y-91057837D01*
X166257175Y-91043921D01*
X166254958Y-91042889D01*
X166237990Y-91047484D01*
X166206299Y-91069655D01*
X166158648Y-91110447D01*
X166093802Y-91170905D01*
X166027603Y-91235227D01*
X165963786Y-91298612D01*
X165906671Y-91356451D01*
X165859695Y-91405175D01*
X165826297Y-91441210D01*
X165809915Y-91460984D01*
X165809306Y-91462002D01*
X165807495Y-91475572D01*
X165814317Y-91497733D01*
X165831460Y-91531478D01*
X165860607Y-91579800D01*
X165903445Y-91645692D01*
X165960552Y-91730517D01*
X166011234Y-91805177D01*
X166056539Y-91872140D01*
X166093850Y-91927516D01*
X166120548Y-91967420D01*
X166134015Y-91987962D01*
X166134863Y-91989356D01*
X166133219Y-92009038D01*
X166120755Y-92047293D01*
X166099952Y-92096889D01*
X166092538Y-92112728D01*
X166060186Y-92183290D01*
X166025672Y-92263353D01*
X165997635Y-92332629D01*
X165977432Y-92384045D01*
X165961385Y-92423119D01*
X165952112Y-92443541D01*
X165950959Y-92445114D01*
X165933904Y-92447721D01*
X165893702Y-92454863D01*
X165835698Y-92465523D01*
X165765237Y-92478685D01*
X165687665Y-92493333D01*
X165608328Y-92508449D01*
X165532569Y-92523018D01*
X165465736Y-92536022D01*
X165413172Y-92546445D01*
X165380224Y-92553270D01*
X165372143Y-92555199D01*
X165363795Y-92559962D01*
X165357494Y-92570718D01*
X165352955Y-92591098D01*
X165349896Y-92624734D01*
X165348033Y-92675255D01*
X165347082Y-92746292D01*
X165346760Y-92841476D01*
X165346743Y-92880492D01*
X165346743Y-93197799D01*
X165422943Y-93212839D01*
X165465337Y-93220995D01*
X165528600Y-93232899D01*
X165605038Y-93247116D01*
X165686957Y-93262210D01*
X165709600Y-93266355D01*
X165785194Y-93281053D01*
X165851047Y-93295505D01*
X165901634Y-93308375D01*
X165931426Y-93318322D01*
X165936388Y-93321287D01*
X165948574Y-93342283D01*
X165966047Y-93382967D01*
X165985423Y-93435322D01*
X165989266Y-93446600D01*
X166014661Y-93516523D01*
X166046183Y-93595418D01*
X166077031Y-93666266D01*
X166077183Y-93666595D01*
X166128553Y-93777733D01*
X165959601Y-94026253D01*
X165790648Y-94274772D01*
X166007571Y-94492058D01*
X166073181Y-94556726D01*
X166133021Y-94613733D01*
X166183733Y-94660033D01*
X166221954Y-94692584D01*
X166244325Y-94708343D01*
X166247534Y-94709343D01*
X166266374Y-94701469D01*
X166304820Y-94679578D01*
X166358670Y-94646267D01*
X166423724Y-94604131D01*
X166494060Y-94556943D01*
X166565445Y-94508810D01*
X166629092Y-94466928D01*
X166680959Y-94433871D01*
X166717005Y-94412218D01*
X166733133Y-94404543D01*
X166752811Y-94411037D01*
X166790125Y-94428150D01*
X166837379Y-94452326D01*
X166842388Y-94455013D01*
X166906023Y-94486927D01*
X166949659Y-94502579D01*
X166976798Y-94502745D01*
X166990943Y-94488204D01*
X166991025Y-94488000D01*
X166998095Y-94470779D01*
X167014958Y-94429899D01*
X167040305Y-94368525D01*
X167072829Y-94289819D01*
X167111222Y-94196947D01*
X167154178Y-94093072D01*
X167195778Y-93992502D01*
X167241496Y-93881516D01*
X167283474Y-93778703D01*
X167320452Y-93687215D01*
X167351173Y-93610201D01*
X167374378Y-93550815D01*
X167388810Y-93512209D01*
X167393257Y-93497800D01*
X167382104Y-93481272D01*
X167352931Y-93454930D01*
X167314029Y-93425887D01*
X167203243Y-93334039D01*
X167116649Y-93228759D01*
X167055284Y-93112266D01*
X167020185Y-92986776D01*
X167012392Y-92854507D01*
X167018057Y-92793457D01*
X167048922Y-92666795D01*
X167102080Y-92554941D01*
X167174233Y-92459001D01*
X167262083Y-92380076D01*
X167362335Y-92319270D01*
X167471690Y-92277687D01*
X167586853Y-92256428D01*
X167704525Y-92256599D01*
X167821410Y-92279301D01*
X167934211Y-92325638D01*
X168039631Y-92396713D01*
X168083632Y-92436911D01*
X168168021Y-92540129D01*
X168226778Y-92652925D01*
X168260296Y-92772010D01*
X168268965Y-92894095D01*
X168253177Y-93015893D01*
X168213322Y-93134116D01*
X168149793Y-93245475D01*
X168062979Y-93346684D01*
X167965971Y-93425887D01*
X167925563Y-93456162D01*
X167897018Y-93482219D01*
X167886743Y-93497825D01*
X167892123Y-93514843D01*
X167907425Y-93555500D01*
X167931388Y-93616642D01*
X167962756Y-93695119D01*
X168000268Y-93787780D01*
X168042667Y-93891472D01*
X168084337Y-93992526D01*
X168130310Y-94103607D01*
X168172893Y-94206541D01*
X168210779Y-94298165D01*
X168242660Y-94375316D01*
X168267229Y-94434831D01*
X168283180Y-94473544D01*
X168289090Y-94488000D01*
X168303052Y-94502685D01*
X168330060Y-94502642D01*
X168373587Y-94487099D01*
X168437110Y-94455284D01*
X168437612Y-94455013D01*
X168485440Y-94430323D01*
X168524103Y-94412338D01*
X168545905Y-94404614D01*
X168546867Y-94404543D01*
X168563279Y-94412378D01*
X168599513Y-94434165D01*
X168651526Y-94467328D01*
X168715275Y-94509291D01*
X168785940Y-94556943D01*
X168857884Y-94605191D01*
X168922726Y-94647151D01*
X168976265Y-94680227D01*
X169014303Y-94701821D01*
X169032467Y-94709343D01*
X169049192Y-94699457D01*
X169082820Y-94671826D01*
X169129990Y-94629495D01*
X169187342Y-94575505D01*
X169251516Y-94512899D01*
X169272503Y-94491983D01*
X169489501Y-94274623D01*
X169324332Y-94032220D01*
X169274136Y-93957781D01*
X169230081Y-93890972D01*
X169194638Y-93835665D01*
X169170281Y-93795729D01*
X169159478Y-93775036D01*
X169159162Y-93773563D01*
X169164857Y-93754058D01*
X169180174Y-93714822D01*
X169202463Y-93662430D01*
X169218107Y-93627355D01*
X169247359Y-93560201D01*
X169274906Y-93492358D01*
X169296263Y-93435034D01*
X169302065Y-93417572D01*
X169318548Y-93370938D01*
X169334660Y-93334905D01*
X169343510Y-93321287D01*
X169363040Y-93312952D01*
X169405666Y-93301137D01*
X169465855Y-93287181D01*
X169538078Y-93272422D01*
X169570400Y-93266355D01*
X169652478Y-93251273D01*
X169731205Y-93236669D01*
X169798891Y-93223980D01*
X169847840Y-93214642D01*
X169857057Y-93212839D01*
X169933257Y-93197799D01*
X169933257Y-92880492D01*
X169933086Y-92776154D01*
X169932384Y-92697213D01*
X169930866Y-92640038D01*
X169928251Y-92600999D01*
X169924254Y-92576465D01*
X169918591Y-92562805D01*
X169910980Y-92556389D01*
X169907857Y-92555199D01*
X169889022Y-92550980D01*
X169847412Y-92542562D01*
X169788370Y-92530961D01*
X169717243Y-92517195D01*
X169639375Y-92502280D01*
X169560113Y-92487232D01*
X169484802Y-92473069D01*
X169418787Y-92460806D01*
X169367413Y-92451461D01*
X169336025Y-92446050D01*
X169329041Y-92445114D01*
X169322715Y-92432596D01*
X169308710Y-92399246D01*
X169289645Y-92351377D01*
X169282366Y-92332629D01*
X169253004Y-92260195D01*
X169218429Y-92180170D01*
X169187463Y-92112728D01*
X169164677Y-92061159D01*
X169149518Y-92018785D01*
X169144458Y-91992834D01*
X169145264Y-91989356D01*
X169155959Y-91972936D01*
X169180380Y-91936417D01*
X169215905Y-91883687D01*
X169259913Y-91818635D01*
X169309783Y-91745151D01*
X169319644Y-91730645D01*
X169377508Y-91644704D01*
X169420044Y-91579261D01*
X169448946Y-91531304D01*
X169465910Y-91497820D01*
X169472633Y-91475795D01*
X169470810Y-91462217D01*
X169470764Y-91462131D01*
X169456414Y-91444297D01*
X169424677Y-91409817D01*
X169378990Y-91362268D01*
X169322796Y-91305222D01*
X169259532Y-91242255D01*
X169252398Y-91235227D01*
X169172670Y-91158020D01*
X169111143Y-91101330D01*
X169066579Y-91064110D01*
X169037743Y-91045315D01*
X169025042Y-91042889D01*
X169006506Y-91053471D01*
X168968039Y-91077916D01*
X168913614Y-91113612D01*
X168847202Y-91157947D01*
X168772775Y-91208311D01*
X168755399Y-91220160D01*
X168508703Y-91388626D01*
X168397294Y-91338062D01*
X168329543Y-91308595D01*
X168256817Y-91278959D01*
X168194297Y-91255330D01*
X168191543Y-91254358D01*
X168142640Y-91236457D01*
X168104943Y-91221320D01*
X168086575Y-91212210D01*
X168086544Y-91212184D01*
X168080715Y-91195717D01*
X168070808Y-91155219D01*
X168057805Y-91095242D01*
X168042691Y-91020340D01*
X168026448Y-90935064D01*
X168025119Y-90927875D01*
X168008825Y-90840014D01*
X167993867Y-90760260D01*
X167981209Y-90693681D01*
X167971814Y-90645347D01*
X167966646Y-90620325D01*
X167966556Y-90619943D01*
X167963411Y-90609299D01*
X167957296Y-90601262D01*
X167944547Y-90595467D01*
X167921500Y-90591547D01*
X167884491Y-90589135D01*
X167829856Y-90587865D01*
X167753933Y-90587371D01*
X167653056Y-90587286D01*
X167640000Y-90587286D01*
X167536090Y-90587348D01*
M02*
