M48
;DRILL file {KiCad 4.0.3+e1-6302~38~ubuntu15.04.1-stable} date Fri Aug 26 23:04:35 2016
;FORMAT={-:-/ absolute / inch / decimal}
FMAT,2
INCH,TZ
T1C0.016
T2C0.028
T3C0.035
T4C0.126
%
G90
G05
M72
T1
X6.4164Y-3.7846
X6.6Y-3.43
X6.64Y-3.29
T2
X5.8Y-3.2
X5.8787Y-3.2
X5.9575Y-3.2
X6.0362Y-3.2
X6.25Y-3.2
X6.3287Y-3.2
X6.4075Y-3.2
X6.4862Y-3.2
X6.7Y-3.2
X6.7787Y-3.2
X6.8575Y-3.2
X6.9362Y-3.2
X7.15Y-3.2
X7.2287Y-3.2
X7.3075Y-3.2
X7.3862Y-3.2
T3
X6.025Y-3.5
X6.1234Y-3.5
X6.2219Y-3.5
X6.25Y-3.85
X6.261Y-2.975
X6.3484Y-3.85
X6.3594Y-2.975
X6.4469Y-3.85
X6.4579Y-2.975
X6.5Y-3.5
X6.5563Y-2.975
X6.5984Y-3.5
X6.6547Y-2.975
X6.6969Y-3.5
X6.75Y-3.85
X6.7531Y-2.975
X6.8484Y-3.85
X6.8516Y-2.975
X6.9469Y-3.85
X6.95Y-2.975
X6.975Y-3.5
X7.0734Y-3.5
X7.1719Y-3.5
T4
X5.85Y-2.75
X5.85Y-3.875
X7.325Y-2.75
X7.325Y-3.875
T0
M30
