G04 #@! TF.FileFunction,Legend,Bot*
%FSLAX46Y46*%
G04 Gerber Fmt 4.6, Leading zero omitted, Abs format (unit mm)*
G04 Created by KiCad (PCBNEW 4.0.3+e1-6302~38~ubuntu15.04.1-stable) date Sun Sep 25 08:18:55 2016*
%MOMM*%
%LPD*%
G01*
G04 APERTURE LIST*
%ADD10C,0.100000*%
%ADD11C,0.300000*%
G04 APERTURE END LIST*
D10*
X88952381Y-60309524D02*
X88476190Y-59976190D01*
X88952381Y-59738095D02*
X87952381Y-59738095D01*
X87952381Y-60119048D01*
X88000000Y-60214286D01*
X88047619Y-60261905D01*
X88142857Y-60309524D01*
X88285714Y-60309524D01*
X88380952Y-60261905D01*
X88428571Y-60214286D01*
X88476190Y-60119048D01*
X88476190Y-59738095D01*
X88428571Y-60738095D02*
X88428571Y-61071429D01*
X88952381Y-61214286D02*
X88952381Y-60738095D01*
X87952381Y-60738095D01*
X87952381Y-61214286D01*
X87952381Y-61500000D02*
X88952381Y-61833333D01*
X87952381Y-62166667D01*
X87952381Y-63452381D02*
X87952381Y-63547620D01*
X88000000Y-63642858D01*
X88047619Y-63690477D01*
X88142857Y-63738096D01*
X88333333Y-63785715D01*
X88571429Y-63785715D01*
X88761905Y-63738096D01*
X88857143Y-63690477D01*
X88904762Y-63642858D01*
X88952381Y-63547620D01*
X88952381Y-63452381D01*
X88904762Y-63357143D01*
X88857143Y-63309524D01*
X88761905Y-63261905D01*
X88571429Y-63214286D01*
X88333333Y-63214286D01*
X88142857Y-63261905D01*
X88047619Y-63309524D01*
X88000000Y-63357143D01*
X87952381Y-63452381D01*
X88952381Y-64738096D02*
X88952381Y-64166667D01*
X88952381Y-64452381D02*
X87952381Y-64452381D01*
X88095238Y-64357143D01*
X88190476Y-64261905D01*
X88238095Y-64166667D01*
X88428571Y-86119047D02*
X88428571Y-85785713D01*
X88952381Y-85785713D02*
X87952381Y-85785713D01*
X87952381Y-86261904D01*
X88666667Y-86595237D02*
X88666667Y-87071428D01*
X88952381Y-86499999D02*
X87952381Y-86833332D01*
X88952381Y-87166666D01*
X87952381Y-87785714D02*
X88666667Y-87785714D01*
X88809524Y-87738094D01*
X88904762Y-87642856D01*
X88952381Y-87499999D01*
X88952381Y-87404761D01*
X88952381Y-88833333D02*
X88476190Y-88499999D01*
X88952381Y-88261904D02*
X87952381Y-88261904D01*
X87952381Y-88642857D01*
X88000000Y-88738095D01*
X88047619Y-88785714D01*
X88142857Y-88833333D01*
X88285714Y-88833333D01*
X88380952Y-88785714D01*
X88428571Y-88738095D01*
X88476190Y-88642857D01*
X88476190Y-88261904D01*
X88666667Y-89214285D02*
X88666667Y-89690476D01*
X88952381Y-89119047D02*
X87952381Y-89452380D01*
X88952381Y-89785714D01*
X88952381Y-90119047D02*
X87952381Y-90119047D01*
X88952381Y-90690476D01*
X87952381Y-90690476D01*
X88047619Y-91880952D02*
X88000000Y-91928571D01*
X87952381Y-92023809D01*
X87952381Y-92261905D01*
X88000000Y-92357143D01*
X88047619Y-92404762D01*
X88142857Y-92452381D01*
X88238095Y-92452381D01*
X88380952Y-92404762D01*
X88952381Y-91833333D01*
X88952381Y-92452381D01*
X87952381Y-93071428D02*
X87952381Y-93166667D01*
X88000000Y-93261905D01*
X88047619Y-93309524D01*
X88142857Y-93357143D01*
X88333333Y-93404762D01*
X88571429Y-93404762D01*
X88761905Y-93357143D01*
X88857143Y-93309524D01*
X88904762Y-93261905D01*
X88952381Y-93166667D01*
X88952381Y-93071428D01*
X88904762Y-92976190D01*
X88857143Y-92928571D01*
X88761905Y-92880952D01*
X88571429Y-92833333D01*
X88333333Y-92833333D01*
X88142857Y-92880952D01*
X88047619Y-92928571D01*
X88000000Y-92976190D01*
X87952381Y-93071428D01*
X88952381Y-94357143D02*
X88952381Y-93785714D01*
X88952381Y-94071428D02*
X87952381Y-94071428D01*
X88095238Y-93976190D01*
X88190476Y-93880952D01*
X88238095Y-93785714D01*
X87952381Y-95214286D02*
X87952381Y-95023809D01*
X88000000Y-94928571D01*
X88047619Y-94880952D01*
X88190476Y-94785714D01*
X88380952Y-94738095D01*
X88761905Y-94738095D01*
X88857143Y-94785714D01*
X88904762Y-94833333D01*
X88952381Y-94928571D01*
X88952381Y-95119048D01*
X88904762Y-95214286D01*
X88857143Y-95261905D01*
X88761905Y-95309524D01*
X88523810Y-95309524D01*
X88428571Y-95261905D01*
X88380952Y-95214286D01*
X88333333Y-95119048D01*
X88333333Y-94928571D01*
X88380952Y-94833333D01*
X88428571Y-94785714D01*
X88523810Y-94738095D01*
D11*
X73714286Y-55607143D02*
X73857143Y-55678571D01*
X74142857Y-55678571D01*
X74285715Y-55607143D01*
X74357143Y-55535714D01*
X74428572Y-55392857D01*
X74428572Y-54964286D01*
X74357143Y-54821429D01*
X74285715Y-54750000D01*
X74142857Y-54678571D01*
X73857143Y-54678571D01*
X73714286Y-54750000D01*
X72428572Y-55678571D02*
X72428572Y-54892857D01*
X72500001Y-54750000D01*
X72642858Y-54678571D01*
X72928572Y-54678571D01*
X73071429Y-54750000D01*
X72428572Y-55607143D02*
X72571429Y-55678571D01*
X72928572Y-55678571D01*
X73071429Y-55607143D01*
X73142858Y-55464286D01*
X73142858Y-55321429D01*
X73071429Y-55178571D01*
X72928572Y-55107143D01*
X72571429Y-55107143D01*
X72428572Y-55035714D01*
X71714286Y-55678571D02*
X71714286Y-54178571D01*
X71714286Y-54750000D02*
X71571429Y-54678571D01*
X71285715Y-54678571D01*
X71142858Y-54750000D01*
X71071429Y-54821429D01*
X71000000Y-54964286D01*
X71000000Y-55392857D01*
X71071429Y-55535714D01*
X71142858Y-55607143D01*
X71285715Y-55678571D01*
X71571429Y-55678571D01*
X71714286Y-55607143D01*
X70357143Y-55678571D02*
X70357143Y-54678571D01*
X70357143Y-54178571D02*
X70428572Y-54250000D01*
X70357143Y-54321429D01*
X70285715Y-54250000D01*
X70357143Y-54178571D01*
X70357143Y-54321429D01*
X69642857Y-54678571D02*
X69642857Y-55678571D01*
X69642857Y-54821429D02*
X69571429Y-54750000D01*
X69428571Y-54678571D01*
X69214286Y-54678571D01*
X69071429Y-54750000D01*
X69000000Y-54892857D01*
X69000000Y-55678571D01*
X67714286Y-55607143D02*
X67857143Y-55678571D01*
X68142857Y-55678571D01*
X68285714Y-55607143D01*
X68357143Y-55464286D01*
X68357143Y-54892857D01*
X68285714Y-54750000D01*
X68142857Y-54678571D01*
X67857143Y-54678571D01*
X67714286Y-54750000D01*
X67642857Y-54892857D01*
X67642857Y-55035714D01*
X68357143Y-55178571D01*
X67214286Y-54678571D02*
X66642857Y-54678571D01*
X67000000Y-54178571D02*
X67000000Y-55464286D01*
X66928572Y-55607143D01*
X66785714Y-55678571D01*
X66642857Y-55678571D01*
X65000000Y-55678571D02*
X65000000Y-54178571D01*
X64357143Y-55678571D02*
X64357143Y-54892857D01*
X64428572Y-54750000D01*
X64571429Y-54678571D01*
X64785714Y-54678571D01*
X64928572Y-54750000D01*
X65000000Y-54821429D01*
X63000000Y-54678571D02*
X63000000Y-55678571D01*
X63642857Y-54678571D02*
X63642857Y-55464286D01*
X63571429Y-55607143D01*
X63428571Y-55678571D01*
X63214286Y-55678571D01*
X63071429Y-55607143D01*
X63000000Y-55535714D01*
X62285714Y-55678571D02*
X62285714Y-54178571D01*
X62285714Y-54750000D02*
X62142857Y-54678571D01*
X61857143Y-54678571D01*
X61714286Y-54750000D01*
X61642857Y-54821429D01*
X61571428Y-54964286D01*
X61571428Y-55392857D01*
X61642857Y-55535714D01*
X61714286Y-55607143D01*
X61857143Y-55678571D01*
X62142857Y-55678571D01*
X62285714Y-55607143D01*
M02*
