M48
;DRILL file {KiCad 4.0.3+e1-6302~38~ubuntu15.04.1-stable} date Sun Sep 25 08:18:58 2016
;FORMAT={-:-/ absolute / inch / decimal}
FMAT,2
INCH,TZ
T1C0.016
T2C0.028
T3C0.035
T4C0.126
%
G90
G05
M72
T1
X2.126Y-3.189
X2.2192Y-3.1795
T2
X2.874Y-2.6575
X2.874Y-2.7362
X2.874Y-2.815
X2.874Y-2.8937
X2.874Y-3.2087
X2.874Y-3.2874
X2.874Y-3.3661
X2.874Y-3.4449
X2.874Y-3.7598
X2.874Y-3.8386
X2.874Y-3.9173
X2.874Y-3.9961
X3.2677Y-2.6575
X3.2677Y-2.7362
X3.2677Y-2.815
X3.2677Y-2.8937
X3.2677Y-3.2087
X3.2677Y-3.2874
X3.2677Y-3.3661
X3.2677Y-3.4449
T3
X1.9685Y-2.6772
X1.9685Y-2.7756
X1.9685Y-2.874
X1.9685Y-3.2283
X1.9685Y-3.3268
X1.9685Y-3.4252
X2.313Y-2.4114
X2.4016Y-2.6772
X2.4016Y-2.7756
X2.4016Y-2.874
X2.4016Y-3.2283
X2.4016Y-3.3268
X2.4016Y-3.4252
X2.4016Y-3.7795
X2.4016Y-3.878
X2.4016Y-3.9764
X2.4114Y-2.4114
X2.5098Y-2.4114
X2.6083Y-2.4114
X2.7067Y-2.4114
X2.8051Y-2.4114
X2.9035Y-2.4114
X3.002Y-2.4114
T4
X1.9685Y-2.1654
X1.9685Y-3.937
X3.3465Y-2.1654
X3.3465Y-3.937
T0
M30
