G04 #@! TF.FileFunction,Legend,Top*
%FSLAX46Y46*%
G04 Gerber Fmt 4.6, Leading zero omitted, Abs format (unit mm)*
G04 Created by KiCad (PCBNEW 4.0.3+e1-6302~38~ubuntu15.04.1-stable) date Fri Aug 26 23:16:34 2016*
%MOMM*%
%LPD*%
G01*
G04 APERTURE LIST*
%ADD10C,0.100000*%
%ADD11C,0.200000*%
%ADD12C,0.150000*%
%ADD13C,0.010000*%
G04 APERTURE END LIST*
D10*
D11*
X85000000Y-76500000D02*
X83500000Y-75000000D01*
X85000000Y-75500000D02*
X85000000Y-76500000D01*
X88000000Y-75500000D02*
X85000000Y-75500000D01*
X88000000Y-74500000D02*
X88000000Y-75500000D01*
X85000000Y-74500000D02*
X88000000Y-74500000D01*
X85000000Y-73500000D02*
X85000000Y-74500000D01*
X83500000Y-75000000D02*
X85000000Y-73500000D01*
X159500000Y-74500000D02*
X162500000Y-74500000D01*
X159500000Y-73500000D02*
X159500000Y-74500000D01*
X158000000Y-75000000D02*
X159500000Y-73500000D01*
X159500000Y-76500000D02*
X158000000Y-75000000D01*
X159500000Y-75500000D02*
X159500000Y-76500000D01*
X162500000Y-75500000D02*
X159500000Y-75500000D01*
X162500000Y-74500000D02*
X162500000Y-75500000D01*
D12*
X131025000Y-76000000D02*
X131025000Y-74000000D01*
X128975000Y-74000000D02*
X128975000Y-76000000D01*
X83389000Y-74270000D02*
X83389000Y-71730000D01*
X81611000Y-71730000D02*
X81611000Y-74270000D01*
X81611000Y-71730000D02*
X83389000Y-71730000D01*
X83389000Y-74270000D02*
X81611000Y-74270000D01*
D11*
X124000000Y-74000000D02*
X126000000Y-74000000D01*
X126000000Y-74000000D02*
X126000000Y-76000000D01*
X126000000Y-76000000D02*
X124500000Y-76000000D01*
X124500000Y-76000000D02*
X124000000Y-75500000D01*
X124000000Y-75500000D02*
X124000000Y-74000000D01*
X122500000Y-74000000D02*
X122500000Y-76000000D01*
X124500000Y-77500000D02*
X125500000Y-77500000D01*
X127500000Y-74000000D02*
X127500000Y-76000000D01*
X124500000Y-72500000D02*
X125500000Y-72500000D01*
D12*
X175250000Y-77500000D02*
X171000000Y-77500000D01*
X171000000Y-77500000D02*
X171000000Y-72500000D01*
X171000000Y-72500000D02*
X175250000Y-72500000D01*
X169250000Y-78900000D02*
X169250000Y-79250000D01*
X169250000Y-79250000D02*
X167650000Y-79250000D01*
X167650000Y-79250000D02*
X167650000Y-79950000D01*
X167650000Y-79950000D02*
X175250000Y-79950000D01*
X175250000Y-79950000D02*
X175250000Y-70050000D01*
X175250000Y-70050000D02*
X167650000Y-70050000D01*
X167650000Y-70050000D02*
X167650000Y-70750000D01*
X167650000Y-70750000D02*
X169250000Y-70750000D01*
X169250000Y-70750000D02*
X169250000Y-71100000D01*
X167800000Y-78000000D02*
X167400000Y-78400000D01*
X167400000Y-78400000D02*
X167400000Y-77600000D01*
X167400000Y-77600000D02*
X167800000Y-78000000D01*
X169250000Y-79950000D02*
X169250000Y-79250000D01*
X169250000Y-70050000D02*
X169250000Y-70750000D01*
X171500000Y-79300000D02*
X173100000Y-79300000D01*
X173100000Y-79300000D02*
X173100000Y-78300000D01*
X173100000Y-78300000D02*
X171500000Y-78300000D01*
X171500000Y-78300000D02*
X171500000Y-79300000D01*
X171500000Y-70700000D02*
X173100000Y-70700000D01*
X173100000Y-70700000D02*
X173100000Y-71700000D01*
X173100000Y-71700000D02*
X171500000Y-71700000D01*
X171500000Y-71700000D02*
X171500000Y-70700000D01*
X173100000Y-78300000D02*
X175250000Y-78300000D01*
X173100000Y-78800000D02*
X175250000Y-78800000D01*
X169250000Y-77100000D02*
X169250000Y-76900000D01*
X169250000Y-75100000D02*
X169250000Y-74900000D01*
X169250000Y-73100000D02*
X169250000Y-72900000D01*
X170550000Y-78700000D02*
X170550000Y-71300000D01*
X170550000Y-71300000D02*
X174950000Y-71300000D01*
X174950000Y-71300000D02*
X174950000Y-78700000D01*
X174950000Y-78700000D02*
X170550000Y-78700000D01*
X75050000Y-78700000D02*
X75050000Y-71300000D01*
X75050000Y-71300000D02*
X79450000Y-71300000D01*
X79450000Y-71300000D02*
X79450000Y-78700000D01*
X79450000Y-78700000D02*
X75050000Y-78700000D01*
D13*
G36*
X93349744Y-77169918D02*
X93405201Y-77197568D01*
X93454148Y-77248480D01*
X93467629Y-77267338D01*
X93482314Y-77292015D01*
X93491842Y-77318816D01*
X93497293Y-77354587D01*
X93499747Y-77406169D01*
X93500286Y-77474267D01*
X93497852Y-77567588D01*
X93489394Y-77637657D01*
X93473174Y-77689931D01*
X93447454Y-77729869D01*
X93410497Y-77762929D01*
X93407782Y-77764886D01*
X93371360Y-77784908D01*
X93327502Y-77794815D01*
X93271724Y-77797257D01*
X93181048Y-77797257D01*
X93181010Y-77885283D01*
X93180166Y-77934308D01*
X93175024Y-77963065D01*
X93161587Y-77980311D01*
X93135858Y-77994808D01*
X93129679Y-77997769D01*
X93100764Y-78011648D01*
X93078376Y-78020414D01*
X93061729Y-78021171D01*
X93050036Y-78011023D01*
X93042510Y-77987073D01*
X93038366Y-77946426D01*
X93036815Y-77886186D01*
X93037071Y-77803455D01*
X93038349Y-77695339D01*
X93038748Y-77663000D01*
X93040185Y-77551524D01*
X93041472Y-77478603D01*
X93180971Y-77478603D01*
X93181755Y-77540499D01*
X93185240Y-77580997D01*
X93193124Y-77607708D01*
X93207105Y-77628244D01*
X93216597Y-77638260D01*
X93255404Y-77667567D01*
X93289763Y-77669952D01*
X93325216Y-77645750D01*
X93326114Y-77644857D01*
X93340539Y-77626153D01*
X93349313Y-77600732D01*
X93353739Y-77561584D01*
X93355118Y-77501697D01*
X93355143Y-77488430D01*
X93351812Y-77405901D01*
X93340969Y-77348691D01*
X93321340Y-77313766D01*
X93291650Y-77298094D01*
X93274491Y-77296514D01*
X93233766Y-77303926D01*
X93205832Y-77328330D01*
X93189017Y-77372980D01*
X93181650Y-77441130D01*
X93180971Y-77478603D01*
X93041472Y-77478603D01*
X93041708Y-77465245D01*
X93043677Y-77400333D01*
X93046450Y-77352958D01*
X93050388Y-77319290D01*
X93055849Y-77295498D01*
X93063192Y-77277753D01*
X93072777Y-77262224D01*
X93076887Y-77256381D01*
X93131405Y-77201185D01*
X93200336Y-77169890D01*
X93280072Y-77161165D01*
X93349744Y-77169918D01*
X93349744Y-77169918D01*
G37*
X93349744Y-77169918D02*
X93405201Y-77197568D01*
X93454148Y-77248480D01*
X93467629Y-77267338D01*
X93482314Y-77292015D01*
X93491842Y-77318816D01*
X93497293Y-77354587D01*
X93499747Y-77406169D01*
X93500286Y-77474267D01*
X93497852Y-77567588D01*
X93489394Y-77637657D01*
X93473174Y-77689931D01*
X93447454Y-77729869D01*
X93410497Y-77762929D01*
X93407782Y-77764886D01*
X93371360Y-77784908D01*
X93327502Y-77794815D01*
X93271724Y-77797257D01*
X93181048Y-77797257D01*
X93181010Y-77885283D01*
X93180166Y-77934308D01*
X93175024Y-77963065D01*
X93161587Y-77980311D01*
X93135858Y-77994808D01*
X93129679Y-77997769D01*
X93100764Y-78011648D01*
X93078376Y-78020414D01*
X93061729Y-78021171D01*
X93050036Y-78011023D01*
X93042510Y-77987073D01*
X93038366Y-77946426D01*
X93036815Y-77886186D01*
X93037071Y-77803455D01*
X93038349Y-77695339D01*
X93038748Y-77663000D01*
X93040185Y-77551524D01*
X93041472Y-77478603D01*
X93180971Y-77478603D01*
X93181755Y-77540499D01*
X93185240Y-77580997D01*
X93193124Y-77607708D01*
X93207105Y-77628244D01*
X93216597Y-77638260D01*
X93255404Y-77667567D01*
X93289763Y-77669952D01*
X93325216Y-77645750D01*
X93326114Y-77644857D01*
X93340539Y-77626153D01*
X93349313Y-77600732D01*
X93353739Y-77561584D01*
X93355118Y-77501697D01*
X93355143Y-77488430D01*
X93351812Y-77405901D01*
X93340969Y-77348691D01*
X93321340Y-77313766D01*
X93291650Y-77298094D01*
X93274491Y-77296514D01*
X93233766Y-77303926D01*
X93205832Y-77328330D01*
X93189017Y-77372980D01*
X93181650Y-77441130D01*
X93180971Y-77478603D01*
X93041472Y-77478603D01*
X93041708Y-77465245D01*
X93043677Y-77400333D01*
X93046450Y-77352958D01*
X93050388Y-77319290D01*
X93055849Y-77295498D01*
X93063192Y-77277753D01*
X93072777Y-77262224D01*
X93076887Y-77256381D01*
X93131405Y-77201185D01*
X93200336Y-77169890D01*
X93280072Y-77161165D01*
X93349744Y-77169918D01*
G36*
X94466093Y-77177780D02*
X94512672Y-77204723D01*
X94545057Y-77231466D01*
X94568742Y-77259484D01*
X94585059Y-77293748D01*
X94595339Y-77339227D01*
X94600914Y-77400892D01*
X94603116Y-77483711D01*
X94603371Y-77543246D01*
X94603371Y-77762391D01*
X94541686Y-77790044D01*
X94480000Y-77817697D01*
X94472743Y-77577670D01*
X94469744Y-77488028D01*
X94466598Y-77422962D01*
X94462701Y-77378026D01*
X94457447Y-77348770D01*
X94450231Y-77330748D01*
X94440450Y-77319511D01*
X94437312Y-77317079D01*
X94389761Y-77298083D01*
X94341697Y-77305600D01*
X94313086Y-77325543D01*
X94301447Y-77339675D01*
X94293391Y-77358220D01*
X94288271Y-77386334D01*
X94285441Y-77429173D01*
X94284256Y-77491895D01*
X94284057Y-77557261D01*
X94284018Y-77639268D01*
X94282614Y-77697316D01*
X94277914Y-77736465D01*
X94267987Y-77761780D01*
X94250903Y-77778323D01*
X94224732Y-77791156D01*
X94189775Y-77804491D01*
X94151596Y-77819007D01*
X94156141Y-77561389D01*
X94157971Y-77468519D01*
X94160112Y-77399889D01*
X94163181Y-77350711D01*
X94167794Y-77316198D01*
X94174568Y-77291562D01*
X94184119Y-77272016D01*
X94195634Y-77254770D01*
X94251190Y-77199680D01*
X94318980Y-77167822D01*
X94392713Y-77160191D01*
X94466093Y-77177780D01*
X94466093Y-77177780D01*
G37*
X94466093Y-77177780D02*
X94512672Y-77204723D01*
X94545057Y-77231466D01*
X94568742Y-77259484D01*
X94585059Y-77293748D01*
X94595339Y-77339227D01*
X94600914Y-77400892D01*
X94603116Y-77483711D01*
X94603371Y-77543246D01*
X94603371Y-77762391D01*
X94541686Y-77790044D01*
X94480000Y-77817697D01*
X94472743Y-77577670D01*
X94469744Y-77488028D01*
X94466598Y-77422962D01*
X94462701Y-77378026D01*
X94457447Y-77348770D01*
X94450231Y-77330748D01*
X94440450Y-77319511D01*
X94437312Y-77317079D01*
X94389761Y-77298083D01*
X94341697Y-77305600D01*
X94313086Y-77325543D01*
X94301447Y-77339675D01*
X94293391Y-77358220D01*
X94288271Y-77386334D01*
X94285441Y-77429173D01*
X94284256Y-77491895D01*
X94284057Y-77557261D01*
X94284018Y-77639268D01*
X94282614Y-77697316D01*
X94277914Y-77736465D01*
X94267987Y-77761780D01*
X94250903Y-77778323D01*
X94224732Y-77791156D01*
X94189775Y-77804491D01*
X94151596Y-77819007D01*
X94156141Y-77561389D01*
X94157971Y-77468519D01*
X94160112Y-77399889D01*
X94163181Y-77350711D01*
X94167794Y-77316198D01*
X94174568Y-77291562D01*
X94184119Y-77272016D01*
X94195634Y-77254770D01*
X94251190Y-77199680D01*
X94318980Y-77167822D01*
X94392713Y-77160191D01*
X94466093Y-77177780D01*
G36*
X92791115Y-77171962D02*
X92859145Y-77207733D01*
X92909351Y-77265301D01*
X92927185Y-77302312D01*
X92941063Y-77357882D01*
X92948167Y-77428096D01*
X92948840Y-77504727D01*
X92943427Y-77579552D01*
X92932270Y-77644342D01*
X92915714Y-77690873D01*
X92910626Y-77698887D01*
X92850355Y-77758707D01*
X92778769Y-77794535D01*
X92701092Y-77805020D01*
X92622548Y-77788810D01*
X92600689Y-77779092D01*
X92558122Y-77749143D01*
X92520763Y-77709433D01*
X92517232Y-77704397D01*
X92502881Y-77680124D01*
X92493394Y-77654178D01*
X92487790Y-77620022D01*
X92485086Y-77571119D01*
X92484299Y-77500935D01*
X92484286Y-77485200D01*
X92484322Y-77480192D01*
X92629429Y-77480192D01*
X92630273Y-77546430D01*
X92633596Y-77590386D01*
X92640583Y-77618779D01*
X92652416Y-77638325D01*
X92658457Y-77644857D01*
X92693186Y-77669680D01*
X92726903Y-77668548D01*
X92760995Y-77647016D01*
X92781329Y-77624029D01*
X92793371Y-77590478D01*
X92800134Y-77537569D01*
X92800598Y-77531399D01*
X92801752Y-77435513D01*
X92789688Y-77364299D01*
X92764570Y-77318194D01*
X92726560Y-77297635D01*
X92712992Y-77296514D01*
X92677364Y-77302152D01*
X92652994Y-77321686D01*
X92638093Y-77359042D01*
X92630875Y-77418150D01*
X92629429Y-77480192D01*
X92484322Y-77480192D01*
X92484826Y-77410413D01*
X92487096Y-77358159D01*
X92492068Y-77321949D01*
X92500713Y-77295299D01*
X92514005Y-77271722D01*
X92516943Y-77267338D01*
X92566313Y-77208249D01*
X92620109Y-77173947D01*
X92685602Y-77160331D01*
X92707842Y-77159665D01*
X92791115Y-77171962D01*
X92791115Y-77171962D01*
G37*
X92791115Y-77171962D02*
X92859145Y-77207733D01*
X92909351Y-77265301D01*
X92927185Y-77302312D01*
X92941063Y-77357882D01*
X92948167Y-77428096D01*
X92948840Y-77504727D01*
X92943427Y-77579552D01*
X92932270Y-77644342D01*
X92915714Y-77690873D01*
X92910626Y-77698887D01*
X92850355Y-77758707D01*
X92778769Y-77794535D01*
X92701092Y-77805020D01*
X92622548Y-77788810D01*
X92600689Y-77779092D01*
X92558122Y-77749143D01*
X92520763Y-77709433D01*
X92517232Y-77704397D01*
X92502881Y-77680124D01*
X92493394Y-77654178D01*
X92487790Y-77620022D01*
X92485086Y-77571119D01*
X92484299Y-77500935D01*
X92484286Y-77485200D01*
X92484322Y-77480192D01*
X92629429Y-77480192D01*
X92630273Y-77546430D01*
X92633596Y-77590386D01*
X92640583Y-77618779D01*
X92652416Y-77638325D01*
X92658457Y-77644857D01*
X92693186Y-77669680D01*
X92726903Y-77668548D01*
X92760995Y-77647016D01*
X92781329Y-77624029D01*
X92793371Y-77590478D01*
X92800134Y-77537569D01*
X92800598Y-77531399D01*
X92801752Y-77435513D01*
X92789688Y-77364299D01*
X92764570Y-77318194D01*
X92726560Y-77297635D01*
X92712992Y-77296514D01*
X92677364Y-77302152D01*
X92652994Y-77321686D01*
X92638093Y-77359042D01*
X92630875Y-77418150D01*
X92629429Y-77480192D01*
X92484322Y-77480192D01*
X92484826Y-77410413D01*
X92487096Y-77358159D01*
X92492068Y-77321949D01*
X92500713Y-77295299D01*
X92514005Y-77271722D01*
X92516943Y-77267338D01*
X92566313Y-77208249D01*
X92620109Y-77173947D01*
X92685602Y-77160331D01*
X92707842Y-77159665D01*
X92791115Y-77171962D01*
G36*
X93918303Y-77181239D02*
X93975527Y-77219735D01*
X94019749Y-77275335D01*
X94046167Y-77346086D01*
X94051510Y-77398162D01*
X94050903Y-77419893D01*
X94045822Y-77436531D01*
X94031855Y-77451437D01*
X94004589Y-77467973D01*
X93959612Y-77489498D01*
X93892511Y-77519374D01*
X93892171Y-77519524D01*
X93830407Y-77547813D01*
X93779759Y-77572933D01*
X93745404Y-77592179D01*
X93732518Y-77602848D01*
X93732514Y-77602934D01*
X93743872Y-77626166D01*
X93770431Y-77651774D01*
X93800923Y-77670221D01*
X93816370Y-77673886D01*
X93858515Y-77661212D01*
X93894808Y-77629471D01*
X93912517Y-77594572D01*
X93929552Y-77568845D01*
X93962922Y-77539546D01*
X94002149Y-77514235D01*
X94036756Y-77500471D01*
X94043993Y-77499714D01*
X94052139Y-77512160D01*
X94052630Y-77543972D01*
X94046643Y-77586866D01*
X94035357Y-77632558D01*
X94019950Y-77672761D01*
X94019171Y-77674322D01*
X93972804Y-77739062D01*
X93912711Y-77783097D01*
X93844465Y-77804711D01*
X93773638Y-77802185D01*
X93705804Y-77773804D01*
X93702788Y-77771808D01*
X93649427Y-77723448D01*
X93614340Y-77660352D01*
X93594922Y-77577387D01*
X93592316Y-77554078D01*
X93587701Y-77444055D01*
X93593233Y-77392748D01*
X93732514Y-77392748D01*
X93734324Y-77424753D01*
X93744222Y-77434093D01*
X93768898Y-77427105D01*
X93807795Y-77410587D01*
X93851275Y-77389881D01*
X93852356Y-77389333D01*
X93889209Y-77369949D01*
X93904000Y-77357013D01*
X93900353Y-77343451D01*
X93884995Y-77325632D01*
X93845923Y-77299845D01*
X93803846Y-77297950D01*
X93766103Y-77316717D01*
X93740034Y-77352915D01*
X93732514Y-77392748D01*
X93593233Y-77392748D01*
X93597194Y-77356027D01*
X93621550Y-77286212D01*
X93655456Y-77237302D01*
X93716653Y-77187878D01*
X93784063Y-77163359D01*
X93852880Y-77161797D01*
X93918303Y-77181239D01*
X93918303Y-77181239D01*
G37*
X93918303Y-77181239D02*
X93975527Y-77219735D01*
X94019749Y-77275335D01*
X94046167Y-77346086D01*
X94051510Y-77398162D01*
X94050903Y-77419893D01*
X94045822Y-77436531D01*
X94031855Y-77451437D01*
X94004589Y-77467973D01*
X93959612Y-77489498D01*
X93892511Y-77519374D01*
X93892171Y-77519524D01*
X93830407Y-77547813D01*
X93779759Y-77572933D01*
X93745404Y-77592179D01*
X93732518Y-77602848D01*
X93732514Y-77602934D01*
X93743872Y-77626166D01*
X93770431Y-77651774D01*
X93800923Y-77670221D01*
X93816370Y-77673886D01*
X93858515Y-77661212D01*
X93894808Y-77629471D01*
X93912517Y-77594572D01*
X93929552Y-77568845D01*
X93962922Y-77539546D01*
X94002149Y-77514235D01*
X94036756Y-77500471D01*
X94043993Y-77499714D01*
X94052139Y-77512160D01*
X94052630Y-77543972D01*
X94046643Y-77586866D01*
X94035357Y-77632558D01*
X94019950Y-77672761D01*
X94019171Y-77674322D01*
X93972804Y-77739062D01*
X93912711Y-77783097D01*
X93844465Y-77804711D01*
X93773638Y-77802185D01*
X93705804Y-77773804D01*
X93702788Y-77771808D01*
X93649427Y-77723448D01*
X93614340Y-77660352D01*
X93594922Y-77577387D01*
X93592316Y-77554078D01*
X93587701Y-77444055D01*
X93593233Y-77392748D01*
X93732514Y-77392748D01*
X93734324Y-77424753D01*
X93744222Y-77434093D01*
X93768898Y-77427105D01*
X93807795Y-77410587D01*
X93851275Y-77389881D01*
X93852356Y-77389333D01*
X93889209Y-77369949D01*
X93904000Y-77357013D01*
X93900353Y-77343451D01*
X93884995Y-77325632D01*
X93845923Y-77299845D01*
X93803846Y-77297950D01*
X93766103Y-77316717D01*
X93740034Y-77352915D01*
X93732514Y-77392748D01*
X93593233Y-77392748D01*
X93597194Y-77356027D01*
X93621550Y-77286212D01*
X93655456Y-77237302D01*
X93716653Y-77187878D01*
X93784063Y-77163359D01*
X93852880Y-77161797D01*
X93918303Y-77181239D01*
G36*
X95125886Y-77101289D02*
X95130139Y-77160613D01*
X95135025Y-77195572D01*
X95141795Y-77210820D01*
X95151702Y-77211015D01*
X95154914Y-77209195D01*
X95197644Y-77196015D01*
X95253227Y-77196785D01*
X95309737Y-77210333D01*
X95345082Y-77227861D01*
X95381321Y-77255861D01*
X95407813Y-77287549D01*
X95425999Y-77327813D01*
X95437322Y-77381543D01*
X95443222Y-77453626D01*
X95445143Y-77548951D01*
X95445177Y-77567237D01*
X95445200Y-77772646D01*
X95399491Y-77788580D01*
X95367027Y-77799420D01*
X95349215Y-77804468D01*
X95348691Y-77804514D01*
X95346937Y-77790828D01*
X95345444Y-77753076D01*
X95344326Y-77696224D01*
X95343697Y-77625234D01*
X95343600Y-77582073D01*
X95343398Y-77496973D01*
X95342358Y-77435981D01*
X95339831Y-77394177D01*
X95335164Y-77366642D01*
X95327707Y-77348456D01*
X95316811Y-77334698D01*
X95310007Y-77328073D01*
X95263272Y-77301375D01*
X95212272Y-77299375D01*
X95166001Y-77321955D01*
X95157444Y-77330107D01*
X95144893Y-77345436D01*
X95136188Y-77363618D01*
X95130631Y-77389909D01*
X95127526Y-77429562D01*
X95126176Y-77487832D01*
X95125886Y-77568173D01*
X95125886Y-77772646D01*
X95080177Y-77788580D01*
X95047713Y-77799420D01*
X95029901Y-77804468D01*
X95029377Y-77804514D01*
X95028037Y-77790623D01*
X95026828Y-77751439D01*
X95025801Y-77690700D01*
X95025002Y-77612141D01*
X95024481Y-77519498D01*
X95024286Y-77416509D01*
X95024286Y-77019342D01*
X95071457Y-76999444D01*
X95118629Y-76979547D01*
X95125886Y-77101289D01*
X95125886Y-77101289D01*
G37*
X95125886Y-77101289D02*
X95130139Y-77160613D01*
X95135025Y-77195572D01*
X95141795Y-77210820D01*
X95151702Y-77211015D01*
X95154914Y-77209195D01*
X95197644Y-77196015D01*
X95253227Y-77196785D01*
X95309737Y-77210333D01*
X95345082Y-77227861D01*
X95381321Y-77255861D01*
X95407813Y-77287549D01*
X95425999Y-77327813D01*
X95437322Y-77381543D01*
X95443222Y-77453626D01*
X95445143Y-77548951D01*
X95445177Y-77567237D01*
X95445200Y-77772646D01*
X95399491Y-77788580D01*
X95367027Y-77799420D01*
X95349215Y-77804468D01*
X95348691Y-77804514D01*
X95346937Y-77790828D01*
X95345444Y-77753076D01*
X95344326Y-77696224D01*
X95343697Y-77625234D01*
X95343600Y-77582073D01*
X95343398Y-77496973D01*
X95342358Y-77435981D01*
X95339831Y-77394177D01*
X95335164Y-77366642D01*
X95327707Y-77348456D01*
X95316811Y-77334698D01*
X95310007Y-77328073D01*
X95263272Y-77301375D01*
X95212272Y-77299375D01*
X95166001Y-77321955D01*
X95157444Y-77330107D01*
X95144893Y-77345436D01*
X95136188Y-77363618D01*
X95130631Y-77389909D01*
X95127526Y-77429562D01*
X95126176Y-77487832D01*
X95125886Y-77568173D01*
X95125886Y-77772646D01*
X95080177Y-77788580D01*
X95047713Y-77799420D01*
X95029901Y-77804468D01*
X95029377Y-77804514D01*
X95028037Y-77790623D01*
X95026828Y-77751439D01*
X95025801Y-77690700D01*
X95025002Y-77612141D01*
X95024481Y-77519498D01*
X95024286Y-77416509D01*
X95024286Y-77019342D01*
X95071457Y-76999444D01*
X95118629Y-76979547D01*
X95125886Y-77101289D01*
G36*
X95789744Y-77200968D02*
X95846616Y-77222087D01*
X95847267Y-77222493D01*
X95882440Y-77248380D01*
X95908407Y-77278633D01*
X95926670Y-77318058D01*
X95938732Y-77371462D01*
X95946096Y-77443651D01*
X95950264Y-77539432D01*
X95950629Y-77553078D01*
X95955876Y-77758842D01*
X95911716Y-77781678D01*
X95879763Y-77797110D01*
X95860470Y-77804423D01*
X95859578Y-77804514D01*
X95856239Y-77791022D01*
X95853587Y-77754626D01*
X95851956Y-77701452D01*
X95851600Y-77658393D01*
X95851592Y-77588641D01*
X95848403Y-77544837D01*
X95837288Y-77523944D01*
X95813501Y-77522925D01*
X95772296Y-77538741D01*
X95710086Y-77567815D01*
X95664341Y-77591963D01*
X95640813Y-77612913D01*
X95633896Y-77635747D01*
X95633886Y-77636877D01*
X95645299Y-77676212D01*
X95679092Y-77697462D01*
X95730809Y-77700539D01*
X95768061Y-77700006D01*
X95787703Y-77710735D01*
X95799952Y-77736505D01*
X95807002Y-77769337D01*
X95796842Y-77787966D01*
X95793017Y-77790632D01*
X95757001Y-77801340D01*
X95706566Y-77802856D01*
X95654626Y-77795759D01*
X95617822Y-77782788D01*
X95566938Y-77739585D01*
X95538014Y-77679446D01*
X95532286Y-77632462D01*
X95536657Y-77590082D01*
X95552475Y-77555488D01*
X95583797Y-77524763D01*
X95634678Y-77493990D01*
X95709176Y-77459252D01*
X95713714Y-77457288D01*
X95780821Y-77426287D01*
X95822232Y-77400862D01*
X95839981Y-77378014D01*
X95836107Y-77354745D01*
X95812643Y-77328056D01*
X95805627Y-77321914D01*
X95758630Y-77298100D01*
X95709933Y-77299103D01*
X95667522Y-77322451D01*
X95639384Y-77365675D01*
X95636769Y-77374160D01*
X95611308Y-77415308D01*
X95579001Y-77435128D01*
X95532286Y-77454770D01*
X95532286Y-77403950D01*
X95546496Y-77330082D01*
X95588675Y-77262327D01*
X95610624Y-77239661D01*
X95660517Y-77210569D01*
X95723967Y-77197400D01*
X95789744Y-77200968D01*
X95789744Y-77200968D01*
G37*
X95789744Y-77200968D02*
X95846616Y-77222087D01*
X95847267Y-77222493D01*
X95882440Y-77248380D01*
X95908407Y-77278633D01*
X95926670Y-77318058D01*
X95938732Y-77371462D01*
X95946096Y-77443651D01*
X95950264Y-77539432D01*
X95950629Y-77553078D01*
X95955876Y-77758842D01*
X95911716Y-77781678D01*
X95879763Y-77797110D01*
X95860470Y-77804423D01*
X95859578Y-77804514D01*
X95856239Y-77791022D01*
X95853587Y-77754626D01*
X95851956Y-77701452D01*
X95851600Y-77658393D01*
X95851592Y-77588641D01*
X95848403Y-77544837D01*
X95837288Y-77523944D01*
X95813501Y-77522925D01*
X95772296Y-77538741D01*
X95710086Y-77567815D01*
X95664341Y-77591963D01*
X95640813Y-77612913D01*
X95633896Y-77635747D01*
X95633886Y-77636877D01*
X95645299Y-77676212D01*
X95679092Y-77697462D01*
X95730809Y-77700539D01*
X95768061Y-77700006D01*
X95787703Y-77710735D01*
X95799952Y-77736505D01*
X95807002Y-77769337D01*
X95796842Y-77787966D01*
X95793017Y-77790632D01*
X95757001Y-77801340D01*
X95706566Y-77802856D01*
X95654626Y-77795759D01*
X95617822Y-77782788D01*
X95566938Y-77739585D01*
X95538014Y-77679446D01*
X95532286Y-77632462D01*
X95536657Y-77590082D01*
X95552475Y-77555488D01*
X95583797Y-77524763D01*
X95634678Y-77493990D01*
X95709176Y-77459252D01*
X95713714Y-77457288D01*
X95780821Y-77426287D01*
X95822232Y-77400862D01*
X95839981Y-77378014D01*
X95836107Y-77354745D01*
X95812643Y-77328056D01*
X95805627Y-77321914D01*
X95758630Y-77298100D01*
X95709933Y-77299103D01*
X95667522Y-77322451D01*
X95639384Y-77365675D01*
X95636769Y-77374160D01*
X95611308Y-77415308D01*
X95579001Y-77435128D01*
X95532286Y-77454770D01*
X95532286Y-77403950D01*
X95546496Y-77330082D01*
X95588675Y-77262327D01*
X95610624Y-77239661D01*
X95660517Y-77210569D01*
X95723967Y-77197400D01*
X95789744Y-77200968D01*
G36*
X96279926Y-77199755D02*
X96345858Y-77224084D01*
X96399273Y-77267117D01*
X96420164Y-77297409D01*
X96442939Y-77352994D01*
X96442466Y-77393186D01*
X96418562Y-77420217D01*
X96409717Y-77424813D01*
X96371530Y-77439144D01*
X96352028Y-77435472D01*
X96345422Y-77411407D01*
X96345086Y-77398114D01*
X96332992Y-77349210D01*
X96301471Y-77314999D01*
X96257659Y-77298476D01*
X96208695Y-77302634D01*
X96168894Y-77324227D01*
X96155450Y-77336544D01*
X96145921Y-77351487D01*
X96139485Y-77374075D01*
X96135317Y-77409328D01*
X96132597Y-77462266D01*
X96130502Y-77537907D01*
X96129960Y-77561857D01*
X96127981Y-77643790D01*
X96125731Y-77701455D01*
X96122357Y-77739608D01*
X96117006Y-77763004D01*
X96108824Y-77776398D01*
X96096959Y-77784545D01*
X96089362Y-77788144D01*
X96057102Y-77800452D01*
X96038111Y-77804514D01*
X96031836Y-77790948D01*
X96028006Y-77749934D01*
X96026600Y-77680999D01*
X96027598Y-77583669D01*
X96027908Y-77568657D01*
X96030101Y-77479859D01*
X96032693Y-77415019D01*
X96036382Y-77369067D01*
X96041864Y-77336935D01*
X96049835Y-77313553D01*
X96060993Y-77293852D01*
X96066830Y-77285410D01*
X96100296Y-77248057D01*
X96137727Y-77219003D01*
X96142309Y-77216467D01*
X96209426Y-77196443D01*
X96279926Y-77199755D01*
X96279926Y-77199755D01*
G37*
X96279926Y-77199755D02*
X96345858Y-77224084D01*
X96399273Y-77267117D01*
X96420164Y-77297409D01*
X96442939Y-77352994D01*
X96442466Y-77393186D01*
X96418562Y-77420217D01*
X96409717Y-77424813D01*
X96371530Y-77439144D01*
X96352028Y-77435472D01*
X96345422Y-77411407D01*
X96345086Y-77398114D01*
X96332992Y-77349210D01*
X96301471Y-77314999D01*
X96257659Y-77298476D01*
X96208695Y-77302634D01*
X96168894Y-77324227D01*
X96155450Y-77336544D01*
X96145921Y-77351487D01*
X96139485Y-77374075D01*
X96135317Y-77409328D01*
X96132597Y-77462266D01*
X96130502Y-77537907D01*
X96129960Y-77561857D01*
X96127981Y-77643790D01*
X96125731Y-77701455D01*
X96122357Y-77739608D01*
X96117006Y-77763004D01*
X96108824Y-77776398D01*
X96096959Y-77784545D01*
X96089362Y-77788144D01*
X96057102Y-77800452D01*
X96038111Y-77804514D01*
X96031836Y-77790948D01*
X96028006Y-77749934D01*
X96026600Y-77680999D01*
X96027598Y-77583669D01*
X96027908Y-77568657D01*
X96030101Y-77479859D01*
X96032693Y-77415019D01*
X96036382Y-77369067D01*
X96041864Y-77336935D01*
X96049835Y-77313553D01*
X96060993Y-77293852D01*
X96066830Y-77285410D01*
X96100296Y-77248057D01*
X96137727Y-77219003D01*
X96142309Y-77216467D01*
X96209426Y-77196443D01*
X96279926Y-77199755D01*
G36*
X96940117Y-77315358D02*
X96939933Y-77423837D01*
X96939219Y-77507287D01*
X96937675Y-77569704D01*
X96935001Y-77615085D01*
X96930894Y-77647429D01*
X96925055Y-77670733D01*
X96917182Y-77688995D01*
X96911221Y-77699418D01*
X96861855Y-77755945D01*
X96799264Y-77791377D01*
X96730013Y-77804090D01*
X96660668Y-77792463D01*
X96619375Y-77771568D01*
X96576025Y-77735422D01*
X96546481Y-77691276D01*
X96528655Y-77633462D01*
X96520463Y-77556313D01*
X96519302Y-77499714D01*
X96519458Y-77495647D01*
X96620857Y-77495647D01*
X96621476Y-77560550D01*
X96624314Y-77603514D01*
X96630840Y-77631622D01*
X96642523Y-77651953D01*
X96656483Y-77667288D01*
X96703365Y-77696890D01*
X96753701Y-77699419D01*
X96801276Y-77674705D01*
X96804979Y-77671356D01*
X96820783Y-77653935D01*
X96830693Y-77633209D01*
X96836058Y-77602362D01*
X96838228Y-77554577D01*
X96838571Y-77501748D01*
X96837827Y-77435381D01*
X96834748Y-77391106D01*
X96828061Y-77362009D01*
X96816496Y-77341173D01*
X96807013Y-77330107D01*
X96762960Y-77302198D01*
X96712224Y-77298843D01*
X96663796Y-77320159D01*
X96654450Y-77328073D01*
X96638540Y-77345647D01*
X96628610Y-77366587D01*
X96623278Y-77397782D01*
X96621163Y-77446122D01*
X96620857Y-77495647D01*
X96519458Y-77495647D01*
X96522810Y-77408568D01*
X96534726Y-77340086D01*
X96557135Y-77288600D01*
X96592124Y-77248443D01*
X96619375Y-77227861D01*
X96668907Y-77205625D01*
X96726316Y-77195304D01*
X96779682Y-77198067D01*
X96809543Y-77209212D01*
X96821261Y-77212383D01*
X96829037Y-77200557D01*
X96834465Y-77168866D01*
X96838571Y-77120593D01*
X96843067Y-77066829D01*
X96849313Y-77034482D01*
X96860676Y-77015985D01*
X96880528Y-77003770D01*
X96893000Y-76998362D01*
X96940171Y-76978601D01*
X96940117Y-77315358D01*
X96940117Y-77315358D01*
G37*
X96940117Y-77315358D02*
X96939933Y-77423837D01*
X96939219Y-77507287D01*
X96937675Y-77569704D01*
X96935001Y-77615085D01*
X96930894Y-77647429D01*
X96925055Y-77670733D01*
X96917182Y-77688995D01*
X96911221Y-77699418D01*
X96861855Y-77755945D01*
X96799264Y-77791377D01*
X96730013Y-77804090D01*
X96660668Y-77792463D01*
X96619375Y-77771568D01*
X96576025Y-77735422D01*
X96546481Y-77691276D01*
X96528655Y-77633462D01*
X96520463Y-77556313D01*
X96519302Y-77499714D01*
X96519458Y-77495647D01*
X96620857Y-77495647D01*
X96621476Y-77560550D01*
X96624314Y-77603514D01*
X96630840Y-77631622D01*
X96642523Y-77651953D01*
X96656483Y-77667288D01*
X96703365Y-77696890D01*
X96753701Y-77699419D01*
X96801276Y-77674705D01*
X96804979Y-77671356D01*
X96820783Y-77653935D01*
X96830693Y-77633209D01*
X96836058Y-77602362D01*
X96838228Y-77554577D01*
X96838571Y-77501748D01*
X96837827Y-77435381D01*
X96834748Y-77391106D01*
X96828061Y-77362009D01*
X96816496Y-77341173D01*
X96807013Y-77330107D01*
X96762960Y-77302198D01*
X96712224Y-77298843D01*
X96663796Y-77320159D01*
X96654450Y-77328073D01*
X96638540Y-77345647D01*
X96628610Y-77366587D01*
X96623278Y-77397782D01*
X96621163Y-77446122D01*
X96620857Y-77495647D01*
X96519458Y-77495647D01*
X96522810Y-77408568D01*
X96534726Y-77340086D01*
X96557135Y-77288600D01*
X96592124Y-77248443D01*
X96619375Y-77227861D01*
X96668907Y-77205625D01*
X96726316Y-77195304D01*
X96779682Y-77198067D01*
X96809543Y-77209212D01*
X96821261Y-77212383D01*
X96829037Y-77200557D01*
X96834465Y-77168866D01*
X96838571Y-77120593D01*
X96843067Y-77066829D01*
X96849313Y-77034482D01*
X96860676Y-77015985D01*
X96880528Y-77003770D01*
X96893000Y-76998362D01*
X96940171Y-76978601D01*
X96940117Y-77315358D01*
G36*
X97529833Y-77208663D02*
X97532048Y-77246850D01*
X97533784Y-77304886D01*
X97534899Y-77378180D01*
X97535257Y-77455055D01*
X97535257Y-77715196D01*
X97489326Y-77761127D01*
X97457675Y-77789429D01*
X97429890Y-77800893D01*
X97391915Y-77800168D01*
X97376840Y-77798321D01*
X97329726Y-77792948D01*
X97290756Y-77789869D01*
X97281257Y-77789585D01*
X97249233Y-77791445D01*
X97203432Y-77796114D01*
X97185674Y-77798321D01*
X97142057Y-77801735D01*
X97112745Y-77794320D01*
X97083680Y-77771427D01*
X97073188Y-77761127D01*
X97027257Y-77715196D01*
X97027257Y-77228602D01*
X97064226Y-77211758D01*
X97096059Y-77199282D01*
X97114683Y-77194914D01*
X97119458Y-77208718D01*
X97123921Y-77247286D01*
X97127775Y-77306356D01*
X97130722Y-77381663D01*
X97132143Y-77445286D01*
X97136114Y-77695657D01*
X97170759Y-77700556D01*
X97202268Y-77697131D01*
X97217708Y-77686041D01*
X97222023Y-77665308D01*
X97225708Y-77621145D01*
X97228469Y-77559146D01*
X97230012Y-77484909D01*
X97230235Y-77446706D01*
X97230457Y-77226783D01*
X97276166Y-77210849D01*
X97308518Y-77200015D01*
X97326115Y-77194962D01*
X97326623Y-77194914D01*
X97328388Y-77208648D01*
X97330329Y-77246730D01*
X97332282Y-77304482D01*
X97334084Y-77377227D01*
X97335343Y-77445286D01*
X97339314Y-77695657D01*
X97426400Y-77695657D01*
X97430396Y-77467240D01*
X97434392Y-77238822D01*
X97476847Y-77216868D01*
X97508192Y-77201793D01*
X97526744Y-77194951D01*
X97527279Y-77194914D01*
X97529833Y-77208663D01*
X97529833Y-77208663D01*
G37*
X97529833Y-77208663D02*
X97532048Y-77246850D01*
X97533784Y-77304886D01*
X97534899Y-77378180D01*
X97535257Y-77455055D01*
X97535257Y-77715196D01*
X97489326Y-77761127D01*
X97457675Y-77789429D01*
X97429890Y-77800893D01*
X97391915Y-77800168D01*
X97376840Y-77798321D01*
X97329726Y-77792948D01*
X97290756Y-77789869D01*
X97281257Y-77789585D01*
X97249233Y-77791445D01*
X97203432Y-77796114D01*
X97185674Y-77798321D01*
X97142057Y-77801735D01*
X97112745Y-77794320D01*
X97083680Y-77771427D01*
X97073188Y-77761127D01*
X97027257Y-77715196D01*
X97027257Y-77228602D01*
X97064226Y-77211758D01*
X97096059Y-77199282D01*
X97114683Y-77194914D01*
X97119458Y-77208718D01*
X97123921Y-77247286D01*
X97127775Y-77306356D01*
X97130722Y-77381663D01*
X97132143Y-77445286D01*
X97136114Y-77695657D01*
X97170759Y-77700556D01*
X97202268Y-77697131D01*
X97217708Y-77686041D01*
X97222023Y-77665308D01*
X97225708Y-77621145D01*
X97228469Y-77559146D01*
X97230012Y-77484909D01*
X97230235Y-77446706D01*
X97230457Y-77226783D01*
X97276166Y-77210849D01*
X97308518Y-77200015D01*
X97326115Y-77194962D01*
X97326623Y-77194914D01*
X97328388Y-77208648D01*
X97330329Y-77246730D01*
X97332282Y-77304482D01*
X97334084Y-77377227D01*
X97335343Y-77445286D01*
X97339314Y-77695657D01*
X97426400Y-77695657D01*
X97430396Y-77467240D01*
X97434392Y-77238822D01*
X97476847Y-77216868D01*
X97508192Y-77201793D01*
X97526744Y-77194951D01*
X97527279Y-77194914D01*
X97529833Y-77208663D01*
G36*
X97894876Y-77206335D02*
X97936667Y-77225344D01*
X97969469Y-77248378D01*
X97993503Y-77274133D01*
X98010097Y-77307358D01*
X98020577Y-77352800D01*
X98026271Y-77415207D01*
X98028507Y-77499327D01*
X98028743Y-77554721D01*
X98028743Y-77770826D01*
X97991774Y-77787670D01*
X97962656Y-77799981D01*
X97948231Y-77804514D01*
X97945472Y-77791025D01*
X97943282Y-77754653D01*
X97941942Y-77701542D01*
X97941657Y-77659372D01*
X97940434Y-77598447D01*
X97937136Y-77550115D01*
X97932321Y-77520518D01*
X97928496Y-77514229D01*
X97902783Y-77520652D01*
X97862418Y-77537125D01*
X97815679Y-77559458D01*
X97770845Y-77583457D01*
X97736193Y-77604930D01*
X97720002Y-77619685D01*
X97719938Y-77619845D01*
X97721330Y-77647152D01*
X97733818Y-77673219D01*
X97755743Y-77694392D01*
X97787743Y-77701474D01*
X97815092Y-77700649D01*
X97853826Y-77700042D01*
X97874158Y-77709116D01*
X97886369Y-77733092D01*
X97887909Y-77737613D01*
X97893203Y-77771806D01*
X97879047Y-77792568D01*
X97842148Y-77802462D01*
X97802289Y-77804292D01*
X97730562Y-77790727D01*
X97693432Y-77771355D01*
X97647576Y-77725845D01*
X97623256Y-77669983D01*
X97621073Y-77610957D01*
X97641629Y-77555953D01*
X97672549Y-77521486D01*
X97703420Y-77502189D01*
X97751942Y-77477759D01*
X97808485Y-77452985D01*
X97817910Y-77449199D01*
X97880019Y-77421791D01*
X97915822Y-77397634D01*
X97927337Y-77373619D01*
X97916580Y-77346635D01*
X97898114Y-77325543D01*
X97854469Y-77299572D01*
X97806446Y-77297624D01*
X97762406Y-77317637D01*
X97730709Y-77357551D01*
X97726549Y-77367848D01*
X97702327Y-77405724D01*
X97666965Y-77433842D01*
X97622343Y-77456917D01*
X97622343Y-77391485D01*
X97624969Y-77351506D01*
X97636230Y-77319997D01*
X97661199Y-77286378D01*
X97685169Y-77260484D01*
X97722441Y-77223817D01*
X97751401Y-77204121D01*
X97782505Y-77196220D01*
X97817713Y-77194914D01*
X97894876Y-77206335D01*
X97894876Y-77206335D01*
G37*
X97894876Y-77206335D02*
X97936667Y-77225344D01*
X97969469Y-77248378D01*
X97993503Y-77274133D01*
X98010097Y-77307358D01*
X98020577Y-77352800D01*
X98026271Y-77415207D01*
X98028507Y-77499327D01*
X98028743Y-77554721D01*
X98028743Y-77770826D01*
X97991774Y-77787670D01*
X97962656Y-77799981D01*
X97948231Y-77804514D01*
X97945472Y-77791025D01*
X97943282Y-77754653D01*
X97941942Y-77701542D01*
X97941657Y-77659372D01*
X97940434Y-77598447D01*
X97937136Y-77550115D01*
X97932321Y-77520518D01*
X97928496Y-77514229D01*
X97902783Y-77520652D01*
X97862418Y-77537125D01*
X97815679Y-77559458D01*
X97770845Y-77583457D01*
X97736193Y-77604930D01*
X97720002Y-77619685D01*
X97719938Y-77619845D01*
X97721330Y-77647152D01*
X97733818Y-77673219D01*
X97755743Y-77694392D01*
X97787743Y-77701474D01*
X97815092Y-77700649D01*
X97853826Y-77700042D01*
X97874158Y-77709116D01*
X97886369Y-77733092D01*
X97887909Y-77737613D01*
X97893203Y-77771806D01*
X97879047Y-77792568D01*
X97842148Y-77802462D01*
X97802289Y-77804292D01*
X97730562Y-77790727D01*
X97693432Y-77771355D01*
X97647576Y-77725845D01*
X97623256Y-77669983D01*
X97621073Y-77610957D01*
X97641629Y-77555953D01*
X97672549Y-77521486D01*
X97703420Y-77502189D01*
X97751942Y-77477759D01*
X97808485Y-77452985D01*
X97817910Y-77449199D01*
X97880019Y-77421791D01*
X97915822Y-77397634D01*
X97927337Y-77373619D01*
X97916580Y-77346635D01*
X97898114Y-77325543D01*
X97854469Y-77299572D01*
X97806446Y-77297624D01*
X97762406Y-77317637D01*
X97730709Y-77357551D01*
X97726549Y-77367848D01*
X97702327Y-77405724D01*
X97666965Y-77433842D01*
X97622343Y-77456917D01*
X97622343Y-77391485D01*
X97624969Y-77351506D01*
X97636230Y-77319997D01*
X97661199Y-77286378D01*
X97685169Y-77260484D01*
X97722441Y-77223817D01*
X97751401Y-77204121D01*
X97782505Y-77196220D01*
X97817713Y-77194914D01*
X97894876Y-77206335D01*
G36*
X98402600Y-77208752D02*
X98419948Y-77216334D01*
X98461356Y-77249128D01*
X98496765Y-77296547D01*
X98518664Y-77347151D01*
X98522229Y-77372098D01*
X98510279Y-77406927D01*
X98484067Y-77425357D01*
X98455964Y-77436516D01*
X98443095Y-77438572D01*
X98436829Y-77423649D01*
X98424456Y-77391175D01*
X98419028Y-77376502D01*
X98388590Y-77325744D01*
X98344520Y-77300427D01*
X98288010Y-77301206D01*
X98283825Y-77302203D01*
X98253655Y-77316507D01*
X98231476Y-77344393D01*
X98216327Y-77389287D01*
X98207250Y-77454615D01*
X98203286Y-77543804D01*
X98202914Y-77591261D01*
X98202730Y-77666071D01*
X98201522Y-77717069D01*
X98198309Y-77749471D01*
X98192109Y-77768495D01*
X98181940Y-77779356D01*
X98166819Y-77787272D01*
X98165946Y-77787670D01*
X98136828Y-77799981D01*
X98122403Y-77804514D01*
X98120186Y-77790809D01*
X98118289Y-77752925D01*
X98116847Y-77695715D01*
X98115998Y-77624027D01*
X98115829Y-77571565D01*
X98116692Y-77470047D01*
X98120070Y-77393032D01*
X98127142Y-77336023D01*
X98139088Y-77294526D01*
X98157090Y-77264043D01*
X98182327Y-77240080D01*
X98207247Y-77223355D01*
X98267171Y-77201097D01*
X98336911Y-77196076D01*
X98402600Y-77208752D01*
X98402600Y-77208752D01*
G37*
X98402600Y-77208752D02*
X98419948Y-77216334D01*
X98461356Y-77249128D01*
X98496765Y-77296547D01*
X98518664Y-77347151D01*
X98522229Y-77372098D01*
X98510279Y-77406927D01*
X98484067Y-77425357D01*
X98455964Y-77436516D01*
X98443095Y-77438572D01*
X98436829Y-77423649D01*
X98424456Y-77391175D01*
X98419028Y-77376502D01*
X98388590Y-77325744D01*
X98344520Y-77300427D01*
X98288010Y-77301206D01*
X98283825Y-77302203D01*
X98253655Y-77316507D01*
X98231476Y-77344393D01*
X98216327Y-77389287D01*
X98207250Y-77454615D01*
X98203286Y-77543804D01*
X98202914Y-77591261D01*
X98202730Y-77666071D01*
X98201522Y-77717069D01*
X98198309Y-77749471D01*
X98192109Y-77768495D01*
X98181940Y-77779356D01*
X98166819Y-77787272D01*
X98165946Y-77787670D01*
X98136828Y-77799981D01*
X98122403Y-77804514D01*
X98120186Y-77790809D01*
X98118289Y-77752925D01*
X98116847Y-77695715D01*
X98115998Y-77624027D01*
X98115829Y-77571565D01*
X98116692Y-77470047D01*
X98120070Y-77393032D01*
X98127142Y-77336023D01*
X98139088Y-77294526D01*
X98157090Y-77264043D01*
X98182327Y-77240080D01*
X98207247Y-77223355D01*
X98267171Y-77201097D01*
X98336911Y-77196076D01*
X98402600Y-77208752D01*
G36*
X98903595Y-77216966D02*
X98961021Y-77254497D01*
X98988719Y-77288096D01*
X99010662Y-77349064D01*
X99012405Y-77397308D01*
X99008457Y-77461816D01*
X98859686Y-77526934D01*
X98787349Y-77560202D01*
X98740084Y-77586964D01*
X98715507Y-77610144D01*
X98711237Y-77632667D01*
X98724889Y-77657455D01*
X98739943Y-77673886D01*
X98783746Y-77700235D01*
X98831389Y-77702081D01*
X98875145Y-77681546D01*
X98907289Y-77640752D01*
X98913038Y-77626347D01*
X98940576Y-77581356D01*
X98972258Y-77562182D01*
X99015714Y-77545779D01*
X99015714Y-77607966D01*
X99011872Y-77650283D01*
X98996823Y-77685969D01*
X98965280Y-77726943D01*
X98960592Y-77732267D01*
X98925506Y-77768720D01*
X98895347Y-77788283D01*
X98857615Y-77797283D01*
X98826335Y-77800230D01*
X98770385Y-77800965D01*
X98730555Y-77791660D01*
X98705708Y-77777846D01*
X98666656Y-77747467D01*
X98639625Y-77714613D01*
X98622517Y-77673294D01*
X98613238Y-77617521D01*
X98609693Y-77541305D01*
X98609410Y-77502622D01*
X98610372Y-77456247D01*
X98698007Y-77456247D01*
X98699023Y-77481126D01*
X98701556Y-77485200D01*
X98718274Y-77479665D01*
X98754249Y-77465017D01*
X98802331Y-77444190D01*
X98812386Y-77439714D01*
X98873152Y-77408814D01*
X98906632Y-77381657D01*
X98913990Y-77356220D01*
X98896391Y-77330481D01*
X98881856Y-77319109D01*
X98829410Y-77296364D01*
X98780322Y-77300122D01*
X98739227Y-77327884D01*
X98710758Y-77377152D01*
X98701631Y-77416257D01*
X98698007Y-77456247D01*
X98610372Y-77456247D01*
X98611285Y-77412249D01*
X98618196Y-77345384D01*
X98631884Y-77296695D01*
X98654096Y-77260849D01*
X98686574Y-77232513D01*
X98700733Y-77223355D01*
X98765053Y-77199507D01*
X98835473Y-77198006D01*
X98903595Y-77216966D01*
X98903595Y-77216966D01*
G37*
X98903595Y-77216966D02*
X98961021Y-77254497D01*
X98988719Y-77288096D01*
X99010662Y-77349064D01*
X99012405Y-77397308D01*
X99008457Y-77461816D01*
X98859686Y-77526934D01*
X98787349Y-77560202D01*
X98740084Y-77586964D01*
X98715507Y-77610144D01*
X98711237Y-77632667D01*
X98724889Y-77657455D01*
X98739943Y-77673886D01*
X98783746Y-77700235D01*
X98831389Y-77702081D01*
X98875145Y-77681546D01*
X98907289Y-77640752D01*
X98913038Y-77626347D01*
X98940576Y-77581356D01*
X98972258Y-77562182D01*
X99015714Y-77545779D01*
X99015714Y-77607966D01*
X99011872Y-77650283D01*
X98996823Y-77685969D01*
X98965280Y-77726943D01*
X98960592Y-77732267D01*
X98925506Y-77768720D01*
X98895347Y-77788283D01*
X98857615Y-77797283D01*
X98826335Y-77800230D01*
X98770385Y-77800965D01*
X98730555Y-77791660D01*
X98705708Y-77777846D01*
X98666656Y-77747467D01*
X98639625Y-77714613D01*
X98622517Y-77673294D01*
X98613238Y-77617521D01*
X98609693Y-77541305D01*
X98609410Y-77502622D01*
X98610372Y-77456247D01*
X98698007Y-77456247D01*
X98699023Y-77481126D01*
X98701556Y-77485200D01*
X98718274Y-77479665D01*
X98754249Y-77465017D01*
X98802331Y-77444190D01*
X98812386Y-77439714D01*
X98873152Y-77408814D01*
X98906632Y-77381657D01*
X98913990Y-77356220D01*
X98896391Y-77330481D01*
X98881856Y-77319109D01*
X98829410Y-77296364D01*
X98780322Y-77300122D01*
X98739227Y-77327884D01*
X98710758Y-77377152D01*
X98701631Y-77416257D01*
X98698007Y-77456247D01*
X98610372Y-77456247D01*
X98611285Y-77412249D01*
X98618196Y-77345384D01*
X98631884Y-77296695D01*
X98654096Y-77260849D01*
X98686574Y-77232513D01*
X98700733Y-77223355D01*
X98765053Y-77199507D01*
X98835473Y-77198006D01*
X98903595Y-77216966D01*
G36*
X95853910Y-72492348D02*
X95932454Y-72492778D01*
X95989298Y-72493942D01*
X96028105Y-72496207D01*
X96052538Y-72499940D01*
X96066262Y-72505506D01*
X96072940Y-72513273D01*
X96076236Y-72523605D01*
X96076556Y-72524943D01*
X96081562Y-72549079D01*
X96090829Y-72596701D01*
X96103392Y-72662741D01*
X96118287Y-72742128D01*
X96134551Y-72829796D01*
X96135119Y-72832875D01*
X96151410Y-72918789D01*
X96166652Y-72994696D01*
X96179861Y-73056045D01*
X96190054Y-73098282D01*
X96196248Y-73116855D01*
X96196543Y-73117184D01*
X96214788Y-73126253D01*
X96252405Y-73141367D01*
X96301271Y-73159262D01*
X96301543Y-73159358D01*
X96363093Y-73182493D01*
X96435657Y-73211965D01*
X96504057Y-73241597D01*
X96507294Y-73243062D01*
X96618702Y-73293626D01*
X96865399Y-73125160D01*
X96941077Y-73073803D01*
X97009631Y-73027889D01*
X97067088Y-72990030D01*
X97109476Y-72962837D01*
X97132825Y-72948921D01*
X97135042Y-72947889D01*
X97152010Y-72952484D01*
X97183701Y-72974655D01*
X97231352Y-73015447D01*
X97296198Y-73075905D01*
X97362397Y-73140227D01*
X97426214Y-73203612D01*
X97483329Y-73261451D01*
X97530305Y-73310175D01*
X97563703Y-73346210D01*
X97580085Y-73365984D01*
X97580694Y-73367002D01*
X97582505Y-73380572D01*
X97575683Y-73402733D01*
X97558540Y-73436478D01*
X97529393Y-73484800D01*
X97486555Y-73550692D01*
X97429448Y-73635517D01*
X97378766Y-73710177D01*
X97333461Y-73777140D01*
X97296150Y-73832516D01*
X97269452Y-73872420D01*
X97255985Y-73892962D01*
X97255137Y-73894356D01*
X97256781Y-73914038D01*
X97269245Y-73952293D01*
X97290048Y-74001889D01*
X97297462Y-74017728D01*
X97329814Y-74088290D01*
X97364328Y-74168353D01*
X97392365Y-74237629D01*
X97412568Y-74289045D01*
X97428615Y-74328119D01*
X97437888Y-74348541D01*
X97439041Y-74350114D01*
X97456096Y-74352721D01*
X97496298Y-74359863D01*
X97554302Y-74370523D01*
X97624763Y-74383685D01*
X97702335Y-74398333D01*
X97781672Y-74413449D01*
X97857431Y-74428018D01*
X97924264Y-74441022D01*
X97976828Y-74451445D01*
X98009776Y-74458270D01*
X98017857Y-74460199D01*
X98026205Y-74464962D01*
X98032506Y-74475718D01*
X98037045Y-74496098D01*
X98040104Y-74529734D01*
X98041967Y-74580255D01*
X98042918Y-74651292D01*
X98043240Y-74746476D01*
X98043257Y-74785492D01*
X98043257Y-75102799D01*
X97967057Y-75117839D01*
X97924663Y-75125995D01*
X97861400Y-75137899D01*
X97784962Y-75152116D01*
X97703043Y-75167210D01*
X97680400Y-75171355D01*
X97604806Y-75186053D01*
X97538953Y-75200505D01*
X97488366Y-75213375D01*
X97458574Y-75223322D01*
X97453612Y-75226287D01*
X97441426Y-75247283D01*
X97423953Y-75287967D01*
X97404577Y-75340322D01*
X97400734Y-75351600D01*
X97375339Y-75421523D01*
X97343817Y-75500418D01*
X97312969Y-75571266D01*
X97312817Y-75571595D01*
X97261447Y-75682733D01*
X97430399Y-75931253D01*
X97599352Y-76179772D01*
X97382429Y-76397058D01*
X97316819Y-76461726D01*
X97256979Y-76518733D01*
X97206267Y-76565033D01*
X97168046Y-76597584D01*
X97145675Y-76613343D01*
X97142466Y-76614343D01*
X97123626Y-76606469D01*
X97085180Y-76584578D01*
X97031330Y-76551267D01*
X96966276Y-76509131D01*
X96895940Y-76461943D01*
X96824555Y-76413810D01*
X96760908Y-76371928D01*
X96709041Y-76338871D01*
X96672995Y-76317218D01*
X96656867Y-76309543D01*
X96637189Y-76316037D01*
X96599875Y-76333150D01*
X96552621Y-76357326D01*
X96547612Y-76360013D01*
X96483977Y-76391927D01*
X96440341Y-76407579D01*
X96413202Y-76407745D01*
X96399057Y-76393204D01*
X96398975Y-76393000D01*
X96391905Y-76375779D01*
X96375042Y-76334899D01*
X96349695Y-76273525D01*
X96317171Y-76194819D01*
X96278778Y-76101947D01*
X96235822Y-75998072D01*
X96194222Y-75897502D01*
X96148504Y-75786516D01*
X96106526Y-75683703D01*
X96069548Y-75592215D01*
X96038827Y-75515201D01*
X96015622Y-75455815D01*
X96001190Y-75417209D01*
X95996743Y-75402800D01*
X96007896Y-75386272D01*
X96037069Y-75359930D01*
X96075971Y-75330887D01*
X96186757Y-75239039D01*
X96273351Y-75133759D01*
X96334716Y-75017266D01*
X96369815Y-74891776D01*
X96377608Y-74759507D01*
X96371943Y-74698457D01*
X96341078Y-74571795D01*
X96287920Y-74459941D01*
X96215767Y-74364001D01*
X96127917Y-74285076D01*
X96027665Y-74224270D01*
X95918310Y-74182687D01*
X95803147Y-74161428D01*
X95685475Y-74161599D01*
X95568590Y-74184301D01*
X95455789Y-74230638D01*
X95350369Y-74301713D01*
X95306368Y-74341911D01*
X95221979Y-74445129D01*
X95163222Y-74557925D01*
X95129704Y-74677010D01*
X95121035Y-74799095D01*
X95136823Y-74920893D01*
X95176678Y-75039116D01*
X95240207Y-75150475D01*
X95327021Y-75251684D01*
X95424029Y-75330887D01*
X95464437Y-75361162D01*
X95492982Y-75387219D01*
X95503257Y-75402825D01*
X95497877Y-75419843D01*
X95482575Y-75460500D01*
X95458612Y-75521642D01*
X95427244Y-75600119D01*
X95389732Y-75692780D01*
X95347333Y-75796472D01*
X95305663Y-75897526D01*
X95259690Y-76008607D01*
X95217107Y-76111541D01*
X95179221Y-76203165D01*
X95147340Y-76280316D01*
X95122771Y-76339831D01*
X95106820Y-76378544D01*
X95100910Y-76393000D01*
X95086948Y-76407685D01*
X95059940Y-76407642D01*
X95016413Y-76392099D01*
X94952890Y-76360284D01*
X94952388Y-76360013D01*
X94904560Y-76335323D01*
X94865897Y-76317338D01*
X94844095Y-76309614D01*
X94843133Y-76309543D01*
X94826721Y-76317378D01*
X94790487Y-76339165D01*
X94738474Y-76372328D01*
X94674725Y-76414291D01*
X94604060Y-76461943D01*
X94532116Y-76510191D01*
X94467274Y-76552151D01*
X94413735Y-76585227D01*
X94375697Y-76606821D01*
X94357533Y-76614343D01*
X94340808Y-76604457D01*
X94307180Y-76576826D01*
X94260010Y-76534495D01*
X94202658Y-76480505D01*
X94138484Y-76417899D01*
X94117497Y-76396983D01*
X93900499Y-76179623D01*
X94065668Y-75937220D01*
X94115864Y-75862781D01*
X94159919Y-75795972D01*
X94195362Y-75740665D01*
X94219719Y-75700729D01*
X94230522Y-75680036D01*
X94230838Y-75678563D01*
X94225143Y-75659058D01*
X94209826Y-75619822D01*
X94187537Y-75567430D01*
X94171893Y-75532355D01*
X94142641Y-75465201D01*
X94115094Y-75397358D01*
X94093737Y-75340034D01*
X94087935Y-75322572D01*
X94071452Y-75275938D01*
X94055340Y-75239905D01*
X94046490Y-75226287D01*
X94026960Y-75217952D01*
X93984334Y-75206137D01*
X93924145Y-75192181D01*
X93851922Y-75177422D01*
X93819600Y-75171355D01*
X93737522Y-75156273D01*
X93658795Y-75141669D01*
X93591109Y-75128980D01*
X93542160Y-75119642D01*
X93532943Y-75117839D01*
X93456743Y-75102799D01*
X93456743Y-74785492D01*
X93456914Y-74681154D01*
X93457616Y-74602213D01*
X93459134Y-74545038D01*
X93461749Y-74505999D01*
X93465746Y-74481465D01*
X93471409Y-74467805D01*
X93479020Y-74461389D01*
X93482143Y-74460199D01*
X93500978Y-74455980D01*
X93542588Y-74447562D01*
X93601630Y-74435961D01*
X93672757Y-74422195D01*
X93750625Y-74407280D01*
X93829887Y-74392232D01*
X93905198Y-74378069D01*
X93971213Y-74365806D01*
X94022587Y-74356461D01*
X94053975Y-74351050D01*
X94060959Y-74350114D01*
X94067285Y-74337596D01*
X94081290Y-74304246D01*
X94100355Y-74256377D01*
X94107634Y-74237629D01*
X94136996Y-74165195D01*
X94171571Y-74085170D01*
X94202537Y-74017728D01*
X94225323Y-73966159D01*
X94240482Y-73923785D01*
X94245542Y-73897834D01*
X94244736Y-73894356D01*
X94234041Y-73877936D01*
X94209620Y-73841417D01*
X94174095Y-73788687D01*
X94130087Y-73723635D01*
X94080217Y-73650151D01*
X94070356Y-73635645D01*
X94012492Y-73549704D01*
X93969956Y-73484261D01*
X93941054Y-73436304D01*
X93924090Y-73402820D01*
X93917367Y-73380795D01*
X93919190Y-73367217D01*
X93919236Y-73367131D01*
X93933586Y-73349297D01*
X93965323Y-73314817D01*
X94011010Y-73267268D01*
X94067204Y-73210222D01*
X94130468Y-73147255D01*
X94137602Y-73140227D01*
X94217330Y-73063020D01*
X94278857Y-73006330D01*
X94323421Y-72969110D01*
X94352257Y-72950315D01*
X94364958Y-72947889D01*
X94383494Y-72958471D01*
X94421961Y-72982916D01*
X94476386Y-73018612D01*
X94542798Y-73062947D01*
X94617225Y-73113311D01*
X94634601Y-73125160D01*
X94881297Y-73293626D01*
X94992706Y-73243062D01*
X95060457Y-73213595D01*
X95133183Y-73183959D01*
X95195703Y-73160330D01*
X95198457Y-73159358D01*
X95247360Y-73141457D01*
X95285057Y-73126320D01*
X95303425Y-73117210D01*
X95303456Y-73117184D01*
X95309285Y-73100717D01*
X95319192Y-73060219D01*
X95332195Y-73000242D01*
X95347309Y-72925340D01*
X95363552Y-72840064D01*
X95364881Y-72832875D01*
X95381175Y-72745014D01*
X95396133Y-72665260D01*
X95408791Y-72598681D01*
X95418186Y-72550347D01*
X95423354Y-72525325D01*
X95423444Y-72524943D01*
X95426589Y-72514299D01*
X95432704Y-72506262D01*
X95445453Y-72500467D01*
X95468500Y-72496547D01*
X95505509Y-72494135D01*
X95560144Y-72492865D01*
X95636067Y-72492371D01*
X95736944Y-72492286D01*
X95750000Y-72492286D01*
X95853910Y-72492348D01*
X95853910Y-72492348D01*
G37*
X95853910Y-72492348D02*
X95932454Y-72492778D01*
X95989298Y-72493942D01*
X96028105Y-72496207D01*
X96052538Y-72499940D01*
X96066262Y-72505506D01*
X96072940Y-72513273D01*
X96076236Y-72523605D01*
X96076556Y-72524943D01*
X96081562Y-72549079D01*
X96090829Y-72596701D01*
X96103392Y-72662741D01*
X96118287Y-72742128D01*
X96134551Y-72829796D01*
X96135119Y-72832875D01*
X96151410Y-72918789D01*
X96166652Y-72994696D01*
X96179861Y-73056045D01*
X96190054Y-73098282D01*
X96196248Y-73116855D01*
X96196543Y-73117184D01*
X96214788Y-73126253D01*
X96252405Y-73141367D01*
X96301271Y-73159262D01*
X96301543Y-73159358D01*
X96363093Y-73182493D01*
X96435657Y-73211965D01*
X96504057Y-73241597D01*
X96507294Y-73243062D01*
X96618702Y-73293626D01*
X96865399Y-73125160D01*
X96941077Y-73073803D01*
X97009631Y-73027889D01*
X97067088Y-72990030D01*
X97109476Y-72962837D01*
X97132825Y-72948921D01*
X97135042Y-72947889D01*
X97152010Y-72952484D01*
X97183701Y-72974655D01*
X97231352Y-73015447D01*
X97296198Y-73075905D01*
X97362397Y-73140227D01*
X97426214Y-73203612D01*
X97483329Y-73261451D01*
X97530305Y-73310175D01*
X97563703Y-73346210D01*
X97580085Y-73365984D01*
X97580694Y-73367002D01*
X97582505Y-73380572D01*
X97575683Y-73402733D01*
X97558540Y-73436478D01*
X97529393Y-73484800D01*
X97486555Y-73550692D01*
X97429448Y-73635517D01*
X97378766Y-73710177D01*
X97333461Y-73777140D01*
X97296150Y-73832516D01*
X97269452Y-73872420D01*
X97255985Y-73892962D01*
X97255137Y-73894356D01*
X97256781Y-73914038D01*
X97269245Y-73952293D01*
X97290048Y-74001889D01*
X97297462Y-74017728D01*
X97329814Y-74088290D01*
X97364328Y-74168353D01*
X97392365Y-74237629D01*
X97412568Y-74289045D01*
X97428615Y-74328119D01*
X97437888Y-74348541D01*
X97439041Y-74350114D01*
X97456096Y-74352721D01*
X97496298Y-74359863D01*
X97554302Y-74370523D01*
X97624763Y-74383685D01*
X97702335Y-74398333D01*
X97781672Y-74413449D01*
X97857431Y-74428018D01*
X97924264Y-74441022D01*
X97976828Y-74451445D01*
X98009776Y-74458270D01*
X98017857Y-74460199D01*
X98026205Y-74464962D01*
X98032506Y-74475718D01*
X98037045Y-74496098D01*
X98040104Y-74529734D01*
X98041967Y-74580255D01*
X98042918Y-74651292D01*
X98043240Y-74746476D01*
X98043257Y-74785492D01*
X98043257Y-75102799D01*
X97967057Y-75117839D01*
X97924663Y-75125995D01*
X97861400Y-75137899D01*
X97784962Y-75152116D01*
X97703043Y-75167210D01*
X97680400Y-75171355D01*
X97604806Y-75186053D01*
X97538953Y-75200505D01*
X97488366Y-75213375D01*
X97458574Y-75223322D01*
X97453612Y-75226287D01*
X97441426Y-75247283D01*
X97423953Y-75287967D01*
X97404577Y-75340322D01*
X97400734Y-75351600D01*
X97375339Y-75421523D01*
X97343817Y-75500418D01*
X97312969Y-75571266D01*
X97312817Y-75571595D01*
X97261447Y-75682733D01*
X97430399Y-75931253D01*
X97599352Y-76179772D01*
X97382429Y-76397058D01*
X97316819Y-76461726D01*
X97256979Y-76518733D01*
X97206267Y-76565033D01*
X97168046Y-76597584D01*
X97145675Y-76613343D01*
X97142466Y-76614343D01*
X97123626Y-76606469D01*
X97085180Y-76584578D01*
X97031330Y-76551267D01*
X96966276Y-76509131D01*
X96895940Y-76461943D01*
X96824555Y-76413810D01*
X96760908Y-76371928D01*
X96709041Y-76338871D01*
X96672995Y-76317218D01*
X96656867Y-76309543D01*
X96637189Y-76316037D01*
X96599875Y-76333150D01*
X96552621Y-76357326D01*
X96547612Y-76360013D01*
X96483977Y-76391927D01*
X96440341Y-76407579D01*
X96413202Y-76407745D01*
X96399057Y-76393204D01*
X96398975Y-76393000D01*
X96391905Y-76375779D01*
X96375042Y-76334899D01*
X96349695Y-76273525D01*
X96317171Y-76194819D01*
X96278778Y-76101947D01*
X96235822Y-75998072D01*
X96194222Y-75897502D01*
X96148504Y-75786516D01*
X96106526Y-75683703D01*
X96069548Y-75592215D01*
X96038827Y-75515201D01*
X96015622Y-75455815D01*
X96001190Y-75417209D01*
X95996743Y-75402800D01*
X96007896Y-75386272D01*
X96037069Y-75359930D01*
X96075971Y-75330887D01*
X96186757Y-75239039D01*
X96273351Y-75133759D01*
X96334716Y-75017266D01*
X96369815Y-74891776D01*
X96377608Y-74759507D01*
X96371943Y-74698457D01*
X96341078Y-74571795D01*
X96287920Y-74459941D01*
X96215767Y-74364001D01*
X96127917Y-74285076D01*
X96027665Y-74224270D01*
X95918310Y-74182687D01*
X95803147Y-74161428D01*
X95685475Y-74161599D01*
X95568590Y-74184301D01*
X95455789Y-74230638D01*
X95350369Y-74301713D01*
X95306368Y-74341911D01*
X95221979Y-74445129D01*
X95163222Y-74557925D01*
X95129704Y-74677010D01*
X95121035Y-74799095D01*
X95136823Y-74920893D01*
X95176678Y-75039116D01*
X95240207Y-75150475D01*
X95327021Y-75251684D01*
X95424029Y-75330887D01*
X95464437Y-75361162D01*
X95492982Y-75387219D01*
X95503257Y-75402825D01*
X95497877Y-75419843D01*
X95482575Y-75460500D01*
X95458612Y-75521642D01*
X95427244Y-75600119D01*
X95389732Y-75692780D01*
X95347333Y-75796472D01*
X95305663Y-75897526D01*
X95259690Y-76008607D01*
X95217107Y-76111541D01*
X95179221Y-76203165D01*
X95147340Y-76280316D01*
X95122771Y-76339831D01*
X95106820Y-76378544D01*
X95100910Y-76393000D01*
X95086948Y-76407685D01*
X95059940Y-76407642D01*
X95016413Y-76392099D01*
X94952890Y-76360284D01*
X94952388Y-76360013D01*
X94904560Y-76335323D01*
X94865897Y-76317338D01*
X94844095Y-76309614D01*
X94843133Y-76309543D01*
X94826721Y-76317378D01*
X94790487Y-76339165D01*
X94738474Y-76372328D01*
X94674725Y-76414291D01*
X94604060Y-76461943D01*
X94532116Y-76510191D01*
X94467274Y-76552151D01*
X94413735Y-76585227D01*
X94375697Y-76606821D01*
X94357533Y-76614343D01*
X94340808Y-76604457D01*
X94307180Y-76576826D01*
X94260010Y-76534495D01*
X94202658Y-76480505D01*
X94138484Y-76417899D01*
X94117497Y-76396983D01*
X93900499Y-76179623D01*
X94065668Y-75937220D01*
X94115864Y-75862781D01*
X94159919Y-75795972D01*
X94195362Y-75740665D01*
X94219719Y-75700729D01*
X94230522Y-75680036D01*
X94230838Y-75678563D01*
X94225143Y-75659058D01*
X94209826Y-75619822D01*
X94187537Y-75567430D01*
X94171893Y-75532355D01*
X94142641Y-75465201D01*
X94115094Y-75397358D01*
X94093737Y-75340034D01*
X94087935Y-75322572D01*
X94071452Y-75275938D01*
X94055340Y-75239905D01*
X94046490Y-75226287D01*
X94026960Y-75217952D01*
X93984334Y-75206137D01*
X93924145Y-75192181D01*
X93851922Y-75177422D01*
X93819600Y-75171355D01*
X93737522Y-75156273D01*
X93658795Y-75141669D01*
X93591109Y-75128980D01*
X93542160Y-75119642D01*
X93532943Y-75117839D01*
X93456743Y-75102799D01*
X93456743Y-74785492D01*
X93456914Y-74681154D01*
X93457616Y-74602213D01*
X93459134Y-74545038D01*
X93461749Y-74505999D01*
X93465746Y-74481465D01*
X93471409Y-74467805D01*
X93479020Y-74461389D01*
X93482143Y-74460199D01*
X93500978Y-74455980D01*
X93542588Y-74447562D01*
X93601630Y-74435961D01*
X93672757Y-74422195D01*
X93750625Y-74407280D01*
X93829887Y-74392232D01*
X93905198Y-74378069D01*
X93971213Y-74365806D01*
X94022587Y-74356461D01*
X94053975Y-74351050D01*
X94060959Y-74350114D01*
X94067285Y-74337596D01*
X94081290Y-74304246D01*
X94100355Y-74256377D01*
X94107634Y-74237629D01*
X94136996Y-74165195D01*
X94171571Y-74085170D01*
X94202537Y-74017728D01*
X94225323Y-73966159D01*
X94240482Y-73923785D01*
X94245542Y-73897834D01*
X94244736Y-73894356D01*
X94234041Y-73877936D01*
X94209620Y-73841417D01*
X94174095Y-73788687D01*
X94130087Y-73723635D01*
X94080217Y-73650151D01*
X94070356Y-73635645D01*
X94012492Y-73549704D01*
X93969956Y-73484261D01*
X93941054Y-73436304D01*
X93924090Y-73402820D01*
X93917367Y-73380795D01*
X93919190Y-73367217D01*
X93919236Y-73367131D01*
X93933586Y-73349297D01*
X93965323Y-73314817D01*
X94011010Y-73267268D01*
X94067204Y-73210222D01*
X94130468Y-73147255D01*
X94137602Y-73140227D01*
X94217330Y-73063020D01*
X94278857Y-73006330D01*
X94323421Y-72969110D01*
X94352257Y-72950315D01*
X94364958Y-72947889D01*
X94383494Y-72958471D01*
X94421961Y-72982916D01*
X94476386Y-73018612D01*
X94542798Y-73062947D01*
X94617225Y-73113311D01*
X94634601Y-73125160D01*
X94881297Y-73293626D01*
X94992706Y-73243062D01*
X95060457Y-73213595D01*
X95133183Y-73183959D01*
X95195703Y-73160330D01*
X95198457Y-73159358D01*
X95247360Y-73141457D01*
X95285057Y-73126320D01*
X95303425Y-73117210D01*
X95303456Y-73117184D01*
X95309285Y-73100717D01*
X95319192Y-73060219D01*
X95332195Y-73000242D01*
X95347309Y-72925340D01*
X95363552Y-72840064D01*
X95364881Y-72832875D01*
X95381175Y-72745014D01*
X95396133Y-72665260D01*
X95408791Y-72598681D01*
X95418186Y-72550347D01*
X95423354Y-72525325D01*
X95423444Y-72524943D01*
X95426589Y-72514299D01*
X95432704Y-72506262D01*
X95445453Y-72500467D01*
X95468500Y-72496547D01*
X95505509Y-72494135D01*
X95560144Y-72492865D01*
X95636067Y-72492371D01*
X95736944Y-72492286D01*
X95750000Y-72492286D01*
X95853910Y-72492348D01*
D12*
X132657143Y-75166666D02*
X132704762Y-75214285D01*
X132752381Y-75357142D01*
X132752381Y-75452380D01*
X132704762Y-75595238D01*
X132609524Y-75690476D01*
X132514286Y-75738095D01*
X132323810Y-75785714D01*
X132180952Y-75785714D01*
X131990476Y-75738095D01*
X131895238Y-75690476D01*
X131800000Y-75595238D01*
X131752381Y-75452380D01*
X131752381Y-75357142D01*
X131800000Y-75214285D01*
X131847619Y-75166666D01*
X132752381Y-74214285D02*
X132752381Y-74785714D01*
X132752381Y-74500000D02*
X131752381Y-74500000D01*
X131895238Y-74595238D01*
X131990476Y-74690476D01*
X132038095Y-74785714D01*
D11*
X121452381Y-76119047D02*
X121452381Y-76595238D01*
X120452381Y-76595238D01*
X120928571Y-75785714D02*
X120928571Y-75452380D01*
X121452381Y-75309523D02*
X121452381Y-75785714D01*
X120452381Y-75785714D01*
X120452381Y-75309523D01*
X121452381Y-74880952D02*
X120452381Y-74880952D01*
X120452381Y-74642857D01*
X120500000Y-74499999D01*
X120595238Y-74404761D01*
X120690476Y-74357142D01*
X120880952Y-74309523D01*
X121023810Y-74309523D01*
X121214286Y-74357142D01*
X121309524Y-74404761D01*
X121404762Y-74499999D01*
X121452381Y-74642857D01*
X121452381Y-74880952D01*
X121452381Y-73357142D02*
X121452381Y-73928571D01*
X121452381Y-73642857D02*
X120452381Y-73642857D01*
X120595238Y-73738095D01*
X120690476Y-73833333D01*
X120738095Y-73928571D01*
D12*
X166952381Y-78738095D02*
X165952381Y-78738095D01*
X165952381Y-78357142D01*
X166000000Y-78261904D01*
X166047619Y-78214285D01*
X166142857Y-78166666D01*
X166285714Y-78166666D01*
X166380952Y-78214285D01*
X166428571Y-78261904D01*
X166476190Y-78357142D01*
X166476190Y-78738095D01*
X166952381Y-77214285D02*
X166952381Y-77785714D01*
X166952381Y-77500000D02*
X165952381Y-77500000D01*
X166095238Y-77595238D01*
X166190476Y-77690476D01*
X166238095Y-77785714D01*
M02*
