M48
;DRILL file {KiCad 4.0.3+e1-6302~38~ubuntu15.04.1-stable} date Sun Sep 25 07:25:40 2016
;FORMAT={-:-/ absolute / inch / decimal}
FMAT,2
INCH,TZ
T1C0.016
T2C0.030
%
G90
G05
M72
T1
X3.0315Y-2.9921
X3.0315Y-3.0709
X3.0709Y-2.9921
X3.0709Y-3.0709
X3.1102Y-2.9921
X3.1102Y-3.0709
X5.1181Y-2.8937
X5.1181Y-3.0709
X6.7323Y-2.9921
X6.7323Y-3.0709
X6.7717Y-2.9921
X6.7717Y-3.0709
X6.811Y-2.9921
X6.811Y-3.0709
T2
X2.9528Y-2.8346
X2.9528Y-2.9134
X2.9528Y-2.9921
X2.9528Y-3.0709
X3.189Y-2.8346
X3.189Y-2.9134
X3.189Y-2.9921
X3.189Y-3.0709
X6.6535Y-2.8346
X6.6535Y-2.9134
X6.6535Y-2.9921
X6.6535Y-3.0709
X6.8898Y-2.8346
X6.8898Y-2.9134
X6.8898Y-2.9921
X6.8898Y-3.0709
T0
M30
