G04 #@! TF.FileFunction,Copper,L1,Top,Signal*
%FSLAX46Y46*%
G04 Gerber Fmt 4.6, Leading zero omitted, Abs format (unit mm)*
G04 Created by KiCad (PCBNEW 4.0.3+e1-6302~38~ubuntu15.04.1-stable) date Sun Sep 25 07:25:38 2016*
%MOMM*%
%LPD*%
G01*
G04 APERTURE LIST*
%ADD10C,0.100000*%
%ADD11R,1.600000X2.000000*%
%ADD12R,1.270000X0.965200*%
%ADD13R,1.400000X1.800000*%
%ADD14R,0.500000X3.000000*%
%ADD15R,1.700000X1.000000*%
%ADD16R,0.500000X1.000000*%
%ADD17R,0.500000X1.600000*%
%ADD18R,10.000000X1.524000*%
%ADD19O,10.000000X1.524000*%
%ADD20R,1.524000X1.524000*%
%ADD21C,1.524000*%
%ADD22C,0.600000*%
%ADD23C,1.550000*%
%ADD24C,1.500000*%
%ADD25C,0.600000*%
%ADD26C,0.500000*%
%ADD27C,0.250000*%
G04 APERTURE END LIST*
D10*
D11*
X130000000Y-73000000D03*
X130000000Y-77000000D03*
D12*
X85500000Y-73635000D03*
X85500000Y-72365000D03*
D13*
X126650000Y-72600000D03*
X123350000Y-72600000D03*
X123350000Y-77400000D03*
X126650000Y-77400000D03*
D14*
X126600000Y-76000000D03*
D15*
X124000000Y-75000000D03*
X126000000Y-75000000D03*
D14*
X123400000Y-74000000D03*
D16*
X125400000Y-75000000D03*
X124600000Y-75000000D03*
D17*
X123400000Y-74700000D03*
X126600000Y-75300000D03*
D18*
X172000000Y-78000000D03*
D19*
X172000000Y-76000000D03*
D20*
X175000000Y-78000000D03*
X169000000Y-78000000D03*
D21*
X175000000Y-76000000D03*
X169000000Y-76000000D03*
D19*
X172000000Y-74000000D03*
D21*
X175000000Y-74000000D03*
X169000000Y-74000000D03*
D19*
X172000000Y-72000000D03*
D21*
X175000000Y-72000000D03*
X169000000Y-72000000D03*
D18*
X78000000Y-78000000D03*
D19*
X78000000Y-76000000D03*
D20*
X81000000Y-78000000D03*
X75000000Y-78000000D03*
D21*
X81000000Y-76000000D03*
X75000000Y-76000000D03*
D19*
X78000000Y-74000000D03*
D21*
X81000000Y-74000000D03*
X75000000Y-74000000D03*
D19*
X78000000Y-72000000D03*
D21*
X81000000Y-72000000D03*
X75000000Y-72000000D03*
D22*
X77000000Y-76000000D03*
X78000000Y-76000000D03*
X79000000Y-76000000D03*
X171000000Y-76000000D03*
X172000000Y-76000000D03*
X173000000Y-76000000D03*
X130000000Y-73500000D03*
X77000000Y-78000000D03*
X78000000Y-78000000D03*
X79000000Y-78000000D03*
X171000000Y-78000000D03*
X172000000Y-78000000D03*
X173000000Y-78000000D03*
X130000000Y-78000000D03*
D23*
X77000000Y-76000000D02*
X78000000Y-76000000D01*
X79000000Y-76000000D02*
X78000000Y-76000000D01*
X171000000Y-76000000D02*
X172000000Y-76000000D01*
X173000000Y-76000000D02*
X172000000Y-76000000D01*
D24*
X130000000Y-73500000D02*
X130000000Y-73000000D01*
D25*
X130000000Y-73000000D02*
X127050000Y-73000000D01*
X81000000Y-76000000D02*
X81500000Y-76000000D01*
X81500000Y-76000000D02*
X82500000Y-76000000D01*
X126650000Y-72150000D02*
X126650000Y-72600000D01*
X127050000Y-73000000D02*
X126650000Y-72600000D01*
D23*
X77000000Y-78000000D02*
X78000000Y-78000000D01*
X79000000Y-78000000D02*
X78000000Y-78000000D01*
X171000000Y-78000000D02*
X172000000Y-78000000D01*
X173000000Y-78000000D02*
X172000000Y-78000000D01*
D24*
X130000000Y-77000000D02*
X130000000Y-78000000D01*
D25*
X81000000Y-78000000D02*
X81500000Y-78000000D01*
X81500000Y-78000000D02*
X82500000Y-78000000D01*
X130000000Y-77000000D02*
X130000000Y-77500000D01*
X124759850Y-78809850D02*
X123350000Y-77400000D01*
X130000000Y-77500000D02*
X128690150Y-78809850D01*
X128690150Y-78809850D02*
X124759850Y-78809850D01*
X122950000Y-77000000D02*
X123350000Y-77400000D01*
X122950000Y-77000000D02*
X123350000Y-77400000D01*
D26*
X78000000Y-74000000D02*
X84000000Y-74000000D01*
X84000000Y-74000000D02*
X85000000Y-75000000D01*
X85000000Y-75000000D02*
X124000000Y-75000000D01*
X83500000Y-74000000D02*
X81000000Y-74000000D01*
X83500000Y-74000000D02*
X85135000Y-74000000D01*
D27*
X85135000Y-74000000D02*
X85500000Y-73635000D01*
X123350000Y-72600000D02*
X123350000Y-74150000D01*
X123350000Y-72600000D02*
X123350000Y-74650000D01*
D26*
X83500000Y-72000000D02*
X81000000Y-72000000D01*
X83500000Y-72000000D02*
X85135000Y-72000000D01*
D27*
X85135000Y-72000000D02*
X85500000Y-72365000D01*
D26*
X126000000Y-75000000D02*
X165000000Y-75000000D01*
X165000000Y-75000000D02*
X166000000Y-74000000D01*
X166000000Y-74000000D02*
X172000000Y-74000000D01*
D27*
X126650000Y-75850000D02*
X126650000Y-77400000D01*
M02*
