M48
;DRILL file {KiCad 4.0.2+e4-6225~38~ubuntu15.04.1-stable} date zo 31 jul 2016 22:39:58 CEST
;FORMAT={-:-/ absolute / inch / decimal}
FMAT,2
INCH,TZ
T1C0.035
T2C0.126
%
G90
G05
M72
T1
X5.72Y-4.66
X5.72Y-4.7584
X5.72Y-4.8569
X5.98Y-4.42
X5.98Y-4.76
X5.98Y-5.1
X6.0784Y-4.42
X6.0784Y-4.76
X6.0784Y-5.1
X6.1769Y-4.42
X6.1769Y-4.76
X6.1769Y-5.1
X6.2753Y-4.42
X6.2753Y-4.76
X6.2753Y-5.1
X6.56Y-4.42
X6.56Y-4.76
X6.56Y-5.1
X6.6584Y-4.42
X6.6584Y-4.76
X6.6584Y-5.1
X6.7569Y-4.42
X6.7569Y-4.76
X6.7569Y-5.1
X6.8553Y-4.42
X6.8553Y-4.76
X6.8553Y-5.1
X7.12Y-4.6631
X7.12Y-4.7616
X7.12Y-4.86
T2
X5.6Y-4.375
X5.6Y-5.15
X7.25Y-4.375
X7.25Y-5.15
T0
M30
