G04 #@! TF.FileFunction,Copper,L1,Top,Signal*
%FSLAX46Y46*%
G04 Gerber Fmt 4.6, Leading zero omitted, Abs format (unit mm)*
G04 Created by KiCad (PCBNEW 4.0.2+e4-6225~38~ubuntu15.04.1-stable) date zo 31 jul 2016 22:39:55 CEST*
%MOMM*%
G01*
G04 APERTURE LIST*
%ADD10C,0.100000*%
%ADD11R,1.750000X1.750000*%
%ADD12C,1.750000*%
%ADD13C,3.200000*%
%ADD14C,0.400000*%
%ADD15C,0.254000*%
G04 APERTURE END LIST*
D10*
D11*
X166624000Y-120904000D03*
D12*
X169124000Y-120904000D03*
X171624000Y-120904000D03*
X174124000Y-120904000D03*
D13*
X184150000Y-130810000D03*
X184150000Y-111125000D03*
X142240000Y-130810000D03*
X142240000Y-111125000D03*
D11*
X145288000Y-118364000D03*
D12*
X145288000Y-120864000D03*
X145288000Y-123364000D03*
D11*
X151892000Y-112268000D03*
D12*
X154392000Y-112268000D03*
X156892000Y-112268000D03*
X159392000Y-112268000D03*
D11*
X151892000Y-120904000D03*
D12*
X154392000Y-120904000D03*
X156892000Y-120904000D03*
X159392000Y-120904000D03*
D11*
X151892000Y-129540000D03*
D12*
X154392000Y-129540000D03*
X156892000Y-129540000D03*
X159392000Y-129540000D03*
D11*
X166624000Y-129540000D03*
D12*
X169124000Y-129540000D03*
X171624000Y-129540000D03*
X174124000Y-129540000D03*
D11*
X166624000Y-112268000D03*
D12*
X169124000Y-112268000D03*
X171624000Y-112268000D03*
X174124000Y-112268000D03*
D11*
X180848000Y-123444000D03*
D12*
X180848000Y-120944000D03*
X180848000Y-118444000D03*
D14*
X147574000Y-121078000D02*
X145288000Y-123364000D01*
X147574000Y-116332000D02*
X147574000Y-121078000D01*
X149860000Y-114046000D02*
X147574000Y-116332000D01*
X155194000Y-114046000D02*
X149860000Y-114046000D01*
X156892000Y-112348000D02*
X155194000Y-114046000D01*
X156892000Y-112268000D02*
X156892000Y-112348000D01*
X174124000Y-112268000D02*
X174124000Y-115450000D01*
X174124000Y-115450000D02*
X177118000Y-118444000D01*
X177118000Y-118444000D02*
X180848000Y-118444000D01*
X159392000Y-112268000D02*
X159392000Y-115436000D01*
X159392000Y-115436000D02*
X156892000Y-117936000D01*
X156892000Y-117936000D02*
X156892000Y-120904000D01*
X159392000Y-120904000D02*
X159392000Y-124072000D01*
X156892000Y-126572000D02*
X156892000Y-129540000D01*
X159392000Y-124072000D02*
X156892000Y-126572000D01*
X171624000Y-129540000D02*
X171624000Y-129620000D01*
X171624000Y-129620000D02*
X169926000Y-131318000D01*
X169926000Y-131318000D02*
X161170000Y-131318000D01*
X161170000Y-131318000D02*
X159392000Y-129540000D01*
X159392000Y-129540000D02*
X159512000Y-129540000D01*
X171624000Y-120904000D02*
X171624000Y-124380000D01*
X171624000Y-124380000D02*
X174124000Y-126880000D01*
X174124000Y-126880000D02*
X174124000Y-129540000D01*
X171624000Y-112268000D02*
X171624000Y-115744000D01*
X171624000Y-115744000D02*
X174124000Y-118244000D01*
X174124000Y-118244000D02*
X174124000Y-120904000D01*
D15*
G36*
X180992246Y-109011068D02*
X180423649Y-110380402D01*
X180422355Y-111863094D01*
X180988561Y-113233418D01*
X182036068Y-114282754D01*
X183405402Y-114851351D01*
X184888094Y-114852645D01*
X186258418Y-114286439D01*
X187198000Y-113348494D01*
X187198000Y-128587945D01*
X186263932Y-127652246D01*
X184894598Y-127083649D01*
X183411906Y-127082355D01*
X182041582Y-127648561D01*
X180992246Y-128696068D01*
X180423649Y-130065402D01*
X180422355Y-131548094D01*
X180988561Y-132918418D01*
X181926506Y-133858000D01*
X144462055Y-133858000D01*
X145397754Y-132923932D01*
X145966351Y-131554598D01*
X145967645Y-130071906D01*
X145401439Y-128701582D01*
X145364921Y-128665000D01*
X150369560Y-128665000D01*
X150369560Y-130415000D01*
X150413838Y-130650317D01*
X150552910Y-130866441D01*
X150765110Y-131011431D01*
X151017000Y-131062440D01*
X152767000Y-131062440D01*
X153002317Y-131018162D01*
X153218441Y-130879090D01*
X153355994Y-130677774D01*
X153394914Y-130716694D01*
X153509546Y-130602062D01*
X153592884Y-130855953D01*
X154157306Y-131061590D01*
X154757458Y-131035579D01*
X155191116Y-130855953D01*
X155274455Y-130602060D01*
X154392000Y-129719605D01*
X154377858Y-129733748D01*
X154198253Y-129554143D01*
X154212395Y-129540000D01*
X154198253Y-129525858D01*
X154377858Y-129346253D01*
X154392000Y-129360395D01*
X155274455Y-128477940D01*
X155191116Y-128224047D01*
X154626694Y-128018410D01*
X154026542Y-128044421D01*
X153592884Y-128224047D01*
X153509546Y-128477938D01*
X153394914Y-128363306D01*
X153353864Y-128404356D01*
X153231090Y-128213559D01*
X153018890Y-128068569D01*
X152767000Y-128017560D01*
X151017000Y-128017560D01*
X150781683Y-128061838D01*
X150565559Y-128200910D01*
X150420569Y-128413110D01*
X150369560Y-128665000D01*
X145364921Y-128665000D01*
X144353932Y-127652246D01*
X142984598Y-127083649D01*
X141501906Y-127082355D01*
X140131582Y-127648561D01*
X139192000Y-128586506D01*
X139192000Y-117489000D01*
X143765560Y-117489000D01*
X143765560Y-119239000D01*
X143809838Y-119474317D01*
X143948910Y-119690441D01*
X144150226Y-119827994D01*
X144111306Y-119866914D01*
X144225938Y-119981546D01*
X143972047Y-120064884D01*
X143766410Y-120629306D01*
X143792421Y-121229458D01*
X143972047Y-121663116D01*
X144225940Y-121746455D01*
X145108395Y-120864000D01*
X145094253Y-120849858D01*
X145273858Y-120670253D01*
X145288000Y-120684395D01*
X145302143Y-120670253D01*
X145481748Y-120849858D01*
X145467605Y-120864000D01*
X145481748Y-120878143D01*
X145302143Y-121057748D01*
X145288000Y-121043605D01*
X144405545Y-121926060D01*
X144454318Y-122074648D01*
X144433771Y-122083138D01*
X144008630Y-122507537D01*
X143778262Y-123062325D01*
X143777738Y-123663040D01*
X144007138Y-124218229D01*
X144431537Y-124643370D01*
X144986325Y-124873738D01*
X145587040Y-124874262D01*
X146142229Y-124644862D01*
X146567370Y-124220463D01*
X146797738Y-123665675D01*
X146798262Y-123064960D01*
X146789387Y-123043481D01*
X148164434Y-121668434D01*
X148280697Y-121494434D01*
X148345439Y-121397541D01*
X148409000Y-121078000D01*
X148409000Y-120029000D01*
X150369560Y-120029000D01*
X150369560Y-121779000D01*
X150413838Y-122014317D01*
X150552910Y-122230441D01*
X150765110Y-122375431D01*
X151017000Y-122426440D01*
X152767000Y-122426440D01*
X153002317Y-122382162D01*
X153218441Y-122243090D01*
X153355994Y-122041774D01*
X153394914Y-122080694D01*
X153509546Y-121966062D01*
X153592884Y-122219953D01*
X154157306Y-122425590D01*
X154757458Y-122399579D01*
X155191116Y-122219953D01*
X155274455Y-121966060D01*
X154392000Y-121083605D01*
X154377858Y-121097748D01*
X154198253Y-120918143D01*
X154212395Y-120904000D01*
X154198253Y-120889858D01*
X154377858Y-120710253D01*
X154392000Y-120724395D01*
X155274455Y-119841940D01*
X155191116Y-119588047D01*
X154626694Y-119382410D01*
X154026542Y-119408421D01*
X153592884Y-119588047D01*
X153509546Y-119841938D01*
X153394914Y-119727306D01*
X153353864Y-119768356D01*
X153231090Y-119577559D01*
X153018890Y-119432569D01*
X152767000Y-119381560D01*
X151017000Y-119381560D01*
X150781683Y-119425838D01*
X150565559Y-119564910D01*
X150420569Y-119777110D01*
X150369560Y-120029000D01*
X148409000Y-120029000D01*
X148409000Y-116677868D01*
X150205868Y-114881000D01*
X155194000Y-114881000D01*
X155513541Y-114817439D01*
X155784434Y-114636434D01*
X156643084Y-113777784D01*
X157191040Y-113778262D01*
X157746229Y-113548862D01*
X158142318Y-113153464D01*
X158535537Y-113547370D01*
X158557000Y-113556282D01*
X158557000Y-115090132D01*
X156301566Y-117345566D01*
X156120561Y-117616459D01*
X156057000Y-117936000D01*
X156057000Y-119615193D01*
X156037771Y-119623138D01*
X155612630Y-120047537D01*
X155603108Y-120070469D01*
X155454060Y-120021545D01*
X154571605Y-120904000D01*
X155454060Y-121786455D01*
X155602648Y-121737682D01*
X155611138Y-121758229D01*
X156035537Y-122183370D01*
X156590325Y-122413738D01*
X157191040Y-122414262D01*
X157746229Y-122184862D01*
X158142318Y-121789464D01*
X158535537Y-122183370D01*
X158557000Y-122192282D01*
X158557000Y-123726132D01*
X156301566Y-125981566D01*
X156120561Y-126252459D01*
X156057000Y-126572000D01*
X156057000Y-128251193D01*
X156037771Y-128259138D01*
X155612630Y-128683537D01*
X155603108Y-128706469D01*
X155454060Y-128657545D01*
X154571605Y-129540000D01*
X155454060Y-130422455D01*
X155602648Y-130373682D01*
X155611138Y-130394229D01*
X156035537Y-130819370D01*
X156590325Y-131049738D01*
X157191040Y-131050262D01*
X157746229Y-130820862D01*
X158142318Y-130425464D01*
X158535537Y-130819370D01*
X159090325Y-131049738D01*
X159691040Y-131050262D01*
X159712519Y-131041387D01*
X160579566Y-131908434D01*
X160850460Y-132089440D01*
X161170000Y-132153000D01*
X169926000Y-132153000D01*
X170245541Y-132089439D01*
X170516434Y-131908434D01*
X171375084Y-131049784D01*
X171923040Y-131050262D01*
X172478229Y-130820862D01*
X172874318Y-130425464D01*
X173267537Y-130819370D01*
X173822325Y-131049738D01*
X174423040Y-131050262D01*
X174978229Y-130820862D01*
X175403370Y-130396463D01*
X175633738Y-129841675D01*
X175634262Y-129240960D01*
X175404862Y-128685771D01*
X174980463Y-128260630D01*
X174959000Y-128251718D01*
X174959000Y-126880000D01*
X174895439Y-126560459D01*
X174714434Y-126289566D01*
X172459000Y-124034132D01*
X172459000Y-122569000D01*
X179325560Y-122569000D01*
X179325560Y-124319000D01*
X179369838Y-124554317D01*
X179508910Y-124770441D01*
X179721110Y-124915431D01*
X179973000Y-124966440D01*
X181723000Y-124966440D01*
X181958317Y-124922162D01*
X182174441Y-124783090D01*
X182319431Y-124570890D01*
X182370440Y-124319000D01*
X182370440Y-122569000D01*
X182326162Y-122333683D01*
X182187090Y-122117559D01*
X181985774Y-121980006D01*
X182024694Y-121941086D01*
X181910062Y-121826454D01*
X182163953Y-121743116D01*
X182369590Y-121178694D01*
X182343579Y-120578542D01*
X182163953Y-120144884D01*
X181910060Y-120061545D01*
X181027605Y-120944000D01*
X181041748Y-120958143D01*
X180862143Y-121137748D01*
X180848000Y-121123605D01*
X180833858Y-121137748D01*
X180654253Y-120958143D01*
X180668395Y-120944000D01*
X179785940Y-120061545D01*
X179532047Y-120144884D01*
X179326410Y-120709306D01*
X179352421Y-121309458D01*
X179532047Y-121743116D01*
X179785938Y-121826454D01*
X179671306Y-121941086D01*
X179712356Y-121982136D01*
X179521559Y-122104910D01*
X179376569Y-122317110D01*
X179325560Y-122569000D01*
X172459000Y-122569000D01*
X172459000Y-122192807D01*
X172478229Y-122184862D01*
X172874318Y-121789464D01*
X173267537Y-122183370D01*
X173822325Y-122413738D01*
X174423040Y-122414262D01*
X174978229Y-122184862D01*
X175403370Y-121760463D01*
X175633738Y-121205675D01*
X175634262Y-120604960D01*
X175404862Y-120049771D01*
X174980463Y-119624630D01*
X174959000Y-119615718D01*
X174959000Y-118244000D01*
X174895439Y-117924459D01*
X174714434Y-117653566D01*
X172459000Y-115398132D01*
X172459000Y-113556807D01*
X172478229Y-113548862D01*
X172874318Y-113153464D01*
X173267537Y-113547370D01*
X173289000Y-113556282D01*
X173289000Y-115450000D01*
X173352561Y-115769541D01*
X173533566Y-116040434D01*
X176527566Y-119034434D01*
X176798459Y-119215439D01*
X177118000Y-119279000D01*
X179559193Y-119279000D01*
X179567138Y-119298229D01*
X179991537Y-119723370D01*
X180014469Y-119732892D01*
X179965545Y-119881940D01*
X180848000Y-120764395D01*
X181730455Y-119881940D01*
X181681682Y-119733352D01*
X181702229Y-119724862D01*
X182127370Y-119300463D01*
X182357738Y-118745675D01*
X182358262Y-118144960D01*
X182128862Y-117589771D01*
X181704463Y-117164630D01*
X181149675Y-116934262D01*
X180548960Y-116933738D01*
X179993771Y-117163138D01*
X179568630Y-117587537D01*
X179559718Y-117609000D01*
X177463868Y-117609000D01*
X174959000Y-115104132D01*
X174959000Y-113556807D01*
X174978229Y-113548862D01*
X175403370Y-113124463D01*
X175633738Y-112569675D01*
X175634262Y-111968960D01*
X175404862Y-111413771D01*
X174980463Y-110988630D01*
X174425675Y-110758262D01*
X173824960Y-110757738D01*
X173269771Y-110987138D01*
X172873682Y-111382536D01*
X172480463Y-110988630D01*
X171925675Y-110758262D01*
X171324960Y-110757738D01*
X170769771Y-110987138D01*
X170344630Y-111411537D01*
X170335108Y-111434469D01*
X170186060Y-111385545D01*
X169303605Y-112268000D01*
X170186060Y-113150455D01*
X170334648Y-113101682D01*
X170343138Y-113122229D01*
X170767537Y-113547370D01*
X170789000Y-113556282D01*
X170789000Y-115744000D01*
X170852561Y-116063541D01*
X170948711Y-116207439D01*
X171033566Y-116334434D01*
X173289000Y-118589868D01*
X173289000Y-119615193D01*
X173269771Y-119623138D01*
X172873682Y-120018536D01*
X172480463Y-119624630D01*
X171925675Y-119394262D01*
X171324960Y-119393738D01*
X170769771Y-119623138D01*
X170344630Y-120047537D01*
X170335108Y-120070469D01*
X170186060Y-120021545D01*
X169303605Y-120904000D01*
X170186060Y-121786455D01*
X170334648Y-121737682D01*
X170343138Y-121758229D01*
X170767537Y-122183370D01*
X170789000Y-122192282D01*
X170789000Y-124380000D01*
X170852561Y-124699541D01*
X170899935Y-124770441D01*
X171033566Y-124970434D01*
X173289000Y-127225868D01*
X173289000Y-128251193D01*
X173269771Y-128259138D01*
X172873682Y-128654536D01*
X172480463Y-128260630D01*
X171925675Y-128030262D01*
X171324960Y-128029738D01*
X170769771Y-128259138D01*
X170344630Y-128683537D01*
X170335108Y-128706469D01*
X170186060Y-128657545D01*
X169303605Y-129540000D01*
X169317748Y-129554143D01*
X169138143Y-129733748D01*
X169124000Y-129719605D01*
X169109858Y-129733748D01*
X168930253Y-129554143D01*
X168944395Y-129540000D01*
X168930253Y-129525858D01*
X169109858Y-129346253D01*
X169124000Y-129360395D01*
X170006455Y-128477940D01*
X169923116Y-128224047D01*
X169358694Y-128018410D01*
X168758542Y-128044421D01*
X168324884Y-128224047D01*
X168241546Y-128477938D01*
X168126914Y-128363306D01*
X168085864Y-128404356D01*
X167963090Y-128213559D01*
X167750890Y-128068569D01*
X167499000Y-128017560D01*
X165749000Y-128017560D01*
X165513683Y-128061838D01*
X165297559Y-128200910D01*
X165152569Y-128413110D01*
X165101560Y-128665000D01*
X165101560Y-130415000D01*
X165114355Y-130483000D01*
X161515868Y-130483000D01*
X160893759Y-129860891D01*
X160901738Y-129841675D01*
X160902262Y-129240960D01*
X160672862Y-128685771D01*
X160248463Y-128260630D01*
X159693675Y-128030262D01*
X159092960Y-128029738D01*
X158537771Y-128259138D01*
X158141682Y-128654536D01*
X157748463Y-128260630D01*
X157727000Y-128251718D01*
X157727000Y-126917868D01*
X159982434Y-124662434D01*
X160043602Y-124570890D01*
X160163439Y-124391541D01*
X160227000Y-124072000D01*
X160227000Y-122192807D01*
X160246229Y-122184862D01*
X160671370Y-121760463D01*
X160901738Y-121205675D01*
X160902262Y-120604960D01*
X160672862Y-120049771D01*
X160652128Y-120029000D01*
X165101560Y-120029000D01*
X165101560Y-121779000D01*
X165145838Y-122014317D01*
X165284910Y-122230441D01*
X165497110Y-122375431D01*
X165749000Y-122426440D01*
X167499000Y-122426440D01*
X167734317Y-122382162D01*
X167950441Y-122243090D01*
X168087994Y-122041774D01*
X168126914Y-122080694D01*
X168241546Y-121966062D01*
X168324884Y-122219953D01*
X168889306Y-122425590D01*
X169489458Y-122399579D01*
X169923116Y-122219953D01*
X170006455Y-121966060D01*
X169124000Y-121083605D01*
X169109858Y-121097748D01*
X168930253Y-120918143D01*
X168944395Y-120904000D01*
X168930253Y-120889858D01*
X169109858Y-120710253D01*
X169124000Y-120724395D01*
X170006455Y-119841940D01*
X169923116Y-119588047D01*
X169358694Y-119382410D01*
X168758542Y-119408421D01*
X168324884Y-119588047D01*
X168241546Y-119841938D01*
X168126914Y-119727306D01*
X168085864Y-119768356D01*
X167963090Y-119577559D01*
X167750890Y-119432569D01*
X167499000Y-119381560D01*
X165749000Y-119381560D01*
X165513683Y-119425838D01*
X165297559Y-119564910D01*
X165152569Y-119777110D01*
X165101560Y-120029000D01*
X160652128Y-120029000D01*
X160248463Y-119624630D01*
X159693675Y-119394262D01*
X159092960Y-119393738D01*
X158537771Y-119623138D01*
X158141682Y-120018536D01*
X157748463Y-119624630D01*
X157727000Y-119615718D01*
X157727000Y-118281868D01*
X159982434Y-116026434D01*
X160154085Y-115769540D01*
X160163439Y-115755541D01*
X160227000Y-115436000D01*
X160227000Y-113556807D01*
X160246229Y-113548862D01*
X160671370Y-113124463D01*
X160901738Y-112569675D01*
X160902262Y-111968960D01*
X160672862Y-111413771D01*
X160652128Y-111393000D01*
X165101560Y-111393000D01*
X165101560Y-113143000D01*
X165145838Y-113378317D01*
X165284910Y-113594441D01*
X165497110Y-113739431D01*
X165749000Y-113790440D01*
X167499000Y-113790440D01*
X167734317Y-113746162D01*
X167950441Y-113607090D01*
X168087994Y-113405774D01*
X168126914Y-113444694D01*
X168241546Y-113330062D01*
X168324884Y-113583953D01*
X168889306Y-113789590D01*
X169489458Y-113763579D01*
X169923116Y-113583953D01*
X170006455Y-113330060D01*
X169124000Y-112447605D01*
X169109858Y-112461748D01*
X168930253Y-112282143D01*
X168944395Y-112268000D01*
X168930253Y-112253858D01*
X169109858Y-112074253D01*
X169124000Y-112088395D01*
X170006455Y-111205940D01*
X169923116Y-110952047D01*
X169358694Y-110746410D01*
X168758542Y-110772421D01*
X168324884Y-110952047D01*
X168241546Y-111205938D01*
X168126914Y-111091306D01*
X168085864Y-111132356D01*
X167963090Y-110941559D01*
X167750890Y-110796569D01*
X167499000Y-110745560D01*
X165749000Y-110745560D01*
X165513683Y-110789838D01*
X165297559Y-110928910D01*
X165152569Y-111141110D01*
X165101560Y-111393000D01*
X160652128Y-111393000D01*
X160248463Y-110988630D01*
X159693675Y-110758262D01*
X159092960Y-110757738D01*
X158537771Y-110987138D01*
X158141682Y-111382536D01*
X157748463Y-110988630D01*
X157193675Y-110758262D01*
X156592960Y-110757738D01*
X156037771Y-110987138D01*
X155612630Y-111411537D01*
X155603108Y-111434469D01*
X155454060Y-111385545D01*
X154571605Y-112268000D01*
X154585748Y-112282143D01*
X154406143Y-112461748D01*
X154392000Y-112447605D01*
X154377858Y-112461748D01*
X154198253Y-112282143D01*
X154212395Y-112268000D01*
X154198253Y-112253858D01*
X154377858Y-112074253D01*
X154392000Y-112088395D01*
X155274455Y-111205940D01*
X155191116Y-110952047D01*
X154626694Y-110746410D01*
X154026542Y-110772421D01*
X153592884Y-110952047D01*
X153509546Y-111205938D01*
X153394914Y-111091306D01*
X153353864Y-111132356D01*
X153231090Y-110941559D01*
X153018890Y-110796569D01*
X152767000Y-110745560D01*
X151017000Y-110745560D01*
X150781683Y-110789838D01*
X150565559Y-110928910D01*
X150420569Y-111141110D01*
X150369560Y-111393000D01*
X150369560Y-113143000D01*
X150382355Y-113211000D01*
X149860000Y-113211000D01*
X149540459Y-113274561D01*
X149360374Y-113394890D01*
X149269566Y-113455566D01*
X146983566Y-115741566D01*
X146802561Y-116012459D01*
X146739000Y-116332000D01*
X146739000Y-117211472D01*
X146627090Y-117037559D01*
X146414890Y-116892569D01*
X146163000Y-116841560D01*
X144413000Y-116841560D01*
X144177683Y-116885838D01*
X143961559Y-117024910D01*
X143816569Y-117237110D01*
X143765560Y-117489000D01*
X139192000Y-117489000D01*
X139192000Y-113347055D01*
X140126068Y-114282754D01*
X141495402Y-114851351D01*
X142978094Y-114852645D01*
X144348418Y-114286439D01*
X145397754Y-113238932D01*
X145966351Y-111869598D01*
X145967645Y-110386906D01*
X145401439Y-109016582D01*
X144463494Y-108077000D01*
X181927945Y-108077000D01*
X180992246Y-109011068D01*
X180992246Y-109011068D01*
G37*
X180992246Y-109011068D02*
X180423649Y-110380402D01*
X180422355Y-111863094D01*
X180988561Y-113233418D01*
X182036068Y-114282754D01*
X183405402Y-114851351D01*
X184888094Y-114852645D01*
X186258418Y-114286439D01*
X187198000Y-113348494D01*
X187198000Y-128587945D01*
X186263932Y-127652246D01*
X184894598Y-127083649D01*
X183411906Y-127082355D01*
X182041582Y-127648561D01*
X180992246Y-128696068D01*
X180423649Y-130065402D01*
X180422355Y-131548094D01*
X180988561Y-132918418D01*
X181926506Y-133858000D01*
X144462055Y-133858000D01*
X145397754Y-132923932D01*
X145966351Y-131554598D01*
X145967645Y-130071906D01*
X145401439Y-128701582D01*
X145364921Y-128665000D01*
X150369560Y-128665000D01*
X150369560Y-130415000D01*
X150413838Y-130650317D01*
X150552910Y-130866441D01*
X150765110Y-131011431D01*
X151017000Y-131062440D01*
X152767000Y-131062440D01*
X153002317Y-131018162D01*
X153218441Y-130879090D01*
X153355994Y-130677774D01*
X153394914Y-130716694D01*
X153509546Y-130602062D01*
X153592884Y-130855953D01*
X154157306Y-131061590D01*
X154757458Y-131035579D01*
X155191116Y-130855953D01*
X155274455Y-130602060D01*
X154392000Y-129719605D01*
X154377858Y-129733748D01*
X154198253Y-129554143D01*
X154212395Y-129540000D01*
X154198253Y-129525858D01*
X154377858Y-129346253D01*
X154392000Y-129360395D01*
X155274455Y-128477940D01*
X155191116Y-128224047D01*
X154626694Y-128018410D01*
X154026542Y-128044421D01*
X153592884Y-128224047D01*
X153509546Y-128477938D01*
X153394914Y-128363306D01*
X153353864Y-128404356D01*
X153231090Y-128213559D01*
X153018890Y-128068569D01*
X152767000Y-128017560D01*
X151017000Y-128017560D01*
X150781683Y-128061838D01*
X150565559Y-128200910D01*
X150420569Y-128413110D01*
X150369560Y-128665000D01*
X145364921Y-128665000D01*
X144353932Y-127652246D01*
X142984598Y-127083649D01*
X141501906Y-127082355D01*
X140131582Y-127648561D01*
X139192000Y-128586506D01*
X139192000Y-117489000D01*
X143765560Y-117489000D01*
X143765560Y-119239000D01*
X143809838Y-119474317D01*
X143948910Y-119690441D01*
X144150226Y-119827994D01*
X144111306Y-119866914D01*
X144225938Y-119981546D01*
X143972047Y-120064884D01*
X143766410Y-120629306D01*
X143792421Y-121229458D01*
X143972047Y-121663116D01*
X144225940Y-121746455D01*
X145108395Y-120864000D01*
X145094253Y-120849858D01*
X145273858Y-120670253D01*
X145288000Y-120684395D01*
X145302143Y-120670253D01*
X145481748Y-120849858D01*
X145467605Y-120864000D01*
X145481748Y-120878143D01*
X145302143Y-121057748D01*
X145288000Y-121043605D01*
X144405545Y-121926060D01*
X144454318Y-122074648D01*
X144433771Y-122083138D01*
X144008630Y-122507537D01*
X143778262Y-123062325D01*
X143777738Y-123663040D01*
X144007138Y-124218229D01*
X144431537Y-124643370D01*
X144986325Y-124873738D01*
X145587040Y-124874262D01*
X146142229Y-124644862D01*
X146567370Y-124220463D01*
X146797738Y-123665675D01*
X146798262Y-123064960D01*
X146789387Y-123043481D01*
X148164434Y-121668434D01*
X148280697Y-121494434D01*
X148345439Y-121397541D01*
X148409000Y-121078000D01*
X148409000Y-120029000D01*
X150369560Y-120029000D01*
X150369560Y-121779000D01*
X150413838Y-122014317D01*
X150552910Y-122230441D01*
X150765110Y-122375431D01*
X151017000Y-122426440D01*
X152767000Y-122426440D01*
X153002317Y-122382162D01*
X153218441Y-122243090D01*
X153355994Y-122041774D01*
X153394914Y-122080694D01*
X153509546Y-121966062D01*
X153592884Y-122219953D01*
X154157306Y-122425590D01*
X154757458Y-122399579D01*
X155191116Y-122219953D01*
X155274455Y-121966060D01*
X154392000Y-121083605D01*
X154377858Y-121097748D01*
X154198253Y-120918143D01*
X154212395Y-120904000D01*
X154198253Y-120889858D01*
X154377858Y-120710253D01*
X154392000Y-120724395D01*
X155274455Y-119841940D01*
X155191116Y-119588047D01*
X154626694Y-119382410D01*
X154026542Y-119408421D01*
X153592884Y-119588047D01*
X153509546Y-119841938D01*
X153394914Y-119727306D01*
X153353864Y-119768356D01*
X153231090Y-119577559D01*
X153018890Y-119432569D01*
X152767000Y-119381560D01*
X151017000Y-119381560D01*
X150781683Y-119425838D01*
X150565559Y-119564910D01*
X150420569Y-119777110D01*
X150369560Y-120029000D01*
X148409000Y-120029000D01*
X148409000Y-116677868D01*
X150205868Y-114881000D01*
X155194000Y-114881000D01*
X155513541Y-114817439D01*
X155784434Y-114636434D01*
X156643084Y-113777784D01*
X157191040Y-113778262D01*
X157746229Y-113548862D01*
X158142318Y-113153464D01*
X158535537Y-113547370D01*
X158557000Y-113556282D01*
X158557000Y-115090132D01*
X156301566Y-117345566D01*
X156120561Y-117616459D01*
X156057000Y-117936000D01*
X156057000Y-119615193D01*
X156037771Y-119623138D01*
X155612630Y-120047537D01*
X155603108Y-120070469D01*
X155454060Y-120021545D01*
X154571605Y-120904000D01*
X155454060Y-121786455D01*
X155602648Y-121737682D01*
X155611138Y-121758229D01*
X156035537Y-122183370D01*
X156590325Y-122413738D01*
X157191040Y-122414262D01*
X157746229Y-122184862D01*
X158142318Y-121789464D01*
X158535537Y-122183370D01*
X158557000Y-122192282D01*
X158557000Y-123726132D01*
X156301566Y-125981566D01*
X156120561Y-126252459D01*
X156057000Y-126572000D01*
X156057000Y-128251193D01*
X156037771Y-128259138D01*
X155612630Y-128683537D01*
X155603108Y-128706469D01*
X155454060Y-128657545D01*
X154571605Y-129540000D01*
X155454060Y-130422455D01*
X155602648Y-130373682D01*
X155611138Y-130394229D01*
X156035537Y-130819370D01*
X156590325Y-131049738D01*
X157191040Y-131050262D01*
X157746229Y-130820862D01*
X158142318Y-130425464D01*
X158535537Y-130819370D01*
X159090325Y-131049738D01*
X159691040Y-131050262D01*
X159712519Y-131041387D01*
X160579566Y-131908434D01*
X160850460Y-132089440D01*
X161170000Y-132153000D01*
X169926000Y-132153000D01*
X170245541Y-132089439D01*
X170516434Y-131908434D01*
X171375084Y-131049784D01*
X171923040Y-131050262D01*
X172478229Y-130820862D01*
X172874318Y-130425464D01*
X173267537Y-130819370D01*
X173822325Y-131049738D01*
X174423040Y-131050262D01*
X174978229Y-130820862D01*
X175403370Y-130396463D01*
X175633738Y-129841675D01*
X175634262Y-129240960D01*
X175404862Y-128685771D01*
X174980463Y-128260630D01*
X174959000Y-128251718D01*
X174959000Y-126880000D01*
X174895439Y-126560459D01*
X174714434Y-126289566D01*
X172459000Y-124034132D01*
X172459000Y-122569000D01*
X179325560Y-122569000D01*
X179325560Y-124319000D01*
X179369838Y-124554317D01*
X179508910Y-124770441D01*
X179721110Y-124915431D01*
X179973000Y-124966440D01*
X181723000Y-124966440D01*
X181958317Y-124922162D01*
X182174441Y-124783090D01*
X182319431Y-124570890D01*
X182370440Y-124319000D01*
X182370440Y-122569000D01*
X182326162Y-122333683D01*
X182187090Y-122117559D01*
X181985774Y-121980006D01*
X182024694Y-121941086D01*
X181910062Y-121826454D01*
X182163953Y-121743116D01*
X182369590Y-121178694D01*
X182343579Y-120578542D01*
X182163953Y-120144884D01*
X181910060Y-120061545D01*
X181027605Y-120944000D01*
X181041748Y-120958143D01*
X180862143Y-121137748D01*
X180848000Y-121123605D01*
X180833858Y-121137748D01*
X180654253Y-120958143D01*
X180668395Y-120944000D01*
X179785940Y-120061545D01*
X179532047Y-120144884D01*
X179326410Y-120709306D01*
X179352421Y-121309458D01*
X179532047Y-121743116D01*
X179785938Y-121826454D01*
X179671306Y-121941086D01*
X179712356Y-121982136D01*
X179521559Y-122104910D01*
X179376569Y-122317110D01*
X179325560Y-122569000D01*
X172459000Y-122569000D01*
X172459000Y-122192807D01*
X172478229Y-122184862D01*
X172874318Y-121789464D01*
X173267537Y-122183370D01*
X173822325Y-122413738D01*
X174423040Y-122414262D01*
X174978229Y-122184862D01*
X175403370Y-121760463D01*
X175633738Y-121205675D01*
X175634262Y-120604960D01*
X175404862Y-120049771D01*
X174980463Y-119624630D01*
X174959000Y-119615718D01*
X174959000Y-118244000D01*
X174895439Y-117924459D01*
X174714434Y-117653566D01*
X172459000Y-115398132D01*
X172459000Y-113556807D01*
X172478229Y-113548862D01*
X172874318Y-113153464D01*
X173267537Y-113547370D01*
X173289000Y-113556282D01*
X173289000Y-115450000D01*
X173352561Y-115769541D01*
X173533566Y-116040434D01*
X176527566Y-119034434D01*
X176798459Y-119215439D01*
X177118000Y-119279000D01*
X179559193Y-119279000D01*
X179567138Y-119298229D01*
X179991537Y-119723370D01*
X180014469Y-119732892D01*
X179965545Y-119881940D01*
X180848000Y-120764395D01*
X181730455Y-119881940D01*
X181681682Y-119733352D01*
X181702229Y-119724862D01*
X182127370Y-119300463D01*
X182357738Y-118745675D01*
X182358262Y-118144960D01*
X182128862Y-117589771D01*
X181704463Y-117164630D01*
X181149675Y-116934262D01*
X180548960Y-116933738D01*
X179993771Y-117163138D01*
X179568630Y-117587537D01*
X179559718Y-117609000D01*
X177463868Y-117609000D01*
X174959000Y-115104132D01*
X174959000Y-113556807D01*
X174978229Y-113548862D01*
X175403370Y-113124463D01*
X175633738Y-112569675D01*
X175634262Y-111968960D01*
X175404862Y-111413771D01*
X174980463Y-110988630D01*
X174425675Y-110758262D01*
X173824960Y-110757738D01*
X173269771Y-110987138D01*
X172873682Y-111382536D01*
X172480463Y-110988630D01*
X171925675Y-110758262D01*
X171324960Y-110757738D01*
X170769771Y-110987138D01*
X170344630Y-111411537D01*
X170335108Y-111434469D01*
X170186060Y-111385545D01*
X169303605Y-112268000D01*
X170186060Y-113150455D01*
X170334648Y-113101682D01*
X170343138Y-113122229D01*
X170767537Y-113547370D01*
X170789000Y-113556282D01*
X170789000Y-115744000D01*
X170852561Y-116063541D01*
X170948711Y-116207439D01*
X171033566Y-116334434D01*
X173289000Y-118589868D01*
X173289000Y-119615193D01*
X173269771Y-119623138D01*
X172873682Y-120018536D01*
X172480463Y-119624630D01*
X171925675Y-119394262D01*
X171324960Y-119393738D01*
X170769771Y-119623138D01*
X170344630Y-120047537D01*
X170335108Y-120070469D01*
X170186060Y-120021545D01*
X169303605Y-120904000D01*
X170186060Y-121786455D01*
X170334648Y-121737682D01*
X170343138Y-121758229D01*
X170767537Y-122183370D01*
X170789000Y-122192282D01*
X170789000Y-124380000D01*
X170852561Y-124699541D01*
X170899935Y-124770441D01*
X171033566Y-124970434D01*
X173289000Y-127225868D01*
X173289000Y-128251193D01*
X173269771Y-128259138D01*
X172873682Y-128654536D01*
X172480463Y-128260630D01*
X171925675Y-128030262D01*
X171324960Y-128029738D01*
X170769771Y-128259138D01*
X170344630Y-128683537D01*
X170335108Y-128706469D01*
X170186060Y-128657545D01*
X169303605Y-129540000D01*
X169317748Y-129554143D01*
X169138143Y-129733748D01*
X169124000Y-129719605D01*
X169109858Y-129733748D01*
X168930253Y-129554143D01*
X168944395Y-129540000D01*
X168930253Y-129525858D01*
X169109858Y-129346253D01*
X169124000Y-129360395D01*
X170006455Y-128477940D01*
X169923116Y-128224047D01*
X169358694Y-128018410D01*
X168758542Y-128044421D01*
X168324884Y-128224047D01*
X168241546Y-128477938D01*
X168126914Y-128363306D01*
X168085864Y-128404356D01*
X167963090Y-128213559D01*
X167750890Y-128068569D01*
X167499000Y-128017560D01*
X165749000Y-128017560D01*
X165513683Y-128061838D01*
X165297559Y-128200910D01*
X165152569Y-128413110D01*
X165101560Y-128665000D01*
X165101560Y-130415000D01*
X165114355Y-130483000D01*
X161515868Y-130483000D01*
X160893759Y-129860891D01*
X160901738Y-129841675D01*
X160902262Y-129240960D01*
X160672862Y-128685771D01*
X160248463Y-128260630D01*
X159693675Y-128030262D01*
X159092960Y-128029738D01*
X158537771Y-128259138D01*
X158141682Y-128654536D01*
X157748463Y-128260630D01*
X157727000Y-128251718D01*
X157727000Y-126917868D01*
X159982434Y-124662434D01*
X160043602Y-124570890D01*
X160163439Y-124391541D01*
X160227000Y-124072000D01*
X160227000Y-122192807D01*
X160246229Y-122184862D01*
X160671370Y-121760463D01*
X160901738Y-121205675D01*
X160902262Y-120604960D01*
X160672862Y-120049771D01*
X160652128Y-120029000D01*
X165101560Y-120029000D01*
X165101560Y-121779000D01*
X165145838Y-122014317D01*
X165284910Y-122230441D01*
X165497110Y-122375431D01*
X165749000Y-122426440D01*
X167499000Y-122426440D01*
X167734317Y-122382162D01*
X167950441Y-122243090D01*
X168087994Y-122041774D01*
X168126914Y-122080694D01*
X168241546Y-121966062D01*
X168324884Y-122219953D01*
X168889306Y-122425590D01*
X169489458Y-122399579D01*
X169923116Y-122219953D01*
X170006455Y-121966060D01*
X169124000Y-121083605D01*
X169109858Y-121097748D01*
X168930253Y-120918143D01*
X168944395Y-120904000D01*
X168930253Y-120889858D01*
X169109858Y-120710253D01*
X169124000Y-120724395D01*
X170006455Y-119841940D01*
X169923116Y-119588047D01*
X169358694Y-119382410D01*
X168758542Y-119408421D01*
X168324884Y-119588047D01*
X168241546Y-119841938D01*
X168126914Y-119727306D01*
X168085864Y-119768356D01*
X167963090Y-119577559D01*
X167750890Y-119432569D01*
X167499000Y-119381560D01*
X165749000Y-119381560D01*
X165513683Y-119425838D01*
X165297559Y-119564910D01*
X165152569Y-119777110D01*
X165101560Y-120029000D01*
X160652128Y-120029000D01*
X160248463Y-119624630D01*
X159693675Y-119394262D01*
X159092960Y-119393738D01*
X158537771Y-119623138D01*
X158141682Y-120018536D01*
X157748463Y-119624630D01*
X157727000Y-119615718D01*
X157727000Y-118281868D01*
X159982434Y-116026434D01*
X160154085Y-115769540D01*
X160163439Y-115755541D01*
X160227000Y-115436000D01*
X160227000Y-113556807D01*
X160246229Y-113548862D01*
X160671370Y-113124463D01*
X160901738Y-112569675D01*
X160902262Y-111968960D01*
X160672862Y-111413771D01*
X160652128Y-111393000D01*
X165101560Y-111393000D01*
X165101560Y-113143000D01*
X165145838Y-113378317D01*
X165284910Y-113594441D01*
X165497110Y-113739431D01*
X165749000Y-113790440D01*
X167499000Y-113790440D01*
X167734317Y-113746162D01*
X167950441Y-113607090D01*
X168087994Y-113405774D01*
X168126914Y-113444694D01*
X168241546Y-113330062D01*
X168324884Y-113583953D01*
X168889306Y-113789590D01*
X169489458Y-113763579D01*
X169923116Y-113583953D01*
X170006455Y-113330060D01*
X169124000Y-112447605D01*
X169109858Y-112461748D01*
X168930253Y-112282143D01*
X168944395Y-112268000D01*
X168930253Y-112253858D01*
X169109858Y-112074253D01*
X169124000Y-112088395D01*
X170006455Y-111205940D01*
X169923116Y-110952047D01*
X169358694Y-110746410D01*
X168758542Y-110772421D01*
X168324884Y-110952047D01*
X168241546Y-111205938D01*
X168126914Y-111091306D01*
X168085864Y-111132356D01*
X167963090Y-110941559D01*
X167750890Y-110796569D01*
X167499000Y-110745560D01*
X165749000Y-110745560D01*
X165513683Y-110789838D01*
X165297559Y-110928910D01*
X165152569Y-111141110D01*
X165101560Y-111393000D01*
X160652128Y-111393000D01*
X160248463Y-110988630D01*
X159693675Y-110758262D01*
X159092960Y-110757738D01*
X158537771Y-110987138D01*
X158141682Y-111382536D01*
X157748463Y-110988630D01*
X157193675Y-110758262D01*
X156592960Y-110757738D01*
X156037771Y-110987138D01*
X155612630Y-111411537D01*
X155603108Y-111434469D01*
X155454060Y-111385545D01*
X154571605Y-112268000D01*
X154585748Y-112282143D01*
X154406143Y-112461748D01*
X154392000Y-112447605D01*
X154377858Y-112461748D01*
X154198253Y-112282143D01*
X154212395Y-112268000D01*
X154198253Y-112253858D01*
X154377858Y-112074253D01*
X154392000Y-112088395D01*
X155274455Y-111205940D01*
X155191116Y-110952047D01*
X154626694Y-110746410D01*
X154026542Y-110772421D01*
X153592884Y-110952047D01*
X153509546Y-111205938D01*
X153394914Y-111091306D01*
X153353864Y-111132356D01*
X153231090Y-110941559D01*
X153018890Y-110796569D01*
X152767000Y-110745560D01*
X151017000Y-110745560D01*
X150781683Y-110789838D01*
X150565559Y-110928910D01*
X150420569Y-111141110D01*
X150369560Y-111393000D01*
X150369560Y-113143000D01*
X150382355Y-113211000D01*
X149860000Y-113211000D01*
X149540459Y-113274561D01*
X149360374Y-113394890D01*
X149269566Y-113455566D01*
X146983566Y-115741566D01*
X146802561Y-116012459D01*
X146739000Y-116332000D01*
X146739000Y-117211472D01*
X146627090Y-117037559D01*
X146414890Y-116892569D01*
X146163000Y-116841560D01*
X144413000Y-116841560D01*
X144177683Y-116885838D01*
X143961559Y-117024910D01*
X143816569Y-117237110D01*
X143765560Y-117489000D01*
X139192000Y-117489000D01*
X139192000Y-113347055D01*
X140126068Y-114282754D01*
X141495402Y-114851351D01*
X142978094Y-114852645D01*
X144348418Y-114286439D01*
X145397754Y-113238932D01*
X145966351Y-111869598D01*
X145967645Y-110386906D01*
X145401439Y-109016582D01*
X144463494Y-108077000D01*
X181927945Y-108077000D01*
X180992246Y-109011068D01*
M02*
