G04 #@! TF.FileFunction,Legend,Bot*
%FSLAX46Y46*%
G04 Gerber Fmt 4.6, Leading zero omitted, Abs format (unit mm)*
G04 Created by KiCad (PCBNEW 4.0.2+e4-6225~38~ubuntu15.04.1-stable) date zo 31 jul 2016 22:39:55 CEST*
%MOMM*%
G01*
G04 APERTURE LIST*
%ADD10C,0.100000*%
%ADD11C,0.150000*%
%ADD12C,0.300000*%
G04 APERTURE END LIST*
D10*
D11*
X153979334Y-126944381D02*
X153979334Y-126277714D01*
X153979334Y-126468190D02*
X153931715Y-126372952D01*
X153884096Y-126325333D01*
X153788858Y-126277714D01*
X153693619Y-126277714D01*
X152979333Y-126896762D02*
X153074571Y-126944381D01*
X153265048Y-126944381D01*
X153360286Y-126896762D01*
X153407905Y-126801524D01*
X153407905Y-126420571D01*
X153360286Y-126325333D01*
X153265048Y-126277714D01*
X153074571Y-126277714D01*
X152979333Y-126325333D01*
X152931714Y-126420571D01*
X152931714Y-126515810D01*
X153407905Y-126611048D01*
X152598381Y-126277714D02*
X152360286Y-126944381D01*
X152122190Y-126277714D01*
X151550762Y-125944381D02*
X151455523Y-125944381D01*
X151360285Y-125992000D01*
X151312666Y-126039619D01*
X151265047Y-126134857D01*
X151217428Y-126325333D01*
X151217428Y-126563429D01*
X151265047Y-126753905D01*
X151312666Y-126849143D01*
X151360285Y-126896762D01*
X151455523Y-126944381D01*
X151550762Y-126944381D01*
X151646000Y-126896762D01*
X151693619Y-126849143D01*
X151741238Y-126753905D01*
X151788857Y-126563429D01*
X151788857Y-126325333D01*
X151741238Y-126134857D01*
X151693619Y-126039619D01*
X151646000Y-125992000D01*
X151550762Y-125944381D01*
X150265047Y-126944381D02*
X150836476Y-126944381D01*
X150550762Y-126944381D02*
X150550762Y-125944381D01*
X150646000Y-126087238D01*
X150741238Y-126182476D01*
X150836476Y-126230095D01*
D12*
X176611714Y-123630571D02*
X176611714Y-125130571D01*
X176611714Y-123702000D02*
X176468857Y-123630571D01*
X176183143Y-123630571D01*
X176040286Y-123702000D01*
X175968857Y-123773429D01*
X175897428Y-123916286D01*
X175897428Y-124344857D01*
X175968857Y-124487714D01*
X176040286Y-124559143D01*
X176183143Y-124630571D01*
X176468857Y-124630571D01*
X176611714Y-124559143D01*
X174683143Y-124559143D02*
X174826000Y-124630571D01*
X175111714Y-124630571D01*
X175254571Y-124559143D01*
X175326000Y-124416286D01*
X175326000Y-123844857D01*
X175254571Y-123702000D01*
X175111714Y-123630571D01*
X174826000Y-123630571D01*
X174683143Y-123702000D01*
X174611714Y-123844857D01*
X174611714Y-123987714D01*
X175326000Y-124130571D01*
X173968857Y-123630571D02*
X173968857Y-124630571D01*
X173968857Y-123773429D02*
X173897429Y-123702000D01*
X173754571Y-123630571D01*
X173540286Y-123630571D01*
X173397429Y-123702000D01*
X173326000Y-123844857D01*
X173326000Y-124630571D01*
X171968857Y-123630571D02*
X171968857Y-124844857D01*
X172040286Y-124987714D01*
X172111714Y-125059143D01*
X172254571Y-125130571D01*
X172468857Y-125130571D01*
X172611714Y-125059143D01*
X171968857Y-124559143D02*
X172111714Y-124630571D01*
X172397428Y-124630571D01*
X172540286Y-124559143D01*
X172611714Y-124487714D01*
X172683143Y-124344857D01*
X172683143Y-123916286D01*
X172611714Y-123773429D01*
X172540286Y-123702000D01*
X172397428Y-123630571D01*
X172111714Y-123630571D01*
X171968857Y-123702000D01*
X171254571Y-124630571D02*
X171254571Y-123130571D01*
X170611714Y-124630571D02*
X170611714Y-123844857D01*
X170683143Y-123702000D01*
X170826000Y-123630571D01*
X171040285Y-123630571D01*
X171183143Y-123702000D01*
X171254571Y-123773429D01*
X169254571Y-123630571D02*
X169254571Y-124630571D01*
X169897428Y-123630571D02*
X169897428Y-124416286D01*
X169826000Y-124559143D01*
X169683142Y-124630571D01*
X169468857Y-124630571D01*
X169326000Y-124559143D01*
X169254571Y-124487714D01*
X168540285Y-124630571D02*
X168540285Y-123130571D01*
X168540285Y-123702000D02*
X168397428Y-123630571D01*
X168111714Y-123630571D01*
X167968857Y-123702000D01*
X167897428Y-123773429D01*
X167825999Y-123916286D01*
X167825999Y-124344857D01*
X167897428Y-124487714D01*
X167968857Y-124559143D01*
X168111714Y-124630571D01*
X168397428Y-124630571D01*
X168540285Y-124559143D01*
X166540285Y-123630571D02*
X166540285Y-124630571D01*
X167183142Y-123630571D02*
X167183142Y-124416286D01*
X167111714Y-124559143D01*
X166968856Y-124630571D01*
X166754571Y-124630571D01*
X166611714Y-124559143D01*
X166540285Y-124487714D01*
X165825999Y-123630571D02*
X165825999Y-124630571D01*
X165825999Y-123773429D02*
X165754571Y-123702000D01*
X165611713Y-123630571D01*
X165397428Y-123630571D01*
X165254571Y-123702000D01*
X165183142Y-123844857D01*
X165183142Y-124630571D01*
X163825999Y-123630571D02*
X163825999Y-124844857D01*
X163897428Y-124987714D01*
X163968856Y-125059143D01*
X164111713Y-125130571D01*
X164325999Y-125130571D01*
X164468856Y-125059143D01*
X163825999Y-124559143D02*
X163968856Y-124630571D01*
X164254570Y-124630571D01*
X164397428Y-124559143D01*
X164468856Y-124487714D01*
X164540285Y-124344857D01*
X164540285Y-123916286D01*
X164468856Y-123773429D01*
X164397428Y-123702000D01*
X164254570Y-123630571D01*
X163968856Y-123630571D01*
X163825999Y-123702000D01*
X161754570Y-124630571D02*
X161897428Y-124559143D01*
X161968856Y-124416286D01*
X161968856Y-123130571D01*
X160540285Y-124630571D02*
X160540285Y-123844857D01*
X160611714Y-123702000D01*
X160754571Y-123630571D01*
X161040285Y-123630571D01*
X161183142Y-123702000D01*
X160540285Y-124559143D02*
X160683142Y-124630571D01*
X161040285Y-124630571D01*
X161183142Y-124559143D01*
X161254571Y-124416286D01*
X161254571Y-124273429D01*
X161183142Y-124130571D01*
X161040285Y-124059143D01*
X160683142Y-124059143D01*
X160540285Y-123987714D01*
X159825999Y-124630571D02*
X159825999Y-123630571D01*
X159825999Y-123773429D02*
X159754571Y-123702000D01*
X159611713Y-123630571D01*
X159397428Y-123630571D01*
X159254571Y-123702000D01*
X159183142Y-123844857D01*
X159183142Y-124630571D01*
X159183142Y-123844857D02*
X159111713Y-123702000D01*
X158968856Y-123630571D01*
X158754571Y-123630571D01*
X158611713Y-123702000D01*
X158540285Y-123844857D01*
X158540285Y-124630571D01*
X157825999Y-123630571D02*
X157825999Y-125130571D01*
X157825999Y-123702000D02*
X157683142Y-123630571D01*
X157397428Y-123630571D01*
X157254571Y-123702000D01*
X157183142Y-123773429D01*
X157111713Y-123916286D01*
X157111713Y-124344857D01*
X157183142Y-124487714D01*
X157254571Y-124559143D01*
X157397428Y-124630571D01*
X157683142Y-124630571D01*
X157825999Y-124559143D01*
X155825999Y-123630571D02*
X155825999Y-124630571D01*
X156468856Y-123630571D02*
X156468856Y-124416286D01*
X156397428Y-124559143D01*
X156254570Y-124630571D01*
X156040285Y-124630571D01*
X155897428Y-124559143D01*
X155825999Y-124487714D01*
X153754570Y-124630571D02*
X153897428Y-124559143D01*
X153968856Y-124416286D01*
X153968856Y-123130571D01*
X152540285Y-124630571D02*
X152540285Y-123844857D01*
X152611714Y-123702000D01*
X152754571Y-123630571D01*
X153040285Y-123630571D01*
X153183142Y-123702000D01*
X152540285Y-124559143D02*
X152683142Y-124630571D01*
X153040285Y-124630571D01*
X153183142Y-124559143D01*
X153254571Y-124416286D01*
X153254571Y-124273429D01*
X153183142Y-124130571D01*
X153040285Y-124059143D01*
X152683142Y-124059143D01*
X152540285Y-123987714D01*
X151183142Y-124559143D02*
X151325999Y-124630571D01*
X151611713Y-124630571D01*
X151754571Y-124559143D01*
X151825999Y-124487714D01*
X151897428Y-124344857D01*
X151897428Y-123916286D01*
X151825999Y-123773429D01*
X151754571Y-123702000D01*
X151611713Y-123630571D01*
X151325999Y-123630571D01*
X151183142Y-123702000D01*
X150540285Y-124630571D02*
X150540285Y-123630571D01*
X150540285Y-123130571D02*
X150611714Y-123202000D01*
X150540285Y-123273429D01*
X150468857Y-123202000D01*
X150540285Y-123130571D01*
X150540285Y-123273429D01*
D11*
X181164953Y-132373714D02*
X180784001Y-132373714D01*
X181022096Y-133040381D02*
X181022096Y-132183238D01*
X180974477Y-132088000D01*
X180879239Y-132040381D01*
X180784001Y-132040381D01*
X180022095Y-133040381D02*
X180022095Y-132516571D01*
X180069714Y-132421333D01*
X180164952Y-132373714D01*
X180355429Y-132373714D01*
X180450667Y-132421333D01*
X180022095Y-132992762D02*
X180117333Y-133040381D01*
X180355429Y-133040381D01*
X180450667Y-132992762D01*
X180498286Y-132897524D01*
X180498286Y-132802286D01*
X180450667Y-132707048D01*
X180355429Y-132659429D01*
X180117333Y-132659429D01*
X180022095Y-132611810D01*
X179545905Y-132373714D02*
X179545905Y-133230857D01*
X179593524Y-133326095D01*
X179688762Y-133373714D01*
X179736381Y-133373714D01*
X179545905Y-132040381D02*
X179593524Y-132088000D01*
X179545905Y-132135619D01*
X179498286Y-132088000D01*
X179545905Y-132040381D01*
X179545905Y-132135619D01*
X179069715Y-133040381D02*
X179069715Y-132373714D01*
X179069715Y-132564190D02*
X179022096Y-132468952D01*
X178974477Y-132421333D01*
X178879239Y-132373714D01*
X178784000Y-132373714D01*
X178022095Y-133040381D02*
X178022095Y-132516571D01*
X178069714Y-132421333D01*
X178164952Y-132373714D01*
X178355429Y-132373714D01*
X178450667Y-132421333D01*
X178022095Y-132992762D02*
X178117333Y-133040381D01*
X178355429Y-133040381D01*
X178450667Y-132992762D01*
X178498286Y-132897524D01*
X178498286Y-132802286D01*
X178450667Y-132707048D01*
X178355429Y-132659429D01*
X178117333Y-132659429D01*
X178022095Y-132611810D01*
X177545905Y-132373714D02*
X177545905Y-133040381D01*
X177545905Y-132468952D02*
X177498286Y-132421333D01*
X177403048Y-132373714D01*
X177260190Y-132373714D01*
X177164952Y-132421333D01*
X177117333Y-132516571D01*
X177117333Y-133040381D01*
X175926857Y-132135619D02*
X175879238Y-132088000D01*
X175784000Y-132040381D01*
X175545904Y-132040381D01*
X175450666Y-132088000D01*
X175403047Y-132135619D01*
X175355428Y-132230857D01*
X175355428Y-132326095D01*
X175403047Y-132468952D01*
X175974476Y-133040381D01*
X175355428Y-133040381D01*
X174736381Y-132040381D02*
X174641142Y-132040381D01*
X174545904Y-132088000D01*
X174498285Y-132135619D01*
X174450666Y-132230857D01*
X174403047Y-132421333D01*
X174403047Y-132659429D01*
X174450666Y-132849905D01*
X174498285Y-132945143D01*
X174545904Y-132992762D01*
X174641142Y-133040381D01*
X174736381Y-133040381D01*
X174831619Y-132992762D01*
X174879238Y-132945143D01*
X174926857Y-132849905D01*
X174974476Y-132659429D01*
X174974476Y-132421333D01*
X174926857Y-132230857D01*
X174879238Y-132135619D01*
X174831619Y-132088000D01*
X174736381Y-132040381D01*
X173450666Y-133040381D02*
X174022095Y-133040381D01*
X173736381Y-133040381D02*
X173736381Y-132040381D01*
X173831619Y-132183238D01*
X173926857Y-132278476D01*
X174022095Y-132326095D01*
X172593523Y-132040381D02*
X172784000Y-132040381D01*
X172879238Y-132088000D01*
X172926857Y-132135619D01*
X173022095Y-132278476D01*
X173069714Y-132468952D01*
X173069714Y-132849905D01*
X173022095Y-132945143D01*
X172974476Y-132992762D01*
X172879238Y-133040381D01*
X172688761Y-133040381D01*
X172593523Y-132992762D01*
X172545904Y-132945143D01*
X172498285Y-132849905D01*
X172498285Y-132611810D01*
X172545904Y-132516571D01*
X172593523Y-132468952D01*
X172688761Y-132421333D01*
X172879238Y-132421333D01*
X172974476Y-132468952D01*
X173022095Y-132516571D01*
X173069714Y-132611810D01*
X161145220Y-117497860D02*
X160784540Y-118968520D01*
X160784540Y-118968520D02*
X160505140Y-117906800D01*
X160505140Y-117906800D02*
X160195260Y-118978680D01*
X160195260Y-118978680D02*
X159854900Y-117528340D01*
X162565080Y-118188740D02*
X161775140Y-118178580D01*
X161775140Y-118178580D02*
X161764980Y-118188740D01*
X161764980Y-118188740D02*
X161764980Y-118178580D01*
X161724340Y-117467380D02*
X161724340Y-119009160D01*
X162613340Y-117457220D02*
X162613340Y-119026940D01*
X162613340Y-119026940D02*
X162603180Y-119016780D01*
X163164520Y-117558820D02*
X163515040Y-117477540D01*
X163515040Y-117477540D02*
X163835080Y-117467380D01*
X163835080Y-117467380D02*
X164073840Y-117668040D01*
X164073840Y-117668040D02*
X164104320Y-117937280D01*
X164104320Y-117937280D02*
X163863020Y-118178580D01*
X163863020Y-118178580D02*
X163474400Y-118308120D01*
X163474400Y-118308120D02*
X163294060Y-118468140D01*
X163294060Y-118468140D02*
X163253420Y-118767860D01*
X163253420Y-118767860D02*
X163484560Y-118988840D01*
X163484560Y-118988840D02*
X163804600Y-119016780D01*
X163804600Y-119016780D02*
X164155120Y-118907560D01*
X165193980Y-117457220D02*
X165442900Y-117477540D01*
X165442900Y-117477540D02*
X165684200Y-117718840D01*
X165684200Y-117718840D02*
X165773100Y-118209060D01*
X165773100Y-118209060D02*
X165745160Y-118557040D01*
X165745160Y-118557040D02*
X165544500Y-118877080D01*
X165544500Y-118877080D02*
X165293040Y-118999000D01*
X165293040Y-118999000D02*
X164983160Y-118927880D01*
X164983160Y-118927880D02*
X164764720Y-118747540D01*
X164764720Y-118747540D02*
X164693600Y-118287800D01*
X164693600Y-118287800D02*
X164744400Y-117878860D01*
X164744400Y-117878860D02*
X164853620Y-117596920D01*
X164853620Y-117596920D02*
X165214300Y-117467380D01*
X164594540Y-115737640D02*
X164853620Y-116298980D01*
X164853620Y-116298980D02*
X164315140Y-116817140D01*
X164315140Y-116817140D02*
X163794440Y-116547900D01*
X163794440Y-116547900D02*
X163515040Y-116707920D01*
X162074860Y-116687600D02*
X161744660Y-116497100D01*
X161744660Y-116497100D02*
X161305240Y-116827300D01*
X161305240Y-116827300D02*
X160832800Y-116337080D01*
X160832800Y-116337080D02*
X161114740Y-115857020D01*
X161114740Y-115857020D02*
X160924240Y-115387120D01*
X160924240Y-115387120D02*
X160314640Y-115199160D01*
X160314640Y-115199160D02*
X160314640Y-114518440D01*
X160314640Y-114518440D02*
X160873440Y-114378740D01*
X160873440Y-114378740D02*
X161074100Y-113807240D01*
X161074100Y-113807240D02*
X160804860Y-113337340D01*
X160804860Y-113337340D02*
X161274760Y-112826800D01*
X161274760Y-112826800D02*
X161792920Y-113088420D01*
X161792920Y-113088420D02*
X162262820Y-112887760D01*
X162262820Y-112887760D02*
X162433000Y-112346740D01*
X162433000Y-112346740D02*
X163123880Y-112328960D01*
X163123880Y-112328960D02*
X163334700Y-112877600D01*
X163334700Y-112877600D02*
X163753800Y-113047780D01*
X163753800Y-113047780D02*
X164304980Y-112778540D01*
X164304980Y-112778540D02*
X164823140Y-113306860D01*
X164823140Y-113306860D02*
X164574220Y-113847880D01*
X164574220Y-113847880D02*
X164744400Y-114327940D01*
X164744400Y-114327940D02*
X165293040Y-114427000D01*
X165293040Y-114427000D02*
X165303200Y-115128040D01*
X165303200Y-115128040D02*
X164744400Y-115328700D01*
X164744400Y-115328700D02*
X164604700Y-115727480D01*
X162463480Y-115707160D02*
X162163760Y-115557300D01*
X162163760Y-115557300D02*
X161963100Y-115359180D01*
X161963100Y-115359180D02*
X161813240Y-114957860D01*
X161813240Y-114957860D02*
X161813240Y-114559080D01*
X161813240Y-114559080D02*
X161963100Y-114208560D01*
X161963100Y-114208560D02*
X162415220Y-113858040D01*
X162415220Y-113858040D02*
X162864800Y-113807240D01*
X162864800Y-113807240D02*
X163263580Y-113908840D01*
X163263580Y-113908840D02*
X163664900Y-114256820D01*
X163664900Y-114256820D02*
X163814760Y-114708940D01*
X163814760Y-114708940D02*
X163763960Y-115206780D01*
X163763960Y-115206780D02*
X163515040Y-115509040D01*
X163515040Y-115509040D02*
X163164520Y-115707160D01*
X163164520Y-115707160D02*
X163515040Y-116707920D01*
X162463480Y-115707160D02*
X162064700Y-116707920D01*
M02*
