G04 #@! TF.FileFunction,Soldermask,Bot*
%FSLAX46Y46*%
G04 Gerber Fmt 4.6, Leading zero omitted, Abs format (unit mm)*
G04 Created by KiCad (PCBNEW 4.0.3+e1-6302~38~ubuntu15.04.1-stable) date Sun Sep 25 07:10:45 2016*
%MOMM*%
%LPD*%
G01*
G04 APERTURE LIST*
%ADD10C,0.100000*%
%ADD11R,1.727200X1.727200*%
%ADD12C,1.727200*%
%ADD13R,1.300000X1.300000*%
%ADD14C,1.300000*%
%ADD15R,1.750000X1.750000*%
%ADD16C,1.750000*%
%ADD17R,1.200000X1.700000*%
%ADD18O,1.200000X1.700000*%
%ADD19C,1.524000*%
%ADD20R,3.500120X3.500120*%
%ADD21R,1.397000X1.397000*%
%ADD22C,1.397000*%
G04 APERTURE END LIST*
D10*
D11*
X79220000Y-67620000D03*
D12*
X81760000Y-67620000D03*
X84300000Y-67620000D03*
X86840000Y-67620000D03*
X89380000Y-67620000D03*
X91920000Y-67620000D03*
X94460000Y-67620000D03*
X97000000Y-67620000D03*
X99540000Y-67620000D03*
X102080000Y-67620000D03*
X104620000Y-67620000D03*
X107160000Y-67620000D03*
X109700000Y-67620000D03*
X112240000Y-67620000D03*
X114780000Y-67620000D03*
X114780000Y-52380000D03*
X112240000Y-52380000D03*
X109700000Y-52380000D03*
X107160000Y-52380000D03*
X104620000Y-52380000D03*
X102080000Y-52380000D03*
X99540000Y-52380000D03*
X97000000Y-52380000D03*
X94460000Y-52380000D03*
X91920000Y-52380000D03*
X89380000Y-52380000D03*
X86840000Y-52380000D03*
X84300000Y-52380000D03*
X81760000Y-52380000D03*
X79220000Y-52380000D03*
D13*
X64000000Y-65000000D03*
D14*
X64000000Y-60000000D03*
D15*
X38000000Y-83000000D03*
D16*
X40500000Y-83000000D03*
X43000000Y-83000000D03*
X45500000Y-83000000D03*
X48000000Y-83000000D03*
X50500000Y-83000000D03*
X53000000Y-83000000D03*
X55500000Y-83000000D03*
D15*
X100000000Y-83000000D03*
D16*
X102500000Y-83000000D03*
X105000000Y-83000000D03*
X107500000Y-83000000D03*
X110000000Y-83000000D03*
X112500000Y-83000000D03*
X115000000Y-83000000D03*
X117500000Y-83000000D03*
D17*
X72000000Y-90000000D03*
D18*
X70000000Y-90000000D03*
X68000000Y-90000000D03*
X66000000Y-90000000D03*
D17*
X72000000Y-78000000D03*
D18*
X70000000Y-78000000D03*
X68000000Y-78000000D03*
X66000000Y-78000000D03*
D19*
X54500000Y-35250000D03*
X37500000Y-35250000D03*
X54500000Y-74750000D03*
X37500000Y-74750000D03*
D20*
X103799860Y-43000000D03*
X109799340Y-43000000D03*
X106799600Y-38301000D03*
D15*
X88000000Y-90000000D03*
D16*
X85500000Y-90000000D03*
X83000000Y-90000000D03*
D15*
X88000000Y-78000000D03*
D16*
X85500000Y-78000000D03*
X83000000Y-78000000D03*
D21*
X93540000Y-39000000D03*
D22*
X91000000Y-39000000D03*
X88460000Y-39000000D03*
M02*
