G04 #@! TF.FileFunction,Copper,L2,Bot,Signal*
%FSLAX46Y46*%
G04 Gerber Fmt 4.6, Leading zero omitted, Abs format (unit mm)*
G04 Created by KiCad (PCBNEW 4.0.3+e1-6302~38~ubuntu15.04.1-stable) date Sun Sep 25 07:10:45 2016*
%MOMM*%
%LPD*%
G01*
G04 APERTURE LIST*
%ADD10C,0.100000*%
%ADD11R,1.727200X1.727200*%
%ADD12C,1.727200*%
%ADD13R,1.300000X1.300000*%
%ADD14C,1.300000*%
%ADD15R,1.750000X1.750000*%
%ADD16C,1.750000*%
%ADD17R,1.200000X1.700000*%
%ADD18O,1.200000X1.700000*%
%ADD19C,1.524000*%
%ADD20R,3.500120X3.500120*%
%ADD21R,1.397000X1.397000*%
%ADD22C,1.397000*%
%ADD23C,0.600000*%
%ADD24C,0.250000*%
%ADD25C,0.254000*%
G04 APERTURE END LIST*
D10*
D11*
X79220000Y-67620000D03*
D12*
X81760000Y-67620000D03*
X84300000Y-67620000D03*
X86840000Y-67620000D03*
X89380000Y-67620000D03*
X91920000Y-67620000D03*
X94460000Y-67620000D03*
X97000000Y-67620000D03*
X99540000Y-67620000D03*
X102080000Y-67620000D03*
X104620000Y-67620000D03*
X107160000Y-67620000D03*
X109700000Y-67620000D03*
X112240000Y-67620000D03*
X114780000Y-67620000D03*
X114780000Y-52380000D03*
X112240000Y-52380000D03*
X109700000Y-52380000D03*
X107160000Y-52380000D03*
X104620000Y-52380000D03*
X102080000Y-52380000D03*
X99540000Y-52380000D03*
X97000000Y-52380000D03*
X94460000Y-52380000D03*
X91920000Y-52380000D03*
X89380000Y-52380000D03*
X86840000Y-52380000D03*
X84300000Y-52380000D03*
X81760000Y-52380000D03*
X79220000Y-52380000D03*
D13*
X64000000Y-65000000D03*
D14*
X64000000Y-60000000D03*
D15*
X38000000Y-83000000D03*
D16*
X40500000Y-83000000D03*
X43000000Y-83000000D03*
X45500000Y-83000000D03*
X48000000Y-83000000D03*
X50500000Y-83000000D03*
X53000000Y-83000000D03*
X55500000Y-83000000D03*
D15*
X100000000Y-83000000D03*
D16*
X102500000Y-83000000D03*
X105000000Y-83000000D03*
X107500000Y-83000000D03*
X110000000Y-83000000D03*
X112500000Y-83000000D03*
X115000000Y-83000000D03*
X117500000Y-83000000D03*
D17*
X72000000Y-90000000D03*
D18*
X70000000Y-90000000D03*
X68000000Y-90000000D03*
X66000000Y-90000000D03*
D17*
X72000000Y-78000000D03*
D18*
X70000000Y-78000000D03*
X68000000Y-78000000D03*
X66000000Y-78000000D03*
D19*
X54500000Y-35250000D03*
X37500000Y-35250000D03*
X54500000Y-74750000D03*
X37500000Y-74750000D03*
D20*
X103799860Y-43000000D03*
X109799340Y-43000000D03*
X106799600Y-38301000D03*
D15*
X88000000Y-90000000D03*
D16*
X85500000Y-90000000D03*
X83000000Y-90000000D03*
D15*
X88000000Y-78000000D03*
D16*
X85500000Y-78000000D03*
X83000000Y-78000000D03*
D21*
X93540000Y-39000000D03*
D22*
X91000000Y-39000000D03*
X88460000Y-39000000D03*
D23*
X77000000Y-42000000D03*
X62375532Y-71531459D03*
X62000000Y-83000000D03*
X61361318Y-81012735D03*
X61337743Y-71614888D03*
X75386684Y-66825810D03*
X73617332Y-72110335D03*
D24*
X62000000Y-83000000D02*
X62000000Y-71906991D01*
X62000000Y-71906991D02*
X62075533Y-71831458D01*
X62075533Y-71831458D02*
X62375532Y-71531459D01*
X61337743Y-80989160D02*
X61361318Y-81012735D01*
X61337743Y-71614888D02*
X61337743Y-80989160D01*
X75086685Y-67125809D02*
X75386684Y-66825810D01*
X73617332Y-72110335D02*
X73617332Y-68595162D01*
X73617332Y-68595162D02*
X75086685Y-67125809D01*
D25*
G36*
X123873000Y-34052606D02*
X123873000Y-93947394D01*
X120947394Y-96873000D01*
X34052606Y-96873000D01*
X31127000Y-93947394D01*
X31127000Y-89720907D01*
X64765000Y-89720907D01*
X64765000Y-90279093D01*
X64859009Y-90751707D01*
X65126723Y-91152370D01*
X65527386Y-91420084D01*
X66000000Y-91514093D01*
X66472614Y-91420084D01*
X66873277Y-91152370D01*
X67000000Y-90962715D01*
X67126723Y-91152370D01*
X67527386Y-91420084D01*
X68000000Y-91514093D01*
X68472614Y-91420084D01*
X68873277Y-91152370D01*
X69000000Y-90962715D01*
X69126723Y-91152370D01*
X69527386Y-91420084D01*
X70000000Y-91514093D01*
X70472614Y-91420084D01*
X70845590Y-91170870D01*
X70861673Y-91209699D01*
X71040302Y-91388327D01*
X71273691Y-91485000D01*
X71714250Y-91485000D01*
X71873000Y-91326250D01*
X71873000Y-90127000D01*
X72127000Y-90127000D01*
X72127000Y-91326250D01*
X72285750Y-91485000D01*
X72726309Y-91485000D01*
X72959698Y-91388327D01*
X73138327Y-91209699D01*
X73235000Y-90976310D01*
X73235000Y-90299040D01*
X81489738Y-90299040D01*
X81719138Y-90854229D01*
X82143537Y-91279370D01*
X82698325Y-91509738D01*
X83299040Y-91510262D01*
X83854229Y-91280862D01*
X84250318Y-90885464D01*
X84643537Y-91279370D01*
X85198325Y-91509738D01*
X85799040Y-91510262D01*
X86354229Y-91280862D01*
X86532203Y-91103198D01*
X86586673Y-91234699D01*
X86765302Y-91413327D01*
X86998691Y-91510000D01*
X87714250Y-91510000D01*
X87873000Y-91351250D01*
X87873000Y-90127000D01*
X88127000Y-90127000D01*
X88127000Y-91351250D01*
X88285750Y-91510000D01*
X89001309Y-91510000D01*
X89234698Y-91413327D01*
X89413327Y-91234699D01*
X89510000Y-91001310D01*
X89510000Y-90285750D01*
X89351250Y-90127000D01*
X88127000Y-90127000D01*
X87873000Y-90127000D01*
X87853000Y-90127000D01*
X87853000Y-89873000D01*
X87873000Y-89873000D01*
X87873000Y-88648750D01*
X88127000Y-88648750D01*
X88127000Y-89873000D01*
X89351250Y-89873000D01*
X89510000Y-89714250D01*
X89510000Y-88998690D01*
X89413327Y-88765301D01*
X89234698Y-88586673D01*
X89001309Y-88490000D01*
X88285750Y-88490000D01*
X88127000Y-88648750D01*
X87873000Y-88648750D01*
X87714250Y-88490000D01*
X86998691Y-88490000D01*
X86765302Y-88586673D01*
X86586673Y-88765301D01*
X86532240Y-88896714D01*
X86356463Y-88720630D01*
X85801675Y-88490262D01*
X85200960Y-88489738D01*
X84645771Y-88719138D01*
X84249682Y-89114536D01*
X83856463Y-88720630D01*
X83301675Y-88490262D01*
X82700960Y-88489738D01*
X82145771Y-88719138D01*
X81720630Y-89143537D01*
X81490262Y-89698325D01*
X81489738Y-90299040D01*
X73235000Y-90299040D01*
X73235000Y-90285750D01*
X73076250Y-90127000D01*
X72127000Y-90127000D01*
X71873000Y-90127000D01*
X71853000Y-90127000D01*
X71853000Y-89873000D01*
X71873000Y-89873000D01*
X71873000Y-88673750D01*
X72127000Y-88673750D01*
X72127000Y-89873000D01*
X73076250Y-89873000D01*
X73235000Y-89714250D01*
X73235000Y-89023690D01*
X73138327Y-88790301D01*
X72959698Y-88611673D01*
X72726309Y-88515000D01*
X72285750Y-88515000D01*
X72127000Y-88673750D01*
X71873000Y-88673750D01*
X71714250Y-88515000D01*
X71273691Y-88515000D01*
X71040302Y-88611673D01*
X70861673Y-88790301D01*
X70845590Y-88829130D01*
X70472614Y-88579916D01*
X70000000Y-88485907D01*
X69527386Y-88579916D01*
X69126723Y-88847630D01*
X69000000Y-89037285D01*
X68873277Y-88847630D01*
X68472614Y-88579916D01*
X68000000Y-88485907D01*
X67527386Y-88579916D01*
X67126723Y-88847630D01*
X67000000Y-89037285D01*
X66873277Y-88847630D01*
X66472614Y-88579916D01*
X66000000Y-88485907D01*
X65527386Y-88579916D01*
X65126723Y-88847630D01*
X64859009Y-89248293D01*
X64765000Y-89720907D01*
X31127000Y-89720907D01*
X31127000Y-83285750D01*
X36490000Y-83285750D01*
X36490000Y-84001310D01*
X36586673Y-84234699D01*
X36765302Y-84413327D01*
X36998691Y-84510000D01*
X37714250Y-84510000D01*
X37873000Y-84351250D01*
X37873000Y-83127000D01*
X36648750Y-83127000D01*
X36490000Y-83285750D01*
X31127000Y-83285750D01*
X31127000Y-81998690D01*
X36490000Y-81998690D01*
X36490000Y-82714250D01*
X36648750Y-82873000D01*
X37873000Y-82873000D01*
X37873000Y-81648750D01*
X38127000Y-81648750D01*
X38127000Y-82873000D01*
X38147000Y-82873000D01*
X38147000Y-83127000D01*
X38127000Y-83127000D01*
X38127000Y-84351250D01*
X38285750Y-84510000D01*
X39001309Y-84510000D01*
X39234698Y-84413327D01*
X39413327Y-84234699D01*
X39467760Y-84103286D01*
X39643537Y-84279370D01*
X40198325Y-84509738D01*
X40799040Y-84510262D01*
X41354229Y-84280862D01*
X41750318Y-83885464D01*
X42143537Y-84279370D01*
X42698325Y-84509738D01*
X43299040Y-84510262D01*
X43854229Y-84280862D01*
X44250318Y-83885464D01*
X44643537Y-84279370D01*
X45198325Y-84509738D01*
X45799040Y-84510262D01*
X46354229Y-84280862D01*
X46750318Y-83885464D01*
X47143537Y-84279370D01*
X47698325Y-84509738D01*
X48299040Y-84510262D01*
X48854229Y-84280862D01*
X49250318Y-83885464D01*
X49643537Y-84279370D01*
X50198325Y-84509738D01*
X50799040Y-84510262D01*
X51354229Y-84280862D01*
X51750318Y-83885464D01*
X52143537Y-84279370D01*
X52698325Y-84509738D01*
X53299040Y-84510262D01*
X53854229Y-84280862D01*
X54250318Y-83885464D01*
X54643537Y-84279370D01*
X55198325Y-84509738D01*
X55799040Y-84510262D01*
X56354229Y-84280862D01*
X56779370Y-83856463D01*
X57009738Y-83301675D01*
X57010262Y-82700960D01*
X56780862Y-82145771D01*
X56356463Y-81720630D01*
X55801675Y-81490262D01*
X55200960Y-81489738D01*
X54645771Y-81719138D01*
X54249682Y-82114536D01*
X53856463Y-81720630D01*
X53301675Y-81490262D01*
X52700960Y-81489738D01*
X52145771Y-81719138D01*
X51749682Y-82114536D01*
X51356463Y-81720630D01*
X50801675Y-81490262D01*
X50200960Y-81489738D01*
X49645771Y-81719138D01*
X49249682Y-82114536D01*
X48856463Y-81720630D01*
X48301675Y-81490262D01*
X47700960Y-81489738D01*
X47145771Y-81719138D01*
X46749682Y-82114536D01*
X46356463Y-81720630D01*
X45801675Y-81490262D01*
X45200960Y-81489738D01*
X44645771Y-81719138D01*
X44249682Y-82114536D01*
X43856463Y-81720630D01*
X43301675Y-81490262D01*
X42700960Y-81489738D01*
X42145771Y-81719138D01*
X41749682Y-82114536D01*
X41356463Y-81720630D01*
X40801675Y-81490262D01*
X40200960Y-81489738D01*
X39645771Y-81719138D01*
X39467797Y-81896802D01*
X39413327Y-81765301D01*
X39234698Y-81586673D01*
X39001309Y-81490000D01*
X38285750Y-81490000D01*
X38127000Y-81648750D01*
X37873000Y-81648750D01*
X37714250Y-81490000D01*
X36998691Y-81490000D01*
X36765302Y-81586673D01*
X36586673Y-81765301D01*
X36490000Y-81998690D01*
X31127000Y-81998690D01*
X31127000Y-75730213D01*
X36699392Y-75730213D01*
X36768857Y-75972397D01*
X37292302Y-76159144D01*
X37847368Y-76131362D01*
X38231143Y-75972397D01*
X38300608Y-75730213D01*
X37500000Y-74929605D01*
X36699392Y-75730213D01*
X31127000Y-75730213D01*
X31127000Y-74542302D01*
X36090856Y-74542302D01*
X36118638Y-75097368D01*
X36277603Y-75481143D01*
X36519787Y-75550608D01*
X37320395Y-74750000D01*
X37679605Y-74750000D01*
X38480213Y-75550608D01*
X38722397Y-75481143D01*
X38884540Y-75026661D01*
X53102758Y-75026661D01*
X53314990Y-75540303D01*
X53707630Y-75933629D01*
X54220900Y-76146757D01*
X54776661Y-76147242D01*
X55290303Y-75935010D01*
X55683629Y-75542370D01*
X55896757Y-75029100D01*
X55897242Y-74473339D01*
X55685010Y-73959697D01*
X55292370Y-73566371D01*
X54779100Y-73353243D01*
X54223339Y-73352758D01*
X53709697Y-73564990D01*
X53316371Y-73957630D01*
X53103243Y-74470900D01*
X53102758Y-75026661D01*
X38884540Y-75026661D01*
X38909144Y-74957698D01*
X38881362Y-74402632D01*
X38722397Y-74018857D01*
X38480213Y-73949392D01*
X37679605Y-74750000D01*
X37320395Y-74750000D01*
X36519787Y-73949392D01*
X36277603Y-74018857D01*
X36090856Y-74542302D01*
X31127000Y-74542302D01*
X31127000Y-73769787D01*
X36699392Y-73769787D01*
X37500000Y-74570395D01*
X38300608Y-73769787D01*
X38231143Y-73527603D01*
X37707698Y-73340856D01*
X37152632Y-73368638D01*
X36768857Y-73527603D01*
X36699392Y-73769787D01*
X31127000Y-73769787D01*
X31127000Y-71800055D01*
X60402581Y-71800055D01*
X60544626Y-72143831D01*
X60577743Y-72177006D01*
X60577743Y-80473806D01*
X60569126Y-80482408D01*
X60426480Y-80825936D01*
X60426156Y-81197902D01*
X60568201Y-81541678D01*
X60830991Y-81804927D01*
X61174519Y-81947573D01*
X61240000Y-81947630D01*
X61240000Y-82437537D01*
X61207808Y-82469673D01*
X61065162Y-82813201D01*
X61064838Y-83185167D01*
X61206883Y-83528943D01*
X61469673Y-83792192D01*
X61813201Y-83934838D01*
X62185167Y-83935162D01*
X62528943Y-83793117D01*
X62792192Y-83530327D01*
X62893749Y-83285750D01*
X98490000Y-83285750D01*
X98490000Y-84001310D01*
X98586673Y-84234699D01*
X98765302Y-84413327D01*
X98998691Y-84510000D01*
X99714250Y-84510000D01*
X99873000Y-84351250D01*
X99873000Y-83127000D01*
X98648750Y-83127000D01*
X98490000Y-83285750D01*
X62893749Y-83285750D01*
X62934838Y-83186799D01*
X62935162Y-82814833D01*
X62793117Y-82471057D01*
X62760000Y-82437882D01*
X62760000Y-81998690D01*
X98490000Y-81998690D01*
X98490000Y-82714250D01*
X98648750Y-82873000D01*
X99873000Y-82873000D01*
X99873000Y-81648750D01*
X100127000Y-81648750D01*
X100127000Y-82873000D01*
X100147000Y-82873000D01*
X100147000Y-83127000D01*
X100127000Y-83127000D01*
X100127000Y-84351250D01*
X100285750Y-84510000D01*
X101001309Y-84510000D01*
X101234698Y-84413327D01*
X101413327Y-84234699D01*
X101467760Y-84103286D01*
X101643537Y-84279370D01*
X102198325Y-84509738D01*
X102799040Y-84510262D01*
X103354229Y-84280862D01*
X103750318Y-83885464D01*
X104143537Y-84279370D01*
X104698325Y-84509738D01*
X105299040Y-84510262D01*
X105854229Y-84280862D01*
X106250318Y-83885464D01*
X106643537Y-84279370D01*
X107198325Y-84509738D01*
X107799040Y-84510262D01*
X108354229Y-84280862D01*
X108750318Y-83885464D01*
X109143537Y-84279370D01*
X109698325Y-84509738D01*
X110299040Y-84510262D01*
X110854229Y-84280862D01*
X111250318Y-83885464D01*
X111643537Y-84279370D01*
X112198325Y-84509738D01*
X112799040Y-84510262D01*
X113354229Y-84280862D01*
X113750318Y-83885464D01*
X114143537Y-84279370D01*
X114698325Y-84509738D01*
X115299040Y-84510262D01*
X115854229Y-84280862D01*
X116250318Y-83885464D01*
X116643537Y-84279370D01*
X117198325Y-84509738D01*
X117799040Y-84510262D01*
X118354229Y-84280862D01*
X118779370Y-83856463D01*
X119009738Y-83301675D01*
X119010262Y-82700960D01*
X118780862Y-82145771D01*
X118356463Y-81720630D01*
X117801675Y-81490262D01*
X117200960Y-81489738D01*
X116645771Y-81719138D01*
X116249682Y-82114536D01*
X115856463Y-81720630D01*
X115301675Y-81490262D01*
X114700960Y-81489738D01*
X114145771Y-81719138D01*
X113749682Y-82114536D01*
X113356463Y-81720630D01*
X112801675Y-81490262D01*
X112200960Y-81489738D01*
X111645771Y-81719138D01*
X111249682Y-82114536D01*
X110856463Y-81720630D01*
X110301675Y-81490262D01*
X109700960Y-81489738D01*
X109145771Y-81719138D01*
X108749682Y-82114536D01*
X108356463Y-81720630D01*
X107801675Y-81490262D01*
X107200960Y-81489738D01*
X106645771Y-81719138D01*
X106249682Y-82114536D01*
X105856463Y-81720630D01*
X105301675Y-81490262D01*
X104700960Y-81489738D01*
X104145771Y-81719138D01*
X103749682Y-82114536D01*
X103356463Y-81720630D01*
X102801675Y-81490262D01*
X102200960Y-81489738D01*
X101645771Y-81719138D01*
X101467797Y-81896802D01*
X101413327Y-81765301D01*
X101234698Y-81586673D01*
X101001309Y-81490000D01*
X100285750Y-81490000D01*
X100127000Y-81648750D01*
X99873000Y-81648750D01*
X99714250Y-81490000D01*
X98998691Y-81490000D01*
X98765302Y-81586673D01*
X98586673Y-81765301D01*
X98490000Y-81998690D01*
X62760000Y-81998690D01*
X62760000Y-77720907D01*
X64765000Y-77720907D01*
X64765000Y-78279093D01*
X64859009Y-78751707D01*
X65126723Y-79152370D01*
X65527386Y-79420084D01*
X66000000Y-79514093D01*
X66472614Y-79420084D01*
X66873277Y-79152370D01*
X67000000Y-78962715D01*
X67126723Y-79152370D01*
X67527386Y-79420084D01*
X68000000Y-79514093D01*
X68472614Y-79420084D01*
X68873277Y-79152370D01*
X69000000Y-78962715D01*
X69126723Y-79152370D01*
X69527386Y-79420084D01*
X70000000Y-79514093D01*
X70472614Y-79420084D01*
X70845590Y-79170870D01*
X70861673Y-79209699D01*
X71040302Y-79388327D01*
X71273691Y-79485000D01*
X71714250Y-79485000D01*
X71873000Y-79326250D01*
X71873000Y-78127000D01*
X72127000Y-78127000D01*
X72127000Y-79326250D01*
X72285750Y-79485000D01*
X72726309Y-79485000D01*
X72959698Y-79388327D01*
X73138327Y-79209699D01*
X73235000Y-78976310D01*
X73235000Y-78299040D01*
X81489738Y-78299040D01*
X81719138Y-78854229D01*
X82143537Y-79279370D01*
X82698325Y-79509738D01*
X83299040Y-79510262D01*
X83854229Y-79280862D01*
X84250318Y-78885464D01*
X84643537Y-79279370D01*
X85198325Y-79509738D01*
X85799040Y-79510262D01*
X86354229Y-79280862D01*
X86532203Y-79103198D01*
X86586673Y-79234699D01*
X86765302Y-79413327D01*
X86998691Y-79510000D01*
X87714250Y-79510000D01*
X87873000Y-79351250D01*
X87873000Y-78127000D01*
X88127000Y-78127000D01*
X88127000Y-79351250D01*
X88285750Y-79510000D01*
X89001309Y-79510000D01*
X89234698Y-79413327D01*
X89413327Y-79234699D01*
X89510000Y-79001310D01*
X89510000Y-78285750D01*
X89351250Y-78127000D01*
X88127000Y-78127000D01*
X87873000Y-78127000D01*
X87853000Y-78127000D01*
X87853000Y-77873000D01*
X87873000Y-77873000D01*
X87873000Y-76648750D01*
X88127000Y-76648750D01*
X88127000Y-77873000D01*
X89351250Y-77873000D01*
X89510000Y-77714250D01*
X89510000Y-76998690D01*
X89413327Y-76765301D01*
X89234698Y-76586673D01*
X89001309Y-76490000D01*
X88285750Y-76490000D01*
X88127000Y-76648750D01*
X87873000Y-76648750D01*
X87714250Y-76490000D01*
X86998691Y-76490000D01*
X86765302Y-76586673D01*
X86586673Y-76765301D01*
X86532240Y-76896714D01*
X86356463Y-76720630D01*
X85801675Y-76490262D01*
X85200960Y-76489738D01*
X84645771Y-76719138D01*
X84249682Y-77114536D01*
X83856463Y-76720630D01*
X83301675Y-76490262D01*
X82700960Y-76489738D01*
X82145771Y-76719138D01*
X81720630Y-77143537D01*
X81490262Y-77698325D01*
X81489738Y-78299040D01*
X73235000Y-78299040D01*
X73235000Y-78285750D01*
X73076250Y-78127000D01*
X72127000Y-78127000D01*
X71873000Y-78127000D01*
X71853000Y-78127000D01*
X71853000Y-77873000D01*
X71873000Y-77873000D01*
X71873000Y-76673750D01*
X72127000Y-76673750D01*
X72127000Y-77873000D01*
X73076250Y-77873000D01*
X73235000Y-77714250D01*
X73235000Y-77023690D01*
X73138327Y-76790301D01*
X72959698Y-76611673D01*
X72726309Y-76515000D01*
X72285750Y-76515000D01*
X72127000Y-76673750D01*
X71873000Y-76673750D01*
X71714250Y-76515000D01*
X71273691Y-76515000D01*
X71040302Y-76611673D01*
X70861673Y-76790301D01*
X70845590Y-76829130D01*
X70472614Y-76579916D01*
X70000000Y-76485907D01*
X69527386Y-76579916D01*
X69126723Y-76847630D01*
X69000000Y-77037285D01*
X68873277Y-76847630D01*
X68472614Y-76579916D01*
X68000000Y-76485907D01*
X67527386Y-76579916D01*
X67126723Y-76847630D01*
X67000000Y-77037285D01*
X66873277Y-76847630D01*
X66472614Y-76579916D01*
X66000000Y-76485907D01*
X65527386Y-76579916D01*
X65126723Y-76847630D01*
X64859009Y-77248293D01*
X64765000Y-77720907D01*
X62760000Y-77720907D01*
X62760000Y-72384272D01*
X62904475Y-72324576D01*
X62933599Y-72295502D01*
X72682170Y-72295502D01*
X72824215Y-72639278D01*
X73087005Y-72902527D01*
X73430533Y-73045173D01*
X73802499Y-73045497D01*
X74146275Y-72903452D01*
X74409524Y-72640662D01*
X74552170Y-72297134D01*
X74552494Y-71925168D01*
X74410449Y-71581392D01*
X74377332Y-71548217D01*
X74377332Y-68909964D01*
X75526364Y-67760932D01*
X75571851Y-67760972D01*
X75915627Y-67618927D01*
X76178876Y-67356137D01*
X76321522Y-67012609D01*
X76321745Y-66756400D01*
X77708960Y-66756400D01*
X77708960Y-68483600D01*
X77753238Y-68718917D01*
X77892310Y-68935041D01*
X78104510Y-69080031D01*
X78356400Y-69131040D01*
X80083600Y-69131040D01*
X80318917Y-69086762D01*
X80535041Y-68947690D01*
X80680031Y-68735490D01*
X80692852Y-68672180D01*
X80910003Y-68889710D01*
X81460602Y-69118339D01*
X82056782Y-69118859D01*
X82607780Y-68891192D01*
X83029710Y-68469997D01*
X83030095Y-68469069D01*
X83450003Y-68889710D01*
X84000602Y-69118339D01*
X84596782Y-69118859D01*
X85147780Y-68891192D01*
X85365546Y-68673805D01*
X85965800Y-68673805D01*
X86047741Y-68926516D01*
X86608030Y-69130248D01*
X87203635Y-69104058D01*
X87632259Y-68926516D01*
X87714200Y-68673805D01*
X86840000Y-67799605D01*
X85965800Y-68673805D01*
X85365546Y-68673805D01*
X85569710Y-68469997D01*
X85586541Y-68429463D01*
X85786195Y-68494200D01*
X86660395Y-67620000D01*
X87019605Y-67620000D01*
X87893805Y-68494200D01*
X88093033Y-68429601D01*
X88108808Y-68467780D01*
X88530003Y-68889710D01*
X89080602Y-69118339D01*
X89676782Y-69118859D01*
X90227780Y-68891192D01*
X90649710Y-68469997D01*
X90650095Y-68469069D01*
X91070003Y-68889710D01*
X91620602Y-69118339D01*
X92216782Y-69118859D01*
X92767780Y-68891192D01*
X93189710Y-68469997D01*
X93190095Y-68469069D01*
X93610003Y-68889710D01*
X94160602Y-69118339D01*
X94756782Y-69118859D01*
X95307780Y-68891192D01*
X95729710Y-68469997D01*
X95730095Y-68469069D01*
X96150003Y-68889710D01*
X96700602Y-69118339D01*
X97296782Y-69118859D01*
X97847780Y-68891192D01*
X98269710Y-68469997D01*
X98270095Y-68469069D01*
X98690003Y-68889710D01*
X99240602Y-69118339D01*
X99836782Y-69118859D01*
X100387780Y-68891192D01*
X100809710Y-68469997D01*
X100810095Y-68469069D01*
X101230003Y-68889710D01*
X101780602Y-69118339D01*
X102376782Y-69118859D01*
X102927780Y-68891192D01*
X103349710Y-68469997D01*
X103350095Y-68469069D01*
X103770003Y-68889710D01*
X104320602Y-69118339D01*
X104916782Y-69118859D01*
X105467780Y-68891192D01*
X105889710Y-68469997D01*
X105890095Y-68469069D01*
X106310003Y-68889710D01*
X106860602Y-69118339D01*
X107456782Y-69118859D01*
X108007780Y-68891192D01*
X108429710Y-68469997D01*
X108430095Y-68469069D01*
X108850003Y-68889710D01*
X109400602Y-69118339D01*
X109996782Y-69118859D01*
X110547780Y-68891192D01*
X110969710Y-68469997D01*
X110970095Y-68469069D01*
X111390003Y-68889710D01*
X111940602Y-69118339D01*
X112536782Y-69118859D01*
X113087780Y-68891192D01*
X113509710Y-68469997D01*
X113510095Y-68469069D01*
X113930003Y-68889710D01*
X114480602Y-69118339D01*
X115076782Y-69118859D01*
X115627780Y-68891192D01*
X116049710Y-68469997D01*
X116278339Y-67919398D01*
X116278859Y-67323218D01*
X116051192Y-66772220D01*
X115629997Y-66350290D01*
X115079398Y-66121661D01*
X114483218Y-66121141D01*
X113932220Y-66348808D01*
X113510290Y-66770003D01*
X113509905Y-66770931D01*
X113089997Y-66350290D01*
X112539398Y-66121661D01*
X111943218Y-66121141D01*
X111392220Y-66348808D01*
X110970290Y-66770003D01*
X110969905Y-66770931D01*
X110549997Y-66350290D01*
X109999398Y-66121661D01*
X109403218Y-66121141D01*
X108852220Y-66348808D01*
X108430290Y-66770003D01*
X108429905Y-66770931D01*
X108009997Y-66350290D01*
X107459398Y-66121661D01*
X106863218Y-66121141D01*
X106312220Y-66348808D01*
X105890290Y-66770003D01*
X105889905Y-66770931D01*
X105469997Y-66350290D01*
X104919398Y-66121661D01*
X104323218Y-66121141D01*
X103772220Y-66348808D01*
X103350290Y-66770003D01*
X103349905Y-66770931D01*
X102929997Y-66350290D01*
X102379398Y-66121661D01*
X101783218Y-66121141D01*
X101232220Y-66348808D01*
X100810290Y-66770003D01*
X100809905Y-66770931D01*
X100389997Y-66350290D01*
X99839398Y-66121661D01*
X99243218Y-66121141D01*
X98692220Y-66348808D01*
X98270290Y-66770003D01*
X98269905Y-66770931D01*
X97849997Y-66350290D01*
X97299398Y-66121661D01*
X96703218Y-66121141D01*
X96152220Y-66348808D01*
X95730290Y-66770003D01*
X95729905Y-66770931D01*
X95309997Y-66350290D01*
X94759398Y-66121661D01*
X94163218Y-66121141D01*
X93612220Y-66348808D01*
X93190290Y-66770003D01*
X93189905Y-66770931D01*
X92769997Y-66350290D01*
X92219398Y-66121661D01*
X91623218Y-66121141D01*
X91072220Y-66348808D01*
X90650290Y-66770003D01*
X90649905Y-66770931D01*
X90229997Y-66350290D01*
X89679398Y-66121661D01*
X89083218Y-66121141D01*
X88532220Y-66348808D01*
X88110290Y-66770003D01*
X88093459Y-66810537D01*
X87893805Y-66745800D01*
X87019605Y-67620000D01*
X86660395Y-67620000D01*
X85786195Y-66745800D01*
X85586967Y-66810399D01*
X85571192Y-66772220D01*
X85365526Y-66566195D01*
X85965800Y-66566195D01*
X86840000Y-67440395D01*
X87714200Y-66566195D01*
X87632259Y-66313484D01*
X87071970Y-66109752D01*
X86476365Y-66135942D01*
X86047741Y-66313484D01*
X85965800Y-66566195D01*
X85365526Y-66566195D01*
X85149997Y-66350290D01*
X84599398Y-66121661D01*
X84003218Y-66121141D01*
X83452220Y-66348808D01*
X83030290Y-66770003D01*
X83029905Y-66770931D01*
X82609997Y-66350290D01*
X82059398Y-66121661D01*
X81463218Y-66121141D01*
X80912220Y-66348808D01*
X80695124Y-66565525D01*
X80686762Y-66521083D01*
X80547690Y-66304959D01*
X80335490Y-66159969D01*
X80083600Y-66108960D01*
X78356400Y-66108960D01*
X78121083Y-66153238D01*
X77904959Y-66292310D01*
X77759969Y-66504510D01*
X77708960Y-66756400D01*
X76321745Y-66756400D01*
X76321846Y-66640643D01*
X76179801Y-66296867D01*
X75917011Y-66033618D01*
X75573483Y-65890972D01*
X75201517Y-65890648D01*
X74857741Y-66032693D01*
X74594492Y-66295483D01*
X74451846Y-66639011D01*
X74451805Y-66685887D01*
X73079931Y-68057761D01*
X72915184Y-68304323D01*
X72857332Y-68595162D01*
X72857332Y-71547872D01*
X72825140Y-71580008D01*
X72682494Y-71923536D01*
X72682170Y-72295502D01*
X62933599Y-72295502D01*
X63167724Y-72061786D01*
X63310370Y-71718258D01*
X63310694Y-71346292D01*
X63168649Y-71002516D01*
X62905859Y-70739267D01*
X62562331Y-70596621D01*
X62190365Y-70596297D01*
X61846589Y-70738342D01*
X61793222Y-70791616D01*
X61524542Y-70680050D01*
X61152576Y-70679726D01*
X60808800Y-70821771D01*
X60545551Y-71084561D01*
X60402905Y-71428089D01*
X60402581Y-71800055D01*
X31127000Y-71800055D01*
X31127000Y-64350000D01*
X62702560Y-64350000D01*
X62702560Y-65650000D01*
X62746838Y-65885317D01*
X62885910Y-66101441D01*
X63098110Y-66246431D01*
X63350000Y-66297440D01*
X64650000Y-66297440D01*
X64885317Y-66253162D01*
X65101441Y-66114090D01*
X65246431Y-65901890D01*
X65297440Y-65650000D01*
X65297440Y-64350000D01*
X65253162Y-64114683D01*
X65114090Y-63898559D01*
X64901890Y-63753569D01*
X64650000Y-63702560D01*
X63350000Y-63702560D01*
X63114683Y-63746838D01*
X62898559Y-63885910D01*
X62753569Y-64098110D01*
X62702560Y-64350000D01*
X31127000Y-64350000D01*
X31127000Y-60899016D01*
X63280590Y-60899016D01*
X63336271Y-61129611D01*
X63819078Y-61297622D01*
X64329428Y-61268083D01*
X64663729Y-61129611D01*
X64719410Y-60899016D01*
X64000000Y-60179605D01*
X63280590Y-60899016D01*
X31127000Y-60899016D01*
X31127000Y-59819078D01*
X62702378Y-59819078D01*
X62731917Y-60329428D01*
X62870389Y-60663729D01*
X63100984Y-60719410D01*
X63820395Y-60000000D01*
X64179605Y-60000000D01*
X64899016Y-60719410D01*
X65129611Y-60663729D01*
X65297622Y-60180922D01*
X65268083Y-59670572D01*
X65129611Y-59336271D01*
X64899016Y-59280590D01*
X64179605Y-60000000D01*
X63820395Y-60000000D01*
X63100984Y-59280590D01*
X62870389Y-59336271D01*
X62702378Y-59819078D01*
X31127000Y-59819078D01*
X31127000Y-59100984D01*
X63280590Y-59100984D01*
X64000000Y-59820395D01*
X64719410Y-59100984D01*
X64663729Y-58870389D01*
X64180922Y-58702378D01*
X63670572Y-58731917D01*
X63336271Y-58870389D01*
X63280590Y-59100984D01*
X31127000Y-59100984D01*
X31127000Y-52676782D01*
X77721141Y-52676782D01*
X77948808Y-53227780D01*
X78370003Y-53649710D01*
X78920602Y-53878339D01*
X79516782Y-53878859D01*
X80067780Y-53651192D01*
X80285546Y-53433805D01*
X80885800Y-53433805D01*
X80967741Y-53686516D01*
X81528030Y-53890248D01*
X82123635Y-53864058D01*
X82552259Y-53686516D01*
X82634200Y-53433805D01*
X81760000Y-52559605D01*
X80885800Y-53433805D01*
X80285546Y-53433805D01*
X80489710Y-53229997D01*
X80506541Y-53189463D01*
X80706195Y-53254200D01*
X81580395Y-52380000D01*
X81939605Y-52380000D01*
X82813805Y-53254200D01*
X83013033Y-53189601D01*
X83028808Y-53227780D01*
X83450003Y-53649710D01*
X84000602Y-53878339D01*
X84596782Y-53878859D01*
X85147780Y-53651192D01*
X85569710Y-53229997D01*
X85570095Y-53229069D01*
X85990003Y-53649710D01*
X86540602Y-53878339D01*
X87136782Y-53878859D01*
X87687780Y-53651192D01*
X88109710Y-53229997D01*
X88110095Y-53229069D01*
X88530003Y-53649710D01*
X89080602Y-53878339D01*
X89676782Y-53878859D01*
X90227780Y-53651192D01*
X90649710Y-53229997D01*
X90650095Y-53229069D01*
X91070003Y-53649710D01*
X91620602Y-53878339D01*
X92216782Y-53878859D01*
X92767780Y-53651192D01*
X93189710Y-53229997D01*
X93190095Y-53229069D01*
X93610003Y-53649710D01*
X94160602Y-53878339D01*
X94756782Y-53878859D01*
X95307780Y-53651192D01*
X95729710Y-53229997D01*
X95730095Y-53229069D01*
X96150003Y-53649710D01*
X96700602Y-53878339D01*
X97296782Y-53878859D01*
X97847780Y-53651192D01*
X98269710Y-53229997D01*
X98270095Y-53229069D01*
X98690003Y-53649710D01*
X99240602Y-53878339D01*
X99836782Y-53878859D01*
X100387780Y-53651192D01*
X100809710Y-53229997D01*
X100810095Y-53229069D01*
X101230003Y-53649710D01*
X101780602Y-53878339D01*
X102376782Y-53878859D01*
X102927780Y-53651192D01*
X103349710Y-53229997D01*
X103350095Y-53229069D01*
X103770003Y-53649710D01*
X104320602Y-53878339D01*
X104916782Y-53878859D01*
X105467780Y-53651192D01*
X105889710Y-53229997D01*
X105890095Y-53229069D01*
X106310003Y-53649710D01*
X106860602Y-53878339D01*
X107456782Y-53878859D01*
X108007780Y-53651192D01*
X108429710Y-53229997D01*
X108430095Y-53229069D01*
X108850003Y-53649710D01*
X109400602Y-53878339D01*
X109996782Y-53878859D01*
X110547780Y-53651192D01*
X110969710Y-53229997D01*
X110970095Y-53229069D01*
X111390003Y-53649710D01*
X111940602Y-53878339D01*
X112536782Y-53878859D01*
X113087780Y-53651192D01*
X113509710Y-53229997D01*
X113510095Y-53229069D01*
X113930003Y-53649710D01*
X114480602Y-53878339D01*
X115076782Y-53878859D01*
X115627780Y-53651192D01*
X116049710Y-53229997D01*
X116278339Y-52679398D01*
X116278859Y-52083218D01*
X116051192Y-51532220D01*
X115629997Y-51110290D01*
X115079398Y-50881661D01*
X114483218Y-50881141D01*
X113932220Y-51108808D01*
X113510290Y-51530003D01*
X113509905Y-51530931D01*
X113089997Y-51110290D01*
X112539398Y-50881661D01*
X111943218Y-50881141D01*
X111392220Y-51108808D01*
X110970290Y-51530003D01*
X110969905Y-51530931D01*
X110549997Y-51110290D01*
X109999398Y-50881661D01*
X109403218Y-50881141D01*
X108852220Y-51108808D01*
X108430290Y-51530003D01*
X108429905Y-51530931D01*
X108009997Y-51110290D01*
X107459398Y-50881661D01*
X106863218Y-50881141D01*
X106312220Y-51108808D01*
X105890290Y-51530003D01*
X105889905Y-51530931D01*
X105469997Y-51110290D01*
X104919398Y-50881661D01*
X104323218Y-50881141D01*
X103772220Y-51108808D01*
X103350290Y-51530003D01*
X103349905Y-51530931D01*
X102929997Y-51110290D01*
X102379398Y-50881661D01*
X101783218Y-50881141D01*
X101232220Y-51108808D01*
X100810290Y-51530003D01*
X100809905Y-51530931D01*
X100389997Y-51110290D01*
X99839398Y-50881661D01*
X99243218Y-50881141D01*
X98692220Y-51108808D01*
X98270290Y-51530003D01*
X98269905Y-51530931D01*
X97849997Y-51110290D01*
X97299398Y-50881661D01*
X96703218Y-50881141D01*
X96152220Y-51108808D01*
X95730290Y-51530003D01*
X95729905Y-51530931D01*
X95309997Y-51110290D01*
X94759398Y-50881661D01*
X94163218Y-50881141D01*
X93612220Y-51108808D01*
X93190290Y-51530003D01*
X93189905Y-51530931D01*
X92769997Y-51110290D01*
X92219398Y-50881661D01*
X91623218Y-50881141D01*
X91072220Y-51108808D01*
X90650290Y-51530003D01*
X90649905Y-51530931D01*
X90229997Y-51110290D01*
X89679398Y-50881661D01*
X89083218Y-50881141D01*
X88532220Y-51108808D01*
X88110290Y-51530003D01*
X88109905Y-51530931D01*
X87689997Y-51110290D01*
X87139398Y-50881661D01*
X86543218Y-50881141D01*
X85992220Y-51108808D01*
X85570290Y-51530003D01*
X85569905Y-51530931D01*
X85149997Y-51110290D01*
X84599398Y-50881661D01*
X84003218Y-50881141D01*
X83452220Y-51108808D01*
X83030290Y-51530003D01*
X83013459Y-51570537D01*
X82813805Y-51505800D01*
X81939605Y-52380000D01*
X81580395Y-52380000D01*
X80706195Y-51505800D01*
X80506967Y-51570399D01*
X80491192Y-51532220D01*
X80285526Y-51326195D01*
X80885800Y-51326195D01*
X81760000Y-52200395D01*
X82634200Y-51326195D01*
X82552259Y-51073484D01*
X81991970Y-50869752D01*
X81396365Y-50895942D01*
X80967741Y-51073484D01*
X80885800Y-51326195D01*
X80285526Y-51326195D01*
X80069997Y-51110290D01*
X79519398Y-50881661D01*
X78923218Y-50881141D01*
X78372220Y-51108808D01*
X77950290Y-51530003D01*
X77721661Y-52080602D01*
X77721141Y-52676782D01*
X31127000Y-52676782D01*
X31127000Y-41249940D01*
X101402360Y-41249940D01*
X101402360Y-44750060D01*
X101446638Y-44985377D01*
X101585710Y-45201501D01*
X101797910Y-45346491D01*
X102049800Y-45397500D01*
X105549920Y-45397500D01*
X105785237Y-45353222D01*
X106001361Y-45214150D01*
X106146351Y-45001950D01*
X106197360Y-44750060D01*
X106197360Y-43285750D01*
X107414280Y-43285750D01*
X107414280Y-44876370D01*
X107510953Y-45109759D01*
X107689582Y-45288387D01*
X107922971Y-45385060D01*
X109513590Y-45385060D01*
X109672340Y-45226310D01*
X109672340Y-43127000D01*
X109926340Y-43127000D01*
X109926340Y-45226310D01*
X110085090Y-45385060D01*
X111675709Y-45385060D01*
X111909098Y-45288387D01*
X112087727Y-45109759D01*
X112184400Y-44876370D01*
X112184400Y-43285750D01*
X112025650Y-43127000D01*
X109926340Y-43127000D01*
X109672340Y-43127000D01*
X107573030Y-43127000D01*
X107414280Y-43285750D01*
X106197360Y-43285750D01*
X106197360Y-41249940D01*
X106153082Y-41014623D01*
X106014010Y-40798499D01*
X105867657Y-40698500D01*
X107721240Y-40698500D01*
X107689582Y-40711613D01*
X107510953Y-40890241D01*
X107414280Y-41123630D01*
X107414280Y-42714250D01*
X107573030Y-42873000D01*
X109672340Y-42873000D01*
X109672340Y-40773690D01*
X109926340Y-40773690D01*
X109926340Y-42873000D01*
X112025650Y-42873000D01*
X112184400Y-42714250D01*
X112184400Y-41123630D01*
X112087727Y-40890241D01*
X111909098Y-40711613D01*
X111675709Y-40614940D01*
X110085090Y-40614940D01*
X109926340Y-40773690D01*
X109672340Y-40773690D01*
X109513590Y-40614940D01*
X108846023Y-40614940D01*
X109001101Y-40515150D01*
X109146091Y-40302950D01*
X109197100Y-40051060D01*
X109197100Y-36550940D01*
X109152822Y-36315623D01*
X109013750Y-36099499D01*
X108801550Y-35954509D01*
X108549660Y-35903500D01*
X105049540Y-35903500D01*
X104814223Y-35947778D01*
X104598099Y-36086850D01*
X104453109Y-36299050D01*
X104402100Y-36550940D01*
X104402100Y-40051060D01*
X104446378Y-40286377D01*
X104585450Y-40502501D01*
X104731803Y-40602500D01*
X102049800Y-40602500D01*
X101814483Y-40646778D01*
X101598359Y-40785850D01*
X101453369Y-40998050D01*
X101402360Y-41249940D01*
X31127000Y-41249940D01*
X31127000Y-39264086D01*
X87126269Y-39264086D01*
X87328854Y-39754380D01*
X87703647Y-40129827D01*
X88193587Y-40333268D01*
X88724086Y-40333731D01*
X89214380Y-40131146D01*
X89589827Y-39756353D01*
X89730094Y-39418554D01*
X89868854Y-39754380D01*
X90243647Y-40129827D01*
X90733587Y-40333268D01*
X91264086Y-40333731D01*
X91754380Y-40131146D01*
X92129827Y-39756353D01*
X92194060Y-39601663D01*
X92194060Y-39698500D01*
X92238338Y-39933817D01*
X92377410Y-40149941D01*
X92589610Y-40294931D01*
X92841500Y-40345940D01*
X94238500Y-40345940D01*
X94473817Y-40301662D01*
X94689941Y-40162590D01*
X94834931Y-39950390D01*
X94885940Y-39698500D01*
X94885940Y-38301500D01*
X94841662Y-38066183D01*
X94702590Y-37850059D01*
X94490390Y-37705069D01*
X94238500Y-37654060D01*
X92841500Y-37654060D01*
X92606183Y-37698338D01*
X92390059Y-37837410D01*
X92245069Y-38049610D01*
X92194060Y-38301500D01*
X92194060Y-38397884D01*
X92131146Y-38245620D01*
X91756353Y-37870173D01*
X91266413Y-37666732D01*
X90735914Y-37666269D01*
X90245620Y-37868854D01*
X89870173Y-38243647D01*
X89729906Y-38581446D01*
X89591146Y-38245620D01*
X89216353Y-37870173D01*
X88726413Y-37666732D01*
X88195914Y-37666269D01*
X87705620Y-37868854D01*
X87330173Y-38243647D01*
X87126732Y-38733587D01*
X87126269Y-39264086D01*
X31127000Y-39264086D01*
X31127000Y-36230213D01*
X36699392Y-36230213D01*
X36768857Y-36472397D01*
X37292302Y-36659144D01*
X37847368Y-36631362D01*
X38231143Y-36472397D01*
X38300608Y-36230213D01*
X37500000Y-35429605D01*
X36699392Y-36230213D01*
X31127000Y-36230213D01*
X31127000Y-35042302D01*
X36090856Y-35042302D01*
X36118638Y-35597368D01*
X36277603Y-35981143D01*
X36519787Y-36050608D01*
X37320395Y-35250000D01*
X37679605Y-35250000D01*
X38480213Y-36050608D01*
X38722397Y-35981143D01*
X38884540Y-35526661D01*
X53102758Y-35526661D01*
X53314990Y-36040303D01*
X53707630Y-36433629D01*
X54220900Y-36646757D01*
X54776661Y-36647242D01*
X55290303Y-36435010D01*
X55683629Y-36042370D01*
X55896757Y-35529100D01*
X55897242Y-34973339D01*
X55685010Y-34459697D01*
X55292370Y-34066371D01*
X54779100Y-33853243D01*
X54223339Y-33852758D01*
X53709697Y-34064990D01*
X53316371Y-34457630D01*
X53103243Y-34970900D01*
X53102758Y-35526661D01*
X38884540Y-35526661D01*
X38909144Y-35457698D01*
X38881362Y-34902632D01*
X38722397Y-34518857D01*
X38480213Y-34449392D01*
X37679605Y-35250000D01*
X37320395Y-35250000D01*
X36519787Y-34449392D01*
X36277603Y-34518857D01*
X36090856Y-35042302D01*
X31127000Y-35042302D01*
X31127000Y-34269787D01*
X36699392Y-34269787D01*
X37500000Y-35070395D01*
X38300608Y-34269787D01*
X38231143Y-34027603D01*
X37707698Y-33840856D01*
X37152632Y-33868638D01*
X36768857Y-34027603D01*
X36699392Y-34269787D01*
X31127000Y-34269787D01*
X31127000Y-34052606D01*
X34052606Y-31127000D01*
X120947394Y-31127000D01*
X123873000Y-34052606D01*
X123873000Y-34052606D01*
G37*
X123873000Y-34052606D02*
X123873000Y-93947394D01*
X120947394Y-96873000D01*
X34052606Y-96873000D01*
X31127000Y-93947394D01*
X31127000Y-89720907D01*
X64765000Y-89720907D01*
X64765000Y-90279093D01*
X64859009Y-90751707D01*
X65126723Y-91152370D01*
X65527386Y-91420084D01*
X66000000Y-91514093D01*
X66472614Y-91420084D01*
X66873277Y-91152370D01*
X67000000Y-90962715D01*
X67126723Y-91152370D01*
X67527386Y-91420084D01*
X68000000Y-91514093D01*
X68472614Y-91420084D01*
X68873277Y-91152370D01*
X69000000Y-90962715D01*
X69126723Y-91152370D01*
X69527386Y-91420084D01*
X70000000Y-91514093D01*
X70472614Y-91420084D01*
X70845590Y-91170870D01*
X70861673Y-91209699D01*
X71040302Y-91388327D01*
X71273691Y-91485000D01*
X71714250Y-91485000D01*
X71873000Y-91326250D01*
X71873000Y-90127000D01*
X72127000Y-90127000D01*
X72127000Y-91326250D01*
X72285750Y-91485000D01*
X72726309Y-91485000D01*
X72959698Y-91388327D01*
X73138327Y-91209699D01*
X73235000Y-90976310D01*
X73235000Y-90299040D01*
X81489738Y-90299040D01*
X81719138Y-90854229D01*
X82143537Y-91279370D01*
X82698325Y-91509738D01*
X83299040Y-91510262D01*
X83854229Y-91280862D01*
X84250318Y-90885464D01*
X84643537Y-91279370D01*
X85198325Y-91509738D01*
X85799040Y-91510262D01*
X86354229Y-91280862D01*
X86532203Y-91103198D01*
X86586673Y-91234699D01*
X86765302Y-91413327D01*
X86998691Y-91510000D01*
X87714250Y-91510000D01*
X87873000Y-91351250D01*
X87873000Y-90127000D01*
X88127000Y-90127000D01*
X88127000Y-91351250D01*
X88285750Y-91510000D01*
X89001309Y-91510000D01*
X89234698Y-91413327D01*
X89413327Y-91234699D01*
X89510000Y-91001310D01*
X89510000Y-90285750D01*
X89351250Y-90127000D01*
X88127000Y-90127000D01*
X87873000Y-90127000D01*
X87853000Y-90127000D01*
X87853000Y-89873000D01*
X87873000Y-89873000D01*
X87873000Y-88648750D01*
X88127000Y-88648750D01*
X88127000Y-89873000D01*
X89351250Y-89873000D01*
X89510000Y-89714250D01*
X89510000Y-88998690D01*
X89413327Y-88765301D01*
X89234698Y-88586673D01*
X89001309Y-88490000D01*
X88285750Y-88490000D01*
X88127000Y-88648750D01*
X87873000Y-88648750D01*
X87714250Y-88490000D01*
X86998691Y-88490000D01*
X86765302Y-88586673D01*
X86586673Y-88765301D01*
X86532240Y-88896714D01*
X86356463Y-88720630D01*
X85801675Y-88490262D01*
X85200960Y-88489738D01*
X84645771Y-88719138D01*
X84249682Y-89114536D01*
X83856463Y-88720630D01*
X83301675Y-88490262D01*
X82700960Y-88489738D01*
X82145771Y-88719138D01*
X81720630Y-89143537D01*
X81490262Y-89698325D01*
X81489738Y-90299040D01*
X73235000Y-90299040D01*
X73235000Y-90285750D01*
X73076250Y-90127000D01*
X72127000Y-90127000D01*
X71873000Y-90127000D01*
X71853000Y-90127000D01*
X71853000Y-89873000D01*
X71873000Y-89873000D01*
X71873000Y-88673750D01*
X72127000Y-88673750D01*
X72127000Y-89873000D01*
X73076250Y-89873000D01*
X73235000Y-89714250D01*
X73235000Y-89023690D01*
X73138327Y-88790301D01*
X72959698Y-88611673D01*
X72726309Y-88515000D01*
X72285750Y-88515000D01*
X72127000Y-88673750D01*
X71873000Y-88673750D01*
X71714250Y-88515000D01*
X71273691Y-88515000D01*
X71040302Y-88611673D01*
X70861673Y-88790301D01*
X70845590Y-88829130D01*
X70472614Y-88579916D01*
X70000000Y-88485907D01*
X69527386Y-88579916D01*
X69126723Y-88847630D01*
X69000000Y-89037285D01*
X68873277Y-88847630D01*
X68472614Y-88579916D01*
X68000000Y-88485907D01*
X67527386Y-88579916D01*
X67126723Y-88847630D01*
X67000000Y-89037285D01*
X66873277Y-88847630D01*
X66472614Y-88579916D01*
X66000000Y-88485907D01*
X65527386Y-88579916D01*
X65126723Y-88847630D01*
X64859009Y-89248293D01*
X64765000Y-89720907D01*
X31127000Y-89720907D01*
X31127000Y-83285750D01*
X36490000Y-83285750D01*
X36490000Y-84001310D01*
X36586673Y-84234699D01*
X36765302Y-84413327D01*
X36998691Y-84510000D01*
X37714250Y-84510000D01*
X37873000Y-84351250D01*
X37873000Y-83127000D01*
X36648750Y-83127000D01*
X36490000Y-83285750D01*
X31127000Y-83285750D01*
X31127000Y-81998690D01*
X36490000Y-81998690D01*
X36490000Y-82714250D01*
X36648750Y-82873000D01*
X37873000Y-82873000D01*
X37873000Y-81648750D01*
X38127000Y-81648750D01*
X38127000Y-82873000D01*
X38147000Y-82873000D01*
X38147000Y-83127000D01*
X38127000Y-83127000D01*
X38127000Y-84351250D01*
X38285750Y-84510000D01*
X39001309Y-84510000D01*
X39234698Y-84413327D01*
X39413327Y-84234699D01*
X39467760Y-84103286D01*
X39643537Y-84279370D01*
X40198325Y-84509738D01*
X40799040Y-84510262D01*
X41354229Y-84280862D01*
X41750318Y-83885464D01*
X42143537Y-84279370D01*
X42698325Y-84509738D01*
X43299040Y-84510262D01*
X43854229Y-84280862D01*
X44250318Y-83885464D01*
X44643537Y-84279370D01*
X45198325Y-84509738D01*
X45799040Y-84510262D01*
X46354229Y-84280862D01*
X46750318Y-83885464D01*
X47143537Y-84279370D01*
X47698325Y-84509738D01*
X48299040Y-84510262D01*
X48854229Y-84280862D01*
X49250318Y-83885464D01*
X49643537Y-84279370D01*
X50198325Y-84509738D01*
X50799040Y-84510262D01*
X51354229Y-84280862D01*
X51750318Y-83885464D01*
X52143537Y-84279370D01*
X52698325Y-84509738D01*
X53299040Y-84510262D01*
X53854229Y-84280862D01*
X54250318Y-83885464D01*
X54643537Y-84279370D01*
X55198325Y-84509738D01*
X55799040Y-84510262D01*
X56354229Y-84280862D01*
X56779370Y-83856463D01*
X57009738Y-83301675D01*
X57010262Y-82700960D01*
X56780862Y-82145771D01*
X56356463Y-81720630D01*
X55801675Y-81490262D01*
X55200960Y-81489738D01*
X54645771Y-81719138D01*
X54249682Y-82114536D01*
X53856463Y-81720630D01*
X53301675Y-81490262D01*
X52700960Y-81489738D01*
X52145771Y-81719138D01*
X51749682Y-82114536D01*
X51356463Y-81720630D01*
X50801675Y-81490262D01*
X50200960Y-81489738D01*
X49645771Y-81719138D01*
X49249682Y-82114536D01*
X48856463Y-81720630D01*
X48301675Y-81490262D01*
X47700960Y-81489738D01*
X47145771Y-81719138D01*
X46749682Y-82114536D01*
X46356463Y-81720630D01*
X45801675Y-81490262D01*
X45200960Y-81489738D01*
X44645771Y-81719138D01*
X44249682Y-82114536D01*
X43856463Y-81720630D01*
X43301675Y-81490262D01*
X42700960Y-81489738D01*
X42145771Y-81719138D01*
X41749682Y-82114536D01*
X41356463Y-81720630D01*
X40801675Y-81490262D01*
X40200960Y-81489738D01*
X39645771Y-81719138D01*
X39467797Y-81896802D01*
X39413327Y-81765301D01*
X39234698Y-81586673D01*
X39001309Y-81490000D01*
X38285750Y-81490000D01*
X38127000Y-81648750D01*
X37873000Y-81648750D01*
X37714250Y-81490000D01*
X36998691Y-81490000D01*
X36765302Y-81586673D01*
X36586673Y-81765301D01*
X36490000Y-81998690D01*
X31127000Y-81998690D01*
X31127000Y-75730213D01*
X36699392Y-75730213D01*
X36768857Y-75972397D01*
X37292302Y-76159144D01*
X37847368Y-76131362D01*
X38231143Y-75972397D01*
X38300608Y-75730213D01*
X37500000Y-74929605D01*
X36699392Y-75730213D01*
X31127000Y-75730213D01*
X31127000Y-74542302D01*
X36090856Y-74542302D01*
X36118638Y-75097368D01*
X36277603Y-75481143D01*
X36519787Y-75550608D01*
X37320395Y-74750000D01*
X37679605Y-74750000D01*
X38480213Y-75550608D01*
X38722397Y-75481143D01*
X38884540Y-75026661D01*
X53102758Y-75026661D01*
X53314990Y-75540303D01*
X53707630Y-75933629D01*
X54220900Y-76146757D01*
X54776661Y-76147242D01*
X55290303Y-75935010D01*
X55683629Y-75542370D01*
X55896757Y-75029100D01*
X55897242Y-74473339D01*
X55685010Y-73959697D01*
X55292370Y-73566371D01*
X54779100Y-73353243D01*
X54223339Y-73352758D01*
X53709697Y-73564990D01*
X53316371Y-73957630D01*
X53103243Y-74470900D01*
X53102758Y-75026661D01*
X38884540Y-75026661D01*
X38909144Y-74957698D01*
X38881362Y-74402632D01*
X38722397Y-74018857D01*
X38480213Y-73949392D01*
X37679605Y-74750000D01*
X37320395Y-74750000D01*
X36519787Y-73949392D01*
X36277603Y-74018857D01*
X36090856Y-74542302D01*
X31127000Y-74542302D01*
X31127000Y-73769787D01*
X36699392Y-73769787D01*
X37500000Y-74570395D01*
X38300608Y-73769787D01*
X38231143Y-73527603D01*
X37707698Y-73340856D01*
X37152632Y-73368638D01*
X36768857Y-73527603D01*
X36699392Y-73769787D01*
X31127000Y-73769787D01*
X31127000Y-71800055D01*
X60402581Y-71800055D01*
X60544626Y-72143831D01*
X60577743Y-72177006D01*
X60577743Y-80473806D01*
X60569126Y-80482408D01*
X60426480Y-80825936D01*
X60426156Y-81197902D01*
X60568201Y-81541678D01*
X60830991Y-81804927D01*
X61174519Y-81947573D01*
X61240000Y-81947630D01*
X61240000Y-82437537D01*
X61207808Y-82469673D01*
X61065162Y-82813201D01*
X61064838Y-83185167D01*
X61206883Y-83528943D01*
X61469673Y-83792192D01*
X61813201Y-83934838D01*
X62185167Y-83935162D01*
X62528943Y-83793117D01*
X62792192Y-83530327D01*
X62893749Y-83285750D01*
X98490000Y-83285750D01*
X98490000Y-84001310D01*
X98586673Y-84234699D01*
X98765302Y-84413327D01*
X98998691Y-84510000D01*
X99714250Y-84510000D01*
X99873000Y-84351250D01*
X99873000Y-83127000D01*
X98648750Y-83127000D01*
X98490000Y-83285750D01*
X62893749Y-83285750D01*
X62934838Y-83186799D01*
X62935162Y-82814833D01*
X62793117Y-82471057D01*
X62760000Y-82437882D01*
X62760000Y-81998690D01*
X98490000Y-81998690D01*
X98490000Y-82714250D01*
X98648750Y-82873000D01*
X99873000Y-82873000D01*
X99873000Y-81648750D01*
X100127000Y-81648750D01*
X100127000Y-82873000D01*
X100147000Y-82873000D01*
X100147000Y-83127000D01*
X100127000Y-83127000D01*
X100127000Y-84351250D01*
X100285750Y-84510000D01*
X101001309Y-84510000D01*
X101234698Y-84413327D01*
X101413327Y-84234699D01*
X101467760Y-84103286D01*
X101643537Y-84279370D01*
X102198325Y-84509738D01*
X102799040Y-84510262D01*
X103354229Y-84280862D01*
X103750318Y-83885464D01*
X104143537Y-84279370D01*
X104698325Y-84509738D01*
X105299040Y-84510262D01*
X105854229Y-84280862D01*
X106250318Y-83885464D01*
X106643537Y-84279370D01*
X107198325Y-84509738D01*
X107799040Y-84510262D01*
X108354229Y-84280862D01*
X108750318Y-83885464D01*
X109143537Y-84279370D01*
X109698325Y-84509738D01*
X110299040Y-84510262D01*
X110854229Y-84280862D01*
X111250318Y-83885464D01*
X111643537Y-84279370D01*
X112198325Y-84509738D01*
X112799040Y-84510262D01*
X113354229Y-84280862D01*
X113750318Y-83885464D01*
X114143537Y-84279370D01*
X114698325Y-84509738D01*
X115299040Y-84510262D01*
X115854229Y-84280862D01*
X116250318Y-83885464D01*
X116643537Y-84279370D01*
X117198325Y-84509738D01*
X117799040Y-84510262D01*
X118354229Y-84280862D01*
X118779370Y-83856463D01*
X119009738Y-83301675D01*
X119010262Y-82700960D01*
X118780862Y-82145771D01*
X118356463Y-81720630D01*
X117801675Y-81490262D01*
X117200960Y-81489738D01*
X116645771Y-81719138D01*
X116249682Y-82114536D01*
X115856463Y-81720630D01*
X115301675Y-81490262D01*
X114700960Y-81489738D01*
X114145771Y-81719138D01*
X113749682Y-82114536D01*
X113356463Y-81720630D01*
X112801675Y-81490262D01*
X112200960Y-81489738D01*
X111645771Y-81719138D01*
X111249682Y-82114536D01*
X110856463Y-81720630D01*
X110301675Y-81490262D01*
X109700960Y-81489738D01*
X109145771Y-81719138D01*
X108749682Y-82114536D01*
X108356463Y-81720630D01*
X107801675Y-81490262D01*
X107200960Y-81489738D01*
X106645771Y-81719138D01*
X106249682Y-82114536D01*
X105856463Y-81720630D01*
X105301675Y-81490262D01*
X104700960Y-81489738D01*
X104145771Y-81719138D01*
X103749682Y-82114536D01*
X103356463Y-81720630D01*
X102801675Y-81490262D01*
X102200960Y-81489738D01*
X101645771Y-81719138D01*
X101467797Y-81896802D01*
X101413327Y-81765301D01*
X101234698Y-81586673D01*
X101001309Y-81490000D01*
X100285750Y-81490000D01*
X100127000Y-81648750D01*
X99873000Y-81648750D01*
X99714250Y-81490000D01*
X98998691Y-81490000D01*
X98765302Y-81586673D01*
X98586673Y-81765301D01*
X98490000Y-81998690D01*
X62760000Y-81998690D01*
X62760000Y-77720907D01*
X64765000Y-77720907D01*
X64765000Y-78279093D01*
X64859009Y-78751707D01*
X65126723Y-79152370D01*
X65527386Y-79420084D01*
X66000000Y-79514093D01*
X66472614Y-79420084D01*
X66873277Y-79152370D01*
X67000000Y-78962715D01*
X67126723Y-79152370D01*
X67527386Y-79420084D01*
X68000000Y-79514093D01*
X68472614Y-79420084D01*
X68873277Y-79152370D01*
X69000000Y-78962715D01*
X69126723Y-79152370D01*
X69527386Y-79420084D01*
X70000000Y-79514093D01*
X70472614Y-79420084D01*
X70845590Y-79170870D01*
X70861673Y-79209699D01*
X71040302Y-79388327D01*
X71273691Y-79485000D01*
X71714250Y-79485000D01*
X71873000Y-79326250D01*
X71873000Y-78127000D01*
X72127000Y-78127000D01*
X72127000Y-79326250D01*
X72285750Y-79485000D01*
X72726309Y-79485000D01*
X72959698Y-79388327D01*
X73138327Y-79209699D01*
X73235000Y-78976310D01*
X73235000Y-78299040D01*
X81489738Y-78299040D01*
X81719138Y-78854229D01*
X82143537Y-79279370D01*
X82698325Y-79509738D01*
X83299040Y-79510262D01*
X83854229Y-79280862D01*
X84250318Y-78885464D01*
X84643537Y-79279370D01*
X85198325Y-79509738D01*
X85799040Y-79510262D01*
X86354229Y-79280862D01*
X86532203Y-79103198D01*
X86586673Y-79234699D01*
X86765302Y-79413327D01*
X86998691Y-79510000D01*
X87714250Y-79510000D01*
X87873000Y-79351250D01*
X87873000Y-78127000D01*
X88127000Y-78127000D01*
X88127000Y-79351250D01*
X88285750Y-79510000D01*
X89001309Y-79510000D01*
X89234698Y-79413327D01*
X89413327Y-79234699D01*
X89510000Y-79001310D01*
X89510000Y-78285750D01*
X89351250Y-78127000D01*
X88127000Y-78127000D01*
X87873000Y-78127000D01*
X87853000Y-78127000D01*
X87853000Y-77873000D01*
X87873000Y-77873000D01*
X87873000Y-76648750D01*
X88127000Y-76648750D01*
X88127000Y-77873000D01*
X89351250Y-77873000D01*
X89510000Y-77714250D01*
X89510000Y-76998690D01*
X89413327Y-76765301D01*
X89234698Y-76586673D01*
X89001309Y-76490000D01*
X88285750Y-76490000D01*
X88127000Y-76648750D01*
X87873000Y-76648750D01*
X87714250Y-76490000D01*
X86998691Y-76490000D01*
X86765302Y-76586673D01*
X86586673Y-76765301D01*
X86532240Y-76896714D01*
X86356463Y-76720630D01*
X85801675Y-76490262D01*
X85200960Y-76489738D01*
X84645771Y-76719138D01*
X84249682Y-77114536D01*
X83856463Y-76720630D01*
X83301675Y-76490262D01*
X82700960Y-76489738D01*
X82145771Y-76719138D01*
X81720630Y-77143537D01*
X81490262Y-77698325D01*
X81489738Y-78299040D01*
X73235000Y-78299040D01*
X73235000Y-78285750D01*
X73076250Y-78127000D01*
X72127000Y-78127000D01*
X71873000Y-78127000D01*
X71853000Y-78127000D01*
X71853000Y-77873000D01*
X71873000Y-77873000D01*
X71873000Y-76673750D01*
X72127000Y-76673750D01*
X72127000Y-77873000D01*
X73076250Y-77873000D01*
X73235000Y-77714250D01*
X73235000Y-77023690D01*
X73138327Y-76790301D01*
X72959698Y-76611673D01*
X72726309Y-76515000D01*
X72285750Y-76515000D01*
X72127000Y-76673750D01*
X71873000Y-76673750D01*
X71714250Y-76515000D01*
X71273691Y-76515000D01*
X71040302Y-76611673D01*
X70861673Y-76790301D01*
X70845590Y-76829130D01*
X70472614Y-76579916D01*
X70000000Y-76485907D01*
X69527386Y-76579916D01*
X69126723Y-76847630D01*
X69000000Y-77037285D01*
X68873277Y-76847630D01*
X68472614Y-76579916D01*
X68000000Y-76485907D01*
X67527386Y-76579916D01*
X67126723Y-76847630D01*
X67000000Y-77037285D01*
X66873277Y-76847630D01*
X66472614Y-76579916D01*
X66000000Y-76485907D01*
X65527386Y-76579916D01*
X65126723Y-76847630D01*
X64859009Y-77248293D01*
X64765000Y-77720907D01*
X62760000Y-77720907D01*
X62760000Y-72384272D01*
X62904475Y-72324576D01*
X62933599Y-72295502D01*
X72682170Y-72295502D01*
X72824215Y-72639278D01*
X73087005Y-72902527D01*
X73430533Y-73045173D01*
X73802499Y-73045497D01*
X74146275Y-72903452D01*
X74409524Y-72640662D01*
X74552170Y-72297134D01*
X74552494Y-71925168D01*
X74410449Y-71581392D01*
X74377332Y-71548217D01*
X74377332Y-68909964D01*
X75526364Y-67760932D01*
X75571851Y-67760972D01*
X75915627Y-67618927D01*
X76178876Y-67356137D01*
X76321522Y-67012609D01*
X76321745Y-66756400D01*
X77708960Y-66756400D01*
X77708960Y-68483600D01*
X77753238Y-68718917D01*
X77892310Y-68935041D01*
X78104510Y-69080031D01*
X78356400Y-69131040D01*
X80083600Y-69131040D01*
X80318917Y-69086762D01*
X80535041Y-68947690D01*
X80680031Y-68735490D01*
X80692852Y-68672180D01*
X80910003Y-68889710D01*
X81460602Y-69118339D01*
X82056782Y-69118859D01*
X82607780Y-68891192D01*
X83029710Y-68469997D01*
X83030095Y-68469069D01*
X83450003Y-68889710D01*
X84000602Y-69118339D01*
X84596782Y-69118859D01*
X85147780Y-68891192D01*
X85365546Y-68673805D01*
X85965800Y-68673805D01*
X86047741Y-68926516D01*
X86608030Y-69130248D01*
X87203635Y-69104058D01*
X87632259Y-68926516D01*
X87714200Y-68673805D01*
X86840000Y-67799605D01*
X85965800Y-68673805D01*
X85365546Y-68673805D01*
X85569710Y-68469997D01*
X85586541Y-68429463D01*
X85786195Y-68494200D01*
X86660395Y-67620000D01*
X87019605Y-67620000D01*
X87893805Y-68494200D01*
X88093033Y-68429601D01*
X88108808Y-68467780D01*
X88530003Y-68889710D01*
X89080602Y-69118339D01*
X89676782Y-69118859D01*
X90227780Y-68891192D01*
X90649710Y-68469997D01*
X90650095Y-68469069D01*
X91070003Y-68889710D01*
X91620602Y-69118339D01*
X92216782Y-69118859D01*
X92767780Y-68891192D01*
X93189710Y-68469997D01*
X93190095Y-68469069D01*
X93610003Y-68889710D01*
X94160602Y-69118339D01*
X94756782Y-69118859D01*
X95307780Y-68891192D01*
X95729710Y-68469997D01*
X95730095Y-68469069D01*
X96150003Y-68889710D01*
X96700602Y-69118339D01*
X97296782Y-69118859D01*
X97847780Y-68891192D01*
X98269710Y-68469997D01*
X98270095Y-68469069D01*
X98690003Y-68889710D01*
X99240602Y-69118339D01*
X99836782Y-69118859D01*
X100387780Y-68891192D01*
X100809710Y-68469997D01*
X100810095Y-68469069D01*
X101230003Y-68889710D01*
X101780602Y-69118339D01*
X102376782Y-69118859D01*
X102927780Y-68891192D01*
X103349710Y-68469997D01*
X103350095Y-68469069D01*
X103770003Y-68889710D01*
X104320602Y-69118339D01*
X104916782Y-69118859D01*
X105467780Y-68891192D01*
X105889710Y-68469997D01*
X105890095Y-68469069D01*
X106310003Y-68889710D01*
X106860602Y-69118339D01*
X107456782Y-69118859D01*
X108007780Y-68891192D01*
X108429710Y-68469997D01*
X108430095Y-68469069D01*
X108850003Y-68889710D01*
X109400602Y-69118339D01*
X109996782Y-69118859D01*
X110547780Y-68891192D01*
X110969710Y-68469997D01*
X110970095Y-68469069D01*
X111390003Y-68889710D01*
X111940602Y-69118339D01*
X112536782Y-69118859D01*
X113087780Y-68891192D01*
X113509710Y-68469997D01*
X113510095Y-68469069D01*
X113930003Y-68889710D01*
X114480602Y-69118339D01*
X115076782Y-69118859D01*
X115627780Y-68891192D01*
X116049710Y-68469997D01*
X116278339Y-67919398D01*
X116278859Y-67323218D01*
X116051192Y-66772220D01*
X115629997Y-66350290D01*
X115079398Y-66121661D01*
X114483218Y-66121141D01*
X113932220Y-66348808D01*
X113510290Y-66770003D01*
X113509905Y-66770931D01*
X113089997Y-66350290D01*
X112539398Y-66121661D01*
X111943218Y-66121141D01*
X111392220Y-66348808D01*
X110970290Y-66770003D01*
X110969905Y-66770931D01*
X110549997Y-66350290D01*
X109999398Y-66121661D01*
X109403218Y-66121141D01*
X108852220Y-66348808D01*
X108430290Y-66770003D01*
X108429905Y-66770931D01*
X108009997Y-66350290D01*
X107459398Y-66121661D01*
X106863218Y-66121141D01*
X106312220Y-66348808D01*
X105890290Y-66770003D01*
X105889905Y-66770931D01*
X105469997Y-66350290D01*
X104919398Y-66121661D01*
X104323218Y-66121141D01*
X103772220Y-66348808D01*
X103350290Y-66770003D01*
X103349905Y-66770931D01*
X102929997Y-66350290D01*
X102379398Y-66121661D01*
X101783218Y-66121141D01*
X101232220Y-66348808D01*
X100810290Y-66770003D01*
X100809905Y-66770931D01*
X100389997Y-66350290D01*
X99839398Y-66121661D01*
X99243218Y-66121141D01*
X98692220Y-66348808D01*
X98270290Y-66770003D01*
X98269905Y-66770931D01*
X97849997Y-66350290D01*
X97299398Y-66121661D01*
X96703218Y-66121141D01*
X96152220Y-66348808D01*
X95730290Y-66770003D01*
X95729905Y-66770931D01*
X95309997Y-66350290D01*
X94759398Y-66121661D01*
X94163218Y-66121141D01*
X93612220Y-66348808D01*
X93190290Y-66770003D01*
X93189905Y-66770931D01*
X92769997Y-66350290D01*
X92219398Y-66121661D01*
X91623218Y-66121141D01*
X91072220Y-66348808D01*
X90650290Y-66770003D01*
X90649905Y-66770931D01*
X90229997Y-66350290D01*
X89679398Y-66121661D01*
X89083218Y-66121141D01*
X88532220Y-66348808D01*
X88110290Y-66770003D01*
X88093459Y-66810537D01*
X87893805Y-66745800D01*
X87019605Y-67620000D01*
X86660395Y-67620000D01*
X85786195Y-66745800D01*
X85586967Y-66810399D01*
X85571192Y-66772220D01*
X85365526Y-66566195D01*
X85965800Y-66566195D01*
X86840000Y-67440395D01*
X87714200Y-66566195D01*
X87632259Y-66313484D01*
X87071970Y-66109752D01*
X86476365Y-66135942D01*
X86047741Y-66313484D01*
X85965800Y-66566195D01*
X85365526Y-66566195D01*
X85149997Y-66350290D01*
X84599398Y-66121661D01*
X84003218Y-66121141D01*
X83452220Y-66348808D01*
X83030290Y-66770003D01*
X83029905Y-66770931D01*
X82609997Y-66350290D01*
X82059398Y-66121661D01*
X81463218Y-66121141D01*
X80912220Y-66348808D01*
X80695124Y-66565525D01*
X80686762Y-66521083D01*
X80547690Y-66304959D01*
X80335490Y-66159969D01*
X80083600Y-66108960D01*
X78356400Y-66108960D01*
X78121083Y-66153238D01*
X77904959Y-66292310D01*
X77759969Y-66504510D01*
X77708960Y-66756400D01*
X76321745Y-66756400D01*
X76321846Y-66640643D01*
X76179801Y-66296867D01*
X75917011Y-66033618D01*
X75573483Y-65890972D01*
X75201517Y-65890648D01*
X74857741Y-66032693D01*
X74594492Y-66295483D01*
X74451846Y-66639011D01*
X74451805Y-66685887D01*
X73079931Y-68057761D01*
X72915184Y-68304323D01*
X72857332Y-68595162D01*
X72857332Y-71547872D01*
X72825140Y-71580008D01*
X72682494Y-71923536D01*
X72682170Y-72295502D01*
X62933599Y-72295502D01*
X63167724Y-72061786D01*
X63310370Y-71718258D01*
X63310694Y-71346292D01*
X63168649Y-71002516D01*
X62905859Y-70739267D01*
X62562331Y-70596621D01*
X62190365Y-70596297D01*
X61846589Y-70738342D01*
X61793222Y-70791616D01*
X61524542Y-70680050D01*
X61152576Y-70679726D01*
X60808800Y-70821771D01*
X60545551Y-71084561D01*
X60402905Y-71428089D01*
X60402581Y-71800055D01*
X31127000Y-71800055D01*
X31127000Y-64350000D01*
X62702560Y-64350000D01*
X62702560Y-65650000D01*
X62746838Y-65885317D01*
X62885910Y-66101441D01*
X63098110Y-66246431D01*
X63350000Y-66297440D01*
X64650000Y-66297440D01*
X64885317Y-66253162D01*
X65101441Y-66114090D01*
X65246431Y-65901890D01*
X65297440Y-65650000D01*
X65297440Y-64350000D01*
X65253162Y-64114683D01*
X65114090Y-63898559D01*
X64901890Y-63753569D01*
X64650000Y-63702560D01*
X63350000Y-63702560D01*
X63114683Y-63746838D01*
X62898559Y-63885910D01*
X62753569Y-64098110D01*
X62702560Y-64350000D01*
X31127000Y-64350000D01*
X31127000Y-60899016D01*
X63280590Y-60899016D01*
X63336271Y-61129611D01*
X63819078Y-61297622D01*
X64329428Y-61268083D01*
X64663729Y-61129611D01*
X64719410Y-60899016D01*
X64000000Y-60179605D01*
X63280590Y-60899016D01*
X31127000Y-60899016D01*
X31127000Y-59819078D01*
X62702378Y-59819078D01*
X62731917Y-60329428D01*
X62870389Y-60663729D01*
X63100984Y-60719410D01*
X63820395Y-60000000D01*
X64179605Y-60000000D01*
X64899016Y-60719410D01*
X65129611Y-60663729D01*
X65297622Y-60180922D01*
X65268083Y-59670572D01*
X65129611Y-59336271D01*
X64899016Y-59280590D01*
X64179605Y-60000000D01*
X63820395Y-60000000D01*
X63100984Y-59280590D01*
X62870389Y-59336271D01*
X62702378Y-59819078D01*
X31127000Y-59819078D01*
X31127000Y-59100984D01*
X63280590Y-59100984D01*
X64000000Y-59820395D01*
X64719410Y-59100984D01*
X64663729Y-58870389D01*
X64180922Y-58702378D01*
X63670572Y-58731917D01*
X63336271Y-58870389D01*
X63280590Y-59100984D01*
X31127000Y-59100984D01*
X31127000Y-52676782D01*
X77721141Y-52676782D01*
X77948808Y-53227780D01*
X78370003Y-53649710D01*
X78920602Y-53878339D01*
X79516782Y-53878859D01*
X80067780Y-53651192D01*
X80285546Y-53433805D01*
X80885800Y-53433805D01*
X80967741Y-53686516D01*
X81528030Y-53890248D01*
X82123635Y-53864058D01*
X82552259Y-53686516D01*
X82634200Y-53433805D01*
X81760000Y-52559605D01*
X80885800Y-53433805D01*
X80285546Y-53433805D01*
X80489710Y-53229997D01*
X80506541Y-53189463D01*
X80706195Y-53254200D01*
X81580395Y-52380000D01*
X81939605Y-52380000D01*
X82813805Y-53254200D01*
X83013033Y-53189601D01*
X83028808Y-53227780D01*
X83450003Y-53649710D01*
X84000602Y-53878339D01*
X84596782Y-53878859D01*
X85147780Y-53651192D01*
X85569710Y-53229997D01*
X85570095Y-53229069D01*
X85990003Y-53649710D01*
X86540602Y-53878339D01*
X87136782Y-53878859D01*
X87687780Y-53651192D01*
X88109710Y-53229997D01*
X88110095Y-53229069D01*
X88530003Y-53649710D01*
X89080602Y-53878339D01*
X89676782Y-53878859D01*
X90227780Y-53651192D01*
X90649710Y-53229997D01*
X90650095Y-53229069D01*
X91070003Y-53649710D01*
X91620602Y-53878339D01*
X92216782Y-53878859D01*
X92767780Y-53651192D01*
X93189710Y-53229997D01*
X93190095Y-53229069D01*
X93610003Y-53649710D01*
X94160602Y-53878339D01*
X94756782Y-53878859D01*
X95307780Y-53651192D01*
X95729710Y-53229997D01*
X95730095Y-53229069D01*
X96150003Y-53649710D01*
X96700602Y-53878339D01*
X97296782Y-53878859D01*
X97847780Y-53651192D01*
X98269710Y-53229997D01*
X98270095Y-53229069D01*
X98690003Y-53649710D01*
X99240602Y-53878339D01*
X99836782Y-53878859D01*
X100387780Y-53651192D01*
X100809710Y-53229997D01*
X100810095Y-53229069D01*
X101230003Y-53649710D01*
X101780602Y-53878339D01*
X102376782Y-53878859D01*
X102927780Y-53651192D01*
X103349710Y-53229997D01*
X103350095Y-53229069D01*
X103770003Y-53649710D01*
X104320602Y-53878339D01*
X104916782Y-53878859D01*
X105467780Y-53651192D01*
X105889710Y-53229997D01*
X105890095Y-53229069D01*
X106310003Y-53649710D01*
X106860602Y-53878339D01*
X107456782Y-53878859D01*
X108007780Y-53651192D01*
X108429710Y-53229997D01*
X108430095Y-53229069D01*
X108850003Y-53649710D01*
X109400602Y-53878339D01*
X109996782Y-53878859D01*
X110547780Y-53651192D01*
X110969710Y-53229997D01*
X110970095Y-53229069D01*
X111390003Y-53649710D01*
X111940602Y-53878339D01*
X112536782Y-53878859D01*
X113087780Y-53651192D01*
X113509710Y-53229997D01*
X113510095Y-53229069D01*
X113930003Y-53649710D01*
X114480602Y-53878339D01*
X115076782Y-53878859D01*
X115627780Y-53651192D01*
X116049710Y-53229997D01*
X116278339Y-52679398D01*
X116278859Y-52083218D01*
X116051192Y-51532220D01*
X115629997Y-51110290D01*
X115079398Y-50881661D01*
X114483218Y-50881141D01*
X113932220Y-51108808D01*
X113510290Y-51530003D01*
X113509905Y-51530931D01*
X113089997Y-51110290D01*
X112539398Y-50881661D01*
X111943218Y-50881141D01*
X111392220Y-51108808D01*
X110970290Y-51530003D01*
X110969905Y-51530931D01*
X110549997Y-51110290D01*
X109999398Y-50881661D01*
X109403218Y-50881141D01*
X108852220Y-51108808D01*
X108430290Y-51530003D01*
X108429905Y-51530931D01*
X108009997Y-51110290D01*
X107459398Y-50881661D01*
X106863218Y-50881141D01*
X106312220Y-51108808D01*
X105890290Y-51530003D01*
X105889905Y-51530931D01*
X105469997Y-51110290D01*
X104919398Y-50881661D01*
X104323218Y-50881141D01*
X103772220Y-51108808D01*
X103350290Y-51530003D01*
X103349905Y-51530931D01*
X102929997Y-51110290D01*
X102379398Y-50881661D01*
X101783218Y-50881141D01*
X101232220Y-51108808D01*
X100810290Y-51530003D01*
X100809905Y-51530931D01*
X100389997Y-51110290D01*
X99839398Y-50881661D01*
X99243218Y-50881141D01*
X98692220Y-51108808D01*
X98270290Y-51530003D01*
X98269905Y-51530931D01*
X97849997Y-51110290D01*
X97299398Y-50881661D01*
X96703218Y-50881141D01*
X96152220Y-51108808D01*
X95730290Y-51530003D01*
X95729905Y-51530931D01*
X95309997Y-51110290D01*
X94759398Y-50881661D01*
X94163218Y-50881141D01*
X93612220Y-51108808D01*
X93190290Y-51530003D01*
X93189905Y-51530931D01*
X92769997Y-51110290D01*
X92219398Y-50881661D01*
X91623218Y-50881141D01*
X91072220Y-51108808D01*
X90650290Y-51530003D01*
X90649905Y-51530931D01*
X90229997Y-51110290D01*
X89679398Y-50881661D01*
X89083218Y-50881141D01*
X88532220Y-51108808D01*
X88110290Y-51530003D01*
X88109905Y-51530931D01*
X87689997Y-51110290D01*
X87139398Y-50881661D01*
X86543218Y-50881141D01*
X85992220Y-51108808D01*
X85570290Y-51530003D01*
X85569905Y-51530931D01*
X85149997Y-51110290D01*
X84599398Y-50881661D01*
X84003218Y-50881141D01*
X83452220Y-51108808D01*
X83030290Y-51530003D01*
X83013459Y-51570537D01*
X82813805Y-51505800D01*
X81939605Y-52380000D01*
X81580395Y-52380000D01*
X80706195Y-51505800D01*
X80506967Y-51570399D01*
X80491192Y-51532220D01*
X80285526Y-51326195D01*
X80885800Y-51326195D01*
X81760000Y-52200395D01*
X82634200Y-51326195D01*
X82552259Y-51073484D01*
X81991970Y-50869752D01*
X81396365Y-50895942D01*
X80967741Y-51073484D01*
X80885800Y-51326195D01*
X80285526Y-51326195D01*
X80069997Y-51110290D01*
X79519398Y-50881661D01*
X78923218Y-50881141D01*
X78372220Y-51108808D01*
X77950290Y-51530003D01*
X77721661Y-52080602D01*
X77721141Y-52676782D01*
X31127000Y-52676782D01*
X31127000Y-41249940D01*
X101402360Y-41249940D01*
X101402360Y-44750060D01*
X101446638Y-44985377D01*
X101585710Y-45201501D01*
X101797910Y-45346491D01*
X102049800Y-45397500D01*
X105549920Y-45397500D01*
X105785237Y-45353222D01*
X106001361Y-45214150D01*
X106146351Y-45001950D01*
X106197360Y-44750060D01*
X106197360Y-43285750D01*
X107414280Y-43285750D01*
X107414280Y-44876370D01*
X107510953Y-45109759D01*
X107689582Y-45288387D01*
X107922971Y-45385060D01*
X109513590Y-45385060D01*
X109672340Y-45226310D01*
X109672340Y-43127000D01*
X109926340Y-43127000D01*
X109926340Y-45226310D01*
X110085090Y-45385060D01*
X111675709Y-45385060D01*
X111909098Y-45288387D01*
X112087727Y-45109759D01*
X112184400Y-44876370D01*
X112184400Y-43285750D01*
X112025650Y-43127000D01*
X109926340Y-43127000D01*
X109672340Y-43127000D01*
X107573030Y-43127000D01*
X107414280Y-43285750D01*
X106197360Y-43285750D01*
X106197360Y-41249940D01*
X106153082Y-41014623D01*
X106014010Y-40798499D01*
X105867657Y-40698500D01*
X107721240Y-40698500D01*
X107689582Y-40711613D01*
X107510953Y-40890241D01*
X107414280Y-41123630D01*
X107414280Y-42714250D01*
X107573030Y-42873000D01*
X109672340Y-42873000D01*
X109672340Y-40773690D01*
X109926340Y-40773690D01*
X109926340Y-42873000D01*
X112025650Y-42873000D01*
X112184400Y-42714250D01*
X112184400Y-41123630D01*
X112087727Y-40890241D01*
X111909098Y-40711613D01*
X111675709Y-40614940D01*
X110085090Y-40614940D01*
X109926340Y-40773690D01*
X109672340Y-40773690D01*
X109513590Y-40614940D01*
X108846023Y-40614940D01*
X109001101Y-40515150D01*
X109146091Y-40302950D01*
X109197100Y-40051060D01*
X109197100Y-36550940D01*
X109152822Y-36315623D01*
X109013750Y-36099499D01*
X108801550Y-35954509D01*
X108549660Y-35903500D01*
X105049540Y-35903500D01*
X104814223Y-35947778D01*
X104598099Y-36086850D01*
X104453109Y-36299050D01*
X104402100Y-36550940D01*
X104402100Y-40051060D01*
X104446378Y-40286377D01*
X104585450Y-40502501D01*
X104731803Y-40602500D01*
X102049800Y-40602500D01*
X101814483Y-40646778D01*
X101598359Y-40785850D01*
X101453369Y-40998050D01*
X101402360Y-41249940D01*
X31127000Y-41249940D01*
X31127000Y-39264086D01*
X87126269Y-39264086D01*
X87328854Y-39754380D01*
X87703647Y-40129827D01*
X88193587Y-40333268D01*
X88724086Y-40333731D01*
X89214380Y-40131146D01*
X89589827Y-39756353D01*
X89730094Y-39418554D01*
X89868854Y-39754380D01*
X90243647Y-40129827D01*
X90733587Y-40333268D01*
X91264086Y-40333731D01*
X91754380Y-40131146D01*
X92129827Y-39756353D01*
X92194060Y-39601663D01*
X92194060Y-39698500D01*
X92238338Y-39933817D01*
X92377410Y-40149941D01*
X92589610Y-40294931D01*
X92841500Y-40345940D01*
X94238500Y-40345940D01*
X94473817Y-40301662D01*
X94689941Y-40162590D01*
X94834931Y-39950390D01*
X94885940Y-39698500D01*
X94885940Y-38301500D01*
X94841662Y-38066183D01*
X94702590Y-37850059D01*
X94490390Y-37705069D01*
X94238500Y-37654060D01*
X92841500Y-37654060D01*
X92606183Y-37698338D01*
X92390059Y-37837410D01*
X92245069Y-38049610D01*
X92194060Y-38301500D01*
X92194060Y-38397884D01*
X92131146Y-38245620D01*
X91756353Y-37870173D01*
X91266413Y-37666732D01*
X90735914Y-37666269D01*
X90245620Y-37868854D01*
X89870173Y-38243647D01*
X89729906Y-38581446D01*
X89591146Y-38245620D01*
X89216353Y-37870173D01*
X88726413Y-37666732D01*
X88195914Y-37666269D01*
X87705620Y-37868854D01*
X87330173Y-38243647D01*
X87126732Y-38733587D01*
X87126269Y-39264086D01*
X31127000Y-39264086D01*
X31127000Y-36230213D01*
X36699392Y-36230213D01*
X36768857Y-36472397D01*
X37292302Y-36659144D01*
X37847368Y-36631362D01*
X38231143Y-36472397D01*
X38300608Y-36230213D01*
X37500000Y-35429605D01*
X36699392Y-36230213D01*
X31127000Y-36230213D01*
X31127000Y-35042302D01*
X36090856Y-35042302D01*
X36118638Y-35597368D01*
X36277603Y-35981143D01*
X36519787Y-36050608D01*
X37320395Y-35250000D01*
X37679605Y-35250000D01*
X38480213Y-36050608D01*
X38722397Y-35981143D01*
X38884540Y-35526661D01*
X53102758Y-35526661D01*
X53314990Y-36040303D01*
X53707630Y-36433629D01*
X54220900Y-36646757D01*
X54776661Y-36647242D01*
X55290303Y-36435010D01*
X55683629Y-36042370D01*
X55896757Y-35529100D01*
X55897242Y-34973339D01*
X55685010Y-34459697D01*
X55292370Y-34066371D01*
X54779100Y-33853243D01*
X54223339Y-33852758D01*
X53709697Y-34064990D01*
X53316371Y-34457630D01*
X53103243Y-34970900D01*
X53102758Y-35526661D01*
X38884540Y-35526661D01*
X38909144Y-35457698D01*
X38881362Y-34902632D01*
X38722397Y-34518857D01*
X38480213Y-34449392D01*
X37679605Y-35250000D01*
X37320395Y-35250000D01*
X36519787Y-34449392D01*
X36277603Y-34518857D01*
X36090856Y-35042302D01*
X31127000Y-35042302D01*
X31127000Y-34269787D01*
X36699392Y-34269787D01*
X37500000Y-35070395D01*
X38300608Y-34269787D01*
X38231143Y-34027603D01*
X37707698Y-33840856D01*
X37152632Y-33868638D01*
X36768857Y-34027603D01*
X36699392Y-34269787D01*
X31127000Y-34269787D01*
X31127000Y-34052606D01*
X34052606Y-31127000D01*
X120947394Y-31127000D01*
X123873000Y-34052606D01*
M02*
