G04 #@! TF.FileFunction,Legend,Top*
%FSLAX46Y46*%
G04 Gerber Fmt 4.6, Leading zero omitted, Abs format (unit mm)*
G04 Created by KiCad (PCBNEW 4.0.3+e1-6302~38~ubuntu15.04.1-stable) date Sun Sep 25 07:10:45 2016*
%MOMM*%
%LPD*%
G01*
G04 APERTURE LIST*
%ADD10C,0.100000*%
%ADD11C,0.300000*%
%ADD12C,0.150000*%
G04 APERTURE END LIST*
D10*
X46452381Y-65428573D02*
X46452381Y-65904764D01*
X45452381Y-65904764D01*
X46452381Y-65095240D02*
X45452381Y-65095240D01*
X46166667Y-64761906D01*
X45452381Y-64428573D01*
X46452381Y-64428573D01*
X45547619Y-64000002D02*
X45500000Y-63952383D01*
X45452381Y-63857145D01*
X45452381Y-63619049D01*
X45500000Y-63523811D01*
X45547619Y-63476192D01*
X45642857Y-63428573D01*
X45738095Y-63428573D01*
X45880952Y-63476192D01*
X46452381Y-64047621D01*
X46452381Y-63428573D01*
X45452381Y-62523811D02*
X45452381Y-63000002D01*
X45928571Y-63047621D01*
X45880952Y-63000002D01*
X45833333Y-62904764D01*
X45833333Y-62666668D01*
X45880952Y-62571430D01*
X45928571Y-62523811D01*
X46023810Y-62476192D01*
X46261905Y-62476192D01*
X46357143Y-62523811D01*
X46404762Y-62571430D01*
X46452381Y-62666668D01*
X46452381Y-62904764D01*
X46404762Y-63000002D01*
X46357143Y-63047621D01*
X46452381Y-62000002D02*
X46452381Y-61809526D01*
X46404762Y-61714287D01*
X46357143Y-61666668D01*
X46214286Y-61571430D01*
X46023810Y-61523811D01*
X45642857Y-61523811D01*
X45547619Y-61571430D01*
X45500000Y-61619049D01*
X45452381Y-61714287D01*
X45452381Y-61904764D01*
X45500000Y-62000002D01*
X45547619Y-62047621D01*
X45642857Y-62095240D01*
X45880952Y-62095240D01*
X45976190Y-62047621D01*
X46023810Y-62000002D01*
X46071429Y-61904764D01*
X46071429Y-61714287D01*
X46023810Y-61619049D01*
X45976190Y-61571430D01*
X45880952Y-61523811D01*
X45452381Y-60666668D02*
X45452381Y-60857145D01*
X45500000Y-60952383D01*
X45547619Y-61000002D01*
X45690476Y-61095240D01*
X45880952Y-61142859D01*
X46261905Y-61142859D01*
X46357143Y-61095240D01*
X46404762Y-61047621D01*
X46452381Y-60952383D01*
X46452381Y-60761906D01*
X46404762Y-60666668D01*
X46357143Y-60619049D01*
X46261905Y-60571430D01*
X46023810Y-60571430D01*
X45928571Y-60619049D01*
X45880952Y-60666668D01*
X45833333Y-60761906D01*
X45833333Y-60952383D01*
X45880952Y-61047621D01*
X45928571Y-61095240D01*
X46023810Y-61142859D01*
X45452381Y-58904763D02*
X45452381Y-59380954D01*
X45928571Y-59428573D01*
X45880952Y-59380954D01*
X45833333Y-59285716D01*
X45833333Y-59047620D01*
X45880952Y-58952382D01*
X45928571Y-58904763D01*
X46023810Y-58857144D01*
X46261905Y-58857144D01*
X46357143Y-58904763D01*
X46404762Y-58952382D01*
X46452381Y-59047620D01*
X46452381Y-59285716D01*
X46404762Y-59380954D01*
X46357143Y-59428573D01*
X45452381Y-58571430D02*
X46452381Y-58238097D01*
X45452381Y-57904763D01*
X46452381Y-56238096D02*
X45976190Y-56571430D01*
X46452381Y-56809525D02*
X45452381Y-56809525D01*
X45452381Y-56428572D01*
X45500000Y-56333334D01*
X45547619Y-56285715D01*
X45642857Y-56238096D01*
X45785714Y-56238096D01*
X45880952Y-56285715D01*
X45928571Y-56333334D01*
X45976190Y-56428572D01*
X45976190Y-56809525D01*
X46404762Y-55428572D02*
X46452381Y-55523810D01*
X46452381Y-55714287D01*
X46404762Y-55809525D01*
X46309524Y-55857144D01*
X45928571Y-55857144D01*
X45833333Y-55809525D01*
X45785714Y-55714287D01*
X45785714Y-55523810D01*
X45833333Y-55428572D01*
X45928571Y-55380953D01*
X46023810Y-55380953D01*
X46119048Y-55857144D01*
X45785714Y-54523810D02*
X46595238Y-54523810D01*
X46690476Y-54571429D01*
X46738095Y-54619048D01*
X46785714Y-54714287D01*
X46785714Y-54857144D01*
X46738095Y-54952382D01*
X46404762Y-54523810D02*
X46452381Y-54619048D01*
X46452381Y-54809525D01*
X46404762Y-54904763D01*
X46357143Y-54952382D01*
X46261905Y-55000001D01*
X45976190Y-55000001D01*
X45880952Y-54952382D01*
X45833333Y-54904763D01*
X45785714Y-54809525D01*
X45785714Y-54619048D01*
X45833333Y-54523810D01*
X45785714Y-53619048D02*
X46452381Y-53619048D01*
X45785714Y-54047620D02*
X46309524Y-54047620D01*
X46404762Y-54000001D01*
X46452381Y-53904763D01*
X46452381Y-53761905D01*
X46404762Y-53666667D01*
X46357143Y-53619048D01*
X46452381Y-53000001D02*
X46404762Y-53095239D01*
X46309524Y-53142858D01*
X45452381Y-53142858D01*
X46452381Y-52190476D02*
X45928571Y-52190476D01*
X45833333Y-52238095D01*
X45785714Y-52333333D01*
X45785714Y-52523810D01*
X45833333Y-52619048D01*
X46404762Y-52190476D02*
X46452381Y-52285714D01*
X46452381Y-52523810D01*
X46404762Y-52619048D01*
X46309524Y-52666667D01*
X46214286Y-52666667D01*
X46119048Y-52619048D01*
X46071429Y-52523810D01*
X46071429Y-52285714D01*
X46023810Y-52190476D01*
X45785714Y-51857143D02*
X45785714Y-51476191D01*
X45452381Y-51714286D02*
X46309524Y-51714286D01*
X46404762Y-51666667D01*
X46452381Y-51571429D01*
X46452381Y-51476191D01*
X46452381Y-51000000D02*
X46404762Y-51095238D01*
X46357143Y-51142857D01*
X46261905Y-51190476D01*
X45976190Y-51190476D01*
X45880952Y-51142857D01*
X45833333Y-51095238D01*
X45785714Y-51000000D01*
X45785714Y-50857142D01*
X45833333Y-50761904D01*
X45880952Y-50714285D01*
X45976190Y-50666666D01*
X46261905Y-50666666D01*
X46357143Y-50714285D01*
X46404762Y-50761904D01*
X46452381Y-50857142D01*
X46452381Y-51000000D01*
X46452381Y-50238095D02*
X45785714Y-50238095D01*
X45976190Y-50238095D02*
X45880952Y-50190476D01*
X45833333Y-50142857D01*
X45785714Y-50047619D01*
X45785714Y-49952380D01*
X46452381Y-48857142D02*
X45452381Y-48857142D01*
X46166667Y-48523808D01*
X45452381Y-48190475D01*
X46452381Y-48190475D01*
X46452381Y-47571428D02*
X46404762Y-47666666D01*
X46357143Y-47714285D01*
X46261905Y-47761904D01*
X45976190Y-47761904D01*
X45880952Y-47714285D01*
X45833333Y-47666666D01*
X45785714Y-47571428D01*
X45785714Y-47428570D01*
X45833333Y-47333332D01*
X45880952Y-47285713D01*
X45976190Y-47238094D01*
X46261905Y-47238094D01*
X46357143Y-47285713D01*
X46404762Y-47333332D01*
X46452381Y-47428570D01*
X46452381Y-47571428D01*
X46452381Y-46380951D02*
X45452381Y-46380951D01*
X46404762Y-46380951D02*
X46452381Y-46476189D01*
X46452381Y-46666666D01*
X46404762Y-46761904D01*
X46357143Y-46809523D01*
X46261905Y-46857142D01*
X45976190Y-46857142D01*
X45880952Y-46809523D01*
X45833333Y-46761904D01*
X45785714Y-46666666D01*
X45785714Y-46476189D01*
X45833333Y-46380951D01*
X45785714Y-45476189D02*
X46452381Y-45476189D01*
X45785714Y-45904761D02*
X46309524Y-45904761D01*
X46404762Y-45857142D01*
X46452381Y-45761904D01*
X46452381Y-45619046D01*
X46404762Y-45523808D01*
X46357143Y-45476189D01*
X46452381Y-44857142D02*
X46404762Y-44952380D01*
X46309524Y-44999999D01*
X45452381Y-44999999D01*
X46404762Y-44095236D02*
X46452381Y-44190474D01*
X46452381Y-44380951D01*
X46404762Y-44476189D01*
X46309524Y-44523808D01*
X45928571Y-44523808D01*
X45833333Y-44476189D01*
X45785714Y-44380951D01*
X45785714Y-44190474D01*
X45833333Y-44095236D01*
X45928571Y-44047617D01*
X46023810Y-44047617D01*
X46119048Y-44523808D01*
X115380952Y-95452381D02*
X115047618Y-94976190D01*
X114809523Y-95452381D02*
X114809523Y-94452381D01*
X115190476Y-94452381D01*
X115285714Y-94500000D01*
X115333333Y-94547619D01*
X115380952Y-94642857D01*
X115380952Y-94785714D01*
X115333333Y-94880952D01*
X115285714Y-94928571D01*
X115190476Y-94976190D01*
X114809523Y-94976190D01*
X115809523Y-94928571D02*
X116142857Y-94928571D01*
X116285714Y-95452381D02*
X115809523Y-95452381D01*
X115809523Y-94452381D01*
X116285714Y-94452381D01*
X116571428Y-94452381D02*
X116904761Y-95452381D01*
X117238095Y-94452381D01*
X118523809Y-94452381D02*
X118619048Y-94452381D01*
X118714286Y-94500000D01*
X118761905Y-94547619D01*
X118809524Y-94642857D01*
X118857143Y-94833333D01*
X118857143Y-95071429D01*
X118809524Y-95261905D01*
X118761905Y-95357143D01*
X118714286Y-95404762D01*
X118619048Y-95452381D01*
X118523809Y-95452381D01*
X118428571Y-95404762D01*
X118380952Y-95357143D01*
X118333333Y-95261905D01*
X118285714Y-95071429D01*
X118285714Y-94833333D01*
X118333333Y-94642857D01*
X118380952Y-94547619D01*
X118428571Y-94500000D01*
X118523809Y-94452381D01*
X119809524Y-95452381D02*
X119238095Y-95452381D01*
X119523809Y-95452381D02*
X119523809Y-94452381D01*
X119428571Y-94595238D01*
X119333333Y-94690476D01*
X119238095Y-94738095D01*
X35571429Y-94928571D02*
X35238095Y-94928571D01*
X35238095Y-95452381D02*
X35238095Y-94452381D01*
X35714286Y-94452381D01*
X36047619Y-95166667D02*
X36523810Y-95166667D01*
X35952381Y-95452381D02*
X36285714Y-94452381D01*
X36619048Y-95452381D01*
X37238096Y-94452381D02*
X37238096Y-95166667D01*
X37190476Y-95309524D01*
X37095238Y-95404762D01*
X36952381Y-95452381D01*
X36857143Y-95452381D01*
X38285715Y-95452381D02*
X37952381Y-94976190D01*
X37714286Y-95452381D02*
X37714286Y-94452381D01*
X38095239Y-94452381D01*
X38190477Y-94500000D01*
X38238096Y-94547619D01*
X38285715Y-94642857D01*
X38285715Y-94785714D01*
X38238096Y-94880952D01*
X38190477Y-94928571D01*
X38095239Y-94976190D01*
X37714286Y-94976190D01*
X38666667Y-95166667D02*
X39142858Y-95166667D01*
X38571429Y-95452381D02*
X38904762Y-94452381D01*
X39238096Y-95452381D01*
X39571429Y-95452381D02*
X39571429Y-94452381D01*
X40142858Y-95452381D01*
X40142858Y-94452381D01*
X41333334Y-94547619D02*
X41380953Y-94500000D01*
X41476191Y-94452381D01*
X41714287Y-94452381D01*
X41809525Y-94500000D01*
X41857144Y-94547619D01*
X41904763Y-94642857D01*
X41904763Y-94738095D01*
X41857144Y-94880952D01*
X41285715Y-95452381D01*
X41904763Y-95452381D01*
X42523810Y-94452381D02*
X42619049Y-94452381D01*
X42714287Y-94500000D01*
X42761906Y-94547619D01*
X42809525Y-94642857D01*
X42857144Y-94833333D01*
X42857144Y-95071429D01*
X42809525Y-95261905D01*
X42761906Y-95357143D01*
X42714287Y-95404762D01*
X42619049Y-95452381D01*
X42523810Y-95452381D01*
X42428572Y-95404762D01*
X42380953Y-95357143D01*
X42333334Y-95261905D01*
X42285715Y-95071429D01*
X42285715Y-94833333D01*
X42333334Y-94642857D01*
X42380953Y-94547619D01*
X42428572Y-94500000D01*
X42523810Y-94452381D01*
X43809525Y-95452381D02*
X43238096Y-95452381D01*
X43523810Y-95452381D02*
X43523810Y-94452381D01*
X43428572Y-94595238D01*
X43333334Y-94690476D01*
X43238096Y-94738095D01*
X44666668Y-94452381D02*
X44476191Y-94452381D01*
X44380953Y-94500000D01*
X44333334Y-94547619D01*
X44238096Y-94690476D01*
X44190477Y-94880952D01*
X44190477Y-95261905D01*
X44238096Y-95357143D01*
X44285715Y-95404762D01*
X44380953Y-95452381D01*
X44571430Y-95452381D01*
X44666668Y-95404762D01*
X44714287Y-95357143D01*
X44761906Y-95261905D01*
X44761906Y-95023810D01*
X44714287Y-94928571D01*
X44666668Y-94880952D01*
X44571430Y-94833333D01*
X44380953Y-94833333D01*
X44285715Y-94880952D01*
X44238096Y-94928571D01*
X44190477Y-95023810D01*
D11*
X60047619Y-35904762D02*
X59857143Y-35809524D01*
X59761904Y-35619048D01*
X59761904Y-33904762D01*
X60809523Y-35904762D02*
X60809523Y-34571429D01*
X60809523Y-33904762D02*
X60714285Y-34000000D01*
X60809523Y-34095238D01*
X60904762Y-34000000D01*
X60809523Y-33904762D01*
X60809523Y-34095238D01*
X62619047Y-34571429D02*
X62619047Y-36190476D01*
X62523809Y-36380952D01*
X62428571Y-36476190D01*
X62238095Y-36571429D01*
X61952381Y-36571429D01*
X61761904Y-36476190D01*
X62619047Y-35809524D02*
X62428571Y-35904762D01*
X62047619Y-35904762D01*
X61857143Y-35809524D01*
X61761904Y-35714286D01*
X61666666Y-35523810D01*
X61666666Y-34952381D01*
X61761904Y-34761905D01*
X61857143Y-34666667D01*
X62047619Y-34571429D01*
X62428571Y-34571429D01*
X62619047Y-34666667D01*
X63285714Y-34571429D02*
X64047619Y-34571429D01*
X63571428Y-33904762D02*
X63571428Y-35619048D01*
X63666667Y-35809524D01*
X63857143Y-35904762D01*
X64047619Y-35904762D01*
X64714285Y-35904762D02*
X64714285Y-33904762D01*
X65571428Y-35904762D02*
X65571428Y-34857143D01*
X65476190Y-34666667D01*
X65285714Y-34571429D01*
X65000000Y-34571429D01*
X64809524Y-34666667D01*
X64714285Y-34761905D01*
X66523809Y-35904762D02*
X66523809Y-34571429D01*
X66523809Y-33904762D02*
X66428571Y-34000000D01*
X66523809Y-34095238D01*
X66619048Y-34000000D01*
X66523809Y-33904762D01*
X66523809Y-34095238D01*
X67476190Y-34571429D02*
X67476190Y-35904762D01*
X67476190Y-34761905D02*
X67571429Y-34666667D01*
X67761905Y-34571429D01*
X68047619Y-34571429D01*
X68238095Y-34666667D01*
X68333333Y-34857143D01*
X68333333Y-35904762D01*
X70142857Y-34571429D02*
X70142857Y-36190476D01*
X70047619Y-36380952D01*
X69952381Y-36476190D01*
X69761905Y-36571429D01*
X69476191Y-36571429D01*
X69285714Y-36476190D01*
X70142857Y-35809524D02*
X69952381Y-35904762D01*
X69571429Y-35904762D01*
X69380953Y-35809524D01*
X69285714Y-35714286D01*
X69190476Y-35523810D01*
X69190476Y-34952381D01*
X69285714Y-34761905D01*
X69380953Y-34666667D01*
X69571429Y-34571429D01*
X69952381Y-34571429D01*
X70142857Y-34666667D01*
X73476191Y-35809524D02*
X73285715Y-35904762D01*
X72904763Y-35904762D01*
X72714287Y-35809524D01*
X72619048Y-35714286D01*
X72523810Y-35523810D01*
X72523810Y-34952381D01*
X72619048Y-34761905D01*
X72714287Y-34666667D01*
X72904763Y-34571429D01*
X73285715Y-34571429D01*
X73476191Y-34666667D01*
X74619049Y-35904762D02*
X74428573Y-35809524D01*
X74333334Y-35714286D01*
X74238096Y-35523810D01*
X74238096Y-34952381D01*
X74333334Y-34761905D01*
X74428573Y-34666667D01*
X74619049Y-34571429D01*
X74904763Y-34571429D01*
X75095239Y-34666667D01*
X75190477Y-34761905D01*
X75285715Y-34952381D01*
X75285715Y-35523810D01*
X75190477Y-35714286D01*
X75095239Y-35809524D01*
X74904763Y-35904762D01*
X74619049Y-35904762D01*
X76142858Y-34571429D02*
X76142858Y-35904762D01*
X76142858Y-34761905D02*
X76238097Y-34666667D01*
X76428573Y-34571429D01*
X76714287Y-34571429D01*
X76904763Y-34666667D01*
X77000001Y-34857143D01*
X77000001Y-35904762D01*
X77666668Y-34571429D02*
X78428573Y-34571429D01*
X77952382Y-33904762D02*
X77952382Y-35619048D01*
X78047621Y-35809524D01*
X78238097Y-35904762D01*
X78428573Y-35904762D01*
X79095239Y-35904762D02*
X79095239Y-34571429D01*
X79095239Y-34952381D02*
X79190478Y-34761905D01*
X79285716Y-34666667D01*
X79476192Y-34571429D01*
X79666668Y-34571429D01*
X80619049Y-35904762D02*
X80428573Y-35809524D01*
X80333334Y-35714286D01*
X80238096Y-35523810D01*
X80238096Y-34952381D01*
X80333334Y-34761905D01*
X80428573Y-34666667D01*
X80619049Y-34571429D01*
X80904763Y-34571429D01*
X81095239Y-34666667D01*
X81190477Y-34761905D01*
X81285715Y-34952381D01*
X81285715Y-35523810D01*
X81190477Y-35714286D01*
X81095239Y-35809524D01*
X80904763Y-35904762D01*
X80619049Y-35904762D01*
X82428573Y-35904762D02*
X82238097Y-35809524D01*
X82142858Y-35619048D01*
X82142858Y-33904762D01*
X83476192Y-35904762D02*
X83285716Y-35809524D01*
X83190477Y-35619048D01*
X83190477Y-33904762D01*
X85000001Y-35809524D02*
X84809525Y-35904762D01*
X84428573Y-35904762D01*
X84238096Y-35809524D01*
X84142858Y-35619048D01*
X84142858Y-34857143D01*
X84238096Y-34666667D01*
X84428573Y-34571429D01*
X84809525Y-34571429D01*
X85000001Y-34666667D01*
X85095239Y-34857143D01*
X85095239Y-35047619D01*
X84142858Y-35238095D01*
X85952382Y-35904762D02*
X85952382Y-34571429D01*
X85952382Y-34952381D02*
X86047621Y-34761905D01*
X86142859Y-34666667D01*
X86333335Y-34571429D01*
X86523811Y-34571429D01*
D12*
X74775000Y-69525000D02*
X74775000Y-50475000D01*
X74775000Y-50475000D02*
X119225000Y-50475000D01*
X119225000Y-50475000D02*
X119225000Y-69525000D01*
X119225000Y-69525000D02*
X74775000Y-69525000D01*
X117955000Y-67620000D02*
G75*
G03X117955000Y-67620000I-635000J0D01*
G01*
X117955000Y-52380000D02*
G75*
G03X117955000Y-52380000I-635000J0D01*
G01*
X77315000Y-67620000D02*
G75*
G03X77315000Y-67620000I-635000J0D01*
G01*
X77315000Y-52380000D02*
G75*
G03X77315000Y-52380000I-635000J0D01*
G01*
X77315000Y-62540000D02*
G75*
G03X77315000Y-62540000I-635000J0D01*
G01*
X79855000Y-62540000D02*
G75*
G03X79855000Y-62540000I-635000J0D01*
G01*
X79855000Y-57460000D02*
G75*
G03X79855000Y-57460000I-635000J0D01*
G01*
X77315000Y-57460000D02*
G75*
G03X77315000Y-57460000I-635000J0D01*
G01*
X77315000Y-60000000D02*
G75*
G03X77315000Y-60000000I-635000J0D01*
G01*
X79855000Y-60000000D02*
G75*
G03X79855000Y-60000000I-635000J0D01*
G01*
X115415000Y-57460000D02*
X115415000Y-62540000D01*
X119860000Y-62540000D02*
X119860000Y-57460000D01*
X119860000Y-62540000D02*
X115415000Y-62540000D01*
X115415000Y-57460000D02*
X119860000Y-57460000D01*
X59001000Y-62425000D02*
X68999000Y-62425000D01*
X59005000Y-62285000D02*
X68995000Y-62285000D01*
X59013000Y-62145000D02*
X68987000Y-62145000D01*
X59025000Y-62005000D02*
X68975000Y-62005000D01*
X59040000Y-61865000D02*
X68960000Y-61865000D01*
X59060000Y-61725000D02*
X68940000Y-61725000D01*
X59084000Y-61585000D02*
X68916000Y-61585000D01*
X59113000Y-61445000D02*
X68887000Y-61445000D01*
X59145000Y-61305000D02*
X68855000Y-61305000D01*
X59182000Y-61165000D02*
X68818000Y-61165000D01*
X59223000Y-61025000D02*
X68777000Y-61025000D01*
X59268000Y-60885000D02*
X63534000Y-60885000D01*
X64466000Y-60885000D02*
X68732000Y-60885000D01*
X59318000Y-60745000D02*
X63333000Y-60745000D01*
X64667000Y-60745000D02*
X68682000Y-60745000D01*
X59373000Y-60605000D02*
X63204000Y-60605000D01*
X64796000Y-60605000D02*
X68627000Y-60605000D01*
X59433000Y-60465000D02*
X63115000Y-60465000D01*
X64885000Y-60465000D02*
X68567000Y-60465000D01*
X59498000Y-60325000D02*
X63054000Y-60325000D01*
X64946000Y-60325000D02*
X68502000Y-60325000D01*
X59568000Y-60185000D02*
X63017000Y-60185000D01*
X64983000Y-60185000D02*
X68432000Y-60185000D01*
X59644000Y-60045000D02*
X63001000Y-60045000D01*
X64999000Y-60045000D02*
X68356000Y-60045000D01*
X59726000Y-59905000D02*
X63005000Y-59905000D01*
X64995000Y-59905000D02*
X68274000Y-59905000D01*
X59814000Y-59765000D02*
X63028000Y-59765000D01*
X64972000Y-59765000D02*
X68186000Y-59765000D01*
X59909000Y-59625000D02*
X63073000Y-59625000D01*
X64927000Y-59625000D02*
X68091000Y-59625000D01*
X60011000Y-59485000D02*
X63143000Y-59485000D01*
X64857000Y-59485000D02*
X67989000Y-59485000D01*
X60121000Y-59345000D02*
X63244000Y-59345000D01*
X64756000Y-59345000D02*
X67879000Y-59345000D01*
X60239000Y-59205000D02*
X63393000Y-59205000D01*
X64607000Y-59205000D02*
X67761000Y-59205000D01*
X60367000Y-59065000D02*
X63645000Y-59065000D01*
X64355000Y-59065000D02*
X67633000Y-59065000D01*
X60504000Y-58925000D02*
X67496000Y-58925000D01*
X60654000Y-58785000D02*
X67346000Y-58785000D01*
X60816000Y-58645000D02*
X67184000Y-58645000D01*
X60993000Y-58505000D02*
X67007000Y-58505000D01*
X61189000Y-58365000D02*
X66811000Y-58365000D01*
X61407000Y-58225000D02*
X66593000Y-58225000D01*
X61653000Y-58085000D02*
X66347000Y-58085000D01*
X61938000Y-57945000D02*
X66062000Y-57945000D01*
X62280000Y-57805000D02*
X65720000Y-57805000D01*
X62726000Y-57665000D02*
X65274000Y-57665000D01*
X63501000Y-57525000D02*
X64499000Y-57525000D01*
X65000000Y-60000000D02*
G75*
G03X65000000Y-60000000I-1000000J0D01*
G01*
X69037500Y-62500000D02*
G75*
G03X69037500Y-62500000I-5037500J0D01*
G01*
X76150000Y-40950000D02*
X72550000Y-40950000D01*
X76150000Y-43050000D02*
X72550000Y-43050000D01*
X74100000Y-42300000D02*
X74100000Y-41700000D01*
X74100000Y-41700000D02*
X74400000Y-42000000D01*
X74400000Y-42000000D02*
X74200000Y-42200000D01*
X74200000Y-42200000D02*
X74200000Y-41950000D01*
X74200000Y-41950000D02*
X74250000Y-42000000D01*
X74500000Y-42500000D02*
X74500000Y-41500000D01*
X74000000Y-42000000D02*
X73500000Y-42000000D01*
X74500000Y-42000000D02*
X74000000Y-42500000D01*
X74000000Y-42500000D02*
X74000000Y-41500000D01*
X74000000Y-41500000D02*
X74500000Y-42000000D01*
X46750000Y-92350000D02*
X35400000Y-92350000D01*
X35400000Y-92350000D02*
X35400000Y-80550000D01*
X35400000Y-80550000D02*
X36600000Y-80550000D01*
X36600000Y-80550000D02*
X36600000Y-85050000D01*
X36600000Y-85050000D02*
X46750000Y-85050000D01*
X46750000Y-92350000D02*
X58100000Y-92350000D01*
X58100000Y-92350000D02*
X58100000Y-80550000D01*
X58100000Y-80550000D02*
X56900000Y-80550000D01*
X56900000Y-80550000D02*
X56900000Y-85050000D01*
X56900000Y-85050000D02*
X46750000Y-85050000D01*
X37750000Y-85700000D02*
X37750000Y-91700000D01*
X37750000Y-91700000D02*
X38250000Y-91700000D01*
X38250000Y-91700000D02*
X38250000Y-85700000D01*
X38250000Y-85700000D02*
X37750000Y-85700000D01*
X40250000Y-85700000D02*
X40250000Y-91700000D01*
X40250000Y-91700000D02*
X40750000Y-91700000D01*
X40750000Y-91700000D02*
X40750000Y-85700000D01*
X40750000Y-85700000D02*
X40250000Y-85700000D01*
X42750000Y-85700000D02*
X42750000Y-91700000D01*
X42750000Y-91700000D02*
X43250000Y-91700000D01*
X43250000Y-91700000D02*
X43250000Y-85700000D01*
X43250000Y-85700000D02*
X42750000Y-85700000D01*
X45250000Y-85700000D02*
X45250000Y-91700000D01*
X45250000Y-91700000D02*
X45750000Y-91700000D01*
X45750000Y-91700000D02*
X45750000Y-85700000D01*
X45750000Y-85700000D02*
X45250000Y-85700000D01*
X47750000Y-85700000D02*
X47750000Y-91700000D01*
X47750000Y-91700000D02*
X48250000Y-91700000D01*
X48250000Y-91700000D02*
X48250000Y-85700000D01*
X48250000Y-85700000D02*
X47750000Y-85700000D01*
X50250000Y-85700000D02*
X50250000Y-91700000D01*
X50250000Y-91700000D02*
X50750000Y-91700000D01*
X50750000Y-91700000D02*
X50750000Y-85700000D01*
X50750000Y-85700000D02*
X50250000Y-85700000D01*
X52750000Y-85700000D02*
X52750000Y-91700000D01*
X52750000Y-91700000D02*
X53250000Y-91700000D01*
X53250000Y-91700000D02*
X53250000Y-85700000D01*
X53250000Y-85700000D02*
X52750000Y-85700000D01*
X55250000Y-85700000D02*
X55250000Y-91700000D01*
X55250000Y-91700000D02*
X55750000Y-91700000D01*
X55750000Y-91700000D02*
X55750000Y-85700000D01*
X55750000Y-85700000D02*
X55250000Y-85700000D01*
X38000000Y-81500000D02*
X37700000Y-80900000D01*
X37700000Y-80900000D02*
X38300000Y-80900000D01*
X38300000Y-80900000D02*
X38000000Y-81500000D01*
X108750000Y-92350000D02*
X97400000Y-92350000D01*
X97400000Y-92350000D02*
X97400000Y-80550000D01*
X97400000Y-80550000D02*
X98600000Y-80550000D01*
X98600000Y-80550000D02*
X98600000Y-85050000D01*
X98600000Y-85050000D02*
X108750000Y-85050000D01*
X108750000Y-92350000D02*
X120100000Y-92350000D01*
X120100000Y-92350000D02*
X120100000Y-80550000D01*
X120100000Y-80550000D02*
X118900000Y-80550000D01*
X118900000Y-80550000D02*
X118900000Y-85050000D01*
X118900000Y-85050000D02*
X108750000Y-85050000D01*
X99750000Y-85700000D02*
X99750000Y-91700000D01*
X99750000Y-91700000D02*
X100250000Y-91700000D01*
X100250000Y-91700000D02*
X100250000Y-85700000D01*
X100250000Y-85700000D02*
X99750000Y-85700000D01*
X102250000Y-85700000D02*
X102250000Y-91700000D01*
X102250000Y-91700000D02*
X102750000Y-91700000D01*
X102750000Y-91700000D02*
X102750000Y-85700000D01*
X102750000Y-85700000D02*
X102250000Y-85700000D01*
X104750000Y-85700000D02*
X104750000Y-91700000D01*
X104750000Y-91700000D02*
X105250000Y-91700000D01*
X105250000Y-91700000D02*
X105250000Y-85700000D01*
X105250000Y-85700000D02*
X104750000Y-85700000D01*
X107250000Y-85700000D02*
X107250000Y-91700000D01*
X107250000Y-91700000D02*
X107750000Y-91700000D01*
X107750000Y-91700000D02*
X107750000Y-85700000D01*
X107750000Y-85700000D02*
X107250000Y-85700000D01*
X109750000Y-85700000D02*
X109750000Y-91700000D01*
X109750000Y-91700000D02*
X110250000Y-91700000D01*
X110250000Y-91700000D02*
X110250000Y-85700000D01*
X110250000Y-85700000D02*
X109750000Y-85700000D01*
X112250000Y-85700000D02*
X112250000Y-91700000D01*
X112250000Y-91700000D02*
X112750000Y-91700000D01*
X112750000Y-91700000D02*
X112750000Y-85700000D01*
X112750000Y-85700000D02*
X112250000Y-85700000D01*
X114750000Y-85700000D02*
X114750000Y-91700000D01*
X114750000Y-91700000D02*
X115250000Y-91700000D01*
X115250000Y-91700000D02*
X115250000Y-85700000D01*
X115250000Y-85700000D02*
X114750000Y-85700000D01*
X117250000Y-85700000D02*
X117250000Y-91700000D01*
X117250000Y-91700000D02*
X117750000Y-91700000D01*
X117750000Y-91700000D02*
X117750000Y-85700000D01*
X117750000Y-85700000D02*
X117250000Y-85700000D01*
X100000000Y-81500000D02*
X99700000Y-80900000D01*
X99700000Y-80900000D02*
X100300000Y-80900000D01*
X100300000Y-80900000D02*
X100000000Y-81500000D01*
X73950000Y-87200000D02*
X73950000Y-91700000D01*
X73950000Y-91700000D02*
X64050000Y-91700000D01*
X64050000Y-91700000D02*
X64050000Y-87200000D01*
X64050000Y-87200000D02*
X73950000Y-87200000D01*
X71500000Y-91700000D02*
X71500000Y-91200000D01*
X71500000Y-91200000D02*
X73450000Y-91200000D01*
X73450000Y-91200000D02*
X73450000Y-87700000D01*
X73450000Y-87700000D02*
X64550000Y-87700000D01*
X64550000Y-87700000D02*
X64550000Y-91200000D01*
X64550000Y-91200000D02*
X66500000Y-91200000D01*
X66500000Y-91200000D02*
X66500000Y-91700000D01*
X73950000Y-90500000D02*
X73450000Y-90500000D01*
X73950000Y-89200000D02*
X73450000Y-89200000D01*
X64550000Y-90500000D02*
X64050000Y-90500000D01*
X64550000Y-89200000D02*
X64050000Y-89200000D01*
X72300000Y-91700000D02*
X72300000Y-91900000D01*
X72300000Y-91900000D02*
X72600000Y-91900000D01*
X72600000Y-91900000D02*
X72600000Y-91700000D01*
X72300000Y-91800000D02*
X72600000Y-91800000D01*
X71100000Y-87700000D02*
X71100000Y-88200000D01*
X71100000Y-88200000D02*
X70900000Y-88200000D01*
X70900000Y-88200000D02*
X70900000Y-87700000D01*
X71000000Y-87700000D02*
X71000000Y-88200000D01*
X69100000Y-87700000D02*
X69100000Y-88200000D01*
X69100000Y-88200000D02*
X68900000Y-88200000D01*
X68900000Y-88200000D02*
X68900000Y-87700000D01*
X69000000Y-87700000D02*
X69000000Y-88200000D01*
X67100000Y-87700000D02*
X67100000Y-88200000D01*
X67100000Y-88200000D02*
X66900000Y-88200000D01*
X66900000Y-88200000D02*
X66900000Y-87700000D01*
X67000000Y-87700000D02*
X67000000Y-88200000D01*
X73950000Y-75200000D02*
X73950000Y-79700000D01*
X73950000Y-79700000D02*
X64050000Y-79700000D01*
X64050000Y-79700000D02*
X64050000Y-75200000D01*
X64050000Y-75200000D02*
X73950000Y-75200000D01*
X71500000Y-79700000D02*
X71500000Y-79200000D01*
X71500000Y-79200000D02*
X73450000Y-79200000D01*
X73450000Y-79200000D02*
X73450000Y-75700000D01*
X73450000Y-75700000D02*
X64550000Y-75700000D01*
X64550000Y-75700000D02*
X64550000Y-79200000D01*
X64550000Y-79200000D02*
X66500000Y-79200000D01*
X66500000Y-79200000D02*
X66500000Y-79700000D01*
X73950000Y-78500000D02*
X73450000Y-78500000D01*
X73950000Y-77200000D02*
X73450000Y-77200000D01*
X64550000Y-78500000D02*
X64050000Y-78500000D01*
X64550000Y-77200000D02*
X64050000Y-77200000D01*
X72300000Y-79700000D02*
X72300000Y-79900000D01*
X72300000Y-79900000D02*
X72600000Y-79900000D01*
X72600000Y-79900000D02*
X72600000Y-79700000D01*
X72300000Y-79800000D02*
X72600000Y-79800000D01*
X71100000Y-75700000D02*
X71100000Y-76200000D01*
X71100000Y-76200000D02*
X70900000Y-76200000D01*
X70900000Y-76200000D02*
X70900000Y-75700000D01*
X71000000Y-75700000D02*
X71000000Y-76200000D01*
X69100000Y-75700000D02*
X69100000Y-76200000D01*
X69100000Y-76200000D02*
X68900000Y-76200000D01*
X68900000Y-76200000D02*
X68900000Y-75700000D01*
X69000000Y-75700000D02*
X69000000Y-76200000D01*
X67100000Y-75700000D02*
X67100000Y-76200000D01*
X67100000Y-76200000D02*
X66900000Y-76200000D01*
X66900000Y-76200000D02*
X66900000Y-75700000D01*
X67000000Y-75700000D02*
X67000000Y-76200000D01*
X56000000Y-33750000D02*
X36000000Y-33750000D01*
X36000000Y-33750000D02*
X36000000Y-76250000D01*
X36000000Y-76250000D02*
X56000000Y-76250000D01*
X56000000Y-33750000D02*
X56000000Y-76250000D01*
X114000500Y-47500880D02*
X114000500Y-38499120D01*
X117500620Y-47500880D02*
X117500620Y-38499120D01*
X117500620Y-38499120D02*
X102999760Y-38499120D01*
X102999760Y-38499120D02*
X102999760Y-47500880D01*
X102999760Y-47500880D02*
X117500620Y-47500880D01*
X58925000Y-87000000D02*
X58925000Y-85000000D01*
X61075000Y-85000000D02*
X61075000Y-87000000D01*
X116925000Y-77000000D02*
X116925000Y-75000000D01*
X119075000Y-75000000D02*
X119075000Y-77000000D01*
X68000000Y-85075000D02*
X66000000Y-85075000D01*
X66000000Y-82925000D02*
X68000000Y-82925000D01*
X69000000Y-71925000D02*
X71000000Y-71925000D01*
X71000000Y-74075000D02*
X69000000Y-74075000D01*
X66925000Y-50000000D02*
X66925000Y-48000000D01*
X69075000Y-48000000D02*
X69075000Y-50000000D01*
X90550000Y-92450000D02*
X90550000Y-86500000D01*
X90550000Y-86500000D02*
X80450000Y-86500000D01*
X80450000Y-86500000D02*
X80450000Y-92450000D01*
X80450000Y-92450000D02*
X90550000Y-92450000D01*
X87250000Y-92450000D02*
X87250000Y-91700000D01*
X87250000Y-91700000D02*
X83750000Y-91700000D01*
X83750000Y-91700000D02*
X83750000Y-92450000D01*
X83750000Y-92450000D02*
X87250000Y-92450000D01*
X90550000Y-92450000D02*
X90550000Y-91700000D01*
X90550000Y-91700000D02*
X88750000Y-91700000D01*
X88750000Y-91700000D02*
X88750000Y-92450000D01*
X88750000Y-92450000D02*
X90550000Y-92450000D01*
X82250000Y-92450000D02*
X82250000Y-91700000D01*
X82250000Y-91700000D02*
X80450000Y-91700000D01*
X80450000Y-91700000D02*
X80450000Y-92450000D01*
X80450000Y-92450000D02*
X82250000Y-92450000D01*
X90550000Y-90200000D02*
X89800000Y-90200000D01*
X89800000Y-90200000D02*
X89800000Y-87250000D01*
X89800000Y-87250000D02*
X85500000Y-87250000D01*
X80450000Y-90200000D02*
X81200000Y-90200000D01*
X81200000Y-90200000D02*
X81200000Y-87250000D01*
X81200000Y-87250000D02*
X85500000Y-87250000D01*
X88000000Y-92750000D02*
X88300000Y-93350000D01*
X88300000Y-93350000D02*
X87700000Y-93350000D01*
X87700000Y-93350000D02*
X88000000Y-92750000D01*
X90550000Y-80450000D02*
X90550000Y-74500000D01*
X90550000Y-74500000D02*
X80450000Y-74500000D01*
X80450000Y-74500000D02*
X80450000Y-80450000D01*
X80450000Y-80450000D02*
X90550000Y-80450000D01*
X87250000Y-80450000D02*
X87250000Y-79700000D01*
X87250000Y-79700000D02*
X83750000Y-79700000D01*
X83750000Y-79700000D02*
X83750000Y-80450000D01*
X83750000Y-80450000D02*
X87250000Y-80450000D01*
X90550000Y-80450000D02*
X90550000Y-79700000D01*
X90550000Y-79700000D02*
X88750000Y-79700000D01*
X88750000Y-79700000D02*
X88750000Y-80450000D01*
X88750000Y-80450000D02*
X90550000Y-80450000D01*
X82250000Y-80450000D02*
X82250000Y-79700000D01*
X82250000Y-79700000D02*
X80450000Y-79700000D01*
X80450000Y-79700000D02*
X80450000Y-80450000D01*
X80450000Y-80450000D02*
X82250000Y-80450000D01*
X90550000Y-78200000D02*
X89800000Y-78200000D01*
X89800000Y-78200000D02*
X89800000Y-75250000D01*
X89800000Y-75250000D02*
X85500000Y-75250000D01*
X80450000Y-78200000D02*
X81200000Y-78200000D01*
X81200000Y-78200000D02*
X81200000Y-75250000D01*
X81200000Y-75250000D02*
X85500000Y-75250000D01*
X88000000Y-80750000D02*
X88300000Y-81350000D01*
X88300000Y-81350000D02*
X87700000Y-81350000D01*
X87700000Y-81350000D02*
X88000000Y-80750000D01*
X94810000Y-37730000D02*
X94810000Y-40270000D01*
X94810000Y-40270000D02*
X87190000Y-40270000D01*
X87190000Y-40270000D02*
X87190000Y-37730000D01*
X87190000Y-37730000D02*
X94810000Y-37730000D01*
X92270000Y-40270000D02*
X92270000Y-37730000D01*
D10*
X92142857Y-60166667D02*
X92619048Y-60166667D01*
X92047619Y-60452381D02*
X92380952Y-59452381D01*
X92714286Y-60452381D01*
X93047619Y-60452381D02*
X93047619Y-59785714D01*
X93047619Y-59976190D02*
X93095238Y-59880952D01*
X93142857Y-59833333D01*
X93238095Y-59785714D01*
X93333334Y-59785714D01*
X94095239Y-60452381D02*
X94095239Y-59452381D01*
X94095239Y-60404762D02*
X94000001Y-60452381D01*
X93809524Y-60452381D01*
X93714286Y-60404762D01*
X93666667Y-60357143D01*
X93619048Y-60261905D01*
X93619048Y-59976190D01*
X93666667Y-59880952D01*
X93714286Y-59833333D01*
X93809524Y-59785714D01*
X94000001Y-59785714D01*
X94095239Y-59833333D01*
X95000001Y-59785714D02*
X95000001Y-60452381D01*
X94571429Y-59785714D02*
X94571429Y-60309524D01*
X94619048Y-60404762D01*
X94714286Y-60452381D01*
X94857144Y-60452381D01*
X94952382Y-60404762D01*
X95000001Y-60357143D01*
X95476191Y-60452381D02*
X95476191Y-59785714D01*
X95476191Y-59452381D02*
X95428572Y-59500000D01*
X95476191Y-59547619D01*
X95523810Y-59500000D01*
X95476191Y-59452381D01*
X95476191Y-59547619D01*
X95952381Y-59785714D02*
X95952381Y-60452381D01*
X95952381Y-59880952D02*
X96000000Y-59833333D01*
X96095238Y-59785714D01*
X96238096Y-59785714D01*
X96333334Y-59833333D01*
X96380953Y-59928571D01*
X96380953Y-60452381D01*
X97000000Y-60452381D02*
X96904762Y-60404762D01*
X96857143Y-60357143D01*
X96809524Y-60261905D01*
X96809524Y-59976190D01*
X96857143Y-59880952D01*
X96904762Y-59833333D01*
X97000000Y-59785714D01*
X97142858Y-59785714D01*
X97238096Y-59833333D01*
X97285715Y-59880952D01*
X97333334Y-59976190D01*
X97333334Y-60261905D01*
X97285715Y-60357143D01*
X97238096Y-60404762D01*
X97142858Y-60452381D01*
X97000000Y-60452381D01*
X98523810Y-60452381D02*
X98523810Y-59452381D01*
X99095239Y-60452381D01*
X99095239Y-59452381D01*
X100000001Y-60452381D02*
X100000001Y-59928571D01*
X99952382Y-59833333D01*
X99857144Y-59785714D01*
X99666667Y-59785714D01*
X99571429Y-59833333D01*
X100000001Y-60404762D02*
X99904763Y-60452381D01*
X99666667Y-60452381D01*
X99571429Y-60404762D01*
X99523810Y-60309524D01*
X99523810Y-60214286D01*
X99571429Y-60119048D01*
X99666667Y-60071429D01*
X99904763Y-60071429D01*
X100000001Y-60023810D01*
X100476191Y-59785714D02*
X100476191Y-60452381D01*
X100476191Y-59880952D02*
X100523810Y-59833333D01*
X100619048Y-59785714D01*
X100761906Y-59785714D01*
X100857144Y-59833333D01*
X100904763Y-59928571D01*
X100904763Y-60452381D01*
X101523810Y-60452381D02*
X101428572Y-60404762D01*
X101380953Y-60357143D01*
X101333334Y-60261905D01*
X101333334Y-59976190D01*
X101380953Y-59880952D01*
X101428572Y-59833333D01*
X101523810Y-59785714D01*
X101666668Y-59785714D01*
X101761906Y-59833333D01*
X101809525Y-59880952D01*
X101857144Y-59976190D01*
X101857144Y-60261905D01*
X101809525Y-60357143D01*
X101761906Y-60404762D01*
X101666668Y-60452381D01*
X101523810Y-60452381D01*
D12*
X117105714Y-60642857D02*
X117772381Y-60642857D01*
X117105714Y-61071429D02*
X117629524Y-61071429D01*
X117724762Y-61023810D01*
X117772381Y-60928572D01*
X117772381Y-60785714D01*
X117724762Y-60690476D01*
X117677143Y-60642857D01*
X117724762Y-60214286D02*
X117772381Y-60119048D01*
X117772381Y-59928572D01*
X117724762Y-59833333D01*
X117629524Y-59785714D01*
X117581905Y-59785714D01*
X117486667Y-59833333D01*
X117439048Y-59928572D01*
X117439048Y-60071429D01*
X117391429Y-60166667D01*
X117296190Y-60214286D01*
X117248571Y-60214286D01*
X117153333Y-60166667D01*
X117105714Y-60071429D01*
X117105714Y-59928572D01*
X117153333Y-59833333D01*
X117772381Y-59357143D02*
X116772381Y-59357143D01*
X117153333Y-59357143D02*
X117105714Y-59261905D01*
X117105714Y-59071428D01*
X117153333Y-58976190D01*
X117200952Y-58928571D01*
X117296190Y-58880952D01*
X117581905Y-58880952D01*
X117677143Y-58928571D01*
X117724762Y-58976190D01*
X117772381Y-59071428D01*
X117772381Y-59261905D01*
X117724762Y-59357143D01*
X58057143Y-62666666D02*
X58104762Y-62714285D01*
X58152381Y-62857142D01*
X58152381Y-62952380D01*
X58104762Y-63095238D01*
X58009524Y-63190476D01*
X57914286Y-63238095D01*
X57723810Y-63285714D01*
X57580952Y-63285714D01*
X57390476Y-63238095D01*
X57295238Y-63190476D01*
X57200000Y-63095238D01*
X57152381Y-62952380D01*
X57152381Y-62857142D01*
X57200000Y-62714285D01*
X57247619Y-62666666D01*
X58152381Y-61714285D02*
X58152381Y-62285714D01*
X58152381Y-62000000D02*
X57152381Y-62000000D01*
X57295238Y-62095238D01*
X57390476Y-62190476D01*
X57438095Y-62285714D01*
X73261905Y-44452381D02*
X73261905Y-43452381D01*
X73500000Y-43452381D01*
X73642858Y-43500000D01*
X73738096Y-43595238D01*
X73785715Y-43690476D01*
X73833334Y-43880952D01*
X73833334Y-44023810D01*
X73785715Y-44214286D01*
X73738096Y-44309524D01*
X73642858Y-44404762D01*
X73500000Y-44452381D01*
X73261905Y-44452381D01*
X74785715Y-44452381D02*
X74214286Y-44452381D01*
X74500000Y-44452381D02*
X74500000Y-43452381D01*
X74404762Y-43595238D01*
X74309524Y-43690476D01*
X74214286Y-43738095D01*
X45083333Y-79952381D02*
X45083333Y-78952381D01*
X45083333Y-79428571D02*
X45654762Y-79428571D01*
X45654762Y-79952381D02*
X45654762Y-78952381D01*
X46559524Y-79285714D02*
X46559524Y-79952381D01*
X46130952Y-79285714D02*
X46130952Y-79809524D01*
X46178571Y-79904762D01*
X46273809Y-79952381D01*
X46416667Y-79952381D01*
X46511905Y-79904762D01*
X46559524Y-79857143D01*
X47035714Y-79952381D02*
X47035714Y-78952381D01*
X47035714Y-79333333D02*
X47130952Y-79285714D01*
X47321429Y-79285714D01*
X47416667Y-79333333D01*
X47464286Y-79380952D01*
X47511905Y-79476190D01*
X47511905Y-79761905D01*
X47464286Y-79857143D01*
X47416667Y-79904762D01*
X47321429Y-79952381D01*
X47130952Y-79952381D01*
X47035714Y-79904762D01*
X48464286Y-79952381D02*
X47892857Y-79952381D01*
X48178571Y-79952381D02*
X48178571Y-78952381D01*
X48083333Y-79095238D01*
X47988095Y-79190476D01*
X47892857Y-79238095D01*
X107083333Y-79952381D02*
X107083333Y-78952381D01*
X107083333Y-79428571D02*
X107654762Y-79428571D01*
X107654762Y-79952381D02*
X107654762Y-78952381D01*
X108559524Y-79285714D02*
X108559524Y-79952381D01*
X108130952Y-79285714D02*
X108130952Y-79809524D01*
X108178571Y-79904762D01*
X108273809Y-79952381D01*
X108416667Y-79952381D01*
X108511905Y-79904762D01*
X108559524Y-79857143D01*
X109035714Y-79952381D02*
X109035714Y-78952381D01*
X109035714Y-79333333D02*
X109130952Y-79285714D01*
X109321429Y-79285714D01*
X109416667Y-79333333D01*
X109464286Y-79380952D01*
X109511905Y-79476190D01*
X109511905Y-79761905D01*
X109464286Y-79857143D01*
X109416667Y-79904762D01*
X109321429Y-79952381D01*
X109130952Y-79952381D01*
X109035714Y-79904762D01*
X109892857Y-79047619D02*
X109940476Y-79000000D01*
X110035714Y-78952381D01*
X110273810Y-78952381D01*
X110369048Y-79000000D01*
X110416667Y-79047619D01*
X110464286Y-79142857D01*
X110464286Y-79238095D01*
X110416667Y-79380952D01*
X109845238Y-79952381D01*
X110464286Y-79952381D01*
X70952381Y-93452381D02*
X70476190Y-93452381D01*
X70476190Y-92452381D01*
X71666667Y-93404762D02*
X71571429Y-93452381D01*
X71380952Y-93452381D01*
X71285714Y-93404762D01*
X71238095Y-93309524D01*
X71238095Y-92928571D01*
X71285714Y-92833333D01*
X71380952Y-92785714D01*
X71571429Y-92785714D01*
X71666667Y-92833333D01*
X71714286Y-92928571D01*
X71714286Y-93023810D01*
X71238095Y-93119048D01*
X72571429Y-93452381D02*
X72571429Y-92452381D01*
X72571429Y-93404762D02*
X72476191Y-93452381D01*
X72285714Y-93452381D01*
X72190476Y-93404762D01*
X72142857Y-93357143D01*
X72095238Y-93261905D01*
X72095238Y-92976190D01*
X72142857Y-92880952D01*
X72190476Y-92833333D01*
X72285714Y-92785714D01*
X72476191Y-92785714D01*
X72571429Y-92833333D01*
X73571429Y-93452381D02*
X73000000Y-93452381D01*
X73285714Y-93452381D02*
X73285714Y-92452381D01*
X73190476Y-92595238D01*
X73095238Y-92690476D01*
X73000000Y-92738095D01*
X70952381Y-81452381D02*
X70476190Y-81452381D01*
X70476190Y-80452381D01*
X71666667Y-81404762D02*
X71571429Y-81452381D01*
X71380952Y-81452381D01*
X71285714Y-81404762D01*
X71238095Y-81309524D01*
X71238095Y-80928571D01*
X71285714Y-80833333D01*
X71380952Y-80785714D01*
X71571429Y-80785714D01*
X71666667Y-80833333D01*
X71714286Y-80928571D01*
X71714286Y-81023810D01*
X71238095Y-81119048D01*
X72571429Y-81452381D02*
X72571429Y-80452381D01*
X72571429Y-81404762D02*
X72476191Y-81452381D01*
X72285714Y-81452381D01*
X72190476Y-81404762D01*
X72142857Y-81357143D01*
X72095238Y-81261905D01*
X72095238Y-80976190D01*
X72142857Y-80880952D01*
X72190476Y-80833333D01*
X72285714Y-80785714D01*
X72476191Y-80785714D01*
X72571429Y-80833333D01*
X73000000Y-80547619D02*
X73047619Y-80500000D01*
X73142857Y-80452381D01*
X73380953Y-80452381D01*
X73476191Y-80500000D01*
X73523810Y-80547619D01*
X73571429Y-80642857D01*
X73571429Y-80738095D01*
X73523810Y-80880952D01*
X72952381Y-81452381D01*
X73571429Y-81452381D01*
X53452381Y-55809524D02*
X52452381Y-55809524D01*
X53166667Y-55476190D01*
X52452381Y-55142857D01*
X53452381Y-55142857D01*
X53452381Y-54142857D02*
X53452381Y-54714286D01*
X53452381Y-54428572D02*
X52452381Y-54428572D01*
X52595238Y-54523810D01*
X52690476Y-54619048D01*
X52738095Y-54714286D01*
X36952381Y-72702381D02*
X36952381Y-72511904D01*
X37000000Y-72416666D01*
X37095238Y-72321428D01*
X37285714Y-72273809D01*
X37619048Y-72273809D01*
X37809524Y-72321428D01*
X37904762Y-72416666D01*
X37952381Y-72511904D01*
X37952381Y-72702381D01*
X37904762Y-72797619D01*
X37809524Y-72892857D01*
X37619048Y-72940476D01*
X37285714Y-72940476D01*
X37095238Y-72892857D01*
X37000000Y-72797619D01*
X36952381Y-72702381D01*
X37285714Y-71416666D02*
X37952381Y-71416666D01*
X37285714Y-71845238D02*
X37809524Y-71845238D01*
X37904762Y-71797619D01*
X37952381Y-71702381D01*
X37952381Y-71559523D01*
X37904762Y-71464285D01*
X37857143Y-71416666D01*
X37285714Y-71083333D02*
X37285714Y-70702381D01*
X36952381Y-70940476D02*
X37809524Y-70940476D01*
X37904762Y-70892857D01*
X37952381Y-70797619D01*
X37952381Y-70702381D01*
X37571429Y-70369047D02*
X37571429Y-69607142D01*
X53952381Y-72702381D02*
X53952381Y-72511904D01*
X54000000Y-72416666D01*
X54095238Y-72321428D01*
X54285714Y-72273809D01*
X54619048Y-72273809D01*
X54809524Y-72321428D01*
X54904762Y-72416666D01*
X54952381Y-72511904D01*
X54952381Y-72702381D01*
X54904762Y-72797619D01*
X54809524Y-72892857D01*
X54619048Y-72940476D01*
X54285714Y-72940476D01*
X54095238Y-72892857D01*
X54000000Y-72797619D01*
X53952381Y-72702381D01*
X54285714Y-71416666D02*
X54952381Y-71416666D01*
X54285714Y-71845238D02*
X54809524Y-71845238D01*
X54904762Y-71797619D01*
X54952381Y-71702381D01*
X54952381Y-71559523D01*
X54904762Y-71464285D01*
X54857143Y-71416666D01*
X54285714Y-71083333D02*
X54285714Y-70702381D01*
X53952381Y-70940476D02*
X54809524Y-70940476D01*
X54904762Y-70892857D01*
X54952381Y-70797619D01*
X54952381Y-70702381D01*
X54571429Y-70369047D02*
X54571429Y-69607142D01*
X54952381Y-69988094D02*
X54190476Y-69988094D01*
X37952381Y-39321428D02*
X36952381Y-39321428D01*
X37285714Y-38845238D02*
X37952381Y-38845238D01*
X37380952Y-38845238D02*
X37333333Y-38797619D01*
X37285714Y-38702381D01*
X37285714Y-38559523D01*
X37333333Y-38464285D01*
X37428571Y-38416666D01*
X37952381Y-38416666D01*
X37571429Y-37940476D02*
X37571429Y-37178571D01*
X54952381Y-39321428D02*
X53952381Y-39321428D01*
X54285714Y-38845238D02*
X54952381Y-38845238D01*
X54380952Y-38845238D02*
X54333333Y-38797619D01*
X54285714Y-38702381D01*
X54285714Y-38559523D01*
X54333333Y-38464285D01*
X54428571Y-38416666D01*
X54952381Y-38416666D01*
X54571429Y-37940476D02*
X54571429Y-37178571D01*
X54952381Y-37559523D02*
X54190476Y-37559523D01*
X100353341Y-43738095D02*
X99353341Y-43738095D01*
X99353341Y-43357142D01*
X99400960Y-43261904D01*
X99448579Y-43214285D01*
X99543817Y-43166666D01*
X99686674Y-43166666D01*
X99781912Y-43214285D01*
X99829531Y-43261904D01*
X99877150Y-43357142D01*
X99877150Y-43738095D01*
X100353341Y-42214285D02*
X100353341Y-42785714D01*
X100353341Y-42500000D02*
X99353341Y-42500000D01*
X99496198Y-42595238D01*
X99591436Y-42690476D01*
X99639055Y-42785714D01*
X60452381Y-81166666D02*
X59976190Y-81500000D01*
X60452381Y-81738095D02*
X59452381Y-81738095D01*
X59452381Y-81357142D01*
X59500000Y-81261904D01*
X59547619Y-81214285D01*
X59642857Y-81166666D01*
X59785714Y-81166666D01*
X59880952Y-81214285D01*
X59928571Y-81261904D01*
X59976190Y-81357142D01*
X59976190Y-81738095D01*
X60452381Y-80214285D02*
X60452381Y-80785714D01*
X60452381Y-80500000D02*
X59452381Y-80500000D01*
X59595238Y-80595238D01*
X59690476Y-80690476D01*
X59738095Y-80785714D01*
X120452381Y-76166666D02*
X119976190Y-76500000D01*
X120452381Y-76738095D02*
X119452381Y-76738095D01*
X119452381Y-76357142D01*
X119500000Y-76261904D01*
X119547619Y-76214285D01*
X119642857Y-76166666D01*
X119785714Y-76166666D01*
X119880952Y-76214285D01*
X119928571Y-76261904D01*
X119976190Y-76357142D01*
X119976190Y-76738095D01*
X119547619Y-75785714D02*
X119500000Y-75738095D01*
X119452381Y-75642857D01*
X119452381Y-75404761D01*
X119500000Y-75309523D01*
X119547619Y-75261904D01*
X119642857Y-75214285D01*
X119738095Y-75214285D01*
X119880952Y-75261904D01*
X120452381Y-75833333D01*
X120452381Y-75214285D01*
X71833334Y-84452381D02*
X71500000Y-83976190D01*
X71261905Y-84452381D02*
X71261905Y-83452381D01*
X71642858Y-83452381D01*
X71738096Y-83500000D01*
X71785715Y-83547619D01*
X71833334Y-83642857D01*
X71833334Y-83785714D01*
X71785715Y-83880952D01*
X71738096Y-83928571D01*
X71642858Y-83976190D01*
X71261905Y-83976190D01*
X72166667Y-83452381D02*
X72785715Y-83452381D01*
X72452381Y-83833333D01*
X72595239Y-83833333D01*
X72690477Y-83880952D01*
X72738096Y-83928571D01*
X72785715Y-84023810D01*
X72785715Y-84261905D01*
X72738096Y-84357143D01*
X72690477Y-84404762D01*
X72595239Y-84452381D01*
X72309524Y-84452381D01*
X72214286Y-84404762D01*
X72166667Y-84357143D01*
X74833334Y-73452381D02*
X74500000Y-72976190D01*
X74261905Y-73452381D02*
X74261905Y-72452381D01*
X74642858Y-72452381D01*
X74738096Y-72500000D01*
X74785715Y-72547619D01*
X74833334Y-72642857D01*
X74833334Y-72785714D01*
X74785715Y-72880952D01*
X74738096Y-72928571D01*
X74642858Y-72976190D01*
X74261905Y-72976190D01*
X75690477Y-72785714D02*
X75690477Y-73452381D01*
X75452381Y-72404762D02*
X75214286Y-73119048D01*
X75833334Y-73119048D01*
X70752381Y-49166666D02*
X70276190Y-49500000D01*
X70752381Y-49738095D02*
X69752381Y-49738095D01*
X69752381Y-49357142D01*
X69800000Y-49261904D01*
X69847619Y-49214285D01*
X69942857Y-49166666D01*
X70085714Y-49166666D01*
X70180952Y-49214285D01*
X70228571Y-49261904D01*
X70276190Y-49357142D01*
X70276190Y-49738095D01*
X69752381Y-48261904D02*
X69752381Y-48738095D01*
X70228571Y-48785714D01*
X70180952Y-48738095D01*
X70133333Y-48642857D01*
X70133333Y-48404761D01*
X70180952Y-48309523D01*
X70228571Y-48261904D01*
X70323810Y-48214285D01*
X70561905Y-48214285D01*
X70657143Y-48261904D01*
X70704762Y-48309523D01*
X70752381Y-48404761D01*
X70752381Y-48642857D01*
X70704762Y-48738095D01*
X70657143Y-48785714D01*
X81190476Y-94404762D02*
X81333333Y-94452381D01*
X81571429Y-94452381D01*
X81666667Y-94404762D01*
X81714286Y-94357143D01*
X81761905Y-94261905D01*
X81761905Y-94166667D01*
X81714286Y-94071429D01*
X81666667Y-94023810D01*
X81571429Y-93976190D01*
X81380952Y-93928571D01*
X81285714Y-93880952D01*
X81238095Y-93833333D01*
X81190476Y-93738095D01*
X81190476Y-93642857D01*
X81238095Y-93547619D01*
X81285714Y-93500000D01*
X81380952Y-93452381D01*
X81619048Y-93452381D01*
X81761905Y-93500000D01*
X82571429Y-94404762D02*
X82476191Y-94452381D01*
X82285714Y-94452381D01*
X82190476Y-94404762D01*
X82142857Y-94309524D01*
X82142857Y-93928571D01*
X82190476Y-93833333D01*
X82285714Y-93785714D01*
X82476191Y-93785714D01*
X82571429Y-93833333D01*
X82619048Y-93928571D01*
X82619048Y-94023810D01*
X82142857Y-94119048D01*
X83047619Y-93785714D02*
X83047619Y-94452381D01*
X83047619Y-93880952D02*
X83095238Y-93833333D01*
X83190476Y-93785714D01*
X83333334Y-93785714D01*
X83428572Y-93833333D01*
X83476191Y-93928571D01*
X83476191Y-94452381D01*
X83904762Y-94404762D02*
X84000000Y-94452381D01*
X84190476Y-94452381D01*
X84285715Y-94404762D01*
X84333334Y-94309524D01*
X84333334Y-94261905D01*
X84285715Y-94166667D01*
X84190476Y-94119048D01*
X84047619Y-94119048D01*
X83952381Y-94071429D01*
X83904762Y-93976190D01*
X83904762Y-93928571D01*
X83952381Y-93833333D01*
X84047619Y-93785714D01*
X84190476Y-93785714D01*
X84285715Y-93833333D01*
X84904762Y-94452381D02*
X84809524Y-94404762D01*
X84761905Y-94357143D01*
X84714286Y-94261905D01*
X84714286Y-93976190D01*
X84761905Y-93880952D01*
X84809524Y-93833333D01*
X84904762Y-93785714D01*
X85047620Y-93785714D01*
X85142858Y-93833333D01*
X85190477Y-93880952D01*
X85238096Y-93976190D01*
X85238096Y-94261905D01*
X85190477Y-94357143D01*
X85142858Y-94404762D01*
X85047620Y-94452381D01*
X84904762Y-94452381D01*
X85666667Y-94452381D02*
X85666667Y-93785714D01*
X85666667Y-93976190D02*
X85714286Y-93880952D01*
X85761905Y-93833333D01*
X85857143Y-93785714D01*
X85952382Y-93785714D01*
X86809525Y-94452381D02*
X86238096Y-94452381D01*
X86523810Y-94452381D02*
X86523810Y-93452381D01*
X86428572Y-93595238D01*
X86333334Y-93690476D01*
X86238096Y-93738095D01*
X81190476Y-82404762D02*
X81333333Y-82452381D01*
X81571429Y-82452381D01*
X81666667Y-82404762D01*
X81714286Y-82357143D01*
X81761905Y-82261905D01*
X81761905Y-82166667D01*
X81714286Y-82071429D01*
X81666667Y-82023810D01*
X81571429Y-81976190D01*
X81380952Y-81928571D01*
X81285714Y-81880952D01*
X81238095Y-81833333D01*
X81190476Y-81738095D01*
X81190476Y-81642857D01*
X81238095Y-81547619D01*
X81285714Y-81500000D01*
X81380952Y-81452381D01*
X81619048Y-81452381D01*
X81761905Y-81500000D01*
X82571429Y-82404762D02*
X82476191Y-82452381D01*
X82285714Y-82452381D01*
X82190476Y-82404762D01*
X82142857Y-82309524D01*
X82142857Y-81928571D01*
X82190476Y-81833333D01*
X82285714Y-81785714D01*
X82476191Y-81785714D01*
X82571429Y-81833333D01*
X82619048Y-81928571D01*
X82619048Y-82023810D01*
X82142857Y-82119048D01*
X83047619Y-81785714D02*
X83047619Y-82452381D01*
X83047619Y-81880952D02*
X83095238Y-81833333D01*
X83190476Y-81785714D01*
X83333334Y-81785714D01*
X83428572Y-81833333D01*
X83476191Y-81928571D01*
X83476191Y-82452381D01*
X83904762Y-82404762D02*
X84000000Y-82452381D01*
X84190476Y-82452381D01*
X84285715Y-82404762D01*
X84333334Y-82309524D01*
X84333334Y-82261905D01*
X84285715Y-82166667D01*
X84190476Y-82119048D01*
X84047619Y-82119048D01*
X83952381Y-82071429D01*
X83904762Y-81976190D01*
X83904762Y-81928571D01*
X83952381Y-81833333D01*
X84047619Y-81785714D01*
X84190476Y-81785714D01*
X84285715Y-81833333D01*
X84904762Y-82452381D02*
X84809524Y-82404762D01*
X84761905Y-82357143D01*
X84714286Y-82261905D01*
X84714286Y-81976190D01*
X84761905Y-81880952D01*
X84809524Y-81833333D01*
X84904762Y-81785714D01*
X85047620Y-81785714D01*
X85142858Y-81833333D01*
X85190477Y-81880952D01*
X85238096Y-81976190D01*
X85238096Y-82261905D01*
X85190477Y-82357143D01*
X85142858Y-82404762D01*
X85047620Y-82452381D01*
X84904762Y-82452381D01*
X85666667Y-82452381D02*
X85666667Y-81785714D01*
X85666667Y-81976190D02*
X85714286Y-81880952D01*
X85761905Y-81833333D01*
X85857143Y-81785714D01*
X85952382Y-81785714D01*
X86238096Y-81547619D02*
X86285715Y-81500000D01*
X86380953Y-81452381D01*
X86619049Y-81452381D01*
X86714287Y-81500000D01*
X86761906Y-81547619D01*
X86809525Y-81642857D01*
X86809525Y-81738095D01*
X86761906Y-81880952D01*
X86190477Y-82452381D01*
X86809525Y-82452381D01*
X89666667Y-41944762D02*
X89809524Y-41992381D01*
X90047620Y-41992381D01*
X90142858Y-41944762D01*
X90190477Y-41897143D01*
X90238096Y-41801905D01*
X90238096Y-41706667D01*
X90190477Y-41611429D01*
X90142858Y-41563810D01*
X90047620Y-41516190D01*
X89857143Y-41468571D01*
X89761905Y-41420952D01*
X89714286Y-41373333D01*
X89666667Y-41278095D01*
X89666667Y-41182857D01*
X89714286Y-41087619D01*
X89761905Y-41040000D01*
X89857143Y-40992381D01*
X90095239Y-40992381D01*
X90238096Y-41040000D01*
X90571429Y-40992381D02*
X90809524Y-41992381D01*
X91000001Y-41278095D01*
X91190477Y-41992381D01*
X91428572Y-40992381D01*
X92333334Y-41992381D02*
X91761905Y-41992381D01*
X92047619Y-41992381D02*
X92047619Y-40992381D01*
X91952381Y-41135238D01*
X91857143Y-41230476D01*
X91761905Y-41278095D01*
M02*
