M48
;DRILL file {KiCad 4.0.3+e1-6302~38~ubuntu15.04.1-stable} date Sun Sep 25 07:10:47 2016
;FORMAT={-:-/ absolute / inch / decimal}
FMAT,2
INCH,TZ
T1C0.016
T2C0.028
T3C0.030
T4C0.031
T5C0.032
T6C0.035
T7C0.039
T8C0.040
%
G90
G05
M72
T1
X2.4149Y-2.8195
X2.4158Y-3.1895
X2.4409Y-3.2677
X2.4557Y-2.8162
X2.8983Y-2.839
X2.968Y-2.6309
X3.0315Y-1.6535
T2
X2.5984Y-3.0709
X2.5984Y-3.5433
X2.6772Y-3.0709
X2.6772Y-3.5433
X2.7559Y-3.0709
X2.7559Y-3.5433
X2.8346Y-3.0709
X2.8346Y-3.5433
T3
X1.4764Y-1.3878
X1.4764Y-2.9429
X2.1457Y-1.3878
X2.1457Y-2.9429
T4
X2.5197Y-2.3622
X2.5197Y-2.5591
T5
X3.4827Y-1.5354
X3.5827Y-1.5354
X3.6827Y-1.5354
T6
X1.4961Y-3.2677
X1.5945Y-3.2677
X1.6929Y-3.2677
X1.7913Y-3.2677
X1.8898Y-3.2677
X1.9882Y-3.2677
X2.0866Y-3.2677
X2.185Y-3.2677
X3.2677Y-3.0709
X3.2677Y-3.5433
X3.3661Y-3.0709
X3.3661Y-3.5433
X3.4646Y-3.0709
X3.4646Y-3.5433
X3.937Y-3.2677
X4.0354Y-3.2677
X4.1339Y-3.2677
X4.2323Y-3.2677
X4.3307Y-3.2677
X4.4291Y-3.2677
X4.5276Y-3.2677
X4.626Y-3.2677
T8
X3.1189Y-2.0622
X3.1189Y-2.6622
X3.2189Y-2.0622
X3.2189Y-2.6622
X3.3189Y-2.0622
X3.3189Y-2.6622
X3.4189Y-2.0622
X3.4189Y-2.6622
X3.5189Y-2.0622
X3.5189Y-2.6622
X3.6189Y-2.0622
X3.6189Y-2.6622
X3.7189Y-2.0622
X3.7189Y-2.6622
X3.8189Y-2.0622
X3.8189Y-2.6622
X3.9189Y-2.0622
X3.9189Y-2.6622
X4.0189Y-2.0622
X4.0189Y-2.6622
X4.1189Y-2.0622
X4.1189Y-2.6622
X4.2189Y-2.0622
X4.2189Y-2.6622
X4.3189Y-2.0622
X4.3189Y-2.6622
X4.4189Y-2.0622
X4.4189Y-2.6622
X4.5189Y-2.0622
X4.5189Y-2.6622
T7
X4.0866Y-1.7323G85X4.0866Y-1.6536
G05
X4.2441Y-1.5079G85X4.1654Y-1.5079
G05
X4.3228Y-1.7323G85X4.3228Y-1.6536
G05
T0
M30
