G04 #@! TF.FileFunction,Copper,L1,Top,Signal*
%FSLAX46Y46*%
G04 Gerber Fmt 4.6, Leading zero omitted, Abs format (unit mm)*
G04 Created by KiCad (PCBNEW 4.0.2+e4-6225~38~ubuntu15.04.1-stable) date zo 31 jul 2016 04:59:36 CEST*
%MOMM*%
G01*
G04 APERTURE LIST*
%ADD10C,0.100000*%
%ADD11C,1.998980*%
%ADD12R,2.600000X2.000000*%
%ADD13O,2.600000X2.000000*%
%ADD14R,1.600000X1.600000*%
%ADD15C,1.600000*%
%ADD16C,3.200000*%
%ADD17C,0.400000*%
%ADD18C,0.250000*%
%ADD19C,0.254000*%
G04 APERTURE END LIST*
D10*
D11*
X126492000Y-105664000D03*
X126492000Y-90664000D03*
D12*
X177800000Y-95250000D03*
D13*
X177800000Y-97790000D03*
X177800000Y-100330000D03*
D11*
X121920000Y-105664000D03*
X121920000Y-90664000D03*
X130810000Y-105664000D03*
X130810000Y-90664000D03*
D14*
X148380000Y-96520000D03*
D15*
X148380000Y-99060000D03*
X153880000Y-99060000D03*
X153880000Y-96520000D03*
D16*
X138176000Y-97790000D03*
X164084000Y-97790000D03*
D17*
X121920000Y-105664000D02*
X121920000Y-103886000D01*
X121920000Y-103886000D02*
X126492000Y-99314000D01*
X126492000Y-90664000D02*
X126492000Y-99314000D01*
X148380000Y-100794000D02*
X148380000Y-99060000D01*
X146812000Y-102362000D02*
X148380000Y-100794000D01*
X129540000Y-102362000D02*
X146812000Y-102362000D01*
X126492000Y-99314000D02*
X129540000Y-102362000D01*
X130810000Y-90664000D02*
X151116000Y-90664000D01*
X153880000Y-93428000D02*
X153880000Y-96520000D01*
X151116000Y-90664000D02*
X153880000Y-93428000D01*
X130810000Y-90664000D02*
X130810000Y-90678000D01*
X126492000Y-105664000D02*
X128778000Y-103378000D01*
X174752000Y-103378000D02*
X177800000Y-100330000D01*
X128778000Y-103378000D02*
X174752000Y-103378000D01*
D18*
X126365000Y-105170000D02*
X126365000Y-104775000D01*
D19*
G36*
X184658000Y-87682606D02*
X184658000Y-107897394D01*
X184097394Y-108458000D01*
X118162606Y-108458000D01*
X117602000Y-107897394D01*
X117602000Y-105987694D01*
X120285226Y-105987694D01*
X120533538Y-106588655D01*
X120992927Y-107048846D01*
X121593453Y-107298206D01*
X122243694Y-107298774D01*
X122844655Y-107050462D01*
X123304846Y-106591073D01*
X123554206Y-105990547D01*
X123554774Y-105340306D01*
X123306462Y-104739345D01*
X122847073Y-104279154D01*
X122755000Y-104240922D01*
X122755000Y-104231868D01*
X126492000Y-100494868D01*
X128579597Y-102582465D01*
X128458459Y-102606561D01*
X128346244Y-102681541D01*
X128187566Y-102787566D01*
X126908137Y-104066995D01*
X126818547Y-104029794D01*
X126437701Y-104029461D01*
X126365000Y-104015000D01*
X126292934Y-104029335D01*
X126168306Y-104029226D01*
X125567345Y-104277538D01*
X125107154Y-104736927D01*
X124857794Y-105337453D01*
X124857226Y-105987694D01*
X125105538Y-106588655D01*
X125564927Y-107048846D01*
X126165453Y-107298206D01*
X126815694Y-107298774D01*
X127416655Y-107050462D01*
X127876846Y-106591073D01*
X128126206Y-105990547D01*
X128126774Y-105340306D01*
X128088702Y-105248166D01*
X129123868Y-104213000D01*
X130041539Y-104213000D01*
X129885345Y-104277538D01*
X129425154Y-104736927D01*
X129175794Y-105337453D01*
X129175226Y-105987694D01*
X129423538Y-106588655D01*
X129882927Y-107048846D01*
X130483453Y-107298206D01*
X131133694Y-107298774D01*
X131734655Y-107050462D01*
X132194846Y-106591073D01*
X132444206Y-105990547D01*
X132444774Y-105340306D01*
X132196462Y-104739345D01*
X131737073Y-104279154D01*
X131577756Y-104213000D01*
X174752000Y-104213000D01*
X175071541Y-104149439D01*
X175342434Y-103968434D01*
X177365151Y-101945717D01*
X177462091Y-101965000D01*
X178137909Y-101965000D01*
X178763596Y-101840543D01*
X179294029Y-101486120D01*
X179648452Y-100955687D01*
X179772909Y-100330000D01*
X179648452Y-99704313D01*
X179294029Y-99173880D01*
X179103812Y-99046781D01*
X179345922Y-98856317D01*
X179659144Y-98298355D01*
X179690124Y-98170434D01*
X179570777Y-97917000D01*
X177927000Y-97917000D01*
X177927000Y-97937000D01*
X177673000Y-97937000D01*
X177673000Y-97917000D01*
X176029223Y-97917000D01*
X175909876Y-98170434D01*
X175940856Y-98298355D01*
X176254078Y-98856317D01*
X176496188Y-99046781D01*
X176305971Y-99173880D01*
X175951548Y-99704313D01*
X175827091Y-100330000D01*
X175951548Y-100955687D01*
X175968330Y-100980802D01*
X174406132Y-102543000D01*
X147811868Y-102543000D01*
X148970434Y-101384434D01*
X148976869Y-101374803D01*
X149151439Y-101113541D01*
X149215000Y-100794000D01*
X149215000Y-100254083D01*
X149291817Y-100177400D01*
X149531043Y-100756372D01*
X150060839Y-101287093D01*
X150753405Y-101574672D01*
X151503305Y-101575326D01*
X152196372Y-101288957D01*
X152727093Y-100759161D01*
X152987446Y-100132162D01*
X153051861Y-100067747D01*
X153125995Y-100313864D01*
X153663223Y-100506965D01*
X154233454Y-100479778D01*
X154634005Y-100313864D01*
X154708139Y-100067745D01*
X153880000Y-99239605D01*
X153865858Y-99253748D01*
X153686252Y-99074142D01*
X153700395Y-99060000D01*
X154059605Y-99060000D01*
X154887745Y-99888139D01*
X155133864Y-99814005D01*
X155326965Y-99276777D01*
X155299778Y-98706546D01*
X155225861Y-98528094D01*
X160356355Y-98528094D01*
X160922561Y-99898418D01*
X161970068Y-100947754D01*
X163339402Y-101516351D01*
X164822094Y-101517645D01*
X166192418Y-100951439D01*
X167241754Y-99903932D01*
X167810351Y-98534598D01*
X167811645Y-97051906D01*
X167245439Y-95681582D01*
X166197932Y-94632246D01*
X165277382Y-94250000D01*
X175852560Y-94250000D01*
X175852560Y-96250000D01*
X175896838Y-96485317D01*
X176035910Y-96701441D01*
X176202620Y-96815349D01*
X175940856Y-97281645D01*
X175909876Y-97409566D01*
X176029223Y-97663000D01*
X177673000Y-97663000D01*
X177673000Y-97643000D01*
X177927000Y-97643000D01*
X177927000Y-97663000D01*
X179570777Y-97663000D01*
X179690124Y-97409566D01*
X179659144Y-97281645D01*
X179396505Y-96813789D01*
X179551441Y-96714090D01*
X179696431Y-96501890D01*
X179747440Y-96250000D01*
X179747440Y-94250000D01*
X179703162Y-94014683D01*
X179564090Y-93798559D01*
X179351890Y-93653569D01*
X179100000Y-93602560D01*
X176500000Y-93602560D01*
X176264683Y-93646838D01*
X176048559Y-93785910D01*
X175903569Y-93998110D01*
X175852560Y-94250000D01*
X165277382Y-94250000D01*
X164828598Y-94063649D01*
X163345906Y-94062355D01*
X161975582Y-94628561D01*
X160926246Y-95676068D01*
X160357649Y-97045402D01*
X160356355Y-98528094D01*
X155225861Y-98528094D01*
X155133864Y-98305995D01*
X154887745Y-98231861D01*
X154059605Y-99060000D01*
X153700395Y-99060000D01*
X152872255Y-98231861D01*
X152626136Y-98305995D01*
X152569413Y-98463805D01*
X152199161Y-98092907D01*
X151506595Y-97805328D01*
X150756695Y-97804674D01*
X150063628Y-98091043D01*
X149687464Y-98466551D01*
X149597243Y-98248200D01*
X149295312Y-97945742D01*
X149415317Y-97923162D01*
X149631441Y-97784090D01*
X149776431Y-97571890D01*
X149827440Y-97320000D01*
X149827440Y-97253286D01*
X150060839Y-97487093D01*
X150753405Y-97774672D01*
X151503305Y-97775326D01*
X152196372Y-97488957D01*
X152572536Y-97113449D01*
X152662757Y-97331800D01*
X153066077Y-97735824D01*
X153180768Y-97783448D01*
X153125995Y-97806136D01*
X153051861Y-98052255D01*
X153880000Y-98880395D01*
X154708139Y-98052255D01*
X154634005Y-97806136D01*
X154575746Y-97785195D01*
X154691800Y-97737243D01*
X155095824Y-97333923D01*
X155314750Y-96806691D01*
X155315248Y-96235813D01*
X155097243Y-95708200D01*
X154715000Y-95325290D01*
X154715000Y-93428000D01*
X154651439Y-93108459D01*
X154470434Y-92837566D01*
X151706434Y-90073566D01*
X151435541Y-89892561D01*
X151116000Y-89829000D01*
X132233507Y-89829000D01*
X132196462Y-89739345D01*
X131737073Y-89279154D01*
X131136547Y-89029794D01*
X130486306Y-89029226D01*
X129885345Y-89277538D01*
X129425154Y-89736927D01*
X129175794Y-90337453D01*
X129175226Y-90987694D01*
X129423538Y-91588655D01*
X129882927Y-92048846D01*
X130483453Y-92298206D01*
X131133694Y-92298774D01*
X131734655Y-92050462D01*
X132194846Y-91591073D01*
X132233078Y-91499000D01*
X150770132Y-91499000D01*
X153045000Y-93773868D01*
X153045000Y-95325917D01*
X152968183Y-95402600D01*
X152728957Y-94823628D01*
X152199161Y-94292907D01*
X151506595Y-94005328D01*
X150756695Y-94004674D01*
X150063628Y-94291043D01*
X149532907Y-94820839D01*
X149409117Y-95118957D01*
X149180000Y-95072560D01*
X147580000Y-95072560D01*
X147344683Y-95116838D01*
X147128559Y-95255910D01*
X146983569Y-95468110D01*
X146932560Y-95720000D01*
X146932560Y-97320000D01*
X146976838Y-97555317D01*
X147115910Y-97771441D01*
X147328110Y-97916431D01*
X147466354Y-97944426D01*
X147164176Y-98246077D01*
X146945250Y-98773309D01*
X146944874Y-99204073D01*
X146706756Y-99105197D01*
X146255225Y-99104803D01*
X145837914Y-99277233D01*
X145518355Y-99596235D01*
X145345197Y-100013244D01*
X145344803Y-100464775D01*
X145517233Y-100882086D01*
X145836235Y-101201645D01*
X146253244Y-101374803D01*
X146618011Y-101375121D01*
X146466132Y-101527000D01*
X129885868Y-101527000D01*
X127327000Y-98968132D01*
X127327000Y-98528094D01*
X134448355Y-98528094D01*
X135014561Y-99898418D01*
X136062068Y-100947754D01*
X137431402Y-101516351D01*
X138914094Y-101517645D01*
X140284418Y-100951439D01*
X141333754Y-99903932D01*
X141902351Y-98534598D01*
X141903645Y-97051906D01*
X141337439Y-95681582D01*
X140289932Y-94632246D01*
X138920598Y-94063649D01*
X137437906Y-94062355D01*
X136067582Y-94628561D01*
X135018246Y-95676068D01*
X134449649Y-97045402D01*
X134448355Y-98528094D01*
X127327000Y-98528094D01*
X127327000Y-92087507D01*
X127416655Y-92050462D01*
X127876846Y-91591073D01*
X128126206Y-90990547D01*
X128126774Y-90340306D01*
X127878462Y-89739345D01*
X127419073Y-89279154D01*
X126818547Y-89029794D01*
X126168306Y-89029226D01*
X125567345Y-89277538D01*
X125107154Y-89736927D01*
X124857794Y-90337453D01*
X124857226Y-90987694D01*
X125105538Y-91588655D01*
X125564927Y-92048846D01*
X125657000Y-92087078D01*
X125657000Y-98968132D01*
X121329566Y-103295566D01*
X121148561Y-103566459D01*
X121085000Y-103886000D01*
X121085000Y-104240493D01*
X120995345Y-104277538D01*
X120535154Y-104736927D01*
X120285794Y-105337453D01*
X120285226Y-105987694D01*
X117602000Y-105987694D01*
X117602000Y-91816163D01*
X120947443Y-91816163D01*
X121046042Y-92082965D01*
X121655582Y-92309401D01*
X122305377Y-92285341D01*
X122793958Y-92082965D01*
X122892557Y-91816163D01*
X121920000Y-90843605D01*
X120947443Y-91816163D01*
X117602000Y-91816163D01*
X117602000Y-90399582D01*
X120274599Y-90399582D01*
X120298659Y-91049377D01*
X120501035Y-91537958D01*
X120767837Y-91636557D01*
X121740395Y-90664000D01*
X122099605Y-90664000D01*
X123072163Y-91636557D01*
X123338965Y-91537958D01*
X123565401Y-90928418D01*
X123541341Y-90278623D01*
X123338965Y-89790042D01*
X123072163Y-89691443D01*
X122099605Y-90664000D01*
X121740395Y-90664000D01*
X120767837Y-89691443D01*
X120501035Y-89790042D01*
X120274599Y-90399582D01*
X117602000Y-90399582D01*
X117602000Y-89511837D01*
X120947443Y-89511837D01*
X121920000Y-90484395D01*
X122892557Y-89511837D01*
X122793958Y-89245035D01*
X122184418Y-89018599D01*
X121534623Y-89042659D01*
X121046042Y-89245035D01*
X120947443Y-89511837D01*
X117602000Y-89511837D01*
X117602000Y-87682606D01*
X118162606Y-87122000D01*
X184097394Y-87122000D01*
X184658000Y-87682606D01*
X184658000Y-87682606D01*
G37*
X184658000Y-87682606D02*
X184658000Y-107897394D01*
X184097394Y-108458000D01*
X118162606Y-108458000D01*
X117602000Y-107897394D01*
X117602000Y-105987694D01*
X120285226Y-105987694D01*
X120533538Y-106588655D01*
X120992927Y-107048846D01*
X121593453Y-107298206D01*
X122243694Y-107298774D01*
X122844655Y-107050462D01*
X123304846Y-106591073D01*
X123554206Y-105990547D01*
X123554774Y-105340306D01*
X123306462Y-104739345D01*
X122847073Y-104279154D01*
X122755000Y-104240922D01*
X122755000Y-104231868D01*
X126492000Y-100494868D01*
X128579597Y-102582465D01*
X128458459Y-102606561D01*
X128346244Y-102681541D01*
X128187566Y-102787566D01*
X126908137Y-104066995D01*
X126818547Y-104029794D01*
X126437701Y-104029461D01*
X126365000Y-104015000D01*
X126292934Y-104029335D01*
X126168306Y-104029226D01*
X125567345Y-104277538D01*
X125107154Y-104736927D01*
X124857794Y-105337453D01*
X124857226Y-105987694D01*
X125105538Y-106588655D01*
X125564927Y-107048846D01*
X126165453Y-107298206D01*
X126815694Y-107298774D01*
X127416655Y-107050462D01*
X127876846Y-106591073D01*
X128126206Y-105990547D01*
X128126774Y-105340306D01*
X128088702Y-105248166D01*
X129123868Y-104213000D01*
X130041539Y-104213000D01*
X129885345Y-104277538D01*
X129425154Y-104736927D01*
X129175794Y-105337453D01*
X129175226Y-105987694D01*
X129423538Y-106588655D01*
X129882927Y-107048846D01*
X130483453Y-107298206D01*
X131133694Y-107298774D01*
X131734655Y-107050462D01*
X132194846Y-106591073D01*
X132444206Y-105990547D01*
X132444774Y-105340306D01*
X132196462Y-104739345D01*
X131737073Y-104279154D01*
X131577756Y-104213000D01*
X174752000Y-104213000D01*
X175071541Y-104149439D01*
X175342434Y-103968434D01*
X177365151Y-101945717D01*
X177462091Y-101965000D01*
X178137909Y-101965000D01*
X178763596Y-101840543D01*
X179294029Y-101486120D01*
X179648452Y-100955687D01*
X179772909Y-100330000D01*
X179648452Y-99704313D01*
X179294029Y-99173880D01*
X179103812Y-99046781D01*
X179345922Y-98856317D01*
X179659144Y-98298355D01*
X179690124Y-98170434D01*
X179570777Y-97917000D01*
X177927000Y-97917000D01*
X177927000Y-97937000D01*
X177673000Y-97937000D01*
X177673000Y-97917000D01*
X176029223Y-97917000D01*
X175909876Y-98170434D01*
X175940856Y-98298355D01*
X176254078Y-98856317D01*
X176496188Y-99046781D01*
X176305971Y-99173880D01*
X175951548Y-99704313D01*
X175827091Y-100330000D01*
X175951548Y-100955687D01*
X175968330Y-100980802D01*
X174406132Y-102543000D01*
X147811868Y-102543000D01*
X148970434Y-101384434D01*
X148976869Y-101374803D01*
X149151439Y-101113541D01*
X149215000Y-100794000D01*
X149215000Y-100254083D01*
X149291817Y-100177400D01*
X149531043Y-100756372D01*
X150060839Y-101287093D01*
X150753405Y-101574672D01*
X151503305Y-101575326D01*
X152196372Y-101288957D01*
X152727093Y-100759161D01*
X152987446Y-100132162D01*
X153051861Y-100067747D01*
X153125995Y-100313864D01*
X153663223Y-100506965D01*
X154233454Y-100479778D01*
X154634005Y-100313864D01*
X154708139Y-100067745D01*
X153880000Y-99239605D01*
X153865858Y-99253748D01*
X153686252Y-99074142D01*
X153700395Y-99060000D01*
X154059605Y-99060000D01*
X154887745Y-99888139D01*
X155133864Y-99814005D01*
X155326965Y-99276777D01*
X155299778Y-98706546D01*
X155225861Y-98528094D01*
X160356355Y-98528094D01*
X160922561Y-99898418D01*
X161970068Y-100947754D01*
X163339402Y-101516351D01*
X164822094Y-101517645D01*
X166192418Y-100951439D01*
X167241754Y-99903932D01*
X167810351Y-98534598D01*
X167811645Y-97051906D01*
X167245439Y-95681582D01*
X166197932Y-94632246D01*
X165277382Y-94250000D01*
X175852560Y-94250000D01*
X175852560Y-96250000D01*
X175896838Y-96485317D01*
X176035910Y-96701441D01*
X176202620Y-96815349D01*
X175940856Y-97281645D01*
X175909876Y-97409566D01*
X176029223Y-97663000D01*
X177673000Y-97663000D01*
X177673000Y-97643000D01*
X177927000Y-97643000D01*
X177927000Y-97663000D01*
X179570777Y-97663000D01*
X179690124Y-97409566D01*
X179659144Y-97281645D01*
X179396505Y-96813789D01*
X179551441Y-96714090D01*
X179696431Y-96501890D01*
X179747440Y-96250000D01*
X179747440Y-94250000D01*
X179703162Y-94014683D01*
X179564090Y-93798559D01*
X179351890Y-93653569D01*
X179100000Y-93602560D01*
X176500000Y-93602560D01*
X176264683Y-93646838D01*
X176048559Y-93785910D01*
X175903569Y-93998110D01*
X175852560Y-94250000D01*
X165277382Y-94250000D01*
X164828598Y-94063649D01*
X163345906Y-94062355D01*
X161975582Y-94628561D01*
X160926246Y-95676068D01*
X160357649Y-97045402D01*
X160356355Y-98528094D01*
X155225861Y-98528094D01*
X155133864Y-98305995D01*
X154887745Y-98231861D01*
X154059605Y-99060000D01*
X153700395Y-99060000D01*
X152872255Y-98231861D01*
X152626136Y-98305995D01*
X152569413Y-98463805D01*
X152199161Y-98092907D01*
X151506595Y-97805328D01*
X150756695Y-97804674D01*
X150063628Y-98091043D01*
X149687464Y-98466551D01*
X149597243Y-98248200D01*
X149295312Y-97945742D01*
X149415317Y-97923162D01*
X149631441Y-97784090D01*
X149776431Y-97571890D01*
X149827440Y-97320000D01*
X149827440Y-97253286D01*
X150060839Y-97487093D01*
X150753405Y-97774672D01*
X151503305Y-97775326D01*
X152196372Y-97488957D01*
X152572536Y-97113449D01*
X152662757Y-97331800D01*
X153066077Y-97735824D01*
X153180768Y-97783448D01*
X153125995Y-97806136D01*
X153051861Y-98052255D01*
X153880000Y-98880395D01*
X154708139Y-98052255D01*
X154634005Y-97806136D01*
X154575746Y-97785195D01*
X154691800Y-97737243D01*
X155095824Y-97333923D01*
X155314750Y-96806691D01*
X155315248Y-96235813D01*
X155097243Y-95708200D01*
X154715000Y-95325290D01*
X154715000Y-93428000D01*
X154651439Y-93108459D01*
X154470434Y-92837566D01*
X151706434Y-90073566D01*
X151435541Y-89892561D01*
X151116000Y-89829000D01*
X132233507Y-89829000D01*
X132196462Y-89739345D01*
X131737073Y-89279154D01*
X131136547Y-89029794D01*
X130486306Y-89029226D01*
X129885345Y-89277538D01*
X129425154Y-89736927D01*
X129175794Y-90337453D01*
X129175226Y-90987694D01*
X129423538Y-91588655D01*
X129882927Y-92048846D01*
X130483453Y-92298206D01*
X131133694Y-92298774D01*
X131734655Y-92050462D01*
X132194846Y-91591073D01*
X132233078Y-91499000D01*
X150770132Y-91499000D01*
X153045000Y-93773868D01*
X153045000Y-95325917D01*
X152968183Y-95402600D01*
X152728957Y-94823628D01*
X152199161Y-94292907D01*
X151506595Y-94005328D01*
X150756695Y-94004674D01*
X150063628Y-94291043D01*
X149532907Y-94820839D01*
X149409117Y-95118957D01*
X149180000Y-95072560D01*
X147580000Y-95072560D01*
X147344683Y-95116838D01*
X147128559Y-95255910D01*
X146983569Y-95468110D01*
X146932560Y-95720000D01*
X146932560Y-97320000D01*
X146976838Y-97555317D01*
X147115910Y-97771441D01*
X147328110Y-97916431D01*
X147466354Y-97944426D01*
X147164176Y-98246077D01*
X146945250Y-98773309D01*
X146944874Y-99204073D01*
X146706756Y-99105197D01*
X146255225Y-99104803D01*
X145837914Y-99277233D01*
X145518355Y-99596235D01*
X145345197Y-100013244D01*
X145344803Y-100464775D01*
X145517233Y-100882086D01*
X145836235Y-101201645D01*
X146253244Y-101374803D01*
X146618011Y-101375121D01*
X146466132Y-101527000D01*
X129885868Y-101527000D01*
X127327000Y-98968132D01*
X127327000Y-98528094D01*
X134448355Y-98528094D01*
X135014561Y-99898418D01*
X136062068Y-100947754D01*
X137431402Y-101516351D01*
X138914094Y-101517645D01*
X140284418Y-100951439D01*
X141333754Y-99903932D01*
X141902351Y-98534598D01*
X141903645Y-97051906D01*
X141337439Y-95681582D01*
X140289932Y-94632246D01*
X138920598Y-94063649D01*
X137437906Y-94062355D01*
X136067582Y-94628561D01*
X135018246Y-95676068D01*
X134449649Y-97045402D01*
X134448355Y-98528094D01*
X127327000Y-98528094D01*
X127327000Y-92087507D01*
X127416655Y-92050462D01*
X127876846Y-91591073D01*
X128126206Y-90990547D01*
X128126774Y-90340306D01*
X127878462Y-89739345D01*
X127419073Y-89279154D01*
X126818547Y-89029794D01*
X126168306Y-89029226D01*
X125567345Y-89277538D01*
X125107154Y-89736927D01*
X124857794Y-90337453D01*
X124857226Y-90987694D01*
X125105538Y-91588655D01*
X125564927Y-92048846D01*
X125657000Y-92087078D01*
X125657000Y-98968132D01*
X121329566Y-103295566D01*
X121148561Y-103566459D01*
X121085000Y-103886000D01*
X121085000Y-104240493D01*
X120995345Y-104277538D01*
X120535154Y-104736927D01*
X120285794Y-105337453D01*
X120285226Y-105987694D01*
X117602000Y-105987694D01*
X117602000Y-91816163D01*
X120947443Y-91816163D01*
X121046042Y-92082965D01*
X121655582Y-92309401D01*
X122305377Y-92285341D01*
X122793958Y-92082965D01*
X122892557Y-91816163D01*
X121920000Y-90843605D01*
X120947443Y-91816163D01*
X117602000Y-91816163D01*
X117602000Y-90399582D01*
X120274599Y-90399582D01*
X120298659Y-91049377D01*
X120501035Y-91537958D01*
X120767837Y-91636557D01*
X121740395Y-90664000D01*
X122099605Y-90664000D01*
X123072163Y-91636557D01*
X123338965Y-91537958D01*
X123565401Y-90928418D01*
X123541341Y-90278623D01*
X123338965Y-89790042D01*
X123072163Y-89691443D01*
X122099605Y-90664000D01*
X121740395Y-90664000D01*
X120767837Y-89691443D01*
X120501035Y-89790042D01*
X120274599Y-90399582D01*
X117602000Y-90399582D01*
X117602000Y-89511837D01*
X120947443Y-89511837D01*
X121920000Y-90484395D01*
X122892557Y-89511837D01*
X122793958Y-89245035D01*
X122184418Y-89018599D01*
X121534623Y-89042659D01*
X121046042Y-89245035D01*
X120947443Y-89511837D01*
X117602000Y-89511837D01*
X117602000Y-87682606D01*
X118162606Y-87122000D01*
X184097394Y-87122000D01*
X184658000Y-87682606D01*
M02*
