G04 #@! TF.FileFunction,Copper,L2,Bot,Signal*
%FSLAX46Y46*%
G04 Gerber Fmt 4.6, Leading zero omitted, Abs format (unit mm)*
G04 Created by KiCad (PCBNEW 4.0.2+e4-6225~38~ubuntu15.04.1-stable) date zo 31 jul 2016 04:59:36 CEST*
%MOMM*%
G01*
G04 APERTURE LIST*
%ADD10C,0.100000*%
%ADD11C,1.998980*%
%ADD12R,2.600000X2.000000*%
%ADD13O,2.600000X2.000000*%
%ADD14R,1.600000X1.600000*%
%ADD15C,1.600000*%
%ADD16C,3.200000*%
%ADD17C,0.254000*%
G04 APERTURE END LIST*
D10*
D11*
X126492000Y-105664000D03*
X126492000Y-90664000D03*
D12*
X177800000Y-95250000D03*
D13*
X177800000Y-97790000D03*
X177800000Y-100330000D03*
D11*
X121920000Y-105664000D03*
X121920000Y-90664000D03*
X130810000Y-105664000D03*
X130810000Y-90664000D03*
D14*
X148380000Y-96520000D03*
D15*
X148380000Y-99060000D03*
X153880000Y-99060000D03*
X153880000Y-96520000D03*
D16*
X138176000Y-97790000D03*
X164084000Y-97790000D03*
D17*
G36*
X184658000Y-87682606D02*
X184658000Y-107897394D01*
X184097394Y-108458000D01*
X118162606Y-108458000D01*
X117602000Y-107897394D01*
X117602000Y-105987694D01*
X120285226Y-105987694D01*
X120533538Y-106588655D01*
X120992927Y-107048846D01*
X121593453Y-107298206D01*
X122243694Y-107298774D01*
X122844655Y-107050462D01*
X123304846Y-106591073D01*
X123554206Y-105990547D01*
X123554208Y-105987694D01*
X124857226Y-105987694D01*
X125105538Y-106588655D01*
X125564927Y-107048846D01*
X126165453Y-107298206D01*
X126815694Y-107298774D01*
X127416655Y-107050462D01*
X127651363Y-106816163D01*
X129837443Y-106816163D01*
X129936042Y-107082965D01*
X130545582Y-107309401D01*
X131195377Y-107285341D01*
X131683958Y-107082965D01*
X131782557Y-106816163D01*
X130810000Y-105843605D01*
X129837443Y-106816163D01*
X127651363Y-106816163D01*
X127876846Y-106591073D01*
X128126206Y-105990547D01*
X128126722Y-105399582D01*
X129164599Y-105399582D01*
X129188659Y-106049377D01*
X129391035Y-106537958D01*
X129657837Y-106636557D01*
X130630395Y-105664000D01*
X130989605Y-105664000D01*
X131962163Y-106636557D01*
X132228965Y-106537958D01*
X132455401Y-105928418D01*
X132431341Y-105278623D01*
X132228965Y-104790042D01*
X131962163Y-104691443D01*
X130989605Y-105664000D01*
X130630395Y-105664000D01*
X129657837Y-104691443D01*
X129391035Y-104790042D01*
X129164599Y-105399582D01*
X128126722Y-105399582D01*
X128126774Y-105340306D01*
X127878462Y-104739345D01*
X127651351Y-104511837D01*
X129837443Y-104511837D01*
X130810000Y-105484395D01*
X131782557Y-104511837D01*
X131683958Y-104245035D01*
X131074418Y-104018599D01*
X130424623Y-104042659D01*
X129936042Y-104245035D01*
X129837443Y-104511837D01*
X127651351Y-104511837D01*
X127419073Y-104279154D01*
X126818547Y-104029794D01*
X126168306Y-104029226D01*
X125567345Y-104277538D01*
X125107154Y-104736927D01*
X124857794Y-105337453D01*
X124857226Y-105987694D01*
X123554208Y-105987694D01*
X123554774Y-105340306D01*
X123306462Y-104739345D01*
X122847073Y-104279154D01*
X122246547Y-104029794D01*
X121596306Y-104029226D01*
X120995345Y-104277538D01*
X120535154Y-104736927D01*
X120285794Y-105337453D01*
X120285226Y-105987694D01*
X117602000Y-105987694D01*
X117602000Y-98528094D01*
X134448355Y-98528094D01*
X135014561Y-99898418D01*
X136062068Y-100947754D01*
X137431402Y-101516351D01*
X138914094Y-101517645D01*
X140284418Y-100951439D01*
X140771931Y-100464775D01*
X145344803Y-100464775D01*
X145517233Y-100882086D01*
X145836235Y-101201645D01*
X146253244Y-101374803D01*
X146704775Y-101375197D01*
X147122086Y-101202767D01*
X147441645Y-100883765D01*
X147614803Y-100466756D01*
X147614952Y-100296119D01*
X148093309Y-100494750D01*
X148664187Y-100495248D01*
X149191800Y-100277243D01*
X149291817Y-100177400D01*
X149531043Y-100756372D01*
X150060839Y-101287093D01*
X150753405Y-101574672D01*
X151503305Y-101575326D01*
X152196372Y-101288957D01*
X152727093Y-100759161D01*
X152968416Y-100177992D01*
X153066077Y-100275824D01*
X153593309Y-100494750D01*
X154164187Y-100495248D01*
X154691800Y-100277243D01*
X155095824Y-99873923D01*
X155314750Y-99346691D01*
X155315248Y-98775813D01*
X155212893Y-98528094D01*
X160356355Y-98528094D01*
X160922561Y-99898418D01*
X161970068Y-100947754D01*
X163339402Y-101516351D01*
X164822094Y-101517645D01*
X166192418Y-100951439D01*
X167241754Y-99903932D01*
X167810351Y-98534598D01*
X167811000Y-97790000D01*
X175827091Y-97790000D01*
X175951548Y-98415687D01*
X176305971Y-98946120D01*
X176476405Y-99060000D01*
X176305971Y-99173880D01*
X175951548Y-99704313D01*
X175827091Y-100330000D01*
X175951548Y-100955687D01*
X176305971Y-101486120D01*
X176836404Y-101840543D01*
X177462091Y-101965000D01*
X178137909Y-101965000D01*
X178763596Y-101840543D01*
X179294029Y-101486120D01*
X179648452Y-100955687D01*
X179772909Y-100330000D01*
X179648452Y-99704313D01*
X179294029Y-99173880D01*
X179123595Y-99060000D01*
X179294029Y-98946120D01*
X179648452Y-98415687D01*
X179772909Y-97790000D01*
X179648452Y-97164313D01*
X179410769Y-96808594D01*
X179459699Y-96788327D01*
X179638327Y-96609698D01*
X179735000Y-96376309D01*
X179735000Y-95535750D01*
X179576250Y-95377000D01*
X177927000Y-95377000D01*
X177927000Y-95397000D01*
X177673000Y-95397000D01*
X177673000Y-95377000D01*
X176023750Y-95377000D01*
X175865000Y-95535750D01*
X175865000Y-96376309D01*
X175961673Y-96609698D01*
X176140301Y-96788327D01*
X176189231Y-96808594D01*
X175951548Y-97164313D01*
X175827091Y-97790000D01*
X167811000Y-97790000D01*
X167811645Y-97051906D01*
X167245439Y-95681582D01*
X166197932Y-94632246D01*
X164973196Y-94123691D01*
X175865000Y-94123691D01*
X175865000Y-94964250D01*
X176023750Y-95123000D01*
X177673000Y-95123000D01*
X177673000Y-93773750D01*
X177927000Y-93773750D01*
X177927000Y-95123000D01*
X179576250Y-95123000D01*
X179735000Y-94964250D01*
X179735000Y-94123691D01*
X179638327Y-93890302D01*
X179459699Y-93711673D01*
X179226310Y-93615000D01*
X178085750Y-93615000D01*
X177927000Y-93773750D01*
X177673000Y-93773750D01*
X177514250Y-93615000D01*
X176373690Y-93615000D01*
X176140301Y-93711673D01*
X175961673Y-93890302D01*
X175865000Y-94123691D01*
X164973196Y-94123691D01*
X164828598Y-94063649D01*
X163345906Y-94062355D01*
X161975582Y-94628561D01*
X160926246Y-95676068D01*
X160357649Y-97045402D01*
X160356355Y-98528094D01*
X155212893Y-98528094D01*
X155097243Y-98248200D01*
X154693923Y-97844176D01*
X154563785Y-97790138D01*
X154691800Y-97737243D01*
X155095824Y-97333923D01*
X155314750Y-96806691D01*
X155315248Y-96235813D01*
X155097243Y-95708200D01*
X154693923Y-95304176D01*
X154166691Y-95085250D01*
X153595813Y-95084752D01*
X153068200Y-95302757D01*
X152968183Y-95402600D01*
X152728957Y-94823628D01*
X152199161Y-94292907D01*
X151506595Y-94005328D01*
X150756695Y-94004674D01*
X150063628Y-94291043D01*
X149532907Y-94820839D01*
X149406061Y-95126319D01*
X149306309Y-95085000D01*
X148665750Y-95085000D01*
X148507000Y-95243750D01*
X148507000Y-96393000D01*
X148527000Y-96393000D01*
X148527000Y-96647000D01*
X148507000Y-96647000D01*
X148507000Y-96667000D01*
X148253000Y-96667000D01*
X148253000Y-96647000D01*
X147103750Y-96647000D01*
X146945000Y-96805750D01*
X146945000Y-97446310D01*
X147041673Y-97679699D01*
X147220302Y-97858327D01*
X147453691Y-97955000D01*
X147455761Y-97955000D01*
X147164176Y-98246077D01*
X146945250Y-98773309D01*
X146944874Y-99204073D01*
X146706756Y-99105197D01*
X146255225Y-99104803D01*
X145837914Y-99277233D01*
X145518355Y-99596235D01*
X145345197Y-100013244D01*
X145344803Y-100464775D01*
X140771931Y-100464775D01*
X141333754Y-99903932D01*
X141902351Y-98534598D01*
X141903645Y-97051906D01*
X141337439Y-95681582D01*
X141249701Y-95593690D01*
X146945000Y-95593690D01*
X146945000Y-96234250D01*
X147103750Y-96393000D01*
X148253000Y-96393000D01*
X148253000Y-95243750D01*
X148094250Y-95085000D01*
X147453691Y-95085000D01*
X147220302Y-95181673D01*
X147041673Y-95360301D01*
X146945000Y-95593690D01*
X141249701Y-95593690D01*
X140289932Y-94632246D01*
X138920598Y-94063649D01*
X137437906Y-94062355D01*
X136067582Y-94628561D01*
X135018246Y-95676068D01*
X134449649Y-97045402D01*
X134448355Y-98528094D01*
X117602000Y-98528094D01*
X117602000Y-90987694D01*
X120285226Y-90987694D01*
X120533538Y-91588655D01*
X120992927Y-92048846D01*
X121593453Y-92298206D01*
X122243694Y-92298774D01*
X122844655Y-92050462D01*
X123304846Y-91591073D01*
X123554206Y-90990547D01*
X123554208Y-90987694D01*
X124857226Y-90987694D01*
X125105538Y-91588655D01*
X125564927Y-92048846D01*
X126165453Y-92298206D01*
X126815694Y-92298774D01*
X127416655Y-92050462D01*
X127876846Y-91591073D01*
X128126206Y-90990547D01*
X128126208Y-90987694D01*
X129175226Y-90987694D01*
X129423538Y-91588655D01*
X129882927Y-92048846D01*
X130483453Y-92298206D01*
X131133694Y-92298774D01*
X131734655Y-92050462D01*
X132194846Y-91591073D01*
X132444206Y-90990547D01*
X132444774Y-90340306D01*
X132196462Y-89739345D01*
X131737073Y-89279154D01*
X131136547Y-89029794D01*
X130486306Y-89029226D01*
X129885345Y-89277538D01*
X129425154Y-89736927D01*
X129175794Y-90337453D01*
X129175226Y-90987694D01*
X128126208Y-90987694D01*
X128126774Y-90340306D01*
X127878462Y-89739345D01*
X127419073Y-89279154D01*
X126818547Y-89029794D01*
X126168306Y-89029226D01*
X125567345Y-89277538D01*
X125107154Y-89736927D01*
X124857794Y-90337453D01*
X124857226Y-90987694D01*
X123554208Y-90987694D01*
X123554774Y-90340306D01*
X123306462Y-89739345D01*
X122847073Y-89279154D01*
X122246547Y-89029794D01*
X121596306Y-89029226D01*
X120995345Y-89277538D01*
X120535154Y-89736927D01*
X120285794Y-90337453D01*
X120285226Y-90987694D01*
X117602000Y-90987694D01*
X117602000Y-87682606D01*
X118162606Y-87122000D01*
X184097394Y-87122000D01*
X184658000Y-87682606D01*
X184658000Y-87682606D01*
G37*
X184658000Y-87682606D02*
X184658000Y-107897394D01*
X184097394Y-108458000D01*
X118162606Y-108458000D01*
X117602000Y-107897394D01*
X117602000Y-105987694D01*
X120285226Y-105987694D01*
X120533538Y-106588655D01*
X120992927Y-107048846D01*
X121593453Y-107298206D01*
X122243694Y-107298774D01*
X122844655Y-107050462D01*
X123304846Y-106591073D01*
X123554206Y-105990547D01*
X123554208Y-105987694D01*
X124857226Y-105987694D01*
X125105538Y-106588655D01*
X125564927Y-107048846D01*
X126165453Y-107298206D01*
X126815694Y-107298774D01*
X127416655Y-107050462D01*
X127651363Y-106816163D01*
X129837443Y-106816163D01*
X129936042Y-107082965D01*
X130545582Y-107309401D01*
X131195377Y-107285341D01*
X131683958Y-107082965D01*
X131782557Y-106816163D01*
X130810000Y-105843605D01*
X129837443Y-106816163D01*
X127651363Y-106816163D01*
X127876846Y-106591073D01*
X128126206Y-105990547D01*
X128126722Y-105399582D01*
X129164599Y-105399582D01*
X129188659Y-106049377D01*
X129391035Y-106537958D01*
X129657837Y-106636557D01*
X130630395Y-105664000D01*
X130989605Y-105664000D01*
X131962163Y-106636557D01*
X132228965Y-106537958D01*
X132455401Y-105928418D01*
X132431341Y-105278623D01*
X132228965Y-104790042D01*
X131962163Y-104691443D01*
X130989605Y-105664000D01*
X130630395Y-105664000D01*
X129657837Y-104691443D01*
X129391035Y-104790042D01*
X129164599Y-105399582D01*
X128126722Y-105399582D01*
X128126774Y-105340306D01*
X127878462Y-104739345D01*
X127651351Y-104511837D01*
X129837443Y-104511837D01*
X130810000Y-105484395D01*
X131782557Y-104511837D01*
X131683958Y-104245035D01*
X131074418Y-104018599D01*
X130424623Y-104042659D01*
X129936042Y-104245035D01*
X129837443Y-104511837D01*
X127651351Y-104511837D01*
X127419073Y-104279154D01*
X126818547Y-104029794D01*
X126168306Y-104029226D01*
X125567345Y-104277538D01*
X125107154Y-104736927D01*
X124857794Y-105337453D01*
X124857226Y-105987694D01*
X123554208Y-105987694D01*
X123554774Y-105340306D01*
X123306462Y-104739345D01*
X122847073Y-104279154D01*
X122246547Y-104029794D01*
X121596306Y-104029226D01*
X120995345Y-104277538D01*
X120535154Y-104736927D01*
X120285794Y-105337453D01*
X120285226Y-105987694D01*
X117602000Y-105987694D01*
X117602000Y-98528094D01*
X134448355Y-98528094D01*
X135014561Y-99898418D01*
X136062068Y-100947754D01*
X137431402Y-101516351D01*
X138914094Y-101517645D01*
X140284418Y-100951439D01*
X140771931Y-100464775D01*
X145344803Y-100464775D01*
X145517233Y-100882086D01*
X145836235Y-101201645D01*
X146253244Y-101374803D01*
X146704775Y-101375197D01*
X147122086Y-101202767D01*
X147441645Y-100883765D01*
X147614803Y-100466756D01*
X147614952Y-100296119D01*
X148093309Y-100494750D01*
X148664187Y-100495248D01*
X149191800Y-100277243D01*
X149291817Y-100177400D01*
X149531043Y-100756372D01*
X150060839Y-101287093D01*
X150753405Y-101574672D01*
X151503305Y-101575326D01*
X152196372Y-101288957D01*
X152727093Y-100759161D01*
X152968416Y-100177992D01*
X153066077Y-100275824D01*
X153593309Y-100494750D01*
X154164187Y-100495248D01*
X154691800Y-100277243D01*
X155095824Y-99873923D01*
X155314750Y-99346691D01*
X155315248Y-98775813D01*
X155212893Y-98528094D01*
X160356355Y-98528094D01*
X160922561Y-99898418D01*
X161970068Y-100947754D01*
X163339402Y-101516351D01*
X164822094Y-101517645D01*
X166192418Y-100951439D01*
X167241754Y-99903932D01*
X167810351Y-98534598D01*
X167811000Y-97790000D01*
X175827091Y-97790000D01*
X175951548Y-98415687D01*
X176305971Y-98946120D01*
X176476405Y-99060000D01*
X176305971Y-99173880D01*
X175951548Y-99704313D01*
X175827091Y-100330000D01*
X175951548Y-100955687D01*
X176305971Y-101486120D01*
X176836404Y-101840543D01*
X177462091Y-101965000D01*
X178137909Y-101965000D01*
X178763596Y-101840543D01*
X179294029Y-101486120D01*
X179648452Y-100955687D01*
X179772909Y-100330000D01*
X179648452Y-99704313D01*
X179294029Y-99173880D01*
X179123595Y-99060000D01*
X179294029Y-98946120D01*
X179648452Y-98415687D01*
X179772909Y-97790000D01*
X179648452Y-97164313D01*
X179410769Y-96808594D01*
X179459699Y-96788327D01*
X179638327Y-96609698D01*
X179735000Y-96376309D01*
X179735000Y-95535750D01*
X179576250Y-95377000D01*
X177927000Y-95377000D01*
X177927000Y-95397000D01*
X177673000Y-95397000D01*
X177673000Y-95377000D01*
X176023750Y-95377000D01*
X175865000Y-95535750D01*
X175865000Y-96376309D01*
X175961673Y-96609698D01*
X176140301Y-96788327D01*
X176189231Y-96808594D01*
X175951548Y-97164313D01*
X175827091Y-97790000D01*
X167811000Y-97790000D01*
X167811645Y-97051906D01*
X167245439Y-95681582D01*
X166197932Y-94632246D01*
X164973196Y-94123691D01*
X175865000Y-94123691D01*
X175865000Y-94964250D01*
X176023750Y-95123000D01*
X177673000Y-95123000D01*
X177673000Y-93773750D01*
X177927000Y-93773750D01*
X177927000Y-95123000D01*
X179576250Y-95123000D01*
X179735000Y-94964250D01*
X179735000Y-94123691D01*
X179638327Y-93890302D01*
X179459699Y-93711673D01*
X179226310Y-93615000D01*
X178085750Y-93615000D01*
X177927000Y-93773750D01*
X177673000Y-93773750D01*
X177514250Y-93615000D01*
X176373690Y-93615000D01*
X176140301Y-93711673D01*
X175961673Y-93890302D01*
X175865000Y-94123691D01*
X164973196Y-94123691D01*
X164828598Y-94063649D01*
X163345906Y-94062355D01*
X161975582Y-94628561D01*
X160926246Y-95676068D01*
X160357649Y-97045402D01*
X160356355Y-98528094D01*
X155212893Y-98528094D01*
X155097243Y-98248200D01*
X154693923Y-97844176D01*
X154563785Y-97790138D01*
X154691800Y-97737243D01*
X155095824Y-97333923D01*
X155314750Y-96806691D01*
X155315248Y-96235813D01*
X155097243Y-95708200D01*
X154693923Y-95304176D01*
X154166691Y-95085250D01*
X153595813Y-95084752D01*
X153068200Y-95302757D01*
X152968183Y-95402600D01*
X152728957Y-94823628D01*
X152199161Y-94292907D01*
X151506595Y-94005328D01*
X150756695Y-94004674D01*
X150063628Y-94291043D01*
X149532907Y-94820839D01*
X149406061Y-95126319D01*
X149306309Y-95085000D01*
X148665750Y-95085000D01*
X148507000Y-95243750D01*
X148507000Y-96393000D01*
X148527000Y-96393000D01*
X148527000Y-96647000D01*
X148507000Y-96647000D01*
X148507000Y-96667000D01*
X148253000Y-96667000D01*
X148253000Y-96647000D01*
X147103750Y-96647000D01*
X146945000Y-96805750D01*
X146945000Y-97446310D01*
X147041673Y-97679699D01*
X147220302Y-97858327D01*
X147453691Y-97955000D01*
X147455761Y-97955000D01*
X147164176Y-98246077D01*
X146945250Y-98773309D01*
X146944874Y-99204073D01*
X146706756Y-99105197D01*
X146255225Y-99104803D01*
X145837914Y-99277233D01*
X145518355Y-99596235D01*
X145345197Y-100013244D01*
X145344803Y-100464775D01*
X140771931Y-100464775D01*
X141333754Y-99903932D01*
X141902351Y-98534598D01*
X141903645Y-97051906D01*
X141337439Y-95681582D01*
X141249701Y-95593690D01*
X146945000Y-95593690D01*
X146945000Y-96234250D01*
X147103750Y-96393000D01*
X148253000Y-96393000D01*
X148253000Y-95243750D01*
X148094250Y-95085000D01*
X147453691Y-95085000D01*
X147220302Y-95181673D01*
X147041673Y-95360301D01*
X146945000Y-95593690D01*
X141249701Y-95593690D01*
X140289932Y-94632246D01*
X138920598Y-94063649D01*
X137437906Y-94062355D01*
X136067582Y-94628561D01*
X135018246Y-95676068D01*
X134449649Y-97045402D01*
X134448355Y-98528094D01*
X117602000Y-98528094D01*
X117602000Y-90987694D01*
X120285226Y-90987694D01*
X120533538Y-91588655D01*
X120992927Y-92048846D01*
X121593453Y-92298206D01*
X122243694Y-92298774D01*
X122844655Y-92050462D01*
X123304846Y-91591073D01*
X123554206Y-90990547D01*
X123554208Y-90987694D01*
X124857226Y-90987694D01*
X125105538Y-91588655D01*
X125564927Y-92048846D01*
X126165453Y-92298206D01*
X126815694Y-92298774D01*
X127416655Y-92050462D01*
X127876846Y-91591073D01*
X128126206Y-90990547D01*
X128126208Y-90987694D01*
X129175226Y-90987694D01*
X129423538Y-91588655D01*
X129882927Y-92048846D01*
X130483453Y-92298206D01*
X131133694Y-92298774D01*
X131734655Y-92050462D01*
X132194846Y-91591073D01*
X132444206Y-90990547D01*
X132444774Y-90340306D01*
X132196462Y-89739345D01*
X131737073Y-89279154D01*
X131136547Y-89029794D01*
X130486306Y-89029226D01*
X129885345Y-89277538D01*
X129425154Y-89736927D01*
X129175794Y-90337453D01*
X129175226Y-90987694D01*
X128126208Y-90987694D01*
X128126774Y-90340306D01*
X127878462Y-89739345D01*
X127419073Y-89279154D01*
X126818547Y-89029794D01*
X126168306Y-89029226D01*
X125567345Y-89277538D01*
X125107154Y-89736927D01*
X124857794Y-90337453D01*
X124857226Y-90987694D01*
X123554208Y-90987694D01*
X123554774Y-90340306D01*
X123306462Y-89739345D01*
X122847073Y-89279154D01*
X122246547Y-89029794D01*
X121596306Y-89029226D01*
X120995345Y-89277538D01*
X120535154Y-89736927D01*
X120285794Y-90337453D01*
X120285226Y-90987694D01*
X117602000Y-90987694D01*
X117602000Y-87682606D01*
X118162606Y-87122000D01*
X184097394Y-87122000D01*
X184658000Y-87682606D01*
M02*
