G04 #@! TF.FileFunction,Copper,L2,Bot,Signal*
%FSLAX46Y46*%
G04 Gerber Fmt 4.6, Leading zero omitted, Abs format (unit mm)*
G04 Created by KiCad (PCBNEW 4.0.2+e4-6225~38~ubuntu15.04.1-stable) date zo 31 jul 2016 21:50:42 CEST*
%MOMM*%
G01*
G04 APERTURE LIST*
%ADD10C,0.100000*%
%ADD11C,1.998980*%
%ADD12R,1.600000X1.600000*%
%ADD13C,1.600000*%
%ADD14C,3.200000*%
%ADD15R,1.750000X1.750000*%
%ADD16C,1.750000*%
%ADD17C,0.254000*%
G04 APERTURE END LIST*
D10*
D11*
X125984000Y-105664000D03*
X125984000Y-90664000D03*
X120904000Y-105664000D03*
X120904000Y-90664000D03*
X131064000Y-105664000D03*
X131064000Y-90664000D03*
D12*
X148380000Y-96520000D03*
D13*
X148380000Y-99060000D03*
X153880000Y-99060000D03*
X153880000Y-96520000D03*
D14*
X138176000Y-97790000D03*
X164084000Y-97790000D03*
D15*
X175514000Y-100330000D03*
D16*
X175514000Y-97830000D03*
X175514000Y-95330000D03*
D17*
G36*
X184658000Y-87682606D02*
X184658000Y-107897394D01*
X184097394Y-108458000D01*
X118162606Y-108458000D01*
X117602000Y-107897394D01*
X117602000Y-105987694D01*
X119269226Y-105987694D01*
X119517538Y-106588655D01*
X119976927Y-107048846D01*
X120577453Y-107298206D01*
X121227694Y-107298774D01*
X121828655Y-107050462D01*
X122288846Y-106591073D01*
X122538206Y-105990547D01*
X122538208Y-105987694D01*
X124349226Y-105987694D01*
X124597538Y-106588655D01*
X125056927Y-107048846D01*
X125657453Y-107298206D01*
X126307694Y-107298774D01*
X126908655Y-107050462D01*
X127143363Y-106816163D01*
X130091443Y-106816163D01*
X130190042Y-107082965D01*
X130799582Y-107309401D01*
X131449377Y-107285341D01*
X131937958Y-107082965D01*
X132036557Y-106816163D01*
X131064000Y-105843605D01*
X130091443Y-106816163D01*
X127143363Y-106816163D01*
X127368846Y-106591073D01*
X127618206Y-105990547D01*
X127618722Y-105399582D01*
X129418599Y-105399582D01*
X129442659Y-106049377D01*
X129645035Y-106537958D01*
X129911837Y-106636557D01*
X130884395Y-105664000D01*
X131243605Y-105664000D01*
X132216163Y-106636557D01*
X132482965Y-106537958D01*
X132709401Y-105928418D01*
X132685341Y-105278623D01*
X132482965Y-104790042D01*
X132216163Y-104691443D01*
X131243605Y-105664000D01*
X130884395Y-105664000D01*
X129911837Y-104691443D01*
X129645035Y-104790042D01*
X129418599Y-105399582D01*
X127618722Y-105399582D01*
X127618774Y-105340306D01*
X127370462Y-104739345D01*
X127143351Y-104511837D01*
X130091443Y-104511837D01*
X131064000Y-105484395D01*
X132036557Y-104511837D01*
X131937958Y-104245035D01*
X131328418Y-104018599D01*
X130678623Y-104042659D01*
X130190042Y-104245035D01*
X130091443Y-104511837D01*
X127143351Y-104511837D01*
X126911073Y-104279154D01*
X126310547Y-104029794D01*
X125660306Y-104029226D01*
X125059345Y-104277538D01*
X124599154Y-104736927D01*
X124349794Y-105337453D01*
X124349226Y-105987694D01*
X122538208Y-105987694D01*
X122538774Y-105340306D01*
X122290462Y-104739345D01*
X121831073Y-104279154D01*
X121230547Y-104029794D01*
X120580306Y-104029226D01*
X119979345Y-104277538D01*
X119519154Y-104736927D01*
X119269794Y-105337453D01*
X119269226Y-105987694D01*
X117602000Y-105987694D01*
X117602000Y-98528094D01*
X134448355Y-98528094D01*
X135014561Y-99898418D01*
X136062068Y-100947754D01*
X137431402Y-101516351D01*
X138914094Y-101517645D01*
X140284418Y-100951439D01*
X140771931Y-100464775D01*
X145344803Y-100464775D01*
X145517233Y-100882086D01*
X145836235Y-101201645D01*
X146253244Y-101374803D01*
X146704775Y-101375197D01*
X147122086Y-101202767D01*
X147441645Y-100883765D01*
X147614803Y-100466756D01*
X147614952Y-100296119D01*
X148093309Y-100494750D01*
X148664187Y-100495248D01*
X149191800Y-100277243D01*
X149291817Y-100177400D01*
X149531043Y-100756372D01*
X150060839Y-101287093D01*
X150753405Y-101574672D01*
X151503305Y-101575326D01*
X152196372Y-101288957D01*
X152727093Y-100759161D01*
X152968416Y-100177992D01*
X153066077Y-100275824D01*
X153593309Y-100494750D01*
X154164187Y-100495248D01*
X154691800Y-100277243D01*
X155095824Y-99873923D01*
X155314750Y-99346691D01*
X155315248Y-98775813D01*
X155212893Y-98528094D01*
X160356355Y-98528094D01*
X160922561Y-99898418D01*
X161970068Y-100947754D01*
X163339402Y-101516351D01*
X164822094Y-101517645D01*
X166192418Y-100951439D01*
X166528693Y-100615750D01*
X174004000Y-100615750D01*
X174004000Y-101331309D01*
X174100673Y-101564698D01*
X174279301Y-101743327D01*
X174512690Y-101840000D01*
X175228250Y-101840000D01*
X175387000Y-101681250D01*
X175387000Y-100457000D01*
X175641000Y-100457000D01*
X175641000Y-101681250D01*
X175799750Y-101840000D01*
X176515310Y-101840000D01*
X176748699Y-101743327D01*
X176927327Y-101564698D01*
X177024000Y-101331309D01*
X177024000Y-100615750D01*
X176865250Y-100457000D01*
X175641000Y-100457000D01*
X175387000Y-100457000D01*
X174162750Y-100457000D01*
X174004000Y-100615750D01*
X166528693Y-100615750D01*
X167241754Y-99903932D01*
X167810351Y-98534598D01*
X167811645Y-97051906D01*
X167245439Y-95681582D01*
X167192989Y-95629040D01*
X174003738Y-95629040D01*
X174233138Y-96184229D01*
X174628536Y-96580318D01*
X174234630Y-96973537D01*
X174004262Y-97528325D01*
X174003738Y-98129040D01*
X174233138Y-98684229D01*
X174410802Y-98862203D01*
X174279301Y-98916673D01*
X174100673Y-99095302D01*
X174004000Y-99328691D01*
X174004000Y-100044250D01*
X174162750Y-100203000D01*
X175387000Y-100203000D01*
X175387000Y-100183000D01*
X175641000Y-100183000D01*
X175641000Y-100203000D01*
X176865250Y-100203000D01*
X177024000Y-100044250D01*
X177024000Y-99328691D01*
X176927327Y-99095302D01*
X176748699Y-98916673D01*
X176617286Y-98862240D01*
X176793370Y-98686463D01*
X177023738Y-98131675D01*
X177024262Y-97530960D01*
X176794862Y-96975771D01*
X176399464Y-96579682D01*
X176793370Y-96186463D01*
X177023738Y-95631675D01*
X177024262Y-95030960D01*
X176794862Y-94475771D01*
X176370463Y-94050630D01*
X175815675Y-93820262D01*
X175214960Y-93819738D01*
X174659771Y-94049138D01*
X174234630Y-94473537D01*
X174004262Y-95028325D01*
X174003738Y-95629040D01*
X167192989Y-95629040D01*
X166197932Y-94632246D01*
X164828598Y-94063649D01*
X163345906Y-94062355D01*
X161975582Y-94628561D01*
X160926246Y-95676068D01*
X160357649Y-97045402D01*
X160356355Y-98528094D01*
X155212893Y-98528094D01*
X155097243Y-98248200D01*
X154693923Y-97844176D01*
X154563785Y-97790138D01*
X154691800Y-97737243D01*
X155095824Y-97333923D01*
X155314750Y-96806691D01*
X155315248Y-96235813D01*
X155097243Y-95708200D01*
X154693923Y-95304176D01*
X154166691Y-95085250D01*
X153595813Y-95084752D01*
X153068200Y-95302757D01*
X152968183Y-95402600D01*
X152728957Y-94823628D01*
X152199161Y-94292907D01*
X151506595Y-94005328D01*
X150756695Y-94004674D01*
X150063628Y-94291043D01*
X149532907Y-94820839D01*
X149406061Y-95126319D01*
X149306309Y-95085000D01*
X148665750Y-95085000D01*
X148507000Y-95243750D01*
X148507000Y-96393000D01*
X148527000Y-96393000D01*
X148527000Y-96647000D01*
X148507000Y-96647000D01*
X148507000Y-96667000D01*
X148253000Y-96667000D01*
X148253000Y-96647000D01*
X147103750Y-96647000D01*
X146945000Y-96805750D01*
X146945000Y-97446310D01*
X147041673Y-97679699D01*
X147220302Y-97858327D01*
X147453691Y-97955000D01*
X147455761Y-97955000D01*
X147164176Y-98246077D01*
X146945250Y-98773309D01*
X146944874Y-99204073D01*
X146706756Y-99105197D01*
X146255225Y-99104803D01*
X145837914Y-99277233D01*
X145518355Y-99596235D01*
X145345197Y-100013244D01*
X145344803Y-100464775D01*
X140771931Y-100464775D01*
X141333754Y-99903932D01*
X141902351Y-98534598D01*
X141903645Y-97051906D01*
X141337439Y-95681582D01*
X141249701Y-95593690D01*
X146945000Y-95593690D01*
X146945000Y-96234250D01*
X147103750Y-96393000D01*
X148253000Y-96393000D01*
X148253000Y-95243750D01*
X148094250Y-95085000D01*
X147453691Y-95085000D01*
X147220302Y-95181673D01*
X147041673Y-95360301D01*
X146945000Y-95593690D01*
X141249701Y-95593690D01*
X140289932Y-94632246D01*
X138920598Y-94063649D01*
X137437906Y-94062355D01*
X136067582Y-94628561D01*
X135018246Y-95676068D01*
X134449649Y-97045402D01*
X134448355Y-98528094D01*
X117602000Y-98528094D01*
X117602000Y-90987694D01*
X119269226Y-90987694D01*
X119517538Y-91588655D01*
X119976927Y-92048846D01*
X120577453Y-92298206D01*
X121227694Y-92298774D01*
X121828655Y-92050462D01*
X122288846Y-91591073D01*
X122538206Y-90990547D01*
X122538208Y-90987694D01*
X124349226Y-90987694D01*
X124597538Y-91588655D01*
X125056927Y-92048846D01*
X125657453Y-92298206D01*
X126307694Y-92298774D01*
X126908655Y-92050462D01*
X127368846Y-91591073D01*
X127618206Y-90990547D01*
X127618208Y-90987694D01*
X129429226Y-90987694D01*
X129677538Y-91588655D01*
X130136927Y-92048846D01*
X130737453Y-92298206D01*
X131387694Y-92298774D01*
X131988655Y-92050462D01*
X132448846Y-91591073D01*
X132698206Y-90990547D01*
X132698774Y-90340306D01*
X132450462Y-89739345D01*
X131991073Y-89279154D01*
X131390547Y-89029794D01*
X130740306Y-89029226D01*
X130139345Y-89277538D01*
X129679154Y-89736927D01*
X129429794Y-90337453D01*
X129429226Y-90987694D01*
X127618208Y-90987694D01*
X127618774Y-90340306D01*
X127370462Y-89739345D01*
X126911073Y-89279154D01*
X126310547Y-89029794D01*
X125660306Y-89029226D01*
X125059345Y-89277538D01*
X124599154Y-89736927D01*
X124349794Y-90337453D01*
X124349226Y-90987694D01*
X122538208Y-90987694D01*
X122538774Y-90340306D01*
X122290462Y-89739345D01*
X121831073Y-89279154D01*
X121230547Y-89029794D01*
X120580306Y-89029226D01*
X119979345Y-89277538D01*
X119519154Y-89736927D01*
X119269794Y-90337453D01*
X119269226Y-90987694D01*
X117602000Y-90987694D01*
X117602000Y-87682606D01*
X118162606Y-87122000D01*
X184097394Y-87122000D01*
X184658000Y-87682606D01*
X184658000Y-87682606D01*
G37*
X184658000Y-87682606D02*
X184658000Y-107897394D01*
X184097394Y-108458000D01*
X118162606Y-108458000D01*
X117602000Y-107897394D01*
X117602000Y-105987694D01*
X119269226Y-105987694D01*
X119517538Y-106588655D01*
X119976927Y-107048846D01*
X120577453Y-107298206D01*
X121227694Y-107298774D01*
X121828655Y-107050462D01*
X122288846Y-106591073D01*
X122538206Y-105990547D01*
X122538208Y-105987694D01*
X124349226Y-105987694D01*
X124597538Y-106588655D01*
X125056927Y-107048846D01*
X125657453Y-107298206D01*
X126307694Y-107298774D01*
X126908655Y-107050462D01*
X127143363Y-106816163D01*
X130091443Y-106816163D01*
X130190042Y-107082965D01*
X130799582Y-107309401D01*
X131449377Y-107285341D01*
X131937958Y-107082965D01*
X132036557Y-106816163D01*
X131064000Y-105843605D01*
X130091443Y-106816163D01*
X127143363Y-106816163D01*
X127368846Y-106591073D01*
X127618206Y-105990547D01*
X127618722Y-105399582D01*
X129418599Y-105399582D01*
X129442659Y-106049377D01*
X129645035Y-106537958D01*
X129911837Y-106636557D01*
X130884395Y-105664000D01*
X131243605Y-105664000D01*
X132216163Y-106636557D01*
X132482965Y-106537958D01*
X132709401Y-105928418D01*
X132685341Y-105278623D01*
X132482965Y-104790042D01*
X132216163Y-104691443D01*
X131243605Y-105664000D01*
X130884395Y-105664000D01*
X129911837Y-104691443D01*
X129645035Y-104790042D01*
X129418599Y-105399582D01*
X127618722Y-105399582D01*
X127618774Y-105340306D01*
X127370462Y-104739345D01*
X127143351Y-104511837D01*
X130091443Y-104511837D01*
X131064000Y-105484395D01*
X132036557Y-104511837D01*
X131937958Y-104245035D01*
X131328418Y-104018599D01*
X130678623Y-104042659D01*
X130190042Y-104245035D01*
X130091443Y-104511837D01*
X127143351Y-104511837D01*
X126911073Y-104279154D01*
X126310547Y-104029794D01*
X125660306Y-104029226D01*
X125059345Y-104277538D01*
X124599154Y-104736927D01*
X124349794Y-105337453D01*
X124349226Y-105987694D01*
X122538208Y-105987694D01*
X122538774Y-105340306D01*
X122290462Y-104739345D01*
X121831073Y-104279154D01*
X121230547Y-104029794D01*
X120580306Y-104029226D01*
X119979345Y-104277538D01*
X119519154Y-104736927D01*
X119269794Y-105337453D01*
X119269226Y-105987694D01*
X117602000Y-105987694D01*
X117602000Y-98528094D01*
X134448355Y-98528094D01*
X135014561Y-99898418D01*
X136062068Y-100947754D01*
X137431402Y-101516351D01*
X138914094Y-101517645D01*
X140284418Y-100951439D01*
X140771931Y-100464775D01*
X145344803Y-100464775D01*
X145517233Y-100882086D01*
X145836235Y-101201645D01*
X146253244Y-101374803D01*
X146704775Y-101375197D01*
X147122086Y-101202767D01*
X147441645Y-100883765D01*
X147614803Y-100466756D01*
X147614952Y-100296119D01*
X148093309Y-100494750D01*
X148664187Y-100495248D01*
X149191800Y-100277243D01*
X149291817Y-100177400D01*
X149531043Y-100756372D01*
X150060839Y-101287093D01*
X150753405Y-101574672D01*
X151503305Y-101575326D01*
X152196372Y-101288957D01*
X152727093Y-100759161D01*
X152968416Y-100177992D01*
X153066077Y-100275824D01*
X153593309Y-100494750D01*
X154164187Y-100495248D01*
X154691800Y-100277243D01*
X155095824Y-99873923D01*
X155314750Y-99346691D01*
X155315248Y-98775813D01*
X155212893Y-98528094D01*
X160356355Y-98528094D01*
X160922561Y-99898418D01*
X161970068Y-100947754D01*
X163339402Y-101516351D01*
X164822094Y-101517645D01*
X166192418Y-100951439D01*
X166528693Y-100615750D01*
X174004000Y-100615750D01*
X174004000Y-101331309D01*
X174100673Y-101564698D01*
X174279301Y-101743327D01*
X174512690Y-101840000D01*
X175228250Y-101840000D01*
X175387000Y-101681250D01*
X175387000Y-100457000D01*
X175641000Y-100457000D01*
X175641000Y-101681250D01*
X175799750Y-101840000D01*
X176515310Y-101840000D01*
X176748699Y-101743327D01*
X176927327Y-101564698D01*
X177024000Y-101331309D01*
X177024000Y-100615750D01*
X176865250Y-100457000D01*
X175641000Y-100457000D01*
X175387000Y-100457000D01*
X174162750Y-100457000D01*
X174004000Y-100615750D01*
X166528693Y-100615750D01*
X167241754Y-99903932D01*
X167810351Y-98534598D01*
X167811645Y-97051906D01*
X167245439Y-95681582D01*
X167192989Y-95629040D01*
X174003738Y-95629040D01*
X174233138Y-96184229D01*
X174628536Y-96580318D01*
X174234630Y-96973537D01*
X174004262Y-97528325D01*
X174003738Y-98129040D01*
X174233138Y-98684229D01*
X174410802Y-98862203D01*
X174279301Y-98916673D01*
X174100673Y-99095302D01*
X174004000Y-99328691D01*
X174004000Y-100044250D01*
X174162750Y-100203000D01*
X175387000Y-100203000D01*
X175387000Y-100183000D01*
X175641000Y-100183000D01*
X175641000Y-100203000D01*
X176865250Y-100203000D01*
X177024000Y-100044250D01*
X177024000Y-99328691D01*
X176927327Y-99095302D01*
X176748699Y-98916673D01*
X176617286Y-98862240D01*
X176793370Y-98686463D01*
X177023738Y-98131675D01*
X177024262Y-97530960D01*
X176794862Y-96975771D01*
X176399464Y-96579682D01*
X176793370Y-96186463D01*
X177023738Y-95631675D01*
X177024262Y-95030960D01*
X176794862Y-94475771D01*
X176370463Y-94050630D01*
X175815675Y-93820262D01*
X175214960Y-93819738D01*
X174659771Y-94049138D01*
X174234630Y-94473537D01*
X174004262Y-95028325D01*
X174003738Y-95629040D01*
X167192989Y-95629040D01*
X166197932Y-94632246D01*
X164828598Y-94063649D01*
X163345906Y-94062355D01*
X161975582Y-94628561D01*
X160926246Y-95676068D01*
X160357649Y-97045402D01*
X160356355Y-98528094D01*
X155212893Y-98528094D01*
X155097243Y-98248200D01*
X154693923Y-97844176D01*
X154563785Y-97790138D01*
X154691800Y-97737243D01*
X155095824Y-97333923D01*
X155314750Y-96806691D01*
X155315248Y-96235813D01*
X155097243Y-95708200D01*
X154693923Y-95304176D01*
X154166691Y-95085250D01*
X153595813Y-95084752D01*
X153068200Y-95302757D01*
X152968183Y-95402600D01*
X152728957Y-94823628D01*
X152199161Y-94292907D01*
X151506595Y-94005328D01*
X150756695Y-94004674D01*
X150063628Y-94291043D01*
X149532907Y-94820839D01*
X149406061Y-95126319D01*
X149306309Y-95085000D01*
X148665750Y-95085000D01*
X148507000Y-95243750D01*
X148507000Y-96393000D01*
X148527000Y-96393000D01*
X148527000Y-96647000D01*
X148507000Y-96647000D01*
X148507000Y-96667000D01*
X148253000Y-96667000D01*
X148253000Y-96647000D01*
X147103750Y-96647000D01*
X146945000Y-96805750D01*
X146945000Y-97446310D01*
X147041673Y-97679699D01*
X147220302Y-97858327D01*
X147453691Y-97955000D01*
X147455761Y-97955000D01*
X147164176Y-98246077D01*
X146945250Y-98773309D01*
X146944874Y-99204073D01*
X146706756Y-99105197D01*
X146255225Y-99104803D01*
X145837914Y-99277233D01*
X145518355Y-99596235D01*
X145345197Y-100013244D01*
X145344803Y-100464775D01*
X140771931Y-100464775D01*
X141333754Y-99903932D01*
X141902351Y-98534598D01*
X141903645Y-97051906D01*
X141337439Y-95681582D01*
X141249701Y-95593690D01*
X146945000Y-95593690D01*
X146945000Y-96234250D01*
X147103750Y-96393000D01*
X148253000Y-96393000D01*
X148253000Y-95243750D01*
X148094250Y-95085000D01*
X147453691Y-95085000D01*
X147220302Y-95181673D01*
X147041673Y-95360301D01*
X146945000Y-95593690D01*
X141249701Y-95593690D01*
X140289932Y-94632246D01*
X138920598Y-94063649D01*
X137437906Y-94062355D01*
X136067582Y-94628561D01*
X135018246Y-95676068D01*
X134449649Y-97045402D01*
X134448355Y-98528094D01*
X117602000Y-98528094D01*
X117602000Y-90987694D01*
X119269226Y-90987694D01*
X119517538Y-91588655D01*
X119976927Y-92048846D01*
X120577453Y-92298206D01*
X121227694Y-92298774D01*
X121828655Y-92050462D01*
X122288846Y-91591073D01*
X122538206Y-90990547D01*
X122538208Y-90987694D01*
X124349226Y-90987694D01*
X124597538Y-91588655D01*
X125056927Y-92048846D01*
X125657453Y-92298206D01*
X126307694Y-92298774D01*
X126908655Y-92050462D01*
X127368846Y-91591073D01*
X127618206Y-90990547D01*
X127618208Y-90987694D01*
X129429226Y-90987694D01*
X129677538Y-91588655D01*
X130136927Y-92048846D01*
X130737453Y-92298206D01*
X131387694Y-92298774D01*
X131988655Y-92050462D01*
X132448846Y-91591073D01*
X132698206Y-90990547D01*
X132698774Y-90340306D01*
X132450462Y-89739345D01*
X131991073Y-89279154D01*
X131390547Y-89029794D01*
X130740306Y-89029226D01*
X130139345Y-89277538D01*
X129679154Y-89736927D01*
X129429794Y-90337453D01*
X129429226Y-90987694D01*
X127618208Y-90987694D01*
X127618774Y-90340306D01*
X127370462Y-89739345D01*
X126911073Y-89279154D01*
X126310547Y-89029794D01*
X125660306Y-89029226D01*
X125059345Y-89277538D01*
X124599154Y-89736927D01*
X124349794Y-90337453D01*
X124349226Y-90987694D01*
X122538208Y-90987694D01*
X122538774Y-90340306D01*
X122290462Y-89739345D01*
X121831073Y-89279154D01*
X121230547Y-89029794D01*
X120580306Y-89029226D01*
X119979345Y-89277538D01*
X119519154Y-89736927D01*
X119269794Y-90337453D01*
X119269226Y-90987694D01*
X117602000Y-90987694D01*
X117602000Y-87682606D01*
X118162606Y-87122000D01*
X184097394Y-87122000D01*
X184658000Y-87682606D01*
M02*
