G04 #@! TF.FileFunction,Legend,Top*
%FSLAX46Y46*%
G04 Gerber Fmt 4.6, Leading zero omitted, Abs format (unit mm)*
G04 Created by KiCad (PCBNEW 4.0.2+e4-6225~38~ubuntu15.04.1-stable) date di 02 aug 2016 05:30:13 CEST*
%MOMM*%
G01*
G04 APERTURE LIST*
%ADD10C,0.100000*%
%ADD11C,0.200000*%
%ADD12C,0.300000*%
%ADD13C,0.150000*%
G04 APERTURE END LIST*
D10*
D11*
X180070095Y-91384381D02*
X180070095Y-90717714D01*
X180070095Y-90908190D02*
X180117714Y-90812952D01*
X180165333Y-90765333D01*
X180260571Y-90717714D01*
X180355810Y-90717714D01*
X181070096Y-91336762D02*
X180974858Y-91384381D01*
X180784381Y-91384381D01*
X180689143Y-91336762D01*
X180641524Y-91241524D01*
X180641524Y-90860571D01*
X180689143Y-90765333D01*
X180784381Y-90717714D01*
X180974858Y-90717714D01*
X181070096Y-90765333D01*
X181117715Y-90860571D01*
X181117715Y-90955810D01*
X180641524Y-91051048D01*
X181451048Y-90717714D02*
X181689143Y-91384381D01*
X181927239Y-90717714D01*
X182498667Y-90384381D02*
X182593906Y-90384381D01*
X182689144Y-90432000D01*
X182736763Y-90479619D01*
X182784382Y-90574857D01*
X182832001Y-90765333D01*
X182832001Y-91003429D01*
X182784382Y-91193905D01*
X182736763Y-91289143D01*
X182689144Y-91336762D01*
X182593906Y-91384381D01*
X182498667Y-91384381D01*
X182403429Y-91336762D01*
X182355810Y-91289143D01*
X182308191Y-91193905D01*
X182260572Y-91003429D01*
X182260572Y-90765333D01*
X182308191Y-90574857D01*
X182355810Y-90479619D01*
X182403429Y-90432000D01*
X182498667Y-90384381D01*
X183784382Y-91384381D02*
X183212953Y-91384381D01*
X183498667Y-91384381D02*
X183498667Y-90384381D01*
X183403429Y-90527238D01*
X183308191Y-90622476D01*
X183212953Y-90670095D01*
D12*
X164115714Y-89253143D02*
X164258571Y-89324571D01*
X164544286Y-89324571D01*
X164687143Y-89253143D01*
X164758571Y-89110286D01*
X164758571Y-89038857D01*
X164687143Y-88896000D01*
X164544286Y-88824571D01*
X164330000Y-88824571D01*
X164187143Y-88753143D01*
X164115714Y-88610286D01*
X164115714Y-88538857D01*
X164187143Y-88396000D01*
X164330000Y-88324571D01*
X164544286Y-88324571D01*
X164687143Y-88396000D01*
X165972857Y-89253143D02*
X165830000Y-89324571D01*
X165544286Y-89324571D01*
X165401429Y-89253143D01*
X165330000Y-89110286D01*
X165330000Y-88538857D01*
X165401429Y-88396000D01*
X165544286Y-88324571D01*
X165830000Y-88324571D01*
X165972857Y-88396000D01*
X166044286Y-88538857D01*
X166044286Y-88681714D01*
X165330000Y-88824571D01*
X166687143Y-88324571D02*
X166687143Y-89324571D01*
X166687143Y-88467429D02*
X166758571Y-88396000D01*
X166901429Y-88324571D01*
X167115714Y-88324571D01*
X167258571Y-88396000D01*
X167330000Y-88538857D01*
X167330000Y-89324571D01*
X167972857Y-89253143D02*
X168115714Y-89324571D01*
X168401429Y-89324571D01*
X168544286Y-89253143D01*
X168615714Y-89110286D01*
X168615714Y-89038857D01*
X168544286Y-88896000D01*
X168401429Y-88824571D01*
X168187143Y-88824571D01*
X168044286Y-88753143D01*
X167972857Y-88610286D01*
X167972857Y-88538857D01*
X168044286Y-88396000D01*
X168187143Y-88324571D01*
X168401429Y-88324571D01*
X168544286Y-88396000D01*
X169472858Y-89324571D02*
X169330000Y-89253143D01*
X169258572Y-89181714D01*
X169187143Y-89038857D01*
X169187143Y-88610286D01*
X169258572Y-88467429D01*
X169330000Y-88396000D01*
X169472858Y-88324571D01*
X169687143Y-88324571D01*
X169830000Y-88396000D01*
X169901429Y-88467429D01*
X169972858Y-88610286D01*
X169972858Y-89038857D01*
X169901429Y-89181714D01*
X169830000Y-89253143D01*
X169687143Y-89324571D01*
X169472858Y-89324571D01*
X170615715Y-89324571D02*
X170615715Y-88324571D01*
X170615715Y-88610286D02*
X170687143Y-88467429D01*
X170758572Y-88396000D01*
X170901429Y-88324571D01*
X171044286Y-88324571D01*
X172901429Y-89324571D02*
X172758571Y-89253143D01*
X172687143Y-89110286D01*
X172687143Y-87824571D01*
X174115714Y-89324571D02*
X174115714Y-88538857D01*
X174044285Y-88396000D01*
X173901428Y-88324571D01*
X173615714Y-88324571D01*
X173472857Y-88396000D01*
X174115714Y-89253143D02*
X173972857Y-89324571D01*
X173615714Y-89324571D01*
X173472857Y-89253143D01*
X173401428Y-89110286D01*
X173401428Y-88967429D01*
X173472857Y-88824571D01*
X173615714Y-88753143D01*
X173972857Y-88753143D01*
X174115714Y-88681714D01*
X175472857Y-89253143D02*
X175330000Y-89324571D01*
X175044286Y-89324571D01*
X174901428Y-89253143D01*
X174830000Y-89181714D01*
X174758571Y-89038857D01*
X174758571Y-88610286D01*
X174830000Y-88467429D01*
X174901428Y-88396000D01*
X175044286Y-88324571D01*
X175330000Y-88324571D01*
X175472857Y-88396000D01*
X176115714Y-89324571D02*
X176115714Y-88324571D01*
X176115714Y-87824571D02*
X176044285Y-87896000D01*
X176115714Y-87967429D01*
X176187142Y-87896000D01*
X176115714Y-87824571D01*
X176115714Y-87967429D01*
X178615714Y-89324571D02*
X178615714Y-87824571D01*
X178615714Y-89253143D02*
X178472857Y-89324571D01*
X178187143Y-89324571D01*
X178044285Y-89253143D01*
X177972857Y-89181714D01*
X177901428Y-89038857D01*
X177901428Y-88610286D01*
X177972857Y-88467429D01*
X178044285Y-88396000D01*
X178187143Y-88324571D01*
X178472857Y-88324571D01*
X178615714Y-88396000D01*
X179972857Y-89324571D02*
X179972857Y-88538857D01*
X179901428Y-88396000D01*
X179758571Y-88324571D01*
X179472857Y-88324571D01*
X179330000Y-88396000D01*
X179972857Y-89253143D02*
X179830000Y-89324571D01*
X179472857Y-89324571D01*
X179330000Y-89253143D01*
X179258571Y-89110286D01*
X179258571Y-88967429D01*
X179330000Y-88824571D01*
X179472857Y-88753143D01*
X179830000Y-88753143D01*
X179972857Y-88681714D01*
X180687143Y-88324571D02*
X180687143Y-89824571D01*
X180687143Y-88396000D02*
X180830000Y-88324571D01*
X181115714Y-88324571D01*
X181258571Y-88396000D01*
X181330000Y-88467429D01*
X181401429Y-88610286D01*
X181401429Y-89038857D01*
X181330000Y-89181714D01*
X181258571Y-89253143D01*
X181115714Y-89324571D01*
X180830000Y-89324571D01*
X180687143Y-89253143D01*
X182687143Y-88324571D02*
X182687143Y-89324571D01*
X182044286Y-88324571D02*
X182044286Y-89110286D01*
X182115714Y-89253143D01*
X182258572Y-89324571D01*
X182472857Y-89324571D01*
X182615714Y-89253143D01*
X182687143Y-89181714D01*
X183401429Y-89324571D02*
X183401429Y-88324571D01*
X183401429Y-88610286D02*
X183472857Y-88467429D01*
X183544286Y-88396000D01*
X183687143Y-88324571D01*
X183830000Y-88324571D01*
D11*
X146030000Y-94890000D02*
X149830000Y-94890000D01*
X152530000Y-94890000D02*
X154530000Y-94890000D01*
X154530000Y-100690000D02*
X152530000Y-100690000D01*
X149830000Y-100690000D02*
X147430000Y-100690000D01*
X146030000Y-99490000D02*
X146030000Y-94890000D01*
X154530000Y-94890000D02*
X156230000Y-96590000D01*
X156230000Y-96590000D02*
X156230000Y-98990000D01*
X156230000Y-98990000D02*
X154530000Y-100690000D01*
D13*
X140462000Y-97790000D02*
G75*
G03X140462000Y-97790000I-2286000J0D01*
G01*
X166370000Y-97790000D02*
G75*
G03X166370000Y-97790000I-2286000J0D01*
G01*
X127652780Y-99717860D02*
X128013460Y-101188520D01*
X128013460Y-101188520D02*
X128292860Y-100126800D01*
X128292860Y-100126800D02*
X128602740Y-101198680D01*
X128602740Y-101198680D02*
X128943100Y-99748340D01*
X126232920Y-100408740D02*
X127022860Y-100398580D01*
X127022860Y-100398580D02*
X127033020Y-100408740D01*
X127033020Y-100408740D02*
X127033020Y-100398580D01*
X127073660Y-99687380D02*
X127073660Y-101229160D01*
X126184660Y-99677220D02*
X126184660Y-101246940D01*
X126184660Y-101246940D02*
X126194820Y-101236780D01*
X125633480Y-99778820D02*
X125282960Y-99697540D01*
X125282960Y-99697540D02*
X124962920Y-99687380D01*
X124962920Y-99687380D02*
X124724160Y-99888040D01*
X124724160Y-99888040D02*
X124693680Y-100157280D01*
X124693680Y-100157280D02*
X124934980Y-100398580D01*
X124934980Y-100398580D02*
X125323600Y-100528120D01*
X125323600Y-100528120D02*
X125503940Y-100688140D01*
X125503940Y-100688140D02*
X125544580Y-100987860D01*
X125544580Y-100987860D02*
X125313440Y-101208840D01*
X125313440Y-101208840D02*
X124993400Y-101236780D01*
X124993400Y-101236780D02*
X124642880Y-101127560D01*
X123604020Y-99677220D02*
X123355100Y-99697540D01*
X123355100Y-99697540D02*
X123113800Y-99938840D01*
X123113800Y-99938840D02*
X123024900Y-100429060D01*
X123024900Y-100429060D02*
X123052840Y-100777040D01*
X123052840Y-100777040D02*
X123253500Y-101097080D01*
X123253500Y-101097080D02*
X123504960Y-101219000D01*
X123504960Y-101219000D02*
X123814840Y-101147880D01*
X123814840Y-101147880D02*
X124033280Y-100967540D01*
X124033280Y-100967540D02*
X124104400Y-100507800D01*
X124104400Y-100507800D02*
X124053600Y-100098860D01*
X124053600Y-100098860D02*
X123944380Y-99816920D01*
X123944380Y-99816920D02*
X123583700Y-99687380D01*
X124203460Y-97957640D02*
X123944380Y-98518980D01*
X123944380Y-98518980D02*
X124482860Y-99037140D01*
X124482860Y-99037140D02*
X125003560Y-98767900D01*
X125003560Y-98767900D02*
X125282960Y-98927920D01*
X126723140Y-98907600D02*
X127053340Y-98717100D01*
X127053340Y-98717100D02*
X127492760Y-99047300D01*
X127492760Y-99047300D02*
X127965200Y-98557080D01*
X127965200Y-98557080D02*
X127683260Y-98077020D01*
X127683260Y-98077020D02*
X127873760Y-97607120D01*
X127873760Y-97607120D02*
X128483360Y-97419160D01*
X128483360Y-97419160D02*
X128483360Y-96738440D01*
X128483360Y-96738440D02*
X127924560Y-96598740D01*
X127924560Y-96598740D02*
X127723900Y-96027240D01*
X127723900Y-96027240D02*
X127993140Y-95557340D01*
X127993140Y-95557340D02*
X127523240Y-95046800D01*
X127523240Y-95046800D02*
X127005080Y-95308420D01*
X127005080Y-95308420D02*
X126535180Y-95107760D01*
X126535180Y-95107760D02*
X126365000Y-94566740D01*
X126365000Y-94566740D02*
X125674120Y-94548960D01*
X125674120Y-94548960D02*
X125463300Y-95097600D01*
X125463300Y-95097600D02*
X125044200Y-95267780D01*
X125044200Y-95267780D02*
X124493020Y-94998540D01*
X124493020Y-94998540D02*
X123974860Y-95526860D01*
X123974860Y-95526860D02*
X124223780Y-96067880D01*
X124223780Y-96067880D02*
X124053600Y-96547940D01*
X124053600Y-96547940D02*
X123504960Y-96647000D01*
X123504960Y-96647000D02*
X123494800Y-97348040D01*
X123494800Y-97348040D02*
X124053600Y-97548700D01*
X124053600Y-97548700D02*
X124193300Y-97947480D01*
X126334520Y-97927160D02*
X126634240Y-97777300D01*
X126634240Y-97777300D02*
X126834900Y-97579180D01*
X126834900Y-97579180D02*
X126984760Y-97177860D01*
X126984760Y-97177860D02*
X126984760Y-96779080D01*
X126984760Y-96779080D02*
X126834900Y-96428560D01*
X126834900Y-96428560D02*
X126382780Y-96078040D01*
X126382780Y-96078040D02*
X125933200Y-96027240D01*
X125933200Y-96027240D02*
X125534420Y-96128840D01*
X125534420Y-96128840D02*
X125133100Y-96476820D01*
X125133100Y-96476820D02*
X124983240Y-96928940D01*
X124983240Y-96928940D02*
X125034040Y-97426780D01*
X125034040Y-97426780D02*
X125282960Y-97729040D01*
X125282960Y-97729040D02*
X125633480Y-97927160D01*
X125633480Y-97927160D02*
X125282960Y-98927920D01*
X126334520Y-97927160D02*
X126733300Y-98927920D01*
D10*
X148401857Y-101443286D02*
X148830428Y-101443286D01*
X148616142Y-102193286D02*
X148616142Y-101443286D01*
X149509000Y-102121857D02*
X149473286Y-102157571D01*
X149366143Y-102193286D01*
X149294714Y-102193286D01*
X149187571Y-102157571D01*
X149116143Y-102086143D01*
X149080428Y-102014714D01*
X149044714Y-101871857D01*
X149044714Y-101764714D01*
X149080428Y-101621857D01*
X149116143Y-101550429D01*
X149187571Y-101479000D01*
X149294714Y-101443286D01*
X149366143Y-101443286D01*
X149473286Y-101479000D01*
X149509000Y-101514714D01*
X150259000Y-102193286D02*
X150009000Y-101836143D01*
X149830428Y-102193286D02*
X149830428Y-101443286D01*
X150116143Y-101443286D01*
X150187571Y-101479000D01*
X150223286Y-101514714D01*
X150259000Y-101586143D01*
X150259000Y-101693286D01*
X150223286Y-101764714D01*
X150187571Y-101800429D01*
X150116143Y-101836143D01*
X149830428Y-101836143D01*
X150473286Y-101443286D02*
X150901857Y-101443286D01*
X150687571Y-102193286D02*
X150687571Y-101443286D01*
X151509000Y-101443286D02*
X151151857Y-101443286D01*
X151116143Y-101800429D01*
X151151857Y-101764714D01*
X151223286Y-101729000D01*
X151401857Y-101729000D01*
X151473286Y-101764714D01*
X151509000Y-101800429D01*
X151544715Y-101871857D01*
X151544715Y-102050429D01*
X151509000Y-102121857D01*
X151473286Y-102157571D01*
X151401857Y-102193286D01*
X151223286Y-102193286D01*
X151151857Y-102157571D01*
X151116143Y-102121857D01*
X152009001Y-101443286D02*
X152080429Y-101443286D01*
X152151858Y-101479000D01*
X152187572Y-101514714D01*
X152223286Y-101586143D01*
X152259001Y-101729000D01*
X152259001Y-101907571D01*
X152223286Y-102050429D01*
X152187572Y-102121857D01*
X152151858Y-102157571D01*
X152080429Y-102193286D01*
X152009001Y-102193286D01*
X151937572Y-102157571D01*
X151901858Y-102121857D01*
X151866143Y-102050429D01*
X151830429Y-101907571D01*
X151830429Y-101729000D01*
X151866143Y-101586143D01*
X151901858Y-101514714D01*
X151937572Y-101479000D01*
X152009001Y-101443286D01*
X152723287Y-101443286D02*
X152794715Y-101443286D01*
X152866144Y-101479000D01*
X152901858Y-101514714D01*
X152937572Y-101586143D01*
X152973287Y-101729000D01*
X152973287Y-101907571D01*
X152937572Y-102050429D01*
X152901858Y-102121857D01*
X152866144Y-102157571D01*
X152794715Y-102193286D01*
X152723287Y-102193286D01*
X152651858Y-102157571D01*
X152616144Y-102121857D01*
X152580429Y-102050429D01*
X152544715Y-101907571D01*
X152544715Y-101729000D01*
X152580429Y-101586143D01*
X152616144Y-101514714D01*
X152651858Y-101479000D01*
X152723287Y-101443286D01*
X153437573Y-101443286D02*
X153509001Y-101443286D01*
X153580430Y-101479000D01*
X153616144Y-101514714D01*
X153651858Y-101586143D01*
X153687573Y-101729000D01*
X153687573Y-101907571D01*
X153651858Y-102050429D01*
X153616144Y-102121857D01*
X153580430Y-102157571D01*
X153509001Y-102193286D01*
X153437573Y-102193286D01*
X153366144Y-102157571D01*
X153330430Y-102121857D01*
X153294715Y-102050429D01*
X153259001Y-101907571D01*
X153259001Y-101729000D01*
X153294715Y-101586143D01*
X153330430Y-101514714D01*
X153366144Y-101479000D01*
X153437573Y-101443286D01*
X154366144Y-102193286D02*
X154009001Y-102193286D01*
X154009001Y-101443286D01*
M02*
