G04 #@! TF.FileFunction,Copper,L1,Top,Signal*
%FSLAX46Y46*%
G04 Gerber Fmt 4.6, Leading zero omitted, Abs format (unit mm)*
G04 Created by KiCad (PCBNEW 4.0.2+e4-6225~38~ubuntu15.04.1-stable) date zo 07 aug 2016 00:42:35 CEST*
%MOMM*%
G01*
G04 APERTURE LIST*
%ADD10C,0.100000*%
%ADD11C,1.998980*%
%ADD12R,1.600000X1.600000*%
%ADD13C,1.600000*%
%ADD14C,3.200000*%
%ADD15R,1.750000X1.750000*%
%ADD16C,1.750000*%
%ADD17C,0.254000*%
G04 APERTURE END LIST*
D10*
D11*
X149352000Y-111252000D03*
X164352000Y-111252000D03*
X164338000Y-106680000D03*
X149338000Y-106680000D03*
X164338000Y-89154000D03*
X149338000Y-89154000D03*
D12*
X137458000Y-96520000D03*
D13*
X137458000Y-99060000D03*
X142958000Y-99060000D03*
X142958000Y-96520000D03*
D14*
X132842000Y-83058000D03*
X169926000Y-83058000D03*
D15*
X164465000Y-95313500D03*
D16*
X164465000Y-97813500D03*
X164465000Y-100313500D03*
D14*
X132842000Y-112522000D03*
X169926000Y-112522000D03*
D17*
G36*
X167817582Y-79896561D02*
X166768246Y-80944068D01*
X166199649Y-82313402D01*
X166198355Y-83796094D01*
X166764561Y-85166418D01*
X167812068Y-86215754D01*
X169181402Y-86784351D01*
X170664094Y-86785645D01*
X172034418Y-86219439D01*
X173083754Y-85171932D01*
X173355000Y-84518699D01*
X173355000Y-111061130D01*
X173087439Y-110413582D01*
X172039932Y-109364246D01*
X170670598Y-108795649D01*
X169187906Y-108794355D01*
X167817582Y-109360561D01*
X166768246Y-110408068D01*
X166199649Y-111777402D01*
X166198355Y-113260094D01*
X166764561Y-114630418D01*
X167812068Y-115679754D01*
X168465301Y-115951000D01*
X134302870Y-115951000D01*
X134950418Y-115683439D01*
X135999754Y-114635932D01*
X136568351Y-113266598D01*
X136569645Y-111783906D01*
X136483614Y-111575694D01*
X147717226Y-111575694D01*
X147965538Y-112176655D01*
X148424927Y-112636846D01*
X149025453Y-112886206D01*
X149675694Y-112886774D01*
X150276655Y-112638462D01*
X150736846Y-112179073D01*
X150986206Y-111578547D01*
X150986208Y-111575694D01*
X162717226Y-111575694D01*
X162965538Y-112176655D01*
X163424927Y-112636846D01*
X164025453Y-112886206D01*
X164675694Y-112886774D01*
X165276655Y-112638462D01*
X165736846Y-112179073D01*
X165986206Y-111578547D01*
X165986774Y-110928306D01*
X165738462Y-110327345D01*
X165279073Y-109867154D01*
X164678547Y-109617794D01*
X164028306Y-109617226D01*
X163427345Y-109865538D01*
X162967154Y-110324927D01*
X162717794Y-110925453D01*
X162717226Y-111575694D01*
X150986208Y-111575694D01*
X150986774Y-110928306D01*
X150738462Y-110327345D01*
X150279073Y-109867154D01*
X149678547Y-109617794D01*
X149028306Y-109617226D01*
X148427345Y-109865538D01*
X147967154Y-110324927D01*
X147717794Y-110925453D01*
X147717226Y-111575694D01*
X136483614Y-111575694D01*
X136003439Y-110413582D01*
X134955932Y-109364246D01*
X133586598Y-108795649D01*
X132103906Y-108794355D01*
X130733582Y-109360561D01*
X129684246Y-110408068D01*
X129413000Y-111061301D01*
X129413000Y-107003694D01*
X147703226Y-107003694D01*
X147951538Y-107604655D01*
X148410927Y-108064846D01*
X149011453Y-108314206D01*
X149661694Y-108314774D01*
X150262655Y-108066462D01*
X150722846Y-107607073D01*
X150972206Y-107006547D01*
X150972208Y-107003694D01*
X162703226Y-107003694D01*
X162951538Y-107604655D01*
X163410927Y-108064846D01*
X164011453Y-108314206D01*
X164661694Y-108314774D01*
X165262655Y-108066462D01*
X165722846Y-107607073D01*
X165972206Y-107006547D01*
X165972774Y-106356306D01*
X165724462Y-105755345D01*
X165265073Y-105295154D01*
X164664547Y-105045794D01*
X164014306Y-105045226D01*
X163413345Y-105293538D01*
X162953154Y-105752927D01*
X162703794Y-106353453D01*
X162703226Y-107003694D01*
X150972208Y-107003694D01*
X150972774Y-106356306D01*
X150724462Y-105755345D01*
X150265073Y-105295154D01*
X149664547Y-105045794D01*
X149014306Y-105045226D01*
X148413345Y-105293538D01*
X147953154Y-105752927D01*
X147703794Y-106353453D01*
X147703226Y-107003694D01*
X129413000Y-107003694D01*
X129413000Y-100464775D01*
X134422803Y-100464775D01*
X134595233Y-100882086D01*
X134914235Y-101201645D01*
X135331244Y-101374803D01*
X135782775Y-101375197D01*
X136200086Y-101202767D01*
X136519645Y-100883765D01*
X136692803Y-100466756D01*
X136692952Y-100296119D01*
X137171309Y-100494750D01*
X137742187Y-100495248D01*
X138269800Y-100277243D01*
X138369817Y-100177400D01*
X138609043Y-100756372D01*
X139138839Y-101287093D01*
X139831405Y-101574672D01*
X140581305Y-101575326D01*
X141274372Y-101288957D01*
X141805093Y-100759161D01*
X142046416Y-100177992D01*
X142144077Y-100275824D01*
X142671309Y-100494750D01*
X143242187Y-100495248D01*
X143769800Y-100277243D01*
X144173824Y-99873923D01*
X144392750Y-99346691D01*
X144393248Y-98775813D01*
X144175243Y-98248200D01*
X144039820Y-98112540D01*
X162954738Y-98112540D01*
X163184138Y-98667729D01*
X163579536Y-99063818D01*
X163185630Y-99457037D01*
X162955262Y-100011825D01*
X162954738Y-100612540D01*
X163184138Y-101167729D01*
X163608537Y-101592870D01*
X164163325Y-101823238D01*
X164764040Y-101823762D01*
X165319229Y-101594362D01*
X165744370Y-101169963D01*
X165974738Y-100615175D01*
X165975262Y-100014460D01*
X165745862Y-99459271D01*
X165350464Y-99063182D01*
X165744370Y-98669963D01*
X165974738Y-98115175D01*
X165975262Y-97514460D01*
X165745862Y-96959271D01*
X165568198Y-96781297D01*
X165699699Y-96726827D01*
X165878327Y-96548198D01*
X165975000Y-96314809D01*
X165975000Y-95599250D01*
X165816250Y-95440500D01*
X164592000Y-95440500D01*
X164592000Y-95460500D01*
X164338000Y-95460500D01*
X164338000Y-95440500D01*
X163113750Y-95440500D01*
X162955000Y-95599250D01*
X162955000Y-96314809D01*
X163051673Y-96548198D01*
X163230301Y-96726827D01*
X163361714Y-96781260D01*
X163185630Y-96957037D01*
X162955262Y-97511825D01*
X162954738Y-98112540D01*
X144039820Y-98112540D01*
X143771923Y-97844176D01*
X143641785Y-97790138D01*
X143769800Y-97737243D01*
X144173824Y-97333923D01*
X144392750Y-96806691D01*
X144393248Y-96235813D01*
X144175243Y-95708200D01*
X143771923Y-95304176D01*
X143244691Y-95085250D01*
X142673813Y-95084752D01*
X142146200Y-95302757D01*
X142046183Y-95402600D01*
X141806957Y-94823628D01*
X141296412Y-94312191D01*
X162955000Y-94312191D01*
X162955000Y-95027750D01*
X163113750Y-95186500D01*
X164338000Y-95186500D01*
X164338000Y-93962250D01*
X164592000Y-93962250D01*
X164592000Y-95186500D01*
X165816250Y-95186500D01*
X165975000Y-95027750D01*
X165975000Y-94312191D01*
X165878327Y-94078802D01*
X165699699Y-93900173D01*
X165466310Y-93803500D01*
X164750750Y-93803500D01*
X164592000Y-93962250D01*
X164338000Y-93962250D01*
X164179250Y-93803500D01*
X163463690Y-93803500D01*
X163230301Y-93900173D01*
X163051673Y-94078802D01*
X162955000Y-94312191D01*
X141296412Y-94312191D01*
X141277161Y-94292907D01*
X140584595Y-94005328D01*
X139834695Y-94004674D01*
X139141628Y-94291043D01*
X138610907Y-94820839D01*
X138484061Y-95126319D01*
X138384309Y-95085000D01*
X137743750Y-95085000D01*
X137585000Y-95243750D01*
X137585000Y-96393000D01*
X137605000Y-96393000D01*
X137605000Y-96647000D01*
X137585000Y-96647000D01*
X137585000Y-96667000D01*
X137331000Y-96667000D01*
X137331000Y-96647000D01*
X136181750Y-96647000D01*
X136023000Y-96805750D01*
X136023000Y-97446310D01*
X136119673Y-97679699D01*
X136298302Y-97858327D01*
X136531691Y-97955000D01*
X136533761Y-97955000D01*
X136242176Y-98246077D01*
X136023250Y-98773309D01*
X136022874Y-99204073D01*
X135784756Y-99105197D01*
X135333225Y-99104803D01*
X134915914Y-99277233D01*
X134596355Y-99596235D01*
X134423197Y-100013244D01*
X134422803Y-100464775D01*
X129413000Y-100464775D01*
X129413000Y-95593690D01*
X136023000Y-95593690D01*
X136023000Y-96234250D01*
X136181750Y-96393000D01*
X137331000Y-96393000D01*
X137331000Y-95243750D01*
X137172250Y-95085000D01*
X136531691Y-95085000D01*
X136298302Y-95181673D01*
X136119673Y-95360301D01*
X136023000Y-95593690D01*
X129413000Y-95593690D01*
X129413000Y-89477694D01*
X147703226Y-89477694D01*
X147951538Y-90078655D01*
X148410927Y-90538846D01*
X149011453Y-90788206D01*
X149661694Y-90788774D01*
X150262655Y-90540462D01*
X150497363Y-90306163D01*
X163365443Y-90306163D01*
X163464042Y-90572965D01*
X164073582Y-90799401D01*
X164723377Y-90775341D01*
X165211958Y-90572965D01*
X165310557Y-90306163D01*
X164338000Y-89333605D01*
X163365443Y-90306163D01*
X150497363Y-90306163D01*
X150722846Y-90081073D01*
X150972206Y-89480547D01*
X150972722Y-88889582D01*
X162692599Y-88889582D01*
X162716659Y-89539377D01*
X162919035Y-90027958D01*
X163185837Y-90126557D01*
X164158395Y-89154000D01*
X164517605Y-89154000D01*
X165490163Y-90126557D01*
X165756965Y-90027958D01*
X165983401Y-89418418D01*
X165959341Y-88768623D01*
X165756965Y-88280042D01*
X165490163Y-88181443D01*
X164517605Y-89154000D01*
X164158395Y-89154000D01*
X163185837Y-88181443D01*
X162919035Y-88280042D01*
X162692599Y-88889582D01*
X150972722Y-88889582D01*
X150972774Y-88830306D01*
X150724462Y-88229345D01*
X150497351Y-88001837D01*
X163365443Y-88001837D01*
X164338000Y-88974395D01*
X165310557Y-88001837D01*
X165211958Y-87735035D01*
X164602418Y-87508599D01*
X163952623Y-87532659D01*
X163464042Y-87735035D01*
X163365443Y-88001837D01*
X150497351Y-88001837D01*
X150265073Y-87769154D01*
X149664547Y-87519794D01*
X149014306Y-87519226D01*
X148413345Y-87767538D01*
X147953154Y-88226927D01*
X147703794Y-88827453D01*
X147703226Y-89477694D01*
X129413000Y-89477694D01*
X129413000Y-84518870D01*
X129680561Y-85166418D01*
X130728068Y-86215754D01*
X132097402Y-86784351D01*
X133580094Y-86785645D01*
X134950418Y-86219439D01*
X135999754Y-85171932D01*
X136568351Y-83802598D01*
X136569645Y-82319906D01*
X136003439Y-80949582D01*
X134955932Y-79900246D01*
X134302699Y-79629000D01*
X168465130Y-79629000D01*
X167817582Y-79896561D01*
X167817582Y-79896561D01*
G37*
X167817582Y-79896561D02*
X166768246Y-80944068D01*
X166199649Y-82313402D01*
X166198355Y-83796094D01*
X166764561Y-85166418D01*
X167812068Y-86215754D01*
X169181402Y-86784351D01*
X170664094Y-86785645D01*
X172034418Y-86219439D01*
X173083754Y-85171932D01*
X173355000Y-84518699D01*
X173355000Y-111061130D01*
X173087439Y-110413582D01*
X172039932Y-109364246D01*
X170670598Y-108795649D01*
X169187906Y-108794355D01*
X167817582Y-109360561D01*
X166768246Y-110408068D01*
X166199649Y-111777402D01*
X166198355Y-113260094D01*
X166764561Y-114630418D01*
X167812068Y-115679754D01*
X168465301Y-115951000D01*
X134302870Y-115951000D01*
X134950418Y-115683439D01*
X135999754Y-114635932D01*
X136568351Y-113266598D01*
X136569645Y-111783906D01*
X136483614Y-111575694D01*
X147717226Y-111575694D01*
X147965538Y-112176655D01*
X148424927Y-112636846D01*
X149025453Y-112886206D01*
X149675694Y-112886774D01*
X150276655Y-112638462D01*
X150736846Y-112179073D01*
X150986206Y-111578547D01*
X150986208Y-111575694D01*
X162717226Y-111575694D01*
X162965538Y-112176655D01*
X163424927Y-112636846D01*
X164025453Y-112886206D01*
X164675694Y-112886774D01*
X165276655Y-112638462D01*
X165736846Y-112179073D01*
X165986206Y-111578547D01*
X165986774Y-110928306D01*
X165738462Y-110327345D01*
X165279073Y-109867154D01*
X164678547Y-109617794D01*
X164028306Y-109617226D01*
X163427345Y-109865538D01*
X162967154Y-110324927D01*
X162717794Y-110925453D01*
X162717226Y-111575694D01*
X150986208Y-111575694D01*
X150986774Y-110928306D01*
X150738462Y-110327345D01*
X150279073Y-109867154D01*
X149678547Y-109617794D01*
X149028306Y-109617226D01*
X148427345Y-109865538D01*
X147967154Y-110324927D01*
X147717794Y-110925453D01*
X147717226Y-111575694D01*
X136483614Y-111575694D01*
X136003439Y-110413582D01*
X134955932Y-109364246D01*
X133586598Y-108795649D01*
X132103906Y-108794355D01*
X130733582Y-109360561D01*
X129684246Y-110408068D01*
X129413000Y-111061301D01*
X129413000Y-107003694D01*
X147703226Y-107003694D01*
X147951538Y-107604655D01*
X148410927Y-108064846D01*
X149011453Y-108314206D01*
X149661694Y-108314774D01*
X150262655Y-108066462D01*
X150722846Y-107607073D01*
X150972206Y-107006547D01*
X150972208Y-107003694D01*
X162703226Y-107003694D01*
X162951538Y-107604655D01*
X163410927Y-108064846D01*
X164011453Y-108314206D01*
X164661694Y-108314774D01*
X165262655Y-108066462D01*
X165722846Y-107607073D01*
X165972206Y-107006547D01*
X165972774Y-106356306D01*
X165724462Y-105755345D01*
X165265073Y-105295154D01*
X164664547Y-105045794D01*
X164014306Y-105045226D01*
X163413345Y-105293538D01*
X162953154Y-105752927D01*
X162703794Y-106353453D01*
X162703226Y-107003694D01*
X150972208Y-107003694D01*
X150972774Y-106356306D01*
X150724462Y-105755345D01*
X150265073Y-105295154D01*
X149664547Y-105045794D01*
X149014306Y-105045226D01*
X148413345Y-105293538D01*
X147953154Y-105752927D01*
X147703794Y-106353453D01*
X147703226Y-107003694D01*
X129413000Y-107003694D01*
X129413000Y-100464775D01*
X134422803Y-100464775D01*
X134595233Y-100882086D01*
X134914235Y-101201645D01*
X135331244Y-101374803D01*
X135782775Y-101375197D01*
X136200086Y-101202767D01*
X136519645Y-100883765D01*
X136692803Y-100466756D01*
X136692952Y-100296119D01*
X137171309Y-100494750D01*
X137742187Y-100495248D01*
X138269800Y-100277243D01*
X138369817Y-100177400D01*
X138609043Y-100756372D01*
X139138839Y-101287093D01*
X139831405Y-101574672D01*
X140581305Y-101575326D01*
X141274372Y-101288957D01*
X141805093Y-100759161D01*
X142046416Y-100177992D01*
X142144077Y-100275824D01*
X142671309Y-100494750D01*
X143242187Y-100495248D01*
X143769800Y-100277243D01*
X144173824Y-99873923D01*
X144392750Y-99346691D01*
X144393248Y-98775813D01*
X144175243Y-98248200D01*
X144039820Y-98112540D01*
X162954738Y-98112540D01*
X163184138Y-98667729D01*
X163579536Y-99063818D01*
X163185630Y-99457037D01*
X162955262Y-100011825D01*
X162954738Y-100612540D01*
X163184138Y-101167729D01*
X163608537Y-101592870D01*
X164163325Y-101823238D01*
X164764040Y-101823762D01*
X165319229Y-101594362D01*
X165744370Y-101169963D01*
X165974738Y-100615175D01*
X165975262Y-100014460D01*
X165745862Y-99459271D01*
X165350464Y-99063182D01*
X165744370Y-98669963D01*
X165974738Y-98115175D01*
X165975262Y-97514460D01*
X165745862Y-96959271D01*
X165568198Y-96781297D01*
X165699699Y-96726827D01*
X165878327Y-96548198D01*
X165975000Y-96314809D01*
X165975000Y-95599250D01*
X165816250Y-95440500D01*
X164592000Y-95440500D01*
X164592000Y-95460500D01*
X164338000Y-95460500D01*
X164338000Y-95440500D01*
X163113750Y-95440500D01*
X162955000Y-95599250D01*
X162955000Y-96314809D01*
X163051673Y-96548198D01*
X163230301Y-96726827D01*
X163361714Y-96781260D01*
X163185630Y-96957037D01*
X162955262Y-97511825D01*
X162954738Y-98112540D01*
X144039820Y-98112540D01*
X143771923Y-97844176D01*
X143641785Y-97790138D01*
X143769800Y-97737243D01*
X144173824Y-97333923D01*
X144392750Y-96806691D01*
X144393248Y-96235813D01*
X144175243Y-95708200D01*
X143771923Y-95304176D01*
X143244691Y-95085250D01*
X142673813Y-95084752D01*
X142146200Y-95302757D01*
X142046183Y-95402600D01*
X141806957Y-94823628D01*
X141296412Y-94312191D01*
X162955000Y-94312191D01*
X162955000Y-95027750D01*
X163113750Y-95186500D01*
X164338000Y-95186500D01*
X164338000Y-93962250D01*
X164592000Y-93962250D01*
X164592000Y-95186500D01*
X165816250Y-95186500D01*
X165975000Y-95027750D01*
X165975000Y-94312191D01*
X165878327Y-94078802D01*
X165699699Y-93900173D01*
X165466310Y-93803500D01*
X164750750Y-93803500D01*
X164592000Y-93962250D01*
X164338000Y-93962250D01*
X164179250Y-93803500D01*
X163463690Y-93803500D01*
X163230301Y-93900173D01*
X163051673Y-94078802D01*
X162955000Y-94312191D01*
X141296412Y-94312191D01*
X141277161Y-94292907D01*
X140584595Y-94005328D01*
X139834695Y-94004674D01*
X139141628Y-94291043D01*
X138610907Y-94820839D01*
X138484061Y-95126319D01*
X138384309Y-95085000D01*
X137743750Y-95085000D01*
X137585000Y-95243750D01*
X137585000Y-96393000D01*
X137605000Y-96393000D01*
X137605000Y-96647000D01*
X137585000Y-96647000D01*
X137585000Y-96667000D01*
X137331000Y-96667000D01*
X137331000Y-96647000D01*
X136181750Y-96647000D01*
X136023000Y-96805750D01*
X136023000Y-97446310D01*
X136119673Y-97679699D01*
X136298302Y-97858327D01*
X136531691Y-97955000D01*
X136533761Y-97955000D01*
X136242176Y-98246077D01*
X136023250Y-98773309D01*
X136022874Y-99204073D01*
X135784756Y-99105197D01*
X135333225Y-99104803D01*
X134915914Y-99277233D01*
X134596355Y-99596235D01*
X134423197Y-100013244D01*
X134422803Y-100464775D01*
X129413000Y-100464775D01*
X129413000Y-95593690D01*
X136023000Y-95593690D01*
X136023000Y-96234250D01*
X136181750Y-96393000D01*
X137331000Y-96393000D01*
X137331000Y-95243750D01*
X137172250Y-95085000D01*
X136531691Y-95085000D01*
X136298302Y-95181673D01*
X136119673Y-95360301D01*
X136023000Y-95593690D01*
X129413000Y-95593690D01*
X129413000Y-89477694D01*
X147703226Y-89477694D01*
X147951538Y-90078655D01*
X148410927Y-90538846D01*
X149011453Y-90788206D01*
X149661694Y-90788774D01*
X150262655Y-90540462D01*
X150497363Y-90306163D01*
X163365443Y-90306163D01*
X163464042Y-90572965D01*
X164073582Y-90799401D01*
X164723377Y-90775341D01*
X165211958Y-90572965D01*
X165310557Y-90306163D01*
X164338000Y-89333605D01*
X163365443Y-90306163D01*
X150497363Y-90306163D01*
X150722846Y-90081073D01*
X150972206Y-89480547D01*
X150972722Y-88889582D01*
X162692599Y-88889582D01*
X162716659Y-89539377D01*
X162919035Y-90027958D01*
X163185837Y-90126557D01*
X164158395Y-89154000D01*
X164517605Y-89154000D01*
X165490163Y-90126557D01*
X165756965Y-90027958D01*
X165983401Y-89418418D01*
X165959341Y-88768623D01*
X165756965Y-88280042D01*
X165490163Y-88181443D01*
X164517605Y-89154000D01*
X164158395Y-89154000D01*
X163185837Y-88181443D01*
X162919035Y-88280042D01*
X162692599Y-88889582D01*
X150972722Y-88889582D01*
X150972774Y-88830306D01*
X150724462Y-88229345D01*
X150497351Y-88001837D01*
X163365443Y-88001837D01*
X164338000Y-88974395D01*
X165310557Y-88001837D01*
X165211958Y-87735035D01*
X164602418Y-87508599D01*
X163952623Y-87532659D01*
X163464042Y-87735035D01*
X163365443Y-88001837D01*
X150497351Y-88001837D01*
X150265073Y-87769154D01*
X149664547Y-87519794D01*
X149014306Y-87519226D01*
X148413345Y-87767538D01*
X147953154Y-88226927D01*
X147703794Y-88827453D01*
X147703226Y-89477694D01*
X129413000Y-89477694D01*
X129413000Y-84518870D01*
X129680561Y-85166418D01*
X130728068Y-86215754D01*
X132097402Y-86784351D01*
X133580094Y-86785645D01*
X134950418Y-86219439D01*
X135999754Y-85171932D01*
X136568351Y-83802598D01*
X136569645Y-82319906D01*
X136003439Y-80949582D01*
X134955932Y-79900246D01*
X134302699Y-79629000D01*
X168465130Y-79629000D01*
X167817582Y-79896561D01*
M02*
