G04 #@! TF.FileFunction,Copper,L2,Bot,Signal*
%FSLAX46Y46*%
G04 Gerber Fmt 4.6, Leading zero omitted, Abs format (unit mm)*
G04 Created by KiCad (PCBNEW 4.0.2+e4-6225~38~ubuntu15.04.1-stable) date di 02 aug 2016 05:30:13 CEST*
%MOMM*%
G01*
G04 APERTURE LIST*
%ADD10C,0.100000*%
%ADD11C,1.998980*%
%ADD12R,1.600000X1.600000*%
%ADD13C,1.600000*%
%ADD14C,3.200000*%
%ADD15R,1.750000X1.750000*%
%ADD16C,1.750000*%
%ADD17C,0.400000*%
%ADD18C,0.254000*%
G04 APERTURE END LIST*
D10*
D11*
X125984000Y-105156000D03*
X125984000Y-90156000D03*
X120904000Y-105156000D03*
X120904000Y-90156000D03*
X131064000Y-105156000D03*
X131064000Y-90156000D03*
D12*
X148380000Y-96520000D03*
D13*
X148380000Y-99060000D03*
X153880000Y-99060000D03*
X153880000Y-96520000D03*
D14*
X138176000Y-97790000D03*
X164084000Y-97790000D03*
D15*
X175818800Y-95275400D03*
D16*
X175818800Y-97775400D03*
X175818800Y-100275400D03*
D17*
X125984000Y-90156000D02*
X126224000Y-90156000D01*
X126224000Y-90156000D02*
X129540000Y-93472000D01*
X145796000Y-99060000D02*
X148380000Y-99060000D01*
X140208000Y-93472000D02*
X145796000Y-99060000D01*
X129540000Y-93472000D02*
X140208000Y-93472000D01*
X120904000Y-105156000D02*
X120904000Y-95236000D01*
X120904000Y-95236000D02*
X125984000Y-90156000D01*
X131064000Y-90156000D02*
X150608000Y-90156000D01*
X153880000Y-93428000D02*
X153880000Y-96520000D01*
X150608000Y-90156000D02*
X153880000Y-93428000D01*
X125984000Y-105156000D02*
X128524000Y-102616000D01*
X173478200Y-102616000D02*
X175818800Y-100275400D01*
X128524000Y-102616000D02*
X173478200Y-102616000D01*
D18*
G36*
X184658000Y-87682606D02*
X184658000Y-107897394D01*
X184097394Y-108458000D01*
X118162606Y-108458000D01*
X117602000Y-107897394D01*
X117602000Y-105479694D01*
X119269226Y-105479694D01*
X119517538Y-106080655D01*
X119976927Y-106540846D01*
X120577453Y-106790206D01*
X121227694Y-106790774D01*
X121828655Y-106542462D01*
X122288846Y-106083073D01*
X122538206Y-105482547D01*
X122538208Y-105479694D01*
X124349226Y-105479694D01*
X124597538Y-106080655D01*
X125056927Y-106540846D01*
X125657453Y-106790206D01*
X126307694Y-106790774D01*
X126908655Y-106542462D01*
X127368846Y-106083073D01*
X127618206Y-105482547D01*
X127618208Y-105479694D01*
X129429226Y-105479694D01*
X129677538Y-106080655D01*
X130136927Y-106540846D01*
X130737453Y-106790206D01*
X131387694Y-106790774D01*
X131988655Y-106542462D01*
X132448846Y-106083073D01*
X132698206Y-105482547D01*
X132698774Y-104832306D01*
X132450462Y-104231345D01*
X131991073Y-103771154D01*
X131390547Y-103521794D01*
X130740306Y-103521226D01*
X130139345Y-103769538D01*
X129679154Y-104228927D01*
X129429794Y-104829453D01*
X129429226Y-105479694D01*
X127618208Y-105479694D01*
X127618774Y-104832306D01*
X127580702Y-104740166D01*
X128869868Y-103451000D01*
X173478200Y-103451000D01*
X173797741Y-103387439D01*
X174068634Y-103206434D01*
X175497909Y-101777159D01*
X175517125Y-101785138D01*
X176117840Y-101785662D01*
X176673029Y-101556262D01*
X177098170Y-101131863D01*
X177328538Y-100577075D01*
X177329062Y-99976360D01*
X177099662Y-99421171D01*
X176675263Y-98996030D01*
X176652331Y-98986508D01*
X176701255Y-98837460D01*
X175818800Y-97955005D01*
X174936345Y-98837460D01*
X174985118Y-98986048D01*
X174964571Y-98994538D01*
X174539430Y-99418937D01*
X174309062Y-99973725D01*
X174308538Y-100574440D01*
X174317413Y-100595919D01*
X173132332Y-101781000D01*
X128524000Y-101781000D01*
X128204459Y-101844561D01*
X127933566Y-102025566D01*
X126400137Y-103558995D01*
X126310547Y-103521794D01*
X125660306Y-103521226D01*
X125059345Y-103769538D01*
X124599154Y-104228927D01*
X124349794Y-104829453D01*
X124349226Y-105479694D01*
X122538208Y-105479694D01*
X122538774Y-104832306D01*
X122290462Y-104231345D01*
X121831073Y-103771154D01*
X121739000Y-103732922D01*
X121739000Y-95581868D01*
X125567863Y-91753005D01*
X125657453Y-91790206D01*
X126307694Y-91790774D01*
X126569663Y-91682531D01*
X128949566Y-94062434D01*
X129220459Y-94243439D01*
X129540000Y-94307000D01*
X136845820Y-94307000D01*
X136067582Y-94628561D01*
X135018246Y-95676068D01*
X134449649Y-97045402D01*
X134448355Y-98528094D01*
X135014561Y-99898418D01*
X136062068Y-100947754D01*
X137431402Y-101516351D01*
X138914094Y-101517645D01*
X140284418Y-100951439D01*
X141333754Y-99903932D01*
X141902351Y-98534598D01*
X141903645Y-97051906D01*
X141408363Y-95853231D01*
X145205566Y-99650434D01*
X145432802Y-99802268D01*
X145345197Y-100013244D01*
X145344803Y-100464775D01*
X145517233Y-100882086D01*
X145836235Y-101201645D01*
X146253244Y-101374803D01*
X146704775Y-101375197D01*
X147122086Y-101202767D01*
X147441645Y-100883765D01*
X147614803Y-100466756D01*
X147614952Y-100296119D01*
X148093309Y-100494750D01*
X148664187Y-100495248D01*
X149191800Y-100277243D01*
X149291817Y-100177400D01*
X149531043Y-100756372D01*
X150060839Y-101287093D01*
X150753405Y-101574672D01*
X151503305Y-101575326D01*
X152196372Y-101288957D01*
X152727093Y-100759161D01*
X152987446Y-100132162D01*
X153051861Y-100067747D01*
X153125995Y-100313864D01*
X153663223Y-100506965D01*
X154233454Y-100479778D01*
X154634005Y-100313864D01*
X154708139Y-100067745D01*
X153880000Y-99239605D01*
X153865858Y-99253748D01*
X153686252Y-99074142D01*
X153700395Y-99060000D01*
X154059605Y-99060000D01*
X154887745Y-99888139D01*
X155133864Y-99814005D01*
X155326965Y-99276777D01*
X155299778Y-98706546D01*
X155225861Y-98528094D01*
X160356355Y-98528094D01*
X160922561Y-99898418D01*
X161970068Y-100947754D01*
X163339402Y-101516351D01*
X164822094Y-101517645D01*
X166192418Y-100951439D01*
X167241754Y-99903932D01*
X167810351Y-98534598D01*
X167811645Y-97051906D01*
X167245439Y-95681582D01*
X166197932Y-94632246D01*
X165639585Y-94400400D01*
X174296360Y-94400400D01*
X174296360Y-96150400D01*
X174340638Y-96385717D01*
X174479710Y-96601841D01*
X174681026Y-96739394D01*
X174642106Y-96778314D01*
X174756738Y-96892946D01*
X174502847Y-96976284D01*
X174297210Y-97540706D01*
X174323221Y-98140858D01*
X174502847Y-98574516D01*
X174756740Y-98657855D01*
X175639195Y-97775400D01*
X175625053Y-97761258D01*
X175804658Y-97581653D01*
X175818800Y-97595795D01*
X175832943Y-97581653D01*
X176012548Y-97761258D01*
X175998405Y-97775400D01*
X176880860Y-98657855D01*
X177134753Y-98574516D01*
X177340390Y-98010094D01*
X177314379Y-97409942D01*
X177134753Y-96976284D01*
X176880862Y-96892946D01*
X176995494Y-96778314D01*
X176954444Y-96737264D01*
X177145241Y-96614490D01*
X177290231Y-96402290D01*
X177341240Y-96150400D01*
X177341240Y-94400400D01*
X177296962Y-94165083D01*
X177157890Y-93948959D01*
X176945690Y-93803969D01*
X176693800Y-93752960D01*
X174943800Y-93752960D01*
X174708483Y-93797238D01*
X174492359Y-93936310D01*
X174347369Y-94148510D01*
X174296360Y-94400400D01*
X165639585Y-94400400D01*
X164828598Y-94063649D01*
X163345906Y-94062355D01*
X161975582Y-94628561D01*
X160926246Y-95676068D01*
X160357649Y-97045402D01*
X160356355Y-98528094D01*
X155225861Y-98528094D01*
X155133864Y-98305995D01*
X154887745Y-98231861D01*
X154059605Y-99060000D01*
X153700395Y-99060000D01*
X152872255Y-98231861D01*
X152626136Y-98305995D01*
X152569413Y-98463805D01*
X152199161Y-98092907D01*
X151506595Y-97805328D01*
X150756695Y-97804674D01*
X150063628Y-98091043D01*
X149687464Y-98466551D01*
X149597243Y-98248200D01*
X149295312Y-97945742D01*
X149415317Y-97923162D01*
X149631441Y-97784090D01*
X149776431Y-97571890D01*
X149827440Y-97320000D01*
X149827440Y-97253286D01*
X150060839Y-97487093D01*
X150753405Y-97774672D01*
X151503305Y-97775326D01*
X152196372Y-97488957D01*
X152572536Y-97113449D01*
X152662757Y-97331800D01*
X153066077Y-97735824D01*
X153180768Y-97783448D01*
X153125995Y-97806136D01*
X153051861Y-98052255D01*
X153880000Y-98880395D01*
X154708139Y-98052255D01*
X154634005Y-97806136D01*
X154575746Y-97785195D01*
X154691800Y-97737243D01*
X155095824Y-97333923D01*
X155314750Y-96806691D01*
X155315248Y-96235813D01*
X155097243Y-95708200D01*
X154715000Y-95325290D01*
X154715000Y-93428000D01*
X154651440Y-93108460D01*
X154470434Y-92837566D01*
X151198434Y-89565566D01*
X150927541Y-89384561D01*
X150608000Y-89321000D01*
X132487507Y-89321000D01*
X132450462Y-89231345D01*
X131991073Y-88771154D01*
X131390547Y-88521794D01*
X130740306Y-88521226D01*
X130139345Y-88769538D01*
X129679154Y-89228927D01*
X129429794Y-89829453D01*
X129429226Y-90479694D01*
X129677538Y-91080655D01*
X130136927Y-91540846D01*
X130737453Y-91790206D01*
X131387694Y-91790774D01*
X131988655Y-91542462D01*
X132448846Y-91083073D01*
X132487078Y-90991000D01*
X150262132Y-90991000D01*
X153045000Y-93773868D01*
X153045000Y-95325917D01*
X152968183Y-95402600D01*
X152728957Y-94823628D01*
X152199161Y-94292907D01*
X151506595Y-94005328D01*
X150756695Y-94004674D01*
X150063628Y-94291043D01*
X149532907Y-94820839D01*
X149409117Y-95118957D01*
X149180000Y-95072560D01*
X147580000Y-95072560D01*
X147344683Y-95116838D01*
X147128559Y-95255910D01*
X146983569Y-95468110D01*
X146932560Y-95720000D01*
X146932560Y-97320000D01*
X146976838Y-97555317D01*
X147115910Y-97771441D01*
X147328110Y-97916431D01*
X147466354Y-97944426D01*
X147185290Y-98225000D01*
X146141868Y-98225000D01*
X140798434Y-92881566D01*
X140732583Y-92837566D01*
X140527541Y-92700561D01*
X140208000Y-92637000D01*
X129885868Y-92637000D01*
X127618305Y-90369437D01*
X127618774Y-89832306D01*
X127370462Y-89231345D01*
X126911073Y-88771154D01*
X126310547Y-88521794D01*
X125660306Y-88521226D01*
X125059345Y-88769538D01*
X124599154Y-89228927D01*
X124349794Y-89829453D01*
X124349226Y-90479694D01*
X124387298Y-90571834D01*
X120313566Y-94645566D01*
X120132561Y-94916459D01*
X120069000Y-95236000D01*
X120069000Y-103732493D01*
X119979345Y-103769538D01*
X119519154Y-104228927D01*
X119269794Y-104829453D01*
X119269226Y-105479694D01*
X117602000Y-105479694D01*
X117602000Y-91308163D01*
X119931443Y-91308163D01*
X120030042Y-91574965D01*
X120639582Y-91801401D01*
X121289377Y-91777341D01*
X121777958Y-91574965D01*
X121876557Y-91308163D01*
X120904000Y-90335605D01*
X119931443Y-91308163D01*
X117602000Y-91308163D01*
X117602000Y-89891582D01*
X119258599Y-89891582D01*
X119282659Y-90541377D01*
X119485035Y-91029958D01*
X119751837Y-91128557D01*
X120724395Y-90156000D01*
X121083605Y-90156000D01*
X122056163Y-91128557D01*
X122322965Y-91029958D01*
X122549401Y-90420418D01*
X122525341Y-89770623D01*
X122322965Y-89282042D01*
X122056163Y-89183443D01*
X121083605Y-90156000D01*
X120724395Y-90156000D01*
X119751837Y-89183443D01*
X119485035Y-89282042D01*
X119258599Y-89891582D01*
X117602000Y-89891582D01*
X117602000Y-89003837D01*
X119931443Y-89003837D01*
X120904000Y-89976395D01*
X121876557Y-89003837D01*
X121777958Y-88737035D01*
X121168418Y-88510599D01*
X120518623Y-88534659D01*
X120030042Y-88737035D01*
X119931443Y-89003837D01*
X117602000Y-89003837D01*
X117602000Y-87682606D01*
X118162606Y-87122000D01*
X184097394Y-87122000D01*
X184658000Y-87682606D01*
X184658000Y-87682606D01*
G37*
X184658000Y-87682606D02*
X184658000Y-107897394D01*
X184097394Y-108458000D01*
X118162606Y-108458000D01*
X117602000Y-107897394D01*
X117602000Y-105479694D01*
X119269226Y-105479694D01*
X119517538Y-106080655D01*
X119976927Y-106540846D01*
X120577453Y-106790206D01*
X121227694Y-106790774D01*
X121828655Y-106542462D01*
X122288846Y-106083073D01*
X122538206Y-105482547D01*
X122538208Y-105479694D01*
X124349226Y-105479694D01*
X124597538Y-106080655D01*
X125056927Y-106540846D01*
X125657453Y-106790206D01*
X126307694Y-106790774D01*
X126908655Y-106542462D01*
X127368846Y-106083073D01*
X127618206Y-105482547D01*
X127618208Y-105479694D01*
X129429226Y-105479694D01*
X129677538Y-106080655D01*
X130136927Y-106540846D01*
X130737453Y-106790206D01*
X131387694Y-106790774D01*
X131988655Y-106542462D01*
X132448846Y-106083073D01*
X132698206Y-105482547D01*
X132698774Y-104832306D01*
X132450462Y-104231345D01*
X131991073Y-103771154D01*
X131390547Y-103521794D01*
X130740306Y-103521226D01*
X130139345Y-103769538D01*
X129679154Y-104228927D01*
X129429794Y-104829453D01*
X129429226Y-105479694D01*
X127618208Y-105479694D01*
X127618774Y-104832306D01*
X127580702Y-104740166D01*
X128869868Y-103451000D01*
X173478200Y-103451000D01*
X173797741Y-103387439D01*
X174068634Y-103206434D01*
X175497909Y-101777159D01*
X175517125Y-101785138D01*
X176117840Y-101785662D01*
X176673029Y-101556262D01*
X177098170Y-101131863D01*
X177328538Y-100577075D01*
X177329062Y-99976360D01*
X177099662Y-99421171D01*
X176675263Y-98996030D01*
X176652331Y-98986508D01*
X176701255Y-98837460D01*
X175818800Y-97955005D01*
X174936345Y-98837460D01*
X174985118Y-98986048D01*
X174964571Y-98994538D01*
X174539430Y-99418937D01*
X174309062Y-99973725D01*
X174308538Y-100574440D01*
X174317413Y-100595919D01*
X173132332Y-101781000D01*
X128524000Y-101781000D01*
X128204459Y-101844561D01*
X127933566Y-102025566D01*
X126400137Y-103558995D01*
X126310547Y-103521794D01*
X125660306Y-103521226D01*
X125059345Y-103769538D01*
X124599154Y-104228927D01*
X124349794Y-104829453D01*
X124349226Y-105479694D01*
X122538208Y-105479694D01*
X122538774Y-104832306D01*
X122290462Y-104231345D01*
X121831073Y-103771154D01*
X121739000Y-103732922D01*
X121739000Y-95581868D01*
X125567863Y-91753005D01*
X125657453Y-91790206D01*
X126307694Y-91790774D01*
X126569663Y-91682531D01*
X128949566Y-94062434D01*
X129220459Y-94243439D01*
X129540000Y-94307000D01*
X136845820Y-94307000D01*
X136067582Y-94628561D01*
X135018246Y-95676068D01*
X134449649Y-97045402D01*
X134448355Y-98528094D01*
X135014561Y-99898418D01*
X136062068Y-100947754D01*
X137431402Y-101516351D01*
X138914094Y-101517645D01*
X140284418Y-100951439D01*
X141333754Y-99903932D01*
X141902351Y-98534598D01*
X141903645Y-97051906D01*
X141408363Y-95853231D01*
X145205566Y-99650434D01*
X145432802Y-99802268D01*
X145345197Y-100013244D01*
X145344803Y-100464775D01*
X145517233Y-100882086D01*
X145836235Y-101201645D01*
X146253244Y-101374803D01*
X146704775Y-101375197D01*
X147122086Y-101202767D01*
X147441645Y-100883765D01*
X147614803Y-100466756D01*
X147614952Y-100296119D01*
X148093309Y-100494750D01*
X148664187Y-100495248D01*
X149191800Y-100277243D01*
X149291817Y-100177400D01*
X149531043Y-100756372D01*
X150060839Y-101287093D01*
X150753405Y-101574672D01*
X151503305Y-101575326D01*
X152196372Y-101288957D01*
X152727093Y-100759161D01*
X152987446Y-100132162D01*
X153051861Y-100067747D01*
X153125995Y-100313864D01*
X153663223Y-100506965D01*
X154233454Y-100479778D01*
X154634005Y-100313864D01*
X154708139Y-100067745D01*
X153880000Y-99239605D01*
X153865858Y-99253748D01*
X153686252Y-99074142D01*
X153700395Y-99060000D01*
X154059605Y-99060000D01*
X154887745Y-99888139D01*
X155133864Y-99814005D01*
X155326965Y-99276777D01*
X155299778Y-98706546D01*
X155225861Y-98528094D01*
X160356355Y-98528094D01*
X160922561Y-99898418D01*
X161970068Y-100947754D01*
X163339402Y-101516351D01*
X164822094Y-101517645D01*
X166192418Y-100951439D01*
X167241754Y-99903932D01*
X167810351Y-98534598D01*
X167811645Y-97051906D01*
X167245439Y-95681582D01*
X166197932Y-94632246D01*
X165639585Y-94400400D01*
X174296360Y-94400400D01*
X174296360Y-96150400D01*
X174340638Y-96385717D01*
X174479710Y-96601841D01*
X174681026Y-96739394D01*
X174642106Y-96778314D01*
X174756738Y-96892946D01*
X174502847Y-96976284D01*
X174297210Y-97540706D01*
X174323221Y-98140858D01*
X174502847Y-98574516D01*
X174756740Y-98657855D01*
X175639195Y-97775400D01*
X175625053Y-97761258D01*
X175804658Y-97581653D01*
X175818800Y-97595795D01*
X175832943Y-97581653D01*
X176012548Y-97761258D01*
X175998405Y-97775400D01*
X176880860Y-98657855D01*
X177134753Y-98574516D01*
X177340390Y-98010094D01*
X177314379Y-97409942D01*
X177134753Y-96976284D01*
X176880862Y-96892946D01*
X176995494Y-96778314D01*
X176954444Y-96737264D01*
X177145241Y-96614490D01*
X177290231Y-96402290D01*
X177341240Y-96150400D01*
X177341240Y-94400400D01*
X177296962Y-94165083D01*
X177157890Y-93948959D01*
X176945690Y-93803969D01*
X176693800Y-93752960D01*
X174943800Y-93752960D01*
X174708483Y-93797238D01*
X174492359Y-93936310D01*
X174347369Y-94148510D01*
X174296360Y-94400400D01*
X165639585Y-94400400D01*
X164828598Y-94063649D01*
X163345906Y-94062355D01*
X161975582Y-94628561D01*
X160926246Y-95676068D01*
X160357649Y-97045402D01*
X160356355Y-98528094D01*
X155225861Y-98528094D01*
X155133864Y-98305995D01*
X154887745Y-98231861D01*
X154059605Y-99060000D01*
X153700395Y-99060000D01*
X152872255Y-98231861D01*
X152626136Y-98305995D01*
X152569413Y-98463805D01*
X152199161Y-98092907D01*
X151506595Y-97805328D01*
X150756695Y-97804674D01*
X150063628Y-98091043D01*
X149687464Y-98466551D01*
X149597243Y-98248200D01*
X149295312Y-97945742D01*
X149415317Y-97923162D01*
X149631441Y-97784090D01*
X149776431Y-97571890D01*
X149827440Y-97320000D01*
X149827440Y-97253286D01*
X150060839Y-97487093D01*
X150753405Y-97774672D01*
X151503305Y-97775326D01*
X152196372Y-97488957D01*
X152572536Y-97113449D01*
X152662757Y-97331800D01*
X153066077Y-97735824D01*
X153180768Y-97783448D01*
X153125995Y-97806136D01*
X153051861Y-98052255D01*
X153880000Y-98880395D01*
X154708139Y-98052255D01*
X154634005Y-97806136D01*
X154575746Y-97785195D01*
X154691800Y-97737243D01*
X155095824Y-97333923D01*
X155314750Y-96806691D01*
X155315248Y-96235813D01*
X155097243Y-95708200D01*
X154715000Y-95325290D01*
X154715000Y-93428000D01*
X154651440Y-93108460D01*
X154470434Y-92837566D01*
X151198434Y-89565566D01*
X150927541Y-89384561D01*
X150608000Y-89321000D01*
X132487507Y-89321000D01*
X132450462Y-89231345D01*
X131991073Y-88771154D01*
X131390547Y-88521794D01*
X130740306Y-88521226D01*
X130139345Y-88769538D01*
X129679154Y-89228927D01*
X129429794Y-89829453D01*
X129429226Y-90479694D01*
X129677538Y-91080655D01*
X130136927Y-91540846D01*
X130737453Y-91790206D01*
X131387694Y-91790774D01*
X131988655Y-91542462D01*
X132448846Y-91083073D01*
X132487078Y-90991000D01*
X150262132Y-90991000D01*
X153045000Y-93773868D01*
X153045000Y-95325917D01*
X152968183Y-95402600D01*
X152728957Y-94823628D01*
X152199161Y-94292907D01*
X151506595Y-94005328D01*
X150756695Y-94004674D01*
X150063628Y-94291043D01*
X149532907Y-94820839D01*
X149409117Y-95118957D01*
X149180000Y-95072560D01*
X147580000Y-95072560D01*
X147344683Y-95116838D01*
X147128559Y-95255910D01*
X146983569Y-95468110D01*
X146932560Y-95720000D01*
X146932560Y-97320000D01*
X146976838Y-97555317D01*
X147115910Y-97771441D01*
X147328110Y-97916431D01*
X147466354Y-97944426D01*
X147185290Y-98225000D01*
X146141868Y-98225000D01*
X140798434Y-92881566D01*
X140732583Y-92837566D01*
X140527541Y-92700561D01*
X140208000Y-92637000D01*
X129885868Y-92637000D01*
X127618305Y-90369437D01*
X127618774Y-89832306D01*
X127370462Y-89231345D01*
X126911073Y-88771154D01*
X126310547Y-88521794D01*
X125660306Y-88521226D01*
X125059345Y-88769538D01*
X124599154Y-89228927D01*
X124349794Y-89829453D01*
X124349226Y-90479694D01*
X124387298Y-90571834D01*
X120313566Y-94645566D01*
X120132561Y-94916459D01*
X120069000Y-95236000D01*
X120069000Y-103732493D01*
X119979345Y-103769538D01*
X119519154Y-104228927D01*
X119269794Y-104829453D01*
X119269226Y-105479694D01*
X117602000Y-105479694D01*
X117602000Y-91308163D01*
X119931443Y-91308163D01*
X120030042Y-91574965D01*
X120639582Y-91801401D01*
X121289377Y-91777341D01*
X121777958Y-91574965D01*
X121876557Y-91308163D01*
X120904000Y-90335605D01*
X119931443Y-91308163D01*
X117602000Y-91308163D01*
X117602000Y-89891582D01*
X119258599Y-89891582D01*
X119282659Y-90541377D01*
X119485035Y-91029958D01*
X119751837Y-91128557D01*
X120724395Y-90156000D01*
X121083605Y-90156000D01*
X122056163Y-91128557D01*
X122322965Y-91029958D01*
X122549401Y-90420418D01*
X122525341Y-89770623D01*
X122322965Y-89282042D01*
X122056163Y-89183443D01*
X121083605Y-90156000D01*
X120724395Y-90156000D01*
X119751837Y-89183443D01*
X119485035Y-89282042D01*
X119258599Y-89891582D01*
X117602000Y-89891582D01*
X117602000Y-89003837D01*
X119931443Y-89003837D01*
X120904000Y-89976395D01*
X121876557Y-89003837D01*
X121777958Y-88737035D01*
X121168418Y-88510599D01*
X120518623Y-88534659D01*
X120030042Y-88737035D01*
X119931443Y-89003837D01*
X117602000Y-89003837D01*
X117602000Y-87682606D01*
X118162606Y-87122000D01*
X184097394Y-87122000D01*
X184658000Y-87682606D01*
M02*
