G04 #@! TF.FileFunction,Legend,Top*
%FSLAX46Y46*%
G04 Gerber Fmt 4.6, Leading zero omitted, Abs format (unit mm)*
G04 Created by KiCad (PCBNEW 4.0.2+e4-6225~38~ubuntu15.04.1-stable) date zo 07 aug 2016 00:42:35 CEST*
%MOMM*%
G01*
G04 APERTURE LIST*
%ADD10C,0.100000*%
%ADD11C,0.200000*%
%ADD12C,0.300000*%
%ADD13C,0.150000*%
G04 APERTURE END LIST*
D10*
D11*
X161528095Y-83256381D02*
X161528095Y-82589714D01*
X161528095Y-82780190D02*
X161575714Y-82684952D01*
X161623333Y-82637333D01*
X161718571Y-82589714D01*
X161813810Y-82589714D01*
X162528096Y-83208762D02*
X162432858Y-83256381D01*
X162242381Y-83256381D01*
X162147143Y-83208762D01*
X162099524Y-83113524D01*
X162099524Y-82732571D01*
X162147143Y-82637333D01*
X162242381Y-82589714D01*
X162432858Y-82589714D01*
X162528096Y-82637333D01*
X162575715Y-82732571D01*
X162575715Y-82827810D01*
X162099524Y-82923048D01*
X162909048Y-82589714D02*
X163147143Y-83256381D01*
X163385239Y-82589714D01*
X163956667Y-82256381D02*
X164051906Y-82256381D01*
X164147144Y-82304000D01*
X164194763Y-82351619D01*
X164242382Y-82446857D01*
X164290001Y-82637333D01*
X164290001Y-82875429D01*
X164242382Y-83065905D01*
X164194763Y-83161143D01*
X164147144Y-83208762D01*
X164051906Y-83256381D01*
X163956667Y-83256381D01*
X163861429Y-83208762D01*
X163813810Y-83161143D01*
X163766191Y-83065905D01*
X163718572Y-82875429D01*
X163718572Y-82637333D01*
X163766191Y-82446857D01*
X163813810Y-82351619D01*
X163861429Y-82304000D01*
X163956667Y-82256381D01*
X165242382Y-83256381D02*
X164670953Y-83256381D01*
X164956667Y-83256381D02*
X164956667Y-82256381D01*
X164861429Y-82399238D01*
X164766191Y-82494476D01*
X164670953Y-82542095D01*
D12*
X137953714Y-82903143D02*
X138096571Y-82974571D01*
X138382286Y-82974571D01*
X138525143Y-82903143D01*
X138596571Y-82760286D01*
X138596571Y-82688857D01*
X138525143Y-82546000D01*
X138382286Y-82474571D01*
X138168000Y-82474571D01*
X138025143Y-82403143D01*
X137953714Y-82260286D01*
X137953714Y-82188857D01*
X138025143Y-82046000D01*
X138168000Y-81974571D01*
X138382286Y-81974571D01*
X138525143Y-82046000D01*
X139810857Y-82903143D02*
X139668000Y-82974571D01*
X139382286Y-82974571D01*
X139239429Y-82903143D01*
X139168000Y-82760286D01*
X139168000Y-82188857D01*
X139239429Y-82046000D01*
X139382286Y-81974571D01*
X139668000Y-81974571D01*
X139810857Y-82046000D01*
X139882286Y-82188857D01*
X139882286Y-82331714D01*
X139168000Y-82474571D01*
X140525143Y-81974571D02*
X140525143Y-82974571D01*
X140525143Y-82117429D02*
X140596571Y-82046000D01*
X140739429Y-81974571D01*
X140953714Y-81974571D01*
X141096571Y-82046000D01*
X141168000Y-82188857D01*
X141168000Y-82974571D01*
X141810857Y-82903143D02*
X141953714Y-82974571D01*
X142239429Y-82974571D01*
X142382286Y-82903143D01*
X142453714Y-82760286D01*
X142453714Y-82688857D01*
X142382286Y-82546000D01*
X142239429Y-82474571D01*
X142025143Y-82474571D01*
X141882286Y-82403143D01*
X141810857Y-82260286D01*
X141810857Y-82188857D01*
X141882286Y-82046000D01*
X142025143Y-81974571D01*
X142239429Y-81974571D01*
X142382286Y-82046000D01*
X143310858Y-82974571D02*
X143168000Y-82903143D01*
X143096572Y-82831714D01*
X143025143Y-82688857D01*
X143025143Y-82260286D01*
X143096572Y-82117429D01*
X143168000Y-82046000D01*
X143310858Y-81974571D01*
X143525143Y-81974571D01*
X143668000Y-82046000D01*
X143739429Y-82117429D01*
X143810858Y-82260286D01*
X143810858Y-82688857D01*
X143739429Y-82831714D01*
X143668000Y-82903143D01*
X143525143Y-82974571D01*
X143310858Y-82974571D01*
X144453715Y-82974571D02*
X144453715Y-81974571D01*
X144453715Y-82260286D02*
X144525143Y-82117429D01*
X144596572Y-82046000D01*
X144739429Y-81974571D01*
X144882286Y-81974571D01*
X146739429Y-82974571D02*
X146596571Y-82903143D01*
X146525143Y-82760286D01*
X146525143Y-81474571D01*
X147953714Y-82974571D02*
X147953714Y-82188857D01*
X147882285Y-82046000D01*
X147739428Y-81974571D01*
X147453714Y-81974571D01*
X147310857Y-82046000D01*
X147953714Y-82903143D02*
X147810857Y-82974571D01*
X147453714Y-82974571D01*
X147310857Y-82903143D01*
X147239428Y-82760286D01*
X147239428Y-82617429D01*
X147310857Y-82474571D01*
X147453714Y-82403143D01*
X147810857Y-82403143D01*
X147953714Y-82331714D01*
X149310857Y-82903143D02*
X149168000Y-82974571D01*
X148882286Y-82974571D01*
X148739428Y-82903143D01*
X148668000Y-82831714D01*
X148596571Y-82688857D01*
X148596571Y-82260286D01*
X148668000Y-82117429D01*
X148739428Y-82046000D01*
X148882286Y-81974571D01*
X149168000Y-81974571D01*
X149310857Y-82046000D01*
X149953714Y-82974571D02*
X149953714Y-81974571D01*
X149953714Y-81474571D02*
X149882285Y-81546000D01*
X149953714Y-81617429D01*
X150025142Y-81546000D01*
X149953714Y-81474571D01*
X149953714Y-81617429D01*
X152453714Y-82974571D02*
X152453714Y-81474571D01*
X152453714Y-82903143D02*
X152310857Y-82974571D01*
X152025143Y-82974571D01*
X151882285Y-82903143D01*
X151810857Y-82831714D01*
X151739428Y-82688857D01*
X151739428Y-82260286D01*
X151810857Y-82117429D01*
X151882285Y-82046000D01*
X152025143Y-81974571D01*
X152310857Y-81974571D01*
X152453714Y-82046000D01*
X153810857Y-82974571D02*
X153810857Y-82188857D01*
X153739428Y-82046000D01*
X153596571Y-81974571D01*
X153310857Y-81974571D01*
X153168000Y-82046000D01*
X153810857Y-82903143D02*
X153668000Y-82974571D01*
X153310857Y-82974571D01*
X153168000Y-82903143D01*
X153096571Y-82760286D01*
X153096571Y-82617429D01*
X153168000Y-82474571D01*
X153310857Y-82403143D01*
X153668000Y-82403143D01*
X153810857Y-82331714D01*
X154525143Y-81974571D02*
X154525143Y-83474571D01*
X154525143Y-82046000D02*
X154668000Y-81974571D01*
X154953714Y-81974571D01*
X155096571Y-82046000D01*
X155168000Y-82117429D01*
X155239429Y-82260286D01*
X155239429Y-82688857D01*
X155168000Y-82831714D01*
X155096571Y-82903143D01*
X154953714Y-82974571D01*
X154668000Y-82974571D01*
X154525143Y-82903143D01*
X156525143Y-81974571D02*
X156525143Y-82974571D01*
X155882286Y-81974571D02*
X155882286Y-82760286D01*
X155953714Y-82903143D01*
X156096572Y-82974571D01*
X156310857Y-82974571D01*
X156453714Y-82903143D01*
X156525143Y-82831714D01*
X157239429Y-82974571D02*
X157239429Y-81974571D01*
X157239429Y-82260286D02*
X157310857Y-82117429D01*
X157382286Y-82046000D01*
X157525143Y-81974571D01*
X157668000Y-81974571D01*
D11*
X135108000Y-94890000D02*
X138908000Y-94890000D01*
X141608000Y-94890000D02*
X143608000Y-94890000D01*
X143608000Y-100690000D02*
X141608000Y-100690000D01*
X138908000Y-100690000D02*
X136508000Y-100690000D01*
X135108000Y-99490000D02*
X135108000Y-94890000D01*
X143608000Y-94890000D02*
X145308000Y-96590000D01*
X145308000Y-96590000D02*
X145308000Y-98990000D01*
X145308000Y-98990000D02*
X143608000Y-100690000D01*
D13*
X135128000Y-83058000D02*
G75*
G03X135128000Y-83058000I-2286000J0D01*
G01*
X172212000Y-83058000D02*
G75*
G03X172212000Y-83058000I-2286000J0D01*
G01*
X154068780Y-99463860D02*
X154429460Y-100934520D01*
X154429460Y-100934520D02*
X154708860Y-99872800D01*
X154708860Y-99872800D02*
X155018740Y-100944680D01*
X155018740Y-100944680D02*
X155359100Y-99494340D01*
X152648920Y-100154740D02*
X153438860Y-100144580D01*
X153438860Y-100144580D02*
X153449020Y-100154740D01*
X153449020Y-100154740D02*
X153449020Y-100144580D01*
X153489660Y-99433380D02*
X153489660Y-100975160D01*
X152600660Y-99423220D02*
X152600660Y-100992940D01*
X152600660Y-100992940D02*
X152610820Y-100982780D01*
X152049480Y-99524820D02*
X151698960Y-99443540D01*
X151698960Y-99443540D02*
X151378920Y-99433380D01*
X151378920Y-99433380D02*
X151140160Y-99634040D01*
X151140160Y-99634040D02*
X151109680Y-99903280D01*
X151109680Y-99903280D02*
X151350980Y-100144580D01*
X151350980Y-100144580D02*
X151739600Y-100274120D01*
X151739600Y-100274120D02*
X151919940Y-100434140D01*
X151919940Y-100434140D02*
X151960580Y-100733860D01*
X151960580Y-100733860D02*
X151729440Y-100954840D01*
X151729440Y-100954840D02*
X151409400Y-100982780D01*
X151409400Y-100982780D02*
X151058880Y-100873560D01*
X150020020Y-99423220D02*
X149771100Y-99443540D01*
X149771100Y-99443540D02*
X149529800Y-99684840D01*
X149529800Y-99684840D02*
X149440900Y-100175060D01*
X149440900Y-100175060D02*
X149468840Y-100523040D01*
X149468840Y-100523040D02*
X149669500Y-100843080D01*
X149669500Y-100843080D02*
X149920960Y-100965000D01*
X149920960Y-100965000D02*
X150230840Y-100893880D01*
X150230840Y-100893880D02*
X150449280Y-100713540D01*
X150449280Y-100713540D02*
X150520400Y-100253800D01*
X150520400Y-100253800D02*
X150469600Y-99844860D01*
X150469600Y-99844860D02*
X150360380Y-99562920D01*
X150360380Y-99562920D02*
X149999700Y-99433380D01*
X150619460Y-97703640D02*
X150360380Y-98264980D01*
X150360380Y-98264980D02*
X150898860Y-98783140D01*
X150898860Y-98783140D02*
X151419560Y-98513900D01*
X151419560Y-98513900D02*
X151698960Y-98673920D01*
X153139140Y-98653600D02*
X153469340Y-98463100D01*
X153469340Y-98463100D02*
X153908760Y-98793300D01*
X153908760Y-98793300D02*
X154381200Y-98303080D01*
X154381200Y-98303080D02*
X154099260Y-97823020D01*
X154099260Y-97823020D02*
X154289760Y-97353120D01*
X154289760Y-97353120D02*
X154899360Y-97165160D01*
X154899360Y-97165160D02*
X154899360Y-96484440D01*
X154899360Y-96484440D02*
X154340560Y-96344740D01*
X154340560Y-96344740D02*
X154139900Y-95773240D01*
X154139900Y-95773240D02*
X154409140Y-95303340D01*
X154409140Y-95303340D02*
X153939240Y-94792800D01*
X153939240Y-94792800D02*
X153421080Y-95054420D01*
X153421080Y-95054420D02*
X152951180Y-94853760D01*
X152951180Y-94853760D02*
X152781000Y-94312740D01*
X152781000Y-94312740D02*
X152090120Y-94294960D01*
X152090120Y-94294960D02*
X151879300Y-94843600D01*
X151879300Y-94843600D02*
X151460200Y-95013780D01*
X151460200Y-95013780D02*
X150909020Y-94744540D01*
X150909020Y-94744540D02*
X150390860Y-95272860D01*
X150390860Y-95272860D02*
X150639780Y-95813880D01*
X150639780Y-95813880D02*
X150469600Y-96293940D01*
X150469600Y-96293940D02*
X149920960Y-96393000D01*
X149920960Y-96393000D02*
X149910800Y-97094040D01*
X149910800Y-97094040D02*
X150469600Y-97294700D01*
X150469600Y-97294700D02*
X150609300Y-97693480D01*
X152750520Y-97673160D02*
X153050240Y-97523300D01*
X153050240Y-97523300D02*
X153250900Y-97325180D01*
X153250900Y-97325180D02*
X153400760Y-96923860D01*
X153400760Y-96923860D02*
X153400760Y-96525080D01*
X153400760Y-96525080D02*
X153250900Y-96174560D01*
X153250900Y-96174560D02*
X152798780Y-95824040D01*
X152798780Y-95824040D02*
X152349200Y-95773240D01*
X152349200Y-95773240D02*
X151950420Y-95874840D01*
X151950420Y-95874840D02*
X151549100Y-96222820D01*
X151549100Y-96222820D02*
X151399240Y-96674940D01*
X151399240Y-96674940D02*
X151450040Y-97172780D01*
X151450040Y-97172780D02*
X151698960Y-97475040D01*
X151698960Y-97475040D02*
X152049480Y-97673160D01*
X152049480Y-97673160D02*
X151698960Y-98673920D01*
X152750520Y-97673160D02*
X153149300Y-98673920D01*
X135128000Y-112522000D02*
G75*
G03X135128000Y-112522000I-2286000J0D01*
G01*
X172212000Y-112522000D02*
G75*
G03X172212000Y-112522000I-2286000J0D01*
G01*
D10*
X137479857Y-101443286D02*
X137908428Y-101443286D01*
X137694142Y-102193286D02*
X137694142Y-101443286D01*
X138587000Y-102121857D02*
X138551286Y-102157571D01*
X138444143Y-102193286D01*
X138372714Y-102193286D01*
X138265571Y-102157571D01*
X138194143Y-102086143D01*
X138158428Y-102014714D01*
X138122714Y-101871857D01*
X138122714Y-101764714D01*
X138158428Y-101621857D01*
X138194143Y-101550429D01*
X138265571Y-101479000D01*
X138372714Y-101443286D01*
X138444143Y-101443286D01*
X138551286Y-101479000D01*
X138587000Y-101514714D01*
X139337000Y-102193286D02*
X139087000Y-101836143D01*
X138908428Y-102193286D02*
X138908428Y-101443286D01*
X139194143Y-101443286D01*
X139265571Y-101479000D01*
X139301286Y-101514714D01*
X139337000Y-101586143D01*
X139337000Y-101693286D01*
X139301286Y-101764714D01*
X139265571Y-101800429D01*
X139194143Y-101836143D01*
X138908428Y-101836143D01*
X139551286Y-101443286D02*
X139979857Y-101443286D01*
X139765571Y-102193286D02*
X139765571Y-101443286D01*
X140587000Y-101443286D02*
X140229857Y-101443286D01*
X140194143Y-101800429D01*
X140229857Y-101764714D01*
X140301286Y-101729000D01*
X140479857Y-101729000D01*
X140551286Y-101764714D01*
X140587000Y-101800429D01*
X140622715Y-101871857D01*
X140622715Y-102050429D01*
X140587000Y-102121857D01*
X140551286Y-102157571D01*
X140479857Y-102193286D01*
X140301286Y-102193286D01*
X140229857Y-102157571D01*
X140194143Y-102121857D01*
X141087001Y-101443286D02*
X141158429Y-101443286D01*
X141229858Y-101479000D01*
X141265572Y-101514714D01*
X141301286Y-101586143D01*
X141337001Y-101729000D01*
X141337001Y-101907571D01*
X141301286Y-102050429D01*
X141265572Y-102121857D01*
X141229858Y-102157571D01*
X141158429Y-102193286D01*
X141087001Y-102193286D01*
X141015572Y-102157571D01*
X140979858Y-102121857D01*
X140944143Y-102050429D01*
X140908429Y-101907571D01*
X140908429Y-101729000D01*
X140944143Y-101586143D01*
X140979858Y-101514714D01*
X141015572Y-101479000D01*
X141087001Y-101443286D01*
X141801287Y-101443286D02*
X141872715Y-101443286D01*
X141944144Y-101479000D01*
X141979858Y-101514714D01*
X142015572Y-101586143D01*
X142051287Y-101729000D01*
X142051287Y-101907571D01*
X142015572Y-102050429D01*
X141979858Y-102121857D01*
X141944144Y-102157571D01*
X141872715Y-102193286D01*
X141801287Y-102193286D01*
X141729858Y-102157571D01*
X141694144Y-102121857D01*
X141658429Y-102050429D01*
X141622715Y-101907571D01*
X141622715Y-101729000D01*
X141658429Y-101586143D01*
X141694144Y-101514714D01*
X141729858Y-101479000D01*
X141801287Y-101443286D01*
X142515573Y-101443286D02*
X142587001Y-101443286D01*
X142658430Y-101479000D01*
X142694144Y-101514714D01*
X142729858Y-101586143D01*
X142765573Y-101729000D01*
X142765573Y-101907571D01*
X142729858Y-102050429D01*
X142694144Y-102121857D01*
X142658430Y-102157571D01*
X142587001Y-102193286D01*
X142515573Y-102193286D01*
X142444144Y-102157571D01*
X142408430Y-102121857D01*
X142372715Y-102050429D01*
X142337001Y-101907571D01*
X142337001Y-101729000D01*
X142372715Y-101586143D01*
X142408430Y-101514714D01*
X142444144Y-101479000D01*
X142515573Y-101443286D01*
X143444144Y-102193286D02*
X143087001Y-102193286D01*
X143087001Y-101443286D01*
M02*
