G04 #@! TF.FileFunction,Legend,Top*
%FSLAX46Y46*%
G04 Gerber Fmt 4.6, Leading zero omitted, Abs format (unit mm)*
G04 Created by KiCad (PCBNEW 4.0.2+e4-6225~38~ubuntu15.04.1-stable) date zo 31 jul 2016 21:50:42 CEST*
%MOMM*%
G01*
G04 APERTURE LIST*
%ADD10C,0.100000*%
%ADD11C,0.150000*%
%ADD12C,0.200000*%
G04 APERTURE END LIST*
D10*
D11*
X172029429Y-102194762D02*
X172029429Y-101432857D01*
X172410381Y-101813809D02*
X171648476Y-101813809D01*
X171410381Y-100480476D02*
X171410381Y-100956667D01*
X171886571Y-101004286D01*
X171838952Y-100956667D01*
X171791333Y-100861429D01*
X171791333Y-100623333D01*
X171838952Y-100528095D01*
X171886571Y-100480476D01*
X171981810Y-100432857D01*
X172219905Y-100432857D01*
X172315143Y-100480476D01*
X172362762Y-100528095D01*
X172410381Y-100623333D01*
X172410381Y-100861429D01*
X172362762Y-100956667D01*
X172315143Y-101004286D01*
X171458000Y-98718571D02*
X171410381Y-98813809D01*
X171410381Y-98956666D01*
X171458000Y-99099524D01*
X171553238Y-99194762D01*
X171648476Y-99242381D01*
X171838952Y-99290000D01*
X171981810Y-99290000D01*
X172172286Y-99242381D01*
X172267524Y-99194762D01*
X172362762Y-99099524D01*
X172410381Y-98956666D01*
X172410381Y-98861428D01*
X172362762Y-98718571D01*
X172315143Y-98670952D01*
X171981810Y-98670952D01*
X171981810Y-98861428D01*
X172410381Y-98242381D02*
X171410381Y-98242381D01*
X172410381Y-97670952D01*
X171410381Y-97670952D01*
X172410381Y-97194762D02*
X171410381Y-97194762D01*
X171410381Y-96956667D01*
X171458000Y-96813809D01*
X171553238Y-96718571D01*
X171648476Y-96670952D01*
X171838952Y-96623333D01*
X171981810Y-96623333D01*
X172172286Y-96670952D01*
X172267524Y-96718571D01*
X172362762Y-96813809D01*
X172410381Y-96956667D01*
X172410381Y-97194762D01*
X171410381Y-95242381D02*
X171410381Y-95051904D01*
X171458000Y-94956666D01*
X171553238Y-94861428D01*
X171743714Y-94813809D01*
X172077048Y-94813809D01*
X172267524Y-94861428D01*
X172362762Y-94956666D01*
X172410381Y-95051904D01*
X172410381Y-95242381D01*
X172362762Y-95337619D01*
X172267524Y-95432857D01*
X172077048Y-95480476D01*
X171743714Y-95480476D01*
X171553238Y-95432857D01*
X171458000Y-95337619D01*
X171410381Y-95242381D01*
X171743714Y-93956666D02*
X172410381Y-93956666D01*
X171743714Y-94385238D02*
X172267524Y-94385238D01*
X172362762Y-94337619D01*
X172410381Y-94242381D01*
X172410381Y-94099523D01*
X172362762Y-94004285D01*
X172315143Y-93956666D01*
X171743714Y-93623333D02*
X171743714Y-93242381D01*
X171410381Y-93480476D02*
X172267524Y-93480476D01*
X172362762Y-93432857D01*
X172410381Y-93337619D01*
X172410381Y-93242381D01*
X124714000Y-103244000D02*
X127254000Y-103244000D01*
X127254000Y-103244000D02*
X127254000Y-93084000D01*
X127254000Y-93084000D02*
X124714000Y-93084000D01*
X124714000Y-93084000D02*
X124714000Y-103244000D01*
X125984000Y-91934000D02*
X125984000Y-93084000D01*
X125984000Y-104394000D02*
X125984000Y-103244000D01*
X119634000Y-103244000D02*
X122174000Y-103244000D01*
X122174000Y-103244000D02*
X122174000Y-93084000D01*
X122174000Y-93084000D02*
X119634000Y-93084000D01*
X119634000Y-93084000D02*
X119634000Y-103244000D01*
X120904000Y-91934000D02*
X120904000Y-93084000D01*
X120904000Y-104394000D02*
X120904000Y-103244000D01*
X129794000Y-103244000D02*
X132334000Y-103244000D01*
X132334000Y-103244000D02*
X132334000Y-93084000D01*
X132334000Y-93084000D02*
X129794000Y-93084000D01*
X129794000Y-93084000D02*
X129794000Y-103244000D01*
X131064000Y-91934000D02*
X131064000Y-93084000D01*
X131064000Y-104394000D02*
X131064000Y-103244000D01*
D12*
X146030000Y-94890000D02*
X149830000Y-94890000D01*
X152530000Y-94890000D02*
X154530000Y-94890000D01*
X154530000Y-100690000D02*
X152530000Y-100690000D01*
X149830000Y-100690000D02*
X147430000Y-100690000D01*
X146030000Y-99490000D02*
X146030000Y-94890000D01*
X154530000Y-94890000D02*
X156230000Y-96590000D01*
X156230000Y-96590000D02*
X156230000Y-98990000D01*
X156230000Y-98990000D02*
X154530000Y-100690000D01*
D11*
X140462000Y-97790000D02*
G75*
G03X140462000Y-97790000I-2286000J0D01*
G01*
X166370000Y-97790000D02*
G75*
G03X166370000Y-97790000I-2286000J0D01*
G01*
X184864000Y-97830000D02*
X184864000Y-102930000D01*
X184864000Y-102930000D02*
X173064000Y-102930000D01*
X173064000Y-102930000D02*
X173064000Y-101730000D01*
X173064000Y-101730000D02*
X177564000Y-101730000D01*
X177564000Y-101730000D02*
X177564000Y-97830000D01*
X184864000Y-97830000D02*
X184864000Y-92730000D01*
X184864000Y-92730000D02*
X173064000Y-92730000D01*
X173064000Y-92730000D02*
X173064000Y-93930000D01*
X173064000Y-93930000D02*
X177564000Y-93930000D01*
X177564000Y-93930000D02*
X177564000Y-97830000D01*
X178214000Y-100580000D02*
X184214000Y-100580000D01*
X184214000Y-100580000D02*
X184214000Y-100080000D01*
X184214000Y-100080000D02*
X178214000Y-100080000D01*
X178214000Y-100080000D02*
X178214000Y-100580000D01*
X178214000Y-98080000D02*
X184214000Y-98080000D01*
X184214000Y-98080000D02*
X184214000Y-97580000D01*
X184214000Y-97580000D02*
X178214000Y-97580000D01*
X178214000Y-97580000D02*
X178214000Y-98080000D01*
X178214000Y-95580000D02*
X184214000Y-95580000D01*
X184214000Y-95580000D02*
X184214000Y-95080000D01*
X184214000Y-95080000D02*
X178214000Y-95080000D01*
X178214000Y-95080000D02*
X178214000Y-95580000D01*
X174014000Y-100330000D02*
X173414000Y-100630000D01*
X173414000Y-100630000D02*
X173414000Y-100030000D01*
X173414000Y-100030000D02*
X174014000Y-100330000D01*
X126436381Y-102068285D02*
X126436381Y-102639714D01*
X126436381Y-102354000D02*
X125436381Y-102354000D01*
X125579238Y-102449238D01*
X125674476Y-102544476D01*
X125722095Y-102639714D01*
X126436381Y-101639714D02*
X125436381Y-101639714D01*
X126436381Y-101068285D02*
X125864952Y-101496857D01*
X125436381Y-101068285D02*
X126007810Y-101639714D01*
X121356381Y-101909476D02*
X121356381Y-102480905D01*
X121356381Y-102195191D02*
X120356381Y-102195191D01*
X120499238Y-102290429D01*
X120594476Y-102385667D01*
X120642095Y-102480905D01*
X120356381Y-101290429D02*
X120356381Y-101195190D01*
X120404000Y-101099952D01*
X120451619Y-101052333D01*
X120546857Y-101004714D01*
X120737333Y-100957095D01*
X120975429Y-100957095D01*
X121165905Y-101004714D01*
X121261143Y-101052333D01*
X121308762Y-101099952D01*
X121356381Y-101195190D01*
X121356381Y-101290429D01*
X121308762Y-101385667D01*
X121261143Y-101433286D01*
X121165905Y-101480905D01*
X120975429Y-101528524D01*
X120737333Y-101528524D01*
X120546857Y-101480905D01*
X120451619Y-101433286D01*
X120404000Y-101385667D01*
X120356381Y-101290429D01*
X121356381Y-100528524D02*
X120356381Y-100528524D01*
X121356381Y-99957095D02*
X120784952Y-100385667D01*
X120356381Y-99957095D02*
X120927810Y-100528524D01*
X131516381Y-101885666D02*
X131516381Y-102457095D01*
X131516381Y-102171381D02*
X130516381Y-102171381D01*
X130659238Y-102266619D01*
X130754476Y-102361857D01*
X130802095Y-102457095D01*
X130516381Y-101266619D02*
X130516381Y-101171380D01*
X130564000Y-101076142D01*
X130611619Y-101028523D01*
X130706857Y-100980904D01*
X130897333Y-100933285D01*
X131135429Y-100933285D01*
X131325905Y-100980904D01*
X131421143Y-101028523D01*
X131468762Y-101076142D01*
X131516381Y-101171380D01*
X131516381Y-101266619D01*
X131468762Y-101361857D01*
X131421143Y-101409476D01*
X131325905Y-101457095D01*
X131135429Y-101504714D01*
X130897333Y-101504714D01*
X130706857Y-101457095D01*
X130611619Y-101409476D01*
X130564000Y-101361857D01*
X130516381Y-101266619D01*
X130516381Y-100314238D02*
X130516381Y-100218999D01*
X130564000Y-100123761D01*
X130611619Y-100076142D01*
X130706857Y-100028523D01*
X130897333Y-99980904D01*
X131135429Y-99980904D01*
X131325905Y-100028523D01*
X131421143Y-100076142D01*
X131468762Y-100123761D01*
X131516381Y-100218999D01*
X131516381Y-100314238D01*
X131468762Y-100409476D01*
X131421143Y-100457095D01*
X131325905Y-100504714D01*
X131135429Y-100552333D01*
X130897333Y-100552333D01*
X130706857Y-100504714D01*
X130611619Y-100457095D01*
X130564000Y-100409476D01*
X130516381Y-100314238D01*
D10*
X148401857Y-101443286D02*
X148830428Y-101443286D01*
X148616142Y-102193286D02*
X148616142Y-101443286D01*
X149509000Y-102121857D02*
X149473286Y-102157571D01*
X149366143Y-102193286D01*
X149294714Y-102193286D01*
X149187571Y-102157571D01*
X149116143Y-102086143D01*
X149080428Y-102014714D01*
X149044714Y-101871857D01*
X149044714Y-101764714D01*
X149080428Y-101621857D01*
X149116143Y-101550429D01*
X149187571Y-101479000D01*
X149294714Y-101443286D01*
X149366143Y-101443286D01*
X149473286Y-101479000D01*
X149509000Y-101514714D01*
X150259000Y-102193286D02*
X150009000Y-101836143D01*
X149830428Y-102193286D02*
X149830428Y-101443286D01*
X150116143Y-101443286D01*
X150187571Y-101479000D01*
X150223286Y-101514714D01*
X150259000Y-101586143D01*
X150259000Y-101693286D01*
X150223286Y-101764714D01*
X150187571Y-101800429D01*
X150116143Y-101836143D01*
X149830428Y-101836143D01*
X150473286Y-101443286D02*
X150901857Y-101443286D01*
X150687571Y-102193286D02*
X150687571Y-101443286D01*
X151509000Y-101443286D02*
X151151857Y-101443286D01*
X151116143Y-101800429D01*
X151151857Y-101764714D01*
X151223286Y-101729000D01*
X151401857Y-101729000D01*
X151473286Y-101764714D01*
X151509000Y-101800429D01*
X151544715Y-101871857D01*
X151544715Y-102050429D01*
X151509000Y-102121857D01*
X151473286Y-102157571D01*
X151401857Y-102193286D01*
X151223286Y-102193286D01*
X151151857Y-102157571D01*
X151116143Y-102121857D01*
X152009001Y-101443286D02*
X152080429Y-101443286D01*
X152151858Y-101479000D01*
X152187572Y-101514714D01*
X152223286Y-101586143D01*
X152259001Y-101729000D01*
X152259001Y-101907571D01*
X152223286Y-102050429D01*
X152187572Y-102121857D01*
X152151858Y-102157571D01*
X152080429Y-102193286D01*
X152009001Y-102193286D01*
X151937572Y-102157571D01*
X151901858Y-102121857D01*
X151866143Y-102050429D01*
X151830429Y-101907571D01*
X151830429Y-101729000D01*
X151866143Y-101586143D01*
X151901858Y-101514714D01*
X151937572Y-101479000D01*
X152009001Y-101443286D01*
X152723287Y-101443286D02*
X152794715Y-101443286D01*
X152866144Y-101479000D01*
X152901858Y-101514714D01*
X152937572Y-101586143D01*
X152973287Y-101729000D01*
X152973287Y-101907571D01*
X152937572Y-102050429D01*
X152901858Y-102121857D01*
X152866144Y-102157571D01*
X152794715Y-102193286D01*
X152723287Y-102193286D01*
X152651858Y-102157571D01*
X152616144Y-102121857D01*
X152580429Y-102050429D01*
X152544715Y-101907571D01*
X152544715Y-101729000D01*
X152580429Y-101586143D01*
X152616144Y-101514714D01*
X152651858Y-101479000D01*
X152723287Y-101443286D01*
X153437573Y-101443286D02*
X153509001Y-101443286D01*
X153580430Y-101479000D01*
X153616144Y-101514714D01*
X153651858Y-101586143D01*
X153687573Y-101729000D01*
X153687573Y-101907571D01*
X153651858Y-102050429D01*
X153616144Y-102121857D01*
X153580430Y-102157571D01*
X153509001Y-102193286D01*
X153437573Y-102193286D01*
X153366144Y-102157571D01*
X153330430Y-102121857D01*
X153294715Y-102050429D01*
X153259001Y-101907571D01*
X153259001Y-101729000D01*
X153294715Y-101586143D01*
X153330430Y-101514714D01*
X153366144Y-101479000D01*
X153437573Y-101443286D01*
X154366144Y-102193286D02*
X154009001Y-102193286D01*
X154009001Y-101443286D01*
M02*
