G04 #@! TF.FileFunction,Legend,Bot*
%FSLAX46Y46*%
G04 Gerber Fmt 4.6, Leading zero omitted, Abs format (unit mm)*
G04 Created by KiCad (PCBNEW 4.0.2+e4-6225~38~ubuntu15.04.1-stable) date vr 15 jul 2016 23:36:52 CEST*
%MOMM*%
G01*
G04 APERTURE LIST*
%ADD10C,0.100000*%
%ADD11C,0.300000*%
%ADD12C,0.250000*%
%ADD13C,0.150000*%
G04 APERTURE END LIST*
D10*
D11*
X159645714Y-90777143D02*
X159502857Y-90848571D01*
X159217142Y-90848571D01*
X159074285Y-90777143D01*
X159002857Y-90634286D01*
X159002857Y-90562857D01*
X159074285Y-90420000D01*
X159217142Y-90348571D01*
X159431428Y-90348571D01*
X159574285Y-90277143D01*
X159645714Y-90134286D01*
X159645714Y-90062857D01*
X159574285Y-89920000D01*
X159431428Y-89848571D01*
X159217142Y-89848571D01*
X159074285Y-89920000D01*
X157788571Y-90777143D02*
X157931428Y-90848571D01*
X158217142Y-90848571D01*
X158359999Y-90777143D01*
X158431428Y-90634286D01*
X158431428Y-90062857D01*
X158359999Y-89920000D01*
X158217142Y-89848571D01*
X157931428Y-89848571D01*
X157788571Y-89920000D01*
X157717142Y-90062857D01*
X157717142Y-90205714D01*
X158431428Y-90348571D01*
X157074285Y-89848571D02*
X157074285Y-90848571D01*
X157074285Y-89991429D02*
X157002857Y-89920000D01*
X156859999Y-89848571D01*
X156645714Y-89848571D01*
X156502857Y-89920000D01*
X156431428Y-90062857D01*
X156431428Y-90848571D01*
X155788571Y-90777143D02*
X155645714Y-90848571D01*
X155359999Y-90848571D01*
X155217142Y-90777143D01*
X155145714Y-90634286D01*
X155145714Y-90562857D01*
X155217142Y-90420000D01*
X155359999Y-90348571D01*
X155574285Y-90348571D01*
X155717142Y-90277143D01*
X155788571Y-90134286D01*
X155788571Y-90062857D01*
X155717142Y-89920000D01*
X155574285Y-89848571D01*
X155359999Y-89848571D01*
X155217142Y-89920000D01*
X154288570Y-90848571D02*
X154431428Y-90777143D01*
X154502856Y-90705714D01*
X154574285Y-90562857D01*
X154574285Y-90134286D01*
X154502856Y-89991429D01*
X154431428Y-89920000D01*
X154288570Y-89848571D01*
X154074285Y-89848571D01*
X153931428Y-89920000D01*
X153859999Y-89991429D01*
X153788570Y-90134286D01*
X153788570Y-90562857D01*
X153859999Y-90705714D01*
X153931428Y-90777143D01*
X154074285Y-90848571D01*
X154288570Y-90848571D01*
X153145713Y-90848571D02*
X153145713Y-89848571D01*
X153145713Y-90134286D02*
X153074285Y-89991429D01*
X153002856Y-89920000D01*
X152859999Y-89848571D01*
X152717142Y-89848571D01*
X150859999Y-90848571D02*
X151002857Y-90777143D01*
X151074285Y-90634286D01*
X151074285Y-89348571D01*
X149645714Y-90848571D02*
X149645714Y-90062857D01*
X149717143Y-89920000D01*
X149860000Y-89848571D01*
X150145714Y-89848571D01*
X150288571Y-89920000D01*
X149645714Y-90777143D02*
X149788571Y-90848571D01*
X150145714Y-90848571D01*
X150288571Y-90777143D01*
X150360000Y-90634286D01*
X150360000Y-90491429D01*
X150288571Y-90348571D01*
X150145714Y-90277143D01*
X149788571Y-90277143D01*
X149645714Y-90205714D01*
X148288571Y-90777143D02*
X148431428Y-90848571D01*
X148717142Y-90848571D01*
X148860000Y-90777143D01*
X148931428Y-90705714D01*
X149002857Y-90562857D01*
X149002857Y-90134286D01*
X148931428Y-89991429D01*
X148860000Y-89920000D01*
X148717142Y-89848571D01*
X148431428Y-89848571D01*
X148288571Y-89920000D01*
X147645714Y-90848571D02*
X147645714Y-89848571D01*
X147645714Y-89348571D02*
X147717143Y-89420000D01*
X147645714Y-89491429D01*
X147574286Y-89420000D01*
X147645714Y-89348571D01*
X147645714Y-89491429D01*
X145145714Y-90848571D02*
X145145714Y-89348571D01*
X145145714Y-90777143D02*
X145288571Y-90848571D01*
X145574285Y-90848571D01*
X145717143Y-90777143D01*
X145788571Y-90705714D01*
X145860000Y-90562857D01*
X145860000Y-90134286D01*
X145788571Y-89991429D01*
X145717143Y-89920000D01*
X145574285Y-89848571D01*
X145288571Y-89848571D01*
X145145714Y-89920000D01*
X143788571Y-90848571D02*
X143788571Y-90062857D01*
X143860000Y-89920000D01*
X144002857Y-89848571D01*
X144288571Y-89848571D01*
X144431428Y-89920000D01*
X143788571Y-90777143D02*
X143931428Y-90848571D01*
X144288571Y-90848571D01*
X144431428Y-90777143D01*
X144502857Y-90634286D01*
X144502857Y-90491429D01*
X144431428Y-90348571D01*
X144288571Y-90277143D01*
X143931428Y-90277143D01*
X143788571Y-90205714D01*
X143074285Y-89848571D02*
X143074285Y-91348571D01*
X143074285Y-89920000D02*
X142931428Y-89848571D01*
X142645714Y-89848571D01*
X142502857Y-89920000D01*
X142431428Y-89991429D01*
X142359999Y-90134286D01*
X142359999Y-90562857D01*
X142431428Y-90705714D01*
X142502857Y-90777143D01*
X142645714Y-90848571D01*
X142931428Y-90848571D01*
X143074285Y-90777143D01*
X141074285Y-89848571D02*
X141074285Y-90848571D01*
X141717142Y-89848571D02*
X141717142Y-90634286D01*
X141645714Y-90777143D01*
X141502856Y-90848571D01*
X141288571Y-90848571D01*
X141145714Y-90777143D01*
X141074285Y-90705714D01*
X140359999Y-90848571D02*
X140359999Y-89848571D01*
X140359999Y-90134286D02*
X140288571Y-89991429D01*
X140217142Y-89920000D01*
X140074285Y-89848571D01*
X139931428Y-89848571D01*
D12*
X173925953Y-100115714D02*
X173545001Y-100115714D01*
X173783096Y-100782381D02*
X173783096Y-99925238D01*
X173735477Y-99830000D01*
X173640239Y-99782381D01*
X173545001Y-99782381D01*
X172783095Y-100782381D02*
X172783095Y-100258571D01*
X172830714Y-100163333D01*
X172925952Y-100115714D01*
X173116429Y-100115714D01*
X173211667Y-100163333D01*
X172783095Y-100734762D02*
X172878333Y-100782381D01*
X173116429Y-100782381D01*
X173211667Y-100734762D01*
X173259286Y-100639524D01*
X173259286Y-100544286D01*
X173211667Y-100449048D01*
X173116429Y-100401429D01*
X172878333Y-100401429D01*
X172783095Y-100353810D01*
X172306905Y-100115714D02*
X172306905Y-100972857D01*
X172354524Y-101068095D01*
X172449762Y-101115714D01*
X172497381Y-101115714D01*
X172306905Y-99782381D02*
X172354524Y-99830000D01*
X172306905Y-99877619D01*
X172259286Y-99830000D01*
X172306905Y-99782381D01*
X172306905Y-99877619D01*
X171830715Y-100782381D02*
X171830715Y-100115714D01*
X171830715Y-100306190D02*
X171783096Y-100210952D01*
X171735477Y-100163333D01*
X171640239Y-100115714D01*
X171545000Y-100115714D01*
X170783095Y-100782381D02*
X170783095Y-100258571D01*
X170830714Y-100163333D01*
X170925952Y-100115714D01*
X171116429Y-100115714D01*
X171211667Y-100163333D01*
X170783095Y-100734762D02*
X170878333Y-100782381D01*
X171116429Y-100782381D01*
X171211667Y-100734762D01*
X171259286Y-100639524D01*
X171259286Y-100544286D01*
X171211667Y-100449048D01*
X171116429Y-100401429D01*
X170878333Y-100401429D01*
X170783095Y-100353810D01*
X170306905Y-100115714D02*
X170306905Y-100782381D01*
X170306905Y-100210952D02*
X170259286Y-100163333D01*
X170164048Y-100115714D01*
X170021190Y-100115714D01*
X169925952Y-100163333D01*
X169878333Y-100258571D01*
X169878333Y-100782381D01*
X168687857Y-99877619D02*
X168640238Y-99830000D01*
X168545000Y-99782381D01*
X168306904Y-99782381D01*
X168211666Y-99830000D01*
X168164047Y-99877619D01*
X168116428Y-99972857D01*
X168116428Y-100068095D01*
X168164047Y-100210952D01*
X168735476Y-100782381D01*
X168116428Y-100782381D01*
X167497381Y-99782381D02*
X167402142Y-99782381D01*
X167306904Y-99830000D01*
X167259285Y-99877619D01*
X167211666Y-99972857D01*
X167164047Y-100163333D01*
X167164047Y-100401429D01*
X167211666Y-100591905D01*
X167259285Y-100687143D01*
X167306904Y-100734762D01*
X167402142Y-100782381D01*
X167497381Y-100782381D01*
X167592619Y-100734762D01*
X167640238Y-100687143D01*
X167687857Y-100591905D01*
X167735476Y-100401429D01*
X167735476Y-100163333D01*
X167687857Y-99972857D01*
X167640238Y-99877619D01*
X167592619Y-99830000D01*
X167497381Y-99782381D01*
X166211666Y-100782381D02*
X166783095Y-100782381D01*
X166497381Y-100782381D02*
X166497381Y-99782381D01*
X166592619Y-99925238D01*
X166687857Y-100020476D01*
X166783095Y-100068095D01*
X165354523Y-99782381D02*
X165545000Y-99782381D01*
X165640238Y-99830000D01*
X165687857Y-99877619D01*
X165783095Y-100020476D01*
X165830714Y-100210952D01*
X165830714Y-100591905D01*
X165783095Y-100687143D01*
X165735476Y-100734762D01*
X165640238Y-100782381D01*
X165449761Y-100782381D01*
X165354523Y-100734762D01*
X165306904Y-100687143D01*
X165259285Y-100591905D01*
X165259285Y-100353810D01*
X165306904Y-100258571D01*
X165354523Y-100210952D01*
X165449761Y-100163333D01*
X165640238Y-100163333D01*
X165735476Y-100210952D01*
X165783095Y-100258571D01*
X165830714Y-100353810D01*
D13*
X168003220Y-96923860D02*
X167642540Y-98394520D01*
X167642540Y-98394520D02*
X167363140Y-97332800D01*
X167363140Y-97332800D02*
X167053260Y-98404680D01*
X167053260Y-98404680D02*
X166712900Y-96954340D01*
X169423080Y-97614740D02*
X168633140Y-97604580D01*
X168633140Y-97604580D02*
X168622980Y-97614740D01*
X168622980Y-97614740D02*
X168622980Y-97604580D01*
X168582340Y-96893380D02*
X168582340Y-98435160D01*
X169471340Y-96883220D02*
X169471340Y-98452940D01*
X169471340Y-98452940D02*
X169461180Y-98442780D01*
X170022520Y-96984820D02*
X170373040Y-96903540D01*
X170373040Y-96903540D02*
X170693080Y-96893380D01*
X170693080Y-96893380D02*
X170931840Y-97094040D01*
X170931840Y-97094040D02*
X170962320Y-97363280D01*
X170962320Y-97363280D02*
X170721020Y-97604580D01*
X170721020Y-97604580D02*
X170332400Y-97734120D01*
X170332400Y-97734120D02*
X170152060Y-97894140D01*
X170152060Y-97894140D02*
X170111420Y-98193860D01*
X170111420Y-98193860D02*
X170342560Y-98414840D01*
X170342560Y-98414840D02*
X170662600Y-98442780D01*
X170662600Y-98442780D02*
X171013120Y-98333560D01*
X172051980Y-96883220D02*
X172300900Y-96903540D01*
X172300900Y-96903540D02*
X172542200Y-97144840D01*
X172542200Y-97144840D02*
X172631100Y-97635060D01*
X172631100Y-97635060D02*
X172603160Y-97983040D01*
X172603160Y-97983040D02*
X172402500Y-98303080D01*
X172402500Y-98303080D02*
X172151040Y-98425000D01*
X172151040Y-98425000D02*
X171841160Y-98353880D01*
X171841160Y-98353880D02*
X171622720Y-98173540D01*
X171622720Y-98173540D02*
X171551600Y-97713800D01*
X171551600Y-97713800D02*
X171602400Y-97304860D01*
X171602400Y-97304860D02*
X171711620Y-97022920D01*
X171711620Y-97022920D02*
X172072300Y-96893380D01*
X171452540Y-95163640D02*
X171711620Y-95724980D01*
X171711620Y-95724980D02*
X171173140Y-96243140D01*
X171173140Y-96243140D02*
X170652440Y-95973900D01*
X170652440Y-95973900D02*
X170373040Y-96133920D01*
X168932860Y-96113600D02*
X168602660Y-95923100D01*
X168602660Y-95923100D02*
X168163240Y-96253300D01*
X168163240Y-96253300D02*
X167690800Y-95763080D01*
X167690800Y-95763080D02*
X167972740Y-95283020D01*
X167972740Y-95283020D02*
X167782240Y-94813120D01*
X167782240Y-94813120D02*
X167172640Y-94625160D01*
X167172640Y-94625160D02*
X167172640Y-93944440D01*
X167172640Y-93944440D02*
X167731440Y-93804740D01*
X167731440Y-93804740D02*
X167932100Y-93233240D01*
X167932100Y-93233240D02*
X167662860Y-92763340D01*
X167662860Y-92763340D02*
X168132760Y-92252800D01*
X168132760Y-92252800D02*
X168650920Y-92514420D01*
X168650920Y-92514420D02*
X169120820Y-92313760D01*
X169120820Y-92313760D02*
X169291000Y-91772740D01*
X169291000Y-91772740D02*
X169981880Y-91754960D01*
X169981880Y-91754960D02*
X170192700Y-92303600D01*
X170192700Y-92303600D02*
X170611800Y-92473780D01*
X170611800Y-92473780D02*
X171162980Y-92204540D01*
X171162980Y-92204540D02*
X171681140Y-92732860D01*
X171681140Y-92732860D02*
X171432220Y-93273880D01*
X171432220Y-93273880D02*
X171602400Y-93753940D01*
X171602400Y-93753940D02*
X172151040Y-93853000D01*
X172151040Y-93853000D02*
X172161200Y-94554040D01*
X172161200Y-94554040D02*
X171602400Y-94754700D01*
X171602400Y-94754700D02*
X171462700Y-95153480D01*
X169321480Y-95133160D02*
X169021760Y-94983300D01*
X169021760Y-94983300D02*
X168821100Y-94785180D01*
X168821100Y-94785180D02*
X168671240Y-94383860D01*
X168671240Y-94383860D02*
X168671240Y-93985080D01*
X168671240Y-93985080D02*
X168821100Y-93634560D01*
X168821100Y-93634560D02*
X169273220Y-93284040D01*
X169273220Y-93284040D02*
X169722800Y-93233240D01*
X169722800Y-93233240D02*
X170121580Y-93334840D01*
X170121580Y-93334840D02*
X170522900Y-93682820D01*
X170522900Y-93682820D02*
X170672760Y-94134940D01*
X170672760Y-94134940D02*
X170621960Y-94632780D01*
X170621960Y-94632780D02*
X170373040Y-94935040D01*
X170373040Y-94935040D02*
X170022520Y-95133160D01*
X170022520Y-95133160D02*
X170373040Y-96133920D01*
X169321480Y-95133160D02*
X168922700Y-96133920D01*
M02*
