G04 MADE WITH FRITZING*
G04 WWW.FRITZING.ORG*
G04 DOUBLE SIDED*
G04 HOLES PLATED*
G04 CONTOUR ON CENTER OF CONTOUR VECTOR*
%ASAXBY*%
%FSLAX23Y23*%
%MOIN*%
%OFA0B0*%
%SFA1.0B1.0*%
%ADD10C,0.075000*%
%ADD11C,0.079370*%
%ADD12C,0.067559*%
%ADD13C,0.080000*%
%ADD14R,0.080000X0.080000*%
%ADD15C,0.024000*%
%LNCOPPER0*%
G90*
G70*
G54D10*
X1509Y287D03*
X1768Y279D03*
X125Y319D03*
X525Y319D03*
X125Y69D03*
X525Y69D03*
X250Y194D03*
X650Y194D03*
G54D11*
X950Y144D03*
X950Y244D03*
G54D12*
X1050Y144D03*
X1050Y244D03*
G54D13*
X1650Y294D03*
X1650Y194D03*
X1650Y94D03*
G54D11*
X1050Y144D03*
X1050Y244D03*
G54D14*
X1650Y294D03*
G54D15*
X505Y299D02*
X276Y68D01*
D02*
X276Y68D02*
X154Y69D01*
D02*
X1600Y44D02*
X1628Y72D01*
D02*
X545Y48D02*
X550Y44D01*
D02*
X550Y44D02*
X1600Y44D01*
G36*
X570Y354D02*
X570Y330D01*
X572Y330D01*
X572Y308D01*
X570Y308D01*
X570Y302D01*
X568Y302D01*
X568Y300D01*
X566Y300D01*
X566Y296D01*
X564Y296D01*
X564Y294D01*
X1058Y294D01*
X1058Y292D01*
X1064Y292D01*
X1064Y290D01*
X1070Y290D01*
X1070Y288D01*
X1072Y288D01*
X1072Y286D01*
X1076Y286D01*
X1076Y284D01*
X1078Y284D01*
X1078Y282D01*
X1082Y282D01*
X1082Y280D01*
X1084Y280D01*
X1084Y278D01*
X1086Y278D01*
X1086Y276D01*
X1088Y276D01*
X1088Y272D01*
X1090Y272D01*
X1090Y270D01*
X1092Y270D01*
X1092Y266D01*
X1094Y266D01*
X1094Y264D01*
X1096Y264D01*
X1096Y258D01*
X1098Y258D01*
X1098Y252D01*
X1100Y252D01*
X1100Y248D01*
X1456Y248D01*
X1456Y246D01*
X1466Y246D01*
X1466Y244D01*
X1470Y244D01*
X1470Y242D01*
X1474Y242D01*
X1474Y240D01*
X1478Y240D01*
X1478Y238D01*
X1480Y238D01*
X1480Y236D01*
X1482Y236D01*
X1482Y234D01*
X1486Y234D01*
X1486Y232D01*
X1488Y232D01*
X1488Y230D01*
X1490Y230D01*
X1490Y228D01*
X1492Y228D01*
X1492Y224D01*
X1494Y224D01*
X1494Y222D01*
X1496Y222D01*
X1496Y218D01*
X1498Y218D01*
X1498Y214D01*
X1500Y214D01*
X1500Y210D01*
X1502Y210D01*
X1502Y200D01*
X1504Y200D01*
X1504Y188D01*
X1502Y188D01*
X1502Y178D01*
X1500Y178D01*
X1500Y174D01*
X1498Y174D01*
X1498Y170D01*
X1496Y170D01*
X1496Y166D01*
X1494Y166D01*
X1494Y164D01*
X1492Y164D01*
X1492Y162D01*
X1490Y162D01*
X1490Y158D01*
X1488Y158D01*
X1488Y156D01*
X1486Y156D01*
X1486Y154D01*
X1482Y154D01*
X1482Y152D01*
X1480Y152D01*
X1480Y150D01*
X1478Y150D01*
X1478Y148D01*
X1474Y148D01*
X1474Y146D01*
X1470Y146D01*
X1470Y144D01*
X1464Y144D01*
X1464Y142D01*
X1454Y142D01*
X1454Y140D01*
X1624Y140D01*
X1624Y154D01*
X1622Y154D01*
X1622Y156D01*
X1620Y156D01*
X1620Y158D01*
X1616Y158D01*
X1616Y160D01*
X1614Y160D01*
X1614Y164D01*
X1612Y164D01*
X1612Y166D01*
X1610Y166D01*
X1610Y168D01*
X1608Y168D01*
X1608Y172D01*
X1606Y172D01*
X1606Y176D01*
X1604Y176D01*
X1604Y180D01*
X1602Y180D01*
X1602Y186D01*
X1600Y186D01*
X1600Y202D01*
X1602Y202D01*
X1602Y208D01*
X1604Y208D01*
X1604Y214D01*
X1606Y214D01*
X1606Y216D01*
X1608Y216D01*
X1608Y220D01*
X1610Y220D01*
X1610Y222D01*
X1612Y222D01*
X1612Y224D01*
X1614Y224D01*
X1614Y244D01*
X1600Y244D01*
X1600Y354D01*
X570Y354D01*
G37*
D02*
G36*
X564Y294D02*
X564Y292D01*
X562Y292D01*
X562Y290D01*
X560Y290D01*
X560Y288D01*
X558Y288D01*
X558Y286D01*
X556Y286D01*
X556Y284D01*
X554Y284D01*
X554Y282D01*
X552Y282D01*
X552Y280D01*
X548Y280D01*
X548Y278D01*
X544Y278D01*
X544Y276D01*
X540Y276D01*
X540Y274D01*
X534Y274D01*
X534Y272D01*
X508Y272D01*
X508Y270D01*
X506Y270D01*
X506Y268D01*
X504Y268D01*
X504Y266D01*
X502Y266D01*
X502Y264D01*
X500Y264D01*
X500Y262D01*
X498Y262D01*
X498Y260D01*
X496Y260D01*
X496Y258D01*
X494Y258D01*
X494Y256D01*
X492Y256D01*
X492Y254D01*
X490Y254D01*
X490Y252D01*
X488Y252D01*
X488Y250D01*
X486Y250D01*
X486Y248D01*
X484Y248D01*
X484Y246D01*
X482Y246D01*
X482Y244D01*
X480Y244D01*
X480Y242D01*
X656Y242D01*
X656Y240D01*
X664Y240D01*
X664Y238D01*
X668Y238D01*
X668Y236D01*
X672Y236D01*
X672Y234D01*
X676Y234D01*
X676Y232D01*
X678Y232D01*
X678Y230D01*
X680Y230D01*
X680Y228D01*
X682Y228D01*
X682Y226D01*
X684Y226D01*
X684Y224D01*
X686Y224D01*
X686Y222D01*
X688Y222D01*
X688Y220D01*
X690Y220D01*
X690Y216D01*
X692Y216D01*
X692Y212D01*
X694Y212D01*
X694Y208D01*
X696Y208D01*
X696Y202D01*
X698Y202D01*
X698Y188D01*
X696Y188D01*
X696Y180D01*
X694Y180D01*
X694Y176D01*
X692Y176D01*
X692Y172D01*
X690Y172D01*
X690Y168D01*
X688Y168D01*
X688Y166D01*
X686Y166D01*
X686Y164D01*
X684Y164D01*
X684Y162D01*
X682Y162D01*
X682Y160D01*
X680Y160D01*
X680Y158D01*
X678Y158D01*
X678Y156D01*
X674Y156D01*
X674Y154D01*
X672Y154D01*
X672Y152D01*
X668Y152D01*
X668Y150D01*
X662Y150D01*
X662Y148D01*
X656Y148D01*
X656Y146D01*
X900Y146D01*
X900Y150D01*
X902Y150D01*
X902Y158D01*
X904Y158D01*
X904Y162D01*
X906Y162D01*
X906Y166D01*
X908Y166D01*
X908Y170D01*
X910Y170D01*
X910Y172D01*
X912Y172D01*
X912Y174D01*
X914Y174D01*
X914Y176D01*
X916Y176D01*
X916Y178D01*
X918Y178D01*
X918Y180D01*
X920Y180D01*
X920Y182D01*
X922Y182D01*
X922Y184D01*
X924Y184D01*
X924Y204D01*
X922Y204D01*
X922Y206D01*
X920Y206D01*
X920Y208D01*
X918Y208D01*
X918Y210D01*
X916Y210D01*
X916Y212D01*
X914Y212D01*
X914Y214D01*
X912Y214D01*
X912Y216D01*
X910Y216D01*
X910Y218D01*
X908Y218D01*
X908Y222D01*
X906Y222D01*
X906Y226D01*
X904Y226D01*
X904Y230D01*
X902Y230D01*
X902Y238D01*
X900Y238D01*
X900Y250D01*
X902Y250D01*
X902Y258D01*
X904Y258D01*
X904Y262D01*
X906Y262D01*
X906Y266D01*
X908Y266D01*
X908Y270D01*
X910Y270D01*
X910Y272D01*
X912Y272D01*
X912Y274D01*
X914Y274D01*
X914Y276D01*
X916Y276D01*
X916Y278D01*
X918Y278D01*
X918Y280D01*
X920Y280D01*
X920Y282D01*
X922Y282D01*
X922Y284D01*
X924Y284D01*
X924Y286D01*
X928Y286D01*
X928Y288D01*
X932Y288D01*
X932Y290D01*
X936Y290D01*
X936Y292D01*
X942Y292D01*
X942Y294D01*
X564Y294D01*
G37*
D02*
G36*
X958Y294D02*
X958Y292D01*
X964Y292D01*
X964Y290D01*
X970Y290D01*
X970Y288D01*
X972Y288D01*
X972Y286D01*
X976Y286D01*
X976Y284D01*
X978Y284D01*
X978Y282D01*
X982Y282D01*
X982Y280D01*
X984Y280D01*
X984Y278D01*
X986Y278D01*
X986Y276D01*
X988Y276D01*
X988Y272D01*
X990Y272D01*
X990Y270D01*
X1010Y270D01*
X1010Y272D01*
X1012Y272D01*
X1012Y274D01*
X1014Y274D01*
X1014Y276D01*
X1016Y276D01*
X1016Y278D01*
X1018Y278D01*
X1018Y280D01*
X1020Y280D01*
X1020Y282D01*
X1022Y282D01*
X1022Y284D01*
X1024Y284D01*
X1024Y286D01*
X1028Y286D01*
X1028Y288D01*
X1032Y288D01*
X1032Y290D01*
X1036Y290D01*
X1036Y292D01*
X1042Y292D01*
X1042Y294D01*
X958Y294D01*
G37*
D02*
G36*
X1100Y248D02*
X1100Y236D01*
X1098Y236D01*
X1098Y230D01*
X1096Y230D01*
X1096Y224D01*
X1094Y224D01*
X1094Y222D01*
X1092Y222D01*
X1092Y218D01*
X1090Y218D01*
X1090Y216D01*
X1088Y216D01*
X1088Y214D01*
X1086Y214D01*
X1086Y210D01*
X1084Y210D01*
X1084Y208D01*
X1080Y208D01*
X1080Y206D01*
X1078Y206D01*
X1078Y204D01*
X1076Y204D01*
X1076Y184D01*
X1078Y184D01*
X1078Y182D01*
X1082Y182D01*
X1082Y180D01*
X1084Y180D01*
X1084Y178D01*
X1086Y178D01*
X1086Y176D01*
X1088Y176D01*
X1088Y172D01*
X1090Y172D01*
X1090Y170D01*
X1092Y170D01*
X1092Y166D01*
X1094Y166D01*
X1094Y164D01*
X1096Y164D01*
X1096Y158D01*
X1098Y158D01*
X1098Y152D01*
X1100Y152D01*
X1100Y140D01*
X1446Y140D01*
X1446Y142D01*
X1436Y142D01*
X1436Y144D01*
X1430Y144D01*
X1430Y146D01*
X1426Y146D01*
X1426Y148D01*
X1424Y148D01*
X1424Y150D01*
X1420Y150D01*
X1420Y152D01*
X1418Y152D01*
X1418Y154D01*
X1416Y154D01*
X1416Y156D01*
X1414Y156D01*
X1414Y158D01*
X1412Y158D01*
X1412Y160D01*
X1410Y160D01*
X1410Y162D01*
X1408Y162D01*
X1408Y164D01*
X1406Y164D01*
X1406Y168D01*
X1404Y168D01*
X1404Y170D01*
X1402Y170D01*
X1402Y174D01*
X1400Y174D01*
X1400Y180D01*
X1398Y180D01*
X1398Y192D01*
X1396Y192D01*
X1396Y196D01*
X1398Y196D01*
X1398Y208D01*
X1400Y208D01*
X1400Y214D01*
X1402Y214D01*
X1402Y218D01*
X1404Y218D01*
X1404Y220D01*
X1406Y220D01*
X1406Y224D01*
X1408Y224D01*
X1408Y226D01*
X1410Y226D01*
X1410Y228D01*
X1412Y228D01*
X1412Y232D01*
X1416Y232D01*
X1416Y234D01*
X1418Y234D01*
X1418Y236D01*
X1420Y236D01*
X1420Y238D01*
X1422Y238D01*
X1422Y240D01*
X1426Y240D01*
X1426Y242D01*
X1430Y242D01*
X1430Y244D01*
X1436Y244D01*
X1436Y246D01*
X1444Y246D01*
X1444Y248D01*
X1100Y248D01*
G37*
D02*
G36*
X478Y242D02*
X478Y240D01*
X476Y240D01*
X476Y238D01*
X474Y238D01*
X474Y236D01*
X472Y236D01*
X472Y234D01*
X470Y234D01*
X470Y232D01*
X468Y232D01*
X468Y230D01*
X466Y230D01*
X466Y228D01*
X464Y228D01*
X464Y226D01*
X462Y226D01*
X462Y224D01*
X460Y224D01*
X460Y222D01*
X458Y222D01*
X458Y220D01*
X456Y220D01*
X456Y218D01*
X454Y218D01*
X454Y216D01*
X452Y216D01*
X452Y214D01*
X450Y214D01*
X450Y212D01*
X448Y212D01*
X448Y210D01*
X446Y210D01*
X446Y208D01*
X444Y208D01*
X444Y206D01*
X442Y206D01*
X442Y204D01*
X440Y204D01*
X440Y202D01*
X438Y202D01*
X438Y200D01*
X436Y200D01*
X436Y198D01*
X434Y198D01*
X434Y196D01*
X432Y196D01*
X432Y194D01*
X430Y194D01*
X430Y192D01*
X428Y192D01*
X428Y190D01*
X426Y190D01*
X426Y188D01*
X424Y188D01*
X424Y186D01*
X422Y186D01*
X422Y184D01*
X420Y184D01*
X420Y182D01*
X418Y182D01*
X418Y180D01*
X416Y180D01*
X416Y178D01*
X414Y178D01*
X414Y176D01*
X412Y176D01*
X412Y174D01*
X410Y174D01*
X410Y172D01*
X408Y172D01*
X408Y170D01*
X406Y170D01*
X406Y168D01*
X404Y168D01*
X404Y166D01*
X402Y166D01*
X402Y164D01*
X400Y164D01*
X400Y162D01*
X398Y162D01*
X398Y160D01*
X396Y160D01*
X396Y158D01*
X394Y158D01*
X394Y156D01*
X392Y156D01*
X392Y154D01*
X390Y154D01*
X390Y152D01*
X388Y152D01*
X388Y150D01*
X386Y150D01*
X386Y148D01*
X384Y148D01*
X384Y146D01*
X646Y146D01*
X646Y148D01*
X638Y148D01*
X638Y150D01*
X632Y150D01*
X632Y152D01*
X630Y152D01*
X630Y154D01*
X626Y154D01*
X626Y156D01*
X624Y156D01*
X624Y158D01*
X620Y158D01*
X620Y160D01*
X618Y160D01*
X618Y162D01*
X616Y162D01*
X616Y164D01*
X614Y164D01*
X614Y168D01*
X612Y168D01*
X612Y170D01*
X610Y170D01*
X610Y174D01*
X608Y174D01*
X608Y176D01*
X606Y176D01*
X606Y182D01*
X604Y182D01*
X604Y190D01*
X602Y190D01*
X602Y198D01*
X604Y198D01*
X604Y206D01*
X606Y206D01*
X606Y212D01*
X608Y212D01*
X608Y216D01*
X610Y216D01*
X610Y218D01*
X612Y218D01*
X612Y222D01*
X614Y222D01*
X614Y224D01*
X616Y224D01*
X616Y226D01*
X618Y226D01*
X618Y228D01*
X620Y228D01*
X620Y230D01*
X622Y230D01*
X622Y232D01*
X626Y232D01*
X626Y234D01*
X628Y234D01*
X628Y236D01*
X632Y236D01*
X632Y238D01*
X638Y238D01*
X638Y240D01*
X644Y240D01*
X644Y242D01*
X478Y242D01*
G37*
D02*
G36*
X382Y146D02*
X382Y144D01*
X900Y144D01*
X900Y146D01*
X382Y146D01*
G37*
D02*
G36*
X382Y146D02*
X382Y144D01*
X900Y144D01*
X900Y146D01*
X382Y146D01*
G37*
D02*
G36*
X380Y144D02*
X380Y142D01*
X378Y142D01*
X378Y140D01*
X376Y140D01*
X376Y138D01*
X374Y138D01*
X374Y136D01*
X372Y136D01*
X372Y134D01*
X370Y134D01*
X370Y132D01*
X368Y132D01*
X368Y130D01*
X366Y130D01*
X366Y128D01*
X364Y128D01*
X364Y126D01*
X362Y126D01*
X362Y124D01*
X360Y124D01*
X360Y122D01*
X358Y122D01*
X358Y120D01*
X356Y120D01*
X356Y118D01*
X354Y118D01*
X354Y116D01*
X536Y116D01*
X536Y114D01*
X542Y114D01*
X542Y112D01*
X546Y112D01*
X546Y110D01*
X548Y110D01*
X548Y108D01*
X552Y108D01*
X552Y106D01*
X554Y106D01*
X554Y104D01*
X556Y104D01*
X556Y102D01*
X558Y102D01*
X558Y100D01*
X560Y100D01*
X560Y98D01*
X562Y98D01*
X562Y96D01*
X564Y96D01*
X564Y94D01*
X944Y94D01*
X944Y96D01*
X936Y96D01*
X936Y98D01*
X932Y98D01*
X932Y100D01*
X928Y100D01*
X928Y102D01*
X924Y102D01*
X924Y104D01*
X922Y104D01*
X922Y106D01*
X920Y106D01*
X920Y108D01*
X918Y108D01*
X918Y110D01*
X916Y110D01*
X916Y112D01*
X914Y112D01*
X914Y114D01*
X912Y114D01*
X912Y116D01*
X910Y116D01*
X910Y118D01*
X908Y118D01*
X908Y122D01*
X906Y122D01*
X906Y126D01*
X904Y126D01*
X904Y130D01*
X902Y130D01*
X902Y138D01*
X900Y138D01*
X900Y144D01*
X380Y144D01*
G37*
D02*
G36*
X1100Y140D02*
X1100Y138D01*
X1624Y138D01*
X1624Y140D01*
X1100Y140D01*
G37*
D02*
G36*
X1100Y140D02*
X1100Y138D01*
X1624Y138D01*
X1624Y140D01*
X1100Y140D01*
G37*
D02*
G36*
X1100Y138D02*
X1100Y136D01*
X1098Y136D01*
X1098Y130D01*
X1096Y130D01*
X1096Y124D01*
X1094Y124D01*
X1094Y122D01*
X1092Y122D01*
X1092Y118D01*
X1090Y118D01*
X1090Y116D01*
X1088Y116D01*
X1088Y114D01*
X1086Y114D01*
X1086Y110D01*
X1084Y110D01*
X1084Y108D01*
X1080Y108D01*
X1080Y106D01*
X1078Y106D01*
X1078Y104D01*
X1076Y104D01*
X1076Y102D01*
X1072Y102D01*
X1072Y100D01*
X1068Y100D01*
X1068Y98D01*
X1064Y98D01*
X1064Y96D01*
X1056Y96D01*
X1056Y94D01*
X1600Y94D01*
X1600Y102D01*
X1602Y102D01*
X1602Y108D01*
X1604Y108D01*
X1604Y114D01*
X1606Y114D01*
X1606Y116D01*
X1608Y116D01*
X1608Y120D01*
X1610Y120D01*
X1610Y122D01*
X1612Y122D01*
X1612Y124D01*
X1614Y124D01*
X1614Y128D01*
X1616Y128D01*
X1616Y130D01*
X1618Y130D01*
X1618Y132D01*
X1622Y132D01*
X1622Y134D01*
X1624Y134D01*
X1624Y138D01*
X1100Y138D01*
G37*
D02*
G36*
X990Y118D02*
X990Y116D01*
X988Y116D01*
X988Y114D01*
X986Y114D01*
X986Y110D01*
X984Y110D01*
X984Y108D01*
X980Y108D01*
X980Y106D01*
X978Y106D01*
X978Y104D01*
X976Y104D01*
X976Y102D01*
X972Y102D01*
X972Y100D01*
X968Y100D01*
X968Y98D01*
X964Y98D01*
X964Y96D01*
X956Y96D01*
X956Y94D01*
X1044Y94D01*
X1044Y96D01*
X1036Y96D01*
X1036Y98D01*
X1032Y98D01*
X1032Y100D01*
X1028Y100D01*
X1028Y102D01*
X1024Y102D01*
X1024Y104D01*
X1022Y104D01*
X1022Y106D01*
X1020Y106D01*
X1020Y108D01*
X1018Y108D01*
X1018Y110D01*
X1016Y110D01*
X1016Y112D01*
X1014Y112D01*
X1014Y114D01*
X1012Y114D01*
X1012Y116D01*
X1010Y116D01*
X1010Y118D01*
X990Y118D01*
G37*
D02*
G36*
X352Y116D02*
X352Y114D01*
X350Y114D01*
X350Y112D01*
X348Y112D01*
X348Y108D01*
X346Y108D01*
X346Y106D01*
X344Y106D01*
X344Y104D01*
X342Y104D01*
X342Y102D01*
X340Y102D01*
X340Y100D01*
X338Y100D01*
X338Y98D01*
X336Y98D01*
X336Y96D01*
X334Y96D01*
X334Y94D01*
X332Y94D01*
X332Y92D01*
X330Y92D01*
X330Y90D01*
X328Y90D01*
X328Y88D01*
X326Y88D01*
X326Y86D01*
X324Y86D01*
X324Y84D01*
X322Y84D01*
X322Y82D01*
X320Y82D01*
X320Y80D01*
X318Y80D01*
X318Y78D01*
X316Y78D01*
X316Y76D01*
X314Y76D01*
X314Y74D01*
X312Y74D01*
X312Y72D01*
X310Y72D01*
X310Y70D01*
X308Y70D01*
X308Y68D01*
X306Y68D01*
X306Y66D01*
X304Y66D01*
X304Y64D01*
X302Y64D01*
X302Y62D01*
X300Y62D01*
X300Y42D01*
X478Y42D01*
X478Y78D01*
X480Y78D01*
X480Y84D01*
X482Y84D01*
X482Y88D01*
X484Y88D01*
X484Y92D01*
X486Y92D01*
X486Y94D01*
X488Y94D01*
X488Y98D01*
X490Y98D01*
X490Y100D01*
X492Y100D01*
X492Y102D01*
X494Y102D01*
X494Y104D01*
X496Y104D01*
X496Y106D01*
X500Y106D01*
X500Y108D01*
X502Y108D01*
X502Y110D01*
X506Y110D01*
X506Y112D01*
X510Y112D01*
X510Y114D01*
X514Y114D01*
X514Y116D01*
X352Y116D01*
G37*
D02*
G36*
X564Y94D02*
X564Y92D01*
X1600Y92D01*
X1600Y94D01*
X564Y94D01*
G37*
D02*
G36*
X564Y94D02*
X564Y92D01*
X1600Y92D01*
X1600Y94D01*
X564Y94D01*
G37*
D02*
G36*
X564Y94D02*
X564Y92D01*
X1600Y92D01*
X1600Y94D01*
X564Y94D01*
G37*
D02*
G36*
X566Y92D02*
X566Y90D01*
X568Y90D01*
X568Y86D01*
X570Y86D01*
X570Y80D01*
X572Y80D01*
X572Y66D01*
X1592Y66D01*
X1592Y68D01*
X1594Y68D01*
X1594Y70D01*
X1596Y70D01*
X1596Y72D01*
X1598Y72D01*
X1598Y74D01*
X1600Y74D01*
X1600Y92D01*
X566Y92D01*
G37*
D02*
G36*
X1700Y354D02*
X1700Y244D01*
X1688Y244D01*
X1688Y224D01*
X1690Y224D01*
X1690Y220D01*
X1692Y220D01*
X1692Y218D01*
X1694Y218D01*
X1694Y214D01*
X1696Y214D01*
X1696Y210D01*
X1698Y210D01*
X1698Y204D01*
X1700Y204D01*
X1700Y184D01*
X1698Y184D01*
X1698Y178D01*
X1696Y178D01*
X1696Y174D01*
X1694Y174D01*
X1694Y170D01*
X1692Y170D01*
X1692Y168D01*
X1690Y168D01*
X1690Y166D01*
X1688Y166D01*
X1688Y162D01*
X1686Y162D01*
X1686Y160D01*
X1684Y160D01*
X1684Y158D01*
X1682Y158D01*
X1682Y156D01*
X1678Y156D01*
X1678Y154D01*
X1676Y154D01*
X1676Y134D01*
X1680Y134D01*
X1680Y132D01*
X1682Y132D01*
X1682Y130D01*
X1684Y130D01*
X1684Y128D01*
X1686Y128D01*
X1686Y126D01*
X1688Y126D01*
X1688Y124D01*
X1690Y124D01*
X1690Y120D01*
X1692Y120D01*
X1692Y118D01*
X1694Y118D01*
X1694Y114D01*
X1696Y114D01*
X1696Y110D01*
X1698Y110D01*
X1698Y104D01*
X1700Y104D01*
X1700Y84D01*
X1698Y84D01*
X1698Y78D01*
X1696Y78D01*
X1696Y74D01*
X1694Y74D01*
X1694Y70D01*
X1692Y70D01*
X1692Y68D01*
X1690Y68D01*
X1690Y66D01*
X1688Y66D01*
X1688Y62D01*
X1686Y62D01*
X1686Y42D01*
X1928Y42D01*
X1928Y354D01*
X1700Y354D01*
G37*
D02*
G36*
X40Y354D02*
X40Y272D01*
X116Y272D01*
X116Y274D01*
X110Y274D01*
X110Y276D01*
X106Y276D01*
X106Y278D01*
X102Y278D01*
X102Y280D01*
X100Y280D01*
X100Y282D01*
X96Y282D01*
X96Y284D01*
X94Y284D01*
X94Y286D01*
X92Y286D01*
X92Y288D01*
X90Y288D01*
X90Y290D01*
X88Y290D01*
X88Y294D01*
X86Y294D01*
X86Y296D01*
X84Y296D01*
X84Y300D01*
X82Y300D01*
X82Y304D01*
X80Y304D01*
X80Y310D01*
X78Y310D01*
X78Y328D01*
X80Y328D01*
X80Y334D01*
X82Y334D01*
X82Y354D01*
X40Y354D01*
G37*
D02*
G36*
X170Y354D02*
X170Y330D01*
X172Y330D01*
X172Y308D01*
X170Y308D01*
X170Y302D01*
X168Y302D01*
X168Y300D01*
X166Y300D01*
X166Y296D01*
X164Y296D01*
X164Y292D01*
X162Y292D01*
X162Y290D01*
X160Y290D01*
X160Y288D01*
X158Y288D01*
X158Y286D01*
X156Y286D01*
X156Y284D01*
X154Y284D01*
X154Y282D01*
X152Y282D01*
X152Y280D01*
X148Y280D01*
X148Y278D01*
X144Y278D01*
X144Y276D01*
X140Y276D01*
X140Y274D01*
X134Y274D01*
X134Y272D01*
X448Y272D01*
X448Y274D01*
X450Y274D01*
X450Y276D01*
X452Y276D01*
X452Y278D01*
X454Y278D01*
X454Y280D01*
X456Y280D01*
X456Y282D01*
X458Y282D01*
X458Y284D01*
X460Y284D01*
X460Y286D01*
X462Y286D01*
X462Y288D01*
X464Y288D01*
X464Y290D01*
X466Y290D01*
X466Y292D01*
X468Y292D01*
X468Y294D01*
X470Y294D01*
X470Y296D01*
X472Y296D01*
X472Y298D01*
X474Y298D01*
X474Y300D01*
X476Y300D01*
X476Y302D01*
X478Y302D01*
X478Y328D01*
X480Y328D01*
X480Y334D01*
X482Y334D01*
X482Y354D01*
X170Y354D01*
G37*
D02*
G36*
X40Y272D02*
X40Y270D01*
X446Y270D01*
X446Y272D01*
X40Y272D01*
G37*
D02*
G36*
X40Y272D02*
X40Y270D01*
X446Y270D01*
X446Y272D01*
X40Y272D01*
G37*
D02*
G36*
X40Y270D02*
X40Y248D01*
X106Y248D01*
X106Y246D01*
X116Y246D01*
X116Y244D01*
X120Y244D01*
X120Y242D01*
X256Y242D01*
X256Y240D01*
X264Y240D01*
X264Y238D01*
X268Y238D01*
X268Y236D01*
X272Y236D01*
X272Y234D01*
X276Y234D01*
X276Y232D01*
X278Y232D01*
X278Y230D01*
X280Y230D01*
X280Y228D01*
X282Y228D01*
X282Y226D01*
X284Y226D01*
X284Y224D01*
X286Y224D01*
X286Y222D01*
X288Y222D01*
X288Y220D01*
X290Y220D01*
X290Y216D01*
X292Y216D01*
X292Y212D01*
X294Y212D01*
X294Y208D01*
X296Y208D01*
X296Y202D01*
X298Y202D01*
X298Y188D01*
X296Y188D01*
X296Y180D01*
X294Y180D01*
X294Y176D01*
X292Y176D01*
X292Y172D01*
X290Y172D01*
X290Y168D01*
X288Y168D01*
X288Y166D01*
X286Y166D01*
X286Y164D01*
X284Y164D01*
X284Y162D01*
X282Y162D01*
X282Y160D01*
X280Y160D01*
X280Y158D01*
X278Y158D01*
X278Y156D01*
X274Y156D01*
X274Y154D01*
X272Y154D01*
X272Y152D01*
X268Y152D01*
X268Y150D01*
X262Y150D01*
X262Y148D01*
X256Y148D01*
X256Y146D01*
X322Y146D01*
X322Y148D01*
X324Y148D01*
X324Y150D01*
X326Y150D01*
X326Y152D01*
X328Y152D01*
X328Y154D01*
X330Y154D01*
X330Y156D01*
X332Y156D01*
X332Y158D01*
X334Y158D01*
X334Y160D01*
X336Y160D01*
X336Y162D01*
X338Y162D01*
X338Y164D01*
X340Y164D01*
X340Y166D01*
X342Y166D01*
X342Y168D01*
X344Y168D01*
X344Y170D01*
X346Y170D01*
X346Y172D01*
X348Y172D01*
X348Y174D01*
X350Y174D01*
X350Y176D01*
X352Y176D01*
X352Y178D01*
X354Y178D01*
X354Y180D01*
X356Y180D01*
X356Y182D01*
X358Y182D01*
X358Y184D01*
X360Y184D01*
X360Y186D01*
X362Y186D01*
X362Y188D01*
X364Y188D01*
X364Y190D01*
X366Y190D01*
X366Y192D01*
X368Y192D01*
X368Y194D01*
X370Y194D01*
X370Y196D01*
X372Y196D01*
X372Y198D01*
X374Y198D01*
X374Y200D01*
X376Y200D01*
X376Y202D01*
X378Y202D01*
X378Y204D01*
X380Y204D01*
X380Y206D01*
X382Y206D01*
X382Y208D01*
X384Y208D01*
X384Y210D01*
X386Y210D01*
X386Y212D01*
X388Y212D01*
X388Y214D01*
X390Y214D01*
X390Y216D01*
X392Y216D01*
X392Y218D01*
X394Y218D01*
X394Y220D01*
X396Y220D01*
X396Y222D01*
X398Y222D01*
X398Y224D01*
X400Y224D01*
X400Y226D01*
X402Y226D01*
X402Y228D01*
X404Y228D01*
X404Y230D01*
X406Y230D01*
X406Y232D01*
X408Y232D01*
X408Y234D01*
X410Y234D01*
X410Y236D01*
X412Y236D01*
X412Y238D01*
X414Y238D01*
X414Y240D01*
X416Y240D01*
X416Y242D01*
X418Y242D01*
X418Y244D01*
X420Y244D01*
X420Y246D01*
X422Y246D01*
X422Y248D01*
X424Y248D01*
X424Y250D01*
X426Y250D01*
X426Y252D01*
X428Y252D01*
X428Y254D01*
X430Y254D01*
X430Y256D01*
X432Y256D01*
X432Y258D01*
X434Y258D01*
X434Y260D01*
X436Y260D01*
X436Y262D01*
X438Y262D01*
X438Y264D01*
X440Y264D01*
X440Y266D01*
X442Y266D01*
X442Y268D01*
X444Y268D01*
X444Y270D01*
X40Y270D01*
G37*
D02*
G36*
X40Y248D02*
X40Y226D01*
X60Y226D01*
X60Y228D01*
X62Y228D01*
X62Y232D01*
X66Y232D01*
X66Y234D01*
X68Y234D01*
X68Y236D01*
X70Y236D01*
X70Y238D01*
X72Y238D01*
X72Y240D01*
X76Y240D01*
X76Y242D01*
X80Y242D01*
X80Y244D01*
X86Y244D01*
X86Y246D01*
X94Y246D01*
X94Y248D01*
X40Y248D01*
G37*
D02*
G36*
X124Y242D02*
X124Y240D01*
X128Y240D01*
X128Y238D01*
X130Y238D01*
X130Y236D01*
X132Y236D01*
X132Y234D01*
X136Y234D01*
X136Y232D01*
X138Y232D01*
X138Y230D01*
X140Y230D01*
X140Y226D01*
X142Y226D01*
X142Y224D01*
X144Y224D01*
X144Y222D01*
X146Y222D01*
X146Y218D01*
X148Y218D01*
X148Y214D01*
X150Y214D01*
X150Y210D01*
X152Y210D01*
X152Y200D01*
X154Y200D01*
X154Y188D01*
X152Y188D01*
X152Y178D01*
X150Y178D01*
X150Y174D01*
X148Y174D01*
X148Y170D01*
X146Y170D01*
X146Y166D01*
X144Y166D01*
X144Y164D01*
X142Y164D01*
X142Y162D01*
X140Y162D01*
X140Y158D01*
X138Y158D01*
X138Y156D01*
X136Y156D01*
X136Y154D01*
X132Y154D01*
X132Y152D01*
X130Y152D01*
X130Y150D01*
X128Y150D01*
X128Y148D01*
X124Y148D01*
X124Y146D01*
X246Y146D01*
X246Y148D01*
X238Y148D01*
X238Y150D01*
X232Y150D01*
X232Y152D01*
X230Y152D01*
X230Y154D01*
X226Y154D01*
X226Y156D01*
X224Y156D01*
X224Y158D01*
X220Y158D01*
X220Y160D01*
X218Y160D01*
X218Y162D01*
X216Y162D01*
X216Y164D01*
X214Y164D01*
X214Y168D01*
X212Y168D01*
X212Y170D01*
X210Y170D01*
X210Y174D01*
X208Y174D01*
X208Y176D01*
X206Y176D01*
X206Y182D01*
X204Y182D01*
X204Y190D01*
X202Y190D01*
X202Y198D01*
X204Y198D01*
X204Y206D01*
X206Y206D01*
X206Y212D01*
X208Y212D01*
X208Y216D01*
X210Y216D01*
X210Y218D01*
X212Y218D01*
X212Y222D01*
X214Y222D01*
X214Y224D01*
X216Y224D01*
X216Y226D01*
X218Y226D01*
X218Y228D01*
X220Y228D01*
X220Y230D01*
X222Y230D01*
X222Y232D01*
X226Y232D01*
X226Y234D01*
X228Y234D01*
X228Y236D01*
X232Y236D01*
X232Y238D01*
X238Y238D01*
X238Y240D01*
X244Y240D01*
X244Y242D01*
X124Y242D01*
G37*
D02*
G36*
X40Y162D02*
X40Y140D01*
X96Y140D01*
X96Y142D01*
X86Y142D01*
X86Y144D01*
X80Y144D01*
X80Y146D01*
X76Y146D01*
X76Y148D01*
X74Y148D01*
X74Y150D01*
X70Y150D01*
X70Y152D01*
X68Y152D01*
X68Y154D01*
X66Y154D01*
X66Y156D01*
X64Y156D01*
X64Y158D01*
X62Y158D01*
X62Y160D01*
X60Y160D01*
X60Y162D01*
X40Y162D01*
G37*
D02*
G36*
X120Y146D02*
X120Y144D01*
X320Y144D01*
X320Y146D01*
X120Y146D01*
G37*
D02*
G36*
X120Y146D02*
X120Y144D01*
X320Y144D01*
X320Y146D01*
X120Y146D01*
G37*
D02*
G36*
X114Y144D02*
X114Y142D01*
X104Y142D01*
X104Y140D01*
X316Y140D01*
X316Y142D01*
X318Y142D01*
X318Y144D01*
X114Y144D01*
G37*
D02*
G36*
X40Y140D02*
X40Y138D01*
X314Y138D01*
X314Y140D01*
X40Y140D01*
G37*
D02*
G36*
X40Y140D02*
X40Y138D01*
X314Y138D01*
X314Y140D01*
X40Y140D01*
G37*
D02*
G36*
X40Y138D02*
X40Y116D01*
X136Y116D01*
X136Y114D01*
X142Y114D01*
X142Y112D01*
X146Y112D01*
X146Y110D01*
X148Y110D01*
X148Y108D01*
X152Y108D01*
X152Y106D01*
X154Y106D01*
X154Y104D01*
X156Y104D01*
X156Y102D01*
X158Y102D01*
X158Y100D01*
X160Y100D01*
X160Y98D01*
X162Y98D01*
X162Y96D01*
X164Y96D01*
X164Y92D01*
X166Y92D01*
X166Y90D01*
X266Y90D01*
X266Y92D01*
X268Y92D01*
X268Y94D01*
X270Y94D01*
X270Y96D01*
X272Y96D01*
X272Y98D01*
X274Y98D01*
X274Y100D01*
X276Y100D01*
X276Y102D01*
X278Y102D01*
X278Y104D01*
X280Y104D01*
X280Y106D01*
X282Y106D01*
X282Y108D01*
X284Y108D01*
X284Y110D01*
X286Y110D01*
X286Y112D01*
X288Y112D01*
X288Y114D01*
X290Y114D01*
X290Y116D01*
X292Y116D01*
X292Y118D01*
X294Y118D01*
X294Y120D01*
X296Y120D01*
X296Y122D01*
X298Y122D01*
X298Y124D01*
X300Y124D01*
X300Y126D01*
X302Y126D01*
X302Y128D01*
X304Y128D01*
X304Y130D01*
X306Y130D01*
X306Y132D01*
X308Y132D01*
X308Y134D01*
X310Y134D01*
X310Y136D01*
X312Y136D01*
X312Y138D01*
X40Y138D01*
G37*
D02*
G36*
X40Y116D02*
X40Y42D01*
X78Y42D01*
X78Y78D01*
X80Y78D01*
X80Y84D01*
X82Y84D01*
X82Y88D01*
X84Y88D01*
X84Y92D01*
X86Y92D01*
X86Y94D01*
X88Y94D01*
X88Y98D01*
X90Y98D01*
X90Y100D01*
X92Y100D01*
X92Y102D01*
X94Y102D01*
X94Y104D01*
X96Y104D01*
X96Y106D01*
X100Y106D01*
X100Y108D01*
X102Y108D01*
X102Y110D01*
X106Y110D01*
X106Y112D01*
X110Y112D01*
X110Y114D01*
X114Y114D01*
X114Y116D01*
X40Y116D01*
G37*
D02*
G36*
X1596Y219D02*
X1628Y219D01*
X1628Y174D01*
X1596Y174D01*
X1596Y219D01*
G37*
D02*
G36*
X1666Y219D02*
X1700Y219D01*
X1700Y174D01*
X1666Y174D01*
X1666Y219D01*
G37*
D02*
G36*
X228Y246D02*
X271Y246D01*
X271Y214D01*
X228Y214D01*
X228Y246D01*
G37*
D02*
G36*
X198Y218D02*
X232Y218D01*
X232Y175D01*
X198Y175D01*
X198Y218D01*
G37*
D02*
G36*
X102Y366D02*
X145Y366D01*
X145Y338D01*
X102Y338D01*
X102Y366D01*
G37*
D02*
G36*
X102Y304D02*
X145Y304D01*
X145Y272D01*
X102Y272D01*
X102Y304D01*
G37*
D02*
G36*
X74Y342D02*
X106Y342D01*
X106Y299D01*
X74Y299D01*
X74Y342D01*
G37*
D02*
G36*
X140Y342D02*
X172Y342D01*
X172Y299D01*
X140Y299D01*
X140Y342D01*
G37*
D02*
G04 End of Copper0*
M02*