G04 #@! TF.FileFunction,Copper,L2,Bot,Signal*
%FSLAX46Y46*%
G04 Gerber Fmt 4.6, Leading zero omitted, Abs format (unit mm)*
G04 Created by KiCad (PCBNEW 4.0.3+e1-6302~38~ubuntu15.04.1-stable) date Fri Aug 26 22:40:40 2016*
%MOMM*%
%LPD*%
G01*
G04 APERTURE LIST*
%ADD10C,0.100000*%
%ADD11R,1.727200X1.727200*%
%ADD12C,1.727200*%
%ADD13R,1.300000X1.300000*%
%ADD14C,1.300000*%
%ADD15R,1.750000X1.750000*%
%ADD16C,1.750000*%
%ADD17R,1.200000X1.700000*%
%ADD18O,1.200000X1.700000*%
%ADD19R,2.540000X2.540000*%
%ADD20C,2.540000*%
%ADD21C,3.200000*%
%ADD22C,0.600000*%
%ADD23C,0.250000*%
%ADD24C,0.254000*%
G04 APERTURE END LIST*
D10*
D11*
X86360000Y-55245000D03*
D12*
X86360000Y-57785000D03*
X86360000Y-60325000D03*
X86360000Y-62865000D03*
X86360000Y-65405000D03*
X86360000Y-67945000D03*
X86360000Y-70485000D03*
X86360000Y-73025000D03*
X86360000Y-75565000D03*
X86360000Y-78105000D03*
X86360000Y-80645000D03*
X86360000Y-83185000D03*
X86360000Y-85725000D03*
X86360000Y-88265000D03*
X86360000Y-90805000D03*
X101600000Y-90805000D03*
X101600000Y-88265000D03*
X101600000Y-85725000D03*
X101600000Y-83185000D03*
X101600000Y-80645000D03*
X101600000Y-78105000D03*
X101600000Y-75565000D03*
X101600000Y-73025000D03*
X101600000Y-70485000D03*
X101600000Y-67945000D03*
X101600000Y-65405000D03*
X101600000Y-62865000D03*
X101600000Y-60325000D03*
X101600000Y-57785000D03*
X101600000Y-55245000D03*
D13*
X79375000Y-82550000D03*
D14*
X74375000Y-82550000D03*
D15*
X66040000Y-51435000D03*
D16*
X66040000Y-53935000D03*
X66040000Y-56435000D03*
X66040000Y-58935000D03*
X66040000Y-61435000D03*
X66040000Y-63935000D03*
X66040000Y-66435000D03*
X66040000Y-68935000D03*
D15*
X66040000Y-75565000D03*
D16*
X66040000Y-78065000D03*
X66040000Y-80565000D03*
X66040000Y-83065000D03*
X66040000Y-85565000D03*
X66040000Y-88065000D03*
X66040000Y-90565000D03*
X66040000Y-93065000D03*
D17*
X73660000Y-55880000D03*
D18*
X75660000Y-55880000D03*
X77660000Y-55880000D03*
X79660000Y-55880000D03*
D17*
X73660000Y-64770000D03*
D18*
X75660000Y-64770000D03*
X77660000Y-64770000D03*
X79660000Y-64770000D03*
D19*
X79375000Y-93980000D03*
D20*
X74295000Y-93980000D03*
D15*
X73660000Y-45085000D03*
D16*
X76160000Y-45085000D03*
X78660000Y-45085000D03*
D15*
X86995000Y-45085000D03*
D16*
X89495000Y-45085000D03*
X91995000Y-45085000D03*
D21*
X59000000Y-44000000D03*
X101000000Y-44000000D03*
X59000000Y-100000000D03*
X101000000Y-100000000D03*
D22*
X91980000Y-75565000D03*
D23*
X71536410Y-67469242D02*
X68590031Y-64522863D01*
X84295758Y-67469242D02*
X71536410Y-67469242D01*
X68590031Y-58985031D02*
X66914999Y-57309999D01*
X68590031Y-64522863D02*
X68590031Y-58985031D01*
X86360000Y-65405000D02*
X84295758Y-67469242D01*
X66914999Y-57309999D02*
X66040000Y-56435000D01*
X66914999Y-59809999D02*
X66040000Y-58935000D01*
X86360000Y-67945000D02*
X71375757Y-67945000D01*
X68140020Y-61035020D02*
X66914999Y-59809999D01*
X68140020Y-64709263D02*
X68140020Y-61035020D01*
X71375757Y-67945000D02*
X68140020Y-64709263D01*
X66914999Y-62309999D02*
X66040000Y-61435000D01*
X67690009Y-64895663D02*
X67690009Y-63085009D01*
X71189357Y-68395011D02*
X67690009Y-64895663D01*
X84270011Y-68395011D02*
X71189357Y-68395011D01*
X67690009Y-63085009D02*
X66914999Y-62309999D01*
X86360000Y-70485000D02*
X84270011Y-68395011D01*
X86360000Y-73025000D02*
X85171399Y-71836399D01*
X66914999Y-64809999D02*
X66040000Y-63935000D01*
X85171399Y-71836399D02*
X85171399Y-69957784D01*
X70950019Y-68845019D02*
X66914999Y-64809999D01*
X85171399Y-69957784D02*
X84058634Y-68845019D01*
X84058634Y-68845019D02*
X70950019Y-68845019D01*
X66040000Y-66435000D02*
X67903590Y-66435000D01*
X67903590Y-66435000D02*
X70763619Y-69295029D01*
X84648040Y-73853040D02*
X86360000Y-75565000D01*
X70763619Y-69295029D02*
X83833611Y-69295029D01*
X83833611Y-69295029D02*
X84648040Y-70109458D01*
X84648040Y-70109458D02*
X84648040Y-73853040D01*
X66040000Y-66435000D02*
X67773580Y-66435000D01*
X66040000Y-80565000D02*
X67240001Y-81765001D01*
X67240001Y-81765001D02*
X67240001Y-83628591D01*
X67240001Y-83628591D02*
X68276388Y-84664978D01*
X68276388Y-84664978D02*
X83573052Y-84664978D01*
X83573052Y-84664978D02*
X84721389Y-83516641D01*
X84721389Y-83516641D02*
X84721389Y-79743611D01*
X84721389Y-79743611D02*
X86360000Y-78105000D01*
X66595000Y-80010000D02*
X66040000Y-80565000D01*
X86360000Y-80645000D02*
X85171399Y-81833601D01*
X85171399Y-83703042D02*
X83759452Y-85114989D01*
X85171399Y-81833601D02*
X85171399Y-83703042D01*
X83759452Y-85114989D02*
X68089989Y-85114989D01*
X68089989Y-85114989D02*
X66040000Y-83065000D01*
X83980000Y-85565000D02*
X66040000Y-85565000D01*
X86360000Y-83185000D02*
X83980000Y-85565000D01*
X86360000Y-85725000D02*
X84456410Y-85725000D01*
X84456410Y-85725000D02*
X84152799Y-86028611D01*
X84152799Y-86028611D02*
X68076389Y-86028611D01*
X68076389Y-86028611D02*
X66040000Y-88065000D01*
X66240000Y-88265000D02*
X66040000Y-88065000D01*
X66040000Y-90565000D02*
X67240001Y-89364999D01*
X67240001Y-89364999D02*
X67240001Y-87501409D01*
X67240001Y-87501409D02*
X68252466Y-86488944D01*
X68252466Y-86488944D02*
X84583944Y-86488944D01*
X84583944Y-86488944D02*
X86360000Y-88265000D01*
X86360000Y-90805000D02*
X87548601Y-89616399D01*
X87548601Y-89616399D02*
X87548601Y-53973601D01*
X87548601Y-53973601D02*
X78660000Y-45085000D01*
X101600000Y-90805000D02*
X100330000Y-89535000D01*
X100330000Y-89535000D02*
X100330000Y-53420000D01*
X100330000Y-53420000D02*
X91995000Y-45085000D01*
X91980000Y-75565000D02*
X90730000Y-75565000D01*
X90730000Y-75565000D02*
X87998611Y-78296389D01*
X87998611Y-78296389D02*
X87998611Y-90925519D01*
X86734129Y-92190001D02*
X66914999Y-92190001D01*
X87998611Y-90925519D02*
X86734129Y-92190001D01*
X66914999Y-92190001D02*
X66040000Y-93065000D01*
X66040000Y-93065000D02*
X66040000Y-93345000D01*
D24*
G36*
X96994981Y-41318874D02*
X96273823Y-43055617D01*
X96272182Y-44936133D01*
X96990308Y-46674132D01*
X98318874Y-48005019D01*
X100055617Y-48726177D01*
X101936133Y-48727818D01*
X103674132Y-48009692D01*
X103873000Y-47811171D01*
X103873000Y-96187190D01*
X103681126Y-95994981D01*
X101944383Y-95273823D01*
X100063867Y-95272182D01*
X98325868Y-95990308D01*
X96994981Y-97318874D01*
X96273823Y-99055617D01*
X96272182Y-100936133D01*
X96990308Y-102674132D01*
X97188829Y-102873000D01*
X62812810Y-102873000D01*
X63005019Y-102681126D01*
X63726177Y-100944383D01*
X63727818Y-99063867D01*
X63009692Y-97325868D01*
X61681126Y-95994981D01*
X59944383Y-95273823D01*
X58063867Y-95272182D01*
X56325868Y-95990308D01*
X56127000Y-96188829D01*
X56127000Y-74690000D01*
X64517560Y-74690000D01*
X64517560Y-76440000D01*
X64561838Y-76675317D01*
X64700910Y-76891441D01*
X64902226Y-77028994D01*
X64863306Y-77067914D01*
X64977938Y-77182546D01*
X64724047Y-77265884D01*
X64518410Y-77830306D01*
X64544421Y-78430458D01*
X64724047Y-78864116D01*
X64977940Y-78947455D01*
X65860395Y-78065000D01*
X65846253Y-78050858D01*
X66025858Y-77871253D01*
X66040000Y-77885395D01*
X66054143Y-77871253D01*
X66233748Y-78050858D01*
X66219605Y-78065000D01*
X67102060Y-78947455D01*
X67355953Y-78864116D01*
X67561590Y-78299694D01*
X67535579Y-77699542D01*
X67355953Y-77265884D01*
X67102062Y-77182546D01*
X67216694Y-77067914D01*
X67175644Y-77026864D01*
X67366441Y-76904090D01*
X67511431Y-76691890D01*
X67562440Y-76440000D01*
X67562440Y-74690000D01*
X67518162Y-74454683D01*
X67379090Y-74238559D01*
X67166890Y-74093569D01*
X66915000Y-74042560D01*
X65165000Y-74042560D01*
X64929683Y-74086838D01*
X64713559Y-74225910D01*
X64568569Y-74438110D01*
X64517560Y-74690000D01*
X56127000Y-74690000D01*
X56127000Y-56734040D01*
X64529738Y-56734040D01*
X64759138Y-57289229D01*
X65154536Y-57685318D01*
X64760630Y-58078537D01*
X64530262Y-58633325D01*
X64529738Y-59234040D01*
X64759138Y-59789229D01*
X65154536Y-60185318D01*
X64760630Y-60578537D01*
X64530262Y-61133325D01*
X64529738Y-61734040D01*
X64759138Y-62289229D01*
X65154536Y-62685318D01*
X64760630Y-63078537D01*
X64530262Y-63633325D01*
X64529738Y-64234040D01*
X64759138Y-64789229D01*
X65154536Y-65185318D01*
X64760630Y-65578537D01*
X64530262Y-66133325D01*
X64529738Y-66734040D01*
X64759138Y-67289229D01*
X65154536Y-67685318D01*
X64760630Y-68078537D01*
X64530262Y-68633325D01*
X64529738Y-69234040D01*
X64759138Y-69789229D01*
X65183537Y-70214370D01*
X65738325Y-70444738D01*
X66339040Y-70445262D01*
X66894229Y-70215862D01*
X67319370Y-69791463D01*
X67549738Y-69236675D01*
X67550262Y-68635960D01*
X67320862Y-68080771D01*
X66925464Y-67684682D01*
X67319370Y-67291463D01*
X67359425Y-67195000D01*
X67588788Y-67195000D01*
X70226218Y-69832430D01*
X70472780Y-69997177D01*
X70763619Y-70055029D01*
X83518809Y-70055029D01*
X83888040Y-70424260D01*
X83888040Y-73853040D01*
X83945892Y-74143879D01*
X84110639Y-74390441D01*
X84898084Y-75177886D01*
X84861661Y-75265602D01*
X84861141Y-75861782D01*
X85088808Y-76412780D01*
X85510003Y-76834710D01*
X85510931Y-76835095D01*
X85090290Y-77255003D01*
X84861661Y-77805602D01*
X84861141Y-78401782D01*
X84898354Y-78491844D01*
X84183988Y-79206210D01*
X84019241Y-79452772D01*
X83961389Y-79743611D01*
X83961389Y-83201839D01*
X83258250Y-83904978D01*
X81407000Y-83904978D01*
X81407000Y-83185000D01*
X81398315Y-83138841D01*
X81371035Y-83096447D01*
X81329410Y-83068006D01*
X81280000Y-83058000D01*
X80660000Y-83058000D01*
X80660000Y-82835750D01*
X80501250Y-82677000D01*
X79502000Y-82677000D01*
X79502000Y-82697000D01*
X79248000Y-82697000D01*
X79248000Y-82677000D01*
X78248750Y-82677000D01*
X78090000Y-82835750D01*
X78090000Y-83058000D01*
X77470000Y-83058000D01*
X77423841Y-83066685D01*
X77381447Y-83093965D01*
X77353006Y-83135590D01*
X77343000Y-83185000D01*
X77343000Y-83904978D01*
X68591190Y-83904978D01*
X68000001Y-83313789D01*
X68000001Y-82804481D01*
X73089777Y-82804481D01*
X73284995Y-83276943D01*
X73646155Y-83638735D01*
X74118276Y-83834777D01*
X74629481Y-83835223D01*
X75101943Y-83640005D01*
X75463735Y-83278845D01*
X75659777Y-82806724D01*
X75660223Y-82295519D01*
X75465005Y-81823057D01*
X75415725Y-81773690D01*
X78090000Y-81773690D01*
X78090000Y-82264250D01*
X78248750Y-82423000D01*
X79248000Y-82423000D01*
X79248000Y-81423750D01*
X79502000Y-81423750D01*
X79502000Y-82423000D01*
X80501250Y-82423000D01*
X80660000Y-82264250D01*
X80660000Y-81773690D01*
X80563327Y-81540301D01*
X80384698Y-81361673D01*
X80151309Y-81265000D01*
X79660750Y-81265000D01*
X79502000Y-81423750D01*
X79248000Y-81423750D01*
X79089250Y-81265000D01*
X78598691Y-81265000D01*
X78365302Y-81361673D01*
X78186673Y-81540301D01*
X78090000Y-81773690D01*
X75415725Y-81773690D01*
X75103845Y-81461265D01*
X74631724Y-81265223D01*
X74120519Y-81264777D01*
X73648057Y-81459995D01*
X73286265Y-81821155D01*
X73090223Y-82293276D01*
X73089777Y-82804481D01*
X68000001Y-82804481D01*
X68000001Y-81765001D01*
X67942149Y-81474162D01*
X67777402Y-81227600D01*
X67510639Y-80960837D01*
X67549738Y-80866675D01*
X67550262Y-80265960D01*
X67320862Y-79710771D01*
X67232191Y-79621945D01*
X67132401Y-79472599D01*
X66984361Y-79373682D01*
X66896463Y-79285630D01*
X66873531Y-79276108D01*
X66922455Y-79127060D01*
X66040000Y-78244605D01*
X65157545Y-79127060D01*
X65206318Y-79275648D01*
X65185771Y-79284138D01*
X64760630Y-79708537D01*
X64530262Y-80263325D01*
X64529738Y-80864040D01*
X64759138Y-81419229D01*
X65154536Y-81815318D01*
X64760630Y-82208537D01*
X64530262Y-82763325D01*
X64529738Y-83364040D01*
X64759138Y-83919229D01*
X65154536Y-84315318D01*
X64760630Y-84708537D01*
X64530262Y-85263325D01*
X64529738Y-85864040D01*
X64759138Y-86419229D01*
X65154536Y-86815318D01*
X64760630Y-87208537D01*
X64530262Y-87763325D01*
X64529738Y-88364040D01*
X64759138Y-88919229D01*
X65154536Y-89315318D01*
X64760630Y-89708537D01*
X64530262Y-90263325D01*
X64529738Y-90864040D01*
X64759138Y-91419229D01*
X65154536Y-91815318D01*
X64760630Y-92208537D01*
X64530262Y-92763325D01*
X64529738Y-93364040D01*
X64759138Y-93919229D01*
X65183537Y-94344370D01*
X65738325Y-94574738D01*
X66339040Y-94575262D01*
X66894229Y-94345862D01*
X67319370Y-93921463D01*
X67549738Y-93366675D01*
X67550101Y-92950001D01*
X72659989Y-92950001D01*
X72390332Y-93599410D01*
X72389670Y-94357265D01*
X72679078Y-95057686D01*
X73214495Y-95594039D01*
X73914410Y-95884668D01*
X74672265Y-95885330D01*
X75372686Y-95595922D01*
X75909039Y-95060505D01*
X76199668Y-94360590D01*
X76200330Y-93602735D01*
X75930626Y-92950001D01*
X77343000Y-92950001D01*
X77343000Y-95885000D01*
X77351685Y-95931159D01*
X77378965Y-95973553D01*
X77420590Y-96001994D01*
X77470000Y-96012000D01*
X81280000Y-96012000D01*
X81326159Y-96003315D01*
X81368553Y-95976035D01*
X81396994Y-95934410D01*
X81407000Y-95885000D01*
X81407000Y-92950001D01*
X86734129Y-92950001D01*
X87024968Y-92892149D01*
X87271530Y-92727402D01*
X88536012Y-91462920D01*
X88700759Y-91216358D01*
X88758611Y-90925519D01*
X88758611Y-78611191D01*
X91044802Y-76325000D01*
X91417537Y-76325000D01*
X91449673Y-76357192D01*
X91793201Y-76499838D01*
X92165167Y-76500162D01*
X92508943Y-76358117D01*
X92772192Y-76095327D01*
X92914838Y-75751799D01*
X92915162Y-75379833D01*
X92773117Y-75036057D01*
X92510327Y-74772808D01*
X92166799Y-74630162D01*
X91794833Y-74629838D01*
X91451057Y-74771883D01*
X91417882Y-74805000D01*
X90730000Y-74805000D01*
X90439160Y-74862852D01*
X90192599Y-75027599D01*
X88308601Y-76911597D01*
X88308601Y-53973601D01*
X88250749Y-53682762D01*
X88086002Y-53436200D01*
X80130639Y-45480837D01*
X80169738Y-45386675D01*
X80170262Y-44785960D01*
X79940862Y-44230771D01*
X79920128Y-44210000D01*
X85472560Y-44210000D01*
X85472560Y-45960000D01*
X85516838Y-46195317D01*
X85655910Y-46411441D01*
X85868110Y-46556431D01*
X86120000Y-46607440D01*
X87870000Y-46607440D01*
X88105317Y-46563162D01*
X88321441Y-46424090D01*
X88458994Y-46222774D01*
X88497914Y-46261694D01*
X88612546Y-46147062D01*
X88695884Y-46400953D01*
X89260306Y-46606590D01*
X89860458Y-46580579D01*
X90294116Y-46400953D01*
X90377455Y-46147060D01*
X89495000Y-45264605D01*
X89480858Y-45278748D01*
X89301253Y-45099143D01*
X89315395Y-45085000D01*
X89674605Y-45085000D01*
X90557060Y-45967455D01*
X90705648Y-45918682D01*
X90714138Y-45939229D01*
X91138537Y-46364370D01*
X91693325Y-46594738D01*
X92294040Y-46595262D01*
X92390573Y-46555375D01*
X99570000Y-53734802D01*
X99570000Y-89535000D01*
X99627852Y-89825839D01*
X99792599Y-90072401D01*
X100138084Y-90417886D01*
X100101661Y-90505602D01*
X100101141Y-91101782D01*
X100328808Y-91652780D01*
X100750003Y-92074710D01*
X101300602Y-92303339D01*
X101896782Y-92303859D01*
X102447780Y-92076192D01*
X102869710Y-91654997D01*
X103098339Y-91104398D01*
X103098859Y-90508218D01*
X102871192Y-89957220D01*
X102449997Y-89535290D01*
X102449069Y-89534905D01*
X102869710Y-89114997D01*
X103098339Y-88564398D01*
X103098859Y-87968218D01*
X102871192Y-87417220D01*
X102449997Y-86995290D01*
X102449069Y-86994905D01*
X102869710Y-86574997D01*
X103098339Y-86024398D01*
X103098859Y-85428218D01*
X102871192Y-84877220D01*
X102449997Y-84455290D01*
X102449069Y-84454905D01*
X102869710Y-84034997D01*
X103098339Y-83484398D01*
X103098859Y-82888218D01*
X102871192Y-82337220D01*
X102449997Y-81915290D01*
X102449069Y-81914905D01*
X102869710Y-81494997D01*
X103098339Y-80944398D01*
X103098859Y-80348218D01*
X102871192Y-79797220D01*
X102449997Y-79375290D01*
X102449069Y-79374905D01*
X102869710Y-78954997D01*
X103098339Y-78404398D01*
X103098859Y-77808218D01*
X102871192Y-77257220D01*
X102449997Y-76835290D01*
X102449069Y-76834905D01*
X102869710Y-76414997D01*
X103098339Y-75864398D01*
X103098859Y-75268218D01*
X102871192Y-74717220D01*
X102449997Y-74295290D01*
X102449069Y-74294905D01*
X102869710Y-73874997D01*
X103098339Y-73324398D01*
X103098859Y-72728218D01*
X102871192Y-72177220D01*
X102449997Y-71755290D01*
X102449069Y-71754905D01*
X102869710Y-71334997D01*
X103098339Y-70784398D01*
X103098859Y-70188218D01*
X102871192Y-69637220D01*
X102449997Y-69215290D01*
X102449069Y-69214905D01*
X102869710Y-68794997D01*
X103098339Y-68244398D01*
X103098859Y-67648218D01*
X102871192Y-67097220D01*
X102449997Y-66675290D01*
X102449069Y-66674905D01*
X102869710Y-66254997D01*
X103098339Y-65704398D01*
X103098859Y-65108218D01*
X102871192Y-64557220D01*
X102449997Y-64135290D01*
X102409463Y-64118459D01*
X102474200Y-63918805D01*
X101600000Y-63044605D01*
X101585858Y-63058748D01*
X101406253Y-62879143D01*
X101420395Y-62865000D01*
X101779605Y-62865000D01*
X102653805Y-63739200D01*
X102906516Y-63657259D01*
X103110248Y-63096970D01*
X103084058Y-62501365D01*
X102906516Y-62072741D01*
X102653805Y-61990800D01*
X101779605Y-62865000D01*
X101420395Y-62865000D01*
X101406253Y-62850858D01*
X101585858Y-62671253D01*
X101600000Y-62685395D01*
X102474200Y-61811195D01*
X102409601Y-61611967D01*
X102447780Y-61596192D01*
X102869710Y-61174997D01*
X103098339Y-60624398D01*
X103098859Y-60028218D01*
X102871192Y-59477220D01*
X102449997Y-59055290D01*
X102449069Y-59054905D01*
X102869710Y-58634997D01*
X103098339Y-58084398D01*
X103098859Y-57488218D01*
X102871192Y-56937220D01*
X102449997Y-56515290D01*
X102449069Y-56514905D01*
X102869710Y-56094997D01*
X103098339Y-55544398D01*
X103098859Y-54948218D01*
X102871192Y-54397220D01*
X102449997Y-53975290D01*
X101899398Y-53746661D01*
X101303218Y-53746141D01*
X101090000Y-53834241D01*
X101090000Y-53420000D01*
X101032148Y-53129161D01*
X100867401Y-52882599D01*
X93465639Y-45480837D01*
X93504738Y-45386675D01*
X93505262Y-44785960D01*
X93275862Y-44230771D01*
X92851463Y-43805630D01*
X92296675Y-43575262D01*
X91695960Y-43574738D01*
X91140771Y-43804138D01*
X90715630Y-44228537D01*
X90706108Y-44251469D01*
X90557060Y-44202545D01*
X89674605Y-45085000D01*
X89315395Y-45085000D01*
X89301253Y-45070858D01*
X89480858Y-44891253D01*
X89495000Y-44905395D01*
X90377455Y-44022940D01*
X90294116Y-43769047D01*
X89729694Y-43563410D01*
X89129542Y-43589421D01*
X88695884Y-43769047D01*
X88612546Y-44022938D01*
X88497914Y-43908306D01*
X88456864Y-43949356D01*
X88334090Y-43758559D01*
X88121890Y-43613569D01*
X87870000Y-43562560D01*
X86120000Y-43562560D01*
X85884683Y-43606838D01*
X85668559Y-43745910D01*
X85523569Y-43958110D01*
X85472560Y-44210000D01*
X79920128Y-44210000D01*
X79516463Y-43805630D01*
X78961675Y-43575262D01*
X78360960Y-43574738D01*
X77805771Y-43804138D01*
X77380630Y-44228537D01*
X77371108Y-44251469D01*
X77222060Y-44202545D01*
X76339605Y-45085000D01*
X77222060Y-45967455D01*
X77370648Y-45918682D01*
X77379138Y-45939229D01*
X77803537Y-46364370D01*
X78358325Y-46594738D01*
X78959040Y-46595262D01*
X79055573Y-46555375D01*
X86234158Y-53733960D01*
X85496400Y-53733960D01*
X85261083Y-53778238D01*
X85044959Y-53917310D01*
X84899969Y-54129510D01*
X84848960Y-54381400D01*
X84848960Y-56108600D01*
X84893238Y-56343917D01*
X85032310Y-56560041D01*
X85244510Y-56705031D01*
X85307820Y-56717852D01*
X85090290Y-56935003D01*
X84861661Y-57485602D01*
X84861141Y-58081782D01*
X85088808Y-58632780D01*
X85510003Y-59054710D01*
X85510931Y-59055095D01*
X85090290Y-59475003D01*
X84861661Y-60025602D01*
X84861141Y-60621782D01*
X85088808Y-61172780D01*
X85510003Y-61594710D01*
X85510931Y-61595095D01*
X85090290Y-62015003D01*
X84861661Y-62565602D01*
X84861141Y-63161782D01*
X85088808Y-63712780D01*
X85510003Y-64134710D01*
X85510931Y-64135095D01*
X85090290Y-64555003D01*
X84861661Y-65105602D01*
X84861141Y-65701782D01*
X84898354Y-65791844D01*
X83980956Y-66709242D01*
X71851212Y-66709242D01*
X69350031Y-64208061D01*
X69350031Y-63920000D01*
X72412560Y-63920000D01*
X72412560Y-65620000D01*
X72456838Y-65855317D01*
X72595910Y-66071441D01*
X72808110Y-66216431D01*
X73060000Y-66267440D01*
X74260000Y-66267440D01*
X74495317Y-66223162D01*
X74711441Y-66084090D01*
X74815571Y-65931691D01*
X74830875Y-65951933D01*
X75250624Y-66198286D01*
X75342391Y-66213462D01*
X75533000Y-66088731D01*
X75533000Y-64897000D01*
X75513000Y-64897000D01*
X75513000Y-64643000D01*
X75533000Y-64643000D01*
X75533000Y-63451269D01*
X75787000Y-63451269D01*
X75787000Y-64643000D01*
X75807000Y-64643000D01*
X75807000Y-64897000D01*
X75787000Y-64897000D01*
X75787000Y-66088731D01*
X75977609Y-66213462D01*
X76069376Y-66198286D01*
X76489125Y-65951933D01*
X76657590Y-65729109D01*
X76786723Y-65922370D01*
X77187386Y-66190084D01*
X77660000Y-66284093D01*
X78132614Y-66190084D01*
X78533277Y-65922370D01*
X78660000Y-65732715D01*
X78786723Y-65922370D01*
X79187386Y-66190084D01*
X79660000Y-66284093D01*
X80132614Y-66190084D01*
X80533277Y-65922370D01*
X80800991Y-65521707D01*
X80895000Y-65049093D01*
X80895000Y-64490907D01*
X80800991Y-64018293D01*
X80533277Y-63617630D01*
X80132614Y-63349916D01*
X79660000Y-63255907D01*
X79187386Y-63349916D01*
X78786723Y-63617630D01*
X78660000Y-63807285D01*
X78533277Y-63617630D01*
X78132614Y-63349916D01*
X77660000Y-63255907D01*
X77187386Y-63349916D01*
X76786723Y-63617630D01*
X76657590Y-63810891D01*
X76489125Y-63588067D01*
X76069376Y-63341714D01*
X75977609Y-63326538D01*
X75787000Y-63451269D01*
X75533000Y-63451269D01*
X75342391Y-63326538D01*
X75250624Y-63341714D01*
X74830875Y-63588067D01*
X74814731Y-63609420D01*
X74724090Y-63468559D01*
X74511890Y-63323569D01*
X74260000Y-63272560D01*
X73060000Y-63272560D01*
X72824683Y-63316838D01*
X72608559Y-63455910D01*
X72463569Y-63668110D01*
X72412560Y-63920000D01*
X69350031Y-63920000D01*
X69350031Y-58985031D01*
X69292179Y-58694192D01*
X69127432Y-58447630D01*
X67510639Y-56830837D01*
X67549738Y-56736675D01*
X67550262Y-56135960D01*
X67320862Y-55580771D01*
X66896463Y-55155630D01*
X66873531Y-55146108D01*
X66911642Y-55030000D01*
X72412560Y-55030000D01*
X72412560Y-56730000D01*
X72456838Y-56965317D01*
X72595910Y-57181441D01*
X72808110Y-57326431D01*
X73060000Y-57377440D01*
X74260000Y-57377440D01*
X74495317Y-57333162D01*
X74711441Y-57194090D01*
X74815571Y-57041691D01*
X74830875Y-57061933D01*
X75250624Y-57308286D01*
X75342391Y-57323462D01*
X75533000Y-57198731D01*
X75533000Y-56007000D01*
X75513000Y-56007000D01*
X75513000Y-55753000D01*
X75533000Y-55753000D01*
X75533000Y-54561269D01*
X75787000Y-54561269D01*
X75787000Y-55753000D01*
X75807000Y-55753000D01*
X75807000Y-56007000D01*
X75787000Y-56007000D01*
X75787000Y-57198731D01*
X75977609Y-57323462D01*
X76069376Y-57308286D01*
X76489125Y-57061933D01*
X76657590Y-56839109D01*
X76786723Y-57032370D01*
X77187386Y-57300084D01*
X77660000Y-57394093D01*
X78132614Y-57300084D01*
X78533277Y-57032370D01*
X78660000Y-56842715D01*
X78786723Y-57032370D01*
X79187386Y-57300084D01*
X79660000Y-57394093D01*
X80132614Y-57300084D01*
X80533277Y-57032370D01*
X80800991Y-56631707D01*
X80895000Y-56159093D01*
X80895000Y-55600907D01*
X80800991Y-55128293D01*
X80533277Y-54727630D01*
X80132614Y-54459916D01*
X79660000Y-54365907D01*
X79187386Y-54459916D01*
X78786723Y-54727630D01*
X78660000Y-54917285D01*
X78533277Y-54727630D01*
X78132614Y-54459916D01*
X77660000Y-54365907D01*
X77187386Y-54459916D01*
X76786723Y-54727630D01*
X76657590Y-54920891D01*
X76489125Y-54698067D01*
X76069376Y-54451714D01*
X75977609Y-54436538D01*
X75787000Y-54561269D01*
X75533000Y-54561269D01*
X75342391Y-54436538D01*
X75250624Y-54451714D01*
X74830875Y-54698067D01*
X74814731Y-54719420D01*
X74724090Y-54578559D01*
X74511890Y-54433569D01*
X74260000Y-54382560D01*
X73060000Y-54382560D01*
X72824683Y-54426838D01*
X72608559Y-54565910D01*
X72463569Y-54778110D01*
X72412560Y-55030000D01*
X66911642Y-55030000D01*
X66922455Y-54997060D01*
X66040000Y-54114605D01*
X65157545Y-54997060D01*
X65206318Y-55145648D01*
X65185771Y-55154138D01*
X64760630Y-55578537D01*
X64530262Y-56133325D01*
X64529738Y-56734040D01*
X56127000Y-56734040D01*
X56127000Y-50560000D01*
X64517560Y-50560000D01*
X64517560Y-52310000D01*
X64561838Y-52545317D01*
X64700910Y-52761441D01*
X64902226Y-52898994D01*
X64863306Y-52937914D01*
X64977938Y-53052546D01*
X64724047Y-53135884D01*
X64518410Y-53700306D01*
X64544421Y-54300458D01*
X64724047Y-54734116D01*
X64977940Y-54817455D01*
X65860395Y-53935000D01*
X65846253Y-53920858D01*
X66025858Y-53741253D01*
X66040000Y-53755395D01*
X66054143Y-53741253D01*
X66233748Y-53920858D01*
X66219605Y-53935000D01*
X67102060Y-54817455D01*
X67355953Y-54734116D01*
X67561590Y-54169694D01*
X67535579Y-53569542D01*
X67355953Y-53135884D01*
X67102062Y-53052546D01*
X67216694Y-52937914D01*
X67175644Y-52896864D01*
X67366441Y-52774090D01*
X67511431Y-52561890D01*
X67562440Y-52310000D01*
X67562440Y-50560000D01*
X67518162Y-50324683D01*
X67379090Y-50108559D01*
X67166890Y-49963569D01*
X66915000Y-49912560D01*
X65165000Y-49912560D01*
X64929683Y-49956838D01*
X64713559Y-50095910D01*
X64568569Y-50308110D01*
X64517560Y-50560000D01*
X56127000Y-50560000D01*
X56127000Y-47812810D01*
X56318874Y-48005019D01*
X58055617Y-48726177D01*
X59936133Y-48727818D01*
X61674132Y-48009692D01*
X63005019Y-46681126D01*
X63726177Y-44944383D01*
X63726817Y-44210000D01*
X72137560Y-44210000D01*
X72137560Y-45960000D01*
X72181838Y-46195317D01*
X72320910Y-46411441D01*
X72533110Y-46556431D01*
X72785000Y-46607440D01*
X74535000Y-46607440D01*
X74770317Y-46563162D01*
X74986441Y-46424090D01*
X75123994Y-46222774D01*
X75162914Y-46261694D01*
X75277546Y-46147062D01*
X75360884Y-46400953D01*
X75925306Y-46606590D01*
X76525458Y-46580579D01*
X76959116Y-46400953D01*
X77042455Y-46147060D01*
X76160000Y-45264605D01*
X76145858Y-45278748D01*
X75966253Y-45099143D01*
X75980395Y-45085000D01*
X75966253Y-45070858D01*
X76145858Y-44891253D01*
X76160000Y-44905395D01*
X77042455Y-44022940D01*
X76959116Y-43769047D01*
X76394694Y-43563410D01*
X75794542Y-43589421D01*
X75360884Y-43769047D01*
X75277546Y-44022938D01*
X75162914Y-43908306D01*
X75121864Y-43949356D01*
X74999090Y-43758559D01*
X74786890Y-43613569D01*
X74535000Y-43562560D01*
X72785000Y-43562560D01*
X72549683Y-43606838D01*
X72333559Y-43745910D01*
X72188569Y-43958110D01*
X72137560Y-44210000D01*
X63726817Y-44210000D01*
X63727818Y-43063867D01*
X63009692Y-41325868D01*
X62811171Y-41127000D01*
X97187190Y-41127000D01*
X96994981Y-41318874D01*
X96994981Y-41318874D01*
G37*
X96994981Y-41318874D02*
X96273823Y-43055617D01*
X96272182Y-44936133D01*
X96990308Y-46674132D01*
X98318874Y-48005019D01*
X100055617Y-48726177D01*
X101936133Y-48727818D01*
X103674132Y-48009692D01*
X103873000Y-47811171D01*
X103873000Y-96187190D01*
X103681126Y-95994981D01*
X101944383Y-95273823D01*
X100063867Y-95272182D01*
X98325868Y-95990308D01*
X96994981Y-97318874D01*
X96273823Y-99055617D01*
X96272182Y-100936133D01*
X96990308Y-102674132D01*
X97188829Y-102873000D01*
X62812810Y-102873000D01*
X63005019Y-102681126D01*
X63726177Y-100944383D01*
X63727818Y-99063867D01*
X63009692Y-97325868D01*
X61681126Y-95994981D01*
X59944383Y-95273823D01*
X58063867Y-95272182D01*
X56325868Y-95990308D01*
X56127000Y-96188829D01*
X56127000Y-74690000D01*
X64517560Y-74690000D01*
X64517560Y-76440000D01*
X64561838Y-76675317D01*
X64700910Y-76891441D01*
X64902226Y-77028994D01*
X64863306Y-77067914D01*
X64977938Y-77182546D01*
X64724047Y-77265884D01*
X64518410Y-77830306D01*
X64544421Y-78430458D01*
X64724047Y-78864116D01*
X64977940Y-78947455D01*
X65860395Y-78065000D01*
X65846253Y-78050858D01*
X66025858Y-77871253D01*
X66040000Y-77885395D01*
X66054143Y-77871253D01*
X66233748Y-78050858D01*
X66219605Y-78065000D01*
X67102060Y-78947455D01*
X67355953Y-78864116D01*
X67561590Y-78299694D01*
X67535579Y-77699542D01*
X67355953Y-77265884D01*
X67102062Y-77182546D01*
X67216694Y-77067914D01*
X67175644Y-77026864D01*
X67366441Y-76904090D01*
X67511431Y-76691890D01*
X67562440Y-76440000D01*
X67562440Y-74690000D01*
X67518162Y-74454683D01*
X67379090Y-74238559D01*
X67166890Y-74093569D01*
X66915000Y-74042560D01*
X65165000Y-74042560D01*
X64929683Y-74086838D01*
X64713559Y-74225910D01*
X64568569Y-74438110D01*
X64517560Y-74690000D01*
X56127000Y-74690000D01*
X56127000Y-56734040D01*
X64529738Y-56734040D01*
X64759138Y-57289229D01*
X65154536Y-57685318D01*
X64760630Y-58078537D01*
X64530262Y-58633325D01*
X64529738Y-59234040D01*
X64759138Y-59789229D01*
X65154536Y-60185318D01*
X64760630Y-60578537D01*
X64530262Y-61133325D01*
X64529738Y-61734040D01*
X64759138Y-62289229D01*
X65154536Y-62685318D01*
X64760630Y-63078537D01*
X64530262Y-63633325D01*
X64529738Y-64234040D01*
X64759138Y-64789229D01*
X65154536Y-65185318D01*
X64760630Y-65578537D01*
X64530262Y-66133325D01*
X64529738Y-66734040D01*
X64759138Y-67289229D01*
X65154536Y-67685318D01*
X64760630Y-68078537D01*
X64530262Y-68633325D01*
X64529738Y-69234040D01*
X64759138Y-69789229D01*
X65183537Y-70214370D01*
X65738325Y-70444738D01*
X66339040Y-70445262D01*
X66894229Y-70215862D01*
X67319370Y-69791463D01*
X67549738Y-69236675D01*
X67550262Y-68635960D01*
X67320862Y-68080771D01*
X66925464Y-67684682D01*
X67319370Y-67291463D01*
X67359425Y-67195000D01*
X67588788Y-67195000D01*
X70226218Y-69832430D01*
X70472780Y-69997177D01*
X70763619Y-70055029D01*
X83518809Y-70055029D01*
X83888040Y-70424260D01*
X83888040Y-73853040D01*
X83945892Y-74143879D01*
X84110639Y-74390441D01*
X84898084Y-75177886D01*
X84861661Y-75265602D01*
X84861141Y-75861782D01*
X85088808Y-76412780D01*
X85510003Y-76834710D01*
X85510931Y-76835095D01*
X85090290Y-77255003D01*
X84861661Y-77805602D01*
X84861141Y-78401782D01*
X84898354Y-78491844D01*
X84183988Y-79206210D01*
X84019241Y-79452772D01*
X83961389Y-79743611D01*
X83961389Y-83201839D01*
X83258250Y-83904978D01*
X81407000Y-83904978D01*
X81407000Y-83185000D01*
X81398315Y-83138841D01*
X81371035Y-83096447D01*
X81329410Y-83068006D01*
X81280000Y-83058000D01*
X80660000Y-83058000D01*
X80660000Y-82835750D01*
X80501250Y-82677000D01*
X79502000Y-82677000D01*
X79502000Y-82697000D01*
X79248000Y-82697000D01*
X79248000Y-82677000D01*
X78248750Y-82677000D01*
X78090000Y-82835750D01*
X78090000Y-83058000D01*
X77470000Y-83058000D01*
X77423841Y-83066685D01*
X77381447Y-83093965D01*
X77353006Y-83135590D01*
X77343000Y-83185000D01*
X77343000Y-83904978D01*
X68591190Y-83904978D01*
X68000001Y-83313789D01*
X68000001Y-82804481D01*
X73089777Y-82804481D01*
X73284995Y-83276943D01*
X73646155Y-83638735D01*
X74118276Y-83834777D01*
X74629481Y-83835223D01*
X75101943Y-83640005D01*
X75463735Y-83278845D01*
X75659777Y-82806724D01*
X75660223Y-82295519D01*
X75465005Y-81823057D01*
X75415725Y-81773690D01*
X78090000Y-81773690D01*
X78090000Y-82264250D01*
X78248750Y-82423000D01*
X79248000Y-82423000D01*
X79248000Y-81423750D01*
X79502000Y-81423750D01*
X79502000Y-82423000D01*
X80501250Y-82423000D01*
X80660000Y-82264250D01*
X80660000Y-81773690D01*
X80563327Y-81540301D01*
X80384698Y-81361673D01*
X80151309Y-81265000D01*
X79660750Y-81265000D01*
X79502000Y-81423750D01*
X79248000Y-81423750D01*
X79089250Y-81265000D01*
X78598691Y-81265000D01*
X78365302Y-81361673D01*
X78186673Y-81540301D01*
X78090000Y-81773690D01*
X75415725Y-81773690D01*
X75103845Y-81461265D01*
X74631724Y-81265223D01*
X74120519Y-81264777D01*
X73648057Y-81459995D01*
X73286265Y-81821155D01*
X73090223Y-82293276D01*
X73089777Y-82804481D01*
X68000001Y-82804481D01*
X68000001Y-81765001D01*
X67942149Y-81474162D01*
X67777402Y-81227600D01*
X67510639Y-80960837D01*
X67549738Y-80866675D01*
X67550262Y-80265960D01*
X67320862Y-79710771D01*
X67232191Y-79621945D01*
X67132401Y-79472599D01*
X66984361Y-79373682D01*
X66896463Y-79285630D01*
X66873531Y-79276108D01*
X66922455Y-79127060D01*
X66040000Y-78244605D01*
X65157545Y-79127060D01*
X65206318Y-79275648D01*
X65185771Y-79284138D01*
X64760630Y-79708537D01*
X64530262Y-80263325D01*
X64529738Y-80864040D01*
X64759138Y-81419229D01*
X65154536Y-81815318D01*
X64760630Y-82208537D01*
X64530262Y-82763325D01*
X64529738Y-83364040D01*
X64759138Y-83919229D01*
X65154536Y-84315318D01*
X64760630Y-84708537D01*
X64530262Y-85263325D01*
X64529738Y-85864040D01*
X64759138Y-86419229D01*
X65154536Y-86815318D01*
X64760630Y-87208537D01*
X64530262Y-87763325D01*
X64529738Y-88364040D01*
X64759138Y-88919229D01*
X65154536Y-89315318D01*
X64760630Y-89708537D01*
X64530262Y-90263325D01*
X64529738Y-90864040D01*
X64759138Y-91419229D01*
X65154536Y-91815318D01*
X64760630Y-92208537D01*
X64530262Y-92763325D01*
X64529738Y-93364040D01*
X64759138Y-93919229D01*
X65183537Y-94344370D01*
X65738325Y-94574738D01*
X66339040Y-94575262D01*
X66894229Y-94345862D01*
X67319370Y-93921463D01*
X67549738Y-93366675D01*
X67550101Y-92950001D01*
X72659989Y-92950001D01*
X72390332Y-93599410D01*
X72389670Y-94357265D01*
X72679078Y-95057686D01*
X73214495Y-95594039D01*
X73914410Y-95884668D01*
X74672265Y-95885330D01*
X75372686Y-95595922D01*
X75909039Y-95060505D01*
X76199668Y-94360590D01*
X76200330Y-93602735D01*
X75930626Y-92950001D01*
X77343000Y-92950001D01*
X77343000Y-95885000D01*
X77351685Y-95931159D01*
X77378965Y-95973553D01*
X77420590Y-96001994D01*
X77470000Y-96012000D01*
X81280000Y-96012000D01*
X81326159Y-96003315D01*
X81368553Y-95976035D01*
X81396994Y-95934410D01*
X81407000Y-95885000D01*
X81407000Y-92950001D01*
X86734129Y-92950001D01*
X87024968Y-92892149D01*
X87271530Y-92727402D01*
X88536012Y-91462920D01*
X88700759Y-91216358D01*
X88758611Y-90925519D01*
X88758611Y-78611191D01*
X91044802Y-76325000D01*
X91417537Y-76325000D01*
X91449673Y-76357192D01*
X91793201Y-76499838D01*
X92165167Y-76500162D01*
X92508943Y-76358117D01*
X92772192Y-76095327D01*
X92914838Y-75751799D01*
X92915162Y-75379833D01*
X92773117Y-75036057D01*
X92510327Y-74772808D01*
X92166799Y-74630162D01*
X91794833Y-74629838D01*
X91451057Y-74771883D01*
X91417882Y-74805000D01*
X90730000Y-74805000D01*
X90439160Y-74862852D01*
X90192599Y-75027599D01*
X88308601Y-76911597D01*
X88308601Y-53973601D01*
X88250749Y-53682762D01*
X88086002Y-53436200D01*
X80130639Y-45480837D01*
X80169738Y-45386675D01*
X80170262Y-44785960D01*
X79940862Y-44230771D01*
X79920128Y-44210000D01*
X85472560Y-44210000D01*
X85472560Y-45960000D01*
X85516838Y-46195317D01*
X85655910Y-46411441D01*
X85868110Y-46556431D01*
X86120000Y-46607440D01*
X87870000Y-46607440D01*
X88105317Y-46563162D01*
X88321441Y-46424090D01*
X88458994Y-46222774D01*
X88497914Y-46261694D01*
X88612546Y-46147062D01*
X88695884Y-46400953D01*
X89260306Y-46606590D01*
X89860458Y-46580579D01*
X90294116Y-46400953D01*
X90377455Y-46147060D01*
X89495000Y-45264605D01*
X89480858Y-45278748D01*
X89301253Y-45099143D01*
X89315395Y-45085000D01*
X89674605Y-45085000D01*
X90557060Y-45967455D01*
X90705648Y-45918682D01*
X90714138Y-45939229D01*
X91138537Y-46364370D01*
X91693325Y-46594738D01*
X92294040Y-46595262D01*
X92390573Y-46555375D01*
X99570000Y-53734802D01*
X99570000Y-89535000D01*
X99627852Y-89825839D01*
X99792599Y-90072401D01*
X100138084Y-90417886D01*
X100101661Y-90505602D01*
X100101141Y-91101782D01*
X100328808Y-91652780D01*
X100750003Y-92074710D01*
X101300602Y-92303339D01*
X101896782Y-92303859D01*
X102447780Y-92076192D01*
X102869710Y-91654997D01*
X103098339Y-91104398D01*
X103098859Y-90508218D01*
X102871192Y-89957220D01*
X102449997Y-89535290D01*
X102449069Y-89534905D01*
X102869710Y-89114997D01*
X103098339Y-88564398D01*
X103098859Y-87968218D01*
X102871192Y-87417220D01*
X102449997Y-86995290D01*
X102449069Y-86994905D01*
X102869710Y-86574997D01*
X103098339Y-86024398D01*
X103098859Y-85428218D01*
X102871192Y-84877220D01*
X102449997Y-84455290D01*
X102449069Y-84454905D01*
X102869710Y-84034997D01*
X103098339Y-83484398D01*
X103098859Y-82888218D01*
X102871192Y-82337220D01*
X102449997Y-81915290D01*
X102449069Y-81914905D01*
X102869710Y-81494997D01*
X103098339Y-80944398D01*
X103098859Y-80348218D01*
X102871192Y-79797220D01*
X102449997Y-79375290D01*
X102449069Y-79374905D01*
X102869710Y-78954997D01*
X103098339Y-78404398D01*
X103098859Y-77808218D01*
X102871192Y-77257220D01*
X102449997Y-76835290D01*
X102449069Y-76834905D01*
X102869710Y-76414997D01*
X103098339Y-75864398D01*
X103098859Y-75268218D01*
X102871192Y-74717220D01*
X102449997Y-74295290D01*
X102449069Y-74294905D01*
X102869710Y-73874997D01*
X103098339Y-73324398D01*
X103098859Y-72728218D01*
X102871192Y-72177220D01*
X102449997Y-71755290D01*
X102449069Y-71754905D01*
X102869710Y-71334997D01*
X103098339Y-70784398D01*
X103098859Y-70188218D01*
X102871192Y-69637220D01*
X102449997Y-69215290D01*
X102449069Y-69214905D01*
X102869710Y-68794997D01*
X103098339Y-68244398D01*
X103098859Y-67648218D01*
X102871192Y-67097220D01*
X102449997Y-66675290D01*
X102449069Y-66674905D01*
X102869710Y-66254997D01*
X103098339Y-65704398D01*
X103098859Y-65108218D01*
X102871192Y-64557220D01*
X102449997Y-64135290D01*
X102409463Y-64118459D01*
X102474200Y-63918805D01*
X101600000Y-63044605D01*
X101585858Y-63058748D01*
X101406253Y-62879143D01*
X101420395Y-62865000D01*
X101779605Y-62865000D01*
X102653805Y-63739200D01*
X102906516Y-63657259D01*
X103110248Y-63096970D01*
X103084058Y-62501365D01*
X102906516Y-62072741D01*
X102653805Y-61990800D01*
X101779605Y-62865000D01*
X101420395Y-62865000D01*
X101406253Y-62850858D01*
X101585858Y-62671253D01*
X101600000Y-62685395D01*
X102474200Y-61811195D01*
X102409601Y-61611967D01*
X102447780Y-61596192D01*
X102869710Y-61174997D01*
X103098339Y-60624398D01*
X103098859Y-60028218D01*
X102871192Y-59477220D01*
X102449997Y-59055290D01*
X102449069Y-59054905D01*
X102869710Y-58634997D01*
X103098339Y-58084398D01*
X103098859Y-57488218D01*
X102871192Y-56937220D01*
X102449997Y-56515290D01*
X102449069Y-56514905D01*
X102869710Y-56094997D01*
X103098339Y-55544398D01*
X103098859Y-54948218D01*
X102871192Y-54397220D01*
X102449997Y-53975290D01*
X101899398Y-53746661D01*
X101303218Y-53746141D01*
X101090000Y-53834241D01*
X101090000Y-53420000D01*
X101032148Y-53129161D01*
X100867401Y-52882599D01*
X93465639Y-45480837D01*
X93504738Y-45386675D01*
X93505262Y-44785960D01*
X93275862Y-44230771D01*
X92851463Y-43805630D01*
X92296675Y-43575262D01*
X91695960Y-43574738D01*
X91140771Y-43804138D01*
X90715630Y-44228537D01*
X90706108Y-44251469D01*
X90557060Y-44202545D01*
X89674605Y-45085000D01*
X89315395Y-45085000D01*
X89301253Y-45070858D01*
X89480858Y-44891253D01*
X89495000Y-44905395D01*
X90377455Y-44022940D01*
X90294116Y-43769047D01*
X89729694Y-43563410D01*
X89129542Y-43589421D01*
X88695884Y-43769047D01*
X88612546Y-44022938D01*
X88497914Y-43908306D01*
X88456864Y-43949356D01*
X88334090Y-43758559D01*
X88121890Y-43613569D01*
X87870000Y-43562560D01*
X86120000Y-43562560D01*
X85884683Y-43606838D01*
X85668559Y-43745910D01*
X85523569Y-43958110D01*
X85472560Y-44210000D01*
X79920128Y-44210000D01*
X79516463Y-43805630D01*
X78961675Y-43575262D01*
X78360960Y-43574738D01*
X77805771Y-43804138D01*
X77380630Y-44228537D01*
X77371108Y-44251469D01*
X77222060Y-44202545D01*
X76339605Y-45085000D01*
X77222060Y-45967455D01*
X77370648Y-45918682D01*
X77379138Y-45939229D01*
X77803537Y-46364370D01*
X78358325Y-46594738D01*
X78959040Y-46595262D01*
X79055573Y-46555375D01*
X86234158Y-53733960D01*
X85496400Y-53733960D01*
X85261083Y-53778238D01*
X85044959Y-53917310D01*
X84899969Y-54129510D01*
X84848960Y-54381400D01*
X84848960Y-56108600D01*
X84893238Y-56343917D01*
X85032310Y-56560041D01*
X85244510Y-56705031D01*
X85307820Y-56717852D01*
X85090290Y-56935003D01*
X84861661Y-57485602D01*
X84861141Y-58081782D01*
X85088808Y-58632780D01*
X85510003Y-59054710D01*
X85510931Y-59055095D01*
X85090290Y-59475003D01*
X84861661Y-60025602D01*
X84861141Y-60621782D01*
X85088808Y-61172780D01*
X85510003Y-61594710D01*
X85510931Y-61595095D01*
X85090290Y-62015003D01*
X84861661Y-62565602D01*
X84861141Y-63161782D01*
X85088808Y-63712780D01*
X85510003Y-64134710D01*
X85510931Y-64135095D01*
X85090290Y-64555003D01*
X84861661Y-65105602D01*
X84861141Y-65701782D01*
X84898354Y-65791844D01*
X83980956Y-66709242D01*
X71851212Y-66709242D01*
X69350031Y-64208061D01*
X69350031Y-63920000D01*
X72412560Y-63920000D01*
X72412560Y-65620000D01*
X72456838Y-65855317D01*
X72595910Y-66071441D01*
X72808110Y-66216431D01*
X73060000Y-66267440D01*
X74260000Y-66267440D01*
X74495317Y-66223162D01*
X74711441Y-66084090D01*
X74815571Y-65931691D01*
X74830875Y-65951933D01*
X75250624Y-66198286D01*
X75342391Y-66213462D01*
X75533000Y-66088731D01*
X75533000Y-64897000D01*
X75513000Y-64897000D01*
X75513000Y-64643000D01*
X75533000Y-64643000D01*
X75533000Y-63451269D01*
X75787000Y-63451269D01*
X75787000Y-64643000D01*
X75807000Y-64643000D01*
X75807000Y-64897000D01*
X75787000Y-64897000D01*
X75787000Y-66088731D01*
X75977609Y-66213462D01*
X76069376Y-66198286D01*
X76489125Y-65951933D01*
X76657590Y-65729109D01*
X76786723Y-65922370D01*
X77187386Y-66190084D01*
X77660000Y-66284093D01*
X78132614Y-66190084D01*
X78533277Y-65922370D01*
X78660000Y-65732715D01*
X78786723Y-65922370D01*
X79187386Y-66190084D01*
X79660000Y-66284093D01*
X80132614Y-66190084D01*
X80533277Y-65922370D01*
X80800991Y-65521707D01*
X80895000Y-65049093D01*
X80895000Y-64490907D01*
X80800991Y-64018293D01*
X80533277Y-63617630D01*
X80132614Y-63349916D01*
X79660000Y-63255907D01*
X79187386Y-63349916D01*
X78786723Y-63617630D01*
X78660000Y-63807285D01*
X78533277Y-63617630D01*
X78132614Y-63349916D01*
X77660000Y-63255907D01*
X77187386Y-63349916D01*
X76786723Y-63617630D01*
X76657590Y-63810891D01*
X76489125Y-63588067D01*
X76069376Y-63341714D01*
X75977609Y-63326538D01*
X75787000Y-63451269D01*
X75533000Y-63451269D01*
X75342391Y-63326538D01*
X75250624Y-63341714D01*
X74830875Y-63588067D01*
X74814731Y-63609420D01*
X74724090Y-63468559D01*
X74511890Y-63323569D01*
X74260000Y-63272560D01*
X73060000Y-63272560D01*
X72824683Y-63316838D01*
X72608559Y-63455910D01*
X72463569Y-63668110D01*
X72412560Y-63920000D01*
X69350031Y-63920000D01*
X69350031Y-58985031D01*
X69292179Y-58694192D01*
X69127432Y-58447630D01*
X67510639Y-56830837D01*
X67549738Y-56736675D01*
X67550262Y-56135960D01*
X67320862Y-55580771D01*
X66896463Y-55155630D01*
X66873531Y-55146108D01*
X66911642Y-55030000D01*
X72412560Y-55030000D01*
X72412560Y-56730000D01*
X72456838Y-56965317D01*
X72595910Y-57181441D01*
X72808110Y-57326431D01*
X73060000Y-57377440D01*
X74260000Y-57377440D01*
X74495317Y-57333162D01*
X74711441Y-57194090D01*
X74815571Y-57041691D01*
X74830875Y-57061933D01*
X75250624Y-57308286D01*
X75342391Y-57323462D01*
X75533000Y-57198731D01*
X75533000Y-56007000D01*
X75513000Y-56007000D01*
X75513000Y-55753000D01*
X75533000Y-55753000D01*
X75533000Y-54561269D01*
X75787000Y-54561269D01*
X75787000Y-55753000D01*
X75807000Y-55753000D01*
X75807000Y-56007000D01*
X75787000Y-56007000D01*
X75787000Y-57198731D01*
X75977609Y-57323462D01*
X76069376Y-57308286D01*
X76489125Y-57061933D01*
X76657590Y-56839109D01*
X76786723Y-57032370D01*
X77187386Y-57300084D01*
X77660000Y-57394093D01*
X78132614Y-57300084D01*
X78533277Y-57032370D01*
X78660000Y-56842715D01*
X78786723Y-57032370D01*
X79187386Y-57300084D01*
X79660000Y-57394093D01*
X80132614Y-57300084D01*
X80533277Y-57032370D01*
X80800991Y-56631707D01*
X80895000Y-56159093D01*
X80895000Y-55600907D01*
X80800991Y-55128293D01*
X80533277Y-54727630D01*
X80132614Y-54459916D01*
X79660000Y-54365907D01*
X79187386Y-54459916D01*
X78786723Y-54727630D01*
X78660000Y-54917285D01*
X78533277Y-54727630D01*
X78132614Y-54459916D01*
X77660000Y-54365907D01*
X77187386Y-54459916D01*
X76786723Y-54727630D01*
X76657590Y-54920891D01*
X76489125Y-54698067D01*
X76069376Y-54451714D01*
X75977609Y-54436538D01*
X75787000Y-54561269D01*
X75533000Y-54561269D01*
X75342391Y-54436538D01*
X75250624Y-54451714D01*
X74830875Y-54698067D01*
X74814731Y-54719420D01*
X74724090Y-54578559D01*
X74511890Y-54433569D01*
X74260000Y-54382560D01*
X73060000Y-54382560D01*
X72824683Y-54426838D01*
X72608559Y-54565910D01*
X72463569Y-54778110D01*
X72412560Y-55030000D01*
X66911642Y-55030000D01*
X66922455Y-54997060D01*
X66040000Y-54114605D01*
X65157545Y-54997060D01*
X65206318Y-55145648D01*
X65185771Y-55154138D01*
X64760630Y-55578537D01*
X64530262Y-56133325D01*
X64529738Y-56734040D01*
X56127000Y-56734040D01*
X56127000Y-50560000D01*
X64517560Y-50560000D01*
X64517560Y-52310000D01*
X64561838Y-52545317D01*
X64700910Y-52761441D01*
X64902226Y-52898994D01*
X64863306Y-52937914D01*
X64977938Y-53052546D01*
X64724047Y-53135884D01*
X64518410Y-53700306D01*
X64544421Y-54300458D01*
X64724047Y-54734116D01*
X64977940Y-54817455D01*
X65860395Y-53935000D01*
X65846253Y-53920858D01*
X66025858Y-53741253D01*
X66040000Y-53755395D01*
X66054143Y-53741253D01*
X66233748Y-53920858D01*
X66219605Y-53935000D01*
X67102060Y-54817455D01*
X67355953Y-54734116D01*
X67561590Y-54169694D01*
X67535579Y-53569542D01*
X67355953Y-53135884D01*
X67102062Y-53052546D01*
X67216694Y-52937914D01*
X67175644Y-52896864D01*
X67366441Y-52774090D01*
X67511431Y-52561890D01*
X67562440Y-52310000D01*
X67562440Y-50560000D01*
X67518162Y-50324683D01*
X67379090Y-50108559D01*
X67166890Y-49963569D01*
X66915000Y-49912560D01*
X65165000Y-49912560D01*
X64929683Y-49956838D01*
X64713559Y-50095910D01*
X64568569Y-50308110D01*
X64517560Y-50560000D01*
X56127000Y-50560000D01*
X56127000Y-47812810D01*
X56318874Y-48005019D01*
X58055617Y-48726177D01*
X59936133Y-48727818D01*
X61674132Y-48009692D01*
X63005019Y-46681126D01*
X63726177Y-44944383D01*
X63726817Y-44210000D01*
X72137560Y-44210000D01*
X72137560Y-45960000D01*
X72181838Y-46195317D01*
X72320910Y-46411441D01*
X72533110Y-46556431D01*
X72785000Y-46607440D01*
X74535000Y-46607440D01*
X74770317Y-46563162D01*
X74986441Y-46424090D01*
X75123994Y-46222774D01*
X75162914Y-46261694D01*
X75277546Y-46147062D01*
X75360884Y-46400953D01*
X75925306Y-46606590D01*
X76525458Y-46580579D01*
X76959116Y-46400953D01*
X77042455Y-46147060D01*
X76160000Y-45264605D01*
X76145858Y-45278748D01*
X75966253Y-45099143D01*
X75980395Y-45085000D01*
X75966253Y-45070858D01*
X76145858Y-44891253D01*
X76160000Y-44905395D01*
X77042455Y-44022940D01*
X76959116Y-43769047D01*
X76394694Y-43563410D01*
X75794542Y-43589421D01*
X75360884Y-43769047D01*
X75277546Y-44022938D01*
X75162914Y-43908306D01*
X75121864Y-43949356D01*
X74999090Y-43758559D01*
X74786890Y-43613569D01*
X74535000Y-43562560D01*
X72785000Y-43562560D01*
X72549683Y-43606838D01*
X72333559Y-43745910D01*
X72188569Y-43958110D01*
X72137560Y-44210000D01*
X63726817Y-44210000D01*
X63727818Y-43063867D01*
X63009692Y-41325868D01*
X62811171Y-41127000D01*
X97187190Y-41127000D01*
X96994981Y-41318874D01*
M02*
