M48
;DRILL file {KiCad 4.0.3+e1-6302~38~ubuntu15.04.1-stable} date Mon Sep 12 00:10:42 2016
;FORMAT={-:-/ absolute / inch / decimal}
FMAT,2
INCH,TZ
T1C0.016
T2C0.028
T3C0.030
T4C0.031
T5C0.032
T6C0.035
T7C0.039
T8C0.040
T9C0.126
%
G90
G05
M72
T1
X3.445Y-3.2863
X4.875Y-2.325
X4.875Y-2.925
T2
X4.5388Y-1.725
X4.6175Y-1.725
X4.6963Y-1.725
X4.775Y-1.725
X5.0138Y-1.725
X5.0925Y-1.725
X5.1713Y-1.725
X5.25Y-1.725
T3
X4.5654Y-1.9724
X4.5654Y-3.5276
X5.2346Y-1.9724
X5.2346Y-3.5276
T4
X4.125Y-3.275
X4.3219Y-3.275
T5
X3.605Y-3.365
X3.705Y-3.365
X3.805Y-3.365
T6
X2.636Y-1.85
X2.7344Y-1.85
X2.8329Y-1.85
X2.9313Y-1.85
X3.0297Y-1.85
X3.1281Y-1.85
X3.2266Y-1.85
X3.325Y-1.85
X3.586Y-1.85
X3.6844Y-1.85
X3.7829Y-1.85
X3.8813Y-1.85
X3.9797Y-1.85
X4.0781Y-1.85
X4.1766Y-1.85
X4.275Y-1.85
X5.525Y-2.2281
X5.525Y-2.3266
X5.525Y-2.425
X5.525Y-2.7781
X5.525Y-2.8766
X5.525Y-2.975
T8
X2.825Y-2.275
X2.825Y-2.875
X2.925Y-2.275
X2.925Y-2.875
X3.025Y-2.275
X3.025Y-2.875
X3.125Y-2.275
X3.125Y-2.875
X3.225Y-2.275
X3.225Y-2.875
X3.325Y-2.275
X3.325Y-2.875
X3.425Y-2.275
X3.425Y-2.875
X3.525Y-2.275
X3.525Y-2.875
X3.625Y-2.275
X3.625Y-2.875
X3.725Y-2.275
X3.725Y-2.875
X3.825Y-2.275
X3.825Y-2.875
X3.925Y-2.275
X3.925Y-2.875
X4.025Y-2.275
X4.025Y-2.875
X4.125Y-2.275
X4.125Y-2.875
X4.225Y-2.275
X4.225Y-2.875
T9
X2.2835Y-1.6929
X2.2835Y-3.4252
X5.5906Y-1.6929
X5.5906Y-3.4252
T7
X2.8607Y-3.1259G85X2.9394Y-3.1259
G05
X2.8607Y-3.3621G85X2.9394Y-3.3621
G05
X3.085Y-3.2833G85X3.085Y-3.2046
G05
T0
M30
