G04 #@! TF.FileFunction,Copper,L2,Bot,Signal*
%FSLAX46Y46*%
G04 Gerber Fmt 4.6, Leading zero omitted, Abs format (unit mm)*
G04 Created by KiCad (PCBNEW 4.0.3+e1-6302~38~ubuntu15.04.1-stable) date Mon Sep 12 00:10:40 2016*
%MOMM*%
%LPD*%
G01*
G04 APERTURE LIST*
%ADD10C,0.100000*%
%ADD11R,1.300000X1.300000*%
%ADD12C,1.300000*%
%ADD13R,1.750000X1.750000*%
%ADD14C,1.750000*%
%ADD15R,1.200000X1.700000*%
%ADD16O,1.200000X1.700000*%
%ADD17C,3.200000*%
%ADD18R,1.727200X1.727200*%
%ADD19C,1.727200*%
%ADD20C,1.524000*%
%ADD21R,3.500120X3.500120*%
%ADD22R,1.397000X1.397000*%
%ADD23C,1.397000*%
%ADD24C,0.600000*%
%ADD25C,0.250000*%
%ADD26C,2.050000*%
%ADD27C,0.254000*%
G04 APERTURE END LIST*
D10*
D11*
X104775000Y-83185000D03*
D12*
X109775000Y-83185000D03*
D13*
X108585000Y-46990000D03*
D14*
X106085000Y-46990000D03*
X103585000Y-46990000D03*
X101085000Y-46990000D03*
X98585000Y-46990000D03*
X96085000Y-46990000D03*
X93585000Y-46990000D03*
X91085000Y-46990000D03*
D13*
X84455000Y-46990000D03*
D14*
X81955000Y-46990000D03*
X79455000Y-46990000D03*
X76955000Y-46990000D03*
X74455000Y-46990000D03*
X71955000Y-46990000D03*
X69455000Y-46990000D03*
X66955000Y-46990000D03*
D15*
X121285000Y-43815000D03*
D16*
X119285000Y-43815000D03*
X117285000Y-43815000D03*
X115285000Y-43815000D03*
D15*
X133350000Y-43815000D03*
D16*
X131350000Y-43815000D03*
X129350000Y-43815000D03*
X127350000Y-43815000D03*
D13*
X140335000Y-61595000D03*
D14*
X140335000Y-59095000D03*
X140335000Y-56595000D03*
D13*
X140335000Y-75565000D03*
D14*
X140335000Y-73065000D03*
X140335000Y-70565000D03*
D17*
X58000000Y-43000000D03*
X142000000Y-43000000D03*
X58000000Y-87000000D03*
X142000000Y-87000000D03*
D18*
X107315000Y-57785000D03*
D19*
X104775000Y-57785000D03*
X102235000Y-57785000D03*
X99695000Y-57785000D03*
X97155000Y-57785000D03*
X94615000Y-57785000D03*
X92075000Y-57785000D03*
X89535000Y-57785000D03*
X86995000Y-57785000D03*
X84455000Y-57785000D03*
X81915000Y-57785000D03*
X79375000Y-57785000D03*
X76835000Y-57785000D03*
X74295000Y-57785000D03*
X71755000Y-57785000D03*
X71755000Y-73025000D03*
X74295000Y-73025000D03*
X76835000Y-73025000D03*
X79375000Y-73025000D03*
X81915000Y-73025000D03*
X84455000Y-73025000D03*
X86995000Y-73025000D03*
X89535000Y-73025000D03*
X92075000Y-73025000D03*
X94615000Y-73025000D03*
X97155000Y-73025000D03*
X99695000Y-73025000D03*
X102235000Y-73025000D03*
X104775000Y-73025000D03*
X107315000Y-73025000D03*
D20*
X132960000Y-50100000D03*
X115960000Y-50100000D03*
X132960000Y-89600000D03*
X115960000Y-89600000D03*
D21*
X73660000Y-79397860D03*
X73660000Y-85397340D03*
X78359000Y-82397600D03*
D22*
X96647000Y-85471000D03*
D23*
X94107000Y-85471000D03*
X91567000Y-85471000D03*
D24*
X123825000Y-59055000D03*
X123825000Y-74295000D03*
X87503000Y-83471000D03*
D25*
X73025000Y-59055000D02*
X123825000Y-59055000D01*
X71755000Y-57785000D02*
X73025000Y-59055000D01*
X71755000Y-73025000D02*
X73025000Y-74295000D01*
X73025000Y-74295000D02*
X123825000Y-74295000D01*
D26*
X87503000Y-83471000D02*
X87503000Y-83439000D01*
X95504000Y-83185000D02*
X94869000Y-83185000D01*
X104775000Y-83185000D02*
X95504000Y-83185000D01*
X94107000Y-83947000D02*
X94107000Y-85471000D01*
X94869000Y-83185000D02*
X94107000Y-83947000D01*
X77492860Y-79375000D02*
X73682860Y-79375000D01*
X73682860Y-79375000D02*
X73660000Y-79397860D01*
X83185000Y-79375000D02*
X77492860Y-79375000D01*
X77492860Y-79375000D02*
X77470000Y-79397860D01*
X129540000Y-79375000D02*
X83185000Y-79375000D01*
X132960000Y-50100000D02*
X132960000Y-75955000D01*
X132960000Y-75955000D02*
X129540000Y-79375000D01*
X100457000Y-86868000D02*
X98044000Y-86868000D01*
X98044000Y-86868000D02*
X96647000Y-85471000D01*
X132960000Y-89600000D02*
X119953000Y-89600000D01*
X117221000Y-86868000D02*
X100457000Y-86868000D01*
X119953000Y-89600000D02*
X117221000Y-86868000D01*
D27*
G36*
X137994981Y-40318874D02*
X137273823Y-42055617D01*
X137272182Y-43936133D01*
X137990308Y-45674132D01*
X139318874Y-47005019D01*
X141055617Y-47726177D01*
X142936133Y-47727818D01*
X144674132Y-47009692D01*
X145873000Y-45812915D01*
X145873000Y-84188937D01*
X144681126Y-82994981D01*
X142944383Y-82273823D01*
X141063867Y-82272182D01*
X139325868Y-82990308D01*
X137994981Y-84318874D01*
X137273823Y-86055617D01*
X137272182Y-87936133D01*
X137990308Y-89674132D01*
X139187085Y-90873000D01*
X133985329Y-90873000D01*
X134133797Y-90773797D01*
X134493640Y-90235254D01*
X134620000Y-89600000D01*
X134493640Y-88964746D01*
X134133797Y-88426203D01*
X133595254Y-88066360D01*
X132960000Y-87940000D01*
X120640595Y-87940000D01*
X118394797Y-85694203D01*
X117856255Y-85334360D01*
X117221000Y-85208000D01*
X104140000Y-85208000D01*
X104140000Y-84470000D01*
X104489250Y-84470000D01*
X104648000Y-84311250D01*
X104648000Y-83312000D01*
X104902000Y-83312000D01*
X104902000Y-84311250D01*
X105060750Y-84470000D01*
X105551309Y-84470000D01*
X105784698Y-84373327D01*
X105963327Y-84194699D01*
X106060000Y-83961310D01*
X106060000Y-83470750D01*
X106028731Y-83439481D01*
X108489777Y-83439481D01*
X108684995Y-83911943D01*
X109046155Y-84273735D01*
X109518276Y-84469777D01*
X110029481Y-84470223D01*
X110501943Y-84275005D01*
X110863735Y-83913845D01*
X111059777Y-83441724D01*
X111060223Y-82930519D01*
X110865005Y-82458057D01*
X110503845Y-82096265D01*
X110031724Y-81900223D01*
X109520519Y-81899777D01*
X109048057Y-82094995D01*
X108686265Y-82456155D01*
X108490223Y-82928276D01*
X108489777Y-83439481D01*
X106028731Y-83439481D01*
X105901250Y-83312000D01*
X104902000Y-83312000D01*
X104648000Y-83312000D01*
X104628000Y-83312000D01*
X104628000Y-83058000D01*
X104648000Y-83058000D01*
X104648000Y-82058750D01*
X104902000Y-82058750D01*
X104902000Y-83058000D01*
X105901250Y-83058000D01*
X106060000Y-82899250D01*
X106060000Y-82408690D01*
X105963327Y-82175301D01*
X105784698Y-81996673D01*
X105551309Y-81900000D01*
X105060750Y-81900000D01*
X104902000Y-82058750D01*
X104648000Y-82058750D01*
X104489250Y-81900000D01*
X104140000Y-81900000D01*
X104140000Y-81788000D01*
X104131315Y-81741841D01*
X104104035Y-81699447D01*
X104062410Y-81671006D01*
X104013000Y-81661000D01*
X89408000Y-81661000D01*
X89361841Y-81669685D01*
X89319447Y-81696965D01*
X89291006Y-81738590D01*
X89281000Y-81788000D01*
X89281000Y-88392000D01*
X89289685Y-88438159D01*
X89316965Y-88480553D01*
X89358590Y-88508994D01*
X89408000Y-88519000D01*
X97998754Y-88519000D01*
X98044000Y-88528000D01*
X115056490Y-88528000D01*
X114776371Y-88807630D01*
X114563243Y-89320900D01*
X114562758Y-89876661D01*
X114774990Y-90390303D01*
X115167630Y-90783629D01*
X115382860Y-90873000D01*
X60811063Y-90873000D01*
X62005019Y-89681126D01*
X62726177Y-87944383D01*
X62727818Y-86063867D01*
X62009692Y-84325868D01*
X60681126Y-82994981D01*
X58944383Y-82273823D01*
X57063867Y-82272182D01*
X55325868Y-82990308D01*
X54127000Y-84187085D01*
X54127000Y-77647800D01*
X71262500Y-77647800D01*
X71262500Y-81147920D01*
X71306778Y-81383237D01*
X71445850Y-81599361D01*
X71658050Y-81744351D01*
X71909940Y-81795360D01*
X75410060Y-81795360D01*
X75645377Y-81751082D01*
X75861501Y-81612010D01*
X75961500Y-81465657D01*
X75961500Y-83331585D01*
X75874150Y-83195839D01*
X75661950Y-83050849D01*
X75410060Y-82999840D01*
X71909940Y-82999840D01*
X71674623Y-83044118D01*
X71458499Y-83183190D01*
X71313509Y-83395390D01*
X71262500Y-83647280D01*
X71262500Y-87147400D01*
X71306778Y-87382717D01*
X71445850Y-87598841D01*
X71658050Y-87743831D01*
X71909940Y-87794840D01*
X75410060Y-87794840D01*
X75645377Y-87750562D01*
X75861501Y-87611490D01*
X76006491Y-87399290D01*
X76057500Y-87147400D01*
X76057500Y-84463355D01*
X76144850Y-84599101D01*
X76357050Y-84744091D01*
X76608940Y-84795100D01*
X80109060Y-84795100D01*
X80344377Y-84750822D01*
X80560501Y-84611750D01*
X80705491Y-84399550D01*
X80756500Y-84147660D01*
X80756500Y-81035000D01*
X129540000Y-81035000D01*
X130175255Y-80908640D01*
X130713797Y-80548797D01*
X134133797Y-77128798D01*
X134493639Y-76590255D01*
X134493640Y-76590254D01*
X134620000Y-75955000D01*
X134620000Y-74690000D01*
X138812560Y-74690000D01*
X138812560Y-76440000D01*
X138856838Y-76675317D01*
X138995910Y-76891441D01*
X139208110Y-77036431D01*
X139460000Y-77087440D01*
X141210000Y-77087440D01*
X141445317Y-77043162D01*
X141661441Y-76904090D01*
X141806431Y-76691890D01*
X141857440Y-76440000D01*
X141857440Y-74690000D01*
X141813162Y-74454683D01*
X141674090Y-74238559D01*
X141472774Y-74101006D01*
X141511694Y-74062086D01*
X141397062Y-73947454D01*
X141650953Y-73864116D01*
X141856590Y-73299694D01*
X141830579Y-72699542D01*
X141650953Y-72265884D01*
X141397060Y-72182545D01*
X140514605Y-73065000D01*
X140528748Y-73079143D01*
X140349143Y-73258748D01*
X140335000Y-73244605D01*
X140320858Y-73258748D01*
X140141253Y-73079143D01*
X140155395Y-73065000D01*
X139272940Y-72182545D01*
X139019047Y-72265884D01*
X138813410Y-72830306D01*
X138839421Y-73430458D01*
X139019047Y-73864116D01*
X139272938Y-73947454D01*
X139158306Y-74062086D01*
X139199356Y-74103136D01*
X139008559Y-74225910D01*
X138863569Y-74438110D01*
X138812560Y-74690000D01*
X134620000Y-74690000D01*
X134620000Y-70864040D01*
X138824738Y-70864040D01*
X139054138Y-71419229D01*
X139478537Y-71844370D01*
X139501469Y-71853892D01*
X139452545Y-72002940D01*
X140335000Y-72885395D01*
X141217455Y-72002940D01*
X141168682Y-71854352D01*
X141189229Y-71845862D01*
X141614370Y-71421463D01*
X141844738Y-70866675D01*
X141845262Y-70265960D01*
X141615862Y-69710771D01*
X141191463Y-69285630D01*
X140636675Y-69055262D01*
X140035960Y-69054738D01*
X139480771Y-69284138D01*
X139055630Y-69708537D01*
X138825262Y-70263325D01*
X138824738Y-70864040D01*
X134620000Y-70864040D01*
X134620000Y-60720000D01*
X138812560Y-60720000D01*
X138812560Y-62470000D01*
X138856838Y-62705317D01*
X138995910Y-62921441D01*
X139208110Y-63066431D01*
X139460000Y-63117440D01*
X141210000Y-63117440D01*
X141445317Y-63073162D01*
X141661441Y-62934090D01*
X141806431Y-62721890D01*
X141857440Y-62470000D01*
X141857440Y-60720000D01*
X141813162Y-60484683D01*
X141674090Y-60268559D01*
X141472774Y-60131006D01*
X141511694Y-60092086D01*
X141397062Y-59977454D01*
X141650953Y-59894116D01*
X141856590Y-59329694D01*
X141830579Y-58729542D01*
X141650953Y-58295884D01*
X141397060Y-58212545D01*
X140514605Y-59095000D01*
X140528748Y-59109143D01*
X140349143Y-59288748D01*
X140335000Y-59274605D01*
X140320858Y-59288748D01*
X140141253Y-59109143D01*
X140155395Y-59095000D01*
X139272940Y-58212545D01*
X139019047Y-58295884D01*
X138813410Y-58860306D01*
X138839421Y-59460458D01*
X139019047Y-59894116D01*
X139272938Y-59977454D01*
X139158306Y-60092086D01*
X139199356Y-60133136D01*
X139008559Y-60255910D01*
X138863569Y-60468110D01*
X138812560Y-60720000D01*
X134620000Y-60720000D01*
X134620000Y-56894040D01*
X138824738Y-56894040D01*
X139054138Y-57449229D01*
X139478537Y-57874370D01*
X139501469Y-57883892D01*
X139452545Y-58032940D01*
X140335000Y-58915395D01*
X141217455Y-58032940D01*
X141168682Y-57884352D01*
X141189229Y-57875862D01*
X141614370Y-57451463D01*
X141844738Y-56896675D01*
X141845262Y-56295960D01*
X141615862Y-55740771D01*
X141191463Y-55315630D01*
X140636675Y-55085262D01*
X140035960Y-55084738D01*
X139480771Y-55314138D01*
X139055630Y-55738537D01*
X138825262Y-56293325D01*
X138824738Y-56894040D01*
X134620000Y-56894040D01*
X134620000Y-50100000D01*
X134493640Y-49464746D01*
X134133797Y-48926203D01*
X133595254Y-48566360D01*
X132960000Y-48440000D01*
X132324746Y-48566360D01*
X131786203Y-48926203D01*
X131426360Y-49464746D01*
X131300000Y-50100000D01*
X131300000Y-75267405D01*
X128852406Y-77715000D01*
X76057500Y-77715000D01*
X76057500Y-77647800D01*
X76013222Y-77412483D01*
X75874150Y-77196359D01*
X75661950Y-77051369D01*
X75410060Y-77000360D01*
X71909940Y-77000360D01*
X71674623Y-77044638D01*
X71458499Y-77183710D01*
X71313509Y-77395910D01*
X71262500Y-77647800D01*
X54127000Y-77647800D01*
X54127000Y-73321782D01*
X70256141Y-73321782D01*
X70483808Y-73872780D01*
X70905003Y-74294710D01*
X71455602Y-74523339D01*
X72051782Y-74523859D01*
X72141844Y-74486646D01*
X72487599Y-74832401D01*
X72734160Y-74997148D01*
X73025000Y-75055000D01*
X123262537Y-75055000D01*
X123294673Y-75087192D01*
X123638201Y-75229838D01*
X124010167Y-75230162D01*
X124353943Y-75088117D01*
X124617192Y-74825327D01*
X124759838Y-74481799D01*
X124760162Y-74109833D01*
X124618117Y-73766057D01*
X124355327Y-73502808D01*
X124011799Y-73360162D01*
X123639833Y-73359838D01*
X123296057Y-73501883D01*
X123262882Y-73535000D01*
X108725889Y-73535000D01*
X108813339Y-73324398D01*
X108813859Y-72728218D01*
X108586192Y-72177220D01*
X108164997Y-71755290D01*
X107614398Y-71526661D01*
X107018218Y-71526141D01*
X106467220Y-71753808D01*
X106045290Y-72175003D01*
X106044905Y-72175931D01*
X105624997Y-71755290D01*
X105074398Y-71526661D01*
X104478218Y-71526141D01*
X103927220Y-71753808D01*
X103505290Y-72175003D01*
X103504905Y-72175931D01*
X103084997Y-71755290D01*
X102534398Y-71526661D01*
X101938218Y-71526141D01*
X101387220Y-71753808D01*
X100965290Y-72175003D01*
X100948459Y-72215537D01*
X100748805Y-72150800D01*
X99874605Y-73025000D01*
X99888748Y-73039143D01*
X99709143Y-73218748D01*
X99695000Y-73204605D01*
X99680858Y-73218748D01*
X99501253Y-73039143D01*
X99515395Y-73025000D01*
X98641195Y-72150800D01*
X98441967Y-72215399D01*
X98426192Y-72177220D01*
X98220526Y-71971195D01*
X98820800Y-71971195D01*
X99695000Y-72845395D01*
X100569200Y-71971195D01*
X100487259Y-71718484D01*
X99926970Y-71514752D01*
X99331365Y-71540942D01*
X98902741Y-71718484D01*
X98820800Y-71971195D01*
X98220526Y-71971195D01*
X98004997Y-71755290D01*
X97454398Y-71526661D01*
X96858218Y-71526141D01*
X96307220Y-71753808D01*
X95885290Y-72175003D01*
X95884905Y-72175931D01*
X95464997Y-71755290D01*
X94914398Y-71526661D01*
X94318218Y-71526141D01*
X93767220Y-71753808D01*
X93345290Y-72175003D01*
X93344905Y-72175931D01*
X92924997Y-71755290D01*
X92374398Y-71526661D01*
X91778218Y-71526141D01*
X91227220Y-71753808D01*
X90805290Y-72175003D01*
X90804905Y-72175931D01*
X90384997Y-71755290D01*
X89834398Y-71526661D01*
X89238218Y-71526141D01*
X88687220Y-71753808D01*
X88265290Y-72175003D01*
X88264905Y-72175931D01*
X87844997Y-71755290D01*
X87294398Y-71526661D01*
X86698218Y-71526141D01*
X86147220Y-71753808D01*
X85725290Y-72175003D01*
X85724905Y-72175931D01*
X85304997Y-71755290D01*
X84754398Y-71526661D01*
X84158218Y-71526141D01*
X83607220Y-71753808D01*
X83185290Y-72175003D01*
X83184905Y-72175931D01*
X82764997Y-71755290D01*
X82214398Y-71526661D01*
X81618218Y-71526141D01*
X81067220Y-71753808D01*
X80645290Y-72175003D01*
X80644905Y-72175931D01*
X80224997Y-71755290D01*
X79674398Y-71526661D01*
X79078218Y-71526141D01*
X78527220Y-71753808D01*
X78105290Y-72175003D01*
X78104905Y-72175931D01*
X77684997Y-71755290D01*
X77134398Y-71526661D01*
X76538218Y-71526141D01*
X75987220Y-71753808D01*
X75565290Y-72175003D01*
X75564905Y-72175931D01*
X75144997Y-71755290D01*
X74594398Y-71526661D01*
X73998218Y-71526141D01*
X73447220Y-71753808D01*
X73025290Y-72175003D01*
X73024905Y-72175931D01*
X72604997Y-71755290D01*
X72054398Y-71526661D01*
X71458218Y-71526141D01*
X70907220Y-71753808D01*
X70485290Y-72175003D01*
X70256661Y-72725602D01*
X70256141Y-73321782D01*
X54127000Y-73321782D01*
X54127000Y-58081782D01*
X70256141Y-58081782D01*
X70483808Y-58632780D01*
X70905003Y-59054710D01*
X71455602Y-59283339D01*
X72051782Y-59283859D01*
X72141844Y-59246646D01*
X72487599Y-59592401D01*
X72734160Y-59757148D01*
X73025000Y-59815000D01*
X123262537Y-59815000D01*
X123294673Y-59847192D01*
X123638201Y-59989838D01*
X124010167Y-59990162D01*
X124353943Y-59848117D01*
X124617192Y-59585327D01*
X124759838Y-59241799D01*
X124760162Y-58869833D01*
X124618117Y-58526057D01*
X124355327Y-58262808D01*
X124011799Y-58120162D01*
X123639833Y-58119838D01*
X123296057Y-58261883D01*
X123262882Y-58295000D01*
X108826040Y-58295000D01*
X108826040Y-56921400D01*
X108781762Y-56686083D01*
X108642690Y-56469959D01*
X108430490Y-56324969D01*
X108178600Y-56273960D01*
X106451400Y-56273960D01*
X106216083Y-56318238D01*
X105999959Y-56457310D01*
X105854969Y-56669510D01*
X105842148Y-56732820D01*
X105624997Y-56515290D01*
X105074398Y-56286661D01*
X104478218Y-56286141D01*
X103927220Y-56513808D01*
X103505290Y-56935003D01*
X103504905Y-56935931D01*
X103084997Y-56515290D01*
X102534398Y-56286661D01*
X101938218Y-56286141D01*
X101387220Y-56513808D01*
X100965290Y-56935003D01*
X100964905Y-56935931D01*
X100544997Y-56515290D01*
X99994398Y-56286661D01*
X99398218Y-56286141D01*
X98847220Y-56513808D01*
X98425290Y-56935003D01*
X98424905Y-56935931D01*
X98004997Y-56515290D01*
X97454398Y-56286661D01*
X96858218Y-56286141D01*
X96307220Y-56513808D01*
X95885290Y-56935003D01*
X95884905Y-56935931D01*
X95464997Y-56515290D01*
X94914398Y-56286661D01*
X94318218Y-56286141D01*
X93767220Y-56513808D01*
X93345290Y-56935003D01*
X93344905Y-56935931D01*
X92924997Y-56515290D01*
X92374398Y-56286661D01*
X91778218Y-56286141D01*
X91227220Y-56513808D01*
X90805290Y-56935003D01*
X90804905Y-56935931D01*
X90384997Y-56515290D01*
X89834398Y-56286661D01*
X89238218Y-56286141D01*
X88687220Y-56513808D01*
X88265290Y-56935003D01*
X88264905Y-56935931D01*
X87844997Y-56515290D01*
X87294398Y-56286661D01*
X86698218Y-56286141D01*
X86147220Y-56513808D01*
X85725290Y-56935003D01*
X85724905Y-56935931D01*
X85304997Y-56515290D01*
X84754398Y-56286661D01*
X84158218Y-56286141D01*
X83607220Y-56513808D01*
X83185290Y-56935003D01*
X83184905Y-56935931D01*
X82764997Y-56515290D01*
X82214398Y-56286661D01*
X81618218Y-56286141D01*
X81067220Y-56513808D01*
X80645290Y-56935003D01*
X80644905Y-56935931D01*
X80224997Y-56515290D01*
X79674398Y-56286661D01*
X79078218Y-56286141D01*
X78527220Y-56513808D01*
X78105290Y-56935003D01*
X78104905Y-56935931D01*
X77684997Y-56515290D01*
X77134398Y-56286661D01*
X76538218Y-56286141D01*
X75987220Y-56513808D01*
X75565290Y-56935003D01*
X75564905Y-56935931D01*
X75144997Y-56515290D01*
X74594398Y-56286661D01*
X73998218Y-56286141D01*
X73447220Y-56513808D01*
X73025290Y-56935003D01*
X73024905Y-56935931D01*
X72604997Y-56515290D01*
X72054398Y-56286661D01*
X71458218Y-56286141D01*
X70907220Y-56513808D01*
X70485290Y-56935003D01*
X70256661Y-57485602D01*
X70256141Y-58081782D01*
X54127000Y-58081782D01*
X54127000Y-50376661D01*
X114562758Y-50376661D01*
X114774990Y-50890303D01*
X115167630Y-51283629D01*
X115680900Y-51496757D01*
X116236661Y-51497242D01*
X116750303Y-51285010D01*
X117143629Y-50892370D01*
X117356757Y-50379100D01*
X117357242Y-49823339D01*
X117145010Y-49309697D01*
X116752370Y-48916371D01*
X116239100Y-48703243D01*
X115683339Y-48702758D01*
X115169697Y-48914990D01*
X114776371Y-49307630D01*
X114563243Y-49820900D01*
X114562758Y-50376661D01*
X54127000Y-50376661D01*
X54127000Y-45811063D01*
X55318874Y-47005019D01*
X57055617Y-47726177D01*
X58936133Y-47727818D01*
X59998057Y-47289040D01*
X65444738Y-47289040D01*
X65674138Y-47844229D01*
X66098537Y-48269370D01*
X66653325Y-48499738D01*
X67254040Y-48500262D01*
X67809229Y-48270862D01*
X68205318Y-47875464D01*
X68598537Y-48269370D01*
X69153325Y-48499738D01*
X69754040Y-48500262D01*
X70309229Y-48270862D01*
X70705318Y-47875464D01*
X71098537Y-48269370D01*
X71653325Y-48499738D01*
X72254040Y-48500262D01*
X72809229Y-48270862D01*
X73205318Y-47875464D01*
X73598537Y-48269370D01*
X74153325Y-48499738D01*
X74754040Y-48500262D01*
X75309229Y-48270862D01*
X75705318Y-47875464D01*
X76098537Y-48269370D01*
X76653325Y-48499738D01*
X77254040Y-48500262D01*
X77809229Y-48270862D01*
X78205318Y-47875464D01*
X78598537Y-48269370D01*
X79153325Y-48499738D01*
X79754040Y-48500262D01*
X80309229Y-48270862D01*
X80734370Y-47846463D01*
X80743892Y-47823531D01*
X80892940Y-47872455D01*
X81775395Y-46990000D01*
X80892940Y-46107545D01*
X80744352Y-46156318D01*
X80735862Y-46135771D01*
X80528394Y-45927940D01*
X81072545Y-45927940D01*
X81955000Y-46810395D01*
X81969143Y-46796253D01*
X82148748Y-46975858D01*
X82134605Y-46990000D01*
X82148748Y-47004143D01*
X81969143Y-47183748D01*
X81955000Y-47169605D01*
X81072545Y-48052060D01*
X81155884Y-48305953D01*
X81720306Y-48511590D01*
X82320458Y-48485579D01*
X82754116Y-48305953D01*
X82837454Y-48052062D01*
X82952086Y-48166694D01*
X82993136Y-48125644D01*
X83115910Y-48316441D01*
X83328110Y-48461431D01*
X83580000Y-48512440D01*
X85330000Y-48512440D01*
X85565317Y-48468162D01*
X85781441Y-48329090D01*
X85926431Y-48116890D01*
X85977440Y-47865000D01*
X85977440Y-47289040D01*
X89574738Y-47289040D01*
X89804138Y-47844229D01*
X90228537Y-48269370D01*
X90783325Y-48499738D01*
X91384040Y-48500262D01*
X91939229Y-48270862D01*
X92335318Y-47875464D01*
X92728537Y-48269370D01*
X93283325Y-48499738D01*
X93884040Y-48500262D01*
X94439229Y-48270862D01*
X94835318Y-47875464D01*
X95228537Y-48269370D01*
X95783325Y-48499738D01*
X96384040Y-48500262D01*
X96939229Y-48270862D01*
X97335318Y-47875464D01*
X97728537Y-48269370D01*
X98283325Y-48499738D01*
X98884040Y-48500262D01*
X99439229Y-48270862D01*
X99835318Y-47875464D01*
X100228537Y-48269370D01*
X100783325Y-48499738D01*
X101384040Y-48500262D01*
X101939229Y-48270862D01*
X102335318Y-47875464D01*
X102728537Y-48269370D01*
X103283325Y-48499738D01*
X103884040Y-48500262D01*
X104439229Y-48270862D01*
X104864370Y-47846463D01*
X104873892Y-47823531D01*
X105022940Y-47872455D01*
X105905395Y-46990000D01*
X105022940Y-46107545D01*
X104874352Y-46156318D01*
X104865862Y-46135771D01*
X104658394Y-45927940D01*
X105202545Y-45927940D01*
X106085000Y-46810395D01*
X106099143Y-46796253D01*
X106278748Y-46975858D01*
X106264605Y-46990000D01*
X106278748Y-47004143D01*
X106099143Y-47183748D01*
X106085000Y-47169605D01*
X105202545Y-48052060D01*
X105285884Y-48305953D01*
X105850306Y-48511590D01*
X106450458Y-48485579D01*
X106884116Y-48305953D01*
X106967454Y-48052062D01*
X107082086Y-48166694D01*
X107123136Y-48125644D01*
X107245910Y-48316441D01*
X107458110Y-48461431D01*
X107710000Y-48512440D01*
X109460000Y-48512440D01*
X109695317Y-48468162D01*
X109911441Y-48329090D01*
X110056431Y-48116890D01*
X110107440Y-47865000D01*
X110107440Y-46115000D01*
X110063162Y-45879683D01*
X109924090Y-45663559D01*
X109711890Y-45518569D01*
X109460000Y-45467560D01*
X107710000Y-45467560D01*
X107474683Y-45511838D01*
X107258559Y-45650910D01*
X107121006Y-45852226D01*
X107082086Y-45813306D01*
X106967454Y-45927938D01*
X106884116Y-45674047D01*
X106319694Y-45468410D01*
X105719542Y-45494421D01*
X105285884Y-45674047D01*
X105202545Y-45927940D01*
X104658394Y-45927940D01*
X104441463Y-45710630D01*
X103886675Y-45480262D01*
X103285960Y-45479738D01*
X102730771Y-45709138D01*
X102334682Y-46104536D01*
X101941463Y-45710630D01*
X101386675Y-45480262D01*
X100785960Y-45479738D01*
X100230771Y-45709138D01*
X99834682Y-46104536D01*
X99441463Y-45710630D01*
X98886675Y-45480262D01*
X98285960Y-45479738D01*
X97730771Y-45709138D01*
X97334682Y-46104536D01*
X96941463Y-45710630D01*
X96386675Y-45480262D01*
X95785960Y-45479738D01*
X95230771Y-45709138D01*
X94834682Y-46104536D01*
X94441463Y-45710630D01*
X93886675Y-45480262D01*
X93285960Y-45479738D01*
X92730771Y-45709138D01*
X92334682Y-46104536D01*
X91941463Y-45710630D01*
X91386675Y-45480262D01*
X90785960Y-45479738D01*
X90230771Y-45709138D01*
X89805630Y-46133537D01*
X89575262Y-46688325D01*
X89574738Y-47289040D01*
X85977440Y-47289040D01*
X85977440Y-46115000D01*
X85933162Y-45879683D01*
X85794090Y-45663559D01*
X85581890Y-45518569D01*
X85330000Y-45467560D01*
X83580000Y-45467560D01*
X83344683Y-45511838D01*
X83128559Y-45650910D01*
X82991006Y-45852226D01*
X82952086Y-45813306D01*
X82837454Y-45927938D01*
X82754116Y-45674047D01*
X82189694Y-45468410D01*
X81589542Y-45494421D01*
X81155884Y-45674047D01*
X81072545Y-45927940D01*
X80528394Y-45927940D01*
X80311463Y-45710630D01*
X79756675Y-45480262D01*
X79155960Y-45479738D01*
X78600771Y-45709138D01*
X78204682Y-46104536D01*
X77811463Y-45710630D01*
X77256675Y-45480262D01*
X76655960Y-45479738D01*
X76100771Y-45709138D01*
X75704682Y-46104536D01*
X75311463Y-45710630D01*
X74756675Y-45480262D01*
X74155960Y-45479738D01*
X73600771Y-45709138D01*
X73204682Y-46104536D01*
X72811463Y-45710630D01*
X72256675Y-45480262D01*
X71655960Y-45479738D01*
X71100771Y-45709138D01*
X70704682Y-46104536D01*
X70311463Y-45710630D01*
X69756675Y-45480262D01*
X69155960Y-45479738D01*
X68600771Y-45709138D01*
X68204682Y-46104536D01*
X67811463Y-45710630D01*
X67256675Y-45480262D01*
X66655960Y-45479738D01*
X66100771Y-45709138D01*
X65675630Y-46133537D01*
X65445262Y-46688325D01*
X65444738Y-47289040D01*
X59998057Y-47289040D01*
X60674132Y-47009692D01*
X62005019Y-45681126D01*
X62726177Y-43944383D01*
X62726533Y-43535907D01*
X114050000Y-43535907D01*
X114050000Y-44094093D01*
X114144009Y-44566707D01*
X114411723Y-44967370D01*
X114812386Y-45235084D01*
X115285000Y-45329093D01*
X115757614Y-45235084D01*
X116158277Y-44967370D01*
X116285000Y-44777715D01*
X116411723Y-44967370D01*
X116812386Y-45235084D01*
X117285000Y-45329093D01*
X117757614Y-45235084D01*
X118158277Y-44967370D01*
X118287410Y-44774109D01*
X118455875Y-44996933D01*
X118875624Y-45243286D01*
X118967391Y-45258462D01*
X119158000Y-45133731D01*
X119158000Y-43942000D01*
X119138000Y-43942000D01*
X119138000Y-43688000D01*
X119158000Y-43688000D01*
X119158000Y-42496269D01*
X119412000Y-42496269D01*
X119412000Y-43688000D01*
X119432000Y-43688000D01*
X119432000Y-43942000D01*
X119412000Y-43942000D01*
X119412000Y-45133731D01*
X119602609Y-45258462D01*
X119694376Y-45243286D01*
X120114125Y-44996933D01*
X120130269Y-44975580D01*
X120220910Y-45116441D01*
X120433110Y-45261431D01*
X120685000Y-45312440D01*
X121885000Y-45312440D01*
X122120317Y-45268162D01*
X122336441Y-45129090D01*
X122481431Y-44916890D01*
X122532440Y-44665000D01*
X122532440Y-43535907D01*
X126115000Y-43535907D01*
X126115000Y-44094093D01*
X126209009Y-44566707D01*
X126476723Y-44967370D01*
X126877386Y-45235084D01*
X127350000Y-45329093D01*
X127822614Y-45235084D01*
X128223277Y-44967370D01*
X128350000Y-44777715D01*
X128476723Y-44967370D01*
X128877386Y-45235084D01*
X129350000Y-45329093D01*
X129822614Y-45235084D01*
X130223277Y-44967370D01*
X130352410Y-44774109D01*
X130520875Y-44996933D01*
X130940624Y-45243286D01*
X131032391Y-45258462D01*
X131223000Y-45133731D01*
X131223000Y-43942000D01*
X131203000Y-43942000D01*
X131203000Y-43688000D01*
X131223000Y-43688000D01*
X131223000Y-42496269D01*
X131477000Y-42496269D01*
X131477000Y-43688000D01*
X131497000Y-43688000D01*
X131497000Y-43942000D01*
X131477000Y-43942000D01*
X131477000Y-45133731D01*
X131667609Y-45258462D01*
X131759376Y-45243286D01*
X132179125Y-44996933D01*
X132195269Y-44975580D01*
X132285910Y-45116441D01*
X132498110Y-45261431D01*
X132750000Y-45312440D01*
X133950000Y-45312440D01*
X134185317Y-45268162D01*
X134401441Y-45129090D01*
X134546431Y-44916890D01*
X134597440Y-44665000D01*
X134597440Y-42965000D01*
X134553162Y-42729683D01*
X134414090Y-42513559D01*
X134201890Y-42368569D01*
X133950000Y-42317560D01*
X132750000Y-42317560D01*
X132514683Y-42361838D01*
X132298559Y-42500910D01*
X132194429Y-42653309D01*
X132179125Y-42633067D01*
X131759376Y-42386714D01*
X131667609Y-42371538D01*
X131477000Y-42496269D01*
X131223000Y-42496269D01*
X131032391Y-42371538D01*
X130940624Y-42386714D01*
X130520875Y-42633067D01*
X130352410Y-42855891D01*
X130223277Y-42662630D01*
X129822614Y-42394916D01*
X129350000Y-42300907D01*
X128877386Y-42394916D01*
X128476723Y-42662630D01*
X128350000Y-42852285D01*
X128223277Y-42662630D01*
X127822614Y-42394916D01*
X127350000Y-42300907D01*
X126877386Y-42394916D01*
X126476723Y-42662630D01*
X126209009Y-43063293D01*
X126115000Y-43535907D01*
X122532440Y-43535907D01*
X122532440Y-42965000D01*
X122488162Y-42729683D01*
X122349090Y-42513559D01*
X122136890Y-42368569D01*
X121885000Y-42317560D01*
X120685000Y-42317560D01*
X120449683Y-42361838D01*
X120233559Y-42500910D01*
X120129429Y-42653309D01*
X120114125Y-42633067D01*
X119694376Y-42386714D01*
X119602609Y-42371538D01*
X119412000Y-42496269D01*
X119158000Y-42496269D01*
X118967391Y-42371538D01*
X118875624Y-42386714D01*
X118455875Y-42633067D01*
X118287410Y-42855891D01*
X118158277Y-42662630D01*
X117757614Y-42394916D01*
X117285000Y-42300907D01*
X116812386Y-42394916D01*
X116411723Y-42662630D01*
X116285000Y-42852285D01*
X116158277Y-42662630D01*
X115757614Y-42394916D01*
X115285000Y-42300907D01*
X114812386Y-42394916D01*
X114411723Y-42662630D01*
X114144009Y-43063293D01*
X114050000Y-43535907D01*
X62726533Y-43535907D01*
X62727818Y-42063867D01*
X62009692Y-40325868D01*
X60812915Y-39127000D01*
X139188937Y-39127000D01*
X137994981Y-40318874D01*
X137994981Y-40318874D01*
G37*
X137994981Y-40318874D02*
X137273823Y-42055617D01*
X137272182Y-43936133D01*
X137990308Y-45674132D01*
X139318874Y-47005019D01*
X141055617Y-47726177D01*
X142936133Y-47727818D01*
X144674132Y-47009692D01*
X145873000Y-45812915D01*
X145873000Y-84188937D01*
X144681126Y-82994981D01*
X142944383Y-82273823D01*
X141063867Y-82272182D01*
X139325868Y-82990308D01*
X137994981Y-84318874D01*
X137273823Y-86055617D01*
X137272182Y-87936133D01*
X137990308Y-89674132D01*
X139187085Y-90873000D01*
X133985329Y-90873000D01*
X134133797Y-90773797D01*
X134493640Y-90235254D01*
X134620000Y-89600000D01*
X134493640Y-88964746D01*
X134133797Y-88426203D01*
X133595254Y-88066360D01*
X132960000Y-87940000D01*
X120640595Y-87940000D01*
X118394797Y-85694203D01*
X117856255Y-85334360D01*
X117221000Y-85208000D01*
X104140000Y-85208000D01*
X104140000Y-84470000D01*
X104489250Y-84470000D01*
X104648000Y-84311250D01*
X104648000Y-83312000D01*
X104902000Y-83312000D01*
X104902000Y-84311250D01*
X105060750Y-84470000D01*
X105551309Y-84470000D01*
X105784698Y-84373327D01*
X105963327Y-84194699D01*
X106060000Y-83961310D01*
X106060000Y-83470750D01*
X106028731Y-83439481D01*
X108489777Y-83439481D01*
X108684995Y-83911943D01*
X109046155Y-84273735D01*
X109518276Y-84469777D01*
X110029481Y-84470223D01*
X110501943Y-84275005D01*
X110863735Y-83913845D01*
X111059777Y-83441724D01*
X111060223Y-82930519D01*
X110865005Y-82458057D01*
X110503845Y-82096265D01*
X110031724Y-81900223D01*
X109520519Y-81899777D01*
X109048057Y-82094995D01*
X108686265Y-82456155D01*
X108490223Y-82928276D01*
X108489777Y-83439481D01*
X106028731Y-83439481D01*
X105901250Y-83312000D01*
X104902000Y-83312000D01*
X104648000Y-83312000D01*
X104628000Y-83312000D01*
X104628000Y-83058000D01*
X104648000Y-83058000D01*
X104648000Y-82058750D01*
X104902000Y-82058750D01*
X104902000Y-83058000D01*
X105901250Y-83058000D01*
X106060000Y-82899250D01*
X106060000Y-82408690D01*
X105963327Y-82175301D01*
X105784698Y-81996673D01*
X105551309Y-81900000D01*
X105060750Y-81900000D01*
X104902000Y-82058750D01*
X104648000Y-82058750D01*
X104489250Y-81900000D01*
X104140000Y-81900000D01*
X104140000Y-81788000D01*
X104131315Y-81741841D01*
X104104035Y-81699447D01*
X104062410Y-81671006D01*
X104013000Y-81661000D01*
X89408000Y-81661000D01*
X89361841Y-81669685D01*
X89319447Y-81696965D01*
X89291006Y-81738590D01*
X89281000Y-81788000D01*
X89281000Y-88392000D01*
X89289685Y-88438159D01*
X89316965Y-88480553D01*
X89358590Y-88508994D01*
X89408000Y-88519000D01*
X97998754Y-88519000D01*
X98044000Y-88528000D01*
X115056490Y-88528000D01*
X114776371Y-88807630D01*
X114563243Y-89320900D01*
X114562758Y-89876661D01*
X114774990Y-90390303D01*
X115167630Y-90783629D01*
X115382860Y-90873000D01*
X60811063Y-90873000D01*
X62005019Y-89681126D01*
X62726177Y-87944383D01*
X62727818Y-86063867D01*
X62009692Y-84325868D01*
X60681126Y-82994981D01*
X58944383Y-82273823D01*
X57063867Y-82272182D01*
X55325868Y-82990308D01*
X54127000Y-84187085D01*
X54127000Y-77647800D01*
X71262500Y-77647800D01*
X71262500Y-81147920D01*
X71306778Y-81383237D01*
X71445850Y-81599361D01*
X71658050Y-81744351D01*
X71909940Y-81795360D01*
X75410060Y-81795360D01*
X75645377Y-81751082D01*
X75861501Y-81612010D01*
X75961500Y-81465657D01*
X75961500Y-83331585D01*
X75874150Y-83195839D01*
X75661950Y-83050849D01*
X75410060Y-82999840D01*
X71909940Y-82999840D01*
X71674623Y-83044118D01*
X71458499Y-83183190D01*
X71313509Y-83395390D01*
X71262500Y-83647280D01*
X71262500Y-87147400D01*
X71306778Y-87382717D01*
X71445850Y-87598841D01*
X71658050Y-87743831D01*
X71909940Y-87794840D01*
X75410060Y-87794840D01*
X75645377Y-87750562D01*
X75861501Y-87611490D01*
X76006491Y-87399290D01*
X76057500Y-87147400D01*
X76057500Y-84463355D01*
X76144850Y-84599101D01*
X76357050Y-84744091D01*
X76608940Y-84795100D01*
X80109060Y-84795100D01*
X80344377Y-84750822D01*
X80560501Y-84611750D01*
X80705491Y-84399550D01*
X80756500Y-84147660D01*
X80756500Y-81035000D01*
X129540000Y-81035000D01*
X130175255Y-80908640D01*
X130713797Y-80548797D01*
X134133797Y-77128798D01*
X134493639Y-76590255D01*
X134493640Y-76590254D01*
X134620000Y-75955000D01*
X134620000Y-74690000D01*
X138812560Y-74690000D01*
X138812560Y-76440000D01*
X138856838Y-76675317D01*
X138995910Y-76891441D01*
X139208110Y-77036431D01*
X139460000Y-77087440D01*
X141210000Y-77087440D01*
X141445317Y-77043162D01*
X141661441Y-76904090D01*
X141806431Y-76691890D01*
X141857440Y-76440000D01*
X141857440Y-74690000D01*
X141813162Y-74454683D01*
X141674090Y-74238559D01*
X141472774Y-74101006D01*
X141511694Y-74062086D01*
X141397062Y-73947454D01*
X141650953Y-73864116D01*
X141856590Y-73299694D01*
X141830579Y-72699542D01*
X141650953Y-72265884D01*
X141397060Y-72182545D01*
X140514605Y-73065000D01*
X140528748Y-73079143D01*
X140349143Y-73258748D01*
X140335000Y-73244605D01*
X140320858Y-73258748D01*
X140141253Y-73079143D01*
X140155395Y-73065000D01*
X139272940Y-72182545D01*
X139019047Y-72265884D01*
X138813410Y-72830306D01*
X138839421Y-73430458D01*
X139019047Y-73864116D01*
X139272938Y-73947454D01*
X139158306Y-74062086D01*
X139199356Y-74103136D01*
X139008559Y-74225910D01*
X138863569Y-74438110D01*
X138812560Y-74690000D01*
X134620000Y-74690000D01*
X134620000Y-70864040D01*
X138824738Y-70864040D01*
X139054138Y-71419229D01*
X139478537Y-71844370D01*
X139501469Y-71853892D01*
X139452545Y-72002940D01*
X140335000Y-72885395D01*
X141217455Y-72002940D01*
X141168682Y-71854352D01*
X141189229Y-71845862D01*
X141614370Y-71421463D01*
X141844738Y-70866675D01*
X141845262Y-70265960D01*
X141615862Y-69710771D01*
X141191463Y-69285630D01*
X140636675Y-69055262D01*
X140035960Y-69054738D01*
X139480771Y-69284138D01*
X139055630Y-69708537D01*
X138825262Y-70263325D01*
X138824738Y-70864040D01*
X134620000Y-70864040D01*
X134620000Y-60720000D01*
X138812560Y-60720000D01*
X138812560Y-62470000D01*
X138856838Y-62705317D01*
X138995910Y-62921441D01*
X139208110Y-63066431D01*
X139460000Y-63117440D01*
X141210000Y-63117440D01*
X141445317Y-63073162D01*
X141661441Y-62934090D01*
X141806431Y-62721890D01*
X141857440Y-62470000D01*
X141857440Y-60720000D01*
X141813162Y-60484683D01*
X141674090Y-60268559D01*
X141472774Y-60131006D01*
X141511694Y-60092086D01*
X141397062Y-59977454D01*
X141650953Y-59894116D01*
X141856590Y-59329694D01*
X141830579Y-58729542D01*
X141650953Y-58295884D01*
X141397060Y-58212545D01*
X140514605Y-59095000D01*
X140528748Y-59109143D01*
X140349143Y-59288748D01*
X140335000Y-59274605D01*
X140320858Y-59288748D01*
X140141253Y-59109143D01*
X140155395Y-59095000D01*
X139272940Y-58212545D01*
X139019047Y-58295884D01*
X138813410Y-58860306D01*
X138839421Y-59460458D01*
X139019047Y-59894116D01*
X139272938Y-59977454D01*
X139158306Y-60092086D01*
X139199356Y-60133136D01*
X139008559Y-60255910D01*
X138863569Y-60468110D01*
X138812560Y-60720000D01*
X134620000Y-60720000D01*
X134620000Y-56894040D01*
X138824738Y-56894040D01*
X139054138Y-57449229D01*
X139478537Y-57874370D01*
X139501469Y-57883892D01*
X139452545Y-58032940D01*
X140335000Y-58915395D01*
X141217455Y-58032940D01*
X141168682Y-57884352D01*
X141189229Y-57875862D01*
X141614370Y-57451463D01*
X141844738Y-56896675D01*
X141845262Y-56295960D01*
X141615862Y-55740771D01*
X141191463Y-55315630D01*
X140636675Y-55085262D01*
X140035960Y-55084738D01*
X139480771Y-55314138D01*
X139055630Y-55738537D01*
X138825262Y-56293325D01*
X138824738Y-56894040D01*
X134620000Y-56894040D01*
X134620000Y-50100000D01*
X134493640Y-49464746D01*
X134133797Y-48926203D01*
X133595254Y-48566360D01*
X132960000Y-48440000D01*
X132324746Y-48566360D01*
X131786203Y-48926203D01*
X131426360Y-49464746D01*
X131300000Y-50100000D01*
X131300000Y-75267405D01*
X128852406Y-77715000D01*
X76057500Y-77715000D01*
X76057500Y-77647800D01*
X76013222Y-77412483D01*
X75874150Y-77196359D01*
X75661950Y-77051369D01*
X75410060Y-77000360D01*
X71909940Y-77000360D01*
X71674623Y-77044638D01*
X71458499Y-77183710D01*
X71313509Y-77395910D01*
X71262500Y-77647800D01*
X54127000Y-77647800D01*
X54127000Y-73321782D01*
X70256141Y-73321782D01*
X70483808Y-73872780D01*
X70905003Y-74294710D01*
X71455602Y-74523339D01*
X72051782Y-74523859D01*
X72141844Y-74486646D01*
X72487599Y-74832401D01*
X72734160Y-74997148D01*
X73025000Y-75055000D01*
X123262537Y-75055000D01*
X123294673Y-75087192D01*
X123638201Y-75229838D01*
X124010167Y-75230162D01*
X124353943Y-75088117D01*
X124617192Y-74825327D01*
X124759838Y-74481799D01*
X124760162Y-74109833D01*
X124618117Y-73766057D01*
X124355327Y-73502808D01*
X124011799Y-73360162D01*
X123639833Y-73359838D01*
X123296057Y-73501883D01*
X123262882Y-73535000D01*
X108725889Y-73535000D01*
X108813339Y-73324398D01*
X108813859Y-72728218D01*
X108586192Y-72177220D01*
X108164997Y-71755290D01*
X107614398Y-71526661D01*
X107018218Y-71526141D01*
X106467220Y-71753808D01*
X106045290Y-72175003D01*
X106044905Y-72175931D01*
X105624997Y-71755290D01*
X105074398Y-71526661D01*
X104478218Y-71526141D01*
X103927220Y-71753808D01*
X103505290Y-72175003D01*
X103504905Y-72175931D01*
X103084997Y-71755290D01*
X102534398Y-71526661D01*
X101938218Y-71526141D01*
X101387220Y-71753808D01*
X100965290Y-72175003D01*
X100948459Y-72215537D01*
X100748805Y-72150800D01*
X99874605Y-73025000D01*
X99888748Y-73039143D01*
X99709143Y-73218748D01*
X99695000Y-73204605D01*
X99680858Y-73218748D01*
X99501253Y-73039143D01*
X99515395Y-73025000D01*
X98641195Y-72150800D01*
X98441967Y-72215399D01*
X98426192Y-72177220D01*
X98220526Y-71971195D01*
X98820800Y-71971195D01*
X99695000Y-72845395D01*
X100569200Y-71971195D01*
X100487259Y-71718484D01*
X99926970Y-71514752D01*
X99331365Y-71540942D01*
X98902741Y-71718484D01*
X98820800Y-71971195D01*
X98220526Y-71971195D01*
X98004997Y-71755290D01*
X97454398Y-71526661D01*
X96858218Y-71526141D01*
X96307220Y-71753808D01*
X95885290Y-72175003D01*
X95884905Y-72175931D01*
X95464997Y-71755290D01*
X94914398Y-71526661D01*
X94318218Y-71526141D01*
X93767220Y-71753808D01*
X93345290Y-72175003D01*
X93344905Y-72175931D01*
X92924997Y-71755290D01*
X92374398Y-71526661D01*
X91778218Y-71526141D01*
X91227220Y-71753808D01*
X90805290Y-72175003D01*
X90804905Y-72175931D01*
X90384997Y-71755290D01*
X89834398Y-71526661D01*
X89238218Y-71526141D01*
X88687220Y-71753808D01*
X88265290Y-72175003D01*
X88264905Y-72175931D01*
X87844997Y-71755290D01*
X87294398Y-71526661D01*
X86698218Y-71526141D01*
X86147220Y-71753808D01*
X85725290Y-72175003D01*
X85724905Y-72175931D01*
X85304997Y-71755290D01*
X84754398Y-71526661D01*
X84158218Y-71526141D01*
X83607220Y-71753808D01*
X83185290Y-72175003D01*
X83184905Y-72175931D01*
X82764997Y-71755290D01*
X82214398Y-71526661D01*
X81618218Y-71526141D01*
X81067220Y-71753808D01*
X80645290Y-72175003D01*
X80644905Y-72175931D01*
X80224997Y-71755290D01*
X79674398Y-71526661D01*
X79078218Y-71526141D01*
X78527220Y-71753808D01*
X78105290Y-72175003D01*
X78104905Y-72175931D01*
X77684997Y-71755290D01*
X77134398Y-71526661D01*
X76538218Y-71526141D01*
X75987220Y-71753808D01*
X75565290Y-72175003D01*
X75564905Y-72175931D01*
X75144997Y-71755290D01*
X74594398Y-71526661D01*
X73998218Y-71526141D01*
X73447220Y-71753808D01*
X73025290Y-72175003D01*
X73024905Y-72175931D01*
X72604997Y-71755290D01*
X72054398Y-71526661D01*
X71458218Y-71526141D01*
X70907220Y-71753808D01*
X70485290Y-72175003D01*
X70256661Y-72725602D01*
X70256141Y-73321782D01*
X54127000Y-73321782D01*
X54127000Y-58081782D01*
X70256141Y-58081782D01*
X70483808Y-58632780D01*
X70905003Y-59054710D01*
X71455602Y-59283339D01*
X72051782Y-59283859D01*
X72141844Y-59246646D01*
X72487599Y-59592401D01*
X72734160Y-59757148D01*
X73025000Y-59815000D01*
X123262537Y-59815000D01*
X123294673Y-59847192D01*
X123638201Y-59989838D01*
X124010167Y-59990162D01*
X124353943Y-59848117D01*
X124617192Y-59585327D01*
X124759838Y-59241799D01*
X124760162Y-58869833D01*
X124618117Y-58526057D01*
X124355327Y-58262808D01*
X124011799Y-58120162D01*
X123639833Y-58119838D01*
X123296057Y-58261883D01*
X123262882Y-58295000D01*
X108826040Y-58295000D01*
X108826040Y-56921400D01*
X108781762Y-56686083D01*
X108642690Y-56469959D01*
X108430490Y-56324969D01*
X108178600Y-56273960D01*
X106451400Y-56273960D01*
X106216083Y-56318238D01*
X105999959Y-56457310D01*
X105854969Y-56669510D01*
X105842148Y-56732820D01*
X105624997Y-56515290D01*
X105074398Y-56286661D01*
X104478218Y-56286141D01*
X103927220Y-56513808D01*
X103505290Y-56935003D01*
X103504905Y-56935931D01*
X103084997Y-56515290D01*
X102534398Y-56286661D01*
X101938218Y-56286141D01*
X101387220Y-56513808D01*
X100965290Y-56935003D01*
X100964905Y-56935931D01*
X100544997Y-56515290D01*
X99994398Y-56286661D01*
X99398218Y-56286141D01*
X98847220Y-56513808D01*
X98425290Y-56935003D01*
X98424905Y-56935931D01*
X98004997Y-56515290D01*
X97454398Y-56286661D01*
X96858218Y-56286141D01*
X96307220Y-56513808D01*
X95885290Y-56935003D01*
X95884905Y-56935931D01*
X95464997Y-56515290D01*
X94914398Y-56286661D01*
X94318218Y-56286141D01*
X93767220Y-56513808D01*
X93345290Y-56935003D01*
X93344905Y-56935931D01*
X92924997Y-56515290D01*
X92374398Y-56286661D01*
X91778218Y-56286141D01*
X91227220Y-56513808D01*
X90805290Y-56935003D01*
X90804905Y-56935931D01*
X90384997Y-56515290D01*
X89834398Y-56286661D01*
X89238218Y-56286141D01*
X88687220Y-56513808D01*
X88265290Y-56935003D01*
X88264905Y-56935931D01*
X87844997Y-56515290D01*
X87294398Y-56286661D01*
X86698218Y-56286141D01*
X86147220Y-56513808D01*
X85725290Y-56935003D01*
X85724905Y-56935931D01*
X85304997Y-56515290D01*
X84754398Y-56286661D01*
X84158218Y-56286141D01*
X83607220Y-56513808D01*
X83185290Y-56935003D01*
X83184905Y-56935931D01*
X82764997Y-56515290D01*
X82214398Y-56286661D01*
X81618218Y-56286141D01*
X81067220Y-56513808D01*
X80645290Y-56935003D01*
X80644905Y-56935931D01*
X80224997Y-56515290D01*
X79674398Y-56286661D01*
X79078218Y-56286141D01*
X78527220Y-56513808D01*
X78105290Y-56935003D01*
X78104905Y-56935931D01*
X77684997Y-56515290D01*
X77134398Y-56286661D01*
X76538218Y-56286141D01*
X75987220Y-56513808D01*
X75565290Y-56935003D01*
X75564905Y-56935931D01*
X75144997Y-56515290D01*
X74594398Y-56286661D01*
X73998218Y-56286141D01*
X73447220Y-56513808D01*
X73025290Y-56935003D01*
X73024905Y-56935931D01*
X72604997Y-56515290D01*
X72054398Y-56286661D01*
X71458218Y-56286141D01*
X70907220Y-56513808D01*
X70485290Y-56935003D01*
X70256661Y-57485602D01*
X70256141Y-58081782D01*
X54127000Y-58081782D01*
X54127000Y-50376661D01*
X114562758Y-50376661D01*
X114774990Y-50890303D01*
X115167630Y-51283629D01*
X115680900Y-51496757D01*
X116236661Y-51497242D01*
X116750303Y-51285010D01*
X117143629Y-50892370D01*
X117356757Y-50379100D01*
X117357242Y-49823339D01*
X117145010Y-49309697D01*
X116752370Y-48916371D01*
X116239100Y-48703243D01*
X115683339Y-48702758D01*
X115169697Y-48914990D01*
X114776371Y-49307630D01*
X114563243Y-49820900D01*
X114562758Y-50376661D01*
X54127000Y-50376661D01*
X54127000Y-45811063D01*
X55318874Y-47005019D01*
X57055617Y-47726177D01*
X58936133Y-47727818D01*
X59998057Y-47289040D01*
X65444738Y-47289040D01*
X65674138Y-47844229D01*
X66098537Y-48269370D01*
X66653325Y-48499738D01*
X67254040Y-48500262D01*
X67809229Y-48270862D01*
X68205318Y-47875464D01*
X68598537Y-48269370D01*
X69153325Y-48499738D01*
X69754040Y-48500262D01*
X70309229Y-48270862D01*
X70705318Y-47875464D01*
X71098537Y-48269370D01*
X71653325Y-48499738D01*
X72254040Y-48500262D01*
X72809229Y-48270862D01*
X73205318Y-47875464D01*
X73598537Y-48269370D01*
X74153325Y-48499738D01*
X74754040Y-48500262D01*
X75309229Y-48270862D01*
X75705318Y-47875464D01*
X76098537Y-48269370D01*
X76653325Y-48499738D01*
X77254040Y-48500262D01*
X77809229Y-48270862D01*
X78205318Y-47875464D01*
X78598537Y-48269370D01*
X79153325Y-48499738D01*
X79754040Y-48500262D01*
X80309229Y-48270862D01*
X80734370Y-47846463D01*
X80743892Y-47823531D01*
X80892940Y-47872455D01*
X81775395Y-46990000D01*
X80892940Y-46107545D01*
X80744352Y-46156318D01*
X80735862Y-46135771D01*
X80528394Y-45927940D01*
X81072545Y-45927940D01*
X81955000Y-46810395D01*
X81969143Y-46796253D01*
X82148748Y-46975858D01*
X82134605Y-46990000D01*
X82148748Y-47004143D01*
X81969143Y-47183748D01*
X81955000Y-47169605D01*
X81072545Y-48052060D01*
X81155884Y-48305953D01*
X81720306Y-48511590D01*
X82320458Y-48485579D01*
X82754116Y-48305953D01*
X82837454Y-48052062D01*
X82952086Y-48166694D01*
X82993136Y-48125644D01*
X83115910Y-48316441D01*
X83328110Y-48461431D01*
X83580000Y-48512440D01*
X85330000Y-48512440D01*
X85565317Y-48468162D01*
X85781441Y-48329090D01*
X85926431Y-48116890D01*
X85977440Y-47865000D01*
X85977440Y-47289040D01*
X89574738Y-47289040D01*
X89804138Y-47844229D01*
X90228537Y-48269370D01*
X90783325Y-48499738D01*
X91384040Y-48500262D01*
X91939229Y-48270862D01*
X92335318Y-47875464D01*
X92728537Y-48269370D01*
X93283325Y-48499738D01*
X93884040Y-48500262D01*
X94439229Y-48270862D01*
X94835318Y-47875464D01*
X95228537Y-48269370D01*
X95783325Y-48499738D01*
X96384040Y-48500262D01*
X96939229Y-48270862D01*
X97335318Y-47875464D01*
X97728537Y-48269370D01*
X98283325Y-48499738D01*
X98884040Y-48500262D01*
X99439229Y-48270862D01*
X99835318Y-47875464D01*
X100228537Y-48269370D01*
X100783325Y-48499738D01*
X101384040Y-48500262D01*
X101939229Y-48270862D01*
X102335318Y-47875464D01*
X102728537Y-48269370D01*
X103283325Y-48499738D01*
X103884040Y-48500262D01*
X104439229Y-48270862D01*
X104864370Y-47846463D01*
X104873892Y-47823531D01*
X105022940Y-47872455D01*
X105905395Y-46990000D01*
X105022940Y-46107545D01*
X104874352Y-46156318D01*
X104865862Y-46135771D01*
X104658394Y-45927940D01*
X105202545Y-45927940D01*
X106085000Y-46810395D01*
X106099143Y-46796253D01*
X106278748Y-46975858D01*
X106264605Y-46990000D01*
X106278748Y-47004143D01*
X106099143Y-47183748D01*
X106085000Y-47169605D01*
X105202545Y-48052060D01*
X105285884Y-48305953D01*
X105850306Y-48511590D01*
X106450458Y-48485579D01*
X106884116Y-48305953D01*
X106967454Y-48052062D01*
X107082086Y-48166694D01*
X107123136Y-48125644D01*
X107245910Y-48316441D01*
X107458110Y-48461431D01*
X107710000Y-48512440D01*
X109460000Y-48512440D01*
X109695317Y-48468162D01*
X109911441Y-48329090D01*
X110056431Y-48116890D01*
X110107440Y-47865000D01*
X110107440Y-46115000D01*
X110063162Y-45879683D01*
X109924090Y-45663559D01*
X109711890Y-45518569D01*
X109460000Y-45467560D01*
X107710000Y-45467560D01*
X107474683Y-45511838D01*
X107258559Y-45650910D01*
X107121006Y-45852226D01*
X107082086Y-45813306D01*
X106967454Y-45927938D01*
X106884116Y-45674047D01*
X106319694Y-45468410D01*
X105719542Y-45494421D01*
X105285884Y-45674047D01*
X105202545Y-45927940D01*
X104658394Y-45927940D01*
X104441463Y-45710630D01*
X103886675Y-45480262D01*
X103285960Y-45479738D01*
X102730771Y-45709138D01*
X102334682Y-46104536D01*
X101941463Y-45710630D01*
X101386675Y-45480262D01*
X100785960Y-45479738D01*
X100230771Y-45709138D01*
X99834682Y-46104536D01*
X99441463Y-45710630D01*
X98886675Y-45480262D01*
X98285960Y-45479738D01*
X97730771Y-45709138D01*
X97334682Y-46104536D01*
X96941463Y-45710630D01*
X96386675Y-45480262D01*
X95785960Y-45479738D01*
X95230771Y-45709138D01*
X94834682Y-46104536D01*
X94441463Y-45710630D01*
X93886675Y-45480262D01*
X93285960Y-45479738D01*
X92730771Y-45709138D01*
X92334682Y-46104536D01*
X91941463Y-45710630D01*
X91386675Y-45480262D01*
X90785960Y-45479738D01*
X90230771Y-45709138D01*
X89805630Y-46133537D01*
X89575262Y-46688325D01*
X89574738Y-47289040D01*
X85977440Y-47289040D01*
X85977440Y-46115000D01*
X85933162Y-45879683D01*
X85794090Y-45663559D01*
X85581890Y-45518569D01*
X85330000Y-45467560D01*
X83580000Y-45467560D01*
X83344683Y-45511838D01*
X83128559Y-45650910D01*
X82991006Y-45852226D01*
X82952086Y-45813306D01*
X82837454Y-45927938D01*
X82754116Y-45674047D01*
X82189694Y-45468410D01*
X81589542Y-45494421D01*
X81155884Y-45674047D01*
X81072545Y-45927940D01*
X80528394Y-45927940D01*
X80311463Y-45710630D01*
X79756675Y-45480262D01*
X79155960Y-45479738D01*
X78600771Y-45709138D01*
X78204682Y-46104536D01*
X77811463Y-45710630D01*
X77256675Y-45480262D01*
X76655960Y-45479738D01*
X76100771Y-45709138D01*
X75704682Y-46104536D01*
X75311463Y-45710630D01*
X74756675Y-45480262D01*
X74155960Y-45479738D01*
X73600771Y-45709138D01*
X73204682Y-46104536D01*
X72811463Y-45710630D01*
X72256675Y-45480262D01*
X71655960Y-45479738D01*
X71100771Y-45709138D01*
X70704682Y-46104536D01*
X70311463Y-45710630D01*
X69756675Y-45480262D01*
X69155960Y-45479738D01*
X68600771Y-45709138D01*
X68204682Y-46104536D01*
X67811463Y-45710630D01*
X67256675Y-45480262D01*
X66655960Y-45479738D01*
X66100771Y-45709138D01*
X65675630Y-46133537D01*
X65445262Y-46688325D01*
X65444738Y-47289040D01*
X59998057Y-47289040D01*
X60674132Y-47009692D01*
X62005019Y-45681126D01*
X62726177Y-43944383D01*
X62726533Y-43535907D01*
X114050000Y-43535907D01*
X114050000Y-44094093D01*
X114144009Y-44566707D01*
X114411723Y-44967370D01*
X114812386Y-45235084D01*
X115285000Y-45329093D01*
X115757614Y-45235084D01*
X116158277Y-44967370D01*
X116285000Y-44777715D01*
X116411723Y-44967370D01*
X116812386Y-45235084D01*
X117285000Y-45329093D01*
X117757614Y-45235084D01*
X118158277Y-44967370D01*
X118287410Y-44774109D01*
X118455875Y-44996933D01*
X118875624Y-45243286D01*
X118967391Y-45258462D01*
X119158000Y-45133731D01*
X119158000Y-43942000D01*
X119138000Y-43942000D01*
X119138000Y-43688000D01*
X119158000Y-43688000D01*
X119158000Y-42496269D01*
X119412000Y-42496269D01*
X119412000Y-43688000D01*
X119432000Y-43688000D01*
X119432000Y-43942000D01*
X119412000Y-43942000D01*
X119412000Y-45133731D01*
X119602609Y-45258462D01*
X119694376Y-45243286D01*
X120114125Y-44996933D01*
X120130269Y-44975580D01*
X120220910Y-45116441D01*
X120433110Y-45261431D01*
X120685000Y-45312440D01*
X121885000Y-45312440D01*
X122120317Y-45268162D01*
X122336441Y-45129090D01*
X122481431Y-44916890D01*
X122532440Y-44665000D01*
X122532440Y-43535907D01*
X126115000Y-43535907D01*
X126115000Y-44094093D01*
X126209009Y-44566707D01*
X126476723Y-44967370D01*
X126877386Y-45235084D01*
X127350000Y-45329093D01*
X127822614Y-45235084D01*
X128223277Y-44967370D01*
X128350000Y-44777715D01*
X128476723Y-44967370D01*
X128877386Y-45235084D01*
X129350000Y-45329093D01*
X129822614Y-45235084D01*
X130223277Y-44967370D01*
X130352410Y-44774109D01*
X130520875Y-44996933D01*
X130940624Y-45243286D01*
X131032391Y-45258462D01*
X131223000Y-45133731D01*
X131223000Y-43942000D01*
X131203000Y-43942000D01*
X131203000Y-43688000D01*
X131223000Y-43688000D01*
X131223000Y-42496269D01*
X131477000Y-42496269D01*
X131477000Y-43688000D01*
X131497000Y-43688000D01*
X131497000Y-43942000D01*
X131477000Y-43942000D01*
X131477000Y-45133731D01*
X131667609Y-45258462D01*
X131759376Y-45243286D01*
X132179125Y-44996933D01*
X132195269Y-44975580D01*
X132285910Y-45116441D01*
X132498110Y-45261431D01*
X132750000Y-45312440D01*
X133950000Y-45312440D01*
X134185317Y-45268162D01*
X134401441Y-45129090D01*
X134546431Y-44916890D01*
X134597440Y-44665000D01*
X134597440Y-42965000D01*
X134553162Y-42729683D01*
X134414090Y-42513559D01*
X134201890Y-42368569D01*
X133950000Y-42317560D01*
X132750000Y-42317560D01*
X132514683Y-42361838D01*
X132298559Y-42500910D01*
X132194429Y-42653309D01*
X132179125Y-42633067D01*
X131759376Y-42386714D01*
X131667609Y-42371538D01*
X131477000Y-42496269D01*
X131223000Y-42496269D01*
X131032391Y-42371538D01*
X130940624Y-42386714D01*
X130520875Y-42633067D01*
X130352410Y-42855891D01*
X130223277Y-42662630D01*
X129822614Y-42394916D01*
X129350000Y-42300907D01*
X128877386Y-42394916D01*
X128476723Y-42662630D01*
X128350000Y-42852285D01*
X128223277Y-42662630D01*
X127822614Y-42394916D01*
X127350000Y-42300907D01*
X126877386Y-42394916D01*
X126476723Y-42662630D01*
X126209009Y-43063293D01*
X126115000Y-43535907D01*
X122532440Y-43535907D01*
X122532440Y-42965000D01*
X122488162Y-42729683D01*
X122349090Y-42513559D01*
X122136890Y-42368569D01*
X121885000Y-42317560D01*
X120685000Y-42317560D01*
X120449683Y-42361838D01*
X120233559Y-42500910D01*
X120129429Y-42653309D01*
X120114125Y-42633067D01*
X119694376Y-42386714D01*
X119602609Y-42371538D01*
X119412000Y-42496269D01*
X119158000Y-42496269D01*
X118967391Y-42371538D01*
X118875624Y-42386714D01*
X118455875Y-42633067D01*
X118287410Y-42855891D01*
X118158277Y-42662630D01*
X117757614Y-42394916D01*
X117285000Y-42300907D01*
X116812386Y-42394916D01*
X116411723Y-42662630D01*
X116285000Y-42852285D01*
X116158277Y-42662630D01*
X115757614Y-42394916D01*
X115285000Y-42300907D01*
X114812386Y-42394916D01*
X114411723Y-42662630D01*
X114144009Y-43063293D01*
X114050000Y-43535907D01*
X62726533Y-43535907D01*
X62727818Y-42063867D01*
X62009692Y-40325868D01*
X60812915Y-39127000D01*
X139188937Y-39127000D01*
X137994981Y-40318874D01*
M02*
