G04 #@! TF.FileFunction,Legend,Top*
%FSLAX46Y46*%
G04 Gerber Fmt 4.6, Leading zero omitted, Abs format (unit mm)*
G04 Created by KiCad (PCBNEW 4.0.2+e4-6225~38~ubuntu15.04.1-stable) date zo 17 jul 2016 23:00:48 CEST*
%MOMM*%
G01*
G04 APERTURE LIST*
%ADD10C,0.100000*%
%ADD11C,0.250000*%
%ADD12C,0.200000*%
%ADD13C,0.150000*%
G04 APERTURE END LIST*
D10*
D11*
X117269287Y-126272857D02*
X117155001Y-126215714D01*
X117097858Y-126101429D01*
X117097858Y-125072857D01*
X118240715Y-126272857D02*
X118240715Y-125644286D01*
X118183572Y-125530000D01*
X118069286Y-125472857D01*
X117840715Y-125472857D01*
X117726429Y-125530000D01*
X118240715Y-126215714D02*
X118126429Y-126272857D01*
X117840715Y-126272857D01*
X117726429Y-126215714D01*
X117669286Y-126101429D01*
X117669286Y-125987143D01*
X117726429Y-125872857D01*
X117840715Y-125815714D01*
X118126429Y-125815714D01*
X118240715Y-125758571D01*
X118812143Y-126272857D02*
X118812143Y-125472857D01*
X118812143Y-125587143D02*
X118869286Y-125530000D01*
X118983572Y-125472857D01*
X119155000Y-125472857D01*
X119269286Y-125530000D01*
X119326429Y-125644286D01*
X119326429Y-126272857D01*
X119326429Y-125644286D02*
X119383572Y-125530000D01*
X119497858Y-125472857D01*
X119669286Y-125472857D01*
X119783572Y-125530000D01*
X119840715Y-125644286D01*
X119840715Y-126272857D01*
X120412143Y-125472857D02*
X120412143Y-126672857D01*
X120412143Y-125530000D02*
X120526429Y-125472857D01*
X120755000Y-125472857D01*
X120869286Y-125530000D01*
X120926429Y-125587143D01*
X120983572Y-125701429D01*
X120983572Y-126044286D01*
X120926429Y-126158571D01*
X120869286Y-126215714D01*
X120755000Y-126272857D01*
X120526429Y-126272857D01*
X120412143Y-126215714D01*
X122012143Y-125472857D02*
X122012143Y-126272857D01*
X121497857Y-125472857D02*
X121497857Y-126101429D01*
X121555000Y-126215714D01*
X121669286Y-126272857D01*
X121840714Y-126272857D01*
X121955000Y-126215714D01*
X122012143Y-126158571D01*
X124012143Y-126272857D02*
X124012143Y-125072857D01*
X124012143Y-126215714D02*
X123897857Y-126272857D01*
X123669286Y-126272857D01*
X123555000Y-126215714D01*
X123497857Y-126158571D01*
X123440714Y-126044286D01*
X123440714Y-125701429D01*
X123497857Y-125587143D01*
X123555000Y-125530000D01*
X123669286Y-125472857D01*
X123897857Y-125472857D01*
X124012143Y-125530000D01*
X125097857Y-126272857D02*
X125097857Y-125644286D01*
X125040714Y-125530000D01*
X124926428Y-125472857D01*
X124697857Y-125472857D01*
X124583571Y-125530000D01*
X125097857Y-126215714D02*
X124983571Y-126272857D01*
X124697857Y-126272857D01*
X124583571Y-126215714D01*
X124526428Y-126101429D01*
X124526428Y-125987143D01*
X124583571Y-125872857D01*
X124697857Y-125815714D01*
X124983571Y-125815714D01*
X125097857Y-125758571D01*
X125669285Y-125472857D02*
X125669285Y-126672857D01*
X125669285Y-125530000D02*
X125783571Y-125472857D01*
X126012142Y-125472857D01*
X126126428Y-125530000D01*
X126183571Y-125587143D01*
X126240714Y-125701429D01*
X126240714Y-126044286D01*
X126183571Y-126158571D01*
X126126428Y-126215714D01*
X126012142Y-126272857D01*
X125783571Y-126272857D01*
X125669285Y-126215714D01*
X127269285Y-125472857D02*
X127269285Y-126272857D01*
X126754999Y-125472857D02*
X126754999Y-126101429D01*
X126812142Y-126215714D01*
X126926428Y-126272857D01*
X127097856Y-126272857D01*
X127212142Y-126215714D01*
X127269285Y-126158571D01*
X127840713Y-126272857D02*
X127840713Y-125472857D01*
X127840713Y-125701429D02*
X127897856Y-125587143D01*
X127954999Y-125530000D01*
X128069285Y-125472857D01*
X128183570Y-125472857D01*
D12*
X116181666Y-123610714D02*
X116181666Y-124610714D01*
X116181666Y-123658333D02*
X116276904Y-123610714D01*
X116467381Y-123610714D01*
X116562619Y-123658333D01*
X116610238Y-123705952D01*
X116657857Y-123801190D01*
X116657857Y-124086905D01*
X116610238Y-124182143D01*
X116562619Y-124229762D01*
X116467381Y-124277381D01*
X116276904Y-124277381D01*
X116181666Y-124229762D01*
X117467381Y-124229762D02*
X117372143Y-124277381D01*
X117181666Y-124277381D01*
X117086428Y-124229762D01*
X117038809Y-124134524D01*
X117038809Y-123753571D01*
X117086428Y-123658333D01*
X117181666Y-123610714D01*
X117372143Y-123610714D01*
X117467381Y-123658333D01*
X117515000Y-123753571D01*
X117515000Y-123848810D01*
X117038809Y-123944048D01*
X117943571Y-123610714D02*
X117943571Y-124277381D01*
X117943571Y-123705952D02*
X117991190Y-123658333D01*
X118086428Y-123610714D01*
X118229286Y-123610714D01*
X118324524Y-123658333D01*
X118372143Y-123753571D01*
X118372143Y-124277381D01*
X119276905Y-123610714D02*
X119276905Y-124420238D01*
X119229286Y-124515476D01*
X119181667Y-124563095D01*
X119086428Y-124610714D01*
X118943571Y-124610714D01*
X118848333Y-124563095D01*
X119276905Y-124229762D02*
X119181667Y-124277381D01*
X118991190Y-124277381D01*
X118895952Y-124229762D01*
X118848333Y-124182143D01*
X118800714Y-124086905D01*
X118800714Y-123801190D01*
X118848333Y-123705952D01*
X118895952Y-123658333D01*
X118991190Y-123610714D01*
X119181667Y-123610714D01*
X119276905Y-123658333D01*
X120134048Y-124229762D02*
X120038810Y-124277381D01*
X119848333Y-124277381D01*
X119753095Y-124229762D01*
X119705476Y-124134524D01*
X119705476Y-123753571D01*
X119753095Y-123658333D01*
X119848333Y-123610714D01*
X120038810Y-123610714D01*
X120134048Y-123658333D01*
X120181667Y-123753571D01*
X120181667Y-123848810D01*
X119705476Y-123944048D01*
X120610238Y-123610714D02*
X120610238Y-124277381D01*
X120610238Y-123705952D02*
X120657857Y-123658333D01*
X120753095Y-123610714D01*
X120895953Y-123610714D01*
X120991191Y-123658333D01*
X121038810Y-123753571D01*
X121038810Y-124277381D01*
X121943572Y-124277381D02*
X121943572Y-123277381D01*
X121943572Y-124229762D02*
X121848334Y-124277381D01*
X121657857Y-124277381D01*
X121562619Y-124229762D01*
X121515000Y-124182143D01*
X121467381Y-124086905D01*
X121467381Y-123801190D01*
X121515000Y-123705952D01*
X121562619Y-123658333D01*
X121657857Y-123610714D01*
X121848334Y-123610714D01*
X121943572Y-123658333D01*
X122848334Y-124277381D02*
X122848334Y-123753571D01*
X122800715Y-123658333D01*
X122705477Y-123610714D01*
X122515000Y-123610714D01*
X122419762Y-123658333D01*
X122848334Y-124229762D02*
X122753096Y-124277381D01*
X122515000Y-124277381D01*
X122419762Y-124229762D01*
X122372143Y-124134524D01*
X122372143Y-124039286D01*
X122419762Y-123944048D01*
X122515000Y-123896429D01*
X122753096Y-123896429D01*
X122848334Y-123848810D01*
X123467381Y-124277381D02*
X123372143Y-124229762D01*
X123324524Y-124134524D01*
X123324524Y-123277381D01*
X123848334Y-124277381D02*
X123848334Y-123610714D01*
X123848334Y-123277381D02*
X123800715Y-123325000D01*
X123848334Y-123372619D01*
X123895953Y-123325000D01*
X123848334Y-123277381D01*
X123848334Y-123372619D01*
X144844047Y-117895714D02*
X145224999Y-117895714D01*
X144986904Y-118562381D02*
X144986904Y-117705238D01*
X145034523Y-117610000D01*
X145129761Y-117562381D01*
X145224999Y-117562381D01*
X145986905Y-118562381D02*
X145986905Y-118038571D01*
X145939286Y-117943333D01*
X145844048Y-117895714D01*
X145653571Y-117895714D01*
X145558333Y-117943333D01*
X145986905Y-118514762D02*
X145891667Y-118562381D01*
X145653571Y-118562381D01*
X145558333Y-118514762D01*
X145510714Y-118419524D01*
X145510714Y-118324286D01*
X145558333Y-118229048D01*
X145653571Y-118181429D01*
X145891667Y-118181429D01*
X145986905Y-118133810D01*
X146463095Y-117895714D02*
X146463095Y-118752857D01*
X146415476Y-118848095D01*
X146320238Y-118895714D01*
X146272619Y-118895714D01*
X146463095Y-117562381D02*
X146415476Y-117610000D01*
X146463095Y-117657619D01*
X146510714Y-117610000D01*
X146463095Y-117562381D01*
X146463095Y-117657619D01*
X146939285Y-118562381D02*
X146939285Y-117895714D01*
X146939285Y-118086190D02*
X146986904Y-117990952D01*
X147034523Y-117943333D01*
X147129761Y-117895714D01*
X147225000Y-117895714D01*
X147986905Y-118562381D02*
X147986905Y-118038571D01*
X147939286Y-117943333D01*
X147844048Y-117895714D01*
X147653571Y-117895714D01*
X147558333Y-117943333D01*
X147986905Y-118514762D02*
X147891667Y-118562381D01*
X147653571Y-118562381D01*
X147558333Y-118514762D01*
X147510714Y-118419524D01*
X147510714Y-118324286D01*
X147558333Y-118229048D01*
X147653571Y-118181429D01*
X147891667Y-118181429D01*
X147986905Y-118133810D01*
X148463095Y-117895714D02*
X148463095Y-118562381D01*
X148463095Y-117990952D02*
X148510714Y-117943333D01*
X148605952Y-117895714D01*
X148748810Y-117895714D01*
X148844048Y-117943333D01*
X148891667Y-118038571D01*
X148891667Y-118562381D01*
X150082143Y-117657619D02*
X150129762Y-117610000D01*
X150225000Y-117562381D01*
X150463096Y-117562381D01*
X150558334Y-117610000D01*
X150605953Y-117657619D01*
X150653572Y-117752857D01*
X150653572Y-117848095D01*
X150605953Y-117990952D01*
X150034524Y-118562381D01*
X150653572Y-118562381D01*
X151272619Y-117562381D02*
X151367858Y-117562381D01*
X151463096Y-117610000D01*
X151510715Y-117657619D01*
X151558334Y-117752857D01*
X151605953Y-117943333D01*
X151605953Y-118181429D01*
X151558334Y-118371905D01*
X151510715Y-118467143D01*
X151463096Y-118514762D01*
X151367858Y-118562381D01*
X151272619Y-118562381D01*
X151177381Y-118514762D01*
X151129762Y-118467143D01*
X151082143Y-118371905D01*
X151034524Y-118181429D01*
X151034524Y-117943333D01*
X151082143Y-117752857D01*
X151129762Y-117657619D01*
X151177381Y-117610000D01*
X151272619Y-117562381D01*
X152558334Y-118562381D02*
X151986905Y-118562381D01*
X152272619Y-118562381D02*
X152272619Y-117562381D01*
X152177381Y-117705238D01*
X152082143Y-117800476D01*
X151986905Y-117848095D01*
X153415477Y-117562381D02*
X153225000Y-117562381D01*
X153129762Y-117610000D01*
X153082143Y-117657619D01*
X152986905Y-117800476D01*
X152939286Y-117990952D01*
X152939286Y-118371905D01*
X152986905Y-118467143D01*
X153034524Y-118514762D01*
X153129762Y-118562381D01*
X153320239Y-118562381D01*
X153415477Y-118514762D01*
X153463096Y-118467143D01*
X153510715Y-118371905D01*
X153510715Y-118133810D01*
X153463096Y-118038571D01*
X153415477Y-117990952D01*
X153320239Y-117943333D01*
X153129762Y-117943333D01*
X153034524Y-117990952D01*
X152986905Y-118038571D01*
X152939286Y-118133810D01*
X116023095Y-120086429D02*
X116785000Y-120086429D01*
X116404048Y-120467381D02*
X116404048Y-119705476D01*
X117737381Y-119467381D02*
X117261190Y-119467381D01*
X117213571Y-119943571D01*
X117261190Y-119895952D01*
X117356428Y-119848333D01*
X117594524Y-119848333D01*
X117689762Y-119895952D01*
X117737381Y-119943571D01*
X117785000Y-120038810D01*
X117785000Y-120276905D01*
X117737381Y-120372143D01*
X117689762Y-120419762D01*
X117594524Y-120467381D01*
X117356428Y-120467381D01*
X117261190Y-120419762D01*
X117213571Y-120372143D01*
X118070714Y-119467381D02*
X118404047Y-120467381D01*
X118737381Y-119467381D01*
X120356429Y-119515000D02*
X120261191Y-119467381D01*
X120118334Y-119467381D01*
X119975476Y-119515000D01*
X119880238Y-119610238D01*
X119832619Y-119705476D01*
X119785000Y-119895952D01*
X119785000Y-120038810D01*
X119832619Y-120229286D01*
X119880238Y-120324524D01*
X119975476Y-120419762D01*
X120118334Y-120467381D01*
X120213572Y-120467381D01*
X120356429Y-120419762D01*
X120404048Y-120372143D01*
X120404048Y-120038810D01*
X120213572Y-120038810D01*
X120832619Y-120467381D02*
X120832619Y-119467381D01*
X121404048Y-120467381D01*
X121404048Y-119467381D01*
X121880238Y-120467381D02*
X121880238Y-119467381D01*
X122118333Y-119467381D01*
X122261191Y-119515000D01*
X122356429Y-119610238D01*
X122404048Y-119705476D01*
X122451667Y-119895952D01*
X122451667Y-120038810D01*
X122404048Y-120229286D01*
X122356429Y-120324524D01*
X122261191Y-120419762D01*
X122118333Y-120467381D01*
X121880238Y-120467381D01*
X123642143Y-120467381D02*
X123642143Y-119467381D01*
X123880238Y-119467381D01*
X124023096Y-119515000D01*
X124118334Y-119610238D01*
X124165953Y-119705476D01*
X124213572Y-119895952D01*
X124213572Y-120038810D01*
X124165953Y-120229286D01*
X124118334Y-120324524D01*
X124023096Y-120419762D01*
X123880238Y-120467381D01*
X123642143Y-120467381D01*
X125070715Y-120467381D02*
X125070715Y-119943571D01*
X125023096Y-119848333D01*
X124927858Y-119800714D01*
X124737381Y-119800714D01*
X124642143Y-119848333D01*
X125070715Y-120419762D02*
X124975477Y-120467381D01*
X124737381Y-120467381D01*
X124642143Y-120419762D01*
X124594524Y-120324524D01*
X124594524Y-120229286D01*
X124642143Y-120134048D01*
X124737381Y-120086429D01*
X124975477Y-120086429D01*
X125070715Y-120038810D01*
X125404048Y-119800714D02*
X125785000Y-119800714D01*
X125546905Y-119467381D02*
X125546905Y-120324524D01*
X125594524Y-120419762D01*
X125689762Y-120467381D01*
X125785000Y-120467381D01*
X126546906Y-120467381D02*
X126546906Y-119943571D01*
X126499287Y-119848333D01*
X126404049Y-119800714D01*
X126213572Y-119800714D01*
X126118334Y-119848333D01*
X126546906Y-120419762D02*
X126451668Y-120467381D01*
X126213572Y-120467381D01*
X126118334Y-120419762D01*
X126070715Y-120324524D01*
X126070715Y-120229286D01*
X126118334Y-120134048D01*
X126213572Y-120086429D01*
X126451668Y-120086429D01*
X126546906Y-120038810D01*
X162544524Y-126436429D02*
X163306429Y-126436429D01*
X162925477Y-126817381D02*
X162925477Y-126055476D01*
X164258810Y-125817381D02*
X163782619Y-125817381D01*
X163735000Y-126293571D01*
X163782619Y-126245952D01*
X163877857Y-126198333D01*
X164115953Y-126198333D01*
X164211191Y-126245952D01*
X164258810Y-126293571D01*
X164306429Y-126388810D01*
X164306429Y-126626905D01*
X164258810Y-126722143D01*
X164211191Y-126769762D01*
X164115953Y-126817381D01*
X163877857Y-126817381D01*
X163782619Y-126769762D01*
X163735000Y-126722143D01*
X164592143Y-125817381D02*
X164925476Y-126817381D01*
X165258810Y-125817381D01*
X166877858Y-125865000D02*
X166782620Y-125817381D01*
X166639763Y-125817381D01*
X166496905Y-125865000D01*
X166401667Y-125960238D01*
X166354048Y-126055476D01*
X166306429Y-126245952D01*
X166306429Y-126388810D01*
X166354048Y-126579286D01*
X166401667Y-126674524D01*
X166496905Y-126769762D01*
X166639763Y-126817381D01*
X166735001Y-126817381D01*
X166877858Y-126769762D01*
X166925477Y-126722143D01*
X166925477Y-126388810D01*
X166735001Y-126388810D01*
X167354048Y-126817381D02*
X167354048Y-125817381D01*
X167925477Y-126817381D01*
X167925477Y-125817381D01*
X168401667Y-126817381D02*
X168401667Y-125817381D01*
X168639762Y-125817381D01*
X168782620Y-125865000D01*
X168877858Y-125960238D01*
X168925477Y-126055476D01*
X168973096Y-126245952D01*
X168973096Y-126388810D01*
X168925477Y-126579286D01*
X168877858Y-126674524D01*
X168782620Y-126769762D01*
X168639762Y-126817381D01*
X168401667Y-126817381D01*
D13*
X139700000Y-82550000D02*
X158750000Y-82550000D01*
X158750000Y-82550000D02*
X158750000Y-127000000D01*
X158750000Y-127000000D02*
X139700000Y-127000000D01*
X139700000Y-127000000D02*
X139700000Y-82550000D01*
X142240000Y-125095000D02*
G75*
G03X142240000Y-125095000I-635000J0D01*
G01*
X157480000Y-125095000D02*
G75*
G03X157480000Y-125095000I-635000J0D01*
G01*
X142240000Y-84455000D02*
G75*
G03X142240000Y-84455000I-635000J0D01*
G01*
X157480000Y-84455000D02*
G75*
G03X157480000Y-84455000I-635000J0D01*
G01*
X147320000Y-84455000D02*
G75*
G03X147320000Y-84455000I-635000J0D01*
G01*
X147320000Y-86995000D02*
G75*
G03X147320000Y-86995000I-635000J0D01*
G01*
X152400000Y-86995000D02*
G75*
G03X152400000Y-86995000I-635000J0D01*
G01*
X152400000Y-84455000D02*
G75*
G03X152400000Y-84455000I-635000J0D01*
G01*
X149860000Y-84455000D02*
G75*
G03X149860000Y-84455000I-635000J0D01*
G01*
X149860000Y-86995000D02*
G75*
G03X149860000Y-86995000I-635000J0D01*
G01*
X151765000Y-123190000D02*
X146685000Y-123190000D01*
X146685000Y-127635000D02*
X151765000Y-127635000D01*
X146685000Y-127635000D02*
X146685000Y-123190000D01*
X151765000Y-123190000D02*
X151765000Y-127635000D01*
X127625000Y-83910000D02*
X127625000Y-89860000D01*
X127625000Y-89860000D02*
X137725000Y-89860000D01*
X137725000Y-89860000D02*
X137725000Y-83910000D01*
X137725000Y-83910000D02*
X127625000Y-83910000D01*
X130925000Y-83910000D02*
X130925000Y-84660000D01*
X130925000Y-84660000D02*
X134425000Y-84660000D01*
X134425000Y-84660000D02*
X134425000Y-83910000D01*
X134425000Y-83910000D02*
X130925000Y-83910000D01*
X127625000Y-83910000D02*
X127625000Y-84660000D01*
X127625000Y-84660000D02*
X129425000Y-84660000D01*
X129425000Y-84660000D02*
X129425000Y-83910000D01*
X129425000Y-83910000D02*
X127625000Y-83910000D01*
X135925000Y-83910000D02*
X135925000Y-84660000D01*
X135925000Y-84660000D02*
X137725000Y-84660000D01*
X137725000Y-84660000D02*
X137725000Y-83910000D01*
X137725000Y-83910000D02*
X135925000Y-83910000D01*
X127625000Y-86160000D02*
X128375000Y-86160000D01*
X128375000Y-86160000D02*
X128375000Y-89110000D01*
X128375000Y-89110000D02*
X132675000Y-89110000D01*
X137725000Y-86160000D02*
X136975000Y-86160000D01*
X136975000Y-86160000D02*
X136975000Y-89110000D01*
X136975000Y-89110000D02*
X132675000Y-89110000D01*
X130175000Y-83610000D02*
X129875000Y-83010000D01*
X129875000Y-83010000D02*
X130475000Y-83010000D01*
X130475000Y-83010000D02*
X130175000Y-83610000D01*
X116195000Y-83910000D02*
X116195000Y-89860000D01*
X116195000Y-89860000D02*
X126295000Y-89860000D01*
X126295000Y-89860000D02*
X126295000Y-83910000D01*
X126295000Y-83910000D02*
X116195000Y-83910000D01*
X119495000Y-83910000D02*
X119495000Y-84660000D01*
X119495000Y-84660000D02*
X122995000Y-84660000D01*
X122995000Y-84660000D02*
X122995000Y-83910000D01*
X122995000Y-83910000D02*
X119495000Y-83910000D01*
X116195000Y-83910000D02*
X116195000Y-84660000D01*
X116195000Y-84660000D02*
X117995000Y-84660000D01*
X117995000Y-84660000D02*
X117995000Y-83910000D01*
X117995000Y-83910000D02*
X116195000Y-83910000D01*
X124495000Y-83910000D02*
X124495000Y-84660000D01*
X124495000Y-84660000D02*
X126295000Y-84660000D01*
X126295000Y-84660000D02*
X126295000Y-83910000D01*
X126295000Y-83910000D02*
X124495000Y-83910000D01*
X116195000Y-86160000D02*
X116945000Y-86160000D01*
X116945000Y-86160000D02*
X116945000Y-89110000D01*
X116945000Y-89110000D02*
X121245000Y-89110000D01*
X126295000Y-86160000D02*
X125545000Y-86160000D01*
X125545000Y-86160000D02*
X125545000Y-89110000D01*
X125545000Y-89110000D02*
X121245000Y-89110000D01*
X118745000Y-83610000D02*
X118445000Y-83010000D01*
X118445000Y-83010000D02*
X119045000Y-83010000D01*
X119045000Y-83010000D02*
X118745000Y-83610000D01*
X127625000Y-92800000D02*
X127625000Y-98750000D01*
X127625000Y-98750000D02*
X137725000Y-98750000D01*
X137725000Y-98750000D02*
X137725000Y-92800000D01*
X137725000Y-92800000D02*
X127625000Y-92800000D01*
X130925000Y-92800000D02*
X130925000Y-93550000D01*
X130925000Y-93550000D02*
X134425000Y-93550000D01*
X134425000Y-93550000D02*
X134425000Y-92800000D01*
X134425000Y-92800000D02*
X130925000Y-92800000D01*
X127625000Y-92800000D02*
X127625000Y-93550000D01*
X127625000Y-93550000D02*
X129425000Y-93550000D01*
X129425000Y-93550000D02*
X129425000Y-92800000D01*
X129425000Y-92800000D02*
X127625000Y-92800000D01*
X135925000Y-92800000D02*
X135925000Y-93550000D01*
X135925000Y-93550000D02*
X137725000Y-93550000D01*
X137725000Y-93550000D02*
X137725000Y-92800000D01*
X137725000Y-92800000D02*
X135925000Y-92800000D01*
X127625000Y-95050000D02*
X128375000Y-95050000D01*
X128375000Y-95050000D02*
X128375000Y-98000000D01*
X128375000Y-98000000D02*
X132675000Y-98000000D01*
X137725000Y-95050000D02*
X136975000Y-95050000D01*
X136975000Y-95050000D02*
X136975000Y-98000000D01*
X136975000Y-98000000D02*
X132675000Y-98000000D01*
X130175000Y-92500000D02*
X129875000Y-91900000D01*
X129875000Y-91900000D02*
X130475000Y-91900000D01*
X130475000Y-91900000D02*
X130175000Y-92500000D01*
X116195000Y-92800000D02*
X116195000Y-98750000D01*
X116195000Y-98750000D02*
X126295000Y-98750000D01*
X126295000Y-98750000D02*
X126295000Y-92800000D01*
X126295000Y-92800000D02*
X116195000Y-92800000D01*
X119495000Y-92800000D02*
X119495000Y-93550000D01*
X119495000Y-93550000D02*
X122995000Y-93550000D01*
X122995000Y-93550000D02*
X122995000Y-92800000D01*
X122995000Y-92800000D02*
X119495000Y-92800000D01*
X116195000Y-92800000D02*
X116195000Y-93550000D01*
X116195000Y-93550000D02*
X117995000Y-93550000D01*
X117995000Y-93550000D02*
X117995000Y-92800000D01*
X117995000Y-92800000D02*
X116195000Y-92800000D01*
X124495000Y-92800000D02*
X124495000Y-93550000D01*
X124495000Y-93550000D02*
X126295000Y-93550000D01*
X126295000Y-93550000D02*
X126295000Y-92800000D01*
X126295000Y-92800000D02*
X124495000Y-92800000D01*
X116195000Y-95050000D02*
X116945000Y-95050000D01*
X116945000Y-95050000D02*
X116945000Y-98000000D01*
X116945000Y-98000000D02*
X121245000Y-98000000D01*
X126295000Y-95050000D02*
X125545000Y-95050000D01*
X125545000Y-95050000D02*
X125545000Y-98000000D01*
X125545000Y-98000000D02*
X121245000Y-98000000D01*
X118745000Y-92500000D02*
X118445000Y-91900000D01*
X118445000Y-91900000D02*
X119045000Y-91900000D01*
X119045000Y-91900000D02*
X118745000Y-92500000D01*
X127625000Y-101690000D02*
X127625000Y-107640000D01*
X127625000Y-107640000D02*
X137725000Y-107640000D01*
X137725000Y-107640000D02*
X137725000Y-101690000D01*
X137725000Y-101690000D02*
X127625000Y-101690000D01*
X130925000Y-101690000D02*
X130925000Y-102440000D01*
X130925000Y-102440000D02*
X134425000Y-102440000D01*
X134425000Y-102440000D02*
X134425000Y-101690000D01*
X134425000Y-101690000D02*
X130925000Y-101690000D01*
X127625000Y-101690000D02*
X127625000Y-102440000D01*
X127625000Y-102440000D02*
X129425000Y-102440000D01*
X129425000Y-102440000D02*
X129425000Y-101690000D01*
X129425000Y-101690000D02*
X127625000Y-101690000D01*
X135925000Y-101690000D02*
X135925000Y-102440000D01*
X135925000Y-102440000D02*
X137725000Y-102440000D01*
X137725000Y-102440000D02*
X137725000Y-101690000D01*
X137725000Y-101690000D02*
X135925000Y-101690000D01*
X127625000Y-103940000D02*
X128375000Y-103940000D01*
X128375000Y-103940000D02*
X128375000Y-106890000D01*
X128375000Y-106890000D02*
X132675000Y-106890000D01*
X137725000Y-103940000D02*
X136975000Y-103940000D01*
X136975000Y-103940000D02*
X136975000Y-106890000D01*
X136975000Y-106890000D02*
X132675000Y-106890000D01*
X130175000Y-101390000D02*
X129875000Y-100790000D01*
X129875000Y-100790000D02*
X130475000Y-100790000D01*
X130475000Y-100790000D02*
X130175000Y-101390000D01*
X116195000Y-101690000D02*
X116195000Y-107640000D01*
X116195000Y-107640000D02*
X126295000Y-107640000D01*
X126295000Y-107640000D02*
X126295000Y-101690000D01*
X126295000Y-101690000D02*
X116195000Y-101690000D01*
X119495000Y-101690000D02*
X119495000Y-102440000D01*
X119495000Y-102440000D02*
X122995000Y-102440000D01*
X122995000Y-102440000D02*
X122995000Y-101690000D01*
X122995000Y-101690000D02*
X119495000Y-101690000D01*
X116195000Y-101690000D02*
X116195000Y-102440000D01*
X116195000Y-102440000D02*
X117995000Y-102440000D01*
X117995000Y-102440000D02*
X117995000Y-101690000D01*
X117995000Y-101690000D02*
X116195000Y-101690000D01*
X124495000Y-101690000D02*
X124495000Y-102440000D01*
X124495000Y-102440000D02*
X126295000Y-102440000D01*
X126295000Y-102440000D02*
X126295000Y-101690000D01*
X126295000Y-101690000D02*
X124495000Y-101690000D01*
X116195000Y-103940000D02*
X116945000Y-103940000D01*
X116945000Y-103940000D02*
X116945000Y-106890000D01*
X116945000Y-106890000D02*
X121245000Y-106890000D01*
X126295000Y-103940000D02*
X125545000Y-103940000D01*
X125545000Y-103940000D02*
X125545000Y-106890000D01*
X125545000Y-106890000D02*
X121245000Y-106890000D01*
X118745000Y-101390000D02*
X118445000Y-100790000D01*
X118445000Y-100790000D02*
X119045000Y-100790000D01*
X119045000Y-100790000D02*
X118745000Y-101390000D01*
X127625000Y-110580000D02*
X127625000Y-116530000D01*
X127625000Y-116530000D02*
X137725000Y-116530000D01*
X137725000Y-116530000D02*
X137725000Y-110580000D01*
X137725000Y-110580000D02*
X127625000Y-110580000D01*
X130925000Y-110580000D02*
X130925000Y-111330000D01*
X130925000Y-111330000D02*
X134425000Y-111330000D01*
X134425000Y-111330000D02*
X134425000Y-110580000D01*
X134425000Y-110580000D02*
X130925000Y-110580000D01*
X127625000Y-110580000D02*
X127625000Y-111330000D01*
X127625000Y-111330000D02*
X129425000Y-111330000D01*
X129425000Y-111330000D02*
X129425000Y-110580000D01*
X129425000Y-110580000D02*
X127625000Y-110580000D01*
X135925000Y-110580000D02*
X135925000Y-111330000D01*
X135925000Y-111330000D02*
X137725000Y-111330000D01*
X137725000Y-111330000D02*
X137725000Y-110580000D01*
X137725000Y-110580000D02*
X135925000Y-110580000D01*
X127625000Y-112830000D02*
X128375000Y-112830000D01*
X128375000Y-112830000D02*
X128375000Y-115780000D01*
X128375000Y-115780000D02*
X132675000Y-115780000D01*
X137725000Y-112830000D02*
X136975000Y-112830000D01*
X136975000Y-112830000D02*
X136975000Y-115780000D01*
X136975000Y-115780000D02*
X132675000Y-115780000D01*
X130175000Y-110280000D02*
X129875000Y-109680000D01*
X129875000Y-109680000D02*
X130475000Y-109680000D01*
X130475000Y-109680000D02*
X130175000Y-110280000D01*
X116195000Y-110580000D02*
X116195000Y-116530000D01*
X116195000Y-116530000D02*
X126295000Y-116530000D01*
X126295000Y-116530000D02*
X126295000Y-110580000D01*
X126295000Y-110580000D02*
X116195000Y-110580000D01*
X119495000Y-110580000D02*
X119495000Y-111330000D01*
X119495000Y-111330000D02*
X122995000Y-111330000D01*
X122995000Y-111330000D02*
X122995000Y-110580000D01*
X122995000Y-110580000D02*
X119495000Y-110580000D01*
X116195000Y-110580000D02*
X116195000Y-111330000D01*
X116195000Y-111330000D02*
X117995000Y-111330000D01*
X117995000Y-111330000D02*
X117995000Y-110580000D01*
X117995000Y-110580000D02*
X116195000Y-110580000D01*
X124495000Y-110580000D02*
X124495000Y-111330000D01*
X124495000Y-111330000D02*
X126295000Y-111330000D01*
X126295000Y-111330000D02*
X126295000Y-110580000D01*
X126295000Y-110580000D02*
X124495000Y-110580000D01*
X116195000Y-112830000D02*
X116945000Y-112830000D01*
X116945000Y-112830000D02*
X116945000Y-115780000D01*
X116945000Y-115780000D02*
X121245000Y-115780000D01*
X126295000Y-112830000D02*
X125545000Y-112830000D01*
X125545000Y-112830000D02*
X125545000Y-115780000D01*
X125545000Y-115780000D02*
X121245000Y-115780000D01*
X118745000Y-110280000D02*
X118445000Y-109680000D01*
X118445000Y-109680000D02*
X119045000Y-109680000D01*
X119045000Y-109680000D02*
X118745000Y-110280000D01*
X135255000Y-122555000D02*
X132715000Y-122555000D01*
X138075000Y-122835000D02*
X136525000Y-122835000D01*
X135255000Y-122555000D02*
X135255000Y-120015000D01*
X136525000Y-119735000D02*
X138075000Y-119735000D01*
X138075000Y-119735000D02*
X138075000Y-122835000D01*
X135255000Y-120015000D02*
X132715000Y-120015000D01*
X132715000Y-120015000D02*
X132715000Y-122555000D01*
X160645000Y-110580000D02*
X160645000Y-116530000D01*
X160645000Y-116530000D02*
X170745000Y-116530000D01*
X170745000Y-116530000D02*
X170745000Y-110580000D01*
X170745000Y-110580000D02*
X160645000Y-110580000D01*
X163945000Y-110580000D02*
X163945000Y-111330000D01*
X163945000Y-111330000D02*
X167445000Y-111330000D01*
X167445000Y-111330000D02*
X167445000Y-110580000D01*
X167445000Y-110580000D02*
X163945000Y-110580000D01*
X160645000Y-110580000D02*
X160645000Y-111330000D01*
X160645000Y-111330000D02*
X162445000Y-111330000D01*
X162445000Y-111330000D02*
X162445000Y-110580000D01*
X162445000Y-110580000D02*
X160645000Y-110580000D01*
X168945000Y-110580000D02*
X168945000Y-111330000D01*
X168945000Y-111330000D02*
X170745000Y-111330000D01*
X170745000Y-111330000D02*
X170745000Y-110580000D01*
X170745000Y-110580000D02*
X168945000Y-110580000D01*
X160645000Y-112830000D02*
X161395000Y-112830000D01*
X161395000Y-112830000D02*
X161395000Y-115780000D01*
X161395000Y-115780000D02*
X165695000Y-115780000D01*
X170745000Y-112830000D02*
X169995000Y-112830000D01*
X169995000Y-112830000D02*
X169995000Y-115780000D01*
X169995000Y-115780000D02*
X165695000Y-115780000D01*
X163195000Y-110280000D02*
X162895000Y-109680000D01*
X162895000Y-109680000D02*
X163495000Y-109680000D01*
X163495000Y-109680000D02*
X163195000Y-110280000D01*
X160645000Y-101690000D02*
X160645000Y-107640000D01*
X160645000Y-107640000D02*
X170745000Y-107640000D01*
X170745000Y-107640000D02*
X170745000Y-101690000D01*
X170745000Y-101690000D02*
X160645000Y-101690000D01*
X163945000Y-101690000D02*
X163945000Y-102440000D01*
X163945000Y-102440000D02*
X167445000Y-102440000D01*
X167445000Y-102440000D02*
X167445000Y-101690000D01*
X167445000Y-101690000D02*
X163945000Y-101690000D01*
X160645000Y-101690000D02*
X160645000Y-102440000D01*
X160645000Y-102440000D02*
X162445000Y-102440000D01*
X162445000Y-102440000D02*
X162445000Y-101690000D01*
X162445000Y-101690000D02*
X160645000Y-101690000D01*
X168945000Y-101690000D02*
X168945000Y-102440000D01*
X168945000Y-102440000D02*
X170745000Y-102440000D01*
X170745000Y-102440000D02*
X170745000Y-101690000D01*
X170745000Y-101690000D02*
X168945000Y-101690000D01*
X160645000Y-103940000D02*
X161395000Y-103940000D01*
X161395000Y-103940000D02*
X161395000Y-106890000D01*
X161395000Y-106890000D02*
X165695000Y-106890000D01*
X170745000Y-103940000D02*
X169995000Y-103940000D01*
X169995000Y-103940000D02*
X169995000Y-106890000D01*
X169995000Y-106890000D02*
X165695000Y-106890000D01*
X163195000Y-101390000D02*
X162895000Y-100790000D01*
X162895000Y-100790000D02*
X163495000Y-100790000D01*
X163495000Y-100790000D02*
X163195000Y-101390000D01*
X160645000Y-92800000D02*
X160645000Y-98750000D01*
X160645000Y-98750000D02*
X170745000Y-98750000D01*
X170745000Y-98750000D02*
X170745000Y-92800000D01*
X170745000Y-92800000D02*
X160645000Y-92800000D01*
X163945000Y-92800000D02*
X163945000Y-93550000D01*
X163945000Y-93550000D02*
X167445000Y-93550000D01*
X167445000Y-93550000D02*
X167445000Y-92800000D01*
X167445000Y-92800000D02*
X163945000Y-92800000D01*
X160645000Y-92800000D02*
X160645000Y-93550000D01*
X160645000Y-93550000D02*
X162445000Y-93550000D01*
X162445000Y-93550000D02*
X162445000Y-92800000D01*
X162445000Y-92800000D02*
X160645000Y-92800000D01*
X168945000Y-92800000D02*
X168945000Y-93550000D01*
X168945000Y-93550000D02*
X170745000Y-93550000D01*
X170745000Y-93550000D02*
X170745000Y-92800000D01*
X170745000Y-92800000D02*
X168945000Y-92800000D01*
X160645000Y-95050000D02*
X161395000Y-95050000D01*
X161395000Y-95050000D02*
X161395000Y-98000000D01*
X161395000Y-98000000D02*
X165695000Y-98000000D01*
X170745000Y-95050000D02*
X169995000Y-95050000D01*
X169995000Y-95050000D02*
X169995000Y-98000000D01*
X169995000Y-98000000D02*
X165695000Y-98000000D01*
X163195000Y-92500000D02*
X162895000Y-91900000D01*
X162895000Y-91900000D02*
X163495000Y-91900000D01*
X163495000Y-91900000D02*
X163195000Y-92500000D01*
X160645000Y-83910000D02*
X160645000Y-89860000D01*
X160645000Y-89860000D02*
X170745000Y-89860000D01*
X170745000Y-89860000D02*
X170745000Y-83910000D01*
X170745000Y-83910000D02*
X160645000Y-83910000D01*
X163945000Y-83910000D02*
X163945000Y-84660000D01*
X163945000Y-84660000D02*
X167445000Y-84660000D01*
X167445000Y-84660000D02*
X167445000Y-83910000D01*
X167445000Y-83910000D02*
X163945000Y-83910000D01*
X160645000Y-83910000D02*
X160645000Y-84660000D01*
X160645000Y-84660000D02*
X162445000Y-84660000D01*
X162445000Y-84660000D02*
X162445000Y-83910000D01*
X162445000Y-83910000D02*
X160645000Y-83910000D01*
X168945000Y-83910000D02*
X168945000Y-84660000D01*
X168945000Y-84660000D02*
X170745000Y-84660000D01*
X170745000Y-84660000D02*
X170745000Y-83910000D01*
X170745000Y-83910000D02*
X168945000Y-83910000D01*
X160645000Y-86160000D02*
X161395000Y-86160000D01*
X161395000Y-86160000D02*
X161395000Y-89110000D01*
X161395000Y-89110000D02*
X165695000Y-89110000D01*
X170745000Y-86160000D02*
X169995000Y-86160000D01*
X169995000Y-86160000D02*
X169995000Y-89110000D01*
X169995000Y-89110000D02*
X165695000Y-89110000D01*
X163195000Y-83610000D02*
X162895000Y-83010000D01*
X162895000Y-83010000D02*
X163495000Y-83010000D01*
X163495000Y-83010000D02*
X163195000Y-83610000D01*
X170815000Y-125730000D02*
X160655000Y-125730000D01*
X170815000Y-127000000D02*
X170815000Y-119380000D01*
X170815000Y-119380000D02*
X160655000Y-119380000D01*
X160655000Y-119380000D02*
X160655000Y-127000000D01*
X160655000Y-127000000D02*
X170815000Y-127000000D01*
X150893780Y-114449860D02*
X151254460Y-115920520D01*
X151254460Y-115920520D02*
X151533860Y-114858800D01*
X151533860Y-114858800D02*
X151843740Y-115930680D01*
X151843740Y-115930680D02*
X152184100Y-114480340D01*
X149473920Y-115140740D02*
X150263860Y-115130580D01*
X150263860Y-115130580D02*
X150274020Y-115140740D01*
X150274020Y-115140740D02*
X150274020Y-115130580D01*
X150314660Y-114419380D02*
X150314660Y-115961160D01*
X149425660Y-114409220D02*
X149425660Y-115978940D01*
X149425660Y-115978940D02*
X149435820Y-115968780D01*
X148874480Y-114510820D02*
X148523960Y-114429540D01*
X148523960Y-114429540D02*
X148203920Y-114419380D01*
X148203920Y-114419380D02*
X147965160Y-114620040D01*
X147965160Y-114620040D02*
X147934680Y-114889280D01*
X147934680Y-114889280D02*
X148175980Y-115130580D01*
X148175980Y-115130580D02*
X148564600Y-115260120D01*
X148564600Y-115260120D02*
X148744940Y-115420140D01*
X148744940Y-115420140D02*
X148785580Y-115719860D01*
X148785580Y-115719860D02*
X148554440Y-115940840D01*
X148554440Y-115940840D02*
X148234400Y-115968780D01*
X148234400Y-115968780D02*
X147883880Y-115859560D01*
X146845020Y-114409220D02*
X146596100Y-114429540D01*
X146596100Y-114429540D02*
X146354800Y-114670840D01*
X146354800Y-114670840D02*
X146265900Y-115161060D01*
X146265900Y-115161060D02*
X146293840Y-115509040D01*
X146293840Y-115509040D02*
X146494500Y-115829080D01*
X146494500Y-115829080D02*
X146745960Y-115951000D01*
X146745960Y-115951000D02*
X147055840Y-115879880D01*
X147055840Y-115879880D02*
X147274280Y-115699540D01*
X147274280Y-115699540D02*
X147345400Y-115239800D01*
X147345400Y-115239800D02*
X147294600Y-114830860D01*
X147294600Y-114830860D02*
X147185380Y-114548920D01*
X147185380Y-114548920D02*
X146824700Y-114419380D01*
X147444460Y-112689640D02*
X147185380Y-113250980D01*
X147185380Y-113250980D02*
X147723860Y-113769140D01*
X147723860Y-113769140D02*
X148244560Y-113499900D01*
X148244560Y-113499900D02*
X148523960Y-113659920D01*
X149964140Y-113639600D02*
X150294340Y-113449100D01*
X150294340Y-113449100D02*
X150733760Y-113779300D01*
X150733760Y-113779300D02*
X151206200Y-113289080D01*
X151206200Y-113289080D02*
X150924260Y-112809020D01*
X150924260Y-112809020D02*
X151114760Y-112339120D01*
X151114760Y-112339120D02*
X151724360Y-112151160D01*
X151724360Y-112151160D02*
X151724360Y-111470440D01*
X151724360Y-111470440D02*
X151165560Y-111330740D01*
X151165560Y-111330740D02*
X150964900Y-110759240D01*
X150964900Y-110759240D02*
X151234140Y-110289340D01*
X151234140Y-110289340D02*
X150764240Y-109778800D01*
X150764240Y-109778800D02*
X150246080Y-110040420D01*
X150246080Y-110040420D02*
X149776180Y-109839760D01*
X149776180Y-109839760D02*
X149606000Y-109298740D01*
X149606000Y-109298740D02*
X148915120Y-109280960D01*
X148915120Y-109280960D02*
X148704300Y-109829600D01*
X148704300Y-109829600D02*
X148285200Y-109999780D01*
X148285200Y-109999780D02*
X147734020Y-109730540D01*
X147734020Y-109730540D02*
X147215860Y-110258860D01*
X147215860Y-110258860D02*
X147464780Y-110799880D01*
X147464780Y-110799880D02*
X147294600Y-111279940D01*
X147294600Y-111279940D02*
X146745960Y-111379000D01*
X146745960Y-111379000D02*
X146735800Y-112080040D01*
X146735800Y-112080040D02*
X147294600Y-112280700D01*
X147294600Y-112280700D02*
X147434300Y-112679480D01*
X149575520Y-112659160D02*
X149875240Y-112509300D01*
X149875240Y-112509300D02*
X150075900Y-112311180D01*
X150075900Y-112311180D02*
X150225760Y-111909860D01*
X150225760Y-111909860D02*
X150225760Y-111511080D01*
X150225760Y-111511080D02*
X150075900Y-111160560D01*
X150075900Y-111160560D02*
X149623780Y-110810040D01*
X149623780Y-110810040D02*
X149174200Y-110759240D01*
X149174200Y-110759240D02*
X148775420Y-110860840D01*
X148775420Y-110860840D02*
X148374100Y-111208820D01*
X148374100Y-111208820D02*
X148224240Y-111660940D01*
X148224240Y-111660940D02*
X148275040Y-112158780D01*
X148275040Y-112158780D02*
X148523960Y-112461040D01*
X148523960Y-112461040D02*
X148874480Y-112659160D01*
X148874480Y-112659160D02*
X148523960Y-113659920D01*
X149575520Y-112659160D02*
X149974300Y-113659920D01*
X148582143Y-124880714D02*
X148582143Y-125547381D01*
X148153571Y-124880714D02*
X148153571Y-125404524D01*
X148201190Y-125499762D01*
X148296428Y-125547381D01*
X148439286Y-125547381D01*
X148534524Y-125499762D01*
X148582143Y-125452143D01*
X149010714Y-125499762D02*
X149105952Y-125547381D01*
X149296428Y-125547381D01*
X149391667Y-125499762D01*
X149439286Y-125404524D01*
X149439286Y-125356905D01*
X149391667Y-125261667D01*
X149296428Y-125214048D01*
X149153571Y-125214048D01*
X149058333Y-125166429D01*
X149010714Y-125071190D01*
X149010714Y-125023571D01*
X149058333Y-124928333D01*
X149153571Y-124880714D01*
X149296428Y-124880714D01*
X149391667Y-124928333D01*
X149867857Y-125547381D02*
X149867857Y-124547381D01*
X149867857Y-124928333D02*
X149963095Y-124880714D01*
X150153572Y-124880714D01*
X150248810Y-124928333D01*
X150296429Y-124975952D01*
X150344048Y-125071190D01*
X150344048Y-125356905D01*
X150296429Y-125452143D01*
X150248810Y-125499762D01*
X150153572Y-125547381D01*
X149963095Y-125547381D01*
X149867857Y-125499762D01*
X130595952Y-91257381D02*
X130595952Y-90257381D01*
X131072142Y-90590714D02*
X131072142Y-91257381D01*
X131072142Y-90685952D02*
X131119761Y-90638333D01*
X131214999Y-90590714D01*
X131357857Y-90590714D01*
X131453095Y-90638333D01*
X131500714Y-90733571D01*
X131500714Y-91257381D01*
X131976904Y-90590714D02*
X131976904Y-91590714D01*
X131976904Y-90638333D02*
X132072142Y-90590714D01*
X132262619Y-90590714D01*
X132357857Y-90638333D01*
X132405476Y-90685952D01*
X132453095Y-90781190D01*
X132453095Y-91066905D01*
X132405476Y-91162143D01*
X132357857Y-91209762D01*
X132262619Y-91257381D01*
X132072142Y-91257381D01*
X131976904Y-91209762D01*
X133310238Y-90590714D02*
X133310238Y-91257381D01*
X132881666Y-90590714D02*
X132881666Y-91114524D01*
X132929285Y-91209762D01*
X133024523Y-91257381D01*
X133167381Y-91257381D01*
X133262619Y-91209762D01*
X133310238Y-91162143D01*
X133643571Y-90590714D02*
X134024523Y-90590714D01*
X133786428Y-90257381D02*
X133786428Y-91114524D01*
X133834047Y-91209762D01*
X133929285Y-91257381D01*
X134024523Y-91257381D01*
X134548333Y-90257381D02*
X134643572Y-90257381D01*
X134738810Y-90305000D01*
X134786429Y-90352619D01*
X134834048Y-90447857D01*
X134881667Y-90638333D01*
X134881667Y-90876429D01*
X134834048Y-91066905D01*
X134786429Y-91162143D01*
X134738810Y-91209762D01*
X134643572Y-91257381D01*
X134548333Y-91257381D01*
X134453095Y-91209762D01*
X134405476Y-91162143D01*
X134357857Y-91066905D01*
X134310238Y-90876429D01*
X134310238Y-90638333D01*
X134357857Y-90447857D01*
X134405476Y-90352619D01*
X134453095Y-90305000D01*
X134548333Y-90257381D01*
X119165952Y-91257381D02*
X119165952Y-90257381D01*
X119642142Y-90590714D02*
X119642142Y-91257381D01*
X119642142Y-90685952D02*
X119689761Y-90638333D01*
X119784999Y-90590714D01*
X119927857Y-90590714D01*
X120023095Y-90638333D01*
X120070714Y-90733571D01*
X120070714Y-91257381D01*
X120546904Y-90590714D02*
X120546904Y-91590714D01*
X120546904Y-90638333D02*
X120642142Y-90590714D01*
X120832619Y-90590714D01*
X120927857Y-90638333D01*
X120975476Y-90685952D01*
X121023095Y-90781190D01*
X121023095Y-91066905D01*
X120975476Y-91162143D01*
X120927857Y-91209762D01*
X120832619Y-91257381D01*
X120642142Y-91257381D01*
X120546904Y-91209762D01*
X121880238Y-90590714D02*
X121880238Y-91257381D01*
X121451666Y-90590714D02*
X121451666Y-91114524D01*
X121499285Y-91209762D01*
X121594523Y-91257381D01*
X121737381Y-91257381D01*
X121832619Y-91209762D01*
X121880238Y-91162143D01*
X122213571Y-90590714D02*
X122594523Y-90590714D01*
X122356428Y-90257381D02*
X122356428Y-91114524D01*
X122404047Y-91209762D01*
X122499285Y-91257381D01*
X122594523Y-91257381D01*
X123451667Y-91257381D02*
X122880238Y-91257381D01*
X123165952Y-91257381D02*
X123165952Y-90257381D01*
X123070714Y-90400238D01*
X122975476Y-90495476D01*
X122880238Y-90543095D01*
X130595952Y-100147381D02*
X130595952Y-99147381D01*
X131072142Y-99480714D02*
X131072142Y-100147381D01*
X131072142Y-99575952D02*
X131119761Y-99528333D01*
X131214999Y-99480714D01*
X131357857Y-99480714D01*
X131453095Y-99528333D01*
X131500714Y-99623571D01*
X131500714Y-100147381D01*
X131976904Y-99480714D02*
X131976904Y-100480714D01*
X131976904Y-99528333D02*
X132072142Y-99480714D01*
X132262619Y-99480714D01*
X132357857Y-99528333D01*
X132405476Y-99575952D01*
X132453095Y-99671190D01*
X132453095Y-99956905D01*
X132405476Y-100052143D01*
X132357857Y-100099762D01*
X132262619Y-100147381D01*
X132072142Y-100147381D01*
X131976904Y-100099762D01*
X133310238Y-99480714D02*
X133310238Y-100147381D01*
X132881666Y-99480714D02*
X132881666Y-100004524D01*
X132929285Y-100099762D01*
X133024523Y-100147381D01*
X133167381Y-100147381D01*
X133262619Y-100099762D01*
X133310238Y-100052143D01*
X133643571Y-99480714D02*
X134024523Y-99480714D01*
X133786428Y-99147381D02*
X133786428Y-100004524D01*
X133834047Y-100099762D01*
X133929285Y-100147381D01*
X134024523Y-100147381D01*
X134310238Y-99242619D02*
X134357857Y-99195000D01*
X134453095Y-99147381D01*
X134691191Y-99147381D01*
X134786429Y-99195000D01*
X134834048Y-99242619D01*
X134881667Y-99337857D01*
X134881667Y-99433095D01*
X134834048Y-99575952D01*
X134262619Y-100147381D01*
X134881667Y-100147381D01*
X119165952Y-100147381D02*
X119165952Y-99147381D01*
X119642142Y-99480714D02*
X119642142Y-100147381D01*
X119642142Y-99575952D02*
X119689761Y-99528333D01*
X119784999Y-99480714D01*
X119927857Y-99480714D01*
X120023095Y-99528333D01*
X120070714Y-99623571D01*
X120070714Y-100147381D01*
X120546904Y-99480714D02*
X120546904Y-100480714D01*
X120546904Y-99528333D02*
X120642142Y-99480714D01*
X120832619Y-99480714D01*
X120927857Y-99528333D01*
X120975476Y-99575952D01*
X121023095Y-99671190D01*
X121023095Y-99956905D01*
X120975476Y-100052143D01*
X120927857Y-100099762D01*
X120832619Y-100147381D01*
X120642142Y-100147381D01*
X120546904Y-100099762D01*
X121880238Y-99480714D02*
X121880238Y-100147381D01*
X121451666Y-99480714D02*
X121451666Y-100004524D01*
X121499285Y-100099762D01*
X121594523Y-100147381D01*
X121737381Y-100147381D01*
X121832619Y-100099762D01*
X121880238Y-100052143D01*
X122213571Y-99480714D02*
X122594523Y-99480714D01*
X122356428Y-99147381D02*
X122356428Y-100004524D01*
X122404047Y-100099762D01*
X122499285Y-100147381D01*
X122594523Y-100147381D01*
X122832619Y-99147381D02*
X123451667Y-99147381D01*
X123118333Y-99528333D01*
X123261191Y-99528333D01*
X123356429Y-99575952D01*
X123404048Y-99623571D01*
X123451667Y-99718810D01*
X123451667Y-99956905D01*
X123404048Y-100052143D01*
X123356429Y-100099762D01*
X123261191Y-100147381D01*
X122975476Y-100147381D01*
X122880238Y-100099762D01*
X122832619Y-100052143D01*
X130595952Y-109037381D02*
X130595952Y-108037381D01*
X131072142Y-108370714D02*
X131072142Y-109037381D01*
X131072142Y-108465952D02*
X131119761Y-108418333D01*
X131214999Y-108370714D01*
X131357857Y-108370714D01*
X131453095Y-108418333D01*
X131500714Y-108513571D01*
X131500714Y-109037381D01*
X131976904Y-108370714D02*
X131976904Y-109370714D01*
X131976904Y-108418333D02*
X132072142Y-108370714D01*
X132262619Y-108370714D01*
X132357857Y-108418333D01*
X132405476Y-108465952D01*
X132453095Y-108561190D01*
X132453095Y-108846905D01*
X132405476Y-108942143D01*
X132357857Y-108989762D01*
X132262619Y-109037381D01*
X132072142Y-109037381D01*
X131976904Y-108989762D01*
X133310238Y-108370714D02*
X133310238Y-109037381D01*
X132881666Y-108370714D02*
X132881666Y-108894524D01*
X132929285Y-108989762D01*
X133024523Y-109037381D01*
X133167381Y-109037381D01*
X133262619Y-108989762D01*
X133310238Y-108942143D01*
X133643571Y-108370714D02*
X134024523Y-108370714D01*
X133786428Y-108037381D02*
X133786428Y-108894524D01*
X133834047Y-108989762D01*
X133929285Y-109037381D01*
X134024523Y-109037381D01*
X134786429Y-108370714D02*
X134786429Y-109037381D01*
X134548333Y-107989762D02*
X134310238Y-108704048D01*
X134929286Y-108704048D01*
X119165952Y-109037381D02*
X119165952Y-108037381D01*
X119642142Y-108370714D02*
X119642142Y-109037381D01*
X119642142Y-108465952D02*
X119689761Y-108418333D01*
X119784999Y-108370714D01*
X119927857Y-108370714D01*
X120023095Y-108418333D01*
X120070714Y-108513571D01*
X120070714Y-109037381D01*
X120546904Y-108370714D02*
X120546904Y-109370714D01*
X120546904Y-108418333D02*
X120642142Y-108370714D01*
X120832619Y-108370714D01*
X120927857Y-108418333D01*
X120975476Y-108465952D01*
X121023095Y-108561190D01*
X121023095Y-108846905D01*
X120975476Y-108942143D01*
X120927857Y-108989762D01*
X120832619Y-109037381D01*
X120642142Y-109037381D01*
X120546904Y-108989762D01*
X121880238Y-108370714D02*
X121880238Y-109037381D01*
X121451666Y-108370714D02*
X121451666Y-108894524D01*
X121499285Y-108989762D01*
X121594523Y-109037381D01*
X121737381Y-109037381D01*
X121832619Y-108989762D01*
X121880238Y-108942143D01*
X122213571Y-108370714D02*
X122594523Y-108370714D01*
X122356428Y-108037381D02*
X122356428Y-108894524D01*
X122404047Y-108989762D01*
X122499285Y-109037381D01*
X122594523Y-109037381D01*
X123404048Y-108037381D02*
X122927857Y-108037381D01*
X122880238Y-108513571D01*
X122927857Y-108465952D01*
X123023095Y-108418333D01*
X123261191Y-108418333D01*
X123356429Y-108465952D01*
X123404048Y-108513571D01*
X123451667Y-108608810D01*
X123451667Y-108846905D01*
X123404048Y-108942143D01*
X123356429Y-108989762D01*
X123261191Y-109037381D01*
X123023095Y-109037381D01*
X122927857Y-108989762D01*
X122880238Y-108942143D01*
X130595952Y-117927381D02*
X130595952Y-116927381D01*
X131072142Y-117260714D02*
X131072142Y-117927381D01*
X131072142Y-117355952D02*
X131119761Y-117308333D01*
X131214999Y-117260714D01*
X131357857Y-117260714D01*
X131453095Y-117308333D01*
X131500714Y-117403571D01*
X131500714Y-117927381D01*
X131976904Y-117260714D02*
X131976904Y-118260714D01*
X131976904Y-117308333D02*
X132072142Y-117260714D01*
X132262619Y-117260714D01*
X132357857Y-117308333D01*
X132405476Y-117355952D01*
X132453095Y-117451190D01*
X132453095Y-117736905D01*
X132405476Y-117832143D01*
X132357857Y-117879762D01*
X132262619Y-117927381D01*
X132072142Y-117927381D01*
X131976904Y-117879762D01*
X133310238Y-117260714D02*
X133310238Y-117927381D01*
X132881666Y-117260714D02*
X132881666Y-117784524D01*
X132929285Y-117879762D01*
X133024523Y-117927381D01*
X133167381Y-117927381D01*
X133262619Y-117879762D01*
X133310238Y-117832143D01*
X133643571Y-117260714D02*
X134024523Y-117260714D01*
X133786428Y-116927381D02*
X133786428Y-117784524D01*
X133834047Y-117879762D01*
X133929285Y-117927381D01*
X134024523Y-117927381D01*
X134786429Y-116927381D02*
X134595952Y-116927381D01*
X134500714Y-116975000D01*
X134453095Y-117022619D01*
X134357857Y-117165476D01*
X134310238Y-117355952D01*
X134310238Y-117736905D01*
X134357857Y-117832143D01*
X134405476Y-117879762D01*
X134500714Y-117927381D01*
X134691191Y-117927381D01*
X134786429Y-117879762D01*
X134834048Y-117832143D01*
X134881667Y-117736905D01*
X134881667Y-117498810D01*
X134834048Y-117403571D01*
X134786429Y-117355952D01*
X134691191Y-117308333D01*
X134500714Y-117308333D01*
X134405476Y-117355952D01*
X134357857Y-117403571D01*
X134310238Y-117498810D01*
X119165952Y-117927381D02*
X119165952Y-116927381D01*
X119642142Y-117260714D02*
X119642142Y-117927381D01*
X119642142Y-117355952D02*
X119689761Y-117308333D01*
X119784999Y-117260714D01*
X119927857Y-117260714D01*
X120023095Y-117308333D01*
X120070714Y-117403571D01*
X120070714Y-117927381D01*
X120546904Y-117260714D02*
X120546904Y-118260714D01*
X120546904Y-117308333D02*
X120642142Y-117260714D01*
X120832619Y-117260714D01*
X120927857Y-117308333D01*
X120975476Y-117355952D01*
X121023095Y-117451190D01*
X121023095Y-117736905D01*
X120975476Y-117832143D01*
X120927857Y-117879762D01*
X120832619Y-117927381D01*
X120642142Y-117927381D01*
X120546904Y-117879762D01*
X121880238Y-117260714D02*
X121880238Y-117927381D01*
X121451666Y-117260714D02*
X121451666Y-117784524D01*
X121499285Y-117879762D01*
X121594523Y-117927381D01*
X121737381Y-117927381D01*
X121832619Y-117879762D01*
X121880238Y-117832143D01*
X122213571Y-117260714D02*
X122594523Y-117260714D01*
X122356428Y-116927381D02*
X122356428Y-117784524D01*
X122404047Y-117879762D01*
X122499285Y-117927381D01*
X122594523Y-117927381D01*
X122832619Y-116927381D02*
X123499286Y-116927381D01*
X123070714Y-117927381D01*
X141077381Y-122118333D02*
X141791667Y-122118333D01*
X141934524Y-122165953D01*
X142029762Y-122261191D01*
X142077381Y-122404048D01*
X142077381Y-122499286D01*
X142077381Y-121642143D02*
X141077381Y-121642143D01*
X141077381Y-121261190D01*
X141125000Y-121165952D01*
X141172619Y-121118333D01*
X141267857Y-121070714D01*
X141410714Y-121070714D01*
X141505952Y-121118333D01*
X141553571Y-121165952D01*
X141601190Y-121261190D01*
X141601190Y-121642143D01*
X142077381Y-120118333D02*
X142077381Y-120689762D01*
X142077381Y-120404048D02*
X141077381Y-120404048D01*
X141220238Y-120499286D01*
X141315476Y-120594524D01*
X141363095Y-120689762D01*
X163234999Y-116927381D02*
X163425476Y-116927381D01*
X163520714Y-116975000D01*
X163615952Y-117070238D01*
X163663571Y-117260714D01*
X163663571Y-117594048D01*
X163615952Y-117784524D01*
X163520714Y-117879762D01*
X163425476Y-117927381D01*
X163234999Y-117927381D01*
X163139761Y-117879762D01*
X163044523Y-117784524D01*
X162996904Y-117594048D01*
X162996904Y-117260714D01*
X163044523Y-117070238D01*
X163139761Y-116975000D01*
X163234999Y-116927381D01*
X164520714Y-117260714D02*
X164520714Y-117927381D01*
X164092142Y-117260714D02*
X164092142Y-117784524D01*
X164139761Y-117879762D01*
X164234999Y-117927381D01*
X164377857Y-117927381D01*
X164473095Y-117879762D01*
X164520714Y-117832143D01*
X164854047Y-117260714D02*
X165234999Y-117260714D01*
X164996904Y-116927381D02*
X164996904Y-117784524D01*
X165044523Y-117879762D01*
X165139761Y-117927381D01*
X165234999Y-117927381D01*
X165568333Y-117260714D02*
X165568333Y-118260714D01*
X165568333Y-117308333D02*
X165663571Y-117260714D01*
X165854048Y-117260714D01*
X165949286Y-117308333D01*
X165996905Y-117355952D01*
X166044524Y-117451190D01*
X166044524Y-117736905D01*
X165996905Y-117832143D01*
X165949286Y-117879762D01*
X165854048Y-117927381D01*
X165663571Y-117927381D01*
X165568333Y-117879762D01*
X166901667Y-117260714D02*
X166901667Y-117927381D01*
X166473095Y-117260714D02*
X166473095Y-117784524D01*
X166520714Y-117879762D01*
X166615952Y-117927381D01*
X166758810Y-117927381D01*
X166854048Y-117879762D01*
X166901667Y-117832143D01*
X167235000Y-117260714D02*
X167615952Y-117260714D01*
X167377857Y-116927381D02*
X167377857Y-117784524D01*
X167425476Y-117879762D01*
X167520714Y-117927381D01*
X167615952Y-117927381D01*
X168139762Y-116927381D02*
X168235001Y-116927381D01*
X168330239Y-116975000D01*
X168377858Y-117022619D01*
X168425477Y-117117857D01*
X168473096Y-117308333D01*
X168473096Y-117546429D01*
X168425477Y-117736905D01*
X168377858Y-117832143D01*
X168330239Y-117879762D01*
X168235001Y-117927381D01*
X168139762Y-117927381D01*
X168044524Y-117879762D01*
X167996905Y-117832143D01*
X167949286Y-117736905D01*
X167901667Y-117546429D01*
X167901667Y-117308333D01*
X167949286Y-117117857D01*
X167996905Y-117022619D01*
X168044524Y-116975000D01*
X168139762Y-116927381D01*
X163234999Y-108037381D02*
X163425476Y-108037381D01*
X163520714Y-108085000D01*
X163615952Y-108180238D01*
X163663571Y-108370714D01*
X163663571Y-108704048D01*
X163615952Y-108894524D01*
X163520714Y-108989762D01*
X163425476Y-109037381D01*
X163234999Y-109037381D01*
X163139761Y-108989762D01*
X163044523Y-108894524D01*
X162996904Y-108704048D01*
X162996904Y-108370714D01*
X163044523Y-108180238D01*
X163139761Y-108085000D01*
X163234999Y-108037381D01*
X164520714Y-108370714D02*
X164520714Y-109037381D01*
X164092142Y-108370714D02*
X164092142Y-108894524D01*
X164139761Y-108989762D01*
X164234999Y-109037381D01*
X164377857Y-109037381D01*
X164473095Y-108989762D01*
X164520714Y-108942143D01*
X164854047Y-108370714D02*
X165234999Y-108370714D01*
X164996904Y-108037381D02*
X164996904Y-108894524D01*
X165044523Y-108989762D01*
X165139761Y-109037381D01*
X165234999Y-109037381D01*
X165568333Y-108370714D02*
X165568333Y-109370714D01*
X165568333Y-108418333D02*
X165663571Y-108370714D01*
X165854048Y-108370714D01*
X165949286Y-108418333D01*
X165996905Y-108465952D01*
X166044524Y-108561190D01*
X166044524Y-108846905D01*
X165996905Y-108942143D01*
X165949286Y-108989762D01*
X165854048Y-109037381D01*
X165663571Y-109037381D01*
X165568333Y-108989762D01*
X166901667Y-108370714D02*
X166901667Y-109037381D01*
X166473095Y-108370714D02*
X166473095Y-108894524D01*
X166520714Y-108989762D01*
X166615952Y-109037381D01*
X166758810Y-109037381D01*
X166854048Y-108989762D01*
X166901667Y-108942143D01*
X167235000Y-108370714D02*
X167615952Y-108370714D01*
X167377857Y-108037381D02*
X167377857Y-108894524D01*
X167425476Y-108989762D01*
X167520714Y-109037381D01*
X167615952Y-109037381D01*
X168473096Y-109037381D02*
X167901667Y-109037381D01*
X168187381Y-109037381D02*
X168187381Y-108037381D01*
X168092143Y-108180238D01*
X167996905Y-108275476D01*
X167901667Y-108323095D01*
X163234999Y-99147381D02*
X163425476Y-99147381D01*
X163520714Y-99195000D01*
X163615952Y-99290238D01*
X163663571Y-99480714D01*
X163663571Y-99814048D01*
X163615952Y-100004524D01*
X163520714Y-100099762D01*
X163425476Y-100147381D01*
X163234999Y-100147381D01*
X163139761Y-100099762D01*
X163044523Y-100004524D01*
X162996904Y-99814048D01*
X162996904Y-99480714D01*
X163044523Y-99290238D01*
X163139761Y-99195000D01*
X163234999Y-99147381D01*
X164520714Y-99480714D02*
X164520714Y-100147381D01*
X164092142Y-99480714D02*
X164092142Y-100004524D01*
X164139761Y-100099762D01*
X164234999Y-100147381D01*
X164377857Y-100147381D01*
X164473095Y-100099762D01*
X164520714Y-100052143D01*
X164854047Y-99480714D02*
X165234999Y-99480714D01*
X164996904Y-99147381D02*
X164996904Y-100004524D01*
X165044523Y-100099762D01*
X165139761Y-100147381D01*
X165234999Y-100147381D01*
X165568333Y-99480714D02*
X165568333Y-100480714D01*
X165568333Y-99528333D02*
X165663571Y-99480714D01*
X165854048Y-99480714D01*
X165949286Y-99528333D01*
X165996905Y-99575952D01*
X166044524Y-99671190D01*
X166044524Y-99956905D01*
X165996905Y-100052143D01*
X165949286Y-100099762D01*
X165854048Y-100147381D01*
X165663571Y-100147381D01*
X165568333Y-100099762D01*
X166901667Y-99480714D02*
X166901667Y-100147381D01*
X166473095Y-99480714D02*
X166473095Y-100004524D01*
X166520714Y-100099762D01*
X166615952Y-100147381D01*
X166758810Y-100147381D01*
X166854048Y-100099762D01*
X166901667Y-100052143D01*
X167235000Y-99480714D02*
X167615952Y-99480714D01*
X167377857Y-99147381D02*
X167377857Y-100004524D01*
X167425476Y-100099762D01*
X167520714Y-100147381D01*
X167615952Y-100147381D01*
X167901667Y-99242619D02*
X167949286Y-99195000D01*
X168044524Y-99147381D01*
X168282620Y-99147381D01*
X168377858Y-99195000D01*
X168425477Y-99242619D01*
X168473096Y-99337857D01*
X168473096Y-99433095D01*
X168425477Y-99575952D01*
X167854048Y-100147381D01*
X168473096Y-100147381D01*
X163234999Y-90257381D02*
X163425476Y-90257381D01*
X163520714Y-90305000D01*
X163615952Y-90400238D01*
X163663571Y-90590714D01*
X163663571Y-90924048D01*
X163615952Y-91114524D01*
X163520714Y-91209762D01*
X163425476Y-91257381D01*
X163234999Y-91257381D01*
X163139761Y-91209762D01*
X163044523Y-91114524D01*
X162996904Y-90924048D01*
X162996904Y-90590714D01*
X163044523Y-90400238D01*
X163139761Y-90305000D01*
X163234999Y-90257381D01*
X164520714Y-90590714D02*
X164520714Y-91257381D01*
X164092142Y-90590714D02*
X164092142Y-91114524D01*
X164139761Y-91209762D01*
X164234999Y-91257381D01*
X164377857Y-91257381D01*
X164473095Y-91209762D01*
X164520714Y-91162143D01*
X164854047Y-90590714D02*
X165234999Y-90590714D01*
X164996904Y-90257381D02*
X164996904Y-91114524D01*
X165044523Y-91209762D01*
X165139761Y-91257381D01*
X165234999Y-91257381D01*
X165568333Y-90590714D02*
X165568333Y-91590714D01*
X165568333Y-90638333D02*
X165663571Y-90590714D01*
X165854048Y-90590714D01*
X165949286Y-90638333D01*
X165996905Y-90685952D01*
X166044524Y-90781190D01*
X166044524Y-91066905D01*
X165996905Y-91162143D01*
X165949286Y-91209762D01*
X165854048Y-91257381D01*
X165663571Y-91257381D01*
X165568333Y-91209762D01*
X166901667Y-90590714D02*
X166901667Y-91257381D01*
X166473095Y-90590714D02*
X166473095Y-91114524D01*
X166520714Y-91209762D01*
X166615952Y-91257381D01*
X166758810Y-91257381D01*
X166854048Y-91209762D01*
X166901667Y-91162143D01*
X167235000Y-90590714D02*
X167615952Y-90590714D01*
X167377857Y-90257381D02*
X167377857Y-91114524D01*
X167425476Y-91209762D01*
X167520714Y-91257381D01*
X167615952Y-91257381D01*
X167854048Y-90257381D02*
X168473096Y-90257381D01*
X168139762Y-90638333D01*
X168282620Y-90638333D01*
X168377858Y-90685952D01*
X168425477Y-90733571D01*
X168473096Y-90828810D01*
X168473096Y-91066905D01*
X168425477Y-91162143D01*
X168377858Y-91209762D01*
X168282620Y-91257381D01*
X167996905Y-91257381D01*
X167901667Y-91209762D01*
X167854048Y-91162143D01*
X164996905Y-123642381D02*
X164996905Y-122642381D01*
X165377858Y-122642381D01*
X165473096Y-122690000D01*
X165520715Y-122737619D01*
X165568334Y-122832857D01*
X165568334Y-122975714D01*
X165520715Y-123070952D01*
X165473096Y-123118571D01*
X165377858Y-123166190D01*
X164996905Y-123166190D01*
X166520715Y-123642381D02*
X165949286Y-123642381D01*
X166235000Y-123642381D02*
X166235000Y-122642381D01*
X166139762Y-122785238D01*
X166044524Y-122880476D01*
X165949286Y-122928095D01*
M02*
