M48
;DRILL file {KiCad 4.0.2+e4-6225~38~ubuntu15.04.1-stable} date di 02 aug 2016 05:35:32 CEST
;FORMAT={-:-/ absolute / inch / decimal}
FMAT,2
INCH,TZ
T1C0.035
T2C0.040
T3C0.060
%
G90
G05
M72
T1
X4.675Y-3.4
X4.675Y-3.75
X4.675Y-4.1
X4.675Y-4.45
X4.7734Y-3.4
X4.7734Y-3.75
X4.7734Y-4.1
X4.7734Y-4.45
X4.8719Y-3.4
X4.8719Y-3.75
X4.8719Y-4.1
X4.8719Y-4.45
X5.125Y-3.4
X5.125Y-3.75
X5.125Y-4.1
X5.125Y-4.45
X5.2234Y-3.4
X5.2234Y-3.75
X5.2234Y-4.1
X5.2234Y-4.45
X5.3219Y-3.4
X5.3219Y-3.75
X5.3219Y-4.1
X5.3219Y-4.45
X6.425Y-3.4
X6.425Y-3.75
X6.425Y-4.1
X6.425Y-4.45
X6.5234Y-3.4
X6.5234Y-3.75
X6.5234Y-4.1
X6.5234Y-4.45
X6.6219Y-3.4
X6.6219Y-3.75
X6.6219Y-4.1
X6.6219Y-4.45
T2
X5.275Y-4.775
X5.375Y-4.775
X5.575Y-3.425
X5.575Y-3.525
X5.575Y-3.625
X5.575Y-3.725
X5.575Y-3.825
X5.575Y-3.925
X5.575Y-4.025
X5.575Y-4.125
X5.575Y-4.225
X5.575Y-4.325
X5.575Y-4.425
X5.575Y-4.525
X5.575Y-4.625
X5.575Y-4.725
X5.575Y-4.825
X6.175Y-3.425
X6.175Y-3.525
X6.175Y-3.625
X6.175Y-3.725
X6.175Y-3.825
X6.175Y-3.925
X6.175Y-4.025
X6.175Y-4.125
X6.175Y-4.225
X6.175Y-4.325
X6.175Y-4.425
X6.175Y-4.525
X6.175Y-4.625
X6.175Y-4.725
X6.175Y-4.825
T3
X6.425Y-4.85
X6.625Y-4.85
T0
M30
