; NON-PLATED HOLES START AT T1
; THROUGH (PLATED) HOLES START AT T100
M48
INCH
T1C0.125984
T100C0.040000
%
T1
X016199Y003974
X002699Y000974
X002699Y006974
T100
X007199Y005974
X011699Y005974
X019199Y005974
X018699Y001974
X018199Y005974
X003199Y002974
X014699Y002474
X007199Y002474
X011699Y002474
X009199Y005974
X008199Y005974
X013699Y005974
X012699Y005974
X003199Y004974
X006199Y005974
X018699Y000974
X017199Y005974
X009199Y002474
X020199Y005974
X008199Y002474
X013699Y002474
X018699Y002974
X012699Y002474
X003199Y003974
X006199Y002474
X014699Y005974
T00
M30
