G04 MADE WITH FRITZING*
G04 WWW.FRITZING.ORG*
G04 DOUBLE SIDED*
G04 HOLES PLATED*
G04 CONTOUR ON CENTER OF CONTOUR VECTOR*
%ASAXBY*%
%FSLAX23Y23*%
%MOIN*%
%OFA0B0*%
%SFA1.0B1.0*%
%ADD10R,2.165350X0.787402X2.149350X0.771402*%
%ADD11C,0.008000*%
%ADD12C,0.010000*%
%ADD13C,0.005000*%
%ADD14R,0.001000X0.001000*%
%LNSILK1*%
G90*
G70*
G54D11*
X4Y783D02*
X2161Y783D01*
X2161Y4D01*
X4Y4D01*
X4Y783D01*
D02*
G54D12*
X2075Y685D02*
X1665Y685D01*
D02*
X1665Y685D02*
X1665Y469D01*
D02*
X1665Y469D02*
X2075Y469D01*
D02*
X2075Y469D02*
X2075Y685D01*
G54D13*
D02*
X1665Y509D02*
X2075Y509D01*
G54D12*
D02*
X1525Y335D02*
X1115Y335D01*
D02*
X1115Y335D02*
X1115Y119D01*
D02*
X1115Y119D02*
X1525Y119D01*
D02*
X1525Y119D02*
X1525Y335D01*
G54D13*
D02*
X1115Y159D02*
X1525Y159D01*
G54D12*
D02*
X1525Y685D02*
X1115Y685D01*
D02*
X1115Y685D02*
X1115Y469D01*
D02*
X1115Y469D02*
X1525Y469D01*
D02*
X1525Y469D02*
X1525Y685D01*
G54D13*
D02*
X1115Y509D02*
X1525Y509D01*
G54D12*
D02*
X975Y335D02*
X565Y335D01*
D02*
X565Y335D02*
X565Y119D01*
D02*
X565Y119D02*
X975Y119D01*
D02*
X975Y119D02*
X975Y335D01*
G54D13*
D02*
X565Y159D02*
X975Y159D01*
G54D12*
D02*
X975Y685D02*
X565Y685D01*
D02*
X565Y685D02*
X565Y469D01*
D02*
X565Y469D02*
X975Y469D01*
D02*
X975Y469D02*
X975Y685D01*
G54D13*
D02*
X565Y509D02*
X975Y509D01*
G54D12*
D02*
X408Y242D02*
X408Y552D01*
D02*
X408Y552D02*
X192Y552D01*
D02*
X192Y552D02*
X192Y242D01*
D02*
X192Y242D02*
X408Y242D01*
G54D13*
D02*
X232Y552D02*
X232Y242D01*
G54D12*
D02*
X1782Y352D02*
X1782Y42D01*
D02*
X1782Y42D02*
X1998Y42D01*
D02*
X1998Y42D02*
X1998Y352D01*
D02*
X1998Y352D02*
X1782Y352D01*
G54D13*
D02*
X1958Y42D02*
X1958Y352D01*
G54D14*
X646Y760D02*
X671Y760D01*
X851Y760D02*
X875Y760D01*
X646Y759D02*
X674Y759D01*
X849Y759D02*
X877Y759D01*
X646Y758D02*
X675Y758D01*
X848Y758D02*
X878Y758D01*
X646Y757D02*
X676Y757D01*
X805Y757D02*
X807Y757D01*
X848Y757D02*
X879Y757D01*
X1193Y757D02*
X1219Y757D01*
X1395Y757D02*
X1423Y757D01*
X646Y756D02*
X677Y756D01*
X804Y756D02*
X808Y756D01*
X847Y756D02*
X879Y756D01*
X1193Y756D02*
X1221Y756D01*
X1394Y756D02*
X1424Y756D01*
X646Y755D02*
X678Y755D01*
X803Y755D02*
X809Y755D01*
X847Y755D02*
X880Y755D01*
X1193Y755D02*
X1223Y755D01*
X1394Y755D02*
X1425Y755D01*
X646Y754D02*
X678Y754D01*
X803Y754D02*
X809Y754D01*
X846Y754D02*
X880Y754D01*
X1193Y754D02*
X1224Y754D01*
X1352Y754D02*
X1355Y754D01*
X1394Y754D02*
X1426Y754D01*
X1745Y754D02*
X1772Y754D01*
X1949Y754D02*
X1952Y754D01*
X646Y753D02*
X652Y753D01*
X671Y753D02*
X679Y753D01*
X803Y753D02*
X809Y753D01*
X846Y753D02*
X853Y753D01*
X874Y753D02*
X880Y753D01*
X1193Y753D02*
X1224Y753D01*
X1351Y753D02*
X1356Y753D01*
X1394Y753D02*
X1427Y753D01*
X1745Y753D02*
X1774Y753D01*
X1948Y753D02*
X1953Y753D01*
X646Y752D02*
X652Y752D01*
X672Y752D02*
X679Y752D01*
X803Y752D02*
X809Y752D01*
X846Y752D02*
X852Y752D01*
X874Y752D02*
X880Y752D01*
X1193Y752D02*
X1225Y752D01*
X1350Y752D02*
X1356Y752D01*
X1394Y752D02*
X1427Y752D01*
X1745Y752D02*
X1775Y752D01*
X1948Y752D02*
X1954Y752D01*
X646Y751D02*
X652Y751D01*
X673Y751D02*
X679Y751D01*
X803Y751D02*
X809Y751D01*
X846Y751D02*
X852Y751D01*
X874Y751D02*
X880Y751D01*
X1193Y751D02*
X1226Y751D01*
X1350Y751D02*
X1356Y751D01*
X1395Y751D02*
X1427Y751D01*
X1745Y751D02*
X1776Y751D01*
X1904Y751D02*
X1908Y751D01*
X1948Y751D02*
X1954Y751D01*
X646Y750D02*
X652Y750D01*
X673Y750D02*
X679Y750D01*
X803Y750D02*
X809Y750D01*
X846Y750D02*
X852Y750D01*
X874Y750D02*
X880Y750D01*
X1193Y750D02*
X1199Y750D01*
X1218Y750D02*
X1226Y750D01*
X1350Y750D02*
X1356Y750D01*
X1421Y750D02*
X1427Y750D01*
X1745Y750D02*
X1777Y750D01*
X1903Y750D02*
X1908Y750D01*
X1948Y750D02*
X1954Y750D01*
X646Y749D02*
X652Y749D01*
X673Y749D02*
X679Y749D01*
X803Y749D02*
X809Y749D01*
X846Y749D02*
X852Y749D01*
X874Y749D02*
X880Y749D01*
X1193Y749D02*
X1199Y749D01*
X1220Y749D02*
X1226Y749D01*
X1350Y749D02*
X1356Y749D01*
X1421Y749D02*
X1427Y749D01*
X1745Y749D02*
X1778Y749D01*
X1903Y749D02*
X1909Y749D01*
X1948Y749D02*
X1954Y749D01*
X646Y748D02*
X652Y748D01*
X673Y748D02*
X679Y748D01*
X803Y748D02*
X809Y748D01*
X846Y748D02*
X852Y748D01*
X874Y748D02*
X880Y748D01*
X1193Y748D02*
X1199Y748D01*
X1220Y748D02*
X1226Y748D01*
X1350Y748D02*
X1356Y748D01*
X1421Y748D02*
X1427Y748D01*
X1745Y748D02*
X1778Y748D01*
X1903Y748D02*
X1909Y748D01*
X1948Y748D02*
X1954Y748D01*
X1970Y748D02*
X1973Y748D01*
X646Y747D02*
X652Y747D01*
X673Y747D02*
X679Y747D01*
X803Y747D02*
X809Y747D01*
X846Y747D02*
X852Y747D01*
X874Y747D02*
X880Y747D01*
X1193Y747D02*
X1199Y747D01*
X1220Y747D02*
X1226Y747D01*
X1350Y747D02*
X1356Y747D01*
X1421Y747D02*
X1427Y747D01*
X1745Y747D02*
X1751Y747D01*
X1771Y747D02*
X1779Y747D01*
X1903Y747D02*
X1909Y747D01*
X1948Y747D02*
X1954Y747D01*
X1969Y747D02*
X1974Y747D01*
X646Y746D02*
X652Y746D01*
X673Y746D02*
X679Y746D01*
X803Y746D02*
X809Y746D01*
X846Y746D02*
X852Y746D01*
X874Y746D02*
X880Y746D01*
X1193Y746D02*
X1199Y746D01*
X1220Y746D02*
X1226Y746D01*
X1350Y746D02*
X1356Y746D01*
X1421Y746D02*
X1427Y746D01*
X1745Y746D02*
X1751Y746D01*
X1772Y746D02*
X1779Y746D01*
X1903Y746D02*
X1909Y746D01*
X1948Y746D02*
X1954Y746D01*
X1969Y746D02*
X1974Y746D01*
X646Y745D02*
X652Y745D01*
X673Y745D02*
X679Y745D01*
X705Y745D02*
X720Y745D01*
X748Y745D02*
X750Y745D01*
X761Y745D02*
X773Y745D01*
X798Y745D02*
X825Y745D01*
X846Y745D02*
X852Y745D01*
X874Y745D02*
X880Y745D01*
X1193Y745D02*
X1199Y745D01*
X1220Y745D02*
X1226Y745D01*
X1350Y745D02*
X1356Y745D01*
X1421Y745D02*
X1427Y745D01*
X1745Y745D02*
X1751Y745D01*
X1773Y745D02*
X1779Y745D01*
X1903Y745D02*
X1909Y745D01*
X1948Y745D02*
X1954Y745D01*
X1969Y745D02*
X1975Y745D01*
X646Y744D02*
X652Y744D01*
X673Y744D02*
X679Y744D01*
X703Y744D02*
X722Y744D01*
X747Y744D02*
X751Y744D01*
X760Y744D02*
X775Y744D01*
X797Y744D02*
X826Y744D01*
X846Y744D02*
X852Y744D01*
X874Y744D02*
X880Y744D01*
X1193Y744D02*
X1199Y744D01*
X1220Y744D02*
X1226Y744D01*
X1350Y744D02*
X1356Y744D01*
X1421Y744D02*
X1427Y744D01*
X1745Y744D02*
X1751Y744D01*
X1773Y744D02*
X1779Y744D01*
X1903Y744D02*
X1909Y744D01*
X1948Y744D02*
X1954Y744D01*
X1969Y744D02*
X1975Y744D01*
X646Y743D02*
X652Y743D01*
X673Y743D02*
X679Y743D01*
X702Y743D02*
X723Y743D01*
X746Y743D02*
X752Y743D01*
X759Y743D02*
X776Y743D01*
X797Y743D02*
X826Y743D01*
X846Y743D02*
X852Y743D01*
X874Y743D02*
X880Y743D01*
X1193Y743D02*
X1199Y743D01*
X1220Y743D02*
X1226Y743D01*
X1350Y743D02*
X1356Y743D01*
X1421Y743D02*
X1427Y743D01*
X1745Y743D02*
X1751Y743D01*
X1773Y743D02*
X1779Y743D01*
X1903Y743D02*
X1909Y743D01*
X1948Y743D02*
X1954Y743D01*
X1969Y743D02*
X1975Y743D01*
X646Y742D02*
X652Y742D01*
X673Y742D02*
X679Y742D01*
X701Y742D02*
X724Y742D01*
X746Y742D02*
X752Y742D01*
X758Y742D02*
X777Y742D01*
X797Y742D02*
X826Y742D01*
X846Y742D02*
X852Y742D01*
X874Y742D02*
X880Y742D01*
X1193Y742D02*
X1199Y742D01*
X1220Y742D02*
X1226Y742D01*
X1252Y742D02*
X1267Y742D01*
X1294Y742D02*
X1298Y742D01*
X1308Y742D02*
X1320Y742D01*
X1345Y742D02*
X1372Y742D01*
X1421Y742D02*
X1427Y742D01*
X1745Y742D02*
X1751Y742D01*
X1773Y742D02*
X1779Y742D01*
X1903Y742D02*
X1909Y742D01*
X1948Y742D02*
X1954Y742D01*
X1969Y742D02*
X1975Y742D01*
X646Y741D02*
X652Y741D01*
X673Y741D02*
X679Y741D01*
X700Y741D02*
X726Y741D01*
X746Y741D02*
X752Y741D01*
X757Y741D02*
X778Y741D01*
X797Y741D02*
X826Y741D01*
X846Y741D02*
X852Y741D01*
X874Y741D02*
X880Y741D01*
X1193Y741D02*
X1199Y741D01*
X1220Y741D02*
X1226Y741D01*
X1250Y741D02*
X1269Y741D01*
X1294Y741D02*
X1299Y741D01*
X1307Y741D02*
X1322Y741D01*
X1344Y741D02*
X1373Y741D01*
X1421Y741D02*
X1427Y741D01*
X1745Y741D02*
X1751Y741D01*
X1773Y741D02*
X1779Y741D01*
X1903Y741D02*
X1909Y741D01*
X1948Y741D02*
X1954Y741D01*
X1969Y741D02*
X1975Y741D01*
X646Y740D02*
X652Y740D01*
X673Y740D02*
X679Y740D01*
X699Y740D02*
X727Y740D01*
X746Y740D02*
X752Y740D01*
X755Y740D02*
X778Y740D01*
X797Y740D02*
X826Y740D01*
X846Y740D02*
X852Y740D01*
X874Y740D02*
X880Y740D01*
X1193Y740D02*
X1199Y740D01*
X1220Y740D02*
X1226Y740D01*
X1249Y740D02*
X1271Y740D01*
X1293Y740D02*
X1299Y740D01*
X1306Y740D02*
X1323Y740D01*
X1344Y740D02*
X1373Y740D01*
X1421Y740D02*
X1427Y740D01*
X1745Y740D02*
X1751Y740D01*
X1773Y740D02*
X1779Y740D01*
X1808Y740D02*
X1817Y740D01*
X1863Y740D02*
X1869Y740D01*
X1900Y740D02*
X1923Y740D01*
X1948Y740D02*
X1954Y740D01*
X1969Y740D02*
X1975Y740D01*
X646Y739D02*
X652Y739D01*
X673Y739D02*
X679Y739D01*
X698Y739D02*
X727Y739D01*
X746Y739D02*
X752Y739D01*
X754Y739D02*
X779Y739D01*
X798Y739D02*
X824Y739D01*
X846Y739D02*
X852Y739D01*
X874Y739D02*
X880Y739D01*
X1193Y739D02*
X1199Y739D01*
X1220Y739D02*
X1226Y739D01*
X1248Y739D02*
X1272Y739D01*
X1293Y739D02*
X1299Y739D01*
X1305Y739D02*
X1324Y739D01*
X1344Y739D02*
X1373Y739D01*
X1421Y739D02*
X1427Y739D01*
X1745Y739D02*
X1751Y739D01*
X1773Y739D02*
X1779Y739D01*
X1804Y739D02*
X1821Y739D01*
X1847Y739D02*
X1851Y739D01*
X1861Y739D02*
X1873Y739D01*
X1897Y739D02*
X1925Y739D01*
X1948Y739D02*
X1954Y739D01*
X1969Y739D02*
X1975Y739D01*
X646Y738D02*
X652Y738D01*
X673Y738D02*
X679Y738D01*
X697Y738D02*
X706Y738D01*
X719Y738D02*
X728Y738D01*
X746Y738D02*
X763Y738D01*
X772Y738D02*
X779Y738D01*
X803Y738D02*
X809Y738D01*
X846Y738D02*
X852Y738D01*
X874Y738D02*
X880Y738D01*
X1193Y738D02*
X1199Y738D01*
X1220Y738D02*
X1226Y738D01*
X1246Y738D02*
X1273Y738D01*
X1293Y738D02*
X1299Y738D01*
X1303Y738D02*
X1325Y738D01*
X1344Y738D02*
X1373Y738D01*
X1421Y738D02*
X1427Y738D01*
X1745Y738D02*
X1751Y738D01*
X1773Y738D02*
X1779Y738D01*
X1802Y738D02*
X1822Y738D01*
X1846Y738D02*
X1851Y738D01*
X1859Y738D02*
X1875Y738D01*
X1897Y738D02*
X1926Y738D01*
X1948Y738D02*
X1954Y738D01*
X1969Y738D02*
X1975Y738D01*
X646Y737D02*
X652Y737D01*
X673Y737D02*
X679Y737D01*
X697Y737D02*
X705Y737D01*
X721Y737D02*
X729Y737D01*
X746Y737D02*
X762Y737D01*
X773Y737D02*
X779Y737D01*
X803Y737D02*
X809Y737D01*
X846Y737D02*
X852Y737D01*
X874Y737D02*
X880Y737D01*
X1193Y737D02*
X1199Y737D01*
X1220Y737D02*
X1226Y737D01*
X1245Y737D02*
X1274Y737D01*
X1293Y737D02*
X1299Y737D01*
X1302Y737D02*
X1326Y737D01*
X1344Y737D02*
X1372Y737D01*
X1421Y737D02*
X1427Y737D01*
X1745Y737D02*
X1751Y737D01*
X1773Y737D02*
X1779Y737D01*
X1801Y737D02*
X1824Y737D01*
X1846Y737D02*
X1852Y737D01*
X1858Y737D02*
X1876Y737D01*
X1897Y737D02*
X1926Y737D01*
X1948Y737D02*
X1954Y737D01*
X1969Y737D02*
X1975Y737D01*
X646Y736D02*
X652Y736D01*
X673Y736D02*
X679Y736D01*
X696Y736D02*
X703Y736D01*
X722Y736D02*
X729Y736D01*
X746Y736D02*
X761Y736D01*
X773Y736D02*
X780Y736D01*
X803Y736D02*
X809Y736D01*
X846Y736D02*
X852Y736D01*
X874Y736D02*
X880Y736D01*
X1193Y736D02*
X1199Y736D01*
X1220Y736D02*
X1226Y736D01*
X1245Y736D02*
X1275Y736D01*
X1293Y736D02*
X1299Y736D01*
X1301Y736D02*
X1326Y736D01*
X1346Y736D02*
X1371Y736D01*
X1421Y736D02*
X1427Y736D01*
X1745Y736D02*
X1751Y736D01*
X1773Y736D02*
X1779Y736D01*
X1800Y736D02*
X1825Y736D01*
X1846Y736D02*
X1852Y736D01*
X1857Y736D02*
X1877Y736D01*
X1897Y736D02*
X1926Y736D01*
X1948Y736D02*
X1954Y736D01*
X1969Y736D02*
X1975Y736D01*
X646Y735D02*
X652Y735D01*
X672Y735D02*
X679Y735D01*
X696Y735D02*
X703Y735D01*
X723Y735D02*
X729Y735D01*
X746Y735D02*
X759Y735D01*
X774Y735D02*
X780Y735D01*
X803Y735D02*
X809Y735D01*
X846Y735D02*
X852Y735D01*
X874Y735D02*
X880Y735D01*
X1193Y735D02*
X1199Y735D01*
X1220Y735D02*
X1226Y735D01*
X1244Y735D02*
X1253Y735D01*
X1267Y735D02*
X1275Y735D01*
X1293Y735D02*
X1310Y735D01*
X1319Y735D02*
X1326Y735D01*
X1350Y735D02*
X1356Y735D01*
X1421Y735D02*
X1427Y735D01*
X1745Y735D02*
X1751Y735D01*
X1773Y735D02*
X1779Y735D01*
X1799Y735D02*
X1826Y735D01*
X1846Y735D02*
X1852Y735D01*
X1856Y735D02*
X1878Y735D01*
X1897Y735D02*
X1926Y735D01*
X1948Y735D02*
X1954Y735D01*
X1969Y735D02*
X1975Y735D01*
X646Y734D02*
X652Y734D01*
X671Y734D02*
X679Y734D01*
X696Y734D02*
X702Y734D01*
X723Y734D02*
X729Y734D01*
X746Y734D02*
X758Y734D01*
X774Y734D02*
X780Y734D01*
X803Y734D02*
X809Y734D01*
X846Y734D02*
X852Y734D01*
X874Y734D02*
X880Y734D01*
X1193Y734D02*
X1199Y734D01*
X1220Y734D02*
X1226Y734D01*
X1244Y734D02*
X1251Y734D01*
X1268Y734D02*
X1276Y734D01*
X1293Y734D02*
X1309Y734D01*
X1320Y734D02*
X1327Y734D01*
X1350Y734D02*
X1356Y734D01*
X1421Y734D02*
X1427Y734D01*
X1745Y734D02*
X1751Y734D01*
X1773Y734D02*
X1779Y734D01*
X1798Y734D02*
X1827Y734D01*
X1846Y734D02*
X1852Y734D01*
X1855Y734D02*
X1878Y734D01*
X1897Y734D02*
X1925Y734D01*
X1948Y734D02*
X1954Y734D01*
X1969Y734D02*
X1975Y734D01*
X646Y733D02*
X678Y733D01*
X696Y733D02*
X702Y733D01*
X723Y733D02*
X729Y733D01*
X746Y733D02*
X757Y733D01*
X774Y733D02*
X780Y733D01*
X803Y733D02*
X809Y733D01*
X846Y733D02*
X852Y733D01*
X874Y733D02*
X880Y733D01*
X1193Y733D02*
X1199Y733D01*
X1220Y733D02*
X1226Y733D01*
X1243Y733D02*
X1250Y733D01*
X1269Y733D02*
X1276Y733D01*
X1293Y733D02*
X1307Y733D01*
X1321Y733D02*
X1327Y733D01*
X1350Y733D02*
X1356Y733D01*
X1397Y733D02*
X1427Y733D01*
X1745Y733D02*
X1751Y733D01*
X1773Y733D02*
X1779Y733D01*
X1797Y733D02*
X1828Y733D01*
X1846Y733D02*
X1852Y733D01*
X1854Y733D02*
X1879Y733D01*
X1900Y733D02*
X1922Y733D01*
X1948Y733D02*
X1954Y733D01*
X1969Y733D02*
X1975Y733D01*
X646Y732D02*
X678Y732D01*
X696Y732D02*
X702Y732D01*
X723Y732D02*
X729Y732D01*
X746Y732D02*
X756Y732D01*
X774Y732D02*
X779Y732D01*
X803Y732D02*
X809Y732D01*
X846Y732D02*
X852Y732D01*
X874Y732D02*
X880Y732D01*
X1193Y732D02*
X1199Y732D01*
X1219Y732D02*
X1226Y732D01*
X1243Y732D02*
X1250Y732D01*
X1270Y732D02*
X1276Y732D01*
X1293Y732D02*
X1306Y732D01*
X1321Y732D02*
X1327Y732D01*
X1350Y732D02*
X1356Y732D01*
X1396Y732D02*
X1427Y732D01*
X1745Y732D02*
X1751Y732D01*
X1773Y732D02*
X1779Y732D01*
X1797Y732D02*
X1805Y732D01*
X1820Y732D02*
X1828Y732D01*
X1846Y732D02*
X1862Y732D01*
X1872Y732D02*
X1879Y732D01*
X1903Y732D02*
X1909Y732D01*
X1948Y732D02*
X1954Y732D01*
X1969Y732D02*
X1975Y732D01*
X646Y731D02*
X677Y731D01*
X696Y731D02*
X702Y731D01*
X723Y731D02*
X729Y731D01*
X746Y731D02*
X755Y731D01*
X774Y731D02*
X779Y731D01*
X803Y731D02*
X809Y731D01*
X846Y731D02*
X852Y731D01*
X874Y731D02*
X880Y731D01*
X1193Y731D02*
X1226Y731D01*
X1243Y731D02*
X1249Y731D01*
X1270Y731D02*
X1276Y731D01*
X1293Y731D02*
X1305Y731D01*
X1321Y731D02*
X1327Y731D01*
X1350Y731D02*
X1356Y731D01*
X1395Y731D02*
X1426Y731D01*
X1745Y731D02*
X1751Y731D01*
X1773Y731D02*
X1779Y731D01*
X1796Y731D02*
X1804Y731D01*
X1821Y731D02*
X1829Y731D01*
X1846Y731D02*
X1861Y731D01*
X1873Y731D02*
X1879Y731D01*
X1903Y731D02*
X1909Y731D01*
X1948Y731D02*
X1954Y731D01*
X1969Y731D02*
X1975Y731D01*
X646Y730D02*
X676Y730D01*
X696Y730D02*
X702Y730D01*
X723Y730D02*
X729Y730D01*
X746Y730D02*
X754Y730D01*
X776Y730D02*
X777Y730D01*
X803Y730D02*
X809Y730D01*
X846Y730D02*
X852Y730D01*
X874Y730D02*
X880Y730D01*
X1193Y730D02*
X1225Y730D01*
X1243Y730D02*
X1249Y730D01*
X1271Y730D02*
X1277Y730D01*
X1293Y730D02*
X1304Y730D01*
X1321Y730D02*
X1327Y730D01*
X1350Y730D02*
X1356Y730D01*
X1394Y730D02*
X1426Y730D01*
X1745Y730D02*
X1751Y730D01*
X1772Y730D02*
X1779Y730D01*
X1796Y730D02*
X1803Y730D01*
X1822Y730D02*
X1829Y730D01*
X1846Y730D02*
X1860Y730D01*
X1873Y730D02*
X1879Y730D01*
X1903Y730D02*
X1909Y730D01*
X1948Y730D02*
X1954Y730D01*
X1969Y730D02*
X1975Y730D01*
X646Y729D02*
X675Y729D01*
X696Y729D02*
X702Y729D01*
X723Y729D02*
X729Y729D01*
X746Y729D02*
X752Y729D01*
X803Y729D02*
X809Y729D01*
X846Y729D02*
X852Y729D01*
X874Y729D02*
X880Y729D01*
X1193Y729D02*
X1225Y729D01*
X1243Y729D02*
X1249Y729D01*
X1271Y729D02*
X1277Y729D01*
X1293Y729D02*
X1303Y729D01*
X1321Y729D02*
X1326Y729D01*
X1350Y729D02*
X1356Y729D01*
X1394Y729D02*
X1425Y729D01*
X1745Y729D02*
X1751Y729D01*
X1772Y729D02*
X1779Y729D01*
X1796Y729D02*
X1802Y729D01*
X1823Y729D02*
X1829Y729D01*
X1846Y729D02*
X1859Y729D01*
X1873Y729D02*
X1879Y729D01*
X1903Y729D02*
X1909Y729D01*
X1948Y729D02*
X1954Y729D01*
X1969Y729D02*
X1975Y729D01*
X646Y728D02*
X673Y728D01*
X696Y728D02*
X702Y728D01*
X723Y728D02*
X729Y728D01*
X746Y728D02*
X752Y728D01*
X803Y728D02*
X809Y728D01*
X846Y728D02*
X852Y728D01*
X874Y728D02*
X880Y728D01*
X1193Y728D02*
X1224Y728D01*
X1243Y728D02*
X1249Y728D01*
X1271Y728D02*
X1277Y728D01*
X1293Y728D02*
X1302Y728D01*
X1322Y728D02*
X1326Y728D01*
X1350Y728D02*
X1356Y728D01*
X1394Y728D02*
X1424Y728D01*
X1745Y728D02*
X1778Y728D01*
X1796Y728D02*
X1802Y728D01*
X1823Y728D02*
X1829Y728D01*
X1846Y728D02*
X1858Y728D01*
X1873Y728D02*
X1879Y728D01*
X1903Y728D02*
X1909Y728D01*
X1948Y728D02*
X1954Y728D01*
X1969Y728D02*
X1975Y728D01*
X646Y727D02*
X671Y727D01*
X696Y727D02*
X702Y727D01*
X723Y727D02*
X729Y727D01*
X746Y727D02*
X752Y727D01*
X803Y727D02*
X809Y727D01*
X846Y727D02*
X852Y727D01*
X874Y727D02*
X880Y727D01*
X1193Y727D02*
X1223Y727D01*
X1243Y727D02*
X1249Y727D01*
X1271Y727D02*
X1277Y727D01*
X1293Y727D02*
X1300Y727D01*
X1350Y727D02*
X1356Y727D01*
X1394Y727D02*
X1420Y727D01*
X1745Y727D02*
X1778Y727D01*
X1796Y727D02*
X1802Y727D01*
X1823Y727D02*
X1829Y727D01*
X1846Y727D02*
X1856Y727D01*
X1874Y727D02*
X1879Y727D01*
X1903Y727D02*
X1909Y727D01*
X1948Y727D02*
X1954Y727D01*
X1969Y727D02*
X1975Y727D01*
X646Y726D02*
X652Y726D01*
X696Y726D02*
X702Y726D01*
X723Y726D02*
X729Y726D01*
X746Y726D02*
X752Y726D01*
X803Y726D02*
X809Y726D01*
X846Y726D02*
X852Y726D01*
X874Y726D02*
X880Y726D01*
X1193Y726D02*
X1222Y726D01*
X1243Y726D02*
X1249Y726D01*
X1271Y726D02*
X1277Y726D01*
X1293Y726D02*
X1299Y726D01*
X1350Y726D02*
X1356Y726D01*
X1394Y726D02*
X1400Y726D01*
X1745Y726D02*
X1777Y726D01*
X1796Y726D02*
X1802Y726D01*
X1823Y726D02*
X1829Y726D01*
X1846Y726D02*
X1855Y726D01*
X1874Y726D02*
X1879Y726D01*
X1903Y726D02*
X1909Y726D01*
X1948Y726D02*
X1954Y726D01*
X1969Y726D02*
X1975Y726D01*
X646Y725D02*
X652Y725D01*
X696Y725D02*
X702Y725D01*
X723Y725D02*
X729Y725D01*
X746Y725D02*
X752Y725D01*
X803Y725D02*
X809Y725D01*
X846Y725D02*
X852Y725D01*
X874Y725D02*
X880Y725D01*
X1193Y725D02*
X1220Y725D01*
X1243Y725D02*
X1249Y725D01*
X1271Y725D02*
X1277Y725D01*
X1293Y725D02*
X1299Y725D01*
X1350Y725D02*
X1356Y725D01*
X1394Y725D02*
X1400Y725D01*
X1745Y725D02*
X1776Y725D01*
X1796Y725D02*
X1802Y725D01*
X1823Y725D02*
X1829Y725D01*
X1846Y725D02*
X1854Y725D01*
X1875Y725D02*
X1878Y725D01*
X1903Y725D02*
X1909Y725D01*
X1948Y725D02*
X1976Y725D01*
X646Y724D02*
X652Y724D01*
X696Y724D02*
X702Y724D01*
X723Y724D02*
X729Y724D01*
X746Y724D02*
X752Y724D01*
X803Y724D02*
X809Y724D01*
X846Y724D02*
X852Y724D01*
X874Y724D02*
X880Y724D01*
X1193Y724D02*
X1216Y724D01*
X1243Y724D02*
X1249Y724D01*
X1271Y724D02*
X1277Y724D01*
X1293Y724D02*
X1299Y724D01*
X1350Y724D02*
X1356Y724D01*
X1394Y724D02*
X1400Y724D01*
X1745Y724D02*
X1776Y724D01*
X1796Y724D02*
X1802Y724D01*
X1823Y724D02*
X1829Y724D01*
X1846Y724D02*
X1853Y724D01*
X1903Y724D02*
X1909Y724D01*
X1948Y724D02*
X1977Y724D01*
X646Y723D02*
X652Y723D01*
X696Y723D02*
X702Y723D01*
X723Y723D02*
X729Y723D01*
X746Y723D02*
X752Y723D01*
X803Y723D02*
X809Y723D01*
X846Y723D02*
X852Y723D01*
X874Y723D02*
X880Y723D01*
X1193Y723D02*
X1199Y723D01*
X1243Y723D02*
X1249Y723D01*
X1271Y723D02*
X1277Y723D01*
X1293Y723D02*
X1299Y723D01*
X1350Y723D02*
X1356Y723D01*
X1394Y723D02*
X1400Y723D01*
X1745Y723D02*
X1774Y723D01*
X1796Y723D02*
X1802Y723D01*
X1823Y723D02*
X1829Y723D01*
X1846Y723D02*
X1852Y723D01*
X1903Y723D02*
X1909Y723D01*
X1948Y723D02*
X1978Y723D01*
X646Y722D02*
X652Y722D01*
X696Y722D02*
X702Y722D01*
X723Y722D02*
X729Y722D01*
X746Y722D02*
X752Y722D01*
X803Y722D02*
X809Y722D01*
X846Y722D02*
X852Y722D01*
X874Y722D02*
X880Y722D01*
X1193Y722D02*
X1199Y722D01*
X1243Y722D02*
X1249Y722D01*
X1271Y722D02*
X1277Y722D01*
X1293Y722D02*
X1299Y722D01*
X1350Y722D02*
X1356Y722D01*
X1394Y722D02*
X1400Y722D01*
X1745Y722D02*
X1772Y722D01*
X1796Y722D02*
X1802Y722D01*
X1823Y722D02*
X1829Y722D01*
X1846Y722D02*
X1852Y722D01*
X1903Y722D02*
X1909Y722D01*
X1948Y722D02*
X1978Y722D01*
X646Y721D02*
X652Y721D01*
X696Y721D02*
X702Y721D01*
X723Y721D02*
X729Y721D01*
X746Y721D02*
X752Y721D01*
X803Y721D02*
X809Y721D01*
X846Y721D02*
X852Y721D01*
X874Y721D02*
X880Y721D01*
X1193Y721D02*
X1199Y721D01*
X1243Y721D02*
X1249Y721D01*
X1271Y721D02*
X1277Y721D01*
X1293Y721D02*
X1299Y721D01*
X1350Y721D02*
X1356Y721D01*
X1394Y721D02*
X1400Y721D01*
X1745Y721D02*
X1752Y721D01*
X1796Y721D02*
X1802Y721D01*
X1823Y721D02*
X1829Y721D01*
X1846Y721D02*
X1852Y721D01*
X1903Y721D02*
X1909Y721D01*
X1948Y721D02*
X1978Y721D01*
X646Y720D02*
X652Y720D01*
X696Y720D02*
X702Y720D01*
X723Y720D02*
X729Y720D01*
X746Y720D02*
X752Y720D01*
X803Y720D02*
X809Y720D01*
X846Y720D02*
X852Y720D01*
X874Y720D02*
X880Y720D01*
X1193Y720D02*
X1199Y720D01*
X1243Y720D02*
X1249Y720D01*
X1271Y720D02*
X1277Y720D01*
X1293Y720D02*
X1299Y720D01*
X1350Y720D02*
X1356Y720D01*
X1394Y720D02*
X1400Y720D01*
X1745Y720D02*
X1751Y720D01*
X1796Y720D02*
X1802Y720D01*
X1823Y720D02*
X1829Y720D01*
X1846Y720D02*
X1852Y720D01*
X1903Y720D02*
X1909Y720D01*
X1948Y720D02*
X1978Y720D01*
X646Y719D02*
X652Y719D01*
X696Y719D02*
X702Y719D01*
X723Y719D02*
X729Y719D01*
X746Y719D02*
X752Y719D01*
X803Y719D02*
X809Y719D01*
X827Y719D02*
X827Y719D01*
X846Y719D02*
X852Y719D01*
X874Y719D02*
X880Y719D01*
X1193Y719D02*
X1199Y719D01*
X1243Y719D02*
X1249Y719D01*
X1271Y719D02*
X1277Y719D01*
X1293Y719D02*
X1299Y719D01*
X1350Y719D02*
X1356Y719D01*
X1394Y719D02*
X1400Y719D01*
X1745Y719D02*
X1751Y719D01*
X1796Y719D02*
X1802Y719D01*
X1823Y719D02*
X1829Y719D01*
X1846Y719D02*
X1852Y719D01*
X1903Y719D02*
X1909Y719D01*
X1948Y719D02*
X1977Y719D01*
X646Y718D02*
X652Y718D01*
X696Y718D02*
X702Y718D01*
X723Y718D02*
X729Y718D01*
X746Y718D02*
X752Y718D01*
X803Y718D02*
X809Y718D01*
X825Y718D02*
X829Y718D01*
X846Y718D02*
X852Y718D01*
X874Y718D02*
X880Y718D01*
X1193Y718D02*
X1199Y718D01*
X1243Y718D02*
X1249Y718D01*
X1271Y718D02*
X1277Y718D01*
X1293Y718D02*
X1299Y718D01*
X1350Y718D02*
X1356Y718D01*
X1394Y718D02*
X1400Y718D01*
X1745Y718D02*
X1751Y718D01*
X1796Y718D02*
X1802Y718D01*
X1823Y718D02*
X1829Y718D01*
X1846Y718D02*
X1852Y718D01*
X1903Y718D02*
X1909Y718D01*
X1968Y718D02*
X1975Y718D01*
X646Y717D02*
X652Y717D01*
X696Y717D02*
X702Y717D01*
X723Y717D02*
X729Y717D01*
X746Y717D02*
X752Y717D01*
X803Y717D02*
X809Y717D01*
X824Y717D02*
X829Y717D01*
X846Y717D02*
X852Y717D01*
X874Y717D02*
X880Y717D01*
X1193Y717D02*
X1199Y717D01*
X1243Y717D02*
X1249Y717D01*
X1271Y717D02*
X1277Y717D01*
X1293Y717D02*
X1299Y717D01*
X1350Y717D02*
X1356Y717D01*
X1394Y717D02*
X1400Y717D01*
X1745Y717D02*
X1751Y717D01*
X1796Y717D02*
X1802Y717D01*
X1823Y717D02*
X1829Y717D01*
X1846Y717D02*
X1852Y717D01*
X1903Y717D02*
X1909Y717D01*
X1969Y717D02*
X1975Y717D01*
X646Y716D02*
X652Y716D01*
X696Y716D02*
X703Y716D01*
X722Y716D02*
X729Y716D01*
X746Y716D02*
X752Y716D01*
X803Y716D02*
X809Y716D01*
X824Y716D02*
X830Y716D01*
X846Y716D02*
X852Y716D01*
X874Y716D02*
X880Y716D01*
X1193Y716D02*
X1199Y716D01*
X1243Y716D02*
X1249Y716D01*
X1270Y716D02*
X1277Y716D01*
X1293Y716D02*
X1299Y716D01*
X1350Y716D02*
X1356Y716D01*
X1373Y716D02*
X1375Y716D01*
X1394Y716D02*
X1400Y716D01*
X1745Y716D02*
X1751Y716D01*
X1796Y716D02*
X1802Y716D01*
X1823Y716D02*
X1829Y716D01*
X1846Y716D02*
X1852Y716D01*
X1903Y716D02*
X1909Y716D01*
X1969Y716D02*
X1975Y716D01*
X646Y715D02*
X652Y715D01*
X696Y715D02*
X704Y715D01*
X721Y715D02*
X729Y715D01*
X746Y715D02*
X752Y715D01*
X803Y715D02*
X810Y715D01*
X823Y715D02*
X830Y715D01*
X846Y715D02*
X852Y715D01*
X874Y715D02*
X880Y715D01*
X1193Y715D02*
X1199Y715D01*
X1243Y715D02*
X1249Y715D01*
X1270Y715D02*
X1276Y715D01*
X1293Y715D02*
X1299Y715D01*
X1350Y715D02*
X1356Y715D01*
X1372Y715D02*
X1376Y715D01*
X1394Y715D02*
X1400Y715D01*
X1745Y715D02*
X1751Y715D01*
X1796Y715D02*
X1802Y715D01*
X1823Y715D02*
X1829Y715D01*
X1846Y715D02*
X1852Y715D01*
X1903Y715D02*
X1909Y715D01*
X1969Y715D02*
X1975Y715D01*
X646Y714D02*
X652Y714D01*
X697Y714D02*
X706Y714D01*
X720Y714D02*
X728Y714D01*
X746Y714D02*
X752Y714D01*
X803Y714D02*
X810Y714D01*
X822Y714D02*
X830Y714D01*
X846Y714D02*
X852Y714D01*
X874Y714D02*
X880Y714D01*
X1193Y714D02*
X1199Y714D01*
X1243Y714D02*
X1250Y714D01*
X1270Y714D02*
X1276Y714D01*
X1293Y714D02*
X1299Y714D01*
X1350Y714D02*
X1356Y714D01*
X1371Y714D02*
X1377Y714D01*
X1394Y714D02*
X1400Y714D01*
X1745Y714D02*
X1751Y714D01*
X1796Y714D02*
X1802Y714D01*
X1823Y714D02*
X1829Y714D01*
X1846Y714D02*
X1852Y714D01*
X1903Y714D02*
X1909Y714D01*
X1969Y714D02*
X1975Y714D01*
X646Y713D02*
X652Y713D01*
X698Y713D02*
X728Y713D01*
X746Y713D02*
X752Y713D01*
X804Y713D02*
X829Y713D01*
X846Y713D02*
X880Y713D01*
X1193Y713D02*
X1199Y713D01*
X1243Y713D02*
X1250Y713D01*
X1269Y713D02*
X1276Y713D01*
X1293Y713D02*
X1299Y713D01*
X1350Y713D02*
X1356Y713D01*
X1371Y713D02*
X1377Y713D01*
X1394Y713D02*
X1400Y713D01*
X1745Y713D02*
X1751Y713D01*
X1796Y713D02*
X1802Y713D01*
X1823Y713D02*
X1829Y713D01*
X1846Y713D02*
X1852Y713D01*
X1903Y713D02*
X1909Y713D01*
X1925Y713D02*
X1928Y713D01*
X1969Y713D02*
X1975Y713D01*
X646Y712D02*
X652Y712D01*
X698Y712D02*
X727Y712D01*
X746Y712D02*
X752Y712D01*
X804Y712D02*
X829Y712D01*
X847Y712D02*
X880Y712D01*
X1193Y712D02*
X1199Y712D01*
X1244Y712D02*
X1252Y712D01*
X1268Y712D02*
X1276Y712D01*
X1293Y712D02*
X1299Y712D01*
X1350Y712D02*
X1357Y712D01*
X1370Y712D02*
X1377Y712D01*
X1394Y712D02*
X1400Y712D01*
X1745Y712D02*
X1751Y712D01*
X1796Y712D02*
X1802Y712D01*
X1823Y712D02*
X1829Y712D01*
X1846Y712D02*
X1852Y712D01*
X1903Y712D02*
X1909Y712D01*
X1924Y712D02*
X1929Y712D01*
X1969Y712D02*
X1975Y712D01*
X646Y711D02*
X652Y711D01*
X699Y711D02*
X726Y711D01*
X746Y711D02*
X752Y711D01*
X805Y711D02*
X828Y711D01*
X847Y711D02*
X880Y711D01*
X1193Y711D02*
X1199Y711D01*
X1244Y711D02*
X1253Y711D01*
X1266Y711D02*
X1275Y711D01*
X1293Y711D02*
X1299Y711D01*
X1351Y711D02*
X1358Y711D01*
X1369Y711D02*
X1377Y711D01*
X1394Y711D02*
X1400Y711D01*
X1745Y711D02*
X1751Y711D01*
X1796Y711D02*
X1802Y711D01*
X1822Y711D02*
X1829Y711D01*
X1846Y711D02*
X1852Y711D01*
X1903Y711D02*
X1909Y711D01*
X1924Y711D02*
X1929Y711D01*
X1969Y711D02*
X1975Y711D01*
X646Y710D02*
X652Y710D01*
X700Y710D02*
X725Y710D01*
X746Y710D02*
X752Y710D01*
X806Y710D02*
X827Y710D01*
X847Y710D02*
X879Y710D01*
X1193Y710D02*
X1199Y710D01*
X1245Y710D02*
X1275Y710D01*
X1293Y710D02*
X1299Y710D01*
X1351Y710D02*
X1376Y710D01*
X1394Y710D02*
X1425Y710D01*
X1745Y710D02*
X1751Y710D01*
X1796Y710D02*
X1803Y710D01*
X1821Y710D02*
X1829Y710D01*
X1846Y710D02*
X1852Y710D01*
X1903Y710D02*
X1909Y710D01*
X1923Y710D02*
X1930Y710D01*
X1969Y710D02*
X1975Y710D01*
X646Y709D02*
X652Y709D01*
X702Y709D02*
X724Y709D01*
X746Y709D02*
X752Y709D01*
X806Y709D02*
X826Y709D01*
X848Y709D02*
X879Y709D01*
X1193Y709D02*
X1199Y709D01*
X1246Y709D02*
X1274Y709D01*
X1293Y709D02*
X1299Y709D01*
X1351Y709D02*
X1376Y709D01*
X1394Y709D02*
X1426Y709D01*
X1745Y709D02*
X1751Y709D01*
X1796Y709D02*
X1805Y709D01*
X1820Y709D02*
X1828Y709D01*
X1846Y709D02*
X1852Y709D01*
X1903Y709D02*
X1910Y709D01*
X1923Y709D02*
X1930Y709D01*
X1969Y709D02*
X1975Y709D01*
X646Y708D02*
X651Y708D01*
X703Y708D02*
X722Y708D01*
X747Y708D02*
X752Y708D01*
X808Y708D02*
X825Y708D01*
X849Y708D02*
X878Y708D01*
X1193Y708D02*
X1199Y708D01*
X1247Y708D02*
X1273Y708D01*
X1293Y708D02*
X1299Y708D01*
X1352Y708D02*
X1375Y708D01*
X1394Y708D02*
X1427Y708D01*
X1745Y708D02*
X1751Y708D01*
X1797Y708D02*
X1806Y708D01*
X1819Y708D02*
X1828Y708D01*
X1846Y708D02*
X1852Y708D01*
X1903Y708D02*
X1911Y708D01*
X1922Y708D02*
X1929Y708D01*
X1969Y708D02*
X1975Y708D01*
X647Y707D02*
X650Y707D01*
X705Y707D02*
X720Y707D01*
X747Y707D02*
X751Y707D01*
X809Y707D02*
X823Y707D01*
X850Y707D02*
X876Y707D01*
X1193Y707D02*
X1199Y707D01*
X1248Y707D02*
X1272Y707D01*
X1293Y707D02*
X1299Y707D01*
X1353Y707D02*
X1374Y707D01*
X1394Y707D02*
X1427Y707D01*
X1745Y707D02*
X1751Y707D01*
X1798Y707D02*
X1827Y707D01*
X1846Y707D02*
X1852Y707D01*
X1904Y707D02*
X1929Y707D01*
X1969Y707D02*
X1975Y707D01*
X1193Y706D02*
X1199Y706D01*
X1249Y706D02*
X1270Y706D01*
X1293Y706D02*
X1299Y706D01*
X1354Y706D02*
X1373Y706D01*
X1394Y706D02*
X1427Y706D01*
X1745Y706D02*
X1751Y706D01*
X1799Y706D02*
X1826Y706D01*
X1846Y706D02*
X1852Y706D01*
X1904Y706D02*
X1928Y706D01*
X1969Y706D02*
X1975Y706D01*
X1193Y705D02*
X1198Y705D01*
X1250Y705D02*
X1269Y705D01*
X1294Y705D02*
X1299Y705D01*
X1355Y705D02*
X1372Y705D01*
X1394Y705D02*
X1426Y705D01*
X1745Y705D02*
X1751Y705D01*
X1800Y705D02*
X1825Y705D01*
X1846Y705D02*
X1852Y705D01*
X1905Y705D02*
X1928Y705D01*
X1969Y705D02*
X1975Y705D01*
X1194Y704D02*
X1197Y704D01*
X1252Y704D02*
X1267Y704D01*
X1295Y704D02*
X1298Y704D01*
X1357Y704D02*
X1370Y704D01*
X1394Y704D02*
X1425Y704D01*
X1745Y704D02*
X1751Y704D01*
X1801Y704D02*
X1824Y704D01*
X1846Y704D02*
X1852Y704D01*
X1906Y704D02*
X1927Y704D01*
X1969Y704D02*
X1975Y704D01*
X1746Y703D02*
X1751Y703D01*
X1802Y703D02*
X1823Y703D01*
X1846Y703D02*
X1852Y703D01*
X1907Y703D02*
X1926Y703D01*
X1969Y703D02*
X1974Y703D01*
X1746Y702D02*
X1751Y702D01*
X1803Y702D02*
X1821Y702D01*
X1847Y702D02*
X1851Y702D01*
X1908Y702D02*
X1924Y702D01*
X1969Y702D02*
X1974Y702D01*
X1747Y701D02*
X1749Y701D01*
X1806Y701D02*
X1819Y701D01*
X1848Y701D02*
X1850Y701D01*
X1911Y701D02*
X1922Y701D01*
X1971Y701D02*
X1973Y701D01*
X94Y616D02*
X96Y616D01*
X93Y615D02*
X97Y615D01*
X39Y614D02*
X46Y614D01*
X93Y614D02*
X97Y614D01*
X273Y614D02*
X287Y614D01*
X299Y614D02*
X313Y614D01*
X324Y614D02*
X333Y614D01*
X350Y614D02*
X353Y614D01*
X37Y613D02*
X47Y613D01*
X93Y613D02*
X97Y613D01*
X272Y613D02*
X288Y613D01*
X299Y613D02*
X314Y613D01*
X324Y613D02*
X333Y613D01*
X349Y613D02*
X354Y613D01*
X36Y612D02*
X46Y612D01*
X93Y612D02*
X97Y612D01*
X220Y612D02*
X228Y612D01*
X273Y612D02*
X289Y612D01*
X298Y612D02*
X315Y612D01*
X324Y612D02*
X333Y612D01*
X349Y612D02*
X353Y612D01*
X36Y611D02*
X40Y611D01*
X218Y611D02*
X223Y611D01*
X225Y611D02*
X230Y611D01*
X286Y611D02*
X289Y611D01*
X298Y611D02*
X301Y611D01*
X312Y611D02*
X315Y611D01*
X331Y611D02*
X333Y611D01*
X349Y611D02*
X352Y611D01*
X35Y610D02*
X38Y610D01*
X217Y610D02*
X219Y610D01*
X229Y610D02*
X232Y610D01*
X286Y610D02*
X289Y610D01*
X298Y610D02*
X301Y610D01*
X312Y610D02*
X315Y610D01*
X331Y610D02*
X333Y610D01*
X349Y610D02*
X352Y610D01*
X35Y609D02*
X38Y609D01*
X216Y609D02*
X217Y609D01*
X231Y609D02*
X233Y609D01*
X286Y609D02*
X289Y609D01*
X298Y609D02*
X301Y609D01*
X312Y609D02*
X315Y609D01*
X331Y609D02*
X333Y609D01*
X349Y609D02*
X352Y609D01*
X35Y608D02*
X38Y608D01*
X215Y608D02*
X216Y608D01*
X232Y608D02*
X234Y608D01*
X286Y608D02*
X289Y608D01*
X298Y608D02*
X301Y608D01*
X312Y608D02*
X315Y608D01*
X331Y608D02*
X333Y608D01*
X349Y608D02*
X352Y608D01*
X33Y607D02*
X42Y607D01*
X61Y607D02*
X69Y607D01*
X89Y607D02*
X96Y607D01*
X109Y607D02*
X110Y607D01*
X116Y607D02*
X121Y607D01*
X138Y607D02*
X146Y607D01*
X161Y607D02*
X161Y607D01*
X168Y607D02*
X172Y607D01*
X214Y607D02*
X215Y607D01*
X221Y607D02*
X228Y607D01*
X233Y607D02*
X234Y607D01*
X286Y607D02*
X289Y607D01*
X298Y607D02*
X301Y607D01*
X312Y607D02*
X315Y607D01*
X331Y607D02*
X333Y607D01*
X349Y607D02*
X352Y607D01*
X32Y606D02*
X43Y606D01*
X60Y606D02*
X71Y606D01*
X88Y606D02*
X97Y606D01*
X108Y606D02*
X111Y606D01*
X115Y606D02*
X123Y606D01*
X137Y606D02*
X148Y606D01*
X160Y606D02*
X162Y606D01*
X166Y606D02*
X174Y606D01*
X213Y606D02*
X214Y606D01*
X220Y606D02*
X229Y606D01*
X234Y606D02*
X235Y606D01*
X286Y606D02*
X289Y606D01*
X298Y606D02*
X301Y606D01*
X312Y606D02*
X315Y606D01*
X331Y606D02*
X333Y606D01*
X349Y606D02*
X352Y606D01*
X32Y605D02*
X43Y605D01*
X60Y605D02*
X72Y605D01*
X88Y605D02*
X97Y605D01*
X108Y605D02*
X111Y605D01*
X114Y605D02*
X124Y605D01*
X137Y605D02*
X149Y605D01*
X160Y605D02*
X162Y605D01*
X164Y605D02*
X175Y605D01*
X213Y605D02*
X214Y605D01*
X219Y605D02*
X222Y605D01*
X229Y605D02*
X229Y605D01*
X235Y605D02*
X236Y605D01*
X286Y605D02*
X289Y605D01*
X298Y605D02*
X301Y605D01*
X312Y605D02*
X315Y605D01*
X331Y605D02*
X333Y605D01*
X349Y605D02*
X352Y605D01*
X33Y604D02*
X42Y604D01*
X61Y604D02*
X73Y604D01*
X88Y604D02*
X97Y604D01*
X108Y604D02*
X124Y604D01*
X138Y604D02*
X150Y604D01*
X160Y604D02*
X176Y604D01*
X213Y604D02*
X213Y604D01*
X218Y604D02*
X220Y604D01*
X235Y604D02*
X236Y604D01*
X286Y604D02*
X289Y604D01*
X298Y604D02*
X301Y604D01*
X312Y604D02*
X315Y604D01*
X331Y604D02*
X333Y604D01*
X349Y604D02*
X352Y604D01*
X35Y603D02*
X38Y603D01*
X70Y603D02*
X73Y603D01*
X95Y603D02*
X97Y603D01*
X108Y603D02*
X116Y603D01*
X122Y603D02*
X125Y603D01*
X147Y603D02*
X150Y603D01*
X160Y603D02*
X167Y603D01*
X173Y603D02*
X176Y603D01*
X212Y603D02*
X213Y603D01*
X218Y603D02*
X220Y603D01*
X235Y603D02*
X236Y603D01*
X286Y603D02*
X289Y603D01*
X298Y603D02*
X301Y603D01*
X312Y603D02*
X315Y603D01*
X331Y603D02*
X333Y603D01*
X349Y603D02*
X352Y603D01*
X35Y602D02*
X38Y602D01*
X70Y602D02*
X73Y602D01*
X95Y602D02*
X97Y602D01*
X108Y602D02*
X115Y602D01*
X122Y602D02*
X125Y602D01*
X147Y602D02*
X150Y602D01*
X160Y602D02*
X165Y602D01*
X173Y602D02*
X176Y602D01*
X212Y602D02*
X213Y602D01*
X217Y602D02*
X219Y602D01*
X236Y602D02*
X236Y602D01*
X274Y602D02*
X289Y602D01*
X298Y602D02*
X301Y602D01*
X312Y602D02*
X315Y602D01*
X331Y602D02*
X333Y602D01*
X349Y602D02*
X352Y602D01*
X35Y601D02*
X38Y601D01*
X70Y601D02*
X73Y601D01*
X95Y601D02*
X97Y601D01*
X108Y601D02*
X114Y601D01*
X122Y601D02*
X125Y601D01*
X147Y601D02*
X150Y601D01*
X160Y601D02*
X164Y601D01*
X173Y601D02*
X176Y601D01*
X212Y601D02*
X213Y601D01*
X217Y601D02*
X219Y601D01*
X236Y601D02*
X237Y601D01*
X273Y601D02*
X288Y601D01*
X298Y601D02*
X301Y601D01*
X312Y601D02*
X315Y601D01*
X331Y601D02*
X333Y601D01*
X349Y601D02*
X352Y601D01*
X35Y600D02*
X38Y600D01*
X70Y600D02*
X73Y600D01*
X95Y600D02*
X97Y600D01*
X108Y600D02*
X112Y600D01*
X122Y600D02*
X124Y600D01*
X147Y600D02*
X150Y600D01*
X160Y600D02*
X162Y600D01*
X173Y600D02*
X176Y600D01*
X212Y600D02*
X213Y600D01*
X217Y600D02*
X219Y600D01*
X236Y600D02*
X237Y600D01*
X272Y600D02*
X288Y600D01*
X298Y600D02*
X301Y600D01*
X312Y600D02*
X315Y600D01*
X331Y600D02*
X333Y600D01*
X349Y600D02*
X352Y600D01*
X35Y599D02*
X38Y599D01*
X59Y599D02*
X73Y599D01*
X95Y599D02*
X97Y599D01*
X108Y599D02*
X111Y599D01*
X137Y599D02*
X150Y599D01*
X160Y599D02*
X162Y599D01*
X173Y599D02*
X176Y599D01*
X212Y599D02*
X213Y599D01*
X217Y599D02*
X219Y599D01*
X236Y599D02*
X237Y599D01*
X272Y599D02*
X275Y599D01*
X298Y599D02*
X301Y599D01*
X312Y599D02*
X315Y599D01*
X331Y599D02*
X333Y599D01*
X338Y599D02*
X340Y599D01*
X349Y599D02*
X366Y599D01*
X35Y598D02*
X38Y598D01*
X58Y598D02*
X73Y598D01*
X95Y598D02*
X97Y598D01*
X108Y598D02*
X111Y598D01*
X135Y598D02*
X150Y598D01*
X160Y598D02*
X162Y598D01*
X173Y598D02*
X176Y598D01*
X212Y598D02*
X213Y598D01*
X217Y598D02*
X219Y598D01*
X236Y598D02*
X236Y598D01*
X272Y598D02*
X275Y598D01*
X298Y598D02*
X301Y598D01*
X312Y598D02*
X315Y598D01*
X331Y598D02*
X333Y598D01*
X338Y598D02*
X340Y598D01*
X349Y598D02*
X366Y598D01*
X35Y597D02*
X38Y597D01*
X57Y597D02*
X73Y597D01*
X95Y597D02*
X97Y597D01*
X108Y597D02*
X111Y597D01*
X135Y597D02*
X150Y597D01*
X160Y597D02*
X162Y597D01*
X173Y597D02*
X176Y597D01*
X212Y597D02*
X213Y597D01*
X218Y597D02*
X220Y597D01*
X235Y597D02*
X236Y597D01*
X272Y597D02*
X275Y597D01*
X298Y597D02*
X301Y597D01*
X312Y597D02*
X315Y597D01*
X331Y597D02*
X333Y597D01*
X338Y597D02*
X340Y597D01*
X349Y597D02*
X366Y597D01*
X35Y596D02*
X38Y596D01*
X57Y596D02*
X61Y596D01*
X69Y596D02*
X73Y596D01*
X95Y596D02*
X97Y596D01*
X108Y596D02*
X111Y596D01*
X134Y596D02*
X138Y596D01*
X146Y596D02*
X150Y596D01*
X160Y596D02*
X162Y596D01*
X173Y596D02*
X176Y596D01*
X213Y596D02*
X213Y596D01*
X218Y596D02*
X220Y596D01*
X235Y596D02*
X236Y596D01*
X272Y596D02*
X275Y596D01*
X298Y596D02*
X301Y596D01*
X312Y596D02*
X315Y596D01*
X331Y596D02*
X333Y596D01*
X338Y596D02*
X340Y596D01*
X349Y596D02*
X352Y596D01*
X363Y596D02*
X366Y596D01*
X35Y595D02*
X38Y595D01*
X57Y595D02*
X59Y595D01*
X70Y595D02*
X73Y595D01*
X95Y595D02*
X97Y595D01*
X108Y595D02*
X111Y595D01*
X134Y595D02*
X137Y595D01*
X148Y595D02*
X150Y595D01*
X160Y595D02*
X162Y595D01*
X173Y595D02*
X176Y595D01*
X213Y595D02*
X214Y595D01*
X219Y595D02*
X221Y595D01*
X229Y595D02*
X229Y595D01*
X235Y595D02*
X236Y595D01*
X272Y595D02*
X275Y595D01*
X298Y595D02*
X301Y595D01*
X312Y595D02*
X315Y595D01*
X331Y595D02*
X333Y595D01*
X338Y595D02*
X340Y595D01*
X349Y595D02*
X352Y595D01*
X364Y595D02*
X366Y595D01*
X35Y594D02*
X38Y594D01*
X57Y594D02*
X59Y594D01*
X71Y594D02*
X73Y594D01*
X95Y594D02*
X97Y594D01*
X108Y594D02*
X111Y594D01*
X134Y594D02*
X136Y594D01*
X148Y594D02*
X150Y594D01*
X160Y594D02*
X162Y594D01*
X173Y594D02*
X176Y594D01*
X213Y594D02*
X214Y594D01*
X219Y594D02*
X229Y594D01*
X234Y594D02*
X235Y594D01*
X272Y594D02*
X275Y594D01*
X298Y594D02*
X301Y594D01*
X312Y594D02*
X315Y594D01*
X331Y594D02*
X333Y594D01*
X338Y594D02*
X340Y594D01*
X349Y594D02*
X352Y594D01*
X364Y594D02*
X366Y594D01*
X35Y593D02*
X38Y593D01*
X57Y593D02*
X59Y593D01*
X70Y593D02*
X73Y593D01*
X95Y593D02*
X97Y593D01*
X108Y593D02*
X111Y593D01*
X134Y593D02*
X136Y593D01*
X148Y593D02*
X150Y593D01*
X160Y593D02*
X162Y593D01*
X173Y593D02*
X176Y593D01*
X214Y593D02*
X215Y593D01*
X221Y593D02*
X229Y593D01*
X233Y593D02*
X235Y593D01*
X272Y593D02*
X275Y593D01*
X298Y593D02*
X301Y593D01*
X312Y593D02*
X315Y593D01*
X331Y593D02*
X333Y593D01*
X338Y593D02*
X340Y593D01*
X349Y593D02*
X352Y593D01*
X364Y593D02*
X366Y593D01*
X35Y592D02*
X38Y592D01*
X57Y592D02*
X59Y592D01*
X69Y592D02*
X73Y592D01*
X95Y592D02*
X97Y592D01*
X108Y592D02*
X111Y592D01*
X134Y592D02*
X136Y592D01*
X146Y592D02*
X150Y592D01*
X160Y592D02*
X162Y592D01*
X173Y592D02*
X176Y592D01*
X215Y592D02*
X216Y592D01*
X232Y592D02*
X234Y592D01*
X272Y592D02*
X275Y592D01*
X298Y592D02*
X301Y592D01*
X312Y592D02*
X315Y592D01*
X331Y592D02*
X333Y592D01*
X338Y592D02*
X340Y592D01*
X349Y592D02*
X352Y592D01*
X364Y592D02*
X366Y592D01*
X35Y591D02*
X38Y591D01*
X57Y591D02*
X60Y591D01*
X67Y591D02*
X73Y591D01*
X95Y591D02*
X97Y591D01*
X108Y591D02*
X111Y591D01*
X134Y591D02*
X137Y591D01*
X145Y591D02*
X150Y591D01*
X160Y591D02*
X162Y591D01*
X173Y591D02*
X176Y591D01*
X216Y591D02*
X217Y591D01*
X231Y591D02*
X233Y591D01*
X272Y591D02*
X275Y591D01*
X298Y591D02*
X301Y591D01*
X312Y591D02*
X315Y591D01*
X331Y591D02*
X333Y591D01*
X338Y591D02*
X340Y591D01*
X349Y591D02*
X352Y591D01*
X364Y591D02*
X366Y591D01*
X35Y590D02*
X38Y590D01*
X57Y590D02*
X73Y590D01*
X95Y590D02*
X97Y590D01*
X108Y590D02*
X111Y590D01*
X134Y590D02*
X150Y590D01*
X160Y590D02*
X162Y590D01*
X173Y590D02*
X176Y590D01*
X217Y590D02*
X219Y590D01*
X230Y590D02*
X232Y590D01*
X272Y590D02*
X288Y590D01*
X298Y590D02*
X315Y590D01*
X324Y590D02*
X340Y590D01*
X349Y590D02*
X366Y590D01*
X35Y589D02*
X38Y589D01*
X58Y589D02*
X73Y589D01*
X95Y589D02*
X97Y589D01*
X108Y589D02*
X111Y589D01*
X135Y589D02*
X150Y589D01*
X160Y589D02*
X162Y589D01*
X173Y589D02*
X176Y589D01*
X218Y589D02*
X222Y589D01*
X227Y589D02*
X231Y589D01*
X272Y589D02*
X289Y589D01*
X298Y589D02*
X314Y589D01*
X324Y589D02*
X340Y589D01*
X349Y589D02*
X366Y589D01*
X36Y588D02*
X38Y588D01*
X59Y588D02*
X68Y588D01*
X71Y588D02*
X73Y588D01*
X95Y588D02*
X97Y588D01*
X108Y588D02*
X110Y588D01*
X136Y588D02*
X146Y588D01*
X148Y588D02*
X150Y588D01*
X160Y588D02*
X162Y588D01*
X174Y588D02*
X176Y588D01*
X220Y588D02*
X229Y588D01*
X272Y588D02*
X289Y588D01*
X299Y588D02*
X313Y588D01*
X324Y588D02*
X340Y588D01*
X350Y588D02*
X366Y588D01*
X95Y587D02*
X97Y587D01*
X85Y586D02*
X85Y586D01*
X95Y586D02*
X97Y586D01*
X84Y585D02*
X86Y585D01*
X95Y585D02*
X97Y585D01*
X84Y584D02*
X87Y584D01*
X94Y584D02*
X97Y584D01*
X84Y583D02*
X97Y583D01*
X85Y582D02*
X96Y582D01*
X86Y581D02*
X96Y581D01*
X87Y580D02*
X94Y580D01*
X418Y496D02*
X471Y496D01*
X418Y495D02*
X471Y495D01*
X418Y494D02*
X471Y494D01*
X418Y493D02*
X471Y493D01*
X418Y492D02*
X471Y492D01*
X418Y491D02*
X471Y491D01*
X418Y490D02*
X471Y490D01*
X418Y489D02*
X424Y489D01*
X441Y489D02*
X447Y489D01*
X465Y489D02*
X471Y489D01*
X418Y488D02*
X424Y488D01*
X441Y488D02*
X447Y488D01*
X465Y488D02*
X471Y488D01*
X418Y487D02*
X424Y487D01*
X441Y487D02*
X447Y487D01*
X465Y487D02*
X471Y487D01*
X418Y486D02*
X424Y486D01*
X441Y486D02*
X447Y486D01*
X465Y486D02*
X471Y486D01*
X418Y485D02*
X424Y485D01*
X441Y485D02*
X447Y485D01*
X465Y485D02*
X471Y485D01*
X418Y484D02*
X424Y484D01*
X441Y484D02*
X447Y484D01*
X465Y484D02*
X471Y484D01*
X418Y483D02*
X424Y483D01*
X441Y483D02*
X447Y483D01*
X465Y483D02*
X471Y483D01*
X418Y482D02*
X424Y482D01*
X441Y482D02*
X447Y482D01*
X465Y482D02*
X471Y482D01*
X418Y481D02*
X424Y481D01*
X441Y481D02*
X447Y481D01*
X465Y481D02*
X471Y481D01*
X418Y480D02*
X424Y480D01*
X441Y480D02*
X447Y480D01*
X465Y480D02*
X471Y480D01*
X418Y479D02*
X424Y479D01*
X441Y479D02*
X447Y479D01*
X465Y479D02*
X471Y479D01*
X418Y478D02*
X424Y478D01*
X441Y478D02*
X447Y478D01*
X465Y478D02*
X471Y478D01*
X418Y477D02*
X424Y477D01*
X441Y477D02*
X447Y477D01*
X465Y477D02*
X471Y477D01*
X418Y476D02*
X424Y476D01*
X441Y476D02*
X447Y476D01*
X465Y476D02*
X471Y476D01*
X418Y475D02*
X424Y475D01*
X441Y475D02*
X447Y475D01*
X465Y475D02*
X471Y475D01*
X418Y474D02*
X424Y474D01*
X441Y474D02*
X448Y474D01*
X464Y474D02*
X471Y474D01*
X418Y473D02*
X425Y473D01*
X440Y473D02*
X448Y473D01*
X464Y473D02*
X470Y473D01*
X418Y472D02*
X425Y472D01*
X440Y472D02*
X449Y472D01*
X463Y472D02*
X470Y472D01*
X419Y471D02*
X426Y471D01*
X439Y471D02*
X450Y471D01*
X462Y471D02*
X470Y471D01*
X419Y470D02*
X428Y470D01*
X437Y470D02*
X451Y470D01*
X461Y470D02*
X469Y470D01*
X420Y469D02*
X469Y469D01*
X420Y468D02*
X468Y468D01*
X421Y467D02*
X467Y467D01*
X422Y466D02*
X443Y466D01*
X446Y466D02*
X466Y466D01*
X423Y465D02*
X441Y465D01*
X447Y465D02*
X465Y465D01*
X425Y464D02*
X440Y464D01*
X449Y464D02*
X463Y464D01*
X427Y463D02*
X438Y463D01*
X451Y463D02*
X461Y463D01*
X424Y446D02*
X435Y446D01*
X422Y445D02*
X437Y445D01*
X421Y444D02*
X438Y444D01*
X420Y443D02*
X439Y443D01*
X419Y442D02*
X440Y442D01*
X419Y441D02*
X440Y441D01*
X418Y440D02*
X441Y440D01*
X418Y439D02*
X425Y439D01*
X434Y439D02*
X441Y439D01*
X451Y439D02*
X455Y439D01*
X418Y438D02*
X424Y438D01*
X435Y438D02*
X441Y438D01*
X451Y438D02*
X456Y438D01*
X418Y437D02*
X424Y437D01*
X435Y437D02*
X441Y437D01*
X450Y437D02*
X456Y437D01*
X418Y436D02*
X424Y436D01*
X435Y436D02*
X441Y436D01*
X450Y436D02*
X456Y436D01*
X418Y435D02*
X424Y435D01*
X435Y435D02*
X441Y435D01*
X450Y435D02*
X456Y435D01*
X418Y434D02*
X424Y434D01*
X435Y434D02*
X441Y434D01*
X450Y434D02*
X456Y434D01*
X418Y433D02*
X424Y433D01*
X435Y433D02*
X441Y433D01*
X450Y433D02*
X456Y433D01*
X418Y432D02*
X424Y432D01*
X435Y432D02*
X441Y432D01*
X450Y432D02*
X456Y432D01*
X418Y431D02*
X424Y431D01*
X435Y431D02*
X441Y431D01*
X450Y431D02*
X456Y431D01*
X418Y430D02*
X424Y430D01*
X435Y430D02*
X441Y430D01*
X450Y430D02*
X456Y430D01*
X418Y429D02*
X424Y429D01*
X435Y429D02*
X441Y429D01*
X450Y429D02*
X456Y429D01*
X418Y428D02*
X424Y428D01*
X435Y428D02*
X441Y428D01*
X450Y428D02*
X456Y428D01*
X418Y427D02*
X424Y427D01*
X435Y427D02*
X441Y427D01*
X450Y427D02*
X456Y427D01*
X418Y426D02*
X424Y426D01*
X435Y426D02*
X441Y426D01*
X450Y426D02*
X456Y426D01*
X418Y425D02*
X425Y425D01*
X435Y425D02*
X441Y425D01*
X450Y425D02*
X456Y425D01*
X418Y424D02*
X425Y424D01*
X435Y424D02*
X441Y424D01*
X450Y424D02*
X456Y424D01*
X419Y423D02*
X426Y423D01*
X435Y423D02*
X441Y423D01*
X450Y423D02*
X456Y423D01*
X419Y422D02*
X427Y422D01*
X435Y422D02*
X441Y422D01*
X450Y422D02*
X456Y422D01*
X420Y421D02*
X427Y421D01*
X435Y421D02*
X441Y421D01*
X449Y421D02*
X456Y421D01*
X421Y420D02*
X428Y420D01*
X434Y420D02*
X441Y420D01*
X446Y420D02*
X456Y420D01*
X420Y419D02*
X455Y419D01*
X419Y418D02*
X455Y418D01*
X418Y417D02*
X454Y417D01*
X418Y416D02*
X453Y416D01*
X418Y415D02*
X452Y415D01*
X418Y414D02*
X451Y414D01*
X420Y413D02*
X449Y413D01*
X646Y404D02*
X673Y404D01*
X848Y404D02*
X866Y404D01*
X1204Y404D02*
X1231Y404D01*
X1406Y404D02*
X1435Y404D01*
X646Y403D02*
X675Y403D01*
X847Y403D02*
X866Y403D01*
X1204Y403D02*
X1233Y403D01*
X1405Y403D02*
X1436Y403D01*
X646Y402D02*
X676Y402D01*
X847Y402D02*
X866Y402D01*
X1204Y402D02*
X1234Y402D01*
X1405Y402D02*
X1437Y402D01*
X646Y401D02*
X677Y401D01*
X804Y401D02*
X808Y401D01*
X846Y401D02*
X866Y401D01*
X1204Y401D02*
X1235Y401D01*
X1363Y401D02*
X1366Y401D01*
X1405Y401D02*
X1438Y401D01*
X646Y400D02*
X678Y400D01*
X803Y400D02*
X809Y400D01*
X847Y400D02*
X866Y400D01*
X1204Y400D02*
X1236Y400D01*
X1362Y400D02*
X1367Y400D01*
X1405Y400D02*
X1438Y400D01*
X646Y399D02*
X678Y399D01*
X803Y399D02*
X809Y399D01*
X847Y399D02*
X866Y399D01*
X1204Y399D02*
X1236Y399D01*
X1361Y399D02*
X1367Y399D01*
X1406Y399D02*
X1438Y399D01*
X646Y398D02*
X679Y398D01*
X803Y398D02*
X809Y398D01*
X849Y398D02*
X866Y398D01*
X1204Y398D02*
X1237Y398D01*
X1361Y398D02*
X1367Y398D01*
X1408Y398D02*
X1438Y398D01*
X646Y397D02*
X652Y397D01*
X672Y397D02*
X679Y397D01*
X803Y397D02*
X809Y397D01*
X860Y397D02*
X866Y397D01*
X1204Y397D02*
X1210Y397D01*
X1230Y397D02*
X1237Y397D01*
X1361Y397D02*
X1367Y397D01*
X1432Y397D02*
X1438Y397D01*
X422Y396D02*
X425Y396D01*
X646Y396D02*
X652Y396D01*
X673Y396D02*
X679Y396D01*
X803Y396D02*
X809Y396D01*
X860Y396D02*
X866Y396D01*
X1204Y396D02*
X1210Y396D01*
X1231Y396D02*
X1237Y396D01*
X1361Y396D02*
X1367Y396D01*
X1432Y396D02*
X1438Y396D01*
X421Y395D02*
X426Y395D01*
X445Y395D02*
X451Y395D01*
X646Y395D02*
X652Y395D01*
X673Y395D02*
X679Y395D01*
X803Y395D02*
X809Y395D01*
X860Y395D02*
X866Y395D01*
X1204Y395D02*
X1210Y395D01*
X1231Y395D02*
X1237Y395D01*
X1361Y395D02*
X1367Y395D01*
X1432Y395D02*
X1438Y395D01*
X420Y394D02*
X426Y394D01*
X443Y394D02*
X452Y394D01*
X646Y394D02*
X652Y394D01*
X673Y394D02*
X679Y394D01*
X803Y394D02*
X809Y394D01*
X860Y394D02*
X866Y394D01*
X1204Y394D02*
X1210Y394D01*
X1231Y394D02*
X1237Y394D01*
X1361Y394D02*
X1367Y394D01*
X1432Y394D02*
X1438Y394D01*
X420Y393D02*
X426Y393D01*
X442Y393D02*
X453Y393D01*
X646Y393D02*
X652Y393D01*
X673Y393D02*
X679Y393D01*
X803Y393D02*
X809Y393D01*
X860Y393D02*
X866Y393D01*
X1204Y393D02*
X1210Y393D01*
X1231Y393D02*
X1237Y393D01*
X1361Y393D02*
X1367Y393D01*
X1432Y393D02*
X1438Y393D01*
X419Y392D02*
X426Y392D01*
X441Y392D02*
X454Y392D01*
X646Y392D02*
X652Y392D01*
X673Y392D02*
X679Y392D01*
X803Y392D02*
X809Y392D01*
X860Y392D02*
X866Y392D01*
X1204Y392D02*
X1210Y392D01*
X1231Y392D02*
X1237Y392D01*
X1361Y392D02*
X1367Y392D01*
X1432Y392D02*
X1438Y392D01*
X419Y391D02*
X426Y391D01*
X440Y391D02*
X455Y391D01*
X646Y391D02*
X652Y391D01*
X673Y391D02*
X679Y391D01*
X803Y391D02*
X809Y391D01*
X860Y391D02*
X866Y391D01*
X1204Y391D02*
X1210Y391D01*
X1231Y391D02*
X1237Y391D01*
X1361Y391D02*
X1367Y391D01*
X1432Y391D02*
X1438Y391D01*
X418Y390D02*
X425Y390D01*
X440Y390D02*
X455Y390D01*
X646Y390D02*
X652Y390D01*
X673Y390D02*
X679Y390D01*
X707Y390D02*
X718Y390D01*
X748Y390D02*
X750Y390D01*
X762Y390D02*
X771Y390D01*
X799Y390D02*
X824Y390D01*
X860Y390D02*
X866Y390D01*
X1204Y390D02*
X1210Y390D01*
X1231Y390D02*
X1237Y390D01*
X1265Y390D02*
X1277Y390D01*
X1307Y390D02*
X1308Y390D01*
X1320Y390D02*
X1329Y390D01*
X1357Y390D02*
X1382Y390D01*
X1432Y390D02*
X1438Y390D01*
X418Y389D02*
X425Y389D01*
X439Y389D02*
X456Y389D01*
X646Y389D02*
X652Y389D01*
X673Y389D02*
X679Y389D01*
X704Y389D02*
X721Y389D01*
X747Y389D02*
X751Y389D01*
X761Y389D02*
X774Y389D01*
X797Y389D02*
X825Y389D01*
X860Y389D02*
X866Y389D01*
X1204Y389D02*
X1210Y389D01*
X1231Y389D02*
X1237Y389D01*
X1262Y389D02*
X1279Y389D01*
X1305Y389D02*
X1309Y389D01*
X1319Y389D02*
X1332Y389D01*
X1355Y389D02*
X1384Y389D01*
X1432Y389D02*
X1438Y389D01*
X418Y388D02*
X424Y388D01*
X439Y388D02*
X446Y388D01*
X450Y388D02*
X456Y388D01*
X646Y388D02*
X652Y388D01*
X673Y388D02*
X679Y388D01*
X702Y388D02*
X723Y388D01*
X746Y388D02*
X752Y388D01*
X759Y388D02*
X775Y388D01*
X797Y388D02*
X826Y388D01*
X860Y388D02*
X866Y388D01*
X1204Y388D02*
X1210Y388D01*
X1231Y388D02*
X1237Y388D01*
X1261Y388D02*
X1281Y388D01*
X1305Y388D02*
X1310Y388D01*
X1318Y388D02*
X1334Y388D01*
X1355Y388D02*
X1384Y388D01*
X1432Y388D02*
X1438Y388D01*
X418Y387D02*
X424Y387D01*
X439Y387D02*
X445Y387D01*
X450Y387D02*
X456Y387D01*
X646Y387D02*
X652Y387D01*
X673Y387D02*
X679Y387D01*
X701Y387D02*
X724Y387D01*
X746Y387D02*
X752Y387D01*
X758Y387D02*
X777Y387D01*
X797Y387D02*
X826Y387D01*
X860Y387D02*
X866Y387D01*
X1204Y387D02*
X1210Y387D01*
X1231Y387D02*
X1237Y387D01*
X1259Y387D02*
X1282Y387D01*
X1304Y387D02*
X1310Y387D01*
X1316Y387D02*
X1335Y387D01*
X1355Y387D02*
X1384Y387D01*
X1432Y387D02*
X1438Y387D01*
X418Y386D02*
X424Y386D01*
X438Y386D02*
X445Y386D01*
X450Y386D02*
X456Y386D01*
X646Y386D02*
X652Y386D01*
X673Y386D02*
X679Y386D01*
X700Y386D02*
X725Y386D01*
X746Y386D02*
X752Y386D01*
X757Y386D02*
X777Y386D01*
X797Y386D02*
X826Y386D01*
X860Y386D02*
X866Y386D01*
X1204Y386D02*
X1210Y386D01*
X1231Y386D02*
X1237Y386D01*
X1258Y386D02*
X1283Y386D01*
X1304Y386D02*
X1310Y386D01*
X1315Y386D02*
X1336Y386D01*
X1355Y386D02*
X1384Y386D01*
X1432Y386D02*
X1438Y386D01*
X418Y385D02*
X424Y385D01*
X438Y385D02*
X444Y385D01*
X450Y385D02*
X456Y385D01*
X646Y385D02*
X652Y385D01*
X673Y385D02*
X679Y385D01*
X699Y385D02*
X726Y385D01*
X746Y385D02*
X752Y385D01*
X756Y385D02*
X778Y385D01*
X797Y385D02*
X826Y385D01*
X860Y385D02*
X866Y385D01*
X1204Y385D02*
X1210Y385D01*
X1231Y385D02*
X1237Y385D01*
X1257Y385D02*
X1285Y385D01*
X1304Y385D02*
X1310Y385D01*
X1314Y385D02*
X1336Y385D01*
X1355Y385D02*
X1384Y385D01*
X1432Y385D02*
X1438Y385D01*
X418Y384D02*
X424Y384D01*
X437Y384D02*
X444Y384D01*
X450Y384D02*
X456Y384D01*
X646Y384D02*
X652Y384D01*
X673Y384D02*
X679Y384D01*
X698Y384D02*
X727Y384D01*
X746Y384D02*
X752Y384D01*
X755Y384D02*
X779Y384D01*
X798Y384D02*
X825Y384D01*
X860Y384D02*
X866Y384D01*
X1204Y384D02*
X1210Y384D01*
X1231Y384D02*
X1237Y384D01*
X1256Y384D02*
X1285Y384D01*
X1304Y384D02*
X1310Y384D01*
X1313Y384D02*
X1337Y384D01*
X1356Y384D02*
X1383Y384D01*
X1432Y384D02*
X1438Y384D01*
X418Y383D02*
X424Y383D01*
X437Y383D02*
X443Y383D01*
X450Y383D02*
X456Y383D01*
X646Y383D02*
X652Y383D01*
X673Y383D02*
X679Y383D01*
X697Y383D02*
X707Y383D01*
X718Y383D02*
X728Y383D01*
X746Y383D02*
X763Y383D01*
X771Y383D02*
X779Y383D01*
X803Y383D02*
X809Y383D01*
X860Y383D02*
X866Y383D01*
X1204Y383D02*
X1210Y383D01*
X1231Y383D02*
X1237Y383D01*
X1256Y383D02*
X1265Y383D01*
X1276Y383D02*
X1286Y383D01*
X1304Y383D02*
X1322Y383D01*
X1329Y383D02*
X1337Y383D01*
X1361Y383D02*
X1368Y383D01*
X1432Y383D02*
X1438Y383D01*
X418Y382D02*
X424Y382D01*
X436Y382D02*
X443Y382D01*
X450Y382D02*
X456Y382D01*
X646Y382D02*
X652Y382D01*
X673Y382D02*
X679Y382D01*
X697Y382D02*
X705Y382D01*
X720Y382D02*
X728Y382D01*
X746Y382D02*
X762Y382D01*
X773Y382D02*
X779Y382D01*
X803Y382D02*
X809Y382D01*
X860Y382D02*
X866Y382D01*
X1204Y382D02*
X1210Y382D01*
X1231Y382D02*
X1237Y382D01*
X1255Y382D02*
X1263Y382D01*
X1279Y382D02*
X1287Y382D01*
X1304Y382D02*
X1320Y382D01*
X1331Y382D02*
X1338Y382D01*
X1361Y382D02*
X1367Y382D01*
X1431Y382D02*
X1438Y382D01*
X418Y381D02*
X424Y381D01*
X436Y381D02*
X443Y381D01*
X450Y381D02*
X456Y381D01*
X646Y381D02*
X652Y381D01*
X673Y381D02*
X679Y381D01*
X696Y381D02*
X704Y381D01*
X722Y381D02*
X729Y381D01*
X746Y381D02*
X761Y381D01*
X773Y381D02*
X779Y381D01*
X803Y381D02*
X809Y381D01*
X860Y381D02*
X866Y381D01*
X1204Y381D02*
X1210Y381D01*
X1231Y381D02*
X1237Y381D01*
X1255Y381D02*
X1262Y381D01*
X1280Y381D02*
X1287Y381D01*
X1304Y381D02*
X1319Y381D01*
X1332Y381D02*
X1338Y381D01*
X1361Y381D02*
X1367Y381D01*
X1414Y381D02*
X1438Y381D01*
X418Y380D02*
X424Y380D01*
X435Y380D02*
X442Y380D01*
X450Y380D02*
X456Y380D01*
X646Y380D02*
X652Y380D01*
X673Y380D02*
X679Y380D01*
X696Y380D02*
X703Y380D01*
X722Y380D02*
X729Y380D01*
X746Y380D02*
X760Y380D01*
X774Y380D02*
X780Y380D01*
X803Y380D02*
X809Y380D01*
X860Y380D02*
X866Y380D01*
X1204Y380D02*
X1210Y380D01*
X1231Y380D02*
X1237Y380D01*
X1254Y380D02*
X1261Y380D01*
X1281Y380D02*
X1287Y380D01*
X1304Y380D02*
X1318Y380D01*
X1332Y380D02*
X1338Y380D01*
X1361Y380D02*
X1367Y380D01*
X1412Y380D02*
X1437Y380D01*
X418Y379D02*
X424Y379D01*
X435Y379D02*
X442Y379D01*
X450Y379D02*
X456Y379D01*
X646Y379D02*
X652Y379D01*
X671Y379D02*
X679Y379D01*
X696Y379D02*
X702Y379D01*
X723Y379D02*
X729Y379D01*
X746Y379D02*
X759Y379D01*
X774Y379D02*
X780Y379D01*
X803Y379D02*
X809Y379D01*
X860Y379D02*
X866Y379D01*
X1204Y379D02*
X1210Y379D01*
X1230Y379D02*
X1237Y379D01*
X1254Y379D02*
X1260Y379D01*
X1281Y379D02*
X1288Y379D01*
X1304Y379D02*
X1317Y379D01*
X1332Y379D02*
X1338Y379D01*
X1361Y379D02*
X1367Y379D01*
X1412Y379D02*
X1436Y379D01*
X418Y378D02*
X424Y378D01*
X435Y378D02*
X441Y378D01*
X450Y378D02*
X456Y378D01*
X646Y378D02*
X678Y378D01*
X696Y378D02*
X702Y378D01*
X723Y378D02*
X729Y378D01*
X746Y378D02*
X758Y378D01*
X774Y378D02*
X780Y378D01*
X803Y378D02*
X809Y378D01*
X860Y378D02*
X866Y378D01*
X1204Y378D02*
X1237Y378D01*
X1254Y378D02*
X1260Y378D01*
X1282Y378D02*
X1288Y378D01*
X1304Y378D02*
X1316Y378D01*
X1332Y378D02*
X1338Y378D01*
X1361Y378D02*
X1367Y378D01*
X1412Y378D02*
X1436Y378D01*
X418Y377D02*
X424Y377D01*
X434Y377D02*
X441Y377D01*
X450Y377D02*
X456Y377D01*
X646Y377D02*
X678Y377D01*
X696Y377D02*
X702Y377D01*
X723Y377D02*
X729Y377D01*
X746Y377D02*
X756Y377D01*
X774Y377D02*
X779Y377D01*
X803Y377D02*
X809Y377D01*
X860Y377D02*
X866Y377D01*
X1204Y377D02*
X1236Y377D01*
X1254Y377D02*
X1260Y377D01*
X1282Y377D02*
X1288Y377D01*
X1304Y377D02*
X1315Y377D01*
X1332Y377D02*
X1338Y377D01*
X1361Y377D02*
X1367Y377D01*
X1412Y377D02*
X1436Y377D01*
X418Y376D02*
X424Y376D01*
X434Y376D02*
X440Y376D01*
X450Y376D02*
X456Y376D01*
X646Y376D02*
X677Y376D01*
X696Y376D02*
X702Y376D01*
X723Y376D02*
X729Y376D01*
X746Y376D02*
X755Y376D01*
X774Y376D02*
X779Y376D01*
X803Y376D02*
X809Y376D01*
X860Y376D02*
X866Y376D01*
X1204Y376D02*
X1236Y376D01*
X1254Y376D02*
X1260Y376D01*
X1282Y376D02*
X1288Y376D01*
X1304Y376D02*
X1313Y376D01*
X1332Y376D02*
X1337Y376D01*
X1361Y376D02*
X1367Y376D01*
X1412Y376D02*
X1437Y376D01*
X418Y375D02*
X424Y375D01*
X433Y375D02*
X440Y375D01*
X450Y375D02*
X456Y375D01*
X646Y375D02*
X677Y375D01*
X696Y375D02*
X702Y375D01*
X723Y375D02*
X729Y375D01*
X746Y375D02*
X754Y375D01*
X775Y375D02*
X778Y375D01*
X803Y375D02*
X809Y375D01*
X860Y375D02*
X866Y375D01*
X876Y375D02*
X878Y375D01*
X1204Y375D02*
X1235Y375D01*
X1254Y375D02*
X1260Y375D01*
X1282Y375D02*
X1288Y375D01*
X1304Y375D02*
X1312Y375D01*
X1333Y375D02*
X1336Y375D01*
X1361Y375D02*
X1367Y375D01*
X1413Y375D02*
X1437Y375D01*
X418Y374D02*
X424Y374D01*
X433Y374D02*
X439Y374D01*
X450Y374D02*
X456Y374D01*
X646Y374D02*
X675Y374D01*
X696Y374D02*
X702Y374D01*
X723Y374D02*
X729Y374D01*
X746Y374D02*
X753Y374D01*
X803Y374D02*
X809Y374D01*
X860Y374D02*
X866Y374D01*
X875Y374D02*
X879Y374D01*
X1204Y374D02*
X1234Y374D01*
X1254Y374D02*
X1260Y374D01*
X1282Y374D02*
X1288Y374D01*
X1304Y374D02*
X1311Y374D01*
X1361Y374D02*
X1367Y374D01*
X1430Y374D02*
X1438Y374D01*
X418Y373D02*
X424Y373D01*
X432Y373D02*
X439Y373D01*
X450Y373D02*
X456Y373D01*
X646Y373D02*
X674Y373D01*
X696Y373D02*
X702Y373D01*
X723Y373D02*
X729Y373D01*
X746Y373D02*
X752Y373D01*
X803Y373D02*
X809Y373D01*
X860Y373D02*
X866Y373D01*
X874Y373D02*
X880Y373D01*
X1204Y373D02*
X1232Y373D01*
X1254Y373D02*
X1260Y373D01*
X1282Y373D02*
X1288Y373D01*
X1304Y373D02*
X1310Y373D01*
X1361Y373D02*
X1367Y373D01*
X1431Y373D02*
X1438Y373D01*
X418Y372D02*
X424Y372D01*
X432Y372D02*
X439Y372D01*
X450Y372D02*
X456Y372D01*
X646Y372D02*
X672Y372D01*
X696Y372D02*
X702Y372D01*
X723Y372D02*
X729Y372D01*
X746Y372D02*
X752Y372D01*
X803Y372D02*
X809Y372D01*
X860Y372D02*
X866Y372D01*
X874Y372D02*
X880Y372D01*
X1204Y372D02*
X1230Y372D01*
X1254Y372D02*
X1260Y372D01*
X1282Y372D02*
X1288Y372D01*
X1304Y372D02*
X1310Y372D01*
X1361Y372D02*
X1367Y372D01*
X1432Y372D02*
X1438Y372D01*
X418Y371D02*
X424Y371D01*
X432Y371D02*
X438Y371D01*
X450Y371D02*
X456Y371D01*
X646Y371D02*
X652Y371D01*
X696Y371D02*
X702Y371D01*
X723Y371D02*
X729Y371D01*
X746Y371D02*
X752Y371D01*
X803Y371D02*
X809Y371D01*
X860Y371D02*
X866Y371D01*
X874Y371D02*
X880Y371D01*
X1204Y371D02*
X1210Y371D01*
X1254Y371D02*
X1260Y371D01*
X1282Y371D02*
X1288Y371D01*
X1304Y371D02*
X1310Y371D01*
X1361Y371D02*
X1367Y371D01*
X1432Y371D02*
X1438Y371D01*
X418Y370D02*
X425Y370D01*
X431Y370D02*
X438Y370D01*
X449Y370D02*
X456Y370D01*
X646Y370D02*
X652Y370D01*
X696Y370D02*
X702Y370D01*
X723Y370D02*
X729Y370D01*
X746Y370D02*
X752Y370D01*
X803Y370D02*
X809Y370D01*
X860Y370D02*
X866Y370D01*
X874Y370D02*
X880Y370D01*
X1204Y370D02*
X1210Y370D01*
X1254Y370D02*
X1260Y370D01*
X1282Y370D02*
X1288Y370D01*
X1304Y370D02*
X1310Y370D01*
X1361Y370D02*
X1367Y370D01*
X1432Y370D02*
X1438Y370D01*
X418Y369D02*
X437Y369D01*
X449Y369D02*
X456Y369D01*
X646Y369D02*
X652Y369D01*
X696Y369D02*
X702Y369D01*
X723Y369D02*
X729Y369D01*
X746Y369D02*
X752Y369D01*
X803Y369D02*
X809Y369D01*
X860Y369D02*
X866Y369D01*
X874Y369D02*
X880Y369D01*
X1204Y369D02*
X1210Y369D01*
X1254Y369D02*
X1260Y369D01*
X1282Y369D02*
X1288Y369D01*
X1304Y369D02*
X1310Y369D01*
X1361Y369D02*
X1367Y369D01*
X1432Y369D02*
X1438Y369D01*
X419Y368D02*
X437Y368D01*
X448Y368D02*
X455Y368D01*
X646Y368D02*
X652Y368D01*
X696Y368D02*
X702Y368D01*
X723Y368D02*
X729Y368D01*
X746Y368D02*
X752Y368D01*
X803Y368D02*
X809Y368D01*
X860Y368D02*
X866Y368D01*
X874Y368D02*
X880Y368D01*
X1204Y368D02*
X1210Y368D01*
X1254Y368D02*
X1260Y368D01*
X1282Y368D02*
X1288Y368D01*
X1304Y368D02*
X1310Y368D01*
X1361Y368D02*
X1367Y368D01*
X1432Y368D02*
X1438Y368D01*
X419Y367D02*
X436Y367D01*
X447Y367D02*
X455Y367D01*
X646Y367D02*
X652Y367D01*
X696Y367D02*
X702Y367D01*
X723Y367D02*
X729Y367D01*
X746Y367D02*
X752Y367D01*
X803Y367D02*
X809Y367D01*
X860Y367D02*
X866Y367D01*
X874Y367D02*
X880Y367D01*
X1204Y367D02*
X1210Y367D01*
X1254Y367D02*
X1260Y367D01*
X1282Y367D02*
X1288Y367D01*
X1304Y367D02*
X1310Y367D01*
X1361Y367D02*
X1367Y367D01*
X1432Y367D02*
X1438Y367D01*
X420Y366D02*
X436Y366D01*
X447Y366D02*
X454Y366D01*
X646Y366D02*
X652Y366D01*
X696Y366D02*
X702Y366D01*
X723Y366D02*
X729Y366D01*
X746Y366D02*
X752Y366D01*
X803Y366D02*
X809Y366D01*
X860Y366D02*
X866Y366D01*
X874Y366D02*
X880Y366D01*
X1204Y366D02*
X1210Y366D01*
X1254Y366D02*
X1260Y366D01*
X1282Y366D02*
X1288Y366D01*
X1304Y366D02*
X1310Y366D01*
X1361Y366D02*
X1367Y366D01*
X1432Y366D02*
X1438Y366D01*
X421Y365D02*
X434Y365D01*
X447Y365D02*
X453Y365D01*
X646Y365D02*
X652Y365D01*
X696Y365D02*
X702Y365D01*
X723Y365D02*
X729Y365D01*
X746Y365D02*
X752Y365D01*
X803Y365D02*
X809Y365D01*
X860Y365D02*
X866Y365D01*
X874Y365D02*
X880Y365D01*
X1204Y365D02*
X1210Y365D01*
X1254Y365D02*
X1260Y365D01*
X1282Y365D02*
X1288Y365D01*
X1304Y365D02*
X1310Y365D01*
X1361Y365D02*
X1367Y365D01*
X1432Y365D02*
X1438Y365D01*
X422Y364D02*
X433Y364D01*
X448Y364D02*
X452Y364D01*
X646Y364D02*
X652Y364D01*
X696Y364D02*
X702Y364D01*
X723Y364D02*
X729Y364D01*
X746Y364D02*
X752Y364D01*
X803Y364D02*
X809Y364D01*
X860Y364D02*
X866Y364D01*
X874Y364D02*
X880Y364D01*
X1204Y364D02*
X1210Y364D01*
X1254Y364D02*
X1260Y364D01*
X1282Y364D02*
X1288Y364D01*
X1304Y364D02*
X1310Y364D01*
X1361Y364D02*
X1367Y364D01*
X1432Y364D02*
X1438Y364D01*
X424Y363D02*
X431Y363D01*
X449Y363D02*
X451Y363D01*
X646Y363D02*
X652Y363D01*
X696Y363D02*
X702Y363D01*
X723Y363D02*
X729Y363D01*
X746Y363D02*
X752Y363D01*
X803Y363D02*
X809Y363D01*
X825Y363D02*
X828Y363D01*
X860Y363D02*
X866Y363D01*
X874Y363D02*
X880Y363D01*
X1204Y363D02*
X1210Y363D01*
X1254Y363D02*
X1260Y363D01*
X1282Y363D02*
X1288Y363D01*
X1304Y363D02*
X1310Y363D01*
X1361Y363D02*
X1367Y363D01*
X1384Y363D02*
X1387Y363D01*
X1432Y363D02*
X1438Y363D01*
X646Y362D02*
X652Y362D01*
X696Y362D02*
X702Y362D01*
X723Y362D02*
X729Y362D01*
X746Y362D02*
X752Y362D01*
X803Y362D02*
X809Y362D01*
X824Y362D02*
X829Y362D01*
X860Y362D02*
X866Y362D01*
X874Y362D02*
X880Y362D01*
X1204Y362D02*
X1210Y362D01*
X1254Y362D02*
X1260Y362D01*
X1281Y362D02*
X1288Y362D01*
X1304Y362D02*
X1310Y362D01*
X1361Y362D02*
X1367Y362D01*
X1383Y362D02*
X1387Y362D01*
X1432Y362D02*
X1438Y362D01*
X646Y361D02*
X652Y361D01*
X696Y361D02*
X703Y361D01*
X722Y361D02*
X729Y361D01*
X746Y361D02*
X752Y361D01*
X803Y361D02*
X809Y361D01*
X824Y361D02*
X830Y361D01*
X860Y361D02*
X866Y361D01*
X874Y361D02*
X880Y361D01*
X1204Y361D02*
X1210Y361D01*
X1254Y361D02*
X1261Y361D01*
X1281Y361D02*
X1287Y361D01*
X1304Y361D02*
X1310Y361D01*
X1361Y361D02*
X1367Y361D01*
X1382Y361D02*
X1388Y361D01*
X1432Y361D02*
X1438Y361D01*
X646Y360D02*
X652Y360D01*
X696Y360D02*
X704Y360D01*
X721Y360D02*
X729Y360D01*
X746Y360D02*
X752Y360D01*
X803Y360D02*
X809Y360D01*
X824Y360D02*
X830Y360D01*
X860Y360D02*
X866Y360D01*
X874Y360D02*
X880Y360D01*
X1204Y360D02*
X1210Y360D01*
X1255Y360D02*
X1262Y360D01*
X1280Y360D02*
X1287Y360D01*
X1304Y360D02*
X1310Y360D01*
X1361Y360D02*
X1368Y360D01*
X1382Y360D02*
X1388Y360D01*
X1432Y360D02*
X1438Y360D01*
X646Y359D02*
X652Y359D01*
X697Y359D02*
X705Y359D01*
X720Y359D02*
X728Y359D01*
X746Y359D02*
X752Y359D01*
X803Y359D02*
X810Y359D01*
X823Y359D02*
X830Y359D01*
X860Y359D02*
X866Y359D01*
X874Y359D02*
X880Y359D01*
X1204Y359D02*
X1210Y359D01*
X1255Y359D02*
X1263Y359D01*
X1278Y359D02*
X1287Y359D01*
X1304Y359D02*
X1310Y359D01*
X1362Y359D02*
X1368Y359D01*
X1381Y359D02*
X1388Y359D01*
X1432Y359D02*
X1438Y359D01*
X646Y358D02*
X652Y358D01*
X697Y358D02*
X707Y358D01*
X719Y358D02*
X728Y358D01*
X746Y358D02*
X752Y358D01*
X804Y358D02*
X811Y358D01*
X821Y358D02*
X829Y358D01*
X860Y358D02*
X866Y358D01*
X874Y358D02*
X880Y358D01*
X1204Y358D02*
X1210Y358D01*
X1256Y358D02*
X1265Y358D01*
X1277Y358D02*
X1286Y358D01*
X1304Y358D02*
X1310Y358D01*
X1362Y358D02*
X1370Y358D01*
X1380Y358D02*
X1388Y358D01*
X1432Y358D02*
X1438Y358D01*
X646Y357D02*
X652Y357D01*
X698Y357D02*
X727Y357D01*
X746Y357D02*
X752Y357D01*
X804Y357D02*
X829Y357D01*
X848Y357D02*
X880Y357D01*
X1204Y357D02*
X1210Y357D01*
X1256Y357D02*
X1285Y357D01*
X1304Y357D02*
X1310Y357D01*
X1362Y357D02*
X1387Y357D01*
X1406Y357D02*
X1438Y357D01*
X646Y356D02*
X652Y356D01*
X699Y356D02*
X726Y356D01*
X746Y356D02*
X752Y356D01*
X805Y356D02*
X828Y356D01*
X847Y356D02*
X880Y356D01*
X1204Y356D02*
X1210Y356D01*
X1257Y356D02*
X1284Y356D01*
X1304Y356D02*
X1310Y356D01*
X1363Y356D02*
X1387Y356D01*
X1405Y356D02*
X1438Y356D01*
X646Y355D02*
X652Y355D01*
X700Y355D02*
X725Y355D01*
X746Y355D02*
X752Y355D01*
X805Y355D02*
X828Y355D01*
X847Y355D02*
X880Y355D01*
X1204Y355D02*
X1210Y355D01*
X1258Y355D02*
X1283Y355D01*
X1304Y355D02*
X1310Y355D01*
X1363Y355D02*
X1386Y355D01*
X1405Y355D02*
X1438Y355D01*
X646Y354D02*
X652Y354D01*
X701Y354D02*
X724Y354D01*
X746Y354D02*
X752Y354D01*
X806Y354D02*
X827Y354D01*
X846Y354D02*
X880Y354D01*
X1204Y354D02*
X1210Y354D01*
X1259Y354D02*
X1282Y354D01*
X1304Y354D02*
X1310Y354D01*
X1364Y354D02*
X1385Y354D01*
X1405Y354D02*
X1437Y354D01*
X646Y353D02*
X651Y353D01*
X702Y353D02*
X723Y353D01*
X746Y353D02*
X752Y353D01*
X807Y353D02*
X826Y353D01*
X847Y353D02*
X880Y353D01*
X1204Y353D02*
X1210Y353D01*
X1261Y353D02*
X1281Y353D01*
X1305Y353D02*
X1310Y353D01*
X1365Y353D02*
X1384Y353D01*
X1405Y353D02*
X1436Y353D01*
X647Y352D02*
X651Y352D01*
X704Y352D02*
X721Y352D01*
X747Y352D02*
X751Y352D01*
X809Y352D02*
X824Y352D01*
X847Y352D02*
X879Y352D01*
X1205Y352D02*
X1209Y352D01*
X1262Y352D02*
X1280Y352D01*
X1305Y352D02*
X1309Y352D01*
X1367Y352D02*
X1382Y352D01*
X1406Y352D02*
X1435Y352D01*
X648Y351D02*
X649Y351D01*
X707Y351D02*
X719Y351D01*
X748Y351D02*
X750Y351D01*
X811Y351D02*
X821Y351D01*
X849Y351D02*
X878Y351D01*
X1206Y351D02*
X1207Y351D01*
X1265Y351D02*
X1277Y351D01*
X1307Y351D02*
X1308Y351D01*
X1370Y351D02*
X1380Y351D01*
X1407Y351D02*
X1433Y351D01*
X428Y346D02*
X446Y346D01*
X425Y345D02*
X448Y345D01*
X424Y344D02*
X450Y344D01*
X423Y343D02*
X451Y343D01*
X422Y342D02*
X452Y342D01*
X421Y341D02*
X453Y341D01*
X420Y340D02*
X454Y340D01*
X419Y339D02*
X428Y339D01*
X432Y339D02*
X439Y339D01*
X446Y339D02*
X454Y339D01*
X419Y338D02*
X426Y338D01*
X432Y338D02*
X438Y338D01*
X447Y338D02*
X455Y338D01*
X418Y337D02*
X426Y337D01*
X432Y337D02*
X438Y337D01*
X448Y337D02*
X455Y337D01*
X418Y336D02*
X425Y336D01*
X432Y336D02*
X438Y336D01*
X449Y336D02*
X456Y336D01*
X418Y335D02*
X424Y335D01*
X432Y335D02*
X438Y335D01*
X450Y335D02*
X456Y335D01*
X418Y334D02*
X424Y334D01*
X432Y334D02*
X438Y334D01*
X450Y334D02*
X456Y334D01*
X418Y333D02*
X424Y333D01*
X432Y333D02*
X438Y333D01*
X450Y333D02*
X456Y333D01*
X418Y332D02*
X424Y332D01*
X432Y332D02*
X438Y332D01*
X450Y332D02*
X456Y332D01*
X418Y331D02*
X424Y331D01*
X432Y331D02*
X438Y331D01*
X450Y331D02*
X456Y331D01*
X418Y330D02*
X424Y330D01*
X432Y330D02*
X438Y330D01*
X450Y330D02*
X456Y330D01*
X418Y329D02*
X424Y329D01*
X432Y329D02*
X438Y329D01*
X450Y329D02*
X456Y329D01*
X418Y328D02*
X424Y328D01*
X432Y328D02*
X438Y328D01*
X450Y328D02*
X456Y328D01*
X418Y327D02*
X424Y327D01*
X432Y327D02*
X438Y327D01*
X450Y327D02*
X456Y327D01*
X418Y326D02*
X424Y326D01*
X432Y326D02*
X438Y326D01*
X450Y326D02*
X456Y326D01*
X418Y325D02*
X424Y325D01*
X432Y325D02*
X438Y325D01*
X450Y325D02*
X456Y325D01*
X418Y324D02*
X424Y324D01*
X432Y324D02*
X438Y324D01*
X450Y324D02*
X456Y324D01*
X418Y323D02*
X424Y323D01*
X432Y323D02*
X438Y323D01*
X450Y323D02*
X456Y323D01*
X418Y322D02*
X424Y322D01*
X432Y322D02*
X438Y322D01*
X449Y322D02*
X456Y322D01*
X418Y321D02*
X424Y321D01*
X432Y321D02*
X438Y321D01*
X448Y321D02*
X455Y321D01*
X418Y320D02*
X424Y320D01*
X432Y320D02*
X438Y320D01*
X447Y320D02*
X455Y320D01*
X418Y319D02*
X424Y319D01*
X432Y319D02*
X438Y319D01*
X446Y319D02*
X454Y319D01*
X418Y318D02*
X424Y318D01*
X432Y318D02*
X454Y318D01*
X418Y317D02*
X424Y317D01*
X432Y317D02*
X453Y317D01*
X418Y316D02*
X424Y316D01*
X432Y316D02*
X452Y316D01*
X418Y315D02*
X424Y315D01*
X432Y315D02*
X451Y315D01*
X418Y314D02*
X423Y314D01*
X433Y314D02*
X450Y314D01*
X419Y313D02*
X423Y313D01*
X433Y313D02*
X448Y313D01*
X420Y312D02*
X421Y312D01*
X435Y312D02*
X446Y312D01*
X1763Y292D02*
X1765Y292D01*
X1762Y291D02*
X1767Y291D01*
X1761Y290D02*
X1769Y290D01*
X1761Y289D02*
X1770Y289D01*
X1736Y288D02*
X1739Y288D01*
X1761Y288D02*
X1771Y288D01*
X1735Y287D02*
X1740Y287D01*
X1761Y287D02*
X1771Y287D01*
X1734Y286D02*
X1740Y286D01*
X1763Y286D02*
X1772Y286D01*
X1734Y285D02*
X1740Y285D01*
X1765Y285D02*
X1772Y285D01*
X1734Y284D02*
X1740Y284D01*
X1766Y284D02*
X1772Y284D01*
X1734Y283D02*
X1740Y283D01*
X1766Y283D02*
X1773Y283D01*
X1734Y282D02*
X1740Y282D01*
X1767Y282D02*
X1773Y282D01*
X1734Y281D02*
X1740Y281D01*
X1767Y281D02*
X1773Y281D01*
X1734Y280D02*
X1740Y280D01*
X1767Y280D02*
X1773Y280D01*
X1734Y279D02*
X1740Y279D01*
X1767Y279D02*
X1773Y279D01*
X1734Y278D02*
X1740Y278D01*
X1767Y278D02*
X1773Y278D01*
X1734Y277D02*
X1740Y277D01*
X1767Y277D02*
X1773Y277D01*
X1734Y276D02*
X1740Y276D01*
X1767Y276D02*
X1773Y276D01*
X1734Y275D02*
X1740Y275D01*
X1767Y275D02*
X1773Y275D01*
X1734Y274D02*
X1740Y274D01*
X1766Y274D02*
X1773Y274D01*
X1734Y273D02*
X1740Y273D01*
X1766Y273D02*
X1772Y273D01*
X1734Y272D02*
X1740Y272D01*
X1765Y272D02*
X1772Y272D01*
X1724Y271D02*
X1772Y271D01*
X1723Y270D02*
X1771Y270D01*
X1723Y269D02*
X1771Y269D01*
X1723Y268D02*
X1770Y268D01*
X1723Y267D02*
X1769Y267D01*
X1723Y266D02*
X1767Y266D01*
X1725Y265D02*
X1765Y265D01*
X1734Y264D02*
X1740Y264D01*
X1734Y263D02*
X1740Y263D01*
X1734Y262D02*
X1740Y262D01*
X1734Y261D02*
X1740Y261D01*
X1735Y260D02*
X1740Y260D01*
X1735Y259D02*
X1739Y259D01*
X1769Y242D02*
X1770Y242D01*
X1736Y241D02*
X1738Y241D01*
X1767Y241D02*
X1772Y241D01*
X1735Y240D02*
X1740Y240D01*
X1766Y240D02*
X1772Y240D01*
X1734Y239D02*
X1741Y239D01*
X1765Y239D02*
X1773Y239D01*
X1734Y238D02*
X1742Y238D01*
X1764Y238D02*
X1773Y238D01*
X1734Y237D02*
X1743Y237D01*
X1763Y237D02*
X1772Y237D01*
X1735Y236D02*
X1745Y236D01*
X1761Y236D02*
X1771Y236D01*
X1736Y235D02*
X1746Y235D01*
X1760Y235D02*
X1770Y235D01*
X1737Y234D02*
X1747Y234D01*
X1759Y234D02*
X1769Y234D01*
X1738Y233D02*
X1748Y233D01*
X1758Y233D02*
X1768Y233D01*
X1739Y232D02*
X1749Y232D01*
X1757Y232D02*
X1767Y232D01*
X1741Y231D02*
X1751Y231D01*
X1755Y231D02*
X1765Y231D01*
X1742Y230D02*
X1752Y230D01*
X1754Y230D02*
X1764Y230D01*
X1743Y229D02*
X1763Y229D01*
X1744Y228D02*
X1762Y228D01*
X1745Y227D02*
X1761Y227D01*
X1747Y226D02*
X1759Y226D01*
X1748Y225D02*
X1758Y225D01*
X1747Y224D02*
X1759Y224D01*
X1746Y223D02*
X1760Y223D01*
X1745Y222D02*
X1762Y222D01*
X1743Y221D02*
X1763Y221D01*
X1742Y220D02*
X1752Y220D01*
X1754Y220D02*
X1764Y220D01*
X1741Y219D02*
X1751Y219D01*
X1755Y219D02*
X1765Y219D01*
X1740Y218D02*
X1750Y218D01*
X1756Y218D02*
X1766Y218D01*
X1739Y217D02*
X1748Y217D01*
X1757Y217D02*
X1768Y217D01*
X1737Y216D02*
X1747Y216D01*
X1759Y216D02*
X1769Y216D01*
X1736Y215D02*
X1746Y215D01*
X1760Y215D02*
X1770Y215D01*
X1735Y214D02*
X1745Y214D01*
X1761Y214D02*
X1771Y214D01*
X1735Y213D02*
X1744Y213D01*
X1762Y213D02*
X1772Y213D01*
X1734Y212D02*
X1742Y212D01*
X1764Y212D02*
X1773Y212D01*
X1734Y211D02*
X1741Y211D01*
X1765Y211D02*
X1773Y211D01*
X1735Y210D02*
X1740Y210D01*
X1766Y210D02*
X1772Y210D01*
X1736Y209D02*
X1739Y209D01*
X1767Y209D02*
X1772Y209D01*
X1769Y208D02*
X1771Y208D01*
X1747Y192D02*
X1754Y192D01*
X1742Y191D02*
X1757Y191D01*
X1768Y191D02*
X1772Y191D01*
X1741Y190D02*
X1758Y190D01*
X1767Y190D02*
X1772Y190D01*
X1740Y189D02*
X1758Y189D01*
X1767Y189D02*
X1773Y189D01*
X1739Y188D02*
X1758Y188D01*
X1767Y188D02*
X1773Y188D01*
X1738Y187D02*
X1758Y187D01*
X1767Y187D02*
X1773Y187D01*
X1737Y186D02*
X1758Y186D01*
X1767Y186D02*
X1773Y186D01*
X1736Y185D02*
X1758Y185D01*
X1767Y185D02*
X1773Y185D01*
X1736Y184D02*
X1743Y184D01*
X1752Y184D02*
X1758Y184D01*
X1767Y184D02*
X1773Y184D01*
X1735Y183D02*
X1742Y183D01*
X1752Y183D02*
X1758Y183D01*
X1767Y183D02*
X1773Y183D01*
X1735Y182D02*
X1742Y182D01*
X1752Y182D02*
X1758Y182D01*
X1767Y182D02*
X1773Y182D01*
X1734Y181D02*
X1741Y181D01*
X1752Y181D02*
X1758Y181D01*
X1767Y181D02*
X1773Y181D01*
X1734Y180D02*
X1741Y180D01*
X1752Y180D02*
X1758Y180D01*
X1767Y180D02*
X1773Y180D01*
X1734Y179D02*
X1740Y179D01*
X1752Y179D02*
X1758Y179D01*
X1767Y179D02*
X1773Y179D01*
X1734Y178D02*
X1740Y178D01*
X1752Y178D02*
X1758Y178D01*
X1767Y178D02*
X1773Y178D01*
X1734Y177D02*
X1740Y177D01*
X1752Y177D02*
X1758Y177D01*
X1767Y177D02*
X1773Y177D01*
X1734Y176D02*
X1740Y176D01*
X1752Y176D02*
X1758Y176D01*
X1767Y176D02*
X1773Y176D01*
X1734Y175D02*
X1740Y175D01*
X1752Y175D02*
X1758Y175D01*
X1767Y175D02*
X1773Y175D01*
X1734Y174D02*
X1740Y174D01*
X1752Y174D02*
X1758Y174D01*
X1767Y174D02*
X1773Y174D01*
X1734Y173D02*
X1740Y173D01*
X1752Y173D02*
X1758Y173D01*
X1767Y173D02*
X1773Y173D01*
X1734Y172D02*
X1740Y172D01*
X1752Y172D02*
X1758Y172D01*
X1767Y172D02*
X1773Y172D01*
X1734Y171D02*
X1740Y171D01*
X1752Y171D02*
X1758Y171D01*
X1767Y171D02*
X1773Y171D01*
X1734Y170D02*
X1740Y170D01*
X1752Y170D02*
X1758Y170D01*
X1767Y170D02*
X1773Y170D01*
X1734Y169D02*
X1741Y169D01*
X1752Y169D02*
X1758Y169D01*
X1766Y169D02*
X1773Y169D01*
X1735Y168D02*
X1741Y168D01*
X1752Y168D02*
X1758Y168D01*
X1766Y168D02*
X1772Y168D01*
X1735Y167D02*
X1742Y167D01*
X1752Y167D02*
X1758Y167D01*
X1765Y167D02*
X1772Y167D01*
X1735Y166D02*
X1743Y166D01*
X1752Y166D02*
X1758Y166D01*
X1764Y166D02*
X1772Y166D01*
X1736Y165D02*
X1744Y165D01*
X1752Y165D02*
X1758Y165D01*
X1763Y165D02*
X1771Y165D01*
X1736Y164D02*
X1771Y164D01*
X1737Y163D02*
X1770Y163D01*
X1738Y162D02*
X1769Y162D01*
X1739Y161D02*
X1768Y161D01*
X1740Y160D02*
X1767Y160D01*
X1742Y159D02*
X1766Y159D01*
X1744Y158D02*
X1764Y158D01*
X1721Y141D02*
X1773Y141D01*
X1720Y140D02*
X1773Y140D01*
X1720Y139D02*
X1773Y139D01*
X1720Y138D02*
X1773Y138D01*
X1720Y137D02*
X1773Y137D01*
X1721Y136D02*
X1773Y136D01*
X1722Y135D02*
X1773Y135D01*
X1759Y134D02*
X1773Y134D01*
X1757Y133D02*
X1773Y133D01*
X1755Y132D02*
X1771Y132D01*
X1753Y131D02*
X1769Y131D01*
X1750Y130D02*
X1767Y130D01*
X1748Y129D02*
X1765Y129D01*
X1746Y128D02*
X1762Y128D01*
X1744Y127D02*
X1760Y127D01*
X1741Y126D02*
X1758Y126D01*
X1739Y125D02*
X1756Y125D01*
X1737Y124D02*
X1753Y124D01*
X1734Y123D02*
X1751Y123D01*
X1732Y122D02*
X1749Y122D01*
X1730Y121D02*
X1746Y121D01*
X1728Y120D02*
X1744Y120D01*
X1725Y119D02*
X1742Y119D01*
X1723Y118D02*
X1740Y118D01*
X1721Y117D02*
X1737Y117D01*
X1720Y116D02*
X1735Y116D01*
X1720Y115D02*
X1733Y115D01*
X1720Y114D02*
X1770Y114D01*
X1720Y113D02*
X1772Y113D01*
X1720Y112D02*
X1772Y112D01*
X1720Y111D02*
X1773Y111D01*
X1720Y110D02*
X1773Y110D01*
X1720Y109D02*
X1772Y109D01*
X1720Y108D02*
X1771Y108D01*
X1660Y73D02*
X1664Y73D01*
X1659Y72D02*
X1665Y72D01*
X1005Y71D02*
X1005Y71D01*
X1086Y71D02*
X1086Y71D01*
X1291Y71D02*
X1300Y71D01*
X1534Y71D02*
X1542Y71D01*
X1658Y71D02*
X1666Y71D01*
X1004Y70D02*
X1007Y70D01*
X1085Y70D02*
X1088Y70D01*
X1290Y70D02*
X1301Y70D01*
X1532Y70D02*
X1544Y70D01*
X1658Y70D02*
X1666Y70D01*
X1003Y69D02*
X1008Y69D01*
X1084Y69D02*
X1088Y69D01*
X1289Y69D02*
X1302Y69D01*
X1532Y69D02*
X1544Y69D01*
X1658Y69D02*
X1666Y69D01*
X1003Y68D02*
X1008Y68D01*
X1084Y68D02*
X1089Y68D01*
X1289Y68D02*
X1302Y68D01*
X1532Y68D02*
X1544Y68D01*
X1658Y68D02*
X1666Y68D01*
X1003Y67D02*
X1008Y67D01*
X1084Y67D02*
X1089Y67D01*
X1289Y67D02*
X1302Y67D01*
X1532Y67D02*
X1544Y67D01*
X1659Y67D02*
X1665Y67D01*
X1003Y66D02*
X1008Y66D01*
X1084Y66D02*
X1089Y66D01*
X1290Y66D02*
X1302Y66D01*
X1533Y66D02*
X1544Y66D01*
X1660Y66D02*
X1664Y66D01*
X1003Y65D02*
X1008Y65D01*
X1084Y65D02*
X1089Y65D01*
X1297Y65D02*
X1302Y65D01*
X1540Y65D02*
X1544Y65D01*
X1003Y64D02*
X1008Y64D01*
X1084Y64D02*
X1089Y64D01*
X1297Y64D02*
X1302Y64D01*
X1540Y64D02*
X1544Y64D01*
X1003Y63D02*
X1008Y63D01*
X1084Y63D02*
X1089Y63D01*
X1297Y63D02*
X1302Y63D01*
X1540Y63D02*
X1544Y63D01*
X1003Y62D02*
X1008Y62D01*
X1084Y62D02*
X1089Y62D01*
X1297Y62D02*
X1302Y62D01*
X1540Y62D02*
X1544Y62D01*
X1003Y61D02*
X1008Y61D01*
X1084Y61D02*
X1089Y61D01*
X1297Y61D02*
X1302Y61D01*
X1540Y61D02*
X1544Y61D01*
X843Y60D02*
X845Y60D01*
X852Y60D02*
X857Y60D01*
X1003Y60D02*
X1008Y60D01*
X1084Y60D02*
X1089Y60D01*
X1297Y60D02*
X1302Y60D01*
X1409Y60D02*
X1411Y60D01*
X1418Y60D02*
X1423Y60D01*
X1540Y60D02*
X1544Y60D01*
X842Y59D02*
X846Y59D01*
X850Y59D02*
X860Y59D01*
X890Y59D02*
X900Y59D01*
X924Y59D02*
X925Y59D01*
X936Y59D02*
X942Y59D01*
X971Y59D02*
X978Y59D01*
X987Y59D02*
X988Y59D01*
X1003Y59D02*
X1008Y59D01*
X1017Y59D02*
X1023Y59D01*
X1046Y59D02*
X1047Y59D01*
X1068Y59D02*
X1069Y59D01*
X1084Y59D02*
X1089Y59D01*
X1095Y59D02*
X1102Y59D01*
X1127Y59D02*
X1128Y59D01*
X1148Y59D02*
X1149Y59D01*
X1167Y59D02*
X1168Y59D01*
X1179Y59D02*
X1185Y59D01*
X1214Y59D02*
X1221Y59D01*
X1229Y59D02*
X1230Y59D01*
X1297Y59D02*
X1302Y59D01*
X1334Y59D02*
X1347Y59D01*
X1368Y59D02*
X1369Y59D01*
X1375Y59D02*
X1378Y59D01*
X1387Y59D02*
X1388Y59D01*
X1408Y59D02*
X1412Y59D01*
X1416Y59D02*
X1426Y59D01*
X1450Y59D02*
X1451Y59D01*
X1472Y59D02*
X1473Y59D01*
X1540Y59D02*
X1544Y59D01*
X1577Y59D02*
X1589Y59D01*
X1621Y59D02*
X1635Y59D01*
X1655Y59D02*
X1664Y59D01*
X841Y58D02*
X846Y58D01*
X849Y58D02*
X861Y58D01*
X888Y58D02*
X903Y58D01*
X923Y58D02*
X926Y58D01*
X934Y58D02*
X945Y58D01*
X969Y58D02*
X981Y58D01*
X985Y58D02*
X989Y58D01*
X1003Y58D02*
X1008Y58D01*
X1014Y58D02*
X1026Y58D01*
X1044Y58D02*
X1048Y58D01*
X1066Y58D02*
X1070Y58D01*
X1084Y58D02*
X1089Y58D01*
X1093Y58D02*
X1105Y58D01*
X1125Y58D02*
X1129Y58D01*
X1147Y58D02*
X1151Y58D01*
X1165Y58D02*
X1169Y58D01*
X1176Y58D02*
X1187Y58D01*
X1211Y58D02*
X1223Y58D01*
X1228Y58D02*
X1232Y58D01*
X1297Y58D02*
X1302Y58D01*
X1333Y58D02*
X1349Y58D01*
X1367Y58D02*
X1371Y58D01*
X1373Y58D02*
X1380Y58D01*
X1384Y58D02*
X1390Y58D01*
X1408Y58D02*
X1412Y58D01*
X1415Y58D02*
X1427Y58D01*
X1449Y58D02*
X1452Y58D01*
X1471Y58D02*
X1474Y58D01*
X1540Y58D02*
X1544Y58D01*
X1575Y58D02*
X1592Y58D01*
X1618Y58D02*
X1636Y58D01*
X1653Y58D02*
X1665Y58D01*
X841Y57D02*
X846Y57D01*
X848Y57D02*
X862Y57D01*
X887Y57D02*
X904Y57D01*
X922Y57D02*
X927Y57D01*
X932Y57D02*
X946Y57D01*
X967Y57D02*
X982Y57D01*
X985Y57D02*
X989Y57D01*
X1003Y57D02*
X1008Y57D01*
X1013Y57D02*
X1027Y57D01*
X1044Y57D02*
X1048Y57D01*
X1066Y57D02*
X1070Y57D01*
X1084Y57D02*
X1089Y57D01*
X1091Y57D02*
X1106Y57D01*
X1125Y57D02*
X1129Y57D01*
X1147Y57D02*
X1151Y57D01*
X1165Y57D02*
X1169Y57D01*
X1174Y57D02*
X1189Y57D01*
X1210Y57D02*
X1225Y57D01*
X1228Y57D02*
X1232Y57D01*
X1297Y57D02*
X1302Y57D01*
X1332Y57D02*
X1350Y57D01*
X1367Y57D02*
X1381Y57D01*
X1383Y57D02*
X1392Y57D01*
X1407Y57D02*
X1412Y57D01*
X1414Y57D02*
X1428Y57D01*
X1448Y57D02*
X1453Y57D01*
X1470Y57D02*
X1475Y57D01*
X1540Y57D02*
X1544Y57D01*
X1575Y57D02*
X1593Y57D01*
X1617Y57D02*
X1636Y57D01*
X1653Y57D02*
X1666Y57D01*
X841Y56D02*
X863Y56D01*
X885Y56D02*
X905Y56D01*
X922Y56D02*
X927Y56D01*
X930Y56D02*
X947Y56D01*
X966Y56D02*
X983Y56D01*
X985Y56D02*
X990Y56D01*
X1003Y56D02*
X1008Y56D01*
X1011Y56D02*
X1028Y56D01*
X1044Y56D02*
X1048Y56D01*
X1066Y56D02*
X1070Y56D01*
X1084Y56D02*
X1107Y56D01*
X1125Y56D02*
X1129Y56D01*
X1147Y56D02*
X1151Y56D01*
X1165Y56D02*
X1169Y56D01*
X1173Y56D02*
X1190Y56D01*
X1209Y56D02*
X1232Y56D01*
X1297Y56D02*
X1302Y56D01*
X1332Y56D02*
X1351Y56D01*
X1367Y56D02*
X1393Y56D01*
X1407Y56D02*
X1429Y56D01*
X1448Y56D02*
X1453Y56D01*
X1470Y56D02*
X1475Y56D01*
X1540Y56D02*
X1544Y56D01*
X1575Y56D02*
X1594Y56D01*
X1616Y56D02*
X1636Y56D01*
X1653Y56D02*
X1666Y56D01*
X841Y55D02*
X864Y55D01*
X884Y55D02*
X906Y55D01*
X922Y55D02*
X927Y55D01*
X929Y55D02*
X948Y55D01*
X965Y55D02*
X990Y55D01*
X1003Y55D02*
X1008Y55D01*
X1010Y55D02*
X1028Y55D01*
X1044Y55D02*
X1048Y55D01*
X1066Y55D02*
X1070Y55D01*
X1084Y55D02*
X1108Y55D01*
X1125Y55D02*
X1129Y55D01*
X1147Y55D02*
X1151Y55D01*
X1165Y55D02*
X1190Y55D01*
X1208Y55D02*
X1232Y55D01*
X1297Y55D02*
X1302Y55D01*
X1333Y55D02*
X1352Y55D01*
X1367Y55D02*
X1393Y55D01*
X1407Y55D02*
X1430Y55D01*
X1448Y55D02*
X1453Y55D01*
X1470Y55D02*
X1475Y55D01*
X1540Y55D02*
X1544Y55D01*
X1575Y55D02*
X1595Y55D01*
X1615Y55D02*
X1636Y55D01*
X1653Y55D02*
X1666Y55D01*
X841Y54D02*
X852Y54D01*
X858Y54D02*
X865Y54D01*
X884Y54D02*
X907Y54D01*
X922Y54D02*
X948Y54D01*
X964Y54D02*
X990Y54D01*
X1003Y54D02*
X1029Y54D01*
X1044Y54D02*
X1048Y54D01*
X1066Y54D02*
X1070Y54D01*
X1084Y54D02*
X1109Y54D01*
X1125Y54D02*
X1129Y54D01*
X1147Y54D02*
X1151Y54D01*
X1165Y54D02*
X1191Y54D01*
X1207Y54D02*
X1232Y54D01*
X1297Y54D02*
X1302Y54D01*
X1334Y54D02*
X1352Y54D01*
X1367Y54D02*
X1394Y54D01*
X1407Y54D02*
X1418Y54D01*
X1424Y54D02*
X1432Y54D01*
X1448Y54D02*
X1453Y54D01*
X1470Y54D02*
X1475Y54D01*
X1540Y54D02*
X1544Y54D01*
X1576Y54D02*
X1595Y54D01*
X1613Y54D02*
X1635Y54D01*
X1654Y54D02*
X1666Y54D01*
X841Y53D02*
X851Y53D01*
X859Y53D02*
X866Y53D01*
X883Y53D02*
X889Y53D01*
X901Y53D02*
X908Y53D01*
X922Y53D02*
X935Y53D01*
X943Y53D02*
X948Y53D01*
X964Y53D02*
X970Y53D01*
X979Y53D02*
X990Y53D01*
X1003Y53D02*
X1016Y53D01*
X1024Y53D02*
X1029Y53D01*
X1044Y53D02*
X1048Y53D01*
X1066Y53D02*
X1070Y53D01*
X1084Y53D02*
X1095Y53D01*
X1103Y53D02*
X1110Y53D01*
X1125Y53D02*
X1129Y53D01*
X1147Y53D02*
X1151Y53D01*
X1165Y53D02*
X1178Y53D01*
X1185Y53D02*
X1191Y53D01*
X1206Y53D02*
X1213Y53D01*
X1222Y53D02*
X1232Y53D01*
X1297Y53D02*
X1302Y53D01*
X1347Y53D02*
X1353Y53D01*
X1367Y53D02*
X1375Y53D01*
X1378Y53D02*
X1386Y53D01*
X1389Y53D02*
X1394Y53D01*
X1407Y53D02*
X1417Y53D01*
X1425Y53D02*
X1432Y53D01*
X1448Y53D02*
X1453Y53D01*
X1470Y53D02*
X1475Y53D01*
X1540Y53D02*
X1544Y53D01*
X1590Y53D02*
X1595Y53D01*
X1612Y53D02*
X1620Y53D01*
X1661Y53D02*
X1666Y53D01*
X841Y52D02*
X850Y52D01*
X860Y52D02*
X867Y52D01*
X882Y52D02*
X888Y52D01*
X902Y52D02*
X908Y52D01*
X922Y52D02*
X934Y52D01*
X944Y52D02*
X949Y52D01*
X963Y52D02*
X969Y52D01*
X980Y52D02*
X990Y52D01*
X1003Y52D02*
X1014Y52D01*
X1025Y52D02*
X1029Y52D01*
X1044Y52D02*
X1048Y52D01*
X1066Y52D02*
X1070Y52D01*
X1084Y52D02*
X1093Y52D01*
X1104Y52D02*
X1110Y52D01*
X1125Y52D02*
X1129Y52D01*
X1147Y52D02*
X1151Y52D01*
X1165Y52D02*
X1176Y52D01*
X1186Y52D02*
X1191Y52D01*
X1206Y52D02*
X1212Y52D01*
X1223Y52D02*
X1232Y52D01*
X1297Y52D02*
X1302Y52D01*
X1348Y52D02*
X1353Y52D01*
X1367Y52D02*
X1374Y52D01*
X1378Y52D02*
X1385Y52D01*
X1389Y52D02*
X1394Y52D01*
X1407Y52D02*
X1416Y52D01*
X1426Y52D02*
X1433Y52D01*
X1448Y52D02*
X1453Y52D01*
X1470Y52D02*
X1475Y52D01*
X1540Y52D02*
X1544Y52D01*
X1590Y52D02*
X1595Y52D01*
X1611Y52D02*
X1619Y52D01*
X1661Y52D02*
X1666Y52D01*
X841Y51D02*
X849Y51D01*
X861Y51D02*
X868Y51D01*
X882Y51D02*
X887Y51D01*
X903Y51D02*
X908Y51D01*
X922Y51D02*
X932Y51D01*
X944Y51D02*
X949Y51D01*
X963Y51D02*
X968Y51D01*
X981Y51D02*
X990Y51D01*
X1003Y51D02*
X1013Y51D01*
X1025Y51D02*
X1029Y51D01*
X1044Y51D02*
X1048Y51D01*
X1066Y51D02*
X1070Y51D01*
X1084Y51D02*
X1092Y51D01*
X1105Y51D02*
X1111Y51D01*
X1125Y51D02*
X1129Y51D01*
X1147Y51D02*
X1151Y51D01*
X1165Y51D02*
X1175Y51D01*
X1187Y51D02*
X1191Y51D01*
X1205Y51D02*
X1211Y51D01*
X1224Y51D02*
X1232Y51D01*
X1297Y51D02*
X1302Y51D01*
X1348Y51D02*
X1353Y51D01*
X1367Y51D02*
X1372Y51D01*
X1378Y51D02*
X1383Y51D01*
X1389Y51D02*
X1394Y51D01*
X1407Y51D02*
X1415Y51D01*
X1427Y51D02*
X1434Y51D01*
X1448Y51D02*
X1453Y51D01*
X1470Y51D02*
X1475Y51D01*
X1540Y51D02*
X1544Y51D01*
X1591Y51D02*
X1596Y51D01*
X1611Y51D02*
X1618Y51D01*
X1661Y51D02*
X1666Y51D01*
X841Y50D02*
X848Y50D01*
X862Y50D02*
X868Y50D01*
X882Y50D02*
X887Y50D01*
X904Y50D02*
X909Y50D01*
X922Y50D02*
X930Y50D01*
X944Y50D02*
X949Y50D01*
X963Y50D02*
X967Y50D01*
X982Y50D02*
X990Y50D01*
X1003Y50D02*
X1011Y50D01*
X1025Y50D02*
X1030Y50D01*
X1044Y50D02*
X1048Y50D01*
X1066Y50D02*
X1070Y50D01*
X1084Y50D02*
X1091Y50D01*
X1106Y50D02*
X1111Y50D01*
X1125Y50D02*
X1129Y50D01*
X1147Y50D02*
X1151Y50D01*
X1165Y50D02*
X1173Y50D01*
X1187Y50D02*
X1191Y50D01*
X1205Y50D02*
X1210Y50D01*
X1225Y50D02*
X1232Y50D01*
X1297Y50D02*
X1302Y50D01*
X1348Y50D02*
X1353Y50D01*
X1367Y50D02*
X1371Y50D01*
X1378Y50D02*
X1383Y50D01*
X1389Y50D02*
X1394Y50D01*
X1407Y50D02*
X1414Y50D01*
X1429Y50D02*
X1434Y50D01*
X1448Y50D02*
X1453Y50D01*
X1470Y50D02*
X1475Y50D01*
X1540Y50D02*
X1544Y50D01*
X1591Y50D02*
X1596Y50D01*
X1610Y50D02*
X1617Y50D01*
X1661Y50D02*
X1666Y50D01*
X841Y49D02*
X847Y49D01*
X863Y49D02*
X868Y49D01*
X882Y49D02*
X886Y49D01*
X904Y49D02*
X909Y49D01*
X922Y49D02*
X929Y49D01*
X944Y49D02*
X949Y49D01*
X963Y49D02*
X967Y49D01*
X984Y49D02*
X990Y49D01*
X1003Y49D02*
X1010Y49D01*
X1025Y49D02*
X1030Y49D01*
X1044Y49D02*
X1048Y49D01*
X1066Y49D02*
X1070Y49D01*
X1084Y49D02*
X1090Y49D01*
X1106Y49D02*
X1111Y49D01*
X1125Y49D02*
X1129Y49D01*
X1147Y49D02*
X1151Y49D01*
X1165Y49D02*
X1171Y49D01*
X1187Y49D02*
X1191Y49D01*
X1205Y49D02*
X1210Y49D01*
X1226Y49D02*
X1232Y49D01*
X1297Y49D02*
X1302Y49D01*
X1348Y49D02*
X1353Y49D01*
X1367Y49D02*
X1371Y49D01*
X1378Y49D02*
X1383Y49D01*
X1389Y49D02*
X1394Y49D01*
X1407Y49D02*
X1413Y49D01*
X1429Y49D02*
X1434Y49D01*
X1448Y49D02*
X1453Y49D01*
X1470Y49D02*
X1475Y49D01*
X1540Y49D02*
X1544Y49D01*
X1591Y49D02*
X1596Y49D01*
X1610Y49D02*
X1615Y49D01*
X1661Y49D02*
X1666Y49D01*
X841Y48D02*
X846Y48D01*
X864Y48D02*
X868Y48D01*
X882Y48D02*
X886Y48D01*
X904Y48D02*
X909Y48D01*
X922Y48D02*
X927Y48D01*
X944Y48D02*
X949Y48D01*
X963Y48D02*
X967Y48D01*
X984Y48D02*
X990Y48D01*
X1003Y48D02*
X1008Y48D01*
X1025Y48D02*
X1030Y48D01*
X1044Y48D02*
X1048Y48D01*
X1066Y48D02*
X1070Y48D01*
X1084Y48D02*
X1089Y48D01*
X1106Y48D02*
X1111Y48D01*
X1125Y48D02*
X1129Y48D01*
X1147Y48D02*
X1151Y48D01*
X1165Y48D02*
X1170Y48D01*
X1187Y48D02*
X1191Y48D01*
X1205Y48D02*
X1210Y48D01*
X1227Y48D02*
X1232Y48D01*
X1297Y48D02*
X1302Y48D01*
X1348Y48D02*
X1353Y48D01*
X1367Y48D02*
X1371Y48D01*
X1378Y48D02*
X1383Y48D01*
X1389Y48D02*
X1394Y48D01*
X1407Y48D02*
X1412Y48D01*
X1430Y48D02*
X1434Y48D01*
X1448Y48D02*
X1453Y48D01*
X1470Y48D02*
X1475Y48D01*
X1540Y48D02*
X1544Y48D01*
X1591Y48D02*
X1596Y48D01*
X1610Y48D02*
X1615Y48D01*
X1661Y48D02*
X1666Y48D01*
X841Y47D02*
X846Y47D01*
X864Y47D02*
X868Y47D01*
X882Y47D02*
X886Y47D01*
X904Y47D02*
X909Y47D01*
X922Y47D02*
X927Y47D01*
X944Y47D02*
X949Y47D01*
X963Y47D02*
X967Y47D01*
X985Y47D02*
X990Y47D01*
X1003Y47D02*
X1008Y47D01*
X1025Y47D02*
X1030Y47D01*
X1044Y47D02*
X1048Y47D01*
X1066Y47D02*
X1070Y47D01*
X1084Y47D02*
X1089Y47D01*
X1106Y47D02*
X1111Y47D01*
X1125Y47D02*
X1129Y47D01*
X1147Y47D02*
X1151Y47D01*
X1165Y47D02*
X1169Y47D01*
X1187Y47D02*
X1191Y47D01*
X1205Y47D02*
X1210Y47D01*
X1227Y47D02*
X1232Y47D01*
X1297Y47D02*
X1302Y47D01*
X1332Y47D02*
X1353Y47D01*
X1367Y47D02*
X1371Y47D01*
X1378Y47D02*
X1383Y47D01*
X1389Y47D02*
X1394Y47D01*
X1407Y47D02*
X1412Y47D01*
X1430Y47D02*
X1434Y47D01*
X1448Y47D02*
X1453Y47D01*
X1470Y47D02*
X1475Y47D01*
X1540Y47D02*
X1544Y47D01*
X1575Y47D02*
X1596Y47D01*
X1610Y47D02*
X1614Y47D01*
X1661Y47D02*
X1666Y47D01*
X841Y46D02*
X846Y46D01*
X864Y46D02*
X868Y46D01*
X882Y46D02*
X886Y46D01*
X904Y46D02*
X909Y46D01*
X922Y46D02*
X927Y46D01*
X944Y46D02*
X949Y46D01*
X963Y46D02*
X967Y46D01*
X985Y46D02*
X990Y46D01*
X1003Y46D02*
X1008Y46D01*
X1025Y46D02*
X1030Y46D01*
X1044Y46D02*
X1048Y46D01*
X1066Y46D02*
X1070Y46D01*
X1084Y46D02*
X1089Y46D01*
X1106Y46D02*
X1111Y46D01*
X1125Y46D02*
X1129Y46D01*
X1147Y46D02*
X1151Y46D01*
X1165Y46D02*
X1169Y46D01*
X1187Y46D02*
X1191Y46D01*
X1205Y46D02*
X1210Y46D01*
X1227Y46D02*
X1232Y46D01*
X1297Y46D02*
X1302Y46D01*
X1330Y46D02*
X1353Y46D01*
X1367Y46D02*
X1371Y46D01*
X1378Y46D02*
X1383Y46D01*
X1389Y46D02*
X1394Y46D01*
X1407Y46D02*
X1412Y46D01*
X1430Y46D02*
X1434Y46D01*
X1448Y46D02*
X1453Y46D01*
X1470Y46D02*
X1475Y46D01*
X1540Y46D02*
X1544Y46D01*
X1573Y46D02*
X1596Y46D01*
X1610Y46D02*
X1614Y46D01*
X1661Y46D02*
X1666Y46D01*
X841Y45D02*
X846Y45D01*
X864Y45D02*
X868Y45D01*
X882Y45D02*
X887Y45D01*
X904Y45D02*
X909Y45D01*
X922Y45D02*
X927Y45D01*
X944Y45D02*
X949Y45D01*
X963Y45D02*
X967Y45D01*
X985Y45D02*
X990Y45D01*
X1003Y45D02*
X1008Y45D01*
X1025Y45D02*
X1030Y45D01*
X1044Y45D02*
X1048Y45D01*
X1066Y45D02*
X1070Y45D01*
X1084Y45D02*
X1089Y45D01*
X1106Y45D02*
X1111Y45D01*
X1125Y45D02*
X1129Y45D01*
X1147Y45D02*
X1151Y45D01*
X1165Y45D02*
X1169Y45D01*
X1187Y45D02*
X1191Y45D01*
X1205Y45D02*
X1210Y45D01*
X1227Y45D02*
X1232Y45D01*
X1297Y45D02*
X1302Y45D01*
X1329Y45D02*
X1353Y45D01*
X1367Y45D02*
X1371Y45D01*
X1378Y45D02*
X1383Y45D01*
X1389Y45D02*
X1394Y45D01*
X1407Y45D02*
X1412Y45D01*
X1430Y45D02*
X1434Y45D01*
X1448Y45D02*
X1453Y45D01*
X1470Y45D02*
X1475Y45D01*
X1540Y45D02*
X1544Y45D01*
X1572Y45D02*
X1596Y45D01*
X1610Y45D02*
X1614Y45D01*
X1661Y45D02*
X1666Y45D01*
X841Y44D02*
X846Y44D01*
X864Y44D02*
X868Y44D01*
X882Y44D02*
X909Y44D01*
X922Y44D02*
X927Y44D01*
X944Y44D02*
X949Y44D01*
X963Y44D02*
X967Y44D01*
X985Y44D02*
X990Y44D01*
X1003Y44D02*
X1008Y44D01*
X1025Y44D02*
X1030Y44D01*
X1044Y44D02*
X1048Y44D01*
X1066Y44D02*
X1070Y44D01*
X1084Y44D02*
X1089Y44D01*
X1106Y44D02*
X1111Y44D01*
X1125Y44D02*
X1129Y44D01*
X1147Y44D02*
X1151Y44D01*
X1165Y44D02*
X1169Y44D01*
X1187Y44D02*
X1191Y44D01*
X1205Y44D02*
X1210Y44D01*
X1227Y44D02*
X1232Y44D01*
X1297Y44D02*
X1302Y44D01*
X1328Y44D02*
X1353Y44D01*
X1367Y44D02*
X1371Y44D01*
X1378Y44D02*
X1383Y44D01*
X1389Y44D02*
X1394Y44D01*
X1407Y44D02*
X1412Y44D01*
X1430Y44D02*
X1434Y44D01*
X1448Y44D02*
X1453Y44D01*
X1470Y44D02*
X1475Y44D01*
X1540Y44D02*
X1544Y44D01*
X1571Y44D02*
X1596Y44D01*
X1610Y44D02*
X1614Y44D01*
X1661Y44D02*
X1666Y44D01*
X841Y43D02*
X846Y43D01*
X864Y43D02*
X868Y43D01*
X882Y43D02*
X909Y43D01*
X922Y43D02*
X927Y43D01*
X944Y43D02*
X949Y43D01*
X963Y43D02*
X967Y43D01*
X985Y43D02*
X990Y43D01*
X1003Y43D02*
X1008Y43D01*
X1025Y43D02*
X1030Y43D01*
X1044Y43D02*
X1048Y43D01*
X1066Y43D02*
X1070Y43D01*
X1084Y43D02*
X1089Y43D01*
X1106Y43D02*
X1111Y43D01*
X1125Y43D02*
X1129Y43D01*
X1147Y43D02*
X1151Y43D01*
X1165Y43D02*
X1169Y43D01*
X1187Y43D02*
X1191Y43D01*
X1205Y43D02*
X1210Y43D01*
X1227Y43D02*
X1232Y43D01*
X1297Y43D02*
X1302Y43D01*
X1328Y43D02*
X1353Y43D01*
X1367Y43D02*
X1371Y43D01*
X1378Y43D02*
X1383Y43D01*
X1389Y43D02*
X1394Y43D01*
X1407Y43D02*
X1412Y43D01*
X1430Y43D02*
X1434Y43D01*
X1448Y43D02*
X1453Y43D01*
X1470Y43D02*
X1475Y43D01*
X1540Y43D02*
X1544Y43D01*
X1570Y43D02*
X1596Y43D01*
X1610Y43D02*
X1614Y43D01*
X1661Y43D02*
X1666Y43D01*
X841Y42D02*
X846Y42D01*
X864Y42D02*
X868Y42D01*
X882Y42D02*
X909Y42D01*
X922Y42D02*
X927Y42D01*
X944Y42D02*
X949Y42D01*
X963Y42D02*
X967Y42D01*
X985Y42D02*
X990Y42D01*
X1003Y42D02*
X1008Y42D01*
X1025Y42D02*
X1030Y42D01*
X1044Y42D02*
X1048Y42D01*
X1066Y42D02*
X1070Y42D01*
X1084Y42D02*
X1089Y42D01*
X1106Y42D02*
X1111Y42D01*
X1125Y42D02*
X1129Y42D01*
X1147Y42D02*
X1151Y42D01*
X1165Y42D02*
X1169Y42D01*
X1187Y42D02*
X1191Y42D01*
X1205Y42D02*
X1210Y42D01*
X1227Y42D02*
X1232Y42D01*
X1297Y42D02*
X1302Y42D01*
X1327Y42D02*
X1353Y42D01*
X1367Y42D02*
X1371Y42D01*
X1378Y42D02*
X1383Y42D01*
X1389Y42D02*
X1394Y42D01*
X1407Y42D02*
X1412Y42D01*
X1430Y42D02*
X1434Y42D01*
X1448Y42D02*
X1453Y42D01*
X1470Y42D02*
X1475Y42D01*
X1540Y42D02*
X1544Y42D01*
X1570Y42D02*
X1596Y42D01*
X1610Y42D02*
X1614Y42D01*
X1661Y42D02*
X1666Y42D01*
X841Y41D02*
X846Y41D01*
X864Y41D02*
X868Y41D01*
X882Y41D02*
X908Y41D01*
X922Y41D02*
X927Y41D01*
X944Y41D02*
X949Y41D01*
X963Y41D02*
X967Y41D01*
X984Y41D02*
X990Y41D01*
X1003Y41D02*
X1008Y41D01*
X1025Y41D02*
X1030Y41D01*
X1044Y41D02*
X1048Y41D01*
X1066Y41D02*
X1070Y41D01*
X1084Y41D02*
X1089Y41D01*
X1106Y41D02*
X1111Y41D01*
X1125Y41D02*
X1129Y41D01*
X1147Y41D02*
X1151Y41D01*
X1165Y41D02*
X1169Y41D01*
X1187Y41D02*
X1191Y41D01*
X1205Y41D02*
X1210Y41D01*
X1227Y41D02*
X1232Y41D01*
X1297Y41D02*
X1302Y41D01*
X1327Y41D02*
X1332Y41D01*
X1347Y41D02*
X1353Y41D01*
X1367Y41D02*
X1371Y41D01*
X1378Y41D02*
X1383Y41D01*
X1389Y41D02*
X1394Y41D01*
X1407Y41D02*
X1412Y41D01*
X1430Y41D02*
X1434Y41D01*
X1448Y41D02*
X1453Y41D01*
X1470Y41D02*
X1475Y41D01*
X1540Y41D02*
X1544Y41D01*
X1569Y41D02*
X1575Y41D01*
X1590Y41D02*
X1596Y41D01*
X1610Y41D02*
X1614Y41D01*
X1661Y41D02*
X1666Y41D01*
X841Y40D02*
X846Y40D01*
X864Y40D02*
X868Y40D01*
X882Y40D02*
X908Y40D01*
X922Y40D02*
X927Y40D01*
X944Y40D02*
X949Y40D01*
X963Y40D02*
X967Y40D01*
X984Y40D02*
X990Y40D01*
X1003Y40D02*
X1008Y40D01*
X1025Y40D02*
X1030Y40D01*
X1044Y40D02*
X1048Y40D01*
X1066Y40D02*
X1070Y40D01*
X1084Y40D02*
X1089Y40D01*
X1106Y40D02*
X1111Y40D01*
X1125Y40D02*
X1129Y40D01*
X1147Y40D02*
X1151Y40D01*
X1165Y40D02*
X1169Y40D01*
X1187Y40D02*
X1191Y40D01*
X1205Y40D02*
X1210Y40D01*
X1226Y40D02*
X1232Y40D01*
X1297Y40D02*
X1302Y40D01*
X1327Y40D02*
X1331Y40D01*
X1348Y40D02*
X1353Y40D01*
X1367Y40D02*
X1371Y40D01*
X1378Y40D02*
X1383Y40D01*
X1389Y40D02*
X1394Y40D01*
X1407Y40D02*
X1412Y40D01*
X1430Y40D02*
X1434Y40D01*
X1448Y40D02*
X1453Y40D01*
X1470Y40D02*
X1475Y40D01*
X1540Y40D02*
X1544Y40D01*
X1569Y40D02*
X1574Y40D01*
X1591Y40D02*
X1596Y40D01*
X1610Y40D02*
X1614Y40D01*
X1661Y40D02*
X1666Y40D01*
X841Y39D02*
X846Y39D01*
X864Y39D02*
X868Y39D01*
X882Y39D02*
X887Y39D01*
X922Y39D02*
X927Y39D01*
X944Y39D02*
X949Y39D01*
X963Y39D02*
X968Y39D01*
X982Y39D02*
X990Y39D01*
X1003Y39D02*
X1008Y39D01*
X1025Y39D02*
X1030Y39D01*
X1044Y39D02*
X1048Y39D01*
X1066Y39D02*
X1070Y39D01*
X1084Y39D02*
X1089Y39D01*
X1106Y39D02*
X1111Y39D01*
X1125Y39D02*
X1129Y39D01*
X1146Y39D02*
X1151Y39D01*
X1165Y39D02*
X1169Y39D01*
X1187Y39D02*
X1191Y39D01*
X1205Y39D02*
X1210Y39D01*
X1225Y39D02*
X1232Y39D01*
X1297Y39D02*
X1302Y39D01*
X1327Y39D02*
X1331Y39D01*
X1348Y39D02*
X1353Y39D01*
X1367Y39D02*
X1371Y39D01*
X1378Y39D02*
X1383Y39D01*
X1389Y39D02*
X1394Y39D01*
X1407Y39D02*
X1412Y39D01*
X1430Y39D02*
X1434Y39D01*
X1448Y39D02*
X1453Y39D01*
X1470Y39D02*
X1475Y39D01*
X1540Y39D02*
X1544Y39D01*
X1569Y39D02*
X1574Y39D01*
X1591Y39D02*
X1596Y39D01*
X1610Y39D02*
X1615Y39D01*
X1661Y39D02*
X1666Y39D01*
X841Y38D02*
X847Y38D01*
X863Y38D02*
X868Y38D01*
X882Y38D02*
X886Y38D01*
X922Y38D02*
X927Y38D01*
X944Y38D02*
X949Y38D01*
X963Y38D02*
X968Y38D01*
X981Y38D02*
X990Y38D01*
X1003Y38D02*
X1008Y38D01*
X1025Y38D02*
X1030Y38D01*
X1044Y38D02*
X1048Y38D01*
X1064Y38D02*
X1070Y38D01*
X1084Y38D02*
X1090Y38D01*
X1106Y38D02*
X1111Y38D01*
X1125Y38D02*
X1129Y38D01*
X1145Y38D02*
X1151Y38D01*
X1165Y38D02*
X1169Y38D01*
X1187Y38D02*
X1191Y38D01*
X1206Y38D02*
X1211Y38D01*
X1224Y38D02*
X1232Y38D01*
X1297Y38D02*
X1302Y38D01*
X1327Y38D02*
X1331Y38D01*
X1348Y38D02*
X1353Y38D01*
X1367Y38D02*
X1371Y38D01*
X1378Y38D02*
X1383Y38D01*
X1389Y38D02*
X1394Y38D01*
X1407Y38D02*
X1413Y38D01*
X1429Y38D02*
X1434Y38D01*
X1448Y38D02*
X1453Y38D01*
X1469Y38D02*
X1475Y38D01*
X1540Y38D02*
X1544Y38D01*
X1569Y38D02*
X1574Y38D01*
X1591Y38D02*
X1596Y38D01*
X1610Y38D02*
X1615Y38D01*
X1661Y38D02*
X1666Y38D01*
X841Y37D02*
X847Y37D01*
X863Y37D02*
X868Y37D01*
X882Y37D02*
X887Y37D01*
X922Y37D02*
X927Y37D01*
X944Y37D02*
X949Y37D01*
X963Y37D02*
X969Y37D01*
X980Y37D02*
X990Y37D01*
X1003Y37D02*
X1008Y37D01*
X1025Y37D02*
X1030Y37D01*
X1044Y37D02*
X1048Y37D01*
X1063Y37D02*
X1070Y37D01*
X1084Y37D02*
X1091Y37D01*
X1106Y37D02*
X1111Y37D01*
X1125Y37D02*
X1129Y37D01*
X1144Y37D02*
X1151Y37D01*
X1165Y37D02*
X1169Y37D01*
X1187Y37D02*
X1191Y37D01*
X1206Y37D02*
X1212Y37D01*
X1223Y37D02*
X1232Y37D01*
X1297Y37D02*
X1302Y37D01*
X1327Y37D02*
X1331Y37D01*
X1348Y37D02*
X1353Y37D01*
X1367Y37D02*
X1371Y37D01*
X1378Y37D02*
X1383Y37D01*
X1389Y37D02*
X1394Y37D01*
X1407Y37D02*
X1414Y37D01*
X1429Y37D02*
X1434Y37D01*
X1448Y37D02*
X1453Y37D01*
X1467Y37D02*
X1475Y37D01*
X1540Y37D02*
X1544Y37D01*
X1569Y37D02*
X1574Y37D01*
X1591Y37D02*
X1596Y37D01*
X1610Y37D02*
X1616Y37D01*
X1661Y37D02*
X1666Y37D01*
X841Y36D02*
X849Y36D01*
X862Y36D02*
X868Y36D01*
X882Y36D02*
X887Y36D01*
X922Y36D02*
X927Y36D01*
X944Y36D02*
X949Y36D01*
X964Y36D02*
X970Y36D01*
X979Y36D02*
X990Y36D01*
X1003Y36D02*
X1008Y36D01*
X1025Y36D02*
X1030Y36D01*
X1044Y36D02*
X1048Y36D01*
X1061Y36D02*
X1070Y36D01*
X1084Y36D02*
X1092Y36D01*
X1106Y36D02*
X1111Y36D01*
X1125Y36D02*
X1129Y36D01*
X1142Y36D02*
X1151Y36D01*
X1165Y36D02*
X1169Y36D01*
X1187Y36D02*
X1191Y36D01*
X1206Y36D02*
X1213Y36D01*
X1221Y36D02*
X1232Y36D01*
X1297Y36D02*
X1302Y36D01*
X1327Y36D02*
X1331Y36D01*
X1347Y36D02*
X1353Y36D01*
X1367Y36D02*
X1371Y36D01*
X1378Y36D02*
X1383Y36D01*
X1389Y36D02*
X1394Y36D01*
X1407Y36D02*
X1415Y36D01*
X1428Y36D02*
X1434Y36D01*
X1448Y36D02*
X1453Y36D01*
X1465Y36D02*
X1475Y36D01*
X1540Y36D02*
X1544Y36D01*
X1569Y36D02*
X1574Y36D01*
X1590Y36D02*
X1596Y36D01*
X1611Y36D02*
X1617Y36D01*
X1661Y36D02*
X1666Y36D01*
X841Y35D02*
X850Y35D01*
X861Y35D02*
X867Y35D01*
X882Y35D02*
X888Y35D01*
X922Y35D02*
X927Y35D01*
X944Y35D02*
X949Y35D01*
X964Y35D02*
X990Y35D01*
X1003Y35D02*
X1008Y35D01*
X1025Y35D02*
X1030Y35D01*
X1044Y35D02*
X1049Y35D01*
X1059Y35D02*
X1070Y35D01*
X1084Y35D02*
X1093Y35D01*
X1105Y35D02*
X1110Y35D01*
X1125Y35D02*
X1130Y35D01*
X1140Y35D02*
X1151Y35D01*
X1165Y35D02*
X1169Y35D01*
X1187Y35D02*
X1191Y35D01*
X1207Y35D02*
X1232Y35D01*
X1297Y35D02*
X1302Y35D01*
X1327Y35D02*
X1331Y35D01*
X1346Y35D02*
X1353Y35D01*
X1367Y35D02*
X1371Y35D01*
X1378Y35D02*
X1383Y35D01*
X1389Y35D02*
X1394Y35D01*
X1407Y35D02*
X1416Y35D01*
X1427Y35D02*
X1433Y35D01*
X1448Y35D02*
X1453Y35D01*
X1464Y35D02*
X1475Y35D01*
X1540Y35D02*
X1544Y35D01*
X1569Y35D02*
X1574Y35D01*
X1588Y35D02*
X1596Y35D01*
X1611Y35D02*
X1619Y35D01*
X1661Y35D02*
X1666Y35D01*
X841Y34D02*
X851Y34D01*
X859Y34D02*
X867Y34D01*
X883Y34D02*
X889Y34D01*
X922Y34D02*
X927Y34D01*
X944Y34D02*
X949Y34D01*
X965Y34D02*
X990Y34D01*
X1003Y34D02*
X1008Y34D01*
X1025Y34D02*
X1030Y34D01*
X1044Y34D02*
X1049Y34D01*
X1058Y34D02*
X1070Y34D01*
X1084Y34D02*
X1094Y34D01*
X1103Y34D02*
X1110Y34D01*
X1125Y34D02*
X1130Y34D01*
X1139Y34D02*
X1151Y34D01*
X1165Y34D02*
X1169Y34D01*
X1187Y34D02*
X1191Y34D01*
X1208Y34D02*
X1232Y34D01*
X1297Y34D02*
X1302Y34D01*
X1327Y34D02*
X1332Y34D01*
X1344Y34D02*
X1353Y34D01*
X1367Y34D02*
X1371Y34D01*
X1378Y34D02*
X1383Y34D01*
X1389Y34D02*
X1394Y34D01*
X1407Y34D02*
X1417Y34D01*
X1425Y34D02*
X1433Y34D01*
X1448Y34D02*
X1454Y34D01*
X1462Y34D02*
X1475Y34D01*
X1540Y34D02*
X1544Y34D01*
X1569Y34D02*
X1575Y34D01*
X1587Y34D02*
X1596Y34D01*
X1612Y34D02*
X1620Y34D01*
X1661Y34D02*
X1666Y34D01*
X841Y33D02*
X852Y33D01*
X858Y33D02*
X866Y33D01*
X883Y33D02*
X907Y33D01*
X922Y33D02*
X927Y33D01*
X944Y33D02*
X949Y33D01*
X966Y33D02*
X983Y33D01*
X985Y33D02*
X990Y33D01*
X1003Y33D02*
X1008Y33D01*
X1025Y33D02*
X1030Y33D01*
X1044Y33D02*
X1070Y33D01*
X1084Y33D02*
X1109Y33D01*
X1125Y33D02*
X1151Y33D01*
X1165Y33D02*
X1169Y33D01*
X1187Y33D02*
X1191Y33D01*
X1209Y33D02*
X1232Y33D01*
X1291Y33D02*
X1308Y33D01*
X1327Y33D02*
X1353Y33D01*
X1367Y33D02*
X1371Y33D01*
X1378Y33D02*
X1383Y33D01*
X1389Y33D02*
X1394Y33D01*
X1407Y33D02*
X1418Y33D01*
X1424Y33D02*
X1432Y33D01*
X1449Y33D02*
X1475Y33D01*
X1534Y33D02*
X1551Y33D01*
X1570Y33D02*
X1596Y33D01*
X1613Y33D02*
X1634Y33D01*
X1655Y33D02*
X1672Y33D01*
X841Y32D02*
X854Y32D01*
X856Y32D02*
X865Y32D01*
X884Y32D02*
X908Y32D01*
X922Y32D02*
X927Y32D01*
X944Y32D02*
X949Y32D01*
X967Y32D02*
X982Y32D01*
X985Y32D02*
X990Y32D01*
X1003Y32D02*
X1008Y32D01*
X1025Y32D02*
X1030Y32D01*
X1045Y32D02*
X1070Y32D01*
X1084Y32D02*
X1109Y32D01*
X1126Y32D02*
X1151Y32D01*
X1165Y32D02*
X1169Y32D01*
X1187Y32D02*
X1191Y32D01*
X1210Y32D02*
X1225Y32D01*
X1227Y32D02*
X1232Y32D01*
X1290Y32D02*
X1310Y32D01*
X1328Y32D02*
X1353Y32D01*
X1367Y32D02*
X1371Y32D01*
X1378Y32D02*
X1383Y32D01*
X1389Y32D02*
X1394Y32D01*
X1407Y32D02*
X1420Y32D01*
X1422Y32D02*
X1431Y32D01*
X1449Y32D02*
X1475Y32D01*
X1532Y32D02*
X1552Y32D01*
X1570Y32D02*
X1596Y32D01*
X1614Y32D02*
X1636Y32D01*
X1653Y32D02*
X1673Y32D01*
X841Y31D02*
X864Y31D01*
X885Y31D02*
X909Y31D01*
X922Y31D02*
X927Y31D01*
X944Y31D02*
X949Y31D01*
X969Y31D02*
X980Y31D01*
X985Y31D02*
X990Y31D01*
X1003Y31D02*
X1008Y31D01*
X1025Y31D02*
X1030Y31D01*
X1045Y31D02*
X1063Y31D01*
X1066Y31D02*
X1070Y31D01*
X1084Y31D02*
X1108Y31D01*
X1126Y31D02*
X1144Y31D01*
X1147Y31D02*
X1151Y31D01*
X1165Y31D02*
X1169Y31D01*
X1187Y31D02*
X1191Y31D01*
X1212Y31D02*
X1223Y31D01*
X1227Y31D02*
X1232Y31D01*
X1289Y31D02*
X1310Y31D01*
X1328Y31D02*
X1353Y31D01*
X1367Y31D02*
X1371Y31D01*
X1378Y31D02*
X1383Y31D01*
X1389Y31D02*
X1394Y31D01*
X1407Y31D02*
X1430Y31D01*
X1450Y31D02*
X1467Y31D01*
X1470Y31D02*
X1475Y31D01*
X1532Y31D02*
X1553Y31D01*
X1571Y31D02*
X1596Y31D01*
X1616Y31D02*
X1636Y31D01*
X1653Y31D02*
X1674Y31D01*
X841Y30D02*
X846Y30D01*
X848Y30D02*
X862Y30D01*
X886Y30D02*
X909Y30D01*
X922Y30D02*
X927Y30D01*
X944Y30D02*
X949Y30D01*
X972Y30D02*
X978Y30D01*
X985Y30D02*
X990Y30D01*
X1003Y30D02*
X1008Y30D01*
X1025Y30D02*
X1029Y30D01*
X1046Y30D02*
X1061Y30D01*
X1066Y30D02*
X1070Y30D01*
X1084Y30D02*
X1089Y30D01*
X1091Y30D02*
X1106Y30D01*
X1127Y30D02*
X1142Y30D01*
X1147Y30D02*
X1151Y30D01*
X1165Y30D02*
X1169Y30D01*
X1187Y30D02*
X1191Y30D01*
X1214Y30D02*
X1220Y30D01*
X1227Y30D02*
X1232Y30D01*
X1289Y30D02*
X1310Y30D01*
X1329Y30D02*
X1353Y30D01*
X1367Y30D02*
X1371Y30D01*
X1378Y30D02*
X1383Y30D01*
X1389Y30D02*
X1394Y30D01*
X1407Y30D02*
X1412Y30D01*
X1414Y30D02*
X1428Y30D01*
X1451Y30D02*
X1465Y30D01*
X1470Y30D02*
X1475Y30D01*
X1532Y30D02*
X1553Y30D01*
X1572Y30D02*
X1596Y30D01*
X1617Y30D02*
X1636Y30D01*
X1653Y30D02*
X1674Y30D01*
X841Y29D02*
X846Y29D01*
X849Y29D02*
X861Y29D01*
X887Y29D02*
X908Y29D01*
X923Y29D02*
X926Y29D01*
X944Y29D02*
X948Y29D01*
X985Y29D02*
X990Y29D01*
X1003Y29D02*
X1007Y29D01*
X1025Y29D02*
X1029Y29D01*
X1048Y29D02*
X1059Y29D01*
X1066Y29D02*
X1070Y29D01*
X1084Y29D02*
X1088Y29D01*
X1092Y29D02*
X1105Y29D01*
X1128Y29D02*
X1140Y29D01*
X1147Y29D02*
X1151Y29D01*
X1165Y29D02*
X1169Y29D01*
X1187Y29D02*
X1191Y29D01*
X1227Y29D02*
X1232Y29D01*
X1289Y29D02*
X1310Y29D01*
X1330Y29D02*
X1346Y29D01*
X1349Y29D02*
X1353Y29D01*
X1367Y29D02*
X1371Y29D01*
X1378Y29D02*
X1382Y29D01*
X1390Y29D02*
X1393Y29D01*
X1407Y29D02*
X1412Y29D01*
X1415Y29D02*
X1427Y29D01*
X1452Y29D02*
X1464Y29D01*
X1470Y29D02*
X1474Y29D01*
X1532Y29D02*
X1552Y29D01*
X1573Y29D02*
X1588Y29D01*
X1592Y29D02*
X1595Y29D01*
X1618Y29D02*
X1636Y29D01*
X1653Y29D02*
X1674Y29D01*
X841Y28D02*
X846Y28D01*
X850Y28D02*
X860Y28D01*
X889Y28D02*
X907Y28D01*
X924Y28D02*
X926Y28D01*
X945Y28D02*
X947Y28D01*
X985Y28D02*
X990Y28D01*
X1004Y28D02*
X1006Y28D01*
X1026Y28D02*
X1028Y28D01*
X1049Y28D02*
X1057Y28D01*
X1067Y28D02*
X1069Y28D01*
X1085Y28D02*
X1087Y28D01*
X1094Y28D02*
X1103Y28D01*
X1130Y28D02*
X1138Y28D01*
X1148Y28D02*
X1150Y28D01*
X1166Y28D02*
X1168Y28D01*
X1188Y28D02*
X1190Y28D01*
X1227Y28D02*
X1232Y28D01*
X1290Y28D02*
X1309Y28D01*
X1332Y28D02*
X1344Y28D01*
X1350Y28D02*
X1352Y28D01*
X1368Y28D02*
X1370Y28D01*
X1379Y28D02*
X1381Y28D01*
X1390Y28D02*
X1393Y28D01*
X1407Y28D02*
X1412Y28D01*
X1416Y28D02*
X1426Y28D01*
X1454Y28D02*
X1462Y28D01*
X1471Y28D02*
X1473Y28D01*
X1533Y28D02*
X1551Y28D01*
X1575Y28D02*
X1586Y28D01*
X1593Y28D02*
X1594Y28D01*
X1620Y28D02*
X1635Y28D01*
X1654Y28D02*
X1673Y28D01*
X841Y27D02*
X846Y27D01*
X852Y27D02*
X858Y27D01*
X985Y27D02*
X990Y27D01*
X1227Y27D02*
X1232Y27D01*
X1407Y27D02*
X1412Y27D01*
X1418Y27D02*
X1424Y27D01*
X841Y26D02*
X846Y26D01*
X985Y26D02*
X990Y26D01*
X1227Y26D02*
X1232Y26D01*
X1407Y26D02*
X1412Y26D01*
X841Y25D02*
X846Y25D01*
X985Y25D02*
X989Y25D01*
X1227Y25D02*
X1232Y25D01*
X1407Y25D02*
X1412Y25D01*
X841Y24D02*
X846Y24D01*
X984Y24D02*
X989Y24D01*
X1227Y24D02*
X1232Y24D01*
X1407Y24D02*
X1412Y24D01*
X841Y23D02*
X846Y23D01*
X983Y23D02*
X989Y23D01*
X1226Y23D02*
X1232Y23D01*
X1407Y23D02*
X1412Y23D01*
X841Y22D02*
X846Y22D01*
X982Y22D02*
X989Y22D01*
X1224Y22D02*
X1231Y22D01*
X1407Y22D02*
X1412Y22D01*
X841Y21D02*
X846Y21D01*
X967Y21D02*
X988Y21D01*
X1210Y21D02*
X1231Y21D01*
X1407Y21D02*
X1412Y21D01*
X841Y20D02*
X846Y20D01*
X966Y20D02*
X987Y20D01*
X1209Y20D02*
X1230Y20D01*
X1407Y20D02*
X1412Y20D01*
X841Y19D02*
X846Y19D01*
X966Y19D02*
X986Y19D01*
X1208Y19D02*
X1229Y19D01*
X1407Y19D02*
X1412Y19D01*
X841Y18D02*
X846Y18D01*
X965Y18D02*
X985Y18D01*
X1208Y18D02*
X1228Y18D01*
X1408Y18D02*
X1412Y18D01*
X842Y17D02*
X846Y17D01*
X966Y17D02*
X984Y17D01*
X1208Y17D02*
X1226Y17D01*
X1408Y17D02*
X1412Y17D01*
X843Y16D02*
X844Y16D01*
X967Y16D02*
X981Y16D01*
X1210Y16D02*
X1224Y16D01*
X1409Y16D02*
X1411Y16D01*
D02*
G04 End of Silk1*
M02*