G04 MADE WITH FRITZING*
G04 WWW.FRITZING.ORG*
G04 DOUBLE SIDED*
G04 HOLES PLATED*
G04 CONTOUR ON CENTER OF CONTOUR VECTOR*
%ASAXBY*%
%FSLAX23Y23*%
%MOIN*%
%OFA0B0*%
%SFA1.0B1.0*%
%ADD10C,0.088000*%
%ADD11C,0.150000*%
%ADD12C,0.089370*%
%ADD13C,0.135984*%
%ADD14R,0.089370X0.089370*%
%LNMASK1*%
G90*
G70*
G54D10*
X2213Y198D03*
X2213Y298D03*
X2213Y398D03*
X2213Y498D03*
X2213Y598D03*
X2213Y698D03*
X2213Y798D03*
X2213Y898D03*
X2213Y998D03*
X2213Y1098D03*
X2213Y1198D03*
X2213Y1298D03*
X2213Y1398D03*
X2213Y1498D03*
X2213Y1598D03*
X1613Y198D03*
X1613Y298D03*
X1613Y398D03*
X1613Y498D03*
X1613Y598D03*
X1613Y698D03*
X1613Y798D03*
X1613Y898D03*
X1613Y998D03*
X1613Y1098D03*
X1613Y1198D03*
X1613Y1298D03*
X1613Y1398D03*
X1613Y1498D03*
X1613Y1598D03*
G54D11*
X2513Y688D03*
X2513Y448D03*
X2703Y568D03*
G54D12*
X1113Y1348D03*
X1213Y1348D03*
X1313Y1348D03*
X613Y1348D03*
X713Y1348D03*
X813Y1348D03*
X613Y1048D03*
X713Y1048D03*
X813Y1048D03*
X1113Y448D03*
X1213Y448D03*
X1313Y448D03*
X613Y448D03*
X713Y448D03*
X813Y448D03*
X613Y748D03*
X713Y748D03*
X813Y748D03*
X1113Y748D03*
X1213Y748D03*
X1313Y748D03*
X1113Y1048D03*
X1213Y1048D03*
X1313Y1048D03*
X313Y1448D03*
X313Y1548D03*
X313Y1648D03*
X313Y998D03*
X313Y1098D03*
X313Y1198D03*
X313Y548D03*
X313Y648D03*
X313Y748D03*
X313Y98D03*
X313Y198D03*
X313Y298D03*
G54D13*
X2563Y998D03*
X563Y1648D03*
X563Y98D03*
G54D14*
X1113Y1348D03*
X613Y1348D03*
X613Y1048D03*
X1113Y448D03*
X613Y448D03*
X613Y748D03*
X1113Y748D03*
X1113Y1048D03*
X313Y1448D03*
X313Y998D03*
X313Y548D03*
X313Y98D03*
G04 End of Mask1*
M02*