G04 MADE WITH FRITZING*
G04 WWW.FRITZING.ORG*
G04 DOUBLE SIDED*
G04 HOLES PLATED*
G04 CONTOUR ON CENTER OF CONTOUR VECTOR*
%ASAXBY*%
%FSLAX23Y23*%
%MOIN*%
%OFA0B0*%
%SFA1.0B1.0*%
%ADD10C,0.075000*%
%ADD11C,0.079370*%
%ADD12C,0.078000*%
%ADD13C,0.140000*%
%ADD14R,0.079370X0.079370*%
%ADD15C,0.024000*%
%LNCOPPER0*%
G90*
G70*
G54D10*
X109Y1622D03*
X427Y1645D03*
G54D11*
X613Y448D03*
X713Y448D03*
X813Y448D03*
X1113Y448D03*
X1213Y448D03*
X1313Y448D03*
X1113Y748D03*
X1213Y748D03*
X1313Y748D03*
X613Y748D03*
X713Y748D03*
X813Y748D03*
X613Y1048D03*
X713Y1048D03*
X813Y1048D03*
X1113Y1048D03*
X1213Y1048D03*
X1313Y1048D03*
X1113Y1348D03*
X1213Y1348D03*
X1313Y1348D03*
X613Y1348D03*
X713Y1348D03*
X813Y1348D03*
X313Y1448D03*
X313Y1548D03*
X313Y1648D03*
X313Y998D03*
X313Y1098D03*
X313Y1198D03*
X313Y548D03*
X313Y648D03*
X313Y748D03*
X313Y98D03*
X313Y198D03*
X313Y298D03*
G54D12*
X2213Y198D03*
X2213Y298D03*
X2213Y398D03*
X2213Y498D03*
X2213Y598D03*
X2213Y698D03*
X2213Y798D03*
X2213Y898D03*
X2213Y998D03*
X2213Y1098D03*
X2213Y1198D03*
X2213Y1298D03*
X2213Y1398D03*
X2213Y1498D03*
X2213Y1598D03*
X1613Y198D03*
X1613Y298D03*
X1613Y398D03*
X1613Y498D03*
X1613Y598D03*
X1613Y698D03*
X1613Y798D03*
X1613Y898D03*
X1613Y998D03*
X1613Y1098D03*
X1613Y1198D03*
X1613Y1298D03*
X1613Y1398D03*
X1613Y1498D03*
X1613Y1598D03*
G54D13*
X2513Y688D03*
X2513Y448D03*
X2703Y568D03*
G54D14*
X613Y448D03*
X1113Y448D03*
X1113Y748D03*
X613Y748D03*
X613Y1048D03*
X1113Y1048D03*
X1113Y1348D03*
X613Y1348D03*
X313Y1448D03*
X313Y998D03*
X313Y548D03*
X313Y98D03*
G54D15*
X2243Y1498D02*
X2612Y1497D01*
D02*
X2612Y1497D02*
X2713Y1397D01*
D02*
X2713Y1397D02*
X2703Y629D01*
D02*
X2013Y1497D02*
X1788Y1297D01*
D02*
X1788Y1297D02*
X1643Y1298D01*
D02*
X2183Y1498D02*
X2013Y1497D01*
D02*
X713Y779D02*
X713Y1017D01*
D02*
X713Y1079D02*
X713Y1317D01*
D02*
X713Y479D02*
X713Y717D01*
D02*
X1213Y1317D02*
X1213Y1079D01*
D02*
X1213Y1017D02*
X1213Y779D01*
D02*
X1213Y717D02*
X1213Y479D01*
D02*
X1113Y1317D02*
X1113Y1079D01*
D02*
X1113Y1017D02*
X1113Y779D01*
D02*
X1113Y717D02*
X1113Y479D01*
D02*
X613Y1317D02*
X613Y1079D01*
D02*
X613Y1017D02*
X613Y779D01*
D02*
X613Y717D02*
X613Y479D01*
D02*
X512Y397D02*
X334Y220D01*
D02*
X512Y648D02*
X512Y397D01*
D02*
X512Y648D02*
X343Y648D01*
D02*
X512Y1098D02*
X512Y648D01*
D02*
X512Y1098D02*
X343Y1098D01*
D02*
X512Y1547D02*
X512Y1098D01*
D02*
X343Y1548D02*
X512Y1547D01*
D02*
X512Y1547D02*
X712Y1547D01*
D02*
X712Y1547D02*
X713Y1379D01*
D02*
X1213Y1547D02*
X712Y1547D01*
D02*
X1363Y1547D02*
X1213Y1547D01*
D02*
X1213Y1379D02*
X1213Y1547D01*
D02*
X1591Y1319D02*
X1363Y1547D01*
D02*
X343Y98D02*
X388Y98D01*
D02*
X388Y98D02*
X612Y347D01*
D02*
X612Y347D02*
X613Y417D01*
D02*
X213Y998D02*
X213Y1447D01*
D02*
X213Y1447D02*
X282Y1448D01*
D02*
X213Y547D02*
X213Y998D01*
D02*
X213Y998D02*
X282Y998D01*
D02*
X213Y98D02*
X213Y547D01*
D02*
X213Y547D02*
X282Y547D01*
D02*
X282Y98D02*
X213Y98D01*
G36*
X40Y1705D02*
X40Y41D01*
X262Y41D01*
X262Y75D01*
X212Y75D01*
X212Y77D01*
X204Y77D01*
X204Y79D01*
X200Y79D01*
X200Y81D01*
X198Y81D01*
X198Y83D01*
X196Y83D01*
X196Y85D01*
X194Y85D01*
X194Y89D01*
X192Y89D01*
X192Y97D01*
X190Y97D01*
X190Y1449D01*
X192Y1449D01*
X192Y1457D01*
X194Y1457D01*
X194Y1461D01*
X196Y1461D01*
X196Y1463D01*
X198Y1463D01*
X198Y1465D01*
X202Y1465D01*
X202Y1467D01*
X206Y1467D01*
X206Y1469D01*
X262Y1469D01*
X262Y1497D01*
X276Y1497D01*
X276Y1519D01*
X274Y1519D01*
X274Y1521D01*
X272Y1521D01*
X272Y1523D01*
X270Y1523D01*
X270Y1527D01*
X268Y1527D01*
X268Y1531D01*
X266Y1531D01*
X266Y1535D01*
X264Y1535D01*
X264Y1547D01*
X262Y1547D01*
X262Y1549D01*
X264Y1549D01*
X264Y1561D01*
X266Y1561D01*
X266Y1565D01*
X268Y1565D01*
X268Y1569D01*
X270Y1569D01*
X270Y1573D01*
X272Y1573D01*
X272Y1575D01*
X274Y1575D01*
X274Y1577D01*
X276Y1577D01*
X276Y1581D01*
X278Y1581D01*
X278Y1583D01*
X280Y1583D01*
X280Y1585D01*
X284Y1585D01*
X284Y1587D01*
X286Y1587D01*
X286Y1609D01*
X284Y1609D01*
X284Y1611D01*
X280Y1611D01*
X280Y1613D01*
X278Y1613D01*
X278Y1615D01*
X276Y1615D01*
X276Y1619D01*
X274Y1619D01*
X274Y1621D01*
X272Y1621D01*
X272Y1623D01*
X270Y1623D01*
X270Y1627D01*
X268Y1627D01*
X268Y1631D01*
X266Y1631D01*
X266Y1635D01*
X264Y1635D01*
X264Y1647D01*
X262Y1647D01*
X262Y1649D01*
X264Y1649D01*
X264Y1661D01*
X266Y1661D01*
X266Y1665D01*
X268Y1665D01*
X268Y1669D01*
X270Y1669D01*
X270Y1673D01*
X272Y1673D01*
X272Y1675D01*
X274Y1675D01*
X274Y1677D01*
X276Y1677D01*
X276Y1681D01*
X278Y1681D01*
X278Y1683D01*
X280Y1683D01*
X280Y1685D01*
X284Y1685D01*
X284Y1705D01*
X40Y1705D01*
G37*
D02*
G36*
X342Y1705D02*
X342Y1685D01*
X344Y1685D01*
X344Y1683D01*
X346Y1683D01*
X346Y1681D01*
X348Y1681D01*
X348Y1679D01*
X350Y1679D01*
X350Y1677D01*
X352Y1677D01*
X352Y1675D01*
X354Y1675D01*
X354Y1671D01*
X356Y1671D01*
X356Y1669D01*
X358Y1669D01*
X358Y1663D01*
X360Y1663D01*
X360Y1657D01*
X362Y1657D01*
X362Y1639D01*
X360Y1639D01*
X360Y1633D01*
X358Y1633D01*
X358Y1629D01*
X356Y1629D01*
X356Y1625D01*
X354Y1625D01*
X354Y1621D01*
X352Y1621D01*
X352Y1619D01*
X350Y1619D01*
X350Y1617D01*
X348Y1617D01*
X348Y1615D01*
X346Y1615D01*
X346Y1613D01*
X344Y1613D01*
X344Y1611D01*
X342Y1611D01*
X342Y1609D01*
X340Y1609D01*
X340Y1587D01*
X342Y1587D01*
X342Y1585D01*
X344Y1585D01*
X344Y1583D01*
X346Y1583D01*
X346Y1581D01*
X348Y1581D01*
X348Y1579D01*
X350Y1579D01*
X350Y1577D01*
X352Y1577D01*
X352Y1575D01*
X552Y1575D01*
X552Y1577D01*
X544Y1577D01*
X544Y1579D01*
X538Y1579D01*
X538Y1581D01*
X532Y1581D01*
X532Y1583D01*
X528Y1583D01*
X528Y1585D01*
X526Y1585D01*
X526Y1587D01*
X522Y1587D01*
X522Y1589D01*
X520Y1589D01*
X520Y1591D01*
X518Y1591D01*
X518Y1593D01*
X514Y1593D01*
X514Y1595D01*
X512Y1595D01*
X512Y1597D01*
X510Y1597D01*
X510Y1599D01*
X508Y1599D01*
X508Y1601D01*
X506Y1601D01*
X506Y1605D01*
X504Y1605D01*
X504Y1607D01*
X502Y1607D01*
X502Y1611D01*
X500Y1611D01*
X500Y1613D01*
X498Y1613D01*
X498Y1617D01*
X496Y1617D01*
X496Y1621D01*
X494Y1621D01*
X494Y1627D01*
X492Y1627D01*
X492Y1635D01*
X490Y1635D01*
X490Y1661D01*
X492Y1661D01*
X492Y1669D01*
X494Y1669D01*
X494Y1675D01*
X496Y1675D01*
X496Y1679D01*
X498Y1679D01*
X498Y1683D01*
X500Y1683D01*
X500Y1685D01*
X502Y1685D01*
X502Y1705D01*
X342Y1705D01*
G37*
D02*
G36*
X624Y1705D02*
X624Y1685D01*
X626Y1685D01*
X626Y1681D01*
X628Y1681D01*
X628Y1677D01*
X630Y1677D01*
X630Y1673D01*
X632Y1673D01*
X632Y1667D01*
X634Y1667D01*
X634Y1657D01*
X636Y1657D01*
X636Y1647D01*
X2222Y1647D01*
X2222Y1645D01*
X2228Y1645D01*
X2228Y1643D01*
X2232Y1643D01*
X2232Y1641D01*
X2236Y1641D01*
X2236Y1639D01*
X2238Y1639D01*
X2238Y1637D01*
X2242Y1637D01*
X2242Y1635D01*
X2244Y1635D01*
X2244Y1633D01*
X2246Y1633D01*
X2246Y1631D01*
X2248Y1631D01*
X2248Y1629D01*
X2250Y1629D01*
X2250Y1627D01*
X2252Y1627D01*
X2252Y1623D01*
X2254Y1623D01*
X2254Y1621D01*
X2256Y1621D01*
X2256Y1617D01*
X2258Y1617D01*
X2258Y1611D01*
X2260Y1611D01*
X2260Y1605D01*
X2262Y1605D01*
X2262Y1591D01*
X2260Y1591D01*
X2260Y1585D01*
X2258Y1585D01*
X2258Y1579D01*
X2256Y1579D01*
X2256Y1577D01*
X2254Y1577D01*
X2254Y1573D01*
X2252Y1573D01*
X2252Y1569D01*
X2250Y1569D01*
X2250Y1567D01*
X2248Y1567D01*
X2248Y1565D01*
X2246Y1565D01*
X2246Y1563D01*
X2244Y1563D01*
X2244Y1561D01*
X2242Y1561D01*
X2242Y1559D01*
X2238Y1559D01*
X2238Y1537D01*
X2242Y1537D01*
X2242Y1535D01*
X2244Y1535D01*
X2244Y1533D01*
X2246Y1533D01*
X2246Y1531D01*
X2248Y1531D01*
X2248Y1529D01*
X2250Y1529D01*
X2250Y1527D01*
X2252Y1527D01*
X2252Y1523D01*
X2254Y1523D01*
X2254Y1521D01*
X2256Y1521D01*
X2256Y1517D01*
X2258Y1517D01*
X2258Y1511D01*
X2260Y1511D01*
X2260Y1505D01*
X2262Y1505D01*
X2262Y1491D01*
X2260Y1491D01*
X2260Y1485D01*
X2258Y1485D01*
X2258Y1479D01*
X2256Y1479D01*
X2256Y1477D01*
X2254Y1477D01*
X2254Y1473D01*
X2252Y1473D01*
X2252Y1469D01*
X2250Y1469D01*
X2250Y1467D01*
X2248Y1467D01*
X2248Y1465D01*
X2246Y1465D01*
X2246Y1463D01*
X2244Y1463D01*
X2244Y1461D01*
X2242Y1461D01*
X2242Y1459D01*
X2238Y1459D01*
X2238Y1437D01*
X2242Y1437D01*
X2242Y1435D01*
X2244Y1435D01*
X2244Y1433D01*
X2246Y1433D01*
X2246Y1431D01*
X2248Y1431D01*
X2248Y1429D01*
X2250Y1429D01*
X2250Y1427D01*
X2252Y1427D01*
X2252Y1423D01*
X2254Y1423D01*
X2254Y1421D01*
X2256Y1421D01*
X2256Y1417D01*
X2258Y1417D01*
X2258Y1411D01*
X2260Y1411D01*
X2260Y1405D01*
X2262Y1405D01*
X2262Y1391D01*
X2260Y1391D01*
X2260Y1385D01*
X2258Y1385D01*
X2258Y1379D01*
X2256Y1379D01*
X2256Y1377D01*
X2254Y1377D01*
X2254Y1373D01*
X2252Y1373D01*
X2252Y1369D01*
X2250Y1369D01*
X2250Y1367D01*
X2248Y1367D01*
X2248Y1365D01*
X2246Y1365D01*
X2246Y1363D01*
X2244Y1363D01*
X2244Y1361D01*
X2242Y1361D01*
X2242Y1359D01*
X2238Y1359D01*
X2238Y1337D01*
X2242Y1337D01*
X2242Y1335D01*
X2244Y1335D01*
X2244Y1333D01*
X2246Y1333D01*
X2246Y1331D01*
X2248Y1331D01*
X2248Y1329D01*
X2250Y1329D01*
X2250Y1327D01*
X2252Y1327D01*
X2252Y1323D01*
X2254Y1323D01*
X2254Y1321D01*
X2256Y1321D01*
X2256Y1317D01*
X2258Y1317D01*
X2258Y1311D01*
X2260Y1311D01*
X2260Y1305D01*
X2262Y1305D01*
X2262Y1291D01*
X2260Y1291D01*
X2260Y1285D01*
X2258Y1285D01*
X2258Y1279D01*
X2256Y1279D01*
X2256Y1277D01*
X2254Y1277D01*
X2254Y1273D01*
X2252Y1273D01*
X2252Y1269D01*
X2250Y1269D01*
X2250Y1267D01*
X2248Y1267D01*
X2248Y1265D01*
X2246Y1265D01*
X2246Y1263D01*
X2244Y1263D01*
X2244Y1261D01*
X2242Y1261D01*
X2242Y1259D01*
X2238Y1259D01*
X2238Y1237D01*
X2242Y1237D01*
X2242Y1235D01*
X2244Y1235D01*
X2244Y1233D01*
X2246Y1233D01*
X2246Y1231D01*
X2248Y1231D01*
X2248Y1229D01*
X2250Y1229D01*
X2250Y1227D01*
X2252Y1227D01*
X2252Y1223D01*
X2254Y1223D01*
X2254Y1221D01*
X2256Y1221D01*
X2256Y1217D01*
X2258Y1217D01*
X2258Y1211D01*
X2260Y1211D01*
X2260Y1205D01*
X2262Y1205D01*
X2262Y1191D01*
X2260Y1191D01*
X2260Y1185D01*
X2258Y1185D01*
X2258Y1179D01*
X2256Y1179D01*
X2256Y1177D01*
X2254Y1177D01*
X2254Y1173D01*
X2252Y1173D01*
X2252Y1169D01*
X2250Y1169D01*
X2250Y1167D01*
X2248Y1167D01*
X2248Y1165D01*
X2246Y1165D01*
X2246Y1163D01*
X2244Y1163D01*
X2244Y1161D01*
X2242Y1161D01*
X2242Y1159D01*
X2238Y1159D01*
X2238Y1137D01*
X2242Y1137D01*
X2242Y1135D01*
X2244Y1135D01*
X2244Y1133D01*
X2246Y1133D01*
X2246Y1131D01*
X2248Y1131D01*
X2248Y1129D01*
X2250Y1129D01*
X2250Y1127D01*
X2252Y1127D01*
X2252Y1123D01*
X2254Y1123D01*
X2254Y1121D01*
X2256Y1121D01*
X2256Y1117D01*
X2258Y1117D01*
X2258Y1111D01*
X2260Y1111D01*
X2260Y1105D01*
X2262Y1105D01*
X2262Y1091D01*
X2260Y1091D01*
X2260Y1085D01*
X2258Y1085D01*
X2258Y1079D01*
X2256Y1079D01*
X2256Y1077D01*
X2254Y1077D01*
X2254Y1073D01*
X2252Y1073D01*
X2252Y1071D01*
X2574Y1071D01*
X2574Y1069D01*
X2582Y1069D01*
X2582Y1067D01*
X2588Y1067D01*
X2588Y1065D01*
X2592Y1065D01*
X2592Y1063D01*
X2596Y1063D01*
X2596Y1061D01*
X2600Y1061D01*
X2600Y1059D01*
X2604Y1059D01*
X2604Y1057D01*
X2606Y1057D01*
X2606Y1055D01*
X2608Y1055D01*
X2608Y1053D01*
X2610Y1053D01*
X2610Y1051D01*
X2612Y1051D01*
X2612Y1049D01*
X2614Y1049D01*
X2614Y1047D01*
X2616Y1047D01*
X2616Y1045D01*
X2618Y1045D01*
X2618Y1043D01*
X2620Y1043D01*
X2620Y1041D01*
X2622Y1041D01*
X2622Y1037D01*
X2624Y1037D01*
X2624Y1035D01*
X2626Y1035D01*
X2626Y1031D01*
X2628Y1031D01*
X2628Y1027D01*
X2630Y1027D01*
X2630Y1023D01*
X2632Y1023D01*
X2632Y1017D01*
X2634Y1017D01*
X2634Y1007D01*
X2636Y1007D01*
X2636Y989D01*
X2634Y989D01*
X2634Y979D01*
X2632Y979D01*
X2632Y973D01*
X2630Y973D01*
X2630Y969D01*
X2628Y969D01*
X2628Y965D01*
X2626Y965D01*
X2626Y961D01*
X2624Y961D01*
X2624Y959D01*
X2622Y959D01*
X2622Y955D01*
X2620Y955D01*
X2620Y953D01*
X2618Y953D01*
X2618Y951D01*
X2616Y951D01*
X2616Y949D01*
X2614Y949D01*
X2614Y947D01*
X2612Y947D01*
X2612Y945D01*
X2610Y945D01*
X2610Y943D01*
X2608Y943D01*
X2608Y941D01*
X2606Y941D01*
X2606Y939D01*
X2604Y939D01*
X2604Y937D01*
X2600Y937D01*
X2600Y935D01*
X2596Y935D01*
X2596Y933D01*
X2592Y933D01*
X2592Y931D01*
X2588Y931D01*
X2588Y929D01*
X2582Y929D01*
X2582Y927D01*
X2574Y927D01*
X2574Y925D01*
X2758Y925D01*
X2758Y1705D01*
X624Y1705D01*
G37*
D02*
G36*
X636Y1647D02*
X636Y1639D01*
X634Y1639D01*
X634Y1629D01*
X632Y1629D01*
X632Y1623D01*
X630Y1623D01*
X630Y1619D01*
X628Y1619D01*
X628Y1615D01*
X626Y1615D01*
X626Y1611D01*
X624Y1611D01*
X624Y1609D01*
X622Y1609D01*
X622Y1605D01*
X620Y1605D01*
X620Y1603D01*
X618Y1603D01*
X618Y1601D01*
X616Y1601D01*
X616Y1599D01*
X614Y1599D01*
X614Y1597D01*
X612Y1597D01*
X612Y1595D01*
X610Y1595D01*
X610Y1593D01*
X608Y1593D01*
X608Y1591D01*
X606Y1591D01*
X606Y1589D01*
X602Y1589D01*
X602Y1587D01*
X600Y1587D01*
X600Y1585D01*
X596Y1585D01*
X596Y1583D01*
X592Y1583D01*
X592Y1581D01*
X588Y1581D01*
X588Y1579D01*
X582Y1579D01*
X582Y1577D01*
X574Y1577D01*
X574Y1575D01*
X1570Y1575D01*
X1570Y1579D01*
X1568Y1579D01*
X1568Y1583D01*
X1566Y1583D01*
X1566Y1589D01*
X1564Y1589D01*
X1564Y1607D01*
X1566Y1607D01*
X1566Y1613D01*
X1568Y1613D01*
X1568Y1617D01*
X1570Y1617D01*
X1570Y1621D01*
X1572Y1621D01*
X1572Y1625D01*
X1574Y1625D01*
X1574Y1627D01*
X1576Y1627D01*
X1576Y1629D01*
X1578Y1629D01*
X1578Y1631D01*
X1580Y1631D01*
X1580Y1633D01*
X1582Y1633D01*
X1582Y1635D01*
X1584Y1635D01*
X1584Y1637D01*
X1586Y1637D01*
X1586Y1639D01*
X1590Y1639D01*
X1590Y1641D01*
X1594Y1641D01*
X1594Y1643D01*
X1598Y1643D01*
X1598Y1645D01*
X1604Y1645D01*
X1604Y1647D01*
X636Y1647D01*
G37*
D02*
G36*
X1622Y1647D02*
X1622Y1645D01*
X1628Y1645D01*
X1628Y1643D01*
X1632Y1643D01*
X1632Y1641D01*
X1636Y1641D01*
X1636Y1639D01*
X1638Y1639D01*
X1638Y1637D01*
X1642Y1637D01*
X1642Y1635D01*
X1644Y1635D01*
X1644Y1633D01*
X1646Y1633D01*
X1646Y1631D01*
X1648Y1631D01*
X1648Y1629D01*
X1650Y1629D01*
X1650Y1627D01*
X1652Y1627D01*
X1652Y1623D01*
X1654Y1623D01*
X1654Y1621D01*
X1656Y1621D01*
X1656Y1617D01*
X1658Y1617D01*
X1658Y1611D01*
X1660Y1611D01*
X1660Y1605D01*
X1662Y1605D01*
X1662Y1591D01*
X1660Y1591D01*
X1660Y1585D01*
X1658Y1585D01*
X1658Y1579D01*
X1656Y1579D01*
X1656Y1577D01*
X1654Y1577D01*
X1654Y1573D01*
X1652Y1573D01*
X1652Y1569D01*
X1650Y1569D01*
X1650Y1567D01*
X1648Y1567D01*
X1648Y1565D01*
X1646Y1565D01*
X1646Y1563D01*
X1644Y1563D01*
X1644Y1561D01*
X1642Y1561D01*
X1642Y1559D01*
X1638Y1559D01*
X1638Y1537D01*
X1642Y1537D01*
X1642Y1535D01*
X1644Y1535D01*
X1644Y1533D01*
X1646Y1533D01*
X1646Y1531D01*
X1648Y1531D01*
X1648Y1529D01*
X1650Y1529D01*
X1650Y1527D01*
X1652Y1527D01*
X1652Y1523D01*
X1654Y1523D01*
X1654Y1521D01*
X1656Y1521D01*
X1656Y1517D01*
X1658Y1517D01*
X1658Y1511D01*
X1660Y1511D01*
X1660Y1505D01*
X1662Y1505D01*
X1662Y1491D01*
X1660Y1491D01*
X1660Y1485D01*
X1658Y1485D01*
X1658Y1479D01*
X1656Y1479D01*
X1656Y1477D01*
X1654Y1477D01*
X1654Y1473D01*
X1652Y1473D01*
X1652Y1469D01*
X1650Y1469D01*
X1650Y1467D01*
X1648Y1467D01*
X1648Y1465D01*
X1646Y1465D01*
X1646Y1463D01*
X1644Y1463D01*
X1644Y1461D01*
X1642Y1461D01*
X1642Y1459D01*
X1638Y1459D01*
X1638Y1437D01*
X1642Y1437D01*
X1642Y1435D01*
X1644Y1435D01*
X1644Y1433D01*
X1646Y1433D01*
X1646Y1431D01*
X1648Y1431D01*
X1648Y1429D01*
X1650Y1429D01*
X1650Y1427D01*
X1652Y1427D01*
X1652Y1423D01*
X1654Y1423D01*
X1654Y1421D01*
X1656Y1421D01*
X1656Y1417D01*
X1658Y1417D01*
X1658Y1411D01*
X1660Y1411D01*
X1660Y1405D01*
X1662Y1405D01*
X1662Y1391D01*
X1660Y1391D01*
X1660Y1385D01*
X1658Y1385D01*
X1658Y1379D01*
X1656Y1379D01*
X1656Y1377D01*
X1654Y1377D01*
X1654Y1373D01*
X1652Y1373D01*
X1652Y1369D01*
X1650Y1369D01*
X1650Y1367D01*
X1648Y1367D01*
X1648Y1365D01*
X1646Y1365D01*
X1646Y1363D01*
X1644Y1363D01*
X1644Y1361D01*
X1642Y1361D01*
X1642Y1359D01*
X1638Y1359D01*
X1638Y1337D01*
X1642Y1337D01*
X1642Y1335D01*
X1644Y1335D01*
X1644Y1333D01*
X1646Y1333D01*
X1646Y1331D01*
X1648Y1331D01*
X1648Y1329D01*
X1650Y1329D01*
X1650Y1327D01*
X1652Y1327D01*
X1652Y1323D01*
X1654Y1323D01*
X1654Y1321D01*
X1656Y1321D01*
X1656Y1317D01*
X1658Y1317D01*
X1658Y1311D01*
X1660Y1311D01*
X1660Y1305D01*
X1662Y1305D01*
X1662Y1291D01*
X1660Y1291D01*
X1660Y1285D01*
X1658Y1285D01*
X1658Y1279D01*
X1656Y1279D01*
X1656Y1277D01*
X1654Y1277D01*
X1654Y1273D01*
X1652Y1273D01*
X1652Y1269D01*
X1650Y1269D01*
X1650Y1267D01*
X1648Y1267D01*
X1648Y1265D01*
X1646Y1265D01*
X1646Y1263D01*
X1644Y1263D01*
X1644Y1261D01*
X1642Y1261D01*
X1642Y1259D01*
X1638Y1259D01*
X1638Y1237D01*
X1642Y1237D01*
X1642Y1235D01*
X1644Y1235D01*
X1644Y1233D01*
X1646Y1233D01*
X1646Y1231D01*
X1648Y1231D01*
X1648Y1229D01*
X1650Y1229D01*
X1650Y1227D01*
X1652Y1227D01*
X1652Y1223D01*
X1654Y1223D01*
X1654Y1221D01*
X1656Y1221D01*
X1656Y1217D01*
X1658Y1217D01*
X1658Y1211D01*
X1660Y1211D01*
X1660Y1205D01*
X1662Y1205D01*
X1662Y1191D01*
X1660Y1191D01*
X1660Y1185D01*
X1658Y1185D01*
X1658Y1179D01*
X1656Y1179D01*
X1656Y1177D01*
X1654Y1177D01*
X1654Y1173D01*
X1652Y1173D01*
X1652Y1169D01*
X1650Y1169D01*
X1650Y1167D01*
X1648Y1167D01*
X1648Y1165D01*
X1646Y1165D01*
X1646Y1163D01*
X1644Y1163D01*
X1644Y1161D01*
X1642Y1161D01*
X1642Y1159D01*
X1638Y1159D01*
X1638Y1137D01*
X1642Y1137D01*
X1642Y1135D01*
X1644Y1135D01*
X1644Y1133D01*
X1646Y1133D01*
X1646Y1131D01*
X1648Y1131D01*
X1648Y1129D01*
X1650Y1129D01*
X1650Y1127D01*
X1652Y1127D01*
X1652Y1123D01*
X1654Y1123D01*
X1654Y1121D01*
X1656Y1121D01*
X1656Y1117D01*
X1658Y1117D01*
X1658Y1111D01*
X1660Y1111D01*
X1660Y1105D01*
X1662Y1105D01*
X1662Y1091D01*
X1660Y1091D01*
X1660Y1085D01*
X1658Y1085D01*
X1658Y1079D01*
X1656Y1079D01*
X1656Y1077D01*
X1654Y1077D01*
X1654Y1073D01*
X1652Y1073D01*
X1652Y1069D01*
X1650Y1069D01*
X1650Y1067D01*
X1648Y1067D01*
X1648Y1065D01*
X1646Y1065D01*
X1646Y1063D01*
X1644Y1063D01*
X1644Y1061D01*
X1642Y1061D01*
X1642Y1059D01*
X1638Y1059D01*
X1638Y1037D01*
X1642Y1037D01*
X1642Y1035D01*
X1644Y1035D01*
X1644Y1033D01*
X1646Y1033D01*
X1646Y1031D01*
X1648Y1031D01*
X1648Y1029D01*
X1650Y1029D01*
X1650Y1027D01*
X1652Y1027D01*
X1652Y1023D01*
X1654Y1023D01*
X1654Y1021D01*
X1656Y1021D01*
X1656Y1017D01*
X1658Y1017D01*
X1658Y1011D01*
X1660Y1011D01*
X1660Y1005D01*
X1662Y1005D01*
X1662Y991D01*
X1660Y991D01*
X1660Y985D01*
X1658Y985D01*
X1658Y979D01*
X1656Y979D01*
X1656Y977D01*
X1654Y977D01*
X1654Y973D01*
X1652Y973D01*
X1652Y969D01*
X1650Y969D01*
X1650Y967D01*
X1648Y967D01*
X1648Y965D01*
X1646Y965D01*
X1646Y963D01*
X1644Y963D01*
X1644Y961D01*
X1642Y961D01*
X1642Y959D01*
X1638Y959D01*
X1638Y937D01*
X1642Y937D01*
X1642Y935D01*
X1644Y935D01*
X1644Y933D01*
X1646Y933D01*
X1646Y931D01*
X1648Y931D01*
X1648Y929D01*
X1650Y929D01*
X1650Y927D01*
X1652Y927D01*
X1652Y923D01*
X1654Y923D01*
X1654Y921D01*
X1656Y921D01*
X1656Y917D01*
X1658Y917D01*
X1658Y911D01*
X1660Y911D01*
X1660Y905D01*
X1662Y905D01*
X1662Y891D01*
X1660Y891D01*
X1660Y885D01*
X1658Y885D01*
X1658Y879D01*
X1656Y879D01*
X1656Y877D01*
X1654Y877D01*
X1654Y873D01*
X1652Y873D01*
X1652Y869D01*
X1650Y869D01*
X1650Y867D01*
X1648Y867D01*
X1648Y865D01*
X1646Y865D01*
X1646Y863D01*
X1644Y863D01*
X1644Y861D01*
X1642Y861D01*
X1642Y859D01*
X1638Y859D01*
X1638Y837D01*
X1642Y837D01*
X1642Y835D01*
X1644Y835D01*
X1644Y833D01*
X1646Y833D01*
X1646Y831D01*
X1648Y831D01*
X1648Y829D01*
X1650Y829D01*
X1650Y827D01*
X1652Y827D01*
X1652Y823D01*
X1654Y823D01*
X1654Y821D01*
X1656Y821D01*
X1656Y817D01*
X1658Y817D01*
X1658Y811D01*
X1660Y811D01*
X1660Y805D01*
X1662Y805D01*
X1662Y791D01*
X1660Y791D01*
X1660Y785D01*
X1658Y785D01*
X1658Y779D01*
X1656Y779D01*
X1656Y777D01*
X1654Y777D01*
X1654Y773D01*
X1652Y773D01*
X1652Y769D01*
X1650Y769D01*
X1650Y767D01*
X1648Y767D01*
X1648Y765D01*
X1646Y765D01*
X1646Y763D01*
X1644Y763D01*
X1644Y761D01*
X1642Y761D01*
X1642Y759D01*
X1638Y759D01*
X1638Y737D01*
X1642Y737D01*
X1642Y735D01*
X1644Y735D01*
X1644Y733D01*
X1646Y733D01*
X1646Y731D01*
X1648Y731D01*
X1648Y729D01*
X1650Y729D01*
X1650Y727D01*
X1652Y727D01*
X1652Y723D01*
X1654Y723D01*
X1654Y721D01*
X1656Y721D01*
X1656Y717D01*
X1658Y717D01*
X1658Y711D01*
X1660Y711D01*
X1660Y705D01*
X1662Y705D01*
X1662Y691D01*
X1660Y691D01*
X1660Y685D01*
X1658Y685D01*
X1658Y679D01*
X1656Y679D01*
X1656Y677D01*
X1654Y677D01*
X1654Y673D01*
X1652Y673D01*
X1652Y669D01*
X1650Y669D01*
X1650Y667D01*
X1648Y667D01*
X1648Y665D01*
X1646Y665D01*
X1646Y663D01*
X1644Y663D01*
X1644Y661D01*
X1642Y661D01*
X1642Y659D01*
X1638Y659D01*
X1638Y637D01*
X1642Y637D01*
X1642Y635D01*
X1644Y635D01*
X1644Y633D01*
X1646Y633D01*
X1646Y631D01*
X1648Y631D01*
X1648Y629D01*
X1650Y629D01*
X1650Y627D01*
X1652Y627D01*
X1652Y623D01*
X1654Y623D01*
X1654Y621D01*
X1656Y621D01*
X1656Y617D01*
X1658Y617D01*
X1658Y611D01*
X1660Y611D01*
X1660Y605D01*
X1662Y605D01*
X1662Y591D01*
X1660Y591D01*
X1660Y585D01*
X1658Y585D01*
X1658Y579D01*
X1656Y579D01*
X1656Y577D01*
X1654Y577D01*
X1654Y573D01*
X1652Y573D01*
X1652Y569D01*
X1650Y569D01*
X1650Y567D01*
X1648Y567D01*
X1648Y565D01*
X1646Y565D01*
X1646Y563D01*
X1644Y563D01*
X1644Y561D01*
X1642Y561D01*
X1642Y559D01*
X1638Y559D01*
X1638Y537D01*
X1642Y537D01*
X1642Y535D01*
X1644Y535D01*
X1644Y533D01*
X1646Y533D01*
X1646Y531D01*
X1648Y531D01*
X1648Y529D01*
X1650Y529D01*
X1650Y527D01*
X1652Y527D01*
X1652Y523D01*
X1654Y523D01*
X1654Y521D01*
X1656Y521D01*
X1656Y517D01*
X1658Y517D01*
X1658Y511D01*
X1660Y511D01*
X1660Y505D01*
X1662Y505D01*
X1662Y491D01*
X1660Y491D01*
X1660Y485D01*
X1658Y485D01*
X1658Y479D01*
X1656Y479D01*
X1656Y477D01*
X1654Y477D01*
X1654Y473D01*
X1652Y473D01*
X1652Y469D01*
X1650Y469D01*
X1650Y467D01*
X1648Y467D01*
X1648Y465D01*
X1646Y465D01*
X1646Y463D01*
X1644Y463D01*
X1644Y461D01*
X1642Y461D01*
X1642Y459D01*
X1638Y459D01*
X1638Y437D01*
X1642Y437D01*
X1642Y435D01*
X1644Y435D01*
X1644Y433D01*
X1646Y433D01*
X1646Y431D01*
X1648Y431D01*
X1648Y429D01*
X1650Y429D01*
X1650Y427D01*
X1652Y427D01*
X1652Y423D01*
X1654Y423D01*
X1654Y421D01*
X1656Y421D01*
X1656Y417D01*
X1658Y417D01*
X1658Y411D01*
X1660Y411D01*
X1660Y405D01*
X1662Y405D01*
X1662Y391D01*
X1660Y391D01*
X1660Y385D01*
X1658Y385D01*
X1658Y379D01*
X1656Y379D01*
X1656Y377D01*
X1654Y377D01*
X1654Y373D01*
X1652Y373D01*
X1652Y369D01*
X1650Y369D01*
X1650Y367D01*
X1648Y367D01*
X1648Y365D01*
X1646Y365D01*
X1646Y363D01*
X1644Y363D01*
X1644Y361D01*
X1642Y361D01*
X1642Y359D01*
X1638Y359D01*
X1638Y337D01*
X1642Y337D01*
X1642Y335D01*
X1644Y335D01*
X1644Y333D01*
X1646Y333D01*
X1646Y331D01*
X1648Y331D01*
X1648Y329D01*
X1650Y329D01*
X1650Y327D01*
X1652Y327D01*
X1652Y323D01*
X1654Y323D01*
X1654Y321D01*
X1656Y321D01*
X1656Y317D01*
X1658Y317D01*
X1658Y311D01*
X1660Y311D01*
X1660Y305D01*
X1662Y305D01*
X1662Y291D01*
X1660Y291D01*
X1660Y285D01*
X1658Y285D01*
X1658Y279D01*
X1656Y279D01*
X1656Y277D01*
X1654Y277D01*
X1654Y273D01*
X1652Y273D01*
X1652Y269D01*
X1650Y269D01*
X1650Y267D01*
X1648Y267D01*
X1648Y265D01*
X1646Y265D01*
X1646Y263D01*
X1644Y263D01*
X1644Y261D01*
X1642Y261D01*
X1642Y259D01*
X1638Y259D01*
X1638Y237D01*
X1642Y237D01*
X1642Y235D01*
X1644Y235D01*
X1644Y233D01*
X1646Y233D01*
X1646Y231D01*
X1648Y231D01*
X1648Y229D01*
X1650Y229D01*
X1650Y227D01*
X1652Y227D01*
X1652Y223D01*
X1654Y223D01*
X1654Y221D01*
X1656Y221D01*
X1656Y217D01*
X1658Y217D01*
X1658Y211D01*
X1660Y211D01*
X1660Y205D01*
X1662Y205D01*
X1662Y191D01*
X1660Y191D01*
X1660Y185D01*
X1658Y185D01*
X1658Y179D01*
X1656Y179D01*
X1656Y177D01*
X1654Y177D01*
X1654Y173D01*
X1652Y173D01*
X1652Y169D01*
X1650Y169D01*
X1650Y167D01*
X1648Y167D01*
X1648Y165D01*
X1646Y165D01*
X1646Y163D01*
X1644Y163D01*
X1644Y161D01*
X1642Y161D01*
X1642Y159D01*
X1638Y159D01*
X1638Y157D01*
X1636Y157D01*
X1636Y155D01*
X1632Y155D01*
X1632Y153D01*
X1626Y153D01*
X1626Y151D01*
X1620Y151D01*
X1620Y149D01*
X2204Y149D01*
X2204Y151D01*
X2198Y151D01*
X2198Y153D01*
X2194Y153D01*
X2194Y155D01*
X2190Y155D01*
X2190Y157D01*
X2186Y157D01*
X2186Y159D01*
X2184Y159D01*
X2184Y161D01*
X2182Y161D01*
X2182Y163D01*
X2180Y163D01*
X2180Y165D01*
X2178Y165D01*
X2178Y167D01*
X2176Y167D01*
X2176Y169D01*
X2174Y169D01*
X2174Y171D01*
X2172Y171D01*
X2172Y175D01*
X2170Y175D01*
X2170Y179D01*
X2168Y179D01*
X2168Y183D01*
X2166Y183D01*
X2166Y189D01*
X2164Y189D01*
X2164Y207D01*
X2166Y207D01*
X2166Y213D01*
X2168Y213D01*
X2168Y217D01*
X2170Y217D01*
X2170Y221D01*
X2172Y221D01*
X2172Y225D01*
X2174Y225D01*
X2174Y227D01*
X2176Y227D01*
X2176Y229D01*
X2178Y229D01*
X2178Y231D01*
X2180Y231D01*
X2180Y233D01*
X2182Y233D01*
X2182Y235D01*
X2184Y235D01*
X2184Y237D01*
X2186Y237D01*
X2186Y259D01*
X2184Y259D01*
X2184Y261D01*
X2182Y261D01*
X2182Y263D01*
X2180Y263D01*
X2180Y265D01*
X2178Y265D01*
X2178Y267D01*
X2176Y267D01*
X2176Y269D01*
X2174Y269D01*
X2174Y271D01*
X2172Y271D01*
X2172Y275D01*
X2170Y275D01*
X2170Y279D01*
X2168Y279D01*
X2168Y283D01*
X2166Y283D01*
X2166Y289D01*
X2164Y289D01*
X2164Y307D01*
X2166Y307D01*
X2166Y313D01*
X2168Y313D01*
X2168Y317D01*
X2170Y317D01*
X2170Y321D01*
X2172Y321D01*
X2172Y325D01*
X2174Y325D01*
X2174Y327D01*
X2176Y327D01*
X2176Y329D01*
X2178Y329D01*
X2178Y331D01*
X2180Y331D01*
X2180Y333D01*
X2182Y333D01*
X2182Y335D01*
X2184Y335D01*
X2184Y337D01*
X2186Y337D01*
X2186Y359D01*
X2184Y359D01*
X2184Y361D01*
X2182Y361D01*
X2182Y363D01*
X2180Y363D01*
X2180Y365D01*
X2178Y365D01*
X2178Y367D01*
X2176Y367D01*
X2176Y369D01*
X2174Y369D01*
X2174Y371D01*
X2172Y371D01*
X2172Y375D01*
X2170Y375D01*
X2170Y379D01*
X2168Y379D01*
X2168Y383D01*
X2166Y383D01*
X2166Y389D01*
X2164Y389D01*
X2164Y407D01*
X2166Y407D01*
X2166Y413D01*
X2168Y413D01*
X2168Y417D01*
X2170Y417D01*
X2170Y421D01*
X2172Y421D01*
X2172Y425D01*
X2174Y425D01*
X2174Y427D01*
X2176Y427D01*
X2176Y429D01*
X2178Y429D01*
X2178Y431D01*
X2180Y431D01*
X2180Y433D01*
X2182Y433D01*
X2182Y435D01*
X2184Y435D01*
X2184Y437D01*
X2186Y437D01*
X2186Y459D01*
X2184Y459D01*
X2184Y461D01*
X2182Y461D01*
X2182Y463D01*
X2180Y463D01*
X2180Y465D01*
X2178Y465D01*
X2178Y467D01*
X2176Y467D01*
X2176Y469D01*
X2174Y469D01*
X2174Y471D01*
X2172Y471D01*
X2172Y475D01*
X2170Y475D01*
X2170Y479D01*
X2168Y479D01*
X2168Y483D01*
X2166Y483D01*
X2166Y489D01*
X2164Y489D01*
X2164Y507D01*
X2166Y507D01*
X2166Y513D01*
X2168Y513D01*
X2168Y517D01*
X2170Y517D01*
X2170Y521D01*
X2172Y521D01*
X2172Y525D01*
X2174Y525D01*
X2174Y527D01*
X2176Y527D01*
X2176Y529D01*
X2178Y529D01*
X2178Y531D01*
X2180Y531D01*
X2180Y533D01*
X2182Y533D01*
X2182Y535D01*
X2184Y535D01*
X2184Y537D01*
X2186Y537D01*
X2186Y559D01*
X2184Y559D01*
X2184Y561D01*
X2182Y561D01*
X2182Y563D01*
X2180Y563D01*
X2180Y565D01*
X2178Y565D01*
X2178Y567D01*
X2176Y567D01*
X2176Y569D01*
X2174Y569D01*
X2174Y571D01*
X2172Y571D01*
X2172Y575D01*
X2170Y575D01*
X2170Y579D01*
X2168Y579D01*
X2168Y583D01*
X2166Y583D01*
X2166Y589D01*
X2164Y589D01*
X2164Y607D01*
X2166Y607D01*
X2166Y613D01*
X2168Y613D01*
X2168Y617D01*
X2170Y617D01*
X2170Y621D01*
X2172Y621D01*
X2172Y625D01*
X2174Y625D01*
X2174Y627D01*
X2176Y627D01*
X2176Y629D01*
X2178Y629D01*
X2178Y631D01*
X2180Y631D01*
X2180Y633D01*
X2182Y633D01*
X2182Y635D01*
X2184Y635D01*
X2184Y637D01*
X2186Y637D01*
X2186Y659D01*
X2184Y659D01*
X2184Y661D01*
X2182Y661D01*
X2182Y663D01*
X2180Y663D01*
X2180Y665D01*
X2178Y665D01*
X2178Y667D01*
X2176Y667D01*
X2176Y669D01*
X2174Y669D01*
X2174Y671D01*
X2172Y671D01*
X2172Y675D01*
X2170Y675D01*
X2170Y679D01*
X2168Y679D01*
X2168Y683D01*
X2166Y683D01*
X2166Y689D01*
X2164Y689D01*
X2164Y707D01*
X2166Y707D01*
X2166Y713D01*
X2168Y713D01*
X2168Y717D01*
X2170Y717D01*
X2170Y721D01*
X2172Y721D01*
X2172Y725D01*
X2174Y725D01*
X2174Y727D01*
X2176Y727D01*
X2176Y729D01*
X2178Y729D01*
X2178Y731D01*
X2180Y731D01*
X2180Y733D01*
X2182Y733D01*
X2182Y735D01*
X2184Y735D01*
X2184Y737D01*
X2186Y737D01*
X2186Y759D01*
X2184Y759D01*
X2184Y761D01*
X2182Y761D01*
X2182Y763D01*
X2180Y763D01*
X2180Y765D01*
X2178Y765D01*
X2178Y767D01*
X2176Y767D01*
X2176Y769D01*
X2174Y769D01*
X2174Y771D01*
X2172Y771D01*
X2172Y775D01*
X2170Y775D01*
X2170Y779D01*
X2168Y779D01*
X2168Y783D01*
X2166Y783D01*
X2166Y789D01*
X2164Y789D01*
X2164Y807D01*
X2166Y807D01*
X2166Y813D01*
X2168Y813D01*
X2168Y817D01*
X2170Y817D01*
X2170Y821D01*
X2172Y821D01*
X2172Y825D01*
X2174Y825D01*
X2174Y827D01*
X2176Y827D01*
X2176Y829D01*
X2178Y829D01*
X2178Y831D01*
X2180Y831D01*
X2180Y833D01*
X2182Y833D01*
X2182Y835D01*
X2184Y835D01*
X2184Y837D01*
X2186Y837D01*
X2186Y859D01*
X2184Y859D01*
X2184Y861D01*
X2182Y861D01*
X2182Y863D01*
X2180Y863D01*
X2180Y865D01*
X2178Y865D01*
X2178Y867D01*
X2176Y867D01*
X2176Y869D01*
X2174Y869D01*
X2174Y871D01*
X2172Y871D01*
X2172Y875D01*
X2170Y875D01*
X2170Y879D01*
X2168Y879D01*
X2168Y883D01*
X2166Y883D01*
X2166Y889D01*
X2164Y889D01*
X2164Y907D01*
X2166Y907D01*
X2166Y913D01*
X2168Y913D01*
X2168Y917D01*
X2170Y917D01*
X2170Y921D01*
X2172Y921D01*
X2172Y925D01*
X2174Y925D01*
X2174Y927D01*
X2176Y927D01*
X2176Y929D01*
X2178Y929D01*
X2178Y931D01*
X2180Y931D01*
X2180Y933D01*
X2182Y933D01*
X2182Y935D01*
X2184Y935D01*
X2184Y937D01*
X2186Y937D01*
X2186Y959D01*
X2184Y959D01*
X2184Y961D01*
X2182Y961D01*
X2182Y963D01*
X2180Y963D01*
X2180Y965D01*
X2178Y965D01*
X2178Y967D01*
X2176Y967D01*
X2176Y969D01*
X2174Y969D01*
X2174Y971D01*
X2172Y971D01*
X2172Y975D01*
X2170Y975D01*
X2170Y979D01*
X2168Y979D01*
X2168Y983D01*
X2166Y983D01*
X2166Y989D01*
X2164Y989D01*
X2164Y1007D01*
X2166Y1007D01*
X2166Y1013D01*
X2168Y1013D01*
X2168Y1017D01*
X2170Y1017D01*
X2170Y1021D01*
X2172Y1021D01*
X2172Y1025D01*
X2174Y1025D01*
X2174Y1027D01*
X2176Y1027D01*
X2176Y1029D01*
X2178Y1029D01*
X2178Y1031D01*
X2180Y1031D01*
X2180Y1033D01*
X2182Y1033D01*
X2182Y1035D01*
X2184Y1035D01*
X2184Y1037D01*
X2186Y1037D01*
X2186Y1059D01*
X2184Y1059D01*
X2184Y1061D01*
X2182Y1061D01*
X2182Y1063D01*
X2180Y1063D01*
X2180Y1065D01*
X2178Y1065D01*
X2178Y1067D01*
X2176Y1067D01*
X2176Y1069D01*
X2174Y1069D01*
X2174Y1071D01*
X2172Y1071D01*
X2172Y1075D01*
X2170Y1075D01*
X2170Y1079D01*
X2168Y1079D01*
X2168Y1083D01*
X2166Y1083D01*
X2166Y1089D01*
X2164Y1089D01*
X2164Y1107D01*
X2166Y1107D01*
X2166Y1113D01*
X2168Y1113D01*
X2168Y1117D01*
X2170Y1117D01*
X2170Y1121D01*
X2172Y1121D01*
X2172Y1125D01*
X2174Y1125D01*
X2174Y1127D01*
X2176Y1127D01*
X2176Y1129D01*
X2178Y1129D01*
X2178Y1131D01*
X2180Y1131D01*
X2180Y1133D01*
X2182Y1133D01*
X2182Y1135D01*
X2184Y1135D01*
X2184Y1137D01*
X2186Y1137D01*
X2186Y1159D01*
X2184Y1159D01*
X2184Y1161D01*
X2182Y1161D01*
X2182Y1163D01*
X2180Y1163D01*
X2180Y1165D01*
X2178Y1165D01*
X2178Y1167D01*
X2176Y1167D01*
X2176Y1169D01*
X2174Y1169D01*
X2174Y1171D01*
X2172Y1171D01*
X2172Y1175D01*
X2170Y1175D01*
X2170Y1179D01*
X2168Y1179D01*
X2168Y1183D01*
X2166Y1183D01*
X2166Y1189D01*
X2164Y1189D01*
X2164Y1207D01*
X2166Y1207D01*
X2166Y1213D01*
X2168Y1213D01*
X2168Y1217D01*
X2170Y1217D01*
X2170Y1221D01*
X2172Y1221D01*
X2172Y1225D01*
X2174Y1225D01*
X2174Y1227D01*
X2176Y1227D01*
X2176Y1229D01*
X2178Y1229D01*
X2178Y1231D01*
X2180Y1231D01*
X2180Y1233D01*
X2182Y1233D01*
X2182Y1235D01*
X2184Y1235D01*
X2184Y1237D01*
X2186Y1237D01*
X2186Y1259D01*
X2184Y1259D01*
X2184Y1261D01*
X2182Y1261D01*
X2182Y1263D01*
X2180Y1263D01*
X2180Y1265D01*
X2178Y1265D01*
X2178Y1267D01*
X2176Y1267D01*
X2176Y1269D01*
X2174Y1269D01*
X2174Y1271D01*
X2172Y1271D01*
X2172Y1275D01*
X2170Y1275D01*
X2170Y1279D01*
X2168Y1279D01*
X2168Y1283D01*
X2166Y1283D01*
X2166Y1289D01*
X2164Y1289D01*
X2164Y1307D01*
X2166Y1307D01*
X2166Y1313D01*
X2168Y1313D01*
X2168Y1317D01*
X2170Y1317D01*
X2170Y1321D01*
X2172Y1321D01*
X2172Y1325D01*
X2174Y1325D01*
X2174Y1327D01*
X2176Y1327D01*
X2176Y1329D01*
X2178Y1329D01*
X2178Y1331D01*
X2180Y1331D01*
X2180Y1333D01*
X2182Y1333D01*
X2182Y1335D01*
X2184Y1335D01*
X2184Y1337D01*
X2186Y1337D01*
X2186Y1359D01*
X2184Y1359D01*
X2184Y1361D01*
X2182Y1361D01*
X2182Y1363D01*
X2180Y1363D01*
X2180Y1365D01*
X2178Y1365D01*
X2178Y1367D01*
X2176Y1367D01*
X2176Y1369D01*
X2174Y1369D01*
X2174Y1371D01*
X2172Y1371D01*
X2172Y1375D01*
X2170Y1375D01*
X2170Y1379D01*
X2168Y1379D01*
X2168Y1383D01*
X2166Y1383D01*
X2166Y1389D01*
X2164Y1389D01*
X2164Y1407D01*
X2166Y1407D01*
X2166Y1413D01*
X2168Y1413D01*
X2168Y1417D01*
X2170Y1417D01*
X2170Y1421D01*
X2172Y1421D01*
X2172Y1425D01*
X2174Y1425D01*
X2174Y1427D01*
X2176Y1427D01*
X2176Y1429D01*
X2178Y1429D01*
X2178Y1431D01*
X2180Y1431D01*
X2180Y1433D01*
X2182Y1433D01*
X2182Y1435D01*
X2184Y1435D01*
X2184Y1437D01*
X2186Y1437D01*
X2186Y1459D01*
X2184Y1459D01*
X2184Y1461D01*
X2182Y1461D01*
X2182Y1463D01*
X2180Y1463D01*
X2180Y1465D01*
X2178Y1465D01*
X2178Y1467D01*
X2176Y1467D01*
X2176Y1469D01*
X2174Y1469D01*
X2174Y1471D01*
X2172Y1471D01*
X2172Y1475D01*
X2170Y1475D01*
X2170Y1479D01*
X2168Y1479D01*
X2168Y1483D01*
X2166Y1483D01*
X2166Y1489D01*
X2164Y1489D01*
X2164Y1507D01*
X2166Y1507D01*
X2166Y1513D01*
X2168Y1513D01*
X2168Y1517D01*
X2170Y1517D01*
X2170Y1521D01*
X2172Y1521D01*
X2172Y1525D01*
X2174Y1525D01*
X2174Y1527D01*
X2176Y1527D01*
X2176Y1529D01*
X2178Y1529D01*
X2178Y1531D01*
X2180Y1531D01*
X2180Y1533D01*
X2182Y1533D01*
X2182Y1535D01*
X2184Y1535D01*
X2184Y1537D01*
X2186Y1537D01*
X2186Y1559D01*
X2184Y1559D01*
X2184Y1561D01*
X2182Y1561D01*
X2182Y1563D01*
X2180Y1563D01*
X2180Y1565D01*
X2178Y1565D01*
X2178Y1567D01*
X2176Y1567D01*
X2176Y1569D01*
X2174Y1569D01*
X2174Y1571D01*
X2172Y1571D01*
X2172Y1575D01*
X2170Y1575D01*
X2170Y1579D01*
X2168Y1579D01*
X2168Y1583D01*
X2166Y1583D01*
X2166Y1589D01*
X2164Y1589D01*
X2164Y1607D01*
X2166Y1607D01*
X2166Y1613D01*
X2168Y1613D01*
X2168Y1617D01*
X2170Y1617D01*
X2170Y1621D01*
X2172Y1621D01*
X2172Y1625D01*
X2174Y1625D01*
X2174Y1627D01*
X2176Y1627D01*
X2176Y1629D01*
X2178Y1629D01*
X2178Y1631D01*
X2180Y1631D01*
X2180Y1633D01*
X2182Y1633D01*
X2182Y1635D01*
X2184Y1635D01*
X2184Y1637D01*
X2186Y1637D01*
X2186Y1639D01*
X2190Y1639D01*
X2190Y1641D01*
X2194Y1641D01*
X2194Y1643D01*
X2198Y1643D01*
X2198Y1645D01*
X2204Y1645D01*
X2204Y1647D01*
X1622Y1647D01*
G37*
D02*
G36*
X354Y1575D02*
X354Y1573D01*
X1572Y1573D01*
X1572Y1575D01*
X354Y1575D01*
G37*
D02*
G36*
X354Y1575D02*
X354Y1573D01*
X1572Y1573D01*
X1572Y1575D01*
X354Y1575D01*
G37*
D02*
G36*
X354Y1573D02*
X354Y1571D01*
X356Y1571D01*
X356Y1569D01*
X358Y1569D01*
X358Y1563D01*
X360Y1563D01*
X360Y1557D01*
X362Y1557D01*
X362Y1539D01*
X360Y1539D01*
X360Y1533D01*
X358Y1533D01*
X358Y1529D01*
X356Y1529D01*
X356Y1525D01*
X354Y1525D01*
X354Y1521D01*
X352Y1521D01*
X352Y1519D01*
X350Y1519D01*
X350Y1517D01*
X348Y1517D01*
X348Y1497D01*
X362Y1497D01*
X362Y1399D01*
X1564Y1399D01*
X1564Y1407D01*
X1566Y1407D01*
X1566Y1413D01*
X1568Y1413D01*
X1568Y1417D01*
X1570Y1417D01*
X1570Y1421D01*
X1572Y1421D01*
X1572Y1425D01*
X1574Y1425D01*
X1574Y1427D01*
X1576Y1427D01*
X1576Y1429D01*
X1578Y1429D01*
X1578Y1431D01*
X1580Y1431D01*
X1580Y1433D01*
X1582Y1433D01*
X1582Y1435D01*
X1584Y1435D01*
X1584Y1437D01*
X1586Y1437D01*
X1586Y1459D01*
X1584Y1459D01*
X1584Y1461D01*
X1582Y1461D01*
X1582Y1463D01*
X1580Y1463D01*
X1580Y1465D01*
X1578Y1465D01*
X1578Y1467D01*
X1576Y1467D01*
X1576Y1469D01*
X1574Y1469D01*
X1574Y1471D01*
X1572Y1471D01*
X1572Y1475D01*
X1570Y1475D01*
X1570Y1479D01*
X1568Y1479D01*
X1568Y1483D01*
X1566Y1483D01*
X1566Y1489D01*
X1564Y1489D01*
X1564Y1507D01*
X1566Y1507D01*
X1566Y1513D01*
X1568Y1513D01*
X1568Y1517D01*
X1570Y1517D01*
X1570Y1521D01*
X1572Y1521D01*
X1572Y1525D01*
X1574Y1525D01*
X1574Y1527D01*
X1576Y1527D01*
X1576Y1529D01*
X1578Y1529D01*
X1578Y1531D01*
X1580Y1531D01*
X1580Y1533D01*
X1582Y1533D01*
X1582Y1535D01*
X1584Y1535D01*
X1584Y1537D01*
X1586Y1537D01*
X1586Y1559D01*
X1584Y1559D01*
X1584Y1561D01*
X1582Y1561D01*
X1582Y1563D01*
X1580Y1563D01*
X1580Y1565D01*
X1578Y1565D01*
X1578Y1567D01*
X1576Y1567D01*
X1576Y1569D01*
X1574Y1569D01*
X1574Y1571D01*
X1572Y1571D01*
X1572Y1573D01*
X354Y1573D01*
G37*
D02*
G36*
X234Y1425D02*
X234Y1399D01*
X262Y1399D01*
X262Y1425D01*
X234Y1425D01*
G37*
D02*
G36*
X234Y1399D02*
X234Y1397D01*
X1564Y1397D01*
X1564Y1399D01*
X234Y1399D01*
G37*
D02*
G36*
X234Y1399D02*
X234Y1397D01*
X1564Y1397D01*
X1564Y1399D01*
X234Y1399D01*
G37*
D02*
G36*
X234Y1397D02*
X234Y1247D01*
X324Y1247D01*
X324Y1245D01*
X330Y1245D01*
X330Y1243D01*
X334Y1243D01*
X334Y1241D01*
X336Y1241D01*
X336Y1239D01*
X340Y1239D01*
X340Y1237D01*
X342Y1237D01*
X342Y1235D01*
X344Y1235D01*
X344Y1233D01*
X346Y1233D01*
X346Y1231D01*
X348Y1231D01*
X348Y1229D01*
X350Y1229D01*
X350Y1227D01*
X352Y1227D01*
X352Y1225D01*
X354Y1225D01*
X354Y1221D01*
X356Y1221D01*
X356Y1219D01*
X358Y1219D01*
X358Y1213D01*
X360Y1213D01*
X360Y1207D01*
X362Y1207D01*
X362Y1189D01*
X360Y1189D01*
X360Y1183D01*
X358Y1183D01*
X358Y1179D01*
X356Y1179D01*
X356Y1175D01*
X354Y1175D01*
X354Y1171D01*
X352Y1171D01*
X352Y1169D01*
X350Y1169D01*
X350Y1167D01*
X348Y1167D01*
X348Y1165D01*
X346Y1165D01*
X346Y1163D01*
X344Y1163D01*
X344Y1161D01*
X342Y1161D01*
X342Y1159D01*
X340Y1159D01*
X340Y1137D01*
X342Y1137D01*
X342Y1135D01*
X344Y1135D01*
X344Y1133D01*
X346Y1133D01*
X346Y1131D01*
X348Y1131D01*
X348Y1129D01*
X350Y1129D01*
X350Y1127D01*
X352Y1127D01*
X352Y1125D01*
X354Y1125D01*
X354Y1121D01*
X356Y1121D01*
X356Y1119D01*
X358Y1119D01*
X358Y1113D01*
X360Y1113D01*
X360Y1107D01*
X362Y1107D01*
X362Y1089D01*
X360Y1089D01*
X360Y1083D01*
X358Y1083D01*
X358Y1079D01*
X356Y1079D01*
X356Y1075D01*
X354Y1075D01*
X354Y1071D01*
X352Y1071D01*
X352Y1069D01*
X350Y1069D01*
X350Y1067D01*
X348Y1067D01*
X348Y1047D01*
X362Y1047D01*
X362Y949D01*
X590Y949D01*
X590Y999D01*
X562Y999D01*
X562Y1097D01*
X590Y1097D01*
X590Y1299D01*
X562Y1299D01*
X562Y1397D01*
X234Y1397D01*
G37*
D02*
G36*
X662Y1397D02*
X662Y1385D01*
X684Y1385D01*
X684Y1387D01*
X686Y1387D01*
X686Y1389D01*
X688Y1389D01*
X688Y1391D01*
X692Y1391D01*
X692Y1393D01*
X696Y1393D01*
X696Y1395D01*
X702Y1395D01*
X702Y1397D01*
X662Y1397D01*
G37*
D02*
G36*
X724Y1397D02*
X724Y1395D01*
X730Y1395D01*
X730Y1393D01*
X734Y1393D01*
X734Y1391D01*
X736Y1391D01*
X736Y1389D01*
X740Y1389D01*
X740Y1387D01*
X742Y1387D01*
X742Y1385D01*
X744Y1385D01*
X744Y1383D01*
X746Y1383D01*
X746Y1381D01*
X748Y1381D01*
X748Y1379D01*
X750Y1379D01*
X750Y1377D01*
X752Y1377D01*
X752Y1375D01*
X774Y1375D01*
X774Y1377D01*
X776Y1377D01*
X776Y1381D01*
X778Y1381D01*
X778Y1383D01*
X780Y1383D01*
X780Y1385D01*
X784Y1385D01*
X784Y1387D01*
X786Y1387D01*
X786Y1389D01*
X788Y1389D01*
X788Y1391D01*
X792Y1391D01*
X792Y1393D01*
X796Y1393D01*
X796Y1395D01*
X802Y1395D01*
X802Y1397D01*
X724Y1397D01*
G37*
D02*
G36*
X824Y1397D02*
X824Y1395D01*
X830Y1395D01*
X830Y1393D01*
X834Y1393D01*
X834Y1391D01*
X836Y1391D01*
X836Y1389D01*
X840Y1389D01*
X840Y1387D01*
X842Y1387D01*
X842Y1385D01*
X844Y1385D01*
X844Y1383D01*
X846Y1383D01*
X846Y1381D01*
X848Y1381D01*
X848Y1379D01*
X850Y1379D01*
X850Y1377D01*
X852Y1377D01*
X852Y1375D01*
X854Y1375D01*
X854Y1371D01*
X856Y1371D01*
X856Y1369D01*
X858Y1369D01*
X858Y1363D01*
X860Y1363D01*
X860Y1357D01*
X862Y1357D01*
X862Y1339D01*
X860Y1339D01*
X860Y1333D01*
X858Y1333D01*
X858Y1329D01*
X856Y1329D01*
X856Y1325D01*
X854Y1325D01*
X854Y1321D01*
X852Y1321D01*
X852Y1319D01*
X850Y1319D01*
X850Y1317D01*
X848Y1317D01*
X848Y1315D01*
X846Y1315D01*
X846Y1313D01*
X844Y1313D01*
X844Y1311D01*
X842Y1311D01*
X842Y1309D01*
X840Y1309D01*
X840Y1307D01*
X836Y1307D01*
X836Y1305D01*
X834Y1305D01*
X834Y1303D01*
X830Y1303D01*
X830Y1301D01*
X824Y1301D01*
X824Y1299D01*
X1062Y1299D01*
X1062Y1397D01*
X824Y1397D01*
G37*
D02*
G36*
X1162Y1397D02*
X1162Y1385D01*
X1184Y1385D01*
X1184Y1387D01*
X1186Y1387D01*
X1186Y1389D01*
X1188Y1389D01*
X1188Y1391D01*
X1192Y1391D01*
X1192Y1393D01*
X1196Y1393D01*
X1196Y1395D01*
X1202Y1395D01*
X1202Y1397D01*
X1162Y1397D01*
G37*
D02*
G36*
X1224Y1397D02*
X1224Y1395D01*
X1230Y1395D01*
X1230Y1393D01*
X1234Y1393D01*
X1234Y1391D01*
X1236Y1391D01*
X1236Y1389D01*
X1240Y1389D01*
X1240Y1387D01*
X1242Y1387D01*
X1242Y1385D01*
X1244Y1385D01*
X1244Y1383D01*
X1246Y1383D01*
X1246Y1381D01*
X1248Y1381D01*
X1248Y1379D01*
X1250Y1379D01*
X1250Y1377D01*
X1252Y1377D01*
X1252Y1375D01*
X1274Y1375D01*
X1274Y1377D01*
X1276Y1377D01*
X1276Y1381D01*
X1278Y1381D01*
X1278Y1383D01*
X1280Y1383D01*
X1280Y1385D01*
X1284Y1385D01*
X1284Y1387D01*
X1286Y1387D01*
X1286Y1389D01*
X1288Y1389D01*
X1288Y1391D01*
X1292Y1391D01*
X1292Y1393D01*
X1296Y1393D01*
X1296Y1395D01*
X1302Y1395D01*
X1302Y1397D01*
X1224Y1397D01*
G37*
D02*
G36*
X1324Y1397D02*
X1324Y1395D01*
X1330Y1395D01*
X1330Y1393D01*
X1334Y1393D01*
X1334Y1391D01*
X1336Y1391D01*
X1336Y1389D01*
X1340Y1389D01*
X1340Y1387D01*
X1342Y1387D01*
X1342Y1385D01*
X1344Y1385D01*
X1344Y1383D01*
X1346Y1383D01*
X1346Y1381D01*
X1348Y1381D01*
X1348Y1379D01*
X1350Y1379D01*
X1350Y1377D01*
X1352Y1377D01*
X1352Y1375D01*
X1354Y1375D01*
X1354Y1371D01*
X1356Y1371D01*
X1356Y1367D01*
X1358Y1367D01*
X1358Y1363D01*
X1360Y1363D01*
X1360Y1357D01*
X1362Y1357D01*
X1362Y1339D01*
X1360Y1339D01*
X1360Y1333D01*
X1358Y1333D01*
X1358Y1329D01*
X1356Y1329D01*
X1356Y1325D01*
X1354Y1325D01*
X1354Y1321D01*
X1352Y1321D01*
X1352Y1319D01*
X1350Y1319D01*
X1350Y1317D01*
X1348Y1317D01*
X1348Y1315D01*
X1346Y1315D01*
X1346Y1313D01*
X1344Y1313D01*
X1344Y1311D01*
X1342Y1311D01*
X1342Y1309D01*
X1340Y1309D01*
X1340Y1307D01*
X1336Y1307D01*
X1336Y1305D01*
X1334Y1305D01*
X1334Y1303D01*
X1330Y1303D01*
X1330Y1301D01*
X1324Y1301D01*
X1324Y1299D01*
X1564Y1299D01*
X1564Y1307D01*
X1566Y1307D01*
X1566Y1313D01*
X1568Y1313D01*
X1568Y1317D01*
X1570Y1317D01*
X1570Y1321D01*
X1572Y1321D01*
X1572Y1325D01*
X1574Y1325D01*
X1574Y1327D01*
X1576Y1327D01*
X1576Y1329D01*
X1578Y1329D01*
X1578Y1331D01*
X1580Y1331D01*
X1580Y1333D01*
X1582Y1333D01*
X1582Y1335D01*
X1584Y1335D01*
X1584Y1337D01*
X1586Y1337D01*
X1586Y1359D01*
X1584Y1359D01*
X1584Y1361D01*
X1582Y1361D01*
X1582Y1363D01*
X1580Y1363D01*
X1580Y1365D01*
X1578Y1365D01*
X1578Y1367D01*
X1576Y1367D01*
X1576Y1369D01*
X1574Y1369D01*
X1574Y1371D01*
X1572Y1371D01*
X1572Y1375D01*
X1570Y1375D01*
X1570Y1379D01*
X1568Y1379D01*
X1568Y1383D01*
X1566Y1383D01*
X1566Y1389D01*
X1564Y1389D01*
X1564Y1397D01*
X1324Y1397D01*
G37*
D02*
G36*
X752Y1321D02*
X752Y1319D01*
X750Y1319D01*
X750Y1317D01*
X748Y1317D01*
X748Y1315D01*
X746Y1315D01*
X746Y1313D01*
X744Y1313D01*
X744Y1311D01*
X742Y1311D01*
X742Y1309D01*
X740Y1309D01*
X740Y1307D01*
X736Y1307D01*
X736Y1305D01*
X734Y1305D01*
X734Y1303D01*
X730Y1303D01*
X730Y1301D01*
X724Y1301D01*
X724Y1299D01*
X802Y1299D01*
X802Y1301D01*
X796Y1301D01*
X796Y1303D01*
X792Y1303D01*
X792Y1305D01*
X788Y1305D01*
X788Y1307D01*
X786Y1307D01*
X786Y1309D01*
X784Y1309D01*
X784Y1311D01*
X780Y1311D01*
X780Y1313D01*
X778Y1313D01*
X778Y1315D01*
X776Y1315D01*
X776Y1319D01*
X774Y1319D01*
X774Y1321D01*
X752Y1321D01*
G37*
D02*
G36*
X1252Y1321D02*
X1252Y1319D01*
X1250Y1319D01*
X1250Y1317D01*
X1248Y1317D01*
X1248Y1315D01*
X1246Y1315D01*
X1246Y1313D01*
X1244Y1313D01*
X1244Y1311D01*
X1242Y1311D01*
X1242Y1309D01*
X1240Y1309D01*
X1240Y1307D01*
X1236Y1307D01*
X1236Y1305D01*
X1234Y1305D01*
X1234Y1303D01*
X1230Y1303D01*
X1230Y1301D01*
X1224Y1301D01*
X1224Y1299D01*
X1302Y1299D01*
X1302Y1301D01*
X1296Y1301D01*
X1296Y1303D01*
X1292Y1303D01*
X1292Y1305D01*
X1288Y1305D01*
X1288Y1307D01*
X1286Y1307D01*
X1286Y1309D01*
X1284Y1309D01*
X1284Y1311D01*
X1280Y1311D01*
X1280Y1313D01*
X1278Y1313D01*
X1278Y1315D01*
X1276Y1315D01*
X1276Y1319D01*
X1274Y1319D01*
X1274Y1321D01*
X1252Y1321D01*
G37*
D02*
G36*
X662Y1311D02*
X662Y1299D01*
X702Y1299D01*
X702Y1301D01*
X696Y1301D01*
X696Y1303D01*
X692Y1303D01*
X692Y1305D01*
X688Y1305D01*
X688Y1307D01*
X686Y1307D01*
X686Y1309D01*
X684Y1309D01*
X684Y1311D01*
X662Y1311D01*
G37*
D02*
G36*
X1162Y1311D02*
X1162Y1299D01*
X1202Y1299D01*
X1202Y1301D01*
X1196Y1301D01*
X1196Y1303D01*
X1192Y1303D01*
X1192Y1305D01*
X1188Y1305D01*
X1188Y1307D01*
X1186Y1307D01*
X1186Y1309D01*
X1184Y1309D01*
X1184Y1311D01*
X1162Y1311D01*
G37*
D02*
G36*
X634Y1299D02*
X634Y1297D01*
X1090Y1297D01*
X1090Y1299D01*
X634Y1299D01*
G37*
D02*
G36*
X634Y1299D02*
X634Y1297D01*
X1090Y1297D01*
X1090Y1299D01*
X634Y1299D01*
G37*
D02*
G36*
X634Y1299D02*
X634Y1297D01*
X1090Y1297D01*
X1090Y1299D01*
X634Y1299D01*
G37*
D02*
G36*
X1134Y1299D02*
X1134Y1297D01*
X1564Y1297D01*
X1564Y1299D01*
X1134Y1299D01*
G37*
D02*
G36*
X1134Y1299D02*
X1134Y1297D01*
X1564Y1297D01*
X1564Y1299D01*
X1134Y1299D01*
G37*
D02*
G36*
X1134Y1299D02*
X1134Y1297D01*
X1564Y1297D01*
X1564Y1299D01*
X1134Y1299D01*
G37*
D02*
G36*
X634Y1297D02*
X634Y1097D01*
X824Y1097D01*
X824Y1095D01*
X830Y1095D01*
X830Y1093D01*
X834Y1093D01*
X834Y1091D01*
X836Y1091D01*
X836Y1089D01*
X840Y1089D01*
X840Y1087D01*
X842Y1087D01*
X842Y1085D01*
X844Y1085D01*
X844Y1083D01*
X846Y1083D01*
X846Y1081D01*
X848Y1081D01*
X848Y1079D01*
X850Y1079D01*
X850Y1077D01*
X852Y1077D01*
X852Y1075D01*
X854Y1075D01*
X854Y1071D01*
X856Y1071D01*
X856Y1069D01*
X858Y1069D01*
X858Y1063D01*
X860Y1063D01*
X860Y1057D01*
X862Y1057D01*
X862Y1039D01*
X860Y1039D01*
X860Y1033D01*
X858Y1033D01*
X858Y1029D01*
X856Y1029D01*
X856Y1025D01*
X854Y1025D01*
X854Y1021D01*
X852Y1021D01*
X852Y1019D01*
X850Y1019D01*
X850Y1017D01*
X848Y1017D01*
X848Y1015D01*
X846Y1015D01*
X846Y1013D01*
X844Y1013D01*
X844Y1011D01*
X842Y1011D01*
X842Y1009D01*
X840Y1009D01*
X840Y1007D01*
X836Y1007D01*
X836Y1005D01*
X834Y1005D01*
X834Y1003D01*
X830Y1003D01*
X830Y1001D01*
X824Y1001D01*
X824Y999D01*
X1062Y999D01*
X1062Y1097D01*
X1090Y1097D01*
X1090Y1297D01*
X634Y1297D01*
G37*
D02*
G36*
X1134Y1297D02*
X1134Y1097D01*
X1324Y1097D01*
X1324Y1095D01*
X1330Y1095D01*
X1330Y1093D01*
X1334Y1093D01*
X1334Y1091D01*
X1336Y1091D01*
X1336Y1089D01*
X1340Y1089D01*
X1340Y1087D01*
X1342Y1087D01*
X1342Y1085D01*
X1344Y1085D01*
X1344Y1083D01*
X1346Y1083D01*
X1346Y1081D01*
X1348Y1081D01*
X1348Y1079D01*
X1350Y1079D01*
X1350Y1077D01*
X1352Y1077D01*
X1352Y1075D01*
X1354Y1075D01*
X1354Y1071D01*
X1356Y1071D01*
X1356Y1067D01*
X1358Y1067D01*
X1358Y1063D01*
X1360Y1063D01*
X1360Y1057D01*
X1362Y1057D01*
X1362Y1039D01*
X1360Y1039D01*
X1360Y1033D01*
X1358Y1033D01*
X1358Y1029D01*
X1356Y1029D01*
X1356Y1025D01*
X1354Y1025D01*
X1354Y1021D01*
X1352Y1021D01*
X1352Y1019D01*
X1350Y1019D01*
X1350Y1017D01*
X1348Y1017D01*
X1348Y1015D01*
X1346Y1015D01*
X1346Y1013D01*
X1344Y1013D01*
X1344Y1011D01*
X1342Y1011D01*
X1342Y1009D01*
X1340Y1009D01*
X1340Y1007D01*
X1336Y1007D01*
X1336Y1005D01*
X1334Y1005D01*
X1334Y1003D01*
X1330Y1003D01*
X1330Y1001D01*
X1324Y1001D01*
X1324Y999D01*
X1564Y999D01*
X1564Y1007D01*
X1566Y1007D01*
X1566Y1013D01*
X1568Y1013D01*
X1568Y1017D01*
X1570Y1017D01*
X1570Y1021D01*
X1572Y1021D01*
X1572Y1025D01*
X1574Y1025D01*
X1574Y1027D01*
X1576Y1027D01*
X1576Y1029D01*
X1578Y1029D01*
X1578Y1031D01*
X1580Y1031D01*
X1580Y1033D01*
X1582Y1033D01*
X1582Y1035D01*
X1584Y1035D01*
X1584Y1037D01*
X1586Y1037D01*
X1586Y1059D01*
X1584Y1059D01*
X1584Y1061D01*
X1582Y1061D01*
X1582Y1063D01*
X1580Y1063D01*
X1580Y1065D01*
X1578Y1065D01*
X1578Y1067D01*
X1576Y1067D01*
X1576Y1069D01*
X1574Y1069D01*
X1574Y1071D01*
X1572Y1071D01*
X1572Y1075D01*
X1570Y1075D01*
X1570Y1079D01*
X1568Y1079D01*
X1568Y1083D01*
X1566Y1083D01*
X1566Y1089D01*
X1564Y1089D01*
X1564Y1107D01*
X1566Y1107D01*
X1566Y1113D01*
X1568Y1113D01*
X1568Y1117D01*
X1570Y1117D01*
X1570Y1121D01*
X1572Y1121D01*
X1572Y1125D01*
X1574Y1125D01*
X1574Y1127D01*
X1576Y1127D01*
X1576Y1129D01*
X1578Y1129D01*
X1578Y1131D01*
X1580Y1131D01*
X1580Y1133D01*
X1582Y1133D01*
X1582Y1135D01*
X1584Y1135D01*
X1584Y1137D01*
X1586Y1137D01*
X1586Y1159D01*
X1584Y1159D01*
X1584Y1161D01*
X1582Y1161D01*
X1582Y1163D01*
X1580Y1163D01*
X1580Y1165D01*
X1578Y1165D01*
X1578Y1167D01*
X1576Y1167D01*
X1576Y1169D01*
X1574Y1169D01*
X1574Y1171D01*
X1572Y1171D01*
X1572Y1175D01*
X1570Y1175D01*
X1570Y1179D01*
X1568Y1179D01*
X1568Y1183D01*
X1566Y1183D01*
X1566Y1189D01*
X1564Y1189D01*
X1564Y1207D01*
X1566Y1207D01*
X1566Y1213D01*
X1568Y1213D01*
X1568Y1217D01*
X1570Y1217D01*
X1570Y1221D01*
X1572Y1221D01*
X1572Y1225D01*
X1574Y1225D01*
X1574Y1227D01*
X1576Y1227D01*
X1576Y1229D01*
X1578Y1229D01*
X1578Y1231D01*
X1580Y1231D01*
X1580Y1233D01*
X1582Y1233D01*
X1582Y1235D01*
X1584Y1235D01*
X1584Y1237D01*
X1586Y1237D01*
X1586Y1259D01*
X1584Y1259D01*
X1584Y1261D01*
X1582Y1261D01*
X1582Y1263D01*
X1580Y1263D01*
X1580Y1265D01*
X1578Y1265D01*
X1578Y1267D01*
X1576Y1267D01*
X1576Y1269D01*
X1574Y1269D01*
X1574Y1271D01*
X1572Y1271D01*
X1572Y1275D01*
X1570Y1275D01*
X1570Y1279D01*
X1568Y1279D01*
X1568Y1283D01*
X1566Y1283D01*
X1566Y1289D01*
X1564Y1289D01*
X1564Y1297D01*
X1134Y1297D01*
G37*
D02*
G36*
X234Y1247D02*
X234Y1021D01*
X262Y1021D01*
X262Y1047D01*
X276Y1047D01*
X276Y1069D01*
X274Y1069D01*
X274Y1071D01*
X272Y1071D01*
X272Y1073D01*
X270Y1073D01*
X270Y1077D01*
X268Y1077D01*
X268Y1081D01*
X266Y1081D01*
X266Y1085D01*
X264Y1085D01*
X264Y1097D01*
X262Y1097D01*
X262Y1099D01*
X264Y1099D01*
X264Y1111D01*
X266Y1111D01*
X266Y1115D01*
X268Y1115D01*
X268Y1119D01*
X270Y1119D01*
X270Y1123D01*
X272Y1123D01*
X272Y1125D01*
X274Y1125D01*
X274Y1127D01*
X276Y1127D01*
X276Y1131D01*
X278Y1131D01*
X278Y1133D01*
X280Y1133D01*
X280Y1135D01*
X284Y1135D01*
X284Y1137D01*
X286Y1137D01*
X286Y1159D01*
X284Y1159D01*
X284Y1161D01*
X280Y1161D01*
X280Y1163D01*
X278Y1163D01*
X278Y1165D01*
X276Y1165D01*
X276Y1169D01*
X274Y1169D01*
X274Y1171D01*
X272Y1171D01*
X272Y1173D01*
X270Y1173D01*
X270Y1177D01*
X268Y1177D01*
X268Y1181D01*
X266Y1181D01*
X266Y1185D01*
X264Y1185D01*
X264Y1197D01*
X262Y1197D01*
X262Y1199D01*
X264Y1199D01*
X264Y1211D01*
X266Y1211D01*
X266Y1215D01*
X268Y1215D01*
X268Y1219D01*
X270Y1219D01*
X270Y1223D01*
X272Y1223D01*
X272Y1225D01*
X274Y1225D01*
X274Y1227D01*
X276Y1227D01*
X276Y1231D01*
X278Y1231D01*
X278Y1233D01*
X280Y1233D01*
X280Y1235D01*
X284Y1235D01*
X284Y1237D01*
X286Y1237D01*
X286Y1239D01*
X288Y1239D01*
X288Y1241D01*
X292Y1241D01*
X292Y1243D01*
X296Y1243D01*
X296Y1245D01*
X302Y1245D01*
X302Y1247D01*
X234Y1247D01*
G37*
D02*
G36*
X662Y1097D02*
X662Y1085D01*
X684Y1085D01*
X684Y1087D01*
X686Y1087D01*
X686Y1089D01*
X688Y1089D01*
X688Y1091D01*
X692Y1091D01*
X692Y1093D01*
X696Y1093D01*
X696Y1095D01*
X702Y1095D01*
X702Y1097D01*
X662Y1097D01*
G37*
D02*
G36*
X724Y1097D02*
X724Y1095D01*
X730Y1095D01*
X730Y1093D01*
X734Y1093D01*
X734Y1091D01*
X736Y1091D01*
X736Y1089D01*
X740Y1089D01*
X740Y1087D01*
X742Y1087D01*
X742Y1085D01*
X744Y1085D01*
X744Y1083D01*
X746Y1083D01*
X746Y1081D01*
X748Y1081D01*
X748Y1079D01*
X750Y1079D01*
X750Y1077D01*
X752Y1077D01*
X752Y1075D01*
X774Y1075D01*
X774Y1077D01*
X776Y1077D01*
X776Y1081D01*
X778Y1081D01*
X778Y1083D01*
X780Y1083D01*
X780Y1085D01*
X784Y1085D01*
X784Y1087D01*
X786Y1087D01*
X786Y1089D01*
X788Y1089D01*
X788Y1091D01*
X792Y1091D01*
X792Y1093D01*
X796Y1093D01*
X796Y1095D01*
X802Y1095D01*
X802Y1097D01*
X724Y1097D01*
G37*
D02*
G36*
X1162Y1097D02*
X1162Y1085D01*
X1184Y1085D01*
X1184Y1087D01*
X1186Y1087D01*
X1186Y1089D01*
X1188Y1089D01*
X1188Y1091D01*
X1192Y1091D01*
X1192Y1093D01*
X1196Y1093D01*
X1196Y1095D01*
X1202Y1095D01*
X1202Y1097D01*
X1162Y1097D01*
G37*
D02*
G36*
X1224Y1097D02*
X1224Y1095D01*
X1230Y1095D01*
X1230Y1093D01*
X1234Y1093D01*
X1234Y1091D01*
X1236Y1091D01*
X1236Y1089D01*
X1240Y1089D01*
X1240Y1087D01*
X1242Y1087D01*
X1242Y1085D01*
X1244Y1085D01*
X1244Y1083D01*
X1246Y1083D01*
X1246Y1081D01*
X1248Y1081D01*
X1248Y1079D01*
X1250Y1079D01*
X1250Y1077D01*
X1252Y1077D01*
X1252Y1075D01*
X1274Y1075D01*
X1274Y1077D01*
X1276Y1077D01*
X1276Y1081D01*
X1278Y1081D01*
X1278Y1083D01*
X1280Y1083D01*
X1280Y1085D01*
X1284Y1085D01*
X1284Y1087D01*
X1286Y1087D01*
X1286Y1089D01*
X1288Y1089D01*
X1288Y1091D01*
X1292Y1091D01*
X1292Y1093D01*
X1296Y1093D01*
X1296Y1095D01*
X1302Y1095D01*
X1302Y1097D01*
X1224Y1097D01*
G37*
D02*
G36*
X2252Y1071D02*
X2252Y1069D01*
X2250Y1069D01*
X2250Y1067D01*
X2248Y1067D01*
X2248Y1065D01*
X2246Y1065D01*
X2246Y1063D01*
X2244Y1063D01*
X2244Y1061D01*
X2242Y1061D01*
X2242Y1059D01*
X2238Y1059D01*
X2238Y1037D01*
X2242Y1037D01*
X2242Y1035D01*
X2244Y1035D01*
X2244Y1033D01*
X2246Y1033D01*
X2246Y1031D01*
X2248Y1031D01*
X2248Y1029D01*
X2250Y1029D01*
X2250Y1027D01*
X2252Y1027D01*
X2252Y1023D01*
X2254Y1023D01*
X2254Y1021D01*
X2256Y1021D01*
X2256Y1017D01*
X2258Y1017D01*
X2258Y1011D01*
X2260Y1011D01*
X2260Y1005D01*
X2262Y1005D01*
X2262Y991D01*
X2260Y991D01*
X2260Y985D01*
X2258Y985D01*
X2258Y979D01*
X2256Y979D01*
X2256Y977D01*
X2254Y977D01*
X2254Y973D01*
X2252Y973D01*
X2252Y969D01*
X2250Y969D01*
X2250Y967D01*
X2248Y967D01*
X2248Y965D01*
X2246Y965D01*
X2246Y963D01*
X2244Y963D01*
X2244Y961D01*
X2242Y961D01*
X2242Y959D01*
X2238Y959D01*
X2238Y937D01*
X2242Y937D01*
X2242Y935D01*
X2244Y935D01*
X2244Y933D01*
X2246Y933D01*
X2246Y931D01*
X2248Y931D01*
X2248Y929D01*
X2250Y929D01*
X2250Y927D01*
X2252Y927D01*
X2252Y925D01*
X2552Y925D01*
X2552Y927D01*
X2544Y927D01*
X2544Y929D01*
X2538Y929D01*
X2538Y931D01*
X2532Y931D01*
X2532Y933D01*
X2528Y933D01*
X2528Y935D01*
X2526Y935D01*
X2526Y937D01*
X2522Y937D01*
X2522Y939D01*
X2520Y939D01*
X2520Y941D01*
X2518Y941D01*
X2518Y943D01*
X2514Y943D01*
X2514Y945D01*
X2512Y945D01*
X2512Y947D01*
X2510Y947D01*
X2510Y949D01*
X2508Y949D01*
X2508Y951D01*
X2506Y951D01*
X2506Y955D01*
X2504Y955D01*
X2504Y957D01*
X2502Y957D01*
X2502Y961D01*
X2500Y961D01*
X2500Y963D01*
X2498Y963D01*
X2498Y967D01*
X2496Y967D01*
X2496Y971D01*
X2494Y971D01*
X2494Y977D01*
X2492Y977D01*
X2492Y985D01*
X2490Y985D01*
X2490Y1011D01*
X2492Y1011D01*
X2492Y1019D01*
X2494Y1019D01*
X2494Y1025D01*
X2496Y1025D01*
X2496Y1029D01*
X2498Y1029D01*
X2498Y1033D01*
X2500Y1033D01*
X2500Y1035D01*
X2502Y1035D01*
X2502Y1039D01*
X2504Y1039D01*
X2504Y1041D01*
X2506Y1041D01*
X2506Y1045D01*
X2508Y1045D01*
X2508Y1047D01*
X2510Y1047D01*
X2510Y1049D01*
X2512Y1049D01*
X2512Y1051D01*
X2514Y1051D01*
X2514Y1053D01*
X2516Y1053D01*
X2516Y1055D01*
X2520Y1055D01*
X2520Y1057D01*
X2522Y1057D01*
X2522Y1059D01*
X2526Y1059D01*
X2526Y1061D01*
X2528Y1061D01*
X2528Y1063D01*
X2532Y1063D01*
X2532Y1065D01*
X2538Y1065D01*
X2538Y1067D01*
X2542Y1067D01*
X2542Y1069D01*
X2552Y1069D01*
X2552Y1071D01*
X2252Y1071D01*
G37*
D02*
G36*
X752Y1021D02*
X752Y1019D01*
X750Y1019D01*
X750Y1017D01*
X748Y1017D01*
X748Y1015D01*
X746Y1015D01*
X746Y1013D01*
X744Y1013D01*
X744Y1011D01*
X742Y1011D01*
X742Y1009D01*
X740Y1009D01*
X740Y1007D01*
X736Y1007D01*
X736Y1005D01*
X734Y1005D01*
X734Y1003D01*
X730Y1003D01*
X730Y1001D01*
X724Y1001D01*
X724Y999D01*
X802Y999D01*
X802Y1001D01*
X796Y1001D01*
X796Y1003D01*
X792Y1003D01*
X792Y1005D01*
X788Y1005D01*
X788Y1007D01*
X786Y1007D01*
X786Y1009D01*
X784Y1009D01*
X784Y1011D01*
X780Y1011D01*
X780Y1013D01*
X778Y1013D01*
X778Y1015D01*
X776Y1015D01*
X776Y1019D01*
X774Y1019D01*
X774Y1021D01*
X752Y1021D01*
G37*
D02*
G36*
X1252Y1021D02*
X1252Y1019D01*
X1250Y1019D01*
X1250Y1017D01*
X1248Y1017D01*
X1248Y1015D01*
X1246Y1015D01*
X1246Y1013D01*
X1244Y1013D01*
X1244Y1011D01*
X1242Y1011D01*
X1242Y1009D01*
X1240Y1009D01*
X1240Y1007D01*
X1236Y1007D01*
X1236Y1005D01*
X1234Y1005D01*
X1234Y1003D01*
X1230Y1003D01*
X1230Y1001D01*
X1224Y1001D01*
X1224Y999D01*
X1302Y999D01*
X1302Y1001D01*
X1296Y1001D01*
X1296Y1003D01*
X1292Y1003D01*
X1292Y1005D01*
X1288Y1005D01*
X1288Y1007D01*
X1286Y1007D01*
X1286Y1009D01*
X1284Y1009D01*
X1284Y1011D01*
X1280Y1011D01*
X1280Y1013D01*
X1278Y1013D01*
X1278Y1015D01*
X1276Y1015D01*
X1276Y1019D01*
X1274Y1019D01*
X1274Y1021D01*
X1252Y1021D01*
G37*
D02*
G36*
X662Y1011D02*
X662Y999D01*
X702Y999D01*
X702Y1001D01*
X696Y1001D01*
X696Y1003D01*
X692Y1003D01*
X692Y1005D01*
X688Y1005D01*
X688Y1007D01*
X686Y1007D01*
X686Y1009D01*
X684Y1009D01*
X684Y1011D01*
X662Y1011D01*
G37*
D02*
G36*
X1162Y1011D02*
X1162Y999D01*
X1202Y999D01*
X1202Y1001D01*
X1196Y1001D01*
X1196Y1003D01*
X1192Y1003D01*
X1192Y1005D01*
X1188Y1005D01*
X1188Y1007D01*
X1186Y1007D01*
X1186Y1009D01*
X1184Y1009D01*
X1184Y1011D01*
X1162Y1011D01*
G37*
D02*
G36*
X634Y999D02*
X634Y997D01*
X1090Y997D01*
X1090Y999D01*
X634Y999D01*
G37*
D02*
G36*
X634Y999D02*
X634Y997D01*
X1090Y997D01*
X1090Y999D01*
X634Y999D01*
G37*
D02*
G36*
X634Y999D02*
X634Y997D01*
X1090Y997D01*
X1090Y999D01*
X634Y999D01*
G37*
D02*
G36*
X1134Y999D02*
X1134Y997D01*
X1564Y997D01*
X1564Y999D01*
X1134Y999D01*
G37*
D02*
G36*
X1134Y999D02*
X1134Y997D01*
X1564Y997D01*
X1564Y999D01*
X1134Y999D01*
G37*
D02*
G36*
X1134Y999D02*
X1134Y997D01*
X1564Y997D01*
X1564Y999D01*
X1134Y999D01*
G37*
D02*
G36*
X634Y997D02*
X634Y797D01*
X824Y797D01*
X824Y795D01*
X830Y795D01*
X830Y793D01*
X834Y793D01*
X834Y791D01*
X836Y791D01*
X836Y789D01*
X840Y789D01*
X840Y787D01*
X842Y787D01*
X842Y785D01*
X844Y785D01*
X844Y783D01*
X846Y783D01*
X846Y781D01*
X848Y781D01*
X848Y779D01*
X850Y779D01*
X850Y777D01*
X852Y777D01*
X852Y775D01*
X854Y775D01*
X854Y771D01*
X856Y771D01*
X856Y769D01*
X858Y769D01*
X858Y763D01*
X860Y763D01*
X860Y757D01*
X862Y757D01*
X862Y739D01*
X860Y739D01*
X860Y733D01*
X858Y733D01*
X858Y729D01*
X856Y729D01*
X856Y725D01*
X854Y725D01*
X854Y721D01*
X852Y721D01*
X852Y719D01*
X850Y719D01*
X850Y717D01*
X848Y717D01*
X848Y715D01*
X846Y715D01*
X846Y713D01*
X844Y713D01*
X844Y711D01*
X842Y711D01*
X842Y709D01*
X840Y709D01*
X840Y707D01*
X836Y707D01*
X836Y705D01*
X834Y705D01*
X834Y703D01*
X830Y703D01*
X830Y701D01*
X824Y701D01*
X824Y699D01*
X1062Y699D01*
X1062Y797D01*
X1090Y797D01*
X1090Y997D01*
X634Y997D01*
G37*
D02*
G36*
X1134Y997D02*
X1134Y797D01*
X1324Y797D01*
X1324Y795D01*
X1330Y795D01*
X1330Y793D01*
X1334Y793D01*
X1334Y791D01*
X1336Y791D01*
X1336Y789D01*
X1340Y789D01*
X1340Y787D01*
X1342Y787D01*
X1342Y785D01*
X1344Y785D01*
X1344Y783D01*
X1346Y783D01*
X1346Y781D01*
X1348Y781D01*
X1348Y779D01*
X1350Y779D01*
X1350Y777D01*
X1352Y777D01*
X1352Y775D01*
X1354Y775D01*
X1354Y771D01*
X1356Y771D01*
X1356Y767D01*
X1358Y767D01*
X1358Y763D01*
X1360Y763D01*
X1360Y757D01*
X1362Y757D01*
X1362Y739D01*
X1360Y739D01*
X1360Y733D01*
X1358Y733D01*
X1358Y729D01*
X1356Y729D01*
X1356Y725D01*
X1354Y725D01*
X1354Y721D01*
X1352Y721D01*
X1352Y719D01*
X1350Y719D01*
X1350Y717D01*
X1348Y717D01*
X1348Y715D01*
X1346Y715D01*
X1346Y713D01*
X1344Y713D01*
X1344Y711D01*
X1342Y711D01*
X1342Y709D01*
X1340Y709D01*
X1340Y707D01*
X1336Y707D01*
X1336Y705D01*
X1334Y705D01*
X1334Y703D01*
X1330Y703D01*
X1330Y701D01*
X1324Y701D01*
X1324Y699D01*
X1564Y699D01*
X1564Y707D01*
X1566Y707D01*
X1566Y713D01*
X1568Y713D01*
X1568Y717D01*
X1570Y717D01*
X1570Y721D01*
X1572Y721D01*
X1572Y725D01*
X1574Y725D01*
X1574Y727D01*
X1576Y727D01*
X1576Y729D01*
X1578Y729D01*
X1578Y731D01*
X1580Y731D01*
X1580Y733D01*
X1582Y733D01*
X1582Y735D01*
X1584Y735D01*
X1584Y737D01*
X1586Y737D01*
X1586Y759D01*
X1584Y759D01*
X1584Y761D01*
X1582Y761D01*
X1582Y763D01*
X1580Y763D01*
X1580Y765D01*
X1578Y765D01*
X1578Y767D01*
X1576Y767D01*
X1576Y769D01*
X1574Y769D01*
X1574Y771D01*
X1572Y771D01*
X1572Y775D01*
X1570Y775D01*
X1570Y779D01*
X1568Y779D01*
X1568Y783D01*
X1566Y783D01*
X1566Y789D01*
X1564Y789D01*
X1564Y807D01*
X1566Y807D01*
X1566Y813D01*
X1568Y813D01*
X1568Y817D01*
X1570Y817D01*
X1570Y821D01*
X1572Y821D01*
X1572Y825D01*
X1574Y825D01*
X1574Y827D01*
X1576Y827D01*
X1576Y829D01*
X1578Y829D01*
X1578Y831D01*
X1580Y831D01*
X1580Y833D01*
X1582Y833D01*
X1582Y835D01*
X1584Y835D01*
X1584Y837D01*
X1586Y837D01*
X1586Y859D01*
X1584Y859D01*
X1584Y861D01*
X1582Y861D01*
X1582Y863D01*
X1580Y863D01*
X1580Y865D01*
X1578Y865D01*
X1578Y867D01*
X1576Y867D01*
X1576Y869D01*
X1574Y869D01*
X1574Y871D01*
X1572Y871D01*
X1572Y875D01*
X1570Y875D01*
X1570Y879D01*
X1568Y879D01*
X1568Y883D01*
X1566Y883D01*
X1566Y889D01*
X1564Y889D01*
X1564Y907D01*
X1566Y907D01*
X1566Y913D01*
X1568Y913D01*
X1568Y917D01*
X1570Y917D01*
X1570Y921D01*
X1572Y921D01*
X1572Y925D01*
X1574Y925D01*
X1574Y927D01*
X1576Y927D01*
X1576Y929D01*
X1578Y929D01*
X1578Y931D01*
X1580Y931D01*
X1580Y933D01*
X1582Y933D01*
X1582Y935D01*
X1584Y935D01*
X1584Y937D01*
X1586Y937D01*
X1586Y959D01*
X1584Y959D01*
X1584Y961D01*
X1582Y961D01*
X1582Y963D01*
X1580Y963D01*
X1580Y965D01*
X1578Y965D01*
X1578Y967D01*
X1576Y967D01*
X1576Y969D01*
X1574Y969D01*
X1574Y971D01*
X1572Y971D01*
X1572Y975D01*
X1570Y975D01*
X1570Y979D01*
X1568Y979D01*
X1568Y983D01*
X1566Y983D01*
X1566Y989D01*
X1564Y989D01*
X1564Y997D01*
X1134Y997D01*
G37*
D02*
G36*
X234Y977D02*
X234Y949D01*
X262Y949D01*
X262Y977D01*
X234Y977D01*
G37*
D02*
G36*
X234Y949D02*
X234Y947D01*
X590Y947D01*
X590Y949D01*
X234Y949D01*
G37*
D02*
G36*
X234Y949D02*
X234Y947D01*
X590Y947D01*
X590Y949D01*
X234Y949D01*
G37*
D02*
G36*
X234Y947D02*
X234Y797D01*
X324Y797D01*
X324Y795D01*
X330Y795D01*
X330Y793D01*
X334Y793D01*
X334Y791D01*
X336Y791D01*
X336Y789D01*
X340Y789D01*
X340Y787D01*
X342Y787D01*
X342Y785D01*
X344Y785D01*
X344Y783D01*
X346Y783D01*
X346Y781D01*
X348Y781D01*
X348Y779D01*
X350Y779D01*
X350Y777D01*
X352Y777D01*
X352Y775D01*
X354Y775D01*
X354Y771D01*
X356Y771D01*
X356Y769D01*
X358Y769D01*
X358Y763D01*
X360Y763D01*
X360Y757D01*
X362Y757D01*
X362Y739D01*
X360Y739D01*
X360Y733D01*
X358Y733D01*
X358Y729D01*
X356Y729D01*
X356Y725D01*
X354Y725D01*
X354Y721D01*
X352Y721D01*
X352Y719D01*
X350Y719D01*
X350Y717D01*
X348Y717D01*
X348Y715D01*
X346Y715D01*
X346Y713D01*
X344Y713D01*
X344Y711D01*
X342Y711D01*
X342Y709D01*
X340Y709D01*
X340Y687D01*
X342Y687D01*
X342Y685D01*
X344Y685D01*
X344Y683D01*
X346Y683D01*
X346Y681D01*
X348Y681D01*
X348Y679D01*
X350Y679D01*
X350Y677D01*
X352Y677D01*
X352Y675D01*
X354Y675D01*
X354Y671D01*
X356Y671D01*
X356Y669D01*
X358Y669D01*
X358Y663D01*
X360Y663D01*
X360Y657D01*
X362Y657D01*
X362Y639D01*
X360Y639D01*
X360Y633D01*
X358Y633D01*
X358Y629D01*
X356Y629D01*
X356Y625D01*
X354Y625D01*
X354Y621D01*
X352Y621D01*
X352Y619D01*
X350Y619D01*
X350Y617D01*
X348Y617D01*
X348Y597D01*
X362Y597D01*
X362Y499D01*
X590Y499D01*
X590Y699D01*
X562Y699D01*
X562Y797D01*
X590Y797D01*
X590Y947D01*
X234Y947D01*
G37*
D02*
G36*
X2252Y925D02*
X2252Y923D01*
X2758Y923D01*
X2758Y925D01*
X2252Y925D01*
G37*
D02*
G36*
X2252Y925D02*
X2252Y923D01*
X2758Y923D01*
X2758Y925D01*
X2252Y925D01*
G37*
D02*
G36*
X2254Y923D02*
X2254Y921D01*
X2256Y921D01*
X2256Y917D01*
X2258Y917D01*
X2258Y911D01*
X2260Y911D01*
X2260Y905D01*
X2262Y905D01*
X2262Y891D01*
X2260Y891D01*
X2260Y885D01*
X2258Y885D01*
X2258Y879D01*
X2256Y879D01*
X2256Y877D01*
X2254Y877D01*
X2254Y873D01*
X2252Y873D01*
X2252Y869D01*
X2250Y869D01*
X2250Y867D01*
X2248Y867D01*
X2248Y865D01*
X2246Y865D01*
X2246Y863D01*
X2244Y863D01*
X2244Y861D01*
X2242Y861D01*
X2242Y859D01*
X2238Y859D01*
X2238Y837D01*
X2242Y837D01*
X2242Y835D01*
X2244Y835D01*
X2244Y833D01*
X2246Y833D01*
X2246Y831D01*
X2248Y831D01*
X2248Y829D01*
X2250Y829D01*
X2250Y827D01*
X2252Y827D01*
X2252Y823D01*
X2254Y823D01*
X2254Y821D01*
X2256Y821D01*
X2256Y817D01*
X2258Y817D01*
X2258Y811D01*
X2260Y811D01*
X2260Y805D01*
X2262Y805D01*
X2262Y791D01*
X2260Y791D01*
X2260Y785D01*
X2258Y785D01*
X2258Y779D01*
X2256Y779D01*
X2256Y777D01*
X2254Y777D01*
X2254Y773D01*
X2252Y773D01*
X2252Y769D01*
X2514Y769D01*
X2514Y767D01*
X2530Y767D01*
X2530Y765D01*
X2536Y765D01*
X2536Y763D01*
X2542Y763D01*
X2542Y761D01*
X2546Y761D01*
X2546Y759D01*
X2550Y759D01*
X2550Y757D01*
X2552Y757D01*
X2552Y755D01*
X2556Y755D01*
X2556Y753D01*
X2558Y753D01*
X2558Y751D01*
X2560Y751D01*
X2560Y749D01*
X2564Y749D01*
X2564Y747D01*
X2566Y747D01*
X2566Y745D01*
X2568Y745D01*
X2568Y743D01*
X2570Y743D01*
X2570Y741D01*
X2572Y741D01*
X2572Y739D01*
X2574Y739D01*
X2574Y735D01*
X2576Y735D01*
X2576Y733D01*
X2578Y733D01*
X2578Y731D01*
X2580Y731D01*
X2580Y727D01*
X2582Y727D01*
X2582Y723D01*
X2584Y723D01*
X2584Y719D01*
X2586Y719D01*
X2586Y715D01*
X2588Y715D01*
X2588Y711D01*
X2590Y711D01*
X2590Y703D01*
X2592Y703D01*
X2592Y673D01*
X2590Y673D01*
X2590Y665D01*
X2588Y665D01*
X2588Y661D01*
X2586Y661D01*
X2586Y657D01*
X2584Y657D01*
X2584Y653D01*
X2582Y653D01*
X2582Y649D01*
X2704Y649D01*
X2704Y647D01*
X2720Y647D01*
X2720Y645D01*
X2726Y645D01*
X2726Y643D01*
X2732Y643D01*
X2732Y641D01*
X2736Y641D01*
X2736Y639D01*
X2758Y639D01*
X2758Y923D01*
X2254Y923D01*
G37*
D02*
G36*
X234Y797D02*
X234Y569D01*
X262Y569D01*
X262Y597D01*
X276Y597D01*
X276Y619D01*
X274Y619D01*
X274Y621D01*
X272Y621D01*
X272Y623D01*
X270Y623D01*
X270Y627D01*
X268Y627D01*
X268Y631D01*
X266Y631D01*
X266Y635D01*
X264Y635D01*
X264Y647D01*
X262Y647D01*
X262Y649D01*
X264Y649D01*
X264Y661D01*
X266Y661D01*
X266Y665D01*
X268Y665D01*
X268Y669D01*
X270Y669D01*
X270Y673D01*
X272Y673D01*
X272Y675D01*
X274Y675D01*
X274Y677D01*
X276Y677D01*
X276Y681D01*
X278Y681D01*
X278Y683D01*
X280Y683D01*
X280Y685D01*
X284Y685D01*
X284Y687D01*
X286Y687D01*
X286Y709D01*
X284Y709D01*
X284Y711D01*
X280Y711D01*
X280Y713D01*
X278Y713D01*
X278Y715D01*
X276Y715D01*
X276Y719D01*
X274Y719D01*
X274Y721D01*
X272Y721D01*
X272Y723D01*
X270Y723D01*
X270Y727D01*
X268Y727D01*
X268Y731D01*
X266Y731D01*
X266Y735D01*
X264Y735D01*
X264Y747D01*
X262Y747D01*
X262Y749D01*
X264Y749D01*
X264Y761D01*
X266Y761D01*
X266Y765D01*
X268Y765D01*
X268Y769D01*
X270Y769D01*
X270Y773D01*
X272Y773D01*
X272Y775D01*
X274Y775D01*
X274Y777D01*
X276Y777D01*
X276Y781D01*
X278Y781D01*
X278Y783D01*
X280Y783D01*
X280Y785D01*
X284Y785D01*
X284Y787D01*
X286Y787D01*
X286Y789D01*
X288Y789D01*
X288Y791D01*
X292Y791D01*
X292Y793D01*
X296Y793D01*
X296Y795D01*
X302Y795D01*
X302Y797D01*
X234Y797D01*
G37*
D02*
G36*
X662Y797D02*
X662Y785D01*
X684Y785D01*
X684Y787D01*
X686Y787D01*
X686Y789D01*
X688Y789D01*
X688Y791D01*
X692Y791D01*
X692Y793D01*
X696Y793D01*
X696Y795D01*
X702Y795D01*
X702Y797D01*
X662Y797D01*
G37*
D02*
G36*
X724Y797D02*
X724Y795D01*
X730Y795D01*
X730Y793D01*
X734Y793D01*
X734Y791D01*
X736Y791D01*
X736Y789D01*
X740Y789D01*
X740Y787D01*
X742Y787D01*
X742Y785D01*
X744Y785D01*
X744Y783D01*
X746Y783D01*
X746Y781D01*
X748Y781D01*
X748Y779D01*
X750Y779D01*
X750Y777D01*
X752Y777D01*
X752Y775D01*
X774Y775D01*
X774Y777D01*
X776Y777D01*
X776Y781D01*
X778Y781D01*
X778Y783D01*
X780Y783D01*
X780Y785D01*
X784Y785D01*
X784Y787D01*
X786Y787D01*
X786Y789D01*
X788Y789D01*
X788Y791D01*
X792Y791D01*
X792Y793D01*
X796Y793D01*
X796Y795D01*
X802Y795D01*
X802Y797D01*
X724Y797D01*
G37*
D02*
G36*
X1162Y797D02*
X1162Y785D01*
X1184Y785D01*
X1184Y787D01*
X1186Y787D01*
X1186Y789D01*
X1188Y789D01*
X1188Y791D01*
X1192Y791D01*
X1192Y793D01*
X1196Y793D01*
X1196Y795D01*
X1202Y795D01*
X1202Y797D01*
X1162Y797D01*
G37*
D02*
G36*
X1224Y797D02*
X1224Y795D01*
X1230Y795D01*
X1230Y793D01*
X1234Y793D01*
X1234Y791D01*
X1236Y791D01*
X1236Y789D01*
X1240Y789D01*
X1240Y787D01*
X1242Y787D01*
X1242Y785D01*
X1244Y785D01*
X1244Y783D01*
X1246Y783D01*
X1246Y781D01*
X1248Y781D01*
X1248Y779D01*
X1250Y779D01*
X1250Y777D01*
X1252Y777D01*
X1252Y775D01*
X1274Y775D01*
X1274Y777D01*
X1276Y777D01*
X1276Y781D01*
X1278Y781D01*
X1278Y783D01*
X1280Y783D01*
X1280Y785D01*
X1284Y785D01*
X1284Y787D01*
X1286Y787D01*
X1286Y789D01*
X1288Y789D01*
X1288Y791D01*
X1292Y791D01*
X1292Y793D01*
X1296Y793D01*
X1296Y795D01*
X1302Y795D01*
X1302Y797D01*
X1224Y797D01*
G37*
D02*
G36*
X2250Y769D02*
X2250Y767D01*
X2248Y767D01*
X2248Y765D01*
X2246Y765D01*
X2246Y763D01*
X2244Y763D01*
X2244Y761D01*
X2242Y761D01*
X2242Y759D01*
X2238Y759D01*
X2238Y737D01*
X2242Y737D01*
X2242Y735D01*
X2244Y735D01*
X2244Y733D01*
X2246Y733D01*
X2246Y731D01*
X2248Y731D01*
X2248Y729D01*
X2250Y729D01*
X2250Y727D01*
X2252Y727D01*
X2252Y723D01*
X2254Y723D01*
X2254Y721D01*
X2256Y721D01*
X2256Y717D01*
X2258Y717D01*
X2258Y711D01*
X2260Y711D01*
X2260Y705D01*
X2262Y705D01*
X2262Y691D01*
X2260Y691D01*
X2260Y685D01*
X2258Y685D01*
X2258Y679D01*
X2256Y679D01*
X2256Y677D01*
X2254Y677D01*
X2254Y673D01*
X2252Y673D01*
X2252Y669D01*
X2250Y669D01*
X2250Y667D01*
X2248Y667D01*
X2248Y665D01*
X2246Y665D01*
X2246Y663D01*
X2244Y663D01*
X2244Y661D01*
X2242Y661D01*
X2242Y659D01*
X2238Y659D01*
X2238Y637D01*
X2242Y637D01*
X2242Y635D01*
X2244Y635D01*
X2244Y633D01*
X2246Y633D01*
X2246Y631D01*
X2248Y631D01*
X2248Y629D01*
X2250Y629D01*
X2250Y627D01*
X2252Y627D01*
X2252Y623D01*
X2254Y623D01*
X2254Y621D01*
X2256Y621D01*
X2256Y617D01*
X2258Y617D01*
X2258Y611D01*
X2260Y611D01*
X2260Y609D01*
X2496Y609D01*
X2496Y611D01*
X2490Y611D01*
X2490Y613D01*
X2484Y613D01*
X2484Y615D01*
X2480Y615D01*
X2480Y617D01*
X2476Y617D01*
X2476Y619D01*
X2472Y619D01*
X2472Y621D01*
X2470Y621D01*
X2470Y623D01*
X2468Y623D01*
X2468Y625D01*
X2464Y625D01*
X2464Y627D01*
X2462Y627D01*
X2462Y629D01*
X2460Y629D01*
X2460Y631D01*
X2458Y631D01*
X2458Y633D01*
X2456Y633D01*
X2456Y635D01*
X2454Y635D01*
X2454Y637D01*
X2452Y637D01*
X2452Y639D01*
X2450Y639D01*
X2450Y641D01*
X2448Y641D01*
X2448Y645D01*
X2446Y645D01*
X2446Y647D01*
X2444Y647D01*
X2444Y651D01*
X2442Y651D01*
X2442Y655D01*
X2440Y655D01*
X2440Y659D01*
X2438Y659D01*
X2438Y663D01*
X2436Y663D01*
X2436Y671D01*
X2434Y671D01*
X2434Y681D01*
X2432Y681D01*
X2432Y695D01*
X2434Y695D01*
X2434Y705D01*
X2436Y705D01*
X2436Y713D01*
X2438Y713D01*
X2438Y717D01*
X2440Y717D01*
X2440Y721D01*
X2442Y721D01*
X2442Y725D01*
X2444Y725D01*
X2444Y729D01*
X2446Y729D01*
X2446Y731D01*
X2448Y731D01*
X2448Y735D01*
X2450Y735D01*
X2450Y737D01*
X2452Y737D01*
X2452Y739D01*
X2454Y739D01*
X2454Y741D01*
X2456Y741D01*
X2456Y743D01*
X2458Y743D01*
X2458Y745D01*
X2460Y745D01*
X2460Y747D01*
X2462Y747D01*
X2462Y749D01*
X2464Y749D01*
X2464Y751D01*
X2466Y751D01*
X2466Y753D01*
X2470Y753D01*
X2470Y755D01*
X2472Y755D01*
X2472Y757D01*
X2476Y757D01*
X2476Y759D01*
X2480Y759D01*
X2480Y761D01*
X2484Y761D01*
X2484Y763D01*
X2490Y763D01*
X2490Y765D01*
X2496Y765D01*
X2496Y767D01*
X2512Y767D01*
X2512Y769D01*
X2250Y769D01*
G37*
D02*
G36*
X752Y721D02*
X752Y719D01*
X750Y719D01*
X750Y717D01*
X748Y717D01*
X748Y715D01*
X746Y715D01*
X746Y713D01*
X744Y713D01*
X744Y711D01*
X742Y711D01*
X742Y709D01*
X740Y709D01*
X740Y707D01*
X736Y707D01*
X736Y705D01*
X734Y705D01*
X734Y703D01*
X730Y703D01*
X730Y701D01*
X724Y701D01*
X724Y699D01*
X802Y699D01*
X802Y701D01*
X796Y701D01*
X796Y703D01*
X792Y703D01*
X792Y705D01*
X788Y705D01*
X788Y707D01*
X786Y707D01*
X786Y709D01*
X784Y709D01*
X784Y711D01*
X780Y711D01*
X780Y713D01*
X778Y713D01*
X778Y715D01*
X776Y715D01*
X776Y719D01*
X774Y719D01*
X774Y721D01*
X752Y721D01*
G37*
D02*
G36*
X1252Y721D02*
X1252Y719D01*
X1250Y719D01*
X1250Y717D01*
X1248Y717D01*
X1248Y715D01*
X1246Y715D01*
X1246Y713D01*
X1244Y713D01*
X1244Y711D01*
X1242Y711D01*
X1242Y709D01*
X1240Y709D01*
X1240Y707D01*
X1236Y707D01*
X1236Y705D01*
X1234Y705D01*
X1234Y703D01*
X1230Y703D01*
X1230Y701D01*
X1224Y701D01*
X1224Y699D01*
X1302Y699D01*
X1302Y701D01*
X1296Y701D01*
X1296Y703D01*
X1292Y703D01*
X1292Y705D01*
X1288Y705D01*
X1288Y707D01*
X1286Y707D01*
X1286Y709D01*
X1284Y709D01*
X1284Y711D01*
X1280Y711D01*
X1280Y713D01*
X1278Y713D01*
X1278Y715D01*
X1276Y715D01*
X1276Y719D01*
X1274Y719D01*
X1274Y721D01*
X1252Y721D01*
G37*
D02*
G36*
X662Y711D02*
X662Y699D01*
X702Y699D01*
X702Y701D01*
X696Y701D01*
X696Y703D01*
X692Y703D01*
X692Y705D01*
X688Y705D01*
X688Y707D01*
X686Y707D01*
X686Y709D01*
X684Y709D01*
X684Y711D01*
X662Y711D01*
G37*
D02*
G36*
X1162Y711D02*
X1162Y699D01*
X1202Y699D01*
X1202Y701D01*
X1196Y701D01*
X1196Y703D01*
X1192Y703D01*
X1192Y705D01*
X1188Y705D01*
X1188Y707D01*
X1186Y707D01*
X1186Y709D01*
X1184Y709D01*
X1184Y711D01*
X1162Y711D01*
G37*
D02*
G36*
X634Y699D02*
X634Y697D01*
X1090Y697D01*
X1090Y699D01*
X634Y699D01*
G37*
D02*
G36*
X634Y699D02*
X634Y697D01*
X1090Y697D01*
X1090Y699D01*
X634Y699D01*
G37*
D02*
G36*
X634Y699D02*
X634Y697D01*
X1090Y697D01*
X1090Y699D01*
X634Y699D01*
G37*
D02*
G36*
X1134Y699D02*
X1134Y697D01*
X1564Y697D01*
X1564Y699D01*
X1134Y699D01*
G37*
D02*
G36*
X1134Y699D02*
X1134Y697D01*
X1564Y697D01*
X1564Y699D01*
X1134Y699D01*
G37*
D02*
G36*
X1134Y699D02*
X1134Y697D01*
X1564Y697D01*
X1564Y699D01*
X1134Y699D01*
G37*
D02*
G36*
X634Y697D02*
X634Y497D01*
X824Y497D01*
X824Y495D01*
X830Y495D01*
X830Y493D01*
X834Y493D01*
X834Y491D01*
X836Y491D01*
X836Y489D01*
X840Y489D01*
X840Y487D01*
X842Y487D01*
X842Y485D01*
X844Y485D01*
X844Y483D01*
X846Y483D01*
X846Y481D01*
X848Y481D01*
X848Y479D01*
X850Y479D01*
X850Y477D01*
X852Y477D01*
X852Y475D01*
X854Y475D01*
X854Y471D01*
X856Y471D01*
X856Y469D01*
X858Y469D01*
X858Y463D01*
X860Y463D01*
X860Y457D01*
X862Y457D01*
X862Y439D01*
X860Y439D01*
X860Y433D01*
X858Y433D01*
X858Y429D01*
X856Y429D01*
X856Y425D01*
X854Y425D01*
X854Y421D01*
X852Y421D01*
X852Y419D01*
X850Y419D01*
X850Y417D01*
X848Y417D01*
X848Y415D01*
X846Y415D01*
X846Y413D01*
X844Y413D01*
X844Y411D01*
X842Y411D01*
X842Y409D01*
X840Y409D01*
X840Y407D01*
X836Y407D01*
X836Y405D01*
X834Y405D01*
X834Y403D01*
X830Y403D01*
X830Y401D01*
X824Y401D01*
X824Y399D01*
X1062Y399D01*
X1062Y497D01*
X1090Y497D01*
X1090Y697D01*
X634Y697D01*
G37*
D02*
G36*
X1134Y697D02*
X1134Y497D01*
X1324Y497D01*
X1324Y495D01*
X1330Y495D01*
X1330Y493D01*
X1334Y493D01*
X1334Y491D01*
X1336Y491D01*
X1336Y489D01*
X1340Y489D01*
X1340Y487D01*
X1342Y487D01*
X1342Y485D01*
X1344Y485D01*
X1344Y483D01*
X1346Y483D01*
X1346Y481D01*
X1348Y481D01*
X1348Y479D01*
X1350Y479D01*
X1350Y477D01*
X1352Y477D01*
X1352Y475D01*
X1354Y475D01*
X1354Y471D01*
X1356Y471D01*
X1356Y467D01*
X1358Y467D01*
X1358Y463D01*
X1360Y463D01*
X1360Y457D01*
X1362Y457D01*
X1362Y439D01*
X1360Y439D01*
X1360Y433D01*
X1358Y433D01*
X1358Y429D01*
X1356Y429D01*
X1356Y425D01*
X1354Y425D01*
X1354Y421D01*
X1352Y421D01*
X1352Y419D01*
X1350Y419D01*
X1350Y417D01*
X1348Y417D01*
X1348Y415D01*
X1346Y415D01*
X1346Y413D01*
X1344Y413D01*
X1344Y411D01*
X1342Y411D01*
X1342Y409D01*
X1340Y409D01*
X1340Y407D01*
X1336Y407D01*
X1336Y405D01*
X1334Y405D01*
X1334Y403D01*
X1330Y403D01*
X1330Y401D01*
X1324Y401D01*
X1324Y399D01*
X1564Y399D01*
X1564Y407D01*
X1566Y407D01*
X1566Y413D01*
X1568Y413D01*
X1568Y417D01*
X1570Y417D01*
X1570Y421D01*
X1572Y421D01*
X1572Y425D01*
X1574Y425D01*
X1574Y427D01*
X1576Y427D01*
X1576Y429D01*
X1578Y429D01*
X1578Y431D01*
X1580Y431D01*
X1580Y433D01*
X1582Y433D01*
X1582Y435D01*
X1584Y435D01*
X1584Y437D01*
X1586Y437D01*
X1586Y459D01*
X1584Y459D01*
X1584Y461D01*
X1582Y461D01*
X1582Y463D01*
X1580Y463D01*
X1580Y465D01*
X1578Y465D01*
X1578Y467D01*
X1576Y467D01*
X1576Y469D01*
X1574Y469D01*
X1574Y471D01*
X1572Y471D01*
X1572Y475D01*
X1570Y475D01*
X1570Y479D01*
X1568Y479D01*
X1568Y483D01*
X1566Y483D01*
X1566Y489D01*
X1564Y489D01*
X1564Y507D01*
X1566Y507D01*
X1566Y513D01*
X1568Y513D01*
X1568Y517D01*
X1570Y517D01*
X1570Y521D01*
X1572Y521D01*
X1572Y525D01*
X1574Y525D01*
X1574Y527D01*
X1576Y527D01*
X1576Y529D01*
X1578Y529D01*
X1578Y531D01*
X1580Y531D01*
X1580Y533D01*
X1582Y533D01*
X1582Y535D01*
X1584Y535D01*
X1584Y537D01*
X1586Y537D01*
X1586Y559D01*
X1584Y559D01*
X1584Y561D01*
X1582Y561D01*
X1582Y563D01*
X1580Y563D01*
X1580Y565D01*
X1578Y565D01*
X1578Y567D01*
X1576Y567D01*
X1576Y569D01*
X1574Y569D01*
X1574Y571D01*
X1572Y571D01*
X1572Y575D01*
X1570Y575D01*
X1570Y579D01*
X1568Y579D01*
X1568Y583D01*
X1566Y583D01*
X1566Y589D01*
X1564Y589D01*
X1564Y607D01*
X1566Y607D01*
X1566Y613D01*
X1568Y613D01*
X1568Y617D01*
X1570Y617D01*
X1570Y621D01*
X1572Y621D01*
X1572Y625D01*
X1574Y625D01*
X1574Y627D01*
X1576Y627D01*
X1576Y629D01*
X1578Y629D01*
X1578Y631D01*
X1580Y631D01*
X1580Y633D01*
X1582Y633D01*
X1582Y635D01*
X1584Y635D01*
X1584Y637D01*
X1586Y637D01*
X1586Y659D01*
X1584Y659D01*
X1584Y661D01*
X1582Y661D01*
X1582Y663D01*
X1580Y663D01*
X1580Y665D01*
X1578Y665D01*
X1578Y667D01*
X1576Y667D01*
X1576Y669D01*
X1574Y669D01*
X1574Y671D01*
X1572Y671D01*
X1572Y675D01*
X1570Y675D01*
X1570Y679D01*
X1568Y679D01*
X1568Y683D01*
X1566Y683D01*
X1566Y689D01*
X1564Y689D01*
X1564Y697D01*
X1134Y697D01*
G37*
D02*
G36*
X2580Y649D02*
X2580Y645D01*
X2578Y645D01*
X2578Y643D01*
X2576Y643D01*
X2576Y641D01*
X2574Y641D01*
X2574Y637D01*
X2572Y637D01*
X2572Y635D01*
X2570Y635D01*
X2570Y633D01*
X2568Y633D01*
X2568Y631D01*
X2566Y631D01*
X2566Y629D01*
X2564Y629D01*
X2564Y627D01*
X2560Y627D01*
X2560Y625D01*
X2558Y625D01*
X2558Y623D01*
X2556Y623D01*
X2556Y621D01*
X2552Y621D01*
X2552Y619D01*
X2550Y619D01*
X2550Y617D01*
X2546Y617D01*
X2546Y615D01*
X2540Y615D01*
X2540Y613D01*
X2536Y613D01*
X2536Y611D01*
X2528Y611D01*
X2528Y609D01*
X2636Y609D01*
X2636Y611D01*
X2638Y611D01*
X2638Y615D01*
X2640Y615D01*
X2640Y617D01*
X2642Y617D01*
X2642Y619D01*
X2644Y619D01*
X2644Y621D01*
X2646Y621D01*
X2646Y623D01*
X2648Y623D01*
X2648Y625D01*
X2650Y625D01*
X2650Y627D01*
X2652Y627D01*
X2652Y629D01*
X2654Y629D01*
X2654Y631D01*
X2656Y631D01*
X2656Y633D01*
X2660Y633D01*
X2660Y635D01*
X2662Y635D01*
X2662Y637D01*
X2666Y637D01*
X2666Y639D01*
X2670Y639D01*
X2670Y641D01*
X2674Y641D01*
X2674Y643D01*
X2680Y643D01*
X2680Y645D01*
X2686Y645D01*
X2686Y647D01*
X2702Y647D01*
X2702Y649D01*
X2580Y649D01*
G37*
D02*
G36*
X2260Y609D02*
X2260Y607D01*
X2634Y607D01*
X2634Y609D01*
X2260Y609D01*
G37*
D02*
G36*
X2260Y609D02*
X2260Y607D01*
X2634Y607D01*
X2634Y609D01*
X2260Y609D01*
G37*
D02*
G36*
X2260Y607D02*
X2260Y605D01*
X2262Y605D01*
X2262Y591D01*
X2260Y591D01*
X2260Y585D01*
X2258Y585D01*
X2258Y579D01*
X2256Y579D01*
X2256Y577D01*
X2254Y577D01*
X2254Y573D01*
X2252Y573D01*
X2252Y569D01*
X2250Y569D01*
X2250Y567D01*
X2248Y567D01*
X2248Y565D01*
X2246Y565D01*
X2246Y563D01*
X2244Y563D01*
X2244Y561D01*
X2242Y561D01*
X2242Y559D01*
X2238Y559D01*
X2238Y537D01*
X2242Y537D01*
X2242Y535D01*
X2244Y535D01*
X2244Y533D01*
X2246Y533D01*
X2246Y531D01*
X2248Y531D01*
X2248Y529D01*
X2514Y529D01*
X2514Y527D01*
X2530Y527D01*
X2530Y525D01*
X2536Y525D01*
X2536Y523D01*
X2542Y523D01*
X2542Y521D01*
X2546Y521D01*
X2546Y519D01*
X2550Y519D01*
X2550Y517D01*
X2552Y517D01*
X2552Y515D01*
X2556Y515D01*
X2556Y513D01*
X2558Y513D01*
X2558Y511D01*
X2560Y511D01*
X2560Y509D01*
X2564Y509D01*
X2564Y507D01*
X2566Y507D01*
X2566Y505D01*
X2568Y505D01*
X2568Y503D01*
X2570Y503D01*
X2570Y501D01*
X2572Y501D01*
X2572Y499D01*
X2574Y499D01*
X2574Y495D01*
X2576Y495D01*
X2576Y493D01*
X2578Y493D01*
X2578Y491D01*
X2580Y491D01*
X2580Y489D01*
X2686Y489D01*
X2686Y491D01*
X2680Y491D01*
X2680Y493D01*
X2674Y493D01*
X2674Y495D01*
X2670Y495D01*
X2670Y497D01*
X2666Y497D01*
X2666Y499D01*
X2662Y499D01*
X2662Y501D01*
X2660Y501D01*
X2660Y503D01*
X2658Y503D01*
X2658Y505D01*
X2654Y505D01*
X2654Y507D01*
X2652Y507D01*
X2652Y509D01*
X2650Y509D01*
X2650Y511D01*
X2648Y511D01*
X2648Y513D01*
X2646Y513D01*
X2646Y515D01*
X2644Y515D01*
X2644Y517D01*
X2642Y517D01*
X2642Y519D01*
X2640Y519D01*
X2640Y521D01*
X2638Y521D01*
X2638Y525D01*
X2636Y525D01*
X2636Y527D01*
X2634Y527D01*
X2634Y531D01*
X2632Y531D01*
X2632Y535D01*
X2630Y535D01*
X2630Y539D01*
X2628Y539D01*
X2628Y543D01*
X2626Y543D01*
X2626Y551D01*
X2624Y551D01*
X2624Y561D01*
X2622Y561D01*
X2622Y575D01*
X2624Y575D01*
X2624Y585D01*
X2626Y585D01*
X2626Y593D01*
X2628Y593D01*
X2628Y597D01*
X2630Y597D01*
X2630Y601D01*
X2632Y601D01*
X2632Y605D01*
X2634Y605D01*
X2634Y607D01*
X2260Y607D01*
G37*
D02*
G36*
X2250Y529D02*
X2250Y527D01*
X2252Y527D01*
X2252Y523D01*
X2254Y523D01*
X2254Y521D01*
X2256Y521D01*
X2256Y517D01*
X2258Y517D01*
X2258Y511D01*
X2260Y511D01*
X2260Y505D01*
X2262Y505D01*
X2262Y491D01*
X2260Y491D01*
X2260Y485D01*
X2258Y485D01*
X2258Y479D01*
X2256Y479D01*
X2256Y477D01*
X2254Y477D01*
X2254Y473D01*
X2252Y473D01*
X2252Y469D01*
X2250Y469D01*
X2250Y467D01*
X2248Y467D01*
X2248Y465D01*
X2246Y465D01*
X2246Y463D01*
X2244Y463D01*
X2244Y461D01*
X2242Y461D01*
X2242Y459D01*
X2238Y459D01*
X2238Y437D01*
X2242Y437D01*
X2242Y435D01*
X2244Y435D01*
X2244Y433D01*
X2246Y433D01*
X2246Y431D01*
X2248Y431D01*
X2248Y429D01*
X2250Y429D01*
X2250Y427D01*
X2252Y427D01*
X2252Y423D01*
X2254Y423D01*
X2254Y421D01*
X2256Y421D01*
X2256Y417D01*
X2258Y417D01*
X2258Y411D01*
X2260Y411D01*
X2260Y405D01*
X2262Y405D01*
X2262Y391D01*
X2260Y391D01*
X2260Y385D01*
X2258Y385D01*
X2258Y379D01*
X2256Y379D01*
X2256Y377D01*
X2254Y377D01*
X2254Y373D01*
X2252Y373D01*
X2252Y369D01*
X2496Y369D01*
X2496Y371D01*
X2490Y371D01*
X2490Y373D01*
X2484Y373D01*
X2484Y375D01*
X2480Y375D01*
X2480Y377D01*
X2476Y377D01*
X2476Y379D01*
X2472Y379D01*
X2472Y381D01*
X2470Y381D01*
X2470Y383D01*
X2468Y383D01*
X2468Y385D01*
X2464Y385D01*
X2464Y387D01*
X2462Y387D01*
X2462Y389D01*
X2460Y389D01*
X2460Y391D01*
X2458Y391D01*
X2458Y393D01*
X2456Y393D01*
X2456Y395D01*
X2454Y395D01*
X2454Y397D01*
X2452Y397D01*
X2452Y399D01*
X2450Y399D01*
X2450Y401D01*
X2448Y401D01*
X2448Y405D01*
X2446Y405D01*
X2446Y407D01*
X2444Y407D01*
X2444Y411D01*
X2442Y411D01*
X2442Y415D01*
X2440Y415D01*
X2440Y419D01*
X2438Y419D01*
X2438Y423D01*
X2436Y423D01*
X2436Y431D01*
X2434Y431D01*
X2434Y441D01*
X2432Y441D01*
X2432Y455D01*
X2434Y455D01*
X2434Y465D01*
X2436Y465D01*
X2436Y473D01*
X2438Y473D01*
X2438Y477D01*
X2440Y477D01*
X2440Y481D01*
X2442Y481D01*
X2442Y485D01*
X2444Y485D01*
X2444Y489D01*
X2446Y489D01*
X2446Y491D01*
X2448Y491D01*
X2448Y495D01*
X2450Y495D01*
X2450Y497D01*
X2452Y497D01*
X2452Y499D01*
X2454Y499D01*
X2454Y501D01*
X2456Y501D01*
X2456Y503D01*
X2458Y503D01*
X2458Y505D01*
X2460Y505D01*
X2460Y507D01*
X2462Y507D01*
X2462Y509D01*
X2464Y509D01*
X2464Y511D01*
X2466Y511D01*
X2466Y513D01*
X2470Y513D01*
X2470Y515D01*
X2472Y515D01*
X2472Y517D01*
X2476Y517D01*
X2476Y519D01*
X2480Y519D01*
X2480Y521D01*
X2484Y521D01*
X2484Y523D01*
X2490Y523D01*
X2490Y525D01*
X2496Y525D01*
X2496Y527D01*
X2512Y527D01*
X2512Y529D01*
X2250Y529D01*
G37*
D02*
G36*
X234Y525D02*
X234Y499D01*
X262Y499D01*
X262Y525D01*
X234Y525D01*
G37*
D02*
G36*
X234Y499D02*
X234Y497D01*
X590Y497D01*
X590Y499D01*
X234Y499D01*
G37*
D02*
G36*
X234Y499D02*
X234Y497D01*
X590Y497D01*
X590Y499D01*
X234Y499D01*
G37*
D02*
G36*
X234Y497D02*
X234Y347D01*
X324Y347D01*
X324Y345D01*
X330Y345D01*
X330Y343D01*
X334Y343D01*
X334Y341D01*
X336Y341D01*
X336Y339D01*
X340Y339D01*
X340Y337D01*
X342Y337D01*
X342Y335D01*
X344Y335D01*
X344Y333D01*
X346Y333D01*
X346Y331D01*
X348Y331D01*
X348Y329D01*
X350Y329D01*
X350Y327D01*
X352Y327D01*
X352Y325D01*
X354Y325D01*
X354Y321D01*
X356Y321D01*
X356Y319D01*
X358Y319D01*
X358Y313D01*
X360Y313D01*
X360Y307D01*
X362Y307D01*
X362Y289D01*
X360Y289D01*
X360Y283D01*
X358Y283D01*
X358Y279D01*
X356Y279D01*
X356Y275D01*
X354Y275D01*
X354Y271D01*
X352Y271D01*
X352Y269D01*
X350Y269D01*
X350Y267D01*
X348Y267D01*
X348Y265D01*
X346Y265D01*
X346Y263D01*
X344Y263D01*
X344Y261D01*
X342Y261D01*
X342Y259D01*
X340Y259D01*
X340Y237D01*
X342Y237D01*
X342Y235D01*
X344Y235D01*
X344Y233D01*
X346Y233D01*
X346Y231D01*
X348Y231D01*
X348Y229D01*
X350Y229D01*
X350Y227D01*
X352Y227D01*
X352Y225D01*
X354Y225D01*
X354Y221D01*
X356Y221D01*
X356Y219D01*
X358Y219D01*
X358Y213D01*
X360Y213D01*
X360Y207D01*
X362Y207D01*
X362Y189D01*
X360Y189D01*
X360Y183D01*
X358Y183D01*
X358Y179D01*
X356Y179D01*
X356Y175D01*
X354Y175D01*
X354Y171D01*
X352Y171D01*
X352Y169D01*
X350Y169D01*
X350Y167D01*
X348Y167D01*
X348Y147D01*
X362Y147D01*
X362Y123D01*
X382Y123D01*
X382Y125D01*
X384Y125D01*
X384Y127D01*
X386Y127D01*
X386Y129D01*
X388Y129D01*
X388Y131D01*
X390Y131D01*
X390Y133D01*
X392Y133D01*
X392Y135D01*
X394Y135D01*
X394Y139D01*
X396Y139D01*
X396Y141D01*
X398Y141D01*
X398Y143D01*
X400Y143D01*
X400Y145D01*
X402Y145D01*
X402Y147D01*
X404Y147D01*
X404Y149D01*
X406Y149D01*
X406Y151D01*
X408Y151D01*
X408Y153D01*
X410Y153D01*
X410Y157D01*
X412Y157D01*
X412Y159D01*
X414Y159D01*
X414Y161D01*
X416Y161D01*
X416Y163D01*
X418Y163D01*
X418Y165D01*
X420Y165D01*
X420Y167D01*
X422Y167D01*
X422Y169D01*
X424Y169D01*
X424Y171D01*
X426Y171D01*
X426Y173D01*
X428Y173D01*
X428Y177D01*
X430Y177D01*
X430Y179D01*
X432Y179D01*
X432Y181D01*
X434Y181D01*
X434Y183D01*
X436Y183D01*
X436Y185D01*
X438Y185D01*
X438Y187D01*
X440Y187D01*
X440Y189D01*
X442Y189D01*
X442Y191D01*
X444Y191D01*
X444Y193D01*
X446Y193D01*
X446Y197D01*
X448Y197D01*
X448Y199D01*
X450Y199D01*
X450Y201D01*
X452Y201D01*
X452Y203D01*
X454Y203D01*
X454Y205D01*
X456Y205D01*
X456Y207D01*
X458Y207D01*
X458Y209D01*
X460Y209D01*
X460Y211D01*
X462Y211D01*
X462Y215D01*
X464Y215D01*
X464Y217D01*
X466Y217D01*
X466Y219D01*
X468Y219D01*
X468Y221D01*
X470Y221D01*
X470Y223D01*
X472Y223D01*
X472Y225D01*
X474Y225D01*
X474Y227D01*
X476Y227D01*
X476Y229D01*
X478Y229D01*
X478Y231D01*
X480Y231D01*
X480Y235D01*
X482Y235D01*
X482Y237D01*
X484Y237D01*
X484Y239D01*
X486Y239D01*
X486Y241D01*
X488Y241D01*
X488Y243D01*
X490Y243D01*
X490Y245D01*
X492Y245D01*
X492Y247D01*
X494Y247D01*
X494Y249D01*
X496Y249D01*
X496Y251D01*
X498Y251D01*
X498Y255D01*
X500Y255D01*
X500Y257D01*
X502Y257D01*
X502Y259D01*
X504Y259D01*
X504Y261D01*
X506Y261D01*
X506Y263D01*
X508Y263D01*
X508Y265D01*
X510Y265D01*
X510Y267D01*
X512Y267D01*
X512Y269D01*
X514Y269D01*
X514Y273D01*
X516Y273D01*
X516Y275D01*
X518Y275D01*
X518Y277D01*
X520Y277D01*
X520Y279D01*
X522Y279D01*
X522Y281D01*
X524Y281D01*
X524Y283D01*
X526Y283D01*
X526Y285D01*
X528Y285D01*
X528Y287D01*
X530Y287D01*
X530Y289D01*
X532Y289D01*
X532Y293D01*
X534Y293D01*
X534Y295D01*
X536Y295D01*
X536Y297D01*
X538Y297D01*
X538Y299D01*
X540Y299D01*
X540Y301D01*
X542Y301D01*
X542Y303D01*
X544Y303D01*
X544Y305D01*
X546Y305D01*
X546Y307D01*
X548Y307D01*
X548Y309D01*
X550Y309D01*
X550Y313D01*
X552Y313D01*
X552Y315D01*
X554Y315D01*
X554Y317D01*
X556Y317D01*
X556Y319D01*
X558Y319D01*
X558Y321D01*
X560Y321D01*
X560Y323D01*
X562Y323D01*
X562Y325D01*
X564Y325D01*
X564Y327D01*
X566Y327D01*
X566Y331D01*
X568Y331D01*
X568Y333D01*
X570Y333D01*
X570Y335D01*
X572Y335D01*
X572Y337D01*
X574Y337D01*
X574Y339D01*
X576Y339D01*
X576Y341D01*
X578Y341D01*
X578Y343D01*
X580Y343D01*
X580Y345D01*
X582Y345D01*
X582Y347D01*
X584Y347D01*
X584Y351D01*
X586Y351D01*
X586Y353D01*
X588Y353D01*
X588Y355D01*
X590Y355D01*
X590Y399D01*
X562Y399D01*
X562Y497D01*
X234Y497D01*
G37*
D02*
G36*
X662Y497D02*
X662Y485D01*
X684Y485D01*
X684Y487D01*
X686Y487D01*
X686Y489D01*
X688Y489D01*
X688Y491D01*
X692Y491D01*
X692Y493D01*
X696Y493D01*
X696Y495D01*
X702Y495D01*
X702Y497D01*
X662Y497D01*
G37*
D02*
G36*
X724Y497D02*
X724Y495D01*
X730Y495D01*
X730Y493D01*
X734Y493D01*
X734Y491D01*
X736Y491D01*
X736Y489D01*
X740Y489D01*
X740Y487D01*
X742Y487D01*
X742Y485D01*
X744Y485D01*
X744Y483D01*
X746Y483D01*
X746Y481D01*
X748Y481D01*
X748Y479D01*
X750Y479D01*
X750Y477D01*
X752Y477D01*
X752Y475D01*
X774Y475D01*
X774Y477D01*
X776Y477D01*
X776Y481D01*
X778Y481D01*
X778Y483D01*
X780Y483D01*
X780Y485D01*
X784Y485D01*
X784Y487D01*
X786Y487D01*
X786Y489D01*
X788Y489D01*
X788Y491D01*
X792Y491D01*
X792Y493D01*
X796Y493D01*
X796Y495D01*
X802Y495D01*
X802Y497D01*
X724Y497D01*
G37*
D02*
G36*
X1162Y497D02*
X1162Y485D01*
X1184Y485D01*
X1184Y487D01*
X1186Y487D01*
X1186Y489D01*
X1188Y489D01*
X1188Y491D01*
X1192Y491D01*
X1192Y493D01*
X1196Y493D01*
X1196Y495D01*
X1202Y495D01*
X1202Y497D01*
X1162Y497D01*
G37*
D02*
G36*
X1224Y497D02*
X1224Y495D01*
X1230Y495D01*
X1230Y493D01*
X1234Y493D01*
X1234Y491D01*
X1236Y491D01*
X1236Y489D01*
X1240Y489D01*
X1240Y487D01*
X1242Y487D01*
X1242Y485D01*
X1244Y485D01*
X1244Y483D01*
X1246Y483D01*
X1246Y481D01*
X1248Y481D01*
X1248Y479D01*
X1250Y479D01*
X1250Y477D01*
X1252Y477D01*
X1252Y475D01*
X1274Y475D01*
X1274Y477D01*
X1276Y477D01*
X1276Y481D01*
X1278Y481D01*
X1278Y483D01*
X1280Y483D01*
X1280Y485D01*
X1284Y485D01*
X1284Y487D01*
X1286Y487D01*
X1286Y489D01*
X1288Y489D01*
X1288Y491D01*
X1292Y491D01*
X1292Y493D01*
X1296Y493D01*
X1296Y495D01*
X1302Y495D01*
X1302Y497D01*
X1224Y497D01*
G37*
D02*
G36*
X2736Y497D02*
X2736Y495D01*
X2730Y495D01*
X2730Y493D01*
X2726Y493D01*
X2726Y491D01*
X2718Y491D01*
X2718Y489D01*
X2758Y489D01*
X2758Y497D01*
X2736Y497D01*
G37*
D02*
G36*
X2580Y489D02*
X2580Y487D01*
X2758Y487D01*
X2758Y489D01*
X2580Y489D01*
G37*
D02*
G36*
X2580Y489D02*
X2580Y487D01*
X2758Y487D01*
X2758Y489D01*
X2580Y489D01*
G37*
D02*
G36*
X2582Y487D02*
X2582Y483D01*
X2584Y483D01*
X2584Y479D01*
X2586Y479D01*
X2586Y475D01*
X2588Y475D01*
X2588Y471D01*
X2590Y471D01*
X2590Y463D01*
X2592Y463D01*
X2592Y433D01*
X2590Y433D01*
X2590Y425D01*
X2588Y425D01*
X2588Y421D01*
X2586Y421D01*
X2586Y417D01*
X2584Y417D01*
X2584Y413D01*
X2582Y413D01*
X2582Y409D01*
X2580Y409D01*
X2580Y405D01*
X2578Y405D01*
X2578Y403D01*
X2576Y403D01*
X2576Y401D01*
X2574Y401D01*
X2574Y397D01*
X2572Y397D01*
X2572Y395D01*
X2570Y395D01*
X2570Y393D01*
X2568Y393D01*
X2568Y391D01*
X2566Y391D01*
X2566Y389D01*
X2564Y389D01*
X2564Y387D01*
X2560Y387D01*
X2560Y385D01*
X2558Y385D01*
X2558Y383D01*
X2556Y383D01*
X2556Y381D01*
X2552Y381D01*
X2552Y379D01*
X2550Y379D01*
X2550Y377D01*
X2546Y377D01*
X2546Y375D01*
X2540Y375D01*
X2540Y373D01*
X2536Y373D01*
X2536Y371D01*
X2528Y371D01*
X2528Y369D01*
X2758Y369D01*
X2758Y487D01*
X2582Y487D01*
G37*
D02*
G36*
X752Y421D02*
X752Y419D01*
X750Y419D01*
X750Y417D01*
X748Y417D01*
X748Y415D01*
X746Y415D01*
X746Y413D01*
X744Y413D01*
X744Y411D01*
X742Y411D01*
X742Y409D01*
X740Y409D01*
X740Y407D01*
X736Y407D01*
X736Y405D01*
X734Y405D01*
X734Y403D01*
X730Y403D01*
X730Y401D01*
X724Y401D01*
X724Y399D01*
X802Y399D01*
X802Y401D01*
X796Y401D01*
X796Y403D01*
X792Y403D01*
X792Y405D01*
X788Y405D01*
X788Y407D01*
X786Y407D01*
X786Y409D01*
X784Y409D01*
X784Y411D01*
X780Y411D01*
X780Y413D01*
X778Y413D01*
X778Y415D01*
X776Y415D01*
X776Y419D01*
X774Y419D01*
X774Y421D01*
X752Y421D01*
G37*
D02*
G36*
X1252Y421D02*
X1252Y419D01*
X1250Y419D01*
X1250Y417D01*
X1248Y417D01*
X1248Y415D01*
X1246Y415D01*
X1246Y413D01*
X1244Y413D01*
X1244Y411D01*
X1242Y411D01*
X1242Y409D01*
X1240Y409D01*
X1240Y407D01*
X1236Y407D01*
X1236Y405D01*
X1234Y405D01*
X1234Y403D01*
X1230Y403D01*
X1230Y401D01*
X1224Y401D01*
X1224Y399D01*
X1302Y399D01*
X1302Y401D01*
X1296Y401D01*
X1296Y403D01*
X1292Y403D01*
X1292Y405D01*
X1288Y405D01*
X1288Y407D01*
X1286Y407D01*
X1286Y409D01*
X1284Y409D01*
X1284Y411D01*
X1280Y411D01*
X1280Y413D01*
X1278Y413D01*
X1278Y415D01*
X1276Y415D01*
X1276Y419D01*
X1274Y419D01*
X1274Y421D01*
X1252Y421D01*
G37*
D02*
G36*
X662Y411D02*
X662Y399D01*
X702Y399D01*
X702Y401D01*
X696Y401D01*
X696Y403D01*
X692Y403D01*
X692Y405D01*
X688Y405D01*
X688Y407D01*
X686Y407D01*
X686Y409D01*
X684Y409D01*
X684Y411D01*
X662Y411D01*
G37*
D02*
G36*
X1162Y411D02*
X1162Y399D01*
X1202Y399D01*
X1202Y401D01*
X1196Y401D01*
X1196Y403D01*
X1192Y403D01*
X1192Y405D01*
X1188Y405D01*
X1188Y407D01*
X1186Y407D01*
X1186Y409D01*
X1184Y409D01*
X1184Y411D01*
X1162Y411D01*
G37*
D02*
G36*
X634Y399D02*
X634Y397D01*
X1564Y397D01*
X1564Y399D01*
X634Y399D01*
G37*
D02*
G36*
X634Y399D02*
X634Y397D01*
X1564Y397D01*
X1564Y399D01*
X634Y399D01*
G37*
D02*
G36*
X634Y399D02*
X634Y397D01*
X1564Y397D01*
X1564Y399D01*
X634Y399D01*
G37*
D02*
G36*
X634Y399D02*
X634Y397D01*
X1564Y397D01*
X1564Y399D01*
X634Y399D01*
G37*
D02*
G36*
X634Y399D02*
X634Y397D01*
X1564Y397D01*
X1564Y399D01*
X634Y399D01*
G37*
D02*
G36*
X634Y399D02*
X634Y397D01*
X1564Y397D01*
X1564Y399D01*
X634Y399D01*
G37*
D02*
G36*
X634Y397D02*
X634Y341D01*
X632Y341D01*
X632Y337D01*
X630Y337D01*
X630Y333D01*
X628Y333D01*
X628Y331D01*
X626Y331D01*
X626Y329D01*
X624Y329D01*
X624Y327D01*
X622Y327D01*
X622Y325D01*
X620Y325D01*
X620Y323D01*
X618Y323D01*
X618Y319D01*
X616Y319D01*
X616Y317D01*
X614Y317D01*
X614Y315D01*
X612Y315D01*
X612Y313D01*
X610Y313D01*
X610Y311D01*
X608Y311D01*
X608Y309D01*
X606Y309D01*
X606Y307D01*
X604Y307D01*
X604Y305D01*
X602Y305D01*
X602Y303D01*
X600Y303D01*
X600Y299D01*
X598Y299D01*
X598Y297D01*
X596Y297D01*
X596Y295D01*
X594Y295D01*
X594Y293D01*
X592Y293D01*
X592Y291D01*
X590Y291D01*
X590Y289D01*
X588Y289D01*
X588Y287D01*
X586Y287D01*
X586Y285D01*
X584Y285D01*
X584Y281D01*
X582Y281D01*
X582Y279D01*
X580Y279D01*
X580Y277D01*
X578Y277D01*
X578Y275D01*
X576Y275D01*
X576Y273D01*
X574Y273D01*
X574Y271D01*
X572Y271D01*
X572Y269D01*
X570Y269D01*
X570Y267D01*
X568Y267D01*
X568Y265D01*
X566Y265D01*
X566Y261D01*
X564Y261D01*
X564Y259D01*
X562Y259D01*
X562Y257D01*
X560Y257D01*
X560Y255D01*
X558Y255D01*
X558Y253D01*
X556Y253D01*
X556Y251D01*
X554Y251D01*
X554Y249D01*
X552Y249D01*
X552Y247D01*
X550Y247D01*
X550Y245D01*
X548Y245D01*
X548Y241D01*
X546Y241D01*
X546Y239D01*
X544Y239D01*
X544Y237D01*
X542Y237D01*
X542Y235D01*
X540Y235D01*
X540Y233D01*
X538Y233D01*
X538Y231D01*
X536Y231D01*
X536Y229D01*
X534Y229D01*
X534Y227D01*
X532Y227D01*
X532Y223D01*
X530Y223D01*
X530Y221D01*
X528Y221D01*
X528Y219D01*
X526Y219D01*
X526Y217D01*
X524Y217D01*
X524Y215D01*
X522Y215D01*
X522Y213D01*
X520Y213D01*
X520Y211D01*
X518Y211D01*
X518Y209D01*
X516Y209D01*
X516Y207D01*
X514Y207D01*
X514Y203D01*
X512Y203D01*
X512Y201D01*
X510Y201D01*
X510Y199D01*
X508Y199D01*
X508Y197D01*
X506Y197D01*
X506Y195D01*
X504Y195D01*
X504Y193D01*
X502Y193D01*
X502Y191D01*
X500Y191D01*
X500Y189D01*
X498Y189D01*
X498Y187D01*
X496Y187D01*
X496Y183D01*
X494Y183D01*
X494Y181D01*
X492Y181D01*
X492Y179D01*
X490Y179D01*
X490Y177D01*
X488Y177D01*
X488Y175D01*
X486Y175D01*
X486Y173D01*
X484Y173D01*
X484Y171D01*
X574Y171D01*
X574Y169D01*
X582Y169D01*
X582Y167D01*
X588Y167D01*
X588Y165D01*
X592Y165D01*
X592Y163D01*
X596Y163D01*
X596Y161D01*
X600Y161D01*
X600Y159D01*
X604Y159D01*
X604Y157D01*
X606Y157D01*
X606Y155D01*
X608Y155D01*
X608Y153D01*
X610Y153D01*
X610Y151D01*
X612Y151D01*
X612Y149D01*
X1604Y149D01*
X1604Y151D01*
X1598Y151D01*
X1598Y153D01*
X1594Y153D01*
X1594Y155D01*
X1590Y155D01*
X1590Y157D01*
X1586Y157D01*
X1586Y159D01*
X1584Y159D01*
X1584Y161D01*
X1582Y161D01*
X1582Y163D01*
X1580Y163D01*
X1580Y165D01*
X1578Y165D01*
X1578Y167D01*
X1576Y167D01*
X1576Y169D01*
X1574Y169D01*
X1574Y171D01*
X1572Y171D01*
X1572Y175D01*
X1570Y175D01*
X1570Y179D01*
X1568Y179D01*
X1568Y183D01*
X1566Y183D01*
X1566Y189D01*
X1564Y189D01*
X1564Y207D01*
X1566Y207D01*
X1566Y213D01*
X1568Y213D01*
X1568Y217D01*
X1570Y217D01*
X1570Y221D01*
X1572Y221D01*
X1572Y225D01*
X1574Y225D01*
X1574Y227D01*
X1576Y227D01*
X1576Y229D01*
X1578Y229D01*
X1578Y231D01*
X1580Y231D01*
X1580Y233D01*
X1582Y233D01*
X1582Y235D01*
X1584Y235D01*
X1584Y237D01*
X1586Y237D01*
X1586Y259D01*
X1584Y259D01*
X1584Y261D01*
X1582Y261D01*
X1582Y263D01*
X1580Y263D01*
X1580Y265D01*
X1578Y265D01*
X1578Y267D01*
X1576Y267D01*
X1576Y269D01*
X1574Y269D01*
X1574Y271D01*
X1572Y271D01*
X1572Y275D01*
X1570Y275D01*
X1570Y279D01*
X1568Y279D01*
X1568Y283D01*
X1566Y283D01*
X1566Y289D01*
X1564Y289D01*
X1564Y307D01*
X1566Y307D01*
X1566Y313D01*
X1568Y313D01*
X1568Y317D01*
X1570Y317D01*
X1570Y321D01*
X1572Y321D01*
X1572Y325D01*
X1574Y325D01*
X1574Y327D01*
X1576Y327D01*
X1576Y329D01*
X1578Y329D01*
X1578Y331D01*
X1580Y331D01*
X1580Y333D01*
X1582Y333D01*
X1582Y335D01*
X1584Y335D01*
X1584Y337D01*
X1586Y337D01*
X1586Y359D01*
X1584Y359D01*
X1584Y361D01*
X1582Y361D01*
X1582Y363D01*
X1580Y363D01*
X1580Y365D01*
X1578Y365D01*
X1578Y367D01*
X1576Y367D01*
X1576Y369D01*
X1574Y369D01*
X1574Y371D01*
X1572Y371D01*
X1572Y375D01*
X1570Y375D01*
X1570Y379D01*
X1568Y379D01*
X1568Y383D01*
X1566Y383D01*
X1566Y389D01*
X1564Y389D01*
X1564Y397D01*
X634Y397D01*
G37*
D02*
G36*
X2250Y369D02*
X2250Y367D01*
X2758Y367D01*
X2758Y369D01*
X2250Y369D01*
G37*
D02*
G36*
X2250Y369D02*
X2250Y367D01*
X2758Y367D01*
X2758Y369D01*
X2250Y369D01*
G37*
D02*
G36*
X2248Y367D02*
X2248Y365D01*
X2246Y365D01*
X2246Y363D01*
X2244Y363D01*
X2244Y361D01*
X2242Y361D01*
X2242Y359D01*
X2238Y359D01*
X2238Y337D01*
X2242Y337D01*
X2242Y335D01*
X2244Y335D01*
X2244Y333D01*
X2246Y333D01*
X2246Y331D01*
X2248Y331D01*
X2248Y329D01*
X2250Y329D01*
X2250Y327D01*
X2252Y327D01*
X2252Y323D01*
X2254Y323D01*
X2254Y321D01*
X2256Y321D01*
X2256Y317D01*
X2258Y317D01*
X2258Y311D01*
X2260Y311D01*
X2260Y305D01*
X2262Y305D01*
X2262Y291D01*
X2260Y291D01*
X2260Y285D01*
X2258Y285D01*
X2258Y279D01*
X2256Y279D01*
X2256Y277D01*
X2254Y277D01*
X2254Y273D01*
X2252Y273D01*
X2252Y269D01*
X2250Y269D01*
X2250Y267D01*
X2248Y267D01*
X2248Y265D01*
X2246Y265D01*
X2246Y263D01*
X2244Y263D01*
X2244Y261D01*
X2242Y261D01*
X2242Y259D01*
X2238Y259D01*
X2238Y237D01*
X2242Y237D01*
X2242Y235D01*
X2244Y235D01*
X2244Y233D01*
X2246Y233D01*
X2246Y231D01*
X2248Y231D01*
X2248Y229D01*
X2250Y229D01*
X2250Y227D01*
X2252Y227D01*
X2252Y223D01*
X2254Y223D01*
X2254Y221D01*
X2256Y221D01*
X2256Y217D01*
X2258Y217D01*
X2258Y211D01*
X2260Y211D01*
X2260Y205D01*
X2262Y205D01*
X2262Y191D01*
X2260Y191D01*
X2260Y185D01*
X2258Y185D01*
X2258Y179D01*
X2256Y179D01*
X2256Y177D01*
X2254Y177D01*
X2254Y173D01*
X2252Y173D01*
X2252Y169D01*
X2250Y169D01*
X2250Y167D01*
X2248Y167D01*
X2248Y165D01*
X2246Y165D01*
X2246Y163D01*
X2244Y163D01*
X2244Y161D01*
X2242Y161D01*
X2242Y159D01*
X2238Y159D01*
X2238Y157D01*
X2236Y157D01*
X2236Y155D01*
X2232Y155D01*
X2232Y153D01*
X2226Y153D01*
X2226Y151D01*
X2220Y151D01*
X2220Y149D01*
X2758Y149D01*
X2758Y367D01*
X2248Y367D01*
G37*
D02*
G36*
X234Y347D02*
X234Y119D01*
X262Y119D01*
X262Y147D01*
X276Y147D01*
X276Y169D01*
X274Y169D01*
X274Y171D01*
X272Y171D01*
X272Y173D01*
X270Y173D01*
X270Y177D01*
X268Y177D01*
X268Y181D01*
X266Y181D01*
X266Y185D01*
X264Y185D01*
X264Y197D01*
X262Y197D01*
X262Y199D01*
X264Y199D01*
X264Y211D01*
X266Y211D01*
X266Y215D01*
X268Y215D01*
X268Y219D01*
X270Y219D01*
X270Y223D01*
X272Y223D01*
X272Y225D01*
X274Y225D01*
X274Y227D01*
X276Y227D01*
X276Y231D01*
X278Y231D01*
X278Y233D01*
X280Y233D01*
X280Y235D01*
X284Y235D01*
X284Y237D01*
X286Y237D01*
X286Y259D01*
X284Y259D01*
X284Y261D01*
X280Y261D01*
X280Y263D01*
X278Y263D01*
X278Y265D01*
X276Y265D01*
X276Y269D01*
X274Y269D01*
X274Y271D01*
X272Y271D01*
X272Y273D01*
X270Y273D01*
X270Y277D01*
X268Y277D01*
X268Y281D01*
X266Y281D01*
X266Y285D01*
X264Y285D01*
X264Y297D01*
X262Y297D01*
X262Y299D01*
X264Y299D01*
X264Y311D01*
X266Y311D01*
X266Y315D01*
X268Y315D01*
X268Y319D01*
X270Y319D01*
X270Y323D01*
X272Y323D01*
X272Y325D01*
X274Y325D01*
X274Y327D01*
X276Y327D01*
X276Y331D01*
X278Y331D01*
X278Y333D01*
X280Y333D01*
X280Y335D01*
X284Y335D01*
X284Y337D01*
X286Y337D01*
X286Y339D01*
X288Y339D01*
X288Y341D01*
X292Y341D01*
X292Y343D01*
X296Y343D01*
X296Y345D01*
X302Y345D01*
X302Y347D01*
X234Y347D01*
G37*
D02*
G36*
X482Y171D02*
X482Y169D01*
X480Y169D01*
X480Y165D01*
X478Y165D01*
X478Y163D01*
X476Y163D01*
X476Y161D01*
X474Y161D01*
X474Y159D01*
X472Y159D01*
X472Y157D01*
X470Y157D01*
X470Y155D01*
X468Y155D01*
X468Y153D01*
X466Y153D01*
X466Y151D01*
X464Y151D01*
X464Y149D01*
X462Y149D01*
X462Y145D01*
X460Y145D01*
X460Y143D01*
X458Y143D01*
X458Y141D01*
X456Y141D01*
X456Y139D01*
X454Y139D01*
X454Y137D01*
X452Y137D01*
X452Y135D01*
X450Y135D01*
X450Y133D01*
X448Y133D01*
X448Y131D01*
X446Y131D01*
X446Y129D01*
X444Y129D01*
X444Y125D01*
X442Y125D01*
X442Y123D01*
X440Y123D01*
X440Y121D01*
X438Y121D01*
X438Y119D01*
X436Y119D01*
X436Y117D01*
X434Y117D01*
X434Y115D01*
X432Y115D01*
X432Y113D01*
X430Y113D01*
X430Y111D01*
X428Y111D01*
X428Y107D01*
X426Y107D01*
X426Y105D01*
X424Y105D01*
X424Y103D01*
X422Y103D01*
X422Y101D01*
X420Y101D01*
X420Y99D01*
X418Y99D01*
X418Y97D01*
X416Y97D01*
X416Y95D01*
X414Y95D01*
X414Y93D01*
X412Y93D01*
X412Y91D01*
X410Y91D01*
X410Y87D01*
X408Y87D01*
X408Y85D01*
X406Y85D01*
X406Y83D01*
X404Y83D01*
X404Y81D01*
X402Y81D01*
X402Y79D01*
X398Y79D01*
X398Y77D01*
X390Y77D01*
X390Y75D01*
X362Y75D01*
X362Y41D01*
X502Y41D01*
X502Y61D01*
X500Y61D01*
X500Y63D01*
X498Y63D01*
X498Y67D01*
X496Y67D01*
X496Y71D01*
X494Y71D01*
X494Y77D01*
X492Y77D01*
X492Y85D01*
X490Y85D01*
X490Y111D01*
X492Y111D01*
X492Y119D01*
X494Y119D01*
X494Y125D01*
X496Y125D01*
X496Y129D01*
X498Y129D01*
X498Y133D01*
X500Y133D01*
X500Y135D01*
X502Y135D01*
X502Y139D01*
X504Y139D01*
X504Y141D01*
X506Y141D01*
X506Y145D01*
X508Y145D01*
X508Y147D01*
X510Y147D01*
X510Y149D01*
X512Y149D01*
X512Y151D01*
X514Y151D01*
X514Y153D01*
X516Y153D01*
X516Y155D01*
X520Y155D01*
X520Y157D01*
X522Y157D01*
X522Y159D01*
X526Y159D01*
X526Y161D01*
X528Y161D01*
X528Y163D01*
X532Y163D01*
X532Y165D01*
X538Y165D01*
X538Y167D01*
X542Y167D01*
X542Y169D01*
X552Y169D01*
X552Y171D01*
X482Y171D01*
G37*
D02*
G36*
X614Y149D02*
X614Y147D01*
X2758Y147D01*
X2758Y149D01*
X614Y149D01*
G37*
D02*
G36*
X614Y149D02*
X614Y147D01*
X2758Y147D01*
X2758Y149D01*
X614Y149D01*
G37*
D02*
G36*
X614Y149D02*
X614Y147D01*
X2758Y147D01*
X2758Y149D01*
X614Y149D01*
G37*
D02*
G36*
X616Y147D02*
X616Y145D01*
X618Y145D01*
X618Y143D01*
X620Y143D01*
X620Y141D01*
X622Y141D01*
X622Y137D01*
X624Y137D01*
X624Y135D01*
X626Y135D01*
X626Y131D01*
X628Y131D01*
X628Y127D01*
X630Y127D01*
X630Y123D01*
X632Y123D01*
X632Y117D01*
X634Y117D01*
X634Y107D01*
X636Y107D01*
X636Y89D01*
X634Y89D01*
X634Y79D01*
X632Y79D01*
X632Y73D01*
X630Y73D01*
X630Y69D01*
X628Y69D01*
X628Y65D01*
X626Y65D01*
X626Y61D01*
X624Y61D01*
X624Y41D01*
X2758Y41D01*
X2758Y147D01*
X616Y147D01*
G37*
D02*
G36*
X2662Y521D02*
X2737Y521D01*
X2737Y489D01*
X2662Y489D01*
X2662Y521D01*
G37*
D02*
G36*
X2748Y607D02*
X2776Y607D01*
X2776Y532D01*
X2748Y532D01*
X2748Y607D01*
G37*
D02*
G36*
X2472Y401D02*
X2547Y401D01*
X2547Y369D01*
X2472Y369D01*
X2472Y401D01*
G37*
D02*
G36*
X2428Y487D02*
X2460Y487D01*
X2460Y412D01*
X2428Y412D01*
X2428Y487D01*
G37*
D02*
G36*
X258Y1572D02*
X292Y1572D01*
X292Y1527D01*
X258Y1527D01*
X258Y1572D01*
G37*
D02*
G36*
X1187Y431D02*
X1232Y431D01*
X1232Y399D01*
X1187Y399D01*
X1187Y431D01*
G37*
D02*
G36*
X689Y431D02*
X734Y431D01*
X734Y399D01*
X689Y399D01*
X689Y431D01*
G37*
D02*
G04 End of Copper0*
M02*