G04 MADE WITH FRITZING*
G04 WWW.FRITZING.ORG*
G04 DOUBLE SIDED*
G04 HOLES PLATED*
G04 CONTOUR ON CENTER OF CONTOUR VECTOR*
%ASAXBY*%
%FSLAX23Y23*%
%MOIN*%
%OFA0B0*%
%SFA1.0B1.0*%
%ADD10C,0.075000*%
%ADD11C,0.078000*%
%ADD12C,0.140000*%
%ADD13C,0.079370*%
%ADD14R,0.079370X0.079370*%
%ADD15C,0.012000*%
%ADD16C,0.024000*%
%LNCOPPER1*%
G90*
G70*
G54D10*
X109Y1631D03*
X428Y1645D03*
X1301Y1577D03*
X1715Y1569D03*
X893Y1411D03*
X425Y185D03*
X2330Y1625D03*
G54D11*
X2213Y198D03*
X2213Y298D03*
X2213Y398D03*
X2213Y498D03*
X2213Y598D03*
X2213Y698D03*
X2213Y798D03*
X2213Y898D03*
X2213Y998D03*
X2213Y1098D03*
X2213Y1198D03*
X2213Y1298D03*
X2213Y1398D03*
X2213Y1498D03*
X2213Y1598D03*
X1613Y198D03*
X1613Y298D03*
X1613Y398D03*
X1613Y498D03*
X1613Y598D03*
X1613Y698D03*
X1613Y798D03*
X1613Y898D03*
X1613Y998D03*
X1613Y1098D03*
X1613Y1198D03*
X1613Y1298D03*
X1613Y1398D03*
X1613Y1498D03*
X1613Y1598D03*
G54D12*
X2513Y688D03*
X2513Y448D03*
X2703Y568D03*
G54D13*
X1113Y1348D03*
X1213Y1348D03*
X1313Y1348D03*
X613Y1348D03*
X713Y1348D03*
X813Y1348D03*
X613Y1048D03*
X713Y1048D03*
X813Y1048D03*
X1113Y448D03*
X1213Y448D03*
X1313Y448D03*
X613Y448D03*
X713Y448D03*
X813Y448D03*
X613Y748D03*
X713Y748D03*
X813Y748D03*
X1113Y748D03*
X1213Y748D03*
X1313Y748D03*
X1113Y1048D03*
X1213Y1048D03*
X1313Y1048D03*
X313Y1448D03*
X313Y1548D03*
X313Y1648D03*
X313Y998D03*
X313Y1098D03*
X313Y1198D03*
X313Y548D03*
X313Y648D03*
X313Y748D03*
X313Y98D03*
X313Y198D03*
X313Y298D03*
G54D14*
X1113Y1348D03*
X613Y1348D03*
X613Y1048D03*
X1113Y448D03*
X613Y448D03*
X613Y748D03*
X1113Y748D03*
X1113Y1048D03*
X313Y1448D03*
X313Y998D03*
X313Y548D03*
X313Y98D03*
G54D15*
X1591Y1219D02*
X1463Y1347D01*
D02*
X1463Y1347D02*
X1338Y1348D01*
D02*
X1013Y1247D02*
X1463Y1247D01*
D02*
X1463Y1247D02*
X1595Y1115D01*
D02*
X913Y1347D02*
X1013Y1247D01*
D02*
X838Y1348D02*
X913Y1347D01*
D02*
X1338Y1048D02*
X1562Y1048D01*
D02*
X1562Y1048D02*
X1595Y1015D01*
D02*
X1013Y948D02*
X1562Y948D01*
D02*
X1562Y948D02*
X1595Y915D01*
D02*
X913Y1048D02*
X1013Y948D01*
D02*
X843Y1048D02*
X913Y1048D01*
D02*
X1013Y648D02*
X1562Y648D01*
D02*
X1562Y648D02*
X1591Y677D01*
D02*
X913Y748D02*
X1013Y648D01*
D02*
X843Y748D02*
X913Y748D01*
D02*
X1562Y748D02*
X1343Y748D01*
D02*
X1591Y777D02*
X1562Y748D01*
D02*
X1591Y576D02*
X1463Y447D01*
D02*
X1463Y447D02*
X1343Y448D01*
D02*
X1463Y347D02*
X1591Y476D01*
D02*
X1013Y347D02*
X1463Y347D01*
D02*
X913Y447D02*
X1013Y347D01*
D02*
X838Y448D02*
X913Y447D01*
D02*
X1595Y380D02*
X1387Y172D01*
D02*
X1387Y172D02*
X987Y173D01*
D02*
X987Y173D02*
X888Y272D01*
D02*
X888Y272D02*
X588Y272D01*
D02*
X588Y272D02*
X462Y398D01*
D02*
X462Y398D02*
X462Y698D01*
D02*
X462Y698D02*
X437Y723D01*
D02*
X437Y723D02*
X437Y1098D01*
D02*
X437Y1098D02*
X413Y1123D01*
D02*
X413Y1123D02*
X413Y1548D01*
D02*
X413Y1548D02*
X331Y1630D01*
D02*
X1595Y280D02*
X1463Y148D01*
D02*
X1463Y148D02*
X962Y148D01*
D02*
X962Y148D02*
X863Y247D01*
D02*
X863Y247D02*
X563Y247D01*
D02*
X563Y247D02*
X437Y373D01*
D02*
X437Y373D02*
X437Y673D01*
D02*
X437Y673D02*
X413Y698D01*
D02*
X413Y698D02*
X413Y1073D01*
D02*
X413Y1073D02*
X328Y1178D01*
D02*
X1538Y123D02*
X938Y123D01*
D02*
X938Y123D02*
X838Y223D01*
D02*
X1595Y180D02*
X1538Y123D01*
D02*
X838Y223D02*
X538Y223D01*
D02*
X538Y223D02*
X413Y347D01*
D02*
X413Y347D02*
X413Y648D01*
D02*
X413Y648D02*
X331Y730D01*
D02*
X2113Y98D02*
X913Y98D01*
D02*
X913Y98D02*
X812Y197D01*
D02*
X2195Y180D02*
X2113Y98D01*
D02*
X812Y197D02*
X512Y197D01*
D02*
X512Y197D02*
X413Y297D01*
D02*
X413Y297D02*
X343Y298D01*
G54D16*
D02*
X1113Y1379D02*
X1113Y1497D01*
D02*
X612Y1497D02*
X613Y1379D01*
D02*
X1113Y1497D02*
X612Y1497D01*
D02*
X2387Y822D02*
X2387Y1423D01*
D02*
X2387Y1423D02*
X2234Y1576D01*
D02*
X2471Y732D02*
X2387Y822D01*
D02*
X1113Y1497D02*
X1287Y1673D01*
D02*
X1287Y1673D02*
X2137Y1673D01*
D02*
X2137Y1673D02*
X2191Y1619D01*
G36*
X40Y1705D02*
X40Y1399D01*
X262Y1399D01*
X262Y1497D01*
X276Y1497D01*
X276Y1519D01*
X274Y1519D01*
X274Y1521D01*
X272Y1521D01*
X272Y1523D01*
X270Y1523D01*
X270Y1527D01*
X268Y1527D01*
X268Y1531D01*
X266Y1531D01*
X266Y1535D01*
X264Y1535D01*
X264Y1547D01*
X262Y1547D01*
X262Y1549D01*
X264Y1549D01*
X264Y1561D01*
X266Y1561D01*
X266Y1565D01*
X268Y1565D01*
X268Y1569D01*
X270Y1569D01*
X270Y1573D01*
X272Y1573D01*
X272Y1575D01*
X274Y1575D01*
X274Y1577D01*
X276Y1577D01*
X276Y1581D01*
X278Y1581D01*
X278Y1583D01*
X280Y1583D01*
X280Y1585D01*
X284Y1585D01*
X284Y1587D01*
X286Y1587D01*
X286Y1609D01*
X284Y1609D01*
X284Y1611D01*
X280Y1611D01*
X280Y1613D01*
X278Y1613D01*
X278Y1615D01*
X276Y1615D01*
X276Y1619D01*
X274Y1619D01*
X274Y1621D01*
X272Y1621D01*
X272Y1623D01*
X270Y1623D01*
X270Y1627D01*
X268Y1627D01*
X268Y1631D01*
X266Y1631D01*
X266Y1635D01*
X264Y1635D01*
X264Y1647D01*
X262Y1647D01*
X262Y1649D01*
X264Y1649D01*
X264Y1661D01*
X266Y1661D01*
X266Y1665D01*
X268Y1665D01*
X268Y1669D01*
X270Y1669D01*
X270Y1673D01*
X272Y1673D01*
X272Y1675D01*
X274Y1675D01*
X274Y1677D01*
X276Y1677D01*
X276Y1681D01*
X278Y1681D01*
X278Y1683D01*
X280Y1683D01*
X280Y1685D01*
X284Y1685D01*
X284Y1705D01*
X40Y1705D01*
G37*
D02*
G36*
X360Y1559D02*
X360Y1557D01*
X362Y1557D01*
X362Y1539D01*
X360Y1539D01*
X360Y1533D01*
X358Y1533D01*
X358Y1529D01*
X356Y1529D01*
X356Y1525D01*
X354Y1525D01*
X354Y1521D01*
X352Y1521D01*
X352Y1519D01*
X350Y1519D01*
X350Y1517D01*
X348Y1517D01*
X348Y1497D01*
X362Y1497D01*
X362Y1399D01*
X398Y1399D01*
X398Y1541D01*
X396Y1541D01*
X396Y1543D01*
X394Y1543D01*
X394Y1545D01*
X392Y1545D01*
X392Y1547D01*
X390Y1547D01*
X390Y1549D01*
X388Y1549D01*
X388Y1551D01*
X386Y1551D01*
X386Y1553D01*
X384Y1553D01*
X384Y1555D01*
X382Y1555D01*
X382Y1557D01*
X380Y1557D01*
X380Y1559D01*
X360Y1559D01*
G37*
D02*
G36*
X40Y1399D02*
X40Y1397D01*
X398Y1397D01*
X398Y1399D01*
X40Y1399D01*
G37*
D02*
G36*
X40Y1399D02*
X40Y1397D01*
X398Y1397D01*
X398Y1399D01*
X40Y1399D01*
G37*
D02*
G36*
X40Y1397D02*
X40Y1247D01*
X324Y1247D01*
X324Y1245D01*
X330Y1245D01*
X330Y1243D01*
X334Y1243D01*
X334Y1241D01*
X336Y1241D01*
X336Y1239D01*
X340Y1239D01*
X340Y1237D01*
X342Y1237D01*
X342Y1235D01*
X344Y1235D01*
X344Y1233D01*
X346Y1233D01*
X346Y1231D01*
X348Y1231D01*
X348Y1229D01*
X350Y1229D01*
X350Y1227D01*
X352Y1227D01*
X352Y1225D01*
X354Y1225D01*
X354Y1221D01*
X356Y1221D01*
X356Y1219D01*
X358Y1219D01*
X358Y1213D01*
X360Y1213D01*
X360Y1207D01*
X362Y1207D01*
X362Y1189D01*
X360Y1189D01*
X360Y1163D01*
X362Y1163D01*
X362Y1161D01*
X364Y1161D01*
X364Y1159D01*
X366Y1159D01*
X366Y1155D01*
X368Y1155D01*
X368Y1153D01*
X370Y1153D01*
X370Y1151D01*
X372Y1151D01*
X372Y1149D01*
X374Y1149D01*
X374Y1145D01*
X376Y1145D01*
X376Y1143D01*
X378Y1143D01*
X378Y1141D01*
X398Y1141D01*
X398Y1397D01*
X40Y1397D01*
G37*
D02*
G36*
X40Y1247D02*
X40Y949D01*
X262Y949D01*
X262Y1047D01*
X276Y1047D01*
X276Y1069D01*
X274Y1069D01*
X274Y1071D01*
X272Y1071D01*
X272Y1073D01*
X270Y1073D01*
X270Y1077D01*
X268Y1077D01*
X268Y1081D01*
X266Y1081D01*
X266Y1085D01*
X264Y1085D01*
X264Y1097D01*
X262Y1097D01*
X262Y1099D01*
X264Y1099D01*
X264Y1111D01*
X266Y1111D01*
X266Y1115D01*
X268Y1115D01*
X268Y1119D01*
X270Y1119D01*
X270Y1123D01*
X272Y1123D01*
X272Y1125D01*
X274Y1125D01*
X274Y1127D01*
X276Y1127D01*
X276Y1131D01*
X278Y1131D01*
X278Y1133D01*
X280Y1133D01*
X280Y1135D01*
X284Y1135D01*
X284Y1137D01*
X286Y1137D01*
X286Y1159D01*
X284Y1159D01*
X284Y1161D01*
X280Y1161D01*
X280Y1163D01*
X278Y1163D01*
X278Y1165D01*
X276Y1165D01*
X276Y1169D01*
X274Y1169D01*
X274Y1171D01*
X272Y1171D01*
X272Y1173D01*
X270Y1173D01*
X270Y1177D01*
X268Y1177D01*
X268Y1181D01*
X266Y1181D01*
X266Y1185D01*
X264Y1185D01*
X264Y1197D01*
X262Y1197D01*
X262Y1199D01*
X264Y1199D01*
X264Y1211D01*
X266Y1211D01*
X266Y1215D01*
X268Y1215D01*
X268Y1219D01*
X270Y1219D01*
X270Y1223D01*
X272Y1223D01*
X272Y1225D01*
X274Y1225D01*
X274Y1227D01*
X276Y1227D01*
X276Y1231D01*
X278Y1231D01*
X278Y1233D01*
X280Y1233D01*
X280Y1235D01*
X284Y1235D01*
X284Y1237D01*
X286Y1237D01*
X286Y1239D01*
X288Y1239D01*
X288Y1241D01*
X292Y1241D01*
X292Y1243D01*
X296Y1243D01*
X296Y1245D01*
X302Y1245D01*
X302Y1247D01*
X40Y1247D01*
G37*
D02*
G36*
X360Y1089D02*
X360Y1083D01*
X358Y1083D01*
X358Y1079D01*
X356Y1079D01*
X356Y1075D01*
X354Y1075D01*
X354Y1071D01*
X352Y1071D01*
X352Y1069D01*
X350Y1069D01*
X350Y1067D01*
X348Y1067D01*
X348Y1047D01*
X362Y1047D01*
X362Y949D01*
X398Y949D01*
X398Y1067D01*
X396Y1067D01*
X396Y1069D01*
X394Y1069D01*
X394Y1073D01*
X392Y1073D01*
X392Y1075D01*
X390Y1075D01*
X390Y1077D01*
X388Y1077D01*
X388Y1079D01*
X386Y1079D01*
X386Y1083D01*
X384Y1083D01*
X384Y1085D01*
X382Y1085D01*
X382Y1087D01*
X380Y1087D01*
X380Y1089D01*
X360Y1089D01*
G37*
D02*
G36*
X40Y949D02*
X40Y947D01*
X398Y947D01*
X398Y949D01*
X40Y949D01*
G37*
D02*
G36*
X40Y949D02*
X40Y947D01*
X398Y947D01*
X398Y949D01*
X40Y949D01*
G37*
D02*
G36*
X40Y947D02*
X40Y797D01*
X324Y797D01*
X324Y795D01*
X330Y795D01*
X330Y793D01*
X334Y793D01*
X334Y791D01*
X336Y791D01*
X336Y789D01*
X340Y789D01*
X340Y787D01*
X342Y787D01*
X342Y785D01*
X344Y785D01*
X344Y783D01*
X346Y783D01*
X346Y781D01*
X348Y781D01*
X348Y779D01*
X350Y779D01*
X350Y777D01*
X352Y777D01*
X352Y775D01*
X354Y775D01*
X354Y771D01*
X356Y771D01*
X356Y769D01*
X358Y769D01*
X358Y763D01*
X360Y763D01*
X360Y757D01*
X362Y757D01*
X362Y721D01*
X364Y721D01*
X364Y719D01*
X366Y719D01*
X366Y717D01*
X368Y717D01*
X368Y715D01*
X370Y715D01*
X370Y713D01*
X372Y713D01*
X372Y711D01*
X374Y711D01*
X374Y709D01*
X376Y709D01*
X376Y707D01*
X378Y707D01*
X378Y705D01*
X398Y705D01*
X398Y947D01*
X40Y947D01*
G37*
D02*
G36*
X40Y797D02*
X40Y499D01*
X262Y499D01*
X262Y597D01*
X276Y597D01*
X276Y619D01*
X274Y619D01*
X274Y621D01*
X272Y621D01*
X272Y623D01*
X270Y623D01*
X270Y627D01*
X268Y627D01*
X268Y631D01*
X266Y631D01*
X266Y635D01*
X264Y635D01*
X264Y647D01*
X262Y647D01*
X262Y649D01*
X264Y649D01*
X264Y661D01*
X266Y661D01*
X266Y665D01*
X268Y665D01*
X268Y669D01*
X270Y669D01*
X270Y673D01*
X272Y673D01*
X272Y675D01*
X274Y675D01*
X274Y677D01*
X276Y677D01*
X276Y681D01*
X278Y681D01*
X278Y683D01*
X280Y683D01*
X280Y685D01*
X284Y685D01*
X284Y687D01*
X286Y687D01*
X286Y709D01*
X284Y709D01*
X284Y711D01*
X280Y711D01*
X280Y713D01*
X278Y713D01*
X278Y715D01*
X276Y715D01*
X276Y719D01*
X274Y719D01*
X274Y721D01*
X272Y721D01*
X272Y723D01*
X270Y723D01*
X270Y727D01*
X268Y727D01*
X268Y731D01*
X266Y731D01*
X266Y735D01*
X264Y735D01*
X264Y747D01*
X262Y747D01*
X262Y749D01*
X264Y749D01*
X264Y761D01*
X266Y761D01*
X266Y765D01*
X268Y765D01*
X268Y769D01*
X270Y769D01*
X270Y773D01*
X272Y773D01*
X272Y775D01*
X274Y775D01*
X274Y777D01*
X276Y777D01*
X276Y781D01*
X278Y781D01*
X278Y783D01*
X280Y783D01*
X280Y785D01*
X284Y785D01*
X284Y787D01*
X286Y787D01*
X286Y789D01*
X288Y789D01*
X288Y791D01*
X292Y791D01*
X292Y793D01*
X296Y793D01*
X296Y795D01*
X302Y795D01*
X302Y797D01*
X40Y797D01*
G37*
D02*
G36*
X360Y659D02*
X360Y657D01*
X362Y657D01*
X362Y639D01*
X360Y639D01*
X360Y633D01*
X358Y633D01*
X358Y629D01*
X356Y629D01*
X356Y625D01*
X354Y625D01*
X354Y621D01*
X352Y621D01*
X352Y619D01*
X350Y619D01*
X350Y617D01*
X348Y617D01*
X348Y597D01*
X362Y597D01*
X362Y499D01*
X396Y499D01*
X396Y643D01*
X394Y643D01*
X394Y645D01*
X392Y645D01*
X392Y647D01*
X390Y647D01*
X390Y649D01*
X388Y649D01*
X388Y651D01*
X386Y651D01*
X386Y653D01*
X384Y653D01*
X384Y655D01*
X382Y655D01*
X382Y657D01*
X380Y657D01*
X380Y659D01*
X360Y659D01*
G37*
D02*
G36*
X40Y499D02*
X40Y497D01*
X396Y497D01*
X396Y499D01*
X40Y499D01*
G37*
D02*
G36*
X40Y499D02*
X40Y497D01*
X396Y497D01*
X396Y499D01*
X40Y499D01*
G37*
D02*
G36*
X40Y497D02*
X40Y347D01*
X324Y347D01*
X324Y345D01*
X330Y345D01*
X330Y343D01*
X334Y343D01*
X334Y341D01*
X336Y341D01*
X336Y339D01*
X340Y339D01*
X340Y337D01*
X342Y337D01*
X342Y335D01*
X344Y335D01*
X344Y333D01*
X346Y333D01*
X346Y331D01*
X348Y331D01*
X348Y329D01*
X350Y329D01*
X350Y327D01*
X352Y327D01*
X352Y325D01*
X354Y325D01*
X354Y321D01*
X356Y321D01*
X356Y319D01*
X358Y319D01*
X358Y313D01*
X406Y313D01*
X406Y333D01*
X404Y333D01*
X404Y335D01*
X402Y335D01*
X402Y337D01*
X400Y337D01*
X400Y339D01*
X398Y339D01*
X398Y343D01*
X396Y343D01*
X396Y497D01*
X40Y497D01*
G37*
D02*
G36*
X40Y347D02*
X40Y41D01*
X262Y41D01*
X262Y147D01*
X276Y147D01*
X276Y169D01*
X274Y169D01*
X274Y171D01*
X272Y171D01*
X272Y173D01*
X270Y173D01*
X270Y177D01*
X268Y177D01*
X268Y181D01*
X266Y181D01*
X266Y185D01*
X264Y185D01*
X264Y197D01*
X262Y197D01*
X262Y199D01*
X264Y199D01*
X264Y211D01*
X266Y211D01*
X266Y215D01*
X268Y215D01*
X268Y219D01*
X270Y219D01*
X270Y223D01*
X272Y223D01*
X272Y225D01*
X274Y225D01*
X274Y227D01*
X276Y227D01*
X276Y231D01*
X278Y231D01*
X278Y233D01*
X280Y233D01*
X280Y235D01*
X284Y235D01*
X284Y237D01*
X286Y237D01*
X286Y259D01*
X284Y259D01*
X284Y261D01*
X280Y261D01*
X280Y263D01*
X278Y263D01*
X278Y265D01*
X276Y265D01*
X276Y269D01*
X274Y269D01*
X274Y271D01*
X272Y271D01*
X272Y273D01*
X270Y273D01*
X270Y277D01*
X268Y277D01*
X268Y281D01*
X266Y281D01*
X266Y285D01*
X264Y285D01*
X264Y297D01*
X262Y297D01*
X262Y299D01*
X264Y299D01*
X264Y311D01*
X266Y311D01*
X266Y315D01*
X268Y315D01*
X268Y319D01*
X270Y319D01*
X270Y323D01*
X272Y323D01*
X272Y325D01*
X274Y325D01*
X274Y327D01*
X276Y327D01*
X276Y331D01*
X278Y331D01*
X278Y333D01*
X280Y333D01*
X280Y335D01*
X284Y335D01*
X284Y337D01*
X286Y337D01*
X286Y339D01*
X288Y339D01*
X288Y341D01*
X292Y341D01*
X292Y343D01*
X296Y343D01*
X296Y345D01*
X302Y345D01*
X302Y347D01*
X40Y347D01*
G37*
D02*
G36*
X342Y1705D02*
X342Y1685D01*
X344Y1685D01*
X344Y1683D01*
X346Y1683D01*
X346Y1681D01*
X348Y1681D01*
X348Y1679D01*
X350Y1679D01*
X350Y1677D01*
X352Y1677D01*
X352Y1675D01*
X354Y1675D01*
X354Y1671D01*
X356Y1671D01*
X356Y1669D01*
X358Y1669D01*
X358Y1663D01*
X360Y1663D01*
X360Y1657D01*
X362Y1657D01*
X362Y1621D01*
X364Y1621D01*
X364Y1619D01*
X366Y1619D01*
X366Y1617D01*
X368Y1617D01*
X368Y1615D01*
X370Y1615D01*
X370Y1613D01*
X372Y1613D01*
X372Y1611D01*
X374Y1611D01*
X374Y1609D01*
X376Y1609D01*
X376Y1607D01*
X378Y1607D01*
X378Y1605D01*
X380Y1605D01*
X380Y1603D01*
X382Y1603D01*
X382Y1601D01*
X384Y1601D01*
X384Y1599D01*
X386Y1599D01*
X386Y1597D01*
X388Y1597D01*
X388Y1595D01*
X390Y1595D01*
X390Y1593D01*
X392Y1593D01*
X392Y1591D01*
X394Y1591D01*
X394Y1589D01*
X396Y1589D01*
X396Y1587D01*
X398Y1587D01*
X398Y1585D01*
X400Y1585D01*
X400Y1583D01*
X402Y1583D01*
X402Y1581D01*
X404Y1581D01*
X404Y1579D01*
X406Y1579D01*
X406Y1577D01*
X408Y1577D01*
X408Y1575D01*
X552Y1575D01*
X552Y1577D01*
X544Y1577D01*
X544Y1579D01*
X538Y1579D01*
X538Y1581D01*
X532Y1581D01*
X532Y1583D01*
X528Y1583D01*
X528Y1585D01*
X526Y1585D01*
X526Y1587D01*
X522Y1587D01*
X522Y1589D01*
X520Y1589D01*
X520Y1591D01*
X518Y1591D01*
X518Y1593D01*
X514Y1593D01*
X514Y1595D01*
X512Y1595D01*
X512Y1597D01*
X510Y1597D01*
X510Y1599D01*
X508Y1599D01*
X508Y1601D01*
X506Y1601D01*
X506Y1605D01*
X504Y1605D01*
X504Y1607D01*
X502Y1607D01*
X502Y1611D01*
X500Y1611D01*
X500Y1613D01*
X498Y1613D01*
X498Y1617D01*
X496Y1617D01*
X496Y1621D01*
X494Y1621D01*
X494Y1627D01*
X492Y1627D01*
X492Y1635D01*
X490Y1635D01*
X490Y1661D01*
X492Y1661D01*
X492Y1669D01*
X494Y1669D01*
X494Y1675D01*
X496Y1675D01*
X496Y1679D01*
X498Y1679D01*
X498Y1683D01*
X500Y1683D01*
X500Y1685D01*
X502Y1685D01*
X502Y1705D01*
X342Y1705D01*
G37*
D02*
G36*
X624Y1705D02*
X624Y1685D01*
X626Y1685D01*
X626Y1681D01*
X628Y1681D01*
X628Y1677D01*
X630Y1677D01*
X630Y1673D01*
X632Y1673D01*
X632Y1667D01*
X634Y1667D01*
X634Y1657D01*
X636Y1657D01*
X636Y1639D01*
X634Y1639D01*
X634Y1629D01*
X632Y1629D01*
X632Y1623D01*
X630Y1623D01*
X630Y1619D01*
X628Y1619D01*
X628Y1615D01*
X626Y1615D01*
X626Y1611D01*
X624Y1611D01*
X624Y1609D01*
X622Y1609D01*
X622Y1605D01*
X620Y1605D01*
X620Y1603D01*
X618Y1603D01*
X618Y1601D01*
X616Y1601D01*
X616Y1599D01*
X614Y1599D01*
X614Y1597D01*
X612Y1597D01*
X612Y1595D01*
X610Y1595D01*
X610Y1593D01*
X608Y1593D01*
X608Y1591D01*
X606Y1591D01*
X606Y1589D01*
X602Y1589D01*
X602Y1587D01*
X600Y1587D01*
X600Y1585D01*
X596Y1585D01*
X596Y1583D01*
X592Y1583D01*
X592Y1581D01*
X588Y1581D01*
X588Y1579D01*
X582Y1579D01*
X582Y1577D01*
X574Y1577D01*
X574Y1575D01*
X1160Y1575D01*
X1160Y1577D01*
X1162Y1577D01*
X1162Y1579D01*
X1164Y1579D01*
X1164Y1581D01*
X1166Y1581D01*
X1166Y1583D01*
X1168Y1583D01*
X1168Y1585D01*
X1170Y1585D01*
X1170Y1587D01*
X1172Y1587D01*
X1172Y1589D01*
X1174Y1589D01*
X1174Y1591D01*
X1176Y1591D01*
X1176Y1593D01*
X1178Y1593D01*
X1178Y1595D01*
X1180Y1595D01*
X1180Y1597D01*
X1182Y1597D01*
X1182Y1599D01*
X1184Y1599D01*
X1184Y1601D01*
X1186Y1601D01*
X1186Y1603D01*
X1188Y1603D01*
X1188Y1605D01*
X1190Y1605D01*
X1190Y1607D01*
X1192Y1607D01*
X1192Y1609D01*
X1194Y1609D01*
X1194Y1611D01*
X1196Y1611D01*
X1196Y1613D01*
X1198Y1613D01*
X1198Y1615D01*
X1200Y1615D01*
X1200Y1617D01*
X1202Y1617D01*
X1202Y1619D01*
X1204Y1619D01*
X1204Y1621D01*
X1206Y1621D01*
X1206Y1623D01*
X1208Y1623D01*
X1208Y1625D01*
X1210Y1625D01*
X1210Y1627D01*
X1212Y1627D01*
X1212Y1629D01*
X1214Y1629D01*
X1214Y1631D01*
X1216Y1631D01*
X1216Y1633D01*
X1218Y1633D01*
X1218Y1635D01*
X1220Y1635D01*
X1220Y1637D01*
X1222Y1637D01*
X1222Y1639D01*
X1224Y1639D01*
X1224Y1641D01*
X1226Y1641D01*
X1226Y1643D01*
X1228Y1643D01*
X1228Y1645D01*
X1230Y1645D01*
X1230Y1647D01*
X1232Y1647D01*
X1232Y1649D01*
X1234Y1649D01*
X1234Y1651D01*
X1236Y1651D01*
X1236Y1653D01*
X1238Y1653D01*
X1238Y1655D01*
X1240Y1655D01*
X1240Y1657D01*
X1242Y1657D01*
X1242Y1659D01*
X1244Y1659D01*
X1244Y1661D01*
X1246Y1661D01*
X1246Y1663D01*
X1248Y1663D01*
X1248Y1665D01*
X1250Y1665D01*
X1250Y1667D01*
X1252Y1667D01*
X1252Y1669D01*
X1254Y1669D01*
X1254Y1671D01*
X1256Y1671D01*
X1256Y1673D01*
X1258Y1673D01*
X1258Y1675D01*
X1260Y1675D01*
X1260Y1677D01*
X1262Y1677D01*
X1262Y1679D01*
X1264Y1679D01*
X1264Y1683D01*
X1266Y1683D01*
X1266Y1685D01*
X1268Y1685D01*
X1268Y1705D01*
X624Y1705D01*
G37*
D02*
G36*
X410Y1575D02*
X410Y1573D01*
X1158Y1573D01*
X1158Y1575D01*
X410Y1575D01*
G37*
D02*
G36*
X410Y1575D02*
X410Y1573D01*
X1158Y1573D01*
X1158Y1575D01*
X410Y1575D01*
G37*
D02*
G36*
X412Y1573D02*
X412Y1571D01*
X414Y1571D01*
X414Y1569D01*
X416Y1569D01*
X416Y1567D01*
X418Y1567D01*
X418Y1565D01*
X420Y1565D01*
X420Y1563D01*
X422Y1563D01*
X422Y1561D01*
X424Y1561D01*
X424Y1559D01*
X426Y1559D01*
X426Y1555D01*
X428Y1555D01*
X428Y1549D01*
X430Y1549D01*
X430Y1299D01*
X562Y1299D01*
X562Y1397D01*
X590Y1397D01*
X590Y1503D01*
X592Y1503D01*
X592Y1507D01*
X594Y1507D01*
X594Y1511D01*
X596Y1511D01*
X596Y1513D01*
X598Y1513D01*
X598Y1515D01*
X600Y1515D01*
X600Y1517D01*
X604Y1517D01*
X604Y1519D01*
X1104Y1519D01*
X1104Y1521D01*
X1106Y1521D01*
X1106Y1523D01*
X1108Y1523D01*
X1108Y1525D01*
X1110Y1525D01*
X1110Y1527D01*
X1112Y1527D01*
X1112Y1529D01*
X1114Y1529D01*
X1114Y1531D01*
X1116Y1531D01*
X1116Y1533D01*
X1118Y1533D01*
X1118Y1535D01*
X1120Y1535D01*
X1120Y1537D01*
X1122Y1537D01*
X1122Y1539D01*
X1124Y1539D01*
X1124Y1541D01*
X1126Y1541D01*
X1126Y1543D01*
X1128Y1543D01*
X1128Y1545D01*
X1130Y1545D01*
X1130Y1547D01*
X1132Y1547D01*
X1132Y1549D01*
X1134Y1549D01*
X1134Y1551D01*
X1136Y1551D01*
X1136Y1553D01*
X1138Y1553D01*
X1138Y1555D01*
X1140Y1555D01*
X1140Y1557D01*
X1142Y1557D01*
X1142Y1559D01*
X1144Y1559D01*
X1144Y1561D01*
X1146Y1561D01*
X1146Y1563D01*
X1148Y1563D01*
X1148Y1565D01*
X1150Y1565D01*
X1150Y1567D01*
X1152Y1567D01*
X1152Y1569D01*
X1154Y1569D01*
X1154Y1571D01*
X1156Y1571D01*
X1156Y1573D01*
X412Y1573D01*
G37*
D02*
G36*
X858Y1331D02*
X858Y1329D01*
X856Y1329D01*
X856Y1325D01*
X854Y1325D01*
X854Y1321D01*
X852Y1321D01*
X852Y1319D01*
X850Y1319D01*
X850Y1317D01*
X848Y1317D01*
X848Y1315D01*
X846Y1315D01*
X846Y1313D01*
X844Y1313D01*
X844Y1311D01*
X842Y1311D01*
X842Y1309D01*
X840Y1309D01*
X840Y1307D01*
X836Y1307D01*
X836Y1305D01*
X834Y1305D01*
X834Y1303D01*
X830Y1303D01*
X830Y1301D01*
X824Y1301D01*
X824Y1299D01*
X938Y1299D01*
X938Y1301D01*
X936Y1301D01*
X936Y1303D01*
X934Y1303D01*
X934Y1305D01*
X932Y1305D01*
X932Y1307D01*
X930Y1307D01*
X930Y1309D01*
X928Y1309D01*
X928Y1311D01*
X926Y1311D01*
X926Y1313D01*
X924Y1313D01*
X924Y1315D01*
X922Y1315D01*
X922Y1317D01*
X920Y1317D01*
X920Y1319D01*
X918Y1319D01*
X918Y1321D01*
X916Y1321D01*
X916Y1323D01*
X914Y1323D01*
X914Y1325D01*
X912Y1325D01*
X912Y1327D01*
X910Y1327D01*
X910Y1329D01*
X908Y1329D01*
X908Y1331D01*
X858Y1331D01*
G37*
D02*
G36*
X752Y1321D02*
X752Y1319D01*
X750Y1319D01*
X750Y1317D01*
X748Y1317D01*
X748Y1315D01*
X746Y1315D01*
X746Y1313D01*
X744Y1313D01*
X744Y1311D01*
X742Y1311D01*
X742Y1309D01*
X740Y1309D01*
X740Y1307D01*
X736Y1307D01*
X736Y1305D01*
X734Y1305D01*
X734Y1303D01*
X730Y1303D01*
X730Y1301D01*
X724Y1301D01*
X724Y1299D01*
X802Y1299D01*
X802Y1301D01*
X796Y1301D01*
X796Y1303D01*
X792Y1303D01*
X792Y1305D01*
X788Y1305D01*
X788Y1307D01*
X786Y1307D01*
X786Y1309D01*
X784Y1309D01*
X784Y1311D01*
X780Y1311D01*
X780Y1313D01*
X778Y1313D01*
X778Y1315D01*
X776Y1315D01*
X776Y1319D01*
X774Y1319D01*
X774Y1321D01*
X752Y1321D01*
G37*
D02*
G36*
X662Y1311D02*
X662Y1299D01*
X702Y1299D01*
X702Y1301D01*
X696Y1301D01*
X696Y1303D01*
X692Y1303D01*
X692Y1305D01*
X688Y1305D01*
X688Y1307D01*
X686Y1307D01*
X686Y1309D01*
X684Y1309D01*
X684Y1311D01*
X662Y1311D01*
G37*
D02*
G36*
X430Y1299D02*
X430Y1297D01*
X940Y1297D01*
X940Y1299D01*
X430Y1299D01*
G37*
D02*
G36*
X430Y1299D02*
X430Y1297D01*
X940Y1297D01*
X940Y1299D01*
X430Y1299D01*
G37*
D02*
G36*
X430Y1299D02*
X430Y1297D01*
X940Y1297D01*
X940Y1299D01*
X430Y1299D01*
G37*
D02*
G36*
X430Y1299D02*
X430Y1297D01*
X940Y1297D01*
X940Y1299D01*
X430Y1299D01*
G37*
D02*
G36*
X430Y1297D02*
X430Y1127D01*
X432Y1127D01*
X432Y1125D01*
X434Y1125D01*
X434Y1123D01*
X436Y1123D01*
X436Y1121D01*
X438Y1121D01*
X438Y1119D01*
X440Y1119D01*
X440Y1117D01*
X442Y1117D01*
X442Y1115D01*
X444Y1115D01*
X444Y1113D01*
X446Y1113D01*
X446Y1111D01*
X448Y1111D01*
X448Y1109D01*
X450Y1109D01*
X450Y1107D01*
X452Y1107D01*
X452Y1101D01*
X454Y1101D01*
X454Y1097D01*
X1324Y1097D01*
X1324Y1095D01*
X1330Y1095D01*
X1330Y1093D01*
X1334Y1093D01*
X1334Y1091D01*
X1336Y1091D01*
X1336Y1089D01*
X1340Y1089D01*
X1340Y1087D01*
X1342Y1087D01*
X1342Y1085D01*
X1344Y1085D01*
X1344Y1083D01*
X1346Y1083D01*
X1346Y1081D01*
X1348Y1081D01*
X1348Y1079D01*
X1350Y1079D01*
X1350Y1077D01*
X1352Y1077D01*
X1352Y1075D01*
X1354Y1075D01*
X1354Y1071D01*
X1356Y1071D01*
X1356Y1067D01*
X1358Y1067D01*
X1358Y1065D01*
X1568Y1065D01*
X1568Y1083D01*
X1566Y1083D01*
X1566Y1089D01*
X1564Y1089D01*
X1564Y1125D01*
X1562Y1125D01*
X1562Y1127D01*
X1560Y1127D01*
X1560Y1129D01*
X1558Y1129D01*
X1558Y1131D01*
X1556Y1131D01*
X1556Y1133D01*
X1554Y1133D01*
X1554Y1135D01*
X1552Y1135D01*
X1552Y1137D01*
X1550Y1137D01*
X1550Y1139D01*
X1548Y1139D01*
X1548Y1141D01*
X1546Y1141D01*
X1546Y1143D01*
X1544Y1143D01*
X1544Y1145D01*
X1542Y1145D01*
X1542Y1147D01*
X1540Y1147D01*
X1540Y1149D01*
X1538Y1149D01*
X1538Y1151D01*
X1536Y1151D01*
X1536Y1153D01*
X1534Y1153D01*
X1534Y1155D01*
X1532Y1155D01*
X1532Y1157D01*
X1530Y1157D01*
X1530Y1159D01*
X1528Y1159D01*
X1528Y1161D01*
X1526Y1161D01*
X1526Y1163D01*
X1524Y1163D01*
X1524Y1165D01*
X1522Y1165D01*
X1522Y1167D01*
X1520Y1167D01*
X1520Y1169D01*
X1518Y1169D01*
X1518Y1171D01*
X1516Y1171D01*
X1516Y1173D01*
X1514Y1173D01*
X1514Y1175D01*
X1512Y1175D01*
X1512Y1177D01*
X1510Y1177D01*
X1510Y1179D01*
X1508Y1179D01*
X1508Y1181D01*
X1506Y1181D01*
X1506Y1183D01*
X1504Y1183D01*
X1504Y1185D01*
X1502Y1185D01*
X1502Y1187D01*
X1500Y1187D01*
X1500Y1189D01*
X1498Y1189D01*
X1498Y1191D01*
X1496Y1191D01*
X1496Y1193D01*
X1494Y1193D01*
X1494Y1195D01*
X1492Y1195D01*
X1492Y1197D01*
X1490Y1197D01*
X1490Y1199D01*
X1488Y1199D01*
X1488Y1201D01*
X1486Y1201D01*
X1486Y1203D01*
X1484Y1203D01*
X1484Y1205D01*
X1482Y1205D01*
X1482Y1207D01*
X1480Y1207D01*
X1480Y1209D01*
X1478Y1209D01*
X1478Y1211D01*
X1476Y1211D01*
X1476Y1213D01*
X1474Y1213D01*
X1474Y1215D01*
X1472Y1215D01*
X1472Y1217D01*
X1470Y1217D01*
X1470Y1219D01*
X1468Y1219D01*
X1468Y1221D01*
X1466Y1221D01*
X1466Y1223D01*
X1464Y1223D01*
X1464Y1225D01*
X1462Y1225D01*
X1462Y1227D01*
X1460Y1227D01*
X1460Y1229D01*
X1458Y1229D01*
X1458Y1231D01*
X1010Y1231D01*
X1010Y1233D01*
X1006Y1233D01*
X1006Y1235D01*
X1002Y1235D01*
X1002Y1237D01*
X1000Y1237D01*
X1000Y1239D01*
X998Y1239D01*
X998Y1241D01*
X996Y1241D01*
X996Y1243D01*
X994Y1243D01*
X994Y1245D01*
X992Y1245D01*
X992Y1247D01*
X990Y1247D01*
X990Y1249D01*
X988Y1249D01*
X988Y1251D01*
X986Y1251D01*
X986Y1253D01*
X984Y1253D01*
X984Y1255D01*
X982Y1255D01*
X982Y1257D01*
X980Y1257D01*
X980Y1259D01*
X978Y1259D01*
X978Y1261D01*
X976Y1261D01*
X976Y1263D01*
X974Y1263D01*
X974Y1265D01*
X972Y1265D01*
X972Y1267D01*
X970Y1267D01*
X970Y1269D01*
X968Y1269D01*
X968Y1271D01*
X966Y1271D01*
X966Y1273D01*
X964Y1273D01*
X964Y1275D01*
X962Y1275D01*
X962Y1277D01*
X960Y1277D01*
X960Y1279D01*
X958Y1279D01*
X958Y1281D01*
X956Y1281D01*
X956Y1283D01*
X954Y1283D01*
X954Y1285D01*
X952Y1285D01*
X952Y1287D01*
X950Y1287D01*
X950Y1289D01*
X948Y1289D01*
X948Y1291D01*
X946Y1291D01*
X946Y1293D01*
X944Y1293D01*
X944Y1295D01*
X942Y1295D01*
X942Y1297D01*
X430Y1297D01*
G37*
D02*
G36*
X454Y1097D02*
X454Y999D01*
X562Y999D01*
X562Y1097D01*
X454Y1097D01*
G37*
D02*
G36*
X662Y1097D02*
X662Y1085D01*
X684Y1085D01*
X684Y1087D01*
X686Y1087D01*
X686Y1089D01*
X688Y1089D01*
X688Y1091D01*
X692Y1091D01*
X692Y1093D01*
X696Y1093D01*
X696Y1095D01*
X702Y1095D01*
X702Y1097D01*
X662Y1097D01*
G37*
D02*
G36*
X724Y1097D02*
X724Y1095D01*
X730Y1095D01*
X730Y1093D01*
X734Y1093D01*
X734Y1091D01*
X736Y1091D01*
X736Y1089D01*
X740Y1089D01*
X740Y1087D01*
X742Y1087D01*
X742Y1085D01*
X744Y1085D01*
X744Y1083D01*
X746Y1083D01*
X746Y1081D01*
X748Y1081D01*
X748Y1079D01*
X750Y1079D01*
X750Y1077D01*
X752Y1077D01*
X752Y1075D01*
X774Y1075D01*
X774Y1077D01*
X776Y1077D01*
X776Y1081D01*
X778Y1081D01*
X778Y1083D01*
X780Y1083D01*
X780Y1085D01*
X784Y1085D01*
X784Y1087D01*
X786Y1087D01*
X786Y1089D01*
X788Y1089D01*
X788Y1091D01*
X792Y1091D01*
X792Y1093D01*
X796Y1093D01*
X796Y1095D01*
X802Y1095D01*
X802Y1097D01*
X724Y1097D01*
G37*
D02*
G36*
X824Y1097D02*
X824Y1095D01*
X830Y1095D01*
X830Y1093D01*
X834Y1093D01*
X834Y1091D01*
X836Y1091D01*
X836Y1089D01*
X840Y1089D01*
X840Y1087D01*
X842Y1087D01*
X842Y1085D01*
X844Y1085D01*
X844Y1083D01*
X846Y1083D01*
X846Y1081D01*
X848Y1081D01*
X848Y1079D01*
X850Y1079D01*
X850Y1077D01*
X852Y1077D01*
X852Y1075D01*
X854Y1075D01*
X854Y1071D01*
X856Y1071D01*
X856Y1069D01*
X858Y1069D01*
X858Y1065D01*
X914Y1065D01*
X914Y1063D01*
X922Y1063D01*
X922Y1061D01*
X924Y1061D01*
X924Y1059D01*
X926Y1059D01*
X926Y1057D01*
X928Y1057D01*
X928Y1055D01*
X930Y1055D01*
X930Y1053D01*
X932Y1053D01*
X932Y1051D01*
X934Y1051D01*
X934Y1049D01*
X936Y1049D01*
X936Y1047D01*
X938Y1047D01*
X938Y1045D01*
X940Y1045D01*
X940Y1043D01*
X942Y1043D01*
X942Y1041D01*
X944Y1041D01*
X944Y1039D01*
X946Y1039D01*
X946Y1037D01*
X948Y1037D01*
X948Y1035D01*
X950Y1035D01*
X950Y1033D01*
X952Y1033D01*
X952Y1031D01*
X954Y1031D01*
X954Y1029D01*
X956Y1029D01*
X956Y1027D01*
X958Y1027D01*
X958Y1025D01*
X960Y1025D01*
X960Y1023D01*
X962Y1023D01*
X962Y1021D01*
X964Y1021D01*
X964Y1019D01*
X966Y1019D01*
X966Y1017D01*
X968Y1017D01*
X968Y1015D01*
X970Y1015D01*
X970Y1013D01*
X972Y1013D01*
X972Y1011D01*
X974Y1011D01*
X974Y1009D01*
X976Y1009D01*
X976Y1007D01*
X978Y1007D01*
X978Y1005D01*
X980Y1005D01*
X980Y1003D01*
X982Y1003D01*
X982Y1001D01*
X984Y1001D01*
X984Y999D01*
X1062Y999D01*
X1062Y1097D01*
X824Y1097D01*
G37*
D02*
G36*
X1162Y1097D02*
X1162Y1085D01*
X1184Y1085D01*
X1184Y1087D01*
X1186Y1087D01*
X1186Y1089D01*
X1188Y1089D01*
X1188Y1091D01*
X1192Y1091D01*
X1192Y1093D01*
X1196Y1093D01*
X1196Y1095D01*
X1202Y1095D01*
X1202Y1097D01*
X1162Y1097D01*
G37*
D02*
G36*
X1224Y1097D02*
X1224Y1095D01*
X1230Y1095D01*
X1230Y1093D01*
X1234Y1093D01*
X1234Y1091D01*
X1236Y1091D01*
X1236Y1089D01*
X1240Y1089D01*
X1240Y1087D01*
X1242Y1087D01*
X1242Y1085D01*
X1244Y1085D01*
X1244Y1083D01*
X1246Y1083D01*
X1246Y1081D01*
X1248Y1081D01*
X1248Y1079D01*
X1250Y1079D01*
X1250Y1077D01*
X1252Y1077D01*
X1252Y1075D01*
X1274Y1075D01*
X1274Y1077D01*
X1276Y1077D01*
X1276Y1081D01*
X1278Y1081D01*
X1278Y1083D01*
X1280Y1083D01*
X1280Y1085D01*
X1284Y1085D01*
X1284Y1087D01*
X1286Y1087D01*
X1286Y1089D01*
X1288Y1089D01*
X1288Y1091D01*
X1292Y1091D01*
X1292Y1093D01*
X1296Y1093D01*
X1296Y1095D01*
X1302Y1095D01*
X1302Y1097D01*
X1224Y1097D01*
G37*
D02*
G36*
X858Y1033D02*
X858Y1029D01*
X856Y1029D01*
X856Y1025D01*
X854Y1025D01*
X854Y1021D01*
X852Y1021D01*
X852Y1019D01*
X850Y1019D01*
X850Y1017D01*
X848Y1017D01*
X848Y1015D01*
X846Y1015D01*
X846Y1013D01*
X844Y1013D01*
X844Y1011D01*
X842Y1011D01*
X842Y1009D01*
X840Y1009D01*
X840Y1007D01*
X836Y1007D01*
X836Y1005D01*
X834Y1005D01*
X834Y1003D01*
X830Y1003D01*
X830Y1001D01*
X824Y1001D01*
X824Y999D01*
X938Y999D01*
X938Y1001D01*
X936Y1001D01*
X936Y1003D01*
X934Y1003D01*
X934Y1005D01*
X932Y1005D01*
X932Y1007D01*
X930Y1007D01*
X930Y1009D01*
X928Y1009D01*
X928Y1011D01*
X926Y1011D01*
X926Y1013D01*
X924Y1013D01*
X924Y1015D01*
X922Y1015D01*
X922Y1017D01*
X920Y1017D01*
X920Y1019D01*
X918Y1019D01*
X918Y1021D01*
X916Y1021D01*
X916Y1023D01*
X914Y1023D01*
X914Y1025D01*
X912Y1025D01*
X912Y1027D01*
X910Y1027D01*
X910Y1029D01*
X908Y1029D01*
X908Y1031D01*
X906Y1031D01*
X906Y1033D01*
X858Y1033D01*
G37*
D02*
G36*
X1358Y1033D02*
X1358Y1029D01*
X1356Y1029D01*
X1356Y1025D01*
X1354Y1025D01*
X1354Y1021D01*
X1352Y1021D01*
X1352Y1019D01*
X1350Y1019D01*
X1350Y1017D01*
X1348Y1017D01*
X1348Y1015D01*
X1346Y1015D01*
X1346Y1013D01*
X1344Y1013D01*
X1344Y1011D01*
X1342Y1011D01*
X1342Y1009D01*
X1340Y1009D01*
X1340Y1007D01*
X1336Y1007D01*
X1336Y1005D01*
X1334Y1005D01*
X1334Y1003D01*
X1330Y1003D01*
X1330Y1001D01*
X1324Y1001D01*
X1324Y999D01*
X1564Y999D01*
X1564Y1025D01*
X1562Y1025D01*
X1562Y1027D01*
X1560Y1027D01*
X1560Y1029D01*
X1558Y1029D01*
X1558Y1031D01*
X1556Y1031D01*
X1556Y1033D01*
X1358Y1033D01*
G37*
D02*
G36*
X752Y1021D02*
X752Y1019D01*
X750Y1019D01*
X750Y1017D01*
X748Y1017D01*
X748Y1015D01*
X746Y1015D01*
X746Y1013D01*
X744Y1013D01*
X744Y1011D01*
X742Y1011D01*
X742Y1009D01*
X740Y1009D01*
X740Y1007D01*
X736Y1007D01*
X736Y1005D01*
X734Y1005D01*
X734Y1003D01*
X730Y1003D01*
X730Y1001D01*
X724Y1001D01*
X724Y999D01*
X802Y999D01*
X802Y1001D01*
X796Y1001D01*
X796Y1003D01*
X792Y1003D01*
X792Y1005D01*
X788Y1005D01*
X788Y1007D01*
X786Y1007D01*
X786Y1009D01*
X784Y1009D01*
X784Y1011D01*
X780Y1011D01*
X780Y1013D01*
X778Y1013D01*
X778Y1015D01*
X776Y1015D01*
X776Y1019D01*
X774Y1019D01*
X774Y1021D01*
X752Y1021D01*
G37*
D02*
G36*
X1252Y1021D02*
X1252Y1019D01*
X1250Y1019D01*
X1250Y1017D01*
X1248Y1017D01*
X1248Y1015D01*
X1246Y1015D01*
X1246Y1013D01*
X1244Y1013D01*
X1244Y1011D01*
X1242Y1011D01*
X1242Y1009D01*
X1240Y1009D01*
X1240Y1007D01*
X1236Y1007D01*
X1236Y1005D01*
X1234Y1005D01*
X1234Y1003D01*
X1230Y1003D01*
X1230Y1001D01*
X1224Y1001D01*
X1224Y999D01*
X1302Y999D01*
X1302Y1001D01*
X1296Y1001D01*
X1296Y1003D01*
X1292Y1003D01*
X1292Y1005D01*
X1288Y1005D01*
X1288Y1007D01*
X1286Y1007D01*
X1286Y1009D01*
X1284Y1009D01*
X1284Y1011D01*
X1280Y1011D01*
X1280Y1013D01*
X1278Y1013D01*
X1278Y1015D01*
X1276Y1015D01*
X1276Y1019D01*
X1274Y1019D01*
X1274Y1021D01*
X1252Y1021D01*
G37*
D02*
G36*
X662Y1011D02*
X662Y999D01*
X702Y999D01*
X702Y1001D01*
X696Y1001D01*
X696Y1003D01*
X692Y1003D01*
X692Y1005D01*
X688Y1005D01*
X688Y1007D01*
X686Y1007D01*
X686Y1009D01*
X684Y1009D01*
X684Y1011D01*
X662Y1011D01*
G37*
D02*
G36*
X1162Y1011D02*
X1162Y999D01*
X1202Y999D01*
X1202Y1001D01*
X1196Y1001D01*
X1196Y1003D01*
X1192Y1003D01*
X1192Y1005D01*
X1188Y1005D01*
X1188Y1007D01*
X1186Y1007D01*
X1186Y1009D01*
X1184Y1009D01*
X1184Y1011D01*
X1162Y1011D01*
G37*
D02*
G36*
X454Y999D02*
X454Y997D01*
X940Y997D01*
X940Y999D01*
X454Y999D01*
G37*
D02*
G36*
X454Y999D02*
X454Y997D01*
X940Y997D01*
X940Y999D01*
X454Y999D01*
G37*
D02*
G36*
X454Y999D02*
X454Y997D01*
X940Y997D01*
X940Y999D01*
X454Y999D01*
G37*
D02*
G36*
X454Y999D02*
X454Y997D01*
X940Y997D01*
X940Y999D01*
X454Y999D01*
G37*
D02*
G36*
X986Y999D02*
X986Y997D01*
X1564Y997D01*
X1564Y999D01*
X986Y999D01*
G37*
D02*
G36*
X986Y999D02*
X986Y997D01*
X1564Y997D01*
X1564Y999D01*
X986Y999D01*
G37*
D02*
G36*
X986Y999D02*
X986Y997D01*
X1564Y997D01*
X1564Y999D01*
X986Y999D01*
G37*
D02*
G36*
X986Y999D02*
X986Y997D01*
X1564Y997D01*
X1564Y999D01*
X986Y999D01*
G37*
D02*
G36*
X454Y997D02*
X454Y797D01*
X1324Y797D01*
X1324Y795D01*
X1330Y795D01*
X1330Y793D01*
X1334Y793D01*
X1334Y791D01*
X1336Y791D01*
X1336Y789D01*
X1340Y789D01*
X1340Y787D01*
X1342Y787D01*
X1342Y785D01*
X1344Y785D01*
X1344Y783D01*
X1346Y783D01*
X1346Y781D01*
X1348Y781D01*
X1348Y779D01*
X1350Y779D01*
X1350Y777D01*
X1352Y777D01*
X1352Y775D01*
X1354Y775D01*
X1354Y771D01*
X1356Y771D01*
X1356Y767D01*
X1358Y767D01*
X1358Y765D01*
X1558Y765D01*
X1558Y767D01*
X1560Y767D01*
X1560Y769D01*
X1562Y769D01*
X1562Y771D01*
X1564Y771D01*
X1564Y807D01*
X1566Y807D01*
X1566Y813D01*
X1568Y813D01*
X1568Y817D01*
X1570Y817D01*
X1570Y821D01*
X1572Y821D01*
X1572Y825D01*
X1574Y825D01*
X1574Y827D01*
X1576Y827D01*
X1576Y829D01*
X1578Y829D01*
X1578Y831D01*
X1580Y831D01*
X1580Y833D01*
X1582Y833D01*
X1582Y835D01*
X1584Y835D01*
X1584Y837D01*
X1586Y837D01*
X1586Y859D01*
X1584Y859D01*
X1584Y861D01*
X1582Y861D01*
X1582Y863D01*
X1580Y863D01*
X1580Y865D01*
X1578Y865D01*
X1578Y867D01*
X1576Y867D01*
X1576Y869D01*
X1574Y869D01*
X1574Y871D01*
X1572Y871D01*
X1572Y875D01*
X1570Y875D01*
X1570Y879D01*
X1568Y879D01*
X1568Y883D01*
X1566Y883D01*
X1566Y889D01*
X1564Y889D01*
X1564Y925D01*
X1562Y925D01*
X1562Y927D01*
X1560Y927D01*
X1560Y929D01*
X1558Y929D01*
X1558Y931D01*
X1556Y931D01*
X1556Y933D01*
X1006Y933D01*
X1006Y935D01*
X1004Y935D01*
X1004Y937D01*
X1000Y937D01*
X1000Y939D01*
X998Y939D01*
X998Y941D01*
X996Y941D01*
X996Y943D01*
X994Y943D01*
X994Y945D01*
X992Y945D01*
X992Y947D01*
X990Y947D01*
X990Y949D01*
X988Y949D01*
X988Y951D01*
X986Y951D01*
X986Y953D01*
X984Y953D01*
X984Y955D01*
X982Y955D01*
X982Y957D01*
X980Y957D01*
X980Y959D01*
X978Y959D01*
X978Y961D01*
X976Y961D01*
X976Y963D01*
X974Y963D01*
X974Y965D01*
X972Y965D01*
X972Y967D01*
X970Y967D01*
X970Y969D01*
X968Y969D01*
X968Y971D01*
X966Y971D01*
X966Y973D01*
X964Y973D01*
X964Y975D01*
X962Y975D01*
X962Y977D01*
X960Y977D01*
X960Y979D01*
X958Y979D01*
X958Y981D01*
X956Y981D01*
X956Y983D01*
X954Y983D01*
X954Y985D01*
X952Y985D01*
X952Y987D01*
X950Y987D01*
X950Y989D01*
X948Y989D01*
X948Y991D01*
X946Y991D01*
X946Y993D01*
X944Y993D01*
X944Y995D01*
X942Y995D01*
X942Y997D01*
X454Y997D01*
G37*
D02*
G36*
X988Y997D02*
X988Y995D01*
X990Y995D01*
X990Y993D01*
X992Y993D01*
X992Y991D01*
X994Y991D01*
X994Y989D01*
X996Y989D01*
X996Y987D01*
X998Y987D01*
X998Y985D01*
X1000Y985D01*
X1000Y983D01*
X1002Y983D01*
X1002Y981D01*
X1004Y981D01*
X1004Y979D01*
X1006Y979D01*
X1006Y977D01*
X1008Y977D01*
X1008Y975D01*
X1010Y975D01*
X1010Y973D01*
X1012Y973D01*
X1012Y971D01*
X1014Y971D01*
X1014Y969D01*
X1016Y969D01*
X1016Y967D01*
X1018Y967D01*
X1018Y965D01*
X1568Y965D01*
X1568Y983D01*
X1566Y983D01*
X1566Y989D01*
X1564Y989D01*
X1564Y997D01*
X988Y997D01*
G37*
D02*
G36*
X454Y797D02*
X454Y729D01*
X456Y729D01*
X456Y727D01*
X458Y727D01*
X458Y725D01*
X460Y725D01*
X460Y723D01*
X462Y723D01*
X462Y721D01*
X464Y721D01*
X464Y719D01*
X466Y719D01*
X466Y717D01*
X468Y717D01*
X468Y715D01*
X470Y715D01*
X470Y713D01*
X472Y713D01*
X472Y711D01*
X474Y711D01*
X474Y709D01*
X476Y709D01*
X476Y705D01*
X478Y705D01*
X478Y699D01*
X562Y699D01*
X562Y797D01*
X454Y797D01*
G37*
D02*
G36*
X662Y797D02*
X662Y785D01*
X684Y785D01*
X684Y787D01*
X686Y787D01*
X686Y789D01*
X688Y789D01*
X688Y791D01*
X692Y791D01*
X692Y793D01*
X696Y793D01*
X696Y795D01*
X702Y795D01*
X702Y797D01*
X662Y797D01*
G37*
D02*
G36*
X724Y797D02*
X724Y795D01*
X730Y795D01*
X730Y793D01*
X734Y793D01*
X734Y791D01*
X736Y791D01*
X736Y789D01*
X740Y789D01*
X740Y787D01*
X742Y787D01*
X742Y785D01*
X744Y785D01*
X744Y783D01*
X746Y783D01*
X746Y781D01*
X748Y781D01*
X748Y779D01*
X750Y779D01*
X750Y777D01*
X752Y777D01*
X752Y775D01*
X774Y775D01*
X774Y777D01*
X776Y777D01*
X776Y781D01*
X778Y781D01*
X778Y783D01*
X780Y783D01*
X780Y785D01*
X784Y785D01*
X784Y787D01*
X786Y787D01*
X786Y789D01*
X788Y789D01*
X788Y791D01*
X792Y791D01*
X792Y793D01*
X796Y793D01*
X796Y795D01*
X802Y795D01*
X802Y797D01*
X724Y797D01*
G37*
D02*
G36*
X824Y797D02*
X824Y795D01*
X830Y795D01*
X830Y793D01*
X834Y793D01*
X834Y791D01*
X836Y791D01*
X836Y789D01*
X840Y789D01*
X840Y787D01*
X842Y787D01*
X842Y785D01*
X844Y785D01*
X844Y783D01*
X846Y783D01*
X846Y781D01*
X848Y781D01*
X848Y779D01*
X850Y779D01*
X850Y777D01*
X852Y777D01*
X852Y775D01*
X854Y775D01*
X854Y771D01*
X856Y771D01*
X856Y769D01*
X858Y769D01*
X858Y765D01*
X918Y765D01*
X918Y763D01*
X922Y763D01*
X922Y761D01*
X924Y761D01*
X924Y759D01*
X926Y759D01*
X926Y757D01*
X928Y757D01*
X928Y755D01*
X930Y755D01*
X930Y753D01*
X932Y753D01*
X932Y751D01*
X934Y751D01*
X934Y749D01*
X936Y749D01*
X936Y747D01*
X938Y747D01*
X938Y745D01*
X940Y745D01*
X940Y743D01*
X942Y743D01*
X942Y741D01*
X944Y741D01*
X944Y739D01*
X946Y739D01*
X946Y737D01*
X948Y737D01*
X948Y735D01*
X950Y735D01*
X950Y733D01*
X952Y733D01*
X952Y731D01*
X954Y731D01*
X954Y729D01*
X956Y729D01*
X956Y727D01*
X958Y727D01*
X958Y725D01*
X960Y725D01*
X960Y723D01*
X962Y723D01*
X962Y721D01*
X964Y721D01*
X964Y719D01*
X966Y719D01*
X966Y717D01*
X968Y717D01*
X968Y715D01*
X970Y715D01*
X970Y713D01*
X972Y713D01*
X972Y711D01*
X974Y711D01*
X974Y709D01*
X976Y709D01*
X976Y707D01*
X978Y707D01*
X978Y705D01*
X980Y705D01*
X980Y703D01*
X982Y703D01*
X982Y701D01*
X984Y701D01*
X984Y699D01*
X1062Y699D01*
X1062Y797D01*
X824Y797D01*
G37*
D02*
G36*
X1162Y797D02*
X1162Y785D01*
X1184Y785D01*
X1184Y787D01*
X1186Y787D01*
X1186Y789D01*
X1188Y789D01*
X1188Y791D01*
X1192Y791D01*
X1192Y793D01*
X1196Y793D01*
X1196Y795D01*
X1202Y795D01*
X1202Y797D01*
X1162Y797D01*
G37*
D02*
G36*
X1224Y797D02*
X1224Y795D01*
X1230Y795D01*
X1230Y793D01*
X1234Y793D01*
X1234Y791D01*
X1236Y791D01*
X1236Y789D01*
X1240Y789D01*
X1240Y787D01*
X1242Y787D01*
X1242Y785D01*
X1244Y785D01*
X1244Y783D01*
X1246Y783D01*
X1246Y781D01*
X1248Y781D01*
X1248Y779D01*
X1250Y779D01*
X1250Y777D01*
X1252Y777D01*
X1252Y775D01*
X1274Y775D01*
X1274Y777D01*
X1276Y777D01*
X1276Y781D01*
X1278Y781D01*
X1278Y783D01*
X1280Y783D01*
X1280Y785D01*
X1284Y785D01*
X1284Y787D01*
X1286Y787D01*
X1286Y789D01*
X1288Y789D01*
X1288Y791D01*
X1292Y791D01*
X1292Y793D01*
X1296Y793D01*
X1296Y795D01*
X1302Y795D01*
X1302Y797D01*
X1224Y797D01*
G37*
D02*
G36*
X858Y733D02*
X858Y729D01*
X856Y729D01*
X856Y725D01*
X854Y725D01*
X854Y721D01*
X852Y721D01*
X852Y719D01*
X850Y719D01*
X850Y717D01*
X848Y717D01*
X848Y715D01*
X846Y715D01*
X846Y713D01*
X844Y713D01*
X844Y711D01*
X842Y711D01*
X842Y709D01*
X840Y709D01*
X840Y707D01*
X836Y707D01*
X836Y705D01*
X834Y705D01*
X834Y703D01*
X830Y703D01*
X830Y701D01*
X824Y701D01*
X824Y699D01*
X940Y699D01*
X940Y701D01*
X938Y701D01*
X938Y703D01*
X936Y703D01*
X936Y705D01*
X934Y705D01*
X934Y707D01*
X932Y707D01*
X932Y709D01*
X930Y709D01*
X930Y711D01*
X928Y711D01*
X928Y713D01*
X926Y713D01*
X926Y715D01*
X924Y715D01*
X924Y717D01*
X922Y717D01*
X922Y719D01*
X920Y719D01*
X920Y721D01*
X918Y721D01*
X918Y723D01*
X916Y723D01*
X916Y725D01*
X914Y725D01*
X914Y727D01*
X912Y727D01*
X912Y729D01*
X910Y729D01*
X910Y731D01*
X908Y731D01*
X908Y733D01*
X858Y733D01*
G37*
D02*
G36*
X1358Y733D02*
X1358Y729D01*
X1356Y729D01*
X1356Y725D01*
X1354Y725D01*
X1354Y721D01*
X1352Y721D01*
X1352Y719D01*
X1350Y719D01*
X1350Y717D01*
X1348Y717D01*
X1348Y715D01*
X1346Y715D01*
X1346Y713D01*
X1344Y713D01*
X1344Y711D01*
X1342Y711D01*
X1342Y709D01*
X1340Y709D01*
X1340Y707D01*
X1336Y707D01*
X1336Y705D01*
X1334Y705D01*
X1334Y703D01*
X1330Y703D01*
X1330Y701D01*
X1324Y701D01*
X1324Y699D01*
X1564Y699D01*
X1564Y707D01*
X1566Y707D01*
X1566Y713D01*
X1568Y713D01*
X1568Y733D01*
X1358Y733D01*
G37*
D02*
G36*
X752Y721D02*
X752Y719D01*
X750Y719D01*
X750Y717D01*
X748Y717D01*
X748Y715D01*
X746Y715D01*
X746Y713D01*
X744Y713D01*
X744Y711D01*
X742Y711D01*
X742Y709D01*
X740Y709D01*
X740Y707D01*
X736Y707D01*
X736Y705D01*
X734Y705D01*
X734Y703D01*
X730Y703D01*
X730Y701D01*
X724Y701D01*
X724Y699D01*
X802Y699D01*
X802Y701D01*
X796Y701D01*
X796Y703D01*
X792Y703D01*
X792Y705D01*
X788Y705D01*
X788Y707D01*
X786Y707D01*
X786Y709D01*
X784Y709D01*
X784Y711D01*
X780Y711D01*
X780Y713D01*
X778Y713D01*
X778Y715D01*
X776Y715D01*
X776Y719D01*
X774Y719D01*
X774Y721D01*
X752Y721D01*
G37*
D02*
G36*
X1252Y721D02*
X1252Y719D01*
X1250Y719D01*
X1250Y717D01*
X1248Y717D01*
X1248Y715D01*
X1246Y715D01*
X1246Y713D01*
X1244Y713D01*
X1244Y711D01*
X1242Y711D01*
X1242Y709D01*
X1240Y709D01*
X1240Y707D01*
X1236Y707D01*
X1236Y705D01*
X1234Y705D01*
X1234Y703D01*
X1230Y703D01*
X1230Y701D01*
X1224Y701D01*
X1224Y699D01*
X1302Y699D01*
X1302Y701D01*
X1296Y701D01*
X1296Y703D01*
X1292Y703D01*
X1292Y705D01*
X1288Y705D01*
X1288Y707D01*
X1286Y707D01*
X1286Y709D01*
X1284Y709D01*
X1284Y711D01*
X1280Y711D01*
X1280Y713D01*
X1278Y713D01*
X1278Y715D01*
X1276Y715D01*
X1276Y719D01*
X1274Y719D01*
X1274Y721D01*
X1252Y721D01*
G37*
D02*
G36*
X662Y711D02*
X662Y699D01*
X702Y699D01*
X702Y701D01*
X696Y701D01*
X696Y703D01*
X692Y703D01*
X692Y705D01*
X688Y705D01*
X688Y707D01*
X686Y707D01*
X686Y709D01*
X684Y709D01*
X684Y711D01*
X662Y711D01*
G37*
D02*
G36*
X1162Y711D02*
X1162Y699D01*
X1202Y699D01*
X1202Y701D01*
X1196Y701D01*
X1196Y703D01*
X1192Y703D01*
X1192Y705D01*
X1188Y705D01*
X1188Y707D01*
X1186Y707D01*
X1186Y709D01*
X1184Y709D01*
X1184Y711D01*
X1162Y711D01*
G37*
D02*
G36*
X478Y699D02*
X478Y697D01*
X942Y697D01*
X942Y699D01*
X478Y699D01*
G37*
D02*
G36*
X478Y699D02*
X478Y697D01*
X942Y697D01*
X942Y699D01*
X478Y699D01*
G37*
D02*
G36*
X478Y699D02*
X478Y697D01*
X942Y697D01*
X942Y699D01*
X478Y699D01*
G37*
D02*
G36*
X478Y699D02*
X478Y697D01*
X942Y697D01*
X942Y699D01*
X478Y699D01*
G37*
D02*
G36*
X986Y699D02*
X986Y697D01*
X1564Y697D01*
X1564Y699D01*
X986Y699D01*
G37*
D02*
G36*
X986Y699D02*
X986Y697D01*
X1564Y697D01*
X1564Y699D01*
X986Y699D01*
G37*
D02*
G36*
X986Y699D02*
X986Y697D01*
X1564Y697D01*
X1564Y699D01*
X986Y699D01*
G37*
D02*
G36*
X986Y699D02*
X986Y697D01*
X1564Y697D01*
X1564Y699D01*
X986Y699D01*
G37*
D02*
G36*
X478Y697D02*
X478Y497D01*
X1324Y497D01*
X1324Y495D01*
X1330Y495D01*
X1330Y493D01*
X1334Y493D01*
X1334Y491D01*
X1336Y491D01*
X1336Y489D01*
X1340Y489D01*
X1340Y487D01*
X1342Y487D01*
X1342Y485D01*
X1344Y485D01*
X1344Y483D01*
X1346Y483D01*
X1346Y481D01*
X1348Y481D01*
X1348Y479D01*
X1350Y479D01*
X1350Y477D01*
X1352Y477D01*
X1352Y475D01*
X1354Y475D01*
X1354Y471D01*
X1356Y471D01*
X1356Y467D01*
X1358Y467D01*
X1358Y463D01*
X1456Y463D01*
X1456Y465D01*
X1458Y465D01*
X1458Y467D01*
X1460Y467D01*
X1460Y469D01*
X1462Y469D01*
X1462Y471D01*
X1464Y471D01*
X1464Y473D01*
X1466Y473D01*
X1466Y475D01*
X1468Y475D01*
X1468Y477D01*
X1470Y477D01*
X1470Y479D01*
X1472Y479D01*
X1472Y481D01*
X1474Y481D01*
X1474Y483D01*
X1476Y483D01*
X1476Y485D01*
X1478Y485D01*
X1478Y487D01*
X1480Y487D01*
X1480Y489D01*
X1482Y489D01*
X1482Y491D01*
X1484Y491D01*
X1484Y493D01*
X1486Y493D01*
X1486Y495D01*
X1488Y495D01*
X1488Y497D01*
X1490Y497D01*
X1490Y499D01*
X1492Y499D01*
X1492Y501D01*
X1494Y501D01*
X1494Y503D01*
X1496Y503D01*
X1496Y505D01*
X1498Y505D01*
X1498Y507D01*
X1500Y507D01*
X1500Y509D01*
X1502Y509D01*
X1502Y511D01*
X1504Y511D01*
X1504Y513D01*
X1506Y513D01*
X1506Y515D01*
X1508Y515D01*
X1508Y517D01*
X1510Y517D01*
X1510Y519D01*
X1512Y519D01*
X1512Y521D01*
X1514Y521D01*
X1514Y523D01*
X1516Y523D01*
X1516Y525D01*
X1518Y525D01*
X1518Y527D01*
X1520Y527D01*
X1520Y529D01*
X1522Y529D01*
X1522Y531D01*
X1524Y531D01*
X1524Y533D01*
X1526Y533D01*
X1526Y535D01*
X1528Y535D01*
X1528Y537D01*
X1530Y537D01*
X1530Y539D01*
X1532Y539D01*
X1532Y541D01*
X1534Y541D01*
X1534Y543D01*
X1536Y543D01*
X1536Y545D01*
X1538Y545D01*
X1538Y547D01*
X1540Y547D01*
X1540Y549D01*
X1542Y549D01*
X1542Y551D01*
X1544Y551D01*
X1544Y553D01*
X1546Y553D01*
X1546Y555D01*
X1548Y555D01*
X1548Y557D01*
X1550Y557D01*
X1550Y559D01*
X1552Y559D01*
X1552Y561D01*
X1554Y561D01*
X1554Y563D01*
X1556Y563D01*
X1556Y565D01*
X1558Y565D01*
X1558Y567D01*
X1560Y567D01*
X1560Y569D01*
X1562Y569D01*
X1562Y571D01*
X1564Y571D01*
X1564Y607D01*
X1566Y607D01*
X1566Y613D01*
X1568Y613D01*
X1568Y633D01*
X1008Y633D01*
X1008Y635D01*
X1004Y635D01*
X1004Y637D01*
X1002Y637D01*
X1002Y639D01*
X1000Y639D01*
X1000Y641D01*
X998Y641D01*
X998Y643D01*
X996Y643D01*
X996Y645D01*
X994Y645D01*
X994Y647D01*
X992Y647D01*
X992Y649D01*
X990Y649D01*
X990Y651D01*
X988Y651D01*
X988Y653D01*
X986Y653D01*
X986Y655D01*
X984Y655D01*
X984Y657D01*
X982Y657D01*
X982Y659D01*
X980Y659D01*
X980Y661D01*
X978Y661D01*
X978Y663D01*
X976Y663D01*
X976Y665D01*
X974Y665D01*
X974Y667D01*
X972Y667D01*
X972Y669D01*
X970Y669D01*
X970Y671D01*
X968Y671D01*
X968Y673D01*
X966Y673D01*
X966Y675D01*
X964Y675D01*
X964Y677D01*
X962Y677D01*
X962Y679D01*
X960Y679D01*
X960Y681D01*
X958Y681D01*
X958Y683D01*
X956Y683D01*
X956Y685D01*
X954Y685D01*
X954Y687D01*
X952Y687D01*
X952Y689D01*
X950Y689D01*
X950Y691D01*
X948Y691D01*
X948Y693D01*
X946Y693D01*
X946Y695D01*
X944Y695D01*
X944Y697D01*
X478Y697D01*
G37*
D02*
G36*
X988Y697D02*
X988Y695D01*
X990Y695D01*
X990Y693D01*
X992Y693D01*
X992Y691D01*
X994Y691D01*
X994Y689D01*
X996Y689D01*
X996Y687D01*
X998Y687D01*
X998Y685D01*
X1000Y685D01*
X1000Y683D01*
X1002Y683D01*
X1002Y681D01*
X1004Y681D01*
X1004Y679D01*
X1006Y679D01*
X1006Y677D01*
X1008Y677D01*
X1008Y675D01*
X1010Y675D01*
X1010Y673D01*
X1012Y673D01*
X1012Y671D01*
X1014Y671D01*
X1014Y669D01*
X1016Y669D01*
X1016Y667D01*
X1018Y667D01*
X1018Y665D01*
X1558Y665D01*
X1558Y667D01*
X1560Y667D01*
X1560Y669D01*
X1562Y669D01*
X1562Y671D01*
X1564Y671D01*
X1564Y697D01*
X988Y697D01*
G37*
D02*
G36*
X1546Y509D02*
X1546Y507D01*
X1544Y507D01*
X1544Y505D01*
X1542Y505D01*
X1542Y503D01*
X1540Y503D01*
X1540Y501D01*
X1538Y501D01*
X1538Y499D01*
X1536Y499D01*
X1536Y497D01*
X1534Y497D01*
X1534Y495D01*
X1532Y495D01*
X1532Y493D01*
X1530Y493D01*
X1530Y491D01*
X1528Y491D01*
X1528Y489D01*
X1526Y489D01*
X1526Y487D01*
X1524Y487D01*
X1524Y485D01*
X1522Y485D01*
X1522Y483D01*
X1520Y483D01*
X1520Y481D01*
X1518Y481D01*
X1518Y479D01*
X1516Y479D01*
X1516Y477D01*
X1514Y477D01*
X1514Y475D01*
X1512Y475D01*
X1512Y473D01*
X1510Y473D01*
X1510Y471D01*
X1508Y471D01*
X1508Y469D01*
X1506Y469D01*
X1506Y467D01*
X1504Y467D01*
X1504Y465D01*
X1502Y465D01*
X1502Y463D01*
X1500Y463D01*
X1500Y461D01*
X1498Y461D01*
X1498Y459D01*
X1496Y459D01*
X1496Y457D01*
X1494Y457D01*
X1494Y455D01*
X1492Y455D01*
X1492Y453D01*
X1490Y453D01*
X1490Y451D01*
X1488Y451D01*
X1488Y449D01*
X1486Y449D01*
X1486Y447D01*
X1484Y447D01*
X1484Y445D01*
X1482Y445D01*
X1482Y443D01*
X1480Y443D01*
X1480Y441D01*
X1478Y441D01*
X1478Y439D01*
X1476Y439D01*
X1476Y437D01*
X1474Y437D01*
X1474Y435D01*
X1472Y435D01*
X1472Y433D01*
X1466Y433D01*
X1466Y431D01*
X1358Y431D01*
X1358Y429D01*
X1356Y429D01*
X1356Y425D01*
X1354Y425D01*
X1354Y421D01*
X1352Y421D01*
X1352Y419D01*
X1350Y419D01*
X1350Y417D01*
X1348Y417D01*
X1348Y415D01*
X1346Y415D01*
X1346Y413D01*
X1344Y413D01*
X1344Y411D01*
X1342Y411D01*
X1342Y409D01*
X1340Y409D01*
X1340Y407D01*
X1336Y407D01*
X1336Y405D01*
X1334Y405D01*
X1334Y403D01*
X1330Y403D01*
X1330Y401D01*
X1324Y401D01*
X1324Y399D01*
X1492Y399D01*
X1492Y401D01*
X1494Y401D01*
X1494Y403D01*
X1496Y403D01*
X1496Y405D01*
X1498Y405D01*
X1498Y407D01*
X1500Y407D01*
X1500Y409D01*
X1502Y409D01*
X1502Y411D01*
X1504Y411D01*
X1504Y413D01*
X1506Y413D01*
X1506Y415D01*
X1508Y415D01*
X1508Y417D01*
X1510Y417D01*
X1510Y419D01*
X1512Y419D01*
X1512Y421D01*
X1514Y421D01*
X1514Y423D01*
X1516Y423D01*
X1516Y425D01*
X1518Y425D01*
X1518Y427D01*
X1520Y427D01*
X1520Y429D01*
X1522Y429D01*
X1522Y431D01*
X1524Y431D01*
X1524Y433D01*
X1526Y433D01*
X1526Y435D01*
X1528Y435D01*
X1528Y437D01*
X1530Y437D01*
X1530Y439D01*
X1532Y439D01*
X1532Y441D01*
X1534Y441D01*
X1534Y443D01*
X1536Y443D01*
X1536Y445D01*
X1538Y445D01*
X1538Y447D01*
X1540Y447D01*
X1540Y449D01*
X1542Y449D01*
X1542Y451D01*
X1544Y451D01*
X1544Y453D01*
X1546Y453D01*
X1546Y455D01*
X1548Y455D01*
X1548Y457D01*
X1550Y457D01*
X1550Y459D01*
X1552Y459D01*
X1552Y461D01*
X1554Y461D01*
X1554Y463D01*
X1556Y463D01*
X1556Y465D01*
X1558Y465D01*
X1558Y467D01*
X1560Y467D01*
X1560Y469D01*
X1562Y469D01*
X1562Y471D01*
X1564Y471D01*
X1564Y507D01*
X1566Y507D01*
X1566Y509D01*
X1546Y509D01*
G37*
D02*
G36*
X478Y497D02*
X478Y405D01*
X480Y405D01*
X480Y403D01*
X482Y403D01*
X482Y401D01*
X484Y401D01*
X484Y399D01*
X562Y399D01*
X562Y497D01*
X478Y497D01*
G37*
D02*
G36*
X662Y497D02*
X662Y485D01*
X684Y485D01*
X684Y487D01*
X686Y487D01*
X686Y489D01*
X688Y489D01*
X688Y491D01*
X692Y491D01*
X692Y493D01*
X696Y493D01*
X696Y495D01*
X702Y495D01*
X702Y497D01*
X662Y497D01*
G37*
D02*
G36*
X724Y497D02*
X724Y495D01*
X730Y495D01*
X730Y493D01*
X734Y493D01*
X734Y491D01*
X736Y491D01*
X736Y489D01*
X740Y489D01*
X740Y487D01*
X742Y487D01*
X742Y485D01*
X744Y485D01*
X744Y483D01*
X746Y483D01*
X746Y481D01*
X748Y481D01*
X748Y479D01*
X750Y479D01*
X750Y477D01*
X752Y477D01*
X752Y475D01*
X774Y475D01*
X774Y477D01*
X776Y477D01*
X776Y481D01*
X778Y481D01*
X778Y483D01*
X780Y483D01*
X780Y485D01*
X784Y485D01*
X784Y487D01*
X786Y487D01*
X786Y489D01*
X788Y489D01*
X788Y491D01*
X792Y491D01*
X792Y493D01*
X796Y493D01*
X796Y495D01*
X802Y495D01*
X802Y497D01*
X724Y497D01*
G37*
D02*
G36*
X824Y497D02*
X824Y495D01*
X830Y495D01*
X830Y493D01*
X834Y493D01*
X834Y491D01*
X836Y491D01*
X836Y489D01*
X840Y489D01*
X840Y487D01*
X842Y487D01*
X842Y485D01*
X844Y485D01*
X844Y483D01*
X846Y483D01*
X846Y481D01*
X848Y481D01*
X848Y479D01*
X850Y479D01*
X850Y477D01*
X852Y477D01*
X852Y475D01*
X854Y475D01*
X854Y471D01*
X856Y471D01*
X856Y469D01*
X858Y469D01*
X858Y463D01*
X920Y463D01*
X920Y461D01*
X924Y461D01*
X924Y459D01*
X926Y459D01*
X926Y457D01*
X928Y457D01*
X928Y455D01*
X930Y455D01*
X930Y453D01*
X932Y453D01*
X932Y451D01*
X934Y451D01*
X934Y449D01*
X936Y449D01*
X936Y447D01*
X938Y447D01*
X938Y445D01*
X940Y445D01*
X940Y443D01*
X942Y443D01*
X942Y441D01*
X944Y441D01*
X944Y439D01*
X946Y439D01*
X946Y437D01*
X948Y437D01*
X948Y435D01*
X950Y435D01*
X950Y433D01*
X952Y433D01*
X952Y431D01*
X954Y431D01*
X954Y429D01*
X956Y429D01*
X956Y427D01*
X958Y427D01*
X958Y425D01*
X960Y425D01*
X960Y423D01*
X962Y423D01*
X962Y421D01*
X964Y421D01*
X964Y419D01*
X966Y419D01*
X966Y417D01*
X968Y417D01*
X968Y415D01*
X970Y415D01*
X970Y413D01*
X972Y413D01*
X972Y411D01*
X974Y411D01*
X974Y409D01*
X976Y409D01*
X976Y407D01*
X978Y407D01*
X978Y405D01*
X980Y405D01*
X980Y403D01*
X982Y403D01*
X982Y401D01*
X984Y401D01*
X984Y399D01*
X1062Y399D01*
X1062Y497D01*
X824Y497D01*
G37*
D02*
G36*
X1162Y497D02*
X1162Y485D01*
X1184Y485D01*
X1184Y487D01*
X1186Y487D01*
X1186Y489D01*
X1188Y489D01*
X1188Y491D01*
X1192Y491D01*
X1192Y493D01*
X1196Y493D01*
X1196Y495D01*
X1202Y495D01*
X1202Y497D01*
X1162Y497D01*
G37*
D02*
G36*
X1224Y497D02*
X1224Y495D01*
X1230Y495D01*
X1230Y493D01*
X1234Y493D01*
X1234Y491D01*
X1236Y491D01*
X1236Y489D01*
X1240Y489D01*
X1240Y487D01*
X1242Y487D01*
X1242Y485D01*
X1244Y485D01*
X1244Y483D01*
X1246Y483D01*
X1246Y481D01*
X1248Y481D01*
X1248Y479D01*
X1250Y479D01*
X1250Y477D01*
X1252Y477D01*
X1252Y475D01*
X1274Y475D01*
X1274Y477D01*
X1276Y477D01*
X1276Y481D01*
X1278Y481D01*
X1278Y483D01*
X1280Y483D01*
X1280Y485D01*
X1284Y485D01*
X1284Y487D01*
X1286Y487D01*
X1286Y489D01*
X1288Y489D01*
X1288Y491D01*
X1292Y491D01*
X1292Y493D01*
X1296Y493D01*
X1296Y495D01*
X1302Y495D01*
X1302Y497D01*
X1224Y497D01*
G37*
D02*
G36*
X858Y431D02*
X858Y429D01*
X856Y429D01*
X856Y425D01*
X854Y425D01*
X854Y421D01*
X852Y421D01*
X852Y419D01*
X850Y419D01*
X850Y417D01*
X848Y417D01*
X848Y415D01*
X846Y415D01*
X846Y413D01*
X844Y413D01*
X844Y411D01*
X842Y411D01*
X842Y409D01*
X840Y409D01*
X840Y407D01*
X836Y407D01*
X836Y405D01*
X834Y405D01*
X834Y403D01*
X830Y403D01*
X830Y401D01*
X824Y401D01*
X824Y399D01*
X938Y399D01*
X938Y401D01*
X936Y401D01*
X936Y403D01*
X934Y403D01*
X934Y405D01*
X932Y405D01*
X932Y407D01*
X930Y407D01*
X930Y409D01*
X928Y409D01*
X928Y411D01*
X926Y411D01*
X926Y413D01*
X924Y413D01*
X924Y415D01*
X922Y415D01*
X922Y417D01*
X920Y417D01*
X920Y419D01*
X918Y419D01*
X918Y421D01*
X916Y421D01*
X916Y423D01*
X914Y423D01*
X914Y425D01*
X912Y425D01*
X912Y427D01*
X910Y427D01*
X910Y429D01*
X908Y429D01*
X908Y431D01*
X858Y431D01*
G37*
D02*
G36*
X752Y421D02*
X752Y419D01*
X750Y419D01*
X750Y417D01*
X748Y417D01*
X748Y415D01*
X746Y415D01*
X746Y413D01*
X744Y413D01*
X744Y411D01*
X742Y411D01*
X742Y409D01*
X740Y409D01*
X740Y407D01*
X736Y407D01*
X736Y405D01*
X734Y405D01*
X734Y403D01*
X730Y403D01*
X730Y401D01*
X724Y401D01*
X724Y399D01*
X802Y399D01*
X802Y401D01*
X796Y401D01*
X796Y403D01*
X792Y403D01*
X792Y405D01*
X788Y405D01*
X788Y407D01*
X786Y407D01*
X786Y409D01*
X784Y409D01*
X784Y411D01*
X780Y411D01*
X780Y413D01*
X778Y413D01*
X778Y415D01*
X776Y415D01*
X776Y419D01*
X774Y419D01*
X774Y421D01*
X752Y421D01*
G37*
D02*
G36*
X1252Y421D02*
X1252Y419D01*
X1250Y419D01*
X1250Y417D01*
X1248Y417D01*
X1248Y415D01*
X1246Y415D01*
X1246Y413D01*
X1244Y413D01*
X1244Y411D01*
X1242Y411D01*
X1242Y409D01*
X1240Y409D01*
X1240Y407D01*
X1236Y407D01*
X1236Y405D01*
X1234Y405D01*
X1234Y403D01*
X1230Y403D01*
X1230Y401D01*
X1224Y401D01*
X1224Y399D01*
X1302Y399D01*
X1302Y401D01*
X1296Y401D01*
X1296Y403D01*
X1292Y403D01*
X1292Y405D01*
X1288Y405D01*
X1288Y407D01*
X1286Y407D01*
X1286Y409D01*
X1284Y409D01*
X1284Y411D01*
X1280Y411D01*
X1280Y413D01*
X1278Y413D01*
X1278Y415D01*
X1276Y415D01*
X1276Y419D01*
X1274Y419D01*
X1274Y421D01*
X1252Y421D01*
G37*
D02*
G36*
X662Y411D02*
X662Y399D01*
X702Y399D01*
X702Y401D01*
X696Y401D01*
X696Y403D01*
X692Y403D01*
X692Y405D01*
X688Y405D01*
X688Y407D01*
X686Y407D01*
X686Y409D01*
X684Y409D01*
X684Y411D01*
X662Y411D01*
G37*
D02*
G36*
X1162Y411D02*
X1162Y399D01*
X1202Y399D01*
X1202Y401D01*
X1196Y401D01*
X1196Y403D01*
X1192Y403D01*
X1192Y405D01*
X1188Y405D01*
X1188Y407D01*
X1186Y407D01*
X1186Y409D01*
X1184Y409D01*
X1184Y411D01*
X1162Y411D01*
G37*
D02*
G36*
X1546Y409D02*
X1546Y407D01*
X1544Y407D01*
X1544Y405D01*
X1542Y405D01*
X1542Y403D01*
X1540Y403D01*
X1540Y401D01*
X1538Y401D01*
X1538Y399D01*
X1536Y399D01*
X1536Y397D01*
X1534Y397D01*
X1534Y395D01*
X1532Y395D01*
X1532Y393D01*
X1530Y393D01*
X1530Y391D01*
X1528Y391D01*
X1528Y389D01*
X1526Y389D01*
X1526Y387D01*
X1524Y387D01*
X1524Y385D01*
X1522Y385D01*
X1522Y383D01*
X1520Y383D01*
X1520Y381D01*
X1518Y381D01*
X1518Y379D01*
X1516Y379D01*
X1516Y377D01*
X1514Y377D01*
X1514Y375D01*
X1512Y375D01*
X1512Y373D01*
X1510Y373D01*
X1510Y371D01*
X1508Y371D01*
X1508Y369D01*
X1506Y369D01*
X1506Y367D01*
X1504Y367D01*
X1504Y365D01*
X1502Y365D01*
X1502Y363D01*
X1500Y363D01*
X1500Y361D01*
X1498Y361D01*
X1498Y359D01*
X1496Y359D01*
X1496Y357D01*
X1494Y357D01*
X1494Y355D01*
X1492Y355D01*
X1492Y353D01*
X1490Y353D01*
X1490Y351D01*
X1488Y351D01*
X1488Y349D01*
X1486Y349D01*
X1486Y347D01*
X1484Y347D01*
X1484Y345D01*
X1482Y345D01*
X1482Y343D01*
X1480Y343D01*
X1480Y341D01*
X1478Y341D01*
X1478Y339D01*
X1476Y339D01*
X1476Y337D01*
X1474Y337D01*
X1474Y335D01*
X1470Y335D01*
X1470Y333D01*
X1466Y333D01*
X1466Y331D01*
X1524Y331D01*
X1524Y333D01*
X1526Y333D01*
X1526Y335D01*
X1528Y335D01*
X1528Y337D01*
X1530Y337D01*
X1530Y339D01*
X1532Y339D01*
X1532Y341D01*
X1534Y341D01*
X1534Y343D01*
X1536Y343D01*
X1536Y345D01*
X1538Y345D01*
X1538Y347D01*
X1540Y347D01*
X1540Y349D01*
X1542Y349D01*
X1542Y351D01*
X1544Y351D01*
X1544Y353D01*
X1546Y353D01*
X1546Y355D01*
X1548Y355D01*
X1548Y357D01*
X1550Y357D01*
X1550Y359D01*
X1552Y359D01*
X1552Y361D01*
X1554Y361D01*
X1554Y363D01*
X1556Y363D01*
X1556Y365D01*
X1558Y365D01*
X1558Y367D01*
X1560Y367D01*
X1560Y369D01*
X1562Y369D01*
X1562Y371D01*
X1564Y371D01*
X1564Y407D01*
X1566Y407D01*
X1566Y409D01*
X1546Y409D01*
G37*
D02*
G36*
X486Y399D02*
X486Y397D01*
X940Y397D01*
X940Y399D01*
X486Y399D01*
G37*
D02*
G36*
X486Y399D02*
X486Y397D01*
X940Y397D01*
X940Y399D01*
X486Y399D01*
G37*
D02*
G36*
X486Y399D02*
X486Y397D01*
X940Y397D01*
X940Y399D01*
X486Y399D01*
G37*
D02*
G36*
X486Y399D02*
X486Y397D01*
X940Y397D01*
X940Y399D01*
X486Y399D01*
G37*
D02*
G36*
X986Y399D02*
X986Y397D01*
X1490Y397D01*
X1490Y399D01*
X986Y399D01*
G37*
D02*
G36*
X986Y399D02*
X986Y397D01*
X1490Y397D01*
X1490Y399D01*
X986Y399D01*
G37*
D02*
G36*
X986Y399D02*
X986Y397D01*
X1490Y397D01*
X1490Y399D01*
X986Y399D01*
G37*
D02*
G36*
X986Y399D02*
X986Y397D01*
X1490Y397D01*
X1490Y399D01*
X986Y399D01*
G37*
D02*
G36*
X488Y397D02*
X488Y395D01*
X490Y395D01*
X490Y393D01*
X492Y393D01*
X492Y391D01*
X494Y391D01*
X494Y389D01*
X496Y389D01*
X496Y387D01*
X498Y387D01*
X498Y385D01*
X500Y385D01*
X500Y383D01*
X502Y383D01*
X502Y381D01*
X504Y381D01*
X504Y379D01*
X506Y379D01*
X506Y377D01*
X508Y377D01*
X508Y375D01*
X510Y375D01*
X510Y373D01*
X512Y373D01*
X512Y371D01*
X514Y371D01*
X514Y369D01*
X516Y369D01*
X516Y367D01*
X518Y367D01*
X518Y365D01*
X520Y365D01*
X520Y363D01*
X522Y363D01*
X522Y361D01*
X524Y361D01*
X524Y359D01*
X526Y359D01*
X526Y357D01*
X528Y357D01*
X528Y355D01*
X530Y355D01*
X530Y353D01*
X532Y353D01*
X532Y351D01*
X534Y351D01*
X534Y349D01*
X536Y349D01*
X536Y347D01*
X538Y347D01*
X538Y345D01*
X540Y345D01*
X540Y343D01*
X542Y343D01*
X542Y341D01*
X544Y341D01*
X544Y339D01*
X546Y339D01*
X546Y337D01*
X548Y337D01*
X548Y335D01*
X550Y335D01*
X550Y333D01*
X552Y333D01*
X552Y331D01*
X1010Y331D01*
X1010Y333D01*
X1004Y333D01*
X1004Y335D01*
X1002Y335D01*
X1002Y337D01*
X1000Y337D01*
X1000Y339D01*
X998Y339D01*
X998Y341D01*
X996Y341D01*
X996Y343D01*
X994Y343D01*
X994Y345D01*
X992Y345D01*
X992Y347D01*
X990Y347D01*
X990Y349D01*
X988Y349D01*
X988Y351D01*
X986Y351D01*
X986Y353D01*
X984Y353D01*
X984Y355D01*
X982Y355D01*
X982Y357D01*
X980Y357D01*
X980Y359D01*
X978Y359D01*
X978Y361D01*
X976Y361D01*
X976Y363D01*
X974Y363D01*
X974Y365D01*
X972Y365D01*
X972Y367D01*
X970Y367D01*
X970Y369D01*
X968Y369D01*
X968Y371D01*
X966Y371D01*
X966Y373D01*
X964Y373D01*
X964Y375D01*
X962Y375D01*
X962Y377D01*
X960Y377D01*
X960Y379D01*
X958Y379D01*
X958Y381D01*
X956Y381D01*
X956Y383D01*
X954Y383D01*
X954Y385D01*
X952Y385D01*
X952Y387D01*
X950Y387D01*
X950Y389D01*
X948Y389D01*
X948Y391D01*
X946Y391D01*
X946Y393D01*
X944Y393D01*
X944Y395D01*
X942Y395D01*
X942Y397D01*
X488Y397D01*
G37*
D02*
G36*
X988Y397D02*
X988Y395D01*
X990Y395D01*
X990Y393D01*
X992Y393D01*
X992Y391D01*
X994Y391D01*
X994Y389D01*
X996Y389D01*
X996Y387D01*
X998Y387D01*
X998Y385D01*
X1000Y385D01*
X1000Y383D01*
X1002Y383D01*
X1002Y381D01*
X1004Y381D01*
X1004Y379D01*
X1006Y379D01*
X1006Y377D01*
X1008Y377D01*
X1008Y375D01*
X1010Y375D01*
X1010Y373D01*
X1012Y373D01*
X1012Y371D01*
X1014Y371D01*
X1014Y369D01*
X1016Y369D01*
X1016Y367D01*
X1018Y367D01*
X1018Y365D01*
X1020Y365D01*
X1020Y363D01*
X1456Y363D01*
X1456Y365D01*
X1458Y365D01*
X1458Y367D01*
X1460Y367D01*
X1460Y369D01*
X1462Y369D01*
X1462Y371D01*
X1464Y371D01*
X1464Y373D01*
X1466Y373D01*
X1466Y375D01*
X1468Y375D01*
X1468Y377D01*
X1470Y377D01*
X1470Y379D01*
X1472Y379D01*
X1472Y381D01*
X1474Y381D01*
X1474Y383D01*
X1476Y383D01*
X1476Y385D01*
X1478Y385D01*
X1478Y387D01*
X1480Y387D01*
X1480Y389D01*
X1482Y389D01*
X1482Y391D01*
X1484Y391D01*
X1484Y393D01*
X1486Y393D01*
X1486Y395D01*
X1488Y395D01*
X1488Y397D01*
X988Y397D01*
G37*
D02*
G36*
X554Y331D02*
X554Y329D01*
X1522Y329D01*
X1522Y331D01*
X554Y331D01*
G37*
D02*
G36*
X554Y331D02*
X554Y329D01*
X1522Y329D01*
X1522Y331D01*
X554Y331D01*
G37*
D02*
G36*
X556Y329D02*
X556Y327D01*
X558Y327D01*
X558Y325D01*
X560Y325D01*
X560Y323D01*
X562Y323D01*
X562Y321D01*
X564Y321D01*
X564Y319D01*
X566Y319D01*
X566Y317D01*
X568Y317D01*
X568Y315D01*
X570Y315D01*
X570Y313D01*
X572Y313D01*
X572Y311D01*
X574Y311D01*
X574Y309D01*
X576Y309D01*
X576Y307D01*
X578Y307D01*
X578Y305D01*
X580Y305D01*
X580Y303D01*
X582Y303D01*
X582Y301D01*
X584Y301D01*
X584Y299D01*
X586Y299D01*
X586Y297D01*
X588Y297D01*
X588Y295D01*
X590Y295D01*
X590Y293D01*
X592Y293D01*
X592Y291D01*
X594Y291D01*
X594Y289D01*
X892Y289D01*
X892Y287D01*
X896Y287D01*
X896Y285D01*
X900Y285D01*
X900Y283D01*
X902Y283D01*
X902Y281D01*
X904Y281D01*
X904Y279D01*
X906Y279D01*
X906Y277D01*
X908Y277D01*
X908Y275D01*
X910Y275D01*
X910Y273D01*
X912Y273D01*
X912Y271D01*
X914Y271D01*
X914Y269D01*
X916Y269D01*
X916Y267D01*
X918Y267D01*
X918Y265D01*
X920Y265D01*
X920Y263D01*
X922Y263D01*
X922Y261D01*
X924Y261D01*
X924Y259D01*
X926Y259D01*
X926Y257D01*
X928Y257D01*
X928Y255D01*
X930Y255D01*
X930Y253D01*
X932Y253D01*
X932Y251D01*
X934Y251D01*
X934Y249D01*
X936Y249D01*
X936Y247D01*
X938Y247D01*
X938Y245D01*
X940Y245D01*
X940Y243D01*
X942Y243D01*
X942Y241D01*
X944Y241D01*
X944Y239D01*
X946Y239D01*
X946Y237D01*
X948Y237D01*
X948Y235D01*
X950Y235D01*
X950Y233D01*
X952Y233D01*
X952Y231D01*
X954Y231D01*
X954Y229D01*
X956Y229D01*
X956Y227D01*
X958Y227D01*
X958Y225D01*
X960Y225D01*
X960Y223D01*
X962Y223D01*
X962Y221D01*
X964Y221D01*
X964Y219D01*
X966Y219D01*
X966Y217D01*
X968Y217D01*
X968Y215D01*
X970Y215D01*
X970Y213D01*
X972Y213D01*
X972Y211D01*
X974Y211D01*
X974Y209D01*
X976Y209D01*
X976Y207D01*
X978Y207D01*
X978Y205D01*
X980Y205D01*
X980Y203D01*
X982Y203D01*
X982Y201D01*
X984Y201D01*
X984Y199D01*
X986Y199D01*
X986Y197D01*
X988Y197D01*
X988Y195D01*
X990Y195D01*
X990Y193D01*
X992Y193D01*
X992Y191D01*
X994Y191D01*
X994Y189D01*
X1382Y189D01*
X1382Y191D01*
X1384Y191D01*
X1384Y193D01*
X1386Y193D01*
X1386Y195D01*
X1388Y195D01*
X1388Y197D01*
X1390Y197D01*
X1390Y199D01*
X1392Y199D01*
X1392Y201D01*
X1394Y201D01*
X1394Y203D01*
X1396Y203D01*
X1396Y205D01*
X1398Y205D01*
X1398Y207D01*
X1400Y207D01*
X1400Y209D01*
X1402Y209D01*
X1402Y211D01*
X1404Y211D01*
X1404Y213D01*
X1406Y213D01*
X1406Y215D01*
X1408Y215D01*
X1408Y217D01*
X1410Y217D01*
X1410Y219D01*
X1412Y219D01*
X1412Y221D01*
X1414Y221D01*
X1414Y223D01*
X1416Y223D01*
X1416Y225D01*
X1418Y225D01*
X1418Y227D01*
X1420Y227D01*
X1420Y229D01*
X1422Y229D01*
X1422Y231D01*
X1424Y231D01*
X1424Y233D01*
X1426Y233D01*
X1426Y235D01*
X1428Y235D01*
X1428Y237D01*
X1430Y237D01*
X1430Y239D01*
X1432Y239D01*
X1432Y241D01*
X1434Y241D01*
X1434Y243D01*
X1436Y243D01*
X1436Y245D01*
X1438Y245D01*
X1438Y247D01*
X1440Y247D01*
X1440Y249D01*
X1442Y249D01*
X1442Y251D01*
X1444Y251D01*
X1444Y253D01*
X1446Y253D01*
X1446Y255D01*
X1448Y255D01*
X1448Y257D01*
X1450Y257D01*
X1450Y259D01*
X1452Y259D01*
X1452Y261D01*
X1454Y261D01*
X1454Y263D01*
X1456Y263D01*
X1456Y265D01*
X1458Y265D01*
X1458Y267D01*
X1460Y267D01*
X1460Y269D01*
X1462Y269D01*
X1462Y271D01*
X1464Y271D01*
X1464Y273D01*
X1466Y273D01*
X1466Y275D01*
X1468Y275D01*
X1468Y277D01*
X1470Y277D01*
X1470Y279D01*
X1472Y279D01*
X1472Y281D01*
X1474Y281D01*
X1474Y283D01*
X1476Y283D01*
X1476Y285D01*
X1478Y285D01*
X1478Y287D01*
X1480Y287D01*
X1480Y289D01*
X1482Y289D01*
X1482Y291D01*
X1484Y291D01*
X1484Y293D01*
X1486Y293D01*
X1486Y295D01*
X1488Y295D01*
X1488Y297D01*
X1490Y297D01*
X1490Y299D01*
X1492Y299D01*
X1492Y301D01*
X1494Y301D01*
X1494Y303D01*
X1496Y303D01*
X1496Y305D01*
X1498Y305D01*
X1498Y307D01*
X1500Y307D01*
X1500Y309D01*
X1502Y309D01*
X1502Y311D01*
X1504Y311D01*
X1504Y313D01*
X1506Y313D01*
X1506Y315D01*
X1508Y315D01*
X1508Y317D01*
X1510Y317D01*
X1510Y319D01*
X1512Y319D01*
X1512Y321D01*
X1514Y321D01*
X1514Y323D01*
X1516Y323D01*
X1516Y325D01*
X1518Y325D01*
X1518Y327D01*
X1520Y327D01*
X1520Y329D01*
X556Y329D01*
G37*
D02*
G36*
X1296Y1651D02*
X1296Y1649D01*
X1294Y1649D01*
X1294Y1647D01*
X1292Y1647D01*
X1292Y1645D01*
X1290Y1645D01*
X1290Y1643D01*
X1288Y1643D01*
X1288Y1641D01*
X1286Y1641D01*
X1286Y1639D01*
X1284Y1639D01*
X1284Y1637D01*
X1282Y1637D01*
X1282Y1635D01*
X1280Y1635D01*
X1280Y1633D01*
X1278Y1633D01*
X1278Y1631D01*
X1276Y1631D01*
X1276Y1629D01*
X1274Y1629D01*
X1274Y1627D01*
X1272Y1627D01*
X1272Y1625D01*
X1270Y1625D01*
X1270Y1623D01*
X1268Y1623D01*
X1268Y1621D01*
X1266Y1621D01*
X1266Y1619D01*
X1264Y1619D01*
X1264Y1617D01*
X1262Y1617D01*
X1262Y1615D01*
X1260Y1615D01*
X1260Y1613D01*
X1258Y1613D01*
X1258Y1611D01*
X1256Y1611D01*
X1256Y1609D01*
X1254Y1609D01*
X1254Y1607D01*
X1252Y1607D01*
X1252Y1605D01*
X1250Y1605D01*
X1250Y1603D01*
X1248Y1603D01*
X1248Y1601D01*
X1246Y1601D01*
X1246Y1599D01*
X1244Y1599D01*
X1244Y1597D01*
X1242Y1597D01*
X1242Y1595D01*
X1240Y1595D01*
X1240Y1593D01*
X1238Y1593D01*
X1238Y1591D01*
X1236Y1591D01*
X1236Y1589D01*
X1234Y1589D01*
X1234Y1587D01*
X1232Y1587D01*
X1232Y1585D01*
X1230Y1585D01*
X1230Y1583D01*
X1228Y1583D01*
X1228Y1581D01*
X1226Y1581D01*
X1226Y1579D01*
X1224Y1579D01*
X1224Y1577D01*
X1222Y1577D01*
X1222Y1575D01*
X1220Y1575D01*
X1220Y1573D01*
X1218Y1573D01*
X1218Y1571D01*
X1216Y1571D01*
X1216Y1569D01*
X1214Y1569D01*
X1214Y1567D01*
X1212Y1567D01*
X1212Y1565D01*
X1210Y1565D01*
X1210Y1563D01*
X1208Y1563D01*
X1208Y1561D01*
X1206Y1561D01*
X1206Y1559D01*
X1204Y1559D01*
X1204Y1557D01*
X1202Y1557D01*
X1202Y1555D01*
X1200Y1555D01*
X1200Y1553D01*
X1198Y1553D01*
X1198Y1551D01*
X1196Y1551D01*
X1196Y1549D01*
X1194Y1549D01*
X1194Y1547D01*
X1192Y1547D01*
X1192Y1545D01*
X1190Y1545D01*
X1190Y1543D01*
X1188Y1543D01*
X1188Y1541D01*
X1186Y1541D01*
X1186Y1539D01*
X1184Y1539D01*
X1184Y1537D01*
X1182Y1537D01*
X1182Y1535D01*
X1180Y1535D01*
X1180Y1533D01*
X1178Y1533D01*
X1178Y1531D01*
X1176Y1531D01*
X1176Y1529D01*
X1174Y1529D01*
X1174Y1527D01*
X1172Y1527D01*
X1172Y1525D01*
X1170Y1525D01*
X1170Y1523D01*
X1168Y1523D01*
X1168Y1521D01*
X1166Y1521D01*
X1166Y1519D01*
X1164Y1519D01*
X1164Y1517D01*
X1162Y1517D01*
X1162Y1515D01*
X1160Y1515D01*
X1160Y1513D01*
X1158Y1513D01*
X1158Y1511D01*
X1156Y1511D01*
X1156Y1509D01*
X1154Y1509D01*
X1154Y1507D01*
X1152Y1507D01*
X1152Y1505D01*
X1150Y1505D01*
X1150Y1503D01*
X1148Y1503D01*
X1148Y1501D01*
X1146Y1501D01*
X1146Y1499D01*
X1144Y1499D01*
X1144Y1497D01*
X1142Y1497D01*
X1142Y1495D01*
X1140Y1495D01*
X1140Y1493D01*
X1138Y1493D01*
X1138Y1491D01*
X1136Y1491D01*
X1136Y1463D01*
X1134Y1463D01*
X1134Y1397D01*
X1324Y1397D01*
X1324Y1395D01*
X1330Y1395D01*
X1330Y1393D01*
X1334Y1393D01*
X1334Y1391D01*
X1336Y1391D01*
X1336Y1389D01*
X1340Y1389D01*
X1340Y1387D01*
X1342Y1387D01*
X1342Y1385D01*
X1344Y1385D01*
X1344Y1383D01*
X1346Y1383D01*
X1346Y1381D01*
X1348Y1381D01*
X1348Y1379D01*
X1350Y1379D01*
X1350Y1377D01*
X1352Y1377D01*
X1352Y1375D01*
X1354Y1375D01*
X1354Y1371D01*
X1356Y1371D01*
X1356Y1367D01*
X1358Y1367D01*
X1358Y1363D01*
X1470Y1363D01*
X1470Y1361D01*
X1472Y1361D01*
X1472Y1359D01*
X1474Y1359D01*
X1474Y1357D01*
X1476Y1357D01*
X1476Y1355D01*
X1478Y1355D01*
X1478Y1353D01*
X1480Y1353D01*
X1480Y1351D01*
X1482Y1351D01*
X1482Y1349D01*
X1484Y1349D01*
X1484Y1347D01*
X1486Y1347D01*
X1486Y1345D01*
X1488Y1345D01*
X1488Y1343D01*
X1490Y1343D01*
X1490Y1341D01*
X1492Y1341D01*
X1492Y1339D01*
X1494Y1339D01*
X1494Y1337D01*
X1496Y1337D01*
X1496Y1335D01*
X1498Y1335D01*
X1498Y1333D01*
X1500Y1333D01*
X1500Y1331D01*
X1502Y1331D01*
X1502Y1329D01*
X1504Y1329D01*
X1504Y1327D01*
X1506Y1327D01*
X1506Y1325D01*
X1508Y1325D01*
X1508Y1323D01*
X1510Y1323D01*
X1510Y1321D01*
X1512Y1321D01*
X1512Y1319D01*
X1514Y1319D01*
X1514Y1317D01*
X1516Y1317D01*
X1516Y1315D01*
X1518Y1315D01*
X1518Y1313D01*
X1520Y1313D01*
X1520Y1311D01*
X1522Y1311D01*
X1522Y1309D01*
X1524Y1309D01*
X1524Y1307D01*
X1526Y1307D01*
X1526Y1305D01*
X1528Y1305D01*
X1528Y1303D01*
X1530Y1303D01*
X1530Y1301D01*
X1532Y1301D01*
X1532Y1299D01*
X1534Y1299D01*
X1534Y1297D01*
X1536Y1297D01*
X1536Y1295D01*
X1538Y1295D01*
X1538Y1293D01*
X1542Y1293D01*
X1542Y1291D01*
X1544Y1291D01*
X1544Y1289D01*
X1546Y1289D01*
X1546Y1287D01*
X1566Y1287D01*
X1566Y1289D01*
X1564Y1289D01*
X1564Y1307D01*
X1566Y1307D01*
X1566Y1313D01*
X1568Y1313D01*
X1568Y1317D01*
X1570Y1317D01*
X1570Y1321D01*
X1572Y1321D01*
X1572Y1325D01*
X1574Y1325D01*
X1574Y1327D01*
X1576Y1327D01*
X1576Y1329D01*
X1578Y1329D01*
X1578Y1331D01*
X1580Y1331D01*
X1580Y1333D01*
X1582Y1333D01*
X1582Y1335D01*
X1584Y1335D01*
X1584Y1337D01*
X1586Y1337D01*
X1586Y1359D01*
X1584Y1359D01*
X1584Y1361D01*
X1582Y1361D01*
X1582Y1363D01*
X1580Y1363D01*
X1580Y1365D01*
X1578Y1365D01*
X1578Y1367D01*
X1576Y1367D01*
X1576Y1369D01*
X1574Y1369D01*
X1574Y1371D01*
X1572Y1371D01*
X1572Y1375D01*
X1570Y1375D01*
X1570Y1379D01*
X1568Y1379D01*
X1568Y1383D01*
X1566Y1383D01*
X1566Y1389D01*
X1564Y1389D01*
X1564Y1407D01*
X1566Y1407D01*
X1566Y1413D01*
X1568Y1413D01*
X1568Y1417D01*
X1570Y1417D01*
X1570Y1421D01*
X1572Y1421D01*
X1572Y1425D01*
X1574Y1425D01*
X1574Y1427D01*
X1576Y1427D01*
X1576Y1429D01*
X1578Y1429D01*
X1578Y1431D01*
X1580Y1431D01*
X1580Y1433D01*
X1582Y1433D01*
X1582Y1435D01*
X1584Y1435D01*
X1584Y1437D01*
X1586Y1437D01*
X1586Y1459D01*
X1584Y1459D01*
X1584Y1461D01*
X1582Y1461D01*
X1582Y1463D01*
X1580Y1463D01*
X1580Y1465D01*
X1578Y1465D01*
X1578Y1467D01*
X1576Y1467D01*
X1576Y1469D01*
X1574Y1469D01*
X1574Y1471D01*
X1572Y1471D01*
X1572Y1475D01*
X1570Y1475D01*
X1570Y1479D01*
X1568Y1479D01*
X1568Y1483D01*
X1566Y1483D01*
X1566Y1489D01*
X1564Y1489D01*
X1564Y1507D01*
X1566Y1507D01*
X1566Y1513D01*
X1568Y1513D01*
X1568Y1517D01*
X1570Y1517D01*
X1570Y1521D01*
X1572Y1521D01*
X1572Y1525D01*
X1574Y1525D01*
X1574Y1527D01*
X1576Y1527D01*
X1576Y1529D01*
X1578Y1529D01*
X1578Y1531D01*
X1580Y1531D01*
X1580Y1533D01*
X1582Y1533D01*
X1582Y1535D01*
X1584Y1535D01*
X1584Y1537D01*
X1586Y1537D01*
X1586Y1559D01*
X1584Y1559D01*
X1584Y1561D01*
X1582Y1561D01*
X1582Y1563D01*
X1580Y1563D01*
X1580Y1565D01*
X1578Y1565D01*
X1578Y1567D01*
X1576Y1567D01*
X1576Y1569D01*
X1574Y1569D01*
X1574Y1571D01*
X1572Y1571D01*
X1572Y1575D01*
X1570Y1575D01*
X1570Y1579D01*
X1568Y1579D01*
X1568Y1583D01*
X1566Y1583D01*
X1566Y1589D01*
X1564Y1589D01*
X1564Y1607D01*
X1566Y1607D01*
X1566Y1613D01*
X1568Y1613D01*
X1568Y1617D01*
X1570Y1617D01*
X1570Y1621D01*
X1572Y1621D01*
X1572Y1625D01*
X1574Y1625D01*
X1574Y1627D01*
X1576Y1627D01*
X1576Y1629D01*
X1578Y1629D01*
X1578Y1631D01*
X1580Y1631D01*
X1580Y1651D01*
X1296Y1651D01*
G37*
D02*
G36*
X1162Y1397D02*
X1162Y1385D01*
X1184Y1385D01*
X1184Y1387D01*
X1186Y1387D01*
X1186Y1389D01*
X1188Y1389D01*
X1188Y1391D01*
X1192Y1391D01*
X1192Y1393D01*
X1196Y1393D01*
X1196Y1395D01*
X1202Y1395D01*
X1202Y1397D01*
X1162Y1397D01*
G37*
D02*
G36*
X1224Y1397D02*
X1224Y1395D01*
X1230Y1395D01*
X1230Y1393D01*
X1234Y1393D01*
X1234Y1391D01*
X1236Y1391D01*
X1236Y1389D01*
X1240Y1389D01*
X1240Y1387D01*
X1242Y1387D01*
X1242Y1385D01*
X1244Y1385D01*
X1244Y1383D01*
X1246Y1383D01*
X1246Y1381D01*
X1248Y1381D01*
X1248Y1379D01*
X1250Y1379D01*
X1250Y1377D01*
X1252Y1377D01*
X1252Y1375D01*
X1274Y1375D01*
X1274Y1377D01*
X1276Y1377D01*
X1276Y1381D01*
X1278Y1381D01*
X1278Y1383D01*
X1280Y1383D01*
X1280Y1385D01*
X1284Y1385D01*
X1284Y1387D01*
X1286Y1387D01*
X1286Y1389D01*
X1288Y1389D01*
X1288Y1391D01*
X1292Y1391D01*
X1292Y1393D01*
X1296Y1393D01*
X1296Y1395D01*
X1302Y1395D01*
X1302Y1397D01*
X1224Y1397D01*
G37*
D02*
G36*
X1646Y1651D02*
X1646Y1631D01*
X1648Y1631D01*
X1648Y1629D01*
X1650Y1629D01*
X1650Y1627D01*
X1652Y1627D01*
X1652Y1623D01*
X1654Y1623D01*
X1654Y1621D01*
X1656Y1621D01*
X1656Y1617D01*
X1658Y1617D01*
X1658Y1611D01*
X1660Y1611D01*
X1660Y1605D01*
X1662Y1605D01*
X1662Y1591D01*
X1660Y1591D01*
X1660Y1585D01*
X1658Y1585D01*
X1658Y1579D01*
X1656Y1579D01*
X1656Y1577D01*
X1654Y1577D01*
X1654Y1573D01*
X1652Y1573D01*
X1652Y1569D01*
X1650Y1569D01*
X1650Y1567D01*
X1648Y1567D01*
X1648Y1565D01*
X1646Y1565D01*
X1646Y1563D01*
X1644Y1563D01*
X1644Y1561D01*
X1642Y1561D01*
X1642Y1559D01*
X1638Y1559D01*
X1638Y1537D01*
X1642Y1537D01*
X1642Y1535D01*
X1644Y1535D01*
X1644Y1533D01*
X1646Y1533D01*
X1646Y1531D01*
X1648Y1531D01*
X1648Y1529D01*
X1650Y1529D01*
X1650Y1527D01*
X1652Y1527D01*
X1652Y1523D01*
X1654Y1523D01*
X1654Y1521D01*
X1656Y1521D01*
X1656Y1517D01*
X1658Y1517D01*
X1658Y1511D01*
X1660Y1511D01*
X1660Y1505D01*
X1662Y1505D01*
X1662Y1491D01*
X1660Y1491D01*
X1660Y1485D01*
X1658Y1485D01*
X1658Y1479D01*
X1656Y1479D01*
X1656Y1477D01*
X1654Y1477D01*
X1654Y1473D01*
X1652Y1473D01*
X1652Y1469D01*
X1650Y1469D01*
X1650Y1467D01*
X1648Y1467D01*
X1648Y1465D01*
X1646Y1465D01*
X1646Y1463D01*
X1644Y1463D01*
X1644Y1461D01*
X1642Y1461D01*
X1642Y1459D01*
X1638Y1459D01*
X1638Y1437D01*
X1642Y1437D01*
X1642Y1435D01*
X1644Y1435D01*
X1644Y1433D01*
X1646Y1433D01*
X1646Y1431D01*
X1648Y1431D01*
X1648Y1429D01*
X1650Y1429D01*
X1650Y1427D01*
X1652Y1427D01*
X1652Y1423D01*
X1654Y1423D01*
X1654Y1421D01*
X1656Y1421D01*
X1656Y1417D01*
X1658Y1417D01*
X1658Y1411D01*
X1660Y1411D01*
X1660Y1405D01*
X1662Y1405D01*
X1662Y1391D01*
X1660Y1391D01*
X1660Y1385D01*
X1658Y1385D01*
X1658Y1379D01*
X1656Y1379D01*
X1656Y1377D01*
X1654Y1377D01*
X1654Y1373D01*
X1652Y1373D01*
X1652Y1369D01*
X1650Y1369D01*
X1650Y1367D01*
X1648Y1367D01*
X1648Y1365D01*
X1646Y1365D01*
X1646Y1363D01*
X1644Y1363D01*
X1644Y1361D01*
X1642Y1361D01*
X1642Y1359D01*
X1638Y1359D01*
X1638Y1337D01*
X1642Y1337D01*
X1642Y1335D01*
X1644Y1335D01*
X1644Y1333D01*
X1646Y1333D01*
X1646Y1331D01*
X1648Y1331D01*
X1648Y1329D01*
X1650Y1329D01*
X1650Y1327D01*
X1652Y1327D01*
X1652Y1323D01*
X1654Y1323D01*
X1654Y1321D01*
X1656Y1321D01*
X1656Y1317D01*
X1658Y1317D01*
X1658Y1311D01*
X1660Y1311D01*
X1660Y1305D01*
X1662Y1305D01*
X1662Y1291D01*
X1660Y1291D01*
X1660Y1285D01*
X1658Y1285D01*
X1658Y1279D01*
X1656Y1279D01*
X1656Y1277D01*
X1654Y1277D01*
X1654Y1273D01*
X1652Y1273D01*
X1652Y1269D01*
X1650Y1269D01*
X1650Y1267D01*
X1648Y1267D01*
X1648Y1265D01*
X1646Y1265D01*
X1646Y1263D01*
X1644Y1263D01*
X1644Y1261D01*
X1642Y1261D01*
X1642Y1259D01*
X1638Y1259D01*
X1638Y1237D01*
X1642Y1237D01*
X1642Y1235D01*
X1644Y1235D01*
X1644Y1233D01*
X1646Y1233D01*
X1646Y1231D01*
X1648Y1231D01*
X1648Y1229D01*
X1650Y1229D01*
X1650Y1227D01*
X1652Y1227D01*
X1652Y1223D01*
X1654Y1223D01*
X1654Y1221D01*
X1656Y1221D01*
X1656Y1217D01*
X1658Y1217D01*
X1658Y1211D01*
X1660Y1211D01*
X1660Y1205D01*
X1662Y1205D01*
X1662Y1191D01*
X1660Y1191D01*
X1660Y1185D01*
X1658Y1185D01*
X1658Y1179D01*
X1656Y1179D01*
X1656Y1177D01*
X1654Y1177D01*
X1654Y1173D01*
X1652Y1173D01*
X1652Y1169D01*
X1650Y1169D01*
X1650Y1167D01*
X1648Y1167D01*
X1648Y1165D01*
X1646Y1165D01*
X1646Y1163D01*
X1644Y1163D01*
X1644Y1161D01*
X1642Y1161D01*
X1642Y1159D01*
X1638Y1159D01*
X1638Y1137D01*
X1642Y1137D01*
X1642Y1135D01*
X1644Y1135D01*
X1644Y1133D01*
X1646Y1133D01*
X1646Y1131D01*
X1648Y1131D01*
X1648Y1129D01*
X1650Y1129D01*
X1650Y1127D01*
X1652Y1127D01*
X1652Y1123D01*
X1654Y1123D01*
X1654Y1121D01*
X1656Y1121D01*
X1656Y1117D01*
X1658Y1117D01*
X1658Y1111D01*
X1660Y1111D01*
X1660Y1105D01*
X1662Y1105D01*
X1662Y1091D01*
X1660Y1091D01*
X1660Y1085D01*
X1658Y1085D01*
X1658Y1079D01*
X1656Y1079D01*
X1656Y1077D01*
X1654Y1077D01*
X1654Y1073D01*
X1652Y1073D01*
X1652Y1069D01*
X1650Y1069D01*
X1650Y1067D01*
X1648Y1067D01*
X1648Y1065D01*
X1646Y1065D01*
X1646Y1063D01*
X1644Y1063D01*
X1644Y1061D01*
X1642Y1061D01*
X1642Y1059D01*
X1638Y1059D01*
X1638Y1037D01*
X1642Y1037D01*
X1642Y1035D01*
X1644Y1035D01*
X1644Y1033D01*
X1646Y1033D01*
X1646Y1031D01*
X1648Y1031D01*
X1648Y1029D01*
X1650Y1029D01*
X1650Y1027D01*
X1652Y1027D01*
X1652Y1023D01*
X1654Y1023D01*
X1654Y1021D01*
X1656Y1021D01*
X1656Y1017D01*
X1658Y1017D01*
X1658Y1011D01*
X1660Y1011D01*
X1660Y1005D01*
X1662Y1005D01*
X1662Y991D01*
X1660Y991D01*
X1660Y985D01*
X1658Y985D01*
X1658Y979D01*
X1656Y979D01*
X1656Y977D01*
X1654Y977D01*
X1654Y973D01*
X1652Y973D01*
X1652Y969D01*
X1650Y969D01*
X1650Y967D01*
X1648Y967D01*
X1648Y965D01*
X1646Y965D01*
X1646Y963D01*
X1644Y963D01*
X1644Y961D01*
X1642Y961D01*
X1642Y959D01*
X1638Y959D01*
X1638Y937D01*
X1642Y937D01*
X1642Y935D01*
X1644Y935D01*
X1644Y933D01*
X1646Y933D01*
X1646Y931D01*
X1648Y931D01*
X1648Y929D01*
X1650Y929D01*
X1650Y927D01*
X1652Y927D01*
X1652Y923D01*
X1654Y923D01*
X1654Y921D01*
X1656Y921D01*
X1656Y917D01*
X1658Y917D01*
X1658Y911D01*
X1660Y911D01*
X1660Y905D01*
X1662Y905D01*
X1662Y891D01*
X1660Y891D01*
X1660Y885D01*
X1658Y885D01*
X1658Y879D01*
X1656Y879D01*
X1656Y877D01*
X1654Y877D01*
X1654Y873D01*
X1652Y873D01*
X1652Y869D01*
X1650Y869D01*
X1650Y867D01*
X1648Y867D01*
X1648Y865D01*
X1646Y865D01*
X1646Y863D01*
X1644Y863D01*
X1644Y861D01*
X1642Y861D01*
X1642Y859D01*
X1638Y859D01*
X1638Y837D01*
X1642Y837D01*
X1642Y835D01*
X1644Y835D01*
X1644Y833D01*
X1646Y833D01*
X1646Y831D01*
X1648Y831D01*
X1648Y829D01*
X1650Y829D01*
X1650Y827D01*
X1652Y827D01*
X1652Y823D01*
X1654Y823D01*
X1654Y821D01*
X1656Y821D01*
X1656Y817D01*
X1658Y817D01*
X1658Y811D01*
X1660Y811D01*
X1660Y805D01*
X1662Y805D01*
X1662Y791D01*
X1660Y791D01*
X1660Y785D01*
X1658Y785D01*
X1658Y779D01*
X1656Y779D01*
X1656Y777D01*
X1654Y777D01*
X1654Y773D01*
X1652Y773D01*
X1652Y769D01*
X1650Y769D01*
X1650Y767D01*
X1648Y767D01*
X1648Y765D01*
X1646Y765D01*
X1646Y763D01*
X1644Y763D01*
X1644Y761D01*
X1642Y761D01*
X1642Y759D01*
X1638Y759D01*
X1638Y737D01*
X1642Y737D01*
X1642Y735D01*
X1644Y735D01*
X1644Y733D01*
X1646Y733D01*
X1646Y731D01*
X1648Y731D01*
X1648Y729D01*
X1650Y729D01*
X1650Y727D01*
X1652Y727D01*
X1652Y723D01*
X1654Y723D01*
X1654Y721D01*
X1656Y721D01*
X1656Y717D01*
X1658Y717D01*
X1658Y711D01*
X1660Y711D01*
X1660Y705D01*
X1662Y705D01*
X1662Y691D01*
X1660Y691D01*
X1660Y685D01*
X1658Y685D01*
X1658Y679D01*
X1656Y679D01*
X1656Y677D01*
X1654Y677D01*
X1654Y673D01*
X1652Y673D01*
X1652Y669D01*
X1650Y669D01*
X1650Y667D01*
X1648Y667D01*
X1648Y665D01*
X1646Y665D01*
X1646Y663D01*
X1644Y663D01*
X1644Y661D01*
X1642Y661D01*
X1642Y659D01*
X1638Y659D01*
X1638Y637D01*
X1642Y637D01*
X1642Y635D01*
X1644Y635D01*
X1644Y633D01*
X1646Y633D01*
X1646Y631D01*
X1648Y631D01*
X1648Y629D01*
X1650Y629D01*
X1650Y627D01*
X1652Y627D01*
X1652Y623D01*
X1654Y623D01*
X1654Y621D01*
X1656Y621D01*
X1656Y617D01*
X1658Y617D01*
X1658Y611D01*
X1660Y611D01*
X1660Y605D01*
X1662Y605D01*
X1662Y591D01*
X1660Y591D01*
X1660Y585D01*
X1658Y585D01*
X1658Y579D01*
X1656Y579D01*
X1656Y577D01*
X1654Y577D01*
X1654Y573D01*
X1652Y573D01*
X1652Y569D01*
X1650Y569D01*
X1650Y567D01*
X1648Y567D01*
X1648Y565D01*
X1646Y565D01*
X1646Y563D01*
X1644Y563D01*
X1644Y561D01*
X1642Y561D01*
X1642Y559D01*
X1638Y559D01*
X1638Y537D01*
X1642Y537D01*
X1642Y535D01*
X1644Y535D01*
X1644Y533D01*
X1646Y533D01*
X1646Y531D01*
X1648Y531D01*
X1648Y529D01*
X1650Y529D01*
X1650Y527D01*
X1652Y527D01*
X1652Y523D01*
X1654Y523D01*
X1654Y521D01*
X1656Y521D01*
X1656Y517D01*
X1658Y517D01*
X1658Y511D01*
X1660Y511D01*
X1660Y505D01*
X1662Y505D01*
X1662Y491D01*
X1660Y491D01*
X1660Y485D01*
X1658Y485D01*
X1658Y479D01*
X1656Y479D01*
X1656Y477D01*
X1654Y477D01*
X1654Y473D01*
X1652Y473D01*
X1652Y469D01*
X1650Y469D01*
X1650Y467D01*
X1648Y467D01*
X1648Y465D01*
X1646Y465D01*
X1646Y463D01*
X1644Y463D01*
X1644Y461D01*
X1642Y461D01*
X1642Y459D01*
X1638Y459D01*
X1638Y437D01*
X1642Y437D01*
X1642Y435D01*
X1644Y435D01*
X1644Y433D01*
X1646Y433D01*
X1646Y431D01*
X1648Y431D01*
X1648Y429D01*
X1650Y429D01*
X1650Y427D01*
X1652Y427D01*
X1652Y423D01*
X1654Y423D01*
X1654Y421D01*
X1656Y421D01*
X1656Y417D01*
X1658Y417D01*
X1658Y411D01*
X1660Y411D01*
X1660Y405D01*
X1662Y405D01*
X1662Y391D01*
X1660Y391D01*
X1660Y385D01*
X1658Y385D01*
X1658Y379D01*
X1656Y379D01*
X1656Y377D01*
X1654Y377D01*
X1654Y373D01*
X1652Y373D01*
X1652Y369D01*
X1650Y369D01*
X1650Y367D01*
X1648Y367D01*
X1648Y365D01*
X1646Y365D01*
X1646Y363D01*
X1644Y363D01*
X1644Y361D01*
X1642Y361D01*
X1642Y359D01*
X1638Y359D01*
X1638Y337D01*
X1642Y337D01*
X1642Y335D01*
X1644Y335D01*
X1644Y333D01*
X1646Y333D01*
X1646Y331D01*
X1648Y331D01*
X1648Y329D01*
X1650Y329D01*
X1650Y327D01*
X1652Y327D01*
X1652Y323D01*
X1654Y323D01*
X1654Y321D01*
X1656Y321D01*
X1656Y317D01*
X1658Y317D01*
X1658Y311D01*
X1660Y311D01*
X1660Y305D01*
X1662Y305D01*
X1662Y291D01*
X1660Y291D01*
X1660Y285D01*
X1658Y285D01*
X1658Y279D01*
X1656Y279D01*
X1656Y277D01*
X1654Y277D01*
X1654Y273D01*
X1652Y273D01*
X1652Y269D01*
X1650Y269D01*
X1650Y267D01*
X1648Y267D01*
X1648Y265D01*
X1646Y265D01*
X1646Y263D01*
X1644Y263D01*
X1644Y261D01*
X1642Y261D01*
X1642Y259D01*
X1638Y259D01*
X1638Y237D01*
X1642Y237D01*
X1642Y235D01*
X1644Y235D01*
X1644Y233D01*
X1646Y233D01*
X1646Y231D01*
X1648Y231D01*
X1648Y229D01*
X1650Y229D01*
X1650Y227D01*
X1652Y227D01*
X1652Y223D01*
X1654Y223D01*
X1654Y221D01*
X1656Y221D01*
X1656Y217D01*
X1658Y217D01*
X1658Y211D01*
X1660Y211D01*
X1660Y205D01*
X1662Y205D01*
X1662Y191D01*
X1660Y191D01*
X1660Y185D01*
X1658Y185D01*
X1658Y179D01*
X1656Y179D01*
X1656Y177D01*
X1654Y177D01*
X1654Y173D01*
X1652Y173D01*
X1652Y169D01*
X1650Y169D01*
X1650Y167D01*
X1648Y167D01*
X1648Y165D01*
X1646Y165D01*
X1646Y163D01*
X1644Y163D01*
X1644Y161D01*
X1642Y161D01*
X1642Y159D01*
X1638Y159D01*
X1638Y157D01*
X1636Y157D01*
X1636Y155D01*
X1632Y155D01*
X1632Y153D01*
X1626Y153D01*
X1626Y151D01*
X1620Y151D01*
X1620Y149D01*
X1586Y149D01*
X1586Y147D01*
X1584Y147D01*
X1584Y145D01*
X1582Y145D01*
X1582Y143D01*
X1580Y143D01*
X1580Y141D01*
X1578Y141D01*
X1578Y139D01*
X1576Y139D01*
X1576Y137D01*
X1574Y137D01*
X1574Y135D01*
X1572Y135D01*
X1572Y133D01*
X1570Y133D01*
X1570Y113D01*
X2106Y113D01*
X2106Y115D01*
X2108Y115D01*
X2108Y117D01*
X2110Y117D01*
X2110Y119D01*
X2112Y119D01*
X2112Y121D01*
X2114Y121D01*
X2114Y123D01*
X2116Y123D01*
X2116Y125D01*
X2118Y125D01*
X2118Y127D01*
X2120Y127D01*
X2120Y129D01*
X2122Y129D01*
X2122Y131D01*
X2124Y131D01*
X2124Y133D01*
X2126Y133D01*
X2126Y135D01*
X2128Y135D01*
X2128Y137D01*
X2130Y137D01*
X2130Y139D01*
X2132Y139D01*
X2132Y141D01*
X2134Y141D01*
X2134Y143D01*
X2136Y143D01*
X2136Y145D01*
X2138Y145D01*
X2138Y147D01*
X2140Y147D01*
X2140Y149D01*
X2142Y149D01*
X2142Y151D01*
X2144Y151D01*
X2144Y153D01*
X2146Y153D01*
X2146Y155D01*
X2148Y155D01*
X2148Y157D01*
X2150Y157D01*
X2150Y159D01*
X2152Y159D01*
X2152Y161D01*
X2154Y161D01*
X2154Y163D01*
X2156Y163D01*
X2156Y165D01*
X2158Y165D01*
X2158Y167D01*
X2160Y167D01*
X2160Y169D01*
X2162Y169D01*
X2162Y171D01*
X2164Y171D01*
X2164Y207D01*
X2166Y207D01*
X2166Y213D01*
X2168Y213D01*
X2168Y217D01*
X2170Y217D01*
X2170Y221D01*
X2172Y221D01*
X2172Y225D01*
X2174Y225D01*
X2174Y227D01*
X2176Y227D01*
X2176Y229D01*
X2178Y229D01*
X2178Y231D01*
X2180Y231D01*
X2180Y233D01*
X2182Y233D01*
X2182Y235D01*
X2184Y235D01*
X2184Y237D01*
X2186Y237D01*
X2186Y259D01*
X2184Y259D01*
X2184Y261D01*
X2182Y261D01*
X2182Y263D01*
X2180Y263D01*
X2180Y265D01*
X2178Y265D01*
X2178Y267D01*
X2176Y267D01*
X2176Y269D01*
X2174Y269D01*
X2174Y271D01*
X2172Y271D01*
X2172Y275D01*
X2170Y275D01*
X2170Y279D01*
X2168Y279D01*
X2168Y283D01*
X2166Y283D01*
X2166Y289D01*
X2164Y289D01*
X2164Y307D01*
X2166Y307D01*
X2166Y313D01*
X2168Y313D01*
X2168Y317D01*
X2170Y317D01*
X2170Y321D01*
X2172Y321D01*
X2172Y325D01*
X2174Y325D01*
X2174Y327D01*
X2176Y327D01*
X2176Y329D01*
X2178Y329D01*
X2178Y331D01*
X2180Y331D01*
X2180Y333D01*
X2182Y333D01*
X2182Y335D01*
X2184Y335D01*
X2184Y337D01*
X2186Y337D01*
X2186Y359D01*
X2184Y359D01*
X2184Y361D01*
X2182Y361D01*
X2182Y363D01*
X2180Y363D01*
X2180Y365D01*
X2178Y365D01*
X2178Y367D01*
X2176Y367D01*
X2176Y369D01*
X2174Y369D01*
X2174Y371D01*
X2172Y371D01*
X2172Y375D01*
X2170Y375D01*
X2170Y379D01*
X2168Y379D01*
X2168Y383D01*
X2166Y383D01*
X2166Y389D01*
X2164Y389D01*
X2164Y407D01*
X2166Y407D01*
X2166Y413D01*
X2168Y413D01*
X2168Y417D01*
X2170Y417D01*
X2170Y421D01*
X2172Y421D01*
X2172Y425D01*
X2174Y425D01*
X2174Y427D01*
X2176Y427D01*
X2176Y429D01*
X2178Y429D01*
X2178Y431D01*
X2180Y431D01*
X2180Y433D01*
X2182Y433D01*
X2182Y435D01*
X2184Y435D01*
X2184Y437D01*
X2186Y437D01*
X2186Y459D01*
X2184Y459D01*
X2184Y461D01*
X2182Y461D01*
X2182Y463D01*
X2180Y463D01*
X2180Y465D01*
X2178Y465D01*
X2178Y467D01*
X2176Y467D01*
X2176Y469D01*
X2174Y469D01*
X2174Y471D01*
X2172Y471D01*
X2172Y475D01*
X2170Y475D01*
X2170Y479D01*
X2168Y479D01*
X2168Y483D01*
X2166Y483D01*
X2166Y489D01*
X2164Y489D01*
X2164Y507D01*
X2166Y507D01*
X2166Y513D01*
X2168Y513D01*
X2168Y517D01*
X2170Y517D01*
X2170Y521D01*
X2172Y521D01*
X2172Y525D01*
X2174Y525D01*
X2174Y527D01*
X2176Y527D01*
X2176Y529D01*
X2178Y529D01*
X2178Y531D01*
X2180Y531D01*
X2180Y533D01*
X2182Y533D01*
X2182Y535D01*
X2184Y535D01*
X2184Y537D01*
X2186Y537D01*
X2186Y559D01*
X2184Y559D01*
X2184Y561D01*
X2182Y561D01*
X2182Y563D01*
X2180Y563D01*
X2180Y565D01*
X2178Y565D01*
X2178Y567D01*
X2176Y567D01*
X2176Y569D01*
X2174Y569D01*
X2174Y571D01*
X2172Y571D01*
X2172Y575D01*
X2170Y575D01*
X2170Y579D01*
X2168Y579D01*
X2168Y583D01*
X2166Y583D01*
X2166Y589D01*
X2164Y589D01*
X2164Y607D01*
X2166Y607D01*
X2166Y613D01*
X2168Y613D01*
X2168Y617D01*
X2170Y617D01*
X2170Y621D01*
X2172Y621D01*
X2172Y625D01*
X2174Y625D01*
X2174Y627D01*
X2176Y627D01*
X2176Y629D01*
X2178Y629D01*
X2178Y631D01*
X2180Y631D01*
X2180Y633D01*
X2182Y633D01*
X2182Y635D01*
X2184Y635D01*
X2184Y637D01*
X2186Y637D01*
X2186Y659D01*
X2184Y659D01*
X2184Y661D01*
X2182Y661D01*
X2182Y663D01*
X2180Y663D01*
X2180Y665D01*
X2178Y665D01*
X2178Y667D01*
X2176Y667D01*
X2176Y669D01*
X2174Y669D01*
X2174Y671D01*
X2172Y671D01*
X2172Y675D01*
X2170Y675D01*
X2170Y679D01*
X2168Y679D01*
X2168Y683D01*
X2166Y683D01*
X2166Y689D01*
X2164Y689D01*
X2164Y707D01*
X2166Y707D01*
X2166Y713D01*
X2168Y713D01*
X2168Y717D01*
X2170Y717D01*
X2170Y721D01*
X2172Y721D01*
X2172Y725D01*
X2174Y725D01*
X2174Y727D01*
X2176Y727D01*
X2176Y729D01*
X2178Y729D01*
X2178Y731D01*
X2180Y731D01*
X2180Y733D01*
X2182Y733D01*
X2182Y735D01*
X2184Y735D01*
X2184Y737D01*
X2186Y737D01*
X2186Y759D01*
X2184Y759D01*
X2184Y761D01*
X2182Y761D01*
X2182Y763D01*
X2180Y763D01*
X2180Y765D01*
X2178Y765D01*
X2178Y767D01*
X2176Y767D01*
X2176Y769D01*
X2174Y769D01*
X2174Y771D01*
X2172Y771D01*
X2172Y775D01*
X2170Y775D01*
X2170Y779D01*
X2168Y779D01*
X2168Y783D01*
X2166Y783D01*
X2166Y789D01*
X2164Y789D01*
X2164Y807D01*
X2166Y807D01*
X2166Y813D01*
X2168Y813D01*
X2168Y817D01*
X2170Y817D01*
X2170Y821D01*
X2172Y821D01*
X2172Y825D01*
X2174Y825D01*
X2174Y827D01*
X2176Y827D01*
X2176Y829D01*
X2178Y829D01*
X2178Y831D01*
X2180Y831D01*
X2180Y833D01*
X2182Y833D01*
X2182Y835D01*
X2184Y835D01*
X2184Y837D01*
X2186Y837D01*
X2186Y859D01*
X2184Y859D01*
X2184Y861D01*
X2182Y861D01*
X2182Y863D01*
X2180Y863D01*
X2180Y865D01*
X2178Y865D01*
X2178Y867D01*
X2176Y867D01*
X2176Y869D01*
X2174Y869D01*
X2174Y871D01*
X2172Y871D01*
X2172Y875D01*
X2170Y875D01*
X2170Y879D01*
X2168Y879D01*
X2168Y883D01*
X2166Y883D01*
X2166Y889D01*
X2164Y889D01*
X2164Y907D01*
X2166Y907D01*
X2166Y913D01*
X2168Y913D01*
X2168Y917D01*
X2170Y917D01*
X2170Y921D01*
X2172Y921D01*
X2172Y925D01*
X2174Y925D01*
X2174Y927D01*
X2176Y927D01*
X2176Y929D01*
X2178Y929D01*
X2178Y931D01*
X2180Y931D01*
X2180Y933D01*
X2182Y933D01*
X2182Y935D01*
X2184Y935D01*
X2184Y937D01*
X2186Y937D01*
X2186Y959D01*
X2184Y959D01*
X2184Y961D01*
X2182Y961D01*
X2182Y963D01*
X2180Y963D01*
X2180Y965D01*
X2178Y965D01*
X2178Y967D01*
X2176Y967D01*
X2176Y969D01*
X2174Y969D01*
X2174Y971D01*
X2172Y971D01*
X2172Y975D01*
X2170Y975D01*
X2170Y979D01*
X2168Y979D01*
X2168Y983D01*
X2166Y983D01*
X2166Y989D01*
X2164Y989D01*
X2164Y1007D01*
X2166Y1007D01*
X2166Y1013D01*
X2168Y1013D01*
X2168Y1017D01*
X2170Y1017D01*
X2170Y1021D01*
X2172Y1021D01*
X2172Y1025D01*
X2174Y1025D01*
X2174Y1027D01*
X2176Y1027D01*
X2176Y1029D01*
X2178Y1029D01*
X2178Y1031D01*
X2180Y1031D01*
X2180Y1033D01*
X2182Y1033D01*
X2182Y1035D01*
X2184Y1035D01*
X2184Y1037D01*
X2186Y1037D01*
X2186Y1059D01*
X2184Y1059D01*
X2184Y1061D01*
X2182Y1061D01*
X2182Y1063D01*
X2180Y1063D01*
X2180Y1065D01*
X2178Y1065D01*
X2178Y1067D01*
X2176Y1067D01*
X2176Y1069D01*
X2174Y1069D01*
X2174Y1071D01*
X2172Y1071D01*
X2172Y1075D01*
X2170Y1075D01*
X2170Y1079D01*
X2168Y1079D01*
X2168Y1083D01*
X2166Y1083D01*
X2166Y1089D01*
X2164Y1089D01*
X2164Y1107D01*
X2166Y1107D01*
X2166Y1113D01*
X2168Y1113D01*
X2168Y1117D01*
X2170Y1117D01*
X2170Y1121D01*
X2172Y1121D01*
X2172Y1125D01*
X2174Y1125D01*
X2174Y1127D01*
X2176Y1127D01*
X2176Y1129D01*
X2178Y1129D01*
X2178Y1131D01*
X2180Y1131D01*
X2180Y1133D01*
X2182Y1133D01*
X2182Y1135D01*
X2184Y1135D01*
X2184Y1137D01*
X2186Y1137D01*
X2186Y1159D01*
X2184Y1159D01*
X2184Y1161D01*
X2182Y1161D01*
X2182Y1163D01*
X2180Y1163D01*
X2180Y1165D01*
X2178Y1165D01*
X2178Y1167D01*
X2176Y1167D01*
X2176Y1169D01*
X2174Y1169D01*
X2174Y1171D01*
X2172Y1171D01*
X2172Y1175D01*
X2170Y1175D01*
X2170Y1179D01*
X2168Y1179D01*
X2168Y1183D01*
X2166Y1183D01*
X2166Y1189D01*
X2164Y1189D01*
X2164Y1207D01*
X2166Y1207D01*
X2166Y1213D01*
X2168Y1213D01*
X2168Y1217D01*
X2170Y1217D01*
X2170Y1221D01*
X2172Y1221D01*
X2172Y1225D01*
X2174Y1225D01*
X2174Y1227D01*
X2176Y1227D01*
X2176Y1229D01*
X2178Y1229D01*
X2178Y1231D01*
X2180Y1231D01*
X2180Y1233D01*
X2182Y1233D01*
X2182Y1235D01*
X2184Y1235D01*
X2184Y1237D01*
X2186Y1237D01*
X2186Y1259D01*
X2184Y1259D01*
X2184Y1261D01*
X2182Y1261D01*
X2182Y1263D01*
X2180Y1263D01*
X2180Y1265D01*
X2178Y1265D01*
X2178Y1267D01*
X2176Y1267D01*
X2176Y1269D01*
X2174Y1269D01*
X2174Y1271D01*
X2172Y1271D01*
X2172Y1275D01*
X2170Y1275D01*
X2170Y1279D01*
X2168Y1279D01*
X2168Y1283D01*
X2166Y1283D01*
X2166Y1289D01*
X2164Y1289D01*
X2164Y1307D01*
X2166Y1307D01*
X2166Y1313D01*
X2168Y1313D01*
X2168Y1317D01*
X2170Y1317D01*
X2170Y1321D01*
X2172Y1321D01*
X2172Y1325D01*
X2174Y1325D01*
X2174Y1327D01*
X2176Y1327D01*
X2176Y1329D01*
X2178Y1329D01*
X2178Y1331D01*
X2180Y1331D01*
X2180Y1333D01*
X2182Y1333D01*
X2182Y1335D01*
X2184Y1335D01*
X2184Y1337D01*
X2186Y1337D01*
X2186Y1359D01*
X2184Y1359D01*
X2184Y1361D01*
X2182Y1361D01*
X2182Y1363D01*
X2180Y1363D01*
X2180Y1365D01*
X2178Y1365D01*
X2178Y1367D01*
X2176Y1367D01*
X2176Y1369D01*
X2174Y1369D01*
X2174Y1371D01*
X2172Y1371D01*
X2172Y1375D01*
X2170Y1375D01*
X2170Y1379D01*
X2168Y1379D01*
X2168Y1383D01*
X2166Y1383D01*
X2166Y1389D01*
X2164Y1389D01*
X2164Y1407D01*
X2166Y1407D01*
X2166Y1413D01*
X2168Y1413D01*
X2168Y1417D01*
X2170Y1417D01*
X2170Y1421D01*
X2172Y1421D01*
X2172Y1425D01*
X2174Y1425D01*
X2174Y1427D01*
X2176Y1427D01*
X2176Y1429D01*
X2178Y1429D01*
X2178Y1431D01*
X2180Y1431D01*
X2180Y1433D01*
X2182Y1433D01*
X2182Y1435D01*
X2184Y1435D01*
X2184Y1437D01*
X2186Y1437D01*
X2186Y1459D01*
X2184Y1459D01*
X2184Y1461D01*
X2182Y1461D01*
X2182Y1463D01*
X2180Y1463D01*
X2180Y1465D01*
X2178Y1465D01*
X2178Y1467D01*
X2176Y1467D01*
X2176Y1469D01*
X2174Y1469D01*
X2174Y1471D01*
X2172Y1471D01*
X2172Y1475D01*
X2170Y1475D01*
X2170Y1479D01*
X2168Y1479D01*
X2168Y1483D01*
X2166Y1483D01*
X2166Y1489D01*
X2164Y1489D01*
X2164Y1507D01*
X2166Y1507D01*
X2166Y1513D01*
X2168Y1513D01*
X2168Y1517D01*
X2170Y1517D01*
X2170Y1521D01*
X2172Y1521D01*
X2172Y1525D01*
X2174Y1525D01*
X2174Y1527D01*
X2176Y1527D01*
X2176Y1529D01*
X2178Y1529D01*
X2178Y1531D01*
X2180Y1531D01*
X2180Y1533D01*
X2182Y1533D01*
X2182Y1535D01*
X2184Y1535D01*
X2184Y1537D01*
X2186Y1537D01*
X2186Y1559D01*
X2184Y1559D01*
X2184Y1561D01*
X2182Y1561D01*
X2182Y1563D01*
X2180Y1563D01*
X2180Y1565D01*
X2178Y1565D01*
X2178Y1567D01*
X2176Y1567D01*
X2176Y1569D01*
X2174Y1569D01*
X2174Y1571D01*
X2172Y1571D01*
X2172Y1575D01*
X2170Y1575D01*
X2170Y1579D01*
X2168Y1579D01*
X2168Y1583D01*
X2166Y1583D01*
X2166Y1589D01*
X2164Y1589D01*
X2164Y1617D01*
X2162Y1617D01*
X2162Y1619D01*
X2160Y1619D01*
X2160Y1621D01*
X2158Y1621D01*
X2158Y1623D01*
X2156Y1623D01*
X2156Y1625D01*
X2154Y1625D01*
X2154Y1627D01*
X2152Y1627D01*
X2152Y1629D01*
X2150Y1629D01*
X2150Y1631D01*
X2148Y1631D01*
X2148Y1633D01*
X2146Y1633D01*
X2146Y1635D01*
X2144Y1635D01*
X2144Y1637D01*
X2142Y1637D01*
X2142Y1639D01*
X2140Y1639D01*
X2140Y1641D01*
X2138Y1641D01*
X2138Y1643D01*
X2136Y1643D01*
X2136Y1645D01*
X2134Y1645D01*
X2134Y1647D01*
X2132Y1647D01*
X2132Y1649D01*
X2130Y1649D01*
X2130Y1651D01*
X1646Y1651D01*
G37*
D02*
G36*
X634Y1475D02*
X634Y1397D01*
X824Y1397D01*
X824Y1395D01*
X830Y1395D01*
X830Y1393D01*
X834Y1393D01*
X834Y1391D01*
X836Y1391D01*
X836Y1389D01*
X840Y1389D01*
X840Y1387D01*
X842Y1387D01*
X842Y1385D01*
X844Y1385D01*
X844Y1383D01*
X846Y1383D01*
X846Y1381D01*
X848Y1381D01*
X848Y1379D01*
X850Y1379D01*
X850Y1377D01*
X852Y1377D01*
X852Y1375D01*
X854Y1375D01*
X854Y1371D01*
X856Y1371D01*
X856Y1369D01*
X858Y1369D01*
X858Y1363D01*
X920Y1363D01*
X920Y1361D01*
X924Y1361D01*
X924Y1359D01*
X926Y1359D01*
X926Y1357D01*
X928Y1357D01*
X928Y1355D01*
X930Y1355D01*
X930Y1353D01*
X932Y1353D01*
X932Y1351D01*
X934Y1351D01*
X934Y1349D01*
X936Y1349D01*
X936Y1347D01*
X938Y1347D01*
X938Y1345D01*
X940Y1345D01*
X940Y1343D01*
X942Y1343D01*
X942Y1341D01*
X944Y1341D01*
X944Y1339D01*
X946Y1339D01*
X946Y1337D01*
X948Y1337D01*
X948Y1335D01*
X950Y1335D01*
X950Y1333D01*
X952Y1333D01*
X952Y1331D01*
X954Y1331D01*
X954Y1329D01*
X956Y1329D01*
X956Y1327D01*
X958Y1327D01*
X958Y1325D01*
X960Y1325D01*
X960Y1323D01*
X962Y1323D01*
X962Y1321D01*
X964Y1321D01*
X964Y1319D01*
X966Y1319D01*
X966Y1317D01*
X968Y1317D01*
X968Y1315D01*
X970Y1315D01*
X970Y1313D01*
X972Y1313D01*
X972Y1311D01*
X974Y1311D01*
X974Y1309D01*
X976Y1309D01*
X976Y1307D01*
X978Y1307D01*
X978Y1305D01*
X980Y1305D01*
X980Y1303D01*
X982Y1303D01*
X982Y1301D01*
X984Y1301D01*
X984Y1299D01*
X1062Y1299D01*
X1062Y1397D01*
X1090Y1397D01*
X1090Y1475D01*
X634Y1475D01*
G37*
D02*
G36*
X662Y1397D02*
X662Y1385D01*
X684Y1385D01*
X684Y1387D01*
X686Y1387D01*
X686Y1389D01*
X688Y1389D01*
X688Y1391D01*
X692Y1391D01*
X692Y1393D01*
X696Y1393D01*
X696Y1395D01*
X702Y1395D01*
X702Y1397D01*
X662Y1397D01*
G37*
D02*
G36*
X724Y1397D02*
X724Y1395D01*
X730Y1395D01*
X730Y1393D01*
X734Y1393D01*
X734Y1391D01*
X736Y1391D01*
X736Y1389D01*
X740Y1389D01*
X740Y1387D01*
X742Y1387D01*
X742Y1385D01*
X744Y1385D01*
X744Y1383D01*
X746Y1383D01*
X746Y1381D01*
X748Y1381D01*
X748Y1379D01*
X750Y1379D01*
X750Y1377D01*
X752Y1377D01*
X752Y1375D01*
X774Y1375D01*
X774Y1377D01*
X776Y1377D01*
X776Y1381D01*
X778Y1381D01*
X778Y1383D01*
X780Y1383D01*
X780Y1385D01*
X784Y1385D01*
X784Y1387D01*
X786Y1387D01*
X786Y1389D01*
X788Y1389D01*
X788Y1391D01*
X792Y1391D01*
X792Y1393D01*
X796Y1393D01*
X796Y1395D01*
X802Y1395D01*
X802Y1397D01*
X724Y1397D01*
G37*
D02*
G36*
X1358Y1331D02*
X1358Y1329D01*
X1356Y1329D01*
X1356Y1325D01*
X1354Y1325D01*
X1354Y1321D01*
X1352Y1321D01*
X1352Y1319D01*
X1350Y1319D01*
X1350Y1317D01*
X1348Y1317D01*
X1348Y1315D01*
X1346Y1315D01*
X1346Y1313D01*
X1344Y1313D01*
X1344Y1311D01*
X1342Y1311D01*
X1342Y1309D01*
X1340Y1309D01*
X1340Y1307D01*
X1336Y1307D01*
X1336Y1305D01*
X1334Y1305D01*
X1334Y1303D01*
X1330Y1303D01*
X1330Y1301D01*
X1324Y1301D01*
X1324Y1299D01*
X1488Y1299D01*
X1488Y1301D01*
X1486Y1301D01*
X1486Y1303D01*
X1484Y1303D01*
X1484Y1305D01*
X1482Y1305D01*
X1482Y1307D01*
X1480Y1307D01*
X1480Y1309D01*
X1478Y1309D01*
X1478Y1311D01*
X1476Y1311D01*
X1476Y1313D01*
X1474Y1313D01*
X1474Y1315D01*
X1472Y1315D01*
X1472Y1317D01*
X1470Y1317D01*
X1470Y1319D01*
X1468Y1319D01*
X1468Y1321D01*
X1466Y1321D01*
X1466Y1323D01*
X1464Y1323D01*
X1464Y1325D01*
X1462Y1325D01*
X1462Y1327D01*
X1460Y1327D01*
X1460Y1329D01*
X1458Y1329D01*
X1458Y1331D01*
X1358Y1331D01*
G37*
D02*
G36*
X1252Y1321D02*
X1252Y1319D01*
X1250Y1319D01*
X1250Y1317D01*
X1248Y1317D01*
X1248Y1315D01*
X1246Y1315D01*
X1246Y1313D01*
X1244Y1313D01*
X1244Y1311D01*
X1242Y1311D01*
X1242Y1309D01*
X1240Y1309D01*
X1240Y1307D01*
X1236Y1307D01*
X1236Y1305D01*
X1234Y1305D01*
X1234Y1303D01*
X1230Y1303D01*
X1230Y1301D01*
X1224Y1301D01*
X1224Y1299D01*
X1302Y1299D01*
X1302Y1301D01*
X1296Y1301D01*
X1296Y1303D01*
X1292Y1303D01*
X1292Y1305D01*
X1288Y1305D01*
X1288Y1307D01*
X1286Y1307D01*
X1286Y1309D01*
X1284Y1309D01*
X1284Y1311D01*
X1280Y1311D01*
X1280Y1313D01*
X1278Y1313D01*
X1278Y1315D01*
X1276Y1315D01*
X1276Y1319D01*
X1274Y1319D01*
X1274Y1321D01*
X1252Y1321D01*
G37*
D02*
G36*
X1162Y1311D02*
X1162Y1299D01*
X1202Y1299D01*
X1202Y1301D01*
X1196Y1301D01*
X1196Y1303D01*
X1192Y1303D01*
X1192Y1305D01*
X1188Y1305D01*
X1188Y1307D01*
X1186Y1307D01*
X1186Y1309D01*
X1184Y1309D01*
X1184Y1311D01*
X1162Y1311D01*
G37*
D02*
G36*
X986Y1299D02*
X986Y1297D01*
X1490Y1297D01*
X1490Y1299D01*
X986Y1299D01*
G37*
D02*
G36*
X986Y1299D02*
X986Y1297D01*
X1490Y1297D01*
X1490Y1299D01*
X986Y1299D01*
G37*
D02*
G36*
X986Y1299D02*
X986Y1297D01*
X1490Y1297D01*
X1490Y1299D01*
X986Y1299D01*
G37*
D02*
G36*
X986Y1299D02*
X986Y1297D01*
X1490Y1297D01*
X1490Y1299D01*
X986Y1299D01*
G37*
D02*
G36*
X988Y1297D02*
X988Y1295D01*
X990Y1295D01*
X990Y1293D01*
X992Y1293D01*
X992Y1291D01*
X994Y1291D01*
X994Y1289D01*
X996Y1289D01*
X996Y1287D01*
X998Y1287D01*
X998Y1285D01*
X1000Y1285D01*
X1000Y1283D01*
X1002Y1283D01*
X1002Y1281D01*
X1004Y1281D01*
X1004Y1279D01*
X1006Y1279D01*
X1006Y1277D01*
X1008Y1277D01*
X1008Y1275D01*
X1010Y1275D01*
X1010Y1273D01*
X1012Y1273D01*
X1012Y1271D01*
X1014Y1271D01*
X1014Y1269D01*
X1016Y1269D01*
X1016Y1267D01*
X1018Y1267D01*
X1018Y1265D01*
X1020Y1265D01*
X1020Y1263D01*
X1470Y1263D01*
X1470Y1261D01*
X1472Y1261D01*
X1472Y1259D01*
X1474Y1259D01*
X1474Y1257D01*
X1476Y1257D01*
X1476Y1255D01*
X1478Y1255D01*
X1478Y1253D01*
X1480Y1253D01*
X1480Y1251D01*
X1482Y1251D01*
X1482Y1249D01*
X1484Y1249D01*
X1484Y1247D01*
X1486Y1247D01*
X1486Y1245D01*
X1488Y1245D01*
X1488Y1243D01*
X1490Y1243D01*
X1490Y1241D01*
X1492Y1241D01*
X1492Y1239D01*
X1494Y1239D01*
X1494Y1237D01*
X1496Y1237D01*
X1496Y1235D01*
X1498Y1235D01*
X1498Y1233D01*
X1500Y1233D01*
X1500Y1231D01*
X1502Y1231D01*
X1502Y1229D01*
X1504Y1229D01*
X1504Y1227D01*
X1506Y1227D01*
X1506Y1225D01*
X1508Y1225D01*
X1508Y1223D01*
X1510Y1223D01*
X1510Y1221D01*
X1512Y1221D01*
X1512Y1219D01*
X1516Y1219D01*
X1516Y1217D01*
X1518Y1217D01*
X1518Y1215D01*
X1520Y1215D01*
X1520Y1213D01*
X1522Y1213D01*
X1522Y1211D01*
X1524Y1211D01*
X1524Y1209D01*
X1526Y1209D01*
X1526Y1207D01*
X1528Y1207D01*
X1528Y1205D01*
X1530Y1205D01*
X1530Y1203D01*
X1532Y1203D01*
X1532Y1201D01*
X1534Y1201D01*
X1534Y1199D01*
X1536Y1199D01*
X1536Y1197D01*
X1538Y1197D01*
X1538Y1195D01*
X1540Y1195D01*
X1540Y1193D01*
X1542Y1193D01*
X1542Y1191D01*
X1544Y1191D01*
X1544Y1189D01*
X1546Y1189D01*
X1546Y1187D01*
X1566Y1187D01*
X1566Y1189D01*
X1564Y1189D01*
X1564Y1225D01*
X1562Y1225D01*
X1562Y1227D01*
X1560Y1227D01*
X1560Y1229D01*
X1558Y1229D01*
X1558Y1231D01*
X1556Y1231D01*
X1556Y1233D01*
X1554Y1233D01*
X1554Y1235D01*
X1552Y1235D01*
X1552Y1237D01*
X1550Y1237D01*
X1550Y1239D01*
X1548Y1239D01*
X1548Y1241D01*
X1546Y1241D01*
X1546Y1243D01*
X1544Y1243D01*
X1544Y1245D01*
X1542Y1245D01*
X1542Y1247D01*
X1540Y1247D01*
X1540Y1249D01*
X1538Y1249D01*
X1538Y1251D01*
X1536Y1251D01*
X1536Y1253D01*
X1534Y1253D01*
X1534Y1255D01*
X1532Y1255D01*
X1532Y1257D01*
X1530Y1257D01*
X1530Y1259D01*
X1528Y1259D01*
X1528Y1261D01*
X1526Y1261D01*
X1526Y1263D01*
X1524Y1263D01*
X1524Y1265D01*
X1522Y1265D01*
X1522Y1267D01*
X1520Y1267D01*
X1520Y1269D01*
X1518Y1269D01*
X1518Y1271D01*
X1516Y1271D01*
X1516Y1273D01*
X1514Y1273D01*
X1514Y1275D01*
X1512Y1275D01*
X1512Y1277D01*
X1510Y1277D01*
X1510Y1279D01*
X1508Y1279D01*
X1508Y1281D01*
X1506Y1281D01*
X1506Y1283D01*
X1504Y1283D01*
X1504Y1285D01*
X1502Y1285D01*
X1502Y1287D01*
X1500Y1287D01*
X1500Y1289D01*
X1498Y1289D01*
X1498Y1291D01*
X1496Y1291D01*
X1496Y1293D01*
X1494Y1293D01*
X1494Y1295D01*
X1492Y1295D01*
X1492Y1297D01*
X988Y1297D01*
G37*
D02*
G36*
X1546Y309D02*
X1546Y307D01*
X1544Y307D01*
X1544Y305D01*
X1542Y305D01*
X1542Y303D01*
X1540Y303D01*
X1540Y301D01*
X1538Y301D01*
X1538Y299D01*
X1536Y299D01*
X1536Y297D01*
X1534Y297D01*
X1534Y295D01*
X1532Y295D01*
X1532Y293D01*
X1530Y293D01*
X1530Y291D01*
X1528Y291D01*
X1528Y289D01*
X1526Y289D01*
X1526Y287D01*
X1524Y287D01*
X1524Y285D01*
X1522Y285D01*
X1522Y283D01*
X1520Y283D01*
X1520Y281D01*
X1518Y281D01*
X1518Y279D01*
X1516Y279D01*
X1516Y277D01*
X1514Y277D01*
X1514Y275D01*
X1512Y275D01*
X1512Y273D01*
X1510Y273D01*
X1510Y271D01*
X1508Y271D01*
X1508Y269D01*
X1506Y269D01*
X1506Y267D01*
X1504Y267D01*
X1504Y265D01*
X1502Y265D01*
X1502Y263D01*
X1500Y263D01*
X1500Y261D01*
X1498Y261D01*
X1498Y259D01*
X1496Y259D01*
X1496Y257D01*
X1494Y257D01*
X1494Y255D01*
X1492Y255D01*
X1492Y253D01*
X1490Y253D01*
X1490Y251D01*
X1488Y251D01*
X1488Y249D01*
X1486Y249D01*
X1486Y247D01*
X1484Y247D01*
X1484Y245D01*
X1482Y245D01*
X1482Y243D01*
X1480Y243D01*
X1480Y241D01*
X1478Y241D01*
X1478Y239D01*
X1476Y239D01*
X1476Y237D01*
X1474Y237D01*
X1474Y235D01*
X1472Y235D01*
X1472Y233D01*
X1470Y233D01*
X1470Y231D01*
X1468Y231D01*
X1468Y229D01*
X1466Y229D01*
X1466Y227D01*
X1464Y227D01*
X1464Y225D01*
X1462Y225D01*
X1462Y223D01*
X1460Y223D01*
X1460Y221D01*
X1458Y221D01*
X1458Y219D01*
X1456Y219D01*
X1456Y217D01*
X1454Y217D01*
X1454Y215D01*
X1452Y215D01*
X1452Y213D01*
X1450Y213D01*
X1450Y211D01*
X1448Y211D01*
X1448Y209D01*
X1446Y209D01*
X1446Y207D01*
X1444Y207D01*
X1444Y205D01*
X1442Y205D01*
X1442Y203D01*
X1440Y203D01*
X1440Y201D01*
X1438Y201D01*
X1438Y199D01*
X1436Y199D01*
X1436Y197D01*
X1434Y197D01*
X1434Y195D01*
X1432Y195D01*
X1432Y193D01*
X1430Y193D01*
X1430Y191D01*
X1428Y191D01*
X1428Y189D01*
X1426Y189D01*
X1426Y187D01*
X1424Y187D01*
X1424Y185D01*
X1422Y185D01*
X1422Y183D01*
X1420Y183D01*
X1420Y163D01*
X1456Y163D01*
X1456Y165D01*
X1458Y165D01*
X1458Y167D01*
X1460Y167D01*
X1460Y169D01*
X1462Y169D01*
X1462Y171D01*
X1464Y171D01*
X1464Y173D01*
X1466Y173D01*
X1466Y175D01*
X1468Y175D01*
X1468Y177D01*
X1470Y177D01*
X1470Y179D01*
X1472Y179D01*
X1472Y181D01*
X1474Y181D01*
X1474Y183D01*
X1476Y183D01*
X1476Y185D01*
X1478Y185D01*
X1478Y187D01*
X1480Y187D01*
X1480Y189D01*
X1482Y189D01*
X1482Y191D01*
X1484Y191D01*
X1484Y193D01*
X1486Y193D01*
X1486Y195D01*
X1488Y195D01*
X1488Y197D01*
X1490Y197D01*
X1490Y199D01*
X1492Y199D01*
X1492Y201D01*
X1494Y201D01*
X1494Y203D01*
X1496Y203D01*
X1496Y205D01*
X1498Y205D01*
X1498Y207D01*
X1500Y207D01*
X1500Y209D01*
X1502Y209D01*
X1502Y211D01*
X1504Y211D01*
X1504Y213D01*
X1506Y213D01*
X1506Y215D01*
X1508Y215D01*
X1508Y217D01*
X1510Y217D01*
X1510Y219D01*
X1512Y219D01*
X1512Y221D01*
X1514Y221D01*
X1514Y223D01*
X1516Y223D01*
X1516Y225D01*
X1518Y225D01*
X1518Y227D01*
X1520Y227D01*
X1520Y229D01*
X1522Y229D01*
X1522Y231D01*
X1524Y231D01*
X1524Y233D01*
X1526Y233D01*
X1526Y235D01*
X1528Y235D01*
X1528Y237D01*
X1530Y237D01*
X1530Y239D01*
X1532Y239D01*
X1532Y241D01*
X1534Y241D01*
X1534Y243D01*
X1536Y243D01*
X1536Y245D01*
X1538Y245D01*
X1538Y247D01*
X1540Y247D01*
X1540Y249D01*
X1542Y249D01*
X1542Y251D01*
X1544Y251D01*
X1544Y253D01*
X1546Y253D01*
X1546Y255D01*
X1548Y255D01*
X1548Y257D01*
X1550Y257D01*
X1550Y259D01*
X1552Y259D01*
X1552Y261D01*
X1554Y261D01*
X1554Y263D01*
X1556Y263D01*
X1556Y265D01*
X1558Y265D01*
X1558Y267D01*
X1560Y267D01*
X1560Y269D01*
X1562Y269D01*
X1562Y271D01*
X1564Y271D01*
X1564Y307D01*
X1566Y307D01*
X1566Y309D01*
X1546Y309D01*
G37*
D02*
G36*
X358Y281D02*
X358Y279D01*
X356Y279D01*
X356Y275D01*
X354Y275D01*
X354Y271D01*
X352Y271D01*
X352Y269D01*
X350Y269D01*
X350Y267D01*
X348Y267D01*
X348Y265D01*
X346Y265D01*
X346Y263D01*
X344Y263D01*
X344Y261D01*
X342Y261D01*
X342Y259D01*
X340Y259D01*
X340Y237D01*
X342Y237D01*
X342Y235D01*
X344Y235D01*
X344Y233D01*
X346Y233D01*
X346Y231D01*
X348Y231D01*
X348Y229D01*
X350Y229D01*
X350Y227D01*
X352Y227D01*
X352Y225D01*
X354Y225D01*
X354Y221D01*
X356Y221D01*
X356Y219D01*
X358Y219D01*
X358Y213D01*
X360Y213D01*
X360Y207D01*
X362Y207D01*
X362Y189D01*
X360Y189D01*
X360Y183D01*
X358Y183D01*
X358Y179D01*
X356Y179D01*
X356Y175D01*
X354Y175D01*
X354Y171D01*
X352Y171D01*
X352Y169D01*
X350Y169D01*
X350Y167D01*
X348Y167D01*
X348Y147D01*
X362Y147D01*
X362Y41D01*
X502Y41D01*
X502Y61D01*
X500Y61D01*
X500Y63D01*
X498Y63D01*
X498Y67D01*
X496Y67D01*
X496Y71D01*
X494Y71D01*
X494Y77D01*
X492Y77D01*
X492Y85D01*
X490Y85D01*
X490Y111D01*
X492Y111D01*
X492Y119D01*
X494Y119D01*
X494Y125D01*
X496Y125D01*
X496Y129D01*
X498Y129D01*
X498Y133D01*
X500Y133D01*
X500Y135D01*
X502Y135D01*
X502Y139D01*
X504Y139D01*
X504Y141D01*
X506Y141D01*
X506Y145D01*
X508Y145D01*
X508Y147D01*
X510Y147D01*
X510Y149D01*
X512Y149D01*
X512Y151D01*
X514Y151D01*
X514Y153D01*
X516Y153D01*
X516Y155D01*
X520Y155D01*
X520Y157D01*
X522Y157D01*
X522Y159D01*
X526Y159D01*
X526Y161D01*
X528Y161D01*
X528Y181D01*
X510Y181D01*
X510Y183D01*
X504Y183D01*
X504Y185D01*
X502Y185D01*
X502Y187D01*
X500Y187D01*
X500Y189D01*
X498Y189D01*
X498Y191D01*
X496Y191D01*
X496Y193D01*
X494Y193D01*
X494Y195D01*
X492Y195D01*
X492Y197D01*
X490Y197D01*
X490Y199D01*
X488Y199D01*
X488Y201D01*
X486Y201D01*
X486Y203D01*
X484Y203D01*
X484Y205D01*
X482Y205D01*
X482Y207D01*
X480Y207D01*
X480Y209D01*
X478Y209D01*
X478Y211D01*
X476Y211D01*
X476Y213D01*
X474Y213D01*
X474Y215D01*
X472Y215D01*
X472Y217D01*
X470Y217D01*
X470Y219D01*
X468Y219D01*
X468Y221D01*
X466Y221D01*
X466Y223D01*
X464Y223D01*
X464Y225D01*
X462Y225D01*
X462Y227D01*
X460Y227D01*
X460Y229D01*
X458Y229D01*
X458Y231D01*
X456Y231D01*
X456Y233D01*
X454Y233D01*
X454Y235D01*
X452Y235D01*
X452Y237D01*
X450Y237D01*
X450Y239D01*
X448Y239D01*
X448Y241D01*
X446Y241D01*
X446Y243D01*
X444Y243D01*
X444Y245D01*
X442Y245D01*
X442Y247D01*
X440Y247D01*
X440Y249D01*
X438Y249D01*
X438Y251D01*
X436Y251D01*
X436Y253D01*
X434Y253D01*
X434Y255D01*
X432Y255D01*
X432Y257D01*
X430Y257D01*
X430Y259D01*
X428Y259D01*
X428Y261D01*
X426Y261D01*
X426Y263D01*
X424Y263D01*
X424Y265D01*
X422Y265D01*
X422Y267D01*
X420Y267D01*
X420Y269D01*
X418Y269D01*
X418Y271D01*
X416Y271D01*
X416Y273D01*
X414Y273D01*
X414Y275D01*
X412Y275D01*
X412Y277D01*
X410Y277D01*
X410Y279D01*
X408Y279D01*
X408Y281D01*
X358Y281D01*
G37*
D02*
G36*
X1546Y209D02*
X1546Y207D01*
X1544Y207D01*
X1544Y205D01*
X1542Y205D01*
X1542Y203D01*
X1540Y203D01*
X1540Y201D01*
X1538Y201D01*
X1538Y199D01*
X1536Y199D01*
X1536Y197D01*
X1534Y197D01*
X1534Y195D01*
X1532Y195D01*
X1532Y193D01*
X1530Y193D01*
X1530Y191D01*
X1528Y191D01*
X1528Y189D01*
X1526Y189D01*
X1526Y187D01*
X1524Y187D01*
X1524Y185D01*
X1522Y185D01*
X1522Y183D01*
X1520Y183D01*
X1520Y181D01*
X1518Y181D01*
X1518Y179D01*
X1516Y179D01*
X1516Y177D01*
X1514Y177D01*
X1514Y175D01*
X1512Y175D01*
X1512Y173D01*
X1510Y173D01*
X1510Y171D01*
X1508Y171D01*
X1508Y169D01*
X1506Y169D01*
X1506Y167D01*
X1504Y167D01*
X1504Y165D01*
X1502Y165D01*
X1502Y163D01*
X1500Y163D01*
X1500Y161D01*
X1498Y161D01*
X1498Y159D01*
X1496Y159D01*
X1496Y139D01*
X1532Y139D01*
X1532Y141D01*
X1534Y141D01*
X1534Y143D01*
X1536Y143D01*
X1536Y145D01*
X1538Y145D01*
X1538Y147D01*
X1540Y147D01*
X1540Y149D01*
X1542Y149D01*
X1542Y151D01*
X1544Y151D01*
X1544Y153D01*
X1546Y153D01*
X1546Y155D01*
X1548Y155D01*
X1548Y157D01*
X1550Y157D01*
X1550Y159D01*
X1552Y159D01*
X1552Y161D01*
X1554Y161D01*
X1554Y163D01*
X1556Y163D01*
X1556Y165D01*
X1558Y165D01*
X1558Y167D01*
X1560Y167D01*
X1560Y169D01*
X1562Y169D01*
X1562Y171D01*
X1564Y171D01*
X1564Y207D01*
X1566Y207D01*
X1566Y209D01*
X1546Y209D01*
G37*
D02*
G36*
X2156Y1705D02*
X2156Y1685D01*
X2158Y1685D01*
X2158Y1683D01*
X2160Y1683D01*
X2160Y1681D01*
X2162Y1681D01*
X2162Y1679D01*
X2164Y1679D01*
X2164Y1677D01*
X2166Y1677D01*
X2166Y1675D01*
X2168Y1675D01*
X2168Y1673D01*
X2170Y1673D01*
X2170Y1671D01*
X2172Y1671D01*
X2172Y1669D01*
X2174Y1669D01*
X2174Y1667D01*
X2176Y1667D01*
X2176Y1665D01*
X2178Y1665D01*
X2178Y1663D01*
X2180Y1663D01*
X2180Y1661D01*
X2182Y1661D01*
X2182Y1659D01*
X2184Y1659D01*
X2184Y1657D01*
X2186Y1657D01*
X2186Y1655D01*
X2188Y1655D01*
X2188Y1653D01*
X2190Y1653D01*
X2190Y1651D01*
X2192Y1651D01*
X2192Y1649D01*
X2194Y1649D01*
X2194Y1647D01*
X2222Y1647D01*
X2222Y1645D01*
X2228Y1645D01*
X2228Y1643D01*
X2232Y1643D01*
X2232Y1641D01*
X2236Y1641D01*
X2236Y1639D01*
X2238Y1639D01*
X2238Y1637D01*
X2242Y1637D01*
X2242Y1635D01*
X2244Y1635D01*
X2244Y1633D01*
X2246Y1633D01*
X2246Y1631D01*
X2248Y1631D01*
X2248Y1629D01*
X2250Y1629D01*
X2250Y1627D01*
X2252Y1627D01*
X2252Y1623D01*
X2254Y1623D01*
X2254Y1621D01*
X2256Y1621D01*
X2256Y1617D01*
X2258Y1617D01*
X2258Y1611D01*
X2260Y1611D01*
X2260Y1605D01*
X2262Y1605D01*
X2262Y1579D01*
X2264Y1579D01*
X2264Y1577D01*
X2266Y1577D01*
X2266Y1575D01*
X2268Y1575D01*
X2268Y1573D01*
X2270Y1573D01*
X2270Y1571D01*
X2272Y1571D01*
X2272Y1569D01*
X2274Y1569D01*
X2274Y1567D01*
X2276Y1567D01*
X2276Y1565D01*
X2278Y1565D01*
X2278Y1563D01*
X2280Y1563D01*
X2280Y1561D01*
X2282Y1561D01*
X2282Y1559D01*
X2284Y1559D01*
X2284Y1557D01*
X2286Y1557D01*
X2286Y1555D01*
X2288Y1555D01*
X2288Y1553D01*
X2290Y1553D01*
X2290Y1551D01*
X2292Y1551D01*
X2292Y1549D01*
X2294Y1549D01*
X2294Y1547D01*
X2296Y1547D01*
X2296Y1545D01*
X2298Y1545D01*
X2298Y1543D01*
X2300Y1543D01*
X2300Y1541D01*
X2302Y1541D01*
X2302Y1539D01*
X2304Y1539D01*
X2304Y1537D01*
X2306Y1537D01*
X2306Y1535D01*
X2308Y1535D01*
X2308Y1533D01*
X2310Y1533D01*
X2310Y1531D01*
X2312Y1531D01*
X2312Y1529D01*
X2314Y1529D01*
X2314Y1527D01*
X2316Y1527D01*
X2316Y1525D01*
X2318Y1525D01*
X2318Y1523D01*
X2320Y1523D01*
X2320Y1521D01*
X2322Y1521D01*
X2322Y1519D01*
X2324Y1519D01*
X2324Y1517D01*
X2326Y1517D01*
X2326Y1515D01*
X2328Y1515D01*
X2328Y1513D01*
X2330Y1513D01*
X2330Y1511D01*
X2332Y1511D01*
X2332Y1509D01*
X2334Y1509D01*
X2334Y1507D01*
X2336Y1507D01*
X2336Y1505D01*
X2338Y1505D01*
X2338Y1503D01*
X2340Y1503D01*
X2340Y1501D01*
X2342Y1501D01*
X2342Y1499D01*
X2344Y1499D01*
X2344Y1497D01*
X2346Y1497D01*
X2346Y1495D01*
X2348Y1495D01*
X2348Y1493D01*
X2350Y1493D01*
X2350Y1491D01*
X2352Y1491D01*
X2352Y1489D01*
X2354Y1489D01*
X2354Y1487D01*
X2356Y1487D01*
X2356Y1485D01*
X2358Y1485D01*
X2358Y1483D01*
X2360Y1483D01*
X2360Y1481D01*
X2362Y1481D01*
X2362Y1479D01*
X2364Y1479D01*
X2364Y1477D01*
X2366Y1477D01*
X2366Y1475D01*
X2368Y1475D01*
X2368Y1473D01*
X2370Y1473D01*
X2370Y1471D01*
X2372Y1471D01*
X2372Y1469D01*
X2374Y1469D01*
X2374Y1467D01*
X2376Y1467D01*
X2376Y1465D01*
X2378Y1465D01*
X2378Y1463D01*
X2380Y1463D01*
X2380Y1461D01*
X2382Y1461D01*
X2382Y1459D01*
X2384Y1459D01*
X2384Y1457D01*
X2386Y1457D01*
X2386Y1455D01*
X2388Y1455D01*
X2388Y1453D01*
X2390Y1453D01*
X2390Y1451D01*
X2392Y1451D01*
X2392Y1449D01*
X2394Y1449D01*
X2394Y1447D01*
X2396Y1447D01*
X2396Y1445D01*
X2398Y1445D01*
X2398Y1443D01*
X2400Y1443D01*
X2400Y1441D01*
X2402Y1441D01*
X2402Y1439D01*
X2404Y1439D01*
X2404Y1435D01*
X2406Y1435D01*
X2406Y1431D01*
X2408Y1431D01*
X2408Y1071D01*
X2574Y1071D01*
X2574Y1069D01*
X2582Y1069D01*
X2582Y1067D01*
X2588Y1067D01*
X2588Y1065D01*
X2592Y1065D01*
X2592Y1063D01*
X2596Y1063D01*
X2596Y1061D01*
X2600Y1061D01*
X2600Y1059D01*
X2604Y1059D01*
X2604Y1057D01*
X2606Y1057D01*
X2606Y1055D01*
X2608Y1055D01*
X2608Y1053D01*
X2610Y1053D01*
X2610Y1051D01*
X2612Y1051D01*
X2612Y1049D01*
X2614Y1049D01*
X2614Y1047D01*
X2616Y1047D01*
X2616Y1045D01*
X2618Y1045D01*
X2618Y1043D01*
X2620Y1043D01*
X2620Y1041D01*
X2622Y1041D01*
X2622Y1037D01*
X2624Y1037D01*
X2624Y1035D01*
X2626Y1035D01*
X2626Y1031D01*
X2628Y1031D01*
X2628Y1027D01*
X2630Y1027D01*
X2630Y1023D01*
X2632Y1023D01*
X2632Y1017D01*
X2634Y1017D01*
X2634Y1007D01*
X2636Y1007D01*
X2636Y989D01*
X2634Y989D01*
X2634Y979D01*
X2632Y979D01*
X2632Y973D01*
X2630Y973D01*
X2630Y969D01*
X2628Y969D01*
X2628Y965D01*
X2626Y965D01*
X2626Y961D01*
X2624Y961D01*
X2624Y959D01*
X2622Y959D01*
X2622Y955D01*
X2620Y955D01*
X2620Y953D01*
X2618Y953D01*
X2618Y951D01*
X2616Y951D01*
X2616Y949D01*
X2614Y949D01*
X2614Y947D01*
X2612Y947D01*
X2612Y945D01*
X2610Y945D01*
X2610Y943D01*
X2608Y943D01*
X2608Y941D01*
X2606Y941D01*
X2606Y939D01*
X2604Y939D01*
X2604Y937D01*
X2600Y937D01*
X2600Y935D01*
X2596Y935D01*
X2596Y933D01*
X2592Y933D01*
X2592Y931D01*
X2588Y931D01*
X2588Y929D01*
X2582Y929D01*
X2582Y927D01*
X2574Y927D01*
X2574Y925D01*
X2758Y925D01*
X2758Y1705D01*
X2156Y1705D01*
G37*
D02*
G36*
X2262Y1499D02*
X2262Y1491D01*
X2260Y1491D01*
X2260Y1485D01*
X2258Y1485D01*
X2258Y1479D01*
X2256Y1479D01*
X2256Y1477D01*
X2254Y1477D01*
X2254Y1473D01*
X2252Y1473D01*
X2252Y1469D01*
X2250Y1469D01*
X2250Y1467D01*
X2248Y1467D01*
X2248Y1465D01*
X2246Y1465D01*
X2246Y1463D01*
X2244Y1463D01*
X2244Y1461D01*
X2242Y1461D01*
X2242Y1459D01*
X2238Y1459D01*
X2238Y1437D01*
X2242Y1437D01*
X2242Y1435D01*
X2244Y1435D01*
X2244Y1433D01*
X2246Y1433D01*
X2246Y1431D01*
X2248Y1431D01*
X2248Y1429D01*
X2250Y1429D01*
X2250Y1427D01*
X2252Y1427D01*
X2252Y1423D01*
X2254Y1423D01*
X2254Y1421D01*
X2256Y1421D01*
X2256Y1417D01*
X2258Y1417D01*
X2258Y1411D01*
X2260Y1411D01*
X2260Y1405D01*
X2262Y1405D01*
X2262Y1391D01*
X2260Y1391D01*
X2260Y1385D01*
X2258Y1385D01*
X2258Y1379D01*
X2256Y1379D01*
X2256Y1377D01*
X2254Y1377D01*
X2254Y1373D01*
X2252Y1373D01*
X2252Y1369D01*
X2250Y1369D01*
X2250Y1367D01*
X2248Y1367D01*
X2248Y1365D01*
X2246Y1365D01*
X2246Y1363D01*
X2244Y1363D01*
X2244Y1361D01*
X2242Y1361D01*
X2242Y1359D01*
X2238Y1359D01*
X2238Y1337D01*
X2242Y1337D01*
X2242Y1335D01*
X2244Y1335D01*
X2244Y1333D01*
X2246Y1333D01*
X2246Y1331D01*
X2248Y1331D01*
X2248Y1329D01*
X2250Y1329D01*
X2250Y1327D01*
X2252Y1327D01*
X2252Y1323D01*
X2254Y1323D01*
X2254Y1321D01*
X2256Y1321D01*
X2256Y1317D01*
X2258Y1317D01*
X2258Y1311D01*
X2260Y1311D01*
X2260Y1305D01*
X2262Y1305D01*
X2262Y1291D01*
X2260Y1291D01*
X2260Y1285D01*
X2258Y1285D01*
X2258Y1279D01*
X2256Y1279D01*
X2256Y1277D01*
X2254Y1277D01*
X2254Y1273D01*
X2252Y1273D01*
X2252Y1269D01*
X2250Y1269D01*
X2250Y1267D01*
X2248Y1267D01*
X2248Y1265D01*
X2246Y1265D01*
X2246Y1263D01*
X2244Y1263D01*
X2244Y1261D01*
X2242Y1261D01*
X2242Y1259D01*
X2238Y1259D01*
X2238Y1237D01*
X2242Y1237D01*
X2242Y1235D01*
X2244Y1235D01*
X2244Y1233D01*
X2246Y1233D01*
X2246Y1231D01*
X2248Y1231D01*
X2248Y1229D01*
X2250Y1229D01*
X2250Y1227D01*
X2252Y1227D01*
X2252Y1223D01*
X2254Y1223D01*
X2254Y1221D01*
X2256Y1221D01*
X2256Y1217D01*
X2258Y1217D01*
X2258Y1211D01*
X2260Y1211D01*
X2260Y1205D01*
X2262Y1205D01*
X2262Y1191D01*
X2260Y1191D01*
X2260Y1185D01*
X2258Y1185D01*
X2258Y1179D01*
X2256Y1179D01*
X2256Y1177D01*
X2254Y1177D01*
X2254Y1173D01*
X2252Y1173D01*
X2252Y1169D01*
X2250Y1169D01*
X2250Y1167D01*
X2248Y1167D01*
X2248Y1165D01*
X2246Y1165D01*
X2246Y1163D01*
X2244Y1163D01*
X2244Y1161D01*
X2242Y1161D01*
X2242Y1159D01*
X2238Y1159D01*
X2238Y1137D01*
X2242Y1137D01*
X2242Y1135D01*
X2244Y1135D01*
X2244Y1133D01*
X2246Y1133D01*
X2246Y1131D01*
X2248Y1131D01*
X2248Y1129D01*
X2250Y1129D01*
X2250Y1127D01*
X2252Y1127D01*
X2252Y1123D01*
X2254Y1123D01*
X2254Y1121D01*
X2256Y1121D01*
X2256Y1117D01*
X2258Y1117D01*
X2258Y1111D01*
X2260Y1111D01*
X2260Y1105D01*
X2262Y1105D01*
X2262Y1091D01*
X2260Y1091D01*
X2260Y1085D01*
X2258Y1085D01*
X2258Y1079D01*
X2256Y1079D01*
X2256Y1077D01*
X2254Y1077D01*
X2254Y1073D01*
X2252Y1073D01*
X2252Y1069D01*
X2250Y1069D01*
X2250Y1067D01*
X2248Y1067D01*
X2248Y1065D01*
X2246Y1065D01*
X2246Y1063D01*
X2244Y1063D01*
X2244Y1061D01*
X2242Y1061D01*
X2242Y1059D01*
X2238Y1059D01*
X2238Y1037D01*
X2242Y1037D01*
X2242Y1035D01*
X2244Y1035D01*
X2244Y1033D01*
X2246Y1033D01*
X2246Y1031D01*
X2248Y1031D01*
X2248Y1029D01*
X2250Y1029D01*
X2250Y1027D01*
X2252Y1027D01*
X2252Y1023D01*
X2254Y1023D01*
X2254Y1021D01*
X2256Y1021D01*
X2256Y1017D01*
X2258Y1017D01*
X2258Y1011D01*
X2260Y1011D01*
X2260Y1005D01*
X2262Y1005D01*
X2262Y991D01*
X2260Y991D01*
X2260Y985D01*
X2258Y985D01*
X2258Y979D01*
X2256Y979D01*
X2256Y977D01*
X2254Y977D01*
X2254Y973D01*
X2252Y973D01*
X2252Y969D01*
X2250Y969D01*
X2250Y967D01*
X2248Y967D01*
X2248Y965D01*
X2246Y965D01*
X2246Y963D01*
X2244Y963D01*
X2244Y961D01*
X2242Y961D01*
X2242Y959D01*
X2238Y959D01*
X2238Y937D01*
X2242Y937D01*
X2242Y935D01*
X2244Y935D01*
X2244Y933D01*
X2246Y933D01*
X2246Y931D01*
X2248Y931D01*
X2248Y929D01*
X2250Y929D01*
X2250Y927D01*
X2252Y927D01*
X2252Y923D01*
X2254Y923D01*
X2254Y921D01*
X2256Y921D01*
X2256Y917D01*
X2258Y917D01*
X2258Y911D01*
X2260Y911D01*
X2260Y905D01*
X2262Y905D01*
X2262Y891D01*
X2260Y891D01*
X2260Y885D01*
X2258Y885D01*
X2258Y879D01*
X2256Y879D01*
X2256Y877D01*
X2254Y877D01*
X2254Y873D01*
X2252Y873D01*
X2252Y869D01*
X2250Y869D01*
X2250Y867D01*
X2248Y867D01*
X2248Y865D01*
X2246Y865D01*
X2246Y863D01*
X2244Y863D01*
X2244Y861D01*
X2242Y861D01*
X2242Y859D01*
X2238Y859D01*
X2238Y837D01*
X2242Y837D01*
X2242Y835D01*
X2244Y835D01*
X2244Y833D01*
X2246Y833D01*
X2246Y831D01*
X2248Y831D01*
X2248Y829D01*
X2250Y829D01*
X2250Y827D01*
X2252Y827D01*
X2252Y823D01*
X2254Y823D01*
X2254Y821D01*
X2256Y821D01*
X2256Y817D01*
X2258Y817D01*
X2258Y811D01*
X2260Y811D01*
X2260Y805D01*
X2262Y805D01*
X2262Y791D01*
X2260Y791D01*
X2260Y785D01*
X2258Y785D01*
X2258Y779D01*
X2256Y779D01*
X2256Y777D01*
X2254Y777D01*
X2254Y773D01*
X2252Y773D01*
X2252Y769D01*
X2250Y769D01*
X2250Y767D01*
X2248Y767D01*
X2248Y765D01*
X2246Y765D01*
X2246Y763D01*
X2244Y763D01*
X2244Y761D01*
X2242Y761D01*
X2242Y759D01*
X2238Y759D01*
X2238Y737D01*
X2242Y737D01*
X2242Y735D01*
X2244Y735D01*
X2244Y733D01*
X2246Y733D01*
X2246Y731D01*
X2248Y731D01*
X2248Y729D01*
X2250Y729D01*
X2250Y727D01*
X2252Y727D01*
X2252Y723D01*
X2254Y723D01*
X2254Y721D01*
X2256Y721D01*
X2256Y717D01*
X2258Y717D01*
X2258Y711D01*
X2260Y711D01*
X2260Y705D01*
X2262Y705D01*
X2262Y691D01*
X2260Y691D01*
X2260Y685D01*
X2258Y685D01*
X2258Y679D01*
X2256Y679D01*
X2256Y677D01*
X2254Y677D01*
X2254Y673D01*
X2252Y673D01*
X2252Y669D01*
X2250Y669D01*
X2250Y667D01*
X2248Y667D01*
X2248Y665D01*
X2246Y665D01*
X2246Y663D01*
X2244Y663D01*
X2244Y661D01*
X2242Y661D01*
X2242Y659D01*
X2238Y659D01*
X2238Y637D01*
X2242Y637D01*
X2242Y635D01*
X2244Y635D01*
X2244Y633D01*
X2246Y633D01*
X2246Y631D01*
X2248Y631D01*
X2248Y629D01*
X2250Y629D01*
X2250Y627D01*
X2252Y627D01*
X2252Y623D01*
X2254Y623D01*
X2254Y621D01*
X2256Y621D01*
X2256Y617D01*
X2258Y617D01*
X2258Y611D01*
X2260Y611D01*
X2260Y609D01*
X2496Y609D01*
X2496Y611D01*
X2490Y611D01*
X2490Y613D01*
X2484Y613D01*
X2484Y615D01*
X2480Y615D01*
X2480Y617D01*
X2476Y617D01*
X2476Y619D01*
X2472Y619D01*
X2472Y621D01*
X2470Y621D01*
X2470Y623D01*
X2468Y623D01*
X2468Y625D01*
X2464Y625D01*
X2464Y627D01*
X2462Y627D01*
X2462Y629D01*
X2460Y629D01*
X2460Y631D01*
X2458Y631D01*
X2458Y633D01*
X2456Y633D01*
X2456Y635D01*
X2454Y635D01*
X2454Y637D01*
X2452Y637D01*
X2452Y639D01*
X2450Y639D01*
X2450Y641D01*
X2448Y641D01*
X2448Y645D01*
X2446Y645D01*
X2446Y647D01*
X2444Y647D01*
X2444Y651D01*
X2442Y651D01*
X2442Y655D01*
X2440Y655D01*
X2440Y659D01*
X2438Y659D01*
X2438Y663D01*
X2436Y663D01*
X2436Y671D01*
X2434Y671D01*
X2434Y681D01*
X2432Y681D01*
X2432Y695D01*
X2434Y695D01*
X2434Y705D01*
X2436Y705D01*
X2436Y713D01*
X2438Y713D01*
X2438Y737D01*
X2436Y737D01*
X2436Y739D01*
X2434Y739D01*
X2434Y741D01*
X2432Y741D01*
X2432Y743D01*
X2430Y743D01*
X2430Y745D01*
X2428Y745D01*
X2428Y747D01*
X2426Y747D01*
X2426Y749D01*
X2424Y749D01*
X2424Y751D01*
X2422Y751D01*
X2422Y753D01*
X2420Y753D01*
X2420Y755D01*
X2418Y755D01*
X2418Y759D01*
X2416Y759D01*
X2416Y761D01*
X2414Y761D01*
X2414Y763D01*
X2412Y763D01*
X2412Y765D01*
X2410Y765D01*
X2410Y767D01*
X2408Y767D01*
X2408Y769D01*
X2406Y769D01*
X2406Y771D01*
X2404Y771D01*
X2404Y773D01*
X2402Y773D01*
X2402Y775D01*
X2400Y775D01*
X2400Y777D01*
X2398Y777D01*
X2398Y779D01*
X2396Y779D01*
X2396Y781D01*
X2394Y781D01*
X2394Y783D01*
X2392Y783D01*
X2392Y785D01*
X2390Y785D01*
X2390Y789D01*
X2388Y789D01*
X2388Y791D01*
X2386Y791D01*
X2386Y793D01*
X2384Y793D01*
X2384Y795D01*
X2382Y795D01*
X2382Y797D01*
X2380Y797D01*
X2380Y799D01*
X2378Y799D01*
X2378Y801D01*
X2376Y801D01*
X2376Y803D01*
X2374Y803D01*
X2374Y805D01*
X2372Y805D01*
X2372Y807D01*
X2370Y807D01*
X2370Y809D01*
X2368Y809D01*
X2368Y813D01*
X2366Y813D01*
X2366Y821D01*
X2364Y821D01*
X2364Y1417D01*
X2362Y1417D01*
X2362Y1419D01*
X2360Y1419D01*
X2360Y1421D01*
X2358Y1421D01*
X2358Y1423D01*
X2356Y1423D01*
X2356Y1425D01*
X2354Y1425D01*
X2354Y1427D01*
X2352Y1427D01*
X2352Y1429D01*
X2350Y1429D01*
X2350Y1431D01*
X2348Y1431D01*
X2348Y1433D01*
X2346Y1433D01*
X2346Y1435D01*
X2344Y1435D01*
X2344Y1437D01*
X2342Y1437D01*
X2342Y1439D01*
X2340Y1439D01*
X2340Y1441D01*
X2338Y1441D01*
X2338Y1443D01*
X2336Y1443D01*
X2336Y1445D01*
X2334Y1445D01*
X2334Y1447D01*
X2332Y1447D01*
X2332Y1449D01*
X2330Y1449D01*
X2330Y1451D01*
X2328Y1451D01*
X2328Y1453D01*
X2326Y1453D01*
X2326Y1455D01*
X2324Y1455D01*
X2324Y1457D01*
X2322Y1457D01*
X2322Y1459D01*
X2320Y1459D01*
X2320Y1461D01*
X2318Y1461D01*
X2318Y1463D01*
X2316Y1463D01*
X2316Y1465D01*
X2314Y1465D01*
X2314Y1467D01*
X2312Y1467D01*
X2312Y1469D01*
X2310Y1469D01*
X2310Y1471D01*
X2308Y1471D01*
X2308Y1473D01*
X2306Y1473D01*
X2306Y1475D01*
X2304Y1475D01*
X2304Y1477D01*
X2302Y1477D01*
X2302Y1479D01*
X2300Y1479D01*
X2300Y1481D01*
X2298Y1481D01*
X2298Y1483D01*
X2296Y1483D01*
X2296Y1485D01*
X2294Y1485D01*
X2294Y1487D01*
X2292Y1487D01*
X2292Y1489D01*
X2290Y1489D01*
X2290Y1491D01*
X2288Y1491D01*
X2288Y1493D01*
X2286Y1493D01*
X2286Y1495D01*
X2284Y1495D01*
X2284Y1497D01*
X2282Y1497D01*
X2282Y1499D01*
X2262Y1499D01*
G37*
D02*
G36*
X2408Y1071D02*
X2408Y925D01*
X2552Y925D01*
X2552Y927D01*
X2544Y927D01*
X2544Y929D01*
X2538Y929D01*
X2538Y931D01*
X2532Y931D01*
X2532Y933D01*
X2528Y933D01*
X2528Y935D01*
X2526Y935D01*
X2526Y937D01*
X2522Y937D01*
X2522Y939D01*
X2520Y939D01*
X2520Y941D01*
X2518Y941D01*
X2518Y943D01*
X2514Y943D01*
X2514Y945D01*
X2512Y945D01*
X2512Y947D01*
X2510Y947D01*
X2510Y949D01*
X2508Y949D01*
X2508Y951D01*
X2506Y951D01*
X2506Y955D01*
X2504Y955D01*
X2504Y957D01*
X2502Y957D01*
X2502Y961D01*
X2500Y961D01*
X2500Y963D01*
X2498Y963D01*
X2498Y967D01*
X2496Y967D01*
X2496Y971D01*
X2494Y971D01*
X2494Y977D01*
X2492Y977D01*
X2492Y985D01*
X2490Y985D01*
X2490Y1011D01*
X2492Y1011D01*
X2492Y1019D01*
X2494Y1019D01*
X2494Y1025D01*
X2496Y1025D01*
X2496Y1029D01*
X2498Y1029D01*
X2498Y1033D01*
X2500Y1033D01*
X2500Y1035D01*
X2502Y1035D01*
X2502Y1039D01*
X2504Y1039D01*
X2504Y1041D01*
X2506Y1041D01*
X2506Y1045D01*
X2508Y1045D01*
X2508Y1047D01*
X2510Y1047D01*
X2510Y1049D01*
X2512Y1049D01*
X2512Y1051D01*
X2514Y1051D01*
X2514Y1053D01*
X2516Y1053D01*
X2516Y1055D01*
X2520Y1055D01*
X2520Y1057D01*
X2522Y1057D01*
X2522Y1059D01*
X2526Y1059D01*
X2526Y1061D01*
X2528Y1061D01*
X2528Y1063D01*
X2532Y1063D01*
X2532Y1065D01*
X2538Y1065D01*
X2538Y1067D01*
X2542Y1067D01*
X2542Y1069D01*
X2552Y1069D01*
X2552Y1071D01*
X2408Y1071D01*
G37*
D02*
G36*
X2408Y925D02*
X2408Y923D01*
X2758Y923D01*
X2758Y925D01*
X2408Y925D01*
G37*
D02*
G36*
X2408Y925D02*
X2408Y923D01*
X2758Y923D01*
X2758Y925D01*
X2408Y925D01*
G37*
D02*
G36*
X2408Y923D02*
X2408Y831D01*
X2410Y831D01*
X2410Y829D01*
X2412Y829D01*
X2412Y827D01*
X2414Y827D01*
X2414Y825D01*
X2416Y825D01*
X2416Y823D01*
X2418Y823D01*
X2418Y821D01*
X2420Y821D01*
X2420Y819D01*
X2422Y819D01*
X2422Y817D01*
X2424Y817D01*
X2424Y813D01*
X2426Y813D01*
X2426Y811D01*
X2428Y811D01*
X2428Y809D01*
X2430Y809D01*
X2430Y807D01*
X2432Y807D01*
X2432Y805D01*
X2434Y805D01*
X2434Y803D01*
X2436Y803D01*
X2436Y801D01*
X2438Y801D01*
X2438Y799D01*
X2440Y799D01*
X2440Y797D01*
X2442Y797D01*
X2442Y795D01*
X2444Y795D01*
X2444Y793D01*
X2446Y793D01*
X2446Y791D01*
X2448Y791D01*
X2448Y789D01*
X2450Y789D01*
X2450Y787D01*
X2452Y787D01*
X2452Y785D01*
X2454Y785D01*
X2454Y781D01*
X2456Y781D01*
X2456Y779D01*
X2458Y779D01*
X2458Y777D01*
X2460Y777D01*
X2460Y775D01*
X2462Y775D01*
X2462Y773D01*
X2464Y773D01*
X2464Y771D01*
X2466Y771D01*
X2466Y769D01*
X2514Y769D01*
X2514Y767D01*
X2530Y767D01*
X2530Y765D01*
X2536Y765D01*
X2536Y763D01*
X2542Y763D01*
X2542Y761D01*
X2546Y761D01*
X2546Y759D01*
X2550Y759D01*
X2550Y757D01*
X2552Y757D01*
X2552Y755D01*
X2556Y755D01*
X2556Y753D01*
X2558Y753D01*
X2558Y751D01*
X2560Y751D01*
X2560Y749D01*
X2564Y749D01*
X2564Y747D01*
X2566Y747D01*
X2566Y745D01*
X2568Y745D01*
X2568Y743D01*
X2570Y743D01*
X2570Y741D01*
X2572Y741D01*
X2572Y739D01*
X2574Y739D01*
X2574Y735D01*
X2576Y735D01*
X2576Y733D01*
X2578Y733D01*
X2578Y731D01*
X2580Y731D01*
X2580Y727D01*
X2582Y727D01*
X2582Y723D01*
X2584Y723D01*
X2584Y719D01*
X2586Y719D01*
X2586Y715D01*
X2588Y715D01*
X2588Y711D01*
X2590Y711D01*
X2590Y703D01*
X2592Y703D01*
X2592Y673D01*
X2590Y673D01*
X2590Y665D01*
X2588Y665D01*
X2588Y661D01*
X2586Y661D01*
X2586Y657D01*
X2584Y657D01*
X2584Y653D01*
X2582Y653D01*
X2582Y649D01*
X2704Y649D01*
X2704Y647D01*
X2720Y647D01*
X2720Y645D01*
X2726Y645D01*
X2726Y643D01*
X2732Y643D01*
X2732Y641D01*
X2736Y641D01*
X2736Y639D01*
X2758Y639D01*
X2758Y923D01*
X2408Y923D01*
G37*
D02*
G36*
X2468Y769D02*
X2468Y767D01*
X2470Y767D01*
X2470Y765D01*
X2496Y765D01*
X2496Y767D01*
X2512Y767D01*
X2512Y769D01*
X2468Y769D01*
G37*
D02*
G36*
X2580Y649D02*
X2580Y645D01*
X2578Y645D01*
X2578Y643D01*
X2576Y643D01*
X2576Y641D01*
X2574Y641D01*
X2574Y637D01*
X2572Y637D01*
X2572Y635D01*
X2570Y635D01*
X2570Y633D01*
X2568Y633D01*
X2568Y631D01*
X2566Y631D01*
X2566Y629D01*
X2564Y629D01*
X2564Y627D01*
X2560Y627D01*
X2560Y625D01*
X2558Y625D01*
X2558Y623D01*
X2556Y623D01*
X2556Y621D01*
X2552Y621D01*
X2552Y619D01*
X2550Y619D01*
X2550Y617D01*
X2546Y617D01*
X2546Y615D01*
X2540Y615D01*
X2540Y613D01*
X2536Y613D01*
X2536Y611D01*
X2528Y611D01*
X2528Y609D01*
X2636Y609D01*
X2636Y611D01*
X2638Y611D01*
X2638Y615D01*
X2640Y615D01*
X2640Y617D01*
X2642Y617D01*
X2642Y619D01*
X2644Y619D01*
X2644Y621D01*
X2646Y621D01*
X2646Y623D01*
X2648Y623D01*
X2648Y625D01*
X2650Y625D01*
X2650Y627D01*
X2652Y627D01*
X2652Y629D01*
X2654Y629D01*
X2654Y631D01*
X2656Y631D01*
X2656Y633D01*
X2660Y633D01*
X2660Y635D01*
X2662Y635D01*
X2662Y637D01*
X2666Y637D01*
X2666Y639D01*
X2670Y639D01*
X2670Y641D01*
X2674Y641D01*
X2674Y643D01*
X2680Y643D01*
X2680Y645D01*
X2686Y645D01*
X2686Y647D01*
X2702Y647D01*
X2702Y649D01*
X2580Y649D01*
G37*
D02*
G36*
X2260Y609D02*
X2260Y607D01*
X2634Y607D01*
X2634Y609D01*
X2260Y609D01*
G37*
D02*
G36*
X2260Y609D02*
X2260Y607D01*
X2634Y607D01*
X2634Y609D01*
X2260Y609D01*
G37*
D02*
G36*
X2260Y607D02*
X2260Y605D01*
X2262Y605D01*
X2262Y591D01*
X2260Y591D01*
X2260Y585D01*
X2258Y585D01*
X2258Y579D01*
X2256Y579D01*
X2256Y577D01*
X2254Y577D01*
X2254Y573D01*
X2252Y573D01*
X2252Y569D01*
X2250Y569D01*
X2250Y567D01*
X2248Y567D01*
X2248Y565D01*
X2246Y565D01*
X2246Y563D01*
X2244Y563D01*
X2244Y561D01*
X2242Y561D01*
X2242Y559D01*
X2238Y559D01*
X2238Y537D01*
X2242Y537D01*
X2242Y535D01*
X2244Y535D01*
X2244Y533D01*
X2246Y533D01*
X2246Y531D01*
X2248Y531D01*
X2248Y529D01*
X2514Y529D01*
X2514Y527D01*
X2530Y527D01*
X2530Y525D01*
X2536Y525D01*
X2536Y523D01*
X2542Y523D01*
X2542Y521D01*
X2546Y521D01*
X2546Y519D01*
X2550Y519D01*
X2550Y517D01*
X2552Y517D01*
X2552Y515D01*
X2556Y515D01*
X2556Y513D01*
X2558Y513D01*
X2558Y511D01*
X2560Y511D01*
X2560Y509D01*
X2564Y509D01*
X2564Y507D01*
X2566Y507D01*
X2566Y505D01*
X2568Y505D01*
X2568Y503D01*
X2570Y503D01*
X2570Y501D01*
X2572Y501D01*
X2572Y499D01*
X2574Y499D01*
X2574Y495D01*
X2576Y495D01*
X2576Y493D01*
X2578Y493D01*
X2578Y491D01*
X2580Y491D01*
X2580Y489D01*
X2686Y489D01*
X2686Y491D01*
X2680Y491D01*
X2680Y493D01*
X2674Y493D01*
X2674Y495D01*
X2670Y495D01*
X2670Y497D01*
X2666Y497D01*
X2666Y499D01*
X2662Y499D01*
X2662Y501D01*
X2660Y501D01*
X2660Y503D01*
X2658Y503D01*
X2658Y505D01*
X2654Y505D01*
X2654Y507D01*
X2652Y507D01*
X2652Y509D01*
X2650Y509D01*
X2650Y511D01*
X2648Y511D01*
X2648Y513D01*
X2646Y513D01*
X2646Y515D01*
X2644Y515D01*
X2644Y517D01*
X2642Y517D01*
X2642Y519D01*
X2640Y519D01*
X2640Y521D01*
X2638Y521D01*
X2638Y525D01*
X2636Y525D01*
X2636Y527D01*
X2634Y527D01*
X2634Y531D01*
X2632Y531D01*
X2632Y535D01*
X2630Y535D01*
X2630Y539D01*
X2628Y539D01*
X2628Y543D01*
X2626Y543D01*
X2626Y551D01*
X2624Y551D01*
X2624Y561D01*
X2622Y561D01*
X2622Y575D01*
X2624Y575D01*
X2624Y585D01*
X2626Y585D01*
X2626Y593D01*
X2628Y593D01*
X2628Y597D01*
X2630Y597D01*
X2630Y601D01*
X2632Y601D01*
X2632Y605D01*
X2634Y605D01*
X2634Y607D01*
X2260Y607D01*
G37*
D02*
G36*
X2250Y529D02*
X2250Y527D01*
X2252Y527D01*
X2252Y523D01*
X2254Y523D01*
X2254Y521D01*
X2256Y521D01*
X2256Y517D01*
X2258Y517D01*
X2258Y511D01*
X2260Y511D01*
X2260Y505D01*
X2262Y505D01*
X2262Y491D01*
X2260Y491D01*
X2260Y485D01*
X2258Y485D01*
X2258Y479D01*
X2256Y479D01*
X2256Y477D01*
X2254Y477D01*
X2254Y473D01*
X2252Y473D01*
X2252Y469D01*
X2250Y469D01*
X2250Y467D01*
X2248Y467D01*
X2248Y465D01*
X2246Y465D01*
X2246Y463D01*
X2244Y463D01*
X2244Y461D01*
X2242Y461D01*
X2242Y459D01*
X2238Y459D01*
X2238Y437D01*
X2242Y437D01*
X2242Y435D01*
X2244Y435D01*
X2244Y433D01*
X2246Y433D01*
X2246Y431D01*
X2248Y431D01*
X2248Y429D01*
X2250Y429D01*
X2250Y427D01*
X2252Y427D01*
X2252Y423D01*
X2254Y423D01*
X2254Y421D01*
X2256Y421D01*
X2256Y417D01*
X2258Y417D01*
X2258Y411D01*
X2260Y411D01*
X2260Y405D01*
X2262Y405D01*
X2262Y391D01*
X2260Y391D01*
X2260Y385D01*
X2258Y385D01*
X2258Y379D01*
X2256Y379D01*
X2256Y377D01*
X2254Y377D01*
X2254Y373D01*
X2252Y373D01*
X2252Y369D01*
X2496Y369D01*
X2496Y371D01*
X2490Y371D01*
X2490Y373D01*
X2484Y373D01*
X2484Y375D01*
X2480Y375D01*
X2480Y377D01*
X2476Y377D01*
X2476Y379D01*
X2472Y379D01*
X2472Y381D01*
X2470Y381D01*
X2470Y383D01*
X2468Y383D01*
X2468Y385D01*
X2464Y385D01*
X2464Y387D01*
X2462Y387D01*
X2462Y389D01*
X2460Y389D01*
X2460Y391D01*
X2458Y391D01*
X2458Y393D01*
X2456Y393D01*
X2456Y395D01*
X2454Y395D01*
X2454Y397D01*
X2452Y397D01*
X2452Y399D01*
X2450Y399D01*
X2450Y401D01*
X2448Y401D01*
X2448Y405D01*
X2446Y405D01*
X2446Y407D01*
X2444Y407D01*
X2444Y411D01*
X2442Y411D01*
X2442Y415D01*
X2440Y415D01*
X2440Y419D01*
X2438Y419D01*
X2438Y423D01*
X2436Y423D01*
X2436Y431D01*
X2434Y431D01*
X2434Y441D01*
X2432Y441D01*
X2432Y455D01*
X2434Y455D01*
X2434Y465D01*
X2436Y465D01*
X2436Y473D01*
X2438Y473D01*
X2438Y477D01*
X2440Y477D01*
X2440Y481D01*
X2442Y481D01*
X2442Y485D01*
X2444Y485D01*
X2444Y489D01*
X2446Y489D01*
X2446Y491D01*
X2448Y491D01*
X2448Y495D01*
X2450Y495D01*
X2450Y497D01*
X2452Y497D01*
X2452Y499D01*
X2454Y499D01*
X2454Y501D01*
X2456Y501D01*
X2456Y503D01*
X2458Y503D01*
X2458Y505D01*
X2460Y505D01*
X2460Y507D01*
X2462Y507D01*
X2462Y509D01*
X2464Y509D01*
X2464Y511D01*
X2466Y511D01*
X2466Y513D01*
X2470Y513D01*
X2470Y515D01*
X2472Y515D01*
X2472Y517D01*
X2476Y517D01*
X2476Y519D01*
X2480Y519D01*
X2480Y521D01*
X2484Y521D01*
X2484Y523D01*
X2490Y523D01*
X2490Y525D01*
X2496Y525D01*
X2496Y527D01*
X2512Y527D01*
X2512Y529D01*
X2250Y529D01*
G37*
D02*
G36*
X2736Y497D02*
X2736Y495D01*
X2730Y495D01*
X2730Y493D01*
X2726Y493D01*
X2726Y491D01*
X2718Y491D01*
X2718Y489D01*
X2758Y489D01*
X2758Y497D01*
X2736Y497D01*
G37*
D02*
G36*
X2580Y489D02*
X2580Y487D01*
X2758Y487D01*
X2758Y489D01*
X2580Y489D01*
G37*
D02*
G36*
X2580Y489D02*
X2580Y487D01*
X2758Y487D01*
X2758Y489D01*
X2580Y489D01*
G37*
D02*
G36*
X2582Y487D02*
X2582Y483D01*
X2584Y483D01*
X2584Y479D01*
X2586Y479D01*
X2586Y475D01*
X2588Y475D01*
X2588Y471D01*
X2590Y471D01*
X2590Y463D01*
X2592Y463D01*
X2592Y433D01*
X2590Y433D01*
X2590Y425D01*
X2588Y425D01*
X2588Y421D01*
X2586Y421D01*
X2586Y417D01*
X2584Y417D01*
X2584Y413D01*
X2582Y413D01*
X2582Y409D01*
X2580Y409D01*
X2580Y405D01*
X2578Y405D01*
X2578Y403D01*
X2576Y403D01*
X2576Y401D01*
X2574Y401D01*
X2574Y397D01*
X2572Y397D01*
X2572Y395D01*
X2570Y395D01*
X2570Y393D01*
X2568Y393D01*
X2568Y391D01*
X2566Y391D01*
X2566Y389D01*
X2564Y389D01*
X2564Y387D01*
X2560Y387D01*
X2560Y385D01*
X2558Y385D01*
X2558Y383D01*
X2556Y383D01*
X2556Y381D01*
X2552Y381D01*
X2552Y379D01*
X2550Y379D01*
X2550Y377D01*
X2546Y377D01*
X2546Y375D01*
X2540Y375D01*
X2540Y373D01*
X2536Y373D01*
X2536Y371D01*
X2528Y371D01*
X2528Y369D01*
X2758Y369D01*
X2758Y487D01*
X2582Y487D01*
G37*
D02*
G36*
X2250Y369D02*
X2250Y367D01*
X2758Y367D01*
X2758Y369D01*
X2250Y369D01*
G37*
D02*
G36*
X2250Y369D02*
X2250Y367D01*
X2758Y367D01*
X2758Y369D01*
X2250Y369D01*
G37*
D02*
G36*
X2248Y367D02*
X2248Y365D01*
X2246Y365D01*
X2246Y363D01*
X2244Y363D01*
X2244Y361D01*
X2242Y361D01*
X2242Y359D01*
X2238Y359D01*
X2238Y337D01*
X2242Y337D01*
X2242Y335D01*
X2244Y335D01*
X2244Y333D01*
X2246Y333D01*
X2246Y331D01*
X2248Y331D01*
X2248Y329D01*
X2250Y329D01*
X2250Y327D01*
X2252Y327D01*
X2252Y323D01*
X2254Y323D01*
X2254Y321D01*
X2256Y321D01*
X2256Y317D01*
X2258Y317D01*
X2258Y311D01*
X2260Y311D01*
X2260Y305D01*
X2262Y305D01*
X2262Y291D01*
X2260Y291D01*
X2260Y285D01*
X2258Y285D01*
X2258Y279D01*
X2256Y279D01*
X2256Y277D01*
X2254Y277D01*
X2254Y273D01*
X2252Y273D01*
X2252Y269D01*
X2250Y269D01*
X2250Y267D01*
X2248Y267D01*
X2248Y265D01*
X2246Y265D01*
X2246Y263D01*
X2244Y263D01*
X2244Y261D01*
X2242Y261D01*
X2242Y259D01*
X2238Y259D01*
X2238Y237D01*
X2242Y237D01*
X2242Y235D01*
X2244Y235D01*
X2244Y233D01*
X2246Y233D01*
X2246Y231D01*
X2248Y231D01*
X2248Y229D01*
X2250Y229D01*
X2250Y227D01*
X2252Y227D01*
X2252Y223D01*
X2254Y223D01*
X2254Y221D01*
X2256Y221D01*
X2256Y217D01*
X2258Y217D01*
X2258Y211D01*
X2260Y211D01*
X2260Y205D01*
X2262Y205D01*
X2262Y191D01*
X2260Y191D01*
X2260Y185D01*
X2258Y185D01*
X2258Y179D01*
X2256Y179D01*
X2256Y177D01*
X2254Y177D01*
X2254Y173D01*
X2252Y173D01*
X2252Y169D01*
X2250Y169D01*
X2250Y167D01*
X2248Y167D01*
X2248Y165D01*
X2246Y165D01*
X2246Y163D01*
X2244Y163D01*
X2244Y161D01*
X2242Y161D01*
X2242Y159D01*
X2238Y159D01*
X2238Y157D01*
X2236Y157D01*
X2236Y155D01*
X2232Y155D01*
X2232Y153D01*
X2226Y153D01*
X2226Y151D01*
X2220Y151D01*
X2220Y149D01*
X2186Y149D01*
X2186Y147D01*
X2184Y147D01*
X2184Y145D01*
X2182Y145D01*
X2182Y143D01*
X2180Y143D01*
X2180Y141D01*
X2178Y141D01*
X2178Y139D01*
X2176Y139D01*
X2176Y137D01*
X2174Y137D01*
X2174Y135D01*
X2172Y135D01*
X2172Y133D01*
X2170Y133D01*
X2170Y131D01*
X2168Y131D01*
X2168Y129D01*
X2166Y129D01*
X2166Y127D01*
X2164Y127D01*
X2164Y125D01*
X2162Y125D01*
X2162Y123D01*
X2160Y123D01*
X2160Y121D01*
X2158Y121D01*
X2158Y119D01*
X2156Y119D01*
X2156Y117D01*
X2154Y117D01*
X2154Y115D01*
X2152Y115D01*
X2152Y113D01*
X2150Y113D01*
X2150Y111D01*
X2148Y111D01*
X2148Y109D01*
X2146Y109D01*
X2146Y107D01*
X2144Y107D01*
X2144Y105D01*
X2142Y105D01*
X2142Y103D01*
X2140Y103D01*
X2140Y101D01*
X2138Y101D01*
X2138Y99D01*
X2136Y99D01*
X2136Y97D01*
X2134Y97D01*
X2134Y95D01*
X2132Y95D01*
X2132Y93D01*
X2130Y93D01*
X2130Y91D01*
X2128Y91D01*
X2128Y89D01*
X2126Y89D01*
X2126Y87D01*
X2124Y87D01*
X2124Y85D01*
X2120Y85D01*
X2120Y83D01*
X2114Y83D01*
X2114Y81D01*
X2758Y81D01*
X2758Y367D01*
X2248Y367D01*
G37*
D02*
G36*
X596Y181D02*
X596Y161D01*
X600Y161D01*
X600Y159D01*
X604Y159D01*
X604Y157D01*
X606Y157D01*
X606Y155D01*
X608Y155D01*
X608Y153D01*
X610Y153D01*
X610Y151D01*
X612Y151D01*
X612Y149D01*
X614Y149D01*
X614Y147D01*
X616Y147D01*
X616Y145D01*
X618Y145D01*
X618Y143D01*
X620Y143D01*
X620Y141D01*
X622Y141D01*
X622Y137D01*
X624Y137D01*
X624Y135D01*
X626Y135D01*
X626Y131D01*
X628Y131D01*
X628Y127D01*
X630Y127D01*
X630Y123D01*
X632Y123D01*
X632Y117D01*
X634Y117D01*
X634Y107D01*
X636Y107D01*
X636Y89D01*
X634Y89D01*
X634Y81D01*
X912Y81D01*
X912Y83D01*
X906Y83D01*
X906Y85D01*
X902Y85D01*
X902Y87D01*
X900Y87D01*
X900Y89D01*
X898Y89D01*
X898Y91D01*
X896Y91D01*
X896Y93D01*
X894Y93D01*
X894Y95D01*
X892Y95D01*
X892Y97D01*
X890Y97D01*
X890Y99D01*
X888Y99D01*
X888Y101D01*
X886Y101D01*
X886Y103D01*
X884Y103D01*
X884Y105D01*
X882Y105D01*
X882Y107D01*
X880Y107D01*
X880Y109D01*
X878Y109D01*
X878Y111D01*
X876Y111D01*
X876Y113D01*
X874Y113D01*
X874Y115D01*
X872Y115D01*
X872Y117D01*
X870Y117D01*
X870Y119D01*
X868Y119D01*
X868Y121D01*
X866Y121D01*
X866Y123D01*
X864Y123D01*
X864Y125D01*
X862Y125D01*
X862Y127D01*
X860Y127D01*
X860Y129D01*
X858Y129D01*
X858Y131D01*
X856Y131D01*
X856Y133D01*
X854Y133D01*
X854Y135D01*
X852Y135D01*
X852Y137D01*
X850Y137D01*
X850Y139D01*
X848Y139D01*
X848Y141D01*
X846Y141D01*
X846Y143D01*
X844Y143D01*
X844Y145D01*
X842Y145D01*
X842Y147D01*
X840Y147D01*
X840Y149D01*
X838Y149D01*
X838Y151D01*
X836Y151D01*
X836Y153D01*
X834Y153D01*
X834Y155D01*
X832Y155D01*
X832Y157D01*
X830Y157D01*
X830Y159D01*
X828Y159D01*
X828Y161D01*
X826Y161D01*
X826Y163D01*
X824Y163D01*
X824Y165D01*
X822Y165D01*
X822Y167D01*
X820Y167D01*
X820Y169D01*
X818Y169D01*
X818Y171D01*
X816Y171D01*
X816Y173D01*
X814Y173D01*
X814Y175D01*
X812Y175D01*
X812Y177D01*
X810Y177D01*
X810Y179D01*
X808Y179D01*
X808Y181D01*
X596Y181D01*
G37*
D02*
G36*
X634Y81D02*
X634Y79D01*
X2758Y79D01*
X2758Y81D01*
X634Y81D01*
G37*
D02*
G36*
X634Y81D02*
X634Y79D01*
X2758Y79D01*
X2758Y81D01*
X634Y81D01*
G37*
D02*
G36*
X632Y79D02*
X632Y73D01*
X630Y73D01*
X630Y69D01*
X628Y69D01*
X628Y65D01*
X626Y65D01*
X626Y61D01*
X624Y61D01*
X624Y41D01*
X2758Y41D01*
X2758Y79D01*
X632Y79D01*
G37*
D02*
G36*
X2662Y651D02*
X2737Y651D01*
X2737Y619D01*
X2662Y619D01*
X2662Y651D01*
G37*
D02*
G36*
X2662Y521D02*
X2737Y521D01*
X2737Y489D01*
X2662Y489D01*
X2662Y521D01*
G37*
D02*
G36*
X2748Y607D02*
X2776Y607D01*
X2776Y532D01*
X2748Y532D01*
X2748Y607D01*
G37*
D02*
G36*
X2472Y401D02*
X2547Y401D01*
X2547Y369D01*
X2472Y369D01*
X2472Y401D01*
G37*
D02*
G36*
X2428Y487D02*
X2460Y487D01*
X2460Y412D01*
X2428Y412D01*
X2428Y487D01*
G37*
D02*
G36*
X2160Y1522D02*
X2190Y1522D01*
X2190Y1477D01*
X2160Y1477D01*
X2160Y1522D01*
G37*
D02*
G36*
X1628Y1322D02*
X1662Y1322D01*
X1662Y1277D01*
X1628Y1277D01*
X1628Y1322D01*
G37*
D02*
G36*
X258Y222D02*
X292Y222D01*
X292Y177D01*
X258Y177D01*
X258Y222D01*
G37*
D02*
G36*
X330Y222D02*
X362Y222D01*
X362Y177D01*
X330Y177D01*
X330Y222D01*
G37*
D02*
G36*
X258Y1572D02*
X292Y1572D01*
X292Y1527D01*
X258Y1527D01*
X258Y1572D01*
G37*
D02*
G36*
X258Y1122D02*
X292Y1122D01*
X292Y1077D01*
X258Y1077D01*
X258Y1122D01*
G37*
D02*
G36*
X258Y672D02*
X292Y672D01*
X292Y627D01*
X258Y627D01*
X258Y672D01*
G37*
D02*
G36*
X1187Y501D02*
X1232Y501D01*
X1232Y469D01*
X1187Y469D01*
X1187Y501D01*
G37*
D02*
G36*
X689Y1101D02*
X734Y1101D01*
X734Y1069D01*
X689Y1069D01*
X689Y1101D01*
G37*
D02*
G36*
X689Y1031D02*
X734Y1031D01*
X734Y999D01*
X689Y999D01*
X689Y1031D01*
G37*
D02*
G36*
X1187Y1401D02*
X1232Y1401D01*
X1232Y1369D01*
X1187Y1369D01*
X1187Y1401D01*
G37*
D02*
G36*
X689Y1401D02*
X734Y1401D01*
X734Y1369D01*
X689Y1369D01*
X689Y1401D01*
G37*
D02*
G36*
X689Y1331D02*
X734Y1331D01*
X734Y1299D01*
X689Y1299D01*
X689Y1331D01*
G37*
D02*
G36*
X689Y501D02*
X734Y501D01*
X734Y469D01*
X689Y469D01*
X689Y501D01*
G37*
D02*
G36*
X689Y431D02*
X734Y431D01*
X734Y399D01*
X689Y399D01*
X689Y431D01*
G37*
D02*
G36*
X1187Y801D02*
X1232Y801D01*
X1232Y769D01*
X1187Y769D01*
X1187Y801D01*
G37*
D02*
G36*
X689Y801D02*
X734Y801D01*
X734Y769D01*
X689Y769D01*
X689Y801D01*
G37*
D02*
G36*
X689Y731D02*
X734Y731D01*
X734Y699D01*
X689Y699D01*
X689Y731D01*
G37*
D02*
G36*
X1187Y1101D02*
X1232Y1101D01*
X1232Y1069D01*
X1187Y1069D01*
X1187Y1101D01*
G37*
D02*
G04 End of Copper1*
M02*